G04 #@! TF.GenerationSoftware,KiCad,Pcbnew,(5.0.0)*
G04 #@! TF.CreationDate,2020-05-22T12:26:50+01:00*
G04 #@! TF.ProjectId,KIT88,4B495438382E6B696361645F70636200,rev?*
G04 #@! TF.SameCoordinates,Original*
G04 #@! TF.FileFunction,Copper,L2,Bot,Signal*
G04 #@! TF.FilePolarity,Positive*
%FSLAX46Y46*%
G04 Gerber Fmt 4.6, Leading zero omitted, Abs format (unit mm)*
G04 Created by KiCad (PCBNEW (5.0.0)) date 05/22/20 12:26:50*
%MOMM*%
%LPD*%
G01*
G04 APERTURE LIST*
G04 #@! TA.AperFunction,ComponentPad*
%ADD10C,3.000000*%
G04 #@! TD*
G04 #@! TA.AperFunction,ComponentPad*
%ADD11R,2.000000X2.100000*%
G04 #@! TD*
G04 #@! TA.AperFunction,ComponentPad*
%ADD12C,2.000000*%
G04 #@! TD*
G04 #@! TA.AperFunction,Conductor*
%ADD13C,0.100000*%
G04 #@! TD*
G04 #@! TA.AperFunction,ComponentPad*
%ADD14R,2.100000X2.000000*%
G04 #@! TD*
G04 #@! TA.AperFunction,ComponentPad*
%ADD15C,2.540000*%
G04 #@! TD*
G04 #@! TA.AperFunction,Conductor*
%ADD16C,2.000000*%
G04 #@! TD*
G04 #@! TA.AperFunction,ComponentPad*
%ADD17O,2.000000X3.000000*%
G04 #@! TD*
G04 #@! TA.AperFunction,ComponentPad*
%ADD18C,7.000000*%
G04 #@! TD*
G04 #@! TA.AperFunction,ComponentPad*
%ADD19C,6.000000*%
G04 #@! TD*
G04 #@! TA.AperFunction,ComponentPad*
%ADD20C,3.800000*%
G04 #@! TD*
G04 #@! TA.AperFunction,Conductor*
%ADD21C,3.800000*%
G04 #@! TD*
G04 #@! TA.AperFunction,ComponentPad*
%ADD22R,2.000000X2.000000*%
G04 #@! TD*
G04 #@! TA.AperFunction,ComponentPad*
%ADD23O,2.000000X2.000000*%
G04 #@! TD*
G04 #@! TA.AperFunction,ComponentPad*
%ADD24O,2.400000X2.400000*%
G04 #@! TD*
G04 #@! TA.AperFunction,ComponentPad*
%ADD25C,2.400000*%
G04 #@! TD*
G04 #@! TA.AperFunction,ComponentPad*
%ADD26C,2.800000*%
G04 #@! TD*
G04 #@! TA.AperFunction,ComponentPad*
%ADD27R,2.800000X2.800000*%
G04 #@! TD*
G04 #@! TA.AperFunction,ComponentPad*
%ADD28C,3.200000*%
G04 #@! TD*
G04 #@! TA.AperFunction,ComponentPad*
%ADD29R,3.200000X3.200000*%
G04 #@! TD*
G04 #@! TA.AperFunction,ComponentPad*
%ADD30C,4.000000*%
G04 #@! TD*
G04 #@! TA.AperFunction,ComponentPad*
%ADD31R,4.000000X4.000000*%
G04 #@! TD*
G04 #@! TA.AperFunction,ComponentPad*
%ADD32R,2.400000X2.400000*%
G04 #@! TD*
G04 #@! TA.AperFunction,ComponentPad*
%ADD33R,1.600000X1.600000*%
G04 #@! TD*
G04 #@! TA.AperFunction,ComponentPad*
%ADD34C,1.600000*%
G04 #@! TD*
G04 #@! TA.AperFunction,ComponentPad*
%ADD35O,1.600000X1.600000*%
G04 #@! TD*
G04 #@! TA.AperFunction,ComponentPad*
%ADD36O,10.000000X20.000000*%
G04 #@! TD*
G04 #@! TA.AperFunction,Conductor*
%ADD37C,1.270000*%
G04 #@! TD*
G04 #@! TA.AperFunction,Conductor*
%ADD38C,0.508000*%
G04 #@! TD*
G04 #@! TA.AperFunction,Conductor*
%ADD39C,2.540000*%
G04 #@! TD*
G04 APERTURE END LIST*
D10*
G04 #@! TO.P,TP1,1*
G04 #@! TO.N,/V3Anode*
X19050000Y-119380000D03*
G04 #@! TD*
G04 #@! TO.P,TP2,1*
G04 #@! TO.N,/TR2*
X56921400Y-101600000D03*
G04 #@! TD*
G04 #@! TO.P,TP6,1*
G04 #@! TO.N,/V1Anode*
X19050000Y-130810000D03*
G04 #@! TD*
G04 #@! TO.P,TP7,1*
G04 #@! TO.N,510v*
X19050000Y-142240000D03*
G04 #@! TD*
G04 #@! TO.P,TP8,1*
G04 #@! TO.N,510v*
X330200000Y-142240000D03*
G04 #@! TD*
G04 #@! TO.P,TP9,1*
G04 #@! TO.N,225v*
X254000000Y-101600000D03*
G04 #@! TD*
G04 #@! TO.P,TP10,1*
G04 #@! TO.N,/TR1*
X287020000Y-101600000D03*
G04 #@! TD*
G04 #@! TO.P,TP11,1*
G04 #@! TO.N,/TR6*
X279400000Y-101600000D03*
G04 #@! TD*
G04 #@! TO.P,TP12,1*
G04 #@! TO.N,/V2Anode*
X330200000Y-130810000D03*
G04 #@! TD*
G04 #@! TO.P,TP13,1*
G04 #@! TO.N,/V4Anode*
X330200000Y-119380000D03*
G04 #@! TD*
G04 #@! TO.P,TP14,1*
G04 #@! TO.N,GND*
X155410000Y-235344000D03*
G04 #@! TD*
G04 #@! TO.P,TP15,1*
G04 #@! TO.N,/FBR*
X109360000Y-233680000D03*
G04 #@! TD*
G04 #@! TO.P,TP16,1*
G04 #@! TO.N,/Signal1R*
X148298000Y-235344000D03*
G04 #@! TD*
G04 #@! TO.P,TP18,1*
G04 #@! TO.N,/Signal1L*
X162649000Y-235344000D03*
G04 #@! TD*
G04 #@! TO.P,TP19,1*
G04 #@! TO.N,/FBL*
X264287000Y-233680000D03*
G04 #@! TD*
G04 #@! TO.P,TP20,1*
G04 #@! TO.N,GND*
X257823000Y-233680000D03*
G04 #@! TD*
G04 #@! TO.P,TP21,1*
G04 #@! TO.N,GND*
X102959000Y-233832000D03*
G04 #@! TD*
G04 #@! TO.P,TP3,1*
G04 #@! TO.N,/TR5*
X67056000Y-101600000D03*
G04 #@! TD*
D11*
G04 #@! TO.P,TP100,1*
G04 #@! TO.N,/V1H+*
X91262200Y-108496000D03*
X91262200Y-106464000D03*
G04 #@! TD*
G04 #@! TO.P,TP101,1*
G04 #@! TO.N,/V1H-*
X96050100Y-106464000D03*
X96050100Y-108496000D03*
G04 #@! TD*
G04 #@! TO.P,TP200,1*
G04 #@! TO.N,/V2H+*
X220180000Y-109156000D03*
X220180000Y-107124000D03*
G04 #@! TD*
G04 #@! TO.P,TP201,1*
G04 #@! TO.N,/V2H-*
X224968000Y-107150000D03*
X224968000Y-109182000D03*
G04 #@! TD*
G04 #@! TO.P,TP300,1*
G04 #@! TO.N,/V3H+*
X19545300Y-176098000D03*
X19545300Y-174066000D03*
G04 #@! TD*
G04 #@! TO.P,TP301,1*
G04 #@! TO.N,/V3H-*
X25311100Y-174092000D03*
X25311100Y-176124000D03*
G04 #@! TD*
G04 #@! TO.P,TP400,1*
G04 #@! TO.N,/V4H+*
X283274000Y-209791000D03*
X283274000Y-207759000D03*
G04 #@! TD*
G04 #@! TO.P,TP401,1*
G04 #@! TO.N,/V4H-*
X279082000Y-207759000D03*
X279082000Y-209791000D03*
G04 #@! TD*
D12*
G04 #@! TO.P,TP50,1*
G04 #@! TO.N,/V5H-*
X116603923Y-201205620D03*
D13*
G04 #@! TD*
G04 #@! TO.N,/V5H-*
G04 #@! TO.C,TP50*
G36*
X116342240Y-202631812D02*
X115166670Y-201013778D01*
X116865606Y-199779428D01*
X118041176Y-201397462D01*
X116342240Y-202631812D01*
X116342240Y-202631812D01*
G37*
D12*
G04 #@! TO.P,TP50,1*
G04 #@! TO.N,/V5H-*
X114960000Y-202400000D03*
D13*
G04 #@! TD*
G04 #@! TO.N,/V5H-*
G04 #@! TO.C,TP50*
G36*
X114698317Y-203826192D02*
X113522747Y-202208158D01*
X115221683Y-200973808D01*
X116397253Y-202591842D01*
X114698317Y-203826192D01*
X114698317Y-203826192D01*
G37*
D14*
G04 #@! TO.P,TP51,1*
G04 #@! TO.N,/V5H+*
X141707000Y-193650000D03*
X139675000Y-193650000D03*
G04 #@! TD*
D12*
G04 #@! TO.P,TP60,1*
G04 #@! TO.N,/V6H-*
X212247923Y-201078620D03*
D13*
G04 #@! TD*
G04 #@! TO.N,/V6H-*
G04 #@! TO.C,TP60*
G36*
X211986240Y-202504812D02*
X210810670Y-200886778D01*
X212509606Y-199652428D01*
X213685176Y-201270462D01*
X211986240Y-202504812D01*
X211986240Y-202504812D01*
G37*
D12*
G04 #@! TO.P,TP60,1*
G04 #@! TO.N,/V6H-*
X210604000Y-202273000D03*
D13*
G04 #@! TD*
G04 #@! TO.N,/V6H-*
G04 #@! TO.C,TP60*
G36*
X210342317Y-203699192D02*
X209166747Y-202081158D01*
X210865683Y-200846808D01*
X212041253Y-202464842D01*
X210342317Y-203699192D01*
X210342317Y-203699192D01*
G37*
D14*
G04 #@! TO.P,TP61,1*
G04 #@! TO.N,/V6H+*
X237617000Y-193650000D03*
X235585000Y-193650000D03*
G04 #@! TD*
G04 #@! TO.P,TP80,1*
G04 #@! TO.N,/V8H-*
X208572000Y-219100000D03*
X206540000Y-219100000D03*
G04 #@! TD*
G04 #@! TO.P,TP81,1*
G04 #@! TO.N,/V8H+*
X208394000Y-214211000D03*
X206362000Y-214211000D03*
G04 #@! TD*
G04 #@! TO.P,TP90,1*
G04 #@! TO.N,/Stage1Heater+*
X50546000Y-125730000D03*
X48514000Y-125730000D03*
G04 #@! TD*
G04 #@! TO.P,TP91,1*
G04 #@! TO.N,/Stage1Heater-*
X42926000Y-125730000D03*
X40894000Y-125730000D03*
G04 #@! TD*
G04 #@! TO.P,TP70,1*
G04 #@! TO.N,/V7H-*
X170878000Y-220167000D03*
X168846000Y-220167000D03*
G04 #@! TD*
G04 #@! TO.P,TP71,1*
G04 #@! TO.N,/V7H+*
X170878000Y-215900000D03*
X168846000Y-215900000D03*
G04 #@! TD*
G04 #@! TO.P,TP5,1*
G04 #@! TO.N,/TR4*
X43992800Y-101410000D03*
X41960800Y-101410000D03*
G04 #@! TD*
G04 #@! TO.P,TP4,1*
G04 #@! TO.N,/TR3*
X36563300Y-101511000D03*
X34531300Y-101511000D03*
G04 #@! TD*
D15*
G04 #@! TO.P,U7,7*
G04 #@! TO.N,/U7Cathode*
X149158749Y-225377493D03*
G04 #@! TO.P,U7,6*
G04 #@! TO.N,/U7Grid*
X155498468Y-228068545D03*
G04 #@! TO.P,U7,5*
G04 #@! TO.N,/Signal2R*
X161877493Y-225491251D03*
G04 #@! TO.P,U7,4*
G04 #@! TO.N,/V7H-*
X164568545Y-219151532D03*
G04 #@! TO.P,U7,3*
G04 #@! TO.N,/V7H+*
X161991251Y-212772507D03*
G04 #@! TO.P,U7,2*
G04 #@! TO.N,/U7Grid*
X155651532Y-210081455D03*
G04 #@! TO.P,U7,1*
G04 #@! TO.N,/V7Input*
X149272507Y-212658749D03*
G04 #@! TD*
G04 #@! TO.P,U8,7*
G04 #@! TO.N,/U8Cathode*
X187258749Y-225377493D03*
G04 #@! TO.P,U8,6*
G04 #@! TO.N,/U8Grid*
X193598468Y-228068545D03*
G04 #@! TO.P,U8,5*
G04 #@! TO.N,/Signal2L*
X199977493Y-225491251D03*
G04 #@! TO.P,U8,4*
G04 #@! TO.N,/V8H-*
X202668545Y-219151532D03*
G04 #@! TO.P,U8,3*
G04 #@! TO.N,/V8H+*
X200091251Y-212772507D03*
G04 #@! TO.P,U8,2*
G04 #@! TO.N,/U8Grid*
X193751532Y-210081455D03*
G04 #@! TO.P,U8,1*
G04 #@! TO.N,/V8Input*
X187372507Y-212658749D03*
G04 #@! TD*
D12*
G04 #@! TO.P,U5,1*
G04 #@! TO.N,/Signal3Ra*
X119720000Y-188385000D03*
D16*
G04 #@! TD*
G04 #@! TO.N,/Signal3Ra*
G04 #@! TO.C,U5*
X119426107Y-188789508D02*
X120013893Y-187980492D01*
D12*
G04 #@! TO.P,U5,2*
G04 #@! TO.N,/Signal2R*
X124220000Y-185115000D03*
D16*
G04 #@! TD*
G04 #@! TO.N,/Signal2R*
G04 #@! TO.C,U5*
X123744472Y-185269508D02*
X124695528Y-184960492D01*
D12*
G04 #@! TO.P,U5,3*
G04 #@! TO.N,/U5Cathode*
X129780000Y-185115000D03*
D16*
G04 #@! TD*
G04 #@! TO.N,/U5Cathode*
G04 #@! TO.C,U5*
X129304472Y-184960492D02*
X130255528Y-185269508D01*
D12*
G04 #@! TO.P,U5,4*
G04 #@! TO.N,/V5H+*
X134280000Y-188385000D03*
D16*
G04 #@! TD*
G04 #@! TO.N,/V5H+*
G04 #@! TO.C,U5*
X133986107Y-187980492D02*
X134573893Y-188789508D01*
D17*
G04 #@! TO.P,U5,5*
G04 #@! TO.N,/V5H+*
X136000000Y-193675000D03*
D12*
G04 #@! TO.P,U5,6*
G04 #@! TO.N,/Signal3Rb*
X134280000Y-198965000D03*
D16*
G04 #@! TD*
G04 #@! TO.N,/Signal3Rb*
G04 #@! TO.C,U5*
X133986107Y-199369508D02*
X134573893Y-198560492D01*
D12*
G04 #@! TO.P,U5,7*
G04 #@! TO.N,/Signal3R*
X129780000Y-202235000D03*
D16*
G04 #@! TD*
G04 #@! TO.N,/Signal3R*
G04 #@! TO.C,U5*
X129304472Y-202389508D02*
X130255528Y-202080492D01*
D12*
G04 #@! TO.P,U5,8*
G04 #@! TO.N,/U5Cathode*
X124220000Y-202235000D03*
D16*
G04 #@! TD*
G04 #@! TO.N,/U5Cathode*
G04 #@! TO.C,U5*
X123744472Y-202080492D02*
X124695528Y-202389508D01*
D12*
G04 #@! TO.P,U5,9*
G04 #@! TO.N,/V5H-*
X119720000Y-198965000D03*
D16*
G04 #@! TD*
G04 #@! TO.N,/V5H-*
G04 #@! TO.C,U5*
X119426107Y-198560492D02*
X120013893Y-199369508D01*
D12*
G04 #@! TO.P,U6,1*
G04 #@! TO.N,/Signal3La*
X214970000Y-188385000D03*
D16*
G04 #@! TD*
G04 #@! TO.N,/Signal3La*
G04 #@! TO.C,U6*
X214676107Y-188789508D02*
X215263893Y-187980492D01*
D12*
G04 #@! TO.P,U6,2*
G04 #@! TO.N,/Signal2L*
X219470000Y-185115000D03*
D16*
G04 #@! TD*
G04 #@! TO.N,/Signal2L*
G04 #@! TO.C,U6*
X218994472Y-185269508D02*
X219945528Y-184960492D01*
D12*
G04 #@! TO.P,U6,3*
G04 #@! TO.N,/U6Cathode*
X225030000Y-185115000D03*
D16*
G04 #@! TD*
G04 #@! TO.N,/U6Cathode*
G04 #@! TO.C,U6*
X224554472Y-184960492D02*
X225505528Y-185269508D01*
D12*
G04 #@! TO.P,U6,4*
G04 #@! TO.N,/V6H+*
X229530000Y-188385000D03*
D16*
G04 #@! TD*
G04 #@! TO.N,/V6H+*
G04 #@! TO.C,U6*
X229236107Y-187980492D02*
X229823893Y-188789508D01*
D17*
G04 #@! TO.P,U6,5*
G04 #@! TO.N,/V6H+*
X231250000Y-193675000D03*
D12*
G04 #@! TO.P,U6,6*
G04 #@! TO.N,/Signal3Lb*
X229530000Y-198965000D03*
D16*
G04 #@! TD*
G04 #@! TO.N,/Signal3Lb*
G04 #@! TO.C,U6*
X229236107Y-199369508D02*
X229823893Y-198560492D01*
D12*
G04 #@! TO.P,U6,7*
G04 #@! TO.N,/Signal3L*
X225030000Y-202235000D03*
D16*
G04 #@! TD*
G04 #@! TO.N,/Signal3L*
G04 #@! TO.C,U6*
X224554472Y-202389508D02*
X225505528Y-202080492D01*
D12*
G04 #@! TO.P,U6,8*
G04 #@! TO.N,/U6Cathode*
X219470000Y-202235000D03*
D16*
G04 #@! TD*
G04 #@! TO.N,/U6Cathode*
G04 #@! TO.C,U6*
X218994472Y-202080492D02*
X219945528Y-202389508D01*
D12*
G04 #@! TO.P,U6,9*
G04 #@! TO.N,/V6H-*
X214970000Y-198965000D03*
D16*
G04 #@! TD*
G04 #@! TO.N,/V6H-*
G04 #@! TO.C,U6*
X214676107Y-198560492D02*
X215263893Y-199369508D01*
D18*
G04 #@! TO.P,U2,10*
G04 #@! TO.N,N/C*
X258125000Y-127000000D03*
G04 #@! TO.P,U2,9*
X218125000Y-127000000D03*
D19*
G04 #@! TO.P,U2,*
G04 #@! TO.N,*
X238125000Y-127000000D03*
D20*
G04 #@! TO.P,U2,8*
G04 #@! TO.N,/V2Cathode*
X228738384Y-130888064D03*
D21*
G04 #@! TD*
G04 #@! TO.N,/V2Cathode*
G04 #@! TO.C,U2*
X229350677Y-132366271D02*
X228126091Y-129409857D01*
D20*
G04 #@! TO.P,U2,7*
G04 #@! TO.N,/V2H+*
X234001086Y-136956010D03*
D21*
G04 #@! TD*
G04 #@! TO.N,/V2H+*
G04 #@! TO.C,U2*
X235479293Y-137568303D02*
X232522879Y-136343717D01*
D20*
G04 #@! TO.P,U2,6*
G04 #@! TO.N,N/C*
X242013064Y-136386616D03*
D21*
G04 #@! TD*
G04 #@! TO.N,N/C*
G04 #@! TO.C,U2*
X240534857Y-136998909D02*
X243491271Y-135774323D01*
D20*
G04 #@! TO.P,U2,5*
G04 #@! TO.N,/Signal5Lb*
X248081010Y-131123914D03*
D21*
G04 #@! TD*
G04 #@! TO.N,/Signal5Lb*
G04 #@! TO.C,U2*
X247468717Y-132602121D02*
X248693303Y-129645707D01*
D20*
G04 #@! TO.P,U2,4*
G04 #@! TO.N,/V2Grid*
X247511616Y-123111936D03*
D21*
G04 #@! TD*
G04 #@! TO.N,/V2Grid*
G04 #@! TO.C,U2*
X248123909Y-124590143D02*
X246899323Y-121633729D01*
D20*
G04 #@! TO.P,U2,3*
G04 #@! TO.N,/V2Anode*
X242248914Y-117043990D03*
D21*
G04 #@! TD*
G04 #@! TO.N,/V2Anode*
G04 #@! TO.C,U2*
X240770707Y-116431697D02*
X243727121Y-117656283D01*
D20*
G04 #@! TO.P,U2,2*
G04 #@! TO.N,/V2H-*
X234236936Y-117613384D03*
D21*
G04 #@! TD*
G04 #@! TO.N,/V2H-*
G04 #@! TO.C,U2*
X235715143Y-117001091D02*
X232758729Y-118225677D01*
D20*
G04 #@! TO.P,U2,1*
G04 #@! TO.N,N/C*
X228168990Y-122876086D03*
D21*
G04 #@! TD*
G04 #@! TO.N,N/C*
G04 #@! TO.C,U2*
X227556697Y-124354293D02*
X228781283Y-121397879D01*
D18*
G04 #@! TO.P,U4,10*
G04 #@! TO.N,N/C*
X321625000Y-190500000D03*
G04 #@! TO.P,U4,9*
X281625000Y-190500000D03*
D19*
G04 #@! TO.P,U4,*
G04 #@! TO.N,*
X301625000Y-190500000D03*
D20*
G04 #@! TO.P,U4,8*
G04 #@! TO.N,/V4Cathode*
X292238384Y-194388064D03*
D21*
G04 #@! TD*
G04 #@! TO.N,/V4Cathode*
G04 #@! TO.C,U4*
X292850677Y-195866271D02*
X291626091Y-192909857D01*
D20*
G04 #@! TO.P,U4,7*
G04 #@! TO.N,/V4H+*
X297501086Y-200456010D03*
D21*
G04 #@! TD*
G04 #@! TO.N,/V4H+*
G04 #@! TO.C,U4*
X298979293Y-201068303D02*
X296022879Y-199843717D01*
D20*
G04 #@! TO.P,U4,6*
G04 #@! TO.N,N/C*
X305513064Y-199886616D03*
D21*
G04 #@! TD*
G04 #@! TO.N,N/C*
G04 #@! TO.C,U4*
X304034857Y-200498909D02*
X306991271Y-199274323D01*
D20*
G04 #@! TO.P,U4,5*
G04 #@! TO.N,/Signal5La*
X311581010Y-194623914D03*
D21*
G04 #@! TD*
G04 #@! TO.N,/Signal5La*
G04 #@! TO.C,U4*
X310968717Y-196102121D02*
X312193303Y-193145707D01*
D20*
G04 #@! TO.P,U4,4*
G04 #@! TO.N,/V4Grid*
X311011616Y-186611936D03*
D21*
G04 #@! TD*
G04 #@! TO.N,/V4Grid*
G04 #@! TO.C,U4*
X311623909Y-188090143D02*
X310399323Y-185133729D01*
D20*
G04 #@! TO.P,U4,3*
G04 #@! TO.N,/V4Anode*
X305748914Y-180543990D03*
D21*
G04 #@! TD*
G04 #@! TO.N,/V4Anode*
G04 #@! TO.C,U4*
X304270707Y-179931697D02*
X307227121Y-181156283D01*
D20*
G04 #@! TO.P,U4,2*
G04 #@! TO.N,/V4H-*
X297736936Y-181113384D03*
D21*
G04 #@! TD*
G04 #@! TO.N,/V4H-*
G04 #@! TO.C,U4*
X299215143Y-180501091D02*
X296258729Y-181725677D01*
D20*
G04 #@! TO.P,U4,1*
G04 #@! TO.N,N/C*
X291668990Y-186376086D03*
D21*
G04 #@! TD*
G04 #@! TO.N,N/C*
G04 #@! TO.C,U4*
X291056697Y-187854293D02*
X292281283Y-184897879D01*
D18*
G04 #@! TO.P,U1,10*
G04 #@! TO.N,N/C*
X131125000Y-127000000D03*
G04 #@! TO.P,U1,9*
X91125000Y-127000000D03*
D19*
G04 #@! TO.P,U1,*
G04 #@! TO.N,*
X111125000Y-127000000D03*
D20*
G04 #@! TO.P,U1,8*
G04 #@! TO.N,/V1Cathode*
X101738384Y-130888064D03*
D21*
G04 #@! TD*
G04 #@! TO.N,/V1Cathode*
G04 #@! TO.C,U1*
X102350677Y-132366271D02*
X101126091Y-129409857D01*
D20*
G04 #@! TO.P,U1,7*
G04 #@! TO.N,/V1H+*
X107001086Y-136956010D03*
D21*
G04 #@! TD*
G04 #@! TO.N,/V1H+*
G04 #@! TO.C,U1*
X108479293Y-137568303D02*
X105522879Y-136343717D01*
D20*
G04 #@! TO.P,U1,6*
G04 #@! TO.N,N/C*
X115013064Y-136386616D03*
D21*
G04 #@! TD*
G04 #@! TO.N,N/C*
G04 #@! TO.C,U1*
X113534857Y-136998909D02*
X116491271Y-135774323D01*
D20*
G04 #@! TO.P,U1,5*
G04 #@! TO.N,/Signal5Ra*
X121081010Y-131123914D03*
D21*
G04 #@! TD*
G04 #@! TO.N,/Signal5Ra*
G04 #@! TO.C,U1*
X120468717Y-132602121D02*
X121693303Y-129645707D01*
D20*
G04 #@! TO.P,U1,4*
G04 #@! TO.N,/V1Grid*
X120511616Y-123111936D03*
D21*
G04 #@! TD*
G04 #@! TO.N,/V1Grid*
G04 #@! TO.C,U1*
X121123909Y-124590143D02*
X119899323Y-121633729D01*
D20*
G04 #@! TO.P,U1,3*
G04 #@! TO.N,/V1Anode*
X115248914Y-117043990D03*
D21*
G04 #@! TD*
G04 #@! TO.N,/V1Anode*
G04 #@! TO.C,U1*
X113770707Y-116431697D02*
X116727121Y-117656283D01*
D20*
G04 #@! TO.P,U1,2*
G04 #@! TO.N,/V1H-*
X107236936Y-117613384D03*
D21*
G04 #@! TD*
G04 #@! TO.N,/V1H-*
G04 #@! TO.C,U1*
X108715143Y-117001091D02*
X105758729Y-118225677D01*
D20*
G04 #@! TO.P,U1,1*
G04 #@! TO.N,N/C*
X101168990Y-122876086D03*
D21*
G04 #@! TD*
G04 #@! TO.N,N/C*
G04 #@! TO.C,U1*
X100556697Y-124354293D02*
X101781283Y-121397879D01*
D18*
G04 #@! TO.P,U3,10*
G04 #@! TO.N,N/C*
X67625000Y-190500000D03*
G04 #@! TO.P,U3,9*
X27625000Y-190500000D03*
D19*
G04 #@! TO.P,U3,*
G04 #@! TO.N,*
X47625000Y-190500000D03*
D20*
G04 #@! TO.P,U3,8*
G04 #@! TO.N,/V3Cathode*
X38238384Y-194388064D03*
D21*
G04 #@! TD*
G04 #@! TO.N,/V3Cathode*
G04 #@! TO.C,U3*
X38850677Y-195866271D02*
X37626091Y-192909857D01*
D20*
G04 #@! TO.P,U3,7*
G04 #@! TO.N,/V3H+*
X43501086Y-200456010D03*
D21*
G04 #@! TD*
G04 #@! TO.N,/V3H+*
G04 #@! TO.C,U3*
X44979293Y-201068303D02*
X42022879Y-199843717D01*
D20*
G04 #@! TO.P,U3,6*
G04 #@! TO.N,N/C*
X51513064Y-199886616D03*
D21*
G04 #@! TD*
G04 #@! TO.N,N/C*
G04 #@! TO.C,U3*
X50034857Y-200498909D02*
X52991271Y-199274323D01*
D20*
G04 #@! TO.P,U3,5*
G04 #@! TO.N,/Signal5Rb*
X57581010Y-194623914D03*
D21*
G04 #@! TD*
G04 #@! TO.N,/Signal5Rb*
G04 #@! TO.C,U3*
X56968717Y-196102121D02*
X58193303Y-193145707D01*
D20*
G04 #@! TO.P,U3,4*
G04 #@! TO.N,/V3Grid*
X57011616Y-186611936D03*
D21*
G04 #@! TD*
G04 #@! TO.N,/V3Grid*
G04 #@! TO.C,U3*
X57623909Y-188090143D02*
X56399323Y-185133729D01*
D20*
G04 #@! TO.P,U3,3*
G04 #@! TO.N,/V3Anode*
X51748914Y-180543990D03*
D21*
G04 #@! TD*
G04 #@! TO.N,/V3Anode*
G04 #@! TO.C,U3*
X50270707Y-179931697D02*
X53227121Y-181156283D01*
D20*
G04 #@! TO.P,U3,2*
G04 #@! TO.N,/V3H-*
X43736936Y-181113384D03*
D21*
G04 #@! TD*
G04 #@! TO.N,/V3H-*
G04 #@! TO.C,U3*
X45215143Y-180501091D02*
X42258729Y-181725677D01*
D20*
G04 #@! TO.P,U3,1*
G04 #@! TO.N,N/C*
X37668990Y-186376086D03*
D21*
G04 #@! TD*
G04 #@! TO.N,N/C*
G04 #@! TO.C,U3*
X37056697Y-187854293D02*
X38281283Y-184897879D01*
D22*
G04 #@! TO.P,BR2,1*
G04 #@! TO.N,/Stage1Heater+*
X48475900Y-118567000D03*
D23*
G04 #@! TO.P,BR2,3*
G04 #@! TO.N,/Stage1Heater-*
X43395900Y-113487000D03*
G04 #@! TO.P,BR2,2*
G04 #@! TO.N,/TR4*
X48475900Y-113487000D03*
G04 #@! TO.P,BR2,4*
G04 #@! TO.N,/TR3*
X43395900Y-118567000D03*
G04 #@! TD*
D24*
G04 #@! TO.P,R13,2*
G04 #@! TO.N,GND*
X91719400Y-152400000D03*
D25*
G04 #@! TO.P,R13,1*
G04 #@! TO.N,/V1Cathode*
X45999400Y-152400000D03*
G04 #@! TD*
G04 #@! TO.P,R14,1*
G04 #@! TO.N,GND*
X264261000Y-152400000D03*
D24*
G04 #@! TO.P,R14,2*
G04 #@! TO.N,/V2Cathode*
X309981000Y-152400000D03*
G04 #@! TD*
D25*
G04 #@! TO.P,R15,1*
G04 #@! TO.N,GND*
X46126400Y-165100000D03*
D24*
G04 #@! TO.P,R15,2*
G04 #@! TO.N,/V3Cathode*
X91846400Y-165100000D03*
G04 #@! TD*
G04 #@! TO.P,R16,2*
G04 #@! TO.N,GND*
X309575000Y-165100000D03*
D25*
G04 #@! TO.P,R16,1*
G04 #@! TO.N,/V4Cathode*
X263855000Y-165100000D03*
G04 #@! TD*
D26*
G04 #@! TO.P,BR1,4*
G04 #@! TO.N,/TR1*
X286055000Y-118059000D03*
G04 #@! TO.P,BR1,3*
G04 #@! TO.N,GND*
X280975000Y-118059000D03*
G04 #@! TO.P,BR1,2*
G04 #@! TO.N,/TR6*
X275895000Y-118059000D03*
D27*
G04 #@! TO.P,BR1,1*
G04 #@! TO.N,510v*
X270815000Y-118059000D03*
G04 #@! TD*
D28*
G04 #@! TO.P,BR3,4*
G04 #@! TO.N,/TR2*
X56972200Y-109576000D03*
G04 #@! TO.P,BR3,3*
G04 #@! TO.N,/BiasV*
X62052200Y-109576000D03*
G04 #@! TO.P,BR3,2*
G04 #@! TO.N,/TR5*
X67132200Y-109576000D03*
D29*
G04 #@! TO.P,BR3,1*
G04 #@! TO.N,GND*
X72212200Y-109576000D03*
G04 #@! TD*
D30*
G04 #@! TO.P,C1,2*
G04 #@! TO.N,225v*
X156210000Y-129380000D03*
D31*
G04 #@! TO.P,C1,1*
G04 #@! TO.N,510v*
X156210000Y-119380000D03*
G04 #@! TD*
G04 #@! TO.P,C2,1*
G04 #@! TO.N,225v*
X193040000Y-119380000D03*
D30*
G04 #@! TO.P,C2,2*
G04 #@! TO.N,GND*
X193040000Y-129380000D03*
G04 #@! TD*
D32*
G04 #@! TO.P,C3,1*
G04 #@! TO.N,/Stage1Heater+*
X72212200Y-121818000D03*
D25*
G04 #@! TO.P,C3,2*
G04 #@! TO.N,/Stage1Heater-*
X79712200Y-121818000D03*
G04 #@! TD*
D22*
G04 #@! TO.P,C4,1*
G04 #@! TO.N,GND*
X64744600Y-121844000D03*
D12*
G04 #@! TO.P,C4,2*
G04 #@! TO.N,/BiasV*
X57244600Y-121844000D03*
G04 #@! TD*
D31*
G04 #@! TO.P,C5,1*
G04 #@! TO.N,365v*
X153035000Y-165062000D03*
D30*
G04 #@! TO.P,C5,2*
G04 #@! TO.N,GND*
X153035000Y-155062000D03*
G04 #@! TD*
G04 #@! TO.P,C6,2*
G04 #@! TO.N,GND*
X195491000Y-154884000D03*
D31*
G04 #@! TO.P,C6,1*
G04 #@! TO.N,290v*
X195491000Y-164884000D03*
G04 #@! TD*
D25*
G04 #@! TO.P,C7,1*
G04 #@! TO.N,/Signal4Ra*
X116916000Y-155105000D03*
G04 #@! TO.P,C7,2*
G04 #@! TO.N,/Signal3Ra*
X116916000Y-177605000D03*
G04 #@! TD*
G04 #@! TO.P,C8,1*
G04 #@! TO.N,/Signal4Lb*
X230759000Y-154902000D03*
G04 #@! TO.P,C8,2*
G04 #@! TO.N,/Signal3Lb*
X230759000Y-177402000D03*
G04 #@! TD*
D33*
G04 #@! TO.P,C9,1*
G04 #@! TO.N,/V1Cathode*
X34721800Y-152400000D03*
D34*
G04 #@! TO.P,C9,2*
G04 #@! TO.N,GND*
X30921800Y-152400000D03*
G04 #@! TD*
G04 #@! TO.P,C10,2*
G04 #@! TO.N,GND*
X322621000Y-152400000D03*
D33*
G04 #@! TO.P,C10,1*
G04 #@! TO.N,/V2Cathode*
X318821000Y-152400000D03*
G04 #@! TD*
D34*
G04 #@! TO.P,C11,2*
G04 #@! TO.N,GND*
X30566200Y-165100000D03*
D33*
G04 #@! TO.P,C11,1*
G04 #@! TO.N,/V3Cathode*
X34366200Y-165100000D03*
G04 #@! TD*
G04 #@! TO.P,C12,1*
G04 #@! TO.N,/V4Cathode*
X318821000Y-165100000D03*
D34*
G04 #@! TO.P,C12,2*
G04 #@! TO.N,GND*
X322621000Y-165100000D03*
G04 #@! TD*
D25*
G04 #@! TO.P,C13,1*
G04 #@! TO.N,/Signal3R*
X149606000Y-200203000D03*
G04 #@! TO.P,C13,2*
G04 #@! TO.N,GND*
X164606000Y-200203000D03*
G04 #@! TD*
G04 #@! TO.P,C14,2*
G04 #@! TO.N,GND*
X179437000Y-200101000D03*
G04 #@! TO.P,C14,1*
G04 #@! TO.N,/Signal3L*
X194437000Y-200101000D03*
G04 #@! TD*
G04 #@! TO.P,C15,2*
G04 #@! TO.N,/Signal3Rb*
X104402300Y-195174000D03*
G04 #@! TO.P,C15,1*
G04 #@! TO.N,/Signal4Rb*
X81902300Y-195174000D03*
G04 #@! TD*
G04 #@! TO.P,C16,2*
G04 #@! TO.N,/Signal3La*
X281707000Y-219837000D03*
G04 #@! TO.P,C16,1*
G04 #@! TO.N,/Signal4La*
X259207000Y-219837000D03*
G04 #@! TD*
D32*
G04 #@! TO.P,C17,1*
G04 #@! TO.N,/U7Cathode2*
X115913000Y-219342000D03*
D25*
G04 #@! TO.P,C17,2*
G04 #@! TO.N,GND*
X115913000Y-211842000D03*
G04 #@! TD*
G04 #@! TO.P,C18,2*
G04 #@! TO.N,GND*
X236792000Y-212223000D03*
D32*
G04 #@! TO.P,C18,1*
G04 #@! TO.N,/U8Cathode2*
X236792000Y-219723000D03*
G04 #@! TD*
D34*
G04 #@! TO.P,C19,1*
G04 #@! TO.N,/U7Cathode*
X98056700Y-233655000D03*
D35*
G04 #@! TO.P,C19,2*
G04 #@! TO.N,/FBR*
X78056700Y-233655000D03*
G04 #@! TD*
D25*
G04 #@! TO.P,R1,1*
G04 #@! TO.N,365v*
X104127000Y-100216000D03*
D24*
G04 #@! TO.P,R1,2*
G04 #@! TO.N,510v*
X134607000Y-100216000D03*
G04 #@! TD*
D35*
G04 #@! TO.P,R3,2*
G04 #@! TO.N,-10v*
X57480200Y-133401000D03*
D34*
G04 #@! TO.P,R3,1*
G04 #@! TO.N,GND*
X72720200Y-133401000D03*
G04 #@! TD*
D25*
G04 #@! TO.P,R4,1*
G04 #@! TO.N,290v*
X184506000Y-144958000D03*
D24*
G04 #@! TO.P,R4,2*
G04 #@! TO.N,365v*
X164186000Y-144958000D03*
G04 #@! TD*
D34*
G04 #@! TO.P,R5,1*
G04 #@! TO.N,-10v*
X57467500Y-137109000D03*
D35*
G04 #@! TO.P,R5,2*
G04 #@! TO.N,/BiasV*
X72707500Y-137109000D03*
G04 #@! TD*
D25*
G04 #@! TO.P,R6,1*
G04 #@! TO.N,/V1Grid*
X126556000Y-144843000D03*
D24*
G04 #@! TO.P,R6,2*
G04 #@! TO.N,225v*
X126556000Y-165163000D03*
G04 #@! TD*
D34*
G04 #@! TO.P,R8,1*
G04 #@! TO.N,/Signal5Ra*
X105283000Y-151841000D03*
D35*
G04 #@! TO.P,R8,2*
G04 #@! TO.N,/Signal4Ra*
X105283000Y-167081000D03*
G04 #@! TD*
G04 #@! TO.P,R9,2*
G04 #@! TO.N,-10v*
X101549000Y-151828000D03*
D34*
G04 #@! TO.P,R9,1*
G04 #@! TO.N,/Signal4Ra*
X101549000Y-167068000D03*
G04 #@! TD*
D35*
G04 #@! TO.P,R10,2*
G04 #@! TO.N,/Signal4Lb*
X242519000Y-169189000D03*
D34*
G04 #@! TO.P,R10,1*
G04 #@! TO.N,/Signal5Lb*
X242519000Y-153949000D03*
G04 #@! TD*
D35*
G04 #@! TO.P,R11,2*
G04 #@! TO.N,/Signal4Lb*
X246253000Y-153962000D03*
D34*
G04 #@! TO.P,R11,1*
G04 #@! TO.N,-10v*
X246253000Y-169202000D03*
G04 #@! TD*
D24*
G04 #@! TO.P,R12,2*
G04 #@! TO.N,/V2Grid*
X293916000Y-137401000D03*
D25*
G04 #@! TO.P,R12,1*
G04 #@! TO.N,225v*
X273596000Y-137401000D03*
G04 #@! TD*
D24*
G04 #@! TO.P,R17,2*
G04 #@! TO.N,/Signal2R*
X126365000Y-177508000D03*
D25*
G04 #@! TO.P,R17,1*
G04 #@! TO.N,290v*
X146685000Y-177508000D03*
G04 #@! TD*
D24*
G04 #@! TO.P,R18,2*
G04 #@! TO.N,/Signal2L*
X220599000Y-177508000D03*
D25*
G04 #@! TO.P,R18,1*
G04 #@! TO.N,290v*
X200279000Y-177508000D03*
G04 #@! TD*
D24*
G04 #@! TO.P,R21,2*
G04 #@! TO.N,/U5Cathode*
X146723000Y-190170000D03*
D25*
G04 #@! TO.P,R21,1*
G04 #@! TO.N,GND*
X167043000Y-190170000D03*
G04 #@! TD*
D24*
G04 #@! TO.P,R22,2*
G04 #@! TO.N,/U6Cathode*
X199784000Y-190170000D03*
D25*
G04 #@! TO.P,R22,1*
G04 #@! TO.N,GND*
X179464000Y-190170000D03*
G04 #@! TD*
D35*
G04 #@! TO.P,R23,2*
G04 #@! TO.N,/Signal3R*
X109957000Y-201778000D03*
D34*
G04 #@! TO.P,R23,1*
G04 #@! TO.N,/Signal2R*
X109957000Y-186538000D03*
G04 #@! TD*
G04 #@! TO.P,R25,1*
G04 #@! TO.N,/Signal2L*
X204737000Y-185014000D03*
D35*
G04 #@! TO.P,R25,2*
G04 #@! TO.N,/Signal3L*
X204737000Y-200254000D03*
G04 #@! TD*
D34*
G04 #@! TO.P,R26,1*
G04 #@! TO.N,/Signal4La*
X259461000Y-200114000D03*
D35*
G04 #@! TO.P,R26,2*
G04 #@! TO.N,-10v*
X274701000Y-200114000D03*
G04 #@! TD*
G04 #@! TO.P,R27,2*
G04 #@! TO.N,/Signal4La*
X259474000Y-203873000D03*
D34*
G04 #@! TO.P,R27,1*
G04 #@! TO.N,/Signal5La*
X274714000Y-203873000D03*
G04 #@! TD*
G04 #@! TO.P,R28,1*
G04 #@! TO.N,/Signal1R*
X142075000Y-208166000D03*
D35*
G04 #@! TO.P,R28,2*
G04 #@! TO.N,GND*
X126835000Y-208166000D03*
G04 #@! TD*
D34*
G04 #@! TO.P,R29,1*
G04 #@! TO.N,/Signal1L*
X166522000Y-207912000D03*
D35*
G04 #@! TO.P,R29,2*
G04 #@! TO.N,GND*
X181762000Y-207912000D03*
G04 #@! TD*
D34*
G04 #@! TO.P,R30,1*
G04 #@! TO.N,-10v*
X32562800Y-214833000D03*
D35*
G04 #@! TO.P,R30,2*
G04 #@! TO.N,/Signal4Rb*
X32562800Y-230073000D03*
G04 #@! TD*
G04 #@! TO.P,R31,2*
G04 #@! TO.N,/Signal4Rb*
X36322000Y-230060000D03*
D34*
G04 #@! TO.P,R31,1*
G04 #@! TO.N,/Signal5Rb*
X36322000Y-214820000D03*
G04 #@! TD*
D24*
G04 #@! TO.P,R32,2*
G04 #@! TO.N,/V3Grid*
X60159900Y-215544000D03*
D25*
G04 #@! TO.P,R32,1*
G04 #@! TO.N,225v*
X80479900Y-215544000D03*
G04 #@! TD*
G04 #@! TO.P,R33,1*
G04 #@! TO.N,/V4Grid*
X330581000Y-171755000D03*
D24*
G04 #@! TO.P,R33,2*
G04 #@! TO.N,225v*
X330581000Y-151435000D03*
G04 #@! TD*
D34*
G04 #@! TO.P,R34,1*
G04 #@! TO.N,/V7Input*
X141833000Y-218567000D03*
D35*
G04 #@! TO.P,R34,2*
G04 #@! TO.N,/Signal1R*
X126593000Y-218567000D03*
G04 #@! TD*
G04 #@! TO.P,R35,2*
G04 #@! TO.N,/Signal1L*
X166510000Y-211696000D03*
D34*
G04 #@! TO.P,R35,1*
G04 #@! TO.N,/V8Input*
X181750000Y-211696000D03*
G04 #@! TD*
D35*
G04 #@! TO.P,R36,2*
G04 #@! TO.N,/U7Grid*
X141567000Y-222263000D03*
D34*
G04 #@! TO.P,R36,1*
G04 #@! TO.N,/Signal2R*
X141567000Y-237503000D03*
G04 #@! TD*
G04 #@! TO.P,R37,1*
G04 #@! TO.N,/Signal2L*
X181254000Y-233274000D03*
D35*
G04 #@! TO.P,R37,2*
G04 #@! TO.N,/U8Grid*
X181254000Y-218034000D03*
G04 #@! TD*
G04 #@! TO.P,R38,2*
G04 #@! TO.N,/FBR*
X82943700Y-228194000D03*
D34*
G04 #@! TO.P,R38,1*
G04 #@! TO.N,/U7Cathode*
X98183700Y-228194000D03*
G04 #@! TD*
G04 #@! TO.P,R39,1*
G04 #@! TO.N,/U8Cathode*
X229298000Y-229591000D03*
D35*
G04 #@! TO.P,R39,2*
G04 #@! TO.N,/FBL*
X244538000Y-229591000D03*
G04 #@! TD*
D34*
G04 #@! TO.P,R40,1*
G04 #@! TO.N,/U7Cathode*
X136233000Y-228105000D03*
D35*
G04 #@! TO.P,R40,2*
G04 #@! TO.N,/U7Cathode2*
X120993000Y-228105000D03*
G04 #@! TD*
G04 #@! TO.P,R41,2*
G04 #@! TO.N,/U8Cathode2*
X207747000Y-229578000D03*
D34*
G04 #@! TO.P,R41,1*
G04 #@! TO.N,/U8Cathode*
X222987000Y-229578000D03*
G04 #@! TD*
D25*
G04 #@! TO.P,R70,1*
G04 #@! TO.N,365v*
X136817000Y-144831000D03*
D24*
G04 #@! TO.P,R70,2*
G04 #@! TO.N,/Signal3Ra*
X136817000Y-165151000D03*
G04 #@! TD*
G04 #@! TO.P,R71,2*
G04 #@! TO.N,/Signal3Ra*
X131585000Y-165151000D03*
D25*
G04 #@! TO.P,R71,1*
G04 #@! TO.N,365v*
X131585000Y-144831000D03*
G04 #@! TD*
G04 #@! TO.P,R190,1*
G04 #@! TO.N,/Signal3Lb*
X261493000Y-173444000D03*
D24*
G04 #@! TO.P,R190,2*
G04 #@! TO.N,365v*
X261493000Y-193764000D03*
G04 #@! TD*
D25*
G04 #@! TO.P,R191,1*
G04 #@! TO.N,/Signal3Lb*
X256438000Y-173444000D03*
D24*
G04 #@! TO.P,R191,2*
G04 #@! TO.N,365v*
X256438000Y-193764000D03*
G04 #@! TD*
D25*
G04 #@! TO.P,R200,1*
G04 #@! TO.N,365v*
X271590000Y-193764000D03*
D24*
G04 #@! TO.P,R200,2*
G04 #@! TO.N,/Signal3La*
X271590000Y-173444000D03*
G04 #@! TD*
D25*
G04 #@! TO.P,R201,1*
G04 #@! TO.N,365v*
X266535000Y-193764000D03*
D24*
G04 #@! TO.P,R201,2*
G04 #@! TO.N,/Signal3La*
X266535000Y-173444000D03*
G04 #@! TD*
D25*
G04 #@! TO.P,R240,1*
G04 #@! TO.N,/Signal3Rb*
X160718000Y-178473000D03*
D24*
G04 #@! TO.P,R240,2*
G04 #@! TO.N,365v*
X181038000Y-178473000D03*
G04 #@! TD*
G04 #@! TO.P,R241,2*
G04 #@! TO.N,365v*
X181038000Y-183528000D03*
D25*
G04 #@! TO.P,R241,1*
G04 #@! TO.N,/Signal3Rb*
X160718000Y-183528000D03*
G04 #@! TD*
G04 #@! TO.P,RS1,1*
G04 #@! TO.N,510v*
X146228000Y-101905000D03*
D24*
G04 #@! TO.P,RS1,2*
G04 #@! TO.N,225v*
X166548000Y-101905000D03*
G04 #@! TD*
G04 #@! TO.P,RS2,2*
G04 #@! TO.N,GND*
X203124000Y-101905000D03*
D25*
G04 #@! TO.P,RS2,1*
G04 #@! TO.N,225v*
X182804000Y-101905000D03*
G04 #@! TD*
D34*
G04 #@! TO.P,C20,1*
G04 #@! TO.N,/U8Cathode*
X224511000Y-236309000D03*
D35*
G04 #@! TO.P,C20,2*
G04 #@! TO.N,/FBL*
X244511000Y-236309000D03*
G04 #@! TD*
D11*
G04 #@! TO.P,TP0,1*
G04 #@! TO.N,N/C*
X174294800Y-166763700D03*
X174294800Y-164223700D03*
D36*
X174294800Y-159143700D03*
D11*
X174294800Y-161937700D03*
G04 #@! TD*
D37*
G04 #@! TO.N,GND*
X203124000Y-101905000D02*
X203124000Y-119296000D01*
X203124000Y-119296000D02*
X193040000Y-129380000D01*
X164606000Y-190170000D02*
X164029100Y-190170000D01*
X164029100Y-190170000D02*
X150113200Y-176254100D01*
X150113200Y-176254100D02*
X150113200Y-157983800D01*
X150113200Y-157983800D02*
X153035000Y-155062000D01*
X167043000Y-190170000D02*
X164606000Y-190170000D01*
X164606000Y-190170000D02*
X164606000Y-200203000D01*
X320931600Y-163410600D02*
X322621000Y-165100000D01*
X312045000Y-165100000D02*
X313734400Y-163410600D01*
X313734400Y-163410600D02*
X320931600Y-163410600D01*
X322621000Y-152400000D02*
X322621000Y-161721200D01*
X322621000Y-161721200D02*
X320931600Y-163410600D01*
X309575000Y-165100000D02*
X312045000Y-165100000D01*
X179437000Y-190197000D02*
X179464000Y-190170000D01*
X179437000Y-200101000D02*
X179437000Y-190197000D01*
X179437000Y-190197000D02*
X167070000Y-190197000D01*
X167070000Y-190197000D02*
X167043000Y-190170000D01*
X157852000Y-206201600D02*
X158607400Y-206201600D01*
X158607400Y-206201600D02*
X164606000Y-200203000D01*
X128905000Y-208166000D02*
X130869400Y-206201600D01*
X130869400Y-206201600D02*
X157852000Y-206201600D01*
X157852000Y-206201600D02*
X157852000Y-232902000D01*
X157852000Y-232902000D02*
X155410000Y-235344000D01*
X126835000Y-208166000D02*
X128905000Y-208166000D01*
X91719400Y-152400000D02*
X89249400Y-152400000D01*
X46126400Y-165100000D02*
X52451000Y-158775400D01*
X52451000Y-158775400D02*
X82874000Y-158775400D01*
X82874000Y-158775400D02*
X89249400Y-152400000D01*
X115913000Y-211842000D02*
X102959000Y-224796000D01*
X102959000Y-224796000D02*
X102959000Y-233832000D01*
X72212200Y-109576000D02*
X72212200Y-112446000D01*
X64744600Y-121844000D02*
X64744600Y-119574000D01*
X64744600Y-119574000D02*
X71872600Y-112446000D01*
X71872600Y-112446000D02*
X72212200Y-112446000D01*
X72720200Y-133401000D02*
X64744600Y-125425400D01*
X64744600Y-125425400D02*
X64744600Y-121844000D01*
X236792000Y-212223000D02*
X257823000Y-233254000D01*
X257823000Y-233254000D02*
X257823000Y-233680000D01*
X181762000Y-205842000D02*
X179437000Y-203517000D01*
X179437000Y-203517000D02*
X179437000Y-200101000D01*
X181762000Y-207912000D02*
X181762000Y-205842000D01*
G04 #@! TO.N,510v*
X330200000Y-142240000D02*
X308525700Y-120565700D01*
X308525700Y-120565700D02*
X275157200Y-120565700D01*
X275157200Y-120565700D02*
X273485000Y-118893500D01*
X273485000Y-118893500D02*
X273485000Y-118059000D01*
X270815000Y-118059000D02*
X273485000Y-118059000D01*
X156210000Y-119380000D02*
X156210000Y-116110000D01*
X146228000Y-101905000D02*
X146228000Y-106128000D01*
X146228000Y-106128000D02*
X156210000Y-116110000D01*
G04 #@! TO.N,-10v*
X57480200Y-133401000D02*
X57480200Y-135471000D01*
X57480200Y-135471000D02*
X57467500Y-135483700D01*
X57467500Y-135483700D02*
X57467500Y-137109000D01*
X99479000Y-151828000D02*
X88112800Y-140461800D01*
X88112800Y-140461800D02*
X60820300Y-140461800D01*
X60820300Y-140461800D02*
X57467500Y-137109000D01*
X101549000Y-151828000D02*
X99479000Y-151828000D01*
X274701000Y-200114000D02*
X274701000Y-198044000D01*
X274701000Y-198044000D02*
X272889700Y-198044000D01*
X272889700Y-198044000D02*
X269062500Y-194216800D01*
X269062500Y-194216800D02*
X269062500Y-192011500D01*
X269062500Y-192011500D02*
X246253000Y-169202000D01*
G04 #@! TO.N,225v*
X193040000Y-101905000D02*
X193040000Y-119380000D01*
X254000000Y-101600000D02*
X252213600Y-99813600D01*
X252213600Y-99813600D02*
X195131400Y-99813600D01*
X195131400Y-99813600D02*
X193040000Y-101905000D01*
X193040000Y-101905000D02*
X182804000Y-101905000D01*
X156210000Y-129380000D02*
X126556000Y-159034000D01*
X126556000Y-159034000D02*
X126556000Y-165163000D01*
X166548000Y-101905000D02*
X166548000Y-119042000D01*
X166548000Y-119042000D02*
X156210000Y-129380000D01*
X254000000Y-101600000D02*
X254000000Y-113575700D01*
X254000000Y-113575700D02*
X273596000Y-133171700D01*
X273596000Y-133171700D02*
X273596000Y-137401000D01*
X126556000Y-165163000D02*
X124086000Y-165163000D01*
X124086000Y-165163000D02*
X80479900Y-208769100D01*
X80479900Y-208769100D02*
X80479900Y-215544000D01*
G04 #@! TO.N,365v*
X181038000Y-183528000D02*
X181038000Y-181058000D01*
X179709200Y-178473000D02*
X178568000Y-178473000D01*
X181038000Y-178473000D02*
X179709200Y-178473000D01*
X181038000Y-181058000D02*
X179709200Y-179729200D01*
X179709200Y-179729200D02*
X179709200Y-178473000D01*
X164186000Y-164091000D02*
X178568000Y-178473000D01*
X164186000Y-144958000D02*
X164186000Y-164091000D01*
X164186000Y-164091000D02*
X157276000Y-164091000D01*
X157276000Y-164091000D02*
X156305000Y-165062000D01*
X153035000Y-165062000D02*
X156305000Y-165062000D01*
G04 #@! TO.N,290v*
X200279000Y-177508000D02*
X195491000Y-172720000D01*
X195491000Y-172720000D02*
X195491000Y-164884000D01*
X195491000Y-164884000D02*
X195491000Y-161614000D01*
X184506000Y-144958000D02*
X184506000Y-150629000D01*
X184506000Y-150629000D02*
X195491000Y-161614000D01*
G04 #@! TO.N,/TR6*
X275895000Y-118059000D02*
X275895000Y-105105000D01*
X275895000Y-105105000D02*
X279400000Y-101600000D01*
G04 #@! TO.N,/Stage1Heater+*
X48475900Y-118567000D02*
X48475900Y-120837000D01*
X48475900Y-120837000D02*
X48514000Y-120875100D01*
X48514000Y-120875100D02*
X48514000Y-125730000D01*
G04 #@! TO.N,/TR4*
X43992800Y-101410000D02*
X43992800Y-103680000D01*
X48475900Y-113487000D02*
X48475900Y-108163100D01*
X48475900Y-108163100D02*
X43992800Y-103680000D01*
G04 #@! TO.N,/TR3*
X43395900Y-118567000D02*
X43395900Y-116297000D01*
X43395900Y-116297000D02*
X36563300Y-109464400D01*
X36563300Y-109464400D02*
X36563300Y-101511000D01*
G04 #@! TO.N,/TR5*
X67132200Y-109576000D02*
X67132200Y-101676200D01*
X67132200Y-101676200D02*
X67056000Y-101600000D01*
G04 #@! TO.N,/BiasV*
X62052200Y-109576000D02*
X62052200Y-117036400D01*
X62052200Y-117036400D02*
X57244600Y-121844000D01*
X70637500Y-137109000D02*
X70637500Y-135236900D01*
X70637500Y-135236900D02*
X57244600Y-121844000D01*
X72707500Y-137109000D02*
X70637500Y-137109000D01*
G04 #@! TO.N,/TR2*
X56972200Y-109576000D02*
X56972200Y-101650800D01*
X56972200Y-101650800D02*
X56921400Y-101600000D01*
D38*
G04 #@! TO.N,/Signal3Ra*
X118490200Y-177605000D02*
X116916000Y-177605000D01*
X129496000Y-165151000D02*
X118490200Y-176156800D01*
X118490200Y-176156800D02*
X118490200Y-177605000D01*
X118490200Y-177605000D02*
X118490200Y-186692400D01*
X119720000Y-188385000D02*
X118490200Y-186692400D01*
X131585000Y-165151000D02*
X129496000Y-165151000D01*
G04 #@! TO.N,/Signal4Ra*
X105283000Y-167081000D02*
X105283000Y-165392000D01*
X105283000Y-165392000D02*
X106629000Y-165392000D01*
X106629000Y-165392000D02*
X116916000Y-155105000D01*
G04 #@! TO.N,/Signal3Lb*
X229530000Y-198965000D02*
X228300200Y-197272400D01*
X230759000Y-177402000D02*
X227415200Y-180745800D01*
X227415200Y-180745800D02*
X227415200Y-196387400D01*
X227415200Y-196387400D02*
X228300200Y-197272400D01*
G04 #@! TO.N,/Signal4Lb*
X242519000Y-159385000D02*
X242519000Y-169189000D01*
X246253000Y-155651000D02*
X242519000Y-159385000D01*
X242519000Y-159385000D02*
X235242000Y-159385000D01*
X235242000Y-159385000D02*
X230759000Y-154902000D01*
X246253000Y-153962000D02*
X246253000Y-155651000D01*
D37*
G04 #@! TO.N,/V3Cathode*
X34366200Y-165100000D02*
X34366200Y-167170000D01*
X34366200Y-167170000D02*
X34087200Y-167449000D01*
X34087200Y-167449000D02*
X34087200Y-190236900D01*
X34087200Y-190236900D02*
X38238400Y-194388100D01*
G04 #@! TO.N,/V4Cathode*
X288073900Y-184918700D02*
X288073900Y-190223600D01*
X288073900Y-190223600D02*
X292238400Y-194388100D01*
X316751000Y-165100000D02*
X307751800Y-174099200D01*
X307751800Y-174099200D02*
X298893400Y-174099200D01*
X298893400Y-174099200D02*
X288073900Y-184918700D01*
X263855000Y-165100000D02*
X266568600Y-165100000D01*
X266568600Y-165100000D02*
X286387300Y-184918700D01*
X286387300Y-184918700D02*
X288073900Y-184918700D01*
X318821000Y-165100000D02*
X316751000Y-165100000D01*
D38*
G04 #@! TO.N,/Signal3L*
X225030000Y-202235000D02*
X222611900Y-201449400D01*
X204737000Y-200254000D02*
X206426000Y-200254000D01*
X206426000Y-200254000D02*
X206426000Y-200887400D01*
X206426000Y-200887400D02*
X210107300Y-204568700D01*
X210107300Y-204568700D02*
X220442600Y-204568700D01*
X220442600Y-204568700D02*
X222516100Y-202495200D01*
X222516100Y-202495200D02*
X222516100Y-201545200D01*
X222516100Y-201545200D02*
X222611900Y-201449400D01*
G04 #@! TO.N,/Signal4La*
X259461000Y-202267000D02*
X259355600Y-202267000D01*
X259355600Y-202267000D02*
X259207000Y-202415600D01*
X259207000Y-202415600D02*
X259207000Y-219837000D01*
X259474000Y-203873000D02*
X259474000Y-202280000D01*
X259474000Y-202280000D02*
X259461000Y-202267000D01*
X259461000Y-200114000D02*
X259461000Y-202267000D01*
G04 #@! TO.N,/Signal3La*
X271590000Y-173444000D02*
X271590000Y-175533000D01*
X271590000Y-175533000D02*
X276276400Y-180219400D01*
X276276400Y-180219400D02*
X276276400Y-214406400D01*
X276276400Y-214406400D02*
X281707000Y-219837000D01*
D37*
G04 #@! TO.N,/U7Cathode2*
X115913000Y-219342000D02*
X115913000Y-221812000D01*
X120993000Y-228105000D02*
X120993000Y-226035000D01*
X120993000Y-226035000D02*
X116770000Y-221812000D01*
X116770000Y-221812000D02*
X115913000Y-221812000D01*
G04 #@! TO.N,/U7Cathode*
X98183700Y-228194000D02*
X98056700Y-228321000D01*
X98056700Y-228321000D02*
X98056700Y-233655000D01*
D38*
G04 #@! TO.N,/FBR*
X78056700Y-233655000D02*
X79745700Y-233655000D01*
X82943700Y-228194000D02*
X82943700Y-229883000D01*
X82943700Y-229883000D02*
X79745700Y-233081000D01*
X79745700Y-233081000D02*
X79745700Y-233655000D01*
G04 #@! TO.N,/FBL*
X244538000Y-229591000D02*
X244538000Y-231280000D01*
X244538000Y-231280000D02*
X244511000Y-231307000D01*
X244511000Y-231307000D02*
X244511000Y-236309000D01*
D37*
G04 #@! TO.N,/V1Grid*
X126556000Y-144843000D02*
X126556000Y-129156300D01*
X126556000Y-129156300D02*
X120511600Y-123111900D01*
D38*
G04 #@! TO.N,/Signal5Ra*
X121081000Y-131123900D02*
X122585100Y-134755000D01*
X105283000Y-151841000D02*
X121503000Y-135621000D01*
X121503000Y-135621000D02*
X121719100Y-135621000D01*
X121719100Y-135621000D02*
X122585100Y-134755000D01*
G04 #@! TO.N,/Signal5Lb*
X248081000Y-131123900D02*
X249585100Y-134755000D01*
X242519000Y-153949000D02*
X248081000Y-148387000D01*
X248081000Y-148387000D02*
X248081000Y-136259100D01*
X248081000Y-136259100D02*
X249585100Y-134755000D01*
G04 #@! TO.N,/Signal2R*
X141567000Y-237503000D02*
X121564300Y-217500300D01*
X121564300Y-217500300D02*
X121564300Y-214712200D01*
X121564300Y-214712200D02*
X112520700Y-205668600D01*
X112520700Y-205668600D02*
X112520700Y-189101700D01*
X112520700Y-189101700D02*
X109957000Y-186538000D01*
X124220000Y-185115000D02*
X121801900Y-184329400D01*
X126365000Y-177508000D02*
X126365000Y-179597000D01*
X126365000Y-179597000D02*
X124220000Y-181742000D01*
X124220000Y-181742000D02*
X124220000Y-181911300D01*
X124220000Y-181911300D02*
X121801900Y-184329400D01*
G04 #@! TO.N,/Signal2L*
X197787200Y-223301000D02*
X199977500Y-225491300D01*
X204737000Y-185014000D02*
X202140700Y-185014000D01*
X202140700Y-185014000D02*
X197787200Y-189367500D01*
X197787200Y-189367500D02*
X197787200Y-223301000D01*
X181254000Y-233274000D02*
X185099300Y-233274000D01*
X185099300Y-233274000D02*
X195072300Y-223301000D01*
X195072300Y-223301000D02*
X197787200Y-223301000D01*
X217053800Y-184327500D02*
X205423500Y-184327500D01*
X205423500Y-184327500D02*
X204737000Y-185014000D01*
X219470000Y-185115000D02*
X217057500Y-184331200D01*
X217057500Y-184331200D02*
X217053800Y-184327500D01*
X220599000Y-179597000D02*
X217053800Y-183142200D01*
X217053800Y-183142200D02*
X217053800Y-184327500D01*
X220599000Y-177508000D02*
X220599000Y-179597000D01*
D37*
G04 #@! TO.N,/U5Cathode*
X124220000Y-202235000D02*
X127077000Y-201306800D01*
X129780000Y-185115000D02*
X126923000Y-186043200D01*
X127077000Y-201306800D02*
X126923100Y-201152900D01*
X126923100Y-201152900D02*
X126923100Y-186043300D01*
X126923100Y-186043300D02*
X126923000Y-186043200D01*
X129780000Y-185115000D02*
X132637000Y-184186800D01*
X146723000Y-190170000D02*
X144253000Y-190170000D01*
X144253000Y-190170000D02*
X139198000Y-185115000D01*
X139198000Y-185115000D02*
X133565200Y-185115000D01*
X133565200Y-185115000D02*
X132637000Y-184186800D01*
G04 #@! TO.N,/U6Cathode*
X213547900Y-194668300D02*
X217211200Y-198331700D01*
X217211200Y-198331700D02*
X217211200Y-200399600D01*
X217211200Y-200399600D02*
X216613000Y-200997800D01*
X216613000Y-200997800D02*
X216613000Y-203163200D01*
X199784000Y-190170000D02*
X209049500Y-190170000D01*
X209049500Y-190170000D02*
X213547900Y-194668300D01*
X222173000Y-186043200D02*
X213547900Y-194668300D01*
X225030000Y-185115000D02*
X222173000Y-186043200D01*
X219470000Y-202235000D02*
X216613000Y-203163200D01*
D38*
G04 #@! TO.N,/Signal1R*
X131597500Y-218643500D02*
X148298000Y-235344000D01*
X128282000Y-218567000D02*
X131521000Y-218567000D01*
X131521000Y-218567000D02*
X131597500Y-218643500D01*
X131597500Y-218643500D02*
X142075000Y-208166000D01*
X126593000Y-218567000D02*
X128282000Y-218567000D01*
G04 #@! TO.N,/Signal1L*
X166522000Y-207912000D02*
X166510000Y-207924000D01*
X166510000Y-207924000D02*
X166510000Y-211696000D01*
X166510000Y-211696000D02*
X166510000Y-213385000D01*
X166510000Y-213385000D02*
X166633300Y-213508300D01*
X166633300Y-213508300D02*
X166633300Y-231359700D01*
X166633300Y-231359700D02*
X162649000Y-235344000D01*
G04 #@! TO.N,/Signal5Rb*
X57581000Y-194623900D02*
X59085100Y-198255000D01*
X36322000Y-214820000D02*
X41489200Y-214820000D01*
X41489200Y-214820000D02*
X57188200Y-199121000D01*
X57188200Y-199121000D02*
X58219100Y-199121000D01*
X58219100Y-199121000D02*
X59085100Y-198255000D01*
D37*
G04 #@! TO.N,/V3Grid*
X60159900Y-215544000D02*
X60159900Y-213074000D01*
X60159900Y-213074000D02*
X61429300Y-211804600D01*
X61429300Y-211804600D02*
X61429300Y-191029600D01*
X61429300Y-191029600D02*
X57011600Y-186611900D01*
G04 #@! TO.N,/V4Grid*
X311011600Y-186611900D02*
X312686500Y-182568400D01*
X330581000Y-171755000D02*
X325868500Y-171755000D01*
X325868500Y-171755000D02*
X315055000Y-182568500D01*
X315055000Y-182568500D02*
X312686600Y-182568500D01*
X312686600Y-182568500D02*
X312686500Y-182568400D01*
D38*
G04 #@! TO.N,/V7Input*
X141833000Y-218567000D02*
X143364200Y-218567000D01*
X143364200Y-218567000D02*
X149272500Y-212658700D01*
D37*
G04 #@! TO.N,/U7Grid*
X146665000Y-219235000D02*
X155498500Y-228068500D01*
X155651500Y-210081500D02*
X146665000Y-219068000D01*
X146665000Y-219068000D02*
X146665000Y-219235000D01*
X143637000Y-222263000D02*
X146665000Y-219235000D01*
X141567000Y-222263000D02*
X143637000Y-222263000D01*
G04 #@! TO.N,/V3Anode*
X51748900Y-180544000D02*
X38954600Y-167749700D01*
X38954600Y-167749700D02*
X38954600Y-139284600D01*
X38954600Y-139284600D02*
X19050000Y-119380000D01*
G04 #@! TO.N,/V4Anode*
X305748900Y-180544000D02*
X309792400Y-178869100D01*
X309792400Y-178869100D02*
X311259500Y-178869100D01*
X311259500Y-178869100D02*
X332693300Y-157435300D01*
X332693300Y-157435300D02*
X332693300Y-121873300D01*
X332693300Y-121873300D02*
X330200000Y-119380000D01*
G04 #@! TO.N,/V5H-*
X114960000Y-202400000D02*
X115409500Y-202400000D01*
X115409500Y-202400000D02*
X116603900Y-201205600D01*
X119720000Y-198965000D02*
X118251600Y-200986100D01*
X118251600Y-200986100D02*
X118251500Y-200986000D01*
X118251500Y-200986000D02*
X116823500Y-200986000D01*
X116823500Y-200986000D02*
X116603900Y-201205600D01*
G04 #@! TO.N,/V6H-*
X214970000Y-198965000D02*
X213501600Y-200986100D01*
X213501600Y-200986100D02*
X213501500Y-200986000D01*
X213501500Y-200986000D02*
X212340500Y-200986000D01*
X212340500Y-200986000D02*
X212247900Y-201078600D01*
X210604000Y-202273000D02*
X211053500Y-202273000D01*
X211053500Y-202273000D02*
X212247900Y-201078600D01*
G04 #@! TO.N,/V6H+*
X235585000Y-193650000D02*
X233265000Y-193650000D01*
X231250000Y-192290000D02*
X231905000Y-192290000D01*
X231905000Y-192290000D02*
X233265000Y-193650000D01*
X231250000Y-192290000D02*
X231250000Y-190905000D01*
X231250000Y-193675000D02*
X231250000Y-192290000D01*
X231250000Y-190905000D02*
X229530000Y-189185000D01*
X229530000Y-189185000D02*
X229530000Y-188385000D01*
D39*
G04 #@! TO.N,/V1H+*
X107001100Y-136956000D02*
X102270300Y-138915600D01*
X102270300Y-138915600D02*
X101404300Y-138049600D01*
X101404300Y-138049600D02*
X101404300Y-136484100D01*
X101404300Y-136484100D02*
X96975800Y-132055600D01*
X96975800Y-132055600D02*
X96975800Y-114209600D01*
X96975800Y-114209600D02*
X91262200Y-108496000D01*
X91262200Y-106464000D02*
X91262200Y-108496000D01*
G04 #@! TO.N,/V1H-*
X107236900Y-117613400D02*
X102506100Y-115653800D01*
X102506100Y-115653800D02*
X102506200Y-115653700D01*
X102506200Y-115653700D02*
X102506200Y-113499600D01*
X102506200Y-113499600D02*
X97502600Y-108496000D01*
X97502600Y-108496000D02*
X96050100Y-107043500D01*
X96050100Y-107043500D02*
X96050100Y-106464000D01*
X96050100Y-108496000D02*
X97502600Y-108496000D01*
G04 #@! TO.N,/V2H+*
X220180000Y-107124000D02*
X220180000Y-109156000D01*
X234001100Y-136956000D02*
X229270300Y-138915600D01*
X229270300Y-138915600D02*
X228404300Y-138049600D01*
X228404300Y-138049600D02*
X228404300Y-136528700D01*
X228404300Y-136528700D02*
X223318700Y-131443100D01*
X223318700Y-131443100D02*
X223318700Y-112294700D01*
X223318700Y-112294700D02*
X220180000Y-109156000D01*
G04 #@! TO.N,/V2H-*
X234236900Y-117613400D02*
X229506100Y-115653800D01*
X229506100Y-115653800D02*
X229506200Y-115653700D01*
X229506200Y-115653700D02*
X229506200Y-112882700D01*
X229506200Y-112882700D02*
X226420500Y-109797000D01*
X226420500Y-109797000D02*
X226420500Y-109182000D01*
X226420500Y-109182000D02*
X224968000Y-107729500D01*
X224968000Y-107729500D02*
X224968000Y-107150000D01*
X224968000Y-109182000D02*
X226420500Y-109182000D01*
G04 #@! TO.N,/V3H+*
X19545300Y-174066000D02*
X19545300Y-176098000D01*
G04 #@! TO.N,/V4H+*
X284726500Y-207759000D02*
X283274000Y-209211500D01*
X283274000Y-209211500D02*
X283274000Y-209791000D01*
X284726500Y-207759000D02*
X286179000Y-207759000D01*
X283274000Y-207759000D02*
X284726500Y-207759000D01*
X297501100Y-200456000D02*
X292770300Y-202415600D01*
X292770300Y-202415600D02*
X291522400Y-202415600D01*
X291522400Y-202415600D02*
X286179000Y-207759000D01*
G04 #@! TO.N,/V4H-*
X279082000Y-207759000D02*
X279082000Y-209791000D01*
G04 #@! TD*
M02*
