G04 #@! TF.GenerationSoftware,KiCad,Pcbnew,(5.0.0)*
G04 #@! TF.CreationDate,2020-05-22T12:26:50+01:00*
G04 #@! TF.ProjectId,KIT88,4B495438382E6B696361645F70636200,rev?*
G04 #@! TF.SameCoordinates,Original*
G04 #@! TF.FileFunction,Soldermask,Top*
G04 #@! TF.FilePolarity,Negative*
%FSLAX46Y46*%
G04 Gerber Fmt 4.6, Leading zero omitted, Abs format (unit mm)*
G04 Created by KiCad (PCBNEW (5.0.0)) date 05/22/20 12:26:50*
%MOMM*%
%LPD*%
G01*
G04 APERTURE LIST*
%ADD10C,3.400000*%
%ADD11R,2.400000X2.500000*%
%ADD12C,2.400000*%
%ADD13C,0.100000*%
%ADD14R,2.500000X2.400000*%
%ADD15C,2.940000*%
%ADD16C,2.400000*%
%ADD17O,2.400000X3.400000*%
%ADD18C,7.400000*%
%ADD19C,6.400000*%
%ADD20C,4.200000*%
%ADD21C,4.200000*%
%ADD22C,4.700000*%
%ADD23R,2.400000X2.400000*%
%ADD24O,2.400000X2.400000*%
%ADD25O,2.800000X2.800000*%
%ADD26C,2.800000*%
%ADD27C,3.600000*%
%ADD28C,3.200000*%
%ADD29R,3.200000X3.200000*%
%ADD30R,3.600000X3.600000*%
%ADD31C,4.400000*%
%ADD32R,4.400000X4.400000*%
%ADD33R,2.800000X2.800000*%
%ADD34R,2.000000X2.000000*%
%ADD35C,2.000000*%
%ADD36O,2.000000X2.000000*%
%ADD37O,10.400000X20.400000*%
G04 APERTURE END LIST*
D10*
G04 #@! TO.C,TP1*
X19050000Y-119380000D03*
G04 #@! TD*
G04 #@! TO.C,TP2*
X56921400Y-101600000D03*
G04 #@! TD*
G04 #@! TO.C,TP6*
X19050000Y-130810000D03*
G04 #@! TD*
G04 #@! TO.C,TP7*
X19050000Y-142240000D03*
G04 #@! TD*
G04 #@! TO.C,TP8*
X330200000Y-142240000D03*
G04 #@! TD*
G04 #@! TO.C,TP9*
X254000000Y-101600000D03*
G04 #@! TD*
G04 #@! TO.C,TP10*
X287020000Y-101600000D03*
G04 #@! TD*
G04 #@! TO.C,TP11*
X279400000Y-101600000D03*
G04 #@! TD*
G04 #@! TO.C,TP12*
X330200000Y-130810000D03*
G04 #@! TD*
G04 #@! TO.C,TP13*
X330200000Y-119380000D03*
G04 #@! TD*
G04 #@! TO.C,TP14*
X155410000Y-235344000D03*
G04 #@! TD*
G04 #@! TO.C,TP15*
X109360000Y-233680000D03*
G04 #@! TD*
G04 #@! TO.C,TP16*
X148298000Y-235344000D03*
G04 #@! TD*
G04 #@! TO.C,TP18*
X162649000Y-235344000D03*
G04 #@! TD*
G04 #@! TO.C,TP19*
X264287000Y-233680000D03*
G04 #@! TD*
G04 #@! TO.C,TP20*
X257823000Y-233680000D03*
G04 #@! TD*
G04 #@! TO.C,TP21*
X102959000Y-233832000D03*
G04 #@! TD*
G04 #@! TO.C,TP3*
X67056000Y-101600000D03*
G04 #@! TD*
D11*
G04 #@! TO.C,TP100*
X91262200Y-108496000D03*
X91262200Y-106464000D03*
G04 #@! TD*
G04 #@! TO.C,TP101*
X96050100Y-106464000D03*
X96050100Y-108496000D03*
G04 #@! TD*
G04 #@! TO.C,TP200*
X220180000Y-109156000D03*
X220180000Y-107124000D03*
G04 #@! TD*
G04 #@! TO.C,TP201*
X224968000Y-107150000D03*
X224968000Y-109182000D03*
G04 #@! TD*
G04 #@! TO.C,TP300*
X19545300Y-176098000D03*
X19545300Y-174066000D03*
G04 #@! TD*
G04 #@! TO.C,TP301*
X25311100Y-174092000D03*
X25311100Y-176124000D03*
G04 #@! TD*
G04 #@! TO.C,TP400*
X283274000Y-209791000D03*
X283274000Y-207759000D03*
G04 #@! TD*
G04 #@! TO.C,TP401*
X279082000Y-207759000D03*
X279082000Y-209791000D03*
G04 #@! TD*
D12*
G04 #@! TO.C,TP50*
X116603923Y-201205620D03*
D13*
G36*
X116297994Y-202911172D02*
X114887309Y-200969531D01*
X116909852Y-199500068D01*
X118320537Y-201441709D01*
X116297994Y-202911172D01*
X116297994Y-202911172D01*
G37*
D12*
X114960000Y-202400000D03*
D13*
G36*
X114654071Y-204105552D02*
X113243386Y-202163911D01*
X115265929Y-200694448D01*
X116676614Y-202636089D01*
X114654071Y-204105552D01*
X114654071Y-204105552D01*
G37*
G04 #@! TD*
D14*
G04 #@! TO.C,TP51*
X141707000Y-193650000D03*
X139675000Y-193650000D03*
G04 #@! TD*
D12*
G04 #@! TO.C,TP60*
X212247923Y-201078620D03*
D13*
G36*
X211941994Y-202784172D02*
X210531309Y-200842531D01*
X212553852Y-199373068D01*
X213964537Y-201314709D01*
X211941994Y-202784172D01*
X211941994Y-202784172D01*
G37*
D12*
X210604000Y-202273000D03*
D13*
G36*
X210298071Y-203978552D02*
X208887386Y-202036911D01*
X210909929Y-200567448D01*
X212320614Y-202509089D01*
X210298071Y-203978552D01*
X210298071Y-203978552D01*
G37*
G04 #@! TD*
D14*
G04 #@! TO.C,TP61*
X237617000Y-193650000D03*
X235585000Y-193650000D03*
G04 #@! TD*
G04 #@! TO.C,TP80*
X208572000Y-219100000D03*
X206540000Y-219100000D03*
G04 #@! TD*
G04 #@! TO.C,TP81*
X208394000Y-214211000D03*
X206362000Y-214211000D03*
G04 #@! TD*
G04 #@! TO.C,TP90*
X50546000Y-125730000D03*
X48514000Y-125730000D03*
G04 #@! TD*
G04 #@! TO.C,TP91*
X42926000Y-125730000D03*
X40894000Y-125730000D03*
G04 #@! TD*
G04 #@! TO.C,TP70*
X170878000Y-220167000D03*
X168846000Y-220167000D03*
G04 #@! TD*
G04 #@! TO.C,TP71*
X170878000Y-215900000D03*
X168846000Y-215900000D03*
G04 #@! TD*
G04 #@! TO.C,TP5*
X43992800Y-101410000D03*
X41960800Y-101410000D03*
G04 #@! TD*
G04 #@! TO.C,TP4*
X36563300Y-101511000D03*
X34531300Y-101511000D03*
G04 #@! TD*
D15*
G04 #@! TO.C,U7*
X149158749Y-225377493D03*
X155498468Y-228068545D03*
X161877493Y-225491251D03*
X164568545Y-219151532D03*
X161991251Y-212772507D03*
X155651532Y-210081455D03*
X149272507Y-212658749D03*
G04 #@! TD*
G04 #@! TO.C,U8*
X187258749Y-225377493D03*
X193598468Y-228068545D03*
X199977493Y-225491251D03*
X202668545Y-219151532D03*
X200091251Y-212772507D03*
X193751532Y-210081455D03*
X187372507Y-212658749D03*
G04 #@! TD*
D12*
G04 #@! TO.C,U5*
X119720000Y-188385000D03*
D16*
X119426107Y-188789508D02*
X120013893Y-187980492D01*
D12*
X124220000Y-185115000D03*
D16*
X123744472Y-185269508D02*
X124695528Y-184960492D01*
D12*
X129780000Y-185115000D03*
D16*
X129304472Y-184960492D02*
X130255528Y-185269508D01*
D12*
X134280000Y-188385000D03*
D16*
X133986107Y-187980492D02*
X134573893Y-188789508D01*
D17*
X136000000Y-193675000D03*
D12*
X134280000Y-198965000D03*
D16*
X133986107Y-199369508D02*
X134573893Y-198560492D01*
D12*
X129780000Y-202235000D03*
D16*
X129304472Y-202389508D02*
X130255528Y-202080492D01*
D12*
X124220000Y-202235000D03*
D16*
X123744472Y-202080492D02*
X124695528Y-202389508D01*
D12*
X119720000Y-198965000D03*
D16*
X119426107Y-198560492D02*
X120013893Y-199369508D01*
G04 #@! TD*
D12*
G04 #@! TO.C,U6*
X214970000Y-188385000D03*
D16*
X214676107Y-188789508D02*
X215263893Y-187980492D01*
D12*
X219470000Y-185115000D03*
D16*
X218994472Y-185269508D02*
X219945528Y-184960492D01*
D12*
X225030000Y-185115000D03*
D16*
X224554472Y-184960492D02*
X225505528Y-185269508D01*
D12*
X229530000Y-188385000D03*
D16*
X229236107Y-187980492D02*
X229823893Y-188789508D01*
D17*
X231250000Y-193675000D03*
D12*
X229530000Y-198965000D03*
D16*
X229236107Y-199369508D02*
X229823893Y-198560492D01*
D12*
X225030000Y-202235000D03*
D16*
X224554472Y-202389508D02*
X225505528Y-202080492D01*
D12*
X219470000Y-202235000D03*
D16*
X218994472Y-202080492D02*
X219945528Y-202389508D01*
D12*
X214970000Y-198965000D03*
D16*
X214676107Y-198560492D02*
X215263893Y-199369508D01*
G04 #@! TD*
D18*
G04 #@! TO.C,U2*
X258125000Y-127000000D03*
X218125000Y-127000000D03*
D19*
X238125000Y-127000000D03*
D20*
X228738384Y-130888064D03*
D21*
X229350677Y-132366271D02*
X228126091Y-129409857D01*
D20*
X234001086Y-136956010D03*
D21*
X235479293Y-137568303D02*
X232522879Y-136343717D01*
D20*
X242013064Y-136386616D03*
D21*
X240534857Y-136998909D02*
X243491271Y-135774323D01*
D20*
X248081010Y-131123914D03*
D21*
X247468717Y-132602121D02*
X248693303Y-129645707D01*
D20*
X247511616Y-123111936D03*
D21*
X248123909Y-124590143D02*
X246899323Y-121633729D01*
D20*
X242248914Y-117043990D03*
D21*
X240770707Y-116431697D02*
X243727121Y-117656283D01*
D20*
X234236936Y-117613384D03*
D21*
X235715143Y-117001091D02*
X232758729Y-118225677D01*
D20*
X228168990Y-122876086D03*
D21*
X227556697Y-124354293D02*
X228781283Y-121397879D01*
G04 #@! TD*
D18*
G04 #@! TO.C,U4*
X321625000Y-190500000D03*
X281625000Y-190500000D03*
D19*
X301625000Y-190500000D03*
D20*
X292238384Y-194388064D03*
D21*
X292850677Y-195866271D02*
X291626091Y-192909857D01*
D20*
X297501086Y-200456010D03*
D21*
X298979293Y-201068303D02*
X296022879Y-199843717D01*
D20*
X305513064Y-199886616D03*
D21*
X304034857Y-200498909D02*
X306991271Y-199274323D01*
D20*
X311581010Y-194623914D03*
D21*
X310968717Y-196102121D02*
X312193303Y-193145707D01*
D20*
X311011616Y-186611936D03*
D21*
X311623909Y-188090143D02*
X310399323Y-185133729D01*
D20*
X305748914Y-180543990D03*
D21*
X304270707Y-179931697D02*
X307227121Y-181156283D01*
D20*
X297736936Y-181113384D03*
D21*
X299215143Y-180501091D02*
X296258729Y-181725677D01*
D20*
X291668990Y-186376086D03*
D21*
X291056697Y-187854293D02*
X292281283Y-184897879D01*
G04 #@! TD*
D18*
G04 #@! TO.C,U1*
X131125000Y-127000000D03*
X91125000Y-127000000D03*
D19*
X111125000Y-127000000D03*
D20*
X101738384Y-130888064D03*
D21*
X102350677Y-132366271D02*
X101126091Y-129409857D01*
D20*
X107001086Y-136956010D03*
D21*
X108479293Y-137568303D02*
X105522879Y-136343717D01*
D20*
X115013064Y-136386616D03*
D21*
X113534857Y-136998909D02*
X116491271Y-135774323D01*
D20*
X121081010Y-131123914D03*
D21*
X120468717Y-132602121D02*
X121693303Y-129645707D01*
D20*
X120511616Y-123111936D03*
D21*
X121123909Y-124590143D02*
X119899323Y-121633729D01*
D20*
X115248914Y-117043990D03*
D21*
X113770707Y-116431697D02*
X116727121Y-117656283D01*
D20*
X107236936Y-117613384D03*
D21*
X108715143Y-117001091D02*
X105758729Y-118225677D01*
D20*
X101168990Y-122876086D03*
D21*
X100556697Y-124354293D02*
X101781283Y-121397879D01*
G04 #@! TD*
D18*
G04 #@! TO.C,U3*
X67625000Y-190500000D03*
X27625000Y-190500000D03*
D19*
X47625000Y-190500000D03*
D20*
X38238384Y-194388064D03*
D21*
X38850677Y-195866271D02*
X37626091Y-192909857D01*
D20*
X43501086Y-200456010D03*
D21*
X44979293Y-201068303D02*
X42022879Y-199843717D01*
D20*
X51513064Y-199886616D03*
D21*
X50034857Y-200498909D02*
X52991271Y-199274323D01*
D20*
X57581010Y-194623914D03*
D21*
X56968717Y-196102121D02*
X58193303Y-193145707D01*
D20*
X57011616Y-186611936D03*
D21*
X57623909Y-188090143D02*
X56399323Y-185133729D01*
D20*
X51748914Y-180543990D03*
D21*
X50270707Y-179931697D02*
X53227121Y-181156283D01*
D20*
X43736936Y-181113384D03*
D21*
X45215143Y-180501091D02*
X42258729Y-181725677D01*
D20*
X37668990Y-186376086D03*
D21*
X37056697Y-187854293D02*
X38281283Y-184897879D01*
G04 #@! TD*
D22*
G04 #@! TO.C,MH10*
X272466000Y-152400000D03*
G04 #@! TD*
D23*
G04 #@! TO.C,BR2*
X48475900Y-118567000D03*
D24*
X43395900Y-113487000D03*
X48475900Y-113487000D03*
X43395900Y-118567000D03*
G04 #@! TD*
D25*
G04 #@! TO.C,R13*
X91719400Y-152400000D03*
D26*
X45999400Y-152400000D03*
G04 #@! TD*
G04 #@! TO.C,R14*
X264261000Y-152400000D03*
D25*
X309981000Y-152400000D03*
G04 #@! TD*
D26*
G04 #@! TO.C,R15*
X46126400Y-165100000D03*
D25*
X91846400Y-165100000D03*
G04 #@! TD*
G04 #@! TO.C,R16*
X309575000Y-165100000D03*
D26*
X263855000Y-165100000D03*
G04 #@! TD*
D27*
G04 #@! TO.C,MH1*
X25400000Y-228600000D03*
G04 #@! TD*
G04 #@! TO.C,MH2*
X174624800Y-228600000D03*
G04 #@! TD*
G04 #@! TO.C,MH3*
X323850000Y-228600000D03*
G04 #@! TD*
G04 #@! TO.C,MH4*
X25400000Y-107950000D03*
G04 #@! TD*
G04 #@! TO.C,MH5*
X174625000Y-107950000D03*
G04 #@! TD*
G04 #@! TO.C,MH6*
X323850000Y-107950000D03*
G04 #@! TD*
D22*
G04 #@! TO.C,MH11*
X279806000Y-152400000D03*
G04 #@! TD*
G04 #@! TO.C,MH12*
X287147000Y-152400000D03*
G04 #@! TD*
G04 #@! TO.C,MH13*
X294081000Y-152400000D03*
G04 #@! TD*
G04 #@! TO.C,MH14*
X301828000Y-152400000D03*
G04 #@! TD*
G04 #@! TO.C,MH20*
X272263000Y-165100000D03*
G04 #@! TD*
G04 #@! TO.C,MH21*
X279806000Y-165100000D03*
G04 #@! TD*
G04 #@! TO.C,MH22*
X287350000Y-165100000D03*
G04 #@! TD*
G04 #@! TO.C,MH23*
X294081000Y-165100000D03*
G04 #@! TD*
G04 #@! TO.C,MH24*
X301828000Y-165100000D03*
G04 #@! TD*
G04 #@! TO.C,MH30*
X54508400Y-152400000D03*
G04 #@! TD*
G04 #@! TO.C,MH31*
X54381400Y-165100000D03*
G04 #@! TD*
G04 #@! TO.C,MH32*
X61493400Y-152400000D03*
G04 #@! TD*
G04 #@! TO.C,MH33*
X61315600Y-165100000D03*
G04 #@! TD*
G04 #@! TO.C,MH34*
X68605400Y-152400000D03*
G04 #@! TD*
G04 #@! TO.C,MH40*
X68732400Y-165100000D03*
G04 #@! TD*
G04 #@! TO.C,MH41*
X76098400Y-152400000D03*
G04 #@! TD*
G04 #@! TO.C,MH42*
X76174600Y-165100000D03*
G04 #@! TD*
G04 #@! TO.C,MH43*
X83337400Y-152400000D03*
G04 #@! TD*
G04 #@! TO.C,MH44*
X83286600Y-165100000D03*
G04 #@! TD*
D28*
G04 #@! TO.C,BR1*
X286055000Y-118059000D03*
X280975000Y-118059000D03*
X275895000Y-118059000D03*
D29*
X270815000Y-118059000D03*
G04 #@! TD*
D27*
G04 #@! TO.C,BR3*
X56972200Y-109576000D03*
X62052200Y-109576000D03*
X67132200Y-109576000D03*
D30*
X72212200Y-109576000D03*
G04 #@! TD*
D31*
G04 #@! TO.C,C1*
X156210000Y-129380000D03*
D32*
X156210000Y-119380000D03*
G04 #@! TD*
G04 #@! TO.C,C2*
X193040000Y-119380000D03*
D31*
X193040000Y-129380000D03*
G04 #@! TD*
D33*
G04 #@! TO.C,C3*
X72212200Y-121818000D03*
D26*
X79712200Y-121818000D03*
G04 #@! TD*
D23*
G04 #@! TO.C,C4*
X64744600Y-121844000D03*
D12*
X57244600Y-121844000D03*
G04 #@! TD*
D32*
G04 #@! TO.C,C5*
X153035000Y-165062000D03*
D31*
X153035000Y-155062000D03*
G04 #@! TD*
G04 #@! TO.C,C6*
X195491000Y-154884000D03*
D32*
X195491000Y-164884000D03*
G04 #@! TD*
D26*
G04 #@! TO.C,C7*
X116916000Y-155105000D03*
X116916000Y-177605000D03*
G04 #@! TD*
G04 #@! TO.C,C8*
X230759000Y-154902000D03*
X230759000Y-177402000D03*
G04 #@! TD*
D34*
G04 #@! TO.C,C9*
X34721800Y-152400000D03*
D35*
X30921800Y-152400000D03*
G04 #@! TD*
G04 #@! TO.C,C10*
X322621000Y-152400000D03*
D34*
X318821000Y-152400000D03*
G04 #@! TD*
D35*
G04 #@! TO.C,C11*
X30566200Y-165100000D03*
D34*
X34366200Y-165100000D03*
G04 #@! TD*
G04 #@! TO.C,C12*
X318821000Y-165100000D03*
D35*
X322621000Y-165100000D03*
G04 #@! TD*
D26*
G04 #@! TO.C,C13*
X149606000Y-200203000D03*
X164606000Y-200203000D03*
G04 #@! TD*
G04 #@! TO.C,C14*
X179437000Y-200101000D03*
X194437000Y-200101000D03*
G04 #@! TD*
G04 #@! TO.C,C15*
X104402300Y-195174000D03*
X81902300Y-195174000D03*
G04 #@! TD*
G04 #@! TO.C,C16*
X281707000Y-219837000D03*
X259207000Y-219837000D03*
G04 #@! TD*
D33*
G04 #@! TO.C,C17*
X115913000Y-219342000D03*
D26*
X115913000Y-211842000D03*
G04 #@! TD*
G04 #@! TO.C,C18*
X236792000Y-212223000D03*
D33*
X236792000Y-219723000D03*
G04 #@! TD*
D35*
G04 #@! TO.C,C19*
X98056700Y-233655000D03*
D36*
X78056700Y-233655000D03*
G04 #@! TD*
D26*
G04 #@! TO.C,R1*
X104127000Y-100216000D03*
D25*
X134607000Y-100216000D03*
G04 #@! TD*
D36*
G04 #@! TO.C,R3*
X57480200Y-133401000D03*
D35*
X72720200Y-133401000D03*
G04 #@! TD*
D26*
G04 #@! TO.C,R4*
X184506000Y-144958000D03*
D25*
X164186000Y-144958000D03*
G04 #@! TD*
D35*
G04 #@! TO.C,R5*
X57467500Y-137109000D03*
D36*
X72707500Y-137109000D03*
G04 #@! TD*
D26*
G04 #@! TO.C,R6*
X126556000Y-144843000D03*
D25*
X126556000Y-165163000D03*
G04 #@! TD*
D35*
G04 #@! TO.C,R8*
X105283000Y-151841000D03*
D36*
X105283000Y-167081000D03*
G04 #@! TD*
G04 #@! TO.C,R9*
X101549000Y-151828000D03*
D35*
X101549000Y-167068000D03*
G04 #@! TD*
D36*
G04 #@! TO.C,R10*
X242519000Y-169189000D03*
D35*
X242519000Y-153949000D03*
G04 #@! TD*
D36*
G04 #@! TO.C,R11*
X246253000Y-153962000D03*
D35*
X246253000Y-169202000D03*
G04 #@! TD*
D25*
G04 #@! TO.C,R12*
X293916000Y-137401000D03*
D26*
X273596000Y-137401000D03*
G04 #@! TD*
D25*
G04 #@! TO.C,R17*
X126365000Y-177508000D03*
D26*
X146685000Y-177508000D03*
G04 #@! TD*
D25*
G04 #@! TO.C,R18*
X220599000Y-177508000D03*
D26*
X200279000Y-177508000D03*
G04 #@! TD*
D25*
G04 #@! TO.C,R21*
X146723000Y-190170000D03*
D26*
X167043000Y-190170000D03*
G04 #@! TD*
D25*
G04 #@! TO.C,R22*
X199784000Y-190170000D03*
D26*
X179464000Y-190170000D03*
G04 #@! TD*
D36*
G04 #@! TO.C,R23*
X109957000Y-201778000D03*
D35*
X109957000Y-186538000D03*
G04 #@! TD*
G04 #@! TO.C,R25*
X204737000Y-185014000D03*
D36*
X204737000Y-200254000D03*
G04 #@! TD*
D35*
G04 #@! TO.C,R26*
X259461000Y-200114000D03*
D36*
X274701000Y-200114000D03*
G04 #@! TD*
G04 #@! TO.C,R27*
X259474000Y-203873000D03*
D35*
X274714000Y-203873000D03*
G04 #@! TD*
G04 #@! TO.C,R28*
X142075000Y-208166000D03*
D36*
X126835000Y-208166000D03*
G04 #@! TD*
D35*
G04 #@! TO.C,R29*
X166522000Y-207912000D03*
D36*
X181762000Y-207912000D03*
G04 #@! TD*
D35*
G04 #@! TO.C,R30*
X32562800Y-214833000D03*
D36*
X32562800Y-230073000D03*
G04 #@! TD*
G04 #@! TO.C,R31*
X36322000Y-230060000D03*
D35*
X36322000Y-214820000D03*
G04 #@! TD*
D25*
G04 #@! TO.C,R32*
X60159900Y-215544000D03*
D26*
X80479900Y-215544000D03*
G04 #@! TD*
G04 #@! TO.C,R33*
X330581000Y-171755000D03*
D25*
X330581000Y-151435000D03*
G04 #@! TD*
D35*
G04 #@! TO.C,R34*
X141833000Y-218567000D03*
D36*
X126593000Y-218567000D03*
G04 #@! TD*
G04 #@! TO.C,R35*
X166510000Y-211696000D03*
D35*
X181750000Y-211696000D03*
G04 #@! TD*
D36*
G04 #@! TO.C,R36*
X141567000Y-222263000D03*
D35*
X141567000Y-237503000D03*
G04 #@! TD*
G04 #@! TO.C,R37*
X181254000Y-233274000D03*
D36*
X181254000Y-218034000D03*
G04 #@! TD*
G04 #@! TO.C,R38*
X82943700Y-228194000D03*
D35*
X98183700Y-228194000D03*
G04 #@! TD*
G04 #@! TO.C,R39*
X229298000Y-229591000D03*
D36*
X244538000Y-229591000D03*
G04 #@! TD*
D35*
G04 #@! TO.C,R40*
X136233000Y-228105000D03*
D36*
X120993000Y-228105000D03*
G04 #@! TD*
G04 #@! TO.C,R41*
X207747000Y-229578000D03*
D35*
X222987000Y-229578000D03*
G04 #@! TD*
D26*
G04 #@! TO.C,R70*
X136817000Y-144831000D03*
D25*
X136817000Y-165151000D03*
G04 #@! TD*
G04 #@! TO.C,R71*
X131585000Y-165151000D03*
D26*
X131585000Y-144831000D03*
G04 #@! TD*
G04 #@! TO.C,R190*
X261493000Y-173444000D03*
D25*
X261493000Y-193764000D03*
G04 #@! TD*
D26*
G04 #@! TO.C,R191*
X256438000Y-173444000D03*
D25*
X256438000Y-193764000D03*
G04 #@! TD*
D26*
G04 #@! TO.C,R200*
X271590000Y-193764000D03*
D25*
X271590000Y-173444000D03*
G04 #@! TD*
D26*
G04 #@! TO.C,R201*
X266535000Y-193764000D03*
D25*
X266535000Y-173444000D03*
G04 #@! TD*
D26*
G04 #@! TO.C,R240*
X160718000Y-178473000D03*
D25*
X181038000Y-178473000D03*
G04 #@! TD*
G04 #@! TO.C,R241*
X181038000Y-183528000D03*
D26*
X160718000Y-183528000D03*
G04 #@! TD*
G04 #@! TO.C,RS1*
X146228000Y-101905000D03*
D25*
X166548000Y-101905000D03*
G04 #@! TD*
G04 #@! TO.C,RS2*
X203124000Y-101905000D03*
D26*
X182804000Y-101905000D03*
G04 #@! TD*
D35*
G04 #@! TO.C,C20*
X224511000Y-236309000D03*
D36*
X244511000Y-236309000D03*
G04 #@! TD*
D11*
G04 #@! TO.C,TP0*
X174294800Y-166763700D03*
X174294800Y-164223700D03*
D37*
X174294800Y-159143700D03*
D11*
X174294800Y-161937700D03*
G04 #@! TD*
M02*
