M48
;DRILL file {KiCad (5.0.0)} date 05/22/20 12:26:43
;FORMAT={-:-/ absolute / inch / decimal}
FMAT,2
INCH,TZ
T1C0.0315
T2C0.0394
T3C0.0402
T4C0.0472
T5C0.0551
T6C0.0591
T7C0.0630
T8C0.0709
T9C0.0787
T10C0.1181
T11C0.2165
%
G90
G05
M72
T1
X5.5735Y-8.7505
X5.5735Y-9.3505
X12.552Y-6.5
X12.7016Y-6.5
X4.145Y-5.978
X4.145Y-6.578
X1.282Y-8.458
X1.282Y-9.058
X3.0731Y-9.199
X3.8605Y-9.199
X10.215Y-7.8785
X10.815Y-7.8785
X4.9935Y-8.1955
X5.5935Y-8.1955
X4.7635Y-8.9805
X5.3635Y-8.9805
X9.695Y-6.0615
X9.695Y-6.6615
X6.556Y-8.1855
X7.156Y-8.1855
X3.2655Y-8.984
X3.8655Y-8.984
X4.329Y-7.344
X4.329Y-7.944
X1.2034Y-6.5
X1.353Y-6.5
X2.2625Y-5.398
X2.8625Y-5.398
X9.548Y-6.061
X9.548Y-6.661
X1.43Y-8.4575
X1.43Y-9.0575
X6.5555Y-8.3345
X7.1555Y-8.3345
X8.179Y-9.0385
X8.779Y-9.0385
X12.552Y-6.
X12.7016Y-6.
X2.263Y-5.252
X2.863Y-5.252
X7.136Y-8.584
X7.136Y-9.184
X8.839Y-9.3035
X9.6264Y-9.3035
X4.984Y-8.605
X5.584Y-8.605
X9.0275Y-9.039
X9.6275Y-9.039
X8.0605Y-7.284
X8.0605Y-7.884
X3.998Y-5.9775
X3.998Y-6.5775
X10.2155Y-8.0265
X10.8155Y-8.0265
X1.2174Y-6.
X1.367Y-6.
T2
X1.7085Y-4.468
X1.7085Y-4.668
X1.9085Y-4.468
X1.9085Y-4.668
X2.2537Y-4.797
X2.549Y-4.797
T4
X10.4935Y-6.8285
X10.4935Y-7.6285
X5.8724Y-8.8731
X5.8769Y-8.3724
X6.122Y-8.9791
X6.128Y-8.2709
X6.3731Y-8.8776
X6.3776Y-8.3769
X6.4791Y-8.628
X7.885Y-6.9885
X8.685Y-6.9885
X10.404Y-6.
X12.204Y-6.
X6.3275Y-7.2255
X7.1275Y-7.2255
X4.5635Y-8.3402
X4.5635Y-8.6355
X3.2245Y-7.684
X4.1103Y-7.684
X7.197Y-4.012
X7.997Y-4.012
X1.811Y-6.
X3.611Y-6.
X13.015Y-5.962
X13.015Y-6.762
X6.3275Y-7.0265
X7.1275Y-7.0265
X10.205Y-8.655
X11.0908Y-8.655
X2.3685Y-8.486
X3.1685Y-8.486
X5.1805Y-5.702
X5.1805Y-6.502
X10.7715Y-5.4095
X11.5715Y-5.4095
X9.085Y-6.0985
X9.085Y-6.9843
X4.9825Y-5.7025
X4.9825Y-6.5025
X7.0655Y-7.487
X7.8655Y-7.487
X5.3865Y-5.702
X5.3865Y-6.502
X7.3724Y-8.8731
X7.3769Y-8.3724
X7.622Y-8.9791
X7.628Y-8.2709
X7.8731Y-8.8776
X7.8776Y-8.3769
X7.9791Y-8.628
X7.0644Y-7.878
X7.655Y-7.878
X4.603Y-6.1065
X4.603Y-6.9923
X6.464Y-5.707
X7.264Y-5.707
X5.7765Y-7.487
X6.5765Y-7.487
X10.6925Y-6.8285
X10.6925Y-7.6285
X10.388Y-6.5
X12.188Y-6.5
X4.0995Y-3.9455
X5.2995Y-3.9455
X10.096Y-6.8285
X10.096Y-7.6285
X1.816Y-6.5
X3.616Y-6.5
X4.975Y-6.9885
X5.775Y-6.9885
X5.757Y-4.012
X6.557Y-4.012
X9.3225Y-8.3552
X9.3225Y-8.6505
X10.295Y-6.8285
X10.295Y-7.6285
X2.843Y-4.796
X3.1383Y-4.796
X5.89Y-7.882
X6.4806Y-7.882
T5
X10.662Y-4.648
X10.862Y-4.648
X11.062Y-4.648
X11.262Y-4.648
T6
X8.1245Y-8.4335
X8.2045Y-8.4335
X1.652Y-3.9925
X1.732Y-3.9925
X8.857Y-4.2185
X8.857Y-4.2985
X9.275Y-7.624
X9.355Y-7.624
X5.499Y-7.624
X5.579Y-7.624
X0.9965Y-6.854
X0.9965Y-6.934
X6.862Y-6.2655
X6.862Y-6.3755
X6.862Y-6.4655
X6.862Y-6.5655
X6.6475Y-8.5
X6.7275Y-8.5
X0.7695Y-6.853
X0.7695Y-6.933
X1.3595Y-3.9965
X1.4395Y-3.9965
X8.1315Y-8.626
X8.2115Y-8.626
X8.2915Y-7.9635
X8.3562Y-7.9165
X4.526Y-7.9685
X4.5907Y-7.9215
X8.6685Y-4.2175
X8.6685Y-4.2975
X3.7815Y-4.1915
X3.7815Y-4.2715
X1.61Y-4.95
X1.69Y-4.95
X6.6475Y-8.668
X6.7275Y-8.668
X10.9875Y-8.1795
X10.9875Y-8.2595
X3.593Y-4.1915
X3.593Y-4.2715
X1.91Y-4.95
X1.99Y-4.95
X11.1525Y-8.1795
X11.1525Y-8.2595
T7
X2.243Y-4.314
X2.443Y-4.314
X2.643Y-4.314
X2.843Y-4.314
T9
X2.64Y-4.
X6.4035Y-9.2655
X7.6Y-4.7
X7.6Y-5.0937
X11.3Y-4.
X4.0535Y-9.206
X2.241Y-4.
X6.1185Y-9.2655
X10.1505Y-9.2
X0.75Y-5.15
X0.75Y-4.7
X0.75Y-5.6
X11.Y-4.
X7.6965Y-6.0978
X7.6965Y-6.4915
X13.Y-4.7
X10.Y-4.
X6.025Y-6.1048
X6.025Y-6.4985
X13.Y-5.15
X4.3055Y-9.2
X13.Y-5.6
X10.405Y-9.2
X5.8385Y-9.2655
X6.15Y-4.7
X6.15Y-5.0937
T11
X4.375Y-5.
X9.375Y-5.
X1.875Y-7.5
X11.875Y-7.5
T3
X4.7017Y-7.4328G85X4.7251Y-7.4006
G05
X4.7017Y-7.8172G85X4.7251Y-7.8494
G05
X4.8716Y-7.2941G85X4.9095Y-7.2818
G05
X4.8716Y-7.9559G85X4.9095Y-7.9682
G05
X5.0905Y-7.2818G85X5.1284Y-7.2941
G05
X5.0905Y-7.9682G85X5.1284Y-7.9559
G05
X5.2749Y-7.4006G85X5.2983Y-7.4328
G05
X5.2749Y-7.8494G85X5.2983Y-7.8172
G05
X5.3543Y-7.6051G85X5.3543Y-7.6449
G05
X8.4517Y-7.4328G85X8.4751Y-7.4006
G05
X8.4517Y-7.8172G85X8.4751Y-7.8494
G05
X8.6216Y-7.2941G85X8.6595Y-7.2818
G05
X8.6216Y-7.9559G85X8.6595Y-7.9682
G05
X8.8405Y-7.2818G85X8.8784Y-7.2941
G05
X8.8405Y-7.9682G85X8.8784Y-7.9559
G05
X9.0249Y-7.4006G85X9.0483Y-7.4328
G05
X9.0249Y-7.8494G85X9.0483Y-7.8172
G05
X9.1043Y-7.6051G85X9.1043Y-7.6449
G05
T8
X8.9589Y-4.8958G85X9.0071Y-4.7794
G05
X9.0296Y-5.2113G85X8.9813Y-5.0949
G05
X9.2708Y-5.4161G85X9.1544Y-5.3679
G05
X9.2801Y-4.6063G85X9.1637Y-4.6546
G05
X9.4699Y-5.3937G85X9.5863Y-5.3454
G05
X9.4792Y-4.5839G85X9.5956Y-4.6321
G05
X9.7687Y-4.9051G85X9.7204Y-4.7887
G05
X9.7429Y-5.2206G85X9.7911Y-5.1042
G05
X1.4589Y-7.3958G85X1.5071Y-7.2794
G05
X1.5296Y-7.7113G85X1.4813Y-7.5949
G05
X1.7708Y-7.9161G85X1.6544Y-7.8679
G05
X1.7801Y-7.1063G85X1.6637Y-7.1546
G05
X1.9699Y-7.8937G85X2.0863Y-7.8454
G05
X1.9792Y-7.0839G85X2.0956Y-7.1321
G05
X2.2687Y-7.4051G85X2.2204Y-7.2887
G05
X2.2429Y-7.7206G85X2.2911Y-7.6042
G05
X11.4589Y-7.3958G85X11.5071Y-7.2794
G05
X11.5296Y-7.7113G85X11.4813Y-7.5949
G05
X11.7708Y-7.9161G85X11.6544Y-7.8679
G05
X11.7801Y-7.1063G85X11.6637Y-7.1546
G05
X11.9699Y-7.8937G85X12.0863Y-7.8454
G05
X11.9792Y-7.0839G85X12.0956Y-7.1321
G05
X12.2687Y-7.4051G85X12.2204Y-7.2887
G05
X12.2429Y-7.7206G85X12.2911Y-7.6042
G05
X3.9589Y-4.8958G85X4.0071Y-4.7794
G05
X4.0296Y-5.2113G85X3.9813Y-5.0949
G05
X4.2708Y-5.4161G85X4.1544Y-5.3679
G05
X4.2801Y-4.6063G85X4.1637Y-4.6546
G05
X4.4699Y-5.3937G85X4.5863Y-5.3454
G05
X4.4792Y-4.5839G85X4.5956Y-4.6321
G05
X4.7687Y-4.9051G85X4.7204Y-4.7887
G05
X4.7429Y-5.2206G85X4.7911Y-5.1042
G05
T10
X3.5482Y-5.G85X3.627Y-5.
G05
X5.123Y-5.G85X5.2018Y-5.
G05
X8.5482Y-5.G85X8.627Y-5.
G05
X10.123Y-5.G85X10.2018Y-5.
G05
X1.0482Y-7.5G85X1.127Y-7.5
G05
X2.623Y-7.5G85X2.7018Y-7.5
G05
X11.0482Y-7.5G85X11.127Y-7.5
G05
X12.623Y-7.5G85X12.7018Y-7.5
G05
T0
M30
