M48
; DRILL file {KiCad (5.1.6)-1} date 09/30/20 13:51:44
; FORMAT={-:-/ absolute / inch / decimal}
; #@! TF.CreationDate,2020-09-30T13:51:44+01:00
; #@! TF.GenerationSoftware,Kicad,Pcbnew,(5.1.6)-1
; #@! TF.FileFunction,NonPlated,1,2,NPTH
FMAT,2
INCH
T1C0.1063
T2C0.1260
T3C0.1693
%
G90
G05
T1
X3.625Y-7.5
X3.625Y-9.3125
T2
X12.75Y-9.0
X6.875Y-9.0
X1.0Y-9.0
X1.0Y-4.25
X12.75Y-4.25
X6.875Y-4.25
T3
X2.999Y-6.5
X10.727Y-6.0
X10.719Y-6.5
X2.421Y-6.0
X2.701Y-6.0
X2.141Y-6.5
X2.414Y-6.5
X11.305Y-6.0
X11.883Y-6.5
X11.016Y-6.5
X11.313Y-6.5
X3.281Y-6.0
X11.578Y-6.0
X2.146Y-6.0
X2.706Y-6.5
X11.883Y-6.0
X2.996Y-6.0
X3.279Y-6.5
X11.578Y-6.5
X11.016Y-6.0
T0
M30
