G04 #@! TF.GenerationSoftware,KiCad,Pcbnew,(5.1.6)-1*
G04 #@! TF.CreationDate,2020-09-30T13:51:42+01:00*
G04 #@! TF.ProjectId,KIT88A,4b495438-3841-42e6-9b69-6361645f7063,rev?*
G04 #@! TF.SameCoordinates,Original*
G04 #@! TF.FileFunction,Other,User*
%FSLAX46Y46*%
G04 Gerber Fmt 4.6, Leading zero omitted, Abs format (unit mm)*
G04 Created by KiCad (PCBNEW (5.1.6)-1) date 2020-09-30 13:51:42*
%MOMM*%
%LPD*%
G01*
G04 APERTURE LIST*
%ADD10C,0.050000*%
G04 APERTURE END LIST*
D10*
X95025000Y-236537500D02*
G75*
G03*
X95025000Y-236537500I-2950000J0D01*
G01*
X95025000Y-190500000D02*
G75*
G03*
X95025000Y-190500000I-2950000J0D01*
G01*
X168707000Y-173736000D02*
X168707000Y-152400000D01*
X168755000Y-173736000D02*
X179883000Y-173736000D01*
X179883000Y-152400000D02*
X168707000Y-152400000D01*
X179883000Y-152400000D02*
X179883000Y-173736000D01*
X233934000Y-110744000D02*
X227584000Y-110744000D01*
X233934000Y-110744000D02*
X233934000Y-107696000D01*
X227584000Y-107696000D02*
X227584000Y-110744000D01*
X227584000Y-107696000D02*
X233934000Y-107696000D01*
X99568000Y-140716000D02*
X105918000Y-140716000D01*
X99568000Y-140716000D02*
X99568000Y-143764000D01*
X105918000Y-143764000D02*
X105918000Y-140716000D01*
X105918000Y-143764000D02*
X99568000Y-143764000D01*
X102362000Y-114554000D02*
X96012000Y-114554000D01*
X102362000Y-114554000D02*
X102362000Y-111506000D01*
X96012000Y-111506000D02*
X96012000Y-114554000D01*
X96012000Y-111506000D02*
X102362000Y-111506000D01*
X224282000Y-143256000D02*
X230632000Y-143256000D01*
X224282000Y-143256000D02*
X224282000Y-146304000D01*
X230632000Y-146304000D02*
X230632000Y-143256000D01*
X230632000Y-146304000D02*
X224282000Y-146304000D01*
X38608000Y-205486000D02*
X44958000Y-205486000D01*
X38608000Y-205486000D02*
X38608000Y-208534000D01*
X44958000Y-208534000D02*
X44958000Y-205486000D01*
X44958000Y-208534000D02*
X38608000Y-208534000D01*
X42418000Y-176784000D02*
X36068000Y-176784000D01*
X42418000Y-176784000D02*
X42418000Y-173736000D01*
X36068000Y-173736000D02*
X36068000Y-176784000D01*
X36068000Y-173736000D02*
X42418000Y-173736000D01*
X291846000Y-205486000D02*
X298196000Y-205486000D01*
X291846000Y-205486000D02*
X291846000Y-208534000D01*
X298196000Y-208534000D02*
X298196000Y-205486000D01*
X298196000Y-208534000D02*
X291846000Y-208534000D01*
X294894000Y-175514000D02*
X288544000Y-175514000D01*
X294894000Y-175514000D02*
X294894000Y-172466000D01*
X288544000Y-172466000D02*
X288544000Y-175514000D01*
X288544000Y-172466000D02*
X294894000Y-172466000D01*
X120904000Y-205994000D02*
X114554000Y-205994000D01*
X120904000Y-205994000D02*
X120904000Y-202946000D01*
X114554000Y-202946000D02*
X114554000Y-205994000D01*
X114554000Y-202946000D02*
X120904000Y-202946000D01*
X138151000Y-192126000D02*
X144501000Y-192126000D01*
X138151000Y-192126000D02*
X138151000Y-195174000D01*
X144501000Y-195174000D02*
X144501000Y-192126000D01*
X144501000Y-195174000D02*
X138151000Y-195174000D01*
X207518000Y-200406000D02*
X213868000Y-200406000D01*
X207518000Y-200406000D02*
X207518000Y-203454000D01*
X213868000Y-203454000D02*
X213868000Y-200406000D01*
X213868000Y-203454000D02*
X207518000Y-203454000D01*
X234061000Y-192126000D02*
X240411000Y-192126000D01*
X234061000Y-192126000D02*
X234061000Y-195174000D01*
X240411000Y-195174000D02*
X240411000Y-192126000D01*
X240411000Y-195174000D02*
X234061000Y-195174000D01*
X205016000Y-217576000D02*
X211366000Y-217576000D01*
X205016000Y-217576000D02*
X205016000Y-220624000D01*
X211366000Y-220624000D02*
X211366000Y-217576000D01*
X211366000Y-220624000D02*
X205016000Y-220624000D01*
X204838000Y-212687000D02*
X211188000Y-212687000D01*
X204838000Y-212687000D02*
X204838000Y-215735000D01*
X211188000Y-215735000D02*
X211188000Y-212687000D01*
X211188000Y-215735000D02*
X204838000Y-215735000D01*
X72136000Y-134366000D02*
X78486000Y-134366000D01*
X72136000Y-134366000D02*
X72136000Y-137414000D01*
X78486000Y-137414000D02*
X78486000Y-134366000D01*
X78486000Y-137414000D02*
X72136000Y-137414000D01*
X84328000Y-134366000D02*
X90678000Y-134366000D01*
X84328000Y-134366000D02*
X84328000Y-137414000D01*
X90678000Y-137414000D02*
X90678000Y-134366000D01*
X90678000Y-137414000D02*
X84328000Y-137414000D01*
X167322000Y-218643000D02*
X173672000Y-218643000D01*
X167322000Y-218643000D02*
X167322000Y-221691000D01*
X173672000Y-221691000D02*
X173672000Y-218643000D01*
X173672000Y-221691000D02*
X167322000Y-221691000D01*
X167322000Y-214376000D02*
X173672000Y-214376000D01*
X167322000Y-214376000D02*
X167322000Y-217424000D01*
X173672000Y-217424000D02*
X173672000Y-214376000D01*
X173672000Y-217424000D02*
X167322000Y-217424000D01*
X102677000Y-98150000D02*
X102677000Y-105050000D01*
X102677000Y-105050000D02*
X136067000Y-105050000D01*
X136067000Y-105050000D02*
X136067000Y-98150000D01*
X136067000Y-98150000D02*
X102677000Y-98150000D01*
X259610000Y-101600000D02*
G75*
G03*
X259610000Y-101600000I-1800000J0D01*
G01*
X310410000Y-101600000D02*
G75*
G03*
X310410000Y-101600000I-1800000J0D01*
G01*
X42440000Y-101600000D02*
G75*
G03*
X42440000Y-101600000I-1800000J0D01*
G01*
X50060000Y-101600000D02*
G75*
G03*
X50060000Y-101600000I-1800000J0D01*
G01*
X36090000Y-101600000D02*
G75*
G03*
X36090000Y-101600000I-1800000J0D01*
G01*
X98320000Y-101600000D02*
G75*
G03*
X98320000Y-101600000I-1800000J0D01*
G01*
X302790000Y-101600000D02*
G75*
G03*
X302790000Y-101600000I-1800000J0D01*
G01*
X246910000Y-101600000D02*
G75*
G03*
X246910000Y-101600000I-1800000J0D01*
G01*
X253260000Y-101600000D02*
G75*
G03*
X253260000Y-101600000I-1800000J0D01*
G01*
X295170000Y-101600000D02*
G75*
G03*
X295170000Y-101600000I-1800000J0D01*
G01*
X56410000Y-101600000D02*
G75*
G03*
X56410000Y-101600000I-1800000J0D01*
G01*
X93169400Y-148950000D02*
X44549400Y-148950000D01*
X93169400Y-155850000D02*
X93169400Y-148950000D01*
X44549400Y-155850000D02*
X93169400Y-155850000D01*
X44549400Y-148950000D02*
X44549400Y-155850000D01*
X262811000Y-148950000D02*
X262811000Y-155850000D01*
X262811000Y-155850000D02*
X311431000Y-155850000D01*
X311431000Y-155850000D02*
X311431000Y-148950000D01*
X311431000Y-148950000D02*
X262811000Y-148950000D01*
X44676400Y-161650000D02*
X44676400Y-168550000D01*
X44676400Y-168550000D02*
X93296400Y-168550000D01*
X93296400Y-168550000D02*
X93296400Y-161650000D01*
X93296400Y-161650000D02*
X44676400Y-161650000D01*
X311025000Y-161650000D02*
X262405000Y-161650000D01*
X311025000Y-168550000D02*
X311025000Y-161650000D01*
X262405000Y-168550000D02*
X311025000Y-168550000D01*
X262405000Y-161650000D02*
X262405000Y-168550000D01*
X28850000Y-228600000D02*
G75*
G03*
X28850000Y-228600000I-3450000J0D01*
G01*
X178075000Y-228600000D02*
G75*
G03*
X178075000Y-228600000I-3450000J0D01*
G01*
X327300000Y-228600000D02*
G75*
G03*
X327300000Y-228600000I-3450000J0D01*
G01*
X28850000Y-107950000D02*
G75*
G03*
X28850000Y-107950000I-3450000J0D01*
G01*
X178075000Y-107950000D02*
G75*
G03*
X178075000Y-107950000I-3450000J0D01*
G01*
X327300000Y-107950000D02*
G75*
G03*
X327300000Y-107950000I-3450000J0D01*
G01*
X173960000Y-124380000D02*
G75*
G03*
X173960000Y-124380000I-17750000J0D01*
G01*
X210790000Y-124380000D02*
G75*
G03*
X210790000Y-124380000I-17750000J0D01*
G01*
X83620000Y-124460000D02*
G75*
G03*
X83620000Y-124460000I-8750000J0D01*
G01*
X51030000Y-129540000D02*
G75*
G03*
X51030000Y-129540000I-5250000J0D01*
G01*
X165785000Y-160062000D02*
G75*
G03*
X165785000Y-160062000I-12750000J0D01*
G01*
X208241000Y-159884000D02*
G75*
G03*
X208241000Y-159884000I-12750000J0D01*
G01*
X122916000Y-152855000D02*
X110916000Y-152855000D01*
X110916000Y-152855000D02*
X110916000Y-179855000D01*
X110916000Y-179855000D02*
X122916000Y-179855000D01*
X122916000Y-179855000D02*
X122916000Y-152855000D01*
X236759000Y-152652000D02*
X224759000Y-152652000D01*
X224759000Y-152652000D02*
X224759000Y-179652000D01*
X224759000Y-179652000D02*
X236759000Y-179652000D01*
X236759000Y-179652000D02*
X236759000Y-152652000D01*
X37071800Y-152400000D02*
G75*
G03*
X37071800Y-152400000I-4250000J0D01*
G01*
X324971000Y-152400000D02*
G75*
G03*
X324971000Y-152400000I-4250000J0D01*
G01*
X36716200Y-165100000D02*
G75*
G03*
X36716200Y-165100000I-4250000J0D01*
G01*
X324971000Y-165100000D02*
G75*
G03*
X324971000Y-165100000I-4250000J0D01*
G01*
X147856000Y-195453000D02*
X147856000Y-204953000D01*
X147856000Y-204953000D02*
X166356000Y-204953000D01*
X166356000Y-204953000D02*
X166356000Y-195453000D01*
X166356000Y-195453000D02*
X147856000Y-195453000D01*
X177687000Y-204851000D02*
X196187000Y-204851000D01*
X177687000Y-195351000D02*
X177687000Y-204851000D01*
X196187000Y-195351000D02*
X177687000Y-195351000D01*
X196187000Y-204851000D02*
X196187000Y-195351000D01*
X100950000Y-201010000D02*
X73950000Y-201010000D01*
X100950000Y-213010000D02*
X100950000Y-201010000D01*
X73950000Y-213010000D02*
X100950000Y-213010000D01*
X73950000Y-201010000D02*
X73950000Y-213010000D01*
X283957000Y-213837000D02*
X256957000Y-213837000D01*
X283957000Y-225837000D02*
X283957000Y-213837000D01*
X256957000Y-225837000D02*
X283957000Y-225837000D01*
X256957000Y-213837000D02*
X256957000Y-225837000D01*
X124663000Y-215592000D02*
G75*
G03*
X124663000Y-215592000I-8750000J0D01*
G01*
X245542000Y-215973000D02*
G75*
G03*
X245542000Y-215973000I-8750000J0D01*
G01*
X100376700Y-226995000D02*
X100376700Y-219995000D01*
X100376700Y-219995000D02*
X78276700Y-219995000D01*
X78276700Y-219995000D02*
X78276700Y-226995000D01*
X78276700Y-226995000D02*
X100376700Y-226995000D01*
X52290000Y-139010000D02*
X69630000Y-139010000D01*
X52290000Y-135310000D02*
X52290000Y-139010000D01*
X69630000Y-135310000D02*
X52290000Y-135310000D01*
X69630000Y-139010000D02*
X69630000Y-135310000D01*
X52290000Y-139120000D02*
X52290000Y-142820000D01*
X52290000Y-142820000D02*
X69630000Y-142820000D01*
X69630000Y-142820000D02*
X69630000Y-139120000D01*
X69630000Y-139120000D02*
X52290000Y-139120000D01*
X129056000Y-143393000D02*
X124056000Y-143393000D01*
X124056000Y-143393000D02*
X124056000Y-166613000D01*
X124056000Y-166613000D02*
X129056000Y-166613000D01*
X129056000Y-166613000D02*
X129056000Y-143393000D01*
X107133000Y-150791000D02*
X103433000Y-150791000D01*
X103433000Y-150791000D02*
X103433000Y-168131000D01*
X103433000Y-168131000D02*
X107133000Y-168131000D01*
X107133000Y-168131000D02*
X107133000Y-150791000D01*
X99699000Y-150778000D02*
X99699000Y-168118000D01*
X103399000Y-150778000D02*
X99699000Y-150778000D01*
X103399000Y-168118000D02*
X103399000Y-150778000D01*
X99699000Y-168118000D02*
X103399000Y-168118000D01*
X244369000Y-170239000D02*
X244369000Y-152899000D01*
X240669000Y-170239000D02*
X244369000Y-170239000D01*
X240669000Y-152899000D02*
X240669000Y-170239000D01*
X244369000Y-152899000D02*
X240669000Y-152899000D01*
X247070000Y-152912000D02*
X247070000Y-170252000D01*
X250770000Y-152912000D02*
X247070000Y-152912000D01*
X250770000Y-170252000D02*
X250770000Y-152912000D01*
X247070000Y-170252000D02*
X250770000Y-170252000D01*
X295366000Y-134901000D02*
X272146000Y-134901000D01*
X295366000Y-139901000D02*
X295366000Y-134901000D01*
X272146000Y-139901000D02*
X295366000Y-139901000D01*
X272146000Y-134901000D02*
X272146000Y-139901000D01*
X124915000Y-180008000D02*
X148135000Y-180008000D01*
X124915000Y-175008000D02*
X124915000Y-180008000D01*
X148135000Y-175008000D02*
X124915000Y-175008000D01*
X148135000Y-180008000D02*
X148135000Y-175008000D01*
X222049000Y-175008000D02*
X198829000Y-175008000D01*
X222049000Y-180008000D02*
X222049000Y-175008000D01*
X198829000Y-180008000D02*
X222049000Y-180008000D01*
X198829000Y-175008000D02*
X198829000Y-180008000D01*
X145273000Y-192670000D02*
X168493000Y-192670000D01*
X145273000Y-187670000D02*
X145273000Y-192670000D01*
X168493000Y-187670000D02*
X145273000Y-187670000D01*
X168493000Y-192670000D02*
X168493000Y-187670000D01*
X201234000Y-187670000D02*
X178014000Y-187670000D01*
X201234000Y-192670000D02*
X201234000Y-187670000D01*
X178014000Y-192670000D02*
X201234000Y-192670000D01*
X178014000Y-187670000D02*
X178014000Y-192670000D01*
X111807000Y-202828000D02*
X111807000Y-185488000D01*
X108107000Y-202828000D02*
X111807000Y-202828000D01*
X108107000Y-185488000D02*
X108107000Y-202828000D01*
X111807000Y-185488000D02*
X108107000Y-185488000D01*
X206587000Y-183964000D02*
X202887000Y-183964000D01*
X202887000Y-183964000D02*
X202887000Y-201304000D01*
X202887000Y-201304000D02*
X206587000Y-201304000D01*
X206587000Y-201304000D02*
X206587000Y-183964000D01*
X258411000Y-198264000D02*
X258411000Y-201964000D01*
X258411000Y-201964000D02*
X275751000Y-201964000D01*
X275751000Y-201964000D02*
X275751000Y-198264000D01*
X275751000Y-198264000D02*
X258411000Y-198264000D01*
X258424000Y-205723000D02*
X275764000Y-205723000D01*
X258424000Y-202023000D02*
X258424000Y-205723000D01*
X275764000Y-202023000D02*
X258424000Y-202023000D01*
X275764000Y-205723000D02*
X275764000Y-202023000D01*
X143125000Y-210016000D02*
X143125000Y-206316000D01*
X143125000Y-206316000D02*
X125785000Y-206316000D01*
X125785000Y-206316000D02*
X125785000Y-210016000D01*
X125785000Y-210016000D02*
X143125000Y-210016000D01*
X165472000Y-206062000D02*
X165472000Y-209762000D01*
X165472000Y-209762000D02*
X182812000Y-209762000D01*
X182812000Y-209762000D02*
X182812000Y-206062000D01*
X182812000Y-206062000D02*
X165472000Y-206062000D01*
X34412800Y-213783000D02*
X30712800Y-213783000D01*
X30712800Y-213783000D02*
X30712800Y-231123000D01*
X30712800Y-231123000D02*
X34412800Y-231123000D01*
X34412800Y-231123000D02*
X34412800Y-213783000D01*
X38172000Y-231110000D02*
X38172000Y-213770000D01*
X34472000Y-231110000D02*
X38172000Y-231110000D01*
X34472000Y-213770000D02*
X34472000Y-231110000D01*
X38172000Y-213770000D02*
X34472000Y-213770000D01*
X81100000Y-177760000D02*
X104320000Y-177760000D01*
X81100000Y-172760000D02*
X81100000Y-177760000D01*
X104320000Y-172760000D02*
X81100000Y-172760000D01*
X104320000Y-177760000D02*
X104320000Y-172760000D01*
X326570000Y-144740000D02*
X326570000Y-139740000D01*
X326570000Y-139740000D02*
X303350000Y-139740000D01*
X303350000Y-139740000D02*
X303350000Y-144740000D01*
X303350000Y-144740000D02*
X326570000Y-144740000D01*
X142883000Y-220417000D02*
X142883000Y-216717000D01*
X142883000Y-216717000D02*
X125543000Y-216717000D01*
X125543000Y-216717000D02*
X125543000Y-220417000D01*
X125543000Y-220417000D02*
X142883000Y-220417000D01*
X165460000Y-213546000D02*
X182800000Y-213546000D01*
X165460000Y-209846000D02*
X165460000Y-213546000D01*
X182800000Y-209846000D02*
X165460000Y-209846000D01*
X182800000Y-213546000D02*
X182800000Y-209846000D01*
X139717000Y-221213000D02*
X139717000Y-238553000D01*
X143417000Y-221213000D02*
X139717000Y-221213000D01*
X143417000Y-238553000D02*
X143417000Y-221213000D01*
X139717000Y-238553000D02*
X143417000Y-238553000D01*
X179404000Y-234324000D02*
X183104000Y-234324000D01*
X183104000Y-234324000D02*
X183104000Y-216984000D01*
X183104000Y-216984000D02*
X179404000Y-216984000D01*
X179404000Y-216984000D02*
X179404000Y-234324000D01*
X83163700Y-219020000D02*
X100503700Y-219020000D01*
X83163700Y-215320000D02*
X83163700Y-219020000D01*
X100503700Y-215320000D02*
X83163700Y-215320000D01*
X100503700Y-219020000D02*
X100503700Y-215320000D01*
X228248000Y-227741000D02*
X228248000Y-231441000D01*
X228248000Y-231441000D02*
X245588000Y-231441000D01*
X245588000Y-231441000D02*
X245588000Y-227741000D01*
X245588000Y-227741000D02*
X228248000Y-227741000D01*
X137283000Y-229955000D02*
X137283000Y-226255000D01*
X137283000Y-226255000D02*
X119943000Y-226255000D01*
X119943000Y-226255000D02*
X119943000Y-229955000D01*
X119943000Y-229955000D02*
X137283000Y-229955000D01*
X206697000Y-231428000D02*
X224037000Y-231428000D01*
X206697000Y-227728000D02*
X206697000Y-231428000D01*
X224037000Y-227728000D02*
X206697000Y-227728000D01*
X224037000Y-231428000D02*
X224037000Y-227728000D01*
X139317000Y-143381000D02*
X134317000Y-143381000D01*
X134317000Y-143381000D02*
X134317000Y-166601000D01*
X134317000Y-166601000D02*
X139317000Y-166601000D01*
X139317000Y-166601000D02*
X139317000Y-143381000D01*
X134085000Y-166601000D02*
X134085000Y-143381000D01*
X129085000Y-166601000D02*
X134085000Y-166601000D01*
X129085000Y-143381000D02*
X129085000Y-166601000D01*
X134085000Y-143381000D02*
X129085000Y-143381000D01*
X263993000Y-171994000D02*
X258993000Y-171994000D01*
X258993000Y-171994000D02*
X258993000Y-195214000D01*
X258993000Y-195214000D02*
X263993000Y-195214000D01*
X263993000Y-195214000D02*
X263993000Y-171994000D01*
X258938000Y-171994000D02*
X253938000Y-171994000D01*
X253938000Y-171994000D02*
X253938000Y-195214000D01*
X253938000Y-195214000D02*
X258938000Y-195214000D01*
X258938000Y-195214000D02*
X258938000Y-171994000D01*
X269090000Y-195214000D02*
X274090000Y-195214000D01*
X274090000Y-195214000D02*
X274090000Y-171994000D01*
X274090000Y-171994000D02*
X269090000Y-171994000D01*
X269090000Y-171994000D02*
X269090000Y-195214000D01*
X264035000Y-195214000D02*
X269035000Y-195214000D01*
X269035000Y-195214000D02*
X269035000Y-171994000D01*
X269035000Y-171994000D02*
X264035000Y-171994000D01*
X264035000Y-171994000D02*
X264035000Y-195214000D01*
X159268000Y-175973000D02*
X159268000Y-180973000D01*
X159268000Y-180973000D02*
X182488000Y-180973000D01*
X182488000Y-180973000D02*
X182488000Y-175973000D01*
X182488000Y-175973000D02*
X159268000Y-175973000D01*
X182488000Y-181028000D02*
X159268000Y-181028000D01*
X182488000Y-186028000D02*
X182488000Y-181028000D01*
X159268000Y-186028000D02*
X182488000Y-186028000D01*
X159268000Y-181028000D02*
X159268000Y-186028000D01*
X144778000Y-99100000D02*
X144778000Y-104100000D01*
X144778000Y-104100000D02*
X167998000Y-104100000D01*
X167998000Y-104100000D02*
X167998000Y-99100000D01*
X167998000Y-99100000D02*
X144778000Y-99100000D01*
X204574000Y-99100000D02*
X181354000Y-99100000D01*
X204574000Y-104100000D02*
X204574000Y-99100000D01*
X181354000Y-104100000D02*
X204574000Y-104100000D01*
X181354000Y-99100000D02*
X181354000Y-104100000D01*
X223461000Y-232809000D02*
X223461000Y-239809000D01*
X223461000Y-239809000D02*
X245561000Y-239809000D01*
X245561000Y-239809000D02*
X245561000Y-232809000D01*
X245561000Y-232809000D02*
X223461000Y-232809000D01*
X112290000Y-227460000D02*
X101280000Y-227460000D01*
X101280000Y-227460000D02*
X101280000Y-236240000D01*
X101280000Y-236240000D02*
X112290000Y-236240000D01*
X112290000Y-236240000D02*
X112290000Y-227460000D01*
X263420000Y-236240000D02*
X263420000Y-227460000D01*
X252410000Y-236240000D02*
X263420000Y-236240000D01*
X252410000Y-227460000D02*
X252410000Y-236240000D01*
X263420000Y-227460000D02*
X252410000Y-227460000D01*
X170050000Y-240560000D02*
X170050000Y-229550000D01*
X170050000Y-229550000D02*
X157310000Y-229550000D01*
X157310000Y-229550000D02*
X157310000Y-240560000D01*
X157310000Y-240560000D02*
X170050000Y-240560000D01*
X188140000Y-148550000D02*
X188140000Y-143550000D01*
X188140000Y-143550000D02*
X159840000Y-143550000D01*
X159840000Y-143550000D02*
X159840000Y-148550000D01*
X159840000Y-148550000D02*
X188140000Y-148550000D01*
X267065000Y-121109000D02*
X267065000Y-115009000D01*
X299565000Y-121109000D02*
X267065000Y-121109000D01*
X299565000Y-115009000D02*
X299565000Y-121109000D01*
X267065000Y-115009000D02*
X299565000Y-115009000D01*
X56260000Y-121990000D02*
X46910000Y-121990000D01*
X56260000Y-121990000D02*
X56260000Y-111680000D01*
X46910000Y-111680000D02*
X46910000Y-121990000D01*
X46910000Y-111680000D02*
X56260000Y-111680000D01*
X85660000Y-110230000D02*
X64210000Y-110230000D01*
X85660000Y-110230000D02*
X85660000Y-114880000D01*
X64210000Y-114880000D02*
X64210000Y-110230000D01*
X64210000Y-114880000D02*
X85660000Y-114880000D01*
X79270000Y-101600000D02*
G75*
G03*
X79270000Y-101600000I-1800000J0D01*
G01*
X74190000Y-101600000D02*
G75*
G03*
X74190000Y-101600000I-1800000J0D01*
G01*
X81788000Y-102616000D02*
X88138000Y-102616000D01*
X81788000Y-102616000D02*
X81788000Y-105664000D01*
X88138000Y-105664000D02*
X88138000Y-102616000D01*
X88138000Y-105664000D02*
X81788000Y-105664000D01*
X68326000Y-105664000D02*
X61976000Y-105664000D01*
X68326000Y-105664000D02*
X68326000Y-102616000D01*
X61976000Y-102616000D02*
X61976000Y-105664000D01*
X61976000Y-102616000D02*
X68326000Y-102616000D01*
M02*
