M48
;DRILL file {KiCad (5.0.0)} date 05/22/20 12:26:43
;FORMAT={-:-/ absolute / inch / decimal}
FMAT,2
INCH,TZ
T1C0.1260
T2C0.1693
%
G90
G05
M72
T1
X12.75Y-4.25
X6.875Y-4.25
X12.75Y-9.
X1.Y-9.
X6.875Y-9.
X1.Y-4.25
T2
X11.883Y-6.5
X11.883Y-6.
X2.141Y-6.5
X10.719Y-6.5
X2.999Y-6.5
X11.578Y-6.5
X11.016Y-6.5
X11.305Y-6.
X11.578Y-6.
X3.279Y-6.5
X3.281Y-6.
X11.016Y-6.
X2.701Y-6.
X10.727Y-6.
X2.146Y-6.
X2.996Y-6.
X2.414Y-6.5
X11.313Y-6.5
X2.421Y-6.
X2.706Y-6.5
T0
M30
