M48
; DRILL file {KiCad (5.1.6)-1} date 09/30/20 13:51:44
; FORMAT={-:-/ absolute / inch / decimal}
; #@! TF.CreationDate,2020-09-30T13:51:44+01:00
; #@! TF.GenerationSoftware,Kicad,Pcbnew,(5.1.6)-1
; #@! TF.FileFunction,Plated,1,2,PTH
FMAT,2
INCH
T1C0.0315
T2C0.0394
T3C0.0402
T4C0.0472
T5C0.0630
T6C0.0669
T7C0.0709
T8C0.0787
T9C0.0866
T10C0.1181
T11C0.2165
%
G90
G05
T1
X12.552Y-6.0
X12.7016Y-6.0
X6.5555Y-8.3345
X7.1555Y-8.3345
X4.7635Y-8.9805
X5.3635Y-8.9805
X8.839Y-9.3035
X9.6264Y-9.3035
X8.0605Y-7.284
X8.0605Y-7.884
X1.43Y-8.4575
X1.43Y-9.0575
X9.8Y-6.0615
X9.8Y-6.6615
X1.2174Y-6.0
X1.367Y-6.0
X1.282Y-8.458
X1.282Y-9.058
X9.0275Y-9.039
X9.6275Y-9.039
X4.329Y-7.344
X4.329Y-7.944
X10.2155Y-8.0265
X10.8155Y-8.0265
X2.1Y-5.55
X2.7Y-5.55
X10.215Y-7.8785
X10.815Y-7.8785
X5.5735Y-8.7505
X5.5735Y-9.3505
X6.556Y-8.1855
X7.156Y-8.1855
X4.984Y-8.605
X5.584Y-8.605
X4.9935Y-8.1955
X5.5935Y-8.1955
X9.548Y-6.061
X9.548Y-6.661
X12.552Y-6.5
X12.7016Y-6.5
X1.2034Y-6.5
X1.353Y-6.5
X3.3155Y-8.55
X3.9155Y-8.55
X3.998Y-5.9775
X3.998Y-6.5775
X7.136Y-8.584
X7.136Y-9.184
X4.145Y-5.978
X4.145Y-6.578
X8.179Y-9.0385
X8.779Y-9.0385
X3.1231Y-8.799
X3.9105Y-8.799
X2.1Y-5.4
X2.7Y-5.4
T2
X1.6547Y-5.1
X1.95Y-5.1
X1.95Y-4.5
X1.95Y-4.7
X2.15Y-4.5
X2.15Y-4.7
X10.662Y-4.648
X10.9573Y-4.648
X11.2526Y-4.648
X11.6463Y-4.648
T4
X5.8724Y-8.8731
X5.8769Y-8.3724
X6.122Y-8.9791
X6.128Y-8.2709
X6.3731Y-8.8776
X6.3776Y-8.3769
X6.4791Y-8.628
X9.085Y-6.0985
X9.085Y-6.9843
X4.5635Y-8.3402
X4.5635Y-8.6355
X3.25Y-6.9
X4.05Y-6.9
X10.4935Y-6.8285
X10.4935Y-7.6285
X5.7765Y-7.487
X6.5765Y-7.487
X10.404Y-6.0
X12.204Y-6.0
X5.89Y-7.882
X6.4806Y-7.882
X6.35Y-5.75
X7.35Y-5.75
X7.0655Y-7.487
X7.8655Y-7.487
X5.757Y-4.0
X6.557Y-4.0
X7.3724Y-8.8731
X7.3769Y-8.3724
X7.622Y-8.9791
X7.628Y-8.2709
X7.8731Y-8.8776
X7.8776Y-8.3769
X7.9791Y-8.628
X5.3865Y-5.702
X5.3865Y-6.502
X9.3225Y-8.3552
X9.3225Y-8.6505
X6.3275Y-7.2255
X7.1275Y-7.2255
X4.9825Y-5.7025
X4.9825Y-6.5025
X10.388Y-6.5
X12.188Y-6.5
X2.8Y-4.9
X3.0953Y-4.9
X4.603Y-6.1065
X4.603Y-6.9923
X5.1805Y-5.702
X5.1805Y-6.502
X10.7715Y-5.4095
X11.5715Y-5.4095
X10.205Y-8.655
X11.0908Y-8.655
X1.811Y-6.0
X3.611Y-6.0
X1.816Y-6.5
X3.616Y-6.5
X3.0Y-8.15
X3.8858Y-8.15
X10.295Y-6.8285
X10.295Y-7.6285
X12.0Y-5.6
X12.8Y-5.6
X7.885Y-6.9885
X8.685Y-6.9885
X10.096Y-6.8285
X10.096Y-7.6285
X7.0644Y-7.878
X7.655Y-7.878
X7.197Y-4.0
X7.997Y-4.0
X10.6925Y-6.8285
X10.6925Y-7.6285
X4.975Y-6.9885
X5.775Y-6.9885
X4.0995Y-4.0
X5.2995Y-4.0
X6.3275Y-7.0265
X7.1275Y-7.0265
T5
X2.65Y-4.45
X2.85Y-4.45
X3.05Y-4.45
X3.25Y-4.45
T6
X10.15Y-9.05
X10.15Y-9.2059
X4.2Y-9.05
X4.2Y-9.2059
X6.2882Y-9.25
X6.4441Y-9.25
X6.6Y-9.25
T8
X6.025Y-6.1048
X6.025Y-6.4985
X9.9Y-4.0
X9.9Y-4.1969
X3.8Y-4.0
X3.8Y-4.1969
X2.85Y-4.0
X2.85Y-4.1969
X11.85Y-4.0
X11.85Y-4.1969
X2.15Y-4.0
X2.15Y-4.1969
X7.6Y-4.7
X7.6Y-5.0937
X12.15Y-4.0
X12.15Y-4.1969
X10.15Y-4.0
X10.15Y-4.1969
X11.55Y-4.0
X11.55Y-4.1969
X6.862Y-6.09
X6.862Y-6.2
X6.862Y-6.31
X6.862Y-6.42
X6.862Y-6.53
X6.862Y-6.65
X6.862Y-6.76
X9.65Y-4.0
X9.65Y-4.1969
X1.9Y-4.0
X1.9Y-4.1969
X1.6Y-4.0
X1.6Y-4.1969
X6.15Y-4.7
X6.15Y-5.0937
X3.05Y-4.0
X3.05Y-4.1969
X7.6965Y-6.0978
X7.6965Y-6.4915
X1.35Y-4.0
X1.35Y-4.1969
T9
X3.99Y-5.6
X4.1Y-5.6
X4.58Y-8.05
X4.69Y-8.05
X5.509Y-7.624
X5.619Y-7.624
X11.43Y-6.85
X11.54Y-6.85
X11.56Y-8.15
X11.67Y-8.15
X3.85Y-4.45
X3.96Y-4.45
X8.1415Y-8.626
X8.2515Y-8.626
X8.9Y-5.7
X9.01Y-5.7
X3.39Y-5.35
X3.5Y-5.35
X1.49Y-6.9
X1.6Y-6.9
X8.1345Y-8.4335
X8.2445Y-8.4335
X1.59Y-8.15
X1.7Y-8.15
X6.6575Y-8.5
X6.7675Y-8.5
X9.03Y-4.3
X9.14Y-4.3
X3.29Y-4.1
X3.4Y-4.1
X9.285Y-7.624
X9.395Y-7.624
X6.6575Y-8.668
X6.7675Y-8.668
X2.51Y-4.1
X2.62Y-4.1
X8.24Y-7.95
X8.35Y-7.95
X2.91Y-5.35
X3.02Y-5.35
T11
X11.875Y-7.5
X9.375Y-5.0
X4.375Y-5.0
X1.875Y-7.5
T3
G00X4.7017Y-7.4328
M15
G01X4.7251Y-7.4006
M16
G05
G00X4.7017Y-7.8172
M15
G01X4.7251Y-7.8494
M16
G05
G00X4.8716Y-7.2941
M15
G01X4.9095Y-7.2818
M16
G05
G00X4.8716Y-7.9559
M15
G01X4.9095Y-7.9682
M16
G05
G00X5.0905Y-7.2818
M15
G01X5.1284Y-7.2941
M16
G05
G00X5.0905Y-7.9682
M15
G01X5.1284Y-7.9559
M16
G05
G00X5.2749Y-7.4006
M15
G01X5.2983Y-7.4328
M16
G05
G00X5.2749Y-7.8494
M15
G01X5.2983Y-7.8172
M16
G05
G00X5.3543Y-7.6051
M15
G01X5.3543Y-7.6449
M16
G05
G00X8.4517Y-7.4328
M15
G01X8.4751Y-7.4006
M16
G05
G00X8.4517Y-7.8172
M15
G01X8.4751Y-7.8494
M16
G05
G00X8.6216Y-7.2941
M15
G01X8.6595Y-7.2818
M16
G05
G00X8.6216Y-7.9559
M15
G01X8.6595Y-7.9682
M16
G05
G00X8.8405Y-7.2818
M15
G01X8.8784Y-7.2941
M16
G05
G00X8.8405Y-7.9682
M15
G01X8.8784Y-7.9559
M16
G05
G00X9.0249Y-7.4006
M15
G01X9.0483Y-7.4328
M16
G05
G00X9.0249Y-7.8494
M15
G01X9.0483Y-7.8172
M16
G05
G00X9.1043Y-7.6051
M15
G01X9.1043Y-7.6449
M16
G05
T7
G00X11.4589Y-7.3958
M15
G01X11.5071Y-7.2794
M16
G05
G00X11.5296Y-7.7113
M15
G01X11.4813Y-7.5949
M16
G05
G00X11.7708Y-7.9161
M15
G01X11.6544Y-7.8679
M16
G05
G00X11.7801Y-7.1063
M15
G01X11.6637Y-7.1546
M16
G05
G00X11.9699Y-7.8937
M15
G01X12.0863Y-7.8454
M16
G05
G00X11.9792Y-7.0839
M15
G01X12.0956Y-7.1321
M16
G05
G00X12.2687Y-7.4051
M15
G01X12.2204Y-7.2887
M16
G05
G00X12.2429Y-7.7206
M15
G01X12.2911Y-7.6042
M16
G05
G00X8.9589Y-4.8958
M15
G01X9.0071Y-4.7794
M16
G05
G00X9.0296Y-5.2113
M15
G01X8.9813Y-5.0949
M16
G05
G00X9.2708Y-5.4161
M15
G01X9.1544Y-5.3679
M16
G05
G00X9.2801Y-4.6063
M15
G01X9.1637Y-4.6546
M16
G05
G00X9.4699Y-5.3937
M15
G01X9.5863Y-5.3454
M16
G05
G00X9.4792Y-4.5839
M15
G01X9.5956Y-4.6321
M16
G05
G00X9.7687Y-4.9051
M15
G01X9.7204Y-4.7887
M16
G05
G00X9.7429Y-5.2206
M15
G01X9.7911Y-5.1042
M16
G05
G00X3.9589Y-4.8958
M15
G01X4.0071Y-4.7794
M16
G05
G00X4.0296Y-5.2113
M15
G01X3.9813Y-5.0949
M16
G05
G00X4.2708Y-5.4161
M15
G01X4.1544Y-5.3679
M16
G05
G00X4.2801Y-4.6063
M15
G01X4.1637Y-4.6546
M16
G05
G00X4.4699Y-5.3937
M15
G01X4.5863Y-5.3454
M16
G05
G00X4.4792Y-4.5839
M15
G01X4.5956Y-4.6321
M16
G05
G00X4.7687Y-4.9051
M15
G01X4.7204Y-4.7887
M16
G05
G00X4.7429Y-5.2206
M15
G01X4.7911Y-5.1042
M16
G05
G00X1.4589Y-7.3958
M15
G01X1.5071Y-7.2794
M16
G05
G00X1.5296Y-7.7113
M15
G01X1.4813Y-7.5949
M16
G05
G00X1.7708Y-7.9161
M15
G01X1.6544Y-7.8679
M16
G05
G00X1.7801Y-7.1063
M15
G01X1.6637Y-7.1546
M16
G05
G00X1.9699Y-7.8937
M15
G01X2.0863Y-7.8454
M16
G05
G00X1.9792Y-7.0839
M15
G01X2.0956Y-7.1321
M16
G05
G00X2.2687Y-7.4051
M15
G01X2.2204Y-7.2887
M16
G05
G00X2.2429Y-7.7206
M15
G01X2.2911Y-7.6042
M16
G05
T10
G00X11.0482Y-7.5
M15
G01X11.127Y-7.5
M16
G05
G00X12.623Y-7.5
M15
G01X12.7018Y-7.5
M16
G05
G00X8.5482Y-5.0
M15
G01X8.627Y-5.0
M16
G05
G00X10.123Y-5.0
M15
G01X10.2018Y-5.0
M16
G05
G00X3.5482Y-5.0
M15
G01X3.627Y-5.0
M16
G05
G00X5.123Y-5.0
M15
G01X5.2018Y-5.0
M16
G05
G00X1.0482Y-7.5
M15
G01X1.127Y-7.5
M16
G05
G00X2.623Y-7.5
M15
G01X2.7018Y-7.5
M16
G05
T0
M30
