G04 #@! TF.GenerationSoftware,KiCad,Pcbnew,(5.1.6)-1*
G04 #@! TF.CreationDate,2020-09-30T13:51:41+01:00*
G04 #@! TF.ProjectId,KIT88A,4b495438-3841-42e6-9b69-6361645f7063,rev?*
G04 #@! TF.SameCoordinates,Original*
G04 #@! TF.FileFunction,Copper,L1,Top*
G04 #@! TF.FilePolarity,Positive*
%FSLAX46Y46*%
G04 Gerber Fmt 4.6, Leading zero omitted, Abs format (unit mm)*
G04 Created by KiCad (PCBNEW (5.1.6)-1) date 2020-09-30 13:51:41*
%MOMM*%
%LPD*%
G01*
G04 APERTURE LIST*
G04 #@! TA.AperFunction,NonConductor*
%ADD10C,0.300000*%
G04 #@! TD*
G04 #@! TA.AperFunction,ComponentPad*
%ADD11C,2.500000*%
G04 #@! TD*
G04 #@! TA.AperFunction,ComponentPad*
%ADD12O,10.000000X20.000000*%
G04 #@! TD*
G04 #@! TA.AperFunction,ComponentPad*
%ADD13R,2.800000X2.600000*%
G04 #@! TD*
G04 #@! TA.AperFunction,ComponentPad*
%ADD14C,2.400000*%
G04 #@! TD*
G04 #@! TA.AperFunction,ComponentPad*
%ADD15O,2.400000X2.400000*%
G04 #@! TD*
G04 #@! TA.AperFunction,ComponentPad*
%ADD16O,2.000000X3.000000*%
G04 #@! TD*
G04 #@! TA.AperFunction,ComponentPad*
%ADD17C,3.000000*%
G04 #@! TD*
G04 #@! TA.AperFunction,ComponentPad*
%ADD18C,2.540000*%
G04 #@! TD*
G04 #@! TA.AperFunction,ComponentPad*
%ADD19C,7.000000*%
G04 #@! TD*
G04 #@! TA.AperFunction,ComponentPad*
%ADD20C,6.000000*%
G04 #@! TD*
G04 #@! TA.AperFunction,ComponentPad*
%ADD21C,4.000000*%
G04 #@! TD*
G04 #@! TA.AperFunction,ComponentPad*
%ADD22R,4.000000X4.000000*%
G04 #@! TD*
G04 #@! TA.AperFunction,ComponentPad*
%ADD23R,2.400000X2.400000*%
G04 #@! TD*
G04 #@! TA.AperFunction,ComponentPad*
%ADD24R,2.000000X2.000000*%
G04 #@! TD*
G04 #@! TA.AperFunction,ComponentPad*
%ADD25C,2.000000*%
G04 #@! TD*
G04 #@! TA.AperFunction,ComponentPad*
%ADD26R,1.600000X1.600000*%
G04 #@! TD*
G04 #@! TA.AperFunction,ComponentPad*
%ADD27C,1.600000*%
G04 #@! TD*
G04 #@! TA.AperFunction,ComponentPad*
%ADD28O,1.600000X1.600000*%
G04 #@! TD*
G04 #@! TA.AperFunction,ComponentPad*
%ADD29O,4.100000X3.160000*%
G04 #@! TD*
G04 #@! TA.AperFunction,ComponentPad*
%ADD30O,3.160000X4.100000*%
G04 #@! TD*
G04 #@! TA.AperFunction,ComponentPad*
%ADD31O,2.000000X2.000000*%
G04 #@! TD*
G04 #@! TA.AperFunction,ComponentPad*
%ADD32C,3.200001*%
G04 #@! TD*
G04 #@! TA.AperFunction,ComponentPad*
%ADD33C,3.200000*%
G04 #@! TD*
G04 #@! TA.AperFunction,ComponentPad*
%ADD34R,3.200000X3.200000*%
G04 #@! TD*
G04 #@! TA.AperFunction,Conductor*
%ADD35C,1.270000*%
G04 #@! TD*
G04 #@! TA.AperFunction,Conductor*
%ADD36C,2.540000*%
G04 #@! TD*
G04 #@! TA.AperFunction,Conductor*
%ADD37C,1.778000*%
G04 #@! TD*
G04 #@! TA.AperFunction,Conductor*
%ADD38C,0.508000*%
G04 #@! TD*
G04 #@! TA.AperFunction,Conductor*
%ADD39C,1.016000*%
G04 #@! TD*
G04 #@! TA.AperFunction,Conductor*
%ADD40C,0.762000*%
G04 #@! TD*
G04 #@! TA.AperFunction,Conductor*
%ADD41C,3.810000*%
G04 #@! TD*
G04 APERTURE END LIST*
D10*
X112776071Y-233914142D02*
X113918928Y-233914142D01*
X113347500Y-234485571D02*
X113347500Y-233342714D01*
X264858571Y-233787142D02*
X266001428Y-233787142D01*
X265430000Y-234358571D02*
X265430000Y-233215714D01*
D11*
X174295000Y-171704000D03*
X174295000Y-168910000D03*
D12*
X174295000Y-163068000D03*
D11*
X174295000Y-165862000D03*
X174295000Y-160274000D03*
X174295000Y-157480000D03*
X174295000Y-154686000D03*
D13*
X232156000Y-109220000D03*
X229362000Y-109220000D03*
X101346000Y-142240000D03*
X104140000Y-142240000D03*
X100584000Y-113030000D03*
X97790000Y-113030000D03*
X226060000Y-144780000D03*
X228854000Y-144780000D03*
X40386000Y-207010000D03*
X43180000Y-207010000D03*
X40640000Y-175260000D03*
X37846000Y-175260000D03*
X293624000Y-207010000D03*
X296418000Y-207010000D03*
X293116000Y-173990000D03*
X290322000Y-173990000D03*
X119126000Y-204470000D03*
X116332000Y-204470000D03*
X139929000Y-193650000D03*
X142723000Y-193650000D03*
X209296000Y-201930000D03*
X212090000Y-201930000D03*
X235839000Y-193650000D03*
X238633000Y-193650000D03*
X206794000Y-219100000D03*
X209588000Y-219100000D03*
X206616000Y-214211000D03*
X209410000Y-214211000D03*
X73914000Y-135890000D03*
X76708000Y-135890000D03*
X86106000Y-135890000D03*
X88900000Y-135890000D03*
X169100000Y-220167000D03*
X171894000Y-220167000D03*
X169100000Y-215900000D03*
X171894000Y-215900000D03*
D14*
X104127000Y-101600000D03*
D15*
X134607000Y-101600000D03*
G04 #@! TA.AperFunction,ComponentPad*
G36*
G01*
X120822910Y-188568277D02*
X120235124Y-189377293D01*
G75*
G02*
X118838322Y-189598525I-809017J587785D01*
G01*
X118838322Y-189598525D01*
G75*
G02*
X118617090Y-188201723I587785J809017D01*
G01*
X119204876Y-187392707D01*
G75*
G02*
X120601678Y-187171475I809017J-587785D01*
G01*
X120601678Y-187171475D01*
G75*
G02*
X120822910Y-188568277I-587785J-809017D01*
G01*
G37*
G04 #@! TD.AperFunction*
G04 #@! TA.AperFunction,ComponentPad*
G36*
G01*
X125004545Y-185911548D02*
X124053489Y-186220565D01*
G75*
G02*
X122793415Y-185578525I-309017J951057D01*
G01*
X122793415Y-185578525D01*
G75*
G02*
X123435455Y-184318451I951057J309017D01*
G01*
X124386511Y-184009435D01*
G75*
G02*
X125646585Y-184651475I309017J-951057D01*
G01*
X125646585Y-184651475D01*
G75*
G02*
X125004545Y-185911549I-951057J-309017D01*
G01*
G37*
G04 #@! TD.AperFunction*
G04 #@! TA.AperFunction,ComponentPad*
G36*
G01*
X129946511Y-186220565D02*
X128995455Y-185911549D01*
G75*
G02*
X128353415Y-184651475I309017J951057D01*
G01*
X128353415Y-184651475D01*
G75*
G02*
X129613489Y-184009435I951057J-309017D01*
G01*
X130564545Y-184318451D01*
G75*
G02*
X131206585Y-185578525I-309017J-951057D01*
G01*
X131206585Y-185578525D01*
G75*
G02*
X129946511Y-186220565I-951057J309017D01*
G01*
G37*
G04 #@! TD.AperFunction*
G04 #@! TA.AperFunction,ComponentPad*
G36*
G01*
X133764876Y-189377294D02*
X133177090Y-188568277D01*
G75*
G02*
X133398322Y-187171475I809017J587785D01*
G01*
X133398322Y-187171475D01*
G75*
G02*
X134795124Y-187392707I587785J-809017D01*
G01*
X135382910Y-188201723D01*
G75*
G02*
X135161678Y-189598525I-809017J-587785D01*
G01*
X135161678Y-189598525D01*
G75*
G02*
X133764876Y-189377293I-587785J809017D01*
G01*
G37*
G04 #@! TD.AperFunction*
D16*
X136000000Y-193675000D03*
G04 #@! TA.AperFunction,ComponentPad*
G36*
G01*
X135382910Y-199148277D02*
X134795124Y-199957293D01*
G75*
G02*
X133398322Y-200178525I-809017J587785D01*
G01*
X133398322Y-200178525D01*
G75*
G02*
X133177090Y-198781723I587785J809017D01*
G01*
X133764876Y-197972707D01*
G75*
G02*
X135161678Y-197751475I809017J-587785D01*
G01*
X135161678Y-197751475D01*
G75*
G02*
X135382910Y-199148277I-587785J-809017D01*
G01*
G37*
G04 #@! TD.AperFunction*
G04 #@! TA.AperFunction,ComponentPad*
G36*
G01*
X130564545Y-203031548D02*
X129613489Y-203340565D01*
G75*
G02*
X128353415Y-202698525I-309017J951057D01*
G01*
X128353415Y-202698525D01*
G75*
G02*
X128995455Y-201438451I951057J309017D01*
G01*
X129946511Y-201129435D01*
G75*
G02*
X131206585Y-201771475I309017J-951057D01*
G01*
X131206585Y-201771475D01*
G75*
G02*
X130564545Y-203031549I-951057J-309017D01*
G01*
G37*
G04 #@! TD.AperFunction*
G04 #@! TA.AperFunction,ComponentPad*
G36*
G01*
X124386511Y-203340565D02*
X123435455Y-203031549D01*
G75*
G02*
X122793415Y-201771475I309017J951057D01*
G01*
X122793415Y-201771475D01*
G75*
G02*
X124053489Y-201129435I951057J-309017D01*
G01*
X125004545Y-201438451D01*
G75*
G02*
X125646585Y-202698525I-309017J-951057D01*
G01*
X125646585Y-202698525D01*
G75*
G02*
X124386511Y-203340565I-951057J309017D01*
G01*
G37*
G04 #@! TD.AperFunction*
G04 #@! TA.AperFunction,ComponentPad*
G36*
G01*
X119204876Y-199957294D02*
X118617090Y-199148277D01*
G75*
G02*
X118838322Y-197751475I809017J587785D01*
G01*
X118838322Y-197751475D01*
G75*
G02*
X120235124Y-197972707I587785J-809017D01*
G01*
X120822910Y-198781723D01*
G75*
G02*
X120601678Y-200178525I-809017J-587785D01*
G01*
X120601678Y-200178525D01*
G75*
G02*
X119204876Y-199957293I-587785J809017D01*
G01*
G37*
G04 #@! TD.AperFunction*
D17*
X257810000Y-106600000D03*
X257810000Y-101600000D03*
X308610000Y-106600000D03*
X308610000Y-101600000D03*
X40640000Y-106600000D03*
X40640000Y-101600000D03*
X48260000Y-106600000D03*
X48260000Y-101600000D03*
X34290000Y-106600000D03*
X34290000Y-101600000D03*
X96520000Y-106600000D03*
X96520000Y-101600000D03*
X300990000Y-106600000D03*
X300990000Y-101600000D03*
X245110000Y-106600000D03*
X245110000Y-101600000D03*
X251460000Y-106600000D03*
X251460000Y-101600000D03*
X293370000Y-106600000D03*
X293370000Y-101600000D03*
X54610000Y-106600000D03*
X54610000Y-101600000D03*
D18*
X149158749Y-225377493D03*
X155498468Y-228068545D03*
X161877493Y-225491251D03*
X164568545Y-219151532D03*
X161991251Y-212772507D03*
X155651532Y-210081455D03*
X149272507Y-212658749D03*
X187258749Y-225377493D03*
X193598468Y-228068545D03*
X199977493Y-225491251D03*
X202668545Y-219151532D03*
X200091251Y-212772507D03*
X193751532Y-210081455D03*
X187372507Y-212658749D03*
G04 #@! TA.AperFunction,ComponentPad*
G36*
G01*
X216072910Y-188568277D02*
X215485124Y-189377293D01*
G75*
G02*
X214088322Y-189598525I-809017J587785D01*
G01*
X214088322Y-189598525D01*
G75*
G02*
X213867090Y-188201723I587785J809017D01*
G01*
X214454876Y-187392707D01*
G75*
G02*
X215851678Y-187171475I809017J-587785D01*
G01*
X215851678Y-187171475D01*
G75*
G02*
X216072910Y-188568277I-587785J-809017D01*
G01*
G37*
G04 #@! TD.AperFunction*
G04 #@! TA.AperFunction,ComponentPad*
G36*
G01*
X220254545Y-185911548D02*
X219303489Y-186220565D01*
G75*
G02*
X218043415Y-185578525I-309017J951057D01*
G01*
X218043415Y-185578525D01*
G75*
G02*
X218685455Y-184318451I951057J309017D01*
G01*
X219636511Y-184009435D01*
G75*
G02*
X220896585Y-184651475I309017J-951057D01*
G01*
X220896585Y-184651475D01*
G75*
G02*
X220254545Y-185911549I-951057J-309017D01*
G01*
G37*
G04 #@! TD.AperFunction*
G04 #@! TA.AperFunction,ComponentPad*
G36*
G01*
X225196511Y-186220565D02*
X224245455Y-185911549D01*
G75*
G02*
X223603415Y-184651475I309017J951057D01*
G01*
X223603415Y-184651475D01*
G75*
G02*
X224863489Y-184009435I951057J-309017D01*
G01*
X225814545Y-184318451D01*
G75*
G02*
X226456585Y-185578525I-309017J-951057D01*
G01*
X226456585Y-185578525D01*
G75*
G02*
X225196511Y-186220565I-951057J309017D01*
G01*
G37*
G04 #@! TD.AperFunction*
G04 #@! TA.AperFunction,ComponentPad*
G36*
G01*
X229014876Y-189377294D02*
X228427090Y-188568277D01*
G75*
G02*
X228648322Y-187171475I809017J587785D01*
G01*
X228648322Y-187171475D01*
G75*
G02*
X230045124Y-187392707I587785J-809017D01*
G01*
X230632910Y-188201723D01*
G75*
G02*
X230411678Y-189598525I-809017J-587785D01*
G01*
X230411678Y-189598525D01*
G75*
G02*
X229014876Y-189377293I-587785J809017D01*
G01*
G37*
G04 #@! TD.AperFunction*
D16*
X231250000Y-193675000D03*
G04 #@! TA.AperFunction,ComponentPad*
G36*
G01*
X230632910Y-199148277D02*
X230045124Y-199957293D01*
G75*
G02*
X228648322Y-200178525I-809017J587785D01*
G01*
X228648322Y-200178525D01*
G75*
G02*
X228427090Y-198781723I587785J809017D01*
G01*
X229014876Y-197972707D01*
G75*
G02*
X230411678Y-197751475I809017J-587785D01*
G01*
X230411678Y-197751475D01*
G75*
G02*
X230632910Y-199148277I-587785J-809017D01*
G01*
G37*
G04 #@! TD.AperFunction*
G04 #@! TA.AperFunction,ComponentPad*
G36*
G01*
X225814545Y-203031548D02*
X224863489Y-203340565D01*
G75*
G02*
X223603415Y-202698525I-309017J951057D01*
G01*
X223603415Y-202698525D01*
G75*
G02*
X224245455Y-201438451I951057J309017D01*
G01*
X225196511Y-201129435D01*
G75*
G02*
X226456585Y-201771475I309017J-951057D01*
G01*
X226456585Y-201771475D01*
G75*
G02*
X225814545Y-203031549I-951057J-309017D01*
G01*
G37*
G04 #@! TD.AperFunction*
G04 #@! TA.AperFunction,ComponentPad*
G36*
G01*
X219636511Y-203340565D02*
X218685455Y-203031549D01*
G75*
G02*
X218043415Y-201771475I309017J951057D01*
G01*
X218043415Y-201771475D01*
G75*
G02*
X219303489Y-201129435I951057J-309017D01*
G01*
X220254545Y-201438451D01*
G75*
G02*
X220896585Y-202698525I-309017J-951057D01*
G01*
X220896585Y-202698525D01*
G75*
G02*
X219636511Y-203340565I-951057J309017D01*
G01*
G37*
G04 #@! TD.AperFunction*
G04 #@! TA.AperFunction,ComponentPad*
G36*
G01*
X214454876Y-199957294D02*
X213867090Y-199148277D01*
G75*
G02*
X214088322Y-197751475I809017J587785D01*
G01*
X214088322Y-197751475D01*
G75*
G02*
X215485124Y-197972707I587785J-809017D01*
G01*
X216072910Y-198781723D01*
G75*
G02*
X215851678Y-200178525I-809017J-587785D01*
G01*
X215851678Y-200178525D01*
G75*
G02*
X214454876Y-199957293I-587785J809017D01*
G01*
G37*
G04 #@! TD.AperFunction*
D19*
X258125000Y-127000000D03*
X218125000Y-127000000D03*
D20*
X238125000Y-127000000D03*
G04 #@! TA.AperFunction,ComponentPad*
G36*
G01*
X230077776Y-134121642D02*
X230077776Y-134121642D01*
G75*
G02*
X227595306Y-133093370I-727099J1755371D01*
G01*
X226370720Y-130136956D01*
G75*
G02*
X227398992Y-127654486I1755371J727099D01*
G01*
X227398992Y-127654486D01*
G75*
G02*
X229881462Y-128682758I727099J-1755371D01*
G01*
X231106048Y-131639172D01*
G75*
G02*
X230077776Y-134121642I-1755371J-727099D01*
G01*
G37*
G04 #@! TD.AperFunction*
G04 #@! TA.AperFunction,ComponentPad*
G36*
G01*
X237234664Y-138295402D02*
X237234664Y-138295402D01*
G75*
G02*
X234752194Y-139323674I-1755371J727099D01*
G01*
X231795780Y-138099088D01*
G75*
G02*
X230767508Y-135616618I727099J1755371D01*
G01*
X230767508Y-135616618D01*
G75*
G02*
X233249978Y-134588346I1755371J-727099D01*
G01*
X236206392Y-135812932D01*
G75*
G02*
X237234664Y-138295402I-727099J-1755371D01*
G01*
G37*
G04 #@! TD.AperFunction*
G04 #@! TA.AperFunction,ComponentPad*
G36*
G01*
X238779486Y-137726008D02*
X238779486Y-137726008D01*
G75*
G02*
X239807758Y-135243538I1755371J727099D01*
G01*
X242764172Y-134018952D01*
G75*
G02*
X245246642Y-135047224I727099J-1755371D01*
G01*
X245246642Y-135047224D01*
G75*
G02*
X244218370Y-137529694I-1755371J-727099D01*
G01*
X241261956Y-138754280D01*
G75*
G02*
X238779486Y-137726008I-727099J1755371D01*
G01*
G37*
G04 #@! TD.AperFunction*
G04 #@! TA.AperFunction,ComponentPad*
G36*
G01*
X246741618Y-134357492D02*
X246741618Y-134357492D01*
G75*
G02*
X245713346Y-131875022I727099J1755371D01*
G01*
X246937932Y-128918608D01*
G75*
G02*
X249420402Y-127890336I1755371J-727099D01*
G01*
X249420402Y-127890336D01*
G75*
G02*
X250448674Y-130372806I-727099J-1755371D01*
G01*
X249224088Y-133329220D01*
G75*
G02*
X246741618Y-134357492I-1755371J727099D01*
G01*
G37*
G04 #@! TD.AperFunction*
G04 #@! TA.AperFunction,ComponentPad*
G36*
G01*
X248851008Y-126345514D02*
X248851008Y-126345514D01*
G75*
G02*
X246368538Y-125317242I-727099J1755371D01*
G01*
X245143952Y-122360828D01*
G75*
G02*
X246172224Y-119878358I1755371J727099D01*
G01*
X246172224Y-119878358D01*
G75*
G02*
X248654694Y-120906630I727099J-1755371D01*
G01*
X249879280Y-123863044D01*
G75*
G02*
X248851008Y-126345514I-1755371J-727099D01*
G01*
G37*
G04 #@! TD.AperFunction*
G04 #@! TA.AperFunction,ComponentPad*
G36*
G01*
X239015336Y-115704598D02*
X239015336Y-115704598D01*
G75*
G02*
X241497806Y-114676326I1755371J-727099D01*
G01*
X244454220Y-115900912D01*
G75*
G02*
X245482492Y-118383382I-727099J-1755371D01*
G01*
X245482492Y-118383382D01*
G75*
G02*
X243000022Y-119411654I-1755371J727099D01*
G01*
X240043608Y-118187068D01*
G75*
G02*
X239015336Y-115704598I727099J1755371D01*
G01*
G37*
G04 #@! TD.AperFunction*
G04 #@! TA.AperFunction,ComponentPad*
G36*
G01*
X237470514Y-116273992D02*
X237470514Y-116273992D01*
G75*
G02*
X236442242Y-118756462I-1755371J-727099D01*
G01*
X233485828Y-119981048D01*
G75*
G02*
X231003358Y-118952776I-727099J1755371D01*
G01*
X231003358Y-118952776D01*
G75*
G02*
X232031630Y-116470306I1755371J727099D01*
G01*
X234988044Y-115245720D01*
G75*
G02*
X237470514Y-116273992I727099J-1755371D01*
G01*
G37*
G04 #@! TD.AperFunction*
G04 #@! TA.AperFunction,ComponentPad*
G36*
G01*
X226829598Y-126109664D02*
X226829598Y-126109664D01*
G75*
G02*
X225801326Y-123627194I727099J1755371D01*
G01*
X227025912Y-120670780D01*
G75*
G02*
X229508382Y-119642508I1755371J-727099D01*
G01*
X229508382Y-119642508D01*
G75*
G02*
X230536654Y-122124978I-727099J-1755371D01*
G01*
X229312068Y-125081392D01*
G75*
G02*
X226829598Y-126109664I-1755371J727099D01*
G01*
G37*
G04 #@! TD.AperFunction*
D19*
X321625000Y-190500000D03*
X281625000Y-190500000D03*
D20*
X301625000Y-190500000D03*
G04 #@! TA.AperFunction,ComponentPad*
G36*
G01*
X293577776Y-197621642D02*
X293577776Y-197621642D01*
G75*
G02*
X291095306Y-196593370I-727099J1755371D01*
G01*
X289870720Y-193636956D01*
G75*
G02*
X290898992Y-191154486I1755371J727099D01*
G01*
X290898992Y-191154486D01*
G75*
G02*
X293381462Y-192182758I727099J-1755371D01*
G01*
X294606048Y-195139172D01*
G75*
G02*
X293577776Y-197621642I-1755371J-727099D01*
G01*
G37*
G04 #@! TD.AperFunction*
G04 #@! TA.AperFunction,ComponentPad*
G36*
G01*
X300734664Y-201795402D02*
X300734664Y-201795402D01*
G75*
G02*
X298252194Y-202823674I-1755371J727099D01*
G01*
X295295780Y-201599088D01*
G75*
G02*
X294267508Y-199116618I727099J1755371D01*
G01*
X294267508Y-199116618D01*
G75*
G02*
X296749978Y-198088346I1755371J-727099D01*
G01*
X299706392Y-199312932D01*
G75*
G02*
X300734664Y-201795402I-727099J-1755371D01*
G01*
G37*
G04 #@! TD.AperFunction*
G04 #@! TA.AperFunction,ComponentPad*
G36*
G01*
X302279486Y-201226008D02*
X302279486Y-201226008D01*
G75*
G02*
X303307758Y-198743538I1755371J727099D01*
G01*
X306264172Y-197518952D01*
G75*
G02*
X308746642Y-198547224I727099J-1755371D01*
G01*
X308746642Y-198547224D01*
G75*
G02*
X307718370Y-201029694I-1755371J-727099D01*
G01*
X304761956Y-202254280D01*
G75*
G02*
X302279486Y-201226008I-727099J1755371D01*
G01*
G37*
G04 #@! TD.AperFunction*
G04 #@! TA.AperFunction,ComponentPad*
G36*
G01*
X310241618Y-197857492D02*
X310241618Y-197857492D01*
G75*
G02*
X309213346Y-195375022I727099J1755371D01*
G01*
X310437932Y-192418608D01*
G75*
G02*
X312920402Y-191390336I1755371J-727099D01*
G01*
X312920402Y-191390336D01*
G75*
G02*
X313948674Y-193872806I-727099J-1755371D01*
G01*
X312724088Y-196829220D01*
G75*
G02*
X310241618Y-197857492I-1755371J727099D01*
G01*
G37*
G04 #@! TD.AperFunction*
G04 #@! TA.AperFunction,ComponentPad*
G36*
G01*
X312351008Y-189845514D02*
X312351008Y-189845514D01*
G75*
G02*
X309868538Y-188817242I-727099J1755371D01*
G01*
X308643952Y-185860828D01*
G75*
G02*
X309672224Y-183378358I1755371J727099D01*
G01*
X309672224Y-183378358D01*
G75*
G02*
X312154694Y-184406630I727099J-1755371D01*
G01*
X313379280Y-187363044D01*
G75*
G02*
X312351008Y-189845514I-1755371J-727099D01*
G01*
G37*
G04 #@! TD.AperFunction*
G04 #@! TA.AperFunction,ComponentPad*
G36*
G01*
X302515336Y-179204598D02*
X302515336Y-179204598D01*
G75*
G02*
X304997806Y-178176326I1755371J-727099D01*
G01*
X307954220Y-179400912D01*
G75*
G02*
X308982492Y-181883382I-727099J-1755371D01*
G01*
X308982492Y-181883382D01*
G75*
G02*
X306500022Y-182911654I-1755371J727099D01*
G01*
X303543608Y-181687068D01*
G75*
G02*
X302515336Y-179204598I727099J1755371D01*
G01*
G37*
G04 #@! TD.AperFunction*
G04 #@! TA.AperFunction,ComponentPad*
G36*
G01*
X300970514Y-179773992D02*
X300970514Y-179773992D01*
G75*
G02*
X299942242Y-182256462I-1755371J-727099D01*
G01*
X296985828Y-183481048D01*
G75*
G02*
X294503358Y-182452776I-727099J1755371D01*
G01*
X294503358Y-182452776D01*
G75*
G02*
X295531630Y-179970306I1755371J727099D01*
G01*
X298488044Y-178745720D01*
G75*
G02*
X300970514Y-179773992I727099J-1755371D01*
G01*
G37*
G04 #@! TD.AperFunction*
G04 #@! TA.AperFunction,ComponentPad*
G36*
G01*
X290329598Y-189609664D02*
X290329598Y-189609664D01*
G75*
G02*
X289301326Y-187127194I727099J1755371D01*
G01*
X290525912Y-184170780D01*
G75*
G02*
X293008382Y-183142508I1755371J-727099D01*
G01*
X293008382Y-183142508D01*
G75*
G02*
X294036654Y-185624978I-727099J-1755371D01*
G01*
X292812068Y-188581392D01*
G75*
G02*
X290329598Y-189609664I-1755371J727099D01*
G01*
G37*
G04 #@! TD.AperFunction*
D19*
X131125000Y-127000000D03*
X91125000Y-127000000D03*
D20*
X111125000Y-127000000D03*
G04 #@! TA.AperFunction,ComponentPad*
G36*
G01*
X103077776Y-134121642D02*
X103077776Y-134121642D01*
G75*
G02*
X100595306Y-133093370I-727099J1755371D01*
G01*
X99370720Y-130136956D01*
G75*
G02*
X100398992Y-127654486I1755371J727099D01*
G01*
X100398992Y-127654486D01*
G75*
G02*
X102881462Y-128682758I727099J-1755371D01*
G01*
X104106048Y-131639172D01*
G75*
G02*
X103077776Y-134121642I-1755371J-727099D01*
G01*
G37*
G04 #@! TD.AperFunction*
G04 #@! TA.AperFunction,ComponentPad*
G36*
G01*
X110234664Y-138295402D02*
X110234664Y-138295402D01*
G75*
G02*
X107752194Y-139323674I-1755371J727099D01*
G01*
X104795780Y-138099088D01*
G75*
G02*
X103767508Y-135616618I727099J1755371D01*
G01*
X103767508Y-135616618D01*
G75*
G02*
X106249978Y-134588346I1755371J-727099D01*
G01*
X109206392Y-135812932D01*
G75*
G02*
X110234664Y-138295402I-727099J-1755371D01*
G01*
G37*
G04 #@! TD.AperFunction*
G04 #@! TA.AperFunction,ComponentPad*
G36*
G01*
X111779486Y-137726008D02*
X111779486Y-137726008D01*
G75*
G02*
X112807758Y-135243538I1755371J727099D01*
G01*
X115764172Y-134018952D01*
G75*
G02*
X118246642Y-135047224I727099J-1755371D01*
G01*
X118246642Y-135047224D01*
G75*
G02*
X117218370Y-137529694I-1755371J-727099D01*
G01*
X114261956Y-138754280D01*
G75*
G02*
X111779486Y-137726008I-727099J1755371D01*
G01*
G37*
G04 #@! TD.AperFunction*
G04 #@! TA.AperFunction,ComponentPad*
G36*
G01*
X119741618Y-134357492D02*
X119741618Y-134357492D01*
G75*
G02*
X118713346Y-131875022I727099J1755371D01*
G01*
X119937932Y-128918608D01*
G75*
G02*
X122420402Y-127890336I1755371J-727099D01*
G01*
X122420402Y-127890336D01*
G75*
G02*
X123448674Y-130372806I-727099J-1755371D01*
G01*
X122224088Y-133329220D01*
G75*
G02*
X119741618Y-134357492I-1755371J727099D01*
G01*
G37*
G04 #@! TD.AperFunction*
G04 #@! TA.AperFunction,ComponentPad*
G36*
G01*
X121851008Y-126345514D02*
X121851008Y-126345514D01*
G75*
G02*
X119368538Y-125317242I-727099J1755371D01*
G01*
X118143952Y-122360828D01*
G75*
G02*
X119172224Y-119878358I1755371J727099D01*
G01*
X119172224Y-119878358D01*
G75*
G02*
X121654694Y-120906630I727099J-1755371D01*
G01*
X122879280Y-123863044D01*
G75*
G02*
X121851008Y-126345514I-1755371J-727099D01*
G01*
G37*
G04 #@! TD.AperFunction*
G04 #@! TA.AperFunction,ComponentPad*
G36*
G01*
X112015336Y-115704598D02*
X112015336Y-115704598D01*
G75*
G02*
X114497806Y-114676326I1755371J-727099D01*
G01*
X117454220Y-115900912D01*
G75*
G02*
X118482492Y-118383382I-727099J-1755371D01*
G01*
X118482492Y-118383382D01*
G75*
G02*
X116000022Y-119411654I-1755371J727099D01*
G01*
X113043608Y-118187068D01*
G75*
G02*
X112015336Y-115704598I727099J1755371D01*
G01*
G37*
G04 #@! TD.AperFunction*
G04 #@! TA.AperFunction,ComponentPad*
G36*
G01*
X110470514Y-116273992D02*
X110470514Y-116273992D01*
G75*
G02*
X109442242Y-118756462I-1755371J-727099D01*
G01*
X106485828Y-119981048D01*
G75*
G02*
X104003358Y-118952776I-727099J1755371D01*
G01*
X104003358Y-118952776D01*
G75*
G02*
X105031630Y-116470306I1755371J727099D01*
G01*
X107988044Y-115245720D01*
G75*
G02*
X110470514Y-116273992I727099J-1755371D01*
G01*
G37*
G04 #@! TD.AperFunction*
G04 #@! TA.AperFunction,ComponentPad*
G36*
G01*
X99829598Y-126109664D02*
X99829598Y-126109664D01*
G75*
G02*
X98801326Y-123627194I727099J1755371D01*
G01*
X100025912Y-120670780D01*
G75*
G02*
X102508382Y-119642508I1755371J-727099D01*
G01*
X102508382Y-119642508D01*
G75*
G02*
X103536654Y-122124978I-727099J-1755371D01*
G01*
X102312068Y-125081392D01*
G75*
G02*
X99829598Y-126109664I-1755371J727099D01*
G01*
G37*
G04 #@! TD.AperFunction*
D19*
X67625000Y-190500000D03*
X27625000Y-190500000D03*
D20*
X47625000Y-190500000D03*
G04 #@! TA.AperFunction,ComponentPad*
G36*
G01*
X39577776Y-197621642D02*
X39577776Y-197621642D01*
G75*
G02*
X37095306Y-196593370I-727099J1755371D01*
G01*
X35870720Y-193636956D01*
G75*
G02*
X36898992Y-191154486I1755371J727099D01*
G01*
X36898992Y-191154486D01*
G75*
G02*
X39381462Y-192182758I727099J-1755371D01*
G01*
X40606048Y-195139172D01*
G75*
G02*
X39577776Y-197621642I-1755371J-727099D01*
G01*
G37*
G04 #@! TD.AperFunction*
G04 #@! TA.AperFunction,ComponentPad*
G36*
G01*
X46734664Y-201795402D02*
X46734664Y-201795402D01*
G75*
G02*
X44252194Y-202823674I-1755371J727099D01*
G01*
X41295780Y-201599088D01*
G75*
G02*
X40267508Y-199116618I727099J1755371D01*
G01*
X40267508Y-199116618D01*
G75*
G02*
X42749978Y-198088346I1755371J-727099D01*
G01*
X45706392Y-199312932D01*
G75*
G02*
X46734664Y-201795402I-727099J-1755371D01*
G01*
G37*
G04 #@! TD.AperFunction*
G04 #@! TA.AperFunction,ComponentPad*
G36*
G01*
X48279486Y-201226008D02*
X48279486Y-201226008D01*
G75*
G02*
X49307758Y-198743538I1755371J727099D01*
G01*
X52264172Y-197518952D01*
G75*
G02*
X54746642Y-198547224I727099J-1755371D01*
G01*
X54746642Y-198547224D01*
G75*
G02*
X53718370Y-201029694I-1755371J-727099D01*
G01*
X50761956Y-202254280D01*
G75*
G02*
X48279486Y-201226008I-727099J1755371D01*
G01*
G37*
G04 #@! TD.AperFunction*
G04 #@! TA.AperFunction,ComponentPad*
G36*
G01*
X56241618Y-197857492D02*
X56241618Y-197857492D01*
G75*
G02*
X55213346Y-195375022I727099J1755371D01*
G01*
X56437932Y-192418608D01*
G75*
G02*
X58920402Y-191390336I1755371J-727099D01*
G01*
X58920402Y-191390336D01*
G75*
G02*
X59948674Y-193872806I-727099J-1755371D01*
G01*
X58724088Y-196829220D01*
G75*
G02*
X56241618Y-197857492I-1755371J727099D01*
G01*
G37*
G04 #@! TD.AperFunction*
G04 #@! TA.AperFunction,ComponentPad*
G36*
G01*
X58351008Y-189845514D02*
X58351008Y-189845514D01*
G75*
G02*
X55868538Y-188817242I-727099J1755371D01*
G01*
X54643952Y-185860828D01*
G75*
G02*
X55672224Y-183378358I1755371J727099D01*
G01*
X55672224Y-183378358D01*
G75*
G02*
X58154694Y-184406630I727099J-1755371D01*
G01*
X59379280Y-187363044D01*
G75*
G02*
X58351008Y-189845514I-1755371J-727099D01*
G01*
G37*
G04 #@! TD.AperFunction*
G04 #@! TA.AperFunction,ComponentPad*
G36*
G01*
X48515336Y-179204598D02*
X48515336Y-179204598D01*
G75*
G02*
X50997806Y-178176326I1755371J-727099D01*
G01*
X53954220Y-179400912D01*
G75*
G02*
X54982492Y-181883382I-727099J-1755371D01*
G01*
X54982492Y-181883382D01*
G75*
G02*
X52500022Y-182911654I-1755371J727099D01*
G01*
X49543608Y-181687068D01*
G75*
G02*
X48515336Y-179204598I727099J1755371D01*
G01*
G37*
G04 #@! TD.AperFunction*
G04 #@! TA.AperFunction,ComponentPad*
G36*
G01*
X46970514Y-179773992D02*
X46970514Y-179773992D01*
G75*
G02*
X45942242Y-182256462I-1755371J-727099D01*
G01*
X42985828Y-183481048D01*
G75*
G02*
X40503358Y-182452776I-727099J1755371D01*
G01*
X40503358Y-182452776D01*
G75*
G02*
X41531630Y-179970306I1755371J727099D01*
G01*
X44488044Y-178745720D01*
G75*
G02*
X46970514Y-179773992I727099J-1755371D01*
G01*
G37*
G04 #@! TD.AperFunction*
G04 #@! TA.AperFunction,ComponentPad*
G36*
G01*
X36329598Y-189609664D02*
X36329598Y-189609664D01*
G75*
G02*
X35301326Y-187127194I727099J1755371D01*
G01*
X36525912Y-184170780D01*
G75*
G02*
X39008382Y-183142508I1755371J-727099D01*
G01*
X39008382Y-183142508D01*
G75*
G02*
X40036654Y-185624978I-727099J-1755371D01*
G01*
X38812068Y-188581392D01*
G75*
G02*
X36329598Y-189609664I-1755371J727099D01*
G01*
G37*
G04 #@! TD.AperFunction*
D15*
X91719400Y-152400000D03*
D14*
X45999400Y-152400000D03*
X264261000Y-152400000D03*
D15*
X309981000Y-152400000D03*
D14*
X46126400Y-165100000D03*
D15*
X91846400Y-165100000D03*
X309575000Y-165100000D03*
D14*
X263855000Y-165100000D03*
D21*
X156210000Y-129380000D03*
D22*
X156210000Y-119380000D03*
X193040000Y-119380000D03*
D21*
X193040000Y-129380000D03*
D23*
X71120000Y-124460000D03*
D14*
X78620000Y-124460000D03*
D24*
X49530000Y-129540000D03*
D25*
X42030000Y-129540000D03*
D22*
X153035000Y-165062000D03*
D21*
X153035000Y-155062000D03*
X195491000Y-154884000D03*
D22*
X195491000Y-164884000D03*
D14*
X116916000Y-155105000D03*
X116916000Y-177605000D03*
X230759000Y-154902000D03*
X230759000Y-177402000D03*
D26*
X34721800Y-152400000D03*
D27*
X30921800Y-152400000D03*
X322621000Y-152400000D03*
D26*
X318821000Y-152400000D03*
D27*
X30566200Y-165100000D03*
D26*
X34366200Y-165100000D03*
X318821000Y-165100000D03*
D27*
X322621000Y-165100000D03*
D14*
X149606000Y-200203000D03*
X164606000Y-200203000D03*
X179437000Y-200101000D03*
X194437000Y-200101000D03*
X98700000Y-207010000D03*
X76200000Y-207010000D03*
X281707000Y-219837000D03*
X259207000Y-219837000D03*
D23*
X115913000Y-219342000D03*
D14*
X115913000Y-211842000D03*
X236792000Y-212223000D03*
D23*
X236792000Y-219723000D03*
D27*
X99326700Y-223495000D03*
D28*
X79326700Y-223495000D03*
X53340000Y-137160000D03*
D27*
X68580000Y-137160000D03*
X53340000Y-140970000D03*
D28*
X68580000Y-140970000D03*
D14*
X126556000Y-144843000D03*
D15*
X126556000Y-165163000D03*
D27*
X105283000Y-151841000D03*
D28*
X105283000Y-167081000D03*
X101549000Y-151828000D03*
D27*
X101549000Y-167068000D03*
D28*
X242519000Y-169189000D03*
D27*
X242519000Y-153949000D03*
D28*
X248920000Y-153962000D03*
D27*
X248920000Y-169202000D03*
D15*
X293916000Y-137401000D03*
D14*
X273596000Y-137401000D03*
D15*
X126365000Y-177508000D03*
D14*
X146685000Y-177508000D03*
D15*
X220599000Y-177508000D03*
D14*
X200279000Y-177508000D03*
D15*
X146723000Y-190170000D03*
D14*
X167043000Y-190170000D03*
D15*
X199784000Y-190170000D03*
D14*
X179464000Y-190170000D03*
D28*
X109957000Y-201778000D03*
D27*
X109957000Y-186538000D03*
X204737000Y-185014000D03*
D28*
X204737000Y-200254000D03*
D27*
X259461000Y-200114000D03*
D28*
X274701000Y-200114000D03*
X259474000Y-203873000D03*
D27*
X274714000Y-203873000D03*
X142075000Y-208166000D03*
D28*
X126835000Y-208166000D03*
D27*
X166522000Y-207912000D03*
D28*
X181762000Y-207912000D03*
D27*
X32562800Y-214833000D03*
D28*
X32562800Y-230073000D03*
X36322000Y-230060000D03*
D27*
X36322000Y-214820000D03*
D15*
X82550000Y-175260000D03*
D14*
X102870000Y-175260000D03*
X325120000Y-142240000D03*
D15*
X304800000Y-142240000D03*
D27*
X141833000Y-218567000D03*
D28*
X126593000Y-218567000D03*
X166510000Y-211696000D03*
D27*
X181750000Y-211696000D03*
D28*
X141567000Y-222263000D03*
D27*
X141567000Y-237503000D03*
X181254000Y-233274000D03*
D28*
X181254000Y-218034000D03*
X84213700Y-217170000D03*
D27*
X99453700Y-217170000D03*
X229298000Y-229591000D03*
D28*
X244538000Y-229591000D03*
D27*
X136233000Y-228105000D03*
D28*
X120993000Y-228105000D03*
X207747000Y-229578000D03*
D27*
X222987000Y-229578000D03*
D14*
X136817000Y-144831000D03*
D15*
X136817000Y-165151000D03*
X131585000Y-165151000D03*
D14*
X131585000Y-144831000D03*
X261493000Y-173444000D03*
D15*
X261493000Y-193764000D03*
D14*
X256438000Y-173444000D03*
D15*
X256438000Y-193764000D03*
D14*
X271590000Y-193764000D03*
D15*
X271590000Y-173444000D03*
D14*
X266535000Y-193764000D03*
D15*
X266535000Y-173444000D03*
D14*
X160718000Y-178473000D03*
D15*
X181038000Y-178473000D03*
X181038000Y-183528000D03*
D14*
X160718000Y-183528000D03*
X146228000Y-101600000D03*
D15*
X166548000Y-101600000D03*
X203124000Y-101600000D03*
D14*
X182804000Y-101600000D03*
D27*
X224511000Y-236309000D03*
D28*
X244511000Y-236309000D03*
G04 #@! TA.AperFunction,ComponentPad*
G36*
G01*
X104880000Y-228290000D02*
X108480000Y-228290000D01*
G75*
G02*
X108730000Y-228540000I0J-250000D01*
G01*
X108730000Y-231200000D01*
G75*
G02*
X108480000Y-231450000I-250000J0D01*
G01*
X104880000Y-231450000D01*
G75*
G02*
X104630000Y-231200000I0J250000D01*
G01*
X104630000Y-228540000D01*
G75*
G02*
X104880000Y-228290000I250000J0D01*
G01*
G37*
G04 #@! TD.AperFunction*
D29*
X106680000Y-233830000D03*
X257810000Y-233830000D03*
G04 #@! TA.AperFunction,ComponentPad*
G36*
G01*
X256010000Y-228290000D02*
X259610000Y-228290000D01*
G75*
G02*
X259860000Y-228540000I0J-250000D01*
G01*
X259860000Y-231200000D01*
G75*
G02*
X259610000Y-231450000I-250000J0D01*
G01*
X256010000Y-231450000D01*
G75*
G02*
X255760000Y-231200000I0J250000D01*
G01*
X255760000Y-228540000D01*
G75*
G02*
X256010000Y-228290000I250000J0D01*
G01*
G37*
G04 #@! TD.AperFunction*
G04 #@! TA.AperFunction,ComponentPad*
G36*
G01*
X169220000Y-233150000D02*
X169220000Y-236750000D01*
G75*
G02*
X168970000Y-237000000I-250000J0D01*
G01*
X166310000Y-237000000D01*
G75*
G02*
X166060000Y-236750000I0J250000D01*
G01*
X166060000Y-233150000D01*
G75*
G02*
X166310000Y-232900000I250000J0D01*
G01*
X168970000Y-232900000D01*
G75*
G02*
X169220000Y-233150000I0J-250000D01*
G01*
G37*
G04 #@! TD.AperFunction*
D30*
X163680000Y-234950000D03*
X159720000Y-234950000D03*
D14*
X186690000Y-146050000D03*
D15*
X161290000Y-146050000D03*
D24*
X270815000Y-118059000D03*
D25*
X278315000Y-118059000D03*
X285815000Y-118059000D03*
X295815000Y-118059000D03*
D31*
X49530000Y-119380000D03*
X54610000Y-114300000D03*
X49530000Y-114300000D03*
D24*
X54610000Y-119380000D03*
D32*
X82550000Y-113030000D03*
X77470000Y-113030000D03*
D33*
X72390000Y-113030000D03*
D34*
X67310000Y-113030000D03*
D17*
X77470000Y-101600000D03*
X77470000Y-106600000D03*
X72390000Y-106600000D03*
X72390000Y-101600000D03*
D13*
X83566000Y-104140000D03*
X86360000Y-104140000D03*
X66548000Y-104140000D03*
X63754000Y-104140000D03*
D35*
X30921800Y-165100000D02*
X32611200Y-166789400D01*
X32611200Y-166789400D02*
X44437000Y-166789400D01*
X44437000Y-166789400D02*
X46126400Y-165100000D01*
X30566200Y-165100000D02*
X30921800Y-165100000D01*
X30921800Y-165100000D02*
X30921800Y-152400000D01*
X130869400Y-206201600D02*
X158607400Y-206201600D01*
X158607400Y-206201600D02*
X164606000Y-200203000D01*
X128905000Y-208166000D02*
X130869400Y-206201600D01*
X126835000Y-208166000D02*
X128905000Y-208166000D01*
X115913000Y-211842000D02*
X119589000Y-208166000D01*
X119589000Y-208166000D02*
X126835000Y-208166000D01*
X181762000Y-207912000D02*
X181762000Y-202426000D01*
X181762000Y-202426000D02*
X179437000Y-200101000D01*
X236792000Y-212223000D02*
X232481000Y-207912000D01*
X232481000Y-207912000D02*
X181762000Y-207912000D01*
X91719400Y-152400000D02*
X94189400Y-152400000D01*
X94189400Y-152400000D02*
X99240100Y-157450700D01*
X99240100Y-157450700D02*
X150646300Y-157450700D01*
X150646300Y-157450700D02*
X153035000Y-155062000D01*
X174295000Y-159144000D02*
X157117000Y-159144000D01*
X157117000Y-159144000D02*
X153035000Y-155062000D01*
D36*
X200515000Y-149860000D02*
X195491000Y-154884000D01*
X264261000Y-152400000D02*
X261721000Y-149860000D01*
X261721000Y-149860000D02*
X200515000Y-149860000D01*
D35*
X162047010Y-239902990D02*
X163680000Y-238270000D01*
X137032990Y-239902990D02*
X162047010Y-239902990D01*
X129540000Y-232410000D02*
X137032990Y-239902990D01*
X163680000Y-238270000D02*
X163680000Y-234950000D01*
X111760000Y-229870000D02*
X113777872Y-231887872D01*
X106680000Y-229870000D02*
X111760000Y-229870000D01*
X113777872Y-231887872D02*
X113777872Y-232303704D01*
X113884168Y-232410000D02*
X129540000Y-232410000D01*
X113777872Y-232303704D02*
X113884168Y-232410000D01*
D36*
X96520000Y-101600000D02*
X96520000Y-106600000D01*
X100330000Y-97790000D02*
X96520000Y-101600000D01*
X128327000Y-97790000D02*
X100330000Y-97790000D01*
X132137000Y-101600000D02*
X128327000Y-97790000D01*
X146228000Y-101600000D02*
X134607000Y-101600000D01*
X134607000Y-101600000D02*
X132137000Y-101600000D01*
D35*
X238978100Y-161927100D02*
X196089100Y-161927100D01*
X196089100Y-161927100D02*
X182375600Y-148213600D01*
X182375600Y-148213600D02*
X105163400Y-148213600D01*
X105163400Y-148213600D02*
X101549000Y-151828000D01*
X101549000Y-151828000D02*
X99479000Y-151828000D01*
X53340000Y-140970000D02*
X59411000Y-147041000D01*
X59411000Y-147041000D02*
X94692000Y-147041000D01*
X94692000Y-147041000D02*
X99479000Y-151828000D01*
X246253000Y-169202000D02*
X238978100Y-161927100D01*
X248920000Y-169202000D02*
X246253000Y-169202000D01*
X273596000Y-137401000D02*
X278435000Y-142240000D01*
X278435000Y-142240000D02*
X304800000Y-142240000D01*
X166548000Y-101600000D02*
X166548000Y-119042000D01*
X166548000Y-119042000D02*
X156210000Y-129380000D01*
X193040000Y-119380000D02*
X196310000Y-119380000D01*
X196310000Y-119380000D02*
X202204200Y-113485800D01*
X202204200Y-113485800D02*
X238224200Y-113485800D01*
X238224200Y-113485800D02*
X245110000Y-106600000D01*
X131585000Y-144831000D02*
X125847600Y-139093600D01*
X125847600Y-139093600D02*
X125847600Y-122530600D01*
X125847600Y-122530600D02*
X104917000Y-101600000D01*
X104917000Y-101600000D02*
X104127000Y-101600000D01*
X131585000Y-144831000D02*
X136817000Y-144831000D01*
X153035000Y-165062000D02*
X156305000Y-165062000D01*
X181038000Y-178473000D02*
X169716000Y-178473000D01*
X169716000Y-178473000D02*
X156305000Y-165062000D01*
X181038000Y-183528000D02*
X183508000Y-183528000D01*
X256438000Y-193764000D02*
X253968000Y-193764000D01*
X253968000Y-193764000D02*
X242929800Y-182725800D01*
X242929800Y-182725800D02*
X184310200Y-182725800D01*
X184310200Y-182725800D02*
X183508000Y-183528000D01*
X261493000Y-193764000D02*
X256438000Y-193764000D01*
X271590000Y-193764000D02*
X266535000Y-193764000D01*
X266535000Y-193764000D02*
X261493000Y-193764000D01*
X200279000Y-177508000D02*
X196950200Y-180836800D01*
X196950200Y-180836800D02*
X150013800Y-180836800D01*
X150013800Y-180836800D02*
X146685000Y-177508000D01*
D37*
X251460000Y-101600000D02*
X251460000Y-106600000D01*
X273286000Y-113030000D02*
X278315000Y-118059000D01*
X257810000Y-113030000D02*
X273286000Y-113030000D01*
D35*
X251460000Y-106600000D02*
X251460000Y-106680000D01*
D37*
X251460000Y-106680000D02*
X257810000Y-113030000D01*
X257810000Y-101600000D02*
X257810000Y-106600000D01*
X274356000Y-106600000D02*
X285815000Y-118059000D01*
X257810000Y-106600000D02*
X274356000Y-106600000D01*
D38*
X105283000Y-167081000D02*
X101562000Y-167081000D01*
X101562000Y-167081000D02*
X101549000Y-167068000D01*
D39*
X256438000Y-173444000D02*
X252480000Y-177402000D01*
X252480000Y-177402000D02*
X230759000Y-177402000D01*
X256438000Y-173444000D02*
X261493000Y-173444000D01*
D35*
X45999400Y-152400000D02*
X45999400Y-145920600D01*
X45999400Y-145920600D02*
X52855000Y-139065000D01*
X52855000Y-139065000D02*
X93561500Y-139065000D01*
X93561500Y-139065000D02*
X97695000Y-134931500D01*
X97695000Y-134931500D02*
X100063400Y-134931500D01*
X100063400Y-134931500D02*
X100063500Y-134931600D01*
X101738400Y-130888100D02*
X100063500Y-134931600D01*
X34721800Y-152400000D02*
X45999400Y-152400000D01*
X318821000Y-152400000D02*
X309981000Y-152400000D01*
X237085700Y-144953800D02*
X227330000Y-138430000D01*
X227330000Y-138430000D02*
X228738400Y-130888100D01*
X300064800Y-144953800D02*
X237085700Y-144953800D01*
X309981000Y-152400000D02*
X307511000Y-152400000D01*
X307511000Y-152400000D02*
X300064800Y-144953800D01*
X34366200Y-165100000D02*
X36436200Y-165100000D01*
X91846400Y-165100000D02*
X89376400Y-165100000D01*
X89376400Y-165100000D02*
X86331400Y-162055000D01*
X86331400Y-162055000D02*
X39481200Y-162055000D01*
X39481200Y-162055000D02*
X36436200Y-165100000D01*
D39*
X147574000Y-202235000D02*
X129780000Y-202235000D01*
X149606000Y-200203000D02*
X147574000Y-202235000D01*
D40*
X109957000Y-201778000D02*
X115570000Y-196165000D01*
X115570000Y-196165000D02*
X125045000Y-196165000D01*
D38*
X129780000Y-200900000D02*
X129780000Y-202235000D01*
D40*
X125045000Y-196165000D02*
X129780000Y-200900000D01*
D39*
X204737000Y-200254000D02*
X194590000Y-200254000D01*
D38*
X194590000Y-200254000D02*
X194437000Y-200101000D01*
D39*
X204737000Y-203467000D02*
X204737000Y-200254000D01*
X225030000Y-202235000D02*
X221525000Y-205740000D01*
X207010000Y-205740000D02*
X204737000Y-203467000D01*
X221525000Y-205740000D02*
X207010000Y-205740000D01*
D40*
X112670000Y-193040000D02*
X98700000Y-207010000D01*
X134280000Y-198965000D02*
X128355000Y-193040000D01*
X128355000Y-193040000D02*
X112670000Y-193040000D01*
D38*
X36309000Y-230073000D02*
X36322000Y-230060000D01*
D39*
X266535000Y-173444000D02*
X271590000Y-173444000D01*
D35*
X219672000Y-219723000D02*
X236792000Y-219723000D01*
X219659000Y-219710000D02*
X219672000Y-219723000D01*
X207747000Y-229578000D02*
X207747000Y-229133000D01*
X217170000Y-219710000D02*
X219659000Y-219710000D01*
X207747000Y-229133000D02*
X217170000Y-219710000D01*
X136233000Y-228105000D02*
X146431200Y-228105000D01*
X146431200Y-228105000D02*
X149158700Y-225377500D01*
X131623000Y-223495000D02*
X136233000Y-228105000D01*
X99326700Y-223495000D02*
X131623000Y-223495000D01*
X222987000Y-229578000D02*
X221289000Y-231276000D01*
X221289000Y-231276000D02*
X224511000Y-234498000D01*
X224511000Y-234498000D02*
X224511000Y-236309000D01*
X229298000Y-229591000D02*
X223000000Y-229591000D01*
X223000000Y-229591000D02*
X222987000Y-229578000D01*
X187258700Y-227898700D02*
X187258700Y-225377500D01*
X191770000Y-232410000D02*
X187258700Y-227898700D01*
X221289000Y-231276000D02*
X220155000Y-232410000D01*
X220155000Y-232410000D02*
X191770000Y-232410000D01*
D39*
X111380000Y-185115000D02*
X109957000Y-186538000D01*
X124220000Y-185115000D02*
X111380000Y-185115000D01*
D38*
X204838000Y-185115000D02*
X204737000Y-185014000D01*
D39*
X219470000Y-185115000D02*
X204838000Y-185115000D01*
D35*
X141668000Y-185115000D02*
X146723000Y-190170000D01*
X129780000Y-185115000D02*
X141668000Y-185115000D01*
D38*
X311581000Y-195580250D02*
X311581000Y-194623900D01*
D40*
X313690000Y-197689250D02*
X311581000Y-195580250D01*
X274714000Y-203873000D02*
X274714000Y-209944000D01*
X306070000Y-213360000D02*
X313690000Y-205740000D01*
X274714000Y-209944000D02*
X278130000Y-213360000D01*
X278130000Y-213360000D02*
X306070000Y-213360000D01*
X313690000Y-205740000D02*
X313690000Y-197689250D01*
D39*
X152400000Y-228508750D02*
X152400000Y-222250000D01*
X142075000Y-211925000D02*
X142075000Y-208166000D01*
X152400000Y-222250000D02*
X142075000Y-211925000D01*
D38*
X159720000Y-234950000D02*
X158750000Y-234950000D01*
D39*
X158750000Y-234950000D02*
X152308750Y-228508750D01*
X181750000Y-211696000D02*
X186409800Y-211696000D01*
D38*
X186409800Y-211696000D02*
X187372500Y-212658700D01*
D35*
X36540000Y-110700000D02*
X40640000Y-106600000D01*
X29000000Y-110700000D02*
X36540000Y-110700000D01*
X51748900Y-180544000D02*
X41147000Y-169942100D01*
X27702100Y-169942100D02*
X25400000Y-167640000D01*
X25400000Y-167640000D02*
X25400000Y-114300000D01*
X41147000Y-169942100D02*
X27702100Y-169942100D01*
X25400000Y-114300000D02*
X29000000Y-110700000D01*
X293370000Y-106600000D02*
X293370000Y-101600000D01*
X303530000Y-116760000D02*
X293370000Y-106600000D01*
X261823990Y-117043990D02*
X271780000Y-127000000D01*
X271780000Y-127000000D02*
X298450000Y-127000000D01*
X242248914Y-117043990D02*
X261823990Y-117043990D01*
X298450000Y-127000000D02*
X303530000Y-121920000D01*
X303530000Y-121920000D02*
X303530000Y-116760000D01*
X308610000Y-101600000D02*
X308610000Y-106600000D01*
X328802990Y-126792990D02*
X308610000Y-106600000D01*
X309792400Y-178869100D02*
X309792300Y-178869000D01*
X321511000Y-178869000D02*
X328802990Y-171577010D01*
X309792300Y-178869000D02*
X321511000Y-178869000D01*
X305748900Y-180544000D02*
X309792400Y-178869100D01*
X328802990Y-171577010D02*
X328802990Y-126792990D01*
X136000000Y-193675000D02*
X136000000Y-192982500D01*
X139675000Y-193650000D02*
X141707000Y-193650000D01*
D36*
X134280000Y-191955000D02*
X136000000Y-193675000D01*
X134280000Y-188385000D02*
X134280000Y-191955000D01*
D35*
X139650000Y-193675000D02*
X139675000Y-193650000D01*
D36*
X136000000Y-193675000D02*
X139650000Y-193675000D01*
D35*
X237592000Y-193675000D02*
X237617000Y-193650000D01*
D36*
X168846000Y-220167000D02*
X166526000Y-220167000D01*
D35*
X164568500Y-219151500D02*
X165510500Y-219151500D01*
D36*
X165510500Y-219151500D02*
X166526000Y-220167000D01*
D35*
X168846000Y-220167000D02*
X170878000Y-220167000D01*
D36*
X168846000Y-215900000D02*
X170878000Y-215900000D01*
X161991300Y-212772500D02*
X165118800Y-215900000D01*
X165118800Y-215900000D02*
X168846000Y-215900000D01*
D35*
X206540000Y-219100000D02*
X208572000Y-219100000D01*
X208520468Y-219151532D02*
X208572000Y-219100000D01*
D36*
X202668545Y-219151532D02*
X208520468Y-219151532D01*
X206362000Y-214211000D02*
X204042000Y-214211000D01*
X200091300Y-212772500D02*
X202603500Y-212772500D01*
X202603500Y-212772500D02*
X204042000Y-214211000D01*
D35*
X206362000Y-214211000D02*
X208394000Y-214211000D01*
D41*
X293624000Y-207010000D02*
X296418000Y-207010000D01*
X296418000Y-201539096D02*
X297501086Y-200456010D01*
X296418000Y-207010000D02*
X296418000Y-201539096D01*
X293116000Y-176492448D02*
X297736936Y-181113384D01*
X293116000Y-173990000D02*
X293116000Y-176492448D01*
X293116000Y-173990000D02*
X290322000Y-173990000D01*
M02*
