M48
;DRILL file {KiCad (5.0.0)} date 11/16/19 16:49:13
;FORMAT={-:-/ absolute / inch / decimal}
FMAT,2
INCH,TZ
T1C0.0276
T2C0.0295
T3C0.0315
T4C0.0433
%
G90
G05
M72
T1
X6.5512Y-2.7244
X6.5512Y-3.0244
X6.41Y-2.725
X6.41Y-3.025
X6.2675Y-2.725
X6.2675Y-3.025
X6.1225Y-2.725
X6.1225Y-3.025
T2
X6.3875Y-2.46
X6.3875Y-2.51
X6.3875Y-2.56
X6.Y-2.4625
X6.Y-2.5125
X6.Y-2.5625
T3
X5.3975Y-2.71
X5.3975Y-3.01
X5.8975Y-2.71
X5.8975Y-3.01
X4.8189Y-2.8189
X5.1142Y-2.8189
X5.7975Y-2.71
X5.7975Y-3.01
X5.6975Y-2.71
X5.6975Y-3.01
X5.4975Y-2.71
X5.4975Y-3.01
X5.5975Y-2.71
X5.5975Y-3.01
X4.811Y-3.0472
X5.1063Y-3.0472
T4
X4.723Y-2.4105
X4.723Y-2.5105
X4.723Y-2.6105
X5.398Y-3.1355
X5.498Y-3.1355
X5.548Y-2.4105
X5.598Y-3.1355
X5.648Y-2.4105
X5.698Y-3.1355
X5.748Y-2.4105
X5.798Y-3.1355
X5.898Y-3.1355
T0
M30
