G04 #@! TF.GenerationSoftware,KiCad,Pcbnew,(5.0.0)*
G04 #@! TF.CreationDate,2019-11-16T16:49:10+00:00*
G04 #@! TF.ProjectId,LS07,4C5330372E6B696361645F7063620000,rev?*
G04 #@! TF.SameCoordinates,Original*
G04 #@! TF.FileFunction,Legend,Top*
G04 #@! TF.FilePolarity,Positive*
%FSLAX46Y46*%
G04 Gerber Fmt 4.6, Leading zero omitted, Abs format (unit mm)*
G04 Created by KiCad (PCBNEW (5.0.0)) date 11/16/19 16:49:10*
%MOMM*%
%LPD*%
G01*
G04 APERTURE LIST*
%ADD10C,0.250000*%
%ADD11C,0.120000*%
%ADD12C,0.150000*%
G04 APERTURE END LIST*
D10*
X152738095Y-80052380D02*
X152261904Y-80052380D01*
X152261904Y-79052380D01*
X153023809Y-80004761D02*
X153166666Y-80052380D01*
X153404761Y-80052380D01*
X153500000Y-80004761D01*
X153547619Y-79957142D01*
X153595238Y-79861904D01*
X153595238Y-79766666D01*
X153547619Y-79671428D01*
X153500000Y-79623809D01*
X153404761Y-79576190D01*
X153214285Y-79528571D01*
X153119047Y-79480952D01*
X153071428Y-79433333D01*
X153023809Y-79338095D01*
X153023809Y-79242857D01*
X153071428Y-79147619D01*
X153119047Y-79100000D01*
X153214285Y-79052380D01*
X153452380Y-79052380D01*
X153595238Y-79100000D01*
X154214285Y-79052380D02*
X154309523Y-79052380D01*
X154404761Y-79100000D01*
X154452380Y-79147619D01*
X154500000Y-79242857D01*
X154547619Y-79433333D01*
X154547619Y-79671428D01*
X154500000Y-79861904D01*
X154452380Y-79957142D01*
X154404761Y-80004761D01*
X154309523Y-80052380D01*
X154214285Y-80052380D01*
X154119047Y-80004761D01*
X154071428Y-79957142D01*
X154023809Y-79861904D01*
X153976190Y-79671428D01*
X153976190Y-79433333D01*
X154023809Y-79242857D01*
X154071428Y-79147619D01*
X154119047Y-79100000D01*
X154214285Y-79052380D01*
X154880952Y-79052380D02*
X155547619Y-79052380D01*
X155119047Y-80052380D01*
X156928571Y-80385714D02*
X156928571Y-78957142D01*
X158880952Y-80052380D02*
X158404761Y-80052380D01*
X158404761Y-79052380D01*
X159166666Y-80004761D02*
X159309523Y-80052380D01*
X159547619Y-80052380D01*
X159642857Y-80004761D01*
X159690476Y-79957142D01*
X159738095Y-79861904D01*
X159738095Y-79766666D01*
X159690476Y-79671428D01*
X159642857Y-79623809D01*
X159547619Y-79576190D01*
X159357142Y-79528571D01*
X159261904Y-79480952D01*
X159214285Y-79433333D01*
X159166666Y-79338095D01*
X159166666Y-79242857D01*
X159214285Y-79147619D01*
X159261904Y-79100000D01*
X159357142Y-79052380D01*
X159595238Y-79052380D01*
X159738095Y-79100000D01*
X160690476Y-80052380D02*
X160119047Y-80052380D01*
X160404761Y-80052380D02*
X160404761Y-79052380D01*
X160309523Y-79195238D01*
X160214285Y-79290476D01*
X160119047Y-79338095D01*
X161023809Y-79052380D02*
X161642857Y-79052380D01*
X161309523Y-79433333D01*
X161452380Y-79433333D01*
X161547619Y-79480952D01*
X161595238Y-79528571D01*
X161642857Y-79623809D01*
X161642857Y-79861904D01*
X161595238Y-79957142D01*
X161547619Y-80004761D01*
X161452380Y-80052380D01*
X161166666Y-80052380D01*
X161071428Y-80004761D01*
X161023809Y-79957142D01*
X163071428Y-80385714D02*
X163071428Y-78957142D01*
X165023809Y-80052380D02*
X164547619Y-80052380D01*
X164547619Y-79052380D01*
X165309523Y-80004761D02*
X165452380Y-80052380D01*
X165690476Y-80052380D01*
X165785714Y-80004761D01*
X165833333Y-79957142D01*
X165880952Y-79861904D01*
X165880952Y-79766666D01*
X165833333Y-79671428D01*
X165785714Y-79623809D01*
X165690476Y-79576190D01*
X165500000Y-79528571D01*
X165404761Y-79480952D01*
X165357142Y-79433333D01*
X165309523Y-79338095D01*
X165309523Y-79242857D01*
X165357142Y-79147619D01*
X165404761Y-79100000D01*
X165500000Y-79052380D01*
X165738095Y-79052380D01*
X165880952Y-79100000D01*
X166214285Y-79052380D02*
X166833333Y-79052380D01*
X166500000Y-79433333D01*
X166642857Y-79433333D01*
X166738095Y-79480952D01*
X166785714Y-79528571D01*
X166833333Y-79623809D01*
X166833333Y-79861904D01*
X166785714Y-79957142D01*
X166738095Y-80004761D01*
X166642857Y-80052380D01*
X166357142Y-80052380D01*
X166261904Y-80004761D01*
X166214285Y-79957142D01*
X167690476Y-79385714D02*
X167690476Y-80052380D01*
X167452380Y-79004761D02*
X167214285Y-79719047D01*
X167833333Y-79719047D01*
D11*
G04 #@! TO.C,C1*
X128860000Y-71600000D02*
X128820000Y-71600000D01*
X123440000Y-71600000D02*
X123480000Y-71600000D01*
X128820000Y-69930000D02*
X123480000Y-69930000D01*
X128820000Y-73270000D02*
X128820000Y-69930000D01*
X123480000Y-73270000D02*
X128820000Y-73270000D01*
X123480000Y-69930000D02*
X123480000Y-73270000D01*
G04 #@! TO.C,C2*
X128660000Y-77400000D02*
X128620000Y-77400000D01*
X123240000Y-77400000D02*
X123280000Y-77400000D01*
X128620000Y-75730000D02*
X123280000Y-75730000D01*
X128620000Y-79070000D02*
X128620000Y-75730000D01*
X123280000Y-79070000D02*
X128620000Y-79070000D01*
X123280000Y-75730000D02*
X123280000Y-79070000D01*
D12*
G04 #@! TO.C,J1*
X118058000Y-81545500D02*
X118058000Y-59320500D01*
X168858000Y-81545500D02*
X118058000Y-81545500D01*
X168858000Y-59320500D02*
X168858000Y-81545500D01*
X118058000Y-59320500D02*
X168858000Y-59320500D01*
D11*
G04 #@! TO.C,D1*
X135976000Y-74764000D02*
X138216000Y-74764000D01*
X138216000Y-74764000D02*
X138216000Y-70524000D01*
X138216000Y-70524000D02*
X135976000Y-70524000D01*
X135976000Y-70524000D02*
X135976000Y-74764000D01*
X137096000Y-75414000D02*
X137096000Y-74764000D01*
X137096000Y-69874000D02*
X137096000Y-70524000D01*
X135976000Y-74044000D02*
X138216000Y-74044000D01*
X135976000Y-73924000D02*
X138216000Y-73924000D01*
X135976000Y-74164000D02*
X138216000Y-74164000D01*
G04 #@! TO.C,D2*
X138516000Y-74764000D02*
X140756000Y-74764000D01*
X140756000Y-74764000D02*
X140756000Y-70524000D01*
X140756000Y-70524000D02*
X138516000Y-70524000D01*
X138516000Y-70524000D02*
X138516000Y-74764000D01*
X139636000Y-75414000D02*
X139636000Y-74764000D01*
X139636000Y-69874000D02*
X139636000Y-70524000D01*
X138516000Y-74044000D02*
X140756000Y-74044000D01*
X138516000Y-73924000D02*
X140756000Y-73924000D01*
X138516000Y-74164000D02*
X140756000Y-74164000D01*
G04 #@! TO.C,D3*
X141056000Y-74764000D02*
X143296000Y-74764000D01*
X143296000Y-74764000D02*
X143296000Y-70524000D01*
X143296000Y-70524000D02*
X141056000Y-70524000D01*
X141056000Y-70524000D02*
X141056000Y-74764000D01*
X142176000Y-75414000D02*
X142176000Y-74764000D01*
X142176000Y-69874000D02*
X142176000Y-70524000D01*
X141056000Y-74044000D02*
X143296000Y-74044000D01*
X141056000Y-73924000D02*
X143296000Y-73924000D01*
X141056000Y-74164000D02*
X143296000Y-74164000D01*
G04 #@! TO.C,D4*
X143596000Y-74764000D02*
X145836000Y-74764000D01*
X145836000Y-74764000D02*
X145836000Y-70524000D01*
X145836000Y-70524000D02*
X143596000Y-70524000D01*
X143596000Y-70524000D02*
X143596000Y-74764000D01*
X144716000Y-75414000D02*
X144716000Y-74764000D01*
X144716000Y-69874000D02*
X144716000Y-70524000D01*
X143596000Y-74044000D02*
X145836000Y-74044000D01*
X143596000Y-73924000D02*
X145836000Y-73924000D01*
X143596000Y-74164000D02*
X145836000Y-74164000D01*
G04 #@! TO.C,D5*
X146136000Y-74764000D02*
X148376000Y-74764000D01*
X148376000Y-74764000D02*
X148376000Y-70524000D01*
X148376000Y-70524000D02*
X146136000Y-70524000D01*
X146136000Y-70524000D02*
X146136000Y-74764000D01*
X147256000Y-75414000D02*
X147256000Y-74764000D01*
X147256000Y-69874000D02*
X147256000Y-70524000D01*
X146136000Y-74044000D02*
X148376000Y-74044000D01*
X146136000Y-73924000D02*
X148376000Y-73924000D01*
X146136000Y-74164000D02*
X148376000Y-74164000D01*
G04 #@! TO.C,D6*
X148676000Y-74764000D02*
X150916000Y-74764000D01*
X150916000Y-74764000D02*
X150916000Y-70524000D01*
X150916000Y-70524000D02*
X148676000Y-70524000D01*
X148676000Y-70524000D02*
X148676000Y-74764000D01*
X149796000Y-75414000D02*
X149796000Y-74764000D01*
X149796000Y-69874000D02*
X149796000Y-70524000D01*
X148676000Y-74044000D02*
X150916000Y-74044000D01*
X148676000Y-73924000D02*
X150916000Y-73924000D01*
X148676000Y-74164000D02*
X150916000Y-74164000D01*
G04 #@! TO.C,R1*
X154592000Y-74945000D02*
X156432000Y-74945000D01*
X156432000Y-74945000D02*
X156432000Y-71105000D01*
X156432000Y-71105000D02*
X154592000Y-71105000D01*
X154592000Y-71105000D02*
X154592000Y-74945000D01*
X155512000Y-75895000D02*
X155512000Y-74945000D01*
X155512000Y-70155000D02*
X155512000Y-71105000D01*
G04 #@! TO.C,R2*
X158274000Y-74945000D02*
X160114000Y-74945000D01*
X160114000Y-74945000D02*
X160114000Y-71105000D01*
X160114000Y-71105000D02*
X158274000Y-71105000D01*
X158274000Y-71105000D02*
X158274000Y-74945000D01*
X159194000Y-75895000D02*
X159194000Y-74945000D01*
X159194000Y-70155000D02*
X159194000Y-71105000D01*
G04 #@! TO.C,R3*
X161894000Y-74945000D02*
X163734000Y-74945000D01*
X163734000Y-74945000D02*
X163734000Y-71105000D01*
X163734000Y-71105000D02*
X161894000Y-71105000D01*
X161894000Y-71105000D02*
X161894000Y-74945000D01*
X162814000Y-75895000D02*
X162814000Y-74945000D01*
X162814000Y-70155000D02*
X162814000Y-71105000D01*
G04 #@! TO.C,R4*
X167320000Y-71090000D02*
X165480000Y-71090000D01*
X165480000Y-71090000D02*
X165480000Y-74930000D01*
X165480000Y-74930000D02*
X167320000Y-74930000D01*
X167320000Y-74930000D02*
X167320000Y-71090000D01*
X166400000Y-70140000D02*
X166400000Y-71090000D01*
X166400000Y-75880000D02*
X166400000Y-74930000D01*
G04 #@! TO.C,VT1*
X150709878Y-65686111D02*
G75*
G03X150700000Y-61797500I1690122J1948611D01*
G01*
X150700000Y-61797500D02*
X150700000Y-65647500D01*
G04 #@! TO.C,VT2*
X160551878Y-65622611D02*
G75*
G03X160542000Y-61734000I1690122J1948611D01*
G01*
X160542000Y-61734000D02*
X160542000Y-65584000D01*
G04 #@! TO.C,C1*
D12*
X125983333Y-69287142D02*
X125935714Y-69334761D01*
X125792857Y-69382380D01*
X125697619Y-69382380D01*
X125554761Y-69334761D01*
X125459523Y-69239523D01*
X125411904Y-69144285D01*
X125364285Y-68953809D01*
X125364285Y-68810952D01*
X125411904Y-68620476D01*
X125459523Y-68525238D01*
X125554761Y-68430000D01*
X125697619Y-68382380D01*
X125792857Y-68382380D01*
X125935714Y-68430000D01*
X125983333Y-68477619D01*
X126935714Y-69382380D02*
X126364285Y-69382380D01*
X126650000Y-69382380D02*
X126650000Y-68382380D01*
X126554761Y-68525238D01*
X126459523Y-68620476D01*
X126364285Y-68668095D01*
G04 #@! TO.C,C2*
X125783333Y-75087142D02*
X125735714Y-75134761D01*
X125592857Y-75182380D01*
X125497619Y-75182380D01*
X125354761Y-75134761D01*
X125259523Y-75039523D01*
X125211904Y-74944285D01*
X125164285Y-74753809D01*
X125164285Y-74610952D01*
X125211904Y-74420476D01*
X125259523Y-74325238D01*
X125354761Y-74230000D01*
X125497619Y-74182380D01*
X125592857Y-74182380D01*
X125735714Y-74230000D01*
X125783333Y-74277619D01*
X126164285Y-74277619D02*
X126211904Y-74230000D01*
X126307142Y-74182380D01*
X126545238Y-74182380D01*
X126640476Y-74230000D01*
X126688095Y-74277619D01*
X126735714Y-74372857D01*
X126735714Y-74468095D01*
X126688095Y-74610952D01*
X126116666Y-75182380D01*
X126735714Y-75182380D01*
G04 #@! TO.C,J1*
X122804666Y-64352880D02*
X122804666Y-65067166D01*
X122757047Y-65210023D01*
X122661809Y-65305261D01*
X122518952Y-65352880D01*
X122423714Y-65352880D01*
X123804666Y-65352880D02*
X123233238Y-65352880D01*
X123518952Y-65352880D02*
X123518952Y-64352880D01*
X123423714Y-64495738D01*
X123328476Y-64590976D01*
X123233238Y-64638595D01*
G04 #@! TO.C,D1*
X137548380Y-73382095D02*
X136548380Y-73382095D01*
X136548380Y-73144000D01*
X136596000Y-73001142D01*
X136691238Y-72905904D01*
X136786476Y-72858285D01*
X136976952Y-72810666D01*
X137119809Y-72810666D01*
X137310285Y-72858285D01*
X137405523Y-72905904D01*
X137500761Y-73001142D01*
X137548380Y-73144000D01*
X137548380Y-73382095D01*
X137548380Y-71858285D02*
X137548380Y-72429714D01*
X137548380Y-72144000D02*
X136548380Y-72144000D01*
X136691238Y-72239238D01*
X136786476Y-72334476D01*
X136834095Y-72429714D01*
G04 #@! TO.C,D2*
X140088380Y-73382095D02*
X139088380Y-73382095D01*
X139088380Y-73144000D01*
X139136000Y-73001142D01*
X139231238Y-72905904D01*
X139326476Y-72858285D01*
X139516952Y-72810666D01*
X139659809Y-72810666D01*
X139850285Y-72858285D01*
X139945523Y-72905904D01*
X140040761Y-73001142D01*
X140088380Y-73144000D01*
X140088380Y-73382095D01*
X139183619Y-72429714D02*
X139136000Y-72382095D01*
X139088380Y-72286857D01*
X139088380Y-72048761D01*
X139136000Y-71953523D01*
X139183619Y-71905904D01*
X139278857Y-71858285D01*
X139374095Y-71858285D01*
X139516952Y-71905904D01*
X140088380Y-72477333D01*
X140088380Y-71858285D01*
G04 #@! TO.C,D3*
X142628380Y-73382095D02*
X141628380Y-73382095D01*
X141628380Y-73144000D01*
X141676000Y-73001142D01*
X141771238Y-72905904D01*
X141866476Y-72858285D01*
X142056952Y-72810666D01*
X142199809Y-72810666D01*
X142390285Y-72858285D01*
X142485523Y-72905904D01*
X142580761Y-73001142D01*
X142628380Y-73144000D01*
X142628380Y-73382095D01*
X141628380Y-72477333D02*
X141628380Y-71858285D01*
X142009333Y-72191619D01*
X142009333Y-72048761D01*
X142056952Y-71953523D01*
X142104571Y-71905904D01*
X142199809Y-71858285D01*
X142437904Y-71858285D01*
X142533142Y-71905904D01*
X142580761Y-71953523D01*
X142628380Y-72048761D01*
X142628380Y-72334476D01*
X142580761Y-72429714D01*
X142533142Y-72477333D01*
G04 #@! TO.C,D4*
X145168380Y-73382095D02*
X144168380Y-73382095D01*
X144168380Y-73144000D01*
X144216000Y-73001142D01*
X144311238Y-72905904D01*
X144406476Y-72858285D01*
X144596952Y-72810666D01*
X144739809Y-72810666D01*
X144930285Y-72858285D01*
X145025523Y-72905904D01*
X145120761Y-73001142D01*
X145168380Y-73144000D01*
X145168380Y-73382095D01*
X144501714Y-71953523D02*
X145168380Y-71953523D01*
X144120761Y-72191619D02*
X144835047Y-72429714D01*
X144835047Y-71810666D01*
G04 #@! TO.C,D5*
X147708380Y-73382095D02*
X146708380Y-73382095D01*
X146708380Y-73144000D01*
X146756000Y-73001142D01*
X146851238Y-72905904D01*
X146946476Y-72858285D01*
X147136952Y-72810666D01*
X147279809Y-72810666D01*
X147470285Y-72858285D01*
X147565523Y-72905904D01*
X147660761Y-73001142D01*
X147708380Y-73144000D01*
X147708380Y-73382095D01*
X146708380Y-71905904D02*
X146708380Y-72382095D01*
X147184571Y-72429714D01*
X147136952Y-72382095D01*
X147089333Y-72286857D01*
X147089333Y-72048761D01*
X147136952Y-71953523D01*
X147184571Y-71905904D01*
X147279809Y-71858285D01*
X147517904Y-71858285D01*
X147613142Y-71905904D01*
X147660761Y-71953523D01*
X147708380Y-72048761D01*
X147708380Y-72286857D01*
X147660761Y-72382095D01*
X147613142Y-72429714D01*
G04 #@! TO.C,D6*
X150248380Y-73382095D02*
X149248380Y-73382095D01*
X149248380Y-73144000D01*
X149296000Y-73001142D01*
X149391238Y-72905904D01*
X149486476Y-72858285D01*
X149676952Y-72810666D01*
X149819809Y-72810666D01*
X150010285Y-72858285D01*
X150105523Y-72905904D01*
X150200761Y-73001142D01*
X150248380Y-73144000D01*
X150248380Y-73382095D01*
X149248380Y-71953523D02*
X149248380Y-72144000D01*
X149296000Y-72239238D01*
X149343619Y-72286857D01*
X149486476Y-72382095D01*
X149676952Y-72429714D01*
X150057904Y-72429714D01*
X150153142Y-72382095D01*
X150200761Y-72334476D01*
X150248380Y-72239238D01*
X150248380Y-72048761D01*
X150200761Y-71953523D01*
X150153142Y-71905904D01*
X150057904Y-71858285D01*
X149819809Y-71858285D01*
X149724571Y-71905904D01*
X149676952Y-71953523D01*
X149629333Y-72048761D01*
X149629333Y-72239238D01*
X149676952Y-72334476D01*
X149724571Y-72382095D01*
X149819809Y-72429714D01*
G04 #@! TO.C,R1*
X155941379Y-73160167D02*
X155465189Y-73493501D01*
X155941379Y-73731596D02*
X154941379Y-73731596D01*
X154941379Y-73350643D01*
X154988999Y-73255405D01*
X155036618Y-73207786D01*
X155131856Y-73160167D01*
X155274713Y-73160167D01*
X155369951Y-73207786D01*
X155417570Y-73255405D01*
X155465189Y-73350643D01*
X155465189Y-73731596D01*
X155941379Y-72207786D02*
X155941379Y-72779215D01*
X155941379Y-72493501D02*
X154941379Y-72493501D01*
X155084237Y-72588739D01*
X155179475Y-72683977D01*
X155227094Y-72779215D01*
G04 #@! TO.C,R2*
X159676879Y-73160167D02*
X159200689Y-73493501D01*
X159676879Y-73731596D02*
X158676879Y-73731596D01*
X158676879Y-73350643D01*
X158724499Y-73255405D01*
X158772118Y-73207786D01*
X158867356Y-73160167D01*
X159010213Y-73160167D01*
X159105451Y-73207786D01*
X159153070Y-73255405D01*
X159200689Y-73350643D01*
X159200689Y-73731596D01*
X158772118Y-72779215D02*
X158724499Y-72731596D01*
X158676879Y-72636358D01*
X158676879Y-72398262D01*
X158724499Y-72303024D01*
X158772118Y-72255405D01*
X158867356Y-72207786D01*
X158962594Y-72207786D01*
X159105451Y-72255405D01*
X159676879Y-72826834D01*
X159676879Y-72207786D01*
G04 #@! TO.C,R3*
X163223379Y-73160167D02*
X162747189Y-73493501D01*
X163223379Y-73731596D02*
X162223379Y-73731596D01*
X162223379Y-73350643D01*
X162270999Y-73255405D01*
X162318618Y-73207786D01*
X162413856Y-73160167D01*
X162556713Y-73160167D01*
X162651951Y-73207786D01*
X162699570Y-73255405D01*
X162747189Y-73350643D01*
X162747189Y-73731596D01*
X162223379Y-72826834D02*
X162223379Y-72207786D01*
X162604332Y-72541120D01*
X162604332Y-72398262D01*
X162651951Y-72303024D01*
X162699570Y-72255405D01*
X162794808Y-72207786D01*
X163032903Y-72207786D01*
X163128141Y-72255405D01*
X163175760Y-72303024D01*
X163223379Y-72398262D01*
X163223379Y-72683977D01*
X163175760Y-72779215D01*
X163128141Y-72826834D01*
G04 #@! TO.C,R4*
X166915880Y-73176666D02*
X166439690Y-73510000D01*
X166915880Y-73748095D02*
X165915880Y-73748095D01*
X165915880Y-73367142D01*
X165963500Y-73271904D01*
X166011119Y-73224285D01*
X166106357Y-73176666D01*
X166249214Y-73176666D01*
X166344452Y-73224285D01*
X166392071Y-73271904D01*
X166439690Y-73367142D01*
X166439690Y-73748095D01*
X166249214Y-72319523D02*
X166915880Y-72319523D01*
X165868261Y-72557619D02*
X166582547Y-72795714D01*
X166582547Y-72176666D01*
G04 #@! TO.C,VT1*
X155412380Y-64927976D02*
X156412380Y-64594642D01*
X155412380Y-64261309D01*
X155412380Y-64070833D02*
X155412380Y-63499404D01*
X156412380Y-63785119D02*
X155412380Y-63785119D01*
X156412380Y-62642261D02*
X156412380Y-63213690D01*
X156412380Y-62927976D02*
X155412380Y-62927976D01*
X155555238Y-63023214D01*
X155650476Y-63118452D01*
X155698095Y-63213690D01*
G04 #@! TO.C,VT2*
X165254380Y-64864476D02*
X166254380Y-64531142D01*
X165254380Y-64197809D01*
X165254380Y-64007333D02*
X165254380Y-63435904D01*
X166254380Y-63721619D02*
X165254380Y-63721619D01*
X165349619Y-63150190D02*
X165302000Y-63102571D01*
X165254380Y-63007333D01*
X165254380Y-62769238D01*
X165302000Y-62674000D01*
X165349619Y-62626380D01*
X165444857Y-62578761D01*
X165540095Y-62578761D01*
X165682952Y-62626380D01*
X166254380Y-63197809D01*
X166254380Y-62578761D01*
G04 #@! TD*
M02*
