G04 #@! TF.GenerationSoftware,KiCad,Pcbnew,(5.0.0)*
G04 #@! TF.CreationDate,2019-08-30T23:05:15+01:00*
G04 #@! TF.ProjectId,LS15,4C5331352E6B696361645F7063620000,rev?*
G04 #@! TF.SameCoordinates,Original*
G04 #@! TF.FileFunction,Copper,L1,Top,Signal*
G04 #@! TF.FilePolarity,Positive*
%FSLAX46Y46*%
G04 Gerber Fmt 4.6, Leading zero omitted, Abs format (unit mm)*
G04 Created by KiCad (PCBNEW (5.0.0)) date 08/30/19 23:05:15*
%MOMM*%
%LPD*%
G01*
G04 APERTURE LIST*
G04 #@! TA.AperFunction,ComponentPad*
%ADD10C,2.000000*%
G04 #@! TD*
G04 #@! TA.AperFunction,ComponentPad*
%ADD11R,1.600000X1.600000*%
G04 #@! TD*
G04 #@! TA.AperFunction,ComponentPad*
%ADD12O,1.600000X1.600000*%
G04 #@! TD*
G04 #@! TA.AperFunction,ComponentPad*
%ADD13C,1.400000*%
G04 #@! TD*
G04 #@! TA.AperFunction,ComponentPad*
%ADD14O,1.400000X1.400000*%
G04 #@! TD*
G04 #@! TA.AperFunction,ComponentPad*
%ADD15R,1.500000X1.050000*%
G04 #@! TD*
G04 #@! TA.AperFunction,Conductor*
%ADD16C,0.100000*%
G04 #@! TD*
G04 #@! TA.AperFunction,ComponentPad*
%ADD17C,1.050000*%
G04 #@! TD*
G04 #@! TA.AperFunction,Conductor*
%ADD18C,0.250000*%
G04 #@! TD*
G04 APERTURE END LIST*
D10*
G04 #@! TO.P,J1,13*
G04 #@! TO.N,13*
X145998000Y-61225500D03*
G04 #@! TO.P,J1,12*
G04 #@! TO.N,12*
X143458000Y-61225500D03*
G04 #@! TO.P,J1,11*
G04 #@! TO.N,11*
X140918000Y-61225500D03*
G04 #@! TO.P,J1,6*
G04 #@! TO.N,6*
X149808000Y-79640500D03*
G04 #@! TO.P,J1,5*
G04 #@! TO.N,5*
X147268000Y-79640500D03*
G04 #@! TO.P,J1,4*
G04 #@! TO.N,N/C*
X144728000Y-79640500D03*
G04 #@! TO.P,J1,3*
G04 #@! TO.N,3*
X142188000Y-79640500D03*
G04 #@! TO.P,J1,2*
G04 #@! TO.N,N/C*
X139648000Y-79640500D03*
G04 #@! TO.P,J1,1*
G04 #@! TO.N,1*
X137108000Y-79640500D03*
G04 #@! TO.P,J1,23*
G04 #@! TO.N,-6v*
X119963000Y-66305500D03*
G04 #@! TO.P,J1,22*
G04 #@! TO.N,0v*
X119963000Y-63765500D03*
G04 #@! TO.P,J1,21*
G04 #@! TO.N,+6v*
X119963000Y-61225500D03*
G04 #@! TD*
D11*
G04 #@! TO.P,D1,1*
G04 #@! TO.N,1*
X137109000Y-76428600D03*
D12*
G04 #@! TO.P,D1,2*
G04 #@! TO.N,Net-(D1-Pad2)*
X137109000Y-68808600D03*
G04 #@! TD*
D11*
G04 #@! TO.P,D3,1*
G04 #@! TO.N,3*
X142189000Y-76428600D03*
D12*
G04 #@! TO.P,D3,2*
G04 #@! TO.N,Net-(D3-Pad2)*
X142189000Y-68808600D03*
G04 #@! TD*
D11*
G04 #@! TO.P,D4,1*
G04 #@! TO.N,5*
X147269000Y-76428600D03*
D12*
G04 #@! TO.P,D4,2*
G04 #@! TO.N,Net-(D3-Pad2)*
X147269000Y-68808600D03*
G04 #@! TD*
D11*
G04 #@! TO.P,D5,1*
G04 #@! TO.N,6*
X149809000Y-76428600D03*
D12*
G04 #@! TO.P,D5,2*
G04 #@! TO.N,Net-(D11-Pad2)*
X149809000Y-68808600D03*
G04 #@! TD*
D11*
G04 #@! TO.P,D7,1*
G04 #@! TO.N,Net-(D7-Pad1)*
X120625000Y-78359000D03*
D12*
G04 #@! TO.P,D7,2*
G04 #@! TO.N,Net-(D1-Pad2)*
X120625000Y-70739000D03*
G04 #@! TD*
D11*
G04 #@! TO.P,D8,1*
G04 #@! TO.N,Net-(D8-Pad1)*
X123292000Y-70739000D03*
D12*
G04 #@! TO.P,D8,2*
G04 #@! TO.N,Net-(D7-Pad1)*
X123292000Y-78359000D03*
G04 #@! TD*
D11*
G04 #@! TO.P,D9,1*
G04 #@! TO.N,Net-(D10-Pad2)*
X125959000Y-78359000D03*
D12*
G04 #@! TO.P,D9,2*
G04 #@! TO.N,Net-(D3-Pad2)*
X125959000Y-70739000D03*
G04 #@! TD*
D11*
G04 #@! TO.P,D10,1*
G04 #@! TO.N,Net-(D10-Pad1)*
X128626000Y-70739000D03*
D12*
G04 #@! TO.P,D10,2*
G04 #@! TO.N,Net-(D10-Pad2)*
X128626000Y-78359000D03*
G04 #@! TD*
D11*
G04 #@! TO.P,D11,1*
G04 #@! TO.N,Net-(D11-Pad1)*
X131267000Y-78359000D03*
D12*
G04 #@! TO.P,D11,2*
G04 #@! TO.N,Net-(D11-Pad2)*
X131267000Y-70739000D03*
G04 #@! TD*
D11*
G04 #@! TO.P,D12,1*
G04 #@! TO.N,Net-(D12-Pad1)*
X133922000Y-70739000D03*
D12*
G04 #@! TO.P,D12,2*
G04 #@! TO.N,Net-(D11-Pad1)*
X133922000Y-78359000D03*
G04 #@! TD*
D13*
G04 #@! TO.P,R1,1*
G04 #@! TO.N,+6v*
X144729000Y-65709800D03*
D14*
G04 #@! TO.P,R1,2*
G04 #@! TO.N,Net-(D1-Pad2)*
X137109000Y-65709800D03*
G04 #@! TD*
D13*
G04 #@! TO.P,R2,1*
G04 #@! TO.N,Net-(D8-Pad1)*
X133960000Y-64109600D03*
D14*
G04 #@! TO.P,R2,2*
G04 #@! TO.N,-6v*
X126340000Y-64109600D03*
G04 #@! TD*
D13*
G04 #@! TO.P,R3,1*
G04 #@! TO.N,11*
X162535000Y-69316600D03*
D14*
G04 #@! TO.P,R3,2*
G04 #@! TO.N,+6v*
X162535000Y-76936600D03*
G04 #@! TD*
D13*
G04 #@! TO.P,R4,1*
G04 #@! TO.N,+6v*
X144729000Y-68808600D03*
D14*
G04 #@! TO.P,R4,2*
G04 #@! TO.N,Net-(D3-Pad2)*
X144729000Y-76428600D03*
G04 #@! TD*
D13*
G04 #@! TO.P,R5,1*
G04 #@! TO.N,Net-(D10-Pad1)*
X133934000Y-67132200D03*
D14*
G04 #@! TO.P,R5,2*
G04 #@! TO.N,-6v*
X126314000Y-67132200D03*
G04 #@! TD*
D15*
G04 #@! TO.P,VT2,3*
G04 #@! TO.N,0v*
X157683000Y-62255400D03*
D16*
G04 #@! TD*
G04 #@! TO.N,12*
G04 #@! TO.C,VT2*
G36*
X158196229Y-64271664D02*
X158221711Y-64275444D01*
X158246700Y-64281703D01*
X158270954Y-64290382D01*
X158294242Y-64301396D01*
X158316337Y-64314639D01*
X158337028Y-64329985D01*
X158356116Y-64347284D01*
X158373415Y-64366372D01*
X158388761Y-64387063D01*
X158402004Y-64409158D01*
X158413018Y-64432446D01*
X158421697Y-64456700D01*
X158427956Y-64481689D01*
X158431736Y-64507171D01*
X158433000Y-64532900D01*
X158433000Y-65057900D01*
X158431736Y-65083629D01*
X158427956Y-65109111D01*
X158421697Y-65134100D01*
X158413018Y-65158354D01*
X158402004Y-65181642D01*
X158388761Y-65203737D01*
X158373415Y-65224428D01*
X158356116Y-65243516D01*
X158337028Y-65260815D01*
X158316337Y-65276161D01*
X158294242Y-65289404D01*
X158270954Y-65300418D01*
X158246700Y-65309097D01*
X158221711Y-65315356D01*
X158196229Y-65319136D01*
X158170500Y-65320400D01*
X157195500Y-65320400D01*
X157169771Y-65319136D01*
X157144289Y-65315356D01*
X157119300Y-65309097D01*
X157095046Y-65300418D01*
X157071758Y-65289404D01*
X157049663Y-65276161D01*
X157028972Y-65260815D01*
X157009884Y-65243516D01*
X156992585Y-65224428D01*
X156977239Y-65203737D01*
X156963996Y-65181642D01*
X156952982Y-65158354D01*
X156944303Y-65134100D01*
X156938044Y-65109111D01*
X156934264Y-65083629D01*
X156933000Y-65057900D01*
X156933000Y-64532900D01*
X156934264Y-64507171D01*
X156938044Y-64481689D01*
X156944303Y-64456700D01*
X156952982Y-64432446D01*
X156963996Y-64409158D01*
X156977239Y-64387063D01*
X156992585Y-64366372D01*
X157009884Y-64347284D01*
X157028972Y-64329985D01*
X157049663Y-64314639D01*
X157071758Y-64301396D01*
X157095046Y-64290382D01*
X157119300Y-64281703D01*
X157144289Y-64275444D01*
X157169771Y-64271664D01*
X157195500Y-64270400D01*
X158170500Y-64270400D01*
X158196229Y-64271664D01*
X158196229Y-64271664D01*
G37*
D17*
G04 #@! TO.P,VT2,1*
G04 #@! TO.N,12*
X157683000Y-64795400D03*
D16*
G04 #@! TD*
G04 #@! TO.N,Net-(D10-Pad1)*
G04 #@! TO.C,VT2*
G36*
X158196229Y-63001664D02*
X158221711Y-63005444D01*
X158246700Y-63011703D01*
X158270954Y-63020382D01*
X158294242Y-63031396D01*
X158316337Y-63044639D01*
X158337028Y-63059985D01*
X158356116Y-63077284D01*
X158373415Y-63096372D01*
X158388761Y-63117063D01*
X158402004Y-63139158D01*
X158413018Y-63162446D01*
X158421697Y-63186700D01*
X158427956Y-63211689D01*
X158431736Y-63237171D01*
X158433000Y-63262900D01*
X158433000Y-63787900D01*
X158431736Y-63813629D01*
X158427956Y-63839111D01*
X158421697Y-63864100D01*
X158413018Y-63888354D01*
X158402004Y-63911642D01*
X158388761Y-63933737D01*
X158373415Y-63954428D01*
X158356116Y-63973516D01*
X158337028Y-63990815D01*
X158316337Y-64006161D01*
X158294242Y-64019404D01*
X158270954Y-64030418D01*
X158246700Y-64039097D01*
X158221711Y-64045356D01*
X158196229Y-64049136D01*
X158170500Y-64050400D01*
X157195500Y-64050400D01*
X157169771Y-64049136D01*
X157144289Y-64045356D01*
X157119300Y-64039097D01*
X157095046Y-64030418D01*
X157071758Y-64019404D01*
X157049663Y-64006161D01*
X157028972Y-63990815D01*
X157009884Y-63973516D01*
X156992585Y-63954428D01*
X156977239Y-63933737D01*
X156963996Y-63911642D01*
X156952982Y-63888354D01*
X156944303Y-63864100D01*
X156938044Y-63839111D01*
X156934264Y-63813629D01*
X156933000Y-63787900D01*
X156933000Y-63262900D01*
X156934264Y-63237171D01*
X156938044Y-63211689D01*
X156944303Y-63186700D01*
X156952982Y-63162446D01*
X156963996Y-63139158D01*
X156977239Y-63117063D01*
X156992585Y-63096372D01*
X157009884Y-63077284D01*
X157028972Y-63059985D01*
X157049663Y-63044639D01*
X157071758Y-63031396D01*
X157095046Y-63020382D01*
X157119300Y-63011703D01*
X157144289Y-63005444D01*
X157169771Y-63001664D01*
X157195500Y-63000400D01*
X158170500Y-63000400D01*
X158196229Y-63001664D01*
X158196229Y-63001664D01*
G37*
D17*
G04 #@! TO.P,VT2,2*
G04 #@! TO.N,Net-(D10-Pad1)*
X157683000Y-63525400D03*
G04 #@! TD*
D14*
G04 #@! TO.P,R6,2*
G04 #@! TO.N,Net-(D11-Pad2)*
X139649000Y-76428600D03*
D13*
G04 #@! TO.P,R6,1*
G04 #@! TO.N,+6v*
X139649000Y-68808600D03*
G04 #@! TD*
D14*
G04 #@! TO.P,R7,2*
G04 #@! TO.N,-6v*
X126340000Y-61163200D03*
D13*
G04 #@! TO.P,R7,1*
G04 #@! TO.N,Net-(D12-Pad1)*
X133960000Y-61163200D03*
G04 #@! TD*
G04 #@! TO.P,R8,1*
G04 #@! TO.N,13*
X159309000Y-69316600D03*
D14*
G04 #@! TO.P,R8,2*
G04 #@! TO.N,+6v*
X159309000Y-76936600D03*
G04 #@! TD*
D16*
G04 #@! TO.N,Net-(D8-Pad1)*
G04 #@! TO.C,VT1*
G36*
X151618229Y-63001664D02*
X151643711Y-63005444D01*
X151668700Y-63011703D01*
X151692954Y-63020382D01*
X151716242Y-63031396D01*
X151738337Y-63044639D01*
X151759028Y-63059985D01*
X151778116Y-63077284D01*
X151795415Y-63096372D01*
X151810761Y-63117063D01*
X151824004Y-63139158D01*
X151835018Y-63162446D01*
X151843697Y-63186700D01*
X151849956Y-63211689D01*
X151853736Y-63237171D01*
X151855000Y-63262900D01*
X151855000Y-63787900D01*
X151853736Y-63813629D01*
X151849956Y-63839111D01*
X151843697Y-63864100D01*
X151835018Y-63888354D01*
X151824004Y-63911642D01*
X151810761Y-63933737D01*
X151795415Y-63954428D01*
X151778116Y-63973516D01*
X151759028Y-63990815D01*
X151738337Y-64006161D01*
X151716242Y-64019404D01*
X151692954Y-64030418D01*
X151668700Y-64039097D01*
X151643711Y-64045356D01*
X151618229Y-64049136D01*
X151592500Y-64050400D01*
X150617500Y-64050400D01*
X150591771Y-64049136D01*
X150566289Y-64045356D01*
X150541300Y-64039097D01*
X150517046Y-64030418D01*
X150493758Y-64019404D01*
X150471663Y-64006161D01*
X150450972Y-63990815D01*
X150431884Y-63973516D01*
X150414585Y-63954428D01*
X150399239Y-63933737D01*
X150385996Y-63911642D01*
X150374982Y-63888354D01*
X150366303Y-63864100D01*
X150360044Y-63839111D01*
X150356264Y-63813629D01*
X150355000Y-63787900D01*
X150355000Y-63262900D01*
X150356264Y-63237171D01*
X150360044Y-63211689D01*
X150366303Y-63186700D01*
X150374982Y-63162446D01*
X150385996Y-63139158D01*
X150399239Y-63117063D01*
X150414585Y-63096372D01*
X150431884Y-63077284D01*
X150450972Y-63059985D01*
X150471663Y-63044639D01*
X150493758Y-63031396D01*
X150517046Y-63020382D01*
X150541300Y-63011703D01*
X150566289Y-63005444D01*
X150591771Y-63001664D01*
X150617500Y-63000400D01*
X151592500Y-63000400D01*
X151618229Y-63001664D01*
X151618229Y-63001664D01*
G37*
D17*
G04 #@! TD*
G04 #@! TO.P,VT1,2*
G04 #@! TO.N,Net-(D8-Pad1)*
X151105000Y-63525400D03*
D16*
G04 #@! TO.N,11*
G04 #@! TO.C,VT1*
G36*
X151618229Y-64271664D02*
X151643711Y-64275444D01*
X151668700Y-64281703D01*
X151692954Y-64290382D01*
X151716242Y-64301396D01*
X151738337Y-64314639D01*
X151759028Y-64329985D01*
X151778116Y-64347284D01*
X151795415Y-64366372D01*
X151810761Y-64387063D01*
X151824004Y-64409158D01*
X151835018Y-64432446D01*
X151843697Y-64456700D01*
X151849956Y-64481689D01*
X151853736Y-64507171D01*
X151855000Y-64532900D01*
X151855000Y-65057900D01*
X151853736Y-65083629D01*
X151849956Y-65109111D01*
X151843697Y-65134100D01*
X151835018Y-65158354D01*
X151824004Y-65181642D01*
X151810761Y-65203737D01*
X151795415Y-65224428D01*
X151778116Y-65243516D01*
X151759028Y-65260815D01*
X151738337Y-65276161D01*
X151716242Y-65289404D01*
X151692954Y-65300418D01*
X151668700Y-65309097D01*
X151643711Y-65315356D01*
X151618229Y-65319136D01*
X151592500Y-65320400D01*
X150617500Y-65320400D01*
X150591771Y-65319136D01*
X150566289Y-65315356D01*
X150541300Y-65309097D01*
X150517046Y-65300418D01*
X150493758Y-65289404D01*
X150471663Y-65276161D01*
X150450972Y-65260815D01*
X150431884Y-65243516D01*
X150414585Y-65224428D01*
X150399239Y-65203737D01*
X150385996Y-65181642D01*
X150374982Y-65158354D01*
X150366303Y-65134100D01*
X150360044Y-65109111D01*
X150356264Y-65083629D01*
X150355000Y-65057900D01*
X150355000Y-64532900D01*
X150356264Y-64507171D01*
X150360044Y-64481689D01*
X150366303Y-64456700D01*
X150374982Y-64432446D01*
X150385996Y-64409158D01*
X150399239Y-64387063D01*
X150414585Y-64366372D01*
X150431884Y-64347284D01*
X150450972Y-64329985D01*
X150471663Y-64314639D01*
X150493758Y-64301396D01*
X150517046Y-64290382D01*
X150541300Y-64281703D01*
X150566289Y-64275444D01*
X150591771Y-64271664D01*
X150617500Y-64270400D01*
X151592500Y-64270400D01*
X151618229Y-64271664D01*
X151618229Y-64271664D01*
G37*
D17*
G04 #@! TD*
G04 #@! TO.P,VT1,1*
G04 #@! TO.N,11*
X151105000Y-64795400D03*
D15*
G04 #@! TO.P,VT1,3*
G04 #@! TO.N,0v*
X151105000Y-62255400D03*
G04 #@! TD*
D16*
G04 #@! TO.N,Net-(D12-Pad1)*
G04 #@! TO.C,VT3*
G36*
X164876229Y-62950864D02*
X164901711Y-62954644D01*
X164926700Y-62960903D01*
X164950954Y-62969582D01*
X164974242Y-62980596D01*
X164996337Y-62993839D01*
X165017028Y-63009185D01*
X165036116Y-63026484D01*
X165053415Y-63045572D01*
X165068761Y-63066263D01*
X165082004Y-63088358D01*
X165093018Y-63111646D01*
X165101697Y-63135900D01*
X165107956Y-63160889D01*
X165111736Y-63186371D01*
X165113000Y-63212100D01*
X165113000Y-63737100D01*
X165111736Y-63762829D01*
X165107956Y-63788311D01*
X165101697Y-63813300D01*
X165093018Y-63837554D01*
X165082004Y-63860842D01*
X165068761Y-63882937D01*
X165053415Y-63903628D01*
X165036116Y-63922716D01*
X165017028Y-63940015D01*
X164996337Y-63955361D01*
X164974242Y-63968604D01*
X164950954Y-63979618D01*
X164926700Y-63988297D01*
X164901711Y-63994556D01*
X164876229Y-63998336D01*
X164850500Y-63999600D01*
X163875500Y-63999600D01*
X163849771Y-63998336D01*
X163824289Y-63994556D01*
X163799300Y-63988297D01*
X163775046Y-63979618D01*
X163751758Y-63968604D01*
X163729663Y-63955361D01*
X163708972Y-63940015D01*
X163689884Y-63922716D01*
X163672585Y-63903628D01*
X163657239Y-63882937D01*
X163643996Y-63860842D01*
X163632982Y-63837554D01*
X163624303Y-63813300D01*
X163618044Y-63788311D01*
X163614264Y-63762829D01*
X163613000Y-63737100D01*
X163613000Y-63212100D01*
X163614264Y-63186371D01*
X163618044Y-63160889D01*
X163624303Y-63135900D01*
X163632982Y-63111646D01*
X163643996Y-63088358D01*
X163657239Y-63066263D01*
X163672585Y-63045572D01*
X163689884Y-63026484D01*
X163708972Y-63009185D01*
X163729663Y-62993839D01*
X163751758Y-62980596D01*
X163775046Y-62969582D01*
X163799300Y-62960903D01*
X163824289Y-62954644D01*
X163849771Y-62950864D01*
X163875500Y-62949600D01*
X164850500Y-62949600D01*
X164876229Y-62950864D01*
X164876229Y-62950864D01*
G37*
D17*
G04 #@! TD*
G04 #@! TO.P,VT3,2*
G04 #@! TO.N,Net-(D12-Pad1)*
X164363000Y-63474600D03*
D16*
G04 #@! TO.N,0v*
G04 #@! TO.C,VT3*
G36*
X164876229Y-64220864D02*
X164901711Y-64224644D01*
X164926700Y-64230903D01*
X164950954Y-64239582D01*
X164974242Y-64250596D01*
X164996337Y-64263839D01*
X165017028Y-64279185D01*
X165036116Y-64296484D01*
X165053415Y-64315572D01*
X165068761Y-64336263D01*
X165082004Y-64358358D01*
X165093018Y-64381646D01*
X165101697Y-64405900D01*
X165107956Y-64430889D01*
X165111736Y-64456371D01*
X165113000Y-64482100D01*
X165113000Y-65007100D01*
X165111736Y-65032829D01*
X165107956Y-65058311D01*
X165101697Y-65083300D01*
X165093018Y-65107554D01*
X165082004Y-65130842D01*
X165068761Y-65152937D01*
X165053415Y-65173628D01*
X165036116Y-65192716D01*
X165017028Y-65210015D01*
X164996337Y-65225361D01*
X164974242Y-65238604D01*
X164950954Y-65249618D01*
X164926700Y-65258297D01*
X164901711Y-65264556D01*
X164876229Y-65268336D01*
X164850500Y-65269600D01*
X163875500Y-65269600D01*
X163849771Y-65268336D01*
X163824289Y-65264556D01*
X163799300Y-65258297D01*
X163775046Y-65249618D01*
X163751758Y-65238604D01*
X163729663Y-65225361D01*
X163708972Y-65210015D01*
X163689884Y-65192716D01*
X163672585Y-65173628D01*
X163657239Y-65152937D01*
X163643996Y-65130842D01*
X163632982Y-65107554D01*
X163624303Y-65083300D01*
X163618044Y-65058311D01*
X163614264Y-65032829D01*
X163613000Y-65007100D01*
X163613000Y-64482100D01*
X163614264Y-64456371D01*
X163618044Y-64430889D01*
X163624303Y-64405900D01*
X163632982Y-64381646D01*
X163643996Y-64358358D01*
X163657239Y-64336263D01*
X163672585Y-64315572D01*
X163689884Y-64296484D01*
X163708972Y-64279185D01*
X163729663Y-64263839D01*
X163751758Y-64250596D01*
X163775046Y-64239582D01*
X163799300Y-64230903D01*
X163824289Y-64224644D01*
X163849771Y-64220864D01*
X163875500Y-64219600D01*
X164850500Y-64219600D01*
X164876229Y-64220864D01*
X164876229Y-64220864D01*
G37*
D17*
G04 #@! TD*
G04 #@! TO.P,VT3,3*
G04 #@! TO.N,0v*
X164363000Y-64744600D03*
D15*
G04 #@! TO.P,VT3,1*
G04 #@! TO.N,13*
X164363000Y-62204600D03*
G04 #@! TD*
D18*
G04 #@! TO.N,1*
X137109000Y-76428600D02*
X137109000Y-77553900D01*
X137109000Y-77553900D02*
X137108000Y-77554900D01*
X137108000Y-77554900D02*
X137108000Y-79640500D01*
G04 #@! TO.N,Net-(D3-Pad2)*
X125959000Y-70739000D02*
X127084300Y-70739000D01*
X142189000Y-68808600D02*
X141063700Y-68808600D01*
X141063700Y-68808600D02*
X141063700Y-68949300D01*
X141063700Y-68949300D02*
X138148700Y-71864300D01*
X138148700Y-71864300D02*
X127646900Y-71864300D01*
X127646900Y-71864300D02*
X127084300Y-71301700D01*
X127084300Y-71301700D02*
X127084300Y-70739000D01*
G04 #@! TO.N,Net-(D11-Pad2)*
X149809000Y-68808600D02*
X148683700Y-68808600D01*
X139649000Y-76428600D02*
X140674300Y-76428600D01*
X140674300Y-76428600D02*
X140674300Y-75867900D01*
X140674300Y-75867900D02*
X146608300Y-69933900D01*
X146608300Y-69933900D02*
X147839800Y-69933900D01*
X147839800Y-69933900D02*
X148683700Y-69090000D01*
X148683700Y-69090000D02*
X148683700Y-68808600D01*
G04 #@! TO.N,Net-(D7-Pad1)*
X123292000Y-78359000D02*
X120625000Y-78359000D01*
G04 #@! TO.N,Net-(D10-Pad1)*
X128626000Y-70739000D02*
X129751300Y-70739000D01*
X133934000Y-67132200D02*
X133217400Y-67132200D01*
X133217400Y-67132200D02*
X129751300Y-70598300D01*
X129751300Y-70598300D02*
X129751300Y-70739000D01*
X157683000Y-63525400D02*
X155706400Y-63525400D01*
X155706400Y-63525400D02*
X152099600Y-67132200D01*
X152099600Y-67132200D02*
X133934000Y-67132200D01*
G04 #@! TO.N,Net-(D10-Pad2)*
X128626000Y-78359000D02*
X125959000Y-78359000D01*
G04 #@! TO.N,Net-(D11-Pad1)*
X133922000Y-78359000D02*
X131267000Y-78359000D01*
G04 #@! TO.N,Net-(D12-Pad1)*
X164363000Y-63474600D02*
X164207300Y-63318900D01*
X164207300Y-63318900D02*
X164207300Y-63318800D01*
X164207300Y-63318800D02*
X163691800Y-63318800D01*
X163691800Y-63318800D02*
X160250800Y-59877800D01*
X160250800Y-59877800D02*
X135245400Y-59877800D01*
X135245400Y-59877800D02*
X133960000Y-61163200D01*
G04 #@! TO.N,+6v*
X159309000Y-76936600D02*
X162535000Y-76936600D01*
G04 #@! TO.N,0v*
X151105000Y-62255400D02*
X150029700Y-62255400D01*
X150029700Y-62255400D02*
X149648700Y-62636400D01*
X149648700Y-62636400D02*
X121092100Y-62636400D01*
X121092100Y-62636400D02*
X119963000Y-63765500D01*
X157683000Y-62255400D02*
X151105000Y-62255400D01*
X164363000Y-64744600D02*
X162995700Y-64744600D01*
X162995700Y-64744600D02*
X160506500Y-62255400D01*
X160506500Y-62255400D02*
X157683000Y-62255400D01*
G04 #@! TO.N,-6v*
X126314000Y-66305500D02*
X126314000Y-67132200D01*
X126340000Y-65134900D02*
X126314000Y-65160900D01*
X126314000Y-65160900D02*
X126314000Y-66305500D01*
X126314000Y-66305500D02*
X119963000Y-66305500D01*
X126340000Y-64109600D02*
X126340000Y-65134900D01*
G04 #@! TO.N,Net-(D8-Pad1)*
X123292000Y-70739000D02*
X124417300Y-70739000D01*
X133960000Y-64109600D02*
X130905900Y-64109600D01*
X130905900Y-64109600D02*
X124417300Y-70598200D01*
X124417300Y-70598200D02*
X124417300Y-70739000D01*
X151105000Y-63525400D02*
X134544200Y-63525400D01*
X134544200Y-63525400D02*
X133960000Y-64109600D01*
G04 #@! TD*
M02*
