M48
;DRILL file {KiCad (5.0.0)} date 08/30/19 23:05:18
;FORMAT={-:-/ absolute / inch / decimal}
FMAT,2
INCH,TZ
T1C0.0276
T2C0.0295
T3C0.0315
T4C0.0433
%
G90
G05
M72
T1
X5.274Y-2.408
X5.698Y-2.709
X6.399Y-2.729
X6.272Y-2.729
X6.272Y-3.029
X4.973Y-2.643
X5.273Y-2.643
X4.974Y-2.408
X5.698Y-3.009
X5.398Y-2.587
X5.698Y-2.587
X6.399Y-3.029
X5.498Y-2.709
X5.498Y-3.009
X4.974Y-2.524
X5.274Y-2.524
T2
X6.208Y-2.451
X6.208Y-2.501
X6.208Y-2.551
X6.471Y-2.449
X6.471Y-2.499
X6.471Y-2.549
X5.949Y-2.451
X5.949Y-2.501
X5.949Y-2.551
T3
X5.898Y-2.709
X5.898Y-3.009
X4.749Y-2.785
X4.749Y-3.085
X5.598Y-2.709
X5.598Y-3.009
X5.798Y-2.709
X5.798Y-3.009
X5.398Y-2.709
X5.398Y-3.009
X5.064Y-2.785
X5.064Y-3.085
X5.2725Y-2.785
X5.2725Y-3.085
X5.168Y-2.785
X5.168Y-3.085
X4.959Y-2.785
X4.959Y-3.085
X4.854Y-2.785
X4.854Y-3.085
T4
X4.723Y-2.4105
X4.723Y-2.5105
X4.723Y-2.6105
X5.398Y-3.1355
X5.498Y-3.1355
X5.548Y-2.4105
X5.598Y-3.1355
X5.648Y-2.4105
X5.698Y-3.1355
X5.748Y-2.4105
X5.798Y-3.1355
X5.898Y-3.1355
T0
M30
