G04 #@! TF.GenerationSoftware,KiCad,Pcbnew,(5.0.0)*
G04 #@! TF.CreationDate,2019-08-30T17:40:10+01:00*
G04 #@! TF.ProjectId,A-GA,412D47412E6B696361645F7063620000,rev?*
G04 #@! TF.SameCoordinates,Original*
G04 #@! TF.FileFunction,Legend,Bot*
G04 #@! TF.FilePolarity,Positive*
%FSLAX46Y46*%
G04 Gerber Fmt 4.6, Leading zero omitted, Abs format (unit mm)*
G04 Created by KiCad (PCBNEW (5.0.0)) date 08/30/19 17:40:10*
%MOMM*%
%LPD*%
G01*
G04 APERTURE LIST*
%ADD10C,0.300000*%
%ADD11C,0.200000*%
%ADD12C,0.150000*%
%ADD13C,0.120000*%
G04 APERTURE END LIST*
D10*
X50428571Y-44250000D02*
X49714285Y-44250000D01*
X50571428Y-44678571D02*
X50071428Y-43178571D01*
X49571428Y-44678571D01*
X48642857Y-43178571D02*
X48642857Y-44250000D01*
X48714285Y-44464285D01*
X48857142Y-44607142D01*
X49071428Y-44678571D01*
X49214285Y-44678571D01*
X57642857Y-44250000D02*
X56928571Y-44250000D01*
X57785714Y-44678571D02*
X57285714Y-43178571D01*
X56785714Y-44678571D01*
X56285714Y-44678571D02*
X56285714Y-43178571D01*
X56285714Y-43892857D02*
X55428571Y-43892857D01*
X55428571Y-44678571D02*
X55428571Y-43178571D01*
X64500000Y-44500000D02*
X63785714Y-44500000D01*
X64642857Y-44928571D02*
X64142857Y-43428571D01*
X63642857Y-44928571D01*
X62642857Y-44142857D02*
X63142857Y-44142857D01*
X63142857Y-44928571D02*
X63142857Y-43428571D01*
X62428571Y-43428571D01*
X71535714Y-44500000D02*
X70821428Y-44500000D01*
X71678571Y-44928571D02*
X71178571Y-43428571D01*
X70678571Y-44928571D01*
X70178571Y-44142857D02*
X69678571Y-44142857D01*
X69464285Y-44928571D02*
X70178571Y-44928571D01*
X70178571Y-43428571D01*
X69464285Y-43428571D01*
X78607142Y-44500000D02*
X77892857Y-44500000D01*
X78750000Y-44928571D02*
X78250000Y-43428571D01*
X77750000Y-44928571D01*
X77250000Y-44928571D02*
X77250000Y-43428571D01*
X76892857Y-43428571D01*
X76678571Y-43500000D01*
X76535714Y-43642857D01*
X76464285Y-43785714D01*
X76392857Y-44071428D01*
X76392857Y-44285714D01*
X76464285Y-44571428D01*
X76535714Y-44714285D01*
X76678571Y-44857142D01*
X76892857Y-44928571D01*
X77250000Y-44928571D01*
X85607142Y-44500000D02*
X84892857Y-44500000D01*
X85750000Y-44928571D02*
X85250000Y-43428571D01*
X84750000Y-44928571D01*
X83392857Y-44785714D02*
X83464285Y-44857142D01*
X83678571Y-44928571D01*
X83821428Y-44928571D01*
X84035714Y-44857142D01*
X84178571Y-44714285D01*
X84250000Y-44571428D01*
X84321428Y-44285714D01*
X84321428Y-44071428D01*
X84250000Y-43785714D01*
X84178571Y-43642857D01*
X84035714Y-43500000D01*
X83821428Y-43428571D01*
X83678571Y-43428571D01*
X83464285Y-43500000D01*
X83392857Y-43571428D01*
X92607142Y-44500000D02*
X91892857Y-44500000D01*
X92750000Y-44928571D02*
X92250000Y-43428571D01*
X91750000Y-44928571D01*
X90750000Y-44142857D02*
X90535714Y-44214285D01*
X90464285Y-44285714D01*
X90392857Y-44428571D01*
X90392857Y-44642857D01*
X90464285Y-44785714D01*
X90535714Y-44857142D01*
X90678571Y-44928571D01*
X91250000Y-44928571D01*
X91250000Y-43428571D01*
X90750000Y-43428571D01*
X90607142Y-43500000D01*
X90535714Y-43571428D01*
X90464285Y-43714285D01*
X90464285Y-43857142D01*
X90535714Y-44000000D01*
X90607142Y-44071428D01*
X90750000Y-44142857D01*
X91250000Y-44142857D01*
X99500000Y-44500000D02*
X98785714Y-44500000D01*
X99642857Y-44928571D02*
X99142857Y-43428571D01*
X98642857Y-44928571D01*
X98214285Y-44500000D02*
X97500000Y-44500000D01*
X98357142Y-44928571D02*
X97857142Y-43428571D01*
X97357142Y-44928571D01*
X106000000Y-43428571D02*
X105000000Y-43428571D01*
X106000000Y-44928571D01*
X105000000Y-44928571D01*
X112500000Y-44214285D02*
X112500000Y-44928571D01*
X113000000Y-43428571D02*
X112500000Y-44214285D01*
X112000000Y-43428571D01*
X120000000Y-43428571D02*
X119000000Y-44928571D01*
X119000000Y-43428571D02*
X120000000Y-44928571D01*
X127142857Y-43428571D02*
X126785714Y-44928571D01*
X126500000Y-43857142D01*
X126214285Y-44928571D01*
X125857142Y-43428571D01*
X134000000Y-43428571D02*
X133500000Y-44928571D01*
X133000000Y-43428571D01*
X140928571Y-43428571D02*
X140928571Y-44642857D01*
X140857142Y-44785714D01*
X140785714Y-44857142D01*
X140642857Y-44928571D01*
X140357142Y-44928571D01*
X140214285Y-44857142D01*
X140142857Y-44785714D01*
X140071428Y-44642857D01*
X140071428Y-43428571D01*
X147928571Y-43428571D02*
X147071428Y-43428571D01*
X147500000Y-44928571D02*
X147500000Y-43428571D01*
X154928571Y-44857142D02*
X154714285Y-44928571D01*
X154357142Y-44928571D01*
X154214285Y-44857142D01*
X154142857Y-44785714D01*
X154071428Y-44642857D01*
X154071428Y-44500000D01*
X154142857Y-44357142D01*
X154214285Y-44285714D01*
X154357142Y-44214285D01*
X154642857Y-44142857D01*
X154785714Y-44071428D01*
X154857142Y-44000000D01*
X154928571Y-43857142D01*
X154928571Y-43714285D01*
X154857142Y-43571428D01*
X154785714Y-43500000D01*
X154642857Y-43428571D01*
X154285714Y-43428571D01*
X154071428Y-43500000D01*
X161035714Y-44928571D02*
X161535714Y-44214285D01*
X161892857Y-44928571D02*
X161892857Y-43428571D01*
X161321428Y-43428571D01*
X161178571Y-43500000D01*
X161107142Y-43571428D01*
X161035714Y-43714285D01*
X161035714Y-43928571D01*
X161107142Y-44071428D01*
X161178571Y-44142857D01*
X161321428Y-44214285D01*
X161892857Y-44214285D01*
X168892857Y-44928571D02*
X168892857Y-43428571D01*
X168321428Y-43428571D01*
X168178571Y-43500000D01*
X168107142Y-43571428D01*
X168035714Y-43714285D01*
X168035714Y-43928571D01*
X168107142Y-44071428D01*
X168178571Y-44142857D01*
X168321428Y-44214285D01*
X168892857Y-44214285D01*
X175928571Y-44928571D02*
X175928571Y-43428571D01*
X175071428Y-44928571D01*
X175071428Y-43428571D01*
X183000000Y-44928571D02*
X183000000Y-43428571D01*
X182500000Y-44500000D01*
X182000000Y-43428571D01*
X182000000Y-44928571D01*
X189035714Y-44928571D02*
X189750000Y-44928571D01*
X189750000Y-43428571D01*
X196892857Y-44928571D02*
X196892857Y-43428571D01*
X196035714Y-44928571D02*
X196678571Y-44071428D01*
X196035714Y-43428571D02*
X196892857Y-44285714D01*
X203285714Y-43428571D02*
X203285714Y-44500000D01*
X203357142Y-44714285D01*
X203500000Y-44857142D01*
X203714285Y-44928571D01*
X203857142Y-44928571D01*
X210928571Y-44928571D02*
X210928571Y-43428571D01*
X210928571Y-44142857D02*
X210071428Y-44142857D01*
X210071428Y-44928571D02*
X210071428Y-43428571D01*
X217285714Y-43892857D02*
X217785714Y-43892857D01*
X217785714Y-44678571D02*
X217785714Y-43178571D01*
X217071428Y-43178571D01*
X224821428Y-43892857D02*
X224321428Y-43892857D01*
X224107142Y-44678571D02*
X224821428Y-44678571D01*
X224821428Y-43178571D01*
X224107142Y-43178571D01*
X231892857Y-44678571D02*
X231892857Y-43178571D01*
X231535714Y-43178571D01*
X231321428Y-43250000D01*
X231178571Y-43392857D01*
X231107142Y-43535714D01*
X231035714Y-43821428D01*
X231035714Y-44035714D01*
X231107142Y-44321428D01*
X231178571Y-44464285D01*
X231321428Y-44607142D01*
X231535714Y-44678571D01*
X231892857Y-44678571D01*
X238035714Y-44535714D02*
X238107142Y-44607142D01*
X238321428Y-44678571D01*
X238464285Y-44678571D01*
X238678571Y-44607142D01*
X238821428Y-44464285D01*
X238892857Y-44321428D01*
X238964285Y-44035714D01*
X238964285Y-43821428D01*
X238892857Y-43535714D01*
X238821428Y-43392857D01*
X238678571Y-43250000D01*
X238464285Y-43178571D01*
X238321428Y-43178571D01*
X238107142Y-43250000D01*
X238035714Y-43321428D01*
X250285714Y-51678571D02*
X250000000Y-51678571D01*
X249857142Y-51607142D01*
X249785714Y-51535714D01*
X249642857Y-51321428D01*
X249571428Y-51035714D01*
X249571428Y-50464285D01*
X249642857Y-50321428D01*
X249714285Y-50250000D01*
X249857142Y-50178571D01*
X250142857Y-50178571D01*
X250285714Y-50250000D01*
X250357142Y-50321428D01*
X250428571Y-50464285D01*
X250428571Y-50821428D01*
X250357142Y-50964285D01*
X250285714Y-51035714D01*
X250142857Y-51107142D01*
X249857142Y-51107142D01*
X249714285Y-51035714D01*
X249642857Y-50964285D01*
X249571428Y-50821428D01*
X250500000Y-56178571D02*
X249500000Y-56178571D01*
X250142857Y-57678571D01*
X249642857Y-62178571D02*
X250357142Y-62178571D01*
X250428571Y-62892857D01*
X250357142Y-62821428D01*
X250214285Y-62750000D01*
X249857142Y-62750000D01*
X249714285Y-62821428D01*
X249642857Y-62892857D01*
X249571428Y-63035714D01*
X249571428Y-63392857D01*
X249642857Y-63535714D01*
X249714285Y-63607142D01*
X249857142Y-63678571D01*
X250214285Y-63678571D01*
X250357142Y-63607142D01*
X250428571Y-63535714D01*
X250500000Y-68178571D02*
X249571428Y-68178571D01*
X250071428Y-68750000D01*
X249857142Y-68750000D01*
X249714285Y-68821428D01*
X249642857Y-68892857D01*
X249571428Y-69035714D01*
X249571428Y-69392857D01*
X249642857Y-69535714D01*
X249714285Y-69607142D01*
X249857142Y-69678571D01*
X250285714Y-69678571D01*
X250428571Y-69607142D01*
X250500000Y-69535714D01*
X249571428Y-75678571D02*
X250428571Y-75678571D01*
X250000000Y-75678571D02*
X250000000Y-74178571D01*
X250142857Y-74392857D01*
X250285714Y-74535714D01*
X250428571Y-74607142D01*
X251035714Y-81678571D02*
X251892857Y-81678571D01*
X251464285Y-81678571D02*
X251464285Y-80178571D01*
X251607142Y-80392857D01*
X251750000Y-80535714D01*
X251892857Y-80607142D01*
X250107142Y-80178571D02*
X249964285Y-80178571D01*
X249821428Y-80250000D01*
X249750000Y-80321428D01*
X249678571Y-80464285D01*
X249607142Y-80750000D01*
X249607142Y-81107142D01*
X249678571Y-81392857D01*
X249750000Y-81535714D01*
X249821428Y-81607142D01*
X249964285Y-81678571D01*
X250107142Y-81678571D01*
X250250000Y-81607142D01*
X250321428Y-81535714D01*
X250392857Y-81392857D01*
X250464285Y-81107142D01*
X250464285Y-80750000D01*
X250392857Y-80464285D01*
X250321428Y-80321428D01*
X250250000Y-80250000D01*
X250107142Y-80178571D01*
X250142857Y-86821428D02*
X250285714Y-86750000D01*
X250357142Y-86678571D01*
X250428571Y-86535714D01*
X250428571Y-86464285D01*
X250357142Y-86321428D01*
X250285714Y-86250000D01*
X250142857Y-86178571D01*
X249857142Y-86178571D01*
X249714285Y-86250000D01*
X249642857Y-86321428D01*
X249571428Y-86464285D01*
X249571428Y-86535714D01*
X249642857Y-86678571D01*
X249714285Y-86750000D01*
X249857142Y-86821428D01*
X250142857Y-86821428D01*
X250285714Y-86892857D01*
X250357142Y-86964285D01*
X250428571Y-87107142D01*
X250428571Y-87392857D01*
X250357142Y-87535714D01*
X250285714Y-87607142D01*
X250142857Y-87678571D01*
X249857142Y-87678571D01*
X249714285Y-87607142D01*
X249642857Y-87535714D01*
X249571428Y-87392857D01*
X249571428Y-87107142D01*
X249642857Y-86964285D01*
X249714285Y-86892857D01*
X249857142Y-86821428D01*
X249714285Y-92178571D02*
X250000000Y-92178571D01*
X250142857Y-92250000D01*
X250214285Y-92321428D01*
X250357142Y-92535714D01*
X250428571Y-92821428D01*
X250428571Y-93392857D01*
X250357142Y-93535714D01*
X250285714Y-93607142D01*
X250142857Y-93678571D01*
X249857142Y-93678571D01*
X249714285Y-93607142D01*
X249642857Y-93535714D01*
X249571428Y-93392857D01*
X249571428Y-93035714D01*
X249642857Y-92892857D01*
X249714285Y-92821428D01*
X249857142Y-92750000D01*
X250142857Y-92750000D01*
X250285714Y-92821428D01*
X250357142Y-92892857D01*
X250428571Y-93035714D01*
X249714285Y-98678571D02*
X249714285Y-99678571D01*
X250071428Y-98107142D02*
X250428571Y-99178571D01*
X249500000Y-99178571D01*
X250678571Y-104321428D02*
X250607142Y-104250000D01*
X250464285Y-104178571D01*
X250107142Y-104178571D01*
X249964285Y-104250000D01*
X249892857Y-104321428D01*
X249821428Y-104464285D01*
X249821428Y-104607142D01*
X249892857Y-104821428D01*
X250750000Y-105678571D01*
X249821428Y-105678571D01*
D11*
X158000000Y-51000000D02*
X158000000Y-108000000D01*
X53000000Y-105000000D02*
X53000000Y-108000000D01*
X60000000Y-105000000D02*
X60000000Y-108000000D01*
X67000000Y-105000000D02*
X67000000Y-108000000D01*
X74000000Y-105000000D02*
X74000000Y-108000000D01*
X81000000Y-105000000D02*
X81000000Y-108000000D01*
X88000000Y-105000000D02*
X88000000Y-108000000D01*
X95000000Y-105000000D02*
X95000000Y-108000000D01*
X102000000Y-105000000D02*
X102000000Y-108000000D01*
X109000000Y-105000000D02*
X109000000Y-108000000D01*
X116000000Y-105000000D02*
X116000000Y-108000000D01*
X123000000Y-105000000D02*
X123000000Y-108000000D01*
X144000000Y-105000000D02*
X144000000Y-108000000D01*
X151000000Y-105000000D02*
X151000000Y-108000000D01*
X137000000Y-105000000D02*
X137000000Y-108000000D01*
X130000000Y-105000000D02*
X130000000Y-108000000D01*
X165000000Y-105000000D02*
X165000000Y-108000000D01*
X172000000Y-105000000D02*
X172000000Y-108000000D01*
X179000000Y-105000000D02*
X179000000Y-108000000D01*
X186000000Y-105000000D02*
X186000000Y-108000000D01*
X193000000Y-105000000D02*
X193000000Y-108000000D01*
X200000000Y-105000000D02*
X200000000Y-108000000D01*
X207000000Y-105000000D02*
X207000000Y-108000000D01*
X214000000Y-105000000D02*
X214000000Y-108000000D01*
X221000000Y-105000000D02*
X221000000Y-108000000D01*
X228000000Y-105000000D02*
X228000000Y-108000000D01*
X235000000Y-105000000D02*
X235000000Y-108000000D01*
X242000000Y-108000000D02*
X238500000Y-108000000D01*
X242000000Y-105000000D02*
X242000000Y-108000000D01*
X238500000Y-102000000D02*
X242000000Y-102000000D01*
X238500000Y-96000000D02*
X242000000Y-96000000D01*
X238500000Y-90000000D02*
X242000000Y-90000000D01*
X238500000Y-84000000D02*
X242000000Y-84000000D01*
X238500000Y-78000000D02*
X242000000Y-78000000D01*
X238500000Y-72000000D02*
X242000000Y-72000000D01*
X238500000Y-66000000D02*
X242000000Y-66000000D01*
X238500000Y-60000000D02*
X242000000Y-60000000D01*
X238500000Y-54000000D02*
X242000000Y-54000000D01*
X49500000Y-96000000D02*
X175500000Y-96000000D01*
X175500000Y-90000000D02*
X49500000Y-90000000D01*
X49000000Y-84000000D02*
X175500000Y-84000000D01*
X175500000Y-78000000D02*
X49500000Y-78000000D01*
X49500000Y-72000000D02*
X175500000Y-72000000D01*
X175500000Y-66000000D02*
X49500000Y-66000000D01*
X49500000Y-60000000D02*
X175500000Y-60000000D01*
X175500000Y-54000000D02*
X49500000Y-54000000D01*
X53000000Y-105000000D02*
X53000000Y-51000000D01*
X60000000Y-51000000D02*
X60000000Y-105000000D01*
X67000000Y-51000000D02*
X67000000Y-105000000D01*
X74000000Y-105000000D02*
X74000000Y-51000000D01*
X81000000Y-51000000D02*
X81000000Y-105000000D01*
X88000000Y-105000000D02*
X88000000Y-51000000D01*
X95000000Y-51000000D02*
X95000000Y-105000000D01*
X102000000Y-105000000D02*
X102000000Y-51000000D01*
X109000000Y-51000000D02*
X109000000Y-105000000D01*
X116000000Y-105000000D02*
X116000000Y-51000000D01*
X123000000Y-51000000D02*
X123000000Y-105000000D01*
X130000000Y-105000000D02*
X130000000Y-51000000D01*
X137000000Y-51000000D02*
X137000000Y-105000000D01*
X49000000Y-102500000D02*
X175500000Y-102000000D01*
X175500000Y-108000000D02*
X49500000Y-108000000D01*
X144000000Y-105000000D02*
X144000000Y-51000000D01*
X151000000Y-51000000D02*
X151000000Y-105000000D01*
X165000000Y-51000000D02*
X165000000Y-105500000D01*
X172000000Y-105000000D02*
X172000000Y-51000000D01*
X179000000Y-51000000D02*
X179000000Y-105000000D01*
X186000000Y-105000000D02*
X186000000Y-51000000D01*
X193000000Y-51000000D02*
X193000000Y-105000000D01*
X200000000Y-105000000D02*
X200000000Y-51000000D01*
X207000000Y-105000000D02*
X207000000Y-51000000D01*
X214000000Y-51000000D02*
X214000000Y-105000000D01*
X238500000Y-108000000D02*
X175500000Y-108000000D01*
X175500000Y-102000000D02*
X238500000Y-102000000D01*
X175500000Y-96000000D02*
X238500000Y-96000000D01*
X175500000Y-90000000D02*
X238500000Y-90000000D01*
X175500000Y-84000000D02*
X238500000Y-84000000D01*
X238500000Y-78000000D02*
X175500000Y-78000000D01*
X175500000Y-72000000D02*
X238500000Y-72000000D01*
X238500000Y-66000000D02*
X175500000Y-66000000D01*
X175500000Y-60000000D02*
X238500000Y-60000000D01*
X175500000Y-54000000D02*
X238500000Y-54000000D01*
X221000000Y-51000000D02*
X221000000Y-105000000D01*
X228000000Y-105500000D02*
X228000000Y-51000000D01*
X235000000Y-51000000D02*
X235000000Y-105000000D01*
X242000000Y-105000000D02*
X242000000Y-51000000D01*
D12*
G04 #@! TO.C,J1*
X120875000Y-30421000D02*
X120875000Y-30921000D01*
X120875000Y-30921000D02*
X126075000Y-30921000D01*
X126075000Y-30921000D02*
X126075000Y-25821000D01*
X37075000Y-30421000D02*
X37075000Y-30921000D01*
X37075000Y-30921000D02*
X31875000Y-30921000D01*
X31875000Y-30921000D02*
X31875000Y-25821000D01*
D13*
X119695000Y-30861000D02*
X120295000Y-30561000D01*
X120295000Y-30561000D02*
X120295000Y-31161000D01*
X120295000Y-31161000D02*
X119695000Y-30861000D01*
D12*
X123758333Y-31583380D02*
X123758333Y-32297666D01*
X123805952Y-32440523D01*
X123901190Y-32535761D01*
X124044047Y-32583380D01*
X124139285Y-32583380D01*
X122758333Y-32583380D02*
X123329761Y-32583380D01*
X123044047Y-32583380D02*
X123044047Y-31583380D01*
X123139285Y-31726238D01*
X123234523Y-31821476D01*
X123329761Y-31869095D01*
G04 #@! TD*
M02*
