G04 #@! TF.GenerationSoftware,KiCad,Pcbnew,(5.0.0)*
G04 #@! TF.CreationDate,2019-08-30T17:40:10+01:00*
G04 #@! TF.ProjectId,A-GA,412D47412E6B696361645F7063620000,rev?*
G04 #@! TF.SameCoordinates,Original*
G04 #@! TF.FileFunction,Other,User*
%FSLAX46Y46*%
G04 Gerber Fmt 4.6, Leading zero omitted, Abs format (unit mm)*
G04 Created by KiCad (PCBNEW (5.0.0)) date 08/30/19 17:40:10*
%MOMM*%
%LPD*%
G01*
G04 APERTURE LIST*
%ADD10C,0.050000*%
G04 APERTURE END LIST*
D10*
G04 #@! TO.C,TPLA11*
X62500000Y-117250000D02*
X59500000Y-117250000D01*
X62500000Y-117250000D02*
X62500000Y-114250000D01*
X59500000Y-114250000D02*
X59500000Y-117250000D01*
X59500000Y-114250000D02*
X62500000Y-114250000D01*
G04 #@! TO.C,C1*
X36500000Y-38250000D02*
G75*
G03X36500000Y-38250000I-4250000J0D01*
G01*
G04 #@! TO.C,C2*
X136750000Y-31750000D02*
G75*
G03X136750000Y-31750000I-4250000J0D01*
G01*
G04 #@! TO.C,TPX1*
X51300000Y-47000000D02*
G75*
G03X51300000Y-47000000I-1800000J0D01*
G01*
G04 #@! TO.C,TPX2*
X58300000Y-47000000D02*
G75*
G03X58300000Y-47000000I-1800000J0D01*
G01*
G04 #@! TO.C,TPX3*
X65300000Y-47000000D02*
G75*
G03X65300000Y-47000000I-1800000J0D01*
G01*
G04 #@! TO.C,TPX4*
X72300000Y-47000000D02*
G75*
G03X72300000Y-47000000I-1800000J0D01*
G01*
G04 #@! TO.C,TPX5*
X79300000Y-47000000D02*
G75*
G03X79300000Y-47000000I-1800000J0D01*
G01*
G04 #@! TO.C,TPX6*
X86300000Y-47000000D02*
G75*
G03X86300000Y-47000000I-1800000J0D01*
G01*
G04 #@! TO.C,TPX7*
X93300000Y-47000000D02*
G75*
G03X93300000Y-47000000I-1800000J0D01*
G01*
G04 #@! TO.C,TPX8*
X100300000Y-47000000D02*
G75*
G03X100300000Y-47000000I-1800000J0D01*
G01*
G04 #@! TO.C,TPX9*
X107300000Y-47000000D02*
G75*
G03X107300000Y-47000000I-1800000J0D01*
G01*
G04 #@! TO.C,TPX10*
X114300000Y-47000000D02*
G75*
G03X114300000Y-47000000I-1800000J0D01*
G01*
G04 #@! TO.C,TPX11*
X121300000Y-47000000D02*
G75*
G03X121300000Y-47000000I-1800000J0D01*
G01*
G04 #@! TO.C,TPX12*
X128300000Y-47000000D02*
G75*
G03X128300000Y-47000000I-1800000J0D01*
G01*
G04 #@! TO.C,TPX13*
X135300000Y-47000000D02*
G75*
G03X135300000Y-47000000I-1800000J0D01*
G01*
G04 #@! TO.C,TPX14*
X142300000Y-47000000D02*
G75*
G03X142300000Y-47000000I-1800000J0D01*
G01*
G04 #@! TO.C,TPX15*
X149300000Y-47000000D02*
G75*
G03X149300000Y-47000000I-1800000J0D01*
G01*
G04 #@! TO.C,TPX16*
X156300000Y-47000000D02*
G75*
G03X156300000Y-47000000I-1800000J0D01*
G01*
G04 #@! TO.C,TPX17*
X163300000Y-47000000D02*
G75*
G03X163300000Y-47000000I-1800000J0D01*
G01*
G04 #@! TO.C,TPX18*
X170300000Y-47000000D02*
G75*
G03X170300000Y-47000000I-1800000J0D01*
G01*
G04 #@! TO.C,TPY1*
X249300000Y-51000000D02*
G75*
G03X249300000Y-51000000I-1800000J0D01*
G01*
G04 #@! TO.C,TPY2*
X249300000Y-57000000D02*
G75*
G03X249300000Y-57000000I-1800000J0D01*
G01*
G04 #@! TO.C,TPY3*
X249300000Y-63000000D02*
G75*
G03X249300000Y-63000000I-1800000J0D01*
G01*
G04 #@! TO.C,TPY4*
X249300000Y-69000000D02*
G75*
G03X249300000Y-69000000I-1800000J0D01*
G01*
G04 #@! TO.C,TPY5*
X249300000Y-75000000D02*
G75*
G03X249300000Y-75000000I-1800000J0D01*
G01*
G04 #@! TO.C,TPY6*
X249300000Y-81000000D02*
G75*
G03X249300000Y-81000000I-1800000J0D01*
G01*
G04 #@! TO.C,TPY7*
X249300000Y-87000000D02*
G75*
G03X249300000Y-87000000I-1800000J0D01*
G01*
G04 #@! TO.C,TPY8*
X249300000Y-93000000D02*
G75*
G03X249300000Y-93000000I-1800000J0D01*
G01*
G04 #@! TO.C,TPY9*
X249300000Y-99000000D02*
G75*
G03X249300000Y-99000000I-1800000J0D01*
G01*
G04 #@! TO.C,TPY10*
X249300000Y-105000000D02*
G75*
G03X249300000Y-105000000I-1800000J0D01*
G01*
G04 #@! TO.C,TPX19*
X177300000Y-47000000D02*
G75*
G03X177300000Y-47000000I-1800000J0D01*
G01*
G04 #@! TO.C,TPX20*
X184300000Y-47000000D02*
G75*
G03X184300000Y-47000000I-1800000J0D01*
G01*
G04 #@! TO.C,TPX21*
X191300000Y-47000000D02*
G75*
G03X191300000Y-47000000I-1800000J0D01*
G01*
G04 #@! TO.C,TPX22*
X198300000Y-47000000D02*
G75*
G03X198300000Y-47000000I-1800000J0D01*
G01*
G04 #@! TO.C,TPX23*
X205300000Y-47000000D02*
G75*
G03X205300000Y-47000000I-1800000J0D01*
G01*
G04 #@! TO.C,TPX24*
X212300000Y-47000000D02*
G75*
G03X212300000Y-47000000I-1800000J0D01*
G01*
G04 #@! TO.C,TPX25*
X219300000Y-47000000D02*
G75*
G03X219300000Y-47000000I-1800000J0D01*
G01*
G04 #@! TO.C,TPX26*
X226300000Y-47000000D02*
G75*
G03X226300000Y-47000000I-1800000J0D01*
G01*
G04 #@! TO.C,TPX27*
X233300000Y-47000000D02*
G75*
G03X233300000Y-47000000I-1800000J0D01*
G01*
G04 #@! TO.C,TPX28*
X240300000Y-47000000D02*
G75*
G03X240300000Y-47000000I-1800000J0D01*
G01*
G04 #@! TO.C,TPG11*
X46800000Y-180500000D02*
G75*
G03X46800000Y-180500000I-1800000J0D01*
G01*
G04 #@! TO.C,TPG12*
X46800000Y-174500000D02*
G75*
G03X46800000Y-174500000I-1800000J0D01*
G01*
G04 #@! TO.C,TPG21*
X77300000Y-180500000D02*
G75*
G03X77300000Y-180500000I-1800000J0D01*
G01*
G04 #@! TO.C,TPG22*
X77300000Y-174500000D02*
G75*
G03X77300000Y-174500000I-1800000J0D01*
G01*
G04 #@! TO.C,TPG31*
X107800000Y-180500000D02*
G75*
G03X107800000Y-180500000I-1800000J0D01*
G01*
G04 #@! TO.C,TPG32*
X107800000Y-174500000D02*
G75*
G03X107800000Y-174500000I-1800000J0D01*
G01*
G04 #@! TO.C,TPG41*
X138300000Y-180500000D02*
G75*
G03X138300000Y-180500000I-1800000J0D01*
G01*
G04 #@! TO.C,TPG42*
X138300000Y-174500000D02*
G75*
G03X138300000Y-174500000I-1800000J0D01*
G01*
G04 #@! TO.C,TPG51*
X168800000Y-180500000D02*
G75*
G03X168800000Y-180500000I-1800000J0D01*
G01*
G04 #@! TO.C,TPG52*
X168800000Y-174500000D02*
G75*
G03X168800000Y-174500000I-1800000J0D01*
G01*
G04 #@! TO.C,TPG61*
X199300000Y-180500000D02*
G75*
G03X199300000Y-180500000I-1800000J0D01*
G01*
G04 #@! TO.C,TPG62*
X199300000Y-174500000D02*
G75*
G03X199300000Y-174500000I-1800000J0D01*
G01*
G04 #@! TO.C,TPI7*
X246300000Y-161000000D02*
G75*
G03X246300000Y-161000000I-1800000J0D01*
G01*
G04 #@! TO.C,TPI8*
X246300000Y-155500000D02*
G75*
G03X246300000Y-155500000I-1800000J0D01*
G01*
G04 #@! TO.C,TPI9*
X246300000Y-150000000D02*
G75*
G03X246300000Y-150000000I-1800000J0D01*
G01*
G04 #@! TO.C,TPI10*
X246300000Y-144500000D02*
G75*
G03X246300000Y-144500000I-1800000J0D01*
G01*
G04 #@! TO.C,TPI11*
X246300000Y-139000000D02*
G75*
G03X246300000Y-139000000I-1800000J0D01*
G01*
G04 #@! TO.C,TPI14*
X246300000Y-133500000D02*
G75*
G03X246300000Y-133500000I-1800000J0D01*
G01*
G04 #@! TO.C,TPI15*
X246300000Y-128000000D02*
G75*
G03X246300000Y-128000000I-1800000J0D01*
G01*
G04 #@! TO.C,TPI18*
X246300000Y-122500000D02*
G75*
G03X246300000Y-122500000I-1800000J0D01*
G01*
G04 #@! TO.C,TPI19*
X34550000Y-130500000D02*
G75*
G03X34550000Y-130500000I-1800000J0D01*
G01*
G04 #@! TO.C,TPI20*
X34550000Y-125500000D02*
G75*
G03X34550000Y-125500000I-1800000J0D01*
G01*
G04 #@! TO.C,TPI21*
X34550000Y-120000000D02*
G75*
G03X34550000Y-120000000I-1800000J0D01*
G01*
G04 #@! TO.C,TPI22*
X34550000Y-114500000D02*
G75*
G03X34550000Y-114500000I-1800000J0D01*
G01*
G04 #@! TO.C,TPI23*
X34550000Y-109000000D02*
G75*
G03X34550000Y-109000000I-1800000J0D01*
G01*
G04 #@! TO.C,TPI24*
X34550000Y-103500000D02*
G75*
G03X34550000Y-103500000I-1800000J0D01*
G01*
G04 #@! TO.C,TPI25*
X34550000Y-98000000D02*
G75*
G03X34550000Y-98000000I-1800000J0D01*
G01*
G04 #@! TO.C,TPI26*
X34550000Y-92500000D02*
G75*
G03X34550000Y-92500000I-1800000J0D01*
G01*
G04 #@! TO.C,TPG0*
X34300000Y-174500000D02*
G75*
G03X34300000Y-174500000I-1800000J0D01*
G01*
G04 #@! TO.C,TPLA1*
X63200000Y-154700000D02*
X70610000Y-154700000D01*
X63200000Y-154700000D02*
X63200000Y-158300000D01*
X70610000Y-158300000D02*
X70610000Y-154700000D01*
X70610000Y-158300000D02*
X63200000Y-158300000D01*
G04 #@! TO.C,TPLA2*
X70610000Y-154050000D02*
X63200000Y-154050000D01*
X70610000Y-154050000D02*
X70610000Y-150450000D01*
X63200000Y-150450000D02*
X63200000Y-154050000D01*
X63200000Y-150450000D02*
X70610000Y-150450000D01*
G04 #@! TO.C,TPLA3*
X63200000Y-146200000D02*
X70610000Y-146200000D01*
X63200000Y-146200000D02*
X63200000Y-149800000D01*
X70610000Y-149800000D02*
X70610000Y-146200000D01*
X70610000Y-149800000D02*
X63200000Y-149800000D01*
G04 #@! TO.C,TPLA4*
X70610000Y-143550000D02*
X63200000Y-143550000D01*
X70610000Y-143550000D02*
X70610000Y-139950000D01*
X63200000Y-139950000D02*
X63200000Y-143550000D01*
X63200000Y-139950000D02*
X70610000Y-139950000D01*
G04 #@! TO.C,TPLA5*
X63200000Y-135700000D02*
X70610000Y-135700000D01*
X63200000Y-135700000D02*
X63200000Y-139300000D01*
X70610000Y-139300000D02*
X70610000Y-135700000D01*
X70610000Y-139300000D02*
X63200000Y-139300000D01*
G04 #@! TO.C,TPLA6*
X70610000Y-135050000D02*
X63200000Y-135050000D01*
X70610000Y-135050000D02*
X70610000Y-131450000D01*
X63200000Y-131450000D02*
X63200000Y-135050000D01*
X63200000Y-131450000D02*
X70610000Y-131450000D01*
G04 #@! TO.C,TPLA12*
X57000000Y-117250000D02*
X54000000Y-117250000D01*
X57000000Y-117250000D02*
X57000000Y-114250000D01*
X54000000Y-114250000D02*
X54000000Y-117250000D01*
X54000000Y-114250000D02*
X57000000Y-114250000D01*
G04 #@! TO.C,TPLA13*
X48500000Y-114250000D02*
X51500000Y-114250000D01*
X48500000Y-114250000D02*
X48500000Y-117250000D01*
X51500000Y-117250000D02*
X51500000Y-114250000D01*
X51500000Y-117250000D02*
X48500000Y-117250000D01*
G04 #@! TO.C,MH1*
X167250000Y-52750000D02*
X169750000Y-52750000D01*
X167250000Y-52750000D02*
X167250000Y-55250000D01*
X169750000Y-55250000D02*
X169750000Y-52750000D01*
X169750000Y-55250000D02*
X167250000Y-55250000D01*
G04 #@! TO.C,MH2*
X142750000Y-49750000D02*
X145250000Y-49750000D01*
X142750000Y-49750000D02*
X142750000Y-52250000D01*
X145250000Y-52250000D02*
X145250000Y-49750000D01*
X145250000Y-52250000D02*
X142750000Y-52250000D01*
G04 #@! TO.C,MH3*
X110250000Y-52250000D02*
X107750000Y-52250000D01*
X110250000Y-52250000D02*
X110250000Y-49750000D01*
X107750000Y-49750000D02*
X107750000Y-52250000D01*
X107750000Y-49750000D02*
X110250000Y-49750000D01*
G04 #@! TO.C,MH4*
X152250000Y-52250000D02*
X149750000Y-52250000D01*
X152250000Y-52250000D02*
X152250000Y-49750000D01*
X149750000Y-49750000D02*
X149750000Y-52250000D01*
X149750000Y-49750000D02*
X152250000Y-49750000D01*
G04 #@! TO.C,MH5*
X117250000Y-52250000D02*
X114750000Y-52250000D01*
X117250000Y-52250000D02*
X117250000Y-49750000D01*
X114750000Y-49750000D02*
X114750000Y-52250000D01*
X114750000Y-49750000D02*
X117250000Y-49750000D01*
G04 #@! TO.C,MH6*
X121750000Y-49750000D02*
X124250000Y-49750000D01*
X121750000Y-49750000D02*
X121750000Y-52250000D01*
X124250000Y-52250000D02*
X124250000Y-49750000D01*
X124250000Y-52250000D02*
X121750000Y-52250000D01*
G04 #@! TO.C,MH7*
X159250000Y-52250000D02*
X156750000Y-52250000D01*
X159250000Y-52250000D02*
X159250000Y-49750000D01*
X156750000Y-49750000D02*
X156750000Y-52250000D01*
X156750000Y-49750000D02*
X159250000Y-49750000D01*
G04 #@! TO.C,MH8*
X128750000Y-49750000D02*
X131250000Y-49750000D01*
X128750000Y-49750000D02*
X128750000Y-52250000D01*
X131250000Y-52250000D02*
X131250000Y-49750000D01*
X131250000Y-52250000D02*
X128750000Y-52250000D01*
G04 #@! TO.C,MH9*
X138250000Y-52250000D02*
X135750000Y-52250000D01*
X138250000Y-52250000D02*
X138250000Y-49750000D01*
X135750000Y-49750000D02*
X135750000Y-52250000D01*
X135750000Y-49750000D02*
X138250000Y-49750000D01*
G04 #@! TO.C,MH10*
X163750000Y-49750000D02*
X166250000Y-49750000D01*
X163750000Y-49750000D02*
X163750000Y-52250000D01*
X166250000Y-52250000D02*
X166250000Y-49750000D01*
X166250000Y-52250000D02*
X163750000Y-52250000D01*
G04 #@! TO.C,MH11*
X169750000Y-61250000D02*
X167250000Y-61250000D01*
X169750000Y-61250000D02*
X169750000Y-58750000D01*
X167250000Y-58750000D02*
X167250000Y-61250000D01*
X167250000Y-58750000D02*
X169750000Y-58750000D01*
G04 #@! TO.C,MH12*
X163750000Y-55750000D02*
X166250000Y-55750000D01*
X163750000Y-55750000D02*
X163750000Y-58250000D01*
X166250000Y-58250000D02*
X166250000Y-55750000D01*
X166250000Y-58250000D02*
X163750000Y-58250000D01*
G04 #@! TO.C,MH13*
X160250000Y-94750000D02*
X162750000Y-94750000D01*
X160250000Y-94750000D02*
X160250000Y-97250000D01*
X162750000Y-97250000D02*
X162750000Y-94750000D01*
X162750000Y-97250000D02*
X160250000Y-97250000D01*
G04 #@! TO.C,MH14*
X153250000Y-94750000D02*
X155750000Y-94750000D01*
X153250000Y-94750000D02*
X153250000Y-97250000D01*
X155750000Y-97250000D02*
X155750000Y-94750000D01*
X155750000Y-97250000D02*
X153250000Y-97250000D01*
G04 #@! TO.C,MH15*
X148750000Y-55250000D02*
X146250000Y-55250000D01*
X148750000Y-55250000D02*
X148750000Y-52750000D01*
X146250000Y-52750000D02*
X146250000Y-55250000D01*
X146250000Y-52750000D02*
X148750000Y-52750000D01*
G04 #@! TO.C,MH16*
X139250000Y-64750000D02*
X141750000Y-64750000D01*
X139250000Y-64750000D02*
X139250000Y-67250000D01*
X141750000Y-67250000D02*
X141750000Y-64750000D01*
X141750000Y-67250000D02*
X139250000Y-67250000D01*
G04 #@! TO.C,MH17*
X134750000Y-55250000D02*
X132250000Y-55250000D01*
X134750000Y-55250000D02*
X134750000Y-52750000D01*
X132250000Y-52750000D02*
X132250000Y-55250000D01*
X132250000Y-52750000D02*
X134750000Y-52750000D01*
G04 #@! TO.C,MH18*
X125250000Y-52750000D02*
X127750000Y-52750000D01*
X125250000Y-52750000D02*
X125250000Y-55250000D01*
X127750000Y-55250000D02*
X127750000Y-52750000D01*
X127750000Y-55250000D02*
X125250000Y-55250000D01*
G04 #@! TO.C,MH19*
X120750000Y-55250000D02*
X118250000Y-55250000D01*
X120750000Y-55250000D02*
X120750000Y-52750000D01*
X118250000Y-52750000D02*
X118250000Y-55250000D01*
X118250000Y-52750000D02*
X120750000Y-52750000D01*
G04 #@! TO.C,MH20*
X111250000Y-52750000D02*
X113750000Y-52750000D01*
X111250000Y-52750000D02*
X111250000Y-55250000D01*
X113750000Y-55250000D02*
X113750000Y-52750000D01*
X113750000Y-55250000D02*
X111250000Y-55250000D01*
G04 #@! TO.C,MH21*
X106750000Y-55250000D02*
X104250000Y-55250000D01*
X106750000Y-55250000D02*
X106750000Y-52750000D01*
X104250000Y-52750000D02*
X104250000Y-55250000D01*
X104250000Y-52750000D02*
X106750000Y-52750000D01*
G04 #@! TO.C,MH22*
X97250000Y-52750000D02*
X99750000Y-52750000D01*
X97250000Y-52750000D02*
X97250000Y-55250000D01*
X99750000Y-55250000D02*
X99750000Y-52750000D01*
X99750000Y-55250000D02*
X97250000Y-55250000D01*
G04 #@! TO.C,MH23*
X90250000Y-52750000D02*
X92750000Y-52750000D01*
X90250000Y-52750000D02*
X90250000Y-55250000D01*
X92750000Y-55250000D02*
X92750000Y-52750000D01*
X92750000Y-55250000D02*
X90250000Y-55250000D01*
G04 #@! TO.C,MH24*
X83250000Y-52750000D02*
X85750000Y-52750000D01*
X83250000Y-52750000D02*
X83250000Y-55250000D01*
X85750000Y-55250000D02*
X85750000Y-52750000D01*
X85750000Y-55250000D02*
X83250000Y-55250000D01*
G04 #@! TO.C,MH25*
X78750000Y-55250000D02*
X76250000Y-55250000D01*
X78750000Y-55250000D02*
X78750000Y-52750000D01*
X76250000Y-52750000D02*
X76250000Y-55250000D01*
X76250000Y-52750000D02*
X78750000Y-52750000D01*
G04 #@! TO.C,MH26*
X69250000Y-82750000D02*
X71750000Y-82750000D01*
X69250000Y-82750000D02*
X69250000Y-85250000D01*
X71750000Y-85250000D02*
X71750000Y-82750000D01*
X71750000Y-85250000D02*
X69250000Y-85250000D01*
G04 #@! TO.C,MH27*
X64750000Y-55250000D02*
X62250000Y-55250000D01*
X64750000Y-55250000D02*
X64750000Y-52750000D01*
X62250000Y-52750000D02*
X62250000Y-55250000D01*
X62250000Y-52750000D02*
X64750000Y-52750000D01*
G04 #@! TO.C,MH28*
X55250000Y-52750000D02*
X57750000Y-52750000D01*
X55250000Y-52750000D02*
X55250000Y-55250000D01*
X57750000Y-55250000D02*
X57750000Y-52750000D01*
X57750000Y-55250000D02*
X55250000Y-55250000D01*
G04 #@! TO.C,MH29*
X50750000Y-91250000D02*
X48250000Y-91250000D01*
X50750000Y-91250000D02*
X50750000Y-88750000D01*
X48250000Y-88750000D02*
X48250000Y-91250000D01*
X48250000Y-88750000D02*
X50750000Y-88750000D01*
G04 #@! TO.C,MH30*
X170750000Y-49750000D02*
X173250000Y-49750000D01*
X170750000Y-49750000D02*
X170750000Y-52250000D01*
X173250000Y-52250000D02*
X173250000Y-49750000D01*
X173250000Y-52250000D02*
X170750000Y-52250000D01*
G04 #@! TO.C,MH31*
X61250000Y-52250000D02*
X58750000Y-52250000D01*
X61250000Y-52250000D02*
X61250000Y-49750000D01*
X58750000Y-49750000D02*
X58750000Y-52250000D01*
X58750000Y-49750000D02*
X61250000Y-49750000D01*
G04 #@! TO.C,MH32*
X93750000Y-49750000D02*
X96250000Y-49750000D01*
X93750000Y-49750000D02*
X93750000Y-52250000D01*
X96250000Y-52250000D02*
X96250000Y-49750000D01*
X96250000Y-52250000D02*
X93750000Y-52250000D01*
G04 #@! TO.C,MH33*
X79750000Y-49750000D02*
X82250000Y-49750000D01*
X79750000Y-49750000D02*
X79750000Y-52250000D01*
X82250000Y-52250000D02*
X82250000Y-49750000D01*
X82250000Y-52250000D02*
X79750000Y-52250000D01*
G04 #@! TO.C,MH34*
X100750000Y-49750000D02*
X103250000Y-49750000D01*
X100750000Y-49750000D02*
X100750000Y-52250000D01*
X103250000Y-52250000D02*
X103250000Y-49750000D01*
X103250000Y-52250000D02*
X100750000Y-52250000D01*
G04 #@! TO.C,MH35*
X72750000Y-49750000D02*
X75250000Y-49750000D01*
X72750000Y-49750000D02*
X72750000Y-52250000D01*
X75250000Y-52250000D02*
X75250000Y-49750000D01*
X75250000Y-52250000D02*
X72750000Y-52250000D01*
G04 #@! TO.C,MH36*
X89250000Y-52250000D02*
X86750000Y-52250000D01*
X89250000Y-52250000D02*
X89250000Y-49750000D01*
X86750000Y-49750000D02*
X86750000Y-52250000D01*
X86750000Y-49750000D02*
X89250000Y-49750000D01*
G04 #@! TO.C,MH37*
X51750000Y-49750000D02*
X54250000Y-49750000D01*
X51750000Y-49750000D02*
X51750000Y-52250000D01*
X54250000Y-52250000D02*
X54250000Y-49750000D01*
X54250000Y-52250000D02*
X51750000Y-52250000D01*
G04 #@! TO.C,MH38*
X68250000Y-52250000D02*
X65750000Y-52250000D01*
X68250000Y-52250000D02*
X68250000Y-49750000D01*
X65750000Y-49750000D02*
X65750000Y-52250000D01*
X65750000Y-49750000D02*
X68250000Y-49750000D01*
G04 #@! TO.C,MH39*
X160250000Y-52750000D02*
X162750000Y-52750000D01*
X160250000Y-52750000D02*
X160250000Y-55250000D01*
X162750000Y-55250000D02*
X162750000Y-52750000D01*
X162750000Y-55250000D02*
X160250000Y-55250000D01*
G04 #@! TO.C,MH40*
X155750000Y-55250000D02*
X153250000Y-55250000D01*
X155750000Y-55250000D02*
X155750000Y-52750000D01*
X153250000Y-52750000D02*
X153250000Y-55250000D01*
X153250000Y-52750000D02*
X155750000Y-52750000D01*
G04 #@! TO.C,MH41*
X148750000Y-103250000D02*
X146250000Y-103250000D01*
X148750000Y-103250000D02*
X148750000Y-100750000D01*
X146250000Y-100750000D02*
X146250000Y-103250000D01*
X146250000Y-100750000D02*
X148750000Y-100750000D01*
G04 #@! TO.C,MH42*
X139250000Y-106750000D02*
X141750000Y-106750000D01*
X139250000Y-106750000D02*
X139250000Y-109250000D01*
X141750000Y-109250000D02*
X141750000Y-106750000D01*
X141750000Y-109250000D02*
X139250000Y-109250000D01*
G04 #@! TO.C,MH43*
X134750000Y-109250000D02*
X132250000Y-109250000D01*
X134750000Y-109250000D02*
X134750000Y-106750000D01*
X132250000Y-106750000D02*
X132250000Y-109250000D01*
X132250000Y-106750000D02*
X134750000Y-106750000D01*
G04 #@! TO.C,MH44*
X125250000Y-106750000D02*
X127750000Y-106750000D01*
X125250000Y-106750000D02*
X125250000Y-109250000D01*
X127750000Y-109250000D02*
X127750000Y-106750000D01*
X127750000Y-109250000D02*
X125250000Y-109250000D01*
G04 #@! TO.C,MH45*
X120750000Y-97250000D02*
X118250000Y-97250000D01*
X120750000Y-97250000D02*
X120750000Y-94750000D01*
X118250000Y-94750000D02*
X118250000Y-97250000D01*
X118250000Y-94750000D02*
X120750000Y-94750000D01*
G04 #@! TO.C,MH46*
X111250000Y-106750000D02*
X113750000Y-106750000D01*
X111250000Y-106750000D02*
X111250000Y-109250000D01*
X113750000Y-109250000D02*
X113750000Y-106750000D01*
X113750000Y-109250000D02*
X111250000Y-109250000D01*
G04 #@! TO.C,MH47*
X106750000Y-61250000D02*
X104250000Y-61250000D01*
X106750000Y-61250000D02*
X106750000Y-58750000D01*
X104250000Y-58750000D02*
X104250000Y-61250000D01*
X104250000Y-58750000D02*
X106750000Y-58750000D01*
G04 #@! TO.C,MH48*
X97250000Y-58750000D02*
X99750000Y-58750000D01*
X97250000Y-58750000D02*
X97250000Y-61250000D01*
X99750000Y-61250000D02*
X99750000Y-58750000D01*
X99750000Y-61250000D02*
X97250000Y-61250000D01*
G04 #@! TO.C,MH49*
X90250000Y-106750000D02*
X92750000Y-106750000D01*
X90250000Y-106750000D02*
X90250000Y-109250000D01*
X92750000Y-109250000D02*
X92750000Y-106750000D01*
X92750000Y-109250000D02*
X90250000Y-109250000D01*
G04 #@! TO.C,MH50*
X83250000Y-106750000D02*
X85750000Y-106750000D01*
X83250000Y-106750000D02*
X83250000Y-109250000D01*
X85750000Y-109250000D02*
X85750000Y-106750000D01*
X85750000Y-109250000D02*
X83250000Y-109250000D01*
G04 #@! TO.C,MH51*
X78750000Y-61250000D02*
X76250000Y-61250000D01*
X78750000Y-61250000D02*
X78750000Y-58750000D01*
X76250000Y-58750000D02*
X76250000Y-61250000D01*
X76250000Y-58750000D02*
X78750000Y-58750000D01*
G04 #@! TO.C,MH52*
X69250000Y-106750000D02*
X71750000Y-106750000D01*
X69250000Y-106750000D02*
X69250000Y-109250000D01*
X71750000Y-109250000D02*
X71750000Y-106750000D01*
X71750000Y-109250000D02*
X69250000Y-109250000D01*
G04 #@! TO.C,MH53*
X64750000Y-73250000D02*
X62250000Y-73250000D01*
X64750000Y-73250000D02*
X64750000Y-70750000D01*
X62250000Y-70750000D02*
X62250000Y-73250000D01*
X62250000Y-70750000D02*
X64750000Y-70750000D01*
G04 #@! TO.C,MH54*
X55250000Y-70750000D02*
X57750000Y-70750000D01*
X55250000Y-70750000D02*
X55250000Y-73250000D01*
X57750000Y-73250000D02*
X57750000Y-70750000D01*
X57750000Y-73250000D02*
X55250000Y-73250000D01*
G04 #@! TO.C,MH55*
X50750000Y-61250000D02*
X48250000Y-61250000D01*
X50750000Y-61250000D02*
X50750000Y-58750000D01*
X48250000Y-58750000D02*
X48250000Y-61250000D01*
X48250000Y-58750000D02*
X50750000Y-58750000D01*
G04 #@! TO.C,MH56*
X128750000Y-55750000D02*
X131250000Y-55750000D01*
X128750000Y-55750000D02*
X128750000Y-58250000D01*
X131250000Y-58250000D02*
X131250000Y-55750000D01*
X131250000Y-58250000D02*
X128750000Y-58250000D01*
G04 #@! TO.C,MH57*
X149750000Y-55750000D02*
X152250000Y-55750000D01*
X149750000Y-55750000D02*
X149750000Y-58250000D01*
X152250000Y-58250000D02*
X152250000Y-55750000D01*
X152250000Y-58250000D02*
X149750000Y-58250000D01*
G04 #@! TO.C,MH58*
X124250000Y-58250000D02*
X121750000Y-58250000D01*
X124250000Y-58250000D02*
X124250000Y-55750000D01*
X121750000Y-55750000D02*
X121750000Y-58250000D01*
X121750000Y-55750000D02*
X124250000Y-55750000D01*
G04 #@! TO.C,MH59*
X51750000Y-55750000D02*
X54250000Y-55750000D01*
X51750000Y-55750000D02*
X51750000Y-58250000D01*
X54250000Y-58250000D02*
X54250000Y-55750000D01*
X54250000Y-58250000D02*
X51750000Y-58250000D01*
G04 #@! TO.C,MH60*
X173250000Y-58250000D02*
X170750000Y-58250000D01*
X173250000Y-58250000D02*
X173250000Y-55750000D01*
X170750000Y-55750000D02*
X170750000Y-58250000D01*
X170750000Y-55750000D02*
X173250000Y-55750000D01*
G04 #@! TO.C,MH61*
X75250000Y-58250000D02*
X72750000Y-58250000D01*
X75250000Y-58250000D02*
X75250000Y-55750000D01*
X72750000Y-55750000D02*
X72750000Y-58250000D01*
X72750000Y-55750000D02*
X75250000Y-55750000D01*
G04 #@! TO.C,MH62*
X159250000Y-58250000D02*
X156750000Y-58250000D01*
X159250000Y-58250000D02*
X159250000Y-55750000D01*
X156750000Y-55750000D02*
X156750000Y-58250000D01*
X156750000Y-55750000D02*
X159250000Y-55750000D01*
G04 #@! TO.C,MH63*
X100750000Y-55750000D02*
X103250000Y-55750000D01*
X100750000Y-55750000D02*
X100750000Y-58250000D01*
X103250000Y-58250000D02*
X103250000Y-55750000D01*
X103250000Y-58250000D02*
X100750000Y-58250000D01*
G04 #@! TO.C,MH64*
X96250000Y-58250000D02*
X93750000Y-58250000D01*
X96250000Y-58250000D02*
X96250000Y-55750000D01*
X93750000Y-55750000D02*
X93750000Y-58250000D01*
X93750000Y-55750000D02*
X96250000Y-55750000D01*
G04 #@! TO.C,MH65*
X107750000Y-55750000D02*
X110250000Y-55750000D01*
X107750000Y-55750000D02*
X107750000Y-58250000D01*
X110250000Y-58250000D02*
X110250000Y-55750000D01*
X110250000Y-58250000D02*
X107750000Y-58250000D01*
G04 #@! TO.C,MH66*
X145250000Y-58250000D02*
X142750000Y-58250000D01*
X145250000Y-58250000D02*
X145250000Y-55750000D01*
X142750000Y-55750000D02*
X142750000Y-58250000D01*
X142750000Y-55750000D02*
X145250000Y-55750000D01*
G04 #@! TO.C,MH67*
X86750000Y-55750000D02*
X89250000Y-55750000D01*
X86750000Y-55750000D02*
X86750000Y-58250000D01*
X89250000Y-58250000D02*
X89250000Y-55750000D01*
X89250000Y-58250000D02*
X86750000Y-58250000D01*
G04 #@! TO.C,MH68*
X68250000Y-58250000D02*
X65750000Y-58250000D01*
X68250000Y-58250000D02*
X68250000Y-55750000D01*
X65750000Y-55750000D02*
X65750000Y-58250000D01*
X65750000Y-55750000D02*
X68250000Y-55750000D01*
G04 #@! TO.C,MH69*
X58750000Y-55750000D02*
X61250000Y-55750000D01*
X58750000Y-55750000D02*
X58750000Y-58250000D01*
X61250000Y-58250000D02*
X61250000Y-55750000D01*
X61250000Y-58250000D02*
X58750000Y-58250000D01*
G04 #@! TO.C,MH70*
X138250000Y-58250000D02*
X135750000Y-58250000D01*
X138250000Y-58250000D02*
X138250000Y-55750000D01*
X135750000Y-55750000D02*
X135750000Y-58250000D01*
X135750000Y-55750000D02*
X138250000Y-55750000D01*
G04 #@! TO.C,MH71*
X114750000Y-55750000D02*
X117250000Y-55750000D01*
X114750000Y-55750000D02*
X114750000Y-58250000D01*
X117250000Y-58250000D02*
X117250000Y-55750000D01*
X117250000Y-58250000D02*
X114750000Y-58250000D01*
G04 #@! TO.C,MH72*
X82250000Y-58250000D02*
X79750000Y-58250000D01*
X82250000Y-58250000D02*
X82250000Y-55750000D01*
X79750000Y-55750000D02*
X79750000Y-58250000D01*
X79750000Y-55750000D02*
X82250000Y-55750000D01*
G04 #@! TO.C,MH73*
X169750000Y-67250000D02*
X167250000Y-67250000D01*
X169750000Y-67250000D02*
X169750000Y-64750000D01*
X167250000Y-64750000D02*
X167250000Y-67250000D01*
X167250000Y-64750000D02*
X169750000Y-64750000D01*
G04 #@! TO.C,MH74*
X166250000Y-64250000D02*
X163750000Y-64250000D01*
X166250000Y-64250000D02*
X166250000Y-61750000D01*
X163750000Y-61750000D02*
X163750000Y-64250000D01*
X163750000Y-61750000D02*
X166250000Y-61750000D01*
G04 #@! TO.C,MH75*
X142750000Y-61750000D02*
X145250000Y-61750000D01*
X142750000Y-61750000D02*
X142750000Y-64250000D01*
X145250000Y-64250000D02*
X145250000Y-61750000D01*
X145250000Y-64250000D02*
X142750000Y-64250000D01*
G04 #@! TO.C,MH76*
X131250000Y-64250000D02*
X128750000Y-64250000D01*
X131250000Y-64250000D02*
X131250000Y-61750000D01*
X128750000Y-61750000D02*
X128750000Y-64250000D01*
X128750000Y-61750000D02*
X131250000Y-61750000D01*
G04 #@! TO.C,MH77*
X121750000Y-61750000D02*
X124250000Y-61750000D01*
X121750000Y-61750000D02*
X121750000Y-64250000D01*
X124250000Y-64250000D02*
X124250000Y-61750000D01*
X124250000Y-64250000D02*
X121750000Y-64250000D01*
G04 #@! TO.C,MH78*
X138250000Y-64250000D02*
X135750000Y-64250000D01*
X138250000Y-64250000D02*
X138250000Y-61750000D01*
X135750000Y-61750000D02*
X135750000Y-64250000D01*
X135750000Y-61750000D02*
X138250000Y-61750000D01*
G04 #@! TO.C,MH79*
X86750000Y-61750000D02*
X89250000Y-61750000D01*
X86750000Y-61750000D02*
X86750000Y-64250000D01*
X89250000Y-64250000D02*
X89250000Y-61750000D01*
X89250000Y-64250000D02*
X86750000Y-64250000D01*
G04 #@! TO.C,MH80*
X96250000Y-64250000D02*
X93750000Y-64250000D01*
X96250000Y-64250000D02*
X96250000Y-61750000D01*
X93750000Y-61750000D02*
X93750000Y-64250000D01*
X93750000Y-61750000D02*
X96250000Y-61750000D01*
G04 #@! TO.C,MH81*
X51750000Y-61750000D02*
X54250000Y-61750000D01*
X51750000Y-61750000D02*
X51750000Y-64250000D01*
X54250000Y-64250000D02*
X54250000Y-61750000D01*
X54250000Y-64250000D02*
X51750000Y-64250000D01*
G04 #@! TO.C,MH82*
X159250000Y-64250000D02*
X156750000Y-64250000D01*
X159250000Y-64250000D02*
X159250000Y-61750000D01*
X156750000Y-61750000D02*
X156750000Y-64250000D01*
X156750000Y-61750000D02*
X159250000Y-61750000D01*
G04 #@! TO.C,MH83*
X170750000Y-61750000D02*
X173250000Y-61750000D01*
X170750000Y-61750000D02*
X170750000Y-64250000D01*
X173250000Y-64250000D02*
X173250000Y-61750000D01*
X173250000Y-64250000D02*
X170750000Y-64250000D01*
G04 #@! TO.C,MH84*
X61250000Y-64250000D02*
X58750000Y-64250000D01*
X61250000Y-64250000D02*
X61250000Y-61750000D01*
X58750000Y-61750000D02*
X58750000Y-64250000D01*
X58750000Y-61750000D02*
X61250000Y-61750000D01*
G04 #@! TO.C,MH85*
X152250000Y-64250000D02*
X149750000Y-64250000D01*
X152250000Y-64250000D02*
X152250000Y-61750000D01*
X149750000Y-61750000D02*
X149750000Y-64250000D01*
X149750000Y-61750000D02*
X152250000Y-61750000D01*
G04 #@! TO.C,MH86*
X79750000Y-61750000D02*
X82250000Y-61750000D01*
X79750000Y-61750000D02*
X79750000Y-64250000D01*
X82250000Y-64250000D02*
X82250000Y-61750000D01*
X82250000Y-64250000D02*
X79750000Y-64250000D01*
G04 #@! TO.C,MH87*
X68250000Y-64250000D02*
X65750000Y-64250000D01*
X68250000Y-64250000D02*
X68250000Y-61750000D01*
X65750000Y-61750000D02*
X65750000Y-64250000D01*
X65750000Y-61750000D02*
X68250000Y-61750000D01*
G04 #@! TO.C,MH88*
X72750000Y-61750000D02*
X75250000Y-61750000D01*
X72750000Y-61750000D02*
X72750000Y-64250000D01*
X75250000Y-64250000D02*
X75250000Y-61750000D01*
X75250000Y-64250000D02*
X72750000Y-64250000D01*
G04 #@! TO.C,MH89*
X103250000Y-64250000D02*
X100750000Y-64250000D01*
X103250000Y-64250000D02*
X103250000Y-61750000D01*
X100750000Y-61750000D02*
X100750000Y-64250000D01*
X100750000Y-61750000D02*
X103250000Y-61750000D01*
G04 #@! TO.C,MH90*
X107750000Y-61750000D02*
X110250000Y-61750000D01*
X107750000Y-61750000D02*
X107750000Y-64250000D01*
X110250000Y-64250000D02*
X110250000Y-61750000D01*
X110250000Y-64250000D02*
X107750000Y-64250000D01*
G04 #@! TO.C,MH91*
X117250000Y-64250000D02*
X114750000Y-64250000D01*
X117250000Y-64250000D02*
X117250000Y-61750000D01*
X114750000Y-61750000D02*
X114750000Y-64250000D01*
X114750000Y-61750000D02*
X117250000Y-61750000D01*
G04 #@! TO.C,MH92*
X107750000Y-67750000D02*
X110250000Y-67750000D01*
X107750000Y-67750000D02*
X107750000Y-70250000D01*
X110250000Y-70250000D02*
X110250000Y-67750000D01*
X110250000Y-70250000D02*
X107750000Y-70250000D01*
G04 #@! TO.C,MH93*
X89250000Y-70250000D02*
X86750000Y-70250000D01*
X89250000Y-70250000D02*
X89250000Y-67750000D01*
X86750000Y-67750000D02*
X86750000Y-70250000D01*
X86750000Y-67750000D02*
X89250000Y-67750000D01*
G04 #@! TO.C,MH94*
X54250000Y-70250000D02*
X51750000Y-70250000D01*
X54250000Y-70250000D02*
X54250000Y-67750000D01*
X51750000Y-67750000D02*
X51750000Y-70250000D01*
X51750000Y-67750000D02*
X54250000Y-67750000D01*
G04 #@! TO.C,MH95*
X173250000Y-70250000D02*
X170750000Y-70250000D01*
X173250000Y-70250000D02*
X173250000Y-67750000D01*
X170750000Y-67750000D02*
X170750000Y-70250000D01*
X170750000Y-67750000D02*
X173250000Y-67750000D01*
G04 #@! TO.C,MH96*
X65750000Y-67750000D02*
X68250000Y-67750000D01*
X65750000Y-67750000D02*
X65750000Y-70250000D01*
X68250000Y-70250000D02*
X68250000Y-67750000D01*
X68250000Y-70250000D02*
X65750000Y-70250000D01*
G04 #@! TO.C,MH97*
X166250000Y-70250000D02*
X163750000Y-70250000D01*
X166250000Y-70250000D02*
X166250000Y-67750000D01*
X163750000Y-67750000D02*
X163750000Y-70250000D01*
X163750000Y-67750000D02*
X166250000Y-67750000D01*
G04 #@! TO.C,MH98*
X128750000Y-67750000D02*
X131250000Y-67750000D01*
X128750000Y-67750000D02*
X128750000Y-70250000D01*
X131250000Y-70250000D02*
X131250000Y-67750000D01*
X131250000Y-70250000D02*
X128750000Y-70250000D01*
G04 #@! TO.C,MH99*
X82250000Y-70250000D02*
X79750000Y-70250000D01*
X82250000Y-70250000D02*
X82250000Y-67750000D01*
X79750000Y-67750000D02*
X79750000Y-70250000D01*
X79750000Y-67750000D02*
X82250000Y-67750000D01*
G04 #@! TO.C,MH100*
X93750000Y-67750000D02*
X96250000Y-67750000D01*
X93750000Y-67750000D02*
X93750000Y-70250000D01*
X96250000Y-70250000D02*
X96250000Y-67750000D01*
X96250000Y-70250000D02*
X93750000Y-70250000D01*
G04 #@! TO.C,MH101*
X75250000Y-70250000D02*
X72750000Y-70250000D01*
X75250000Y-70250000D02*
X75250000Y-67750000D01*
X72750000Y-67750000D02*
X72750000Y-70250000D01*
X72750000Y-67750000D02*
X75250000Y-67750000D01*
G04 #@! TO.C,MH102*
X149750000Y-67750000D02*
X152250000Y-67750000D01*
X149750000Y-67750000D02*
X149750000Y-70250000D01*
X152250000Y-70250000D02*
X152250000Y-67750000D01*
X152250000Y-70250000D02*
X149750000Y-70250000D01*
G04 #@! TO.C,MH103*
X103250000Y-70250000D02*
X100750000Y-70250000D01*
X103250000Y-70250000D02*
X103250000Y-67750000D01*
X100750000Y-67750000D02*
X100750000Y-70250000D01*
X100750000Y-67750000D02*
X103250000Y-67750000D01*
G04 #@! TO.C,MH104*
X159250000Y-70250000D02*
X156750000Y-70250000D01*
X159250000Y-70250000D02*
X159250000Y-67750000D01*
X156750000Y-67750000D02*
X156750000Y-70250000D01*
X156750000Y-67750000D02*
X159250000Y-67750000D01*
G04 #@! TO.C,MH105*
X124250000Y-70250000D02*
X121750000Y-70250000D01*
X124250000Y-70250000D02*
X124250000Y-67750000D01*
X121750000Y-67750000D02*
X121750000Y-70250000D01*
X121750000Y-67750000D02*
X124250000Y-67750000D01*
G04 #@! TO.C,MH106*
X114750000Y-67750000D02*
X117250000Y-67750000D01*
X114750000Y-67750000D02*
X114750000Y-70250000D01*
X117250000Y-70250000D02*
X117250000Y-67750000D01*
X117250000Y-70250000D02*
X114750000Y-70250000D01*
G04 #@! TO.C,MH107*
X145250000Y-70250000D02*
X142750000Y-70250000D01*
X145250000Y-70250000D02*
X145250000Y-67750000D01*
X142750000Y-67750000D02*
X142750000Y-70250000D01*
X142750000Y-67750000D02*
X145250000Y-67750000D01*
G04 #@! TO.C,MH108*
X135750000Y-67750000D02*
X138250000Y-67750000D01*
X135750000Y-67750000D02*
X135750000Y-70250000D01*
X138250000Y-70250000D02*
X138250000Y-67750000D01*
X138250000Y-70250000D02*
X135750000Y-70250000D01*
G04 #@! TO.C,MH109*
X61250000Y-70250000D02*
X58750000Y-70250000D01*
X61250000Y-70250000D02*
X61250000Y-67750000D01*
X58750000Y-67750000D02*
X58750000Y-70250000D01*
X58750000Y-67750000D02*
X61250000Y-67750000D01*
G04 #@! TO.C,MH110*
X135750000Y-73750000D02*
X138250000Y-73750000D01*
X135750000Y-73750000D02*
X135750000Y-76250000D01*
X138250000Y-76250000D02*
X138250000Y-73750000D01*
X138250000Y-76250000D02*
X135750000Y-76250000D01*
G04 #@! TO.C,MH111*
X96250000Y-76250000D02*
X93750000Y-76250000D01*
X96250000Y-76250000D02*
X96250000Y-73750000D01*
X93750000Y-73750000D02*
X93750000Y-76250000D01*
X93750000Y-73750000D02*
X96250000Y-73750000D01*
G04 #@! TO.C,MH112*
X163750000Y-73750000D02*
X166250000Y-73750000D01*
X163750000Y-73750000D02*
X163750000Y-76250000D01*
X166250000Y-76250000D02*
X166250000Y-73750000D01*
X166250000Y-76250000D02*
X163750000Y-76250000D01*
G04 #@! TO.C,MH113*
X61250000Y-76250000D02*
X58750000Y-76250000D01*
X61250000Y-76250000D02*
X61250000Y-73750000D01*
X58750000Y-73750000D02*
X58750000Y-76250000D01*
X58750000Y-73750000D02*
X61250000Y-73750000D01*
G04 #@! TO.C,MH114*
X72750000Y-73750000D02*
X75250000Y-73750000D01*
X72750000Y-73750000D02*
X72750000Y-76250000D01*
X75250000Y-76250000D02*
X75250000Y-73750000D01*
X75250000Y-76250000D02*
X72750000Y-76250000D01*
G04 #@! TO.C,MH115*
X121750000Y-73750000D02*
X124250000Y-73750000D01*
X121750000Y-73750000D02*
X121750000Y-76250000D01*
X124250000Y-76250000D02*
X124250000Y-73750000D01*
X124250000Y-76250000D02*
X121750000Y-76250000D01*
G04 #@! TO.C,MH116*
X117250000Y-76250000D02*
X114750000Y-76250000D01*
X117250000Y-76250000D02*
X117250000Y-73750000D01*
X114750000Y-73750000D02*
X114750000Y-76250000D01*
X114750000Y-73750000D02*
X117250000Y-73750000D01*
G04 #@! TO.C,MH117*
X86750000Y-73750000D02*
X89250000Y-73750000D01*
X86750000Y-73750000D02*
X86750000Y-76250000D01*
X89250000Y-76250000D02*
X89250000Y-73750000D01*
X89250000Y-76250000D02*
X86750000Y-76250000D01*
G04 #@! TO.C,MH118*
X82250000Y-76250000D02*
X79750000Y-76250000D01*
X82250000Y-76250000D02*
X82250000Y-73750000D01*
X79750000Y-73750000D02*
X79750000Y-76250000D01*
X79750000Y-73750000D02*
X82250000Y-73750000D01*
G04 #@! TO.C,MH119*
X142750000Y-73750000D02*
X145250000Y-73750000D01*
X142750000Y-73750000D02*
X142750000Y-76250000D01*
X145250000Y-76250000D02*
X145250000Y-73750000D01*
X145250000Y-76250000D02*
X142750000Y-76250000D01*
G04 #@! TO.C,MH120*
X110250000Y-76250000D02*
X107750000Y-76250000D01*
X110250000Y-76250000D02*
X110250000Y-73750000D01*
X107750000Y-73750000D02*
X107750000Y-76250000D01*
X107750000Y-73750000D02*
X110250000Y-73750000D01*
G04 #@! TO.C,MH121*
X100750000Y-73750000D02*
X103250000Y-73750000D01*
X100750000Y-73750000D02*
X100750000Y-76250000D01*
X103250000Y-76250000D02*
X103250000Y-73750000D01*
X103250000Y-76250000D02*
X100750000Y-76250000D01*
G04 #@! TO.C,MH122*
X173250000Y-76250000D02*
X170750000Y-76250000D01*
X173250000Y-76250000D02*
X173250000Y-73750000D01*
X170750000Y-73750000D02*
X170750000Y-76250000D01*
X170750000Y-73750000D02*
X173250000Y-73750000D01*
G04 #@! TO.C,MH123*
X156750000Y-73750000D02*
X159250000Y-73750000D01*
X156750000Y-73750000D02*
X156750000Y-76250000D01*
X159250000Y-76250000D02*
X159250000Y-73750000D01*
X159250000Y-76250000D02*
X156750000Y-76250000D01*
G04 #@! TO.C,MH124*
X51750000Y-73750000D02*
X54250000Y-73750000D01*
X51750000Y-73750000D02*
X51750000Y-76250000D01*
X54250000Y-76250000D02*
X54250000Y-73750000D01*
X54250000Y-76250000D02*
X51750000Y-76250000D01*
G04 #@! TO.C,MH125*
X128750000Y-73750000D02*
X131250000Y-73750000D01*
X128750000Y-73750000D02*
X128750000Y-76250000D01*
X131250000Y-76250000D02*
X131250000Y-73750000D01*
X131250000Y-76250000D02*
X128750000Y-76250000D01*
G04 #@! TO.C,MH126*
X68250000Y-76250000D02*
X65750000Y-76250000D01*
X68250000Y-76250000D02*
X68250000Y-73750000D01*
X65750000Y-73750000D02*
X65750000Y-76250000D01*
X65750000Y-73750000D02*
X68250000Y-73750000D01*
G04 #@! TO.C,MH127*
X149750000Y-73750000D02*
X152250000Y-73750000D01*
X149750000Y-73750000D02*
X149750000Y-76250000D01*
X152250000Y-76250000D02*
X152250000Y-73750000D01*
X152250000Y-76250000D02*
X149750000Y-76250000D01*
G04 #@! TO.C,MH128*
X103250000Y-82250000D02*
X100750000Y-82250000D01*
X103250000Y-82250000D02*
X103250000Y-79750000D01*
X100750000Y-79750000D02*
X100750000Y-82250000D01*
X100750000Y-79750000D02*
X103250000Y-79750000D01*
G04 #@! TO.C,MH129*
X86750000Y-79750000D02*
X89250000Y-79750000D01*
X86750000Y-79750000D02*
X86750000Y-82250000D01*
X89250000Y-82250000D02*
X89250000Y-79750000D01*
X89250000Y-82250000D02*
X86750000Y-82250000D01*
G04 #@! TO.C,MH130*
X61250000Y-82250000D02*
X58750000Y-82250000D01*
X61250000Y-82250000D02*
X61250000Y-79750000D01*
X58750000Y-79750000D02*
X58750000Y-82250000D01*
X58750000Y-79750000D02*
X61250000Y-79750000D01*
G04 #@! TO.C,MH131*
X114750000Y-79750000D02*
X117250000Y-79750000D01*
X114750000Y-79750000D02*
X114750000Y-82250000D01*
X117250000Y-82250000D02*
X117250000Y-79750000D01*
X117250000Y-82250000D02*
X114750000Y-82250000D01*
G04 #@! TO.C,MH132*
X124250000Y-82250000D02*
X121750000Y-82250000D01*
X124250000Y-82250000D02*
X124250000Y-79750000D01*
X121750000Y-79750000D02*
X121750000Y-82250000D01*
X121750000Y-79750000D02*
X124250000Y-79750000D01*
G04 #@! TO.C,MH133*
X82250000Y-82250000D02*
X79750000Y-82250000D01*
X82250000Y-82250000D02*
X82250000Y-79750000D01*
X79750000Y-79750000D02*
X79750000Y-82250000D01*
X79750000Y-79750000D02*
X82250000Y-79750000D01*
G04 #@! TO.C,MH134*
X142750000Y-79750000D02*
X145250000Y-79750000D01*
X142750000Y-79750000D02*
X142750000Y-82250000D01*
X145250000Y-82250000D02*
X145250000Y-79750000D01*
X145250000Y-82250000D02*
X142750000Y-82250000D01*
G04 #@! TO.C,MH135*
X93750000Y-79750000D02*
X96250000Y-79750000D01*
X93750000Y-79750000D02*
X93750000Y-82250000D01*
X96250000Y-82250000D02*
X96250000Y-79750000D01*
X96250000Y-82250000D02*
X93750000Y-82250000D01*
G04 #@! TO.C,MH136*
X107750000Y-79750000D02*
X110250000Y-79750000D01*
X107750000Y-79750000D02*
X107750000Y-82250000D01*
X110250000Y-82250000D02*
X110250000Y-79750000D01*
X110250000Y-82250000D02*
X107750000Y-82250000D01*
G04 #@! TO.C,MH137*
X75250000Y-82250000D02*
X72750000Y-82250000D01*
X75250000Y-82250000D02*
X75250000Y-79750000D01*
X72750000Y-79750000D02*
X72750000Y-82250000D01*
X72750000Y-79750000D02*
X75250000Y-79750000D01*
G04 #@! TO.C,MH138*
X163750000Y-79750000D02*
X166250000Y-79750000D01*
X163750000Y-79750000D02*
X163750000Y-82250000D01*
X166250000Y-82250000D02*
X166250000Y-79750000D01*
X166250000Y-82250000D02*
X163750000Y-82250000D01*
G04 #@! TO.C,MH139*
X138250000Y-82250000D02*
X135750000Y-82250000D01*
X138250000Y-82250000D02*
X138250000Y-79750000D01*
X135750000Y-79750000D02*
X135750000Y-82250000D01*
X135750000Y-79750000D02*
X138250000Y-79750000D01*
G04 #@! TO.C,MH140*
X173250000Y-82250000D02*
X170750000Y-82250000D01*
X173250000Y-82250000D02*
X173250000Y-79750000D01*
X170750000Y-79750000D02*
X170750000Y-82250000D01*
X170750000Y-79750000D02*
X173250000Y-79750000D01*
G04 #@! TO.C,MH141*
X54250000Y-82250000D02*
X51750000Y-82250000D01*
X54250000Y-82250000D02*
X54250000Y-79750000D01*
X51750000Y-79750000D02*
X51750000Y-82250000D01*
X51750000Y-79750000D02*
X54250000Y-79750000D01*
G04 #@! TO.C,MH142*
X128750000Y-79750000D02*
X131250000Y-79750000D01*
X128750000Y-79750000D02*
X128750000Y-82250000D01*
X131250000Y-82250000D02*
X131250000Y-79750000D01*
X131250000Y-82250000D02*
X128750000Y-82250000D01*
G04 #@! TO.C,MH143*
X152250000Y-82250000D02*
X149750000Y-82250000D01*
X152250000Y-82250000D02*
X152250000Y-79750000D01*
X149750000Y-79750000D02*
X149750000Y-82250000D01*
X149750000Y-79750000D02*
X152250000Y-79750000D01*
G04 #@! TO.C,MH144*
X156750000Y-79750000D02*
X159250000Y-79750000D01*
X156750000Y-79750000D02*
X156750000Y-82250000D01*
X159250000Y-82250000D02*
X159250000Y-79750000D01*
X159250000Y-82250000D02*
X156750000Y-82250000D01*
G04 #@! TO.C,MH145*
X68250000Y-82250000D02*
X65750000Y-82250000D01*
X68250000Y-82250000D02*
X68250000Y-79750000D01*
X65750000Y-79750000D02*
X65750000Y-82250000D01*
X65750000Y-79750000D02*
X68250000Y-79750000D01*
G04 #@! TO.C,MH146*
X124250000Y-88250000D02*
X121750000Y-88250000D01*
X124250000Y-88250000D02*
X124250000Y-85750000D01*
X121750000Y-85750000D02*
X121750000Y-88250000D01*
X121750000Y-85750000D02*
X124250000Y-85750000D01*
G04 #@! TO.C,MH147*
X100750000Y-85750000D02*
X103250000Y-85750000D01*
X100750000Y-85750000D02*
X100750000Y-88250000D01*
X103250000Y-88250000D02*
X103250000Y-85750000D01*
X103250000Y-88250000D02*
X100750000Y-88250000D01*
G04 #@! TO.C,MH148*
X96250000Y-88250000D02*
X93750000Y-88250000D01*
X96250000Y-88250000D02*
X96250000Y-85750000D01*
X93750000Y-85750000D02*
X93750000Y-88250000D01*
X93750000Y-85750000D02*
X96250000Y-85750000D01*
G04 #@! TO.C,MH149*
X86750000Y-85750000D02*
X89250000Y-85750000D01*
X86750000Y-85750000D02*
X86750000Y-88250000D01*
X89250000Y-88250000D02*
X89250000Y-85750000D01*
X89250000Y-88250000D02*
X86750000Y-88250000D01*
G04 #@! TO.C,MH150*
X75250000Y-88250000D02*
X72750000Y-88250000D01*
X75250000Y-88250000D02*
X75250000Y-85750000D01*
X72750000Y-85750000D02*
X72750000Y-88250000D01*
X72750000Y-85750000D02*
X75250000Y-85750000D01*
G04 #@! TO.C,MH151*
X170750000Y-85750000D02*
X173250000Y-85750000D01*
X170750000Y-85750000D02*
X170750000Y-88250000D01*
X173250000Y-88250000D02*
X173250000Y-85750000D01*
X173250000Y-88250000D02*
X170750000Y-88250000D01*
G04 #@! TO.C,MH152*
X51750000Y-85750000D02*
X54250000Y-85750000D01*
X51750000Y-85750000D02*
X51750000Y-88250000D01*
X54250000Y-88250000D02*
X54250000Y-85750000D01*
X54250000Y-88250000D02*
X51750000Y-88250000D01*
G04 #@! TO.C,MH153*
X117250000Y-88250000D02*
X114750000Y-88250000D01*
X117250000Y-88250000D02*
X117250000Y-85750000D01*
X114750000Y-85750000D02*
X114750000Y-88250000D01*
X114750000Y-85750000D02*
X117250000Y-85750000D01*
G04 #@! TO.C,MH154*
X82250000Y-88250000D02*
X79750000Y-88250000D01*
X82250000Y-88250000D02*
X82250000Y-85750000D01*
X79750000Y-85750000D02*
X79750000Y-88250000D01*
X79750000Y-85750000D02*
X82250000Y-85750000D01*
G04 #@! TO.C,MH155*
X128750000Y-85750000D02*
X131250000Y-85750000D01*
X128750000Y-85750000D02*
X128750000Y-88250000D01*
X131250000Y-88250000D02*
X131250000Y-85750000D01*
X131250000Y-88250000D02*
X128750000Y-88250000D01*
G04 #@! TO.C,MH156*
X159250000Y-88250000D02*
X156750000Y-88250000D01*
X159250000Y-88250000D02*
X159250000Y-85750000D01*
X156750000Y-85750000D02*
X156750000Y-88250000D01*
X156750000Y-85750000D02*
X159250000Y-85750000D01*
G04 #@! TO.C,MH157*
X163750000Y-85750000D02*
X166250000Y-85750000D01*
X163750000Y-85750000D02*
X163750000Y-88250000D01*
X166250000Y-88250000D02*
X166250000Y-85750000D01*
X166250000Y-88250000D02*
X163750000Y-88250000D01*
G04 #@! TO.C,MH158*
X138250000Y-88250000D02*
X135750000Y-88250000D01*
X138250000Y-88250000D02*
X138250000Y-85750000D01*
X135750000Y-85750000D02*
X135750000Y-88250000D01*
X135750000Y-85750000D02*
X138250000Y-85750000D01*
G04 #@! TO.C,MH159*
X58750000Y-85750000D02*
X61250000Y-85750000D01*
X58750000Y-85750000D02*
X58750000Y-88250000D01*
X61250000Y-88250000D02*
X61250000Y-85750000D01*
X61250000Y-88250000D02*
X58750000Y-88250000D01*
G04 #@! TO.C,MH160*
X65750000Y-85750000D02*
X68250000Y-85750000D01*
X65750000Y-85750000D02*
X65750000Y-88250000D01*
X68250000Y-88250000D02*
X68250000Y-85750000D01*
X68250000Y-88250000D02*
X65750000Y-88250000D01*
G04 #@! TO.C,MH161*
X145250000Y-88250000D02*
X142750000Y-88250000D01*
X145250000Y-88250000D02*
X145250000Y-85750000D01*
X142750000Y-85750000D02*
X142750000Y-88250000D01*
X142750000Y-85750000D02*
X145250000Y-85750000D01*
G04 #@! TO.C,MH162*
X110250000Y-88250000D02*
X107750000Y-88250000D01*
X110250000Y-88250000D02*
X110250000Y-85750000D01*
X107750000Y-85750000D02*
X107750000Y-88250000D01*
X107750000Y-85750000D02*
X110250000Y-85750000D01*
G04 #@! TO.C,MH163*
X152250000Y-88250000D02*
X149750000Y-88250000D01*
X152250000Y-88250000D02*
X152250000Y-85750000D01*
X149750000Y-85750000D02*
X149750000Y-88250000D01*
X149750000Y-85750000D02*
X152250000Y-85750000D01*
G04 #@! TO.C,MH164*
X100750000Y-91750000D02*
X103250000Y-91750000D01*
X100750000Y-91750000D02*
X100750000Y-94250000D01*
X103250000Y-94250000D02*
X103250000Y-91750000D01*
X103250000Y-94250000D02*
X100750000Y-94250000D01*
G04 #@! TO.C,MH165*
X58750000Y-91750000D02*
X61250000Y-91750000D01*
X58750000Y-91750000D02*
X58750000Y-94250000D01*
X61250000Y-94250000D02*
X61250000Y-91750000D01*
X61250000Y-94250000D02*
X58750000Y-94250000D01*
G04 #@! TO.C,MH166*
X128750000Y-91750000D02*
X131250000Y-91750000D01*
X128750000Y-91750000D02*
X128750000Y-94250000D01*
X131250000Y-94250000D02*
X131250000Y-91750000D01*
X131250000Y-94250000D02*
X128750000Y-94250000D01*
G04 #@! TO.C,MH167*
X75250000Y-94250000D02*
X72750000Y-94250000D01*
X75250000Y-94250000D02*
X75250000Y-91750000D01*
X72750000Y-91750000D02*
X72750000Y-94250000D01*
X72750000Y-91750000D02*
X75250000Y-91750000D01*
G04 #@! TO.C,MH168*
X159250000Y-94250000D02*
X156750000Y-94250000D01*
X159250000Y-94250000D02*
X159250000Y-91750000D01*
X156750000Y-91750000D02*
X156750000Y-94250000D01*
X156750000Y-91750000D02*
X159250000Y-91750000D01*
G04 #@! TO.C,MH169*
X51750000Y-91750000D02*
X54250000Y-91750000D01*
X51750000Y-91750000D02*
X51750000Y-94250000D01*
X54250000Y-94250000D02*
X54250000Y-91750000D01*
X54250000Y-94250000D02*
X51750000Y-94250000D01*
G04 #@! TO.C,MH170*
X149750000Y-91750000D02*
X152250000Y-91750000D01*
X149750000Y-91750000D02*
X149750000Y-94250000D01*
X152250000Y-94250000D02*
X152250000Y-91750000D01*
X152250000Y-94250000D02*
X149750000Y-94250000D01*
G04 #@! TO.C,MH171*
X110250000Y-94250000D02*
X107750000Y-94250000D01*
X110250000Y-94250000D02*
X110250000Y-91750000D01*
X107750000Y-91750000D02*
X107750000Y-94250000D01*
X107750000Y-91750000D02*
X110250000Y-91750000D01*
G04 #@! TO.C,MH172*
X93750000Y-91750000D02*
X96250000Y-91750000D01*
X93750000Y-91750000D02*
X93750000Y-94250000D01*
X96250000Y-94250000D02*
X96250000Y-91750000D01*
X96250000Y-94250000D02*
X93750000Y-94250000D01*
G04 #@! TO.C,MH173*
X145250000Y-94250000D02*
X142750000Y-94250000D01*
X145250000Y-94250000D02*
X145250000Y-91750000D01*
X142750000Y-91750000D02*
X142750000Y-94250000D01*
X142750000Y-91750000D02*
X145250000Y-91750000D01*
G04 #@! TO.C,MH174*
X124250000Y-94250000D02*
X121750000Y-94250000D01*
X124250000Y-94250000D02*
X124250000Y-91750000D01*
X121750000Y-91750000D02*
X121750000Y-94250000D01*
X121750000Y-91750000D02*
X124250000Y-91750000D01*
G04 #@! TO.C,MH175*
X65750000Y-91750000D02*
X68250000Y-91750000D01*
X65750000Y-91750000D02*
X65750000Y-94250000D01*
X68250000Y-94250000D02*
X68250000Y-91750000D01*
X68250000Y-94250000D02*
X65750000Y-94250000D01*
G04 #@! TO.C,MH176*
X173250000Y-94250000D02*
X170750000Y-94250000D01*
X173250000Y-94250000D02*
X173250000Y-91750000D01*
X170750000Y-91750000D02*
X170750000Y-94250000D01*
X170750000Y-91750000D02*
X173250000Y-91750000D01*
G04 #@! TO.C,MH177*
X86750000Y-91750000D02*
X89250000Y-91750000D01*
X86750000Y-91750000D02*
X86750000Y-94250000D01*
X89250000Y-94250000D02*
X89250000Y-91750000D01*
X89250000Y-94250000D02*
X86750000Y-94250000D01*
G04 #@! TO.C,MH178*
X138250000Y-94250000D02*
X135750000Y-94250000D01*
X138250000Y-94250000D02*
X138250000Y-91750000D01*
X135750000Y-91750000D02*
X135750000Y-94250000D01*
X135750000Y-91750000D02*
X138250000Y-91750000D01*
G04 #@! TO.C,MH179*
X114750000Y-91750000D02*
X117250000Y-91750000D01*
X114750000Y-91750000D02*
X114750000Y-94250000D01*
X117250000Y-94250000D02*
X117250000Y-91750000D01*
X117250000Y-94250000D02*
X114750000Y-94250000D01*
G04 #@! TO.C,MH180*
X163750000Y-91750000D02*
X166250000Y-91750000D01*
X163750000Y-91750000D02*
X163750000Y-94250000D01*
X166250000Y-94250000D02*
X166250000Y-91750000D01*
X166250000Y-94250000D02*
X163750000Y-94250000D01*
G04 #@! TO.C,MH181*
X82250000Y-94250000D02*
X79750000Y-94250000D01*
X82250000Y-94250000D02*
X82250000Y-91750000D01*
X79750000Y-91750000D02*
X79750000Y-94250000D01*
X79750000Y-91750000D02*
X82250000Y-91750000D01*
G04 #@! TO.C,MH182*
X82250000Y-100250000D02*
X79750000Y-100250000D01*
X82250000Y-100250000D02*
X82250000Y-97750000D01*
X79750000Y-97750000D02*
X79750000Y-100250000D01*
X79750000Y-97750000D02*
X82250000Y-97750000D01*
G04 #@! TO.C,MH183*
X61250000Y-100250000D02*
X58750000Y-100250000D01*
X61250000Y-100250000D02*
X61250000Y-97750000D01*
X58750000Y-97750000D02*
X58750000Y-100250000D01*
X58750000Y-97750000D02*
X61250000Y-97750000D01*
G04 #@! TO.C,MH184*
X54250000Y-100250000D02*
X51750000Y-100250000D01*
X54250000Y-100250000D02*
X54250000Y-97750000D01*
X51750000Y-97750000D02*
X51750000Y-100250000D01*
X51750000Y-97750000D02*
X54250000Y-97750000D01*
G04 #@! TO.C,MH185*
X170750000Y-97750000D02*
X173250000Y-97750000D01*
X170750000Y-97750000D02*
X170750000Y-100250000D01*
X173250000Y-100250000D02*
X173250000Y-97750000D01*
X173250000Y-100250000D02*
X170750000Y-100250000D01*
G04 #@! TO.C,MH186*
X124250000Y-100250000D02*
X121750000Y-100250000D01*
X124250000Y-100250000D02*
X124250000Y-97750000D01*
X121750000Y-97750000D02*
X121750000Y-100250000D01*
X121750000Y-97750000D02*
X124250000Y-97750000D01*
G04 #@! TO.C,MH187*
X114750000Y-97750000D02*
X117250000Y-97750000D01*
X114750000Y-97750000D02*
X114750000Y-100250000D01*
X117250000Y-100250000D02*
X117250000Y-97750000D01*
X117250000Y-100250000D02*
X114750000Y-100250000D01*
G04 #@! TO.C,MH188*
X75250000Y-100250000D02*
X72750000Y-100250000D01*
X75250000Y-100250000D02*
X75250000Y-97750000D01*
X72750000Y-97750000D02*
X72750000Y-100250000D01*
X72750000Y-97750000D02*
X75250000Y-97750000D01*
G04 #@! TO.C,MH189*
X159250000Y-100250000D02*
X156750000Y-100250000D01*
X159250000Y-100250000D02*
X159250000Y-97750000D01*
X156750000Y-97750000D02*
X156750000Y-100250000D01*
X156750000Y-97750000D02*
X159250000Y-97750000D01*
G04 #@! TO.C,MH190*
X68250000Y-100250000D02*
X65750000Y-100250000D01*
X68250000Y-100250000D02*
X68250000Y-97750000D01*
X65750000Y-97750000D02*
X65750000Y-100250000D01*
X65750000Y-97750000D02*
X68250000Y-97750000D01*
G04 #@! TO.C,MH191*
X166250000Y-100250000D02*
X163750000Y-100250000D01*
X166250000Y-100250000D02*
X166250000Y-97750000D01*
X163750000Y-97750000D02*
X163750000Y-100250000D01*
X163750000Y-97750000D02*
X166250000Y-97750000D01*
G04 #@! TO.C,MH192*
X107750000Y-97750000D02*
X110250000Y-97750000D01*
X107750000Y-97750000D02*
X107750000Y-100250000D01*
X110250000Y-100250000D02*
X110250000Y-97750000D01*
X110250000Y-100250000D02*
X107750000Y-100250000D01*
G04 #@! TO.C,MH193*
X89250000Y-100250000D02*
X86750000Y-100250000D01*
X89250000Y-100250000D02*
X89250000Y-97750000D01*
X86750000Y-97750000D02*
X86750000Y-100250000D01*
X86750000Y-97750000D02*
X89250000Y-97750000D01*
G04 #@! TO.C,MH194*
X149750000Y-97750000D02*
X152250000Y-97750000D01*
X149750000Y-97750000D02*
X149750000Y-100250000D01*
X152250000Y-100250000D02*
X152250000Y-97750000D01*
X152250000Y-100250000D02*
X149750000Y-100250000D01*
G04 #@! TO.C,MH195*
X103330000Y-100250000D02*
X100830000Y-100250000D01*
X103330000Y-100250000D02*
X103330000Y-97750000D01*
X100830000Y-97750000D02*
X100830000Y-100250000D01*
X100830000Y-97750000D02*
X103330000Y-97750000D01*
G04 #@! TO.C,MH196*
X93750000Y-97750000D02*
X96250000Y-97750000D01*
X93750000Y-97750000D02*
X93750000Y-100250000D01*
X96250000Y-100250000D02*
X96250000Y-97750000D01*
X96250000Y-100250000D02*
X93750000Y-100250000D01*
G04 #@! TO.C,MH197*
X145250000Y-100250000D02*
X142750000Y-100250000D01*
X145250000Y-100250000D02*
X145250000Y-97750000D01*
X142750000Y-97750000D02*
X142750000Y-100250000D01*
X142750000Y-97750000D02*
X145250000Y-97750000D01*
G04 #@! TO.C,MH198*
X128750000Y-97750000D02*
X131250000Y-97750000D01*
X128750000Y-97750000D02*
X128750000Y-100250000D01*
X131250000Y-100250000D02*
X131250000Y-97750000D01*
X131250000Y-100250000D02*
X128750000Y-100250000D01*
G04 #@! TO.C,MH199*
X138250000Y-100250000D02*
X135750000Y-100250000D01*
X138250000Y-100250000D02*
X138250000Y-97750000D01*
X135750000Y-97750000D02*
X135750000Y-100250000D01*
X135750000Y-97750000D02*
X138250000Y-97750000D01*
G04 #@! TO.C,MH200*
X138250000Y-106250000D02*
X135750000Y-106250000D01*
X138250000Y-106250000D02*
X138250000Y-103750000D01*
X135750000Y-103750000D02*
X135750000Y-106250000D01*
X135750000Y-103750000D02*
X138250000Y-103750000D01*
G04 #@! TO.C,MH201*
X170750000Y-103750000D02*
X173250000Y-103750000D01*
X170750000Y-103750000D02*
X170750000Y-106250000D01*
X173250000Y-106250000D02*
X173250000Y-103750000D01*
X173250000Y-106250000D02*
X170750000Y-106250000D01*
G04 #@! TO.C,MH202*
X152250000Y-106250000D02*
X149750000Y-106250000D01*
X152250000Y-106250000D02*
X152250000Y-103750000D01*
X149750000Y-103750000D02*
X149750000Y-106250000D01*
X149750000Y-103750000D02*
X152250000Y-103750000D01*
G04 #@! TO.C,MH203*
X58750000Y-103750000D02*
X61250000Y-103750000D01*
X58750000Y-103750000D02*
X58750000Y-106250000D01*
X61250000Y-106250000D02*
X61250000Y-103750000D01*
X61250000Y-106250000D02*
X58750000Y-106250000D01*
G04 #@! TO.C,MH204*
X114750000Y-103750000D02*
X117250000Y-103750000D01*
X114750000Y-103750000D02*
X114750000Y-106250000D01*
X117250000Y-106250000D02*
X117250000Y-103750000D01*
X117250000Y-106250000D02*
X114750000Y-106250000D01*
G04 #@! TO.C,MH205*
X124250000Y-106250000D02*
X121750000Y-106250000D01*
X124250000Y-106250000D02*
X124250000Y-103750000D01*
X121750000Y-103750000D02*
X121750000Y-106250000D01*
X121750000Y-103750000D02*
X124250000Y-103750000D01*
G04 #@! TO.C,MH206*
X93750000Y-103750000D02*
X96250000Y-103750000D01*
X93750000Y-103750000D02*
X93750000Y-106250000D01*
X96250000Y-106250000D02*
X96250000Y-103750000D01*
X96250000Y-106250000D02*
X93750000Y-106250000D01*
G04 #@! TO.C,MH207*
X103250000Y-106250000D02*
X100750000Y-106250000D01*
X103250000Y-106250000D02*
X103250000Y-103750000D01*
X100750000Y-103750000D02*
X100750000Y-106250000D01*
X100750000Y-103750000D02*
X103250000Y-103750000D01*
G04 #@! TO.C,MH208*
X163750000Y-103750000D02*
X166250000Y-103750000D01*
X163750000Y-103750000D02*
X163750000Y-106250000D01*
X166250000Y-106250000D02*
X166250000Y-103750000D01*
X166250000Y-106250000D02*
X163750000Y-106250000D01*
G04 #@! TO.C,MH209*
X86750000Y-103750000D02*
X89250000Y-103750000D01*
X86750000Y-103750000D02*
X86750000Y-106250000D01*
X89250000Y-106250000D02*
X89250000Y-103750000D01*
X89250000Y-106250000D02*
X86750000Y-106250000D01*
G04 #@! TO.C,MH210*
X145250000Y-106250000D02*
X142750000Y-106250000D01*
X145250000Y-106250000D02*
X145250000Y-103750000D01*
X142750000Y-103750000D02*
X142750000Y-106250000D01*
X142750000Y-103750000D02*
X145250000Y-103750000D01*
G04 #@! TO.C,MH211*
X107750000Y-103750000D02*
X110250000Y-103750000D01*
X107750000Y-103750000D02*
X107750000Y-106250000D01*
X110250000Y-106250000D02*
X110250000Y-103750000D01*
X110250000Y-106250000D02*
X107750000Y-106250000D01*
G04 #@! TO.C,MH212*
X156750000Y-103750000D02*
X159250000Y-103750000D01*
X156750000Y-103750000D02*
X156750000Y-106250000D01*
X159250000Y-106250000D02*
X159250000Y-103750000D01*
X159250000Y-106250000D02*
X156750000Y-106250000D01*
G04 #@! TO.C,MH213*
X79750000Y-103750000D02*
X82250000Y-103750000D01*
X79750000Y-103750000D02*
X79750000Y-106250000D01*
X82250000Y-106250000D02*
X82250000Y-103750000D01*
X82250000Y-106250000D02*
X79750000Y-106250000D01*
G04 #@! TO.C,MH214*
X54250000Y-106250000D02*
X51750000Y-106250000D01*
X54250000Y-106250000D02*
X54250000Y-103750000D01*
X51750000Y-103750000D02*
X51750000Y-106250000D01*
X51750000Y-103750000D02*
X54250000Y-103750000D01*
G04 #@! TO.C,MH215*
X128750000Y-103750000D02*
X131250000Y-103750000D01*
X128750000Y-103750000D02*
X128750000Y-106250000D01*
X131250000Y-106250000D02*
X131250000Y-103750000D01*
X131250000Y-106250000D02*
X128750000Y-106250000D01*
G04 #@! TO.C,MH216*
X68250000Y-106250000D02*
X65750000Y-106250000D01*
X68250000Y-106250000D02*
X68250000Y-103750000D01*
X65750000Y-103750000D02*
X65750000Y-106250000D01*
X65750000Y-103750000D02*
X68250000Y-103750000D01*
G04 #@! TO.C,MH217*
X72750000Y-103750000D02*
X75250000Y-103750000D01*
X72750000Y-103750000D02*
X72750000Y-106250000D01*
X75250000Y-106250000D02*
X75250000Y-103750000D01*
X75250000Y-106250000D02*
X72750000Y-106250000D01*
G04 #@! TO.C,MH218*
X160250000Y-106750000D02*
X162750000Y-106750000D01*
X160250000Y-106750000D02*
X160250000Y-109250000D01*
X162750000Y-109250000D02*
X162750000Y-106750000D01*
X162750000Y-109250000D02*
X160250000Y-109250000D01*
G04 #@! TO.C,MH219*
X155750000Y-109250000D02*
X153250000Y-109250000D01*
X155750000Y-109250000D02*
X155750000Y-106750000D01*
X153250000Y-106750000D02*
X153250000Y-109250000D01*
X153250000Y-106750000D02*
X155750000Y-106750000D01*
G04 #@! TO.C,MH220*
X148750000Y-73250000D02*
X146250000Y-73250000D01*
X148750000Y-73250000D02*
X148750000Y-70750000D01*
X146250000Y-70750000D02*
X146250000Y-73250000D01*
X146250000Y-70750000D02*
X148750000Y-70750000D01*
G04 #@! TO.C,MH221*
X141750000Y-97250000D02*
X139250000Y-97250000D01*
X141750000Y-97250000D02*
X141750000Y-94750000D01*
X139250000Y-94750000D02*
X139250000Y-97250000D01*
X139250000Y-94750000D02*
X141750000Y-94750000D01*
G04 #@! TO.C,MH222*
X132250000Y-94750000D02*
X134750000Y-94750000D01*
X132250000Y-94750000D02*
X132250000Y-97250000D01*
X134750000Y-97250000D02*
X134750000Y-94750000D01*
X134750000Y-97250000D02*
X132250000Y-97250000D01*
G04 #@! TO.C,MH223*
X127750000Y-85250000D02*
X125250000Y-85250000D01*
X127750000Y-85250000D02*
X127750000Y-82750000D01*
X125250000Y-82750000D02*
X125250000Y-85250000D01*
X125250000Y-82750000D02*
X127750000Y-82750000D01*
G04 #@! TO.C,MH224*
X118250000Y-76750000D02*
X120750000Y-76750000D01*
X118250000Y-76750000D02*
X118250000Y-79250000D01*
X120750000Y-79250000D02*
X120750000Y-76750000D01*
X120750000Y-79250000D02*
X118250000Y-79250000D01*
G04 #@! TO.C,MH225*
X113750000Y-85250000D02*
X111250000Y-85250000D01*
X113750000Y-85250000D02*
X113750000Y-82750000D01*
X111250000Y-82750000D02*
X111250000Y-85250000D01*
X111250000Y-82750000D02*
X113750000Y-82750000D01*
G04 #@! TO.C,MH226*
X104250000Y-94750000D02*
X106750000Y-94750000D01*
X104250000Y-94750000D02*
X104250000Y-97250000D01*
X106750000Y-97250000D02*
X106750000Y-94750000D01*
X106750000Y-97250000D02*
X104250000Y-97250000D01*
G04 #@! TO.C,MH227*
X99750000Y-97250000D02*
X97250000Y-97250000D01*
X99750000Y-97250000D02*
X99750000Y-94750000D01*
X97250000Y-94750000D02*
X97250000Y-97250000D01*
X97250000Y-94750000D02*
X99750000Y-94750000D01*
G04 #@! TO.C,MH228*
X90250000Y-58750000D02*
X92750000Y-58750000D01*
X90250000Y-58750000D02*
X90250000Y-61250000D01*
X92750000Y-61250000D02*
X92750000Y-58750000D01*
X92750000Y-61250000D02*
X90250000Y-61250000D01*
G04 #@! TO.C,MH229*
X83250000Y-100750000D02*
X85750000Y-100750000D01*
X83250000Y-100750000D02*
X83250000Y-103250000D01*
X85750000Y-103250000D02*
X85750000Y-100750000D01*
X85750000Y-103250000D02*
X83250000Y-103250000D01*
G04 #@! TO.C,MH230*
X76250000Y-70750000D02*
X78750000Y-70750000D01*
X76250000Y-70750000D02*
X76250000Y-73250000D01*
X78750000Y-73250000D02*
X78750000Y-70750000D01*
X78750000Y-73250000D02*
X76250000Y-73250000D01*
G04 #@! TO.C,MH231*
X71750000Y-55250000D02*
X69250000Y-55250000D01*
X71750000Y-55250000D02*
X71750000Y-52750000D01*
X69250000Y-52750000D02*
X69250000Y-55250000D01*
X69250000Y-52750000D02*
X71750000Y-52750000D01*
G04 #@! TO.C,MH232*
X62250000Y-106750000D02*
X64750000Y-106750000D01*
X62250000Y-106750000D02*
X62250000Y-109250000D01*
X64750000Y-109250000D02*
X64750000Y-106750000D01*
X64750000Y-109250000D02*
X62250000Y-109250000D01*
G04 #@! TO.C,MH233*
X57750000Y-109250000D02*
X55250000Y-109250000D01*
X57750000Y-109250000D02*
X57750000Y-106750000D01*
X55250000Y-106750000D02*
X55250000Y-109250000D01*
X55250000Y-106750000D02*
X57750000Y-106750000D01*
G04 #@! TO.C,MH234*
X48250000Y-94750000D02*
X50750000Y-94750000D01*
X48250000Y-94750000D02*
X48250000Y-97250000D01*
X50750000Y-97250000D02*
X50750000Y-94750000D01*
X50750000Y-97250000D02*
X48250000Y-97250000D01*
G04 #@! TO.C,MH235*
X169750000Y-103250000D02*
X167250000Y-103250000D01*
X169750000Y-103250000D02*
X169750000Y-100750000D01*
X167250000Y-100750000D02*
X167250000Y-103250000D01*
X167250000Y-100750000D02*
X169750000Y-100750000D01*
G04 #@! TO.C,MH236*
X160250000Y-88750000D02*
X162750000Y-88750000D01*
X160250000Y-88750000D02*
X160250000Y-91250000D01*
X162750000Y-91250000D02*
X162750000Y-88750000D01*
X162750000Y-91250000D02*
X160250000Y-91250000D01*
G04 #@! TO.C,MH237*
X155750000Y-67250000D02*
X153250000Y-67250000D01*
X155750000Y-67250000D02*
X155750000Y-64750000D01*
X153250000Y-64750000D02*
X153250000Y-67250000D01*
X153250000Y-64750000D02*
X155750000Y-64750000D01*
G04 #@! TO.C,MH238*
X146250000Y-64750000D02*
X148750000Y-64750000D01*
X146250000Y-64750000D02*
X146250000Y-67250000D01*
X148750000Y-67250000D02*
X148750000Y-64750000D01*
X148750000Y-67250000D02*
X146250000Y-67250000D01*
G04 #@! TO.C,MH239*
X141750000Y-79250000D02*
X139250000Y-79250000D01*
X141750000Y-79250000D02*
X141750000Y-76750000D01*
X139250000Y-76750000D02*
X139250000Y-79250000D01*
X139250000Y-76750000D02*
X141750000Y-76750000D01*
G04 #@! TO.C,MH240*
X132250000Y-88750000D02*
X134750000Y-88750000D01*
X132250000Y-88750000D02*
X132250000Y-91250000D01*
X134750000Y-91250000D02*
X134750000Y-88750000D01*
X134750000Y-91250000D02*
X132250000Y-91250000D01*
G04 #@! TO.C,MH241*
X127750000Y-79250000D02*
X125250000Y-79250000D01*
X127750000Y-79250000D02*
X127750000Y-76750000D01*
X125250000Y-76750000D02*
X125250000Y-79250000D01*
X125250000Y-76750000D02*
X127750000Y-76750000D01*
G04 #@! TO.C,MH242*
X120750000Y-109250000D02*
X118250000Y-109250000D01*
X120750000Y-109250000D02*
X120750000Y-106750000D01*
X118250000Y-106750000D02*
X118250000Y-109250000D01*
X118250000Y-106750000D02*
X120750000Y-106750000D01*
G04 #@! TO.C,MH243*
X113750000Y-103250000D02*
X111250000Y-103250000D01*
X113750000Y-103250000D02*
X113750000Y-100750000D01*
X111250000Y-100750000D02*
X111250000Y-103250000D01*
X111250000Y-100750000D02*
X113750000Y-100750000D01*
G04 #@! TO.C,MH244*
X104250000Y-70750000D02*
X106750000Y-70750000D01*
X104250000Y-70750000D02*
X104250000Y-73250000D01*
X106750000Y-73250000D02*
X106750000Y-70750000D01*
X106750000Y-73250000D02*
X104250000Y-73250000D01*
G04 #@! TO.C,MH245*
X99750000Y-103250000D02*
X97250000Y-103250000D01*
X99750000Y-103250000D02*
X99750000Y-100750000D01*
X97250000Y-100750000D02*
X97250000Y-103250000D01*
X97250000Y-100750000D02*
X99750000Y-100750000D01*
G04 #@! TO.C,MH246*
X90250000Y-100750000D02*
X92750000Y-100750000D01*
X90250000Y-100750000D02*
X90250000Y-103250000D01*
X92750000Y-103250000D02*
X92750000Y-100750000D01*
X92750000Y-103250000D02*
X90250000Y-103250000D01*
G04 #@! TO.C,MH247*
X85750000Y-97250000D02*
X83250000Y-97250000D01*
X85750000Y-97250000D02*
X85750000Y-94750000D01*
X83250000Y-94750000D02*
X83250000Y-97250000D01*
X83250000Y-94750000D02*
X85750000Y-94750000D01*
G04 #@! TO.C,MH248*
X76250000Y-64750000D02*
X78750000Y-64750000D01*
X76250000Y-64750000D02*
X76250000Y-67250000D01*
X78750000Y-67250000D02*
X78750000Y-64750000D01*
X78750000Y-67250000D02*
X76250000Y-67250000D01*
G04 #@! TO.C,MH249*
X71750000Y-97250000D02*
X69250000Y-97250000D01*
X71750000Y-97250000D02*
X71750000Y-94750000D01*
X69250000Y-94750000D02*
X69250000Y-97250000D01*
X69250000Y-94750000D02*
X71750000Y-94750000D01*
G04 #@! TO.C,MH250*
X62250000Y-58750000D02*
X64750000Y-58750000D01*
X62250000Y-58750000D02*
X62250000Y-61250000D01*
X64750000Y-61250000D02*
X64750000Y-58750000D01*
X64750000Y-61250000D02*
X62250000Y-61250000D01*
G04 #@! TO.C,MH251*
X55250000Y-64750000D02*
X57750000Y-64750000D01*
X55250000Y-64750000D02*
X55250000Y-67250000D01*
X57750000Y-67250000D02*
X57750000Y-64750000D01*
X57750000Y-67250000D02*
X55250000Y-67250000D01*
G04 #@! TO.C,MH252*
X48250000Y-76750000D02*
X50750000Y-76750000D01*
X48250000Y-76750000D02*
X48250000Y-79250000D01*
X50750000Y-79250000D02*
X50750000Y-76750000D01*
X50750000Y-79250000D02*
X48250000Y-79250000D01*
G04 #@! TO.C,MH253*
X167250000Y-70750000D02*
X169750000Y-70750000D01*
X167250000Y-70750000D02*
X167250000Y-73250000D01*
X169750000Y-73250000D02*
X169750000Y-70750000D01*
X169750000Y-73250000D02*
X167250000Y-73250000D01*
G04 #@! TO.C,MH254*
X162750000Y-73250000D02*
X160250000Y-73250000D01*
X162750000Y-73250000D02*
X162750000Y-70750000D01*
X160250000Y-70750000D02*
X160250000Y-73250000D01*
X160250000Y-70750000D02*
X162750000Y-70750000D01*
G04 #@! TO.C,MH255*
X153250000Y-88750000D02*
X155750000Y-88750000D01*
X153250000Y-88750000D02*
X153250000Y-91250000D01*
X155750000Y-91250000D02*
X155750000Y-88750000D01*
X155750000Y-91250000D02*
X153250000Y-91250000D01*
G04 #@! TO.C,MH256*
X148750000Y-61250000D02*
X146250000Y-61250000D01*
X148750000Y-61250000D02*
X148750000Y-58750000D01*
X146250000Y-58750000D02*
X146250000Y-61250000D01*
X146250000Y-58750000D02*
X148750000Y-58750000D01*
G04 #@! TO.C,MH257*
X139250000Y-100750000D02*
X141750000Y-100750000D01*
X139250000Y-100750000D02*
X139250000Y-103250000D01*
X141750000Y-103250000D02*
X141750000Y-100750000D01*
X141750000Y-103250000D02*
X139250000Y-103250000D01*
G04 #@! TO.C,MH258*
X134750000Y-73250000D02*
X132250000Y-73250000D01*
X134750000Y-73250000D02*
X134750000Y-70750000D01*
X132250000Y-70750000D02*
X132250000Y-73250000D01*
X132250000Y-70750000D02*
X134750000Y-70750000D01*
G04 #@! TO.C,MH259*
X127750000Y-61250000D02*
X125250000Y-61250000D01*
X127750000Y-61250000D02*
X127750000Y-58750000D01*
X125250000Y-58750000D02*
X125250000Y-61250000D01*
X125250000Y-58750000D02*
X127750000Y-58750000D01*
G04 #@! TO.C,MH260*
X118250000Y-58750000D02*
X120750000Y-58750000D01*
X118250000Y-58750000D02*
X118250000Y-61250000D01*
X120750000Y-61250000D02*
X120750000Y-58750000D01*
X120750000Y-61250000D02*
X118250000Y-61250000D01*
G04 #@! TO.C,MH261*
X113750000Y-73250000D02*
X111250000Y-73250000D01*
X113750000Y-73250000D02*
X113750000Y-70750000D01*
X111250000Y-70750000D02*
X111250000Y-73250000D01*
X111250000Y-70750000D02*
X113750000Y-70750000D01*
G04 #@! TO.C,MH262*
X104250000Y-106750000D02*
X106750000Y-106750000D01*
X104250000Y-106750000D02*
X104250000Y-109250000D01*
X106750000Y-109250000D02*
X106750000Y-106750000D01*
X106750000Y-109250000D02*
X104250000Y-109250000D01*
G04 #@! TO.C,MH263*
X99750000Y-109250000D02*
X97250000Y-109250000D01*
X99750000Y-109250000D02*
X99750000Y-106750000D01*
X97250000Y-106750000D02*
X97250000Y-109250000D01*
X97250000Y-106750000D02*
X99750000Y-106750000D01*
G04 #@! TO.C,MH264*
X90250000Y-64750000D02*
X92750000Y-64750000D01*
X90250000Y-64750000D02*
X90250000Y-67250000D01*
X92750000Y-67250000D02*
X92750000Y-64750000D01*
X92750000Y-67250000D02*
X90250000Y-67250000D01*
G04 #@! TO.C,MH265*
X85750000Y-91250000D02*
X83250000Y-91250000D01*
X85750000Y-91250000D02*
X85750000Y-88750000D01*
X83250000Y-88750000D02*
X83250000Y-91250000D01*
X83250000Y-88750000D02*
X85750000Y-88750000D01*
G04 #@! TO.C,MH266*
X76250000Y-100750000D02*
X78750000Y-100750000D01*
X76250000Y-100750000D02*
X76250000Y-103250000D01*
X78750000Y-103250000D02*
X78750000Y-100750000D01*
X78750000Y-103250000D02*
X76250000Y-103250000D01*
G04 #@! TO.C,MH267*
X71750000Y-67250000D02*
X69250000Y-67250000D01*
X71750000Y-67250000D02*
X71750000Y-64750000D01*
X69250000Y-64750000D02*
X69250000Y-67250000D01*
X69250000Y-64750000D02*
X71750000Y-64750000D01*
G04 #@! TO.C,MH268*
X64750000Y-85250000D02*
X62250000Y-85250000D01*
X64750000Y-85250000D02*
X64750000Y-82750000D01*
X62250000Y-82750000D02*
X62250000Y-85250000D01*
X62250000Y-82750000D02*
X64750000Y-82750000D01*
G04 #@! TO.C,MH269*
X57750000Y-61250000D02*
X55250000Y-61250000D01*
X57750000Y-61250000D02*
X57750000Y-58750000D01*
X55250000Y-58750000D02*
X55250000Y-61250000D01*
X55250000Y-58750000D02*
X57750000Y-58750000D01*
G04 #@! TO.C,MH270*
X48250000Y-70750000D02*
X50750000Y-70750000D01*
X48250000Y-70750000D02*
X48250000Y-73250000D01*
X50750000Y-73250000D02*
X50750000Y-70750000D01*
X50750000Y-73250000D02*
X48250000Y-73250000D01*
G04 #@! TO.C,MH271*
X167250000Y-82750000D02*
X169750000Y-82750000D01*
X167250000Y-82750000D02*
X167250000Y-85250000D01*
X169750000Y-85250000D02*
X169750000Y-82750000D01*
X169750000Y-85250000D02*
X167250000Y-85250000D01*
G04 #@! TO.C,MH272*
X160250000Y-64750000D02*
X162750000Y-64750000D01*
X160250000Y-64750000D02*
X160250000Y-67250000D01*
X162750000Y-67250000D02*
X162750000Y-64750000D01*
X162750000Y-67250000D02*
X160250000Y-67250000D01*
G04 #@! TO.C,MH273*
X155750000Y-85250000D02*
X153250000Y-85250000D01*
X155750000Y-85250000D02*
X155750000Y-82750000D01*
X153250000Y-82750000D02*
X153250000Y-85250000D01*
X153250000Y-82750000D02*
X155750000Y-82750000D01*
G04 #@! TO.C,MH274*
X148750000Y-109250000D02*
X146250000Y-109250000D01*
X148750000Y-109250000D02*
X148750000Y-106750000D01*
X146250000Y-106750000D02*
X146250000Y-109250000D01*
X146250000Y-106750000D02*
X148750000Y-106750000D01*
G04 #@! TO.C,MH275*
X141750000Y-73250000D02*
X139250000Y-73250000D01*
X141750000Y-73250000D02*
X141750000Y-70750000D01*
X139250000Y-70750000D02*
X139250000Y-73250000D01*
X139250000Y-70750000D02*
X141750000Y-70750000D01*
G04 #@! TO.C,MH276*
X132250000Y-100750000D02*
X134750000Y-100750000D01*
X132250000Y-100750000D02*
X132250000Y-103250000D01*
X134750000Y-103250000D02*
X134750000Y-100750000D01*
X134750000Y-103250000D02*
X132250000Y-103250000D01*
G04 #@! TO.C,MH277*
X125250000Y-64750000D02*
X127750000Y-64750000D01*
X125250000Y-64750000D02*
X125250000Y-67250000D01*
X127750000Y-67250000D02*
X127750000Y-64750000D01*
X127750000Y-67250000D02*
X125250000Y-67250000D01*
G04 #@! TO.C,MH278*
X120750000Y-67250000D02*
X118250000Y-67250000D01*
X120750000Y-67250000D02*
X120750000Y-64750000D01*
X118250000Y-64750000D02*
X118250000Y-67250000D01*
X118250000Y-64750000D02*
X120750000Y-64750000D01*
G04 #@! TO.C,MH279*
X111250000Y-94750000D02*
X113750000Y-94750000D01*
X111250000Y-94750000D02*
X111250000Y-97250000D01*
X113750000Y-97250000D02*
X113750000Y-94750000D01*
X113750000Y-97250000D02*
X111250000Y-97250000D01*
G04 #@! TO.C,MH280*
X106750000Y-103250000D02*
X104250000Y-103250000D01*
X106750000Y-103250000D02*
X106750000Y-100750000D01*
X104250000Y-100750000D02*
X104250000Y-103250000D01*
X104250000Y-100750000D02*
X106750000Y-100750000D01*
G04 #@! TO.C,MH281*
X97250000Y-88750000D02*
X99750000Y-88750000D01*
X97250000Y-88750000D02*
X97250000Y-91250000D01*
X99750000Y-91250000D02*
X99750000Y-88750000D01*
X99750000Y-91250000D02*
X97250000Y-91250000D01*
G04 #@! TO.C,MH282*
X92750000Y-91250000D02*
X90250000Y-91250000D01*
X92750000Y-91250000D02*
X92750000Y-88750000D01*
X90250000Y-88750000D02*
X90250000Y-91250000D01*
X90250000Y-88750000D02*
X92750000Y-88750000D01*
G04 #@! TO.C,MH283*
X83250000Y-76750000D02*
X85750000Y-76750000D01*
X83250000Y-76750000D02*
X83250000Y-79250000D01*
X85750000Y-79250000D02*
X85750000Y-76750000D01*
X85750000Y-79250000D02*
X83250000Y-79250000D01*
G04 #@! TO.C,MH284*
X76250000Y-82750000D02*
X78750000Y-82750000D01*
X76250000Y-82750000D02*
X76250000Y-85250000D01*
X78750000Y-85250000D02*
X78750000Y-82750000D01*
X78750000Y-85250000D02*
X76250000Y-85250000D01*
G04 #@! TO.C,MH285*
X69250000Y-70750000D02*
X71750000Y-70750000D01*
X69250000Y-70750000D02*
X69250000Y-73250000D01*
X71750000Y-73250000D02*
X71750000Y-70750000D01*
X71750000Y-73250000D02*
X69250000Y-73250000D01*
G04 #@! TO.C,MH286*
X64750000Y-103250000D02*
X62250000Y-103250000D01*
X64750000Y-103250000D02*
X64750000Y-100750000D01*
X62250000Y-100750000D02*
X62250000Y-103250000D01*
X62250000Y-100750000D02*
X64750000Y-100750000D01*
G04 #@! TO.C,MH287*
X55250000Y-88750000D02*
X57750000Y-88750000D01*
X55250000Y-88750000D02*
X55250000Y-91250000D01*
X57750000Y-91250000D02*
X57750000Y-88750000D01*
X57750000Y-91250000D02*
X55250000Y-91250000D01*
G04 #@! TO.C,MH288*
X50750000Y-109250000D02*
X48250000Y-109250000D01*
X50750000Y-109250000D02*
X50750000Y-106750000D01*
X48250000Y-106750000D02*
X48250000Y-109250000D01*
X48250000Y-106750000D02*
X50750000Y-106750000D01*
G04 #@! TO.C,MH289*
X167250000Y-106750000D02*
X169750000Y-106750000D01*
X167250000Y-106750000D02*
X167250000Y-109250000D01*
X169750000Y-109250000D02*
X169750000Y-106750000D01*
X169750000Y-109250000D02*
X167250000Y-109250000D01*
G04 #@! TO.C,MH290*
X162750000Y-103250000D02*
X160250000Y-103250000D01*
X162750000Y-103250000D02*
X162750000Y-100750000D01*
X160250000Y-100750000D02*
X160250000Y-103250000D01*
X160250000Y-100750000D02*
X162750000Y-100750000D01*
G04 #@! TO.C,MH291*
X155750000Y-79250000D02*
X153250000Y-79250000D01*
X155750000Y-79250000D02*
X155750000Y-76750000D01*
X153250000Y-76750000D02*
X153250000Y-79250000D01*
X153250000Y-76750000D02*
X155750000Y-76750000D01*
G04 #@! TO.C,MH292*
X146250000Y-94750000D02*
X148750000Y-94750000D01*
X146250000Y-94750000D02*
X146250000Y-97250000D01*
X148750000Y-97250000D02*
X148750000Y-94750000D01*
X148750000Y-97250000D02*
X146250000Y-97250000D01*
G04 #@! TO.C,MH293*
X141750000Y-55250000D02*
X139250000Y-55250000D01*
X141750000Y-55250000D02*
X141750000Y-52750000D01*
X139250000Y-52750000D02*
X139250000Y-55250000D01*
X139250000Y-52750000D02*
X141750000Y-52750000D01*
G04 #@! TO.C,MH294*
X132250000Y-64750000D02*
X134750000Y-64750000D01*
X132250000Y-64750000D02*
X132250000Y-67250000D01*
X134750000Y-67250000D02*
X134750000Y-64750000D01*
X134750000Y-67250000D02*
X132250000Y-67250000D01*
G04 #@! TO.C,MH295*
X125250000Y-100750000D02*
X127750000Y-100750000D01*
X125250000Y-100750000D02*
X125250000Y-103250000D01*
X127750000Y-103250000D02*
X127750000Y-100750000D01*
X127750000Y-103250000D02*
X125250000Y-103250000D01*
G04 #@! TO.C,MH296*
X120750000Y-85250000D02*
X118250000Y-85250000D01*
X120750000Y-85250000D02*
X120750000Y-82750000D01*
X118250000Y-82750000D02*
X118250000Y-85250000D01*
X118250000Y-82750000D02*
X120750000Y-82750000D01*
G04 #@! TO.C,MH297*
X113750000Y-79250000D02*
X111250000Y-79250000D01*
X113750000Y-79250000D02*
X113750000Y-76750000D01*
X111250000Y-76750000D02*
X111250000Y-79250000D01*
X111250000Y-76750000D02*
X113750000Y-76750000D01*
G04 #@! TO.C,MH298*
X106750000Y-79250000D02*
X104250000Y-79250000D01*
X106750000Y-79250000D02*
X106750000Y-76750000D01*
X104250000Y-76750000D02*
X104250000Y-79250000D01*
X104250000Y-76750000D02*
X106750000Y-76750000D01*
G04 #@! TO.C,MH299*
X97250000Y-76750000D02*
X99750000Y-76750000D01*
X97250000Y-76750000D02*
X97250000Y-79250000D01*
X99750000Y-79250000D02*
X99750000Y-76750000D01*
X99750000Y-79250000D02*
X97250000Y-79250000D01*
G04 #@! TO.C,MH300*
X92750000Y-79250000D02*
X90250000Y-79250000D01*
X92750000Y-79250000D02*
X92750000Y-76750000D01*
X90250000Y-76750000D02*
X90250000Y-79250000D01*
X90250000Y-76750000D02*
X92750000Y-76750000D01*
G04 #@! TO.C,MH301*
X83250000Y-58750000D02*
X85750000Y-58750000D01*
X83250000Y-58750000D02*
X83250000Y-61250000D01*
X85750000Y-61250000D02*
X85750000Y-58750000D01*
X85750000Y-61250000D02*
X83250000Y-61250000D01*
G04 #@! TO.C,MH302*
X78750000Y-109250000D02*
X76250000Y-109250000D01*
X78750000Y-109250000D02*
X78750000Y-106750000D01*
X76250000Y-106750000D02*
X76250000Y-109250000D01*
X76250000Y-106750000D02*
X78750000Y-106750000D01*
G04 #@! TO.C,MH303*
X69250000Y-58750000D02*
X71750000Y-58750000D01*
X69250000Y-58750000D02*
X69250000Y-61250000D01*
X71750000Y-61250000D02*
X71750000Y-58750000D01*
X71750000Y-61250000D02*
X69250000Y-61250000D01*
G04 #@! TO.C,MH304*
X64750000Y-79250000D02*
X62250000Y-79250000D01*
X64750000Y-79250000D02*
X64750000Y-76750000D01*
X62250000Y-76750000D02*
X62250000Y-79250000D01*
X62250000Y-76750000D02*
X64750000Y-76750000D01*
G04 #@! TO.C,MH305*
X55250000Y-100750000D02*
X57750000Y-100750000D01*
X55250000Y-100750000D02*
X55250000Y-103250000D01*
X57750000Y-103250000D02*
X57750000Y-100750000D01*
X57750000Y-103250000D02*
X55250000Y-103250000D01*
G04 #@! TO.C,MH306*
X48250000Y-100750000D02*
X50750000Y-100750000D01*
X48250000Y-100750000D02*
X48250000Y-103250000D01*
X50750000Y-103250000D02*
X50750000Y-100750000D01*
X50750000Y-103250000D02*
X48250000Y-103250000D01*
G04 #@! TO.C,MH307*
X167250000Y-94750000D02*
X169750000Y-94750000D01*
X167250000Y-94750000D02*
X167250000Y-97250000D01*
X169750000Y-97250000D02*
X169750000Y-94750000D01*
X169750000Y-97250000D02*
X167250000Y-97250000D01*
G04 #@! TO.C,MH308*
X162750000Y-79250000D02*
X160250000Y-79250000D01*
X162750000Y-79250000D02*
X162750000Y-76750000D01*
X160250000Y-76750000D02*
X160250000Y-79250000D01*
X160250000Y-76750000D02*
X162750000Y-76750000D01*
G04 #@! TO.C,MH309*
X153250000Y-58750000D02*
X155750000Y-58750000D01*
X153250000Y-58750000D02*
X153250000Y-61250000D01*
X155750000Y-61250000D02*
X155750000Y-58750000D01*
X155750000Y-61250000D02*
X153250000Y-61250000D01*
G04 #@! TO.C,MH310*
X148750000Y-79250000D02*
X146250000Y-79250000D01*
X148750000Y-79250000D02*
X148750000Y-76750000D01*
X146250000Y-76750000D02*
X146250000Y-79250000D01*
X146250000Y-76750000D02*
X148750000Y-76750000D01*
G04 #@! TO.C,MH311*
X139250000Y-82750000D02*
X141750000Y-82750000D01*
X139250000Y-82750000D02*
X139250000Y-85250000D01*
X141750000Y-85250000D02*
X141750000Y-82750000D01*
X141750000Y-85250000D02*
X139250000Y-85250000D01*
G04 #@! TO.C,MH312*
X134750000Y-61250000D02*
X132250000Y-61250000D01*
X134750000Y-61250000D02*
X134750000Y-58750000D01*
X132250000Y-58750000D02*
X132250000Y-61250000D01*
X132250000Y-58750000D02*
X134750000Y-58750000D01*
G04 #@! TO.C,MH313*
X125250000Y-88750000D02*
X127750000Y-88750000D01*
X125250000Y-88750000D02*
X125250000Y-91250000D01*
X127750000Y-91250000D02*
X127750000Y-88750000D01*
X127750000Y-91250000D02*
X125250000Y-91250000D01*
G04 #@! TO.C,MH314*
X120750000Y-91250000D02*
X118250000Y-91250000D01*
X120750000Y-91250000D02*
X120750000Y-88750000D01*
X118250000Y-88750000D02*
X118250000Y-91250000D01*
X118250000Y-88750000D02*
X120750000Y-88750000D01*
G04 #@! TO.C,MH315*
X113750000Y-91250000D02*
X111250000Y-91250000D01*
X113750000Y-91250000D02*
X113750000Y-88750000D01*
X111250000Y-88750000D02*
X111250000Y-91250000D01*
X111250000Y-88750000D02*
X113750000Y-88750000D01*
G04 #@! TO.C,MH316*
X106750000Y-85250000D02*
X104250000Y-85250000D01*
X106750000Y-85250000D02*
X106750000Y-82750000D01*
X104250000Y-82750000D02*
X104250000Y-85250000D01*
X104250000Y-82750000D02*
X106750000Y-82750000D01*
G04 #@! TO.C,MH317*
X97250000Y-70750000D02*
X99750000Y-70750000D01*
X97250000Y-70750000D02*
X97250000Y-73250000D01*
X99750000Y-73250000D02*
X99750000Y-70750000D01*
X99750000Y-73250000D02*
X97250000Y-73250000D01*
G04 #@! TO.C,MH318*
X92750000Y-97250000D02*
X90250000Y-97250000D01*
X92750000Y-97250000D02*
X92750000Y-94750000D01*
X90250000Y-94750000D02*
X90250000Y-97250000D01*
X90250000Y-94750000D02*
X92750000Y-94750000D01*
G04 #@! TO.C,MH319*
X83250000Y-64750000D02*
X85750000Y-64750000D01*
X83250000Y-64750000D02*
X83250000Y-67250000D01*
X85750000Y-67250000D02*
X85750000Y-64750000D01*
X85750000Y-67250000D02*
X83250000Y-67250000D01*
G04 #@! TO.C,MH320*
X78750000Y-79250000D02*
X76250000Y-79250000D01*
X78750000Y-79250000D02*
X78750000Y-76750000D01*
X76250000Y-76750000D02*
X76250000Y-79250000D01*
X76250000Y-76750000D02*
X78750000Y-76750000D01*
G04 #@! TO.C,MH321*
X69250000Y-76750000D02*
X71750000Y-76750000D01*
X69250000Y-76750000D02*
X69250000Y-79250000D01*
X71750000Y-79250000D02*
X71750000Y-76750000D01*
X71750000Y-79250000D02*
X69250000Y-79250000D01*
G04 #@! TO.C,MH322*
X64750000Y-97250000D02*
X62250000Y-97250000D01*
X64750000Y-97250000D02*
X64750000Y-94750000D01*
X62250000Y-94750000D02*
X62250000Y-97250000D01*
X62250000Y-94750000D02*
X64750000Y-94750000D01*
G04 #@! TO.C,MH323*
X55250000Y-94750000D02*
X57750000Y-94750000D01*
X55250000Y-94750000D02*
X55250000Y-97250000D01*
X57750000Y-97250000D02*
X57750000Y-94750000D01*
X57750000Y-97250000D02*
X55250000Y-97250000D01*
G04 #@! TO.C,MH324*
X48250000Y-82750000D02*
X50750000Y-82750000D01*
X48250000Y-82750000D02*
X48250000Y-85250000D01*
X50750000Y-85250000D02*
X50750000Y-82750000D01*
X50750000Y-85250000D02*
X48250000Y-85250000D01*
G04 #@! TO.C,MH325*
X169750000Y-79250000D02*
X167250000Y-79250000D01*
X169750000Y-79250000D02*
X169750000Y-76750000D01*
X167250000Y-76750000D02*
X167250000Y-79250000D01*
X167250000Y-76750000D02*
X169750000Y-76750000D01*
G04 #@! TO.C,MH326*
X160250000Y-58750000D02*
X162750000Y-58750000D01*
X160250000Y-58750000D02*
X160250000Y-61250000D01*
X162750000Y-61250000D02*
X162750000Y-58750000D01*
X162750000Y-61250000D02*
X160250000Y-61250000D01*
G04 #@! TO.C,MH327*
X155750000Y-73250000D02*
X153250000Y-73250000D01*
X155750000Y-73250000D02*
X155750000Y-70750000D01*
X153250000Y-70750000D02*
X153250000Y-73250000D01*
X153250000Y-70750000D02*
X155750000Y-70750000D01*
G04 #@! TO.C,MH328*
X146250000Y-88750000D02*
X148750000Y-88750000D01*
X146250000Y-88750000D02*
X146250000Y-91250000D01*
X148750000Y-91250000D02*
X148750000Y-88750000D01*
X148750000Y-91250000D02*
X146250000Y-91250000D01*
G04 #@! TO.C,MH329*
X141750000Y-91250000D02*
X139250000Y-91250000D01*
X141750000Y-91250000D02*
X141750000Y-88750000D01*
X139250000Y-88750000D02*
X139250000Y-91250000D01*
X139250000Y-88750000D02*
X141750000Y-88750000D01*
G04 #@! TO.C,MH330*
X132250000Y-76750000D02*
X134750000Y-76750000D01*
X132250000Y-76750000D02*
X132250000Y-79250000D01*
X134750000Y-79250000D02*
X134750000Y-76750000D01*
X134750000Y-79250000D02*
X132250000Y-79250000D01*
G04 #@! TO.C,MH331*
X127750000Y-73250000D02*
X125250000Y-73250000D01*
X127750000Y-73250000D02*
X127750000Y-70750000D01*
X125250000Y-70750000D02*
X125250000Y-73250000D01*
X125250000Y-70750000D02*
X127750000Y-70750000D01*
G04 #@! TO.C,MH332*
X118250000Y-100750000D02*
X120750000Y-100750000D01*
X118250000Y-100750000D02*
X118250000Y-103250000D01*
X120750000Y-103250000D02*
X120750000Y-100750000D01*
X120750000Y-103250000D02*
X118250000Y-103250000D01*
G04 #@! TO.C,MH333*
X113750000Y-61250000D02*
X111250000Y-61250000D01*
X113750000Y-61250000D02*
X113750000Y-58750000D01*
X111250000Y-58750000D02*
X111250000Y-61250000D01*
X111250000Y-58750000D02*
X113750000Y-58750000D01*
G04 #@! TO.C,MH334*
X104250000Y-88750000D02*
X106750000Y-88750000D01*
X104250000Y-88750000D02*
X104250000Y-91250000D01*
X106750000Y-91250000D02*
X106750000Y-88750000D01*
X106750000Y-91250000D02*
X104250000Y-91250000D01*
G04 #@! TO.C,MH335*
X99750000Y-85250000D02*
X97250000Y-85250000D01*
X99750000Y-85250000D02*
X99750000Y-82750000D01*
X97250000Y-82750000D02*
X97250000Y-85250000D01*
X97250000Y-82750000D02*
X99750000Y-82750000D01*
G04 #@! TO.C,MH336*
X90250000Y-82750000D02*
X92750000Y-82750000D01*
X90250000Y-82750000D02*
X90250000Y-85250000D01*
X92750000Y-85250000D02*
X92750000Y-82750000D01*
X92750000Y-85250000D02*
X90250000Y-85250000D01*
G04 #@! TO.C,MH337*
X85750000Y-73250000D02*
X83250000Y-73250000D01*
X85750000Y-73250000D02*
X85750000Y-70750000D01*
X83250000Y-70750000D02*
X83250000Y-73250000D01*
X83250000Y-70750000D02*
X85750000Y-70750000D01*
G04 #@! TO.C,MH338*
X76250000Y-88750000D02*
X78750000Y-88750000D01*
X76250000Y-88750000D02*
X76250000Y-91250000D01*
X78750000Y-91250000D02*
X78750000Y-88750000D01*
X78750000Y-91250000D02*
X76250000Y-91250000D01*
G04 #@! TO.C,MH339*
X71750000Y-103250000D02*
X69250000Y-103250000D01*
X71750000Y-103250000D02*
X71750000Y-100750000D01*
X69250000Y-100750000D02*
X69250000Y-103250000D01*
X69250000Y-100750000D02*
X71750000Y-100750000D01*
G04 #@! TO.C,MH340*
X62250000Y-88750000D02*
X64750000Y-88750000D01*
X62250000Y-88750000D02*
X62250000Y-91250000D01*
X64750000Y-91250000D02*
X64750000Y-88750000D01*
X64750000Y-91250000D02*
X62250000Y-91250000D01*
G04 #@! TO.C,MH341*
X57750000Y-79250000D02*
X55250000Y-79250000D01*
X57750000Y-79250000D02*
X57750000Y-76750000D01*
X55250000Y-76750000D02*
X55250000Y-79250000D01*
X55250000Y-76750000D02*
X57750000Y-76750000D01*
G04 #@! TO.C,MH342*
X48250000Y-64750000D02*
X50750000Y-64750000D01*
X48250000Y-64750000D02*
X48250000Y-67250000D01*
X50750000Y-67250000D02*
X50750000Y-64750000D01*
X50750000Y-67250000D02*
X48250000Y-67250000D01*
G04 #@! TO.C,MH343*
X167250000Y-88750000D02*
X169750000Y-88750000D01*
X167250000Y-88750000D02*
X167250000Y-91250000D01*
X169750000Y-91250000D02*
X169750000Y-88750000D01*
X169750000Y-91250000D02*
X167250000Y-91250000D01*
G04 #@! TO.C,MH344*
X162750000Y-85250000D02*
X160250000Y-85250000D01*
X162750000Y-85250000D02*
X162750000Y-82750000D01*
X160250000Y-82750000D02*
X160250000Y-85250000D01*
X160250000Y-82750000D02*
X162750000Y-82750000D01*
G04 #@! TO.C,MH345*
X155750000Y-103250000D02*
X153250000Y-103250000D01*
X155750000Y-103250000D02*
X155750000Y-100750000D01*
X153250000Y-100750000D02*
X153250000Y-103250000D01*
X153250000Y-100750000D02*
X155750000Y-100750000D01*
G04 #@! TO.C,MH346*
X146250000Y-82750000D02*
X148750000Y-82750000D01*
X146250000Y-82750000D02*
X146250000Y-85250000D01*
X148750000Y-85250000D02*
X148750000Y-82750000D01*
X148750000Y-85250000D02*
X146250000Y-85250000D01*
G04 #@! TO.C,MH347*
X139250000Y-58750000D02*
X141750000Y-58750000D01*
X139250000Y-58750000D02*
X139250000Y-61250000D01*
X141750000Y-61250000D02*
X141750000Y-58750000D01*
X141750000Y-61250000D02*
X139250000Y-61250000D01*
G04 #@! TO.C,MH348*
X134750000Y-85250000D02*
X132250000Y-85250000D01*
X134750000Y-85250000D02*
X134750000Y-82750000D01*
X132250000Y-82750000D02*
X132250000Y-85250000D01*
X132250000Y-82750000D02*
X134750000Y-82750000D01*
G04 #@! TO.C,MH349*
X125250000Y-94750000D02*
X127750000Y-94750000D01*
X125250000Y-94750000D02*
X125250000Y-97250000D01*
X127750000Y-97250000D02*
X127750000Y-94750000D01*
X127750000Y-97250000D02*
X125250000Y-97250000D01*
G04 #@! TO.C,MH350*
X120750000Y-73250000D02*
X118250000Y-73250000D01*
X120750000Y-73250000D02*
X120750000Y-70750000D01*
X118250000Y-70750000D02*
X118250000Y-73250000D01*
X118250000Y-70750000D02*
X120750000Y-70750000D01*
G04 #@! TO.C,MH351*
X111250000Y-64750000D02*
X113750000Y-64750000D01*
X111250000Y-64750000D02*
X111250000Y-67250000D01*
X113750000Y-67250000D02*
X113750000Y-64750000D01*
X113750000Y-67250000D02*
X111250000Y-67250000D01*
G04 #@! TO.C,MH352*
X106750000Y-67250000D02*
X104250000Y-67250000D01*
X106750000Y-67250000D02*
X106750000Y-64750000D01*
X104250000Y-64750000D02*
X104250000Y-67250000D01*
X104250000Y-64750000D02*
X106750000Y-64750000D01*
G04 #@! TO.C,MH353*
X97250000Y-64750000D02*
X99750000Y-64750000D01*
X97250000Y-64750000D02*
X97250000Y-67250000D01*
X99750000Y-67250000D02*
X99750000Y-64750000D01*
X99750000Y-67250000D02*
X97250000Y-67250000D01*
G04 #@! TO.C,MH354*
X92750000Y-73250000D02*
X90250000Y-73250000D01*
X92750000Y-73250000D02*
X92750000Y-70750000D01*
X90250000Y-70750000D02*
X90250000Y-73250000D01*
X90250000Y-70750000D02*
X92750000Y-70750000D01*
G04 #@! TO.C,MH355*
X83250000Y-82750000D02*
X85750000Y-82750000D01*
X83250000Y-82750000D02*
X83250000Y-85250000D01*
X85750000Y-85250000D02*
X85750000Y-82750000D01*
X85750000Y-85250000D02*
X83250000Y-85250000D01*
G04 #@! TO.C,MH356*
X78750000Y-97250000D02*
X76250000Y-97250000D01*
X78750000Y-97250000D02*
X78750000Y-94750000D01*
X76250000Y-94750000D02*
X76250000Y-97250000D01*
X76250000Y-94750000D02*
X78750000Y-94750000D01*
G04 #@! TO.C,MH357*
X69250000Y-88750000D02*
X71750000Y-88750000D01*
X69250000Y-88750000D02*
X69250000Y-91250000D01*
X71750000Y-91250000D02*
X71750000Y-88750000D01*
X71750000Y-91250000D02*
X69250000Y-91250000D01*
G04 #@! TO.C,MH358*
X64750000Y-67250000D02*
X62250000Y-67250000D01*
X64750000Y-67250000D02*
X64750000Y-64750000D01*
X62250000Y-64750000D02*
X62250000Y-67250000D01*
X62250000Y-64750000D02*
X64750000Y-64750000D01*
G04 #@! TO.C,MH359*
X55250000Y-82750000D02*
X57750000Y-82750000D01*
X55250000Y-82750000D02*
X55250000Y-85250000D01*
X57750000Y-85250000D02*
X57750000Y-82750000D01*
X57750000Y-85250000D02*
X55250000Y-85250000D01*
G04 #@! TO.C,MH360*
X50750000Y-55250000D02*
X48250000Y-55250000D01*
X50750000Y-55250000D02*
X50750000Y-52750000D01*
X48250000Y-52750000D02*
X48250000Y-55250000D01*
X48250000Y-52750000D02*
X50750000Y-52750000D01*
G04 #@! TO.C,MH361*
X237250000Y-70750000D02*
X239750000Y-70750000D01*
X237250000Y-70750000D02*
X237250000Y-73250000D01*
X239750000Y-73250000D02*
X239750000Y-70750000D01*
X239750000Y-73250000D02*
X237250000Y-73250000D01*
G04 #@! TO.C,MH362*
X230250000Y-70750000D02*
X232750000Y-70750000D01*
X230250000Y-70750000D02*
X230250000Y-73250000D01*
X232750000Y-73250000D02*
X232750000Y-70750000D01*
X232750000Y-73250000D02*
X230250000Y-73250000D01*
G04 #@! TO.C,MH363*
X225750000Y-73250000D02*
X223250000Y-73250000D01*
X225750000Y-73250000D02*
X225750000Y-70750000D01*
X223250000Y-70750000D02*
X223250000Y-73250000D01*
X223250000Y-70750000D02*
X225750000Y-70750000D01*
G04 #@! TO.C,MH364*
X218750000Y-79250000D02*
X216250000Y-79250000D01*
X218750000Y-79250000D02*
X218750000Y-76750000D01*
X216250000Y-76750000D02*
X216250000Y-79250000D01*
X216250000Y-76750000D02*
X218750000Y-76750000D01*
G04 #@! TO.C,MH365*
X211750000Y-79250000D02*
X209250000Y-79250000D01*
X211750000Y-79250000D02*
X211750000Y-76750000D01*
X209250000Y-76750000D02*
X209250000Y-79250000D01*
X209250000Y-76750000D02*
X211750000Y-76750000D01*
G04 #@! TO.C,MH366*
X202250000Y-100750000D02*
X204750000Y-100750000D01*
X202250000Y-100750000D02*
X202250000Y-103250000D01*
X204750000Y-103250000D02*
X204750000Y-100750000D01*
X204750000Y-103250000D02*
X202250000Y-103250000D01*
G04 #@! TO.C,MH367*
X197750000Y-73250000D02*
X195250000Y-73250000D01*
X197750000Y-73250000D02*
X197750000Y-70750000D01*
X195250000Y-70750000D02*
X195250000Y-73250000D01*
X195250000Y-70750000D02*
X197750000Y-70750000D01*
G04 #@! TO.C,MH368*
X188250000Y-100750000D02*
X190750000Y-100750000D01*
X188250000Y-100750000D02*
X188250000Y-103250000D01*
X190750000Y-103250000D02*
X190750000Y-100750000D01*
X190750000Y-103250000D02*
X188250000Y-103250000D01*
G04 #@! TO.C,MH369*
X183750000Y-109250000D02*
X181250000Y-109250000D01*
X183750000Y-109250000D02*
X183750000Y-106750000D01*
X181250000Y-106750000D02*
X181250000Y-109250000D01*
X181250000Y-106750000D02*
X183750000Y-106750000D01*
G04 #@! TO.C,MH370*
X174250000Y-106750000D02*
X176750000Y-106750000D01*
X174250000Y-106750000D02*
X174250000Y-109250000D01*
X176750000Y-109250000D02*
X176750000Y-106750000D01*
X176750000Y-109250000D02*
X174250000Y-109250000D01*
G04 #@! TO.C,MH371*
X191750000Y-49750000D02*
X194250000Y-49750000D01*
X191750000Y-49750000D02*
X191750000Y-52250000D01*
X194250000Y-52250000D02*
X194250000Y-49750000D01*
X194250000Y-52250000D02*
X191750000Y-52250000D01*
G04 #@! TO.C,MH372*
X201250000Y-52250000D02*
X198750000Y-52250000D01*
X201250000Y-52250000D02*
X201250000Y-49750000D01*
X198750000Y-49750000D02*
X198750000Y-52250000D01*
X198750000Y-49750000D02*
X201250000Y-49750000D01*
G04 #@! TO.C,MH373*
X219750000Y-49750000D02*
X222250000Y-49750000D01*
X219750000Y-49750000D02*
X219750000Y-52250000D01*
X222250000Y-52250000D02*
X222250000Y-49750000D01*
X222250000Y-52250000D02*
X219750000Y-52250000D01*
G04 #@! TO.C,MH374*
X205750000Y-49750000D02*
X208250000Y-49750000D01*
X205750000Y-49750000D02*
X205750000Y-52250000D01*
X208250000Y-52250000D02*
X208250000Y-49750000D01*
X208250000Y-52250000D02*
X205750000Y-52250000D01*
G04 #@! TO.C,MH375*
X233750000Y-49750000D02*
X236250000Y-49750000D01*
X233750000Y-49750000D02*
X233750000Y-52250000D01*
X236250000Y-52250000D02*
X236250000Y-49750000D01*
X236250000Y-52250000D02*
X233750000Y-52250000D01*
G04 #@! TO.C,MH376*
X240750000Y-49750000D02*
X243250000Y-49750000D01*
X240750000Y-49750000D02*
X240750000Y-52250000D01*
X243250000Y-52250000D02*
X243250000Y-49750000D01*
X243250000Y-52250000D02*
X240750000Y-52250000D01*
G04 #@! TO.C,MH377*
X177750000Y-49750000D02*
X180250000Y-49750000D01*
X177750000Y-49750000D02*
X177750000Y-52250000D01*
X180250000Y-52250000D02*
X180250000Y-49750000D01*
X180250000Y-52250000D02*
X177750000Y-52250000D01*
G04 #@! TO.C,MH378*
X187250000Y-52250000D02*
X184750000Y-52250000D01*
X187250000Y-52250000D02*
X187250000Y-49750000D01*
X184750000Y-49750000D02*
X184750000Y-52250000D01*
X184750000Y-49750000D02*
X187250000Y-49750000D01*
G04 #@! TO.C,MH379*
X212750000Y-49750000D02*
X215250000Y-49750000D01*
X212750000Y-49750000D02*
X212750000Y-52250000D01*
X215250000Y-52250000D02*
X215250000Y-49750000D01*
X215250000Y-52250000D02*
X212750000Y-52250000D01*
G04 #@! TO.C,MH380*
X226750000Y-49750000D02*
X229250000Y-49750000D01*
X226750000Y-49750000D02*
X226750000Y-52250000D01*
X229250000Y-52250000D02*
X229250000Y-49750000D01*
X229250000Y-52250000D02*
X226750000Y-52250000D01*
G04 #@! TO.C,MH381*
X239750000Y-103250000D02*
X237250000Y-103250000D01*
X239750000Y-103250000D02*
X239750000Y-100750000D01*
X237250000Y-100750000D02*
X237250000Y-103250000D01*
X237250000Y-100750000D02*
X239750000Y-100750000D01*
G04 #@! TO.C,MH382*
X230250000Y-94750000D02*
X232750000Y-94750000D01*
X230250000Y-94750000D02*
X230250000Y-97250000D01*
X232750000Y-97250000D02*
X232750000Y-94750000D01*
X232750000Y-97250000D02*
X230250000Y-97250000D01*
G04 #@! TO.C,MH383*
X225750000Y-109250000D02*
X223250000Y-109250000D01*
X225750000Y-109250000D02*
X225750000Y-106750000D01*
X223250000Y-106750000D02*
X223250000Y-109250000D01*
X223250000Y-106750000D02*
X225750000Y-106750000D01*
G04 #@! TO.C,MH384*
X218750000Y-103250000D02*
X216250000Y-103250000D01*
X218750000Y-103250000D02*
X218750000Y-100750000D01*
X216250000Y-100750000D02*
X216250000Y-103250000D01*
X216250000Y-100750000D02*
X218750000Y-100750000D01*
G04 #@! TO.C,MH385*
X211750000Y-73250000D02*
X209250000Y-73250000D01*
X211750000Y-73250000D02*
X211750000Y-70750000D01*
X209250000Y-70750000D02*
X209250000Y-73250000D01*
X209250000Y-70750000D02*
X211750000Y-70750000D01*
G04 #@! TO.C,MH386*
X202250000Y-82750000D02*
X204750000Y-82750000D01*
X202250000Y-82750000D02*
X202250000Y-85250000D01*
X204750000Y-85250000D02*
X204750000Y-82750000D01*
X204750000Y-85250000D02*
X202250000Y-85250000D01*
G04 #@! TO.C,MH387*
X197750000Y-97250000D02*
X195250000Y-97250000D01*
X197750000Y-97250000D02*
X197750000Y-94750000D01*
X195250000Y-94750000D02*
X195250000Y-97250000D01*
X195250000Y-94750000D02*
X197750000Y-94750000D01*
G04 #@! TO.C,MH388*
X188250000Y-58750000D02*
X190750000Y-58750000D01*
X188250000Y-58750000D02*
X188250000Y-61250000D01*
X190750000Y-61250000D02*
X190750000Y-58750000D01*
X190750000Y-61250000D02*
X188250000Y-61250000D01*
G04 #@! TO.C,MH389*
X183750000Y-67250000D02*
X181250000Y-67250000D01*
X183750000Y-67250000D02*
X183750000Y-64750000D01*
X181250000Y-64750000D02*
X181250000Y-67250000D01*
X181250000Y-64750000D02*
X183750000Y-64750000D01*
G04 #@! TO.C,MH390*
X176750000Y-97250000D02*
X174250000Y-97250000D01*
X176750000Y-97250000D02*
X176750000Y-94750000D01*
X174250000Y-94750000D02*
X174250000Y-97250000D01*
X174250000Y-94750000D02*
X176750000Y-94750000D01*
G04 #@! TO.C,MH391*
X205750000Y-55750000D02*
X208250000Y-55750000D01*
X205750000Y-55750000D02*
X205750000Y-58250000D01*
X208250000Y-58250000D02*
X208250000Y-55750000D01*
X208250000Y-58250000D02*
X205750000Y-58250000D01*
G04 #@! TO.C,MH392*
X187250000Y-58250000D02*
X184750000Y-58250000D01*
X187250000Y-58250000D02*
X187250000Y-55750000D01*
X184750000Y-55750000D02*
X184750000Y-58250000D01*
X184750000Y-55750000D02*
X187250000Y-55750000D01*
G04 #@! TO.C,MH393*
X243250000Y-58250000D02*
X240750000Y-58250000D01*
X243250000Y-58250000D02*
X243250000Y-55750000D01*
X240750000Y-55750000D02*
X240750000Y-58250000D01*
X240750000Y-55750000D02*
X243250000Y-55750000D01*
G04 #@! TO.C,MH394*
X226750000Y-55750000D02*
X229250000Y-55750000D01*
X226750000Y-55750000D02*
X226750000Y-58250000D01*
X229250000Y-58250000D02*
X229250000Y-55750000D01*
X229250000Y-58250000D02*
X226750000Y-58250000D01*
G04 #@! TO.C,MH395*
X219750000Y-55750000D02*
X222250000Y-55750000D01*
X219750000Y-55750000D02*
X219750000Y-58250000D01*
X222250000Y-58250000D02*
X222250000Y-55750000D01*
X222250000Y-58250000D02*
X219750000Y-58250000D01*
G04 #@! TO.C,MH396*
X215250000Y-58250000D02*
X212750000Y-58250000D01*
X215250000Y-58250000D02*
X215250000Y-55750000D01*
X212750000Y-55750000D02*
X212750000Y-58250000D01*
X212750000Y-55750000D02*
X215250000Y-55750000D01*
G04 #@! TO.C,MH397*
X201250000Y-58250000D02*
X198750000Y-58250000D01*
X201250000Y-58250000D02*
X201250000Y-55750000D01*
X198750000Y-55750000D02*
X198750000Y-58250000D01*
X198750000Y-55750000D02*
X201250000Y-55750000D01*
G04 #@! TO.C,MH398*
X194250000Y-58250000D02*
X191750000Y-58250000D01*
X194250000Y-58250000D02*
X194250000Y-55750000D01*
X191750000Y-55750000D02*
X191750000Y-58250000D01*
X191750000Y-55750000D02*
X194250000Y-55750000D01*
G04 #@! TO.C,MH399*
X233750000Y-55750000D02*
X236250000Y-55750000D01*
X233750000Y-55750000D02*
X233750000Y-58250000D01*
X236250000Y-58250000D02*
X236250000Y-55750000D01*
X236250000Y-58250000D02*
X233750000Y-58250000D01*
G04 #@! TO.C,MH400*
X180250000Y-58250000D02*
X177750000Y-58250000D01*
X180250000Y-58250000D02*
X180250000Y-55750000D01*
X177750000Y-55750000D02*
X177750000Y-58250000D01*
X177750000Y-55750000D02*
X180250000Y-55750000D01*
G04 #@! TO.C,MH401*
X239750000Y-79250000D02*
X237250000Y-79250000D01*
X239750000Y-79250000D02*
X239750000Y-76750000D01*
X237250000Y-76750000D02*
X237250000Y-79250000D01*
X237250000Y-76750000D02*
X239750000Y-76750000D01*
G04 #@! TO.C,MH402*
X232750000Y-67250000D02*
X230250000Y-67250000D01*
X232750000Y-67250000D02*
X232750000Y-64750000D01*
X230250000Y-64750000D02*
X230250000Y-67250000D01*
X230250000Y-64750000D02*
X232750000Y-64750000D01*
G04 #@! TO.C,MH403*
X223250000Y-88750000D02*
X225750000Y-88750000D01*
X223250000Y-88750000D02*
X223250000Y-91250000D01*
X225750000Y-91250000D02*
X225750000Y-88750000D01*
X225750000Y-91250000D02*
X223250000Y-91250000D01*
G04 #@! TO.C,MH404*
X216250000Y-94750000D02*
X218750000Y-94750000D01*
X216250000Y-94750000D02*
X216250000Y-97250000D01*
X218750000Y-97250000D02*
X218750000Y-94750000D01*
X218750000Y-97250000D02*
X216250000Y-97250000D01*
G04 #@! TO.C,MH405*
X211750000Y-109250000D02*
X209250000Y-109250000D01*
X211750000Y-109250000D02*
X211750000Y-106750000D01*
X209250000Y-106750000D02*
X209250000Y-109250000D01*
X209250000Y-106750000D02*
X211750000Y-106750000D01*
G04 #@! TO.C,MH406*
X204750000Y-61250000D02*
X202250000Y-61250000D01*
X204750000Y-61250000D02*
X204750000Y-58750000D01*
X202250000Y-58750000D02*
X202250000Y-61250000D01*
X202250000Y-58750000D02*
X204750000Y-58750000D01*
G04 #@! TO.C,MH407*
X195250000Y-58750000D02*
X197750000Y-58750000D01*
X195250000Y-58750000D02*
X195250000Y-61250000D01*
X197750000Y-61250000D02*
X197750000Y-58750000D01*
X197750000Y-61250000D02*
X195250000Y-61250000D01*
G04 #@! TO.C,MH408*
X190750000Y-109250000D02*
X188250000Y-109250000D01*
X190750000Y-109250000D02*
X190750000Y-106750000D01*
X188250000Y-106750000D02*
X188250000Y-109250000D01*
X188250000Y-106750000D02*
X190750000Y-106750000D01*
G04 #@! TO.C,MH409*
X181250000Y-100750000D02*
X183750000Y-100750000D01*
X181250000Y-100750000D02*
X181250000Y-103250000D01*
X183750000Y-103250000D02*
X183750000Y-100750000D01*
X183750000Y-103250000D02*
X181250000Y-103250000D01*
G04 #@! TO.C,MH410*
X176750000Y-103250000D02*
X174250000Y-103250000D01*
X176750000Y-103250000D02*
X176750000Y-100750000D01*
X174250000Y-100750000D02*
X174250000Y-103250000D01*
X174250000Y-100750000D02*
X176750000Y-100750000D01*
G04 #@! TO.C,MH411*
X208250000Y-64250000D02*
X205750000Y-64250000D01*
X208250000Y-64250000D02*
X208250000Y-61750000D01*
X205750000Y-61750000D02*
X205750000Y-64250000D01*
X205750000Y-61750000D02*
X208250000Y-61750000D01*
G04 #@! TO.C,MH412*
X236250000Y-64250000D02*
X233750000Y-64250000D01*
X236250000Y-64250000D02*
X236250000Y-61750000D01*
X233750000Y-61750000D02*
X233750000Y-64250000D01*
X233750000Y-61750000D02*
X236250000Y-61750000D01*
G04 #@! TO.C,MH413*
X212750000Y-61750000D02*
X215250000Y-61750000D01*
X212750000Y-61750000D02*
X212750000Y-64250000D01*
X215250000Y-64250000D02*
X215250000Y-61750000D01*
X215250000Y-64250000D02*
X212750000Y-64250000D01*
G04 #@! TO.C,MH414*
X222250000Y-64250000D02*
X219750000Y-64250000D01*
X222250000Y-64250000D02*
X222250000Y-61750000D01*
X219750000Y-61750000D02*
X219750000Y-64250000D01*
X219750000Y-61750000D02*
X222250000Y-61750000D01*
G04 #@! TO.C,MH415*
X226750000Y-61750000D02*
X229250000Y-61750000D01*
X226750000Y-61750000D02*
X226750000Y-64250000D01*
X229250000Y-64250000D02*
X229250000Y-61750000D01*
X229250000Y-64250000D02*
X226750000Y-64250000D01*
G04 #@! TO.C,MH416*
X194250000Y-64250000D02*
X191750000Y-64250000D01*
X194250000Y-64250000D02*
X194250000Y-61750000D01*
X191750000Y-61750000D02*
X191750000Y-64250000D01*
X191750000Y-61750000D02*
X194250000Y-61750000D01*
G04 #@! TO.C,MH417*
X177750000Y-61750000D02*
X180250000Y-61750000D01*
X177750000Y-61750000D02*
X177750000Y-64250000D01*
X180250000Y-64250000D02*
X180250000Y-61750000D01*
X180250000Y-64250000D02*
X177750000Y-64250000D01*
G04 #@! TO.C,MH418*
X243250000Y-64250000D02*
X240750000Y-64250000D01*
X243250000Y-64250000D02*
X243250000Y-61750000D01*
X240750000Y-61750000D02*
X240750000Y-64250000D01*
X240750000Y-61750000D02*
X243250000Y-61750000D01*
G04 #@! TO.C,MH419*
X198750000Y-61750000D02*
X201250000Y-61750000D01*
X198750000Y-61750000D02*
X198750000Y-64250000D01*
X201250000Y-64250000D02*
X201250000Y-61750000D01*
X201250000Y-64250000D02*
X198750000Y-64250000D01*
G04 #@! TO.C,MH420*
X187250000Y-64250000D02*
X184750000Y-64250000D01*
X187250000Y-64250000D02*
X187250000Y-61750000D01*
X184750000Y-61750000D02*
X184750000Y-64250000D01*
X184750000Y-61750000D02*
X187250000Y-61750000D01*
G04 #@! TO.C,MH421*
X237250000Y-94750000D02*
X239750000Y-94750000D01*
X237250000Y-94750000D02*
X237250000Y-97250000D01*
X239750000Y-97250000D02*
X239750000Y-94750000D01*
X239750000Y-97250000D02*
X237250000Y-97250000D01*
G04 #@! TO.C,MH422*
X230250000Y-100750000D02*
X232750000Y-100750000D01*
X230250000Y-100750000D02*
X230250000Y-103250000D01*
X232750000Y-103250000D02*
X232750000Y-100750000D01*
X232750000Y-103250000D02*
X230250000Y-103250000D01*
G04 #@! TO.C,MH423*
X225750000Y-103250000D02*
X223250000Y-103250000D01*
X225750000Y-103250000D02*
X225750000Y-100750000D01*
X223250000Y-100750000D02*
X223250000Y-103250000D01*
X223250000Y-100750000D02*
X225750000Y-100750000D01*
G04 #@! TO.C,MH424*
X216250000Y-82750000D02*
X218750000Y-82750000D01*
X216250000Y-82750000D02*
X216250000Y-85250000D01*
X218750000Y-85250000D02*
X218750000Y-82750000D01*
X218750000Y-85250000D02*
X216250000Y-85250000D01*
G04 #@! TO.C,MH425*
X211750000Y-55250000D02*
X209250000Y-55250000D01*
X211750000Y-55250000D02*
X211750000Y-52750000D01*
X209250000Y-52750000D02*
X209250000Y-55250000D01*
X209250000Y-52750000D02*
X211750000Y-52750000D01*
G04 #@! TO.C,MH426*
X204750000Y-109250000D02*
X202250000Y-109250000D01*
X204750000Y-109250000D02*
X204750000Y-106750000D01*
X202250000Y-106750000D02*
X202250000Y-109250000D01*
X202250000Y-106750000D02*
X204750000Y-106750000D01*
G04 #@! TO.C,MH427*
X195250000Y-106750000D02*
X197750000Y-106750000D01*
X195250000Y-106750000D02*
X195250000Y-109250000D01*
X197750000Y-109250000D02*
X197750000Y-106750000D01*
X197750000Y-109250000D02*
X195250000Y-109250000D01*
G04 #@! TO.C,MH428*
X188250000Y-76750000D02*
X190750000Y-76750000D01*
X188250000Y-76750000D02*
X188250000Y-79250000D01*
X190750000Y-79250000D02*
X190750000Y-76750000D01*
X190750000Y-79250000D02*
X188250000Y-79250000D01*
G04 #@! TO.C,MH429*
X183750000Y-85250000D02*
X181250000Y-85250000D01*
X183750000Y-85250000D02*
X183750000Y-82750000D01*
X181250000Y-82750000D02*
X181250000Y-85250000D01*
X181250000Y-82750000D02*
X183750000Y-82750000D01*
G04 #@! TO.C,MH430*
X174250000Y-88750000D02*
X176750000Y-88750000D01*
X174250000Y-88750000D02*
X174250000Y-91250000D01*
X176750000Y-91250000D02*
X176750000Y-88750000D01*
X176750000Y-91250000D02*
X174250000Y-91250000D01*
G04 #@! TO.C,MH431*
X226750000Y-67750000D02*
X229250000Y-67750000D01*
X226750000Y-67750000D02*
X226750000Y-70250000D01*
X229250000Y-70250000D02*
X229250000Y-67750000D01*
X229250000Y-70250000D02*
X226750000Y-70250000D01*
G04 #@! TO.C,MH432*
X198750000Y-67750000D02*
X201250000Y-67750000D01*
X198750000Y-67750000D02*
X198750000Y-70250000D01*
X201250000Y-70250000D02*
X201250000Y-67750000D01*
X201250000Y-70250000D02*
X198750000Y-70250000D01*
G04 #@! TO.C,MH433*
X187250000Y-70250000D02*
X184750000Y-70250000D01*
X187250000Y-70250000D02*
X187250000Y-67750000D01*
X184750000Y-67750000D02*
X184750000Y-70250000D01*
X184750000Y-67750000D02*
X187250000Y-67750000D01*
G04 #@! TO.C,MH434*
X208250000Y-70250000D02*
X205750000Y-70250000D01*
X208250000Y-70250000D02*
X208250000Y-67750000D01*
X205750000Y-67750000D02*
X205750000Y-70250000D01*
X205750000Y-67750000D02*
X208250000Y-67750000D01*
G04 #@! TO.C,MH435*
X215250000Y-70250000D02*
X212750000Y-70250000D01*
X215250000Y-70250000D02*
X215250000Y-67750000D01*
X212750000Y-67750000D02*
X212750000Y-70250000D01*
X212750000Y-67750000D02*
X215250000Y-67750000D01*
G04 #@! TO.C,MH436*
X240750000Y-67750000D02*
X243250000Y-67750000D01*
X240750000Y-67750000D02*
X240750000Y-70250000D01*
X243250000Y-70250000D02*
X243250000Y-67750000D01*
X243250000Y-70250000D02*
X240750000Y-70250000D01*
G04 #@! TO.C,MH437*
X222250000Y-70250000D02*
X219750000Y-70250000D01*
X222250000Y-70250000D02*
X222250000Y-67750000D01*
X219750000Y-67750000D02*
X219750000Y-70250000D01*
X219750000Y-67750000D02*
X222250000Y-67750000D01*
G04 #@! TO.C,MH438*
X177750000Y-67750000D02*
X180250000Y-67750000D01*
X177750000Y-67750000D02*
X177750000Y-70250000D01*
X180250000Y-70250000D02*
X180250000Y-67750000D01*
X180250000Y-70250000D02*
X177750000Y-70250000D01*
G04 #@! TO.C,MH439*
X191750000Y-67750000D02*
X194250000Y-67750000D01*
X191750000Y-67750000D02*
X191750000Y-70250000D01*
X194250000Y-70250000D02*
X194250000Y-67750000D01*
X194250000Y-70250000D02*
X191750000Y-70250000D01*
G04 #@! TO.C,MH440*
X233750000Y-67750000D02*
X236250000Y-67750000D01*
X233750000Y-67750000D02*
X233750000Y-70250000D01*
X236250000Y-70250000D02*
X236250000Y-67750000D01*
X236250000Y-70250000D02*
X233750000Y-70250000D01*
G04 #@! TO.C,MH441*
X239750000Y-109250000D02*
X237250000Y-109250000D01*
X239750000Y-109250000D02*
X239750000Y-106750000D01*
X237250000Y-106750000D02*
X237250000Y-109250000D01*
X237250000Y-106750000D02*
X239750000Y-106750000D01*
G04 #@! TO.C,MH442*
X232750000Y-61250000D02*
X230250000Y-61250000D01*
X232750000Y-61250000D02*
X232750000Y-58750000D01*
X230250000Y-58750000D02*
X230250000Y-61250000D01*
X230250000Y-58750000D02*
X232750000Y-58750000D01*
G04 #@! TO.C,MH443*
X223250000Y-94750000D02*
X225750000Y-94750000D01*
X223250000Y-94750000D02*
X223250000Y-97250000D01*
X225750000Y-97250000D02*
X225750000Y-94750000D01*
X225750000Y-97250000D02*
X223250000Y-97250000D01*
G04 #@! TO.C,MH444*
X216250000Y-106750000D02*
X218750000Y-106750000D01*
X216250000Y-106750000D02*
X216250000Y-109250000D01*
X218750000Y-109250000D02*
X218750000Y-106750000D01*
X218750000Y-109250000D02*
X216250000Y-109250000D01*
G04 #@! TO.C,MH445*
X209250000Y-88750000D02*
X211750000Y-88750000D01*
X209250000Y-88750000D02*
X209250000Y-91250000D01*
X211750000Y-91250000D02*
X211750000Y-88750000D01*
X211750000Y-91250000D02*
X209250000Y-91250000D01*
G04 #@! TO.C,MH446*
X202250000Y-88750000D02*
X204750000Y-88750000D01*
X202250000Y-88750000D02*
X202250000Y-91250000D01*
X204750000Y-91250000D02*
X204750000Y-88750000D01*
X204750000Y-91250000D02*
X202250000Y-91250000D01*
G04 #@! TO.C,MH447*
X197750000Y-55250000D02*
X195250000Y-55250000D01*
X197750000Y-55250000D02*
X197750000Y-52750000D01*
X195250000Y-52750000D02*
X195250000Y-55250000D01*
X195250000Y-52750000D02*
X197750000Y-52750000D01*
G04 #@! TO.C,MH448*
X188250000Y-70750000D02*
X190750000Y-70750000D01*
X188250000Y-70750000D02*
X188250000Y-73250000D01*
X190750000Y-73250000D02*
X190750000Y-70750000D01*
X190750000Y-73250000D02*
X188250000Y-73250000D01*
G04 #@! TO.C,MH449*
X181250000Y-52750000D02*
X183750000Y-52750000D01*
X181250000Y-52750000D02*
X181250000Y-55250000D01*
X183750000Y-55250000D02*
X183750000Y-52750000D01*
X183750000Y-55250000D02*
X181250000Y-55250000D01*
G04 #@! TO.C,MH450*
X176750000Y-73250000D02*
X174250000Y-73250000D01*
X176750000Y-73250000D02*
X176750000Y-70750000D01*
X174250000Y-70750000D02*
X174250000Y-73250000D01*
X174250000Y-70750000D02*
X176750000Y-70750000D01*
G04 #@! TO.C,MH451*
X212750000Y-73750000D02*
X215250000Y-73750000D01*
X212750000Y-73750000D02*
X212750000Y-76250000D01*
X215250000Y-76250000D02*
X215250000Y-73750000D01*
X215250000Y-76250000D02*
X212750000Y-76250000D01*
G04 #@! TO.C,MH452*
X191750000Y-73750000D02*
X194250000Y-73750000D01*
X191750000Y-73750000D02*
X191750000Y-76250000D01*
X194250000Y-76250000D02*
X194250000Y-73750000D01*
X194250000Y-76250000D02*
X191750000Y-76250000D01*
G04 #@! TO.C,MH453*
X201250000Y-76250000D02*
X198750000Y-76250000D01*
X201250000Y-76250000D02*
X201250000Y-73750000D01*
X198750000Y-73750000D02*
X198750000Y-76250000D01*
X198750000Y-73750000D02*
X201250000Y-73750000D01*
G04 #@! TO.C,MH454*
X180250000Y-76250000D02*
X177750000Y-76250000D01*
X180250000Y-76250000D02*
X180250000Y-73750000D01*
X177750000Y-73750000D02*
X177750000Y-76250000D01*
X177750000Y-73750000D02*
X180250000Y-73750000D01*
G04 #@! TO.C,MH455*
X222250000Y-76250000D02*
X219750000Y-76250000D01*
X222250000Y-76250000D02*
X222250000Y-73750000D01*
X219750000Y-73750000D02*
X219750000Y-76250000D01*
X219750000Y-73750000D02*
X222250000Y-73750000D01*
G04 #@! TO.C,MH456*
X226750000Y-73750000D02*
X229250000Y-73750000D01*
X226750000Y-73750000D02*
X226750000Y-76250000D01*
X229250000Y-76250000D02*
X229250000Y-73750000D01*
X229250000Y-76250000D02*
X226750000Y-76250000D01*
G04 #@! TO.C,MH457*
X243250000Y-76250000D02*
X240750000Y-76250000D01*
X243250000Y-76250000D02*
X243250000Y-73750000D01*
X240750000Y-73750000D02*
X240750000Y-76250000D01*
X240750000Y-73750000D02*
X243250000Y-73750000D01*
G04 #@! TO.C,MH458*
X236250000Y-76250000D02*
X233750000Y-76250000D01*
X236250000Y-76250000D02*
X236250000Y-73750000D01*
X233750000Y-73750000D02*
X233750000Y-76250000D01*
X233750000Y-73750000D02*
X236250000Y-73750000D01*
G04 #@! TO.C,MH459*
X208250000Y-76250000D02*
X205750000Y-76250000D01*
X208250000Y-76250000D02*
X208250000Y-73750000D01*
X205750000Y-73750000D02*
X205750000Y-76250000D01*
X205750000Y-73750000D02*
X208250000Y-73750000D01*
G04 #@! TO.C,MH460*
X184750000Y-73750000D02*
X187250000Y-73750000D01*
X184750000Y-73750000D02*
X184750000Y-76250000D01*
X187250000Y-76250000D02*
X187250000Y-73750000D01*
X187250000Y-76250000D02*
X184750000Y-76250000D01*
G04 #@! TO.C,MH461*
X237250000Y-64750000D02*
X239750000Y-64750000D01*
X237250000Y-64750000D02*
X237250000Y-67250000D01*
X239750000Y-67250000D02*
X239750000Y-64750000D01*
X239750000Y-67250000D02*
X237250000Y-67250000D01*
G04 #@! TO.C,MH462*
X230250000Y-82750000D02*
X232750000Y-82750000D01*
X230250000Y-82750000D02*
X230250000Y-85250000D01*
X232750000Y-85250000D02*
X232750000Y-82750000D01*
X232750000Y-85250000D02*
X230250000Y-85250000D01*
G04 #@! TO.C,MH463*
X225750000Y-85250000D02*
X223250000Y-85250000D01*
X225750000Y-85250000D02*
X225750000Y-82750000D01*
X223250000Y-82750000D02*
X223250000Y-85250000D01*
X223250000Y-82750000D02*
X225750000Y-82750000D01*
G04 #@! TO.C,MH464*
X218750000Y-73250000D02*
X216250000Y-73250000D01*
X218750000Y-73250000D02*
X218750000Y-70750000D01*
X216250000Y-70750000D02*
X216250000Y-73250000D01*
X216250000Y-70750000D02*
X218750000Y-70750000D01*
G04 #@! TO.C,MH465*
X209250000Y-100750000D02*
X211750000Y-100750000D01*
X209250000Y-100750000D02*
X209250000Y-103250000D01*
X211750000Y-103250000D02*
X211750000Y-100750000D01*
X211750000Y-103250000D02*
X209250000Y-103250000D01*
G04 #@! TO.C,MH466*
X204750000Y-67250000D02*
X202250000Y-67250000D01*
X204750000Y-67250000D02*
X204750000Y-64750000D01*
X202250000Y-64750000D02*
X202250000Y-67250000D01*
X202250000Y-64750000D02*
X204750000Y-64750000D01*
G04 #@! TO.C,MH467*
X195250000Y-100750000D02*
X197750000Y-100750000D01*
X195250000Y-100750000D02*
X195250000Y-103250000D01*
X197750000Y-103250000D02*
X197750000Y-100750000D01*
X197750000Y-103250000D02*
X195250000Y-103250000D01*
G04 #@! TO.C,MH468*
X190750000Y-97250000D02*
X188250000Y-97250000D01*
X190750000Y-97250000D02*
X190750000Y-94750000D01*
X188250000Y-94750000D02*
X188250000Y-97250000D01*
X188250000Y-94750000D02*
X190750000Y-94750000D01*
G04 #@! TO.C,MH469*
X183750000Y-91250000D02*
X181250000Y-91250000D01*
X183750000Y-91250000D02*
X183750000Y-88750000D01*
X181250000Y-88750000D02*
X181250000Y-91250000D01*
X181250000Y-88750000D02*
X183750000Y-88750000D01*
G04 #@! TO.C,MH470*
X174250000Y-82750000D02*
X176750000Y-82750000D01*
X174250000Y-82750000D02*
X174250000Y-85250000D01*
X176750000Y-85250000D02*
X176750000Y-82750000D01*
X176750000Y-85250000D02*
X174250000Y-85250000D01*
G04 #@! TO.C,MH471*
X187250000Y-82250000D02*
X184750000Y-82250000D01*
X187250000Y-82250000D02*
X187250000Y-79750000D01*
X184750000Y-79750000D02*
X184750000Y-82250000D01*
X184750000Y-79750000D02*
X187250000Y-79750000D01*
G04 #@! TO.C,MH472*
X198750000Y-79750000D02*
X201250000Y-79750000D01*
X198750000Y-79750000D02*
X198750000Y-82250000D01*
X201250000Y-82250000D02*
X201250000Y-79750000D01*
X201250000Y-82250000D02*
X198750000Y-82250000D01*
G04 #@! TO.C,MH473*
X205750000Y-79750000D02*
X208250000Y-79750000D01*
X205750000Y-79750000D02*
X205750000Y-82250000D01*
X208250000Y-82250000D02*
X208250000Y-79750000D01*
X208250000Y-82250000D02*
X205750000Y-82250000D01*
G04 #@! TO.C,MH474*
X212750000Y-79750000D02*
X215250000Y-79750000D01*
X212750000Y-79750000D02*
X212750000Y-82250000D01*
X215250000Y-82250000D02*
X215250000Y-79750000D01*
X215250000Y-82250000D02*
X212750000Y-82250000D01*
G04 #@! TO.C,MH475*
X219750000Y-79750000D02*
X222250000Y-79750000D01*
X219750000Y-79750000D02*
X219750000Y-82250000D01*
X222250000Y-82250000D02*
X222250000Y-79750000D01*
X222250000Y-82250000D02*
X219750000Y-82250000D01*
G04 #@! TO.C,MH476*
X180250000Y-82250000D02*
X177750000Y-82250000D01*
X180250000Y-82250000D02*
X180250000Y-79750000D01*
X177750000Y-79750000D02*
X177750000Y-82250000D01*
X177750000Y-79750000D02*
X180250000Y-79750000D01*
G04 #@! TO.C,MH477*
X191750000Y-79750000D02*
X194250000Y-79750000D01*
X191750000Y-79750000D02*
X191750000Y-82250000D01*
X194250000Y-82250000D02*
X194250000Y-79750000D01*
X194250000Y-82250000D02*
X191750000Y-82250000D01*
G04 #@! TO.C,MH478*
X236250000Y-82250000D02*
X233750000Y-82250000D01*
X236250000Y-82250000D02*
X236250000Y-79750000D01*
X233750000Y-79750000D02*
X233750000Y-82250000D01*
X233750000Y-79750000D02*
X236250000Y-79750000D01*
G04 #@! TO.C,MH479*
X240750000Y-79750000D02*
X243250000Y-79750000D01*
X240750000Y-79750000D02*
X240750000Y-82250000D01*
X243250000Y-82250000D02*
X243250000Y-79750000D01*
X243250000Y-82250000D02*
X240750000Y-82250000D01*
G04 #@! TO.C,MH480*
X229250000Y-82250000D02*
X226750000Y-82250000D01*
X229250000Y-82250000D02*
X229250000Y-79750000D01*
X226750000Y-79750000D02*
X226750000Y-82250000D01*
X226750000Y-79750000D02*
X229250000Y-79750000D01*
G04 #@! TO.C,MH481*
X239750000Y-91250000D02*
X237250000Y-91250000D01*
X239750000Y-91250000D02*
X239750000Y-88750000D01*
X237250000Y-88750000D02*
X237250000Y-91250000D01*
X237250000Y-88750000D02*
X239750000Y-88750000D01*
G04 #@! TO.C,MH482*
X232750000Y-91250000D02*
X230250000Y-91250000D01*
X232750000Y-91250000D02*
X232750000Y-88750000D01*
X230250000Y-88750000D02*
X230250000Y-91250000D01*
X230250000Y-88750000D02*
X232750000Y-88750000D01*
G04 #@! TO.C,MH483*
X223250000Y-58750000D02*
X225750000Y-58750000D01*
X223250000Y-58750000D02*
X223250000Y-61250000D01*
X225750000Y-61250000D02*
X225750000Y-58750000D01*
X225750000Y-61250000D02*
X223250000Y-61250000D01*
G04 #@! TO.C,MH484*
X216250000Y-52750000D02*
X218750000Y-52750000D01*
X216250000Y-52750000D02*
X216250000Y-55250000D01*
X218750000Y-55250000D02*
X218750000Y-52750000D01*
X218750000Y-55250000D02*
X216250000Y-55250000D01*
G04 #@! TO.C,MH485*
X209250000Y-58750000D02*
X211750000Y-58750000D01*
X209250000Y-58750000D02*
X209250000Y-61250000D01*
X211750000Y-61250000D02*
X211750000Y-58750000D01*
X211750000Y-61250000D02*
X209250000Y-61250000D01*
G04 #@! TO.C,MH486*
X202250000Y-76750000D02*
X204750000Y-76750000D01*
X202250000Y-76750000D02*
X202250000Y-79250000D01*
X204750000Y-79250000D02*
X204750000Y-76750000D01*
X204750000Y-79250000D02*
X202250000Y-79250000D01*
G04 #@! TO.C,MH487*
X197750000Y-79250000D02*
X195250000Y-79250000D01*
X197750000Y-79250000D02*
X197750000Y-76750000D01*
X195250000Y-76750000D02*
X195250000Y-79250000D01*
X195250000Y-76750000D02*
X197750000Y-76750000D01*
G04 #@! TO.C,MH488*
X188250000Y-64750000D02*
X190750000Y-64750000D01*
X188250000Y-64750000D02*
X188250000Y-67250000D01*
X190750000Y-67250000D02*
X190750000Y-64750000D01*
X190750000Y-67250000D02*
X188250000Y-67250000D01*
G04 #@! TO.C,MH489*
X183750000Y-97250000D02*
X181250000Y-97250000D01*
X183750000Y-97250000D02*
X183750000Y-94750000D01*
X181250000Y-94750000D02*
X181250000Y-97250000D01*
X181250000Y-94750000D02*
X183750000Y-94750000D01*
G04 #@! TO.C,MH490*
X176750000Y-79250000D02*
X174250000Y-79250000D01*
X176750000Y-79250000D02*
X176750000Y-76750000D01*
X174250000Y-76750000D02*
X174250000Y-79250000D01*
X174250000Y-76750000D02*
X176750000Y-76750000D01*
G04 #@! TO.C,MH491*
X177750000Y-85750000D02*
X180250000Y-85750000D01*
X177750000Y-85750000D02*
X177750000Y-88250000D01*
X180250000Y-88250000D02*
X180250000Y-85750000D01*
X180250000Y-88250000D02*
X177750000Y-88250000D01*
G04 #@! TO.C,MH492*
X233750000Y-85750000D02*
X236250000Y-85750000D01*
X233750000Y-85750000D02*
X233750000Y-88250000D01*
X236250000Y-88250000D02*
X236250000Y-85750000D01*
X236250000Y-88250000D02*
X233750000Y-88250000D01*
G04 #@! TO.C,MH493*
X229250000Y-88250000D02*
X226750000Y-88250000D01*
X229250000Y-88250000D02*
X229250000Y-85750000D01*
X226750000Y-85750000D02*
X226750000Y-88250000D01*
X226750000Y-85750000D02*
X229250000Y-85750000D01*
G04 #@! TO.C,MH494*
X243250000Y-88250000D02*
X240750000Y-88250000D01*
X243250000Y-88250000D02*
X243250000Y-85750000D01*
X240750000Y-85750000D02*
X240750000Y-88250000D01*
X240750000Y-85750000D02*
X243250000Y-85750000D01*
G04 #@! TO.C,MH495*
X215250000Y-88250000D02*
X212750000Y-88250000D01*
X215250000Y-88250000D02*
X215250000Y-85750000D01*
X212750000Y-85750000D02*
X212750000Y-88250000D01*
X212750000Y-85750000D02*
X215250000Y-85750000D01*
G04 #@! TO.C,MH496*
X222250000Y-88250000D02*
X219750000Y-88250000D01*
X222250000Y-88250000D02*
X222250000Y-85750000D01*
X219750000Y-85750000D02*
X219750000Y-88250000D01*
X219750000Y-85750000D02*
X222250000Y-85750000D01*
G04 #@! TO.C,MH497*
X208250000Y-88250000D02*
X205750000Y-88250000D01*
X208250000Y-88250000D02*
X208250000Y-85750000D01*
X205750000Y-85750000D02*
X205750000Y-88250000D01*
X205750000Y-85750000D02*
X208250000Y-85750000D01*
G04 #@! TO.C,MH498*
X184750000Y-85750000D02*
X187250000Y-85750000D01*
X184750000Y-85750000D02*
X184750000Y-88250000D01*
X187250000Y-88250000D02*
X187250000Y-85750000D01*
X187250000Y-88250000D02*
X184750000Y-88250000D01*
G04 #@! TO.C,MH499*
X194250000Y-88250000D02*
X191750000Y-88250000D01*
X194250000Y-88250000D02*
X194250000Y-85750000D01*
X191750000Y-85750000D02*
X191750000Y-88250000D01*
X191750000Y-85750000D02*
X194250000Y-85750000D01*
G04 #@! TO.C,MH500*
X198750000Y-85750000D02*
X201250000Y-85750000D01*
X198750000Y-85750000D02*
X198750000Y-88250000D01*
X201250000Y-88250000D02*
X201250000Y-85750000D01*
X201250000Y-88250000D02*
X198750000Y-88250000D01*
G04 #@! TO.C,MH501*
X237250000Y-58750000D02*
X239750000Y-58750000D01*
X237250000Y-58750000D02*
X237250000Y-61250000D01*
X239750000Y-61250000D02*
X239750000Y-58750000D01*
X239750000Y-61250000D02*
X237250000Y-61250000D01*
G04 #@! TO.C,MH502*
X232750000Y-79250000D02*
X230250000Y-79250000D01*
X232750000Y-79250000D02*
X232750000Y-76750000D01*
X230250000Y-76750000D02*
X230250000Y-79250000D01*
X230250000Y-76750000D02*
X232750000Y-76750000D01*
G04 #@! TO.C,MH503*
X225750000Y-79250000D02*
X223250000Y-79250000D01*
X225750000Y-79250000D02*
X225750000Y-76750000D01*
X223250000Y-76750000D02*
X223250000Y-79250000D01*
X223250000Y-76750000D02*
X225750000Y-76750000D01*
G04 #@! TO.C,MH504*
X218750000Y-91250000D02*
X216250000Y-91250000D01*
X218750000Y-91250000D02*
X218750000Y-88750000D01*
X216250000Y-88750000D02*
X216250000Y-91250000D01*
X216250000Y-88750000D02*
X218750000Y-88750000D01*
G04 #@! TO.C,MH505*
X211750000Y-97250000D02*
X209250000Y-97250000D01*
X211750000Y-97250000D02*
X211750000Y-94750000D01*
X209250000Y-94750000D02*
X209250000Y-97250000D01*
X209250000Y-94750000D02*
X211750000Y-94750000D01*
G04 #@! TO.C,MH506*
X202250000Y-70750000D02*
X204750000Y-70750000D01*
X202250000Y-70750000D02*
X202250000Y-73250000D01*
X204750000Y-73250000D02*
X204750000Y-70750000D01*
X204750000Y-73250000D02*
X202250000Y-73250000D01*
G04 #@! TO.C,MH507*
X195250000Y-82750000D02*
X197750000Y-82750000D01*
X195250000Y-82750000D02*
X195250000Y-85250000D01*
X197750000Y-85250000D02*
X197750000Y-82750000D01*
X197750000Y-85250000D02*
X195250000Y-85250000D01*
G04 #@! TO.C,MH508*
X190750000Y-91250000D02*
X188250000Y-91250000D01*
X190750000Y-91250000D02*
X190750000Y-88750000D01*
X188250000Y-88750000D02*
X188250000Y-91250000D01*
X188250000Y-88750000D02*
X190750000Y-88750000D01*
G04 #@! TO.C,MH509*
X183750000Y-79250000D02*
X181250000Y-79250000D01*
X183750000Y-79250000D02*
X183750000Y-76750000D01*
X181250000Y-76750000D02*
X181250000Y-79250000D01*
X181250000Y-76750000D02*
X183750000Y-76750000D01*
G04 #@! TO.C,MH510*
X174250000Y-58750000D02*
X176750000Y-58750000D01*
X174250000Y-58750000D02*
X174250000Y-61250000D01*
X176750000Y-61250000D02*
X176750000Y-58750000D01*
X176750000Y-61250000D02*
X174250000Y-61250000D01*
G04 #@! TO.C,MH511*
X187250000Y-94250000D02*
X184750000Y-94250000D01*
X187250000Y-94250000D02*
X187250000Y-91750000D01*
X184750000Y-91750000D02*
X184750000Y-94250000D01*
X184750000Y-91750000D02*
X187250000Y-91750000D01*
G04 #@! TO.C,MH512*
X194250000Y-94250000D02*
X191750000Y-94250000D01*
X194250000Y-94250000D02*
X194250000Y-91750000D01*
X191750000Y-91750000D02*
X191750000Y-94250000D01*
X191750000Y-91750000D02*
X194250000Y-91750000D01*
G04 #@! TO.C,MH513*
X198750000Y-91750000D02*
X201250000Y-91750000D01*
X198750000Y-91750000D02*
X198750000Y-94250000D01*
X201250000Y-94250000D02*
X201250000Y-91750000D01*
X201250000Y-94250000D02*
X198750000Y-94250000D01*
G04 #@! TO.C,MH514*
X205750000Y-91750000D02*
X208250000Y-91750000D01*
X205750000Y-91750000D02*
X205750000Y-94250000D01*
X208250000Y-94250000D02*
X208250000Y-91750000D01*
X208250000Y-94250000D02*
X205750000Y-94250000D01*
G04 #@! TO.C,MH515*
X212750000Y-91750000D02*
X215250000Y-91750000D01*
X212750000Y-91750000D02*
X212750000Y-94250000D01*
X215250000Y-94250000D02*
X215250000Y-91750000D01*
X215250000Y-94250000D02*
X212750000Y-94250000D01*
G04 #@! TO.C,MH516*
X219750000Y-91750000D02*
X222250000Y-91750000D01*
X219750000Y-91750000D02*
X219750000Y-94250000D01*
X222250000Y-94250000D02*
X222250000Y-91750000D01*
X222250000Y-94250000D02*
X219750000Y-94250000D01*
G04 #@! TO.C,MH517*
X240750000Y-91750000D02*
X243250000Y-91750000D01*
X240750000Y-91750000D02*
X240750000Y-94250000D01*
X243250000Y-94250000D02*
X243250000Y-91750000D01*
X243250000Y-94250000D02*
X240750000Y-94250000D01*
G04 #@! TO.C,MH518*
X236250000Y-94250000D02*
X233750000Y-94250000D01*
X236250000Y-94250000D02*
X236250000Y-91750000D01*
X233750000Y-91750000D02*
X233750000Y-94250000D01*
X233750000Y-91750000D02*
X236250000Y-91750000D01*
G04 #@! TO.C,MH519*
X226750000Y-91750000D02*
X229250000Y-91750000D01*
X226750000Y-91750000D02*
X226750000Y-94250000D01*
X229250000Y-94250000D02*
X229250000Y-91750000D01*
X229250000Y-94250000D02*
X226750000Y-94250000D01*
G04 #@! TO.C,MH520*
X177750000Y-91750000D02*
X180250000Y-91750000D01*
X177750000Y-91750000D02*
X177750000Y-94250000D01*
X180250000Y-94250000D02*
X180250000Y-91750000D01*
X180250000Y-94250000D02*
X177750000Y-94250000D01*
G04 #@! TO.C,MH521*
X239750000Y-55250000D02*
X237250000Y-55250000D01*
X239750000Y-55250000D02*
X239750000Y-52750000D01*
X237250000Y-52750000D02*
X237250000Y-55250000D01*
X237250000Y-52750000D02*
X239750000Y-52750000D01*
G04 #@! TO.C,MH522*
X230250000Y-52750000D02*
X232750000Y-52750000D01*
X230250000Y-52750000D02*
X230250000Y-55250000D01*
X232750000Y-55250000D02*
X232750000Y-52750000D01*
X232750000Y-55250000D02*
X230250000Y-55250000D01*
G04 #@! TO.C,MH523*
X223250000Y-64750000D02*
X225750000Y-64750000D01*
X223250000Y-64750000D02*
X223250000Y-67250000D01*
X225750000Y-67250000D02*
X225750000Y-64750000D01*
X225750000Y-67250000D02*
X223250000Y-67250000D01*
G04 #@! TO.C,MH524*
X216250000Y-64750000D02*
X218750000Y-64750000D01*
X216250000Y-64750000D02*
X216250000Y-67250000D01*
X218750000Y-67250000D02*
X218750000Y-64750000D01*
X218750000Y-67250000D02*
X216250000Y-67250000D01*
G04 #@! TO.C,MH525*
X209250000Y-82750000D02*
X211750000Y-82750000D01*
X209250000Y-82750000D02*
X209250000Y-85250000D01*
X211750000Y-85250000D02*
X211750000Y-82750000D01*
X211750000Y-85250000D02*
X209250000Y-85250000D01*
G04 #@! TO.C,MH526*
X202250000Y-94750000D02*
X204750000Y-94750000D01*
X202250000Y-94750000D02*
X202250000Y-97250000D01*
X204750000Y-97250000D02*
X204750000Y-94750000D01*
X204750000Y-97250000D02*
X202250000Y-97250000D01*
G04 #@! TO.C,MH527*
X197750000Y-91250000D02*
X195250000Y-91250000D01*
X197750000Y-91250000D02*
X197750000Y-88750000D01*
X195250000Y-88750000D02*
X195250000Y-91250000D01*
X195250000Y-88750000D02*
X197750000Y-88750000D01*
G04 #@! TO.C,MH528*
X188250000Y-82750000D02*
X190750000Y-82750000D01*
X188250000Y-82750000D02*
X188250000Y-85250000D01*
X190750000Y-85250000D02*
X190750000Y-82750000D01*
X190750000Y-85250000D02*
X188250000Y-85250000D01*
G04 #@! TO.C,MH529*
X183750000Y-73250000D02*
X181250000Y-73250000D01*
X183750000Y-73250000D02*
X183750000Y-70750000D01*
X181250000Y-70750000D02*
X181250000Y-73250000D01*
X181250000Y-70750000D02*
X183750000Y-70750000D01*
G04 #@! TO.C,MH530*
X176750000Y-55250000D02*
X174250000Y-55250000D01*
X176750000Y-55250000D02*
X176750000Y-52750000D01*
X174250000Y-52750000D02*
X174250000Y-55250000D01*
X174250000Y-52750000D02*
X176750000Y-52750000D01*
G04 #@! TO.C,MH531*
X236250000Y-100250000D02*
X233750000Y-100250000D01*
X236250000Y-100250000D02*
X236250000Y-97750000D01*
X233750000Y-97750000D02*
X233750000Y-100250000D01*
X233750000Y-97750000D02*
X236250000Y-97750000D01*
G04 #@! TO.C,MH532*
X177750000Y-97750000D02*
X180250000Y-97750000D01*
X177750000Y-97750000D02*
X177750000Y-100250000D01*
X180250000Y-100250000D02*
X180250000Y-97750000D01*
X180250000Y-100250000D02*
X177750000Y-100250000D01*
G04 #@! TO.C,MH533*
X226750000Y-97750000D02*
X229250000Y-97750000D01*
X226750000Y-97750000D02*
X226750000Y-100250000D01*
X229250000Y-100250000D02*
X229250000Y-97750000D01*
X229250000Y-100250000D02*
X226750000Y-100250000D01*
G04 #@! TO.C,MH534*
X215250000Y-100250000D02*
X212750000Y-100250000D01*
X215250000Y-100250000D02*
X215250000Y-97750000D01*
X212750000Y-97750000D02*
X212750000Y-100250000D01*
X212750000Y-97750000D02*
X215250000Y-97750000D01*
G04 #@! TO.C,MH535*
X187250000Y-100250000D02*
X184750000Y-100250000D01*
X187250000Y-100250000D02*
X187250000Y-97750000D01*
X184750000Y-97750000D02*
X184750000Y-100250000D01*
X184750000Y-97750000D02*
X187250000Y-97750000D01*
G04 #@! TO.C,MH536*
X222250000Y-100250000D02*
X219750000Y-100250000D01*
X222250000Y-100250000D02*
X222250000Y-97750000D01*
X219750000Y-97750000D02*
X219750000Y-100250000D01*
X219750000Y-97750000D02*
X222250000Y-97750000D01*
G04 #@! TO.C,MH537*
X205750000Y-97750000D02*
X208250000Y-97750000D01*
X205750000Y-97750000D02*
X205750000Y-100250000D01*
X208250000Y-100250000D02*
X208250000Y-97750000D01*
X208250000Y-100250000D02*
X205750000Y-100250000D01*
G04 #@! TO.C,MH538*
X240750000Y-97750000D02*
X243250000Y-97750000D01*
X240750000Y-97750000D02*
X240750000Y-100250000D01*
X243250000Y-100250000D02*
X243250000Y-97750000D01*
X243250000Y-100250000D02*
X240750000Y-100250000D01*
G04 #@! TO.C,MH539*
X194250000Y-100250000D02*
X191750000Y-100250000D01*
X194250000Y-100250000D02*
X194250000Y-97750000D01*
X191750000Y-97750000D02*
X191750000Y-100250000D01*
X191750000Y-97750000D02*
X194250000Y-97750000D01*
G04 #@! TO.C,MH540*
X198750000Y-97750000D02*
X201250000Y-97750000D01*
X198750000Y-97750000D02*
X198750000Y-100250000D01*
X201250000Y-100250000D02*
X201250000Y-97750000D01*
X201250000Y-100250000D02*
X198750000Y-100250000D01*
G04 #@! TO.C,MH541*
X237250000Y-82750000D02*
X239750000Y-82750000D01*
X237250000Y-82750000D02*
X237250000Y-85250000D01*
X239750000Y-85250000D02*
X239750000Y-82750000D01*
X239750000Y-85250000D02*
X237250000Y-85250000D01*
G04 #@! TO.C,MH542*
X232750000Y-109250000D02*
X230250000Y-109250000D01*
X232750000Y-109250000D02*
X232750000Y-106750000D01*
X230250000Y-106750000D02*
X230250000Y-109250000D01*
X230250000Y-106750000D02*
X232750000Y-106750000D01*
G04 #@! TO.C,MH543*
X225750000Y-55250000D02*
X223250000Y-55250000D01*
X225750000Y-55250000D02*
X225750000Y-52750000D01*
X223250000Y-52750000D02*
X223250000Y-55250000D01*
X223250000Y-52750000D02*
X225750000Y-52750000D01*
G04 #@! TO.C,MH544*
X218750000Y-61250000D02*
X216250000Y-61250000D01*
X218750000Y-61250000D02*
X218750000Y-58750000D01*
X216250000Y-58750000D02*
X216250000Y-61250000D01*
X216250000Y-58750000D02*
X218750000Y-58750000D01*
G04 #@! TO.C,MH545*
X211750000Y-67250000D02*
X209250000Y-67250000D01*
X211750000Y-67250000D02*
X211750000Y-64750000D01*
X209250000Y-64750000D02*
X209250000Y-67250000D01*
X209250000Y-64750000D02*
X211750000Y-64750000D01*
G04 #@! TO.C,MH546*
X204750000Y-55250000D02*
X202250000Y-55250000D01*
X204750000Y-55250000D02*
X204750000Y-52750000D01*
X202250000Y-52750000D02*
X202250000Y-55250000D01*
X202250000Y-52750000D02*
X204750000Y-52750000D01*
G04 #@! TO.C,MH547*
X195250000Y-64750000D02*
X197750000Y-64750000D01*
X195250000Y-64750000D02*
X195250000Y-67250000D01*
X197750000Y-67250000D02*
X197750000Y-64750000D01*
X197750000Y-67250000D02*
X195250000Y-67250000D01*
G04 #@! TO.C,MH548*
X190750000Y-55250000D02*
X188250000Y-55250000D01*
X190750000Y-55250000D02*
X190750000Y-52750000D01*
X188250000Y-52750000D02*
X188250000Y-55250000D01*
X188250000Y-52750000D02*
X190750000Y-52750000D01*
G04 #@! TO.C,MH549*
X181250000Y-58750000D02*
X183750000Y-58750000D01*
X181250000Y-58750000D02*
X181250000Y-61250000D01*
X183750000Y-61250000D02*
X183750000Y-58750000D01*
X183750000Y-61250000D02*
X181250000Y-61250000D01*
G04 #@! TO.C,MH550*
X176750000Y-67250000D02*
X174250000Y-67250000D01*
X176750000Y-67250000D02*
X176750000Y-64750000D01*
X174250000Y-64750000D02*
X174250000Y-67250000D01*
X174250000Y-64750000D02*
X176750000Y-64750000D01*
G04 #@! TO.C,MH551*
X215250000Y-106250000D02*
X212750000Y-106250000D01*
X215250000Y-106250000D02*
X215250000Y-103750000D01*
X212750000Y-103750000D02*
X212750000Y-106250000D01*
X212750000Y-103750000D02*
X215250000Y-103750000D01*
G04 #@! TO.C,MH552*
X229250000Y-106250000D02*
X226750000Y-106250000D01*
X229250000Y-106250000D02*
X229250000Y-103750000D01*
X226750000Y-103750000D02*
X226750000Y-106250000D01*
X226750000Y-103750000D02*
X229250000Y-103750000D01*
G04 #@! TO.C,MH553*
X177750000Y-103750000D02*
X180250000Y-103750000D01*
X177750000Y-103750000D02*
X177750000Y-106250000D01*
X180250000Y-106250000D02*
X180250000Y-103750000D01*
X180250000Y-106250000D02*
X177750000Y-106250000D01*
G04 #@! TO.C,MH554*
X184750000Y-103750000D02*
X187250000Y-103750000D01*
X184750000Y-103750000D02*
X184750000Y-106250000D01*
X187250000Y-106250000D02*
X187250000Y-103750000D01*
X187250000Y-106250000D02*
X184750000Y-106250000D01*
G04 #@! TO.C,MH555*
X233750000Y-103750000D02*
X236250000Y-103750000D01*
X233750000Y-103750000D02*
X233750000Y-106250000D01*
X236250000Y-106250000D02*
X236250000Y-103750000D01*
X236250000Y-106250000D02*
X233750000Y-106250000D01*
G04 #@! TO.C,MH556*
X198750000Y-103750000D02*
X201250000Y-103750000D01*
X198750000Y-103750000D02*
X198750000Y-106250000D01*
X201250000Y-106250000D02*
X201250000Y-103750000D01*
X201250000Y-106250000D02*
X198750000Y-106250000D01*
G04 #@! TO.C,MH557*
X222250000Y-106250000D02*
X219750000Y-106250000D01*
X222250000Y-106250000D02*
X222250000Y-103750000D01*
X219750000Y-103750000D02*
X219750000Y-106250000D01*
X219750000Y-103750000D02*
X222250000Y-103750000D01*
G04 #@! TO.C,MH558*
X194250000Y-106250000D02*
X191750000Y-106250000D01*
X194250000Y-106250000D02*
X194250000Y-103750000D01*
X191750000Y-103750000D02*
X191750000Y-106250000D01*
X191750000Y-103750000D02*
X194250000Y-103750000D01*
G04 #@! TO.C,MH559*
X205750000Y-103750000D02*
X208250000Y-103750000D01*
X205750000Y-103750000D02*
X205750000Y-106250000D01*
X208250000Y-106250000D02*
X208250000Y-103750000D01*
X208250000Y-106250000D02*
X205750000Y-106250000D01*
G04 #@! TO.C,MH560*
X243250000Y-106250000D02*
X240750000Y-106250000D01*
X243250000Y-106250000D02*
X243250000Y-103750000D01*
X240750000Y-103750000D02*
X240750000Y-106250000D01*
X240750000Y-103750000D02*
X243250000Y-103750000D01*
G04 #@! TO.C,TPLB1*
X101110000Y-158300000D02*
X93700000Y-158300000D01*
X101110000Y-158300000D02*
X101110000Y-154700000D01*
X93700000Y-154700000D02*
X93700000Y-158300000D01*
X93700000Y-154700000D02*
X101110000Y-154700000D01*
G04 #@! TO.C,TPLB2*
X93700000Y-150450000D02*
X101110000Y-150450000D01*
X93700000Y-150450000D02*
X93700000Y-154050000D01*
X101110000Y-154050000D02*
X101110000Y-150450000D01*
X101110000Y-154050000D02*
X93700000Y-154050000D01*
G04 #@! TO.C,TPLB3*
X101110000Y-149800000D02*
X93700000Y-149800000D01*
X101110000Y-149800000D02*
X101110000Y-146200000D01*
X93700000Y-146200000D02*
X93700000Y-149800000D01*
X93700000Y-146200000D02*
X101110000Y-146200000D01*
G04 #@! TO.C,TPLB4*
X101110000Y-143550000D02*
X93700000Y-143550000D01*
X101110000Y-143550000D02*
X101110000Y-139950000D01*
X93700000Y-139950000D02*
X93700000Y-143550000D01*
X93700000Y-139950000D02*
X101110000Y-139950000D01*
G04 #@! TO.C,TPLB5*
X93700000Y-135700000D02*
X101110000Y-135700000D01*
X93700000Y-135700000D02*
X93700000Y-139300000D01*
X101110000Y-139300000D02*
X101110000Y-135700000D01*
X101110000Y-139300000D02*
X93700000Y-139300000D01*
G04 #@! TO.C,TPLB6*
X101110000Y-135050000D02*
X93700000Y-135050000D01*
X101110000Y-135050000D02*
X101110000Y-131450000D01*
X93700000Y-131450000D02*
X93700000Y-135050000D01*
X93700000Y-131450000D02*
X101110000Y-131450000D01*
G04 #@! TO.C,TPLB11*
X89180000Y-114250000D02*
X92180000Y-114250000D01*
X89180000Y-114250000D02*
X89180000Y-117250000D01*
X92180000Y-117250000D02*
X92180000Y-114250000D01*
X92180000Y-117250000D02*
X89180000Y-117250000D01*
G04 #@! TO.C,TPLB12*
X87080000Y-117250000D02*
X84080000Y-117250000D01*
X87080000Y-117250000D02*
X87080000Y-114250000D01*
X84080000Y-114250000D02*
X84080000Y-117250000D01*
X84080000Y-114250000D02*
X87080000Y-114250000D01*
G04 #@! TO.C,TPLB13*
X78980000Y-114250000D02*
X81980000Y-114250000D01*
X78980000Y-114250000D02*
X78980000Y-117250000D01*
X81980000Y-117250000D02*
X81980000Y-114250000D01*
X81980000Y-117250000D02*
X78980000Y-117250000D01*
G04 #@! TO.C,TPLBD13*
X139940000Y-114250000D02*
X142940000Y-114250000D01*
X139940000Y-114250000D02*
X139940000Y-117250000D01*
X142940000Y-117250000D02*
X142940000Y-114250000D01*
X142940000Y-117250000D02*
X139940000Y-117250000D01*
G04 #@! TO.C,TPLC1*
X124200000Y-154700000D02*
X131610000Y-154700000D01*
X124200000Y-154700000D02*
X124200000Y-158300000D01*
X131610000Y-158300000D02*
X131610000Y-154700000D01*
X131610000Y-158300000D02*
X124200000Y-158300000D01*
G04 #@! TO.C,TPLC2*
X131610000Y-154050000D02*
X124200000Y-154050000D01*
X131610000Y-154050000D02*
X131610000Y-150450000D01*
X124200000Y-150450000D02*
X124200000Y-154050000D01*
X124200000Y-150450000D02*
X131610000Y-150450000D01*
G04 #@! TO.C,TPLC3*
X124200000Y-146200000D02*
X131610000Y-146200000D01*
X124200000Y-146200000D02*
X124200000Y-149800000D01*
X131610000Y-149800000D02*
X131610000Y-146200000D01*
X131610000Y-149800000D02*
X124200000Y-149800000D01*
G04 #@! TO.C,TPLC4*
X131610000Y-143550000D02*
X124200000Y-143550000D01*
X131610000Y-143550000D02*
X131610000Y-139950000D01*
X124200000Y-139950000D02*
X124200000Y-143550000D01*
X124200000Y-139950000D02*
X131610000Y-139950000D01*
G04 #@! TO.C,TPLC5*
X124200000Y-135700000D02*
X131610000Y-135700000D01*
X124200000Y-135700000D02*
X124200000Y-139300000D01*
X131610000Y-139300000D02*
X131610000Y-135700000D01*
X131610000Y-139300000D02*
X124200000Y-139300000D01*
G04 #@! TO.C,TPLC6*
X124200000Y-131450000D02*
X131610000Y-131450000D01*
X124200000Y-131450000D02*
X124200000Y-135050000D01*
X131610000Y-135050000D02*
X131610000Y-131450000D01*
X131610000Y-135050000D02*
X124200000Y-135050000D01*
G04 #@! TO.C,TPLC11*
X122660000Y-117250000D02*
X119660000Y-117250000D01*
X122660000Y-117250000D02*
X122660000Y-114250000D01*
X119660000Y-114250000D02*
X119660000Y-117250000D01*
X119660000Y-114250000D02*
X122660000Y-114250000D01*
G04 #@! TO.C,TPLC12*
X114560000Y-114250000D02*
X117560000Y-114250000D01*
X114560000Y-114250000D02*
X114560000Y-117250000D01*
X117560000Y-117250000D02*
X117560000Y-114250000D01*
X117560000Y-117250000D02*
X114560000Y-117250000D01*
G04 #@! TO.C,TPLC13*
X112460000Y-117250000D02*
X109460000Y-117250000D01*
X112460000Y-117250000D02*
X112460000Y-114250000D01*
X109460000Y-114250000D02*
X109460000Y-117250000D01*
X109460000Y-114250000D02*
X112460000Y-114250000D01*
G04 #@! TO.C,TPLD1*
X154700000Y-154700000D02*
X162110000Y-154700000D01*
X154700000Y-154700000D02*
X154700000Y-158300000D01*
X162110000Y-158300000D02*
X162110000Y-154700000D01*
X162110000Y-158300000D02*
X154700000Y-158300000D01*
G04 #@! TO.C,TPLD2*
X154700000Y-150450000D02*
X162110000Y-150450000D01*
X154700000Y-150450000D02*
X154700000Y-154050000D01*
X162110000Y-154050000D02*
X162110000Y-150450000D01*
X162110000Y-154050000D02*
X154700000Y-154050000D01*
G04 #@! TO.C,TPLD3*
X162110000Y-149800000D02*
X154700000Y-149800000D01*
X162110000Y-149800000D02*
X162110000Y-146200000D01*
X154700000Y-146200000D02*
X154700000Y-149800000D01*
X154700000Y-146200000D02*
X162110000Y-146200000D01*
G04 #@! TO.C,TPLD4*
X162110000Y-143550000D02*
X154700000Y-143550000D01*
X162110000Y-143550000D02*
X162110000Y-139950000D01*
X154700000Y-139950000D02*
X154700000Y-143550000D01*
X154700000Y-139950000D02*
X162110000Y-139950000D01*
G04 #@! TO.C,TPLD5*
X154700000Y-135700000D02*
X162110000Y-135700000D01*
X154700000Y-135700000D02*
X154700000Y-139300000D01*
X162110000Y-139300000D02*
X162110000Y-135700000D01*
X162110000Y-139300000D02*
X154700000Y-139300000D01*
G04 #@! TO.C,TPLD6*
X162110000Y-135050000D02*
X154700000Y-135050000D01*
X162110000Y-135050000D02*
X162110000Y-131450000D01*
X154700000Y-131450000D02*
X154700000Y-135050000D01*
X154700000Y-131450000D02*
X162110000Y-131450000D01*
G04 #@! TO.C,TPLD11*
X150140000Y-114250000D02*
X153140000Y-114250000D01*
X150140000Y-114250000D02*
X150140000Y-117250000D01*
X153140000Y-117250000D02*
X153140000Y-114250000D01*
X153140000Y-117250000D02*
X150140000Y-117250000D01*
G04 #@! TO.C,TPLD12*
X148040000Y-117250000D02*
X145040000Y-117250000D01*
X148040000Y-117250000D02*
X148040000Y-114250000D01*
X145040000Y-114250000D02*
X145040000Y-117250000D01*
X145040000Y-114250000D02*
X148040000Y-114250000D01*
G04 #@! TO.C,TPLE1*
X185200000Y-154700000D02*
X192610000Y-154700000D01*
X185200000Y-154700000D02*
X185200000Y-158300000D01*
X192610000Y-158300000D02*
X192610000Y-154700000D01*
X192610000Y-158300000D02*
X185200000Y-158300000D01*
G04 #@! TO.C,TPLE2*
X192610000Y-154050000D02*
X185200000Y-154050000D01*
X192610000Y-154050000D02*
X192610000Y-150450000D01*
X185200000Y-150450000D02*
X185200000Y-154050000D01*
X185200000Y-150450000D02*
X192610000Y-150450000D01*
G04 #@! TO.C,TPLE3*
X185200000Y-146200000D02*
X192610000Y-146200000D01*
X185200000Y-146200000D02*
X185200000Y-149800000D01*
X192610000Y-149800000D02*
X192610000Y-146200000D01*
X192610000Y-149800000D02*
X185200000Y-149800000D01*
G04 #@! TO.C,TPLE4*
X192610000Y-143550000D02*
X185200000Y-143550000D01*
X192610000Y-143550000D02*
X192610000Y-139950000D01*
X185200000Y-139950000D02*
X185200000Y-143550000D01*
X185200000Y-139950000D02*
X192610000Y-139950000D01*
G04 #@! TO.C,TPLE5*
X185200000Y-135700000D02*
X192610000Y-135700000D01*
X185200000Y-135700000D02*
X185200000Y-139300000D01*
X192610000Y-139300000D02*
X192610000Y-135700000D01*
X192610000Y-139300000D02*
X185200000Y-139300000D01*
G04 #@! TO.C,TPLE6*
X192610000Y-135050000D02*
X185200000Y-135050000D01*
X192610000Y-135050000D02*
X192610000Y-131450000D01*
X185200000Y-131450000D02*
X185200000Y-135050000D01*
X185200000Y-131450000D02*
X192610000Y-131450000D01*
G04 #@! TO.C,TPLE11*
X180620000Y-114250000D02*
X183620000Y-114250000D01*
X180620000Y-114250000D02*
X180620000Y-117250000D01*
X183620000Y-117250000D02*
X183620000Y-114250000D01*
X183620000Y-117250000D02*
X180620000Y-117250000D01*
G04 #@! TO.C,TPLE12*
X178520000Y-117250000D02*
X175520000Y-117250000D01*
X178520000Y-117250000D02*
X178520000Y-114250000D01*
X175520000Y-114250000D02*
X175520000Y-117250000D01*
X175520000Y-114250000D02*
X178520000Y-114250000D01*
G04 #@! TO.C,TPLE13*
X170420000Y-114250000D02*
X173420000Y-114250000D01*
X170420000Y-114250000D02*
X170420000Y-117250000D01*
X173420000Y-117250000D02*
X173420000Y-114250000D01*
X173420000Y-117250000D02*
X170420000Y-117250000D01*
G04 #@! TO.C,TPLF1*
X215700000Y-154700000D02*
X223110000Y-154700000D01*
X215700000Y-154700000D02*
X215700000Y-158300000D01*
X223110000Y-158300000D02*
X223110000Y-154700000D01*
X223110000Y-158300000D02*
X215700000Y-158300000D01*
G04 #@! TO.C,TPLF2*
X223110000Y-154050000D02*
X215700000Y-154050000D01*
X223110000Y-154050000D02*
X223110000Y-150450000D01*
X215700000Y-150450000D02*
X215700000Y-154050000D01*
X215700000Y-150450000D02*
X223110000Y-150450000D01*
G04 #@! TO.C,TPLF3*
X215700000Y-146200000D02*
X223110000Y-146200000D01*
X215700000Y-146200000D02*
X215700000Y-149800000D01*
X223110000Y-149800000D02*
X223110000Y-146200000D01*
X223110000Y-149800000D02*
X215700000Y-149800000D01*
G04 #@! TO.C,TPLF4*
X215700000Y-139950000D02*
X223110000Y-139950000D01*
X215700000Y-139950000D02*
X215700000Y-143550000D01*
X223110000Y-143550000D02*
X223110000Y-139950000D01*
X223110000Y-143550000D02*
X215700000Y-143550000D01*
G04 #@! TO.C,TPLF5*
X223110000Y-139300000D02*
X215700000Y-139300000D01*
X223110000Y-139300000D02*
X223110000Y-135700000D01*
X215700000Y-135700000D02*
X215700000Y-139300000D01*
X215700000Y-135700000D02*
X223110000Y-135700000D01*
G04 #@! TO.C,TPLF6*
X223110000Y-135050000D02*
X215700000Y-135050000D01*
X223110000Y-135050000D02*
X223110000Y-131450000D01*
X215700000Y-131450000D02*
X215700000Y-135050000D01*
X215700000Y-131450000D02*
X223110000Y-131450000D01*
G04 #@! TO.C,TPLF11*
X214100000Y-117250000D02*
X211100000Y-117250000D01*
X214100000Y-117250000D02*
X214100000Y-114250000D01*
X211100000Y-114250000D02*
X211100000Y-117250000D01*
X211100000Y-114250000D02*
X214100000Y-114250000D01*
G04 #@! TO.C,TPLF12*
X206000000Y-114250000D02*
X209000000Y-114250000D01*
X206000000Y-114250000D02*
X206000000Y-117250000D01*
X209000000Y-117250000D02*
X209000000Y-114250000D01*
X209000000Y-117250000D02*
X206000000Y-117250000D01*
G04 #@! TO.C,TPLF13*
X203900000Y-117250000D02*
X200900000Y-117250000D01*
X203900000Y-117250000D02*
X203900000Y-114250000D01*
X200900000Y-114250000D02*
X200900000Y-117250000D01*
X200900000Y-114250000D02*
X203900000Y-114250000D01*
G04 #@! TO.C,TPI12*
X34800000Y-60000000D02*
G75*
G03X34800000Y-60000000I-1800000J0D01*
G01*
G04 #@! TO.C,TPI13*
X34800000Y-66000000D02*
G75*
G03X34800000Y-66000000I-1800000J0D01*
G01*
G04 #@! TO.C,TPI29*
X34800000Y-54000000D02*
G75*
G03X34800000Y-54000000I-1800000J0D01*
G01*
G04 #@! TD*
M02*
