M48
;DRILL file {KiCad (5.0.0)} date 08/30/19 17:40:14
;FORMAT={-:-/ absolute / inch / decimal}
FMAT,2
INCH,TZ
T1C0.0276
T2C0.0315
T3C0.0394
T4C0.0433
T5C0.0512
T6C0.0787
%
G90
G05
M72
T1
X8.0118Y-2.5984
X7.0472Y-2.2441
X8.9764Y-2.9528
X9.252Y-2.0079
X8.2874Y-3.5433
X9.3898Y-4.0157
X7.5984Y-2.9528
X8.2874Y-3.0709
X8.0118Y-3.5433
X8.1496Y-4.1339
X7.0472Y-2.0079
X4.5669Y-2.7165
X1.9488Y-2.5984
X8.7008Y-2.7165
X6.9094Y-2.5984
X9.1142Y-2.8346
X2.9134Y-2.2441
X4.2913Y-2.9528
X3.3268Y-2.8346
X7.0472Y-2.9528
X8.7008Y-3.8976
X2.7756Y-2.5984
X8.2874Y-2.8346
X2.3622Y-3.189
X2.5Y-2.8346
X2.0866Y-2.4803
X5.3937Y-2.9528
X4.4291Y-2.3622
X8.1496Y-3.8976
X3.6024Y-4.0157
X6.2205Y-3.4252
X6.4961Y-2.0079
X3.6024Y-4.252
X4.0157Y-2.4803
X3.189Y-2.7165
X5.5315Y-3.5433
X7.4606Y-3.3071
X4.9803Y-2.3622
X3.189Y-3.4252
X6.7717Y-3.8976
X5.8071Y-2.126
X4.9803Y-4.252
X5.9449Y-2.2441
X6.4961Y-2.7165
X4.1535Y-3.3071
X8.0118Y-2.8346
X2.2244Y-2.5984
X3.7402Y-3.189
X5.6693Y-3.8976
X5.3937Y-2.2441
X2.7756Y-2.3622
X8.0118Y-3.7795
X5.8071Y-2.5984
X5.6693Y-3.189
X2.3622Y-3.8976
X1.9488Y-3.5433
X2.2244Y-3.5433
X9.5276Y-3.6614
X2.5Y-4.252
X4.5669Y-3.8976
X3.4646Y-2.0079
X3.0512Y-4.252
X8.2874Y-2.3622
X8.9764Y-3.4252
X3.7402Y-4.1339
X4.0157Y-3.6614
X2.5Y-2.126
X6.0827Y-3.0709
X7.7362Y-3.0709
X8.1496Y-3.4252
X5.2559Y-3.7795
X8.7008Y-2.4803
X3.0512Y-3.3071
X9.5276Y-3.189
X3.6024Y-2.3622
X9.252Y-2.2441
X5.8071Y-4.252
X8.4252Y-3.189
X6.4961Y-4.1339
X8.2874Y-4.252
X8.2874Y-4.0157
X7.874Y-2.2441
X9.1142Y-2.3622
X1.9488Y-2.126
X8.1496Y-3.189
X7.7362Y-2.8346
X8.4252Y-2.9528
X7.5984Y-4.1339
X8.8386Y-2.8346
X8.563Y-4.252
X8.1496Y-2.0079
X6.2205Y-2.2441
X3.7402Y-2.9528
X6.0827Y-4.0157
X9.5276Y-2.7165
X7.185Y-2.3622
X3.0512Y-3.7795
X4.8425Y-2.2441
X2.9134Y-2.9528
X3.6024Y-3.3071
X7.4606Y-2.8346
X8.8386Y-2.126
X6.3583Y-2.5984
X8.563Y-3.0709
X4.0157Y-3.189
X6.4961Y-2.2441
X2.7756Y-4.252
X3.4646Y-2.2441
X6.2205Y-2.9528
X4.9803Y-2.8346
X7.3228Y-3.8976
X2.5Y-2.3622
X4.2913Y-3.4252
X2.0866Y-3.8976
X6.2205Y-2.0079
X4.7047Y-3.7795
X2.9134Y-2.4803
X5.9449Y-2.9528
X5.8071Y-3.5433
X9.1142Y-2.126
X5.5315Y-4.0157
X4.8425Y-3.4252
X5.3937Y-3.8976
X5.1181Y-2.0079
X2.2244Y-2.8346
X3.7402Y-2.2441
X5.6693Y-2.7165
X3.6024Y-3.7795
X8.9764Y-3.6614
X3.0512Y-2.5984
X4.5669Y-3.4252
X2.6378Y-3.6614
X4.5669Y-2.2441
X4.7047Y-3.3071
X7.5984Y-3.6614
X6.0827Y-2.5984
X4.8425Y-3.189
X2.9134Y-3.6614
X2.7756Y-3.3071
X5.5315Y-2.126
X8.4252Y-3.6614
X3.878Y-3.7795
X3.189Y-3.8976
X3.3268Y-2.126
X6.6339Y-4.252
X7.0472Y-3.4252
X8.8386Y-3.0709
X2.3622Y-4.1339
X6.9094Y-4.0157
X2.3622Y-3.6614
X2.2244Y-2.126
X4.1535Y-4.0157
X8.0118Y-3.0709
X7.7362Y-3.5433
X4.9803Y-3.3071
X8.1496Y-2.4803
X4.7047Y-2.5984
X8.7008Y-2.9528
X3.0512Y-2.8346
X6.9094Y-3.7795
X3.6024Y-3.0709
X7.874Y-3.189
X6.7717Y-4.1339
X8.563Y-3.7795
X9.252Y-2.9528
X8.7008Y-2.2441
X8.4252Y-2.7165
X8.7008Y-2.0079
X8.1496Y-2.7165
X8.0118Y-4.0157
X7.3228Y-2.7165
X4.9803Y-3.7795
X8.8386Y-3.7795
X7.874Y-4.1339
X2.2244Y-3.3071
X2.0866Y-2.2441
X4.8425Y-2.7165
X6.3583Y-3.3071
X7.185Y-3.3071
X7.4606Y-2.126
X2.5Y-3.3071
X4.1535Y-2.5984
X5.6693Y-2.2441
X2.3622Y-2.7165
X3.878Y-3.3071
X9.3898Y-4.252
X9.1142Y-4.252
X1.9488Y-2.8346
X2.5Y-2.5984
X4.2913Y-3.189
X5.3937Y-2.0079
X3.3268Y-4.252
X3.4646Y-2.4803
X4.8425Y-2.9528
X5.2559Y-3.0709
X8.4252Y-3.8976
X4.1535Y-4.252
X2.6378Y-3.4252
X5.3937Y-3.6614
X6.3583Y-3.7795
X4.1535Y-2.3622
X2.6378Y-2.4803
X5.1181Y-2.9528
X6.0827Y-2.8346
X8.7008Y-3.6614
X2.7756Y-3.7795
X2.9134Y-3.189
X4.5669Y-3.6614
X4.5669Y-2.0079
X4.8425Y-2.4803
X2.9134Y-2.7165
X4.9803Y-3.5433
X7.4606Y-3.5433
X3.3268Y-3.7795
X3.4646Y-3.4252
X4.0189Y-3.8976
X2.5Y-4.0157
X8.2874Y-3.3071
X6.3583Y-3.5433
X5.3937Y-3.4252
X2.0866Y-3.6614
X3.0512Y-2.126
X3.3268Y-3.0709
X7.3228Y-3.6614
X4.4291Y-3.3071
X5.9449Y-3.6614
X2.3622Y-2.0079
X4.1535Y-3.0709
X6.9094Y-3.0709
X7.3228Y-3.4252
X5.9449Y-4.1339
X8.9764Y-2.4803
X3.878Y-2.126
X6.3583Y-4.0157
X9.1142Y-3.5433
X8.4252Y-3.4252
X5.5315Y-3.7795
X9.252Y-2.4803
X4.7047Y-3.5433
X9.252Y-3.189
X3.4646Y-4.1339
X9.1142Y-2.5984
X6.9094Y-3.3071
X4.2913Y-4.1339
X8.1496Y-2.2441
X6.6339Y-2.126
X9.5276Y-2.9528
X9.5276Y-2.2441
X8.563Y-3.3071
X7.4606Y-4.0157
X7.7362Y-4.252
X8.4252Y-2.0079
X6.9094Y-2.8346
X9.5276Y-4.1339
X3.3268Y-3.3071
X9.252Y-2.7165
X9.252Y-4.1339
X3.878Y-2.5984
X5.1181Y-2.4803
X3.7402Y-2.7165
X6.6339Y-3.5433
X7.874Y-2.7165
X7.7362Y-2.5984
X6.6339Y-3.3071
X4.7047Y-2.8346
X6.6339Y-2.5984
X2.0866Y-2.7165
X6.6339Y-3.0709
X7.4606Y-3.0709
X7.874Y-3.8976
X3.0512Y-4.0157
X2.7756Y-3.5433
X5.9449Y-3.4252
X6.0827Y-3.7795
X3.878Y-2.3622
X4.2913Y-2.2441
X6.7717Y-2.7165
X2.5Y-3.7795
X8.9764Y-3.8976
X4.1535Y-2.8346
X6.4961Y-3.189
X6.7717Y-3.6614
X4.2913Y-2.0079
X2.6378Y-2.0079
X3.189Y-2.4803
X2.6378Y-2.9528
X6.3583Y-2.3622
X6.9094Y-2.3622
X3.878Y-4.0157
X6.7717Y-3.189
X3.7402Y-3.8976
X4.8425Y-2.0079
X5.3937Y-2.4803
X3.189Y-2.9528
X6.0827Y-2.3622
X8.2874Y-3.7795
X4.7047Y-4.252
X6.2205Y-3.189
X5.9449Y-3.8976
X5.5315Y-2.8346
X7.7362Y-3.3071
X3.3268Y-4.0157
X6.4961Y-3.4252
X6.4961Y-3.8976
X4.4291Y-2.126
X6.3583Y-3.0709
X9.252Y-3.4252
X4.7047Y-3.0709
X5.6693Y-3.6614
X2.9134Y-2.0079
X4.9803Y-4.0157
X8.563Y-2.126
X8.7008Y-3.4252
X2.7756Y-2.126
X8.4252Y-2.4803
X3.6024Y-2.126
X4.9803Y-2.5984
X9.3898Y-3.5433
X7.874Y-3.6614
X6.0827Y-4.252
X7.3228Y-2.2441
X5.2559Y-2.3622
X8.8386Y-3.3071
X4.8425Y-4.1339
X8.4252Y-2.2441
X7.185Y-3.5433
X6.6339Y-4.0157
X7.185Y-2.5984
X9.1142Y-3.3071
X7.4606Y-2.3622
X9.1142Y-4.0157
X6.9094Y-4.252
X7.3228Y-2.4803
X7.874Y-2.0079
X7.7362Y-2.126
X8.8386Y-4.252
X7.5984Y-2.7165
X7.3228Y-4.1339
X5.2559Y-3.3071
X5.6693Y-2.4803
X5.3937Y-2.7165
X2.2244Y-3.0709
X8.0118Y-4.252
X8.0118Y-2.126
X2.2244Y-2.3622
X3.6024Y-2.8346
X3.7402Y-2.4803
X5.1181Y-2.7165
X4.1535Y-3.5433
X7.5984Y-3.8976
X5.2559Y-2.8346
X5.8071Y-3.3071
X5.6693Y-3.4252
X4.7047Y-2.126
X5.8071Y-4.0157
X6.7717Y-2.2441
X2.3622Y-2.9528
X3.878Y-2.8346
X7.0472Y-3.8976
X4.4291Y-2.8346
X2.3622Y-3.4252
X3.7402Y-3.6614
X5.5315Y-2.5984
X5.2559Y-4.252
X5.9449Y-2.4803
X3.4646Y-2.7165
X1.9488Y-3.3071
X8.563Y-3.5433
X5.8071Y-2.3622
X3.189Y-3.189
X3.4646Y-3.6614
X4.9803Y-2.126
X2.3622Y-2.2441
X3.4646Y-2.9528
X5.5315Y-3.3071
X7.0472Y-4.1339
X5.5315Y-3.0709
X4.0157Y-3.4252
X3.4646Y-3.8976
X5.8071Y-3.7795
X8.8386Y-2.5984
X1.9488Y-3.7795
X5.9449Y-3.189
X4.2913Y-3.6614
X4.1535Y-2.126
X6.6339Y-3.7795
X9.3898Y-2.3622
X2.6378Y-4.1339
X4.8425Y-3.6614
X4.0157Y-2.0079
X1.9488Y-4.0157
X7.4606Y-2.5984
X9.5276Y-3.4252
X4.1535Y-3.7795
X9.5276Y-2.4803
X1.9488Y-4.252
X8.9764Y-3.189
X3.189Y-4.1339
X7.5984Y-2.2441
X5.2559Y-2.5984
X7.4606Y-3.7795
X5.8071Y-2.8346
X7.4606Y-4.252
X7.7362Y-4.0157
X4.5669Y-4.1339
X8.9764Y-2.2441
X7.3228Y-2.9528
X7.7362Y-3.7795
X7.3228Y-3.189
X9.3898Y-2.8346
X7.185Y-2.126
X7.185Y-4.252
X8.2874Y-2.126
X8.9764Y-2.0079
X6.4961Y-2.9528
X8.9764Y-2.7165
X8.9764Y-4.1339
X4.4291Y-2.5984
X4.0157Y-2.2441
X4.0157Y-2.7165
X3.0512Y-3.5433
X6.9094Y-3.5433
X8.2874Y-2.5984
X3.3268Y-3.5433
X9.5276Y-2.0079
X6.0827Y-2.126
X2.6378Y-2.2441
X2.0866Y-2.9528
X4.7047Y-4.0157
X9.5276Y-3.8976
X3.878Y-4.252
X6.7717Y-3.4252
X5.2559Y-2.126
X3.0512Y-2.3622
X4.5669Y-2.4803
X4.2913Y-2.7165
X3.3268Y-2.5984
X6.9094Y-2.126
X4.7047Y-2.3622
X2.0866Y-3.4252
X3.189Y-3.6614
X5.6693Y-2.0079
X4.4291Y-4.252
X2.3622Y-2.4803
X6.7717Y-2.9528
X2.7756Y-3.0709
X9.1142Y-3.0709
X6.0827Y-3.5433
X4.5669Y-3.189
X6.2205Y-3.8976
X5.1181Y-2.2441
X6.2205Y-2.7165
X5.8071Y-3.0709
X8.563Y-2.5984
X4.9803Y-3.0709
X2.0866Y-3.189
X4.2913Y-3.8976
X6.0827Y-3.3071
X7.0472Y-3.6614
X4.0157Y-4.1339
X5.1181Y-3.189
X2.9134Y-3.8976
X6.7717Y-2.0079
X3.878Y-3.0709
X7.874Y-3.4252
X5.1181Y-4.1339
X5.1181Y-3.6614
X3.7402Y-2.0079
X3.3268Y-2.3622
X8.8386Y-2.3622
X8.1496Y-3.6614
X5.3937Y-4.1339
X7.0472Y-2.4803
X3.6024Y-3.5433
X8.563Y-2.8346
X6.3583Y-4.252
X7.185Y-4.0157
X5.2559Y-4.0157
X7.0472Y-3.189
X6.2205Y-4.1339
X7.7362Y-2.3622
X9.3898Y-2.5984
X8.8386Y-3.5433
X8.1496Y-2.9528
X8.0118Y-3.3071
X8.8386Y-4.0157
X8.563Y-4.0157
X7.874Y-2.9528
X7.5984Y-2.0079
X9.3898Y-3.7795
X8.7008Y-4.1339
X9.1142Y-3.7795
X4.5669Y-2.9528
X2.7756Y-4.0157
X7.0472Y-2.7165
X9.3898Y-3.3071
X7.3228Y-2.0079
X3.189Y-2.2441
X5.9449Y-2.7165
X2.5Y-3.5433
X7.874Y-2.4803
X8.563Y-2.3622
X3.6024Y-2.5984
X5.5315Y-2.3622
X2.6378Y-3.189
X6.3583Y-2.126
X6.2205Y-2.4803
X5.6693Y-2.9528
X2.2244Y-3.7795
X9.252Y-3.8976
X6.6339Y-2.8346
X5.1181Y-3.4252
X5.9449Y-2.0079
X5.5315Y-4.252
X4.2913Y-2.4803
X2.6378Y-2.7165
X4.4291Y-3.5433
X7.185Y-2.8346
X6.3583Y-2.8346
X2.9134Y-3.4252
X6.4961Y-3.6614
X6.6339Y-2.3622
X1.9488Y-2.3622
X6.7717Y-2.4803
X4.0157Y-2.9528
X3.0512Y-3.0709
X9.3898Y-2.126
X1.9488Y-3.0709
X3.4646Y-3.189
X5.1181Y-3.8976
X6.4961Y-2.4803
X2.5Y-3.0709
X8.4252Y-4.1339
X5.2559Y-3.5433
X5.3937Y-3.189
X4.8425Y-3.8976
X4.4291Y-3.7795
X9.252Y-3.6614
X2.2244Y-4.252
X3.7402Y-3.4252
X2.6378Y-3.8976
X2.0866Y-2.0079
X2.2244Y-4.0157
X7.185Y-3.0709
X5.6693Y-4.1339
X6.2205Y-3.6614
X3.189Y-2.0079
X4.4291Y-3.0709
X7.185Y-3.7795
X7.5984Y-3.4252
X2.0866Y-4.1339
X7.5984Y-2.4803
X3.878Y-3.5433
X7.5984Y-3.189
X4.4291Y-4.0157
X9.3898Y-3.0709
X2.7756Y-2.8346
X8.7008Y-3.189
X2.9134Y-4.1339
X8.0118Y-2.3622
T2
X5.1673Y-1.25
X5.2657Y-1.25
X1.2697Y-1.4567
X1.2697Y-1.5551
T3
X7.9685Y-4.5571
X7.1701Y-4.5571
X4.7701Y-4.5571
X3.3693Y-4.5571
X3.1685Y-4.5571
X4.3685Y-4.5571
X1.5593Y-1.215
X1.5593Y-1.315
X1.6593Y-1.215
X1.6593Y-1.315
X1.7593Y-1.215
X1.7593Y-1.315
X1.8593Y-1.215
X1.8593Y-1.315
X1.9593Y-1.215
X1.9593Y-1.315
X2.0593Y-1.215
X2.0593Y-1.315
X2.1593Y-1.215
X2.1593Y-1.315
X2.2593Y-1.215
X2.2593Y-1.315
X2.3593Y-1.215
X2.3593Y-1.315
X2.4593Y-1.215
X2.4593Y-1.315
X2.5593Y-1.215
X2.5593Y-1.315
X2.6593Y-1.215
X2.6593Y-1.315
X2.7593Y-1.215
X2.7593Y-1.315
X2.8593Y-1.215
X2.8593Y-1.315
X2.9593Y-1.215
X2.9593Y-1.315
X3.0593Y-1.215
X3.0593Y-1.315
X3.1593Y-1.215
X3.1593Y-1.315
X3.2593Y-1.215
X3.2593Y-1.315
X3.3593Y-1.215
X3.3593Y-1.315
X3.4593Y-1.215
X3.4593Y-1.315
X3.5593Y-1.215
X3.5593Y-1.315
X3.6593Y-1.215
X3.6593Y-1.315
X3.7593Y-1.215
X3.7593Y-1.315
X3.8593Y-1.215
X3.8593Y-1.315
X3.9593Y-1.215
X3.9593Y-1.315
X4.0593Y-1.215
X4.0593Y-1.315
X4.1593Y-1.215
X4.1593Y-1.315
X4.2593Y-1.215
X4.2593Y-1.315
X4.3593Y-1.215
X4.3593Y-1.315
X4.4593Y-1.215
X4.4593Y-1.315
X4.5593Y-1.215
X4.5593Y-1.315
X4.6593Y-1.215
X4.6593Y-1.315
X5.9701Y-4.5571
X5.7693Y-4.5571
X1.9685Y-4.5571
X4.5693Y-4.5571
X8.1693Y-4.5571
X5.5685Y-4.5571
X2.4016Y-4.5571
X2.185Y-4.5571
X6.7685Y-4.5571
X6.9693Y-4.5571
X3.5701Y-4.5571
X8.3701Y-4.5571
T4
X6.475Y-5.6
X6.475Y-5.7
X6.475Y-5.8
X6.475Y-6.625
X6.575Y-6.625
X6.675Y-6.625
X7.2Y-5.45
X7.2Y-5.55
X7.2Y-5.65
X7.2Y-5.75
X7.2Y-5.85
X7.2Y-5.95
X7.675Y-5.6
X7.675Y-5.7
X7.675Y-5.8
X7.675Y-6.625
X7.775Y-6.625
X7.875Y-6.625
X8.4Y-5.45
X8.4Y-5.55
X8.4Y-5.65
X8.4Y-5.75
X8.4Y-5.85
X8.4Y-5.95
X1.675Y-5.6
X1.675Y-5.7
X1.675Y-5.8
X1.675Y-6.625
X1.775Y-6.625
X1.875Y-6.625
X2.4Y-5.45
X2.4Y-5.55
X2.4Y-5.65
X2.4Y-5.75
X2.4Y-5.85
X2.4Y-5.95
X5.275Y-5.6
X5.275Y-5.7
X5.275Y-5.8
X5.275Y-6.625
X5.375Y-6.625
X5.475Y-6.625
X6.Y-5.45
X6.Y-5.55
X6.Y-5.65
X6.Y-5.75
X6.Y-5.85
X6.Y-5.95
X2.875Y-5.6
X2.875Y-5.7
X2.875Y-5.8
X2.875Y-6.625
X2.975Y-6.625
X3.075Y-6.625
X3.6Y-5.45
X3.6Y-5.55
X3.6Y-5.65
X3.6Y-5.75
X3.6Y-5.85
X3.6Y-5.95
X4.075Y-5.6
X4.075Y-5.7
X4.075Y-5.8
X4.075Y-6.625
X4.175Y-6.625
X4.275Y-6.625
X4.8Y-5.45
X4.8Y-5.55
X4.8Y-5.65
X4.8Y-5.75
X4.8Y-5.85
X4.8Y-5.95
T5
X7.3622Y-5.8268
X7.5122Y-5.8268
X7.3622Y-5.5807
X7.5122Y-5.5807
X6.1614Y-5.4134
X6.3114Y-5.4134
X6.1614Y-5.9941
X6.3114Y-5.9941
X3.7598Y-5.8268
X3.9098Y-5.8268
X3.7598Y-5.4134
X3.9098Y-5.4134
X7.3622Y-5.4134
X7.5122Y-5.4134
X4.9606Y-6.1614
X5.1106Y-6.1614
X8.563Y-5.2461
X8.713Y-5.2461
X7.3622Y-6.1614
X7.5122Y-6.1614
X6.1614Y-6.1614
X6.3114Y-6.1614
X2.5591Y-5.2461
X2.7091Y-5.2461
X2.5591Y-6.1614
X2.7091Y-6.1614
X8.563Y-5.5807
X8.713Y-5.5807
X4.9606Y-5.2461
X5.1106Y-5.2461
X7.3622Y-5.9941
X7.5122Y-5.9941
X2.5591Y-5.9941
X2.7091Y-5.9941
X2.5591Y-5.5807
X2.7091Y-5.5807
X8.563Y-5.4134
X8.713Y-5.4134
X3.7598Y-6.1614
X3.9098Y-6.1614
X4.9606Y-5.4134
X5.1106Y-5.4134
X4.9606Y-5.5807
X5.1106Y-5.5807
X4.9606Y-5.9941
X5.1106Y-5.9941
X6.1614Y-5.2461
X6.3114Y-5.2461
X4.9606Y-5.8268
X5.1106Y-5.8268
X8.563Y-5.8268
X8.713Y-5.8268
X3.7598Y-5.9941
X3.9098Y-5.9941
X8.563Y-5.9941
X8.713Y-5.9941
X7.3622Y-5.2461
X7.5122Y-5.2461
X6.1614Y-5.5807
X6.3114Y-5.5807
X3.7598Y-5.2461
X3.9098Y-5.2461
X2.5591Y-5.8268
X2.7091Y-5.8268
X8.563Y-6.1614
X8.713Y-6.1614
X6.1614Y-5.8268
X6.3114Y-5.8268
X2.5591Y-5.4134
X2.7091Y-5.4134
X3.7598Y-5.5807
X3.9098Y-5.5807
T6
X5.2559Y-1.8504
X4.9803Y-1.8504
X3.0512Y-1.8504
X7.7362Y-1.8504
X6.5748Y-6.8701
X2.9724Y-7.1063
X9.626Y-6.122
X1.7717Y-7.1063
X9.626Y-5.689
X1.2894Y-4.7244
X1.2992Y-2.3622
X6.3583Y-1.8504
X9.7441Y-2.7165
X8.0118Y-1.8504
X7.7756Y-7.1063
X9.7441Y-3.6614
X4.1732Y-7.1063
X9.7441Y-3.189
X5.374Y-7.1063
X1.2894Y-4.0748
X1.2894Y-4.5079
X9.7441Y-2.2441
X6.0827Y-1.8504
X9.7441Y-2.4803
X2.7756Y-1.8504
X7.4606Y-1.8504
X4.1732Y-6.8701
X1.7717Y-6.8701
X6.5748Y-7.1063
X6.9094Y-1.8504
X1.2894Y-3.8583
X3.878Y-1.8504
X3.3268Y-1.8504
X5.8071Y-1.8504
X1.9488Y-1.8504
X7.185Y-1.8504
X1.2894Y-5.1378
X9.1142Y-1.8504
X9.626Y-4.8228
X1.2894Y-4.2913
X4.7047Y-1.8504
X5.5315Y-1.8504
X6.6339Y-1.8504
X2.2244Y-1.8504
X9.7441Y-3.4252
X9.626Y-5.0394
X8.8386Y-1.8504
X9.626Y-5.4724
X1.2992Y-2.5984
X4.4291Y-1.8504
X9.7441Y-2.9528
X3.6024Y-1.8504
X7.7756Y-6.8701
X9.7441Y-3.8976
X2.9724Y-6.8701
X9.7441Y-4.1339
X9.626Y-5.9055
X1.2795Y-6.8701
X4.1535Y-1.8504
X9.7441Y-2.0079
X8.563Y-1.8504
X2.5Y-1.8504
X5.374Y-6.8701
X9.3898Y-1.8504
X9.626Y-5.2559
X8.2874Y-1.8504
X9.626Y-6.3386
X1.2894Y-3.6417
X1.2894Y-4.9409
X1.2992Y-2.126
T0
M30
