G04 #@! TF.GenerationSoftware,KiCad,Pcbnew,(5.0.0)*
G04 #@! TF.CreationDate,2019-08-30T17:40:10+01:00*
G04 #@! TF.ProjectId,A-GA,412D47412E6B696361645F7063620000,rev?*
G04 #@! TF.SameCoordinates,Original*
G04 #@! TF.FileFunction,Copper,L2,Bot,Signal*
G04 #@! TF.FilePolarity,Positive*
%FSLAX46Y46*%
G04 Gerber Fmt 4.6, Leading zero omitted, Abs format (unit mm)*
G04 Created by KiCad (PCBNEW (5.0.0)) date 08/30/19 17:40:10*
%MOMM*%
%LPD*%
G01*
G04 APERTURE LIST*
G04 #@! TA.AperFunction,ComponentPad*
%ADD10R,2.000000X2.000000*%
G04 #@! TD*
G04 #@! TA.AperFunction,ComponentPad*
%ADD11R,1.700000X1.700000*%
G04 #@! TD*
G04 #@! TA.AperFunction,ComponentPad*
%ADD12C,1.700000*%
G04 #@! TD*
G04 #@! TA.AperFunction,ComponentPad*
%ADD13C,1.600000*%
G04 #@! TD*
G04 #@! TA.AperFunction,ComponentPad*
%ADD14R,1.600000X1.600000*%
G04 #@! TD*
G04 #@! TA.AperFunction,ComponentPad*
%ADD15C,2.000000*%
G04 #@! TD*
G04 #@! TA.AperFunction,ComponentPad*
%ADD16C,3.000000*%
G04 #@! TD*
G04 #@! TA.AperFunction,ComponentPad*
%ADD17C,2.600000*%
G04 #@! TD*
G04 #@! TA.AperFunction,ComponentPad*
%ADD18R,1.500000X1.500000*%
G04 #@! TD*
G04 #@! TA.AperFunction,Conductor*
%ADD19C,0.500000*%
G04 #@! TD*
G04 #@! TA.AperFunction,Conductor*
%ADD20C,0.250000*%
G04 #@! TD*
G04 #@! TA.AperFunction,Conductor*
%ADD21C,1.000000*%
G04 #@! TD*
G04 APERTURE END LIST*
D10*
G04 #@! TO.P,TPLA11,1*
G04 #@! TO.N,Net-(TPLA11-Pad1)*
X61000000Y-115750000D03*
G04 #@! TD*
D11*
G04 #@! TO.P,J1,1*
G04 #@! TO.N,GND*
X118345000Y-30861000D03*
D12*
G04 #@! TO.P,J1,A*
X118345000Y-33401000D03*
G04 #@! TO.P,J1,2*
G04 #@! TO.N,6v*
X115805000Y-30861000D03*
G04 #@! TO.P,J1,B*
X115805000Y-33401000D03*
G04 #@! TO.P,J1,3*
G04 #@! TO.N,N/C*
X113265000Y-30861000D03*
G04 #@! TO.P,J1,C*
G04 #@! TO.N,C*
X113265000Y-33401000D03*
G04 #@! TO.P,J1,4*
G04 #@! TO.N,N/C*
X110725000Y-30861000D03*
G04 #@! TO.P,J1,D*
G04 #@! TO.N,D*
X110725000Y-33401000D03*
G04 #@! TO.P,J1,5*
G04 #@! TO.N,N/C*
X108185000Y-30861000D03*
G04 #@! TO.P,J1,E*
G04 #@! TO.N,E*
X108185000Y-33401000D03*
G04 #@! TO.P,J1,6*
G04 #@! TO.N,N/C*
X105645000Y-30861000D03*
G04 #@! TO.P,J1,F*
G04 #@! TO.N,F*
X105645000Y-33401000D03*
G04 #@! TO.P,J1,7*
G04 #@! TO.N,7*
X103105000Y-30861000D03*
G04 #@! TO.P,J1,H*
G04 #@! TO.N,H*
X103105000Y-33401000D03*
G04 #@! TO.P,J1,8*
G04 #@! TO.N,8*
X100565000Y-30861000D03*
G04 #@! TO.P,J1,J*
G04 #@! TO.N,J*
X100565000Y-33401000D03*
G04 #@! TO.P,J1,9*
G04 #@! TO.N,9*
X98025000Y-30861000D03*
G04 #@! TO.P,J1,K*
G04 #@! TO.N,K*
X98025000Y-33401000D03*
G04 #@! TO.P,J1,10*
G04 #@! TO.N,10*
X95485000Y-30861000D03*
G04 #@! TO.P,J1,L*
G04 #@! TO.N,L*
X95485000Y-33401000D03*
G04 #@! TO.P,J1,11*
G04 #@! TO.N,11*
X92945000Y-30861000D03*
G04 #@! TO.P,J1,M*
G04 #@! TO.N,M*
X92945000Y-33401000D03*
G04 #@! TO.P,J1,12*
G04 #@! TO.N,12*
X90405000Y-30861000D03*
G04 #@! TO.P,J1,N*
G04 #@! TO.N,N*
X90405000Y-33401000D03*
G04 #@! TO.P,J1,13*
G04 #@! TO.N,13*
X87865000Y-30861000D03*
G04 #@! TO.P,J1,P*
G04 #@! TO.N,P*
X87865000Y-33401000D03*
G04 #@! TO.P,J1,14*
G04 #@! TO.N,14*
X85325000Y-30861000D03*
G04 #@! TO.P,J1,R*
G04 #@! TO.N,R*
X85325000Y-33401000D03*
G04 #@! TO.P,J1,15*
G04 #@! TO.N,15*
X82785000Y-30861000D03*
G04 #@! TO.P,J1,S*
G04 #@! TO.N,S*
X82785000Y-33401000D03*
G04 #@! TO.P,J1,16*
G04 #@! TO.N,N/C*
X80245000Y-30861000D03*
G04 #@! TO.P,J1,T*
G04 #@! TO.N,T*
X80245000Y-33401000D03*
G04 #@! TO.P,J1,17*
G04 #@! TO.N,N/C*
X77705000Y-30861000D03*
G04 #@! TO.P,J1,U*
G04 #@! TO.N,U*
X77705000Y-33401000D03*
G04 #@! TO.P,J1,18*
G04 #@! TO.N,18*
X75165000Y-30861000D03*
G04 #@! TO.P,J1,V*
G04 #@! TO.N,V*
X75165000Y-33401000D03*
G04 #@! TO.P,J1,19*
G04 #@! TO.N,CA-*
X72625000Y-30861000D03*
G04 #@! TO.P,J1,W*
G04 #@! TO.N,W*
X72625000Y-33401000D03*
G04 #@! TO.P,J1,20*
G04 #@! TO.N,CA*
X70085000Y-30861000D03*
G04 #@! TO.P,J1,X*
G04 #@! TO.N,X*
X70085000Y-33401000D03*
G04 #@! TO.P,J1,21*
G04 #@! TO.N,S4-*
X67545000Y-30861000D03*
G04 #@! TO.P,J1,Y*
G04 #@! TO.N,Y*
X67545000Y-33401000D03*
G04 #@! TO.P,J1,22*
G04 #@! TO.N,S4*
X65005000Y-30861000D03*
G04 #@! TO.P,J1,Z*
G04 #@! TO.N,Z*
X65005000Y-33401000D03*
G04 #@! TO.P,J1,23*
G04 #@! TO.N,S3*
X62465000Y-30861000D03*
G04 #@! TO.P,J1,AA*
G04 #@! TO.N,AA*
X62465000Y-33401000D03*
G04 #@! TO.P,J1,24*
G04 #@! TO.N,S2*
X59925000Y-30861000D03*
G04 #@! TO.P,J1,AB*
G04 #@! TO.N,AB*
X59925000Y-33401000D03*
G04 #@! TO.P,J1,25*
G04 #@! TO.N,S1*
X57385000Y-30861000D03*
G04 #@! TO.P,J1,AC*
G04 #@! TO.N,AC*
X57385000Y-33401000D03*
G04 #@! TO.P,J1,26*
G04 #@! TO.N,S0*
X54845000Y-30861000D03*
G04 #@! TO.P,J1,AD*
G04 #@! TO.N,AD*
X54845000Y-33401000D03*
G04 #@! TO.P,J1,27*
G04 #@! TO.N,N/C*
X52305000Y-30861000D03*
G04 #@! TO.P,J1,AE*
G04 #@! TO.N,AE*
X52305000Y-33401000D03*
G04 #@! TO.P,J1,28*
G04 #@! TO.N,N/C*
X49765000Y-30861000D03*
G04 #@! TO.P,J1,AF*
G04 #@! TO.N,AF*
X49765000Y-33401000D03*
G04 #@! TO.P,J1,29*
G04 #@! TO.N,29*
X47225000Y-30861000D03*
G04 #@! TO.P,J1,AH*
G04 #@! TO.N,AH*
X47225000Y-33401000D03*
G04 #@! TO.P,J1,30*
G04 #@! TO.N,N/C*
X44685000Y-30861000D03*
G04 #@! TO.P,J1,AJ*
G04 #@! TO.N,AJ*
X44685000Y-33401000D03*
G04 #@! TO.P,J1,31*
G04 #@! TO.N,Neg6v*
X42145000Y-30861000D03*
G04 #@! TO.P,J1,AK*
X42145000Y-33401000D03*
G04 #@! TO.P,J1,32*
G04 #@! TO.N,GND*
X39605000Y-30861000D03*
G04 #@! TO.P,J1,AL*
X39605000Y-33401000D03*
G04 #@! TD*
D13*
G04 #@! TO.P,C1,2*
G04 #@! TO.N,Neg6v*
X32250000Y-39500000D03*
D14*
G04 #@! TO.P,C1,1*
G04 #@! TO.N,GND*
X32250000Y-37000000D03*
G04 #@! TD*
D15*
G04 #@! TO.P,U6,13*
G04 #@! TO.N,Net-(TPLF13-Pad1)*
X194945000Y-142240000D03*
G04 #@! TO.P,U6,12*
G04 #@! TO.N,Net-(TPLF12-Pad1)*
X194945000Y-144780000D03*
G04 #@! TO.P,U6,11*
G04 #@! TO.N,Net-(TPLF11-Pad1)*
X194945000Y-147320000D03*
G04 #@! TO.P,U6,6*
G04 #@! TO.N,Net-(TPLF6-Pad1)*
X213360000Y-138430000D03*
G04 #@! TO.P,U6,5*
G04 #@! TO.N,Net-(TPLF5-Pad1)*
X213360000Y-140970000D03*
G04 #@! TO.P,U6,4*
G04 #@! TO.N,Net-(TPLF4-Pad1)*
X213360000Y-143510000D03*
G04 #@! TO.P,U6,3*
G04 #@! TO.N,Net-(TPLF3-Pad1)*
X213360000Y-146050000D03*
G04 #@! TO.P,U6,2*
G04 #@! TO.N,Net-(TPLF2-Pad1)*
X213360000Y-148590000D03*
G04 #@! TO.P,U6,1*
G04 #@! TO.N,Net-(TPLF1-Pad1)*
X213360000Y-151130000D03*
G04 #@! TO.P,U6,23*
G04 #@! TO.N,Neg6v*
X200025000Y-168275000D03*
G04 #@! TO.P,U6,22*
G04 #@! TO.N,Net-(TPG61-Pad1)*
X197485000Y-168275000D03*
G04 #@! TO.P,U6,21*
G04 #@! TO.N,6v*
X194945000Y-168275000D03*
G04 #@! TD*
G04 #@! TO.P,U5,13*
G04 #@! TO.N,Net-(TPLE13-Pad1)*
X164465000Y-142240000D03*
G04 #@! TO.P,U5,12*
G04 #@! TO.N,Net-(TPLE12-Pad1)*
X164465000Y-144780000D03*
G04 #@! TO.P,U5,11*
G04 #@! TO.N,Net-(TPLE11-Pad1)*
X164465000Y-147320000D03*
G04 #@! TO.P,U5,6*
G04 #@! TO.N,Net-(TPLE6-Pad1)*
X182880000Y-138430000D03*
G04 #@! TO.P,U5,5*
G04 #@! TO.N,Net-(TPLE5-Pad1)*
X182880000Y-140970000D03*
G04 #@! TO.P,U5,4*
G04 #@! TO.N,Net-(TPLE4-Pad1)*
X182880000Y-143510000D03*
G04 #@! TO.P,U5,3*
G04 #@! TO.N,Net-(TPLE3-Pad1)*
X182880000Y-146050000D03*
G04 #@! TO.P,U5,2*
G04 #@! TO.N,Net-(TPLE2-Pad1)*
X182880000Y-148590000D03*
G04 #@! TO.P,U5,1*
G04 #@! TO.N,Net-(TPLE1-Pad1)*
X182880000Y-151130000D03*
G04 #@! TO.P,U5,23*
G04 #@! TO.N,Neg6v*
X169545000Y-168275000D03*
G04 #@! TO.P,U5,22*
G04 #@! TO.N,Net-(TPG51-Pad1)*
X167005000Y-168275000D03*
G04 #@! TO.P,U5,21*
G04 #@! TO.N,6v*
X164465000Y-168275000D03*
G04 #@! TD*
G04 #@! TO.P,U4,13*
G04 #@! TO.N,Net-(TPLBD13-Pad1)*
X133985000Y-142240000D03*
G04 #@! TO.P,U4,12*
G04 #@! TO.N,Net-(TPLD12-Pad1)*
X133985000Y-144780000D03*
G04 #@! TO.P,U4,11*
G04 #@! TO.N,Net-(TPLD11-Pad1)*
X133985000Y-147320000D03*
G04 #@! TO.P,U4,6*
G04 #@! TO.N,Net-(TPLD6-Pad1)*
X152400000Y-138430000D03*
G04 #@! TO.P,U4,5*
G04 #@! TO.N,Net-(TPLD5-Pad1)*
X152400000Y-140970000D03*
G04 #@! TO.P,U4,4*
G04 #@! TO.N,Net-(TPLD4-Pad1)*
X152400000Y-143510000D03*
G04 #@! TO.P,U4,3*
G04 #@! TO.N,Net-(TPLD3-Pad1)*
X152400000Y-146050000D03*
G04 #@! TO.P,U4,2*
G04 #@! TO.N,Net-(TPLD2-Pad1)*
X152400000Y-148590000D03*
G04 #@! TO.P,U4,1*
G04 #@! TO.N,Net-(TPLD1-Pad1)*
X152400000Y-151130000D03*
G04 #@! TO.P,U4,23*
G04 #@! TO.N,Neg6v*
X139065000Y-168275000D03*
G04 #@! TO.P,U4,22*
G04 #@! TO.N,Net-(TPG41-Pad1)*
X136525000Y-168275000D03*
G04 #@! TO.P,U4,21*
G04 #@! TO.N,6v*
X133985000Y-168275000D03*
G04 #@! TD*
G04 #@! TO.P,U1,13*
G04 #@! TO.N,Net-(TPLA13-Pad1)*
X42545000Y-142240000D03*
G04 #@! TO.P,U1,12*
G04 #@! TO.N,Net-(TPLA12-Pad1)*
X42545000Y-144780000D03*
G04 #@! TO.P,U1,11*
G04 #@! TO.N,Net-(TPLA11-Pad1)*
X42545000Y-147320000D03*
G04 #@! TO.P,U1,6*
G04 #@! TO.N,Net-(TPLA6-Pad1)*
X60960000Y-138430000D03*
G04 #@! TO.P,U1,5*
G04 #@! TO.N,Net-(TPLA5-Pad1)*
X60960000Y-140970000D03*
G04 #@! TO.P,U1,4*
G04 #@! TO.N,Net-(TPLA4-Pad1)*
X60960000Y-143510000D03*
G04 #@! TO.P,U1,3*
G04 #@! TO.N,Net-(TPLA3-Pad1)*
X60960000Y-146050000D03*
G04 #@! TO.P,U1,2*
G04 #@! TO.N,Net-(TPLA2-Pad1)*
X60960000Y-148590000D03*
G04 #@! TO.P,U1,1*
G04 #@! TO.N,Net-(TPLA1-Pad1)*
X60960000Y-151130000D03*
G04 #@! TO.P,U1,23*
G04 #@! TO.N,Neg6v*
X47625000Y-168275000D03*
G04 #@! TO.P,U1,22*
G04 #@! TO.N,Net-(TPG11-Pad1)*
X45085000Y-168275000D03*
G04 #@! TO.P,U1,21*
G04 #@! TO.N,6v*
X42545000Y-168275000D03*
G04 #@! TD*
G04 #@! TO.P,U2,13*
G04 #@! TO.N,Net-(TPLB13-Pad1)*
X73025000Y-142240000D03*
G04 #@! TO.P,U2,12*
G04 #@! TO.N,Net-(TPLB12-Pad1)*
X73025000Y-144780000D03*
G04 #@! TO.P,U2,11*
G04 #@! TO.N,Net-(TPLB11-Pad1)*
X73025000Y-147320000D03*
G04 #@! TO.P,U2,6*
G04 #@! TO.N,Net-(TPLB6-Pad1)*
X91440000Y-138430000D03*
G04 #@! TO.P,U2,5*
G04 #@! TO.N,Net-(TPLB5-Pad1)*
X91440000Y-140970000D03*
G04 #@! TO.P,U2,4*
G04 #@! TO.N,Net-(TPLB4-Pad1)*
X91440000Y-143510000D03*
G04 #@! TO.P,U2,3*
G04 #@! TO.N,Net-(TPLB3-Pad1)*
X91440000Y-146050000D03*
G04 #@! TO.P,U2,2*
G04 #@! TO.N,Net-(TPLB2-Pad1)*
X91440000Y-148590000D03*
G04 #@! TO.P,U2,1*
G04 #@! TO.N,Net-(TPLB1-Pad1)*
X91440000Y-151130000D03*
G04 #@! TO.P,U2,23*
G04 #@! TO.N,Neg6v*
X78105000Y-168275000D03*
G04 #@! TO.P,U2,22*
G04 #@! TO.N,Net-(TPG21-Pad1)*
X75565000Y-168275000D03*
G04 #@! TO.P,U2,21*
G04 #@! TO.N,6v*
X73025000Y-168275000D03*
G04 #@! TD*
D14*
G04 #@! TO.P,C2,1*
G04 #@! TO.N,6v*
X133750000Y-31750000D03*
D13*
G04 #@! TO.P,C2,2*
G04 #@! TO.N,GND*
X131250000Y-31750000D03*
G04 #@! TD*
D16*
G04 #@! TO.P,TPX1,1*
G04 #@! TO.N,AJ*
X49500000Y-47000000D03*
G04 #@! TD*
G04 #@! TO.P,TPX2,1*
G04 #@! TO.N,AH*
X56500000Y-47000000D03*
G04 #@! TD*
G04 #@! TO.P,TPX3,1*
G04 #@! TO.N,AF*
X63500000Y-47000000D03*
G04 #@! TD*
G04 #@! TO.P,TPX4,1*
G04 #@! TO.N,AE*
X70500000Y-47000000D03*
G04 #@! TD*
G04 #@! TO.P,TPX5,1*
G04 #@! TO.N,AD*
X77500000Y-47000000D03*
G04 #@! TD*
G04 #@! TO.P,TPX6,1*
G04 #@! TO.N,AC*
X84500000Y-47000000D03*
G04 #@! TD*
G04 #@! TO.P,TPX7,1*
G04 #@! TO.N,AB*
X91500000Y-47000000D03*
G04 #@! TD*
G04 #@! TO.P,TPX8,1*
G04 #@! TO.N,AA*
X98500000Y-47000000D03*
G04 #@! TD*
G04 #@! TO.P,TPX9,1*
G04 #@! TO.N,Z*
X105500000Y-47000000D03*
G04 #@! TD*
G04 #@! TO.P,TPX10,1*
G04 #@! TO.N,Y*
X112500000Y-47000000D03*
G04 #@! TD*
G04 #@! TO.P,TPX11,1*
G04 #@! TO.N,X*
X119500000Y-47000000D03*
G04 #@! TD*
G04 #@! TO.P,TPX12,1*
G04 #@! TO.N,W*
X126500000Y-47000000D03*
G04 #@! TD*
G04 #@! TO.P,TPX13,1*
G04 #@! TO.N,V*
X133500000Y-47000000D03*
G04 #@! TD*
G04 #@! TO.P,TPX14,1*
G04 #@! TO.N,U*
X140500000Y-47000000D03*
G04 #@! TD*
G04 #@! TO.P,TPX15,1*
G04 #@! TO.N,T*
X147500000Y-47000000D03*
G04 #@! TD*
G04 #@! TO.P,TPX16,1*
G04 #@! TO.N,S*
X154500000Y-47000000D03*
G04 #@! TD*
G04 #@! TO.P,TPX17,1*
G04 #@! TO.N,R*
X161500000Y-47000000D03*
G04 #@! TD*
G04 #@! TO.P,TPX18,1*
G04 #@! TO.N,P*
X168500000Y-47000000D03*
G04 #@! TD*
G04 #@! TO.P,TPY1,1*
G04 #@! TO.N,Net-(MH10-Pad1)*
X247500000Y-51000000D03*
G04 #@! TD*
G04 #@! TO.P,TPY2,1*
G04 #@! TO.N,Net-(MH12-Pad1)*
X247500000Y-57000000D03*
G04 #@! TD*
G04 #@! TO.P,TPY3,1*
G04 #@! TO.N,Net-(MH411-Pad1)*
X247500000Y-63000000D03*
G04 #@! TD*
G04 #@! TO.P,TPY4,1*
G04 #@! TO.N,Net-(MH100-Pad1)*
X247500000Y-69000000D03*
G04 #@! TD*
G04 #@! TO.P,TPY5,1*
G04 #@! TO.N,Net-(MH110-Pad1)*
X247500000Y-75000000D03*
G04 #@! TD*
G04 #@! TO.P,TPY6,1*
G04 #@! TO.N,Net-(MH128-Pad1)*
X247500000Y-81000000D03*
G04 #@! TD*
G04 #@! TO.P,TPY7,1*
G04 #@! TO.N,Net-(MH146-Pad1)*
X247500000Y-87000000D03*
G04 #@! TD*
G04 #@! TO.P,TPY8,1*
G04 #@! TO.N,Net-(MH164-Pad1)*
X247500000Y-93000000D03*
G04 #@! TD*
G04 #@! TO.P,TPY9,1*
G04 #@! TO.N,Net-(MH182-Pad1)*
X247500000Y-99000000D03*
G04 #@! TD*
G04 #@! TO.P,TPY10,1*
G04 #@! TO.N,Net-(MH200-Pad1)*
X247500000Y-105000000D03*
G04 #@! TD*
G04 #@! TO.P,TPX19,1*
G04 #@! TO.N,N*
X175500000Y-47000000D03*
G04 #@! TD*
G04 #@! TO.P,TPX20,1*
G04 #@! TO.N,M*
X182500000Y-47000000D03*
G04 #@! TD*
G04 #@! TO.P,TPX21,1*
G04 #@! TO.N,L*
X189500000Y-47000000D03*
G04 #@! TD*
G04 #@! TO.P,TPX22,1*
G04 #@! TO.N,K*
X196500000Y-47000000D03*
G04 #@! TD*
G04 #@! TO.P,TPX23,1*
G04 #@! TO.N,J*
X203500000Y-47000000D03*
G04 #@! TD*
G04 #@! TO.P,TPX24,1*
G04 #@! TO.N,H*
X210500000Y-47000000D03*
G04 #@! TD*
G04 #@! TO.P,TPX25,1*
G04 #@! TO.N,F*
X217500000Y-47000000D03*
G04 #@! TD*
G04 #@! TO.P,TPX26,1*
G04 #@! TO.N,E*
X224500000Y-47000000D03*
G04 #@! TD*
G04 #@! TO.P,TPX27,1*
G04 #@! TO.N,D*
X231500000Y-47000000D03*
G04 #@! TD*
G04 #@! TO.P,TPX28,1*
G04 #@! TO.N,C*
X238500000Y-47000000D03*
G04 #@! TD*
G04 #@! TO.P,TPG11,1*
G04 #@! TO.N,Net-(TPG11-Pad1)*
X45000000Y-180500000D03*
G04 #@! TD*
G04 #@! TO.P,TPG12,1*
G04 #@! TO.N,Net-(TPG11-Pad1)*
X45000000Y-174500000D03*
G04 #@! TD*
G04 #@! TO.P,TPG21,1*
G04 #@! TO.N,Net-(TPG21-Pad1)*
X75500000Y-180500000D03*
G04 #@! TD*
G04 #@! TO.P,TPG22,1*
G04 #@! TO.N,Net-(TPG21-Pad1)*
X75500000Y-174500000D03*
G04 #@! TD*
G04 #@! TO.P,TPG31,1*
G04 #@! TO.N,Net-(TPG31-Pad1)*
X106000000Y-180500000D03*
G04 #@! TD*
G04 #@! TO.P,TPG32,1*
G04 #@! TO.N,Net-(TPG31-Pad1)*
X106000000Y-174500000D03*
G04 #@! TD*
G04 #@! TO.P,TPG41,1*
G04 #@! TO.N,Net-(TPG41-Pad1)*
X136500000Y-180500000D03*
G04 #@! TD*
G04 #@! TO.P,TPG42,1*
G04 #@! TO.N,Net-(TPG41-Pad1)*
X136500000Y-174500000D03*
G04 #@! TD*
G04 #@! TO.P,TPG51,1*
G04 #@! TO.N,Net-(TPG51-Pad1)*
X167000000Y-180500000D03*
G04 #@! TD*
G04 #@! TO.P,TPG52,1*
G04 #@! TO.N,Net-(TPG51-Pad1)*
X167000000Y-174500000D03*
G04 #@! TD*
G04 #@! TO.P,TPG61,1*
G04 #@! TO.N,Net-(TPG61-Pad1)*
X197500000Y-180500000D03*
G04 #@! TD*
G04 #@! TO.P,TPG62,1*
G04 #@! TO.N,Net-(TPG61-Pad1)*
X197500000Y-174500000D03*
G04 #@! TD*
G04 #@! TO.P,TPI7,1*
G04 #@! TO.N,7*
X244500000Y-161000000D03*
G04 #@! TD*
G04 #@! TO.P,TPI8,1*
G04 #@! TO.N,8*
X244500000Y-155500000D03*
G04 #@! TD*
G04 #@! TO.P,TPI9,1*
G04 #@! TO.N,9*
X244500000Y-150000000D03*
G04 #@! TD*
G04 #@! TO.P,TPI10,1*
G04 #@! TO.N,10*
X244500000Y-144500000D03*
G04 #@! TD*
G04 #@! TO.P,TPI11,1*
G04 #@! TO.N,11*
X244500000Y-139000000D03*
G04 #@! TD*
G04 #@! TO.P,TPI14,1*
G04 #@! TO.N,14*
X244500000Y-133500000D03*
G04 #@! TD*
G04 #@! TO.P,TPI15,1*
G04 #@! TO.N,15*
X244500000Y-128000000D03*
G04 #@! TD*
G04 #@! TO.P,TPI18,1*
G04 #@! TO.N,18*
X244500000Y-122500000D03*
G04 #@! TD*
G04 #@! TO.P,TPI19,1*
G04 #@! TO.N,CA-*
X32750000Y-130500000D03*
G04 #@! TD*
G04 #@! TO.P,TPI20,1*
G04 #@! TO.N,CA*
X32750000Y-125500000D03*
G04 #@! TD*
G04 #@! TO.P,TPI21,1*
G04 #@! TO.N,S4-*
X32750000Y-120000000D03*
G04 #@! TD*
G04 #@! TO.P,TPI22,1*
G04 #@! TO.N,S4*
X32750000Y-114500000D03*
G04 #@! TD*
G04 #@! TO.P,TPI23,1*
G04 #@! TO.N,S3*
X32750000Y-109000000D03*
G04 #@! TD*
G04 #@! TO.P,TPI24,1*
G04 #@! TO.N,S2*
X32750000Y-103500000D03*
G04 #@! TD*
G04 #@! TO.P,TPI25,1*
G04 #@! TO.N,S1*
X32750000Y-98000000D03*
G04 #@! TD*
G04 #@! TO.P,TPI26,1*
G04 #@! TO.N,S0*
X32750000Y-92500000D03*
G04 #@! TD*
D15*
G04 #@! TO.P,U3,21*
G04 #@! TO.N,6v*
X103505000Y-168275000D03*
G04 #@! TO.P,U3,22*
G04 #@! TO.N,Net-(TPG31-Pad1)*
X106045000Y-168275000D03*
G04 #@! TO.P,U3,23*
G04 #@! TO.N,Neg6v*
X108585000Y-168275000D03*
G04 #@! TO.P,U3,1*
G04 #@! TO.N,Net-(TPLC1-Pad1)*
X121920000Y-151130000D03*
G04 #@! TO.P,U3,2*
G04 #@! TO.N,Net-(TPLC2-Pad1)*
X121920000Y-148590000D03*
G04 #@! TO.P,U3,3*
G04 #@! TO.N,Net-(TPLC3-Pad1)*
X121920000Y-146050000D03*
G04 #@! TO.P,U3,4*
G04 #@! TO.N,Net-(TPLC4-Pad1)*
X121920000Y-143510000D03*
G04 #@! TO.P,U3,5*
G04 #@! TO.N,Net-(TPLC5-Pad1)*
X121920000Y-140970000D03*
G04 #@! TO.P,U3,6*
G04 #@! TO.N,Net-(TPLC6-Pad1)*
X121920000Y-138430000D03*
G04 #@! TO.P,U3,11*
G04 #@! TO.N,Net-(TPLC11-Pad1)*
X103505000Y-147320000D03*
G04 #@! TO.P,U3,12*
G04 #@! TO.N,Net-(TPLC12-Pad1)*
X103505000Y-144780000D03*
G04 #@! TO.P,U3,13*
G04 #@! TO.N,Net-(TPLC13-Pad1)*
X103505000Y-142240000D03*
G04 #@! TD*
D16*
G04 #@! TO.P,TPG0,1*
G04 #@! TO.N,GND*
X32500000Y-174500000D03*
G04 #@! TD*
D17*
G04 #@! TO.P,TPLA1,1*
G04 #@! TO.N,Net-(TPLA1-Pad1)*
X65000000Y-156500000D03*
X68810000Y-156500000D03*
G04 #@! TD*
G04 #@! TO.P,TPLA2,1*
G04 #@! TO.N,Net-(TPLA2-Pad1)*
X68810000Y-152250000D03*
X65000000Y-152250000D03*
G04 #@! TD*
G04 #@! TO.P,TPLA3,1*
G04 #@! TO.N,Net-(TPLA3-Pad1)*
X65000000Y-148000000D03*
X68810000Y-148000000D03*
G04 #@! TD*
G04 #@! TO.P,TPLA4,1*
G04 #@! TO.N,Net-(TPLA4-Pad1)*
X68810000Y-141750000D03*
X65000000Y-141750000D03*
G04 #@! TD*
G04 #@! TO.P,TPLA5,1*
G04 #@! TO.N,Net-(TPLA5-Pad1)*
X65000000Y-137500000D03*
X68810000Y-137500000D03*
G04 #@! TD*
G04 #@! TO.P,TPLA6,1*
G04 #@! TO.N,Net-(TPLA6-Pad1)*
X68810000Y-133250000D03*
X65000000Y-133250000D03*
G04 #@! TD*
D10*
G04 #@! TO.P,TPLA12,1*
G04 #@! TO.N,Net-(TPLA12-Pad1)*
X55500000Y-115750000D03*
G04 #@! TD*
G04 #@! TO.P,TPLA13,1*
G04 #@! TO.N,Net-(TPLA13-Pad1)*
X50000000Y-115750000D03*
G04 #@! TD*
D18*
G04 #@! TO.P,MH1,1*
G04 #@! TO.N,P*
X168500000Y-54000000D03*
G04 #@! TD*
G04 #@! TO.P,MH2,1*
G04 #@! TO.N,Net-(MH10-Pad1)*
X144000000Y-51000000D03*
G04 #@! TD*
G04 #@! TO.P,MH3,1*
G04 #@! TO.N,Net-(MH10-Pad1)*
X109000000Y-51000000D03*
G04 #@! TD*
G04 #@! TO.P,MH4,1*
G04 #@! TO.N,Net-(MH10-Pad1)*
X151000000Y-51000000D03*
G04 #@! TD*
G04 #@! TO.P,MH5,1*
G04 #@! TO.N,Net-(MH10-Pad1)*
X116000000Y-51000000D03*
G04 #@! TD*
G04 #@! TO.P,MH6,1*
G04 #@! TO.N,Net-(MH10-Pad1)*
X123000000Y-51000000D03*
G04 #@! TD*
G04 #@! TO.P,MH7,1*
G04 #@! TO.N,Net-(MH10-Pad1)*
X158000000Y-51000000D03*
G04 #@! TD*
G04 #@! TO.P,MH8,1*
G04 #@! TO.N,Net-(MH10-Pad1)*
X130000000Y-51000000D03*
G04 #@! TD*
G04 #@! TO.P,MH9,1*
G04 #@! TO.N,Net-(MH10-Pad1)*
X137000000Y-51000000D03*
G04 #@! TD*
G04 #@! TO.P,MH10,1*
G04 #@! TO.N,Net-(MH10-Pad1)*
X165000000Y-51000000D03*
G04 #@! TD*
G04 #@! TO.P,MH11,1*
G04 #@! TO.N,P*
X168500000Y-60000000D03*
G04 #@! TD*
G04 #@! TO.P,MH12,1*
G04 #@! TO.N,Net-(MH12-Pad1)*
X165000000Y-57000000D03*
G04 #@! TD*
G04 #@! TO.P,MH13,1*
G04 #@! TO.N,R*
X161500000Y-96000000D03*
G04 #@! TD*
G04 #@! TO.P,MH14,1*
G04 #@! TO.N,S*
X154500000Y-96000000D03*
G04 #@! TD*
G04 #@! TO.P,MH15,1*
G04 #@! TO.N,T*
X147500000Y-54000000D03*
G04 #@! TD*
G04 #@! TO.P,MH16,1*
G04 #@! TO.N,U*
X140500000Y-66000000D03*
G04 #@! TD*
G04 #@! TO.P,MH17,1*
G04 #@! TO.N,V*
X133500000Y-54000000D03*
G04 #@! TD*
G04 #@! TO.P,MH18,1*
G04 #@! TO.N,W*
X126500000Y-54000000D03*
G04 #@! TD*
G04 #@! TO.P,MH19,1*
G04 #@! TO.N,X*
X119500000Y-54000000D03*
G04 #@! TD*
G04 #@! TO.P,MH20,1*
G04 #@! TO.N,Y*
X112500000Y-54000000D03*
G04 #@! TD*
G04 #@! TO.P,MH21,1*
G04 #@! TO.N,Z*
X105500000Y-54000000D03*
G04 #@! TD*
G04 #@! TO.P,MH22,1*
G04 #@! TO.N,AA*
X98500000Y-54000000D03*
G04 #@! TD*
G04 #@! TO.P,MH23,1*
G04 #@! TO.N,AB*
X91500000Y-54000000D03*
G04 #@! TD*
G04 #@! TO.P,MH24,1*
G04 #@! TO.N,AC*
X84500000Y-54000000D03*
G04 #@! TD*
G04 #@! TO.P,MH25,1*
G04 #@! TO.N,AD*
X77500000Y-54000000D03*
G04 #@! TD*
G04 #@! TO.P,MH26,1*
G04 #@! TO.N,AE*
X70500000Y-84000000D03*
G04 #@! TD*
G04 #@! TO.P,MH27,1*
G04 #@! TO.N,AF*
X63500000Y-54000000D03*
G04 #@! TD*
G04 #@! TO.P,MH28,1*
G04 #@! TO.N,AH*
X56500000Y-54000000D03*
G04 #@! TD*
G04 #@! TO.P,MH29,1*
G04 #@! TO.N,AJ*
X49500000Y-90000000D03*
G04 #@! TD*
G04 #@! TO.P,MH30,1*
G04 #@! TO.N,Net-(MH10-Pad1)*
X172000000Y-51000000D03*
G04 #@! TD*
G04 #@! TO.P,MH31,1*
G04 #@! TO.N,Net-(MH10-Pad1)*
X60000000Y-51000000D03*
G04 #@! TD*
G04 #@! TO.P,MH32,1*
G04 #@! TO.N,Net-(MH10-Pad1)*
X95000000Y-51000000D03*
G04 #@! TD*
G04 #@! TO.P,MH33,1*
G04 #@! TO.N,Net-(MH10-Pad1)*
X81000000Y-51000000D03*
G04 #@! TD*
G04 #@! TO.P,MH34,1*
G04 #@! TO.N,Net-(MH10-Pad1)*
X102000000Y-51000000D03*
G04 #@! TD*
G04 #@! TO.P,MH35,1*
G04 #@! TO.N,Net-(MH10-Pad1)*
X74000000Y-51000000D03*
G04 #@! TD*
G04 #@! TO.P,MH36,1*
G04 #@! TO.N,Net-(MH10-Pad1)*
X88000000Y-51000000D03*
G04 #@! TD*
G04 #@! TO.P,MH37,1*
G04 #@! TO.N,Net-(MH10-Pad1)*
X53000000Y-51000000D03*
G04 #@! TD*
G04 #@! TO.P,MH38,1*
G04 #@! TO.N,Net-(MH10-Pad1)*
X67000000Y-51000000D03*
G04 #@! TD*
G04 #@! TO.P,MH39,1*
G04 #@! TO.N,R*
X161500000Y-54000000D03*
G04 #@! TD*
G04 #@! TO.P,MH40,1*
G04 #@! TO.N,S*
X154500000Y-54000000D03*
G04 #@! TD*
G04 #@! TO.P,MH41,1*
G04 #@! TO.N,T*
X147500000Y-102000000D03*
G04 #@! TD*
G04 #@! TO.P,MH42,1*
G04 #@! TO.N,U*
X140500000Y-108000000D03*
G04 #@! TD*
G04 #@! TO.P,MH43,1*
G04 #@! TO.N,V*
X133500000Y-108000000D03*
G04 #@! TD*
G04 #@! TO.P,MH44,1*
G04 #@! TO.N,W*
X126500000Y-108000000D03*
G04 #@! TD*
G04 #@! TO.P,MH45,1*
G04 #@! TO.N,X*
X119500000Y-96000000D03*
G04 #@! TD*
G04 #@! TO.P,MH46,1*
G04 #@! TO.N,Y*
X112500000Y-108000000D03*
G04 #@! TD*
G04 #@! TO.P,MH47,1*
G04 #@! TO.N,Z*
X105500000Y-60000000D03*
G04 #@! TD*
G04 #@! TO.P,MH48,1*
G04 #@! TO.N,AA*
X98500000Y-60000000D03*
G04 #@! TD*
G04 #@! TO.P,MH49,1*
G04 #@! TO.N,AB*
X91500000Y-108000000D03*
G04 #@! TD*
G04 #@! TO.P,MH50,1*
G04 #@! TO.N,AC*
X84500000Y-108000000D03*
G04 #@! TD*
G04 #@! TO.P,MH51,1*
G04 #@! TO.N,AD*
X77500000Y-60000000D03*
G04 #@! TD*
G04 #@! TO.P,MH52,1*
G04 #@! TO.N,AE*
X70500000Y-108000000D03*
G04 #@! TD*
G04 #@! TO.P,MH53,1*
G04 #@! TO.N,AF*
X63500000Y-72000000D03*
G04 #@! TD*
G04 #@! TO.P,MH54,1*
G04 #@! TO.N,AH*
X56500000Y-72000000D03*
G04 #@! TD*
G04 #@! TO.P,MH55,1*
G04 #@! TO.N,AJ*
X49500000Y-60000000D03*
G04 #@! TD*
G04 #@! TO.P,MH56,1*
G04 #@! TO.N,Net-(MH12-Pad1)*
X130000000Y-57000000D03*
G04 #@! TD*
G04 #@! TO.P,MH57,1*
G04 #@! TO.N,Net-(MH12-Pad1)*
X151000000Y-57000000D03*
G04 #@! TD*
G04 #@! TO.P,MH58,1*
G04 #@! TO.N,Net-(MH12-Pad1)*
X123000000Y-57000000D03*
G04 #@! TD*
G04 #@! TO.P,MH59,1*
G04 #@! TO.N,Net-(MH12-Pad1)*
X53000000Y-57000000D03*
G04 #@! TD*
G04 #@! TO.P,MH60,1*
G04 #@! TO.N,Net-(MH12-Pad1)*
X172000000Y-57000000D03*
G04 #@! TD*
G04 #@! TO.P,MH61,1*
G04 #@! TO.N,Net-(MH12-Pad1)*
X74000000Y-57000000D03*
G04 #@! TD*
G04 #@! TO.P,MH62,1*
G04 #@! TO.N,Net-(MH12-Pad1)*
X158000000Y-57000000D03*
G04 #@! TD*
G04 #@! TO.P,MH63,1*
G04 #@! TO.N,Net-(MH12-Pad1)*
X102000000Y-57000000D03*
G04 #@! TD*
G04 #@! TO.P,MH64,1*
G04 #@! TO.N,Net-(MH12-Pad1)*
X95000000Y-57000000D03*
G04 #@! TD*
G04 #@! TO.P,MH65,1*
G04 #@! TO.N,Net-(MH12-Pad1)*
X109000000Y-57000000D03*
G04 #@! TD*
G04 #@! TO.P,MH66,1*
G04 #@! TO.N,Net-(MH12-Pad1)*
X144000000Y-57000000D03*
G04 #@! TD*
G04 #@! TO.P,MH67,1*
G04 #@! TO.N,Net-(MH12-Pad1)*
X88000000Y-57000000D03*
G04 #@! TD*
G04 #@! TO.P,MH68,1*
G04 #@! TO.N,Net-(MH12-Pad1)*
X67000000Y-57000000D03*
G04 #@! TD*
G04 #@! TO.P,MH69,1*
G04 #@! TO.N,Net-(MH12-Pad1)*
X60000000Y-57000000D03*
G04 #@! TD*
G04 #@! TO.P,MH70,1*
G04 #@! TO.N,Net-(MH12-Pad1)*
X137000000Y-57000000D03*
G04 #@! TD*
G04 #@! TO.P,MH71,1*
G04 #@! TO.N,Net-(MH12-Pad1)*
X116000000Y-57000000D03*
G04 #@! TD*
G04 #@! TO.P,MH72,1*
G04 #@! TO.N,Net-(MH12-Pad1)*
X81000000Y-57000000D03*
G04 #@! TD*
G04 #@! TO.P,MH73,1*
G04 #@! TO.N,P*
X168500000Y-66000000D03*
G04 #@! TD*
G04 #@! TO.P,MH74,1*
G04 #@! TO.N,Net-(MH411-Pad1)*
X165000000Y-63000000D03*
G04 #@! TD*
G04 #@! TO.P,MH75,1*
G04 #@! TO.N,Net-(MH411-Pad1)*
X144000000Y-63000000D03*
G04 #@! TD*
G04 #@! TO.P,MH76,1*
G04 #@! TO.N,Net-(MH411-Pad1)*
X130000000Y-63000000D03*
G04 #@! TD*
G04 #@! TO.P,MH77,1*
G04 #@! TO.N,Net-(MH411-Pad1)*
X123000000Y-63000000D03*
G04 #@! TD*
G04 #@! TO.P,MH78,1*
G04 #@! TO.N,Net-(MH411-Pad1)*
X137000000Y-63000000D03*
G04 #@! TD*
G04 #@! TO.P,MH79,1*
G04 #@! TO.N,Net-(MH411-Pad1)*
X88000000Y-63000000D03*
G04 #@! TD*
G04 #@! TO.P,MH80,1*
G04 #@! TO.N,Net-(MH411-Pad1)*
X95000000Y-63000000D03*
G04 #@! TD*
G04 #@! TO.P,MH81,1*
G04 #@! TO.N,Net-(MH411-Pad1)*
X53000000Y-63000000D03*
G04 #@! TD*
G04 #@! TO.P,MH82,1*
G04 #@! TO.N,Net-(MH411-Pad1)*
X158000000Y-63000000D03*
G04 #@! TD*
G04 #@! TO.P,MH83,1*
G04 #@! TO.N,Net-(MH411-Pad1)*
X172000000Y-63000000D03*
G04 #@! TD*
G04 #@! TO.P,MH84,1*
G04 #@! TO.N,Net-(MH411-Pad1)*
X60000000Y-63000000D03*
G04 #@! TD*
G04 #@! TO.P,MH85,1*
G04 #@! TO.N,Net-(MH411-Pad1)*
X151000000Y-63000000D03*
G04 #@! TD*
G04 #@! TO.P,MH86,1*
G04 #@! TO.N,Net-(MH411-Pad1)*
X81000000Y-63000000D03*
G04 #@! TD*
G04 #@! TO.P,MH87,1*
G04 #@! TO.N,Net-(MH411-Pad1)*
X67000000Y-63000000D03*
G04 #@! TD*
G04 #@! TO.P,MH88,1*
G04 #@! TO.N,Net-(MH411-Pad1)*
X74000000Y-63000000D03*
G04 #@! TD*
G04 #@! TO.P,MH89,1*
G04 #@! TO.N,Net-(MH411-Pad1)*
X102000000Y-63000000D03*
G04 #@! TD*
G04 #@! TO.P,MH90,1*
G04 #@! TO.N,Net-(MH411-Pad1)*
X109000000Y-63000000D03*
G04 #@! TD*
G04 #@! TO.P,MH91,1*
G04 #@! TO.N,Net-(MH411-Pad1)*
X116000000Y-63000000D03*
G04 #@! TD*
G04 #@! TO.P,MH92,1*
G04 #@! TO.N,Net-(MH100-Pad1)*
X109000000Y-69000000D03*
G04 #@! TD*
G04 #@! TO.P,MH93,1*
G04 #@! TO.N,Net-(MH100-Pad1)*
X88000000Y-69000000D03*
G04 #@! TD*
G04 #@! TO.P,MH94,1*
G04 #@! TO.N,Net-(MH100-Pad1)*
X53000000Y-69000000D03*
G04 #@! TD*
G04 #@! TO.P,MH95,1*
G04 #@! TO.N,Net-(MH100-Pad1)*
X172000000Y-69000000D03*
G04 #@! TD*
G04 #@! TO.P,MH96,1*
G04 #@! TO.N,Net-(MH100-Pad1)*
X67000000Y-69000000D03*
G04 #@! TD*
G04 #@! TO.P,MH97,1*
G04 #@! TO.N,Net-(MH100-Pad1)*
X165000000Y-69000000D03*
G04 #@! TD*
G04 #@! TO.P,MH98,1*
G04 #@! TO.N,Net-(MH100-Pad1)*
X130000000Y-69000000D03*
G04 #@! TD*
G04 #@! TO.P,MH99,1*
G04 #@! TO.N,Net-(MH100-Pad1)*
X81000000Y-69000000D03*
G04 #@! TD*
G04 #@! TO.P,MH100,1*
G04 #@! TO.N,Net-(MH100-Pad1)*
X95000000Y-69000000D03*
G04 #@! TD*
G04 #@! TO.P,MH101,1*
G04 #@! TO.N,Net-(MH100-Pad1)*
X74000000Y-69000000D03*
G04 #@! TD*
G04 #@! TO.P,MH102,1*
G04 #@! TO.N,Net-(MH100-Pad1)*
X151000000Y-69000000D03*
G04 #@! TD*
G04 #@! TO.P,MH103,1*
G04 #@! TO.N,Net-(MH100-Pad1)*
X102000000Y-69000000D03*
G04 #@! TD*
G04 #@! TO.P,MH104,1*
G04 #@! TO.N,Net-(MH100-Pad1)*
X158000000Y-69000000D03*
G04 #@! TD*
G04 #@! TO.P,MH105,1*
G04 #@! TO.N,Net-(MH100-Pad1)*
X123000000Y-69000000D03*
G04 #@! TD*
G04 #@! TO.P,MH106,1*
G04 #@! TO.N,Net-(MH100-Pad1)*
X116000000Y-69000000D03*
G04 #@! TD*
G04 #@! TO.P,MH107,1*
G04 #@! TO.N,Net-(MH100-Pad1)*
X144000000Y-69000000D03*
G04 #@! TD*
G04 #@! TO.P,MH108,1*
G04 #@! TO.N,Net-(MH100-Pad1)*
X137000000Y-69000000D03*
G04 #@! TD*
G04 #@! TO.P,MH109,1*
G04 #@! TO.N,Net-(MH100-Pad1)*
X60000000Y-69000000D03*
G04 #@! TD*
G04 #@! TO.P,MH110,1*
G04 #@! TO.N,Net-(MH110-Pad1)*
X137000000Y-75000000D03*
G04 #@! TD*
G04 #@! TO.P,MH111,1*
G04 #@! TO.N,Net-(MH110-Pad1)*
X95000000Y-75000000D03*
G04 #@! TD*
G04 #@! TO.P,MH112,1*
G04 #@! TO.N,Net-(MH110-Pad1)*
X165000000Y-75000000D03*
G04 #@! TD*
G04 #@! TO.P,MH113,1*
G04 #@! TO.N,Net-(MH110-Pad1)*
X60000000Y-75000000D03*
G04 #@! TD*
G04 #@! TO.P,MH114,1*
G04 #@! TO.N,Net-(MH110-Pad1)*
X74000000Y-75000000D03*
G04 #@! TD*
G04 #@! TO.P,MH115,1*
G04 #@! TO.N,Net-(MH110-Pad1)*
X123000000Y-75000000D03*
G04 #@! TD*
G04 #@! TO.P,MH116,1*
G04 #@! TO.N,Net-(MH110-Pad1)*
X116000000Y-75000000D03*
G04 #@! TD*
G04 #@! TO.P,MH117,1*
G04 #@! TO.N,Net-(MH110-Pad1)*
X88000000Y-75000000D03*
G04 #@! TD*
G04 #@! TO.P,MH118,1*
G04 #@! TO.N,Net-(MH110-Pad1)*
X81000000Y-75000000D03*
G04 #@! TD*
G04 #@! TO.P,MH119,1*
G04 #@! TO.N,Net-(MH110-Pad1)*
X144000000Y-75000000D03*
G04 #@! TD*
G04 #@! TO.P,MH120,1*
G04 #@! TO.N,Net-(MH110-Pad1)*
X109000000Y-75000000D03*
G04 #@! TD*
G04 #@! TO.P,MH121,1*
G04 #@! TO.N,Net-(MH110-Pad1)*
X102000000Y-75000000D03*
G04 #@! TD*
G04 #@! TO.P,MH122,1*
G04 #@! TO.N,Net-(MH110-Pad1)*
X172000000Y-75000000D03*
G04 #@! TD*
G04 #@! TO.P,MH123,1*
G04 #@! TO.N,Net-(MH110-Pad1)*
X158000000Y-75000000D03*
G04 #@! TD*
G04 #@! TO.P,MH124,1*
G04 #@! TO.N,Net-(MH110-Pad1)*
X53000000Y-75000000D03*
G04 #@! TD*
G04 #@! TO.P,MH125,1*
G04 #@! TO.N,Net-(MH110-Pad1)*
X130000000Y-75000000D03*
G04 #@! TD*
G04 #@! TO.P,MH126,1*
G04 #@! TO.N,Net-(MH110-Pad1)*
X67000000Y-75000000D03*
G04 #@! TD*
G04 #@! TO.P,MH127,1*
G04 #@! TO.N,Net-(MH110-Pad1)*
X151000000Y-75000000D03*
G04 #@! TD*
G04 #@! TO.P,MH128,1*
G04 #@! TO.N,Net-(MH128-Pad1)*
X102000000Y-81000000D03*
G04 #@! TD*
G04 #@! TO.P,MH129,1*
G04 #@! TO.N,Net-(MH128-Pad1)*
X88000000Y-81000000D03*
G04 #@! TD*
G04 #@! TO.P,MH130,1*
G04 #@! TO.N,Net-(MH128-Pad1)*
X60000000Y-81000000D03*
G04 #@! TD*
G04 #@! TO.P,MH131,1*
G04 #@! TO.N,Net-(MH128-Pad1)*
X116000000Y-81000000D03*
G04 #@! TD*
G04 #@! TO.P,MH132,1*
G04 #@! TO.N,Net-(MH128-Pad1)*
X123000000Y-81000000D03*
G04 #@! TD*
G04 #@! TO.P,MH133,1*
G04 #@! TO.N,Net-(MH128-Pad1)*
X81000000Y-81000000D03*
G04 #@! TD*
G04 #@! TO.P,MH134,1*
G04 #@! TO.N,Net-(MH128-Pad1)*
X144000000Y-81000000D03*
G04 #@! TD*
G04 #@! TO.P,MH135,1*
G04 #@! TO.N,Net-(MH128-Pad1)*
X95000000Y-81000000D03*
G04 #@! TD*
G04 #@! TO.P,MH136,1*
G04 #@! TO.N,Net-(MH128-Pad1)*
X109000000Y-81000000D03*
G04 #@! TD*
G04 #@! TO.P,MH137,1*
G04 #@! TO.N,Net-(MH128-Pad1)*
X74000000Y-81000000D03*
G04 #@! TD*
G04 #@! TO.P,MH138,1*
G04 #@! TO.N,Net-(MH128-Pad1)*
X165000000Y-81000000D03*
G04 #@! TD*
G04 #@! TO.P,MH139,1*
G04 #@! TO.N,Net-(MH128-Pad1)*
X137000000Y-81000000D03*
G04 #@! TD*
G04 #@! TO.P,MH140,1*
G04 #@! TO.N,Net-(MH128-Pad1)*
X172000000Y-81000000D03*
G04 #@! TD*
G04 #@! TO.P,MH141,1*
G04 #@! TO.N,Net-(MH128-Pad1)*
X53000000Y-81000000D03*
G04 #@! TD*
G04 #@! TO.P,MH142,1*
G04 #@! TO.N,Net-(MH128-Pad1)*
X130000000Y-81000000D03*
G04 #@! TD*
G04 #@! TO.P,MH143,1*
G04 #@! TO.N,Net-(MH128-Pad1)*
X151000000Y-81000000D03*
G04 #@! TD*
G04 #@! TO.P,MH144,1*
G04 #@! TO.N,Net-(MH128-Pad1)*
X158000000Y-81000000D03*
G04 #@! TD*
G04 #@! TO.P,MH145,1*
G04 #@! TO.N,Net-(MH128-Pad1)*
X67000000Y-81000000D03*
G04 #@! TD*
G04 #@! TO.P,MH146,1*
G04 #@! TO.N,Net-(MH146-Pad1)*
X123000000Y-87000000D03*
G04 #@! TD*
G04 #@! TO.P,MH147,1*
G04 #@! TO.N,Net-(MH146-Pad1)*
X102000000Y-87000000D03*
G04 #@! TD*
G04 #@! TO.P,MH148,1*
G04 #@! TO.N,Net-(MH146-Pad1)*
X95000000Y-87000000D03*
G04 #@! TD*
G04 #@! TO.P,MH149,1*
G04 #@! TO.N,Net-(MH146-Pad1)*
X88000000Y-87000000D03*
G04 #@! TD*
G04 #@! TO.P,MH150,1*
G04 #@! TO.N,Net-(MH146-Pad1)*
X74000000Y-87000000D03*
G04 #@! TD*
G04 #@! TO.P,MH151,1*
G04 #@! TO.N,Net-(MH146-Pad1)*
X172000000Y-87000000D03*
G04 #@! TD*
G04 #@! TO.P,MH152,1*
G04 #@! TO.N,Net-(MH146-Pad1)*
X53000000Y-87000000D03*
G04 #@! TD*
G04 #@! TO.P,MH153,1*
G04 #@! TO.N,Net-(MH146-Pad1)*
X116000000Y-87000000D03*
G04 #@! TD*
G04 #@! TO.P,MH154,1*
G04 #@! TO.N,Net-(MH146-Pad1)*
X81000000Y-87000000D03*
G04 #@! TD*
G04 #@! TO.P,MH155,1*
G04 #@! TO.N,Net-(MH146-Pad1)*
X130000000Y-87000000D03*
G04 #@! TD*
G04 #@! TO.P,MH156,1*
G04 #@! TO.N,Net-(MH146-Pad1)*
X158000000Y-87000000D03*
G04 #@! TD*
G04 #@! TO.P,MH157,1*
G04 #@! TO.N,Net-(MH146-Pad1)*
X165000000Y-87000000D03*
G04 #@! TD*
G04 #@! TO.P,MH158,1*
G04 #@! TO.N,Net-(MH146-Pad1)*
X137000000Y-87000000D03*
G04 #@! TD*
G04 #@! TO.P,MH159,1*
G04 #@! TO.N,Net-(MH146-Pad1)*
X60000000Y-87000000D03*
G04 #@! TD*
G04 #@! TO.P,MH160,1*
G04 #@! TO.N,Net-(MH146-Pad1)*
X67000000Y-87000000D03*
G04 #@! TD*
G04 #@! TO.P,MH161,1*
G04 #@! TO.N,Net-(MH146-Pad1)*
X144000000Y-87000000D03*
G04 #@! TD*
G04 #@! TO.P,MH162,1*
G04 #@! TO.N,Net-(MH146-Pad1)*
X109000000Y-87000000D03*
G04 #@! TD*
G04 #@! TO.P,MH163,1*
G04 #@! TO.N,Net-(MH146-Pad1)*
X151000000Y-87000000D03*
G04 #@! TD*
G04 #@! TO.P,MH164,1*
G04 #@! TO.N,Net-(MH164-Pad1)*
X102000000Y-93000000D03*
G04 #@! TD*
G04 #@! TO.P,MH165,1*
G04 #@! TO.N,Net-(MH164-Pad1)*
X60000000Y-93000000D03*
G04 #@! TD*
G04 #@! TO.P,MH166,1*
G04 #@! TO.N,Net-(MH164-Pad1)*
X130000000Y-93000000D03*
G04 #@! TD*
G04 #@! TO.P,MH167,1*
G04 #@! TO.N,Net-(MH164-Pad1)*
X74000000Y-93000000D03*
G04 #@! TD*
G04 #@! TO.P,MH168,1*
G04 #@! TO.N,Net-(MH164-Pad1)*
X158000000Y-93000000D03*
G04 #@! TD*
G04 #@! TO.P,MH169,1*
G04 #@! TO.N,Net-(MH164-Pad1)*
X53000000Y-93000000D03*
G04 #@! TD*
G04 #@! TO.P,MH170,1*
G04 #@! TO.N,Net-(MH164-Pad1)*
X151000000Y-93000000D03*
G04 #@! TD*
G04 #@! TO.P,MH171,1*
G04 #@! TO.N,Net-(MH164-Pad1)*
X109000000Y-93000000D03*
G04 #@! TD*
G04 #@! TO.P,MH172,1*
G04 #@! TO.N,Net-(MH164-Pad1)*
X95000000Y-93000000D03*
G04 #@! TD*
G04 #@! TO.P,MH173,1*
G04 #@! TO.N,Net-(MH164-Pad1)*
X144000000Y-93000000D03*
G04 #@! TD*
G04 #@! TO.P,MH174,1*
G04 #@! TO.N,Net-(MH164-Pad1)*
X123000000Y-93000000D03*
G04 #@! TD*
G04 #@! TO.P,MH175,1*
G04 #@! TO.N,Net-(MH164-Pad1)*
X67000000Y-93000000D03*
G04 #@! TD*
G04 #@! TO.P,MH176,1*
G04 #@! TO.N,Net-(MH164-Pad1)*
X172000000Y-93000000D03*
G04 #@! TD*
G04 #@! TO.P,MH177,1*
G04 #@! TO.N,Net-(MH164-Pad1)*
X88000000Y-93000000D03*
G04 #@! TD*
G04 #@! TO.P,MH178,1*
G04 #@! TO.N,Net-(MH164-Pad1)*
X137000000Y-93000000D03*
G04 #@! TD*
G04 #@! TO.P,MH179,1*
G04 #@! TO.N,Net-(MH164-Pad1)*
X116000000Y-93000000D03*
G04 #@! TD*
G04 #@! TO.P,MH180,1*
G04 #@! TO.N,Net-(MH164-Pad1)*
X165000000Y-93000000D03*
G04 #@! TD*
G04 #@! TO.P,MH181,1*
G04 #@! TO.N,Net-(MH164-Pad1)*
X81000000Y-93000000D03*
G04 #@! TD*
G04 #@! TO.P,MH182,1*
G04 #@! TO.N,Net-(MH182-Pad1)*
X81000000Y-99000000D03*
G04 #@! TD*
G04 #@! TO.P,MH183,1*
G04 #@! TO.N,Net-(MH182-Pad1)*
X60000000Y-99000000D03*
G04 #@! TD*
G04 #@! TO.P,MH184,1*
G04 #@! TO.N,Net-(MH182-Pad1)*
X53000000Y-99000000D03*
G04 #@! TD*
G04 #@! TO.P,MH185,1*
G04 #@! TO.N,Net-(MH182-Pad1)*
X172000000Y-99000000D03*
G04 #@! TD*
G04 #@! TO.P,MH186,1*
G04 #@! TO.N,Net-(MH182-Pad1)*
X123000000Y-99000000D03*
G04 #@! TD*
G04 #@! TO.P,MH187,1*
G04 #@! TO.N,Net-(MH182-Pad1)*
X116000000Y-99000000D03*
G04 #@! TD*
G04 #@! TO.P,MH188,1*
G04 #@! TO.N,Net-(MH182-Pad1)*
X74000000Y-99000000D03*
G04 #@! TD*
G04 #@! TO.P,MH189,1*
G04 #@! TO.N,Net-(MH182-Pad1)*
X158000000Y-99000000D03*
G04 #@! TD*
G04 #@! TO.P,MH190,1*
G04 #@! TO.N,Net-(MH182-Pad1)*
X67000000Y-99000000D03*
G04 #@! TD*
G04 #@! TO.P,MH191,1*
G04 #@! TO.N,Net-(MH182-Pad1)*
X165000000Y-99000000D03*
G04 #@! TD*
G04 #@! TO.P,MH192,1*
G04 #@! TO.N,Net-(MH182-Pad1)*
X109000000Y-99000000D03*
G04 #@! TD*
G04 #@! TO.P,MH193,1*
G04 #@! TO.N,Net-(MH182-Pad1)*
X88000000Y-99000000D03*
G04 #@! TD*
G04 #@! TO.P,MH194,1*
G04 #@! TO.N,Net-(MH182-Pad1)*
X151000000Y-99000000D03*
G04 #@! TD*
G04 #@! TO.P,MH195,1*
G04 #@! TO.N,Net-(MH182-Pad1)*
X102080000Y-99000000D03*
G04 #@! TD*
G04 #@! TO.P,MH196,1*
G04 #@! TO.N,Net-(MH182-Pad1)*
X95000000Y-99000000D03*
G04 #@! TD*
G04 #@! TO.P,MH197,1*
G04 #@! TO.N,Net-(MH182-Pad1)*
X144000000Y-99000000D03*
G04 #@! TD*
G04 #@! TO.P,MH198,1*
G04 #@! TO.N,Net-(MH182-Pad1)*
X130000000Y-99000000D03*
G04 #@! TD*
G04 #@! TO.P,MH199,1*
G04 #@! TO.N,Net-(MH182-Pad1)*
X137000000Y-99000000D03*
G04 #@! TD*
G04 #@! TO.P,MH200,1*
G04 #@! TO.N,Net-(MH200-Pad1)*
X137000000Y-105000000D03*
G04 #@! TD*
G04 #@! TO.P,MH201,1*
G04 #@! TO.N,Net-(MH200-Pad1)*
X172000000Y-105000000D03*
G04 #@! TD*
G04 #@! TO.P,MH202,1*
G04 #@! TO.N,Net-(MH200-Pad1)*
X151000000Y-105000000D03*
G04 #@! TD*
G04 #@! TO.P,MH203,1*
G04 #@! TO.N,Net-(MH200-Pad1)*
X60000000Y-105000000D03*
G04 #@! TD*
G04 #@! TO.P,MH204,1*
G04 #@! TO.N,Net-(MH200-Pad1)*
X116000000Y-105000000D03*
G04 #@! TD*
G04 #@! TO.P,MH205,1*
G04 #@! TO.N,Net-(MH200-Pad1)*
X123000000Y-105000000D03*
G04 #@! TD*
G04 #@! TO.P,MH206,1*
G04 #@! TO.N,Net-(MH200-Pad1)*
X95000000Y-105000000D03*
G04 #@! TD*
G04 #@! TO.P,MH207,1*
G04 #@! TO.N,Net-(MH200-Pad1)*
X102000000Y-105000000D03*
G04 #@! TD*
G04 #@! TO.P,MH208,1*
G04 #@! TO.N,Net-(MH200-Pad1)*
X165000000Y-105000000D03*
G04 #@! TD*
G04 #@! TO.P,MH209,1*
G04 #@! TO.N,Net-(MH200-Pad1)*
X88000000Y-105000000D03*
G04 #@! TD*
G04 #@! TO.P,MH210,1*
G04 #@! TO.N,Net-(MH200-Pad1)*
X144000000Y-105000000D03*
G04 #@! TD*
G04 #@! TO.P,MH211,1*
G04 #@! TO.N,Net-(MH200-Pad1)*
X109000000Y-105000000D03*
G04 #@! TD*
G04 #@! TO.P,MH212,1*
G04 #@! TO.N,Net-(MH200-Pad1)*
X158000000Y-105000000D03*
G04 #@! TD*
G04 #@! TO.P,MH213,1*
G04 #@! TO.N,Net-(MH200-Pad1)*
X81000000Y-105000000D03*
G04 #@! TD*
G04 #@! TO.P,MH214,1*
G04 #@! TO.N,Net-(MH200-Pad1)*
X53000000Y-105000000D03*
G04 #@! TD*
G04 #@! TO.P,MH215,1*
G04 #@! TO.N,Net-(MH200-Pad1)*
X130000000Y-105000000D03*
G04 #@! TD*
G04 #@! TO.P,MH216,1*
G04 #@! TO.N,Net-(MH200-Pad1)*
X67000000Y-105000000D03*
G04 #@! TD*
G04 #@! TO.P,MH217,1*
G04 #@! TO.N,Net-(MH200-Pad1)*
X74000000Y-105000000D03*
G04 #@! TD*
G04 #@! TO.P,MH218,1*
G04 #@! TO.N,R*
X161500000Y-108000000D03*
G04 #@! TD*
G04 #@! TO.P,MH219,1*
G04 #@! TO.N,S*
X154500000Y-108000000D03*
G04 #@! TD*
G04 #@! TO.P,MH220,1*
G04 #@! TO.N,T*
X147500000Y-72000000D03*
G04 #@! TD*
G04 #@! TO.P,MH221,1*
G04 #@! TO.N,U*
X140500000Y-96000000D03*
G04 #@! TD*
G04 #@! TO.P,MH222,1*
G04 #@! TO.N,V*
X133500000Y-96000000D03*
G04 #@! TD*
G04 #@! TO.P,MH223,1*
G04 #@! TO.N,W*
X126500000Y-84000000D03*
G04 #@! TD*
G04 #@! TO.P,MH224,1*
G04 #@! TO.N,X*
X119500000Y-78000000D03*
G04 #@! TD*
G04 #@! TO.P,MH225,1*
G04 #@! TO.N,Y*
X112500000Y-84000000D03*
G04 #@! TD*
G04 #@! TO.P,MH226,1*
G04 #@! TO.N,Z*
X105500000Y-96000000D03*
G04 #@! TD*
G04 #@! TO.P,MH227,1*
G04 #@! TO.N,AA*
X98500000Y-96000000D03*
G04 #@! TD*
G04 #@! TO.P,MH228,1*
G04 #@! TO.N,AB*
X91500000Y-60000000D03*
G04 #@! TD*
G04 #@! TO.P,MH229,1*
G04 #@! TO.N,AC*
X84500000Y-102000000D03*
G04 #@! TD*
G04 #@! TO.P,MH230,1*
G04 #@! TO.N,AD*
X77500000Y-72000000D03*
G04 #@! TD*
G04 #@! TO.P,MH231,1*
G04 #@! TO.N,AE*
X70500000Y-54000000D03*
G04 #@! TD*
G04 #@! TO.P,MH232,1*
G04 #@! TO.N,AF*
X63500000Y-108000000D03*
G04 #@! TD*
G04 #@! TO.P,MH233,1*
G04 #@! TO.N,AH*
X56500000Y-108000000D03*
G04 #@! TD*
G04 #@! TO.P,MH234,1*
G04 #@! TO.N,AJ*
X49500000Y-96000000D03*
G04 #@! TD*
G04 #@! TO.P,MH235,1*
G04 #@! TO.N,P*
X168500000Y-102000000D03*
G04 #@! TD*
G04 #@! TO.P,MH236,1*
G04 #@! TO.N,R*
X161500000Y-90000000D03*
G04 #@! TD*
G04 #@! TO.P,MH237,1*
G04 #@! TO.N,S*
X154500000Y-66000000D03*
G04 #@! TD*
G04 #@! TO.P,MH238,1*
G04 #@! TO.N,T*
X147500000Y-66000000D03*
G04 #@! TD*
G04 #@! TO.P,MH239,1*
G04 #@! TO.N,U*
X140500000Y-78000000D03*
G04 #@! TD*
G04 #@! TO.P,MH240,1*
G04 #@! TO.N,V*
X133500000Y-90000000D03*
G04 #@! TD*
G04 #@! TO.P,MH241,1*
G04 #@! TO.N,W*
X126500000Y-78000000D03*
G04 #@! TD*
G04 #@! TO.P,MH242,1*
G04 #@! TO.N,X*
X119500000Y-108000000D03*
G04 #@! TD*
G04 #@! TO.P,MH243,1*
G04 #@! TO.N,Y*
X112500000Y-102000000D03*
G04 #@! TD*
G04 #@! TO.P,MH244,1*
G04 #@! TO.N,Z*
X105500000Y-72000000D03*
G04 #@! TD*
G04 #@! TO.P,MH245,1*
G04 #@! TO.N,AA*
X98500000Y-102000000D03*
G04 #@! TD*
G04 #@! TO.P,MH246,1*
G04 #@! TO.N,AB*
X91500000Y-102000000D03*
G04 #@! TD*
G04 #@! TO.P,MH247,1*
G04 #@! TO.N,AC*
X84500000Y-96000000D03*
G04 #@! TD*
G04 #@! TO.P,MH248,1*
G04 #@! TO.N,AD*
X77500000Y-66000000D03*
G04 #@! TD*
G04 #@! TO.P,MH249,1*
G04 #@! TO.N,AE*
X70500000Y-96000000D03*
G04 #@! TD*
G04 #@! TO.P,MH250,1*
G04 #@! TO.N,AF*
X63500000Y-60000000D03*
G04 #@! TD*
G04 #@! TO.P,MH251,1*
G04 #@! TO.N,AH*
X56500000Y-66000000D03*
G04 #@! TD*
G04 #@! TO.P,MH252,1*
G04 #@! TO.N,AJ*
X49500000Y-78000000D03*
G04 #@! TD*
G04 #@! TO.P,MH253,1*
G04 #@! TO.N,P*
X168500000Y-72000000D03*
G04 #@! TD*
G04 #@! TO.P,MH254,1*
G04 #@! TO.N,R*
X161500000Y-72000000D03*
G04 #@! TD*
G04 #@! TO.P,MH255,1*
G04 #@! TO.N,S*
X154500000Y-90000000D03*
G04 #@! TD*
G04 #@! TO.P,MH256,1*
G04 #@! TO.N,T*
X147500000Y-60000000D03*
G04 #@! TD*
G04 #@! TO.P,MH257,1*
G04 #@! TO.N,U*
X140500000Y-102000000D03*
G04 #@! TD*
G04 #@! TO.P,MH258,1*
G04 #@! TO.N,V*
X133500000Y-72000000D03*
G04 #@! TD*
G04 #@! TO.P,MH259,1*
G04 #@! TO.N,W*
X126500000Y-60000000D03*
G04 #@! TD*
G04 #@! TO.P,MH260,1*
G04 #@! TO.N,X*
X119500000Y-60000000D03*
G04 #@! TD*
G04 #@! TO.P,MH261,1*
G04 #@! TO.N,Y*
X112500000Y-72000000D03*
G04 #@! TD*
G04 #@! TO.P,MH262,1*
G04 #@! TO.N,Z*
X105500000Y-108000000D03*
G04 #@! TD*
G04 #@! TO.P,MH263,1*
G04 #@! TO.N,AA*
X98500000Y-108000000D03*
G04 #@! TD*
G04 #@! TO.P,MH264,1*
G04 #@! TO.N,AB*
X91500000Y-66000000D03*
G04 #@! TD*
G04 #@! TO.P,MH265,1*
G04 #@! TO.N,AC*
X84500000Y-90000000D03*
G04 #@! TD*
G04 #@! TO.P,MH266,1*
G04 #@! TO.N,AD*
X77500000Y-102000000D03*
G04 #@! TD*
G04 #@! TO.P,MH267,1*
G04 #@! TO.N,AE*
X70500000Y-66000000D03*
G04 #@! TD*
G04 #@! TO.P,MH268,1*
G04 #@! TO.N,AF*
X63500000Y-84000000D03*
G04 #@! TD*
G04 #@! TO.P,MH269,1*
G04 #@! TO.N,AH*
X56500000Y-60000000D03*
G04 #@! TD*
G04 #@! TO.P,MH270,1*
G04 #@! TO.N,AJ*
X49500000Y-72000000D03*
G04 #@! TD*
G04 #@! TO.P,MH271,1*
G04 #@! TO.N,P*
X168500000Y-84000000D03*
G04 #@! TD*
G04 #@! TO.P,MH272,1*
G04 #@! TO.N,R*
X161500000Y-66000000D03*
G04 #@! TD*
G04 #@! TO.P,MH273,1*
G04 #@! TO.N,S*
X154500000Y-84000000D03*
G04 #@! TD*
G04 #@! TO.P,MH274,1*
G04 #@! TO.N,T*
X147500000Y-108000000D03*
G04 #@! TD*
G04 #@! TO.P,MH275,1*
G04 #@! TO.N,U*
X140500000Y-72000000D03*
G04 #@! TD*
G04 #@! TO.P,MH276,1*
G04 #@! TO.N,V*
X133500000Y-102000000D03*
G04 #@! TD*
G04 #@! TO.P,MH277,1*
G04 #@! TO.N,W*
X126500000Y-66000000D03*
G04 #@! TD*
G04 #@! TO.P,MH278,1*
G04 #@! TO.N,X*
X119500000Y-66000000D03*
G04 #@! TD*
G04 #@! TO.P,MH279,1*
G04 #@! TO.N,Y*
X112500000Y-96000000D03*
G04 #@! TD*
G04 #@! TO.P,MH280,1*
G04 #@! TO.N,Z*
X105500000Y-102000000D03*
G04 #@! TD*
G04 #@! TO.P,MH281,1*
G04 #@! TO.N,AA*
X98500000Y-90000000D03*
G04 #@! TD*
G04 #@! TO.P,MH282,1*
G04 #@! TO.N,AB*
X91500000Y-90000000D03*
G04 #@! TD*
G04 #@! TO.P,MH283,1*
G04 #@! TO.N,AC*
X84500000Y-78000000D03*
G04 #@! TD*
G04 #@! TO.P,MH284,1*
G04 #@! TO.N,AD*
X77500000Y-84000000D03*
G04 #@! TD*
G04 #@! TO.P,MH285,1*
G04 #@! TO.N,AE*
X70500000Y-72000000D03*
G04 #@! TD*
G04 #@! TO.P,MH286,1*
G04 #@! TO.N,AF*
X63500000Y-102000000D03*
G04 #@! TD*
G04 #@! TO.P,MH287,1*
G04 #@! TO.N,AH*
X56500000Y-90000000D03*
G04 #@! TD*
G04 #@! TO.P,MH288,1*
G04 #@! TO.N,AJ*
X49500000Y-108000000D03*
G04 #@! TD*
G04 #@! TO.P,MH289,1*
G04 #@! TO.N,P*
X168500000Y-108000000D03*
G04 #@! TD*
G04 #@! TO.P,MH290,1*
G04 #@! TO.N,R*
X161500000Y-102000000D03*
G04 #@! TD*
G04 #@! TO.P,MH291,1*
G04 #@! TO.N,S*
X154500000Y-78000000D03*
G04 #@! TD*
G04 #@! TO.P,MH292,1*
G04 #@! TO.N,T*
X147500000Y-96000000D03*
G04 #@! TD*
G04 #@! TO.P,MH293,1*
G04 #@! TO.N,U*
X140500000Y-54000000D03*
G04 #@! TD*
G04 #@! TO.P,MH294,1*
G04 #@! TO.N,V*
X133500000Y-66000000D03*
G04 #@! TD*
G04 #@! TO.P,MH295,1*
G04 #@! TO.N,W*
X126500000Y-102000000D03*
G04 #@! TD*
G04 #@! TO.P,MH296,1*
G04 #@! TO.N,X*
X119500000Y-84000000D03*
G04 #@! TD*
G04 #@! TO.P,MH297,1*
G04 #@! TO.N,Y*
X112500000Y-78000000D03*
G04 #@! TD*
G04 #@! TO.P,MH298,1*
G04 #@! TO.N,Z*
X105500000Y-78000000D03*
G04 #@! TD*
G04 #@! TO.P,MH299,1*
G04 #@! TO.N,AA*
X98500000Y-78000000D03*
G04 #@! TD*
G04 #@! TO.P,MH300,1*
G04 #@! TO.N,AB*
X91500000Y-78000000D03*
G04 #@! TD*
G04 #@! TO.P,MH301,1*
G04 #@! TO.N,AC*
X84500000Y-60000000D03*
G04 #@! TD*
G04 #@! TO.P,MH302,1*
G04 #@! TO.N,AD*
X77500000Y-108000000D03*
G04 #@! TD*
G04 #@! TO.P,MH303,1*
G04 #@! TO.N,AE*
X70500000Y-60000000D03*
G04 #@! TD*
G04 #@! TO.P,MH304,1*
G04 #@! TO.N,AF*
X63500000Y-78000000D03*
G04 #@! TD*
G04 #@! TO.P,MH305,1*
G04 #@! TO.N,AH*
X56500000Y-102000000D03*
G04 #@! TD*
G04 #@! TO.P,MH306,1*
G04 #@! TO.N,AJ*
X49500000Y-102000000D03*
G04 #@! TD*
G04 #@! TO.P,MH307,1*
G04 #@! TO.N,P*
X168500000Y-96000000D03*
G04 #@! TD*
G04 #@! TO.P,MH308,1*
G04 #@! TO.N,R*
X161500000Y-78000000D03*
G04 #@! TD*
G04 #@! TO.P,MH309,1*
G04 #@! TO.N,S*
X154500000Y-60000000D03*
G04 #@! TD*
G04 #@! TO.P,MH310,1*
G04 #@! TO.N,T*
X147500000Y-78000000D03*
G04 #@! TD*
G04 #@! TO.P,MH311,1*
G04 #@! TO.N,U*
X140500000Y-84000000D03*
G04 #@! TD*
G04 #@! TO.P,MH312,1*
G04 #@! TO.N,V*
X133500000Y-60000000D03*
G04 #@! TD*
G04 #@! TO.P,MH313,1*
G04 #@! TO.N,W*
X126500000Y-90000000D03*
G04 #@! TD*
G04 #@! TO.P,MH314,1*
G04 #@! TO.N,X*
X119500000Y-90000000D03*
G04 #@! TD*
G04 #@! TO.P,MH315,1*
G04 #@! TO.N,Y*
X112500000Y-90000000D03*
G04 #@! TD*
G04 #@! TO.P,MH316,1*
G04 #@! TO.N,Z*
X105500000Y-84000000D03*
G04 #@! TD*
G04 #@! TO.P,MH317,1*
G04 #@! TO.N,AA*
X98500000Y-72000000D03*
G04 #@! TD*
G04 #@! TO.P,MH318,1*
G04 #@! TO.N,AB*
X91500000Y-96000000D03*
G04 #@! TD*
G04 #@! TO.P,MH319,1*
G04 #@! TO.N,AC*
X84500000Y-66000000D03*
G04 #@! TD*
G04 #@! TO.P,MH320,1*
G04 #@! TO.N,AD*
X77500000Y-78000000D03*
G04 #@! TD*
G04 #@! TO.P,MH321,1*
G04 #@! TO.N,AE*
X70500000Y-78000000D03*
G04 #@! TD*
G04 #@! TO.P,MH322,1*
G04 #@! TO.N,AF*
X63500000Y-96000000D03*
G04 #@! TD*
G04 #@! TO.P,MH323,1*
G04 #@! TO.N,AH*
X56500000Y-96000000D03*
G04 #@! TD*
G04 #@! TO.P,MH324,1*
G04 #@! TO.N,AJ*
X49500000Y-84000000D03*
G04 #@! TD*
G04 #@! TO.P,MH325,1*
G04 #@! TO.N,P*
X168500000Y-78000000D03*
G04 #@! TD*
G04 #@! TO.P,MH326,1*
G04 #@! TO.N,R*
X161500000Y-60000000D03*
G04 #@! TD*
G04 #@! TO.P,MH327,1*
G04 #@! TO.N,S*
X154500000Y-72000000D03*
G04 #@! TD*
G04 #@! TO.P,MH328,1*
G04 #@! TO.N,T*
X147500000Y-90000000D03*
G04 #@! TD*
G04 #@! TO.P,MH329,1*
G04 #@! TO.N,U*
X140500000Y-90000000D03*
G04 #@! TD*
G04 #@! TO.P,MH330,1*
G04 #@! TO.N,V*
X133500000Y-78000000D03*
G04 #@! TD*
G04 #@! TO.P,MH331,1*
G04 #@! TO.N,W*
X126500000Y-72000000D03*
G04 #@! TD*
G04 #@! TO.P,MH332,1*
G04 #@! TO.N,X*
X119500000Y-102000000D03*
G04 #@! TD*
G04 #@! TO.P,MH333,1*
G04 #@! TO.N,Y*
X112500000Y-60000000D03*
G04 #@! TD*
G04 #@! TO.P,MH334,1*
G04 #@! TO.N,Z*
X105500000Y-90000000D03*
G04 #@! TD*
G04 #@! TO.P,MH335,1*
G04 #@! TO.N,AA*
X98500000Y-84000000D03*
G04 #@! TD*
G04 #@! TO.P,MH336,1*
G04 #@! TO.N,AB*
X91500000Y-84000000D03*
G04 #@! TD*
G04 #@! TO.P,MH337,1*
G04 #@! TO.N,AC*
X84500000Y-72000000D03*
G04 #@! TD*
G04 #@! TO.P,MH338,1*
G04 #@! TO.N,AD*
X77500000Y-90000000D03*
G04 #@! TD*
G04 #@! TO.P,MH339,1*
G04 #@! TO.N,AE*
X70500000Y-102000000D03*
G04 #@! TD*
G04 #@! TO.P,MH340,1*
G04 #@! TO.N,AF*
X63500000Y-90000000D03*
G04 #@! TD*
G04 #@! TO.P,MH341,1*
G04 #@! TO.N,AH*
X56500000Y-78000000D03*
G04 #@! TD*
G04 #@! TO.P,MH342,1*
G04 #@! TO.N,AJ*
X49500000Y-66000000D03*
G04 #@! TD*
G04 #@! TO.P,MH343,1*
G04 #@! TO.N,P*
X168500000Y-90000000D03*
G04 #@! TD*
G04 #@! TO.P,MH344,1*
G04 #@! TO.N,R*
X161500000Y-84000000D03*
G04 #@! TD*
G04 #@! TO.P,MH345,1*
G04 #@! TO.N,S*
X154500000Y-102000000D03*
G04 #@! TD*
G04 #@! TO.P,MH346,1*
G04 #@! TO.N,T*
X147500000Y-84000000D03*
G04 #@! TD*
G04 #@! TO.P,MH347,1*
G04 #@! TO.N,U*
X140500000Y-60000000D03*
G04 #@! TD*
G04 #@! TO.P,MH348,1*
G04 #@! TO.N,V*
X133500000Y-84000000D03*
G04 #@! TD*
G04 #@! TO.P,MH349,1*
G04 #@! TO.N,W*
X126500000Y-96000000D03*
G04 #@! TD*
G04 #@! TO.P,MH350,1*
G04 #@! TO.N,X*
X119500000Y-72000000D03*
G04 #@! TD*
G04 #@! TO.P,MH351,1*
G04 #@! TO.N,Y*
X112500000Y-66000000D03*
G04 #@! TD*
G04 #@! TO.P,MH352,1*
G04 #@! TO.N,Z*
X105500000Y-66000000D03*
G04 #@! TD*
G04 #@! TO.P,MH353,1*
G04 #@! TO.N,AA*
X98500000Y-66000000D03*
G04 #@! TD*
G04 #@! TO.P,MH354,1*
G04 #@! TO.N,AB*
X91500000Y-72000000D03*
G04 #@! TD*
G04 #@! TO.P,MH355,1*
G04 #@! TO.N,AC*
X84500000Y-84000000D03*
G04 #@! TD*
G04 #@! TO.P,MH356,1*
G04 #@! TO.N,AD*
X77500000Y-96000000D03*
G04 #@! TD*
G04 #@! TO.P,MH357,1*
G04 #@! TO.N,AE*
X70500000Y-90000000D03*
G04 #@! TD*
G04 #@! TO.P,MH358,1*
G04 #@! TO.N,AF*
X63500000Y-66000000D03*
G04 #@! TD*
G04 #@! TO.P,MH359,1*
G04 #@! TO.N,AH*
X56500000Y-84000000D03*
G04 #@! TD*
G04 #@! TO.P,MH360,1*
G04 #@! TO.N,AJ*
X49500000Y-54000000D03*
G04 #@! TD*
G04 #@! TO.P,MH361,1*
G04 #@! TO.N,C*
X238500000Y-72000000D03*
G04 #@! TD*
G04 #@! TO.P,MH362,1*
G04 #@! TO.N,D*
X231500000Y-72000000D03*
G04 #@! TD*
G04 #@! TO.P,MH363,1*
G04 #@! TO.N,E*
X224500000Y-72000000D03*
G04 #@! TD*
G04 #@! TO.P,MH364,1*
G04 #@! TO.N,F*
X217500000Y-78000000D03*
G04 #@! TD*
G04 #@! TO.P,MH365,1*
G04 #@! TO.N,H*
X210500000Y-78000000D03*
G04 #@! TD*
G04 #@! TO.P,MH366,1*
G04 #@! TO.N,J*
X203500000Y-102000000D03*
G04 #@! TD*
G04 #@! TO.P,MH367,1*
G04 #@! TO.N,K*
X196500000Y-72000000D03*
G04 #@! TD*
G04 #@! TO.P,MH368,1*
G04 #@! TO.N,L*
X189500000Y-102000000D03*
G04 #@! TD*
G04 #@! TO.P,MH369,1*
G04 #@! TO.N,M*
X182500000Y-108000000D03*
G04 #@! TD*
G04 #@! TO.P,MH370,1*
G04 #@! TO.N,N*
X175500000Y-108000000D03*
G04 #@! TD*
G04 #@! TO.P,MH371,1*
G04 #@! TO.N,Net-(MH10-Pad1)*
X193000000Y-51000000D03*
G04 #@! TD*
G04 #@! TO.P,MH372,1*
G04 #@! TO.N,Net-(MH10-Pad1)*
X200000000Y-51000000D03*
G04 #@! TD*
G04 #@! TO.P,MH373,1*
G04 #@! TO.N,Net-(MH10-Pad1)*
X221000000Y-51000000D03*
G04 #@! TD*
G04 #@! TO.P,MH374,1*
G04 #@! TO.N,Net-(MH10-Pad1)*
X207000000Y-51000000D03*
G04 #@! TD*
G04 #@! TO.P,MH375,1*
G04 #@! TO.N,Net-(MH10-Pad1)*
X235000000Y-51000000D03*
G04 #@! TD*
G04 #@! TO.P,MH376,1*
G04 #@! TO.N,Net-(MH10-Pad1)*
X242000000Y-51000000D03*
G04 #@! TD*
G04 #@! TO.P,MH377,1*
G04 #@! TO.N,Net-(MH10-Pad1)*
X179000000Y-51000000D03*
G04 #@! TD*
G04 #@! TO.P,MH378,1*
G04 #@! TO.N,Net-(MH10-Pad1)*
X186000000Y-51000000D03*
G04 #@! TD*
G04 #@! TO.P,MH379,1*
G04 #@! TO.N,Net-(MH10-Pad1)*
X214000000Y-51000000D03*
G04 #@! TD*
G04 #@! TO.P,MH380,1*
G04 #@! TO.N,Net-(MH10-Pad1)*
X228000000Y-51000000D03*
G04 #@! TD*
G04 #@! TO.P,MH381,1*
G04 #@! TO.N,C*
X238500000Y-102000000D03*
G04 #@! TD*
G04 #@! TO.P,MH382,1*
G04 #@! TO.N,D*
X231500000Y-96000000D03*
G04 #@! TD*
G04 #@! TO.P,MH383,1*
G04 #@! TO.N,E*
X224500000Y-108000000D03*
G04 #@! TD*
G04 #@! TO.P,MH384,1*
G04 #@! TO.N,F*
X217500000Y-102000000D03*
G04 #@! TD*
G04 #@! TO.P,MH385,1*
G04 #@! TO.N,H*
X210500000Y-72000000D03*
G04 #@! TD*
G04 #@! TO.P,MH386,1*
G04 #@! TO.N,J*
X203500000Y-84000000D03*
G04 #@! TD*
G04 #@! TO.P,MH387,1*
G04 #@! TO.N,K*
X196500000Y-96000000D03*
G04 #@! TD*
G04 #@! TO.P,MH388,1*
G04 #@! TO.N,L*
X189500000Y-60000000D03*
G04 #@! TD*
G04 #@! TO.P,MH389,1*
G04 #@! TO.N,M*
X182500000Y-66000000D03*
G04 #@! TD*
G04 #@! TO.P,MH390,1*
G04 #@! TO.N,N*
X175500000Y-96000000D03*
G04 #@! TD*
G04 #@! TO.P,MH391,1*
G04 #@! TO.N,Net-(MH12-Pad1)*
X207000000Y-57000000D03*
G04 #@! TD*
G04 #@! TO.P,MH392,1*
G04 #@! TO.N,Net-(MH12-Pad1)*
X186000000Y-57000000D03*
G04 #@! TD*
G04 #@! TO.P,MH393,1*
G04 #@! TO.N,Net-(MH12-Pad1)*
X242000000Y-57000000D03*
G04 #@! TD*
G04 #@! TO.P,MH394,1*
G04 #@! TO.N,Net-(MH12-Pad1)*
X228000000Y-57000000D03*
G04 #@! TD*
G04 #@! TO.P,MH395,1*
G04 #@! TO.N,Net-(MH12-Pad1)*
X221000000Y-57000000D03*
G04 #@! TD*
G04 #@! TO.P,MH396,1*
G04 #@! TO.N,Net-(MH12-Pad1)*
X214000000Y-57000000D03*
G04 #@! TD*
G04 #@! TO.P,MH397,1*
G04 #@! TO.N,Net-(MH12-Pad1)*
X200000000Y-57000000D03*
G04 #@! TD*
G04 #@! TO.P,MH398,1*
G04 #@! TO.N,Net-(MH12-Pad1)*
X193000000Y-57000000D03*
G04 #@! TD*
G04 #@! TO.P,MH399,1*
G04 #@! TO.N,Net-(MH12-Pad1)*
X235000000Y-57000000D03*
G04 #@! TD*
G04 #@! TO.P,MH400,1*
G04 #@! TO.N,Net-(MH12-Pad1)*
X179000000Y-57000000D03*
G04 #@! TD*
G04 #@! TO.P,MH401,1*
G04 #@! TO.N,C*
X238500000Y-78000000D03*
G04 #@! TD*
G04 #@! TO.P,MH402,1*
G04 #@! TO.N,D*
X231500000Y-66000000D03*
G04 #@! TD*
G04 #@! TO.P,MH403,1*
G04 #@! TO.N,E*
X224500000Y-90000000D03*
G04 #@! TD*
G04 #@! TO.P,MH404,1*
G04 #@! TO.N,F*
X217500000Y-96000000D03*
G04 #@! TD*
G04 #@! TO.P,MH405,1*
G04 #@! TO.N,H*
X210500000Y-108000000D03*
G04 #@! TD*
G04 #@! TO.P,MH406,1*
G04 #@! TO.N,J*
X203500000Y-60000000D03*
G04 #@! TD*
G04 #@! TO.P,MH407,1*
G04 #@! TO.N,K*
X196500000Y-60000000D03*
G04 #@! TD*
G04 #@! TO.P,MH408,1*
G04 #@! TO.N,L*
X189500000Y-108000000D03*
G04 #@! TD*
G04 #@! TO.P,MH409,1*
G04 #@! TO.N,M*
X182500000Y-102000000D03*
G04 #@! TD*
G04 #@! TO.P,MH410,1*
G04 #@! TO.N,N*
X175500000Y-102000000D03*
G04 #@! TD*
G04 #@! TO.P,MH411,1*
G04 #@! TO.N,Net-(MH411-Pad1)*
X207000000Y-63000000D03*
G04 #@! TD*
G04 #@! TO.P,MH412,1*
G04 #@! TO.N,Net-(MH411-Pad1)*
X235000000Y-63000000D03*
G04 #@! TD*
G04 #@! TO.P,MH413,1*
G04 #@! TO.N,Net-(MH411-Pad1)*
X214000000Y-63000000D03*
G04 #@! TD*
G04 #@! TO.P,MH414,1*
G04 #@! TO.N,Net-(MH411-Pad1)*
X221000000Y-63000000D03*
G04 #@! TD*
G04 #@! TO.P,MH415,1*
G04 #@! TO.N,Net-(MH411-Pad1)*
X228000000Y-63000000D03*
G04 #@! TD*
G04 #@! TO.P,MH416,1*
G04 #@! TO.N,Net-(MH411-Pad1)*
X193000000Y-63000000D03*
G04 #@! TD*
G04 #@! TO.P,MH417,1*
G04 #@! TO.N,Net-(MH411-Pad1)*
X179000000Y-63000000D03*
G04 #@! TD*
G04 #@! TO.P,MH418,1*
G04 #@! TO.N,Net-(MH411-Pad1)*
X242000000Y-63000000D03*
G04 #@! TD*
G04 #@! TO.P,MH419,1*
G04 #@! TO.N,Net-(MH411-Pad1)*
X200000000Y-63000000D03*
G04 #@! TD*
G04 #@! TO.P,MH420,1*
G04 #@! TO.N,Net-(MH411-Pad1)*
X186000000Y-63000000D03*
G04 #@! TD*
G04 #@! TO.P,MH421,1*
G04 #@! TO.N,C*
X238500000Y-96000000D03*
G04 #@! TD*
G04 #@! TO.P,MH422,1*
G04 #@! TO.N,D*
X231500000Y-102000000D03*
G04 #@! TD*
G04 #@! TO.P,MH423,1*
G04 #@! TO.N,E*
X224500000Y-102000000D03*
G04 #@! TD*
G04 #@! TO.P,MH424,1*
G04 #@! TO.N,F*
X217500000Y-84000000D03*
G04 #@! TD*
G04 #@! TO.P,MH425,1*
G04 #@! TO.N,H*
X210500000Y-54000000D03*
G04 #@! TD*
G04 #@! TO.P,MH426,1*
G04 #@! TO.N,J*
X203500000Y-108000000D03*
G04 #@! TD*
G04 #@! TO.P,MH427,1*
G04 #@! TO.N,K*
X196500000Y-108000000D03*
G04 #@! TD*
G04 #@! TO.P,MH428,1*
G04 #@! TO.N,L*
X189500000Y-78000000D03*
G04 #@! TD*
G04 #@! TO.P,MH429,1*
G04 #@! TO.N,M*
X182500000Y-84000000D03*
G04 #@! TD*
G04 #@! TO.P,MH430,1*
G04 #@! TO.N,N*
X175500000Y-90000000D03*
G04 #@! TD*
G04 #@! TO.P,MH431,1*
G04 #@! TO.N,Net-(MH100-Pad1)*
X228000000Y-69000000D03*
G04 #@! TD*
G04 #@! TO.P,MH432,1*
G04 #@! TO.N,Net-(MH100-Pad1)*
X200000000Y-69000000D03*
G04 #@! TD*
G04 #@! TO.P,MH433,1*
G04 #@! TO.N,Net-(MH100-Pad1)*
X186000000Y-69000000D03*
G04 #@! TD*
G04 #@! TO.P,MH434,1*
G04 #@! TO.N,Net-(MH100-Pad1)*
X207000000Y-69000000D03*
G04 #@! TD*
G04 #@! TO.P,MH435,1*
G04 #@! TO.N,Net-(MH100-Pad1)*
X214000000Y-69000000D03*
G04 #@! TD*
G04 #@! TO.P,MH436,1*
G04 #@! TO.N,Net-(MH100-Pad1)*
X242000000Y-69000000D03*
G04 #@! TD*
G04 #@! TO.P,MH437,1*
G04 #@! TO.N,Net-(MH100-Pad1)*
X221000000Y-69000000D03*
G04 #@! TD*
G04 #@! TO.P,MH438,1*
G04 #@! TO.N,Net-(MH100-Pad1)*
X179000000Y-69000000D03*
G04 #@! TD*
G04 #@! TO.P,MH439,1*
G04 #@! TO.N,Net-(MH100-Pad1)*
X193000000Y-69000000D03*
G04 #@! TD*
G04 #@! TO.P,MH440,1*
G04 #@! TO.N,Net-(MH100-Pad1)*
X235000000Y-69000000D03*
G04 #@! TD*
G04 #@! TO.P,MH441,1*
G04 #@! TO.N,C*
X238500000Y-108000000D03*
G04 #@! TD*
G04 #@! TO.P,MH442,1*
G04 #@! TO.N,D*
X231500000Y-60000000D03*
G04 #@! TD*
G04 #@! TO.P,MH443,1*
G04 #@! TO.N,E*
X224500000Y-96000000D03*
G04 #@! TD*
G04 #@! TO.P,MH444,1*
G04 #@! TO.N,F*
X217500000Y-108000000D03*
G04 #@! TD*
G04 #@! TO.P,MH445,1*
G04 #@! TO.N,H*
X210500000Y-90000000D03*
G04 #@! TD*
G04 #@! TO.P,MH446,1*
G04 #@! TO.N,J*
X203500000Y-90000000D03*
G04 #@! TD*
G04 #@! TO.P,MH447,1*
G04 #@! TO.N,K*
X196500000Y-54000000D03*
G04 #@! TD*
G04 #@! TO.P,MH448,1*
G04 #@! TO.N,L*
X189500000Y-72000000D03*
G04 #@! TD*
G04 #@! TO.P,MH449,1*
G04 #@! TO.N,M*
X182500000Y-54000000D03*
G04 #@! TD*
G04 #@! TO.P,MH450,1*
G04 #@! TO.N,N*
X175500000Y-72000000D03*
G04 #@! TD*
G04 #@! TO.P,MH451,1*
G04 #@! TO.N,Net-(MH110-Pad1)*
X214000000Y-75000000D03*
G04 #@! TD*
G04 #@! TO.P,MH452,1*
G04 #@! TO.N,Net-(MH110-Pad1)*
X193000000Y-75000000D03*
G04 #@! TD*
G04 #@! TO.P,MH453,1*
G04 #@! TO.N,Net-(MH110-Pad1)*
X200000000Y-75000000D03*
G04 #@! TD*
G04 #@! TO.P,MH454,1*
G04 #@! TO.N,Net-(MH110-Pad1)*
X179000000Y-75000000D03*
G04 #@! TD*
G04 #@! TO.P,MH455,1*
G04 #@! TO.N,Net-(MH110-Pad1)*
X221000000Y-75000000D03*
G04 #@! TD*
G04 #@! TO.P,MH456,1*
G04 #@! TO.N,Net-(MH110-Pad1)*
X228000000Y-75000000D03*
G04 #@! TD*
G04 #@! TO.P,MH457,1*
G04 #@! TO.N,Net-(MH110-Pad1)*
X242000000Y-75000000D03*
G04 #@! TD*
G04 #@! TO.P,MH458,1*
G04 #@! TO.N,Net-(MH110-Pad1)*
X235000000Y-75000000D03*
G04 #@! TD*
G04 #@! TO.P,MH459,1*
G04 #@! TO.N,Net-(MH110-Pad1)*
X207000000Y-75000000D03*
G04 #@! TD*
G04 #@! TO.P,MH460,1*
G04 #@! TO.N,Net-(MH110-Pad1)*
X186000000Y-75000000D03*
G04 #@! TD*
G04 #@! TO.P,MH461,1*
G04 #@! TO.N,C*
X238500000Y-66000000D03*
G04 #@! TD*
G04 #@! TO.P,MH462,1*
G04 #@! TO.N,D*
X231500000Y-84000000D03*
G04 #@! TD*
G04 #@! TO.P,MH463,1*
G04 #@! TO.N,E*
X224500000Y-84000000D03*
G04 #@! TD*
G04 #@! TO.P,MH464,1*
G04 #@! TO.N,F*
X217500000Y-72000000D03*
G04 #@! TD*
G04 #@! TO.P,MH465,1*
G04 #@! TO.N,H*
X210500000Y-102000000D03*
G04 #@! TD*
G04 #@! TO.P,MH466,1*
G04 #@! TO.N,J*
X203500000Y-66000000D03*
G04 #@! TD*
G04 #@! TO.P,MH467,1*
G04 #@! TO.N,K*
X196500000Y-102000000D03*
G04 #@! TD*
G04 #@! TO.P,MH468,1*
G04 #@! TO.N,L*
X189500000Y-96000000D03*
G04 #@! TD*
G04 #@! TO.P,MH469,1*
G04 #@! TO.N,M*
X182500000Y-90000000D03*
G04 #@! TD*
G04 #@! TO.P,MH470,1*
G04 #@! TO.N,N*
X175500000Y-84000000D03*
G04 #@! TD*
G04 #@! TO.P,MH471,1*
G04 #@! TO.N,Net-(MH128-Pad1)*
X186000000Y-81000000D03*
G04 #@! TD*
G04 #@! TO.P,MH472,1*
G04 #@! TO.N,Net-(MH128-Pad1)*
X200000000Y-81000000D03*
G04 #@! TD*
G04 #@! TO.P,MH473,1*
G04 #@! TO.N,Net-(MH128-Pad1)*
X207000000Y-81000000D03*
G04 #@! TD*
G04 #@! TO.P,MH474,1*
G04 #@! TO.N,Net-(MH128-Pad1)*
X214000000Y-81000000D03*
G04 #@! TD*
G04 #@! TO.P,MH475,1*
G04 #@! TO.N,Net-(MH128-Pad1)*
X221000000Y-81000000D03*
G04 #@! TD*
G04 #@! TO.P,MH476,1*
G04 #@! TO.N,Net-(MH128-Pad1)*
X179000000Y-81000000D03*
G04 #@! TD*
G04 #@! TO.P,MH477,1*
G04 #@! TO.N,Net-(MH128-Pad1)*
X193000000Y-81000000D03*
G04 #@! TD*
G04 #@! TO.P,MH478,1*
G04 #@! TO.N,Net-(MH128-Pad1)*
X235000000Y-81000000D03*
G04 #@! TD*
G04 #@! TO.P,MH479,1*
G04 #@! TO.N,Net-(MH128-Pad1)*
X242000000Y-81000000D03*
G04 #@! TD*
G04 #@! TO.P,MH480,1*
G04 #@! TO.N,Net-(MH128-Pad1)*
X228000000Y-81000000D03*
G04 #@! TD*
G04 #@! TO.P,MH481,1*
G04 #@! TO.N,C*
X238500000Y-90000000D03*
G04 #@! TD*
G04 #@! TO.P,MH482,1*
G04 #@! TO.N,D*
X231500000Y-90000000D03*
G04 #@! TD*
G04 #@! TO.P,MH483,1*
G04 #@! TO.N,E*
X224500000Y-60000000D03*
G04 #@! TD*
G04 #@! TO.P,MH484,1*
G04 #@! TO.N,F*
X217500000Y-54000000D03*
G04 #@! TD*
G04 #@! TO.P,MH485,1*
G04 #@! TO.N,H*
X210500000Y-60000000D03*
G04 #@! TD*
G04 #@! TO.P,MH486,1*
G04 #@! TO.N,J*
X203500000Y-78000000D03*
G04 #@! TD*
G04 #@! TO.P,MH487,1*
G04 #@! TO.N,K*
X196500000Y-78000000D03*
G04 #@! TD*
G04 #@! TO.P,MH488,1*
G04 #@! TO.N,L*
X189500000Y-66000000D03*
G04 #@! TD*
G04 #@! TO.P,MH489,1*
G04 #@! TO.N,M*
X182500000Y-96000000D03*
G04 #@! TD*
G04 #@! TO.P,MH490,1*
G04 #@! TO.N,N*
X175500000Y-78000000D03*
G04 #@! TD*
G04 #@! TO.P,MH491,1*
G04 #@! TO.N,Net-(MH146-Pad1)*
X179000000Y-87000000D03*
G04 #@! TD*
G04 #@! TO.P,MH492,1*
G04 #@! TO.N,Net-(MH146-Pad1)*
X235000000Y-87000000D03*
G04 #@! TD*
G04 #@! TO.P,MH493,1*
G04 #@! TO.N,Net-(MH146-Pad1)*
X228000000Y-87000000D03*
G04 #@! TD*
G04 #@! TO.P,MH494,1*
G04 #@! TO.N,Net-(MH146-Pad1)*
X242000000Y-87000000D03*
G04 #@! TD*
G04 #@! TO.P,MH495,1*
G04 #@! TO.N,Net-(MH146-Pad1)*
X214000000Y-87000000D03*
G04 #@! TD*
G04 #@! TO.P,MH496,1*
G04 #@! TO.N,Net-(MH146-Pad1)*
X221000000Y-87000000D03*
G04 #@! TD*
G04 #@! TO.P,MH497,1*
G04 #@! TO.N,Net-(MH146-Pad1)*
X207000000Y-87000000D03*
G04 #@! TD*
G04 #@! TO.P,MH498,1*
G04 #@! TO.N,Net-(MH146-Pad1)*
X186000000Y-87000000D03*
G04 #@! TD*
G04 #@! TO.P,MH499,1*
G04 #@! TO.N,Net-(MH146-Pad1)*
X193000000Y-87000000D03*
G04 #@! TD*
G04 #@! TO.P,MH500,1*
G04 #@! TO.N,Net-(MH146-Pad1)*
X200000000Y-87000000D03*
G04 #@! TD*
G04 #@! TO.P,MH501,1*
G04 #@! TO.N,C*
X238500000Y-60000000D03*
G04 #@! TD*
G04 #@! TO.P,MH502,1*
G04 #@! TO.N,D*
X231500000Y-78000000D03*
G04 #@! TD*
G04 #@! TO.P,MH503,1*
G04 #@! TO.N,E*
X224500000Y-78000000D03*
G04 #@! TD*
G04 #@! TO.P,MH504,1*
G04 #@! TO.N,F*
X217500000Y-90000000D03*
G04 #@! TD*
G04 #@! TO.P,MH505,1*
G04 #@! TO.N,H*
X210500000Y-96000000D03*
G04 #@! TD*
G04 #@! TO.P,MH506,1*
G04 #@! TO.N,J*
X203500000Y-72000000D03*
G04 #@! TD*
G04 #@! TO.P,MH507,1*
G04 #@! TO.N,K*
X196500000Y-84000000D03*
G04 #@! TD*
G04 #@! TO.P,MH508,1*
G04 #@! TO.N,L*
X189500000Y-90000000D03*
G04 #@! TD*
G04 #@! TO.P,MH509,1*
G04 #@! TO.N,M*
X182500000Y-78000000D03*
G04 #@! TD*
G04 #@! TO.P,MH510,1*
G04 #@! TO.N,N*
X175500000Y-60000000D03*
G04 #@! TD*
G04 #@! TO.P,MH511,1*
G04 #@! TO.N,Net-(MH164-Pad1)*
X186000000Y-93000000D03*
G04 #@! TD*
G04 #@! TO.P,MH512,1*
G04 #@! TO.N,Net-(MH164-Pad1)*
X193000000Y-93000000D03*
G04 #@! TD*
G04 #@! TO.P,MH513,1*
G04 #@! TO.N,Net-(MH164-Pad1)*
X200000000Y-93000000D03*
G04 #@! TD*
G04 #@! TO.P,MH514,1*
G04 #@! TO.N,Net-(MH164-Pad1)*
X207000000Y-93000000D03*
G04 #@! TD*
G04 #@! TO.P,MH515,1*
G04 #@! TO.N,Net-(MH164-Pad1)*
X214000000Y-93000000D03*
G04 #@! TD*
G04 #@! TO.P,MH516,1*
G04 #@! TO.N,Net-(MH164-Pad1)*
X221000000Y-93000000D03*
G04 #@! TD*
G04 #@! TO.P,MH517,1*
G04 #@! TO.N,Net-(MH164-Pad1)*
X242000000Y-93000000D03*
G04 #@! TD*
G04 #@! TO.P,MH518,1*
G04 #@! TO.N,Net-(MH164-Pad1)*
X235000000Y-93000000D03*
G04 #@! TD*
G04 #@! TO.P,MH519,1*
G04 #@! TO.N,Net-(MH164-Pad1)*
X228000000Y-93000000D03*
G04 #@! TD*
G04 #@! TO.P,MH520,1*
G04 #@! TO.N,Net-(MH164-Pad1)*
X179000000Y-93000000D03*
G04 #@! TD*
G04 #@! TO.P,MH521,1*
G04 #@! TO.N,C*
X238500000Y-54000000D03*
G04 #@! TD*
G04 #@! TO.P,MH522,1*
G04 #@! TO.N,D*
X231500000Y-54000000D03*
G04 #@! TD*
G04 #@! TO.P,MH523,1*
G04 #@! TO.N,E*
X224500000Y-66000000D03*
G04 #@! TD*
G04 #@! TO.P,MH524,1*
G04 #@! TO.N,F*
X217500000Y-66000000D03*
G04 #@! TD*
G04 #@! TO.P,MH525,1*
G04 #@! TO.N,H*
X210500000Y-84000000D03*
G04 #@! TD*
G04 #@! TO.P,MH526,1*
G04 #@! TO.N,J*
X203500000Y-96000000D03*
G04 #@! TD*
G04 #@! TO.P,MH527,1*
G04 #@! TO.N,K*
X196500000Y-90000000D03*
G04 #@! TD*
G04 #@! TO.P,MH528,1*
G04 #@! TO.N,L*
X189500000Y-84000000D03*
G04 #@! TD*
G04 #@! TO.P,MH529,1*
G04 #@! TO.N,M*
X182500000Y-72000000D03*
G04 #@! TD*
G04 #@! TO.P,MH530,1*
G04 #@! TO.N,N*
X175500000Y-54000000D03*
G04 #@! TD*
G04 #@! TO.P,MH531,1*
G04 #@! TO.N,Net-(MH182-Pad1)*
X235000000Y-99000000D03*
G04 #@! TD*
G04 #@! TO.P,MH532,1*
G04 #@! TO.N,Net-(MH182-Pad1)*
X179000000Y-99000000D03*
G04 #@! TD*
G04 #@! TO.P,MH533,1*
G04 #@! TO.N,Net-(MH182-Pad1)*
X228000000Y-99000000D03*
G04 #@! TD*
G04 #@! TO.P,MH534,1*
G04 #@! TO.N,Net-(MH182-Pad1)*
X214000000Y-99000000D03*
G04 #@! TD*
G04 #@! TO.P,MH535,1*
G04 #@! TO.N,Net-(MH182-Pad1)*
X186000000Y-99000000D03*
G04 #@! TD*
G04 #@! TO.P,MH536,1*
G04 #@! TO.N,Net-(MH182-Pad1)*
X221000000Y-99000000D03*
G04 #@! TD*
G04 #@! TO.P,MH537,1*
G04 #@! TO.N,Net-(MH182-Pad1)*
X207000000Y-99000000D03*
G04 #@! TD*
G04 #@! TO.P,MH538,1*
G04 #@! TO.N,Net-(MH182-Pad1)*
X242000000Y-99000000D03*
G04 #@! TD*
G04 #@! TO.P,MH539,1*
G04 #@! TO.N,Net-(MH182-Pad1)*
X193000000Y-99000000D03*
G04 #@! TD*
G04 #@! TO.P,MH540,1*
G04 #@! TO.N,Net-(MH182-Pad1)*
X200000000Y-99000000D03*
G04 #@! TD*
G04 #@! TO.P,MH541,1*
G04 #@! TO.N,C*
X238500000Y-84000000D03*
G04 #@! TD*
G04 #@! TO.P,MH542,1*
G04 #@! TO.N,D*
X231500000Y-108000000D03*
G04 #@! TD*
G04 #@! TO.P,MH543,1*
G04 #@! TO.N,E*
X224500000Y-54000000D03*
G04 #@! TD*
G04 #@! TO.P,MH544,1*
G04 #@! TO.N,F*
X217500000Y-60000000D03*
G04 #@! TD*
G04 #@! TO.P,MH545,1*
G04 #@! TO.N,H*
X210500000Y-66000000D03*
G04 #@! TD*
G04 #@! TO.P,MH546,1*
G04 #@! TO.N,J*
X203500000Y-54000000D03*
G04 #@! TD*
G04 #@! TO.P,MH547,1*
G04 #@! TO.N,K*
X196500000Y-66000000D03*
G04 #@! TD*
G04 #@! TO.P,MH548,1*
G04 #@! TO.N,L*
X189500000Y-54000000D03*
G04 #@! TD*
G04 #@! TO.P,MH549,1*
G04 #@! TO.N,M*
X182500000Y-60000000D03*
G04 #@! TD*
G04 #@! TO.P,MH550,1*
G04 #@! TO.N,N*
X175500000Y-66000000D03*
G04 #@! TD*
G04 #@! TO.P,MH551,1*
G04 #@! TO.N,Net-(MH200-Pad1)*
X214000000Y-105000000D03*
G04 #@! TD*
G04 #@! TO.P,MH552,1*
G04 #@! TO.N,Net-(MH200-Pad1)*
X228000000Y-105000000D03*
G04 #@! TD*
G04 #@! TO.P,MH553,1*
G04 #@! TO.N,Net-(MH200-Pad1)*
X179000000Y-105000000D03*
G04 #@! TD*
G04 #@! TO.P,MH554,1*
G04 #@! TO.N,Net-(MH200-Pad1)*
X186000000Y-105000000D03*
G04 #@! TD*
G04 #@! TO.P,MH555,1*
G04 #@! TO.N,Net-(MH200-Pad1)*
X235000000Y-105000000D03*
G04 #@! TD*
G04 #@! TO.P,MH556,1*
G04 #@! TO.N,Net-(MH200-Pad1)*
X200000000Y-105000000D03*
G04 #@! TD*
G04 #@! TO.P,MH557,1*
G04 #@! TO.N,Net-(MH200-Pad1)*
X221000000Y-105000000D03*
G04 #@! TD*
G04 #@! TO.P,MH558,1*
G04 #@! TO.N,Net-(MH200-Pad1)*
X193000000Y-105000000D03*
G04 #@! TD*
G04 #@! TO.P,MH559,1*
G04 #@! TO.N,Net-(MH200-Pad1)*
X207000000Y-105000000D03*
G04 #@! TD*
G04 #@! TO.P,MH560,1*
G04 #@! TO.N,Net-(MH200-Pad1)*
X242000000Y-105000000D03*
G04 #@! TD*
D17*
G04 #@! TO.P,TPLB1,1*
G04 #@! TO.N,Net-(TPLB1-Pad1)*
X99310000Y-156500000D03*
X95500000Y-156500000D03*
G04 #@! TD*
G04 #@! TO.P,TPLB2,1*
G04 #@! TO.N,Net-(TPLB2-Pad1)*
X95500000Y-152250000D03*
X99310000Y-152250000D03*
G04 #@! TD*
G04 #@! TO.P,TPLB3,1*
G04 #@! TO.N,Net-(TPLB3-Pad1)*
X99310000Y-148000000D03*
X95500000Y-148000000D03*
G04 #@! TD*
G04 #@! TO.P,TPLB4,1*
G04 #@! TO.N,Net-(TPLB4-Pad1)*
X99310000Y-141750000D03*
X95500000Y-141750000D03*
G04 #@! TD*
G04 #@! TO.P,TPLB5,1*
G04 #@! TO.N,Net-(TPLB5-Pad1)*
X95500000Y-137500000D03*
X99310000Y-137500000D03*
G04 #@! TD*
G04 #@! TO.P,TPLB6,1*
G04 #@! TO.N,Net-(TPLB6-Pad1)*
X99310000Y-133250000D03*
X95500000Y-133250000D03*
G04 #@! TD*
D10*
G04 #@! TO.P,TPLB11,1*
G04 #@! TO.N,Net-(TPLB11-Pad1)*
X90680000Y-115750000D03*
G04 #@! TD*
G04 #@! TO.P,TPLB12,1*
G04 #@! TO.N,Net-(TPLB12-Pad1)*
X85580000Y-115750000D03*
G04 #@! TD*
G04 #@! TO.P,TPLB13,1*
G04 #@! TO.N,Net-(TPLB13-Pad1)*
X80480000Y-115750000D03*
G04 #@! TD*
G04 #@! TO.P,TPLBD13,1*
G04 #@! TO.N,Net-(TPLBD13-Pad1)*
X141440000Y-115750000D03*
G04 #@! TD*
D17*
G04 #@! TO.P,TPLC1,1*
G04 #@! TO.N,Net-(TPLC1-Pad1)*
X126000000Y-156500000D03*
X129810000Y-156500000D03*
G04 #@! TD*
G04 #@! TO.P,TPLC2,1*
G04 #@! TO.N,Net-(TPLC2-Pad1)*
X129810000Y-152250000D03*
X126000000Y-152250000D03*
G04 #@! TD*
G04 #@! TO.P,TPLC3,1*
G04 #@! TO.N,Net-(TPLC3-Pad1)*
X126000000Y-148000000D03*
X129810000Y-148000000D03*
G04 #@! TD*
G04 #@! TO.P,TPLC4,1*
G04 #@! TO.N,Net-(TPLC4-Pad1)*
X129810000Y-141750000D03*
X126000000Y-141750000D03*
G04 #@! TD*
G04 #@! TO.P,TPLC5,1*
G04 #@! TO.N,Net-(TPLC5-Pad1)*
X126000000Y-137500000D03*
X129810000Y-137500000D03*
G04 #@! TD*
G04 #@! TO.P,TPLC6,1*
G04 #@! TO.N,Net-(TPLC6-Pad1)*
X126000000Y-133250000D03*
X129810000Y-133250000D03*
G04 #@! TD*
D10*
G04 #@! TO.P,TPLC11,1*
G04 #@! TO.N,Net-(TPLC11-Pad1)*
X121160000Y-115750000D03*
G04 #@! TD*
G04 #@! TO.P,TPLC12,1*
G04 #@! TO.N,Net-(TPLC12-Pad1)*
X116060000Y-115750000D03*
G04 #@! TD*
G04 #@! TO.P,TPLC13,1*
G04 #@! TO.N,Net-(TPLC13-Pad1)*
X110960000Y-115750000D03*
G04 #@! TD*
D17*
G04 #@! TO.P,TPLD1,1*
G04 #@! TO.N,Net-(TPLD1-Pad1)*
X156500000Y-156500000D03*
X160310000Y-156500000D03*
G04 #@! TD*
G04 #@! TO.P,TPLD2,1*
G04 #@! TO.N,Net-(TPLD2-Pad1)*
X156500000Y-152250000D03*
X160310000Y-152250000D03*
G04 #@! TD*
G04 #@! TO.P,TPLD3,1*
G04 #@! TO.N,Net-(TPLD3-Pad1)*
X160310000Y-148000000D03*
X156500000Y-148000000D03*
G04 #@! TD*
G04 #@! TO.P,TPLD4,1*
G04 #@! TO.N,Net-(TPLD4-Pad1)*
X160310000Y-141750000D03*
X156500000Y-141750000D03*
G04 #@! TD*
G04 #@! TO.P,TPLD5,1*
G04 #@! TO.N,Net-(TPLD5-Pad1)*
X156500000Y-137500000D03*
X160310000Y-137500000D03*
G04 #@! TD*
G04 #@! TO.P,TPLD6,1*
G04 #@! TO.N,Net-(TPLD6-Pad1)*
X160310000Y-133250000D03*
X156500000Y-133250000D03*
G04 #@! TD*
D10*
G04 #@! TO.P,TPLD11,1*
G04 #@! TO.N,Net-(TPLD11-Pad1)*
X151640000Y-115750000D03*
G04 #@! TD*
G04 #@! TO.P,TPLD12,1*
G04 #@! TO.N,Net-(TPLD12-Pad1)*
X146540000Y-115750000D03*
G04 #@! TD*
D17*
G04 #@! TO.P,TPLE1,1*
G04 #@! TO.N,Net-(TPLE1-Pad1)*
X187000000Y-156500000D03*
X190810000Y-156500000D03*
G04 #@! TD*
G04 #@! TO.P,TPLE2,1*
G04 #@! TO.N,Net-(TPLE2-Pad1)*
X190810000Y-152250000D03*
X187000000Y-152250000D03*
G04 #@! TD*
G04 #@! TO.P,TPLE3,1*
G04 #@! TO.N,Net-(TPLE3-Pad1)*
X187000000Y-148000000D03*
X190810000Y-148000000D03*
G04 #@! TD*
G04 #@! TO.P,TPLE4,1*
G04 #@! TO.N,Net-(TPLE4-Pad1)*
X190810000Y-141750000D03*
X187000000Y-141750000D03*
G04 #@! TD*
G04 #@! TO.P,TPLE5,1*
G04 #@! TO.N,Net-(TPLE5-Pad1)*
X187000000Y-137500000D03*
X190810000Y-137500000D03*
G04 #@! TD*
G04 #@! TO.P,TPLE6,1*
G04 #@! TO.N,Net-(TPLE6-Pad1)*
X190810000Y-133250000D03*
X187000000Y-133250000D03*
G04 #@! TD*
D10*
G04 #@! TO.P,TPLE11,1*
G04 #@! TO.N,Net-(TPLE11-Pad1)*
X182120000Y-115750000D03*
G04 #@! TD*
G04 #@! TO.P,TPLE12,1*
G04 #@! TO.N,Net-(TPLE12-Pad1)*
X177020000Y-115750000D03*
G04 #@! TD*
G04 #@! TO.P,TPLE13,1*
G04 #@! TO.N,Net-(TPLE13-Pad1)*
X171920000Y-115750000D03*
G04 #@! TD*
D17*
G04 #@! TO.P,TPLF1,1*
G04 #@! TO.N,Net-(TPLF1-Pad1)*
X217500000Y-156500000D03*
X221310000Y-156500000D03*
G04 #@! TD*
G04 #@! TO.P,TPLF2,1*
G04 #@! TO.N,Net-(TPLF2-Pad1)*
X221310000Y-152250000D03*
X217500000Y-152250000D03*
G04 #@! TD*
G04 #@! TO.P,TPLF3,1*
G04 #@! TO.N,Net-(TPLF3-Pad1)*
X217500000Y-148000000D03*
X221310000Y-148000000D03*
G04 #@! TD*
G04 #@! TO.P,TPLF4,1*
G04 #@! TO.N,Net-(TPLF4-Pad1)*
X217500000Y-141750000D03*
X221310000Y-141750000D03*
G04 #@! TD*
G04 #@! TO.P,TPLF5,1*
G04 #@! TO.N,Net-(TPLF5-Pad1)*
X221310000Y-137500000D03*
X217500000Y-137500000D03*
G04 #@! TD*
G04 #@! TO.P,TPLF6,1*
G04 #@! TO.N,Net-(TPLF6-Pad1)*
X221310000Y-133250000D03*
X217500000Y-133250000D03*
G04 #@! TD*
D10*
G04 #@! TO.P,TPLF11,1*
G04 #@! TO.N,Net-(TPLF11-Pad1)*
X212600000Y-115750000D03*
G04 #@! TD*
G04 #@! TO.P,TPLF12,1*
G04 #@! TO.N,Net-(TPLF12-Pad1)*
X207500000Y-115750000D03*
G04 #@! TD*
G04 #@! TO.P,TPLF13,1*
G04 #@! TO.N,Net-(TPLF13-Pad1)*
X202400000Y-115750000D03*
G04 #@! TD*
D16*
G04 #@! TO.P,TPI12,1*
G04 #@! TO.N,12*
X33000000Y-60000000D03*
G04 #@! TD*
G04 #@! TO.P,TPI13,1*
G04 #@! TO.N,13*
X33000000Y-66000000D03*
G04 #@! TD*
G04 #@! TO.P,TPI29,1*
G04 #@! TO.N,29*
X33000000Y-54000000D03*
G04 #@! TD*
D19*
G04 #@! TO.N,Neg6v*
X42145000Y-33401000D02*
X42145000Y-30861000D01*
X36046000Y-39500000D02*
X32250000Y-39500000D01*
X42145000Y-33401000D02*
X36046000Y-39500000D01*
X197550000Y-170750000D02*
X200025000Y-168275000D01*
X169545000Y-168275000D02*
X172020000Y-170750000D01*
X172020000Y-170750000D02*
X197550000Y-170750000D01*
X167070000Y-170750000D02*
X169545000Y-168275000D01*
X139065000Y-168275000D02*
X141540000Y-170750000D01*
X141540000Y-170750000D02*
X167070000Y-170750000D01*
X136590000Y-170750000D02*
X139065000Y-168275000D01*
X111060000Y-170750000D02*
X136590000Y-170750000D01*
X111060000Y-170750000D02*
X108585000Y-168275000D01*
X80580000Y-170750000D02*
X78105000Y-168275000D01*
X108585000Y-168275000D02*
X106110000Y-170750000D01*
X106110000Y-170750000D02*
X80580000Y-170750000D01*
X75630000Y-170750000D02*
X78105000Y-168275000D01*
X49750000Y-170750000D02*
X75630000Y-170750000D01*
X47750000Y-168250000D02*
X47750000Y-168750000D01*
X47750000Y-168750000D02*
X49750000Y-170750000D01*
X45150000Y-170750000D02*
X47625000Y-168275000D01*
X38500000Y-170750000D02*
X45150000Y-170750000D01*
X28250000Y-160500000D02*
X38500000Y-170750000D01*
X32250000Y-39500000D02*
X28250000Y-43500000D01*
X28250000Y-43500000D02*
X28250000Y-160500000D01*
G04 #@! TO.N,GND*
X39605000Y-33401000D02*
X39605000Y-30861000D01*
X39605000Y-33401000D02*
X34799000Y-33401000D01*
X32250000Y-35950000D02*
X32250000Y-37000000D01*
D20*
X32450000Y-35750000D02*
X32250000Y-35950000D01*
D19*
X34799000Y-33401000D02*
X32450000Y-35750000D01*
D20*
X31000001Y-173000001D02*
X32500000Y-174500000D01*
D19*
X26924990Y-168924990D02*
X31000001Y-173000001D01*
X26924990Y-41275010D02*
X26924990Y-168924990D01*
X31200000Y-37000000D02*
X26924990Y-41275010D01*
D20*
X32250000Y-37000000D02*
X31200000Y-37000000D01*
D19*
X129599000Y-33401000D02*
X131250000Y-31750000D01*
X118345000Y-30861000D02*
X118345000Y-33401000D01*
X129599000Y-33401000D02*
X118345000Y-33401000D01*
G04 #@! TO.N,6v*
X115805000Y-33401000D02*
X115805000Y-30861000D01*
X193170000Y-166500000D02*
X194945000Y-168275000D01*
X164465000Y-168275000D02*
X166240000Y-166500000D01*
X166240000Y-166500000D02*
X193170000Y-166500000D01*
X162690000Y-166500000D02*
X164465000Y-168275000D01*
X133985000Y-168275000D02*
X135760000Y-166500000D01*
X135760000Y-166500000D02*
X162690000Y-166500000D01*
X132210000Y-166500000D02*
X133985000Y-168275000D01*
X103505000Y-168275000D02*
X105280000Y-166500000D01*
X105280000Y-166500000D02*
X132210000Y-166500000D01*
D20*
X74024999Y-167275001D02*
X73025000Y-168275000D01*
D19*
X74550000Y-166750000D02*
X74024999Y-167275001D01*
X103505000Y-168275000D02*
X101980000Y-166750000D01*
X101980000Y-166750000D02*
X74550000Y-166750000D01*
D20*
X43544999Y-167275001D02*
X42545000Y-168275000D01*
D19*
X44070000Y-166750000D02*
X43544999Y-167275001D01*
X73025000Y-168275000D02*
X71500000Y-166750000D01*
X71500000Y-166750000D02*
X44070000Y-166750000D01*
X196720000Y-166500000D02*
X194945000Y-168275000D01*
X133750000Y-31750000D02*
X244750000Y-31750000D01*
X257000000Y-44000000D02*
X257000000Y-161063188D01*
X244750000Y-31750000D02*
X257000000Y-44000000D01*
X257000000Y-161063188D02*
X251563188Y-166500000D01*
X251563188Y-166500000D02*
X196720000Y-166500000D01*
X133750000Y-32800000D02*
X133750000Y-31750000D01*
X131550000Y-35000000D02*
X133750000Y-32800000D01*
X115805000Y-33401000D02*
X117404000Y-35000000D01*
X117404000Y-35000000D02*
X131550000Y-35000000D01*
D21*
G04 #@! TO.N,C*
X238500000Y-72000000D02*
X238500000Y-66000000D01*
X238500000Y-78000000D02*
X238500000Y-72000000D01*
X238500000Y-90000000D02*
X238500000Y-84000000D01*
X238500000Y-96000000D02*
X238500000Y-90000000D01*
X238500000Y-102000000D02*
X238500000Y-96000000D01*
X238500000Y-108000000D02*
X238500000Y-102000000D01*
X238500000Y-54000000D02*
X238500000Y-47000000D01*
X238500000Y-60000000D02*
X238500000Y-54000000D01*
X238500000Y-84000000D02*
X238500000Y-78000000D01*
X238500000Y-66000000D02*
X238500000Y-60000000D01*
G04 #@! TO.N,D*
X231500000Y-54000000D02*
X231500000Y-60000000D01*
X231500000Y-47000000D02*
X231500000Y-54000000D01*
X231500000Y-66000000D02*
X231500000Y-72000000D01*
X231500000Y-60000000D02*
X231500000Y-66000000D01*
X231500000Y-90000000D02*
X231500000Y-96000000D01*
X231500000Y-84000000D02*
X231500000Y-90000000D01*
X231500000Y-72000000D02*
X231500000Y-78000000D01*
X231500000Y-78000000D02*
X231500000Y-84000000D01*
X231500000Y-96000000D02*
X231500000Y-102000000D01*
X231500000Y-102000000D02*
X231500000Y-108000000D01*
G04 #@! TO.N,E*
X224500000Y-60000000D02*
X224500000Y-66000000D01*
X224500000Y-54000000D02*
X224500000Y-60000000D01*
X224500000Y-84000000D02*
X224500000Y-78000000D01*
X224500000Y-90000000D02*
X224500000Y-84000000D01*
X224500000Y-96000000D02*
X224500000Y-90000000D01*
X224500000Y-102000000D02*
X224500000Y-96000000D01*
X224500000Y-66000000D02*
X224500000Y-71500000D01*
X224500000Y-108000000D02*
X224500000Y-102000000D01*
X224500000Y-47000000D02*
X224500000Y-54000000D01*
X224500000Y-72000000D02*
X224500000Y-77500000D01*
G04 #@! TO.N,F*
X217500000Y-90000000D02*
X217500000Y-84000000D01*
X217500000Y-96000000D02*
X217500000Y-90000000D01*
X217500000Y-72000000D02*
X217500000Y-66000000D01*
X217500000Y-78000000D02*
X217500000Y-72000000D01*
X217500000Y-102000000D02*
X217500000Y-96000000D01*
X217500000Y-60000000D02*
X217500000Y-66000000D01*
X217500000Y-54000000D02*
X217500000Y-60000000D01*
X217500000Y-47000000D02*
X217500000Y-54000000D01*
X217500000Y-78000000D02*
X217500000Y-84000000D01*
X217500000Y-102000000D02*
X217500000Y-108000000D01*
G04 #@! TO.N,H*
X210500000Y-78000000D02*
X210500000Y-84000000D01*
X210500000Y-72000000D02*
X210500000Y-78000000D01*
X210500000Y-102000000D02*
X210500000Y-108000000D01*
X210500000Y-96000000D02*
X210500000Y-102000000D01*
X210500000Y-54000000D02*
X210500000Y-60000000D01*
X210500000Y-47000000D02*
X210500000Y-54000000D01*
X210500000Y-90000000D02*
X210500000Y-96000000D01*
X210500000Y-66000000D02*
X210500000Y-72000000D01*
X210500000Y-60000000D02*
X210500000Y-66000000D01*
X210500000Y-84000000D02*
X210500000Y-90000000D01*
G04 #@! TO.N,J*
X203500000Y-60000000D02*
X203500000Y-54000000D01*
X203500000Y-66000000D02*
X203500000Y-60000000D01*
X203500000Y-72000000D02*
X203500000Y-66000000D01*
X203500000Y-84000000D02*
X203500000Y-78000000D01*
X203500000Y-90000000D02*
X203500000Y-84000000D01*
X203500000Y-96000000D02*
X203500000Y-90000000D01*
X203500000Y-78000000D02*
X203500000Y-72000000D01*
X203500000Y-102000000D02*
X203500000Y-96000000D01*
X203500000Y-108000000D02*
X203500000Y-102000000D01*
X203500000Y-54000000D02*
X203500000Y-47000000D01*
G04 #@! TO.N,K*
X196500000Y-78000000D02*
X196500000Y-84000000D01*
X196500000Y-72000000D02*
X196500000Y-78000000D01*
X196500000Y-54000000D02*
X196500000Y-60000000D01*
X196500000Y-47000000D02*
X196500000Y-54000000D01*
X196500000Y-96000000D02*
X196500000Y-102000000D01*
X196500000Y-90000000D02*
X196500000Y-96000000D01*
X196500000Y-102000000D02*
X196500000Y-108000000D01*
X196500000Y-84000000D02*
X196500000Y-90000000D01*
X196500000Y-60000000D02*
X196500000Y-66000000D01*
X196500000Y-66000000D02*
X196500000Y-71500000D01*
G04 #@! TO.N,L*
X189500000Y-60000000D02*
X189500000Y-54000000D01*
X189500000Y-66000000D02*
X189500000Y-60000000D01*
X189500000Y-72000000D02*
X189500000Y-66000000D01*
X189500000Y-78000000D02*
X189500000Y-72000000D01*
X189500000Y-84000000D02*
X189500000Y-78000000D01*
X189500000Y-102000000D02*
X189500000Y-96000000D01*
X189500000Y-108000000D02*
X189500000Y-102000000D01*
X189500000Y-54000000D02*
X189500000Y-47000000D01*
X189500000Y-96000000D02*
X189500000Y-90000000D01*
X189500000Y-90000000D02*
X189500000Y-84000000D01*
G04 #@! TO.N,M*
X182500000Y-102000000D02*
X182500000Y-108000000D01*
X182500000Y-96000000D02*
X182500000Y-102000000D01*
X182500000Y-60000000D02*
X182500000Y-66000000D01*
X182500000Y-54000000D02*
X182500000Y-60000000D01*
X182500000Y-84000000D02*
X182500000Y-90000000D01*
X182500000Y-78000000D02*
X182500000Y-84000000D01*
X182500000Y-90000000D02*
X182500000Y-96000000D01*
X182500000Y-72000000D02*
X182500000Y-78000000D01*
X182500000Y-66000000D02*
X182500000Y-72000000D01*
X182500000Y-47000000D02*
X182500000Y-54000000D01*
G04 #@! TO.N,N*
X175500000Y-54000000D02*
X175500000Y-47000000D01*
X175500000Y-60000000D02*
X175500000Y-54000000D01*
X175500000Y-66000000D02*
X175500000Y-60000000D01*
X175500000Y-72000000D02*
X175500000Y-66000000D01*
X175500000Y-78000000D02*
X175500000Y-72000000D01*
X175500000Y-96000000D02*
X175500000Y-90000000D01*
X175500000Y-102000000D02*
X175500000Y-96000000D01*
X175500000Y-108000000D02*
X175500000Y-102000000D01*
X175500000Y-90000000D02*
X175500000Y-84000000D01*
X175500000Y-84000000D02*
X175500000Y-78000000D01*
G04 #@! TO.N,P*
X168500000Y-60000000D02*
X168500000Y-54000000D01*
X168500000Y-66000000D02*
X168500000Y-60000000D01*
X168500000Y-102000000D02*
X168500000Y-96000000D01*
X168500000Y-108000000D02*
X168500000Y-102000000D01*
X168500000Y-84000000D02*
X168500000Y-78000000D01*
X168500000Y-90000000D02*
X168500000Y-84000000D01*
X168500000Y-72000000D02*
X168500000Y-66000000D01*
X168500000Y-78000000D02*
X168500000Y-72000000D01*
X168500000Y-96000000D02*
X168500000Y-90000000D01*
X168500000Y-54000000D02*
X168500000Y-47000000D01*
G04 #@! TO.N,R*
X161500000Y-72000000D02*
X161500000Y-78000000D01*
X161500000Y-66000000D02*
X161500000Y-72000000D01*
X161500000Y-54000000D02*
X161500000Y-60000000D01*
X161500000Y-47000000D02*
X161500000Y-54000000D01*
X161500000Y-60000000D02*
X161500000Y-66000000D01*
X161500000Y-102000000D02*
X161500000Y-108000000D01*
X161500000Y-96000000D02*
X161500000Y-102000000D01*
X161500000Y-78000000D02*
X161500000Y-84000000D01*
X161500000Y-84000000D02*
X161500000Y-90000000D01*
X161500000Y-90000000D02*
X161500000Y-96000000D01*
G04 #@! TO.N,S*
X154500000Y-66000000D02*
X154500000Y-60000000D01*
X154500000Y-72000000D02*
X154500000Y-66000000D01*
X154500000Y-78000000D02*
X154500000Y-72000000D01*
X154500000Y-84000000D02*
X154500000Y-78000000D01*
X154500000Y-96000000D02*
X154500000Y-90000000D01*
X154500000Y-102000000D02*
X154500000Y-96000000D01*
X154500000Y-108000000D02*
X154500000Y-102000000D01*
X154500000Y-90000000D02*
X154500000Y-84000000D01*
X154500000Y-60000000D02*
X154500000Y-54000000D01*
X154500000Y-54000000D02*
X154500000Y-47000000D01*
G04 #@! TO.N,T*
X147500000Y-60000000D02*
X147500000Y-66000000D01*
X147500000Y-54000000D02*
X147500000Y-60000000D01*
X147500000Y-72000000D02*
X147500000Y-78000000D01*
X147500000Y-66000000D02*
X147500000Y-72000000D01*
X147500000Y-102000000D02*
X147500000Y-108000000D01*
X147500000Y-96000000D02*
X147500000Y-102000000D01*
X147500000Y-78000000D02*
X147500000Y-84000000D01*
X147500000Y-84000000D02*
X147500000Y-90000000D01*
X147500000Y-47000000D02*
X147500000Y-54000000D01*
X147500000Y-90000000D02*
X147500000Y-96000000D01*
G04 #@! TO.N,U*
X140500000Y-78000000D02*
X140500000Y-72000000D01*
X140500000Y-84000000D02*
X140500000Y-78000000D01*
X140500000Y-96000000D02*
X140500000Y-90000000D01*
X140500000Y-102000000D02*
X140500000Y-96000000D01*
X140500000Y-66000000D02*
X140500000Y-60000000D01*
X140500000Y-72000000D02*
X140500000Y-66000000D01*
X140500000Y-60000000D02*
X140500000Y-54000000D01*
X140500000Y-108000000D02*
X140500000Y-102000000D01*
X140500000Y-90000000D02*
X140500000Y-84000000D01*
X140500000Y-54000000D02*
X140500000Y-47000000D01*
G04 #@! TO.N,V*
X133500000Y-66000000D02*
X133500000Y-72000000D01*
X133500000Y-60000000D02*
X133500000Y-66000000D01*
X133500000Y-84000000D02*
X133500000Y-90000000D01*
X133500000Y-78000000D02*
X133500000Y-84000000D01*
X133500000Y-96000000D02*
X133500000Y-102000000D01*
X133500000Y-90000000D02*
X133500000Y-96000000D01*
X133500000Y-54000000D02*
X133500000Y-60000000D01*
X133500000Y-102000000D02*
X133500000Y-108000000D01*
X133500000Y-47000000D02*
X133500000Y-54000000D01*
X133500000Y-72000000D02*
X133500000Y-78000000D01*
G04 #@! TO.N,W*
X126500000Y-78000000D02*
X126500000Y-84000000D01*
X126500000Y-72000000D02*
X126500000Y-78000000D01*
X126500000Y-96000000D02*
X126500000Y-102000000D01*
X126500000Y-90000000D02*
X126500000Y-96000000D01*
X126500000Y-54000000D02*
X126500000Y-60000000D01*
X126500000Y-47000000D02*
X126500000Y-54000000D01*
X126500000Y-66000000D02*
X126500000Y-72000000D01*
X126500000Y-60000000D02*
X126500000Y-66000000D01*
X126500000Y-84000000D02*
X126500000Y-90000000D01*
X126500000Y-102000000D02*
X126500000Y-108000000D01*
G04 #@! TO.N,X*
X119500000Y-96000000D02*
X119500000Y-102000000D01*
X119500000Y-90000000D02*
X119500000Y-96000000D01*
X119500000Y-60000000D02*
X119500000Y-66000000D01*
X119500000Y-54000000D02*
X119500000Y-60000000D01*
X119500000Y-78000000D02*
X119500000Y-84000000D01*
X119500000Y-72000000D02*
X119500000Y-78000000D01*
X119500000Y-84000000D02*
X119500000Y-90000000D01*
X119500000Y-66000000D02*
X119500000Y-72000000D01*
X119500000Y-47000000D02*
X119500000Y-54000000D01*
X119500000Y-102000000D02*
X119500000Y-108000000D01*
G04 #@! TO.N,Y*
X112500000Y-84000000D02*
X112500000Y-90000000D01*
X112500000Y-78000000D02*
X112500000Y-84000000D01*
X112500000Y-102000000D02*
X112500000Y-107500000D01*
X112500000Y-96000000D02*
X112500000Y-102000000D01*
X112500000Y-54000000D02*
X112500000Y-60000000D01*
X112500000Y-47000000D02*
X112500000Y-54000000D01*
X112500000Y-72000000D02*
X112500000Y-78000000D01*
X112500000Y-90000000D02*
X112500000Y-96000000D01*
X112500000Y-60000000D02*
X112500000Y-66000000D01*
X112500000Y-66000000D02*
X112500000Y-72000000D01*
G04 #@! TO.N,Z*
X105500000Y-96000000D02*
X105500000Y-102000000D01*
X105500000Y-90000000D02*
X105500000Y-96000000D01*
X105500000Y-54000000D02*
X105500000Y-60000000D01*
X105500000Y-47000000D02*
X105500000Y-54000000D01*
X105500000Y-84000000D02*
X105500000Y-90000000D01*
X105500000Y-78000000D02*
X105500000Y-84000000D01*
X105500000Y-72000000D02*
X105500000Y-78000000D01*
X105500000Y-66000000D02*
X105500000Y-72000000D01*
X105500000Y-102000000D02*
X105500000Y-108000000D01*
X105500000Y-60000000D02*
X105500000Y-66000000D01*
G04 #@! TO.N,AA*
X98500000Y-78000000D02*
X98500000Y-72000000D01*
X98500000Y-84000000D02*
X98500000Y-78000000D01*
X98500000Y-102000000D02*
X98500000Y-96000000D01*
X98500000Y-108000000D02*
X98500000Y-102000000D01*
X98500000Y-54000000D02*
X98500000Y-47000000D01*
X98500000Y-60000000D02*
X98500000Y-54000000D01*
X98500000Y-66000000D02*
X98500000Y-60000000D01*
X98500000Y-72000000D02*
X98500000Y-66000000D01*
X98500000Y-96000000D02*
X98500000Y-90000000D01*
X98500000Y-90000000D02*
X98500000Y-84000000D01*
G04 #@! TO.N,AB*
X91500000Y-78000000D02*
X91500000Y-84000000D01*
X91500000Y-72000000D02*
X91500000Y-78000000D01*
X91500000Y-60000000D02*
X91500000Y-66000000D01*
X91500000Y-54000000D02*
X91500000Y-60000000D01*
X91500000Y-90000000D02*
X91500000Y-96000000D01*
X91500000Y-84000000D02*
X91500000Y-90000000D01*
X91500000Y-96000000D02*
X91500000Y-102000000D01*
X91500000Y-66000000D02*
X91500000Y-72000000D01*
X91500000Y-47000000D02*
X91500000Y-54000000D01*
X91500000Y-102000000D02*
X91500000Y-108000000D01*
G04 #@! TO.N,AC*
X84500000Y-84000000D02*
X84500000Y-90000000D01*
X84500000Y-78000000D02*
X84500000Y-84000000D01*
X84500000Y-96000000D02*
X84500000Y-102000000D01*
X84500000Y-90000000D02*
X84500000Y-96000000D01*
X84500000Y-54000000D02*
X84500000Y-60000000D01*
X84500000Y-102000000D02*
X84500000Y-108000000D01*
X84500000Y-72000000D02*
X84500000Y-78000000D01*
X84500000Y-60000000D02*
X84500000Y-66000000D01*
X84500000Y-66000000D02*
X84500000Y-72000000D01*
X84500000Y-47000000D02*
X84500000Y-54000000D01*
G04 #@! TO.N,AD*
X77500000Y-102000000D02*
X77500000Y-108000000D01*
X77500000Y-96000000D02*
X77500000Y-102000000D01*
X77500000Y-84000000D02*
X77500000Y-90000000D01*
X77500000Y-78000000D02*
X77500000Y-84000000D01*
X77500000Y-72000000D02*
X77500000Y-78000000D01*
X77500000Y-66000000D02*
X77500000Y-72000000D01*
X77500000Y-54000000D02*
X77500000Y-60000000D01*
X77500000Y-60000000D02*
X77500000Y-66000000D01*
X77500000Y-90000000D02*
X77500000Y-96000000D01*
X77500000Y-47000000D02*
X77500000Y-54000000D01*
G04 #@! TO.N,AE*
X70500000Y-84000000D02*
X70500000Y-90000000D01*
X70500000Y-78000000D02*
X70500000Y-84000000D01*
X70500000Y-66000000D02*
X70500000Y-72000000D01*
X70500000Y-60000000D02*
X70500000Y-66000000D01*
X70500000Y-54000000D02*
X70500000Y-60000000D01*
X70500000Y-96000000D02*
X70500000Y-102000000D01*
X70500000Y-90000000D02*
X70500000Y-96000000D01*
X70500000Y-72000000D02*
X70500000Y-78000000D01*
X70500000Y-102000000D02*
X70500000Y-108000000D01*
X70500000Y-47000000D02*
X70500000Y-54000000D01*
G04 #@! TO.N,AF*
X63500000Y-102000000D02*
X63500000Y-96000000D01*
X63500000Y-108000000D02*
X63500000Y-102000000D01*
X63500000Y-84000000D02*
X63500000Y-78000000D01*
X63500000Y-90000000D02*
X63500000Y-84000000D01*
X63500000Y-47949900D02*
X63500000Y-47000000D01*
X63500000Y-54000000D02*
X63500000Y-47949900D01*
X63500000Y-96000000D02*
X63500000Y-90000000D01*
X63500000Y-78000000D02*
X63500000Y-72000000D01*
X63500000Y-60000000D02*
X63500000Y-54000000D01*
X63500000Y-72000000D02*
X63500000Y-66000000D01*
X63500000Y-66000000D02*
X63500000Y-60000000D01*
D20*
X62948800Y-47949900D02*
X63224400Y-47949900D01*
X63224400Y-47949900D02*
X63500000Y-47949900D01*
X63224400Y-47949900D02*
X63224400Y-46860400D01*
D21*
G04 #@! TO.N,AH*
X56500000Y-84000000D02*
X56500000Y-90000000D01*
X56500000Y-78000000D02*
X56500000Y-84000000D01*
X56500000Y-108000000D02*
X56500000Y-108500000D01*
X56500000Y-102000000D02*
X56500000Y-108000000D01*
X56500000Y-72000000D02*
X56500000Y-78000000D01*
X56500000Y-66000000D02*
X56500000Y-72000000D01*
X56500000Y-54000000D02*
X56500000Y-60000000D01*
X56500000Y-60000000D02*
X56500000Y-66000000D01*
X56500000Y-90000000D02*
X56500000Y-96000000D01*
X56500000Y-96000000D02*
X56500000Y-102000000D01*
X56500000Y-47000000D02*
X56500000Y-54000000D01*
G04 #@! TO.N,AJ*
X49500000Y-60000000D02*
X49500000Y-66000000D01*
X49500000Y-54000000D02*
X49500000Y-60000000D01*
X49500000Y-47000000D02*
X49500000Y-54000000D01*
X49500000Y-102000000D02*
X49500000Y-108000000D01*
X49500000Y-96000000D02*
X49500000Y-102000000D01*
X49500000Y-84000000D02*
X49500000Y-90000000D01*
X49500000Y-78000000D02*
X49500000Y-84000000D01*
X49500000Y-72000000D02*
X49500000Y-78000000D01*
X49500000Y-66000000D02*
X49500000Y-72000000D01*
X49500000Y-90000000D02*
X49500000Y-96000000D01*
D20*
G04 #@! TO.N,9*
X253750055Y-116432000D02*
X249099978Y-121082077D01*
X98025000Y-30861000D02*
X99200001Y-32036001D01*
X105424943Y-39999945D02*
X244141636Y-39999945D01*
X249099978Y-145400022D02*
X244500000Y-150000000D01*
X253750055Y-49608364D02*
X253750055Y-116432000D01*
X249099978Y-121082077D02*
X249099978Y-145400022D01*
X99200001Y-33775003D02*
X105424943Y-39999945D01*
X99200001Y-32036001D02*
X99200001Y-33775003D01*
X244141636Y-39999945D02*
X253750055Y-49608364D01*
G04 #@! TO.N,7*
X250000000Y-121454877D02*
X250000000Y-155500000D01*
X254650077Y-116804800D02*
X250000000Y-121454877D01*
X254650077Y-49150077D02*
X254650077Y-116804800D01*
X244599923Y-39099923D02*
X254650077Y-49150077D01*
X109604921Y-39099923D02*
X244599923Y-39099923D01*
X104280001Y-33775003D02*
X109604921Y-39099923D01*
X103105000Y-30861000D02*
X104280001Y-32036001D01*
X250000000Y-155500000D02*
X244500000Y-161000000D01*
X104280001Y-32036001D02*
X104280001Y-33775003D01*
G04 #@! TO.N,10*
X243955236Y-40449956D02*
X253300044Y-49794764D01*
X248649967Y-120895677D02*
X248649967Y-140350033D01*
X95485000Y-30861000D02*
X96660001Y-32036001D01*
X96660001Y-32036001D02*
X96660001Y-33775003D01*
X96660001Y-33775003D02*
X103334954Y-40449956D01*
X253300044Y-116245600D02*
X248649967Y-120895677D01*
X248649967Y-140350033D02*
X244500000Y-144500000D01*
X253300044Y-49794764D02*
X253300044Y-116245600D01*
X103334954Y-40449956D02*
X243955236Y-40449956D01*
G04 #@! TO.N,8*
X101740001Y-33775003D02*
X107514932Y-39549934D01*
X101740001Y-32036001D02*
X101740001Y-33775003D01*
X100565000Y-30861000D02*
X101740001Y-32036001D01*
X249549989Y-150450011D02*
X244500000Y-155500000D01*
X107514932Y-39549934D02*
X244328036Y-39549934D01*
X254200066Y-116618400D02*
X249549989Y-121268477D01*
X249549989Y-121268477D02*
X249549989Y-150450011D01*
X244328036Y-39549934D02*
X254200066Y-49421964D01*
X254200066Y-49421964D02*
X254200066Y-116618400D01*
G04 #@! TO.N,11*
X252850033Y-49981164D02*
X252850033Y-116059200D01*
X248199956Y-120709277D02*
X248199956Y-135300044D01*
X248199956Y-135300044D02*
X244500000Y-139000000D01*
X101244965Y-40899967D02*
X243768836Y-40899967D01*
X243768836Y-40899967D02*
X252850033Y-49981164D01*
X252850033Y-116059200D02*
X248199956Y-120709277D01*
X94309999Y-33965001D02*
X101244965Y-40899967D01*
X94309999Y-32225999D02*
X94309999Y-33965001D01*
X92945000Y-30861000D02*
X94309999Y-32225999D01*
G04 #@! TO.N,14*
X252400022Y-115872800D02*
X247749945Y-120522877D01*
X86500000Y-32036000D02*
X86500000Y-33775002D01*
X85325000Y-30861000D02*
X86500000Y-32036000D01*
X94074976Y-41349978D02*
X243582436Y-41349978D01*
X247749945Y-130250055D02*
X244500000Y-133500000D01*
X247749945Y-120522877D02*
X247749945Y-130250055D01*
X86500000Y-33775002D02*
X94074976Y-41349978D01*
X252400022Y-50167564D02*
X252400022Y-115872800D01*
X243582436Y-41349978D02*
X252400022Y-50167564D01*
G04 #@! TO.N,15*
X251950011Y-50353964D02*
X251950011Y-115686400D01*
X91984987Y-41799989D02*
X243396036Y-41799989D01*
X247299934Y-125200066D02*
X244500000Y-128000000D01*
X243396036Y-41799989D02*
X251950011Y-50353964D01*
X251950011Y-115686400D02*
X247299934Y-120336477D01*
X83960001Y-32036001D02*
X83960001Y-33775003D01*
X82785000Y-30861000D02*
X83960001Y-32036001D01*
X247299934Y-120336477D02*
X247299934Y-125200066D01*
X83960001Y-33775003D02*
X91984987Y-41799989D01*
G04 #@! TO.N,18*
X251500000Y-115500000D02*
X244500000Y-122500000D01*
X84814998Y-42250000D02*
X243209636Y-42250000D01*
X75165000Y-30861000D02*
X76340001Y-32036001D01*
X76340001Y-33775003D02*
X84814998Y-42250000D01*
X76340001Y-32036001D02*
X76340001Y-33775003D01*
X243209636Y-42250000D02*
X251500000Y-50540364D01*
X251500000Y-50540364D02*
X251500000Y-115500000D01*
G04 #@! TO.N,CA-*
X45000000Y-117000000D02*
X32750000Y-129250000D01*
X72625000Y-30861000D02*
X71355000Y-32131000D01*
X71355000Y-32131000D02*
X71355000Y-33817900D01*
X71355000Y-33817900D02*
X67422900Y-37750000D01*
X67422900Y-37750000D02*
X55000000Y-37750000D01*
X55000000Y-37750000D02*
X45000000Y-47750000D01*
X45000000Y-47750000D02*
X45000000Y-117000000D01*
G04 #@! TO.N,CA*
X44224979Y-112724979D02*
X44250000Y-112750000D01*
X44224979Y-112750000D02*
X32750000Y-124224979D01*
X70085000Y-30861000D02*
X68909600Y-32036400D01*
X68909600Y-33728700D02*
X65388300Y-37250000D01*
X65388300Y-37250000D02*
X54750000Y-37250000D01*
X68909600Y-32036400D02*
X68909600Y-33728700D01*
X54750000Y-37250000D02*
X44224979Y-47775021D01*
X44224979Y-47775021D02*
X44224979Y-112724979D01*
G04 #@! TO.N,S4-*
X43500000Y-108000000D02*
X32750000Y-118750000D01*
X66275000Y-32131000D02*
X66275000Y-33820300D01*
X67545000Y-30861000D02*
X66275000Y-32131000D01*
X66275000Y-33820300D02*
X63345300Y-36750000D01*
X63345300Y-36750000D02*
X54500000Y-36750000D01*
X54500000Y-36750000D02*
X43500000Y-47750000D01*
X43500000Y-47750000D02*
X43500000Y-108000000D01*
G04 #@! TO.N,S4*
X42750000Y-103250000D02*
X32750000Y-113250000D01*
X63735000Y-32131000D02*
X63735000Y-33798500D01*
X63735000Y-33798500D02*
X61283500Y-36250000D01*
X61283500Y-36250000D02*
X54250000Y-36250000D01*
X54250000Y-36250000D02*
X42750000Y-47750000D01*
X65005000Y-30861000D02*
X63735000Y-32131000D01*
X42750000Y-47750000D02*
X42750000Y-103250000D01*
G04 #@! TO.N,S3*
X42000000Y-98500000D02*
X32750000Y-107750000D01*
X61195000Y-32131000D02*
X61195000Y-33820300D01*
X62465000Y-30861000D02*
X61195000Y-32131000D01*
X61195000Y-33820300D02*
X59265300Y-35750000D01*
X59265300Y-35750000D02*
X54000000Y-35750000D01*
X54000000Y-35750000D02*
X42000000Y-47750000D01*
X42000000Y-47750000D02*
X42000000Y-98500000D01*
G04 #@! TO.N,S2*
X41250000Y-93750000D02*
X32750000Y-102250000D01*
X59925000Y-30861000D02*
X58749999Y-32036001D01*
X58749999Y-33750001D02*
X57250000Y-35250000D01*
X57250000Y-35250000D02*
X53750000Y-35250000D01*
X53750000Y-35250000D02*
X41250000Y-47750000D01*
X58749999Y-32036001D02*
X58749999Y-33750001D01*
X41250000Y-47750000D02*
X41250000Y-93750000D01*
G04 #@! TO.N,S1*
X40549989Y-88950011D02*
X32750000Y-96750000D01*
X56115000Y-32131000D02*
X56115000Y-33871392D01*
X56115000Y-33871392D02*
X55186401Y-34799991D01*
X55186401Y-34799991D02*
X53450009Y-34799991D01*
X53450009Y-34799991D02*
X40549989Y-47700011D01*
X57385000Y-30861000D02*
X56115000Y-32131000D01*
X40549989Y-47700011D02*
X40549989Y-88950011D01*
G04 #@! TO.N,S0*
X39750000Y-84250000D02*
X32750000Y-91250000D01*
X39750000Y-47750000D02*
X39750000Y-84250000D01*
X53575000Y-33925000D02*
X39750000Y-47750000D01*
X54845000Y-30861000D02*
X53575000Y-32131000D01*
X53575000Y-32131000D02*
X53575000Y-33925000D01*
D19*
G04 #@! TO.N,Net-(TPG11-Pad1)*
X45000000Y-174500000D02*
X45000000Y-180500000D01*
G04 #@! TO.N,Net-(TPG21-Pad1)*
X75500000Y-174500000D02*
X75500000Y-180500000D01*
G04 #@! TO.N,Net-(TPG31-Pad1)*
X106000000Y-174500000D02*
X106000000Y-180500000D01*
G04 #@! TO.N,Net-(TPG41-Pad1)*
X136500000Y-174500000D02*
X136500000Y-180500000D01*
G04 #@! TO.N,Net-(TPG51-Pad1)*
X167000000Y-174500000D02*
X167000000Y-180500000D01*
G04 #@! TO.N,Net-(TPG61-Pad1)*
X197500000Y-174500000D02*
X197500000Y-180500000D01*
D20*
G04 #@! TO.N,Net-(TPLA1-Pad1)*
X65000000Y-155170000D02*
X65000000Y-156500000D01*
X60960000Y-151130000D02*
X65000000Y-155170000D01*
X65000000Y-156500000D02*
X68810000Y-156500000D01*
G04 #@! TO.N,Net-(TPLA2-Pad1)*
X64620000Y-152250000D02*
X65000000Y-152250000D01*
X60960000Y-148590000D02*
X64620000Y-152250000D01*
X65000000Y-152250000D02*
X68810000Y-152250000D01*
G04 #@! TO.N,Net-(TPLA3-Pad1)*
X63050000Y-146050000D02*
X65000000Y-148000000D01*
X60960000Y-146050000D02*
X63050000Y-146050000D01*
X65000000Y-148000000D02*
X68810000Y-148000000D01*
G04 #@! TO.N,Net-(TPLA4-Pad1)*
X63240000Y-143510000D02*
X65000000Y-141750000D01*
X60960000Y-143510000D02*
X63240000Y-143510000D01*
X65000000Y-141750000D02*
X68810000Y-141750000D01*
G04 #@! TO.N,Net-(TPLA5-Pad1)*
X64430000Y-137500000D02*
X65000000Y-137500000D01*
X60960000Y-140970000D02*
X64430000Y-137500000D01*
X65000000Y-137500000D02*
X68810000Y-137500000D01*
G04 #@! TO.N,Net-(TPLA6-Pad1)*
X65000000Y-134390000D02*
X65000000Y-133250000D01*
X60960000Y-138430000D02*
X65000000Y-134390000D01*
X65000000Y-133250000D02*
X68810000Y-133250000D01*
G04 #@! TO.N,Net-(TPLA11-Pad1)*
X61000000Y-128865000D02*
X61000000Y-115750000D01*
X42545000Y-147320000D02*
X61000000Y-128865000D01*
G04 #@! TO.N,Net-(TPLA12-Pad1)*
X55500000Y-131825000D02*
X55500000Y-115750000D01*
X42545000Y-144780000D02*
X55500000Y-131825000D01*
G04 #@! TO.N,Net-(TPLA13-Pad1)*
X48750000Y-115750000D02*
X50000000Y-115750000D01*
X42545000Y-121955000D02*
X48750000Y-115750000D01*
X42545000Y-142240000D02*
X42545000Y-121955000D01*
G04 #@! TO.N,Net-(TPLB1-Pad1)*
X95500000Y-155190000D02*
X95500000Y-156500000D01*
X91440000Y-151130000D02*
X95500000Y-155190000D01*
X95500000Y-156500000D02*
X99310000Y-156500000D01*
G04 #@! TO.N,Net-(TPLB2-Pad1)*
X95100000Y-152250000D02*
X95500000Y-152250000D01*
X91440000Y-148590000D02*
X95100000Y-152250000D01*
X95500000Y-152250000D02*
X99310000Y-152250000D01*
G04 #@! TO.N,Net-(TPLB3-Pad1)*
X93390000Y-148000000D02*
X95500000Y-148000000D01*
X91440000Y-146050000D02*
X93390000Y-148000000D01*
X95500000Y-148000000D02*
X99310000Y-148000000D01*
G04 #@! TO.N,Net-(TPLB4-Pad1)*
X93200000Y-141750000D02*
X95500000Y-141750000D01*
X91440000Y-143510000D02*
X93200000Y-141750000D01*
X95500000Y-141750000D02*
X99310000Y-141750000D01*
G04 #@! TO.N,Net-(TPLB5-Pad1)*
X94910000Y-137500000D02*
X95500000Y-137500000D01*
X91440000Y-140970000D02*
X94910000Y-137500000D01*
X95500000Y-137500000D02*
X99310000Y-137500000D01*
G04 #@! TO.N,Net-(TPLB6-Pad1)*
X95500000Y-134370000D02*
X95500000Y-133250000D01*
X91440000Y-138430000D02*
X95500000Y-134370000D01*
X95500000Y-133250000D02*
X99310000Y-133250000D01*
G04 #@! TO.N,Net-(TPLB11-Pad1)*
X90680000Y-129665000D02*
X90680000Y-115750000D01*
X73025000Y-147320000D02*
X90680000Y-129665000D01*
G04 #@! TO.N,Net-(TPLB12-Pad1)*
X85580000Y-132225000D02*
X85580000Y-115750000D01*
X73025000Y-144780000D02*
X85580000Y-132225000D01*
G04 #@! TO.N,Net-(TPLB13-Pad1)*
X79230000Y-115750000D02*
X80480000Y-115750000D01*
X73025000Y-121955000D02*
X79230000Y-115750000D01*
X73025000Y-142240000D02*
X73025000Y-121955000D01*
G04 #@! TO.N,Net-(TPLBD13-Pad1)*
X140190000Y-115750000D02*
X141440000Y-115750000D01*
X133985000Y-121955000D02*
X140190000Y-115750000D01*
X133985000Y-142240000D02*
X133985000Y-121955000D01*
G04 #@! TO.N,Net-(TPLC1-Pad1)*
X126000000Y-155210000D02*
X126000000Y-156500000D01*
X121920000Y-151130000D02*
X126000000Y-155210000D01*
X126000000Y-156500000D02*
X129810000Y-156500000D01*
G04 #@! TO.N,Net-(TPLC2-Pad1)*
X125580000Y-152250000D02*
X126000000Y-152250000D01*
X121920000Y-148590000D02*
X125580000Y-152250000D01*
X126000000Y-152250000D02*
X129810000Y-152250000D01*
G04 #@! TO.N,Net-(TPLC3-Pad1)*
X124050000Y-146050000D02*
X126000000Y-148000000D01*
X121920000Y-146050000D02*
X124050000Y-146050000D01*
X126000000Y-148000000D02*
X129810000Y-148000000D01*
G04 #@! TO.N,Net-(TPLC4-Pad1)*
X124240000Y-143510000D02*
X126000000Y-141750000D01*
X121920000Y-143510000D02*
X124240000Y-143510000D01*
X126000000Y-141750000D02*
X129810000Y-141750000D01*
G04 #@! TO.N,Net-(TPLC5-Pad1)*
X125390000Y-137500000D02*
X126000000Y-137500000D01*
X121920000Y-140970000D02*
X125390000Y-137500000D01*
X126000000Y-137500000D02*
X129810000Y-137500000D01*
G04 #@! TO.N,Net-(TPLC6-Pad1)*
X126000000Y-134350000D02*
X126000000Y-133250000D01*
X121920000Y-138430000D02*
X126000000Y-134350000D01*
X126000000Y-133250000D02*
X129810000Y-133250000D01*
G04 #@! TO.N,Net-(TPLC11-Pad1)*
X121160000Y-129665000D02*
X121160000Y-115750000D01*
X103505000Y-147320000D02*
X121160000Y-129665000D01*
G04 #@! TO.N,Net-(TPLC12-Pad1)*
X116060000Y-132225000D02*
X116060000Y-115750000D01*
X103505000Y-144780000D02*
X116060000Y-132225000D01*
G04 #@! TO.N,Net-(TPLC13-Pad1)*
X109710000Y-115750000D02*
X110960000Y-115750000D01*
X103505000Y-121955000D02*
X109710000Y-115750000D01*
X103505000Y-142240000D02*
X103505000Y-121955000D01*
G04 #@! TO.N,Net-(TPLD1-Pad1)*
X156500000Y-155230000D02*
X156500000Y-156500000D01*
X152400000Y-151130000D02*
X156500000Y-155230000D01*
X156500000Y-156500000D02*
X160310000Y-156500000D01*
G04 #@! TO.N,Net-(TPLD2-Pad1)*
X156060000Y-152250000D02*
X156500000Y-152250000D01*
X152400000Y-148590000D02*
X156060000Y-152250000D01*
X156500000Y-152250000D02*
X160310000Y-152250000D01*
G04 #@! TO.N,Net-(TPLD3-Pad1)*
X154350000Y-148000000D02*
X156500000Y-148000000D01*
X152400000Y-146050000D02*
X154350000Y-148000000D01*
X156500000Y-148000000D02*
X160310000Y-148000000D01*
G04 #@! TO.N,Net-(TPLD4-Pad1)*
X154740000Y-143510000D02*
X156500000Y-141750000D01*
X152400000Y-143510000D02*
X154740000Y-143510000D01*
X156500000Y-141750000D02*
X160310000Y-141750000D01*
G04 #@! TO.N,Net-(TPLD5-Pad1)*
X155870000Y-137500000D02*
X156500000Y-137500000D01*
X152400000Y-140970000D02*
X155870000Y-137500000D01*
X156500000Y-137500000D02*
X160310000Y-137500000D01*
G04 #@! TO.N,Net-(TPLD6-Pad1)*
X156500000Y-134330000D02*
X156500000Y-133250000D01*
X152400000Y-138430000D02*
X156500000Y-134330000D01*
X156500000Y-133250000D02*
X160310000Y-133250000D01*
G04 #@! TO.N,Net-(TPLD11-Pad1)*
X151640000Y-129665000D02*
X151640000Y-115750000D01*
X133985000Y-147320000D02*
X151640000Y-129665000D01*
G04 #@! TO.N,Net-(TPLD12-Pad1)*
X146540000Y-132225000D02*
X146540000Y-115750000D01*
X133985000Y-144780000D02*
X146540000Y-132225000D01*
G04 #@! TO.N,Net-(TPLE1-Pad1)*
X187000000Y-155250000D02*
X187000000Y-156500000D01*
X182880000Y-151130000D02*
X187000000Y-155250000D01*
X187000000Y-156500000D02*
X190810000Y-156500000D01*
G04 #@! TO.N,Net-(TPLE2-Pad1)*
X186540000Y-152250000D02*
X187000000Y-152250000D01*
X182880000Y-148590000D02*
X186540000Y-152250000D01*
X187000000Y-152250000D02*
X190810000Y-152250000D01*
G04 #@! TO.N,Net-(TPLE3-Pad1)*
X185050000Y-146050000D02*
X187000000Y-148000000D01*
X182880000Y-146050000D02*
X185050000Y-146050000D01*
X187000000Y-148000000D02*
X190810000Y-148000000D01*
G04 #@! TO.N,Net-(TPLE4-Pad1)*
X185240000Y-143510000D02*
X187000000Y-141750000D01*
X182880000Y-143510000D02*
X185240000Y-143510000D01*
X187000000Y-141750000D02*
X190810000Y-141750000D01*
G04 #@! TO.N,Net-(TPLE5-Pad1)*
X186350000Y-137500000D02*
X187000000Y-137500000D01*
X182880000Y-140970000D02*
X186350000Y-137500000D01*
X187000000Y-137500000D02*
X190810000Y-137500000D01*
G04 #@! TO.N,Net-(TPLE6-Pad1)*
X187000000Y-134310000D02*
X187000000Y-133250000D01*
X182880000Y-138430000D02*
X187000000Y-134310000D01*
X187000000Y-133250000D02*
X190810000Y-133250000D01*
G04 #@! TO.N,Net-(TPLE11-Pad1)*
X182120000Y-129665000D02*
X182120000Y-115750000D01*
X164465000Y-147320000D02*
X182120000Y-129665000D01*
G04 #@! TO.N,Net-(TPLE12-Pad1)*
X177020000Y-132225000D02*
X177020000Y-115750000D01*
X164465000Y-144780000D02*
X177020000Y-132225000D01*
G04 #@! TO.N,Net-(TPLE13-Pad1)*
X170670000Y-115750000D02*
X171920000Y-115750000D01*
X164465000Y-121955000D02*
X170670000Y-115750000D01*
X164465000Y-142240000D02*
X164465000Y-121955000D01*
G04 #@! TO.N,Net-(TPLF1-Pad1)*
X217500000Y-155270000D02*
X217500000Y-156500000D01*
X213360000Y-151130000D02*
X217500000Y-155270000D01*
X217500000Y-156500000D02*
X221310000Y-156500000D01*
G04 #@! TO.N,Net-(TPLF2-Pad1)*
X217020000Y-152250000D02*
X217500000Y-152250000D01*
X213360000Y-148590000D02*
X217020000Y-152250000D01*
X217500000Y-152250000D02*
X221310000Y-152250000D01*
G04 #@! TO.N,Net-(TPLF3-Pad1)*
X215310000Y-148000000D02*
X217500000Y-148000000D01*
X213360000Y-146050000D02*
X215310000Y-148000000D01*
X217500000Y-148000000D02*
X221310000Y-148000000D01*
G04 #@! TO.N,Net-(TPLF4-Pad1)*
X215120000Y-141750000D02*
X217500000Y-141750000D01*
X213360000Y-143510000D02*
X215120000Y-141750000D01*
X217500000Y-141750000D02*
X221310000Y-141750000D01*
G04 #@! TO.N,Net-(TPLF5-Pad1)*
X216830000Y-137500000D02*
X217500000Y-137500000D01*
X213360000Y-140970000D02*
X216830000Y-137500000D01*
X217500000Y-137500000D02*
X221310000Y-137500000D01*
G04 #@! TO.N,Net-(TPLF6-Pad1)*
X217500000Y-134290000D02*
X217500000Y-133250000D01*
X213360000Y-138430000D02*
X217500000Y-134290000D01*
X217500000Y-133250000D02*
X221310000Y-133250000D01*
G04 #@! TO.N,Net-(TPLF11-Pad1)*
X212600000Y-129665000D02*
X212600000Y-115750000D01*
X194945000Y-147320000D02*
X212600000Y-129665000D01*
G04 #@! TO.N,Net-(TPLF12-Pad1)*
X207500000Y-132225000D02*
X207500000Y-115750000D01*
X194945000Y-144780000D02*
X207500000Y-132225000D01*
G04 #@! TO.N,Net-(TPLF13-Pad1)*
X201150000Y-115750000D02*
X202400000Y-115750000D01*
X194945000Y-121955000D02*
X201150000Y-115750000D01*
X194945000Y-142240000D02*
X194945000Y-121955000D01*
G04 #@! TO.N,12*
X50500000Y-27000000D02*
X86544000Y-27000000D01*
X33000000Y-57878680D02*
X35750000Y-55128680D01*
X33000000Y-60000000D02*
X33000000Y-57878680D01*
X35750000Y-46615002D02*
X48589999Y-33775003D01*
X35750000Y-55128680D02*
X35750000Y-46615002D01*
X48589999Y-33775003D02*
X48589999Y-28910001D01*
X48589999Y-28910001D02*
X50500000Y-27000000D01*
X86544000Y-27000000D02*
X90405000Y-30861000D01*
G04 #@! TO.N,13*
X84504000Y-27500000D02*
X87865000Y-30861000D01*
X37750000Y-61250000D02*
X37750000Y-47250000D01*
X33000000Y-66000000D02*
X37750000Y-61250000D01*
X37750000Y-47250000D02*
X51129999Y-33870001D01*
X51129999Y-33870001D02*
X51129999Y-29120001D01*
X51129999Y-29120001D02*
X52750000Y-27500000D01*
X52750000Y-27500000D02*
X84504000Y-27500000D01*
G04 #@! TO.N,29*
X33000000Y-46000000D02*
X33000000Y-54000000D01*
X43509999Y-35490001D02*
X33000000Y-46000000D01*
X43509999Y-32836999D02*
X43509999Y-35490001D01*
X44120999Y-32225999D02*
X43509999Y-32836999D01*
X45860001Y-32225999D02*
X44120999Y-32225999D01*
X47225000Y-30861000D02*
X45860001Y-32225999D01*
G04 #@! TD*
M02*
