M48
;DRILL file {KiCad (5.0.0)} date 04/29/19 00:26:31
;FORMAT={-:-/ absolute / inch / decimal}
FMAT,2
INCH,TZ
T1C0.0157
T2C0.0394
T3C0.0512
%
G90
G05
M72
T1
X0.7194Y-2.3552
X1.0175Y-2.4277
X1.0474Y-2.5188
X1.2504Y-6.3709
X1.3Y-2.4677
X1.5916Y-3.9528
X2.2465Y-7.2785
X2.2736Y-7.6798
X2.3022Y-7.764
X2.3367Y-7.8026
X2.3564Y-5.4545
X2.3595Y-7.853
X2.3963Y-4.8682
X2.416Y-5.3243
X2.4168Y-5.4182
X2.4283Y-7.969
X2.4313Y-3.9999
X2.4891Y-3.3531
X2.6668Y-8.0281
X2.863Y-2.7131
X3.0385Y-3.55
X3.1042Y-2.7131
X3.25Y-3.55
X3.7368Y-4.3945
X3.8463Y-5.4504
X3.9708Y-3.9
X4.1637Y-4.
X4.2052Y-3.7904
X4.2285Y-3.55
X4.2421Y-2.993
X4.342Y-4.4185
X4.5463Y-4.2426
X4.6099Y-5.25
X4.7918Y-2.652
X4.9386Y-4.3955
X5.0676Y-3.5508
X5.0907Y-5.4217
X5.1639Y-2.8003
X5.1956Y-5.3312
X5.3931Y-4.1834
X5.3941Y-7.5
X5.4394Y-3.3
X5.5411Y-4.4977
X5.8106Y-5.1463
X5.9219Y-5.0479
X5.9556Y-5.9923
X6.0007Y-6.7293
X6.0009Y-7.5
X6.0634Y-3.2306
X6.1779Y-2.1423
X6.2478Y-2.1575
X6.3641Y-3.5
X6.4317Y-2.3537
X6.4475Y-2.2537
X6.6557Y-3.25
X7.6558Y-5.5777
X7.6749Y-3.6
X7.7061Y-3.5432
X7.707Y-3.7729
X7.8246Y-3.1
X7.9414Y-4.1503
X7.9414Y-4.5765
X7.9414Y-4.8356
X8.1598Y-4.725
X8.1775Y-3.9924
X8.1775Y-4.3
X8.2019Y-2.3916
X8.2393Y-3.4469
X8.3242Y-2.7959
X8.3532Y-3.7888
X8.3683Y-4.3991
X8.3747Y-5.25
X8.4108Y-3.1994
X8.4657Y-5.4504
X8.4852Y-5.4128
X8.8338Y-3.9169
X9.0006Y-5.842
X9.021Y-3.3251
X9.0227Y-3.6521
X9.0735Y-3.9169
X9.0833Y-2.1157
X9.3769Y-2.1624
X9.4281Y-3.0523
X9.7444Y-3.0258
X9.8376Y-3.053
X9.85Y-3.55
X9.8622Y-2.0967
X9.9318Y-2.0972
X10.1193Y-2.1337
X10.5648Y-3.9051
X10.5757Y-5.6961
X11.3074Y-5.9353
X11.3476Y-5.8211
X11.7609Y-3.9813
X11.8904Y-5.8199
X11.9993Y-5.8199
X12.0227Y-5.7259
X13.0994Y-5.7548
X13.2183Y-5.6226
X13.236Y-5.384
X13.75Y-2.95
X13.8528Y-5.3486
T2
X0.8Y-2.2
X0.8Y-2.3
X0.8Y-2.4
X0.8Y-2.5
X0.8Y-2.6
X0.8Y-2.7
X0.8Y-2.8
X0.8Y-2.9
X0.8Y-3.
X0.8Y-3.1
X0.8Y-3.2
X0.8Y-3.3
X0.8Y-3.4
X0.8Y-3.5
X0.8Y-3.6
X0.8Y-3.7
X0.8Y-3.8
X0.8Y-3.9
X0.8Y-4.
X0.8Y-4.1
X0.8Y-4.2
X0.8Y-4.3
X0.8Y-4.4
X0.8Y-4.5
X0.8Y-4.6
X0.8Y-4.7
X0.8Y-4.8
X0.8Y-4.9
X0.8Y-5.
X0.8Y-5.1
X0.8Y-5.2
X0.8Y-5.3
X0.9Y-2.2
X0.9Y-2.3
X0.9Y-2.4
X0.9Y-2.5
X0.9Y-2.6
X0.9Y-2.7
X0.9Y-2.8
X0.9Y-2.9
X0.9Y-3.
X0.9Y-3.1
X0.9Y-3.2
X0.9Y-3.3
X0.9Y-3.4
X0.9Y-3.5
X0.9Y-3.6
X0.9Y-3.7
X0.9Y-3.8
X0.9Y-3.9
X0.9Y-4.
X0.9Y-4.1
X0.9Y-4.2
X0.9Y-4.3
X0.9Y-4.4
X0.9Y-4.5
X0.9Y-4.6
X0.9Y-4.7
X0.9Y-4.8
X0.9Y-4.9
X0.9Y-5.
X0.9Y-5.1
X0.9Y-5.2
X0.9Y-5.3
X8.Y-2.2
X8.Y-2.3
X8.Y-2.4
X8.Y-2.5
X8.Y-2.6
X8.Y-2.7
X8.Y-2.8
X8.Y-2.9
X8.Y-3.
X8.Y-3.1
X8.Y-3.2
X8.Y-3.3
X8.Y-3.4
X8.Y-3.5
X8.Y-3.6
X8.Y-3.7
X8.Y-3.8
X8.Y-3.9
X8.Y-4.
X8.Y-4.1
X8.Y-4.2
X8.Y-4.3
X8.Y-4.4
X8.Y-4.5
X8.Y-4.6
X8.Y-4.7
X8.Y-4.8
X8.Y-4.9
X8.Y-5.
X8.Y-5.1
X8.Y-5.2
X8.Y-5.3
X8.1Y-2.2
X8.1Y-2.3
X8.1Y-2.4
X8.1Y-2.5
X8.1Y-2.6
X8.1Y-2.7
X8.1Y-2.8
X8.1Y-2.9
X8.1Y-3.
X8.1Y-3.1
X8.1Y-3.2
X8.1Y-3.3
X8.1Y-3.4
X8.1Y-3.5
X8.1Y-3.6
X8.1Y-3.7
X8.1Y-3.8
X8.1Y-3.9
X8.1Y-4.
X8.1Y-4.1
X8.1Y-4.2
X8.1Y-4.3
X8.1Y-4.4
X8.1Y-4.5
X8.1Y-4.6
X8.1Y-4.7
X8.1Y-4.8
X8.1Y-4.9
X8.1Y-5.
X8.1Y-5.1
X8.1Y-5.2
X8.1Y-5.3
X12.2Y-2.2
X12.2Y-2.3
X12.2Y-2.4
X12.2Y-2.5
X12.2Y-2.6
X12.2Y-2.7
X12.2Y-2.8
X12.2Y-2.9
X12.2Y-3.
X12.2Y-3.1
X12.2Y-3.2
X12.2Y-3.3
X12.2Y-3.4
X12.2Y-3.5
X12.2Y-3.6
X12.2Y-3.7
X12.2Y-3.8
X12.2Y-3.9
X12.2Y-4.
X12.2Y-4.1
X12.2Y-4.2
X12.2Y-4.3
X12.2Y-4.4
X12.2Y-4.5
X12.2Y-4.6
X12.2Y-4.7
X12.2Y-4.8
X12.2Y-4.9
X12.2Y-5.
X12.2Y-5.1
X12.2Y-5.2
X12.2Y-5.3
X12.3Y-2.2
X12.3Y-2.3
X12.3Y-2.4
X12.3Y-2.5
X12.3Y-2.6
X12.3Y-2.7
X12.3Y-2.8
X12.3Y-2.9
X12.3Y-3.
X12.3Y-3.1
X12.3Y-3.2
X12.3Y-3.3
X12.3Y-3.4
X12.3Y-3.5
X12.3Y-3.6
X12.3Y-3.7
X12.3Y-3.8
X12.3Y-3.9
X12.3Y-4.
X12.3Y-4.1
X12.3Y-4.2
X12.3Y-4.3
X12.3Y-4.4
X12.3Y-4.5
X12.3Y-4.6
X12.3Y-4.7
X12.3Y-4.8
X12.3Y-4.9
X12.3Y-5.
X12.3Y-5.1
X12.3Y-5.2
X12.3Y-5.3
X2.Y-2.2
X2.Y-2.3
X2.Y-2.4
X2.Y-2.5
X2.Y-2.6
X2.Y-2.7
X2.Y-2.8
X2.Y-2.9
X2.Y-3.
X2.Y-3.1
X2.Y-3.2
X2.Y-3.3
X2.Y-3.4
X2.Y-3.5
X2.Y-3.6
X2.Y-3.7
X2.Y-3.8
X2.Y-3.9
X2.Y-4.
X2.Y-4.1
X2.Y-4.2
X2.Y-4.3
X2.Y-4.4
X2.Y-4.5
X2.Y-4.6
X2.Y-4.7
X2.Y-4.8
X2.Y-4.9
X2.Y-5.
X2.Y-5.1
X2.Y-5.2
X2.Y-5.3
X2.1Y-2.2
X2.1Y-2.3
X2.1Y-2.4
X2.1Y-2.5
X2.1Y-2.6
X2.1Y-2.7
X2.1Y-2.8
X2.1Y-2.9
X2.1Y-3.
X2.1Y-3.1
X2.1Y-3.2
X2.1Y-3.3
X2.1Y-3.4
X2.1Y-3.5
X2.1Y-3.6
X2.1Y-3.7
X2.1Y-3.8
X2.1Y-3.9
X2.1Y-4.
X2.1Y-4.1
X2.1Y-4.2
X2.1Y-4.3
X2.1Y-4.4
X2.1Y-4.5
X2.1Y-4.6
X2.1Y-4.7
X2.1Y-4.8
X2.1Y-4.9
X2.1Y-5.
X2.1Y-5.1
X2.1Y-5.2
X2.1Y-5.3
X14.Y-2.2
X14.Y-2.3
X14.Y-2.4
X14.Y-2.5
X14.Y-2.6
X14.Y-2.7
X14.Y-2.8
X14.Y-2.9
X14.Y-3.
X14.Y-3.1
X14.Y-3.2
X14.Y-3.3
X14.Y-3.4
X14.Y-3.5
X14.Y-3.6
X14.Y-3.7
X14.Y-3.8
X14.Y-3.9
X14.Y-4.
X14.Y-4.1
X14.Y-4.2
X14.Y-4.3
X14.Y-4.4
X14.Y-4.5
X14.Y-4.6
X14.Y-4.7
X14.Y-4.8
X14.Y-4.9
X14.Y-5.
X14.Y-5.1
X14.Y-5.2
X14.Y-5.3
X14.1Y-2.2
X14.1Y-2.3
X14.1Y-2.4
X14.1Y-2.5
X14.1Y-2.6
X14.1Y-2.7
X14.1Y-2.8
X14.1Y-2.9
X14.1Y-3.
X14.1Y-3.1
X14.1Y-3.2
X14.1Y-3.3
X14.1Y-3.4
X14.1Y-3.5
X14.1Y-3.6
X14.1Y-3.7
X14.1Y-3.8
X14.1Y-3.9
X14.1Y-4.
X14.1Y-4.1
X14.1Y-4.2
X14.1Y-4.3
X14.1Y-4.4
X14.1Y-4.5
X14.1Y-4.6
X14.1Y-4.7
X14.1Y-4.8
X14.1Y-4.9
X14.1Y-5.
X14.1Y-5.1
X14.1Y-5.2
X14.1Y-5.3
X10.4Y-2.2
X10.4Y-2.3
X10.4Y-2.4
X10.4Y-2.5
X10.4Y-2.6
X10.4Y-2.7
X10.4Y-2.8
X10.4Y-2.9
X10.4Y-3.
X10.4Y-3.1
X10.4Y-3.2
X10.4Y-3.3
X10.4Y-3.4
X10.4Y-3.5
X10.4Y-3.6
X10.4Y-3.7
X10.4Y-3.8
X10.4Y-3.9
X10.4Y-4.
X10.4Y-4.1
X10.4Y-4.2
X10.4Y-4.3
X10.4Y-4.4
X10.4Y-4.5
X10.4Y-4.6
X10.4Y-4.7
X10.4Y-4.8
X10.4Y-4.9
X10.4Y-5.
X10.4Y-5.1
X10.4Y-5.2
X10.4Y-5.3
X10.5Y-2.2
X10.5Y-2.3
X10.5Y-2.4
X10.5Y-2.5
X10.5Y-2.6
X10.5Y-2.7
X10.5Y-2.8
X10.5Y-2.9
X10.5Y-3.
X10.5Y-3.1
X10.5Y-3.2
X10.5Y-3.3
X10.5Y-3.4
X10.5Y-3.5
X10.5Y-3.6
X10.5Y-3.7
X10.5Y-3.8
X10.5Y-3.9
X10.5Y-4.
X10.5Y-4.1
X10.5Y-4.2
X10.5Y-4.3
X10.5Y-4.4
X10.5Y-4.5
X10.5Y-4.6
X10.5Y-4.7
X10.5Y-4.8
X10.5Y-4.9
X10.5Y-5.
X10.5Y-5.1
X10.5Y-5.2
X10.5Y-5.3
X6.2Y-2.2
X6.2Y-2.3
X6.2Y-2.4
X6.2Y-2.5
X6.2Y-2.6
X6.2Y-2.7
X6.2Y-2.8
X6.2Y-2.9
X6.2Y-3.
X6.2Y-3.1
X6.2Y-3.2
X6.2Y-3.3
X6.2Y-3.4
X6.2Y-3.5
X6.2Y-3.6
X6.2Y-3.7
X6.2Y-3.8
X6.2Y-3.9
X6.2Y-4.
X6.2Y-4.1
X6.2Y-4.2
X6.2Y-4.3
X6.2Y-4.4
X6.2Y-4.5
X6.2Y-4.6
X6.2Y-4.7
X6.2Y-4.8
X6.2Y-4.9
X6.2Y-5.
X6.2Y-5.1
X6.2Y-5.2
X6.2Y-5.3
X6.3Y-2.2
X6.3Y-2.3
X6.3Y-2.4
X6.3Y-2.5
X6.3Y-2.6
X6.3Y-2.7
X6.3Y-2.8
X6.3Y-2.9
X6.3Y-3.
X6.3Y-3.1
X6.3Y-3.2
X6.3Y-3.3
X6.3Y-3.4
X6.3Y-3.5
X6.3Y-3.6
X6.3Y-3.7
X6.3Y-3.8
X6.3Y-3.9
X6.3Y-4.
X6.3Y-4.1
X6.3Y-4.2
X6.3Y-4.3
X6.3Y-4.4
X6.3Y-4.5
X6.3Y-4.6
X6.3Y-4.7
X6.3Y-4.8
X6.3Y-4.9
X6.3Y-5.
X6.3Y-5.1
X6.3Y-5.2
X6.3Y-5.3
X5.Y-2.2
X5.Y-2.3
X5.Y-2.4
X5.Y-2.5
X5.Y-2.6
X5.Y-2.7
X5.Y-2.8
X5.Y-2.9
X5.Y-3.
X5.Y-3.1
X5.Y-3.2
X5.Y-3.3
X5.Y-3.4
X5.Y-3.5
X5.Y-3.6
X5.Y-3.7
X5.Y-3.8
X5.Y-3.9
X5.Y-4.
X5.Y-4.1
X5.Y-4.2
X5.Y-4.3
X5.Y-4.4
X5.Y-4.5
X5.Y-4.6
X5.Y-4.7
X5.Y-4.8
X5.Y-4.9
X5.Y-5.
X5.Y-5.1
X5.Y-5.2
X5.Y-5.3
X5.1Y-2.2
X5.1Y-2.3
X5.1Y-2.4
X5.1Y-2.5
X5.1Y-2.6
X5.1Y-2.7
X5.1Y-2.8
X5.1Y-2.9
X5.1Y-3.
X5.1Y-3.1
X5.1Y-3.2
X5.1Y-3.3
X5.1Y-3.4
X5.1Y-3.5
X5.1Y-3.6
X5.1Y-3.7
X5.1Y-3.8
X5.1Y-3.9
X5.1Y-4.
X5.1Y-4.1
X5.1Y-4.2
X5.1Y-4.3
X5.1Y-4.4
X5.1Y-4.5
X5.1Y-4.6
X5.1Y-4.7
X5.1Y-4.8
X5.1Y-4.9
X5.1Y-5.
X5.1Y-5.1
X5.1Y-5.2
X5.1Y-5.3
X1.4Y-2.2
X1.4Y-2.3
X1.4Y-2.4
X1.4Y-2.5
X1.4Y-2.6
X1.4Y-2.7
X1.4Y-2.8
X1.4Y-2.9
X1.4Y-3.
X1.4Y-3.1
X1.4Y-3.2
X1.4Y-3.3
X1.4Y-3.4
X1.4Y-3.5
X1.4Y-3.6
X1.4Y-3.7
X1.4Y-3.8
X1.4Y-3.9
X1.4Y-4.
X1.4Y-4.1
X1.4Y-4.2
X1.4Y-4.3
X1.4Y-4.4
X1.4Y-4.5
X1.4Y-4.6
X1.4Y-4.7
X1.4Y-4.8
X1.4Y-4.9
X1.4Y-5.
X1.4Y-5.1
X1.4Y-5.2
X1.4Y-5.3
X1.5Y-2.2
X1.5Y-2.3
X1.5Y-2.4
X1.5Y-2.5
X1.5Y-2.6
X1.5Y-2.7
X1.5Y-2.8
X1.5Y-2.9
X1.5Y-3.
X1.5Y-3.1
X1.5Y-3.2
X1.5Y-3.3
X1.5Y-3.4
X1.5Y-3.5
X1.5Y-3.6
X1.5Y-3.7
X1.5Y-3.8
X1.5Y-3.9
X1.5Y-4.
X1.5Y-4.1
X1.5Y-4.2
X1.5Y-4.3
X1.5Y-4.4
X1.5Y-4.5
X1.5Y-4.6
X1.5Y-4.7
X1.5Y-4.8
X1.5Y-4.9
X1.5Y-5.
X1.5Y-5.1
X1.5Y-5.2
X1.5Y-5.3
X13.4Y-2.2
X13.4Y-2.3
X13.4Y-2.4
X13.4Y-2.5
X13.4Y-2.6
X13.4Y-2.7
X13.4Y-2.8
X13.4Y-2.9
X13.4Y-3.
X13.4Y-3.1
X13.4Y-3.2
X13.4Y-3.3
X13.4Y-3.4
X13.4Y-3.5
X13.4Y-3.6
X13.4Y-3.7
X13.4Y-3.8
X13.4Y-3.9
X13.4Y-4.
X13.4Y-4.1
X13.4Y-4.2
X13.4Y-4.3
X13.4Y-4.4
X13.4Y-4.5
X13.4Y-4.6
X13.4Y-4.7
X13.4Y-4.8
X13.4Y-4.9
X13.4Y-5.
X13.4Y-5.1
X13.4Y-5.2
X13.4Y-5.3
X13.5Y-2.2
X13.5Y-2.3
X13.5Y-2.4
X13.5Y-2.5
X13.5Y-2.6
X13.5Y-2.7
X13.5Y-2.8
X13.5Y-2.9
X13.5Y-3.
X13.5Y-3.1
X13.5Y-3.2
X13.5Y-3.3
X13.5Y-3.4
X13.5Y-3.5
X13.5Y-3.6
X13.5Y-3.7
X13.5Y-3.8
X13.5Y-3.9
X13.5Y-4.
X13.5Y-4.1
X13.5Y-4.2
X13.5Y-4.3
X13.5Y-4.4
X13.5Y-4.5
X13.5Y-4.6
X13.5Y-4.7
X13.5Y-4.8
X13.5Y-4.9
X13.5Y-5.
X13.5Y-5.1
X13.5Y-5.2
X13.5Y-5.3
X9.8Y-2.2
X9.8Y-2.3
X9.8Y-2.4
X9.8Y-2.5
X9.8Y-2.6
X9.8Y-2.7
X9.8Y-2.8
X9.8Y-2.9
X9.8Y-3.
X9.8Y-3.1
X9.8Y-3.2
X9.8Y-3.3
X9.8Y-3.4
X9.8Y-3.5
X9.8Y-3.6
X9.8Y-3.7
X9.8Y-3.8
X9.8Y-3.9
X9.8Y-4.
X9.8Y-4.1
X9.8Y-4.2
X9.8Y-4.3
X9.8Y-4.4
X9.8Y-4.5
X9.8Y-4.6
X9.8Y-4.7
X9.8Y-4.8
X9.8Y-4.9
X9.8Y-5.
X9.8Y-5.1
X9.8Y-5.2
X9.8Y-5.3
X9.9Y-2.2
X9.9Y-2.3
X9.9Y-2.4
X9.9Y-2.5
X9.9Y-2.6
X9.9Y-2.7
X9.9Y-2.8
X9.9Y-2.9
X9.9Y-3.
X9.9Y-3.1
X9.9Y-3.2
X9.9Y-3.3
X9.9Y-3.4
X9.9Y-3.5
X9.9Y-3.6
X9.9Y-3.7
X9.9Y-3.8
X9.9Y-3.9
X9.9Y-4.
X9.9Y-4.1
X9.9Y-4.2
X9.9Y-4.3
X9.9Y-4.4
X9.9Y-4.5
X9.9Y-4.6
X9.9Y-4.7
X9.9Y-4.8
X9.9Y-4.9
X9.9Y-5.
X9.9Y-5.1
X9.9Y-5.2
X9.9Y-5.3
X4.4Y-2.2
X4.4Y-2.3
X4.4Y-2.4
X4.4Y-2.5
X4.4Y-2.6
X4.4Y-2.7
X4.4Y-2.8
X4.4Y-2.9
X4.4Y-3.
X4.4Y-3.1
X4.4Y-3.2
X4.4Y-3.3
X4.4Y-3.4
X4.4Y-3.5
X4.4Y-3.6
X4.4Y-3.7
X4.4Y-3.8
X4.4Y-3.9
X4.4Y-4.
X4.4Y-4.1
X4.4Y-4.2
X4.4Y-4.3
X4.4Y-4.4
X4.4Y-4.5
X4.4Y-4.6
X4.4Y-4.7
X4.4Y-4.8
X4.4Y-4.9
X4.4Y-5.
X4.4Y-5.1
X4.4Y-5.2
X4.4Y-5.3
X4.5Y-2.2
X4.5Y-2.3
X4.5Y-2.4
X4.5Y-2.5
X4.5Y-2.6
X4.5Y-2.7
X4.5Y-2.8
X4.5Y-2.9
X4.5Y-3.
X4.5Y-3.1
X4.5Y-3.2
X4.5Y-3.3
X4.5Y-3.4
X4.5Y-3.5
X4.5Y-3.6
X4.5Y-3.7
X4.5Y-3.8
X4.5Y-3.9
X4.5Y-4.
X4.5Y-4.1
X4.5Y-4.2
X4.5Y-4.3
X4.5Y-4.4
X4.5Y-4.5
X4.5Y-4.6
X4.5Y-4.7
X4.5Y-4.8
X4.5Y-4.9
X4.5Y-5.
X4.5Y-5.1
X4.5Y-5.2
X4.5Y-5.3
X12.8Y-2.2
X12.8Y-2.3
X12.8Y-2.4
X12.8Y-2.5
X12.8Y-2.6
X12.8Y-2.7
X12.8Y-2.8
X12.8Y-2.9
X12.8Y-3.
X12.8Y-3.1
X12.8Y-3.2
X12.8Y-3.3
X12.8Y-3.4
X12.8Y-3.5
X12.8Y-3.6
X12.8Y-3.7
X12.8Y-3.8
X12.8Y-3.9
X12.8Y-4.
X12.8Y-4.1
X12.8Y-4.2
X12.8Y-4.3
X12.8Y-4.4
X12.8Y-4.5
X12.8Y-4.6
X12.8Y-4.7
X12.8Y-4.8
X12.8Y-4.9
X12.8Y-5.
X12.8Y-5.1
X12.8Y-5.2
X12.8Y-5.3
X12.9Y-2.2
X12.9Y-2.3
X12.9Y-2.4
X12.9Y-2.5
X12.9Y-2.6
X12.9Y-2.7
X12.9Y-2.8
X12.9Y-2.9
X12.9Y-3.
X12.9Y-3.1
X12.9Y-3.2
X12.9Y-3.3
X12.9Y-3.4
X12.9Y-3.5
X12.9Y-3.6
X12.9Y-3.7
X12.9Y-3.8
X12.9Y-3.9
X12.9Y-4.
X12.9Y-4.1
X12.9Y-4.2
X12.9Y-4.3
X12.9Y-4.4
X12.9Y-4.5
X12.9Y-4.6
X12.9Y-4.7
X12.9Y-4.8
X12.9Y-4.9
X12.9Y-5.
X12.9Y-5.1
X12.9Y-5.2
X12.9Y-5.3
X7.4Y-2.2
X7.4Y-2.3
X7.4Y-2.4
X7.4Y-2.5
X7.4Y-2.6
X7.4Y-2.7
X7.4Y-2.8
X7.4Y-2.9
X7.4Y-3.
X7.4Y-3.1
X7.4Y-3.2
X7.4Y-3.3
X7.4Y-3.4
X7.4Y-3.5
X7.4Y-3.6
X7.4Y-3.7
X7.4Y-3.8
X7.4Y-3.9
X7.4Y-4.
X7.4Y-4.1
X7.4Y-4.2
X7.4Y-4.3
X7.4Y-4.4
X7.4Y-4.5
X7.4Y-4.6
X7.4Y-4.7
X7.4Y-4.8
X7.4Y-4.9
X7.4Y-5.
X7.4Y-5.1
X7.4Y-5.2
X7.4Y-5.3
X7.5Y-2.2
X7.5Y-2.3
X7.5Y-2.4
X7.5Y-2.5
X7.5Y-2.6
X7.5Y-2.7
X7.5Y-2.8
X7.5Y-2.9
X7.5Y-3.
X7.5Y-3.1
X7.5Y-3.2
X7.5Y-3.3
X7.5Y-3.4
X7.5Y-3.5
X7.5Y-3.6
X7.5Y-3.7
X7.5Y-3.8
X7.5Y-3.9
X7.5Y-4.
X7.5Y-4.1
X7.5Y-4.2
X7.5Y-4.3
X7.5Y-4.4
X7.5Y-4.5
X7.5Y-4.6
X7.5Y-4.7
X7.5Y-4.8
X7.5Y-4.9
X7.5Y-5.
X7.5Y-5.1
X7.5Y-5.2
X7.5Y-5.3
X11.Y-2.2
X11.Y-2.3
X11.Y-2.4
X11.Y-2.5
X11.Y-2.6
X11.Y-2.7
X11.Y-2.8
X11.Y-2.9
X11.Y-3.
X11.Y-3.1
X11.Y-3.2
X11.Y-3.3
X11.Y-3.4
X11.Y-3.5
X11.Y-3.6
X11.Y-3.7
X11.Y-3.8
X11.Y-3.9
X11.Y-4.
X11.Y-4.1
X11.Y-4.2
X11.Y-4.3
X11.Y-4.4
X11.Y-4.5
X11.Y-4.6
X11.Y-4.7
X11.Y-4.8
X11.Y-4.9
X11.Y-5.
X11.Y-5.1
X11.Y-5.2
X11.Y-5.3
X11.1Y-2.2
X11.1Y-2.3
X11.1Y-2.4
X11.1Y-2.5
X11.1Y-2.6
X11.1Y-2.7
X11.1Y-2.8
X11.1Y-2.9
X11.1Y-3.
X11.1Y-3.1
X11.1Y-3.2
X11.1Y-3.3
X11.1Y-3.4
X11.1Y-3.5
X11.1Y-3.6
X11.1Y-3.7
X11.1Y-3.8
X11.1Y-3.9
X11.1Y-4.
X11.1Y-4.1
X11.1Y-4.2
X11.1Y-4.3
X11.1Y-4.4
X11.1Y-4.5
X11.1Y-4.6
X11.1Y-4.7
X11.1Y-4.8
X11.1Y-4.9
X11.1Y-5.
X11.1Y-5.1
X11.1Y-5.2
X11.1Y-5.3
X3.8Y-2.2
X3.8Y-2.3
X3.8Y-2.4
X3.8Y-2.5
X3.8Y-2.6
X3.8Y-2.7
X3.8Y-2.8
X3.8Y-2.9
X3.8Y-3.
X3.8Y-3.1
X3.8Y-3.2
X3.8Y-3.3
X3.8Y-3.4
X3.8Y-3.5
X3.8Y-3.6
X3.8Y-3.7
X3.8Y-3.8
X3.8Y-3.9
X3.8Y-4.
X3.8Y-4.1
X3.8Y-4.2
X3.8Y-4.3
X3.8Y-4.4
X3.8Y-4.5
X3.8Y-4.6
X3.8Y-4.7
X3.8Y-4.8
X3.8Y-4.9
X3.8Y-5.
X3.8Y-5.1
X3.8Y-5.2
X3.8Y-5.3
X3.9Y-2.2
X3.9Y-2.3
X3.9Y-2.4
X3.9Y-2.5
X3.9Y-2.6
X3.9Y-2.7
X3.9Y-2.8
X3.9Y-2.9
X3.9Y-3.
X3.9Y-3.1
X3.9Y-3.2
X3.9Y-3.3
X3.9Y-3.4
X3.9Y-3.5
X3.9Y-3.6
X3.9Y-3.7
X3.9Y-3.8
X3.9Y-3.9
X3.9Y-4.
X3.9Y-4.1
X3.9Y-4.2
X3.9Y-4.3
X3.9Y-4.4
X3.9Y-4.5
X3.9Y-4.6
X3.9Y-4.7
X3.9Y-4.8
X3.9Y-4.9
X3.9Y-5.
X3.9Y-5.1
X3.9Y-5.2
X3.9Y-5.3
X11.6Y-2.2
X11.6Y-2.3
X11.6Y-2.4
X11.6Y-2.5
X11.6Y-2.6
X11.6Y-2.7
X11.6Y-2.8
X11.6Y-2.9
X11.6Y-3.
X11.6Y-3.1
X11.6Y-3.2
X11.6Y-3.3
X11.6Y-3.4
X11.6Y-3.5
X11.6Y-3.6
X11.6Y-3.7
X11.6Y-3.8
X11.6Y-3.9
X11.6Y-4.
X11.6Y-4.1
X11.6Y-4.2
X11.6Y-4.3
X11.6Y-4.4
X11.6Y-4.5
X11.6Y-4.6
X11.6Y-4.7
X11.6Y-4.8
X11.6Y-4.9
X11.6Y-5.
X11.6Y-5.1
X11.6Y-5.2
X11.6Y-5.3
X11.7Y-2.2
X11.7Y-2.3
X11.7Y-2.4
X11.7Y-2.5
X11.7Y-2.6
X11.7Y-2.7
X11.7Y-2.8
X11.7Y-2.9
X11.7Y-3.
X11.7Y-3.1
X11.7Y-3.2
X11.7Y-3.3
X11.7Y-3.4
X11.7Y-3.5
X11.7Y-3.6
X11.7Y-3.7
X11.7Y-3.8
X11.7Y-3.9
X11.7Y-4.
X11.7Y-4.1
X11.7Y-4.2
X11.7Y-4.3
X11.7Y-4.4
X11.7Y-4.5
X11.7Y-4.6
X11.7Y-4.7
X11.7Y-4.8
X11.7Y-4.9
X11.7Y-5.
X11.7Y-5.1
X11.7Y-5.2
X11.7Y-5.3
X6.8Y-2.2
X6.8Y-2.3
X6.8Y-2.4
X6.8Y-2.5
X6.8Y-2.6
X6.8Y-2.7
X6.8Y-2.8
X6.8Y-2.9
X6.8Y-3.
X6.8Y-3.1
X6.8Y-3.2
X6.8Y-3.3
X6.8Y-3.4
X6.8Y-3.5
X6.8Y-3.6
X6.8Y-3.7
X6.8Y-3.8
X6.8Y-3.9
X6.8Y-4.
X6.8Y-4.1
X6.8Y-4.2
X6.8Y-4.3
X6.8Y-4.4
X6.8Y-4.5
X6.8Y-4.6
X6.8Y-4.7
X6.8Y-4.8
X6.8Y-4.9
X6.8Y-5.
X6.8Y-5.1
X6.8Y-5.2
X6.8Y-5.3
X6.9Y-2.2
X6.9Y-2.3
X6.9Y-2.4
X6.9Y-2.5
X6.9Y-2.6
X6.9Y-2.7
X6.9Y-2.8
X6.9Y-2.9
X6.9Y-3.
X6.9Y-3.1
X6.9Y-3.2
X6.9Y-3.3
X6.9Y-3.4
X6.9Y-3.5
X6.9Y-3.6
X6.9Y-3.7
X6.9Y-3.8
X6.9Y-3.9
X6.9Y-4.
X6.9Y-4.1
X6.9Y-4.2
X6.9Y-4.3
X6.9Y-4.4
X6.9Y-4.5
X6.9Y-4.6
X6.9Y-4.7
X6.9Y-4.8
X6.9Y-4.9
X6.9Y-5.
X6.9Y-5.1
X6.9Y-5.2
X6.9Y-5.3
X14.6Y-2.2
X14.6Y-2.3
X14.6Y-2.4
X14.6Y-2.5
X14.6Y-2.6
X14.6Y-2.7
X14.6Y-2.8
X14.6Y-2.9
X14.6Y-3.
X14.6Y-3.1
X14.6Y-3.2
X14.6Y-3.3
X14.6Y-3.4
X14.6Y-3.5
X14.6Y-3.6
X14.6Y-3.7
X14.6Y-3.8
X14.6Y-3.9
X14.6Y-4.
X14.6Y-4.1
X14.6Y-4.2
X14.6Y-4.3
X14.6Y-4.4
X14.6Y-4.5
X14.6Y-4.6
X14.6Y-4.7
X14.6Y-4.8
X14.6Y-4.9
X14.6Y-5.
X14.6Y-5.1
X14.6Y-5.2
X14.6Y-5.3
X14.7Y-2.2
X14.7Y-2.3
X14.7Y-2.4
X14.7Y-2.5
X14.7Y-2.6
X14.7Y-2.7
X14.7Y-2.8
X14.7Y-2.9
X14.7Y-3.
X14.7Y-3.1
X14.7Y-3.2
X14.7Y-3.3
X14.7Y-3.4
X14.7Y-3.5
X14.7Y-3.6
X14.7Y-3.7
X14.7Y-3.8
X14.7Y-3.9
X14.7Y-4.
X14.7Y-4.1
X14.7Y-4.2
X14.7Y-4.3
X14.7Y-4.4
X14.7Y-4.5
X14.7Y-4.6
X14.7Y-4.7
X14.7Y-4.8
X14.7Y-4.9
X14.7Y-5.
X14.7Y-5.1
X14.7Y-5.2
X14.7Y-5.3
X2.6Y-2.2
X2.6Y-2.3
X2.6Y-2.4
X2.6Y-2.5
X2.6Y-2.6
X2.6Y-2.7
X2.6Y-2.8
X2.6Y-2.9
X2.6Y-3.
X2.6Y-3.1
X2.6Y-3.2
X2.6Y-3.3
X2.6Y-3.4
X2.6Y-3.5
X2.6Y-3.6
X2.6Y-3.7
X2.6Y-3.8
X2.6Y-3.9
X2.6Y-4.
X2.6Y-4.1
X2.6Y-4.2
X2.6Y-4.3
X2.6Y-4.4
X2.6Y-4.5
X2.6Y-4.6
X2.6Y-4.7
X2.6Y-4.8
X2.6Y-4.9
X2.6Y-5.
X2.6Y-5.1
X2.6Y-5.2
X2.6Y-5.3
X2.7Y-2.2
X2.7Y-2.3
X2.7Y-2.4
X2.7Y-2.5
X2.7Y-2.6
X2.7Y-2.7
X2.7Y-2.8
X2.7Y-2.9
X2.7Y-3.
X2.7Y-3.1
X2.7Y-3.2
X2.7Y-3.3
X2.7Y-3.4
X2.7Y-3.5
X2.7Y-3.6
X2.7Y-3.7
X2.7Y-3.8
X2.7Y-3.9
X2.7Y-4.
X2.7Y-4.1
X2.7Y-4.2
X2.7Y-4.3
X2.7Y-4.4
X2.7Y-4.5
X2.7Y-4.6
X2.7Y-4.7
X2.7Y-4.8
X2.7Y-4.9
X2.7Y-5.
X2.7Y-5.1
X2.7Y-5.2
X2.7Y-5.3
X9.2Y-2.2
X9.2Y-2.3
X9.2Y-2.4
X9.2Y-2.5
X9.2Y-2.6
X9.2Y-2.7
X9.2Y-2.8
X9.2Y-2.9
X9.2Y-3.
X9.2Y-3.1
X9.2Y-3.2
X9.2Y-3.3
X9.2Y-3.4
X9.2Y-3.5
X9.2Y-3.6
X9.2Y-3.7
X9.2Y-3.8
X9.2Y-3.9
X9.2Y-4.
X9.2Y-4.1
X9.2Y-4.2
X9.2Y-4.3
X9.2Y-4.4
X9.2Y-4.5
X9.2Y-4.6
X9.2Y-4.7
X9.2Y-4.8
X9.2Y-4.9
X9.2Y-5.
X9.2Y-5.1
X9.2Y-5.2
X9.2Y-5.3
X9.3Y-2.2
X9.3Y-2.3
X9.3Y-2.4
X9.3Y-2.5
X9.3Y-2.6
X9.3Y-2.7
X9.3Y-2.8
X9.3Y-2.9
X9.3Y-3.
X9.3Y-3.1
X9.3Y-3.2
X9.3Y-3.3
X9.3Y-3.4
X9.3Y-3.5
X9.3Y-3.6
X9.3Y-3.7
X9.3Y-3.8
X9.3Y-3.9
X9.3Y-4.
X9.3Y-4.1
X9.3Y-4.2
X9.3Y-4.3
X9.3Y-4.4
X9.3Y-4.5
X9.3Y-4.6
X9.3Y-4.7
X9.3Y-4.8
X9.3Y-4.9
X9.3Y-5.
X9.3Y-5.1
X9.3Y-5.2
X9.3Y-5.3
X5.6Y-2.2
X5.6Y-2.3
X5.6Y-2.4
X5.6Y-2.5
X5.6Y-2.6
X5.6Y-2.7
X5.6Y-2.8
X5.6Y-2.9
X5.6Y-3.
X5.6Y-3.1
X5.6Y-3.2
X5.6Y-3.3
X5.6Y-3.4
X5.6Y-3.5
X5.6Y-3.6
X5.6Y-3.7
X5.6Y-3.8
X5.6Y-3.9
X5.6Y-4.
X5.6Y-4.1
X5.6Y-4.2
X5.6Y-4.3
X5.6Y-4.4
X5.6Y-4.5
X5.6Y-4.6
X5.6Y-4.7
X5.6Y-4.8
X5.6Y-4.9
X5.6Y-5.
X5.6Y-5.1
X5.6Y-5.2
X5.6Y-5.2975
X5.7Y-2.2
X5.7Y-2.3
X5.7Y-2.4
X5.7Y-2.5
X5.7Y-2.6
X5.7Y-2.7
X5.7Y-2.8
X5.7Y-2.9
X5.7Y-3.
X5.7Y-3.1
X5.7Y-3.2
X5.7Y-3.3
X5.7Y-3.4
X5.7Y-3.5
X5.7Y-3.6
X5.7Y-3.7
X5.7Y-3.8
X5.7Y-3.9
X5.7Y-4.
X5.7Y-4.1
X5.7Y-4.2
X5.7Y-4.3
X5.7Y-4.4
X5.7Y-4.5
X5.7Y-4.6
X5.7Y-4.7
X5.7Y-4.8
X5.7Y-4.9
X5.7Y-5.
X5.7Y-5.1
X5.7Y-5.2
X5.7Y-5.3
X3.2Y-2.2
X3.2Y-2.3
X3.2Y-2.4
X3.2Y-2.5
X3.2Y-2.6
X3.2Y-2.7
X3.2Y-2.8
X3.2Y-2.9
X3.2Y-3.
X3.2Y-3.1
X3.2Y-3.2
X3.2Y-3.3
X3.2Y-3.4
X3.2Y-3.5
X3.2Y-3.6
X3.2Y-3.7
X3.2Y-3.8
X3.2Y-3.9
X3.2Y-4.
X3.2Y-4.1
X3.2Y-4.2
X3.2Y-4.3
X3.2Y-4.4
X3.2Y-4.5
X3.2Y-4.6
X3.2Y-4.7
X3.2Y-4.8
X3.2Y-4.9
X3.2Y-5.
X3.2Y-5.1
X3.2Y-5.2
X3.2Y-5.3
X3.3Y-2.2
X3.3Y-2.3
X3.3Y-2.4
X3.3Y-2.5
X3.3Y-2.6
X3.3Y-2.7
X3.3Y-2.8
X3.3Y-2.9
X3.3Y-3.
X3.3Y-3.1
X3.3Y-3.2
X3.3Y-3.3
X3.3Y-3.4
X3.3Y-3.5
X3.3Y-3.6
X3.3Y-3.7
X3.3Y-3.8
X3.3Y-3.9
X3.3Y-4.
X3.3Y-4.1
X3.3Y-4.2
X3.3Y-4.3
X3.3Y-4.4
X3.3Y-4.5
X3.3Y-4.6
X3.3Y-4.7
X3.3Y-4.8
X3.3Y-4.9
X3.3Y-5.
X3.3Y-5.1
X3.3Y-5.2
X3.3Y-5.3
T3
X14.Y-6.9
X14.Y-7.1
X14.Y-7.3
X14.Y-7.5
X14.Y-7.7
X14.Y-7.9
X14.Y-8.1
X12.2Y-6.9
X12.2Y-7.1
X12.2Y-7.3
X12.2Y-7.5
X12.2Y-7.7
X12.2Y-7.9
X12.2Y-8.1
X11.6Y-9.1
X11.6Y-9.3
X11.6Y-9.5
X11.6Y-9.7
X11.6Y-9.9
X11.6Y-10.1
X11.6Y-10.3
X11.6Y-10.5
X9.8Y-9.1
X9.8Y-9.3
X9.8Y-9.5
X9.8Y-9.7
X9.8Y-9.9
X9.8Y-10.1
X9.8Y-10.3
X9.8Y-10.5
X5.Y-8.4
X5.Y-8.6
X5.Y-8.8
X6.8Y-8.4
X6.8Y-8.6
X6.8Y-8.8
X5.6Y-8.4
X5.6Y-8.6
X5.6Y-8.8
X13.4Y-9.1
X13.4Y-9.3
X13.4Y-9.5
X13.4Y-9.7
X13.4Y-9.9
X13.4Y-10.1
X13.4Y-10.3
X13.4Y-10.5
X2.Y-7.
X2.Y-7.2
X2.Y-7.4
X2.Y-7.6
X2.Y-7.8
X2.Y-8.
X11.Y-6.9
X11.Y-7.1
X11.Y-7.3
X11.Y-7.5
X11.Y-7.7
X11.Y-7.9
X11.Y-8.1
X5.6Y-6.9
X5.6Y-7.1
X5.6Y-7.3
X5.6Y-7.5
X5.6Y-7.7
X5.6Y-7.9
X5.6Y-8.1
X14.Y-9.1
X14.Y-9.3
X14.Y-9.5
X14.Y-9.7
X14.Y-9.9
X14.Y-10.1
X14.Y-10.3
X14.Y-10.5
X11.Y-9.1
X11.Y-9.3
X11.Y-9.5
X11.Y-9.7
X11.Y-9.9
X11.Y-10.1
X11.Y-10.3
X11.Y-10.5
X6.8Y-6.9
X6.8Y-7.1
X6.8Y-7.3
X6.8Y-7.5
X6.8Y-7.7
X6.8Y-7.9
X6.8Y-8.1
X3.2Y-8.4
X3.2Y-8.6
X3.2Y-8.8
X6.8Y-9.1
X6.8Y-9.3
X6.8Y-9.5
X6.8Y-9.7
X6.8Y-9.9
X6.8Y-10.1
X6.8Y-10.3
X6.8Y-10.5
X0.905Y-9.7175
X0.905Y-9.9175
X0.905Y-10.1175
X9.2Y-6.9
X9.2Y-7.1
X9.2Y-7.3
X9.2Y-7.5
X9.2Y-7.7
X9.2Y-7.9
X9.2Y-8.1
X9.2Y-8.3
X9.2Y-8.5
X9.2Y-8.7
X9.2Y-8.9
X9.2Y-9.1
X9.2Y-9.3
X9.2Y-9.5
X9.2Y-9.7
X9.2Y-9.9
X12.2Y-9.1
X12.2Y-9.3
X12.2Y-9.5
X12.2Y-9.7
X12.2Y-9.9
X12.2Y-10.1
X12.2Y-10.3
X12.2Y-10.5
X6.2Y-6.9
X6.2Y-7.1
X6.2Y-7.3
X6.2Y-7.5
X6.2Y-7.7
X6.2Y-7.9
X6.2Y-8.1
X4.4Y-8.4
X4.4Y-8.6
X4.4Y-8.8
X10.4Y-6.9
X10.4Y-7.1
X10.4Y-7.3
X10.4Y-7.5
X10.4Y-7.7
X10.4Y-7.9
X10.4Y-8.1
X12.8Y-9.1
X12.8Y-9.3
X12.8Y-9.5
X12.8Y-9.7
X12.8Y-9.9
X12.8Y-10.1
X12.8Y-10.3
X12.8Y-10.5
X3.2Y-9.1
X3.2Y-9.3
X3.2Y-9.5
X3.2Y-9.7
X3.2Y-9.9
X3.2Y-10.1
X3.2Y-10.3
X3.2Y-10.5
X11.Y-8.4
X11.Y-8.6
X11.Y-8.8
X13.4Y-8.4
X13.4Y-8.6
X13.4Y-8.8
X11.6Y-6.9
X11.6Y-7.1
X11.6Y-7.3
X11.6Y-7.5
X11.6Y-7.7
X11.6Y-7.9
X11.6Y-8.1
X2.6Y-8.4
X2.6Y-8.6
X2.6Y-8.8
X7.4Y-6.9
X7.4Y-7.1
X7.4Y-7.3
X7.4Y-7.5
X7.4Y-7.7
X7.4Y-7.9
X7.4Y-8.1
X4.4Y-9.1
X4.4Y-9.3
X4.4Y-9.5
X4.4Y-9.7
X4.4Y-9.9
X4.4Y-10.1
X4.4Y-10.3
X4.4Y-10.5
X7.4Y-8.4
X7.4Y-8.6
X7.4Y-8.8
X6.2Y-9.1
X6.2Y-9.3
X6.2Y-9.5
X6.2Y-9.7
X6.2Y-9.9
X6.2Y-10.1
X6.2Y-10.3
X6.2Y-10.5
X10.4Y-8.4
X10.4Y-8.6
X10.4Y-8.8
X3.8Y-6.9
X3.8Y-7.1
X3.8Y-7.3
X3.8Y-7.5
X3.8Y-7.7
X3.8Y-7.9
X3.8Y-8.1
X14.6Y-8.4
X14.6Y-8.6
X14.6Y-8.8
X4.4Y-6.9
X4.4Y-7.1
X4.4Y-7.3
X4.4Y-7.5
X4.4Y-7.7
X4.4Y-7.9
X4.4Y-8.1
X10.4Y-9.1
X10.4Y-9.3
X10.4Y-9.5
X10.4Y-9.7
X10.4Y-9.9
X10.4Y-10.1
X10.4Y-10.3
X10.4Y-10.5
X9.8Y-6.9
X9.8Y-7.1
X9.8Y-7.3
X9.8Y-7.5
X9.8Y-7.7
X9.8Y-7.9
X9.8Y-8.1
X13.4Y-6.9
X13.4Y-7.1
X13.4Y-7.3
X13.4Y-7.5
X13.4Y-7.7
X13.4Y-7.9
X13.4Y-8.1
X12.8Y-6.9
X12.8Y-7.1
X12.8Y-7.3
X12.8Y-7.5
X12.8Y-7.7
X12.8Y-7.9
X12.8Y-8.1
X3.8Y-9.1
X3.8Y-9.3
X3.8Y-9.5
X3.8Y-9.7
X3.8Y-9.9
X3.8Y-10.1
X3.8Y-10.3
X3.8Y-10.5
X6.2Y-8.4
X6.2Y-8.6
X6.2Y-8.8
X5.6Y-9.1
X5.6Y-9.3
X5.6Y-9.5
X5.6Y-9.7
X5.6Y-9.9
X5.6Y-10.1
X5.6Y-10.3
X5.6Y-10.5
X12.8Y-8.4
X12.8Y-8.6
X12.8Y-8.8
X2.6Y-6.9
X2.6Y-7.1
X2.6Y-7.3
X2.6Y-7.5
X2.6Y-7.7
X2.6Y-7.9
X2.6Y-8.1
X14.Y-8.4
X14.Y-8.6
X14.Y-8.8
X3.2Y-6.9
X3.2Y-7.1
X3.2Y-7.3
X3.2Y-7.5
X3.2Y-7.7
X3.2Y-7.9
X3.2Y-8.1
X7.4Y-9.1
X7.4Y-9.3
X7.4Y-9.5
X7.4Y-9.7
X7.4Y-9.9
X7.4Y-10.1
X7.4Y-10.3
X7.4Y-10.5
X1.4Y-7.
X1.4Y-7.2
X1.4Y-7.4
X1.4Y-7.6
X1.4Y-7.8
X1.4Y-8.
X5.Y-6.9
X5.Y-7.1
X5.Y-7.3
X5.Y-7.5
X5.Y-7.7
X5.Y-7.9
X5.Y-8.1
X3.8Y-8.4
X3.8Y-8.6
X3.8Y-8.8
X14.6Y-6.9
X14.6Y-7.1
X14.6Y-7.3
X14.6Y-7.5
X14.6Y-7.7
X14.6Y-7.9
X14.6Y-8.1
X14.6Y-9.1
X14.6Y-9.3
X14.6Y-9.5
X14.6Y-9.7
X14.6Y-9.9
X14.6Y-10.1
X14.6Y-10.3
X14.6Y-10.5
X2.6Y-9.1
X2.6Y-9.3
X2.6Y-9.5
X2.6Y-9.7
X2.6Y-9.9
X2.6Y-10.1
X2.6Y-10.3
X2.6Y-10.5
X9.8Y-8.4
X9.8Y-8.6
X9.8Y-8.8
X5.Y-9.1
X5.Y-9.3
X5.Y-9.5
X5.Y-9.7
X5.Y-9.9
X5.Y-10.1
X5.Y-10.3
X5.Y-10.5
X12.2Y-8.4
X12.2Y-8.6
X12.2Y-8.8
X11.6Y-8.4
X11.6Y-8.6
X11.6Y-8.8
X8.Y-6.9
X8.Y-7.1
X8.Y-7.3
X8.Y-7.5
X8.Y-7.7
X8.Y-7.9
X8.Y-8.1
X8.Y-8.3
X8.Y-8.5
X8.Y-8.7
X8.Y-8.9
X8.Y-9.1
X8.Y-9.3
X8.Y-9.5
X8.Y-9.7
X8.Y-9.9
T0
M30
