G04 #@! TF.GenerationSoftware,KiCad,Pcbnew,(5.0.0)*
G04 #@! TF.CreationDate,2020-07-19T12:26:23+01:00*
G04 #@! TF.ProjectId,Backplane1,4261636B706C616E65312E6B69636164,rev?*
G04 #@! TF.SameCoordinates,Original*
G04 #@! TF.FileFunction,Soldermask,Bot*
G04 #@! TF.FilePolarity,Negative*
%FSLAX46Y46*%
G04 Gerber Fmt 4.6, Leading zero omitted, Abs format (unit mm)*
G04 Created by KiCad (PCBNEW (5.0.0)) date 07/19/20 12:26:23*
%MOMM*%
%LPD*%
G01*
G04 APERTURE LIST*
%ADD10C,2.700000*%
%ADD11R,2.600000X2.600000*%
%ADD12C,2.600000*%
%ADD13C,2.800000*%
%ADD14C,1.700000*%
%ADD15R,1.700000X1.700000*%
%ADD16C,1.520000*%
%ADD17R,1.520000X1.520000*%
%ADD18C,3.050000*%
G04 APERTURE END LIST*
D10*
G04 #@! TO.C,TH335*
X39370000Y-286680000D03*
G04 #@! TD*
G04 #@! TO.C,TH53*
X313690000Y-30830000D03*
G04 #@! TD*
G04 #@! TO.C,TH3*
X222250000Y-164180000D03*
G04 #@! TD*
G04 #@! TO.C,TH4*
X222250000Y-286680000D03*
G04 #@! TD*
G04 #@! TO.C,TH251*
X283210000Y-164180000D03*
G04 #@! TD*
G04 #@! TO.C,TH239*
X100330000Y-164180000D03*
G04 #@! TD*
G04 #@! TO.C,TH235*
X39370000Y-164180000D03*
G04 #@! TD*
G04 #@! TO.C,TH151*
X283210000Y-153330000D03*
G04 #@! TD*
G04 #@! TO.C,TH139*
X100330000Y-153330000D03*
G04 #@! TD*
G04 #@! TO.C,TH135*
X39370000Y-153330000D03*
G04 #@! TD*
G04 #@! TO.C,TH2*
X222250000Y-153330000D03*
G04 #@! TD*
G04 #@! TO.C,TH1*
X222250000Y-30830000D03*
G04 #@! TD*
G04 #@! TO.C,TH45*
X191770000Y-30830000D03*
G04 #@! TD*
G04 #@! TO.C,TH33*
X19050000Y-30830000D03*
G04 #@! TD*
G04 #@! TO.C,TH35*
X39370000Y-30830000D03*
G04 #@! TD*
G04 #@! TO.C,TH37*
X69850000Y-30830000D03*
G04 #@! TD*
G04 #@! TO.C,TH39*
X100330000Y-30830000D03*
G04 #@! TD*
G04 #@! TO.C,TH41*
X130810000Y-30830000D03*
G04 #@! TD*
G04 #@! TO.C,TH43*
X161290000Y-30830000D03*
G04 #@! TD*
G04 #@! TO.C,TH49*
X252730000Y-30830000D03*
G04 #@! TD*
G04 #@! TO.C,TH51*
X283210000Y-30830000D03*
G04 #@! TD*
G04 #@! TO.C,TH55*
X344170000Y-30830000D03*
G04 #@! TD*
G04 #@! TO.C,TH333*
X19050000Y-286680000D03*
G04 #@! TD*
G04 #@! TO.C,TH337*
X69850000Y-286680000D03*
G04 #@! TD*
G04 #@! TO.C,TH339*
X100330000Y-286680000D03*
G04 #@! TD*
G04 #@! TO.C,TH341*
X130810000Y-286680000D03*
G04 #@! TD*
G04 #@! TO.C,TH343*
X161290000Y-286680000D03*
G04 #@! TD*
G04 #@! TO.C,TH345*
X191770000Y-286680000D03*
G04 #@! TD*
G04 #@! TO.C,TH348*
X252730000Y-286680000D03*
G04 #@! TD*
G04 #@! TO.C,TH350*
X283210000Y-286680000D03*
G04 #@! TD*
G04 #@! TO.C,TH352*
X313690000Y-286680000D03*
G04 #@! TD*
G04 #@! TO.C,TH354*
X344170000Y-286680000D03*
G04 #@! TD*
G04 #@! TO.C,TH256*
X374650000Y-164180000D03*
G04 #@! TD*
G04 #@! TO.C,TH156*
X374650000Y-153330000D03*
G04 #@! TD*
G04 #@! TO.C,TH56*
X374650000Y-30830000D03*
G04 #@! TD*
G04 #@! TO.C,TH356*
X374650000Y-286680000D03*
G04 #@! TD*
D11*
G04 #@! TO.C,J1*
X212598000Y-40982900D03*
D12*
X217678000Y-40982900D03*
X222758000Y-40982900D03*
G04 #@! TD*
D13*
G04 #@! TO.C,J34*
X22560000Y-50250000D03*
X22560000Y-140250000D03*
D14*
X22860000Y-55880000D03*
X20320000Y-55880000D03*
X22860000Y-58420000D03*
X20320000Y-58420000D03*
X22860000Y-60960000D03*
X20320000Y-60960000D03*
X22860000Y-63500000D03*
X20320000Y-63500000D03*
X22860000Y-66040000D03*
X20320000Y-66040000D03*
X22860000Y-68580000D03*
X20320000Y-68580000D03*
X22860000Y-71120000D03*
X20320000Y-71120000D03*
X22860000Y-73660000D03*
X20320000Y-73660000D03*
X22860000Y-76200000D03*
X20320000Y-76200000D03*
X22860000Y-78740000D03*
X20320000Y-78740000D03*
X22860000Y-81280000D03*
X20320000Y-81280000D03*
X22860000Y-83820000D03*
X20320000Y-83820000D03*
X22860000Y-86360000D03*
X20320000Y-86360000D03*
X22860000Y-88900000D03*
X20320000Y-88900000D03*
X22860000Y-91440000D03*
X20320000Y-91440000D03*
X22860000Y-93980000D03*
X20320000Y-93980000D03*
X22860000Y-96520000D03*
X20320000Y-96520000D03*
X22860000Y-99060000D03*
X20320000Y-99060000D03*
X22860000Y-101600000D03*
X20320000Y-101600000D03*
X22860000Y-104140000D03*
X20320000Y-104140000D03*
X22860000Y-106680000D03*
X20320000Y-106680000D03*
X22860000Y-109220000D03*
X20320000Y-109220000D03*
X22860000Y-111760000D03*
X20320000Y-111760000D03*
X22860000Y-114300000D03*
X20320000Y-114300000D03*
X22860000Y-116840000D03*
X20320000Y-116840000D03*
X22860000Y-119380000D03*
X20320000Y-119380000D03*
X22860000Y-121920000D03*
X20320000Y-121920000D03*
X22860000Y-124460000D03*
X20320000Y-124460000D03*
X22860000Y-127000000D03*
X20320000Y-127000000D03*
X22860000Y-129540000D03*
X20320000Y-129540000D03*
X22860000Y-132080000D03*
X20320000Y-132080000D03*
X22860000Y-134620000D03*
D15*
X20320000Y-134620000D03*
G04 #@! TD*
D13*
G04 #@! TO.C,J35*
X37800000Y-50250000D03*
X37800000Y-140250000D03*
D14*
X38100000Y-55880000D03*
X35560000Y-55880000D03*
X38100000Y-58420000D03*
X35560000Y-58420000D03*
X38100000Y-60960000D03*
X35560000Y-60960000D03*
X38100000Y-63500000D03*
X35560000Y-63500000D03*
X38100000Y-66040000D03*
X35560000Y-66040000D03*
X38100000Y-68580000D03*
X35560000Y-68580000D03*
X38100000Y-71120000D03*
X35560000Y-71120000D03*
X38100000Y-73660000D03*
X35560000Y-73660000D03*
X38100000Y-76200000D03*
X35560000Y-76200000D03*
X38100000Y-78740000D03*
X35560000Y-78740000D03*
X38100000Y-81280000D03*
X35560000Y-81280000D03*
X38100000Y-83820000D03*
X35560000Y-83820000D03*
X38100000Y-86360000D03*
X35560000Y-86360000D03*
X38100000Y-88900000D03*
X35560000Y-88900000D03*
X38100000Y-91440000D03*
X35560000Y-91440000D03*
X38100000Y-93980000D03*
X35560000Y-93980000D03*
X38100000Y-96520000D03*
X35560000Y-96520000D03*
X38100000Y-99060000D03*
X35560000Y-99060000D03*
X38100000Y-101600000D03*
X35560000Y-101600000D03*
X38100000Y-104140000D03*
X35560000Y-104140000D03*
X38100000Y-106680000D03*
X35560000Y-106680000D03*
X38100000Y-109220000D03*
X35560000Y-109220000D03*
X38100000Y-111760000D03*
X35560000Y-111760000D03*
X38100000Y-114300000D03*
X35560000Y-114300000D03*
X38100000Y-116840000D03*
X35560000Y-116840000D03*
X38100000Y-119380000D03*
X35560000Y-119380000D03*
X38100000Y-121920000D03*
X35560000Y-121920000D03*
X38100000Y-124460000D03*
X35560000Y-124460000D03*
X38100000Y-127000000D03*
X35560000Y-127000000D03*
X38100000Y-129540000D03*
X35560000Y-129540000D03*
X38100000Y-132080000D03*
X35560000Y-132080000D03*
X38100000Y-134620000D03*
D15*
X35560000Y-134620000D03*
G04 #@! TD*
D13*
G04 #@! TO.C,J36*
X53040000Y-50250000D03*
X53040000Y-140250000D03*
D14*
X53340000Y-55880000D03*
X50800000Y-55880000D03*
X53340000Y-58420000D03*
X50800000Y-58420000D03*
X53340000Y-60960000D03*
X50800000Y-60960000D03*
X53340000Y-63500000D03*
X50800000Y-63500000D03*
X53340000Y-66040000D03*
X50800000Y-66040000D03*
X53340000Y-68580000D03*
X50800000Y-68580000D03*
X53340000Y-71120000D03*
X50800000Y-71120000D03*
X53340000Y-73660000D03*
X50800000Y-73660000D03*
X53340000Y-76200000D03*
X50800000Y-76200000D03*
X53340000Y-78740000D03*
X50800000Y-78740000D03*
X53340000Y-81280000D03*
X50800000Y-81280000D03*
X53340000Y-83820000D03*
X50800000Y-83820000D03*
X53340000Y-86360000D03*
X50800000Y-86360000D03*
X53340000Y-88900000D03*
X50800000Y-88900000D03*
X53340000Y-91440000D03*
X50800000Y-91440000D03*
X53340000Y-93980000D03*
X50800000Y-93980000D03*
X53340000Y-96520000D03*
X50800000Y-96520000D03*
X53340000Y-99060000D03*
X50800000Y-99060000D03*
X53340000Y-101600000D03*
X50800000Y-101600000D03*
X53340000Y-104140000D03*
X50800000Y-104140000D03*
X53340000Y-106680000D03*
X50800000Y-106680000D03*
X53340000Y-109220000D03*
X50800000Y-109220000D03*
X53340000Y-111760000D03*
X50800000Y-111760000D03*
X53340000Y-114300000D03*
X50800000Y-114300000D03*
X53340000Y-116840000D03*
X50800000Y-116840000D03*
X53340000Y-119380000D03*
X50800000Y-119380000D03*
X53340000Y-121920000D03*
X50800000Y-121920000D03*
X53340000Y-124460000D03*
X50800000Y-124460000D03*
X53340000Y-127000000D03*
X50800000Y-127000000D03*
X53340000Y-129540000D03*
X50800000Y-129540000D03*
X53340000Y-132080000D03*
X50800000Y-132080000D03*
X53340000Y-134620000D03*
D15*
X50800000Y-134620000D03*
G04 #@! TD*
D13*
G04 #@! TO.C,J46*
X205440000Y-50250000D03*
X205440000Y-140250000D03*
D14*
X205740000Y-55880000D03*
X203200000Y-55880000D03*
X205740000Y-58420000D03*
X203200000Y-58420000D03*
X205740000Y-60960000D03*
X203200000Y-60960000D03*
X205740000Y-63500000D03*
X203200000Y-63500000D03*
X205740000Y-66040000D03*
X203200000Y-66040000D03*
X205740000Y-68580000D03*
X203200000Y-68580000D03*
X205740000Y-71120000D03*
X203200000Y-71120000D03*
X205740000Y-73660000D03*
X203200000Y-73660000D03*
X205740000Y-76200000D03*
X203200000Y-76200000D03*
X205740000Y-78740000D03*
X203200000Y-78740000D03*
X205740000Y-81280000D03*
X203200000Y-81280000D03*
X205740000Y-83820000D03*
X203200000Y-83820000D03*
X205740000Y-86360000D03*
X203200000Y-86360000D03*
X205740000Y-88900000D03*
X203200000Y-88900000D03*
X205740000Y-91440000D03*
X203200000Y-91440000D03*
X205740000Y-93980000D03*
X203200000Y-93980000D03*
X205740000Y-96520000D03*
X203200000Y-96520000D03*
X205740000Y-99060000D03*
X203200000Y-99060000D03*
X205740000Y-101600000D03*
X203200000Y-101600000D03*
X205740000Y-104140000D03*
X203200000Y-104140000D03*
X205740000Y-106680000D03*
X203200000Y-106680000D03*
X205740000Y-109220000D03*
X203200000Y-109220000D03*
X205740000Y-111760000D03*
X203200000Y-111760000D03*
X205740000Y-114300000D03*
X203200000Y-114300000D03*
X205740000Y-116840000D03*
X203200000Y-116840000D03*
X205740000Y-119380000D03*
X203200000Y-119380000D03*
X205740000Y-121920000D03*
X203200000Y-121920000D03*
X205740000Y-124460000D03*
X203200000Y-124460000D03*
X205740000Y-127000000D03*
X203200000Y-127000000D03*
X205740000Y-129540000D03*
X203200000Y-129540000D03*
X205740000Y-132080000D03*
X203200000Y-132080000D03*
X205740000Y-134620000D03*
D15*
X203200000Y-134620000D03*
G04 #@! TD*
D13*
G04 #@! TO.C,J37*
X68280000Y-50250000D03*
X68280000Y-140250000D03*
D14*
X68580000Y-55880000D03*
X66040000Y-55880000D03*
X68580000Y-58420000D03*
X66040000Y-58420000D03*
X68580000Y-60960000D03*
X66040000Y-60960000D03*
X68580000Y-63500000D03*
X66040000Y-63500000D03*
X68580000Y-66040000D03*
X66040000Y-66040000D03*
X68580000Y-68580000D03*
X66040000Y-68580000D03*
X68580000Y-71120000D03*
X66040000Y-71120000D03*
X68580000Y-73660000D03*
X66040000Y-73660000D03*
X68580000Y-76200000D03*
X66040000Y-76200000D03*
X68580000Y-78740000D03*
X66040000Y-78740000D03*
X68580000Y-81280000D03*
X66040000Y-81280000D03*
X68580000Y-83820000D03*
X66040000Y-83820000D03*
X68580000Y-86360000D03*
X66040000Y-86360000D03*
X68580000Y-88900000D03*
X66040000Y-88900000D03*
X68580000Y-91440000D03*
X66040000Y-91440000D03*
X68580000Y-93980000D03*
X66040000Y-93980000D03*
X68580000Y-96520000D03*
X66040000Y-96520000D03*
X68580000Y-99060000D03*
X66040000Y-99060000D03*
X68580000Y-101600000D03*
X66040000Y-101600000D03*
X68580000Y-104140000D03*
X66040000Y-104140000D03*
X68580000Y-106680000D03*
X66040000Y-106680000D03*
X68580000Y-109220000D03*
X66040000Y-109220000D03*
X68580000Y-111760000D03*
X66040000Y-111760000D03*
X68580000Y-114300000D03*
X66040000Y-114300000D03*
X68580000Y-116840000D03*
X66040000Y-116840000D03*
X68580000Y-119380000D03*
X66040000Y-119380000D03*
X68580000Y-121920000D03*
X66040000Y-121920000D03*
X68580000Y-124460000D03*
X66040000Y-124460000D03*
X68580000Y-127000000D03*
X66040000Y-127000000D03*
X68580000Y-129540000D03*
X66040000Y-129540000D03*
X68580000Y-132080000D03*
X66040000Y-132080000D03*
X68580000Y-134620000D03*
D15*
X66040000Y-134620000D03*
G04 #@! TD*
D13*
G04 #@! TO.C,J38*
X83520000Y-50250000D03*
X83520000Y-140250000D03*
D14*
X83820000Y-55880000D03*
X81280000Y-55880000D03*
X83820000Y-58420000D03*
X81280000Y-58420000D03*
X83820000Y-60960000D03*
X81280000Y-60960000D03*
X83820000Y-63500000D03*
X81280000Y-63500000D03*
X83820000Y-66040000D03*
X81280000Y-66040000D03*
X83820000Y-68580000D03*
X81280000Y-68580000D03*
X83820000Y-71120000D03*
X81280000Y-71120000D03*
X83820000Y-73660000D03*
X81280000Y-73660000D03*
X83820000Y-76200000D03*
X81280000Y-76200000D03*
X83820000Y-78740000D03*
X81280000Y-78740000D03*
X83820000Y-81280000D03*
X81280000Y-81280000D03*
X83820000Y-83820000D03*
X81280000Y-83820000D03*
X83820000Y-86360000D03*
X81280000Y-86360000D03*
X83820000Y-88900000D03*
X81280000Y-88900000D03*
X83820000Y-91440000D03*
X81280000Y-91440000D03*
X83820000Y-93980000D03*
X81280000Y-93980000D03*
X83820000Y-96520000D03*
X81280000Y-96520000D03*
X83820000Y-99060000D03*
X81280000Y-99060000D03*
X83820000Y-101600000D03*
X81280000Y-101600000D03*
X83820000Y-104140000D03*
X81280000Y-104140000D03*
X83820000Y-106680000D03*
X81280000Y-106680000D03*
X83820000Y-109220000D03*
X81280000Y-109220000D03*
X83820000Y-111760000D03*
X81280000Y-111760000D03*
X83820000Y-114300000D03*
X81280000Y-114300000D03*
X83820000Y-116840000D03*
X81280000Y-116840000D03*
X83820000Y-119380000D03*
X81280000Y-119380000D03*
X83820000Y-121920000D03*
X81280000Y-121920000D03*
X83820000Y-124460000D03*
X81280000Y-124460000D03*
X83820000Y-127000000D03*
X81280000Y-127000000D03*
X83820000Y-129540000D03*
X81280000Y-129540000D03*
X83820000Y-132080000D03*
X81280000Y-132080000D03*
X83820000Y-134620000D03*
D15*
X81280000Y-134620000D03*
G04 #@! TD*
D13*
G04 #@! TO.C,J39*
X98760000Y-50250000D03*
X98760000Y-140250000D03*
D14*
X99060000Y-55880000D03*
X96520000Y-55880000D03*
X99060000Y-58420000D03*
X96520000Y-58420000D03*
X99060000Y-60960000D03*
X96520000Y-60960000D03*
X99060000Y-63500000D03*
X96520000Y-63500000D03*
X99060000Y-66040000D03*
X96520000Y-66040000D03*
X99060000Y-68580000D03*
X96520000Y-68580000D03*
X99060000Y-71120000D03*
X96520000Y-71120000D03*
X99060000Y-73660000D03*
X96520000Y-73660000D03*
X99060000Y-76200000D03*
X96520000Y-76200000D03*
X99060000Y-78740000D03*
X96520000Y-78740000D03*
X99060000Y-81280000D03*
X96520000Y-81280000D03*
X99060000Y-83820000D03*
X96520000Y-83820000D03*
X99060000Y-86360000D03*
X96520000Y-86360000D03*
X99060000Y-88900000D03*
X96520000Y-88900000D03*
X99060000Y-91440000D03*
X96520000Y-91440000D03*
X99060000Y-93980000D03*
X96520000Y-93980000D03*
X99060000Y-96520000D03*
X96520000Y-96520000D03*
X99060000Y-99060000D03*
X96520000Y-99060000D03*
X99060000Y-101600000D03*
X96520000Y-101600000D03*
X99060000Y-104140000D03*
X96520000Y-104140000D03*
X99060000Y-106680000D03*
X96520000Y-106680000D03*
X99060000Y-109220000D03*
X96520000Y-109220000D03*
X99060000Y-111760000D03*
X96520000Y-111760000D03*
X99060000Y-114300000D03*
X96520000Y-114300000D03*
X99060000Y-116840000D03*
X96520000Y-116840000D03*
X99060000Y-119380000D03*
X96520000Y-119380000D03*
X99060000Y-121920000D03*
X96520000Y-121920000D03*
X99060000Y-124460000D03*
X96520000Y-124460000D03*
X99060000Y-127000000D03*
X96520000Y-127000000D03*
X99060000Y-129540000D03*
X96520000Y-129540000D03*
X99060000Y-132080000D03*
X96520000Y-132080000D03*
X99060000Y-134620000D03*
D15*
X96520000Y-134620000D03*
G04 #@! TD*
D13*
G04 #@! TO.C,J40*
X114000000Y-50250000D03*
X114000000Y-140250000D03*
D14*
X114300000Y-55880000D03*
X111760000Y-55880000D03*
X114300000Y-58420000D03*
X111760000Y-58420000D03*
X114300000Y-60960000D03*
X111760000Y-60960000D03*
X114300000Y-63500000D03*
X111760000Y-63500000D03*
X114300000Y-66040000D03*
X111760000Y-66040000D03*
X114300000Y-68580000D03*
X111760000Y-68580000D03*
X114300000Y-71120000D03*
X111760000Y-71120000D03*
X114300000Y-73660000D03*
X111760000Y-73660000D03*
X114300000Y-76200000D03*
X111760000Y-76200000D03*
X114300000Y-78740000D03*
X111760000Y-78740000D03*
X114300000Y-81280000D03*
X111760000Y-81280000D03*
X114300000Y-83820000D03*
X111760000Y-83820000D03*
X114300000Y-86360000D03*
X111760000Y-86360000D03*
X114300000Y-88900000D03*
X111760000Y-88900000D03*
X114300000Y-91440000D03*
X111760000Y-91440000D03*
X114300000Y-93980000D03*
X111760000Y-93980000D03*
X114300000Y-96520000D03*
X111760000Y-96520000D03*
X114300000Y-99060000D03*
X111760000Y-99060000D03*
X114300000Y-101600000D03*
X111760000Y-101600000D03*
X114300000Y-104140000D03*
X111760000Y-104140000D03*
X114300000Y-106680000D03*
X111760000Y-106680000D03*
X114300000Y-109220000D03*
X111760000Y-109220000D03*
X114300000Y-111760000D03*
X111760000Y-111760000D03*
X114300000Y-114300000D03*
X111760000Y-114300000D03*
X114300000Y-116840000D03*
X111760000Y-116840000D03*
X114300000Y-119380000D03*
X111760000Y-119380000D03*
X114300000Y-121920000D03*
X111760000Y-121920000D03*
X114300000Y-124460000D03*
X111760000Y-124460000D03*
X114300000Y-127000000D03*
X111760000Y-127000000D03*
X114300000Y-129540000D03*
X111760000Y-129540000D03*
X114300000Y-132080000D03*
X111760000Y-132080000D03*
X114300000Y-134620000D03*
D15*
X111760000Y-134620000D03*
G04 #@! TD*
D13*
G04 #@! TO.C,J41*
X129240000Y-50250000D03*
X129240000Y-140250000D03*
D14*
X129540000Y-55880000D03*
X127000000Y-55880000D03*
X129540000Y-58420000D03*
X127000000Y-58420000D03*
X129540000Y-60960000D03*
X127000000Y-60960000D03*
X129540000Y-63500000D03*
X127000000Y-63500000D03*
X129540000Y-66040000D03*
X127000000Y-66040000D03*
X129540000Y-68580000D03*
X127000000Y-68580000D03*
X129540000Y-71120000D03*
X127000000Y-71120000D03*
X129540000Y-73660000D03*
X127000000Y-73660000D03*
X129540000Y-76200000D03*
X127000000Y-76200000D03*
X129540000Y-78740000D03*
X127000000Y-78740000D03*
X129540000Y-81280000D03*
X127000000Y-81280000D03*
X129540000Y-83820000D03*
X127000000Y-83820000D03*
X129540000Y-86360000D03*
X127000000Y-86360000D03*
X129540000Y-88900000D03*
X127000000Y-88900000D03*
X129540000Y-91440000D03*
X127000000Y-91440000D03*
X129540000Y-93980000D03*
X127000000Y-93980000D03*
X129540000Y-96520000D03*
X127000000Y-96520000D03*
X129540000Y-99060000D03*
X127000000Y-99060000D03*
X129540000Y-101600000D03*
X127000000Y-101600000D03*
X129540000Y-104140000D03*
X127000000Y-104140000D03*
X129540000Y-106680000D03*
X127000000Y-106680000D03*
X129540000Y-109220000D03*
X127000000Y-109220000D03*
X129540000Y-111760000D03*
X127000000Y-111760000D03*
X129540000Y-114300000D03*
X127000000Y-114300000D03*
X129540000Y-116840000D03*
X127000000Y-116840000D03*
X129540000Y-119380000D03*
X127000000Y-119380000D03*
X129540000Y-121920000D03*
X127000000Y-121920000D03*
X129540000Y-124460000D03*
X127000000Y-124460000D03*
X129540000Y-127000000D03*
X127000000Y-127000000D03*
X129540000Y-129540000D03*
X127000000Y-129540000D03*
X129540000Y-132080000D03*
X127000000Y-132080000D03*
X129540000Y-134620000D03*
D15*
X127000000Y-134620000D03*
G04 #@! TD*
D13*
G04 #@! TO.C,J42*
X144480000Y-50250000D03*
X144480000Y-140250000D03*
D14*
X144780000Y-55880000D03*
X142240000Y-55880000D03*
X144780000Y-58420000D03*
X142240000Y-58420000D03*
X144780000Y-60960000D03*
X142240000Y-60960000D03*
X144780000Y-63500000D03*
X142240000Y-63500000D03*
X144780000Y-66040000D03*
X142240000Y-66040000D03*
X144780000Y-68580000D03*
X142240000Y-68580000D03*
X144780000Y-71120000D03*
X142240000Y-71120000D03*
X144780000Y-73660000D03*
X142240000Y-73660000D03*
X144780000Y-76200000D03*
X142240000Y-76200000D03*
X144780000Y-78740000D03*
X142240000Y-78740000D03*
X144780000Y-81280000D03*
X142240000Y-81280000D03*
X144780000Y-83820000D03*
X142240000Y-83820000D03*
X144780000Y-86360000D03*
X142240000Y-86360000D03*
X144780000Y-88900000D03*
X142240000Y-88900000D03*
X144780000Y-91440000D03*
X142240000Y-91440000D03*
X144780000Y-93980000D03*
X142240000Y-93980000D03*
X144780000Y-96520000D03*
X142240000Y-96520000D03*
X144780000Y-99060000D03*
X142240000Y-99060000D03*
X144780000Y-101600000D03*
X142240000Y-101600000D03*
X144780000Y-104140000D03*
X142240000Y-104140000D03*
X144780000Y-106680000D03*
X142240000Y-106680000D03*
X144780000Y-109220000D03*
X142240000Y-109220000D03*
X144780000Y-111760000D03*
X142240000Y-111760000D03*
X144780000Y-114300000D03*
X142240000Y-114300000D03*
X144780000Y-116840000D03*
X142240000Y-116840000D03*
X144780000Y-119380000D03*
X142240000Y-119380000D03*
X144780000Y-121920000D03*
X142240000Y-121920000D03*
X144780000Y-124460000D03*
X142240000Y-124460000D03*
X144780000Y-127000000D03*
X142240000Y-127000000D03*
X144780000Y-129540000D03*
X142240000Y-129540000D03*
X144780000Y-132080000D03*
X142240000Y-132080000D03*
X144780000Y-134620000D03*
D15*
X142240000Y-134556000D03*
G04 #@! TD*
D13*
G04 #@! TO.C,J43*
X159720000Y-50250000D03*
X159720000Y-140250000D03*
D14*
X160020000Y-55880000D03*
X157480000Y-55880000D03*
X160020000Y-58420000D03*
X157480000Y-58420000D03*
X160020000Y-60960000D03*
X157480000Y-60960000D03*
X160020000Y-63500000D03*
X157480000Y-63500000D03*
X160020000Y-66040000D03*
X157480000Y-66040000D03*
X160020000Y-68580000D03*
X157480000Y-68580000D03*
X160020000Y-71120000D03*
X157480000Y-71120000D03*
X160020000Y-73660000D03*
X157480000Y-73660000D03*
X160020000Y-76200000D03*
X157480000Y-76200000D03*
X160020000Y-78740000D03*
X157480000Y-78740000D03*
X160020000Y-81280000D03*
X157480000Y-81280000D03*
X160020000Y-83820000D03*
X157480000Y-83820000D03*
X160020000Y-86360000D03*
X157480000Y-86360000D03*
X160020000Y-88900000D03*
X157480000Y-88900000D03*
X160020000Y-91440000D03*
X157480000Y-91440000D03*
X160020000Y-93980000D03*
X157480000Y-93980000D03*
X160020000Y-96520000D03*
X157480000Y-96520000D03*
X160020000Y-99060000D03*
X157480000Y-99060000D03*
X160020000Y-101600000D03*
X157480000Y-101600000D03*
X160020000Y-104140000D03*
X157480000Y-104140000D03*
X160020000Y-106680000D03*
X157480000Y-106680000D03*
X160020000Y-109220000D03*
X157480000Y-109220000D03*
X160020000Y-111760000D03*
X157480000Y-111760000D03*
X160020000Y-114300000D03*
X157480000Y-114300000D03*
X160020000Y-116840000D03*
X157480000Y-116840000D03*
X160020000Y-119380000D03*
X157480000Y-119380000D03*
X160020000Y-121920000D03*
X157480000Y-121920000D03*
X160020000Y-124460000D03*
X157480000Y-124460000D03*
X160020000Y-127000000D03*
X157480000Y-127000000D03*
X160020000Y-129540000D03*
X157480000Y-129540000D03*
X160020000Y-132080000D03*
X157480000Y-132080000D03*
X160020000Y-134620000D03*
D15*
X157480000Y-134620000D03*
G04 #@! TD*
D13*
G04 #@! TO.C,J44*
X174960000Y-50250000D03*
X174960000Y-140250000D03*
D14*
X175260000Y-55880000D03*
X172720000Y-55880000D03*
X175260000Y-58420000D03*
X172720000Y-58420000D03*
X175260000Y-60960000D03*
X172720000Y-60960000D03*
X175260000Y-63500000D03*
X172720000Y-63500000D03*
X175260000Y-66040000D03*
X172720000Y-66040000D03*
X175260000Y-68580000D03*
X172720000Y-68580000D03*
X175260000Y-71120000D03*
X172720000Y-71120000D03*
X175260000Y-73660000D03*
X172720000Y-73660000D03*
X175260000Y-76200000D03*
X172720000Y-76200000D03*
X175260000Y-78740000D03*
X172720000Y-78740000D03*
X175260000Y-81280000D03*
X172720000Y-81280000D03*
X175260000Y-83820000D03*
X172720000Y-83820000D03*
X175260000Y-86360000D03*
X172720000Y-86360000D03*
X175260000Y-88900000D03*
X172720000Y-88900000D03*
X175260000Y-91440000D03*
X172720000Y-91440000D03*
X175260000Y-93980000D03*
X172720000Y-93980000D03*
X175260000Y-96520000D03*
X172720000Y-96520000D03*
X175260000Y-99060000D03*
X172720000Y-99060000D03*
X175260000Y-101600000D03*
X172720000Y-101600000D03*
X175260000Y-104140000D03*
X172720000Y-104140000D03*
X175260000Y-106680000D03*
X172720000Y-106680000D03*
X175260000Y-109220000D03*
X172720000Y-109220000D03*
X175260000Y-111760000D03*
X172720000Y-111760000D03*
X175260000Y-114300000D03*
X172720000Y-114300000D03*
X175260000Y-116840000D03*
X172720000Y-116840000D03*
X175260000Y-119380000D03*
X172720000Y-119380000D03*
X175260000Y-121920000D03*
X172720000Y-121920000D03*
X175260000Y-124460000D03*
X172720000Y-124460000D03*
X175260000Y-127000000D03*
X172720000Y-127000000D03*
X175260000Y-129540000D03*
X172720000Y-129540000D03*
X175260000Y-132080000D03*
X172720000Y-132080000D03*
X175260000Y-134620000D03*
D15*
X172720000Y-134620000D03*
G04 #@! TD*
D13*
G04 #@! TO.C,J45*
X190200000Y-50250000D03*
X190200000Y-140250000D03*
D14*
X190500000Y-55880000D03*
X187960000Y-55880000D03*
X190500000Y-58420000D03*
X187960000Y-58420000D03*
X190500000Y-60960000D03*
X187960000Y-60960000D03*
X190500000Y-63500000D03*
X187960000Y-63500000D03*
X190500000Y-66040000D03*
X187960000Y-66040000D03*
X190500000Y-68580000D03*
X187960000Y-68580000D03*
X190500000Y-71120000D03*
X187960000Y-71120000D03*
X190500000Y-73660000D03*
X187960000Y-73660000D03*
X190500000Y-76200000D03*
X187960000Y-76200000D03*
X190500000Y-78740000D03*
X187960000Y-78740000D03*
X190500000Y-81280000D03*
X187960000Y-81280000D03*
X190500000Y-83820000D03*
X187960000Y-83820000D03*
X190500000Y-86360000D03*
X187960000Y-86360000D03*
X190500000Y-88900000D03*
X187960000Y-88900000D03*
X190500000Y-91440000D03*
X187960000Y-91440000D03*
X190500000Y-93980000D03*
X187960000Y-93980000D03*
X190500000Y-96520000D03*
X187960000Y-96520000D03*
X190500000Y-99060000D03*
X187960000Y-99060000D03*
X190500000Y-101600000D03*
X187960000Y-101600000D03*
X190500000Y-104140000D03*
X187960000Y-104140000D03*
X190500000Y-106680000D03*
X187960000Y-106680000D03*
X190500000Y-109220000D03*
X187960000Y-109220000D03*
X190500000Y-111760000D03*
X187960000Y-111760000D03*
X190500000Y-114300000D03*
X187960000Y-114300000D03*
X190500000Y-116840000D03*
X187960000Y-116840000D03*
X190500000Y-119380000D03*
X187960000Y-119380000D03*
X190500000Y-121920000D03*
X187960000Y-121920000D03*
X190500000Y-124460000D03*
X187960000Y-124460000D03*
X190500000Y-127000000D03*
X187960000Y-127000000D03*
X190500000Y-129540000D03*
X187960000Y-129540000D03*
X190500000Y-132080000D03*
X187960000Y-132080000D03*
X190500000Y-134620000D03*
D15*
X187960000Y-134620000D03*
G04 #@! TD*
D13*
G04 #@! TO.C,J47*
X235920000Y-50250000D03*
X235920000Y-140250000D03*
D14*
X236220000Y-55880000D03*
X233680000Y-55880000D03*
X236220000Y-58420000D03*
X233680000Y-58420000D03*
X236220000Y-60960000D03*
X233680000Y-60960000D03*
X236220000Y-63500000D03*
X233680000Y-63500000D03*
X236220000Y-66040000D03*
X233680000Y-66040000D03*
X236220000Y-68580000D03*
X233680000Y-68580000D03*
X236220000Y-71120000D03*
X233680000Y-71120000D03*
X236220000Y-73660000D03*
X233680000Y-73660000D03*
X236220000Y-76200000D03*
X233680000Y-76200000D03*
X236220000Y-78740000D03*
X233680000Y-78740000D03*
X236220000Y-81280000D03*
X233680000Y-81280000D03*
X236220000Y-83820000D03*
X233680000Y-83820000D03*
X236220000Y-86360000D03*
X233680000Y-86360000D03*
X236220000Y-88900000D03*
X233680000Y-88900000D03*
X236220000Y-91440000D03*
X233680000Y-91440000D03*
X236220000Y-93980000D03*
X233680000Y-93980000D03*
X236220000Y-96520000D03*
X233680000Y-96520000D03*
X236220000Y-99060000D03*
X233680000Y-99060000D03*
X236220000Y-101600000D03*
X233680000Y-101600000D03*
X236220000Y-104140000D03*
X233680000Y-104140000D03*
X236220000Y-106680000D03*
X233680000Y-106680000D03*
X236220000Y-109220000D03*
X233680000Y-109220000D03*
X236220000Y-111760000D03*
X233680000Y-111760000D03*
X236220000Y-114300000D03*
X233680000Y-114300000D03*
X236220000Y-116840000D03*
X233680000Y-116840000D03*
X236220000Y-119380000D03*
X233680000Y-119380000D03*
X236220000Y-121920000D03*
X233680000Y-121920000D03*
X236220000Y-124460000D03*
X233680000Y-124460000D03*
X236220000Y-127000000D03*
X233680000Y-127000000D03*
X236220000Y-129540000D03*
X233680000Y-129540000D03*
X236220000Y-132080000D03*
X233680000Y-132080000D03*
X236220000Y-134620000D03*
D15*
X233680000Y-134620000D03*
G04 #@! TD*
D13*
G04 #@! TO.C,J48*
X251160000Y-50250000D03*
X251160000Y-140250000D03*
D14*
X251460000Y-55880000D03*
X248920000Y-55880000D03*
X251460000Y-58420000D03*
X248920000Y-58420000D03*
X251460000Y-60960000D03*
X248920000Y-60960000D03*
X251460000Y-63500000D03*
X248920000Y-63500000D03*
X251460000Y-66040000D03*
X248920000Y-66040000D03*
X251460000Y-68580000D03*
X248920000Y-68580000D03*
X251460000Y-71120000D03*
X248920000Y-71120000D03*
X251460000Y-73660000D03*
X248920000Y-73660000D03*
X251460000Y-76200000D03*
X248920000Y-76200000D03*
X251460000Y-78740000D03*
X248920000Y-78740000D03*
X251460000Y-81280000D03*
X248920000Y-81280000D03*
X251460000Y-83820000D03*
X248920000Y-83820000D03*
X251460000Y-86360000D03*
X248920000Y-86360000D03*
X251460000Y-88900000D03*
X248920000Y-88900000D03*
X251460000Y-91440000D03*
X248920000Y-91440000D03*
X251460000Y-93980000D03*
X248920000Y-93980000D03*
X251460000Y-96520000D03*
X248920000Y-96520000D03*
X251460000Y-99060000D03*
X248920000Y-99060000D03*
X251460000Y-101600000D03*
X248920000Y-101600000D03*
X251460000Y-104140000D03*
X248920000Y-104140000D03*
X251460000Y-106680000D03*
X248920000Y-106680000D03*
X251460000Y-109220000D03*
X248920000Y-109220000D03*
X251460000Y-111760000D03*
X248920000Y-111760000D03*
X251460000Y-114300000D03*
X248920000Y-114300000D03*
X251460000Y-116840000D03*
X248920000Y-116840000D03*
X251460000Y-119380000D03*
X248920000Y-119380000D03*
X251460000Y-121920000D03*
X248920000Y-121920000D03*
X251460000Y-124460000D03*
X248920000Y-124460000D03*
X251460000Y-127000000D03*
X248920000Y-127000000D03*
X251460000Y-129540000D03*
X248920000Y-129540000D03*
X251460000Y-132080000D03*
X248920000Y-132080000D03*
X251460000Y-134620000D03*
D15*
X248920000Y-134620000D03*
G04 #@! TD*
D13*
G04 #@! TO.C,J49*
X266400000Y-50250000D03*
X266400000Y-140250000D03*
D14*
X266700000Y-55880000D03*
X264160000Y-55880000D03*
X266700000Y-58420000D03*
X264160000Y-58420000D03*
X266700000Y-60960000D03*
X264160000Y-60960000D03*
X266700000Y-63500000D03*
X264160000Y-63500000D03*
X266700000Y-66040000D03*
X264160000Y-66040000D03*
X266700000Y-68580000D03*
X264160000Y-68580000D03*
X266700000Y-71120000D03*
X264160000Y-71120000D03*
X266700000Y-73660000D03*
X264160000Y-73660000D03*
X266700000Y-76200000D03*
X264160000Y-76200000D03*
X266700000Y-78740000D03*
X264160000Y-78740000D03*
X266700000Y-81280000D03*
X264160000Y-81280000D03*
X266700000Y-83820000D03*
X264160000Y-83820000D03*
X266700000Y-86360000D03*
X264160000Y-86360000D03*
X266700000Y-88900000D03*
X264160000Y-88900000D03*
X266700000Y-91440000D03*
X264160000Y-91440000D03*
X266700000Y-93980000D03*
X264160000Y-93980000D03*
X266700000Y-96520000D03*
X264160000Y-96520000D03*
X266700000Y-99060000D03*
X264160000Y-99060000D03*
X266700000Y-101600000D03*
X264160000Y-101600000D03*
X266700000Y-104140000D03*
X264160000Y-104140000D03*
X266700000Y-106680000D03*
X264160000Y-106680000D03*
X266700000Y-109220000D03*
X264160000Y-109220000D03*
X266700000Y-111760000D03*
X264160000Y-111760000D03*
X266700000Y-114300000D03*
X264160000Y-114300000D03*
X266700000Y-116840000D03*
X264160000Y-116840000D03*
X266700000Y-119380000D03*
X264160000Y-119380000D03*
X266700000Y-121920000D03*
X264160000Y-121920000D03*
X266700000Y-124460000D03*
X264160000Y-124460000D03*
X266700000Y-127000000D03*
X264160000Y-127000000D03*
X266700000Y-129540000D03*
X264160000Y-129540000D03*
X266700000Y-132080000D03*
X264160000Y-132080000D03*
X266700000Y-134620000D03*
D15*
X264160000Y-134620000D03*
G04 #@! TD*
D13*
G04 #@! TO.C,J50*
X281640000Y-50250000D03*
X281640000Y-140250000D03*
D14*
X281940000Y-55880000D03*
X279400000Y-55880000D03*
X281940000Y-58420000D03*
X279400000Y-58420000D03*
X281940000Y-60960000D03*
X279400000Y-60960000D03*
X281940000Y-63500000D03*
X279400000Y-63500000D03*
X281940000Y-66040000D03*
X279400000Y-66040000D03*
X281940000Y-68580000D03*
X279400000Y-68580000D03*
X281940000Y-71120000D03*
X279400000Y-71120000D03*
X281940000Y-73660000D03*
X279400000Y-73660000D03*
X281940000Y-76200000D03*
X279400000Y-76200000D03*
X281940000Y-78740000D03*
X279400000Y-78740000D03*
X281940000Y-81280000D03*
X279400000Y-81280000D03*
X281940000Y-83820000D03*
X279400000Y-83820000D03*
X281940000Y-86360000D03*
X279400000Y-86360000D03*
X281940000Y-88900000D03*
X279400000Y-88900000D03*
X281940000Y-91440000D03*
X279400000Y-91440000D03*
X281940000Y-93980000D03*
X279400000Y-93980000D03*
X281940000Y-96520000D03*
X279400000Y-96520000D03*
X281940000Y-99060000D03*
X279400000Y-99060000D03*
X281940000Y-101600000D03*
X279400000Y-101600000D03*
X281940000Y-104140000D03*
X279400000Y-104140000D03*
X281940000Y-106680000D03*
X279400000Y-106680000D03*
X281940000Y-109220000D03*
X279400000Y-109220000D03*
X281940000Y-111760000D03*
X279400000Y-111760000D03*
X281940000Y-114300000D03*
X279400000Y-114300000D03*
X281940000Y-116840000D03*
X279400000Y-116840000D03*
X281940000Y-119380000D03*
X279400000Y-119380000D03*
X281940000Y-121920000D03*
X279400000Y-121920000D03*
X281940000Y-124460000D03*
X279400000Y-124460000D03*
X281940000Y-127000000D03*
X279400000Y-127000000D03*
X281940000Y-129540000D03*
X279400000Y-129540000D03*
X281940000Y-132080000D03*
X279400000Y-132080000D03*
X281940000Y-134620000D03*
D15*
X279400000Y-134620000D03*
G04 #@! TD*
D13*
G04 #@! TO.C,J51*
X296880000Y-50250000D03*
X296880000Y-140250000D03*
D14*
X297180000Y-55880000D03*
X294640000Y-55880000D03*
X297180000Y-58420000D03*
X294640000Y-58420000D03*
X297180000Y-60960000D03*
X294640000Y-60960000D03*
X297180000Y-63500000D03*
X294640000Y-63500000D03*
X297180000Y-66040000D03*
X294640000Y-66040000D03*
X297180000Y-68580000D03*
X294640000Y-68580000D03*
X297180000Y-71120000D03*
X294640000Y-71120000D03*
X297180000Y-73660000D03*
X294640000Y-73660000D03*
X297180000Y-76200000D03*
X294640000Y-76200000D03*
X297180000Y-78740000D03*
X294640000Y-78740000D03*
X297180000Y-81280000D03*
X294640000Y-81280000D03*
X297180000Y-83820000D03*
X294640000Y-83820000D03*
X297180000Y-86360000D03*
X294640000Y-86360000D03*
X297180000Y-88900000D03*
X294640000Y-88900000D03*
X297180000Y-91440000D03*
X294640000Y-91440000D03*
X297180000Y-93980000D03*
X294640000Y-93980000D03*
X297180000Y-96520000D03*
X294640000Y-96520000D03*
X297180000Y-99060000D03*
X294640000Y-99060000D03*
X297180000Y-101600000D03*
X294640000Y-101600000D03*
X297180000Y-104140000D03*
X294640000Y-104140000D03*
X297180000Y-106680000D03*
X294640000Y-106680000D03*
X297180000Y-109220000D03*
X294640000Y-109220000D03*
X297180000Y-111760000D03*
X294640000Y-111760000D03*
X297180000Y-114300000D03*
X294640000Y-114300000D03*
X297180000Y-116840000D03*
X294640000Y-116840000D03*
X297180000Y-119380000D03*
X294640000Y-119380000D03*
X297180000Y-121920000D03*
X294640000Y-121920000D03*
X297180000Y-124460000D03*
X294640000Y-124460000D03*
X297180000Y-127000000D03*
X294640000Y-127000000D03*
X297180000Y-129540000D03*
X294640000Y-129540000D03*
X297180000Y-132080000D03*
X294640000Y-132080000D03*
X297180000Y-134620000D03*
D15*
X294640000Y-134620000D03*
G04 #@! TD*
D13*
G04 #@! TO.C,J52*
X312120000Y-50250000D03*
X312120000Y-140250000D03*
D14*
X312420000Y-55880000D03*
X309880000Y-55880000D03*
X312420000Y-58420000D03*
X309880000Y-58420000D03*
X312420000Y-60960000D03*
X309880000Y-60960000D03*
X312420000Y-63500000D03*
X309880000Y-63500000D03*
X312420000Y-66040000D03*
X309880000Y-66040000D03*
X312420000Y-68580000D03*
X309880000Y-68580000D03*
X312420000Y-71120000D03*
X309880000Y-71120000D03*
X312420000Y-73660000D03*
X309880000Y-73660000D03*
X312420000Y-76200000D03*
X309880000Y-76200000D03*
X312420000Y-78740000D03*
X309880000Y-78740000D03*
X312420000Y-81280000D03*
X309880000Y-81280000D03*
X312420000Y-83820000D03*
X309880000Y-83820000D03*
X312420000Y-86360000D03*
X309880000Y-86360000D03*
X312420000Y-88900000D03*
X309880000Y-88900000D03*
X312420000Y-91440000D03*
X309880000Y-91440000D03*
X312420000Y-93980000D03*
X309880000Y-93980000D03*
X312420000Y-96520000D03*
X309880000Y-96520000D03*
X312420000Y-99060000D03*
X309880000Y-99060000D03*
X312420000Y-101600000D03*
X309880000Y-101600000D03*
X312420000Y-104140000D03*
X309880000Y-104140000D03*
X312420000Y-106680000D03*
X309880000Y-106680000D03*
X312420000Y-109220000D03*
X309880000Y-109220000D03*
X312420000Y-111760000D03*
X309880000Y-111760000D03*
X312420000Y-114300000D03*
X309880000Y-114300000D03*
X312420000Y-116840000D03*
X309880000Y-116840000D03*
X312420000Y-119380000D03*
X309880000Y-119380000D03*
X312420000Y-121920000D03*
X309880000Y-121920000D03*
X312420000Y-124460000D03*
X309880000Y-124460000D03*
X312420000Y-127000000D03*
X309880000Y-127000000D03*
X312420000Y-129540000D03*
X309880000Y-129540000D03*
X312420000Y-132080000D03*
X309880000Y-132080000D03*
X312420000Y-134620000D03*
D15*
X309880000Y-134620000D03*
G04 #@! TD*
D13*
G04 #@! TO.C,J53*
X327360000Y-50250000D03*
X327360000Y-140250000D03*
D14*
X327660000Y-55880000D03*
X325120000Y-55880000D03*
X327660000Y-58420000D03*
X325120000Y-58420000D03*
X327660000Y-60960000D03*
X325120000Y-60960000D03*
X327660000Y-63500000D03*
X325120000Y-63500000D03*
X327660000Y-66040000D03*
X325120000Y-66040000D03*
X327660000Y-68580000D03*
X325120000Y-68580000D03*
X327660000Y-71120000D03*
X325120000Y-71120000D03*
X327660000Y-73660000D03*
X325120000Y-73660000D03*
X327660000Y-76200000D03*
X325120000Y-76200000D03*
X327660000Y-78740000D03*
X325120000Y-78740000D03*
X327660000Y-81280000D03*
X325120000Y-81280000D03*
X327660000Y-83820000D03*
X325120000Y-83820000D03*
X327660000Y-86360000D03*
X325120000Y-86360000D03*
X327660000Y-88900000D03*
X325120000Y-88900000D03*
X327660000Y-91440000D03*
X325120000Y-91440000D03*
X327660000Y-93980000D03*
X325120000Y-93980000D03*
X327660000Y-96520000D03*
X325120000Y-96520000D03*
X327660000Y-99060000D03*
X325120000Y-99060000D03*
X327660000Y-101600000D03*
X325120000Y-101600000D03*
X327660000Y-104140000D03*
X325120000Y-104140000D03*
X327660000Y-106680000D03*
X325120000Y-106680000D03*
X327660000Y-109220000D03*
X325120000Y-109220000D03*
X327660000Y-111760000D03*
X325120000Y-111760000D03*
X327660000Y-114300000D03*
X325120000Y-114300000D03*
X327660000Y-116840000D03*
X325120000Y-116840000D03*
X327660000Y-119380000D03*
X325120000Y-119380000D03*
X327660000Y-121920000D03*
X325120000Y-121920000D03*
X327660000Y-124460000D03*
X325120000Y-124460000D03*
X327660000Y-127000000D03*
X325120000Y-127000000D03*
X327660000Y-129540000D03*
X325120000Y-129540000D03*
X327660000Y-132080000D03*
X325120000Y-132080000D03*
X327660000Y-134620000D03*
D15*
X325120000Y-134620000D03*
G04 #@! TD*
D13*
G04 #@! TO.C,J54*
X342600000Y-50250000D03*
X342600000Y-140250000D03*
D14*
X342900000Y-55880000D03*
X340360000Y-55880000D03*
X342900000Y-58420000D03*
X340360000Y-58420000D03*
X342900000Y-60960000D03*
X340360000Y-60960000D03*
X342900000Y-63500000D03*
X340360000Y-63500000D03*
X342900000Y-66040000D03*
X340360000Y-66040000D03*
X342900000Y-68580000D03*
X340360000Y-68580000D03*
X342900000Y-71120000D03*
X340360000Y-71120000D03*
X342900000Y-73660000D03*
X340360000Y-73660000D03*
X342900000Y-76200000D03*
X340360000Y-76200000D03*
X342900000Y-78740000D03*
X340360000Y-78740000D03*
X342900000Y-81280000D03*
X340360000Y-81280000D03*
X342900000Y-83820000D03*
X340360000Y-83820000D03*
X342900000Y-86360000D03*
X340360000Y-86360000D03*
X342900000Y-88900000D03*
X340360000Y-88900000D03*
X342900000Y-91440000D03*
X340360000Y-91440000D03*
X342900000Y-93980000D03*
X340360000Y-93980000D03*
X342900000Y-96520000D03*
X340360000Y-96520000D03*
X342900000Y-99060000D03*
X340360000Y-99060000D03*
X342900000Y-101600000D03*
X340360000Y-101600000D03*
X342900000Y-104140000D03*
X340360000Y-104140000D03*
X342900000Y-106680000D03*
X340360000Y-106680000D03*
X342900000Y-109220000D03*
X340360000Y-109220000D03*
X342900000Y-111760000D03*
X340360000Y-111760000D03*
X342900000Y-114300000D03*
X340360000Y-114300000D03*
X342900000Y-116840000D03*
X340360000Y-116840000D03*
X342900000Y-119380000D03*
X340360000Y-119380000D03*
X342900000Y-121920000D03*
X340360000Y-121920000D03*
X342900000Y-124460000D03*
X340360000Y-124460000D03*
X342900000Y-127000000D03*
X340360000Y-127000000D03*
X342900000Y-129540000D03*
X340360000Y-129540000D03*
X342900000Y-132080000D03*
X340360000Y-132080000D03*
X342900000Y-134620000D03*
D15*
X340360000Y-134620000D03*
G04 #@! TD*
D13*
G04 #@! TO.C,J55*
X357840000Y-50250000D03*
X357840000Y-140250000D03*
D14*
X358140000Y-55880000D03*
X355600000Y-55880000D03*
X358140000Y-58420000D03*
X355600000Y-58420000D03*
X358140000Y-60960000D03*
X355600000Y-60960000D03*
X358140000Y-63500000D03*
X355600000Y-63500000D03*
X358140000Y-66040000D03*
X355600000Y-66040000D03*
X358140000Y-68580000D03*
X355600000Y-68580000D03*
X358140000Y-71120000D03*
X355600000Y-71120000D03*
X358140000Y-73660000D03*
X355600000Y-73660000D03*
X358140000Y-76200000D03*
X355600000Y-76200000D03*
X358140000Y-78740000D03*
X355600000Y-78740000D03*
X358140000Y-81280000D03*
X355600000Y-81280000D03*
X358140000Y-83820000D03*
X355600000Y-83820000D03*
X358140000Y-86360000D03*
X355600000Y-86360000D03*
X358140000Y-88900000D03*
X355600000Y-88900000D03*
X358140000Y-91440000D03*
X355600000Y-91440000D03*
X358140000Y-93980000D03*
X355600000Y-93980000D03*
X358140000Y-96520000D03*
X355600000Y-96520000D03*
X358140000Y-99060000D03*
X355600000Y-99060000D03*
X358140000Y-101600000D03*
X355600000Y-101600000D03*
X358140000Y-104140000D03*
X355600000Y-104140000D03*
X358140000Y-106680000D03*
X355600000Y-106680000D03*
X358140000Y-109220000D03*
X355600000Y-109220000D03*
X358140000Y-111760000D03*
X355600000Y-111760000D03*
X358140000Y-114300000D03*
X355600000Y-114300000D03*
X358140000Y-116840000D03*
X355600000Y-116840000D03*
X358140000Y-119380000D03*
X355600000Y-119380000D03*
X358140000Y-121920000D03*
X355600000Y-121920000D03*
X358140000Y-124460000D03*
X355600000Y-124460000D03*
X358140000Y-127000000D03*
X355600000Y-127000000D03*
X358140000Y-129540000D03*
X355600000Y-129540000D03*
X358140000Y-132080000D03*
X355600000Y-132080000D03*
X358140000Y-134620000D03*
D15*
X355600000Y-134620000D03*
G04 #@! TD*
D13*
G04 #@! TO.C,J56*
X373080000Y-50250000D03*
X373080000Y-140250000D03*
D14*
X373380000Y-55880000D03*
X370840000Y-55880000D03*
X373380000Y-58420000D03*
X370840000Y-58420000D03*
X373380000Y-60960000D03*
X370840000Y-60960000D03*
X373380000Y-63500000D03*
X370840000Y-63500000D03*
X373380000Y-66040000D03*
X370840000Y-66040000D03*
X373380000Y-68580000D03*
X370840000Y-68580000D03*
X373380000Y-71120000D03*
X370840000Y-71120000D03*
X373380000Y-73660000D03*
X370840000Y-73660000D03*
X373380000Y-76200000D03*
X370840000Y-76200000D03*
X373380000Y-78740000D03*
X370840000Y-78740000D03*
X373380000Y-81280000D03*
X370840000Y-81280000D03*
X373380000Y-83820000D03*
X370840000Y-83820000D03*
X373380000Y-86360000D03*
X370840000Y-86360000D03*
X373380000Y-88900000D03*
X370840000Y-88900000D03*
X373380000Y-91440000D03*
X370840000Y-91440000D03*
X373380000Y-93980000D03*
X370840000Y-93980000D03*
X373380000Y-96520000D03*
X370840000Y-96520000D03*
X373380000Y-99060000D03*
X370840000Y-99060000D03*
X373380000Y-101600000D03*
X370840000Y-101600000D03*
X373380000Y-104140000D03*
X370840000Y-104140000D03*
X373380000Y-106680000D03*
X370840000Y-106680000D03*
X373380000Y-109220000D03*
X370840000Y-109220000D03*
X373380000Y-111760000D03*
X370840000Y-111760000D03*
X373380000Y-114300000D03*
X370840000Y-114300000D03*
X373380000Y-116840000D03*
X370840000Y-116840000D03*
X373380000Y-119380000D03*
X370840000Y-119380000D03*
X373380000Y-121920000D03*
X370840000Y-121920000D03*
X373380000Y-124460000D03*
X370840000Y-124460000D03*
X373380000Y-127000000D03*
X370840000Y-127000000D03*
X373380000Y-129540000D03*
X370840000Y-129540000D03*
X373380000Y-132080000D03*
X370840000Y-132080000D03*
X373380000Y-134620000D03*
D15*
X370840000Y-134620000D03*
G04 #@! TD*
D11*
G04 #@! TO.C,J2*
X29750000Y-40750000D03*
D12*
X34830000Y-40750000D03*
X39910000Y-40750000D03*
G04 #@! TD*
G04 #@! TO.C,J3*
X347080000Y-40250000D03*
X342000000Y-40250000D03*
D11*
X336920000Y-40250000D03*
G04 #@! TD*
D16*
G04 #@! TO.C,JJ1*
X33140000Y-182540000D03*
X33140000Y-180000000D03*
X35680000Y-182540000D03*
X35680000Y-180000000D03*
X38220000Y-182540000D03*
X38220000Y-180000000D03*
X40760000Y-182540000D03*
X40760000Y-180000000D03*
X43300000Y-182540000D03*
X43300000Y-180000000D03*
X45840000Y-182540000D03*
X45840000Y-180000000D03*
X48380000Y-182540000D03*
X48380000Y-180000000D03*
X50920000Y-182540000D03*
X50920000Y-180000000D03*
X53460000Y-182540000D03*
X53460000Y-180000000D03*
X56000000Y-182540000D03*
D17*
X56000000Y-180000000D03*
D18*
X61840000Y-181780000D03*
X27300000Y-181780000D03*
G04 #@! TD*
G04 #@! TO.C,JM1*
X27300000Y-216780000D03*
X61840000Y-216780000D03*
D17*
X56000000Y-215000000D03*
D16*
X56000000Y-217540000D03*
X53460000Y-215000000D03*
X53460000Y-217540000D03*
X50920000Y-215000000D03*
X50920000Y-217540000D03*
X48380000Y-215000000D03*
X48380000Y-217540000D03*
X45840000Y-215000000D03*
X45840000Y-217540000D03*
X43300000Y-215000000D03*
X43300000Y-217540000D03*
X40760000Y-215000000D03*
X40760000Y-217540000D03*
X38220000Y-215000000D03*
X38220000Y-217540000D03*
X35680000Y-215000000D03*
X35680000Y-217540000D03*
X33140000Y-215000000D03*
X33140000Y-217540000D03*
G04 #@! TD*
D18*
G04 #@! TO.C,J~STORE~1*
X27300000Y-251780000D03*
X61840000Y-251780000D03*
D17*
X56000000Y-250000000D03*
D16*
X56000000Y-252540000D03*
X53460000Y-250000000D03*
X53460000Y-252540000D03*
X50920000Y-250000000D03*
X50920000Y-252540000D03*
X48380000Y-250000000D03*
X48380000Y-252540000D03*
X45840000Y-250000000D03*
X45840000Y-252540000D03*
X43300000Y-250000000D03*
X43300000Y-252540000D03*
X40760000Y-250000000D03*
X40760000Y-252540000D03*
X38220000Y-250000000D03*
X38220000Y-252540000D03*
X35680000Y-250000000D03*
X35680000Y-252540000D03*
X33140000Y-250000000D03*
X33140000Y-252540000D03*
G04 #@! TD*
D18*
G04 #@! TO.C,JBP1-BP2-1*
X81300000Y-181780000D03*
X115840000Y-181780000D03*
D17*
X110000000Y-180000000D03*
D16*
X110000000Y-182540000D03*
X107460000Y-180000000D03*
X107460000Y-182540000D03*
X104920000Y-180000000D03*
X104920000Y-182540000D03*
X102380000Y-180000000D03*
X102380000Y-182540000D03*
X99840000Y-180000000D03*
X99840000Y-182540000D03*
X97300000Y-180000000D03*
X97300000Y-182540000D03*
X94760000Y-180000000D03*
X94760000Y-182540000D03*
X92220000Y-180000000D03*
X92220000Y-182540000D03*
X89680000Y-180000000D03*
X89680000Y-182540000D03*
X87140000Y-180000000D03*
X87140000Y-182540000D03*
G04 #@! TD*
G04 #@! TO.C,JBP1-BP2-2*
X87140000Y-217540000D03*
X87140000Y-215000000D03*
X89680000Y-217540000D03*
X89680000Y-215000000D03*
X92220000Y-217540000D03*
X92220000Y-215000000D03*
X94760000Y-217540000D03*
X94760000Y-215000000D03*
X97300000Y-217540000D03*
X97300000Y-215000000D03*
X99840000Y-217540000D03*
X99840000Y-215000000D03*
X102380000Y-217540000D03*
X102380000Y-215000000D03*
X104920000Y-217540000D03*
X104920000Y-215000000D03*
X107460000Y-217540000D03*
X107460000Y-215000000D03*
X110000000Y-217540000D03*
D17*
X110000000Y-215000000D03*
D18*
X115840000Y-216780000D03*
X81300000Y-216780000D03*
G04 #@! TD*
G04 #@! TO.C,JBP1-BP2-3*
X206300000Y-181780000D03*
X240840000Y-181780000D03*
D17*
X235000000Y-180000000D03*
D16*
X235000000Y-182540000D03*
X232460000Y-180000000D03*
X232460000Y-182540000D03*
X229920000Y-180000000D03*
X229920000Y-182540000D03*
X227380000Y-180000000D03*
X227380000Y-182540000D03*
X224840000Y-180000000D03*
X224840000Y-182540000D03*
X222300000Y-180000000D03*
X222300000Y-182540000D03*
X219760000Y-180000000D03*
X219760000Y-182540000D03*
X217220000Y-180000000D03*
X217220000Y-182540000D03*
X214680000Y-180000000D03*
X214680000Y-182540000D03*
X212140000Y-180000000D03*
X212140000Y-182540000D03*
G04 #@! TD*
D18*
G04 #@! TO.C,JBP1-BP2-4*
X136300000Y-216780000D03*
X170840000Y-216780000D03*
D17*
X165000000Y-215000000D03*
D16*
X165000000Y-217540000D03*
X162460000Y-215000000D03*
X162460000Y-217540000D03*
X159920000Y-215000000D03*
X159920000Y-217540000D03*
X157380000Y-215000000D03*
X157380000Y-217540000D03*
X154840000Y-215000000D03*
X154840000Y-217540000D03*
X152300000Y-215000000D03*
X152300000Y-217540000D03*
X149760000Y-215000000D03*
X149760000Y-217540000D03*
X147220000Y-215000000D03*
X147220000Y-217540000D03*
X144680000Y-215000000D03*
X144680000Y-217540000D03*
X142140000Y-215000000D03*
X142140000Y-217540000D03*
G04 #@! TD*
G04 #@! TO.C,JBP1-BP2-5*
X347140000Y-252540000D03*
X347140000Y-250000000D03*
X349680000Y-252540000D03*
X349680000Y-250000000D03*
X352220000Y-252540000D03*
X352220000Y-250000000D03*
X354760000Y-252540000D03*
X354760000Y-250000000D03*
X357300000Y-252540000D03*
X357300000Y-250000000D03*
X359840000Y-252540000D03*
X359840000Y-250000000D03*
X362380000Y-252540000D03*
X362380000Y-250000000D03*
X364920000Y-252540000D03*
X364920000Y-250000000D03*
X367460000Y-252540000D03*
X367460000Y-250000000D03*
X370000000Y-252540000D03*
D17*
X370000000Y-250000000D03*
D18*
X375840000Y-251780000D03*
X341300000Y-251780000D03*
G04 #@! TD*
G04 #@! TO.C,JBP1-BP3-1*
X281300000Y-251780000D03*
X315840000Y-251780000D03*
D17*
X310000000Y-250000000D03*
D16*
X310000000Y-252540000D03*
X307460000Y-250000000D03*
X307460000Y-252540000D03*
X304920000Y-250000000D03*
X304920000Y-252540000D03*
X302380000Y-250000000D03*
X302380000Y-252540000D03*
X299840000Y-250000000D03*
X299840000Y-252540000D03*
X297300000Y-250000000D03*
X297300000Y-252540000D03*
X294760000Y-250000000D03*
X294760000Y-252540000D03*
X292220000Y-250000000D03*
X292220000Y-252540000D03*
X289680000Y-250000000D03*
X289680000Y-252540000D03*
X287140000Y-250000000D03*
X287140000Y-252540000D03*
G04 #@! TD*
D18*
G04 #@! TO.C,JIP1*
X136629000Y-181780000D03*
X171169000Y-181780000D03*
D17*
X165329000Y-180000000D03*
D16*
X165329000Y-182540000D03*
X162789000Y-180000000D03*
X162789000Y-182540000D03*
X160249000Y-180000000D03*
X160249000Y-182540000D03*
X157709000Y-180000000D03*
X157709000Y-182540000D03*
X155169000Y-180000000D03*
X155169000Y-182540000D03*
X152629000Y-180000000D03*
X152629000Y-182540000D03*
X150089000Y-180000000D03*
X150089000Y-182540000D03*
X147549000Y-180000000D03*
X147549000Y-182540000D03*
X145009000Y-180000000D03*
X145009000Y-182540000D03*
X142469000Y-180000000D03*
X142469000Y-182540000D03*
G04 #@! TD*
D18*
G04 #@! TO.C,JSKT1-1*
X341300000Y-181780000D03*
X375840000Y-181780000D03*
D17*
X370000000Y-180000000D03*
D16*
X370000000Y-182540000D03*
X367460000Y-180000000D03*
X367460000Y-182540000D03*
X364920000Y-180000000D03*
X364920000Y-182540000D03*
X362380000Y-180000000D03*
X362380000Y-182540000D03*
X359840000Y-180000000D03*
X359840000Y-182540000D03*
X357300000Y-180000000D03*
X357300000Y-182540000D03*
X354760000Y-180000000D03*
X354760000Y-182540000D03*
X352220000Y-180000000D03*
X352220000Y-182540000D03*
X349680000Y-180000000D03*
X349680000Y-182540000D03*
X347140000Y-180000000D03*
X347140000Y-182540000D03*
G04 #@! TD*
G04 #@! TO.C,JSKT1-2*
X212140000Y-252540000D03*
X212140000Y-250000000D03*
X214680000Y-252540000D03*
X214680000Y-250000000D03*
X217220000Y-252540000D03*
X217220000Y-250000000D03*
X219760000Y-252540000D03*
X219760000Y-250000000D03*
X222300000Y-252540000D03*
X222300000Y-250000000D03*
X224840000Y-252540000D03*
X224840000Y-250000000D03*
X227380000Y-252540000D03*
X227380000Y-250000000D03*
X229920000Y-252540000D03*
X229920000Y-250000000D03*
X232460000Y-252540000D03*
X232460000Y-250000000D03*
X235000000Y-252540000D03*
D17*
X235000000Y-250000000D03*
D18*
X240840000Y-251780000D03*
X206300000Y-251780000D03*
G04 #@! TD*
G04 #@! TO.C,JSKT1-3*
X81300000Y-251780000D03*
X115840000Y-251780000D03*
D17*
X110000000Y-250000000D03*
D16*
X110000000Y-252540000D03*
X107460000Y-250000000D03*
X107460000Y-252540000D03*
X104920000Y-250000000D03*
X104920000Y-252540000D03*
X102380000Y-250000000D03*
X102380000Y-252540000D03*
X99840000Y-250000000D03*
X99840000Y-252540000D03*
X97300000Y-250000000D03*
X97300000Y-252540000D03*
X94760000Y-250000000D03*
X94760000Y-252540000D03*
X92220000Y-250000000D03*
X92220000Y-252540000D03*
X89680000Y-250000000D03*
X89680000Y-252540000D03*
X87140000Y-250000000D03*
X87140000Y-252540000D03*
G04 #@! TD*
G04 #@! TO.C,JSKT2-1*
X142140000Y-252540000D03*
X142140000Y-250000000D03*
X144680000Y-252540000D03*
X144680000Y-250000000D03*
X147220000Y-252540000D03*
X147220000Y-250000000D03*
X149760000Y-252540000D03*
X149760000Y-250000000D03*
X152300000Y-252540000D03*
X152300000Y-250000000D03*
X154840000Y-252540000D03*
X154840000Y-250000000D03*
X157380000Y-252540000D03*
X157380000Y-250000000D03*
X159920000Y-252540000D03*
X159920000Y-250000000D03*
X162460000Y-252540000D03*
X162460000Y-250000000D03*
X165000000Y-252540000D03*
D17*
X165000000Y-250000000D03*
D18*
X170840000Y-251780000D03*
X136300000Y-251780000D03*
G04 #@! TD*
G04 #@! TO.C,JSKT2-2*
X341300000Y-216780000D03*
X375840000Y-216780000D03*
D17*
X370000000Y-215000000D03*
D16*
X370000000Y-217540000D03*
X367460000Y-215000000D03*
X367460000Y-217540000D03*
X364920000Y-215000000D03*
X364920000Y-217540000D03*
X362380000Y-215000000D03*
X362380000Y-217540000D03*
X359840000Y-215000000D03*
X359840000Y-217540000D03*
X357300000Y-215000000D03*
X357300000Y-217540000D03*
X354760000Y-215000000D03*
X354760000Y-217540000D03*
X352220000Y-215000000D03*
X352220000Y-217540000D03*
X349680000Y-215000000D03*
X349680000Y-217540000D03*
X347140000Y-215000000D03*
X347140000Y-217540000D03*
G04 #@! TD*
G04 #@! TO.C,JSKT2-3*
X287140000Y-182540000D03*
X287140000Y-180000000D03*
X289680000Y-182540000D03*
X289680000Y-180000000D03*
X292220000Y-182540000D03*
X292220000Y-180000000D03*
X294760000Y-182540000D03*
X294760000Y-180000000D03*
X297300000Y-182540000D03*
X297300000Y-180000000D03*
X299840000Y-182540000D03*
X299840000Y-180000000D03*
X302380000Y-182540000D03*
X302380000Y-180000000D03*
X304920000Y-182540000D03*
X304920000Y-180000000D03*
X307460000Y-182540000D03*
X307460000Y-180000000D03*
X310000000Y-182540000D03*
D17*
X310000000Y-180000000D03*
D18*
X315840000Y-181780000D03*
X281300000Y-181780000D03*
G04 #@! TD*
D16*
G04 #@! TO.C,JW1*
X212140000Y-217540000D03*
X212140000Y-215000000D03*
X214680000Y-217540000D03*
X214680000Y-215000000D03*
X217220000Y-217540000D03*
X217220000Y-215000000D03*
X219760000Y-217540000D03*
X219760000Y-215000000D03*
X222300000Y-217540000D03*
X222300000Y-215000000D03*
X224840000Y-217540000D03*
X224840000Y-215000000D03*
X227380000Y-217540000D03*
X227380000Y-215000000D03*
X229920000Y-217540000D03*
X229920000Y-215000000D03*
X232460000Y-217540000D03*
X232460000Y-215000000D03*
X235000000Y-217540000D03*
D17*
X235000000Y-215000000D03*
D18*
X240840000Y-216780000D03*
X206300000Y-216780000D03*
G04 #@! TD*
D16*
G04 #@! TO.C,J~A~1*
X287140000Y-217540000D03*
X287140000Y-215000000D03*
X289680000Y-217540000D03*
X289680000Y-215000000D03*
X292220000Y-217540000D03*
X292220000Y-215000000D03*
X294760000Y-217540000D03*
X294760000Y-215000000D03*
X297300000Y-217540000D03*
X297300000Y-215000000D03*
X299840000Y-217540000D03*
X299840000Y-215000000D03*
X302380000Y-217540000D03*
X302380000Y-215000000D03*
X304920000Y-217540000D03*
X304920000Y-215000000D03*
X307460000Y-217540000D03*
X307460000Y-215000000D03*
X310000000Y-217540000D03*
D17*
X310000000Y-215000000D03*
D18*
X315840000Y-216780000D03*
X281300000Y-216780000D03*
G04 #@! TD*
M02*
