G04 #@! TF.GenerationSoftware,KiCad,Pcbnew,(5.0.0)*
G04 #@! TF.CreationDate,2020-07-19T12:26:23+01:00*
G04 #@! TF.ProjectId,Backplane1,4261636B706C616E65312E6B69636164,rev?*
G04 #@! TF.SameCoordinates,Original*
G04 #@! TF.FileFunction,Legend,Top*
G04 #@! TF.FilePolarity,Positive*
%FSLAX46Y46*%
G04 Gerber Fmt 4.6, Leading zero omitted, Abs format (unit mm)*
G04 Created by KiCad (PCBNEW (5.0.0)) date 07/19/20 12:26:23*
%MOMM*%
%LPD*%
G01*
G04 APERTURE LIST*
%ADD10C,0.300000*%
%ADD11C,0.254000*%
%ADD12C,0.120000*%
%ADD13C,0.150000*%
G04 APERTURE END LIST*
D10*
X28107142Y-35750000D02*
X27964285Y-35678571D01*
X27750000Y-35678571D01*
X27535714Y-35750000D01*
X27392857Y-35892857D01*
X27321428Y-36035714D01*
X27250000Y-36321428D01*
X27250000Y-36535714D01*
X27321428Y-36821428D01*
X27392857Y-36964285D01*
X27535714Y-37107142D01*
X27750000Y-37178571D01*
X27892857Y-37178571D01*
X28107142Y-37107142D01*
X28178571Y-37035714D01*
X28178571Y-36535714D01*
X27892857Y-36535714D01*
X28821428Y-37178571D02*
X28821428Y-35678571D01*
X29678571Y-37178571D01*
X29678571Y-35678571D01*
X30392857Y-37178571D02*
X30392857Y-35678571D01*
X30750000Y-35678571D01*
X30964285Y-35750000D01*
X31107142Y-35892857D01*
X31178571Y-36035714D01*
X31250000Y-36321428D01*
X31250000Y-36535714D01*
X31178571Y-36821428D01*
X31107142Y-36964285D01*
X30964285Y-37107142D01*
X30750000Y-37178571D01*
X30392857Y-37178571D01*
X32321428Y-36607142D02*
X33464285Y-36607142D01*
X32892857Y-37178571D02*
X32892857Y-36035714D01*
X34821428Y-35678571D02*
X34535714Y-35678571D01*
X34392857Y-35750000D01*
X34321428Y-35821428D01*
X34178571Y-36035714D01*
X34107142Y-36321428D01*
X34107142Y-36892857D01*
X34178571Y-37035714D01*
X34250000Y-37107142D01*
X34392857Y-37178571D01*
X34678571Y-37178571D01*
X34821428Y-37107142D01*
X34892857Y-37035714D01*
X34964285Y-36892857D01*
X34964285Y-36535714D01*
X34892857Y-36392857D01*
X34821428Y-36321428D01*
X34678571Y-36250000D01*
X34392857Y-36250000D01*
X34250000Y-36321428D01*
X34178571Y-36392857D01*
X34107142Y-36535714D01*
X35392857Y-35678571D02*
X35892857Y-37178571D01*
X36392857Y-35678571D01*
X37571428Y-36607142D02*
X38714285Y-36607142D01*
X40071428Y-35678571D02*
X39785714Y-35678571D01*
X39642857Y-35750000D01*
X39571428Y-35821428D01*
X39428571Y-36035714D01*
X39357142Y-36321428D01*
X39357142Y-36892857D01*
X39428571Y-37035714D01*
X39500000Y-37107142D01*
X39642857Y-37178571D01*
X39928571Y-37178571D01*
X40071428Y-37107142D01*
X40142857Y-37035714D01*
X40214285Y-36892857D01*
X40214285Y-36535714D01*
X40142857Y-36392857D01*
X40071428Y-36321428D01*
X39928571Y-36250000D01*
X39642857Y-36250000D01*
X39500000Y-36321428D01*
X39428571Y-36392857D01*
X39357142Y-36535714D01*
X40642857Y-35678571D02*
X41142857Y-37178571D01*
X41642857Y-35678571D01*
X335357142Y-35750000D02*
X335214285Y-35678571D01*
X335000000Y-35678571D01*
X334785714Y-35750000D01*
X334642857Y-35892857D01*
X334571428Y-36035714D01*
X334500000Y-36321428D01*
X334500000Y-36535714D01*
X334571428Y-36821428D01*
X334642857Y-36964285D01*
X334785714Y-37107142D01*
X335000000Y-37178571D01*
X335142857Y-37178571D01*
X335357142Y-37107142D01*
X335428571Y-37035714D01*
X335428571Y-36535714D01*
X335142857Y-36535714D01*
X336071428Y-37178571D02*
X336071428Y-35678571D01*
X336928571Y-37178571D01*
X336928571Y-35678571D01*
X337642857Y-37178571D02*
X337642857Y-35678571D01*
X338000000Y-35678571D01*
X338214285Y-35750000D01*
X338357142Y-35892857D01*
X338428571Y-36035714D01*
X338500000Y-36321428D01*
X338500000Y-36535714D01*
X338428571Y-36821428D01*
X338357142Y-36964285D01*
X338214285Y-37107142D01*
X338000000Y-37178571D01*
X337642857Y-37178571D01*
X344821428Y-36607142D02*
X345964285Y-36607142D01*
X347321428Y-35678571D02*
X347035714Y-35678571D01*
X346892857Y-35750000D01*
X346821428Y-35821428D01*
X346678571Y-36035714D01*
X346607142Y-36321428D01*
X346607142Y-36892857D01*
X346678571Y-37035714D01*
X346750000Y-37107142D01*
X346892857Y-37178571D01*
X347178571Y-37178571D01*
X347321428Y-37107142D01*
X347392857Y-37035714D01*
X347464285Y-36892857D01*
X347464285Y-36535714D01*
X347392857Y-36392857D01*
X347321428Y-36321428D01*
X347178571Y-36250000D01*
X346892857Y-36250000D01*
X346750000Y-36321428D01*
X346678571Y-36392857D01*
X346607142Y-36535714D01*
X347892857Y-35678571D02*
X348392857Y-37178571D01*
X348892857Y-35678571D01*
X339571428Y-36607142D02*
X340714285Y-36607142D01*
X340142857Y-37178571D02*
X340142857Y-36035714D01*
X342071428Y-35678571D02*
X341785714Y-35678571D01*
X341642857Y-35750000D01*
X341571428Y-35821428D01*
X341428571Y-36035714D01*
X341357142Y-36321428D01*
X341357142Y-36892857D01*
X341428571Y-37035714D01*
X341500000Y-37107142D01*
X341642857Y-37178571D01*
X341928571Y-37178571D01*
X342071428Y-37107142D01*
X342142857Y-37035714D01*
X342214285Y-36892857D01*
X342214285Y-36535714D01*
X342142857Y-36392857D01*
X342071428Y-36321428D01*
X341928571Y-36250000D01*
X341642857Y-36250000D01*
X341500000Y-36321428D01*
X341428571Y-36392857D01*
X341357142Y-36535714D01*
X342642857Y-35678571D02*
X343142857Y-37178571D01*
X343642857Y-35678571D01*
X221321428Y-36357142D02*
X222464285Y-36357142D01*
X223821428Y-35428571D02*
X223535714Y-35428571D01*
X223392857Y-35500000D01*
X223321428Y-35571428D01*
X223178571Y-35785714D01*
X223107142Y-36071428D01*
X223107142Y-36642857D01*
X223178571Y-36785714D01*
X223250000Y-36857142D01*
X223392857Y-36928571D01*
X223678571Y-36928571D01*
X223821428Y-36857142D01*
X223892857Y-36785714D01*
X223964285Y-36642857D01*
X223964285Y-36285714D01*
X223892857Y-36142857D01*
X223821428Y-36071428D01*
X223678571Y-36000000D01*
X223392857Y-36000000D01*
X223250000Y-36071428D01*
X223178571Y-36142857D01*
X223107142Y-36285714D01*
X224392857Y-35428571D02*
X224892857Y-36928571D01*
X225392857Y-35428571D01*
X216071428Y-36357142D02*
X217214285Y-36357142D01*
X216642857Y-36928571D02*
X216642857Y-35785714D01*
X218571428Y-35428571D02*
X218285714Y-35428571D01*
X218142857Y-35500000D01*
X218071428Y-35571428D01*
X217928571Y-35785714D01*
X217857142Y-36071428D01*
X217857142Y-36642857D01*
X217928571Y-36785714D01*
X218000000Y-36857142D01*
X218142857Y-36928571D01*
X218428571Y-36928571D01*
X218571428Y-36857142D01*
X218642857Y-36785714D01*
X218714285Y-36642857D01*
X218714285Y-36285714D01*
X218642857Y-36142857D01*
X218571428Y-36071428D01*
X218428571Y-36000000D01*
X218142857Y-36000000D01*
X218000000Y-36071428D01*
X217928571Y-36142857D01*
X217857142Y-36285714D01*
X219142857Y-35428571D02*
X219642857Y-36928571D01*
X220142857Y-35428571D01*
X211857142Y-35500000D02*
X211714285Y-35428571D01*
X211500000Y-35428571D01*
X211285714Y-35500000D01*
X211142857Y-35642857D01*
X211071428Y-35785714D01*
X211000000Y-36071428D01*
X211000000Y-36285714D01*
X211071428Y-36571428D01*
X211142857Y-36714285D01*
X211285714Y-36857142D01*
X211500000Y-36928571D01*
X211642857Y-36928571D01*
X211857142Y-36857142D01*
X211928571Y-36785714D01*
X211928571Y-36285714D01*
X211642857Y-36285714D01*
X212571428Y-36928571D02*
X212571428Y-35428571D01*
X213428571Y-36928571D01*
X213428571Y-35428571D01*
X214142857Y-36928571D02*
X214142857Y-35428571D01*
X214500000Y-35428571D01*
X214714285Y-35500000D01*
X214857142Y-35642857D01*
X214928571Y-35785714D01*
X215000000Y-36071428D01*
X215000000Y-36285714D01*
X214928571Y-36571428D01*
X214857142Y-36714285D01*
X214714285Y-36857142D01*
X214500000Y-36928571D01*
X214142857Y-36928571D01*
D11*
X372819385Y-145929047D02*
X371609861Y-145929047D01*
X371488909Y-147138571D01*
X371609861Y-147017619D01*
X371851766Y-146896666D01*
X372456528Y-146896666D01*
X372698433Y-147017619D01*
X372819385Y-147138571D01*
X372940338Y-147380476D01*
X372940338Y-147985238D01*
X372819385Y-148227142D01*
X372698433Y-148348095D01*
X372456528Y-148469047D01*
X371851766Y-148469047D01*
X371609861Y-148348095D01*
X371488909Y-148227142D01*
X375117480Y-145929047D02*
X374633671Y-145929047D01*
X374391766Y-146050000D01*
X374270814Y-146170952D01*
X374028909Y-146533809D01*
X373907957Y-147017619D01*
X373907957Y-147985238D01*
X374028909Y-148227142D01*
X374149861Y-148348095D01*
X374391766Y-148469047D01*
X374875576Y-148469047D01*
X375117480Y-148348095D01*
X375238433Y-148227142D01*
X375359385Y-147985238D01*
X375359385Y-147380476D01*
X375238433Y-147138571D01*
X375117480Y-147017619D01*
X374875576Y-146896666D01*
X374391766Y-146896666D01*
X374149861Y-147017619D01*
X374028909Y-147138571D01*
X373907957Y-147380476D01*
X357579385Y-145929047D02*
X356369861Y-145929047D01*
X356248909Y-147138571D01*
X356369861Y-147017619D01*
X356611766Y-146896666D01*
X357216528Y-146896666D01*
X357458433Y-147017619D01*
X357579385Y-147138571D01*
X357700338Y-147380476D01*
X357700338Y-147985238D01*
X357579385Y-148227142D01*
X357458433Y-148348095D01*
X357216528Y-148469047D01*
X356611766Y-148469047D01*
X356369861Y-148348095D01*
X356248909Y-148227142D01*
X359998433Y-145929047D02*
X358788909Y-145929047D01*
X358667957Y-147138571D01*
X358788909Y-147017619D01*
X359030814Y-146896666D01*
X359635576Y-146896666D01*
X359877480Y-147017619D01*
X359998433Y-147138571D01*
X360119385Y-147380476D01*
X360119385Y-147985238D01*
X359998433Y-148227142D01*
X359877480Y-148348095D01*
X359635576Y-148469047D01*
X359030814Y-148469047D01*
X358788909Y-148348095D01*
X358667957Y-148227142D01*
X342339385Y-145929047D02*
X341129861Y-145929047D01*
X341008909Y-147138571D01*
X341129861Y-147017619D01*
X341371766Y-146896666D01*
X341976528Y-146896666D01*
X342218433Y-147017619D01*
X342339385Y-147138571D01*
X342460338Y-147380476D01*
X342460338Y-147985238D01*
X342339385Y-148227142D01*
X342218433Y-148348095D01*
X341976528Y-148469047D01*
X341371766Y-148469047D01*
X341129861Y-148348095D01*
X341008909Y-148227142D01*
X344637480Y-146775714D02*
X344637480Y-148469047D01*
X344032719Y-145808095D02*
X343427957Y-147622380D01*
X345000338Y-147622380D01*
X327099385Y-145929047D02*
X325889861Y-145929047D01*
X325768909Y-147138571D01*
X325889861Y-147017619D01*
X326131766Y-146896666D01*
X326736528Y-146896666D01*
X326978433Y-147017619D01*
X327099385Y-147138571D01*
X327220338Y-147380476D01*
X327220338Y-147985238D01*
X327099385Y-148227142D01*
X326978433Y-148348095D01*
X326736528Y-148469047D01*
X326131766Y-148469047D01*
X325889861Y-148348095D01*
X325768909Y-148227142D01*
X328067004Y-145929047D02*
X329639385Y-145929047D01*
X328792719Y-146896666D01*
X329155576Y-146896666D01*
X329397480Y-147017619D01*
X329518433Y-147138571D01*
X329639385Y-147380476D01*
X329639385Y-147985238D01*
X329518433Y-148227142D01*
X329397480Y-148348095D01*
X329155576Y-148469047D01*
X328429861Y-148469047D01*
X328187957Y-148348095D01*
X328067004Y-148227142D01*
X311859385Y-145929047D02*
X310649861Y-145929047D01*
X310528909Y-147138571D01*
X310649861Y-147017619D01*
X310891766Y-146896666D01*
X311496528Y-146896666D01*
X311738433Y-147017619D01*
X311859385Y-147138571D01*
X311980338Y-147380476D01*
X311980338Y-147985238D01*
X311859385Y-148227142D01*
X311738433Y-148348095D01*
X311496528Y-148469047D01*
X310891766Y-148469047D01*
X310649861Y-148348095D01*
X310528909Y-148227142D01*
X312947957Y-146170952D02*
X313068909Y-146050000D01*
X313310814Y-145929047D01*
X313915576Y-145929047D01*
X314157480Y-146050000D01*
X314278433Y-146170952D01*
X314399385Y-146412857D01*
X314399385Y-146654761D01*
X314278433Y-147017619D01*
X312827004Y-148469047D01*
X314399385Y-148469047D01*
X296619385Y-145929047D02*
X295409861Y-145929047D01*
X295288909Y-147138571D01*
X295409861Y-147017619D01*
X295651766Y-146896666D01*
X296256528Y-146896666D01*
X296498433Y-147017619D01*
X296619385Y-147138571D01*
X296740338Y-147380476D01*
X296740338Y-147985238D01*
X296619385Y-148227142D01*
X296498433Y-148348095D01*
X296256528Y-148469047D01*
X295651766Y-148469047D01*
X295409861Y-148348095D01*
X295288909Y-148227142D01*
X299159385Y-148469047D02*
X297707957Y-148469047D01*
X298433671Y-148469047D02*
X298433671Y-145929047D01*
X298191766Y-146291904D01*
X297949861Y-146533809D01*
X297707957Y-146654761D01*
X281379385Y-145929047D02*
X280169861Y-145929047D01*
X280048909Y-147138571D01*
X280169861Y-147017619D01*
X280411766Y-146896666D01*
X281016528Y-146896666D01*
X281258433Y-147017619D01*
X281379385Y-147138571D01*
X281500338Y-147380476D01*
X281500338Y-147985238D01*
X281379385Y-148227142D01*
X281258433Y-148348095D01*
X281016528Y-148469047D01*
X280411766Y-148469047D01*
X280169861Y-148348095D01*
X280048909Y-148227142D01*
X283072719Y-145929047D02*
X283314623Y-145929047D01*
X283556528Y-146050000D01*
X283677480Y-146170952D01*
X283798433Y-146412857D01*
X283919385Y-146896666D01*
X283919385Y-147501428D01*
X283798433Y-147985238D01*
X283677480Y-148227142D01*
X283556528Y-148348095D01*
X283314623Y-148469047D01*
X283072719Y-148469047D01*
X282830814Y-148348095D01*
X282709861Y-148227142D01*
X282588909Y-147985238D01*
X282467957Y-147501428D01*
X282467957Y-146896666D01*
X282588909Y-146412857D01*
X282709861Y-146170952D01*
X282830814Y-146050000D01*
X283072719Y-145929047D01*
X266018433Y-146775714D02*
X266018433Y-148469047D01*
X265413671Y-145808095D02*
X264808909Y-147622380D01*
X266381290Y-147622380D01*
X267469861Y-148469047D02*
X267953671Y-148469047D01*
X268195576Y-148348095D01*
X268316528Y-148227142D01*
X268558433Y-147864285D01*
X268679385Y-147380476D01*
X268679385Y-146412857D01*
X268558433Y-146170952D01*
X268437480Y-146050000D01*
X268195576Y-145929047D01*
X267711766Y-145929047D01*
X267469861Y-146050000D01*
X267348909Y-146170952D01*
X267227957Y-146412857D01*
X267227957Y-147017619D01*
X267348909Y-147259523D01*
X267469861Y-147380476D01*
X267711766Y-147501428D01*
X268195576Y-147501428D01*
X268437480Y-147380476D01*
X268558433Y-147259523D01*
X268679385Y-147017619D01*
X250778433Y-146775714D02*
X250778433Y-148469047D01*
X250173671Y-145808095D02*
X249568909Y-147622380D01*
X251141290Y-147622380D01*
X252471766Y-147017619D02*
X252229861Y-146896666D01*
X252108909Y-146775714D01*
X251987957Y-146533809D01*
X251987957Y-146412857D01*
X252108909Y-146170952D01*
X252229861Y-146050000D01*
X252471766Y-145929047D01*
X252955576Y-145929047D01*
X253197480Y-146050000D01*
X253318433Y-146170952D01*
X253439385Y-146412857D01*
X253439385Y-146533809D01*
X253318433Y-146775714D01*
X253197480Y-146896666D01*
X252955576Y-147017619D01*
X252471766Y-147017619D01*
X252229861Y-147138571D01*
X252108909Y-147259523D01*
X251987957Y-147501428D01*
X251987957Y-147985238D01*
X252108909Y-148227142D01*
X252229861Y-148348095D01*
X252471766Y-148469047D01*
X252955576Y-148469047D01*
X253197480Y-148348095D01*
X253318433Y-148227142D01*
X253439385Y-147985238D01*
X253439385Y-147501428D01*
X253318433Y-147259523D01*
X253197480Y-147138571D01*
X252955576Y-147017619D01*
X235538433Y-146775714D02*
X235538433Y-148469047D01*
X234933671Y-145808095D02*
X234328909Y-147622380D01*
X235901290Y-147622380D01*
X236627004Y-145929047D02*
X238320338Y-145929047D01*
X237231766Y-148469047D01*
X205058433Y-146775714D02*
X205058433Y-148469047D01*
X204453671Y-145808095D02*
X203848909Y-147622380D01*
X205421290Y-147622380D01*
X207477480Y-145929047D02*
X206993671Y-145929047D01*
X206751766Y-146050000D01*
X206630814Y-146170952D01*
X206388909Y-146533809D01*
X206267957Y-147017619D01*
X206267957Y-147985238D01*
X206388909Y-148227142D01*
X206509861Y-148348095D01*
X206751766Y-148469047D01*
X207235576Y-148469047D01*
X207477480Y-148348095D01*
X207598433Y-148227142D01*
X207719385Y-147985238D01*
X207719385Y-147380476D01*
X207598433Y-147138571D01*
X207477480Y-147017619D01*
X207235576Y-146896666D01*
X206751766Y-146896666D01*
X206509861Y-147017619D01*
X206388909Y-147138571D01*
X206267957Y-147380476D01*
X189818433Y-146775714D02*
X189818433Y-148469047D01*
X189213671Y-145808095D02*
X188608909Y-147622380D01*
X190181290Y-147622380D01*
X192358433Y-145929047D02*
X191148909Y-145929047D01*
X191027957Y-147138571D01*
X191148909Y-147017619D01*
X191390814Y-146896666D01*
X191995576Y-146896666D01*
X192237480Y-147017619D01*
X192358433Y-147138571D01*
X192479385Y-147380476D01*
X192479385Y-147985238D01*
X192358433Y-148227142D01*
X192237480Y-148348095D01*
X191995576Y-148469047D01*
X191390814Y-148469047D01*
X191148909Y-148348095D01*
X191027957Y-148227142D01*
X174578433Y-146775714D02*
X174578433Y-148469047D01*
X173973671Y-145808095D02*
X173368909Y-147622380D01*
X174941290Y-147622380D01*
X176997480Y-146775714D02*
X176997480Y-148469047D01*
X176392719Y-145808095D02*
X175787957Y-147622380D01*
X177360338Y-147622380D01*
X159338433Y-146775714D02*
X159338433Y-148469047D01*
X158733671Y-145808095D02*
X158128909Y-147622380D01*
X159701290Y-147622380D01*
X160427004Y-145929047D02*
X161999385Y-145929047D01*
X161152719Y-146896666D01*
X161515576Y-146896666D01*
X161757480Y-147017619D01*
X161878433Y-147138571D01*
X161999385Y-147380476D01*
X161999385Y-147985238D01*
X161878433Y-148227142D01*
X161757480Y-148348095D01*
X161515576Y-148469047D01*
X160789861Y-148469047D01*
X160547957Y-148348095D01*
X160427004Y-148227142D01*
X144098433Y-146775714D02*
X144098433Y-148469047D01*
X143493671Y-145808095D02*
X142888909Y-147622380D01*
X144461290Y-147622380D01*
X145307957Y-146170952D02*
X145428909Y-146050000D01*
X145670814Y-145929047D01*
X146275576Y-145929047D01*
X146517480Y-146050000D01*
X146638433Y-146170952D01*
X146759385Y-146412857D01*
X146759385Y-146654761D01*
X146638433Y-147017619D01*
X145187004Y-148469047D01*
X146759385Y-148469047D01*
X128858433Y-146775714D02*
X128858433Y-148469047D01*
X128253671Y-145808095D02*
X127648909Y-147622380D01*
X129221290Y-147622380D01*
X131519385Y-148469047D02*
X130067957Y-148469047D01*
X130793671Y-148469047D02*
X130793671Y-145929047D01*
X130551766Y-146291904D01*
X130309861Y-146533809D01*
X130067957Y-146654761D01*
X20847957Y-145929047D02*
X22420338Y-145929047D01*
X21573671Y-146896666D01*
X21936528Y-146896666D01*
X22178433Y-147017619D01*
X22299385Y-147138571D01*
X22420338Y-147380476D01*
X22420338Y-147985238D01*
X22299385Y-148227142D01*
X22178433Y-148348095D01*
X21936528Y-148469047D01*
X21210814Y-148469047D01*
X20968909Y-148348095D01*
X20847957Y-148227142D01*
X24597480Y-146775714D02*
X24597480Y-148469047D01*
X23992719Y-145808095D02*
X23387957Y-147622380D01*
X24960338Y-147622380D01*
X36087957Y-145929047D02*
X37660338Y-145929047D01*
X36813671Y-146896666D01*
X37176528Y-146896666D01*
X37418433Y-147017619D01*
X37539385Y-147138571D01*
X37660338Y-147380476D01*
X37660338Y-147985238D01*
X37539385Y-148227142D01*
X37418433Y-148348095D01*
X37176528Y-148469047D01*
X36450814Y-148469047D01*
X36208909Y-148348095D01*
X36087957Y-148227142D01*
X39958433Y-145929047D02*
X38748909Y-145929047D01*
X38627957Y-147138571D01*
X38748909Y-147017619D01*
X38990814Y-146896666D01*
X39595576Y-146896666D01*
X39837480Y-147017619D01*
X39958433Y-147138571D01*
X40079385Y-147380476D01*
X40079385Y-147985238D01*
X39958433Y-148227142D01*
X39837480Y-148348095D01*
X39595576Y-148469047D01*
X38990814Y-148469047D01*
X38748909Y-148348095D01*
X38627957Y-148227142D01*
X51327957Y-145929047D02*
X52900338Y-145929047D01*
X52053671Y-146896666D01*
X52416528Y-146896666D01*
X52658433Y-147017619D01*
X52779385Y-147138571D01*
X52900338Y-147380476D01*
X52900338Y-147985238D01*
X52779385Y-148227142D01*
X52658433Y-148348095D01*
X52416528Y-148469047D01*
X51690814Y-148469047D01*
X51448909Y-148348095D01*
X51327957Y-148227142D01*
X55077480Y-145929047D02*
X54593671Y-145929047D01*
X54351766Y-146050000D01*
X54230814Y-146170952D01*
X53988909Y-146533809D01*
X53867957Y-147017619D01*
X53867957Y-147985238D01*
X53988909Y-148227142D01*
X54109861Y-148348095D01*
X54351766Y-148469047D01*
X54835576Y-148469047D01*
X55077480Y-148348095D01*
X55198433Y-148227142D01*
X55319385Y-147985238D01*
X55319385Y-147380476D01*
X55198433Y-147138571D01*
X55077480Y-147017619D01*
X54835576Y-146896666D01*
X54351766Y-146896666D01*
X54109861Y-147017619D01*
X53988909Y-147138571D01*
X53867957Y-147380476D01*
X66567957Y-145929047D02*
X68140338Y-145929047D01*
X67293671Y-146896666D01*
X67656528Y-146896666D01*
X67898433Y-147017619D01*
X68019385Y-147138571D01*
X68140338Y-147380476D01*
X68140338Y-147985238D01*
X68019385Y-148227142D01*
X67898433Y-148348095D01*
X67656528Y-148469047D01*
X66930814Y-148469047D01*
X66688909Y-148348095D01*
X66567957Y-148227142D01*
X68987004Y-145929047D02*
X70680338Y-145929047D01*
X69591766Y-148469047D01*
X113618433Y-146775714D02*
X113618433Y-148469047D01*
X113013671Y-145808095D02*
X112408909Y-147622380D01*
X113981290Y-147622380D01*
X115432719Y-145929047D02*
X115674623Y-145929047D01*
X115916528Y-146050000D01*
X116037480Y-146170952D01*
X116158433Y-146412857D01*
X116279385Y-146896666D01*
X116279385Y-147501428D01*
X116158433Y-147985238D01*
X116037480Y-148227142D01*
X115916528Y-148348095D01*
X115674623Y-148469047D01*
X115432719Y-148469047D01*
X115190814Y-148348095D01*
X115069861Y-148227142D01*
X114948909Y-147985238D01*
X114827957Y-147501428D01*
X114827957Y-146896666D01*
X114948909Y-146412857D01*
X115069861Y-146170952D01*
X115190814Y-146050000D01*
X115432719Y-145929047D01*
X97047957Y-145929047D02*
X98620338Y-145929047D01*
X97773671Y-146896666D01*
X98136528Y-146896666D01*
X98378433Y-147017619D01*
X98499385Y-147138571D01*
X98620338Y-147380476D01*
X98620338Y-147985238D01*
X98499385Y-148227142D01*
X98378433Y-148348095D01*
X98136528Y-148469047D01*
X97410814Y-148469047D01*
X97168909Y-148348095D01*
X97047957Y-148227142D01*
X99829861Y-148469047D02*
X100313671Y-148469047D01*
X100555576Y-148348095D01*
X100676528Y-148227142D01*
X100918433Y-147864285D01*
X101039385Y-147380476D01*
X101039385Y-146412857D01*
X100918433Y-146170952D01*
X100797480Y-146050000D01*
X100555576Y-145929047D01*
X100071766Y-145929047D01*
X99829861Y-146050000D01*
X99708909Y-146170952D01*
X99587957Y-146412857D01*
X99587957Y-147017619D01*
X99708909Y-147259523D01*
X99829861Y-147380476D01*
X100071766Y-147501428D01*
X100555576Y-147501428D01*
X100797480Y-147380476D01*
X100918433Y-147259523D01*
X101039385Y-147017619D01*
X81807957Y-145929047D02*
X83380338Y-145929047D01*
X82533671Y-146896666D01*
X82896528Y-146896666D01*
X83138433Y-147017619D01*
X83259385Y-147138571D01*
X83380338Y-147380476D01*
X83380338Y-147985238D01*
X83259385Y-148227142D01*
X83138433Y-148348095D01*
X82896528Y-148469047D01*
X82170814Y-148469047D01*
X81928909Y-148348095D01*
X81807957Y-148227142D01*
X84831766Y-147017619D02*
X84589861Y-146896666D01*
X84468909Y-146775714D01*
X84347957Y-146533809D01*
X84347957Y-146412857D01*
X84468909Y-146170952D01*
X84589861Y-146050000D01*
X84831766Y-145929047D01*
X85315576Y-145929047D01*
X85557480Y-146050000D01*
X85678433Y-146170952D01*
X85799385Y-146412857D01*
X85799385Y-146533809D01*
X85678433Y-146775714D01*
X85557480Y-146896666D01*
X85315576Y-147017619D01*
X84831766Y-147017619D01*
X84589861Y-147138571D01*
X84468909Y-147259523D01*
X84347957Y-147501428D01*
X84347957Y-147985238D01*
X84468909Y-148227142D01*
X84589861Y-148348095D01*
X84831766Y-148469047D01*
X85315576Y-148469047D01*
X85557480Y-148348095D01*
X85678433Y-148227142D01*
X85799385Y-147985238D01*
X85799385Y-147501428D01*
X85678433Y-147259523D01*
X85557480Y-147138571D01*
X85315576Y-147017619D01*
D10*
X423750133Y-152657172D02*
X423749929Y-151800030D01*
X423750031Y-152228601D02*
X425250031Y-152228244D01*
X425035711Y-152085438D01*
X424892820Y-151942615D01*
X424821358Y-151799774D01*
X425250354Y-153585387D02*
X425250388Y-153728244D01*
X425178994Y-153871118D01*
X425107582Y-153942563D01*
X424964742Y-154014026D01*
X424679045Y-154085523D01*
X424321902Y-154085608D01*
X424036171Y-154014247D01*
X423893296Y-153942853D01*
X423821851Y-153871441D01*
X423750388Y-153728601D01*
X423750354Y-153585744D01*
X423821749Y-153442870D01*
X423893160Y-153371424D01*
X424036000Y-153299961D01*
X424321698Y-153228465D01*
X424678841Y-153228380D01*
X424964572Y-153299740D01*
X425107446Y-153371135D01*
X425178892Y-153442546D01*
X425250354Y-153585387D01*
X423893483Y-154728567D02*
X423822072Y-154800012D01*
X423750626Y-154728601D01*
X423822038Y-154657155D01*
X423893483Y-154728567D01*
X423750626Y-154728601D01*
X425250966Y-156156815D02*
X425250796Y-155442529D01*
X424536494Y-155371271D01*
X424607939Y-155442682D01*
X424679402Y-155585523D01*
X424679487Y-155942665D01*
X424608092Y-156085540D01*
X424536681Y-156156985D01*
X424393841Y-156228448D01*
X424036698Y-156228533D01*
X423893824Y-156157138D01*
X423822378Y-156085727D01*
X423750915Y-155942887D01*
X423750830Y-155585744D01*
X423822225Y-155442870D01*
X423893637Y-155371424D01*
X425251204Y-157156815D02*
X425251239Y-157299672D01*
X425179844Y-157442546D01*
X425108432Y-157513992D01*
X424965592Y-157585455D01*
X424679895Y-157656951D01*
X424322752Y-157657036D01*
X424037021Y-157585676D01*
X423894147Y-157514281D01*
X423822701Y-157442869D01*
X423751239Y-157300029D01*
X423751205Y-157157172D01*
X423822599Y-157014298D01*
X423894011Y-156942853D01*
X424036851Y-156871390D01*
X424322548Y-156799893D01*
X424679691Y-156799808D01*
X424965422Y-156871169D01*
X425108296Y-156942563D01*
X425179742Y-157013975D01*
X425251204Y-157156815D01*
X425251545Y-158585386D02*
X425251579Y-158728244D01*
X425180184Y-158871118D01*
X425108773Y-158942563D01*
X424965932Y-159014026D01*
X424680235Y-159085523D01*
X424323092Y-159085608D01*
X424037361Y-159014247D01*
X423894487Y-158942852D01*
X423823041Y-158871441D01*
X423751579Y-158728601D01*
X423751545Y-158585744D01*
X423822939Y-158442869D01*
X423894351Y-158371424D01*
X424037191Y-158299961D01*
X424322888Y-158228465D01*
X424680031Y-158228380D01*
X424965762Y-158299740D01*
X425108636Y-158371135D01*
X425180082Y-158442546D01*
X425251545Y-158585386D01*
X425251885Y-160013958D02*
X425251919Y-160156815D01*
X425180524Y-160299689D01*
X425109113Y-160371135D01*
X424966273Y-160442597D01*
X424680575Y-160514094D01*
X424323432Y-160514179D01*
X424037701Y-160442818D01*
X423894827Y-160371424D01*
X423823381Y-160300012D01*
X423751919Y-160157172D01*
X423751885Y-160014315D01*
X423823279Y-159871441D01*
X423894691Y-159799995D01*
X424037531Y-159728533D01*
X424323228Y-159657036D01*
X424680371Y-159656951D01*
X424966102Y-159728312D01*
X425108977Y-159799706D01*
X425180422Y-159871118D01*
X425251885Y-160013958D01*
X423752429Y-162300029D02*
X424752429Y-162299791D01*
X425252429Y-162299672D02*
X425180983Y-162228261D01*
X425109572Y-162299706D01*
X425181017Y-162371118D01*
X425252429Y-162299672D01*
X425109572Y-162299706D01*
X424752599Y-163014077D02*
X423752599Y-163014315D01*
X424609742Y-163014111D02*
X424681187Y-163085522D01*
X424752650Y-163228363D01*
X424752701Y-163442648D01*
X424681307Y-163585522D01*
X424538466Y-163656985D01*
X423752752Y-163657172D01*
X422361671Y-291114654D02*
X422298171Y-24414654D01*
X418488202Y-291115576D02*
X422948092Y-291114514D01*
X418424702Y-24415576D02*
X422884592Y-24414514D01*
X422298171Y-24414654D02*
X422884860Y-25541018D01*
X422298171Y-24414654D02*
X421712018Y-25541297D01*
X422361671Y-291114654D02*
X422947824Y-289988011D01*
X422361671Y-291114654D02*
X421774982Y-289988290D01*
X418330928Y-278534452D02*
X418330928Y-278677310D01*
X418259500Y-278820167D01*
X418188071Y-278891595D01*
X418045214Y-278963024D01*
X417759500Y-279034452D01*
X417402357Y-279034452D01*
X417116642Y-278963024D01*
X416973785Y-278891595D01*
X416902357Y-278820167D01*
X416830928Y-278677310D01*
X416830928Y-278534452D01*
X416902357Y-278391595D01*
X416973785Y-278320167D01*
X417116642Y-278248738D01*
X417402357Y-278177310D01*
X417759500Y-278177310D01*
X418045214Y-278248738D01*
X418188071Y-278320167D01*
X418259500Y-278391595D01*
X418330928Y-278534452D01*
X416973785Y-279677310D02*
X416902357Y-279748738D01*
X416830928Y-279677310D01*
X416902357Y-279605881D01*
X416973785Y-279677310D01*
X416830928Y-279677310D01*
X418330928Y-281034452D02*
X418330928Y-280748738D01*
X418259500Y-280605881D01*
X418188071Y-280534452D01*
X417973785Y-280391595D01*
X417688071Y-280320167D01*
X417116642Y-280320167D01*
X416973785Y-280391595D01*
X416902357Y-280463024D01*
X416830928Y-280605881D01*
X416830928Y-280891595D01*
X416902357Y-281034452D01*
X416973785Y-281105881D01*
X417116642Y-281177310D01*
X417473785Y-281177310D01*
X417616642Y-281105881D01*
X417688071Y-281034452D01*
X417759500Y-280891595D01*
X417759500Y-280605881D01*
X417688071Y-280463024D01*
X417616642Y-280391595D01*
X417473785Y-280320167D01*
X418330928Y-282534452D02*
X418330928Y-281820167D01*
X417616642Y-281748738D01*
X417688071Y-281820167D01*
X417759500Y-281963024D01*
X417759500Y-282320167D01*
X417688071Y-282463024D01*
X417616642Y-282534452D01*
X417473785Y-282605881D01*
X417116642Y-282605881D01*
X416973785Y-282534452D01*
X416902357Y-282463024D01*
X416830928Y-282320167D01*
X416830928Y-281963024D01*
X416902357Y-281820167D01*
X416973785Y-281748738D01*
X418330928Y-283105881D02*
X418330928Y-284105881D01*
X416830928Y-283463024D01*
X418330928Y-285391595D02*
X418330928Y-284677310D01*
X417616642Y-284605881D01*
X417688071Y-284677310D01*
X417759500Y-284820167D01*
X417759500Y-285177310D01*
X417688071Y-285320167D01*
X417616642Y-285391595D01*
X417473785Y-285463024D01*
X417116642Y-285463024D01*
X416973785Y-285391595D01*
X416902357Y-285320167D01*
X416830928Y-285177310D01*
X416830928Y-284820167D01*
X416902357Y-284677310D01*
X416973785Y-284605881D01*
X416830928Y-287248738D02*
X417830928Y-287248738D01*
X418330928Y-287248738D02*
X418259500Y-287177310D01*
X418188071Y-287248738D01*
X418259500Y-287320167D01*
X418330928Y-287248738D01*
X418188071Y-287248738D01*
X417830928Y-287963024D02*
X416830928Y-287963024D01*
X417688071Y-287963024D02*
X417759500Y-288034452D01*
X417830928Y-288177310D01*
X417830928Y-288391595D01*
X417759500Y-288534452D01*
X417616642Y-288605881D01*
X416830928Y-288605881D01*
X415409500Y-275077060D02*
X415409500Y-291777560D01*
X409899779Y-275077060D02*
X415995921Y-275077060D01*
X409899779Y-291777560D02*
X415995921Y-291777560D01*
X415409500Y-291777560D02*
X414823079Y-290651056D01*
X415409500Y-291777560D02*
X415995921Y-290651056D01*
X415409500Y-275077060D02*
X414823079Y-276203564D01*
X415409500Y-275077060D02*
X415995921Y-276203564D01*
X417860116Y-217011449D02*
X416860117Y-217012042D01*
X418431333Y-216653968D02*
X417359693Y-216297460D01*
X417360243Y-217226032D01*
X417003439Y-217797672D02*
X416932053Y-217869143D01*
X416860582Y-217797756D01*
X416931969Y-217726285D01*
X417003439Y-217797672D01*
X416860582Y-217797756D01*
X418218106Y-218439809D02*
X418289577Y-218511195D01*
X418361090Y-218654010D01*
X418361302Y-219011153D01*
X418289958Y-219154052D01*
X418218572Y-219225523D01*
X418075757Y-219297036D01*
X417932900Y-219297121D01*
X417718572Y-219225819D01*
X416860921Y-218369185D01*
X416861471Y-219297756D01*
X416862318Y-220726327D02*
X416861810Y-219869185D01*
X416862064Y-220297756D02*
X418362064Y-220296867D01*
X418147694Y-220154137D01*
X418004752Y-220011364D01*
X417933239Y-219868549D01*
X418362614Y-221225438D02*
X418363207Y-222225438D01*
X416862826Y-221583470D01*
X418363969Y-223511152D02*
X418363546Y-222796866D01*
X417649218Y-222725861D01*
X417720689Y-222797247D01*
X417792202Y-222940062D01*
X417792414Y-223297205D01*
X417721070Y-223440104D01*
X417649684Y-223511575D01*
X417506869Y-223583089D01*
X417149726Y-223583300D01*
X417006827Y-223511956D01*
X416935356Y-223440570D01*
X416863843Y-223297755D01*
X416863631Y-222940613D01*
X416934975Y-222797713D01*
X417006361Y-222726242D01*
X416865070Y-225369184D02*
X417865070Y-225368591D01*
X418365070Y-225368294D02*
X418293599Y-225296908D01*
X418222213Y-225368379D01*
X418293684Y-225439765D01*
X418365070Y-225368294D01*
X418222213Y-225368379D01*
X417865494Y-226082876D02*
X416865494Y-226083469D01*
X417722637Y-226082961D02*
X417794107Y-226154347D01*
X417865621Y-226297162D01*
X417865748Y-226511448D01*
X417794404Y-226654347D01*
X417651589Y-226725861D01*
X416865875Y-226726326D01*
X415409627Y-167986349D02*
X415473127Y-275110849D01*
X409672156Y-167989750D02*
X415996048Y-167986001D01*
X409735656Y-275114250D02*
X416059548Y-275110501D01*
X415473127Y-275110849D02*
X414886039Y-273984693D01*
X415473127Y-275110849D02*
X416058880Y-273983998D01*
X415409627Y-167986349D02*
X414823874Y-169113200D01*
X415409627Y-167986349D02*
X415996715Y-169112505D01*
X418416971Y-89948966D02*
X418416971Y-90877537D01*
X417845543Y-90377537D01*
X417845543Y-90591823D01*
X417774114Y-90734680D01*
X417702685Y-90806109D01*
X417559828Y-90877537D01*
X417202685Y-90877537D01*
X417059828Y-90806109D01*
X416988400Y-90734680D01*
X416916971Y-90591823D01*
X416916971Y-90163252D01*
X416988400Y-90020395D01*
X417059828Y-89948966D01*
X417059828Y-91520395D02*
X416988400Y-91591823D01*
X416916971Y-91520395D01*
X416988400Y-91448966D01*
X417059828Y-91520395D01*
X416916971Y-91520395D01*
X418416971Y-92091823D02*
X418416971Y-93091823D01*
X416916971Y-92448966D01*
X418416971Y-93520395D02*
X418416971Y-94520395D01*
X416916971Y-93877537D01*
X418416971Y-94948966D02*
X418416971Y-95948966D01*
X416916971Y-95306109D01*
X418416971Y-97234680D02*
X418416971Y-96520395D01*
X417702685Y-96448966D01*
X417774114Y-96520395D01*
X417845543Y-96663252D01*
X417845543Y-97020395D01*
X417774114Y-97163252D01*
X417702685Y-97234680D01*
X417559828Y-97306109D01*
X417202685Y-97306109D01*
X417059828Y-97234680D01*
X416988400Y-97163252D01*
X416916971Y-97020395D01*
X416916971Y-96663252D01*
X416988400Y-96520395D01*
X417059828Y-96448966D01*
X416916971Y-99091823D02*
X417916971Y-99091823D01*
X418416971Y-99091823D02*
X418345543Y-99020395D01*
X418274114Y-99091823D01*
X418345543Y-99163252D01*
X418416971Y-99091823D01*
X418274114Y-99091823D01*
X417916971Y-99806109D02*
X416916971Y-99806109D01*
X417774114Y-99806109D02*
X417845543Y-99877537D01*
X417916971Y-100020395D01*
X417916971Y-100234680D01*
X417845543Y-100377537D01*
X417702685Y-100448966D01*
X416916971Y-100448966D01*
X415495543Y-47296145D02*
X415495543Y-143244645D01*
X409463043Y-47296145D02*
X416081964Y-47296145D01*
X409463043Y-143244645D02*
X416081964Y-143244645D01*
X415495543Y-143244645D02*
X414909122Y-142118141D01*
X415495543Y-143244645D02*
X416081964Y-142118141D01*
X415495543Y-47296145D02*
X414909122Y-48422649D01*
X415495543Y-47296145D02*
X416081964Y-48422649D01*
X418457928Y-42641951D02*
X418457928Y-42784808D01*
X418386500Y-42927665D01*
X418315071Y-42999094D01*
X418172214Y-43070522D01*
X417886500Y-43141951D01*
X417529357Y-43141951D01*
X417243642Y-43070522D01*
X417100785Y-42999094D01*
X417029357Y-42927665D01*
X416957928Y-42784808D01*
X416957928Y-42641951D01*
X417029357Y-42499094D01*
X417100785Y-42427665D01*
X417243642Y-42356236D01*
X417529357Y-42284808D01*
X417886500Y-42284808D01*
X418172214Y-42356236D01*
X418315071Y-42427665D01*
X418386500Y-42499094D01*
X418457928Y-42641951D01*
X417100785Y-43784808D02*
X417029357Y-43856236D01*
X416957928Y-43784808D01*
X417029357Y-43713379D01*
X417100785Y-43784808D01*
X416957928Y-43784808D01*
X418315071Y-44427665D02*
X418386500Y-44499094D01*
X418457928Y-44641951D01*
X418457928Y-44999094D01*
X418386500Y-45141951D01*
X418315071Y-45213379D01*
X418172214Y-45284808D01*
X418029357Y-45284808D01*
X417815071Y-45213379D01*
X416957928Y-44356236D01*
X416957928Y-45284808D01*
X418315071Y-45856236D02*
X418386500Y-45927665D01*
X418457928Y-46070522D01*
X418457928Y-46427665D01*
X418386500Y-46570522D01*
X418315071Y-46641951D01*
X418172214Y-46713379D01*
X418029357Y-46713379D01*
X417815071Y-46641951D01*
X416957928Y-45784808D01*
X416957928Y-46713379D01*
X415536500Y-41705094D02*
X415536500Y-47293094D01*
X409556587Y-41705094D02*
X416122921Y-41705094D01*
X409556587Y-47293094D02*
X416122921Y-47293094D01*
X415536500Y-47293094D02*
X414950079Y-46166590D01*
X415536500Y-47293094D02*
X416122921Y-46166590D01*
X415536500Y-41705094D02*
X414950079Y-42831598D01*
X415536500Y-41705094D02*
X416122921Y-42831598D01*
X418394428Y-28448397D02*
X418394428Y-28591255D01*
X418323000Y-28734112D01*
X418251571Y-28805540D01*
X418108714Y-28876969D01*
X417823000Y-28948397D01*
X417465857Y-28948397D01*
X417180142Y-28876969D01*
X417037285Y-28805540D01*
X416965857Y-28734112D01*
X416894428Y-28591255D01*
X416894428Y-28448397D01*
X416965857Y-28305540D01*
X417037285Y-28234112D01*
X417180142Y-28162683D01*
X417465857Y-28091255D01*
X417823000Y-28091255D01*
X418108714Y-28162683D01*
X418251571Y-28234112D01*
X418323000Y-28305540D01*
X418394428Y-28448397D01*
X417037285Y-29591255D02*
X416965857Y-29662683D01*
X416894428Y-29591255D01*
X416965857Y-29519826D01*
X417037285Y-29591255D01*
X416894428Y-29591255D01*
X418394428Y-30948397D02*
X418394428Y-30662683D01*
X418323000Y-30519826D01*
X418251571Y-30448397D01*
X418037285Y-30305540D01*
X417751571Y-30234112D01*
X417180142Y-30234112D01*
X417037285Y-30305540D01*
X416965857Y-30376969D01*
X416894428Y-30519826D01*
X416894428Y-30805540D01*
X416965857Y-30948397D01*
X417037285Y-31019826D01*
X417180142Y-31091255D01*
X417537285Y-31091255D01*
X417680142Y-31019826D01*
X417751571Y-30948397D01*
X417823000Y-30805540D01*
X417823000Y-30519826D01*
X417751571Y-30376969D01*
X417680142Y-30305540D01*
X417537285Y-30234112D01*
X418394428Y-32448397D02*
X418394428Y-31734112D01*
X417680142Y-31662683D01*
X417751571Y-31734112D01*
X417823000Y-31876969D01*
X417823000Y-32234112D01*
X417751571Y-32376969D01*
X417680142Y-32448397D01*
X417537285Y-32519826D01*
X417180142Y-32519826D01*
X417037285Y-32448397D01*
X416965857Y-32376969D01*
X416894428Y-32234112D01*
X416894428Y-31876969D01*
X416965857Y-31734112D01*
X417037285Y-31662683D01*
X418394428Y-33019826D02*
X418394428Y-34019826D01*
X416894428Y-33376969D01*
X418394428Y-35305540D02*
X418394428Y-34591255D01*
X417680142Y-34519826D01*
X417751571Y-34591255D01*
X417823000Y-34734112D01*
X417823000Y-35091255D01*
X417751571Y-35234112D01*
X417680142Y-35305540D01*
X417537285Y-35376969D01*
X417180142Y-35376969D01*
X417037285Y-35305540D01*
X416965857Y-35234112D01*
X416894428Y-35091255D01*
X416894428Y-34734112D01*
X416965857Y-34591255D01*
X417037285Y-34519826D01*
X416894428Y-37162683D02*
X417894428Y-37162683D01*
X418394428Y-37162683D02*
X418323000Y-37091255D01*
X418251571Y-37162683D01*
X418323000Y-37234112D01*
X418394428Y-37162683D01*
X418251571Y-37162683D01*
X417894428Y-37876969D02*
X416894428Y-37876969D01*
X417751571Y-37876969D02*
X417823000Y-37948397D01*
X417894428Y-38091255D01*
X417894428Y-38305540D01*
X417823000Y-38448397D01*
X417680142Y-38519826D01*
X416894428Y-38519826D01*
X415473000Y-24991005D02*
X415473000Y-41691505D01*
X409600715Y-24991005D02*
X416059421Y-24991005D01*
X409600715Y-41691505D02*
X416059421Y-41691505D01*
X415473000Y-41691505D02*
X414886579Y-40565001D01*
X415473000Y-41691505D02*
X416059421Y-40565001D01*
X415473000Y-24991005D02*
X414886579Y-26117509D01*
X415473000Y-24991005D02*
X416059421Y-26117509D01*
X418394428Y-144179082D02*
X418394428Y-144321939D01*
X418323000Y-144464796D01*
X418251571Y-144536225D01*
X418108714Y-144607653D01*
X417823000Y-144679082D01*
X417465857Y-144679082D01*
X417180142Y-144607653D01*
X417037285Y-144536225D01*
X416965857Y-144464796D01*
X416894428Y-144321939D01*
X416894428Y-144179082D01*
X416965857Y-144036225D01*
X417037285Y-143964796D01*
X417180142Y-143893367D01*
X417465857Y-143821939D01*
X417823000Y-143821939D01*
X418108714Y-143893367D01*
X418251571Y-143964796D01*
X418323000Y-144036225D01*
X418394428Y-144179082D01*
X417037285Y-145321939D02*
X416965857Y-145393367D01*
X416894428Y-145321939D01*
X416965857Y-145250510D01*
X417037285Y-145321939D01*
X416894428Y-145321939D01*
X418251571Y-145964796D02*
X418323000Y-146036225D01*
X418394428Y-146179082D01*
X418394428Y-146536225D01*
X418323000Y-146679082D01*
X418251571Y-146750510D01*
X418108714Y-146821939D01*
X417965857Y-146821939D01*
X417751571Y-146750510D01*
X416894428Y-145893367D01*
X416894428Y-146821939D01*
X418251571Y-147393367D02*
X418323000Y-147464796D01*
X418394428Y-147607653D01*
X418394428Y-147964796D01*
X418323000Y-148107653D01*
X418251571Y-148179082D01*
X418108714Y-148250510D01*
X417965857Y-148250510D01*
X417751571Y-148179082D01*
X416894428Y-147321939D01*
X416894428Y-148250510D01*
X415473000Y-143242225D02*
X415473000Y-148830225D01*
X409550639Y-143242225D02*
X416059421Y-143242225D01*
X409550639Y-148830225D02*
X416059421Y-148830225D01*
X415473000Y-148830225D02*
X414886579Y-147703721D01*
X415473000Y-148830225D02*
X416059421Y-147703721D01*
X415473000Y-143242225D02*
X414886579Y-144368729D01*
X415473000Y-143242225D02*
X416059421Y-144368729D01*
X418330928Y-153477722D02*
X418330928Y-153620580D01*
X418259500Y-153763437D01*
X418188071Y-153834865D01*
X418045214Y-153906294D01*
X417759500Y-153977722D01*
X417402357Y-153977722D01*
X417116642Y-153906294D01*
X416973785Y-153834865D01*
X416902357Y-153763437D01*
X416830928Y-153620580D01*
X416830928Y-153477722D01*
X416902357Y-153334865D01*
X416973785Y-153263437D01*
X417116642Y-153192008D01*
X417402357Y-153120580D01*
X417759500Y-153120580D01*
X418045214Y-153192008D01*
X418188071Y-153263437D01*
X418259500Y-153334865D01*
X418330928Y-153477722D01*
X416973785Y-154620580D02*
X416902357Y-154692008D01*
X416830928Y-154620580D01*
X416902357Y-154549151D01*
X416973785Y-154620580D01*
X416830928Y-154620580D01*
X418330928Y-155192008D02*
X418330928Y-156192008D01*
X416830928Y-155549151D01*
X418330928Y-157477722D02*
X418330928Y-156763437D01*
X417616642Y-156692008D01*
X417688071Y-156763437D01*
X417759500Y-156906294D01*
X417759500Y-157263437D01*
X417688071Y-157406294D01*
X417616642Y-157477722D01*
X417473785Y-157549151D01*
X417116642Y-157549151D01*
X416973785Y-157477722D01*
X416902357Y-157406294D01*
X416830928Y-157263437D01*
X416830928Y-156906294D01*
X416902357Y-156763437D01*
X416973785Y-156692008D01*
X418330928Y-158477722D02*
X418330928Y-158620580D01*
X418259500Y-158763437D01*
X418188071Y-158834865D01*
X418045214Y-158906294D01*
X417759500Y-158977722D01*
X417402357Y-158977722D01*
X417116642Y-158906294D01*
X416973785Y-158834865D01*
X416902357Y-158763437D01*
X416830928Y-158620580D01*
X416830928Y-158477722D01*
X416902357Y-158334865D01*
X416973785Y-158263437D01*
X417116642Y-158192008D01*
X417402357Y-158120580D01*
X417759500Y-158120580D01*
X418045214Y-158192008D01*
X418188071Y-158263437D01*
X418259500Y-158334865D01*
X418330928Y-158477722D01*
X418330928Y-159906294D02*
X418330928Y-160049151D01*
X418259500Y-160192008D01*
X418188071Y-160263437D01*
X418045214Y-160334865D01*
X417759500Y-160406294D01*
X417402357Y-160406294D01*
X417116642Y-160334865D01*
X416973785Y-160263437D01*
X416902357Y-160192008D01*
X416830928Y-160049151D01*
X416830928Y-159906294D01*
X416902357Y-159763437D01*
X416973785Y-159692008D01*
X417116642Y-159620580D01*
X417402357Y-159549151D01*
X417759500Y-159549151D01*
X418045214Y-159620580D01*
X418188071Y-159692008D01*
X418259500Y-159763437D01*
X418330928Y-159906294D01*
X416830928Y-162192008D02*
X417830928Y-162192008D01*
X418330928Y-162192008D02*
X418259500Y-162120580D01*
X418188071Y-162192008D01*
X418259500Y-162263437D01*
X418330928Y-162192008D01*
X418188071Y-162192008D01*
X417830928Y-162906294D02*
X416830928Y-162906294D01*
X417688071Y-162906294D02*
X417759500Y-162977722D01*
X417830928Y-163120580D01*
X417830928Y-163334865D01*
X417759500Y-163477722D01*
X417616642Y-163549151D01*
X416830928Y-163549151D01*
X415409500Y-148845580D02*
X415409500Y-167895580D01*
X409609033Y-148845580D02*
X415995921Y-148845580D01*
X409609033Y-167895580D02*
X415995921Y-167895580D01*
X415409500Y-167895580D02*
X414823079Y-166769076D01*
X415409500Y-167895580D02*
X415995921Y-166769076D01*
X415409500Y-148845580D02*
X414823079Y-149972084D01*
X415409500Y-148845580D02*
X415995921Y-149972084D01*
D12*
G04 #@! TO.C,J1*
X214778000Y-40982900D02*
G75*
G03X214778000Y-40982900I-2180000J0D01*
G01*
X219858000Y-40982900D02*
G75*
G03X219858000Y-40982900I-2180000J0D01*
G01*
X224938000Y-40982900D02*
G75*
G03X224938000Y-40982900I-2180000J0D01*
G01*
X214252000Y-39594900D02*
X214145000Y-39701900D01*
X211316000Y-42529900D02*
X211210000Y-42636900D01*
X213986000Y-39328900D02*
X213879000Y-39435900D01*
X211050000Y-42263900D02*
X210944000Y-42370900D01*
X219332000Y-39594900D02*
X218937000Y-39990900D01*
X216671000Y-42256900D02*
X216291000Y-42636900D01*
X219066000Y-39328900D02*
X218686000Y-39708900D01*
X216420000Y-41974900D02*
X216025000Y-42370900D01*
X224412000Y-39594900D02*
X224017000Y-39990900D01*
X221751000Y-42256900D02*
X221371000Y-42636900D01*
X224146000Y-39328900D02*
X223766000Y-39708900D01*
X221500000Y-41974900D02*
X221105000Y-42370900D01*
X209758000Y-45842900D02*
X209758000Y-46582900D01*
X209758000Y-46582900D02*
X210258000Y-46582900D01*
G04 #@! TO.C,J2*
X31930000Y-40750000D02*
G75*
G03X31930000Y-40750000I-2180000J0D01*
G01*
X37010000Y-40750000D02*
G75*
G03X37010000Y-40750000I-2180000J0D01*
G01*
X42090000Y-40750000D02*
G75*
G03X42090000Y-40750000I-2180000J0D01*
G01*
X31404000Y-39362000D02*
X31297000Y-39469000D01*
X28468000Y-42297000D02*
X28362000Y-42404000D01*
X31138000Y-39096000D02*
X31031000Y-39203000D01*
X28202000Y-42031000D02*
X28096000Y-42138000D01*
X36484000Y-39362000D02*
X36089000Y-39758000D01*
X33823000Y-42024000D02*
X33443000Y-42404000D01*
X36218000Y-39096000D02*
X35838000Y-39476000D01*
X33572000Y-41742000D02*
X33177000Y-42138000D01*
X41564000Y-39362000D02*
X41169000Y-39758000D01*
X38903000Y-42024000D02*
X38523000Y-42404000D01*
X41298000Y-39096000D02*
X40918000Y-39476000D01*
X38652000Y-41742000D02*
X38257000Y-42138000D01*
X26910000Y-45610000D02*
X26910000Y-46350000D01*
X26910000Y-46350000D02*
X27410000Y-46350000D01*
G04 #@! TO.C,J3*
X334080000Y-45850000D02*
X334580000Y-45850000D01*
X334080000Y-45110000D02*
X334080000Y-45850000D01*
X345822000Y-41242000D02*
X345427000Y-41638000D01*
X348468000Y-38596000D02*
X348088000Y-38976000D01*
X346073000Y-41524000D02*
X345693000Y-41904000D01*
X348734000Y-38862000D02*
X348339000Y-39258000D01*
X340742000Y-41242000D02*
X340347000Y-41638000D01*
X343388000Y-38596000D02*
X343008000Y-38976000D01*
X340993000Y-41524000D02*
X340613000Y-41904000D01*
X343654000Y-38862000D02*
X343259000Y-39258000D01*
X335372000Y-41531000D02*
X335266000Y-41638000D01*
X338308000Y-38596000D02*
X338201000Y-38703000D01*
X335638000Y-41797000D02*
X335532000Y-41904000D01*
X338574000Y-38862000D02*
X338467000Y-38969000D01*
X349260000Y-40250000D02*
G75*
G03X349260000Y-40250000I-2180000J0D01*
G01*
X344180000Y-40250000D02*
G75*
G03X344180000Y-40250000I-2180000J0D01*
G01*
X339100000Y-40250000D02*
G75*
G03X339100000Y-40250000I-2180000J0D01*
G01*
G04 #@! TO.C,JJ1*
X22860000Y-178610000D02*
X66280000Y-178610000D01*
X66300000Y-185750000D02*
X66300000Y-178600000D01*
X63050000Y-196000000D02*
X66300000Y-185750000D01*
X59100000Y-196000000D02*
X63050000Y-196000000D01*
X57050000Y-191550000D02*
X59100000Y-196000000D01*
X31950000Y-191550000D02*
X57050000Y-191550000D01*
X30050000Y-196000000D02*
X31950000Y-191550000D01*
X26050000Y-196000000D02*
X30050000Y-196000000D01*
X22850000Y-185750000D02*
X26050000Y-196000000D01*
X22850000Y-178600000D02*
X22850000Y-185750000D01*
X56000000Y-177968000D02*
X56254000Y-177460000D01*
X56254000Y-177460000D02*
X55746000Y-177460000D01*
X55746000Y-177460000D02*
X56000000Y-177968000D01*
G04 #@! TO.C,JM1*
X55746000Y-212460000D02*
X56000000Y-212968000D01*
X56254000Y-212460000D02*
X55746000Y-212460000D01*
X56000000Y-212968000D02*
X56254000Y-212460000D01*
X22850000Y-213600000D02*
X22850000Y-220750000D01*
X22850000Y-220750000D02*
X26050000Y-231000000D01*
X26050000Y-231000000D02*
X30050000Y-231000000D01*
X30050000Y-231000000D02*
X31950000Y-226550000D01*
X31950000Y-226550000D02*
X57050000Y-226550000D01*
X57050000Y-226550000D02*
X59100000Y-231000000D01*
X59100000Y-231000000D02*
X63050000Y-231000000D01*
X63050000Y-231000000D02*
X66300000Y-220750000D01*
X66300000Y-220750000D02*
X66300000Y-213600000D01*
X22860000Y-213610000D02*
X66280000Y-213610000D01*
G04 #@! TO.C,J~STORE~1*
X55746000Y-247460000D02*
X56000000Y-247968000D01*
X56254000Y-247460000D02*
X55746000Y-247460000D01*
X56000000Y-247968000D02*
X56254000Y-247460000D01*
X22850000Y-248600000D02*
X22850000Y-255750000D01*
X22850000Y-255750000D02*
X26050000Y-266000000D01*
X26050000Y-266000000D02*
X30050000Y-266000000D01*
X30050000Y-266000000D02*
X31950000Y-261550000D01*
X31950000Y-261550000D02*
X57050000Y-261550000D01*
X57050000Y-261550000D02*
X59100000Y-266000000D01*
X59100000Y-266000000D02*
X63050000Y-266000000D01*
X63050000Y-266000000D02*
X66300000Y-255750000D01*
X66300000Y-255750000D02*
X66300000Y-248600000D01*
X22860000Y-248610000D02*
X66280000Y-248610000D01*
G04 #@! TO.C,JBP1-BP2-1*
X109746000Y-177460000D02*
X110000000Y-177968000D01*
X110254000Y-177460000D02*
X109746000Y-177460000D01*
X110000000Y-177968000D02*
X110254000Y-177460000D01*
X76850000Y-178600000D02*
X76850000Y-185750000D01*
X76850000Y-185750000D02*
X80050000Y-196000000D01*
X80050000Y-196000000D02*
X84050000Y-196000000D01*
X84050000Y-196000000D02*
X85950000Y-191550000D01*
X85950000Y-191550000D02*
X111050000Y-191550000D01*
X111050000Y-191550000D02*
X113100000Y-196000000D01*
X113100000Y-196000000D02*
X117050000Y-196000000D01*
X117050000Y-196000000D02*
X120300000Y-185750000D01*
X120300000Y-185750000D02*
X120300000Y-178600000D01*
X76860000Y-178610000D02*
X120280000Y-178610000D01*
G04 #@! TO.C,JBP1-BP2-2*
X76860000Y-213610000D02*
X120280000Y-213610000D01*
X120300000Y-220750000D02*
X120300000Y-213600000D01*
X117050000Y-231000000D02*
X120300000Y-220750000D01*
X113100000Y-231000000D02*
X117050000Y-231000000D01*
X111050000Y-226550000D02*
X113100000Y-231000000D01*
X85950000Y-226550000D02*
X111050000Y-226550000D01*
X84050000Y-231000000D02*
X85950000Y-226550000D01*
X80050000Y-231000000D02*
X84050000Y-231000000D01*
X76850000Y-220750000D02*
X80050000Y-231000000D01*
X76850000Y-213600000D02*
X76850000Y-220750000D01*
X110000000Y-212968000D02*
X110254000Y-212460000D01*
X110254000Y-212460000D02*
X109746000Y-212460000D01*
X109746000Y-212460000D02*
X110000000Y-212968000D01*
G04 #@! TO.C,JBP1-BP2-3*
X234746000Y-177460000D02*
X235000000Y-177968000D01*
X235254000Y-177460000D02*
X234746000Y-177460000D01*
X235000000Y-177968000D02*
X235254000Y-177460000D01*
X201850000Y-178600000D02*
X201850000Y-185750000D01*
X201850000Y-185750000D02*
X205050000Y-196000000D01*
X205050000Y-196000000D02*
X209050000Y-196000000D01*
X209050000Y-196000000D02*
X210950000Y-191550000D01*
X210950000Y-191550000D02*
X236050000Y-191550000D01*
X236050000Y-191550000D02*
X238100000Y-196000000D01*
X238100000Y-196000000D02*
X242050000Y-196000000D01*
X242050000Y-196000000D02*
X245300000Y-185750000D01*
X245300000Y-185750000D02*
X245300000Y-178600000D01*
X201860000Y-178610000D02*
X245280000Y-178610000D01*
G04 #@! TO.C,JBP1-BP2-4*
X164746000Y-212460000D02*
X165000000Y-212968000D01*
X165254000Y-212460000D02*
X164746000Y-212460000D01*
X165000000Y-212968000D02*
X165254000Y-212460000D01*
X131850000Y-213600000D02*
X131850000Y-220750000D01*
X131850000Y-220750000D02*
X135050000Y-231000000D01*
X135050000Y-231000000D02*
X139050000Y-231000000D01*
X139050000Y-231000000D02*
X140950000Y-226550000D01*
X140950000Y-226550000D02*
X166050000Y-226550000D01*
X166050000Y-226550000D02*
X168100000Y-231000000D01*
X168100000Y-231000000D02*
X172050000Y-231000000D01*
X172050000Y-231000000D02*
X175300000Y-220750000D01*
X175300000Y-220750000D02*
X175300000Y-213600000D01*
X131860000Y-213610000D02*
X175280000Y-213610000D01*
G04 #@! TO.C,JBP1-BP2-5*
X336860000Y-248610000D02*
X380280000Y-248610000D01*
X380300000Y-255750000D02*
X380300000Y-248600000D01*
X377050000Y-266000000D02*
X380300000Y-255750000D01*
X373100000Y-266000000D02*
X377050000Y-266000000D01*
X371050000Y-261550000D02*
X373100000Y-266000000D01*
X345950000Y-261550000D02*
X371050000Y-261550000D01*
X344050000Y-266000000D02*
X345950000Y-261550000D01*
X340050000Y-266000000D02*
X344050000Y-266000000D01*
X336850000Y-255750000D02*
X340050000Y-266000000D01*
X336850000Y-248600000D02*
X336850000Y-255750000D01*
X370000000Y-247968000D02*
X370254000Y-247460000D01*
X370254000Y-247460000D02*
X369746000Y-247460000D01*
X369746000Y-247460000D02*
X370000000Y-247968000D01*
G04 #@! TO.C,JBP1-BP3-1*
X309746000Y-247460000D02*
X310000000Y-247968000D01*
X310254000Y-247460000D02*
X309746000Y-247460000D01*
X310000000Y-247968000D02*
X310254000Y-247460000D01*
X276850000Y-248600000D02*
X276850000Y-255750000D01*
X276850000Y-255750000D02*
X280050000Y-266000000D01*
X280050000Y-266000000D02*
X284050000Y-266000000D01*
X284050000Y-266000000D02*
X285950000Y-261550000D01*
X285950000Y-261550000D02*
X311050000Y-261550000D01*
X311050000Y-261550000D02*
X313100000Y-266000000D01*
X313100000Y-266000000D02*
X317050000Y-266000000D01*
X317050000Y-266000000D02*
X320300000Y-255750000D01*
X320300000Y-255750000D02*
X320300000Y-248600000D01*
X276860000Y-248610000D02*
X320280000Y-248610000D01*
G04 #@! TO.C,JIP1*
X165075000Y-177460000D02*
X165329000Y-177968000D01*
X165583000Y-177460000D02*
X165075000Y-177460000D01*
X165329000Y-177968000D02*
X165583000Y-177460000D01*
X132179000Y-178600000D02*
X132179000Y-185750000D01*
X132179000Y-185750000D02*
X135379000Y-196000000D01*
X135379000Y-196000000D02*
X139379000Y-196000000D01*
X139379000Y-196000000D02*
X141279000Y-191550000D01*
X141279000Y-191550000D02*
X166379000Y-191550000D01*
X166379000Y-191550000D02*
X168429000Y-196000000D01*
X168429000Y-196000000D02*
X172379000Y-196000000D01*
X172379000Y-196000000D02*
X175629000Y-185750000D01*
X175629000Y-185750000D02*
X175629000Y-178600000D01*
X132189000Y-178610000D02*
X175609000Y-178610000D01*
G04 #@! TO.C,JSKT1-1*
X369746000Y-177460000D02*
X370000000Y-177968000D01*
X370254000Y-177460000D02*
X369746000Y-177460000D01*
X370000000Y-177968000D02*
X370254000Y-177460000D01*
X336850000Y-178600000D02*
X336850000Y-185750000D01*
X336850000Y-185750000D02*
X340050000Y-196000000D01*
X340050000Y-196000000D02*
X344050000Y-196000000D01*
X344050000Y-196000000D02*
X345950000Y-191550000D01*
X345950000Y-191550000D02*
X371050000Y-191550000D01*
X371050000Y-191550000D02*
X373100000Y-196000000D01*
X373100000Y-196000000D02*
X377050000Y-196000000D01*
X377050000Y-196000000D02*
X380300000Y-185750000D01*
X380300000Y-185750000D02*
X380300000Y-178600000D01*
X336860000Y-178610000D02*
X380280000Y-178610000D01*
G04 #@! TO.C,JSKT1-2*
X201860000Y-248610000D02*
X245280000Y-248610000D01*
X245300000Y-255750000D02*
X245300000Y-248600000D01*
X242050000Y-266000000D02*
X245300000Y-255750000D01*
X238100000Y-266000000D02*
X242050000Y-266000000D01*
X236050000Y-261550000D02*
X238100000Y-266000000D01*
X210950000Y-261550000D02*
X236050000Y-261550000D01*
X209050000Y-266000000D02*
X210950000Y-261550000D01*
X205050000Y-266000000D02*
X209050000Y-266000000D01*
X201850000Y-255750000D02*
X205050000Y-266000000D01*
X201850000Y-248600000D02*
X201850000Y-255750000D01*
X235000000Y-247968000D02*
X235254000Y-247460000D01*
X235254000Y-247460000D02*
X234746000Y-247460000D01*
X234746000Y-247460000D02*
X235000000Y-247968000D01*
G04 #@! TO.C,JSKT1-3*
X109746000Y-247460000D02*
X110000000Y-247968000D01*
X110254000Y-247460000D02*
X109746000Y-247460000D01*
X110000000Y-247968000D02*
X110254000Y-247460000D01*
X76850000Y-248600000D02*
X76850000Y-255750000D01*
X76850000Y-255750000D02*
X80050000Y-266000000D01*
X80050000Y-266000000D02*
X84050000Y-266000000D01*
X84050000Y-266000000D02*
X85950000Y-261550000D01*
X85950000Y-261550000D02*
X111050000Y-261550000D01*
X111050000Y-261550000D02*
X113100000Y-266000000D01*
X113100000Y-266000000D02*
X117050000Y-266000000D01*
X117050000Y-266000000D02*
X120300000Y-255750000D01*
X120300000Y-255750000D02*
X120300000Y-248600000D01*
X76860000Y-248610000D02*
X120280000Y-248610000D01*
G04 #@! TO.C,JSKT2-1*
X131860000Y-248610000D02*
X175280000Y-248610000D01*
X175300000Y-255750000D02*
X175300000Y-248600000D01*
X172050000Y-266000000D02*
X175300000Y-255750000D01*
X168100000Y-266000000D02*
X172050000Y-266000000D01*
X166050000Y-261550000D02*
X168100000Y-266000000D01*
X140950000Y-261550000D02*
X166050000Y-261550000D01*
X139050000Y-266000000D02*
X140950000Y-261550000D01*
X135050000Y-266000000D02*
X139050000Y-266000000D01*
X131850000Y-255750000D02*
X135050000Y-266000000D01*
X131850000Y-248600000D02*
X131850000Y-255750000D01*
X165000000Y-247968000D02*
X165254000Y-247460000D01*
X165254000Y-247460000D02*
X164746000Y-247460000D01*
X164746000Y-247460000D02*
X165000000Y-247968000D01*
G04 #@! TO.C,JSKT2-2*
X369746000Y-212460000D02*
X370000000Y-212968000D01*
X370254000Y-212460000D02*
X369746000Y-212460000D01*
X370000000Y-212968000D02*
X370254000Y-212460000D01*
X336850000Y-213600000D02*
X336850000Y-220750000D01*
X336850000Y-220750000D02*
X340050000Y-231000000D01*
X340050000Y-231000000D02*
X344050000Y-231000000D01*
X344050000Y-231000000D02*
X345950000Y-226550000D01*
X345950000Y-226550000D02*
X371050000Y-226550000D01*
X371050000Y-226550000D02*
X373100000Y-231000000D01*
X373100000Y-231000000D02*
X377050000Y-231000000D01*
X377050000Y-231000000D02*
X380300000Y-220750000D01*
X380300000Y-220750000D02*
X380300000Y-213600000D01*
X336860000Y-213610000D02*
X380280000Y-213610000D01*
G04 #@! TO.C,JSKT2-3*
X276860000Y-178610000D02*
X320280000Y-178610000D01*
X320300000Y-185750000D02*
X320300000Y-178600000D01*
X317050000Y-196000000D02*
X320300000Y-185750000D01*
X313100000Y-196000000D02*
X317050000Y-196000000D01*
X311050000Y-191550000D02*
X313100000Y-196000000D01*
X285950000Y-191550000D02*
X311050000Y-191550000D01*
X284050000Y-196000000D02*
X285950000Y-191550000D01*
X280050000Y-196000000D02*
X284050000Y-196000000D01*
X276850000Y-185750000D02*
X280050000Y-196000000D01*
X276850000Y-178600000D02*
X276850000Y-185750000D01*
X310000000Y-177968000D02*
X310254000Y-177460000D01*
X310254000Y-177460000D02*
X309746000Y-177460000D01*
X309746000Y-177460000D02*
X310000000Y-177968000D01*
G04 #@! TO.C,JW1*
X201860000Y-213610000D02*
X245280000Y-213610000D01*
X245300000Y-220750000D02*
X245300000Y-213600000D01*
X242050000Y-231000000D02*
X245300000Y-220750000D01*
X238100000Y-231000000D02*
X242050000Y-231000000D01*
X236050000Y-226550000D02*
X238100000Y-231000000D01*
X210950000Y-226550000D02*
X236050000Y-226550000D01*
X209050000Y-231000000D02*
X210950000Y-226550000D01*
X205050000Y-231000000D02*
X209050000Y-231000000D01*
X201850000Y-220750000D02*
X205050000Y-231000000D01*
X201850000Y-213600000D02*
X201850000Y-220750000D01*
X235000000Y-212968000D02*
X235254000Y-212460000D01*
X235254000Y-212460000D02*
X234746000Y-212460000D01*
X234746000Y-212460000D02*
X235000000Y-212968000D01*
G04 #@! TO.C,J~A~1*
X276860000Y-213610000D02*
X320280000Y-213610000D01*
X320300000Y-220750000D02*
X320300000Y-213600000D01*
X317050000Y-231000000D02*
X320300000Y-220750000D01*
X313100000Y-231000000D02*
X317050000Y-231000000D01*
X311050000Y-226550000D02*
X313100000Y-231000000D01*
X285950000Y-226550000D02*
X311050000Y-226550000D01*
X284050000Y-231000000D02*
X285950000Y-226550000D01*
X280050000Y-231000000D02*
X284050000Y-231000000D01*
X276850000Y-220750000D02*
X280050000Y-231000000D01*
X276850000Y-213600000D02*
X276850000Y-220750000D01*
X310000000Y-212968000D02*
X310254000Y-212460000D01*
X310254000Y-212460000D02*
X309746000Y-212460000D01*
X309746000Y-212460000D02*
X310000000Y-212968000D01*
G04 #@! TO.C,TH53*
D13*
X311928095Y-26582380D02*
X312499523Y-26582380D01*
X312213809Y-27582380D02*
X312213809Y-26582380D01*
X312832857Y-27582380D02*
X312832857Y-26582380D01*
X312832857Y-27058571D02*
X313404285Y-27058571D01*
X313404285Y-27582380D02*
X313404285Y-26582380D01*
X314356666Y-26582380D02*
X313880476Y-26582380D01*
X313832857Y-27058571D01*
X313880476Y-27010952D01*
X313975714Y-26963333D01*
X314213809Y-26963333D01*
X314309047Y-27010952D01*
X314356666Y-27058571D01*
X314404285Y-27153809D01*
X314404285Y-27391904D01*
X314356666Y-27487142D01*
X314309047Y-27534761D01*
X314213809Y-27582380D01*
X313975714Y-27582380D01*
X313880476Y-27534761D01*
X313832857Y-27487142D01*
X314737619Y-26582380D02*
X315356666Y-26582380D01*
X315023333Y-26963333D01*
X315166190Y-26963333D01*
X315261428Y-27010952D01*
X315309047Y-27058571D01*
X315356666Y-27153809D01*
X315356666Y-27391904D01*
X315309047Y-27487142D01*
X315261428Y-27534761D01*
X315166190Y-27582380D01*
X314880476Y-27582380D01*
X314785238Y-27534761D01*
X314737619Y-27487142D01*
G04 #@! TO.C,TH1*
X220964285Y-26582380D02*
X221535714Y-26582380D01*
X221250000Y-27582380D02*
X221250000Y-26582380D01*
X221869047Y-27582380D02*
X221869047Y-26582380D01*
X221869047Y-27058571D02*
X222440476Y-27058571D01*
X222440476Y-27582380D02*
X222440476Y-26582380D01*
X223440476Y-27582380D02*
X222869047Y-27582380D01*
X223154761Y-27582380D02*
X223154761Y-26582380D01*
X223059523Y-26725238D01*
X222964285Y-26820476D01*
X222869047Y-26868095D01*
G04 #@! TO.C,TH45*
X190008095Y-26582380D02*
X190579523Y-26582380D01*
X190293809Y-27582380D02*
X190293809Y-26582380D01*
X190912857Y-27582380D02*
X190912857Y-26582380D01*
X190912857Y-27058571D02*
X191484285Y-27058571D01*
X191484285Y-27582380D02*
X191484285Y-26582380D01*
X192389047Y-26915714D02*
X192389047Y-27582380D01*
X192150952Y-26534761D02*
X191912857Y-27249047D01*
X192531904Y-27249047D01*
X193389047Y-26582380D02*
X192912857Y-26582380D01*
X192865238Y-27058571D01*
X192912857Y-27010952D01*
X193008095Y-26963333D01*
X193246190Y-26963333D01*
X193341428Y-27010952D01*
X193389047Y-27058571D01*
X193436666Y-27153809D01*
X193436666Y-27391904D01*
X193389047Y-27487142D01*
X193341428Y-27534761D01*
X193246190Y-27582380D01*
X193008095Y-27582380D01*
X192912857Y-27534761D01*
X192865238Y-27487142D01*
G04 #@! TO.C,TH37*
X68088095Y-26582380D02*
X68659523Y-26582380D01*
X68373809Y-27582380D02*
X68373809Y-26582380D01*
X68992857Y-27582380D02*
X68992857Y-26582380D01*
X68992857Y-27058571D02*
X69564285Y-27058571D01*
X69564285Y-27582380D02*
X69564285Y-26582380D01*
X69945238Y-26582380D02*
X70564285Y-26582380D01*
X70230952Y-26963333D01*
X70373809Y-26963333D01*
X70469047Y-27010952D01*
X70516666Y-27058571D01*
X70564285Y-27153809D01*
X70564285Y-27391904D01*
X70516666Y-27487142D01*
X70469047Y-27534761D01*
X70373809Y-27582380D01*
X70088095Y-27582380D01*
X69992857Y-27534761D01*
X69945238Y-27487142D01*
X70897619Y-26582380D02*
X71564285Y-26582380D01*
X71135714Y-27582380D01*
G04 #@! TO.C,TH39*
X98568095Y-26582380D02*
X99139523Y-26582380D01*
X98853809Y-27582380D02*
X98853809Y-26582380D01*
X99472857Y-27582380D02*
X99472857Y-26582380D01*
X99472857Y-27058571D02*
X100044285Y-27058571D01*
X100044285Y-27582380D02*
X100044285Y-26582380D01*
X100425238Y-26582380D02*
X101044285Y-26582380D01*
X100710952Y-26963333D01*
X100853809Y-26963333D01*
X100949047Y-27010952D01*
X100996666Y-27058571D01*
X101044285Y-27153809D01*
X101044285Y-27391904D01*
X100996666Y-27487142D01*
X100949047Y-27534761D01*
X100853809Y-27582380D01*
X100568095Y-27582380D01*
X100472857Y-27534761D01*
X100425238Y-27487142D01*
X101520476Y-27582380D02*
X101710952Y-27582380D01*
X101806190Y-27534761D01*
X101853809Y-27487142D01*
X101949047Y-27344285D01*
X101996666Y-27153809D01*
X101996666Y-26772857D01*
X101949047Y-26677619D01*
X101901428Y-26630000D01*
X101806190Y-26582380D01*
X101615714Y-26582380D01*
X101520476Y-26630000D01*
X101472857Y-26677619D01*
X101425238Y-26772857D01*
X101425238Y-27010952D01*
X101472857Y-27106190D01*
X101520476Y-27153809D01*
X101615714Y-27201428D01*
X101806190Y-27201428D01*
X101901428Y-27153809D01*
X101949047Y-27106190D01*
X101996666Y-27010952D01*
G04 #@! TO.C,TH41*
X129048095Y-26582380D02*
X129619523Y-26582380D01*
X129333809Y-27582380D02*
X129333809Y-26582380D01*
X129952857Y-27582380D02*
X129952857Y-26582380D01*
X129952857Y-27058571D02*
X130524285Y-27058571D01*
X130524285Y-27582380D02*
X130524285Y-26582380D01*
X131429047Y-26915714D02*
X131429047Y-27582380D01*
X131190952Y-26534761D02*
X130952857Y-27249047D01*
X131571904Y-27249047D01*
X132476666Y-27582380D02*
X131905238Y-27582380D01*
X132190952Y-27582380D02*
X132190952Y-26582380D01*
X132095714Y-26725238D01*
X132000476Y-26820476D01*
X131905238Y-26868095D01*
G04 #@! TO.C,TH43*
X159528095Y-26582380D02*
X160099523Y-26582380D01*
X159813809Y-27582380D02*
X159813809Y-26582380D01*
X160432857Y-27582380D02*
X160432857Y-26582380D01*
X160432857Y-27058571D02*
X161004285Y-27058571D01*
X161004285Y-27582380D02*
X161004285Y-26582380D01*
X161909047Y-26915714D02*
X161909047Y-27582380D01*
X161670952Y-26534761D02*
X161432857Y-27249047D01*
X162051904Y-27249047D01*
X162337619Y-26582380D02*
X162956666Y-26582380D01*
X162623333Y-26963333D01*
X162766190Y-26963333D01*
X162861428Y-27010952D01*
X162909047Y-27058571D01*
X162956666Y-27153809D01*
X162956666Y-27391904D01*
X162909047Y-27487142D01*
X162861428Y-27534761D01*
X162766190Y-27582380D01*
X162480476Y-27582380D01*
X162385238Y-27534761D01*
X162337619Y-27487142D01*
G04 #@! TO.C,TH49*
X250968095Y-26582380D02*
X251539523Y-26582380D01*
X251253809Y-27582380D02*
X251253809Y-26582380D01*
X251872857Y-27582380D02*
X251872857Y-26582380D01*
X251872857Y-27058571D02*
X252444285Y-27058571D01*
X252444285Y-27582380D02*
X252444285Y-26582380D01*
X253349047Y-26915714D02*
X253349047Y-27582380D01*
X253110952Y-26534761D02*
X252872857Y-27249047D01*
X253491904Y-27249047D01*
X253920476Y-27582380D02*
X254110952Y-27582380D01*
X254206190Y-27534761D01*
X254253809Y-27487142D01*
X254349047Y-27344285D01*
X254396666Y-27153809D01*
X254396666Y-26772857D01*
X254349047Y-26677619D01*
X254301428Y-26630000D01*
X254206190Y-26582380D01*
X254015714Y-26582380D01*
X253920476Y-26630000D01*
X253872857Y-26677619D01*
X253825238Y-26772857D01*
X253825238Y-27010952D01*
X253872857Y-27106190D01*
X253920476Y-27153809D01*
X254015714Y-27201428D01*
X254206190Y-27201428D01*
X254301428Y-27153809D01*
X254349047Y-27106190D01*
X254396666Y-27010952D01*
G04 #@! TO.C,TH51*
X281448095Y-26582380D02*
X282019523Y-26582380D01*
X281733809Y-27582380D02*
X281733809Y-26582380D01*
X282352857Y-27582380D02*
X282352857Y-26582380D01*
X282352857Y-27058571D02*
X282924285Y-27058571D01*
X282924285Y-27582380D02*
X282924285Y-26582380D01*
X283876666Y-26582380D02*
X283400476Y-26582380D01*
X283352857Y-27058571D01*
X283400476Y-27010952D01*
X283495714Y-26963333D01*
X283733809Y-26963333D01*
X283829047Y-27010952D01*
X283876666Y-27058571D01*
X283924285Y-27153809D01*
X283924285Y-27391904D01*
X283876666Y-27487142D01*
X283829047Y-27534761D01*
X283733809Y-27582380D01*
X283495714Y-27582380D01*
X283400476Y-27534761D01*
X283352857Y-27487142D01*
X284876666Y-27582380D02*
X284305238Y-27582380D01*
X284590952Y-27582380D02*
X284590952Y-26582380D01*
X284495714Y-26725238D01*
X284400476Y-26820476D01*
X284305238Y-26868095D01*
G04 #@! TO.C,JJ1*
X43835714Y-192152380D02*
X43835714Y-192866666D01*
X43788095Y-193009523D01*
X43692857Y-193104761D01*
X43550000Y-193152380D01*
X43454761Y-193152380D01*
X44597619Y-192152380D02*
X44597619Y-192866666D01*
X44550000Y-193009523D01*
X44454761Y-193104761D01*
X44311904Y-193152380D01*
X44216666Y-193152380D01*
X45597619Y-193152380D02*
X45026190Y-193152380D01*
X45311904Y-193152380D02*
X45311904Y-192152380D01*
X45216666Y-192295238D01*
X45121428Y-192390476D01*
X45026190Y-192438095D01*
G04 #@! TO.C,JM1*
X43645238Y-227152380D02*
X43645238Y-227866666D01*
X43597619Y-228009523D01*
X43502380Y-228104761D01*
X43359523Y-228152380D01*
X43264285Y-228152380D01*
X44121428Y-228152380D02*
X44121428Y-227152380D01*
X44454761Y-227866666D01*
X44788095Y-227152380D01*
X44788095Y-228152380D01*
X45788095Y-228152380D02*
X45216666Y-228152380D01*
X45502380Y-228152380D02*
X45502380Y-227152380D01*
X45407142Y-227295238D01*
X45311904Y-227390476D01*
X45216666Y-227438095D01*
G04 #@! TO.C,J~STORE~1*
X41883333Y-262152380D02*
X41883333Y-262866666D01*
X41835714Y-263009523D01*
X41740476Y-263104761D01*
X41597619Y-263152380D01*
X41502380Y-263152380D01*
X42121428Y-261785000D02*
X43073809Y-261785000D01*
X42311904Y-263104761D02*
X42454761Y-263152380D01*
X42692857Y-263152380D01*
X42788095Y-263104761D01*
X42835714Y-263057142D01*
X42883333Y-262961904D01*
X42883333Y-262866666D01*
X42835714Y-262771428D01*
X42788095Y-262723809D01*
X42692857Y-262676190D01*
X42502380Y-262628571D01*
X42407142Y-262580952D01*
X42359523Y-262533333D01*
X42311904Y-262438095D01*
X42311904Y-262342857D01*
X42359523Y-262247619D01*
X42407142Y-262200000D01*
X42502380Y-262152380D01*
X42740476Y-262152380D01*
X42883333Y-262200000D01*
X43073809Y-261785000D02*
X43835714Y-261785000D01*
X43169047Y-262152380D02*
X43740476Y-262152380D01*
X43454761Y-263152380D02*
X43454761Y-262152380D01*
X43835714Y-261785000D02*
X44883333Y-261785000D01*
X44264285Y-262152380D02*
X44454761Y-262152380D01*
X44549999Y-262200000D01*
X44645238Y-262295238D01*
X44692857Y-262485714D01*
X44692857Y-262819047D01*
X44645238Y-263009523D01*
X44549999Y-263104761D01*
X44454761Y-263152380D01*
X44264285Y-263152380D01*
X44169047Y-263104761D01*
X44073809Y-263009523D01*
X44026190Y-262819047D01*
X44026190Y-262485714D01*
X44073809Y-262295238D01*
X44169047Y-262200000D01*
X44264285Y-262152380D01*
X44883333Y-261785000D02*
X45883333Y-261785000D01*
X45692857Y-263152380D02*
X45359523Y-262676190D01*
X45121428Y-263152380D02*
X45121428Y-262152380D01*
X45502380Y-262152380D01*
X45597619Y-262200000D01*
X45645238Y-262247619D01*
X45692857Y-262342857D01*
X45692857Y-262485714D01*
X45645238Y-262580952D01*
X45597619Y-262628571D01*
X45502380Y-262676190D01*
X45121428Y-262676190D01*
X45883333Y-261785000D02*
X46788095Y-261785000D01*
X46121428Y-262628571D02*
X46454761Y-262628571D01*
X46597619Y-263152380D02*
X46121428Y-263152380D01*
X46121428Y-262152380D01*
X46597619Y-262152380D01*
X47550000Y-263152380D02*
X46978571Y-263152380D01*
X47264285Y-263152380D02*
X47264285Y-262152380D01*
X47169047Y-262295238D01*
X47073809Y-262390476D01*
X46978571Y-262438095D01*
G04 #@! TO.C,JBP1-BP2-1*
X94026190Y-192152380D02*
X94026190Y-192866666D01*
X93978571Y-193009523D01*
X93883333Y-193104761D01*
X93740476Y-193152380D01*
X93645238Y-193152380D01*
X94835714Y-192628571D02*
X94978571Y-192676190D01*
X95026190Y-192723809D01*
X95073809Y-192819047D01*
X95073809Y-192961904D01*
X95026190Y-193057142D01*
X94978571Y-193104761D01*
X94883333Y-193152380D01*
X94502380Y-193152380D01*
X94502380Y-192152380D01*
X94835714Y-192152380D01*
X94930952Y-192200000D01*
X94978571Y-192247619D01*
X95026190Y-192342857D01*
X95026190Y-192438095D01*
X94978571Y-192533333D01*
X94930952Y-192580952D01*
X94835714Y-192628571D01*
X94502380Y-192628571D01*
X95502380Y-193152380D02*
X95502380Y-192152380D01*
X95883333Y-192152380D01*
X95978571Y-192200000D01*
X96026190Y-192247619D01*
X96073809Y-192342857D01*
X96073809Y-192485714D01*
X96026190Y-192580952D01*
X95978571Y-192628571D01*
X95883333Y-192676190D01*
X95502380Y-192676190D01*
X97026190Y-193152380D02*
X96454761Y-193152380D01*
X96740476Y-193152380D02*
X96740476Y-192152380D01*
X96645238Y-192295238D01*
X96550000Y-192390476D01*
X96454761Y-192438095D01*
X97454761Y-192771428D02*
X98216666Y-192771428D01*
X99026190Y-192628571D02*
X99169047Y-192676190D01*
X99216666Y-192723809D01*
X99264285Y-192819047D01*
X99264285Y-192961904D01*
X99216666Y-193057142D01*
X99169047Y-193104761D01*
X99073809Y-193152380D01*
X98692857Y-193152380D01*
X98692857Y-192152380D01*
X99026190Y-192152380D01*
X99121428Y-192200000D01*
X99169047Y-192247619D01*
X99216666Y-192342857D01*
X99216666Y-192438095D01*
X99169047Y-192533333D01*
X99121428Y-192580952D01*
X99026190Y-192628571D01*
X98692857Y-192628571D01*
X99692857Y-193152380D02*
X99692857Y-192152380D01*
X100073809Y-192152380D01*
X100169047Y-192200000D01*
X100216666Y-192247619D01*
X100264285Y-192342857D01*
X100264285Y-192485714D01*
X100216666Y-192580952D01*
X100169047Y-192628571D01*
X100073809Y-192676190D01*
X99692857Y-192676190D01*
X100645238Y-192247619D02*
X100692857Y-192200000D01*
X100788095Y-192152380D01*
X101026190Y-192152380D01*
X101121428Y-192200000D01*
X101169047Y-192247619D01*
X101216666Y-192342857D01*
X101216666Y-192438095D01*
X101169047Y-192580952D01*
X100597619Y-193152380D01*
X101216666Y-193152380D01*
X101645238Y-192771428D02*
X102407142Y-192771428D01*
X103407142Y-193152380D02*
X102835714Y-193152380D01*
X103121428Y-193152380D02*
X103121428Y-192152380D01*
X103026190Y-192295238D01*
X102930952Y-192390476D01*
X102835714Y-192438095D01*
G04 #@! TO.C,JBP1-BP2-2*
X94026190Y-227152380D02*
X94026190Y-227866666D01*
X93978571Y-228009523D01*
X93883333Y-228104761D01*
X93740476Y-228152380D01*
X93645238Y-228152380D01*
X94835714Y-227628571D02*
X94978571Y-227676190D01*
X95026190Y-227723809D01*
X95073809Y-227819047D01*
X95073809Y-227961904D01*
X95026190Y-228057142D01*
X94978571Y-228104761D01*
X94883333Y-228152380D01*
X94502380Y-228152380D01*
X94502380Y-227152380D01*
X94835714Y-227152380D01*
X94930952Y-227200000D01*
X94978571Y-227247619D01*
X95026190Y-227342857D01*
X95026190Y-227438095D01*
X94978571Y-227533333D01*
X94930952Y-227580952D01*
X94835714Y-227628571D01*
X94502380Y-227628571D01*
X95502380Y-228152380D02*
X95502380Y-227152380D01*
X95883333Y-227152380D01*
X95978571Y-227200000D01*
X96026190Y-227247619D01*
X96073809Y-227342857D01*
X96073809Y-227485714D01*
X96026190Y-227580952D01*
X95978571Y-227628571D01*
X95883333Y-227676190D01*
X95502380Y-227676190D01*
X97026190Y-228152380D02*
X96454761Y-228152380D01*
X96740476Y-228152380D02*
X96740476Y-227152380D01*
X96645238Y-227295238D01*
X96550000Y-227390476D01*
X96454761Y-227438095D01*
X97454761Y-227771428D02*
X98216666Y-227771428D01*
X99026190Y-227628571D02*
X99169047Y-227676190D01*
X99216666Y-227723809D01*
X99264285Y-227819047D01*
X99264285Y-227961904D01*
X99216666Y-228057142D01*
X99169047Y-228104761D01*
X99073809Y-228152380D01*
X98692857Y-228152380D01*
X98692857Y-227152380D01*
X99026190Y-227152380D01*
X99121428Y-227200000D01*
X99169047Y-227247619D01*
X99216666Y-227342857D01*
X99216666Y-227438095D01*
X99169047Y-227533333D01*
X99121428Y-227580952D01*
X99026190Y-227628571D01*
X98692857Y-227628571D01*
X99692857Y-228152380D02*
X99692857Y-227152380D01*
X100073809Y-227152380D01*
X100169047Y-227200000D01*
X100216666Y-227247619D01*
X100264285Y-227342857D01*
X100264285Y-227485714D01*
X100216666Y-227580952D01*
X100169047Y-227628571D01*
X100073809Y-227676190D01*
X99692857Y-227676190D01*
X100645238Y-227247619D02*
X100692857Y-227200000D01*
X100788095Y-227152380D01*
X101026190Y-227152380D01*
X101121428Y-227200000D01*
X101169047Y-227247619D01*
X101216666Y-227342857D01*
X101216666Y-227438095D01*
X101169047Y-227580952D01*
X100597619Y-228152380D01*
X101216666Y-228152380D01*
X101645238Y-227771428D02*
X102407142Y-227771428D01*
X102835714Y-227247619D02*
X102883333Y-227200000D01*
X102978571Y-227152380D01*
X103216666Y-227152380D01*
X103311904Y-227200000D01*
X103359523Y-227247619D01*
X103407142Y-227342857D01*
X103407142Y-227438095D01*
X103359523Y-227580952D01*
X102788095Y-228152380D01*
X103407142Y-228152380D01*
G04 #@! TO.C,JBP1-BP2-3*
X219026190Y-192152380D02*
X219026190Y-192866666D01*
X218978571Y-193009523D01*
X218883333Y-193104761D01*
X218740476Y-193152380D01*
X218645238Y-193152380D01*
X219835714Y-192628571D02*
X219978571Y-192676190D01*
X220026190Y-192723809D01*
X220073809Y-192819047D01*
X220073809Y-192961904D01*
X220026190Y-193057142D01*
X219978571Y-193104761D01*
X219883333Y-193152380D01*
X219502380Y-193152380D01*
X219502380Y-192152380D01*
X219835714Y-192152380D01*
X219930952Y-192200000D01*
X219978571Y-192247619D01*
X220026190Y-192342857D01*
X220026190Y-192438095D01*
X219978571Y-192533333D01*
X219930952Y-192580952D01*
X219835714Y-192628571D01*
X219502380Y-192628571D01*
X220502380Y-193152380D02*
X220502380Y-192152380D01*
X220883333Y-192152380D01*
X220978571Y-192200000D01*
X221026190Y-192247619D01*
X221073809Y-192342857D01*
X221073809Y-192485714D01*
X221026190Y-192580952D01*
X220978571Y-192628571D01*
X220883333Y-192676190D01*
X220502380Y-192676190D01*
X222026190Y-193152380D02*
X221454761Y-193152380D01*
X221740476Y-193152380D02*
X221740476Y-192152380D01*
X221645238Y-192295238D01*
X221550000Y-192390476D01*
X221454761Y-192438095D01*
X222454761Y-192771428D02*
X223216666Y-192771428D01*
X224026190Y-192628571D02*
X224169047Y-192676190D01*
X224216666Y-192723809D01*
X224264285Y-192819047D01*
X224264285Y-192961904D01*
X224216666Y-193057142D01*
X224169047Y-193104761D01*
X224073809Y-193152380D01*
X223692857Y-193152380D01*
X223692857Y-192152380D01*
X224026190Y-192152380D01*
X224121428Y-192200000D01*
X224169047Y-192247619D01*
X224216666Y-192342857D01*
X224216666Y-192438095D01*
X224169047Y-192533333D01*
X224121428Y-192580952D01*
X224026190Y-192628571D01*
X223692857Y-192628571D01*
X224692857Y-193152380D02*
X224692857Y-192152380D01*
X225073809Y-192152380D01*
X225169047Y-192200000D01*
X225216666Y-192247619D01*
X225264285Y-192342857D01*
X225264285Y-192485714D01*
X225216666Y-192580952D01*
X225169047Y-192628571D01*
X225073809Y-192676190D01*
X224692857Y-192676190D01*
X225645238Y-192247619D02*
X225692857Y-192200000D01*
X225788095Y-192152380D01*
X226026190Y-192152380D01*
X226121428Y-192200000D01*
X226169047Y-192247619D01*
X226216666Y-192342857D01*
X226216666Y-192438095D01*
X226169047Y-192580952D01*
X225597619Y-193152380D01*
X226216666Y-193152380D01*
X226645238Y-192771428D02*
X227407142Y-192771428D01*
X227788095Y-192152380D02*
X228407142Y-192152380D01*
X228073809Y-192533333D01*
X228216666Y-192533333D01*
X228311904Y-192580952D01*
X228359523Y-192628571D01*
X228407142Y-192723809D01*
X228407142Y-192961904D01*
X228359523Y-193057142D01*
X228311904Y-193104761D01*
X228216666Y-193152380D01*
X227930952Y-193152380D01*
X227835714Y-193104761D01*
X227788095Y-193057142D01*
G04 #@! TO.C,JBP1-BP2-4*
X149026190Y-227152380D02*
X149026190Y-227866666D01*
X148978571Y-228009523D01*
X148883333Y-228104761D01*
X148740476Y-228152380D01*
X148645238Y-228152380D01*
X149835714Y-227628571D02*
X149978571Y-227676190D01*
X150026190Y-227723809D01*
X150073809Y-227819047D01*
X150073809Y-227961904D01*
X150026190Y-228057142D01*
X149978571Y-228104761D01*
X149883333Y-228152380D01*
X149502380Y-228152380D01*
X149502380Y-227152380D01*
X149835714Y-227152380D01*
X149930952Y-227200000D01*
X149978571Y-227247619D01*
X150026190Y-227342857D01*
X150026190Y-227438095D01*
X149978571Y-227533333D01*
X149930952Y-227580952D01*
X149835714Y-227628571D01*
X149502380Y-227628571D01*
X150502380Y-228152380D02*
X150502380Y-227152380D01*
X150883333Y-227152380D01*
X150978571Y-227200000D01*
X151026190Y-227247619D01*
X151073809Y-227342857D01*
X151073809Y-227485714D01*
X151026190Y-227580952D01*
X150978571Y-227628571D01*
X150883333Y-227676190D01*
X150502380Y-227676190D01*
X152026190Y-228152380D02*
X151454761Y-228152380D01*
X151740476Y-228152380D02*
X151740476Y-227152380D01*
X151645238Y-227295238D01*
X151550000Y-227390476D01*
X151454761Y-227438095D01*
X152454761Y-227771428D02*
X153216666Y-227771428D01*
X154026190Y-227628571D02*
X154169047Y-227676190D01*
X154216666Y-227723809D01*
X154264285Y-227819047D01*
X154264285Y-227961904D01*
X154216666Y-228057142D01*
X154169047Y-228104761D01*
X154073809Y-228152380D01*
X153692857Y-228152380D01*
X153692857Y-227152380D01*
X154026190Y-227152380D01*
X154121428Y-227200000D01*
X154169047Y-227247619D01*
X154216666Y-227342857D01*
X154216666Y-227438095D01*
X154169047Y-227533333D01*
X154121428Y-227580952D01*
X154026190Y-227628571D01*
X153692857Y-227628571D01*
X154692857Y-228152380D02*
X154692857Y-227152380D01*
X155073809Y-227152380D01*
X155169047Y-227200000D01*
X155216666Y-227247619D01*
X155264285Y-227342857D01*
X155264285Y-227485714D01*
X155216666Y-227580952D01*
X155169047Y-227628571D01*
X155073809Y-227676190D01*
X154692857Y-227676190D01*
X155645238Y-227247619D02*
X155692857Y-227200000D01*
X155788095Y-227152380D01*
X156026190Y-227152380D01*
X156121428Y-227200000D01*
X156169047Y-227247619D01*
X156216666Y-227342857D01*
X156216666Y-227438095D01*
X156169047Y-227580952D01*
X155597619Y-228152380D01*
X156216666Y-228152380D01*
X156645238Y-227771428D02*
X157407142Y-227771428D01*
X158311904Y-227485714D02*
X158311904Y-228152380D01*
X158073809Y-227104761D02*
X157835714Y-227819047D01*
X158454761Y-227819047D01*
G04 #@! TO.C,JBP1-BP2-5*
X354026190Y-262152380D02*
X354026190Y-262866666D01*
X353978571Y-263009523D01*
X353883333Y-263104761D01*
X353740476Y-263152380D01*
X353645238Y-263152380D01*
X354835714Y-262628571D02*
X354978571Y-262676190D01*
X355026190Y-262723809D01*
X355073809Y-262819047D01*
X355073809Y-262961904D01*
X355026190Y-263057142D01*
X354978571Y-263104761D01*
X354883333Y-263152380D01*
X354502380Y-263152380D01*
X354502380Y-262152380D01*
X354835714Y-262152380D01*
X354930952Y-262200000D01*
X354978571Y-262247619D01*
X355026190Y-262342857D01*
X355026190Y-262438095D01*
X354978571Y-262533333D01*
X354930952Y-262580952D01*
X354835714Y-262628571D01*
X354502380Y-262628571D01*
X355502380Y-263152380D02*
X355502380Y-262152380D01*
X355883333Y-262152380D01*
X355978571Y-262200000D01*
X356026190Y-262247619D01*
X356073809Y-262342857D01*
X356073809Y-262485714D01*
X356026190Y-262580952D01*
X355978571Y-262628571D01*
X355883333Y-262676190D01*
X355502380Y-262676190D01*
X357026190Y-263152380D02*
X356454761Y-263152380D01*
X356740476Y-263152380D02*
X356740476Y-262152380D01*
X356645238Y-262295238D01*
X356550000Y-262390476D01*
X356454761Y-262438095D01*
X357454761Y-262771428D02*
X358216666Y-262771428D01*
X359026190Y-262628571D02*
X359169047Y-262676190D01*
X359216666Y-262723809D01*
X359264285Y-262819047D01*
X359264285Y-262961904D01*
X359216666Y-263057142D01*
X359169047Y-263104761D01*
X359073809Y-263152380D01*
X358692857Y-263152380D01*
X358692857Y-262152380D01*
X359026190Y-262152380D01*
X359121428Y-262200000D01*
X359169047Y-262247619D01*
X359216666Y-262342857D01*
X359216666Y-262438095D01*
X359169047Y-262533333D01*
X359121428Y-262580952D01*
X359026190Y-262628571D01*
X358692857Y-262628571D01*
X359692857Y-263152380D02*
X359692857Y-262152380D01*
X360073809Y-262152380D01*
X360169047Y-262200000D01*
X360216666Y-262247619D01*
X360264285Y-262342857D01*
X360264285Y-262485714D01*
X360216666Y-262580952D01*
X360169047Y-262628571D01*
X360073809Y-262676190D01*
X359692857Y-262676190D01*
X360645238Y-262247619D02*
X360692857Y-262200000D01*
X360788095Y-262152380D01*
X361026190Y-262152380D01*
X361121428Y-262200000D01*
X361169047Y-262247619D01*
X361216666Y-262342857D01*
X361216666Y-262438095D01*
X361169047Y-262580952D01*
X360597619Y-263152380D01*
X361216666Y-263152380D01*
X361645238Y-262771428D02*
X362407142Y-262771428D01*
X363359523Y-262152380D02*
X362883333Y-262152380D01*
X362835714Y-262628571D01*
X362883333Y-262580952D01*
X362978571Y-262533333D01*
X363216666Y-262533333D01*
X363311904Y-262580952D01*
X363359523Y-262628571D01*
X363407142Y-262723809D01*
X363407142Y-262961904D01*
X363359523Y-263057142D01*
X363311904Y-263104761D01*
X363216666Y-263152380D01*
X362978571Y-263152380D01*
X362883333Y-263104761D01*
X362835714Y-263057142D01*
G04 #@! TO.C,JBP1-BP3-1*
X294026190Y-262152380D02*
X294026190Y-262866666D01*
X293978571Y-263009523D01*
X293883333Y-263104761D01*
X293740476Y-263152380D01*
X293645238Y-263152380D01*
X294835714Y-262628571D02*
X294978571Y-262676190D01*
X295026190Y-262723809D01*
X295073809Y-262819047D01*
X295073809Y-262961904D01*
X295026190Y-263057142D01*
X294978571Y-263104761D01*
X294883333Y-263152380D01*
X294502380Y-263152380D01*
X294502380Y-262152380D01*
X294835714Y-262152380D01*
X294930952Y-262200000D01*
X294978571Y-262247619D01*
X295026190Y-262342857D01*
X295026190Y-262438095D01*
X294978571Y-262533333D01*
X294930952Y-262580952D01*
X294835714Y-262628571D01*
X294502380Y-262628571D01*
X295502380Y-263152380D02*
X295502380Y-262152380D01*
X295883333Y-262152380D01*
X295978571Y-262200000D01*
X296026190Y-262247619D01*
X296073809Y-262342857D01*
X296073809Y-262485714D01*
X296026190Y-262580952D01*
X295978571Y-262628571D01*
X295883333Y-262676190D01*
X295502380Y-262676190D01*
X297026190Y-263152380D02*
X296454761Y-263152380D01*
X296740476Y-263152380D02*
X296740476Y-262152380D01*
X296645238Y-262295238D01*
X296550000Y-262390476D01*
X296454761Y-262438095D01*
X297454761Y-262771428D02*
X298216666Y-262771428D01*
X299026190Y-262628571D02*
X299169047Y-262676190D01*
X299216666Y-262723809D01*
X299264285Y-262819047D01*
X299264285Y-262961904D01*
X299216666Y-263057142D01*
X299169047Y-263104761D01*
X299073809Y-263152380D01*
X298692857Y-263152380D01*
X298692857Y-262152380D01*
X299026190Y-262152380D01*
X299121428Y-262200000D01*
X299169047Y-262247619D01*
X299216666Y-262342857D01*
X299216666Y-262438095D01*
X299169047Y-262533333D01*
X299121428Y-262580952D01*
X299026190Y-262628571D01*
X298692857Y-262628571D01*
X299692857Y-263152380D02*
X299692857Y-262152380D01*
X300073809Y-262152380D01*
X300169047Y-262200000D01*
X300216666Y-262247619D01*
X300264285Y-262342857D01*
X300264285Y-262485714D01*
X300216666Y-262580952D01*
X300169047Y-262628571D01*
X300073809Y-262676190D01*
X299692857Y-262676190D01*
X300597619Y-262152380D02*
X301216666Y-262152380D01*
X300883333Y-262533333D01*
X301026190Y-262533333D01*
X301121428Y-262580952D01*
X301169047Y-262628571D01*
X301216666Y-262723809D01*
X301216666Y-262961904D01*
X301169047Y-263057142D01*
X301121428Y-263104761D01*
X301026190Y-263152380D01*
X300740476Y-263152380D01*
X300645238Y-263104761D01*
X300597619Y-263057142D01*
X301645238Y-262771428D02*
X302407142Y-262771428D01*
X303407142Y-263152380D02*
X302835714Y-263152380D01*
X303121428Y-263152380D02*
X303121428Y-262152380D01*
X303026190Y-262295238D01*
X302930952Y-262390476D01*
X302835714Y-262438095D01*
G04 #@! TO.C,JIP1*
X152807571Y-192152380D02*
X152807571Y-192866666D01*
X152759952Y-193009523D01*
X152664714Y-193104761D01*
X152521857Y-193152380D01*
X152426619Y-193152380D01*
X153283761Y-193152380D02*
X153283761Y-192152380D01*
X153759952Y-193152380D02*
X153759952Y-192152380D01*
X154140904Y-192152380D01*
X154236142Y-192200000D01*
X154283761Y-192247619D01*
X154331380Y-192342857D01*
X154331380Y-192485714D01*
X154283761Y-192580952D01*
X154236142Y-192628571D01*
X154140904Y-192676190D01*
X153759952Y-192676190D01*
X155283761Y-193152380D02*
X154712333Y-193152380D01*
X154998047Y-193152380D02*
X154998047Y-192152380D01*
X154902809Y-192295238D01*
X154807571Y-192390476D01*
X154712333Y-192438095D01*
G04 #@! TO.C,JSKT1-1*
X355764285Y-192152380D02*
X355764285Y-192866666D01*
X355716666Y-193009523D01*
X355621428Y-193104761D01*
X355478571Y-193152380D01*
X355383333Y-193152380D01*
X356192857Y-193104761D02*
X356335714Y-193152380D01*
X356573809Y-193152380D01*
X356669047Y-193104761D01*
X356716666Y-193057142D01*
X356764285Y-192961904D01*
X356764285Y-192866666D01*
X356716666Y-192771428D01*
X356669047Y-192723809D01*
X356573809Y-192676190D01*
X356383333Y-192628571D01*
X356288095Y-192580952D01*
X356240476Y-192533333D01*
X356192857Y-192438095D01*
X356192857Y-192342857D01*
X356240476Y-192247619D01*
X356288095Y-192200000D01*
X356383333Y-192152380D01*
X356621428Y-192152380D01*
X356764285Y-192200000D01*
X357192857Y-193152380D02*
X357192857Y-192152380D01*
X357764285Y-193152380D02*
X357335714Y-192580952D01*
X357764285Y-192152380D02*
X357192857Y-192723809D01*
X358050000Y-192152380D02*
X358621428Y-192152380D01*
X358335714Y-193152380D02*
X358335714Y-192152380D01*
X359478571Y-193152380D02*
X358907142Y-193152380D01*
X359192857Y-193152380D02*
X359192857Y-192152380D01*
X359097619Y-192295238D01*
X359002380Y-192390476D01*
X358907142Y-192438095D01*
X359907142Y-192771428D02*
X360669047Y-192771428D01*
X361669047Y-193152380D02*
X361097619Y-193152380D01*
X361383333Y-193152380D02*
X361383333Y-192152380D01*
X361288095Y-192295238D01*
X361192857Y-192390476D01*
X361097619Y-192438095D01*
G04 #@! TO.C,JSKT1-2*
X220764285Y-262152380D02*
X220764285Y-262866666D01*
X220716666Y-263009523D01*
X220621428Y-263104761D01*
X220478571Y-263152380D01*
X220383333Y-263152380D01*
X221192857Y-263104761D02*
X221335714Y-263152380D01*
X221573809Y-263152380D01*
X221669047Y-263104761D01*
X221716666Y-263057142D01*
X221764285Y-262961904D01*
X221764285Y-262866666D01*
X221716666Y-262771428D01*
X221669047Y-262723809D01*
X221573809Y-262676190D01*
X221383333Y-262628571D01*
X221288095Y-262580952D01*
X221240476Y-262533333D01*
X221192857Y-262438095D01*
X221192857Y-262342857D01*
X221240476Y-262247619D01*
X221288095Y-262200000D01*
X221383333Y-262152380D01*
X221621428Y-262152380D01*
X221764285Y-262200000D01*
X222192857Y-263152380D02*
X222192857Y-262152380D01*
X222764285Y-263152380D02*
X222335714Y-262580952D01*
X222764285Y-262152380D02*
X222192857Y-262723809D01*
X223050000Y-262152380D02*
X223621428Y-262152380D01*
X223335714Y-263152380D02*
X223335714Y-262152380D01*
X224478571Y-263152380D02*
X223907142Y-263152380D01*
X224192857Y-263152380D02*
X224192857Y-262152380D01*
X224097619Y-262295238D01*
X224002380Y-262390476D01*
X223907142Y-262438095D01*
X224907142Y-262771428D02*
X225669047Y-262771428D01*
X226097619Y-262247619D02*
X226145238Y-262200000D01*
X226240476Y-262152380D01*
X226478571Y-262152380D01*
X226573809Y-262200000D01*
X226621428Y-262247619D01*
X226669047Y-262342857D01*
X226669047Y-262438095D01*
X226621428Y-262580952D01*
X226050000Y-263152380D01*
X226669047Y-263152380D01*
G04 #@! TO.C,JSKT1-3*
X95764285Y-262152380D02*
X95764285Y-262866666D01*
X95716666Y-263009523D01*
X95621428Y-263104761D01*
X95478571Y-263152380D01*
X95383333Y-263152380D01*
X96192857Y-263104761D02*
X96335714Y-263152380D01*
X96573809Y-263152380D01*
X96669047Y-263104761D01*
X96716666Y-263057142D01*
X96764285Y-262961904D01*
X96764285Y-262866666D01*
X96716666Y-262771428D01*
X96669047Y-262723809D01*
X96573809Y-262676190D01*
X96383333Y-262628571D01*
X96288095Y-262580952D01*
X96240476Y-262533333D01*
X96192857Y-262438095D01*
X96192857Y-262342857D01*
X96240476Y-262247619D01*
X96288095Y-262200000D01*
X96383333Y-262152380D01*
X96621428Y-262152380D01*
X96764285Y-262200000D01*
X97192857Y-263152380D02*
X97192857Y-262152380D01*
X97764285Y-263152380D02*
X97335714Y-262580952D01*
X97764285Y-262152380D02*
X97192857Y-262723809D01*
X98050000Y-262152380D02*
X98621428Y-262152380D01*
X98335714Y-263152380D02*
X98335714Y-262152380D01*
X99478571Y-263152380D02*
X98907142Y-263152380D01*
X99192857Y-263152380D02*
X99192857Y-262152380D01*
X99097619Y-262295238D01*
X99002380Y-262390476D01*
X98907142Y-262438095D01*
X99907142Y-262771428D02*
X100669047Y-262771428D01*
X101050000Y-262152380D02*
X101669047Y-262152380D01*
X101335714Y-262533333D01*
X101478571Y-262533333D01*
X101573809Y-262580952D01*
X101621428Y-262628571D01*
X101669047Y-262723809D01*
X101669047Y-262961904D01*
X101621428Y-263057142D01*
X101573809Y-263104761D01*
X101478571Y-263152380D01*
X101192857Y-263152380D01*
X101097619Y-263104761D01*
X101050000Y-263057142D01*
G04 #@! TO.C,JSKT2-1*
X150764285Y-262152380D02*
X150764285Y-262866666D01*
X150716666Y-263009523D01*
X150621428Y-263104761D01*
X150478571Y-263152380D01*
X150383333Y-263152380D01*
X151192857Y-263104761D02*
X151335714Y-263152380D01*
X151573809Y-263152380D01*
X151669047Y-263104761D01*
X151716666Y-263057142D01*
X151764285Y-262961904D01*
X151764285Y-262866666D01*
X151716666Y-262771428D01*
X151669047Y-262723809D01*
X151573809Y-262676190D01*
X151383333Y-262628571D01*
X151288095Y-262580952D01*
X151240476Y-262533333D01*
X151192857Y-262438095D01*
X151192857Y-262342857D01*
X151240476Y-262247619D01*
X151288095Y-262200000D01*
X151383333Y-262152380D01*
X151621428Y-262152380D01*
X151764285Y-262200000D01*
X152192857Y-263152380D02*
X152192857Y-262152380D01*
X152764285Y-263152380D02*
X152335714Y-262580952D01*
X152764285Y-262152380D02*
X152192857Y-262723809D01*
X153050000Y-262152380D02*
X153621428Y-262152380D01*
X153335714Y-263152380D02*
X153335714Y-262152380D01*
X153907142Y-262247619D02*
X153954761Y-262200000D01*
X154050000Y-262152380D01*
X154288095Y-262152380D01*
X154383333Y-262200000D01*
X154430952Y-262247619D01*
X154478571Y-262342857D01*
X154478571Y-262438095D01*
X154430952Y-262580952D01*
X153859523Y-263152380D01*
X154478571Y-263152380D01*
X154907142Y-262771428D02*
X155669047Y-262771428D01*
X156669047Y-263152380D02*
X156097619Y-263152380D01*
X156383333Y-263152380D02*
X156383333Y-262152380D01*
X156288095Y-262295238D01*
X156192857Y-262390476D01*
X156097619Y-262438095D01*
G04 #@! TO.C,JSKT2-2*
X355764285Y-227152380D02*
X355764285Y-227866666D01*
X355716666Y-228009523D01*
X355621428Y-228104761D01*
X355478571Y-228152380D01*
X355383333Y-228152380D01*
X356192857Y-228104761D02*
X356335714Y-228152380D01*
X356573809Y-228152380D01*
X356669047Y-228104761D01*
X356716666Y-228057142D01*
X356764285Y-227961904D01*
X356764285Y-227866666D01*
X356716666Y-227771428D01*
X356669047Y-227723809D01*
X356573809Y-227676190D01*
X356383333Y-227628571D01*
X356288095Y-227580952D01*
X356240476Y-227533333D01*
X356192857Y-227438095D01*
X356192857Y-227342857D01*
X356240476Y-227247619D01*
X356288095Y-227200000D01*
X356383333Y-227152380D01*
X356621428Y-227152380D01*
X356764285Y-227200000D01*
X357192857Y-228152380D02*
X357192857Y-227152380D01*
X357764285Y-228152380D02*
X357335714Y-227580952D01*
X357764285Y-227152380D02*
X357192857Y-227723809D01*
X358050000Y-227152380D02*
X358621428Y-227152380D01*
X358335714Y-228152380D02*
X358335714Y-227152380D01*
X358907142Y-227247619D02*
X358954761Y-227200000D01*
X359050000Y-227152380D01*
X359288095Y-227152380D01*
X359383333Y-227200000D01*
X359430952Y-227247619D01*
X359478571Y-227342857D01*
X359478571Y-227438095D01*
X359430952Y-227580952D01*
X358859523Y-228152380D01*
X359478571Y-228152380D01*
X359907142Y-227771428D02*
X360669047Y-227771428D01*
X361097619Y-227247619D02*
X361145238Y-227200000D01*
X361240476Y-227152380D01*
X361478571Y-227152380D01*
X361573809Y-227200000D01*
X361621428Y-227247619D01*
X361669047Y-227342857D01*
X361669047Y-227438095D01*
X361621428Y-227580952D01*
X361050000Y-228152380D01*
X361669047Y-228152380D01*
G04 #@! TO.C,JSKT2-3*
X295764285Y-192152380D02*
X295764285Y-192866666D01*
X295716666Y-193009523D01*
X295621428Y-193104761D01*
X295478571Y-193152380D01*
X295383333Y-193152380D01*
X296192857Y-193104761D02*
X296335714Y-193152380D01*
X296573809Y-193152380D01*
X296669047Y-193104761D01*
X296716666Y-193057142D01*
X296764285Y-192961904D01*
X296764285Y-192866666D01*
X296716666Y-192771428D01*
X296669047Y-192723809D01*
X296573809Y-192676190D01*
X296383333Y-192628571D01*
X296288095Y-192580952D01*
X296240476Y-192533333D01*
X296192857Y-192438095D01*
X296192857Y-192342857D01*
X296240476Y-192247619D01*
X296288095Y-192200000D01*
X296383333Y-192152380D01*
X296621428Y-192152380D01*
X296764285Y-192200000D01*
X297192857Y-193152380D02*
X297192857Y-192152380D01*
X297764285Y-193152380D02*
X297335714Y-192580952D01*
X297764285Y-192152380D02*
X297192857Y-192723809D01*
X298050000Y-192152380D02*
X298621428Y-192152380D01*
X298335714Y-193152380D02*
X298335714Y-192152380D01*
X298907142Y-192247619D02*
X298954761Y-192200000D01*
X299050000Y-192152380D01*
X299288095Y-192152380D01*
X299383333Y-192200000D01*
X299430952Y-192247619D01*
X299478571Y-192342857D01*
X299478571Y-192438095D01*
X299430952Y-192580952D01*
X298859523Y-193152380D01*
X299478571Y-193152380D01*
X299907142Y-192771428D02*
X300669047Y-192771428D01*
X301050000Y-192152380D02*
X301669047Y-192152380D01*
X301335714Y-192533333D01*
X301478571Y-192533333D01*
X301573809Y-192580952D01*
X301621428Y-192628571D01*
X301669047Y-192723809D01*
X301669047Y-192961904D01*
X301621428Y-193057142D01*
X301573809Y-193104761D01*
X301478571Y-193152380D01*
X301192857Y-193152380D01*
X301097619Y-193104761D01*
X301050000Y-193057142D01*
G04 #@! TO.C,JW1*
X222645238Y-227152380D02*
X222645238Y-227866666D01*
X222597619Y-228009523D01*
X222502380Y-228104761D01*
X222359523Y-228152380D01*
X222264285Y-228152380D01*
X223026190Y-227152380D02*
X223264285Y-228152380D01*
X223454761Y-227438095D01*
X223645238Y-228152380D01*
X223883333Y-227152380D01*
X224788095Y-228152380D02*
X224216666Y-228152380D01*
X224502380Y-228152380D02*
X224502380Y-227152380D01*
X224407142Y-227295238D01*
X224311904Y-227390476D01*
X224216666Y-227438095D01*
G04 #@! TO.C,J~A~1*
X297788095Y-227152380D02*
X297788095Y-227866666D01*
X297740476Y-228009523D01*
X297645238Y-228104761D01*
X297502380Y-228152380D01*
X297407142Y-228152380D01*
X298026190Y-226785000D02*
X298883333Y-226785000D01*
X298216666Y-227866666D02*
X298692857Y-227866666D01*
X298121428Y-228152380D02*
X298454761Y-227152380D01*
X298788095Y-228152380D01*
X299645238Y-228152380D02*
X299073809Y-228152380D01*
X299359523Y-228152380D02*
X299359523Y-227152380D01*
X299264285Y-227295238D01*
X299169047Y-227390476D01*
X299073809Y-227438095D01*
G04 #@! TD*
M02*
