M48
;DRILL file {KiCad (5.0.0)} date 04/29/19 00:26:31
;FORMAT={-:-/ absolute / inch / decimal}
FMAT,2
INCH,TZ
T1C0.1063
T2C0.1102
%
G90
G05
M72
T1
X13.55Y-11.2866
X1.55Y-11.2866
X12.35Y-11.2866
X3.95Y-11.2866
X9.95Y-11.2866
X2.75Y-11.2866
X8.75Y-11.2866
X0.68Y-11.2866
X14.75Y-11.2866
X7.55Y-11.2866
X6.35Y-11.2866
X11.15Y-11.2866
X5.15Y-11.2866
T2
X12.2882Y-1.9783
X12.2882Y-5.5217
X2.0882Y-1.9783
X2.0882Y-5.5217
X14.0882Y-1.9783
X14.0882Y-5.5217
X10.4882Y-1.9783
X10.4882Y-5.5217
X6.2882Y-1.9783
X6.2882Y-5.5217
X5.0882Y-1.9783
X5.0882Y-5.5217
X1.4882Y-1.9783
X1.4882Y-5.5217
X13.4882Y-1.9783
X13.4882Y-5.5217
X9.8882Y-1.9783
X9.8882Y-5.5217
X4.4882Y-1.9783
X4.4882Y-5.5217
X12.8882Y-1.9783
X12.8882Y-5.5217
X7.4882Y-1.9783
X7.4882Y-5.5217
X11.0882Y-1.9783
X11.0882Y-5.5217
X3.8882Y-1.9783
X3.8882Y-5.5217
X11.6882Y-1.9783
X11.6882Y-5.5217
X6.8882Y-1.9783
X6.8882Y-5.5217
X14.6882Y-1.9783
X14.6882Y-5.5217
X2.6882Y-1.9783
X2.6882Y-5.5217
X9.2882Y-1.9783
X9.2882Y-5.5217
X5.6882Y-1.9783
X5.6882Y-5.5217
X3.2882Y-1.9783
X3.2882Y-5.5217
X0.8882Y-1.9783
X0.8882Y-5.5217
X8.0882Y-1.9783
X8.0882Y-5.5217
T1
X7.5402Y-1.2138G85X7.5598Y-1.2138
G05
X1.5402Y-6.4638G85X1.5598Y-6.4638
G05
X14.7402Y-1.2138G85X14.7598Y-1.2138
G05
X11.1402Y-6.4638G85X11.1598Y-6.4638
G05
X5.1402Y-1.2138G85X5.1598Y-1.2138
G05
X8.7402Y-6.4638G85X8.7598Y-6.4638
G05
X3.9402Y-6.4638G85X3.9598Y-6.4638
G05
X12.3402Y-1.2138G85X12.3598Y-1.2138
G05
X0.6702Y-1.2138G85X0.6898Y-1.2138
G05
X13.5402Y-1.2138G85X13.5598Y-1.2138
G05
X8.7402Y-6.0366G85X8.7598Y-6.0366
G05
X6.3402Y-1.2138G85X6.3598Y-1.2138
G05
X14.7402Y-6.0366G85X14.7598Y-6.0366
G05
X9.9402Y-1.2138G85X9.9598Y-1.2138
G05
X3.9402Y-6.0366G85X3.9598Y-6.0366
G05
X8.7402Y-1.2138G85X8.7598Y-1.2138
G05
X3.9402Y-1.2138G85X3.9598Y-1.2138
G05
X14.7402Y-6.4638G85X14.7598Y-6.4638
G05
X1.5402Y-1.2138G85X1.5598Y-1.2138
G05
X2.7402Y-1.2138G85X2.7598Y-1.2138
G05
X11.1402Y-6.0366G85X11.1598Y-6.0366
G05
X1.5402Y-6.0366G85X1.5598Y-6.0366
G05
X11.1402Y-1.2138G85X11.1598Y-1.2138
G05
T0
M30
