M48
;DRILL file {KiCad (5.0.0)} date 05/21/19 22:15:54
;FORMAT={-:-/ absolute / inch / decimal}
FMAT,2
INCH,TZ
T1C0.0157
T2C0.0394
T3C0.0512
%
G90
G05
M72
T1
X2.1917Y-5.6832
X2.2443Y-5.4813
X2.3055Y-5.5607
X2.3725Y-5.8843
X2.3886Y-5.7913
X2.3981Y-5.9397
X2.4063Y-5.8608
X2.4189Y-7.251
X2.4341Y-5.3793
X2.4492Y-8.2841
X2.4713Y-5.9724
X2.9567Y-4.2204
X3.Y-5.0155
X3.0585Y-4.9463
X3.4525Y-2.2782
X3.5829Y-2.6829
X3.8171Y-5.4033
X3.9777Y-5.3463
X4.0078Y-5.0143
X4.5079Y-5.3758
X4.6629Y-2.2537
X4.7646Y-4.2463
X4.8001Y-3.7888
X4.9159Y-5.4659
X4.9371Y-3.348
X4.9481Y-2.8432
X5.1124Y-5.4014
X5.1639Y-2.1604
X5.3078Y-2.9469
X5.5624Y-3.6436
X5.5631Y-4.3552
X5.6252Y-2.1302
X5.7688Y-5.3543
X6.0011Y-6.5636
X6.1246Y-5.2555
X6.3894Y-5.6084
X6.9639Y-3.3535
X7.0385Y-2.8
X7.538Y-5.0477
X7.5559Y-4.5547
X7.7351Y-3.6783
X7.9224Y-3.385
X7.9412Y-3.591
X7.9537Y-4.0638
X8.1341Y-2.8531
X8.1535Y-4.5286
X8.3533Y-5.436
X8.3702Y-6.5737
X8.3811Y-4.3991
X8.4415Y-5.2968
X8.5115Y-4.012
X8.5222Y-5.2
X8.5447Y-3.8971
X8.5699Y-6.7724
X8.5729Y-5.4233
X8.6013Y-5.3946
X8.8535Y-3.2502
X9.0197Y-4.1466
X9.02Y-3.5494
X9.0602Y-3.5519
X9.0751Y-4.364
X9.0893Y-3.675
X9.1293Y-3.3485
X9.6758Y-3.3815
X9.7653Y-2.3463
X9.8355Y-3.0463
X10.1009Y-5.3288
X10.7567Y-5.3773
X10.8963Y-3.0692
X11.3352Y-5.3487
X11.5115Y-2.6264
X11.9283Y-5.2463
X12.0174Y-5.6885
X12.6876Y-5.6651
X13.2888Y-3.2496
X13.8137Y-5.636
X14.3663Y-5.6146
T2
X13.4Y-2.2
X13.4Y-2.3
X13.4Y-2.4
X13.4Y-2.5
X13.4Y-2.6
X13.4Y-2.7
X13.4Y-2.8
X13.4Y-2.9
X13.4Y-3.
X13.4Y-3.1
X13.4Y-3.2
X13.4Y-3.3
X13.4Y-3.4
X13.4Y-3.5
X13.4Y-3.6
X13.4Y-3.7
X13.4Y-3.8
X13.4Y-3.9
X13.4Y-4.
X13.4Y-4.1
X13.4Y-4.2
X13.4Y-4.3
X13.4Y-4.4
X13.4Y-4.5
X13.4Y-4.6
X13.4Y-4.7
X13.4Y-4.8
X13.4Y-4.9
X13.4Y-5.
X13.4Y-5.1
X13.4Y-5.2
X13.4Y-5.3
X13.5Y-2.2
X13.5Y-2.3
X13.5Y-2.4
X13.5Y-2.5
X13.5Y-2.6
X13.5Y-2.7
X13.5Y-2.8
X13.5Y-2.9
X13.5Y-3.
X13.5Y-3.1
X13.5Y-3.2
X13.5Y-3.3
X13.5Y-3.4
X13.5Y-3.5
X13.5Y-3.6
X13.5Y-3.7
X13.5Y-3.8
X13.5Y-3.9
X13.5Y-4.
X13.5Y-4.1
X13.5Y-4.2
X13.5Y-4.3
X13.5Y-4.4
X13.5Y-4.5
X13.5Y-4.6
X13.5Y-4.7
X13.5Y-4.8
X13.5Y-4.9
X13.5Y-5.
X13.5Y-5.1
X13.5Y-5.2
X13.5Y-5.3
X3.2Y-2.2
X3.2Y-2.3
X3.2Y-2.4
X3.2Y-2.5
X3.2Y-2.6
X3.2Y-2.7
X3.2Y-2.8
X3.2Y-2.9
X3.2Y-3.
X3.2Y-3.1
X3.2Y-3.2
X3.2Y-3.3
X3.2Y-3.4
X3.2Y-3.5
X3.2Y-3.6
X3.2Y-3.7
X3.2Y-3.8
X3.2Y-3.9
X3.2Y-4.
X3.2Y-4.1
X3.2Y-4.2
X3.2Y-4.3
X3.2Y-4.4
X3.2Y-4.5
X3.2Y-4.6
X3.2Y-4.7
X3.2Y-4.8
X3.2Y-4.9
X3.2Y-5.
X3.2Y-5.1
X3.2Y-5.2
X3.2Y-5.3
X3.3Y-2.2
X3.3Y-2.3
X3.3Y-2.4
X3.3Y-2.5
X3.3Y-2.6
X3.3Y-2.7
X3.3Y-2.8
X3.3Y-2.9
X3.3Y-3.
X3.3Y-3.1
X3.3Y-3.2
X3.3Y-3.3
X3.3Y-3.4
X3.3Y-3.5
X3.3Y-3.6
X3.3Y-3.7
X3.3Y-3.8
X3.3Y-3.9
X3.3Y-4.
X3.3Y-4.1
X3.3Y-4.2
X3.3Y-4.3
X3.3Y-4.4
X3.3Y-4.5
X3.3Y-4.6
X3.3Y-4.7
X3.3Y-4.8
X3.3Y-4.9
X3.3Y-5.
X3.3Y-5.1
X3.3Y-5.2
X3.3Y-5.3
X2.Y-2.2
X2.Y-2.3
X2.Y-2.4
X2.Y-2.5
X2.Y-2.6
X2.Y-2.7
X2.Y-2.8
X2.Y-2.9
X2.Y-3.
X2.Y-3.1
X2.Y-3.2
X2.Y-3.3
X2.Y-3.4
X2.Y-3.5
X2.Y-3.6
X2.Y-3.7
X2.Y-3.8
X2.Y-3.9
X2.Y-4.
X2.Y-4.1
X2.Y-4.2
X2.Y-4.3
X2.Y-4.4
X2.Y-4.5
X2.Y-4.6
X2.Y-4.7
X2.Y-4.8
X2.Y-4.9
X2.Y-5.
X2.Y-5.1
X2.Y-5.2
X2.Y-5.3
X2.1Y-2.2
X2.1Y-2.3
X2.1Y-2.4
X2.1Y-2.5
X2.1Y-2.6
X2.1Y-2.7
X2.1Y-2.8
X2.1Y-2.9
X2.1Y-3.
X2.1Y-3.1
X2.1Y-3.2
X2.1Y-3.3
X2.1Y-3.4
X2.1Y-3.5
X2.1Y-3.6
X2.1Y-3.7
X2.1Y-3.8
X2.1Y-3.9
X2.1Y-4.
X2.1Y-4.1
X2.1Y-4.2
X2.1Y-4.3
X2.1Y-4.4
X2.1Y-4.5
X2.1Y-4.6
X2.1Y-4.7
X2.1Y-4.8
X2.1Y-4.9
X2.1Y-5.
X2.1Y-5.1
X2.1Y-5.2
X2.1Y-5.3
X11.Y-2.2
X11.Y-2.3
X11.Y-2.4
X11.Y-2.5
X11.Y-2.6
X11.Y-2.7
X11.Y-2.8
X11.Y-2.9
X11.Y-3.
X11.Y-3.1
X11.Y-3.2
X11.Y-3.3
X11.Y-3.4
X11.Y-3.5
X11.Y-3.6
X11.Y-3.7
X11.Y-3.8
X11.Y-3.9
X11.Y-4.
X11.Y-4.1
X11.Y-4.2
X11.Y-4.3
X11.Y-4.4
X11.Y-4.5
X11.Y-4.6
X11.Y-4.7
X11.Y-4.8
X11.Y-4.9
X11.Y-5.
X11.Y-5.1
X11.Y-5.2
X11.Y-5.3
X11.1Y-2.2
X11.1Y-2.3
X11.1Y-2.4
X11.1Y-2.5
X11.1Y-2.6
X11.1Y-2.7
X11.1Y-2.8
X11.1Y-2.9
X11.1Y-3.
X11.1Y-3.1
X11.1Y-3.2
X11.1Y-3.3
X11.1Y-3.4
X11.1Y-3.5
X11.1Y-3.6
X11.1Y-3.7
X11.1Y-3.8
X11.1Y-3.9
X11.1Y-4.
X11.1Y-4.1
X11.1Y-4.2
X11.1Y-4.3
X11.1Y-4.4
X11.1Y-4.5
X11.1Y-4.6
X11.1Y-4.7
X11.1Y-4.8
X11.1Y-4.9
X11.1Y-5.
X11.1Y-5.1
X11.1Y-5.2
X11.1Y-5.3
X12.2Y-2.2
X12.2Y-2.3
X12.2Y-2.4
X12.2Y-2.5
X12.2Y-2.6
X12.2Y-2.7
X12.2Y-2.8
X12.2Y-2.9
X12.2Y-3.
X12.2Y-3.1
X12.2Y-3.2
X12.2Y-3.3
X12.2Y-3.4
X12.2Y-3.5
X12.2Y-3.6
X12.2Y-3.7
X12.2Y-3.8
X12.2Y-3.9
X12.2Y-4.
X12.2Y-4.1
X12.2Y-4.2
X12.2Y-4.3
X12.2Y-4.4
X12.2Y-4.5
X12.2Y-4.6
X12.2Y-4.7
X12.2Y-4.8
X12.2Y-4.9
X12.2Y-5.
X12.2Y-5.1
X12.2Y-5.2
X12.2Y-5.3
X12.3Y-2.2
X12.3Y-2.3
X12.3Y-2.4
X12.3Y-2.5
X12.3Y-2.6
X12.3Y-2.7
X12.3Y-2.8
X12.3Y-2.9
X12.3Y-3.
X12.3Y-3.1
X12.3Y-3.2
X12.3Y-3.3
X12.3Y-3.4
X12.3Y-3.5
X12.3Y-3.6
X12.3Y-3.7
X12.3Y-3.8
X12.3Y-3.9
X12.3Y-4.
X12.3Y-4.1
X12.3Y-4.2
X12.3Y-4.3
X12.3Y-4.4
X12.3Y-4.5
X12.3Y-4.6
X12.3Y-4.7
X12.3Y-4.8
X12.3Y-4.9
X12.3Y-5.
X12.3Y-5.1
X12.3Y-5.2
X12.3Y-5.3
X2.6Y-2.2
X2.6Y-2.3
X2.6Y-2.4
X2.6Y-2.5
X2.6Y-2.6
X2.6Y-2.7
X2.6Y-2.8
X2.6Y-2.9
X2.6Y-3.
X2.6Y-3.1
X2.6Y-3.2
X2.6Y-3.3
X2.6Y-3.4
X2.6Y-3.5
X2.6Y-3.6
X2.6Y-3.7
X2.6Y-3.8
X2.6Y-3.9
X2.6Y-4.
X2.6Y-4.1
X2.6Y-4.2
X2.6Y-4.3
X2.6Y-4.4
X2.6Y-4.5
X2.6Y-4.6
X2.6Y-4.7
X2.6Y-4.8
X2.6Y-4.9
X2.6Y-5.
X2.6Y-5.1
X2.6Y-5.2
X2.6Y-5.3
X2.7Y-2.2
X2.7Y-2.3
X2.7Y-2.4
X2.7Y-2.5
X2.7Y-2.6
X2.7Y-2.7
X2.7Y-2.8
X2.7Y-2.9
X2.7Y-3.
X2.7Y-3.1
X2.7Y-3.2
X2.7Y-3.3
X2.7Y-3.4
X2.7Y-3.5
X2.7Y-3.6
X2.7Y-3.7
X2.7Y-3.8
X2.7Y-3.9
X2.7Y-4.
X2.7Y-4.1
X2.7Y-4.2
X2.7Y-4.3
X2.7Y-4.4
X2.7Y-4.5
X2.7Y-4.6
X2.7Y-4.7
X2.7Y-4.8
X2.7Y-4.9
X2.7Y-5.
X2.7Y-5.1
X2.7Y-5.2
X2.7Y-5.3
X9.2Y-2.2
X9.2Y-2.3
X9.2Y-2.4
X9.2Y-2.5
X9.2Y-2.6
X9.2Y-2.7
X9.2Y-2.8
X9.2Y-2.9
X9.2Y-3.
X9.2Y-3.1
X9.2Y-3.2
X9.2Y-3.3
X9.2Y-3.4
X9.2Y-3.5
X9.2Y-3.6
X9.2Y-3.7
X9.2Y-3.8
X9.2Y-3.9
X9.2Y-4.
X9.2Y-4.1
X9.2Y-4.2
X9.2Y-4.3
X9.2Y-4.4
X9.2Y-4.5
X9.2Y-4.6
X9.2Y-4.7
X9.2Y-4.8
X9.2Y-4.9
X9.2Y-5.
X9.2Y-5.1
X9.2Y-5.2
X9.2Y-5.3
X9.3Y-2.2
X9.3Y-2.3
X9.3Y-2.4
X9.3Y-2.5
X9.3Y-2.6
X9.3Y-2.7
X9.3Y-2.8
X9.3Y-2.9
X9.3Y-3.
X9.3Y-3.1
X9.3Y-3.2
X9.3Y-3.3
X9.3Y-3.4
X9.3Y-3.5
X9.3Y-3.6
X9.3Y-3.7
X9.3Y-3.8
X9.3Y-3.9
X9.3Y-4.
X9.3Y-4.1
X9.3Y-4.2
X9.3Y-4.3
X9.3Y-4.4
X9.3Y-4.5
X9.3Y-4.6
X9.3Y-4.7
X9.3Y-4.8
X9.3Y-4.9
X9.3Y-5.
X9.3Y-5.1
X9.3Y-5.2
X9.3Y-5.3
X7.4Y-2.2
X7.4Y-2.3
X7.4Y-2.4
X7.4Y-2.5
X7.4Y-2.6
X7.4Y-2.7
X7.4Y-2.8
X7.4Y-2.9
X7.4Y-3.
X7.4Y-3.1
X7.4Y-3.2
X7.4Y-3.3
X7.4Y-3.4
X7.4Y-3.5
X7.4Y-3.6
X7.4Y-3.7
X7.4Y-3.8
X7.4Y-3.9
X7.4Y-4.
X7.4Y-4.1
X7.4Y-4.2
X7.4Y-4.3
X7.4Y-4.4
X7.4Y-4.5
X7.4Y-4.6
X7.4Y-4.7
X7.4Y-4.8
X7.4Y-4.9
X7.4Y-5.
X7.4Y-5.1
X7.4Y-5.2
X7.4Y-5.3
X7.5Y-2.2
X7.5Y-2.3
X7.5Y-2.4
X7.5Y-2.5
X7.5Y-2.6
X7.5Y-2.7
X7.5Y-2.8
X7.5Y-2.9
X7.5Y-3.
X7.5Y-3.1
X7.5Y-3.2
X7.5Y-3.3
X7.5Y-3.4
X7.5Y-3.5
X7.5Y-3.6
X7.5Y-3.7
X7.5Y-3.8
X7.5Y-3.9
X7.5Y-4.
X7.5Y-4.1
X7.5Y-4.2
X7.5Y-4.3
X7.5Y-4.4
X7.5Y-4.5
X7.5Y-4.6
X7.5Y-4.7
X7.5Y-4.8
X7.5Y-4.9
X7.5Y-5.
X7.5Y-5.1
X7.5Y-5.2
X7.5Y-5.3
X8.Y-2.2
X8.Y-2.3
X8.Y-2.4
X8.Y-2.5
X8.Y-2.6
X8.Y-2.7
X8.Y-2.8
X8.Y-2.9
X8.Y-3.
X8.Y-3.1
X8.Y-3.2
X8.Y-3.3
X8.Y-3.4
X8.Y-3.5
X8.Y-3.6
X8.Y-3.7
X8.Y-3.8
X8.Y-3.9
X8.Y-4.
X8.Y-4.1
X8.Y-4.2
X8.Y-4.3
X8.Y-4.4
X8.Y-4.5
X8.Y-4.6
X8.Y-4.7
X8.Y-4.8
X8.Y-4.9
X8.Y-5.
X8.Y-5.1
X8.Y-5.2
X8.Y-5.3
X8.1Y-2.2
X8.1Y-2.3
X8.1Y-2.4
X8.1Y-2.5
X8.1Y-2.6
X8.1Y-2.7
X8.1Y-2.8
X8.1Y-2.9
X8.1Y-3.
X8.1Y-3.1
X8.1Y-3.2
X8.1Y-3.3
X8.1Y-3.4
X8.1Y-3.5
X8.1Y-3.6
X8.1Y-3.7
X8.1Y-3.8
X8.1Y-3.9
X8.1Y-4.
X8.1Y-4.1
X8.1Y-4.2
X8.1Y-4.3
X8.1Y-4.4
X8.1Y-4.5
X8.1Y-4.6
X8.1Y-4.7
X8.1Y-4.8
X8.1Y-4.9
X8.1Y-5.
X8.1Y-5.1
X8.1Y-5.2
X8.1Y-5.3
X0.8Y-2.2
X0.8Y-2.3
X0.8Y-2.4
X0.8Y-2.5
X0.8Y-2.6
X0.8Y-2.7
X0.8Y-2.8
X0.8Y-2.9
X0.8Y-3.
X0.8Y-3.1
X0.8Y-3.2
X0.8Y-3.3
X0.8Y-3.4
X0.8Y-3.5
X0.8Y-3.6
X0.8Y-3.7
X0.8Y-3.8
X0.8Y-3.9
X0.8Y-4.
X0.8Y-4.1
X0.8Y-4.2
X0.8Y-4.3
X0.8Y-4.4
X0.8Y-4.5
X0.8Y-4.6
X0.8Y-4.7
X0.8Y-4.8
X0.8Y-4.9
X0.8Y-5.
X0.8Y-5.1
X0.8Y-5.2
X0.8Y-5.3
X0.9Y-2.2
X0.9Y-2.3
X0.9Y-2.4
X0.9Y-2.5
X0.9Y-2.6
X0.9Y-2.7
X0.9Y-2.8
X0.9Y-2.9
X0.9Y-3.
X0.9Y-3.1
X0.9Y-3.2
X0.9Y-3.3
X0.9Y-3.4
X0.9Y-3.5
X0.9Y-3.6
X0.9Y-3.7
X0.9Y-3.8
X0.9Y-3.9
X0.9Y-4.
X0.9Y-4.1
X0.9Y-4.2
X0.9Y-4.3
X0.9Y-4.4
X0.9Y-4.5
X0.9Y-4.6
X0.9Y-4.7
X0.9Y-4.8
X0.9Y-4.9
X0.9Y-5.
X0.9Y-5.1
X0.9Y-5.2
X0.9Y-5.3
X5.6Y-2.2
X5.6Y-2.3
X5.6Y-2.4
X5.6Y-2.5
X5.6Y-2.6
X5.6Y-2.7
X5.6Y-2.8
X5.6Y-2.9
X5.6Y-3.
X5.6Y-3.1
X5.6Y-3.2
X5.6Y-3.3
X5.6Y-3.4
X5.6Y-3.5
X5.6Y-3.6
X5.6Y-3.7
X5.6Y-3.8
X5.6Y-3.9
X5.6Y-4.
X5.6Y-4.1
X5.6Y-4.2
X5.6Y-4.3
X5.6Y-4.4
X5.6Y-4.5
X5.6Y-4.6
X5.6Y-4.7
X5.6Y-4.8
X5.6Y-4.9
X5.6Y-5.
X5.6Y-5.1
X5.6Y-5.2
X5.6Y-5.2975
X5.7Y-2.2
X5.7Y-2.3
X5.7Y-2.4
X5.7Y-2.5
X5.7Y-2.6
X5.7Y-2.7
X5.7Y-2.8
X5.7Y-2.9
X5.7Y-3.
X5.7Y-3.1
X5.7Y-3.2
X5.7Y-3.3
X5.7Y-3.4
X5.7Y-3.5
X5.7Y-3.6
X5.7Y-3.7
X5.7Y-3.8
X5.7Y-3.9
X5.7Y-4.
X5.7Y-4.1
X5.7Y-4.2
X5.7Y-4.3
X5.7Y-4.4
X5.7Y-4.5
X5.7Y-4.6
X5.7Y-4.7
X5.7Y-4.8
X5.7Y-4.9
X5.7Y-5.
X5.7Y-5.1
X5.7Y-5.2
X5.7Y-5.3
X10.4Y-2.2
X10.4Y-2.3
X10.4Y-2.4
X10.4Y-2.5
X10.4Y-2.6
X10.4Y-2.7
X10.4Y-2.8
X10.4Y-2.9
X10.4Y-3.
X10.4Y-3.1
X10.4Y-3.2
X10.4Y-3.3
X10.4Y-3.4
X10.4Y-3.5
X10.4Y-3.6
X10.4Y-3.7
X10.4Y-3.8
X10.4Y-3.9
X10.4Y-4.
X10.4Y-4.1
X10.4Y-4.2
X10.4Y-4.3
X10.4Y-4.4
X10.4Y-4.5
X10.4Y-4.6
X10.4Y-4.7
X10.4Y-4.8
X10.4Y-4.9
X10.4Y-5.
X10.4Y-5.1
X10.4Y-5.2
X10.4Y-5.3
X10.5Y-2.2
X10.5Y-2.3
X10.5Y-2.4
X10.5Y-2.5
X10.5Y-2.6
X10.5Y-2.7
X10.5Y-2.8
X10.5Y-2.9
X10.5Y-3.
X10.5Y-3.1
X10.5Y-3.2
X10.5Y-3.3
X10.5Y-3.4
X10.5Y-3.5
X10.5Y-3.6
X10.5Y-3.7
X10.5Y-3.8
X10.5Y-3.9
X10.5Y-4.
X10.5Y-4.1
X10.5Y-4.2
X10.5Y-4.3
X10.5Y-4.4
X10.5Y-4.5
X10.5Y-4.6
X10.5Y-4.7
X10.5Y-4.8
X10.5Y-4.9
X10.5Y-5.
X10.5Y-5.1
X10.5Y-5.2
X10.5Y-5.3
X1.4Y-2.2
X1.4Y-2.3
X1.4Y-2.4
X1.4Y-2.5
X1.4Y-2.6
X1.4Y-2.7
X1.4Y-2.8
X1.4Y-2.9
X1.4Y-3.
X1.4Y-3.1
X1.4Y-3.2
X1.4Y-3.3
X1.4Y-3.4
X1.4Y-3.5
X1.4Y-3.6
X1.4Y-3.7
X1.4Y-3.8
X1.4Y-3.9
X1.4Y-4.
X1.4Y-4.1
X1.4Y-4.2
X1.4Y-4.3
X1.4Y-4.4
X1.4Y-4.5
X1.4Y-4.6
X1.4Y-4.7
X1.4Y-4.8
X1.4Y-4.9
X1.4Y-5.
X1.4Y-5.1
X1.4Y-5.2
X1.4Y-5.3
X1.5Y-2.2
X1.5Y-2.3
X1.5Y-2.4
X1.5Y-2.5
X1.5Y-2.6
X1.5Y-2.7
X1.5Y-2.8
X1.5Y-2.9
X1.5Y-3.
X1.5Y-3.1
X1.5Y-3.2
X1.5Y-3.3
X1.5Y-3.4
X1.5Y-3.5
X1.5Y-3.6
X1.5Y-3.7
X1.5Y-3.8
X1.5Y-3.9
X1.5Y-4.
X1.5Y-4.1
X1.5Y-4.2
X1.5Y-4.3
X1.5Y-4.4
X1.5Y-4.5
X1.5Y-4.6
X1.5Y-4.7
X1.5Y-4.8
X1.5Y-4.9
X1.5Y-5.
X1.5Y-5.1
X1.5Y-5.2
X1.5Y-5.3
X5.Y-2.2
X5.Y-2.3
X5.Y-2.4
X5.Y-2.5
X5.Y-2.6
X5.Y-2.7
X5.Y-2.8
X5.Y-2.9
X5.Y-3.
X5.Y-3.1
X5.Y-3.2
X5.Y-3.3
X5.Y-3.4
X5.Y-3.5
X5.Y-3.6
X5.Y-3.7
X5.Y-3.8
X5.Y-3.9
X5.Y-4.
X5.Y-4.1
X5.Y-4.2
X5.Y-4.3
X5.Y-4.4
X5.Y-4.5
X5.Y-4.6
X5.Y-4.7
X5.Y-4.8
X5.Y-4.9
X5.Y-5.
X5.Y-5.1
X5.Y-5.2
X5.Y-5.3
X5.1Y-2.2
X5.1Y-2.3
X5.1Y-2.4
X5.1Y-2.5
X5.1Y-2.6
X5.1Y-2.7
X5.1Y-2.8
X5.1Y-2.9
X5.1Y-3.
X5.1Y-3.1
X5.1Y-3.2
X5.1Y-3.3
X5.1Y-3.4
X5.1Y-3.5
X5.1Y-3.6
X5.1Y-3.7
X5.1Y-3.8
X5.1Y-3.9
X5.1Y-4.
X5.1Y-4.1
X5.1Y-4.2
X5.1Y-4.3
X5.1Y-4.4
X5.1Y-4.5
X5.1Y-4.6
X5.1Y-4.7
X5.1Y-4.8
X5.1Y-4.9
X5.1Y-5.
X5.1Y-5.1
X5.1Y-5.2
X5.1Y-5.3
X14.Y-2.2
X14.Y-2.3
X14.Y-2.4
X14.Y-2.5
X14.Y-2.6
X14.Y-2.7
X14.Y-2.8
X14.Y-2.9
X14.Y-3.
X14.Y-3.1
X14.Y-3.2
X14.Y-3.3
X14.Y-3.4
X14.Y-3.5
X14.Y-3.6
X14.Y-3.7
X14.Y-3.8
X14.Y-3.9
X14.Y-4.
X14.Y-4.1
X14.Y-4.2
X14.Y-4.3
X14.Y-4.4
X14.Y-4.5
X14.Y-4.6
X14.Y-4.7
X14.Y-4.8
X14.Y-4.9
X14.Y-5.
X14.Y-5.1
X14.Y-5.2
X14.Y-5.3
X14.1Y-2.2
X14.1Y-2.3
X14.1Y-2.4
X14.1Y-2.5
X14.1Y-2.6
X14.1Y-2.7
X14.1Y-2.8
X14.1Y-2.9
X14.1Y-3.
X14.1Y-3.1
X14.1Y-3.2
X14.1Y-3.3
X14.1Y-3.4
X14.1Y-3.5
X14.1Y-3.6
X14.1Y-3.7
X14.1Y-3.8
X14.1Y-3.9
X14.1Y-4.
X14.1Y-4.1
X14.1Y-4.2
X14.1Y-4.3
X14.1Y-4.4
X14.1Y-4.5
X14.1Y-4.6
X14.1Y-4.7
X14.1Y-4.8
X14.1Y-4.9
X14.1Y-5.
X14.1Y-5.1
X14.1Y-5.2
X14.1Y-5.3
X9.8Y-2.2
X9.8Y-2.3
X9.8Y-2.4
X9.8Y-2.5
X9.8Y-2.6
X9.8Y-2.7
X9.8Y-2.8
X9.8Y-2.9
X9.8Y-3.
X9.8Y-3.1
X9.8Y-3.2
X9.8Y-3.3
X9.8Y-3.4
X9.8Y-3.5
X9.8Y-3.6
X9.8Y-3.7
X9.8Y-3.8
X9.8Y-3.9
X9.8Y-4.
X9.8Y-4.1
X9.8Y-4.2
X9.8Y-4.3
X9.8Y-4.4
X9.8Y-4.5
X9.8Y-4.6
X9.8Y-4.7
X9.8Y-4.8
X9.8Y-4.9
X9.8Y-5.
X9.8Y-5.1
X9.8Y-5.2
X9.8Y-5.3
X9.9Y-2.2
X9.9Y-2.3
X9.9Y-2.4
X9.9Y-2.5
X9.9Y-2.6
X9.9Y-2.7
X9.9Y-2.8
X9.9Y-2.9
X9.9Y-3.
X9.9Y-3.1
X9.9Y-3.2
X9.9Y-3.3
X9.9Y-3.4
X9.9Y-3.5
X9.9Y-3.6
X9.9Y-3.7
X9.9Y-3.8
X9.9Y-3.9
X9.9Y-4.
X9.9Y-4.1
X9.9Y-4.2
X9.9Y-4.3
X9.9Y-4.4
X9.9Y-4.5
X9.9Y-4.6
X9.9Y-4.7
X9.9Y-4.8
X9.9Y-4.9
X9.9Y-5.
X9.9Y-5.1
X9.9Y-5.2
X9.9Y-5.3
X4.4Y-2.2
X4.4Y-2.3
X4.4Y-2.4
X4.4Y-2.5
X4.4Y-2.6
X4.4Y-2.7
X4.4Y-2.8
X4.4Y-2.9
X4.4Y-3.
X4.4Y-3.1
X4.4Y-3.2
X4.4Y-3.3
X4.4Y-3.4
X4.4Y-3.5
X4.4Y-3.6
X4.4Y-3.7
X4.4Y-3.8
X4.4Y-3.9
X4.4Y-4.
X4.4Y-4.1
X4.4Y-4.2
X4.4Y-4.3
X4.4Y-4.4
X4.4Y-4.5
X4.4Y-4.6
X4.4Y-4.7
X4.4Y-4.8
X4.4Y-4.9
X4.4Y-5.
X4.4Y-5.1
X4.4Y-5.2
X4.4Y-5.3
X4.5Y-2.2
X4.5Y-2.3
X4.5Y-2.4
X4.5Y-2.5
X4.5Y-2.6
X4.5Y-2.7
X4.5Y-2.8
X4.5Y-2.9
X4.5Y-3.
X4.5Y-3.1
X4.5Y-3.2
X4.5Y-3.3
X4.5Y-3.4
X4.5Y-3.5
X4.5Y-3.6
X4.5Y-3.7
X4.5Y-3.8
X4.5Y-3.9
X4.5Y-4.
X4.5Y-4.1
X4.5Y-4.2
X4.5Y-4.3
X4.5Y-4.4
X4.5Y-4.5
X4.5Y-4.6
X4.5Y-4.7
X4.5Y-4.8
X4.5Y-4.9
X4.5Y-5.
X4.5Y-5.1
X4.5Y-5.2
X4.5Y-5.3
X12.8Y-2.2
X12.8Y-2.3
X12.8Y-2.4
X12.8Y-2.5
X12.8Y-2.6
X12.8Y-2.7
X12.8Y-2.8
X12.8Y-2.9
X12.8Y-3.
X12.8Y-3.1
X12.8Y-3.2
X12.8Y-3.3
X12.8Y-3.4
X12.8Y-3.5
X12.8Y-3.6
X12.8Y-3.7
X12.8Y-3.8
X12.8Y-3.9
X12.8Y-4.
X12.8Y-4.1
X12.8Y-4.2
X12.8Y-4.3
X12.8Y-4.4
X12.8Y-4.5
X12.8Y-4.6
X12.8Y-4.7
X12.8Y-4.8
X12.8Y-4.9
X12.8Y-5.
X12.8Y-5.1
X12.8Y-5.2
X12.8Y-5.3
X12.9Y-2.2
X12.9Y-2.3
X12.9Y-2.4
X12.9Y-2.5
X12.9Y-2.6
X12.9Y-2.7
X12.9Y-2.8
X12.9Y-2.9
X12.9Y-3.
X12.9Y-3.1
X12.9Y-3.2
X12.9Y-3.3
X12.9Y-3.4
X12.9Y-3.5
X12.9Y-3.6
X12.9Y-3.7
X12.9Y-3.8
X12.9Y-3.9
X12.9Y-4.
X12.9Y-4.1
X12.9Y-4.2
X12.9Y-4.3
X12.9Y-4.4
X12.9Y-4.5
X12.9Y-4.6
X12.9Y-4.7
X12.9Y-4.8
X12.9Y-4.9
X12.9Y-5.
X12.9Y-5.1
X12.9Y-5.2
X12.9Y-5.3
X6.8Y-2.2
X6.8Y-2.3
X6.8Y-2.4
X6.8Y-2.5
X6.8Y-2.6
X6.8Y-2.7
X6.8Y-2.8
X6.8Y-2.9
X6.8Y-3.
X6.8Y-3.1
X6.8Y-3.2
X6.8Y-3.3
X6.8Y-3.4
X6.8Y-3.5
X6.8Y-3.6
X6.8Y-3.7
X6.8Y-3.8
X6.8Y-3.9
X6.8Y-4.
X6.8Y-4.1
X6.8Y-4.2
X6.8Y-4.3
X6.8Y-4.4
X6.8Y-4.5
X6.8Y-4.6
X6.8Y-4.7
X6.8Y-4.8
X6.8Y-4.9
X6.8Y-5.
X6.8Y-5.1
X6.8Y-5.2
X6.8Y-5.3
X6.9Y-2.2
X6.9Y-2.3
X6.9Y-2.4
X6.9Y-2.5
X6.9Y-2.6
X6.9Y-2.7
X6.9Y-2.8
X6.9Y-2.9
X6.9Y-3.
X6.9Y-3.1
X6.9Y-3.2
X6.9Y-3.3
X6.9Y-3.4
X6.9Y-3.5
X6.9Y-3.6
X6.9Y-3.7
X6.9Y-3.8
X6.9Y-3.9
X6.9Y-4.
X6.9Y-4.1
X6.9Y-4.2
X6.9Y-4.3
X6.9Y-4.4
X6.9Y-4.5
X6.9Y-4.6
X6.9Y-4.7
X6.9Y-4.8
X6.9Y-4.9
X6.9Y-5.
X6.9Y-5.1
X6.9Y-5.2
X6.9Y-5.3
X3.8Y-2.2
X3.8Y-2.3
X3.8Y-2.4
X3.8Y-2.5
X3.8Y-2.6
X3.8Y-2.7
X3.8Y-2.8
X3.8Y-2.9
X3.8Y-3.
X3.8Y-3.1
X3.8Y-3.2
X3.8Y-3.3
X3.8Y-3.4
X3.8Y-3.5
X3.8Y-3.6
X3.8Y-3.7
X3.8Y-3.8
X3.8Y-3.9
X3.8Y-4.
X3.8Y-4.1
X3.8Y-4.2
X3.8Y-4.3
X3.8Y-4.4
X3.8Y-4.5
X3.8Y-4.6
X3.8Y-4.7
X3.8Y-4.8
X3.8Y-4.9
X3.8Y-5.
X3.8Y-5.1
X3.8Y-5.2
X3.8Y-5.3
X3.9Y-2.2
X3.9Y-2.3
X3.9Y-2.4
X3.9Y-2.5
X3.9Y-2.6
X3.9Y-2.7
X3.9Y-2.8
X3.9Y-2.9
X3.9Y-3.
X3.9Y-3.1
X3.9Y-3.2
X3.9Y-3.3
X3.9Y-3.4
X3.9Y-3.5
X3.9Y-3.6
X3.9Y-3.7
X3.9Y-3.8
X3.9Y-3.9
X3.9Y-4.
X3.9Y-4.1
X3.9Y-4.2
X3.9Y-4.3
X3.9Y-4.4
X3.9Y-4.5
X3.9Y-4.6
X3.9Y-4.7
X3.9Y-4.8
X3.9Y-4.9
X3.9Y-5.
X3.9Y-5.1
X3.9Y-5.2
X3.9Y-5.3
X6.2Y-2.2
X6.2Y-2.3
X6.2Y-2.4
X6.2Y-2.5
X6.2Y-2.6
X6.2Y-2.7
X6.2Y-2.8
X6.2Y-2.9
X6.2Y-3.
X6.2Y-3.1
X6.2Y-3.2
X6.2Y-3.3
X6.2Y-3.4
X6.2Y-3.5
X6.2Y-3.6
X6.2Y-3.7
X6.2Y-3.8
X6.2Y-3.9
X6.2Y-4.
X6.2Y-4.1
X6.2Y-4.2
X6.2Y-4.3
X6.2Y-4.4
X6.2Y-4.5
X6.2Y-4.6
X6.2Y-4.7
X6.2Y-4.8
X6.2Y-4.9
X6.2Y-5.
X6.2Y-5.1
X6.2Y-5.2
X6.2Y-5.3
X6.3Y-2.2
X6.3Y-2.3
X6.3Y-2.4
X6.3Y-2.5
X6.3Y-2.6
X6.3Y-2.7
X6.3Y-2.8
X6.3Y-2.9
X6.3Y-3.
X6.3Y-3.1
X6.3Y-3.2
X6.3Y-3.3
X6.3Y-3.4
X6.3Y-3.5
X6.3Y-3.6
X6.3Y-3.7
X6.3Y-3.8
X6.3Y-3.9
X6.3Y-4.
X6.3Y-4.1
X6.3Y-4.2
X6.3Y-4.3
X6.3Y-4.4
X6.3Y-4.5
X6.3Y-4.6
X6.3Y-4.7
X6.3Y-4.8
X6.3Y-4.9
X6.3Y-5.
X6.3Y-5.1
X6.3Y-5.2
X6.3Y-5.3
X14.6Y-2.2
X14.6Y-2.3
X14.6Y-2.4
X14.6Y-2.5
X14.6Y-2.6
X14.6Y-2.7
X14.6Y-2.8
X14.6Y-2.9
X14.6Y-3.
X14.6Y-3.1
X14.6Y-3.2
X14.6Y-3.3
X14.6Y-3.4
X14.6Y-3.5
X14.6Y-3.6
X14.6Y-3.7
X14.6Y-3.8
X14.6Y-3.9
X14.6Y-4.
X14.6Y-4.1
X14.6Y-4.2
X14.6Y-4.3
X14.6Y-4.4
X14.6Y-4.5
X14.6Y-4.6
X14.6Y-4.7
X14.6Y-4.8
X14.6Y-4.9
X14.6Y-5.
X14.6Y-5.1
X14.6Y-5.2
X14.6Y-5.3
X14.7Y-2.2
X14.7Y-2.3
X14.7Y-2.4
X14.7Y-2.5
X14.7Y-2.6
X14.7Y-2.7
X14.7Y-2.8
X14.7Y-2.9
X14.7Y-3.
X14.7Y-3.1
X14.7Y-3.2
X14.7Y-3.3
X14.7Y-3.4
X14.7Y-3.5
X14.7Y-3.6
X14.7Y-3.7
X14.7Y-3.8
X14.7Y-3.9
X14.7Y-4.
X14.7Y-4.1
X14.7Y-4.2
X14.7Y-4.3
X14.7Y-4.4
X14.7Y-4.5
X14.7Y-4.6
X14.7Y-4.7
X14.7Y-4.8
X14.7Y-4.9
X14.7Y-5.
X14.7Y-5.1
X14.7Y-5.2
X14.7Y-5.3
X11.6Y-2.2
X11.6Y-2.3
X11.6Y-2.4
X11.6Y-2.5
X11.6Y-2.6
X11.6Y-2.7
X11.6Y-2.8
X11.6Y-2.9
X11.6Y-3.
X11.6Y-3.1
X11.6Y-3.2
X11.6Y-3.3
X11.6Y-3.4
X11.6Y-3.5
X11.6Y-3.6
X11.6Y-3.7
X11.6Y-3.8
X11.6Y-3.9
X11.6Y-4.
X11.6Y-4.1
X11.6Y-4.2
X11.6Y-4.3
X11.6Y-4.4
X11.6Y-4.5
X11.6Y-4.6
X11.6Y-4.7
X11.6Y-4.8
X11.6Y-4.9
X11.6Y-5.
X11.6Y-5.1
X11.6Y-5.2
X11.6Y-5.3
X11.7Y-2.2
X11.7Y-2.3
X11.7Y-2.4
X11.7Y-2.5
X11.7Y-2.6
X11.7Y-2.7
X11.7Y-2.8
X11.7Y-2.9
X11.7Y-3.
X11.7Y-3.1
X11.7Y-3.2
X11.7Y-3.3
X11.7Y-3.4
X11.7Y-3.5
X11.7Y-3.6
X11.7Y-3.7
X11.7Y-3.8
X11.7Y-3.9
X11.7Y-4.
X11.7Y-4.1
X11.7Y-4.2
X11.7Y-4.3
X11.7Y-4.4
X11.7Y-4.5
X11.7Y-4.6
X11.7Y-4.7
X11.7Y-4.8
X11.7Y-4.9
X11.7Y-5.
X11.7Y-5.1
X11.7Y-5.2
X11.7Y-5.3
T3
X5.Y-6.9
X5.Y-7.1
X5.Y-7.3
X5.Y-7.5
X5.Y-7.7
X5.Y-7.9
X5.Y-8.1
X9.8Y-6.9
X9.8Y-7.1
X9.8Y-7.3
X9.8Y-7.5
X9.8Y-7.7
X9.8Y-7.9
X9.8Y-8.1
X5.6Y-6.9
X5.6Y-7.1
X5.6Y-7.3
X5.6Y-7.5
X5.6Y-7.7
X5.6Y-7.9
X5.6Y-8.1
X5.Y-8.4
X5.Y-8.6
X5.Y-8.8
X7.4Y-6.9
X7.4Y-7.1
X7.4Y-7.3
X7.4Y-7.5
X7.4Y-7.7
X7.4Y-7.9
X7.4Y-8.1
X2.6Y-8.4
X2.6Y-8.6
X2.6Y-8.8
X2.6Y-9.1
X2.6Y-9.3
X2.6Y-9.5
X2.6Y-9.7
X2.6Y-9.9
X2.6Y-10.1
X2.6Y-10.3
X2.6Y-10.5
X14.6Y-9.1
X14.6Y-9.3
X14.6Y-9.5
X14.6Y-9.7
X14.6Y-9.9
X14.6Y-10.1
X14.6Y-10.3
X14.6Y-10.5
X9.2Y-6.9
X9.2Y-7.1
X9.2Y-7.3
X9.2Y-7.5
X9.2Y-7.7
X9.2Y-7.9
X9.2Y-8.1
X9.2Y-8.3
X9.2Y-8.5
X9.2Y-8.7
X9.2Y-8.9
X9.2Y-9.1
X9.2Y-9.3
X9.2Y-9.5
X9.2Y-9.7
X9.2Y-9.9
X6.8Y-8.4
X6.8Y-8.6
X6.8Y-8.8
X7.4Y-9.1
X7.4Y-9.3
X7.4Y-9.5
X7.4Y-9.7
X7.4Y-9.9
X7.4Y-10.1
X7.4Y-10.3
X7.4Y-10.5
X13.4Y-6.9
X13.4Y-7.1
X13.4Y-7.3
X13.4Y-7.5
X13.4Y-7.7
X13.4Y-7.9
X13.4Y-8.1
X10.4Y-6.9
X10.4Y-7.1
X10.4Y-7.3
X10.4Y-7.5
X10.4Y-7.7
X10.4Y-7.9
X10.4Y-8.1
X6.2Y-6.9
X6.2Y-7.1
X6.2Y-7.3
X6.2Y-7.5
X6.2Y-7.7
X6.2Y-7.9
X6.2Y-8.1
X14.6Y-6.9
X14.6Y-7.1
X14.6Y-7.3
X14.6Y-7.5
X14.6Y-7.7
X14.6Y-7.9
X14.6Y-8.1
X12.2Y-8.4
X12.2Y-8.6
X12.2Y-8.8
X3.8Y-9.1
X3.8Y-9.3
X3.8Y-9.5
X3.8Y-9.7
X3.8Y-9.9
X3.8Y-10.1
X3.8Y-10.3
X3.8Y-10.5
X11.Y-8.4
X11.Y-8.6
X11.Y-8.8
X4.4Y-6.9
X4.4Y-7.1
X4.4Y-7.3
X4.4Y-7.5
X4.4Y-7.7
X4.4Y-7.9
X4.4Y-8.1
X10.4Y-8.4
X10.4Y-8.6
X10.4Y-8.8
X11.Y-6.9
X11.Y-7.1
X11.Y-7.3
X11.Y-7.5
X11.Y-7.7
X11.Y-7.9
X11.Y-8.1
X14.Y-9.1
X14.Y-9.3
X14.Y-9.5
X14.Y-9.7
X14.Y-9.9
X14.Y-10.1
X14.Y-10.3
X14.Y-10.5
X8.455Y-10.1525
X8.455Y-10.3525
X8.455Y-10.5525
X3.2Y-9.1
X3.2Y-9.3
X3.2Y-9.5
X3.2Y-9.7
X3.2Y-9.9
X3.2Y-10.1
X3.2Y-10.3
X3.2Y-10.5
X3.2Y-6.9
X3.2Y-7.1
X3.2Y-7.3
X3.2Y-7.5
X3.2Y-7.7
X3.2Y-7.9
X3.2Y-8.1
X11.6Y-6.9
X11.6Y-7.1
X11.6Y-7.3
X11.6Y-7.5
X11.6Y-7.7
X11.6Y-7.9
X11.6Y-8.1
X2.Y-7.
X2.Y-7.2
X2.Y-7.4
X2.Y-7.6
X2.Y-7.8
X2.Y-8.
X3.8Y-6.9
X3.8Y-7.1
X3.8Y-7.3
X3.8Y-7.5
X3.8Y-7.7
X3.8Y-7.9
X3.8Y-8.1
X5.6Y-8.4
X5.6Y-8.6
X5.6Y-8.8
X5.6Y-9.1
X5.6Y-9.3
X5.6Y-9.5
X5.6Y-9.7
X5.6Y-9.9
X5.6Y-10.1
X5.6Y-10.3
X5.6Y-10.5
X12.8Y-8.4
X12.8Y-8.6
X12.8Y-8.8
X11.6Y-9.1
X11.6Y-9.3
X11.6Y-9.5
X11.6Y-9.7
X11.6Y-9.9
X11.6Y-10.1
X11.6Y-10.3
X11.6Y-10.5
X10.4Y-9.1
X10.4Y-9.3
X10.4Y-9.5
X10.4Y-9.7
X10.4Y-9.9
X10.4Y-10.1
X10.4Y-10.3
X10.4Y-10.5
X3.8Y-8.4
X3.8Y-8.6
X3.8Y-8.8
X12.2Y-9.1
X12.2Y-9.3
X12.2Y-9.5
X12.2Y-9.7
X12.2Y-9.9
X12.2Y-10.1
X12.2Y-10.3
X12.2Y-10.5
X8.Y-6.9
X8.Y-7.1
X8.Y-7.3
X8.Y-7.5
X8.Y-7.7
X8.Y-7.9
X8.Y-8.1
X8.Y-8.3
X8.Y-8.5
X8.Y-8.7
X8.Y-8.9
X8.Y-9.1
X8.Y-9.3
X8.Y-9.5
X8.Y-9.7
X8.Y-9.9
X9.8Y-8.4
X9.8Y-8.6
X9.8Y-8.8
X5.Y-9.1
X5.Y-9.3
X5.Y-9.5
X5.Y-9.7
X5.Y-9.9
X5.Y-10.1
X5.Y-10.3
X5.Y-10.5
X12.8Y-9.1
X12.8Y-9.3
X12.8Y-9.5
X12.8Y-9.7
X12.8Y-9.9
X12.8Y-10.1
X12.8Y-10.3
X12.8Y-10.5
X4.4Y-9.1
X4.4Y-9.3
X4.4Y-9.5
X4.4Y-9.7
X4.4Y-9.9
X4.4Y-10.1
X4.4Y-10.3
X4.4Y-10.5
X1.4Y-7.
X1.4Y-7.2
X1.4Y-7.4
X1.4Y-7.6
X1.4Y-7.8
X1.4Y-8.
X14.Y-6.9
X14.Y-7.1
X14.Y-7.3
X14.Y-7.5
X14.Y-7.7
X14.Y-7.9
X14.Y-8.1
X6.8Y-6.9
X6.8Y-7.1
X6.8Y-7.3
X6.8Y-7.5
X6.8Y-7.7
X6.8Y-7.9
X6.8Y-8.1
X4.4Y-8.4
X4.4Y-8.6
X4.4Y-8.8
X6.8Y-9.1
X6.8Y-9.3
X6.8Y-9.5
X6.8Y-9.7
X6.8Y-9.9
X6.8Y-10.1
X6.8Y-10.3
X6.8Y-10.5
X2.6Y-6.9
X2.6Y-7.1
X2.6Y-7.3
X2.6Y-7.5
X2.6Y-7.7
X2.6Y-7.9
X2.6Y-8.1
X7.4Y-8.4
X7.4Y-8.6
X7.4Y-8.8
X9.8Y-9.1
X9.8Y-9.3
X9.8Y-9.5
X9.8Y-9.7
X9.8Y-9.9
X9.8Y-10.1
X9.8Y-10.3
X9.8Y-10.5
X11.6Y-8.4
X11.6Y-8.6
X11.6Y-8.8
X13.4Y-8.4
X13.4Y-8.6
X13.4Y-8.8
X13.4Y-9.1
X13.4Y-9.3
X13.4Y-9.5
X13.4Y-9.7
X13.4Y-9.9
X13.4Y-10.1
X13.4Y-10.3
X13.4Y-10.5
X12.2Y-6.9
X12.2Y-7.1
X12.2Y-7.3
X12.2Y-7.5
X12.2Y-7.7
X12.2Y-7.9
X12.2Y-8.1
X11.Y-9.1
X11.Y-9.3
X11.Y-9.5
X11.Y-9.7
X11.Y-9.9
X11.Y-10.1
X11.Y-10.3
X11.Y-10.5
X12.8Y-6.9
X12.8Y-7.1
X12.8Y-7.3
X12.8Y-7.5
X12.8Y-7.7
X12.8Y-7.9
X12.8Y-8.1
X3.2Y-8.4
X3.2Y-8.6
X3.2Y-8.8
X6.2Y-9.1
X6.2Y-9.3
X6.2Y-9.5
X6.2Y-9.7
X6.2Y-9.9
X6.2Y-10.1
X6.2Y-10.3
X6.2Y-10.5
X6.2Y-8.4
X6.2Y-8.6
X6.2Y-8.8
X14.Y-8.4
X14.Y-8.6
X14.Y-8.8
X14.6Y-8.4
X14.6Y-8.6
X14.6Y-8.8
T0
M30
