G04 #@! TF.GenerationSoftware,KiCad,Pcbnew,(5.0.0)*
G04 #@! TF.CreationDate,2019-08-31T23:30:06+01:00*
G04 #@! TF.ProjectId,A-FJ,412D464A2E6B696361645F7063620000,rev?*
G04 #@! TF.SameCoordinates,Original*
G04 #@! TF.FileFunction,Soldermask,Bot*
G04 #@! TF.FilePolarity,Negative*
%FSLAX46Y46*%
G04 Gerber Fmt 4.6, Leading zero omitted, Abs format (unit mm)*
G04 Created by KiCad (PCBNEW (5.0.0)) date 08/31/19 23:30:06*
%MOMM*%
%LPD*%
G01*
G04 APERTURE LIST*
%ADD10C,2.000000*%
%ADD11C,1.400000*%
%ADD12O,1.400000X1.400000*%
%ADD13C,1.600000*%
%ADD14R,1.600000X1.600000*%
%ADD15C,2.800000*%
%ADD16C,1.700000*%
%ADD17R,1.700000X1.700000*%
G04 APERTURE END LIST*
D10*
G04 #@! TO.C,U8*
X225425000Y-78740000D03*
X225425000Y-81280000D03*
X225425000Y-83820000D03*
X243840000Y-74930000D03*
X243840000Y-77470000D03*
X243840000Y-80010000D03*
X243840000Y-82550000D03*
X243840000Y-85090000D03*
X243840000Y-87630000D03*
X230505000Y-104775000D03*
X227965000Y-104775000D03*
X225425000Y-104775000D03*
G04 #@! TD*
G04 #@! TO.C,U1*
X225425000Y-142240000D03*
X225425000Y-144780000D03*
X225425000Y-147320000D03*
X243840000Y-138430000D03*
X243840000Y-140970000D03*
X243840000Y-143510000D03*
X243840000Y-146050000D03*
X243840000Y-148590000D03*
X243840000Y-151130000D03*
X230505000Y-168275000D03*
X227965000Y-168275000D03*
X225425000Y-168275000D03*
G04 #@! TD*
G04 #@! TO.C,U12*
X103505000Y-78740000D03*
X103505000Y-81280000D03*
X103505000Y-83820000D03*
X121920000Y-74930000D03*
X121920000Y-77470000D03*
X121920000Y-80010000D03*
X121920000Y-82550000D03*
X121920000Y-85090000D03*
X121920000Y-87630000D03*
X108585000Y-104775000D03*
X106045000Y-104775000D03*
X103505000Y-104775000D03*
G04 #@! TD*
G04 #@! TO.C,U11*
X133985000Y-78740000D03*
X133985000Y-81280000D03*
X133985000Y-83820000D03*
X152400000Y-74930000D03*
X152400000Y-77470000D03*
X152400000Y-80010000D03*
X152400000Y-82550000D03*
X152400000Y-85090000D03*
X152400000Y-87630000D03*
X139065000Y-104775000D03*
X136525000Y-104775000D03*
X133985000Y-104775000D03*
G04 #@! TD*
G04 #@! TO.C,U14*
X42545000Y-78740000D03*
X42545000Y-81280000D03*
X42545000Y-83820000D03*
X60960000Y-74930000D03*
X60960000Y-77470000D03*
X60960000Y-80010000D03*
X60960000Y-82550000D03*
X60960000Y-85090000D03*
X60960000Y-87630000D03*
X47625000Y-104775000D03*
X45085000Y-104775000D03*
X42545000Y-104775000D03*
G04 #@! TD*
G04 #@! TO.C,U13*
X73025000Y-78740000D03*
X73025000Y-81280000D03*
X73025000Y-83820000D03*
X91440000Y-74930000D03*
X91440000Y-77470000D03*
X91440000Y-80010000D03*
X91440000Y-82550000D03*
X91440000Y-85090000D03*
X91440000Y-87630000D03*
X78105000Y-104775000D03*
X75565000Y-104775000D03*
X73025000Y-104775000D03*
G04 #@! TD*
D11*
G04 #@! TO.C,R3*
X250250000Y-160750000D03*
D12*
X250250000Y-168370000D03*
G04 #@! TD*
D11*
G04 #@! TO.C,R4*
X189000000Y-160750000D03*
D12*
X189000000Y-168370000D03*
G04 #@! TD*
D11*
G04 #@! TO.C,R5*
X127000000Y-97250000D03*
D12*
X127000000Y-104870000D03*
G04 #@! TD*
D11*
G04 #@! TO.C,R6*
X218750000Y-160750000D03*
D12*
X218750000Y-168370000D03*
G04 #@! TD*
D11*
G04 #@! TO.C,R7*
X187750000Y-97250000D03*
D12*
X187750000Y-104870000D03*
G04 #@! TD*
D11*
G04 #@! TO.C,R8*
X96500000Y-160500000D03*
D12*
X96500000Y-168120000D03*
G04 #@! TD*
D10*
G04 #@! TO.C,U2*
X194945000Y-142240000D03*
X194945000Y-144780000D03*
X194945000Y-147320000D03*
X213360000Y-138430000D03*
X213360000Y-140970000D03*
X213360000Y-143510000D03*
X213360000Y-146050000D03*
X213360000Y-148590000D03*
X213360000Y-151130000D03*
X200025000Y-168275000D03*
X197485000Y-168275000D03*
X194945000Y-168275000D03*
G04 #@! TD*
G04 #@! TO.C,U3*
X164465000Y-142240000D03*
X164465000Y-144780000D03*
X164465000Y-147320000D03*
X182880000Y-138430000D03*
X182880000Y-140970000D03*
X182880000Y-143510000D03*
X182880000Y-146050000D03*
X182880000Y-148590000D03*
X182880000Y-151130000D03*
X169545000Y-168275000D03*
X167005000Y-168275000D03*
X164465000Y-168275000D03*
G04 #@! TD*
G04 #@! TO.C,U4*
X133985000Y-142240000D03*
X133985000Y-144780000D03*
X133985000Y-147320000D03*
X152400000Y-138430000D03*
X152400000Y-140970000D03*
X152400000Y-143510000D03*
X152400000Y-146050000D03*
X152400000Y-148590000D03*
X152400000Y-151130000D03*
X139065000Y-168275000D03*
X136525000Y-168275000D03*
X133985000Y-168275000D03*
G04 #@! TD*
G04 #@! TO.C,U5*
X103505000Y-142240000D03*
X103505000Y-144780000D03*
X103505000Y-147320000D03*
X121920000Y-138430000D03*
X121920000Y-140970000D03*
X121920000Y-143510000D03*
X121920000Y-146050000D03*
X121920000Y-148590000D03*
X121920000Y-151130000D03*
X108585000Y-168275000D03*
X106045000Y-168275000D03*
X103505000Y-168275000D03*
G04 #@! TD*
G04 #@! TO.C,U6*
X73025000Y-142240000D03*
X73025000Y-144780000D03*
X73025000Y-147320000D03*
X91440000Y-138430000D03*
X91440000Y-140970000D03*
X91440000Y-143510000D03*
X91440000Y-146050000D03*
X91440000Y-148590000D03*
X91440000Y-151130000D03*
X78105000Y-168275000D03*
X75565000Y-168275000D03*
X73025000Y-168275000D03*
G04 #@! TD*
G04 #@! TO.C,U7*
X42545000Y-142240000D03*
X42545000Y-144780000D03*
X42545000Y-147320000D03*
X60960000Y-138430000D03*
X60960000Y-140970000D03*
X60960000Y-143510000D03*
X60960000Y-146050000D03*
X60960000Y-148590000D03*
X60960000Y-151130000D03*
X47625000Y-168275000D03*
X45085000Y-168275000D03*
X42545000Y-168275000D03*
G04 #@! TD*
G04 #@! TO.C,U9*
X194945000Y-78740000D03*
X194945000Y-81280000D03*
X194945000Y-83820000D03*
X213360000Y-74930000D03*
X213360000Y-77470000D03*
X213360000Y-80010000D03*
X213360000Y-82550000D03*
X213360000Y-85090000D03*
X213360000Y-87630000D03*
X200025000Y-104775000D03*
X197485000Y-104775000D03*
X194945000Y-104775000D03*
G04 #@! TD*
G04 #@! TO.C,U10*
X164465000Y-78740000D03*
X164465000Y-81280000D03*
X164465000Y-83820000D03*
X182880000Y-74930000D03*
X182880000Y-77470000D03*
X182880000Y-80010000D03*
X182880000Y-82550000D03*
X182880000Y-85090000D03*
X182880000Y-87630000D03*
X169545000Y-104775000D03*
X167005000Y-104775000D03*
X164465000Y-104775000D03*
G04 #@! TD*
D13*
G04 #@! TO.C,C1*
X34000000Y-38250000D03*
D14*
X34000000Y-40750000D03*
G04 #@! TD*
D13*
G04 #@! TO.C,C2*
X139000000Y-37250000D03*
D14*
X139000000Y-34750000D03*
G04 #@! TD*
D15*
G04 #@! TO.C,J1*
X34525000Y-28321000D03*
X123425000Y-28321000D03*
D16*
X39605000Y-33401000D03*
X39605000Y-30861000D03*
X42145000Y-33401000D03*
X42145000Y-30861000D03*
X44685000Y-33401000D03*
X44685000Y-30861000D03*
X47225000Y-33401000D03*
X47225000Y-30861000D03*
X49765000Y-33401000D03*
X49765000Y-30861000D03*
X52305000Y-33401000D03*
X52305000Y-30861000D03*
X54845000Y-33401000D03*
X54845000Y-30861000D03*
X57385000Y-33401000D03*
X57385000Y-30861000D03*
X59925000Y-33401000D03*
X59925000Y-30861000D03*
X62465000Y-33401000D03*
X62465000Y-30861000D03*
X65005000Y-33401000D03*
X65005000Y-30861000D03*
X67545000Y-33401000D03*
X67545000Y-30861000D03*
X70085000Y-33401000D03*
X70085000Y-30861000D03*
X72625000Y-33401000D03*
X72625000Y-30861000D03*
X75165000Y-33401000D03*
X75165000Y-30861000D03*
X77705000Y-33401000D03*
X77705000Y-30861000D03*
X80245000Y-33401000D03*
X80245000Y-30861000D03*
X82785000Y-33401000D03*
X82785000Y-30861000D03*
X85325000Y-33401000D03*
X85325000Y-30861000D03*
X87865000Y-33401000D03*
X87865000Y-30861000D03*
X90405000Y-33401000D03*
X90405000Y-30861000D03*
X92945000Y-33401000D03*
X92945000Y-30861000D03*
X95485000Y-33401000D03*
X95485000Y-30861000D03*
X98025000Y-33401000D03*
X98025000Y-30861000D03*
X100565000Y-33401000D03*
X100565000Y-30861000D03*
X103105000Y-33401000D03*
X103105000Y-30861000D03*
X105645000Y-33401000D03*
X105645000Y-30861000D03*
X108185000Y-33401000D03*
X108185000Y-30861000D03*
X110725000Y-33401000D03*
X110725000Y-30861000D03*
X113265000Y-33401000D03*
X113265000Y-30861000D03*
X115805000Y-33401000D03*
X115805000Y-30861000D03*
X118345000Y-33401000D03*
D17*
X118345000Y-30861000D03*
G04 #@! TD*
D11*
G04 #@! TO.C,R1*
X250000000Y-97250000D03*
D12*
X250000000Y-104870000D03*
G04 #@! TD*
G04 #@! TO.C,R2*
X219750000Y-104620000D03*
D11*
X219750000Y-97000000D03*
G04 #@! TD*
M02*
