G04 #@! TF.GenerationSoftware,KiCad,Pcbnew,(5.0.0)*
G04 #@! TF.CreationDate,2019-09-22T19:59:41+01:00*
G04 #@! TF.ProjectId,A-FJ,412D464A2E6B696361645F7063620000,rev?*
G04 #@! TF.SameCoordinates,Original*
G04 #@! TF.FileFunction,Other,User*
%FSLAX46Y46*%
G04 Gerber Fmt 4.6, Leading zero omitted, Abs format (unit mm)*
G04 Created by KiCad (PCBNEW (5.0.0)) date 09/22/19 19:59:41*
%MOMM*%
%LPD*%
G01*
G04 APERTURE LIST*
%ADD10C,0.050000*%
G04 APERTURE END LIST*
D10*
G04 #@! TO.C,R3*
X251500000Y-159700000D02*
X249000000Y-159700000D01*
X249000000Y-159700000D02*
X249000000Y-169420000D01*
X249000000Y-169420000D02*
X251500000Y-169420000D01*
X251500000Y-169420000D02*
X251500000Y-159700000D01*
G04 #@! TO.C,R4*
X190250000Y-159700000D02*
X187750000Y-159700000D01*
X187750000Y-159700000D02*
X187750000Y-169420000D01*
X187750000Y-169420000D02*
X190250000Y-169420000D01*
X190250000Y-169420000D02*
X190250000Y-159700000D01*
G04 #@! TO.C,R5*
X128250000Y-96200000D02*
X125750000Y-96200000D01*
X125750000Y-96200000D02*
X125750000Y-105920000D01*
X125750000Y-105920000D02*
X128250000Y-105920000D01*
X128250000Y-105920000D02*
X128250000Y-96200000D01*
G04 #@! TO.C,R6*
X220000000Y-159700000D02*
X217500000Y-159700000D01*
X217500000Y-159700000D02*
X217500000Y-169420000D01*
X217500000Y-169420000D02*
X220000000Y-169420000D01*
X220000000Y-169420000D02*
X220000000Y-159700000D01*
G04 #@! TO.C,R7*
X189000000Y-96200000D02*
X186500000Y-96200000D01*
X186500000Y-96200000D02*
X186500000Y-105920000D01*
X186500000Y-105920000D02*
X189000000Y-105920000D01*
X189000000Y-105920000D02*
X189000000Y-96200000D01*
G04 #@! TO.C,R8*
X97750000Y-159450000D02*
X95250000Y-159450000D01*
X95250000Y-159450000D02*
X95250000Y-169170000D01*
X95250000Y-169170000D02*
X97750000Y-169170000D01*
X97750000Y-169170000D02*
X97750000Y-159450000D01*
G04 #@! TO.C,C1*
X38250000Y-39500000D02*
G75*
G03X38250000Y-39500000I-4250000J0D01*
G01*
G04 #@! TO.C,C2*
X143250000Y-36000000D02*
G75*
G03X143250000Y-36000000I-4250000J0D01*
G01*
G04 #@! TO.C,R1*
X251250000Y-96200000D02*
X248750000Y-96200000D01*
X248750000Y-96200000D02*
X248750000Y-105920000D01*
X248750000Y-105920000D02*
X251250000Y-105920000D01*
X251250000Y-105920000D02*
X251250000Y-96200000D01*
G04 #@! TO.C,R2*
X221000000Y-105670000D02*
X221000000Y-95950000D01*
X218500000Y-105670000D02*
X221000000Y-105670000D01*
X218500000Y-95950000D02*
X218500000Y-105670000D01*
X221000000Y-95950000D02*
X218500000Y-95950000D01*
G04 #@! TD*
M02*
