G04 #@! TF.GenerationSoftware,KiCad,Pcbnew,(5.0.0)*
G04 #@! TF.CreationDate,2019-09-22T19:59:41+01:00*
G04 #@! TF.ProjectId,A-FJ,412D464A2E6B696361645F7063620000,rev?*
G04 #@! TF.SameCoordinates,Original*
G04 #@! TF.FileFunction,Copper,L2,Bot,Signal*
G04 #@! TF.FilePolarity,Positive*
%FSLAX46Y46*%
G04 Gerber Fmt 4.6, Leading zero omitted, Abs format (unit mm)*
G04 Created by KiCad (PCBNEW (5.0.0)) date 09/22/19 19:59:41*
%MOMM*%
%LPD*%
G01*
G04 APERTURE LIST*
G04 #@! TA.AperFunction,ComponentPad*
%ADD10C,2.000000*%
G04 #@! TD*
G04 #@! TA.AperFunction,ComponentPad*
%ADD11C,1.400000*%
G04 #@! TD*
G04 #@! TA.AperFunction,ComponentPad*
%ADD12O,1.400000X1.400000*%
G04 #@! TD*
G04 #@! TA.AperFunction,ComponentPad*
%ADD13C,1.600000*%
G04 #@! TD*
G04 #@! TA.AperFunction,ComponentPad*
%ADD14R,1.600000X1.600000*%
G04 #@! TD*
G04 #@! TA.AperFunction,ComponentPad*
%ADD15C,1.700000*%
G04 #@! TD*
G04 #@! TA.AperFunction,ComponentPad*
%ADD16R,1.700000X1.700000*%
G04 #@! TD*
G04 #@! TA.AperFunction,ViaPad*
%ADD17C,0.800000*%
G04 #@! TD*
G04 #@! TA.AperFunction,Conductor*
%ADD18C,0.500000*%
G04 #@! TD*
G04 #@! TA.AperFunction,Conductor*
%ADD19C,0.250000*%
G04 #@! TD*
G04 APERTURE END LIST*
D10*
G04 #@! TO.P,U8,13*
G04 #@! TO.N,FTG2*
X225425000Y-78740000D03*
G04 #@! TO.P,U8,12*
G04 #@! TO.N,Net-(U8-Pad1)*
X225425000Y-81280000D03*
G04 #@! TO.P,U8,11*
G04 #@! TO.N,FTG1*
X225425000Y-83820000D03*
G04 #@! TO.P,U8,6*
G04 #@! TO.N,Net-(U8-Pad1)*
X243840000Y-74930000D03*
G04 #@! TO.P,U8,5*
G04 #@! TO.N,t2-2*
X243840000Y-77470000D03*
G04 #@! TO.P,U8,4*
G04 #@! TO.N,N/C*
X243840000Y-80010000D03*
G04 #@! TO.P,U8,3*
G04 #@! TO.N,FTGa*
X243840000Y-82550000D03*
G04 #@! TO.P,U8,2*
G04 #@! TO.N,N/C*
X243840000Y-85090000D03*
G04 #@! TO.P,U8,1*
G04 #@! TO.N,Net-(U8-Pad1)*
X243840000Y-87630000D03*
G04 #@! TO.P,U8,23*
G04 #@! TO.N,Neg6v*
X230505000Y-104775000D03*
G04 #@! TO.P,U8,22*
G04 #@! TO.N,GND*
X227965000Y-104775000D03*
G04 #@! TO.P,U8,21*
G04 #@! TO.N,6v*
X225425000Y-104775000D03*
G04 #@! TD*
G04 #@! TO.P,U1,13*
G04 #@! TO.N,RTG2*
X225425000Y-142240000D03*
G04 #@! TO.P,U1,12*
G04 #@! TO.N,Net-(U1-Pad1)*
X225425000Y-144780000D03*
G04 #@! TO.P,U1,11*
G04 #@! TO.N,RTG1*
X225425000Y-147320000D03*
G04 #@! TO.P,U1,6*
G04 #@! TO.N,Net-(U1-Pad1)*
X243840000Y-138430000D03*
G04 #@! TO.P,U1,5*
G04 #@! TO.N,t2-2*
X243840000Y-140970000D03*
G04 #@! TO.P,U1,4*
G04 #@! TO.N,N/C*
X243840000Y-143510000D03*
G04 #@! TO.P,U1,3*
G04 #@! TO.N,RTGa*
X243840000Y-146050000D03*
G04 #@! TO.P,U1,2*
G04 #@! TO.N,N/C*
X243840000Y-148590000D03*
G04 #@! TO.P,U1,1*
G04 #@! TO.N,Net-(U1-Pad1)*
X243840000Y-151130000D03*
G04 #@! TO.P,U1,23*
G04 #@! TO.N,Neg6v*
X230505000Y-168275000D03*
G04 #@! TO.P,U1,22*
G04 #@! TO.N,GND*
X227965000Y-168275000D03*
G04 #@! TO.P,U1,21*
G04 #@! TO.N,6v*
X225425000Y-168275000D03*
G04 #@! TD*
G04 #@! TO.P,U12,13*
G04 #@! TO.N,MTP2*
X103505000Y-78740000D03*
G04 #@! TO.P,U12,12*
G04 #@! TO.N,Net-(U12-Pad1)*
X103505000Y-81280000D03*
G04 #@! TO.P,U12,11*
G04 #@! TO.N,MTP1*
X103505000Y-83820000D03*
G04 #@! TO.P,U12,6*
G04 #@! TO.N,Net-(U12-Pad1)*
X121920000Y-74930000D03*
G04 #@! TO.P,U12,5*
G04 #@! TO.N,t2-2*
X121920000Y-77470000D03*
G04 #@! TO.P,U12,4*
G04 #@! TO.N,N/C*
X121920000Y-80010000D03*
G04 #@! TO.P,U12,3*
G04 #@! TO.N,MTPa*
X121920000Y-82550000D03*
G04 #@! TO.P,U12,2*
G04 #@! TO.N,N/C*
X121920000Y-85090000D03*
G04 #@! TO.P,U12,1*
G04 #@! TO.N,Net-(U12-Pad1)*
X121920000Y-87630000D03*
G04 #@! TO.P,U12,23*
G04 #@! TO.N,Neg6v*
X108585000Y-104775000D03*
G04 #@! TO.P,U12,22*
G04 #@! TO.N,GND*
X106045000Y-104775000D03*
G04 #@! TO.P,U12,21*
G04 #@! TO.N,6v*
X103505000Y-104775000D03*
G04 #@! TD*
G04 #@! TO.P,U11,13*
G04 #@! TO.N,MTF2*
X133985000Y-78740000D03*
G04 #@! TO.P,U11,12*
G04 #@! TO.N,Net-(U11-Pad1)*
X133985000Y-81280000D03*
G04 #@! TO.P,U11,11*
G04 #@! TO.N,MTF1*
X133985000Y-83820000D03*
G04 #@! TO.P,U11,6*
G04 #@! TO.N,Net-(U11-Pad1)*
X152400000Y-74930000D03*
G04 #@! TO.P,U11,5*
G04 #@! TO.N,N/C*
X152400000Y-77470000D03*
G04 #@! TO.P,U11,4*
X152400000Y-80010000D03*
G04 #@! TO.P,U11,3*
G04 #@! TO.N,MTFa*
X152400000Y-82550000D03*
G04 #@! TO.P,U11,2*
G04 #@! TO.N,N/C*
X152400000Y-85090000D03*
G04 #@! TO.P,U11,1*
G04 #@! TO.N,Net-(U11-Pad1)*
X152400000Y-87630000D03*
G04 #@! TO.P,U11,23*
G04 #@! TO.N,Neg6v*
X139065000Y-104775000D03*
G04 #@! TO.P,U11,22*
G04 #@! TO.N,GND*
X136525000Y-104775000D03*
G04 #@! TO.P,U11,21*
G04 #@! TO.N,6v*
X133985000Y-104775000D03*
G04 #@! TD*
G04 #@! TO.P,U14,13*
G04 #@! TO.N,ATF2*
X42545000Y-78740000D03*
G04 #@! TO.P,U14,12*
G04 #@! TO.N,Net-(U14-Pad1)*
X42545000Y-81280000D03*
G04 #@! TO.P,U14,11*
G04 #@! TO.N,ATF1*
X42545000Y-83820000D03*
G04 #@! TO.P,U14,6*
G04 #@! TO.N,Net-(U14-Pad1)*
X60960000Y-74930000D03*
G04 #@! TO.P,U14,5*
G04 #@! TO.N,N/C*
X60960000Y-77470000D03*
G04 #@! TO.P,U14,4*
X60960000Y-80010000D03*
G04 #@! TO.P,U14,3*
G04 #@! TO.N,ATFa*
X60960000Y-82550000D03*
G04 #@! TO.P,U14,2*
G04 #@! TO.N,N/C*
X60960000Y-85090000D03*
G04 #@! TO.P,U14,1*
G04 #@! TO.N,Net-(U14-Pad1)*
X60960000Y-87630000D03*
G04 #@! TO.P,U14,23*
G04 #@! TO.N,Neg6v*
X47625000Y-104775000D03*
G04 #@! TO.P,U14,22*
G04 #@! TO.N,GND*
X45085000Y-104775000D03*
G04 #@! TO.P,U14,21*
G04 #@! TO.N,6v*
X42545000Y-104775000D03*
G04 #@! TD*
G04 #@! TO.P,U13,13*
G04 #@! TO.N,QTF2*
X73025000Y-78740000D03*
G04 #@! TO.P,U13,12*
G04 #@! TO.N,Net-(U13-Pad1)*
X73025000Y-81280000D03*
G04 #@! TO.P,U13,11*
G04 #@! TO.N,QTF1*
X73025000Y-83820000D03*
G04 #@! TO.P,U13,6*
G04 #@! TO.N,Net-(U13-Pad1)*
X91440000Y-74930000D03*
G04 #@! TO.P,U13,5*
G04 #@! TO.N,N/C*
X91440000Y-77470000D03*
G04 #@! TO.P,U13,4*
X91440000Y-80010000D03*
G04 #@! TO.P,U13,3*
G04 #@! TO.N,QTFa*
X91440000Y-82550000D03*
G04 #@! TO.P,U13,2*
G04 #@! TO.N,N/C*
X91440000Y-85090000D03*
G04 #@! TO.P,U13,1*
G04 #@! TO.N,Net-(U13-Pad1)*
X91440000Y-87630000D03*
G04 #@! TO.P,U13,23*
G04 #@! TO.N,Neg6v*
X78105000Y-104775000D03*
G04 #@! TO.P,U13,22*
G04 #@! TO.N,GND*
X75565000Y-104775000D03*
G04 #@! TO.P,U13,21*
G04 #@! TO.N,6v*
X73025000Y-104775000D03*
G04 #@! TD*
D11*
G04 #@! TO.P,R3,1*
G04 #@! TO.N,RTGa*
X250250000Y-160750000D03*
D12*
G04 #@! TO.P,R3,2*
G04 #@! TO.N,6v*
X250250000Y-168370000D03*
G04 #@! TD*
D11*
G04 #@! TO.P,R4,1*
G04 #@! TO.N,VTGa*
X189000000Y-160750000D03*
D12*
G04 #@! TO.P,R4,2*
G04 #@! TO.N,6v*
X189000000Y-168370000D03*
G04 #@! TD*
D11*
G04 #@! TO.P,R5,1*
G04 #@! TO.N,MTPa*
X127000000Y-97250000D03*
D12*
G04 #@! TO.P,R5,2*
G04 #@! TO.N,6v*
X127000000Y-104870000D03*
G04 #@! TD*
D11*
G04 #@! TO.P,R6,1*
G04 #@! TO.N,PTG1-a*
X218750000Y-160750000D03*
D12*
G04 #@! TO.P,R6,2*
G04 #@! TO.N,6v*
X218750000Y-168370000D03*
G04 #@! TD*
D11*
G04 #@! TO.P,R7,1*
G04 #@! TO.N,PTG2-a*
X187750000Y-97250000D03*
D12*
G04 #@! TO.P,R7,2*
G04 #@! TO.N,6v*
X187750000Y-104870000D03*
G04 #@! TD*
D11*
G04 #@! TO.P,R8,1*
G04 #@! TO.N,JTPCa*
X96500000Y-160500000D03*
D12*
G04 #@! TO.P,R8,2*
G04 #@! TO.N,6v*
X96500000Y-168120000D03*
G04 #@! TD*
D10*
G04 #@! TO.P,U2,13*
G04 #@! TO.N,PTG1-2*
X194945000Y-142240000D03*
G04 #@! TO.P,U2,12*
G04 #@! TO.N,Net-(U2-Pad1)*
X194945000Y-144780000D03*
G04 #@! TO.P,U2,11*
G04 #@! TO.N,PTG1-1*
X194945000Y-147320000D03*
G04 #@! TO.P,U2,6*
G04 #@! TO.N,Net-(U2-Pad1)*
X213360000Y-138430000D03*
G04 #@! TO.P,U2,5*
G04 #@! TO.N,t2-2*
X213360000Y-140970000D03*
G04 #@! TO.P,U2,4*
G04 #@! TO.N,N/C*
X213360000Y-143510000D03*
G04 #@! TO.P,U2,3*
G04 #@! TO.N,PTG1-a*
X213360000Y-146050000D03*
G04 #@! TO.P,U2,2*
G04 #@! TO.N,N/C*
X213360000Y-148590000D03*
G04 #@! TO.P,U2,1*
G04 #@! TO.N,Net-(U2-Pad1)*
X213360000Y-151130000D03*
G04 #@! TO.P,U2,23*
G04 #@! TO.N,Neg6v*
X200025000Y-168275000D03*
G04 #@! TO.P,U2,22*
G04 #@! TO.N,GND*
X197485000Y-168275000D03*
G04 #@! TO.P,U2,21*
G04 #@! TO.N,6v*
X194945000Y-168275000D03*
G04 #@! TD*
G04 #@! TO.P,U3,13*
G04 #@! TO.N,VTG2*
X164465000Y-142240000D03*
G04 #@! TO.P,U3,12*
G04 #@! TO.N,VTG-*
X164465000Y-144780000D03*
G04 #@! TO.P,U3,11*
G04 #@! TO.N,VTG1*
X164465000Y-147320000D03*
G04 #@! TO.P,U3,6*
G04 #@! TO.N,VTG-*
X182880000Y-138430000D03*
G04 #@! TO.P,U3,5*
G04 #@! TO.N,t2-2*
X182880000Y-140970000D03*
G04 #@! TO.P,U3,4*
G04 #@! TO.N,N/C*
X182880000Y-143510000D03*
G04 #@! TO.P,U3,3*
G04 #@! TO.N,VTGa*
X182880000Y-146050000D03*
G04 #@! TO.P,U3,2*
G04 #@! TO.N,N/C*
X182880000Y-148590000D03*
G04 #@! TO.P,U3,1*
G04 #@! TO.N,VTG-*
X182880000Y-151130000D03*
G04 #@! TO.P,U3,23*
G04 #@! TO.N,Neg6v*
X169545000Y-168275000D03*
G04 #@! TO.P,U3,22*
G04 #@! TO.N,GND*
X167005000Y-168275000D03*
G04 #@! TO.P,U3,21*
G04 #@! TO.N,6v*
X164465000Y-168275000D03*
G04 #@! TD*
G04 #@! TO.P,U4,13*
G04 #@! TO.N,JTF2*
X133985000Y-142240000D03*
G04 #@! TO.P,U4,12*
G04 #@! TO.N,Net-(U4-Pad1)*
X133985000Y-144780000D03*
G04 #@! TO.P,U4,11*
G04 #@! TO.N,JTF1*
X133985000Y-147320000D03*
G04 #@! TO.P,U4,6*
G04 #@! TO.N,Net-(U4-Pad1)*
X152400000Y-138430000D03*
G04 #@! TO.P,U4,5*
G04 #@! TO.N,N/C*
X152400000Y-140970000D03*
G04 #@! TO.P,U4,4*
X152400000Y-143510000D03*
G04 #@! TO.P,U4,3*
G04 #@! TO.N,JTFa*
X152400000Y-146050000D03*
G04 #@! TO.P,U4,2*
G04 #@! TO.N,N/C*
X152400000Y-148590000D03*
G04 #@! TO.P,U4,1*
G04 #@! TO.N,Net-(U4-Pad1)*
X152400000Y-151130000D03*
G04 #@! TO.P,U4,23*
G04 #@! TO.N,Neg6v*
X139065000Y-168275000D03*
G04 #@! TO.P,U4,22*
G04 #@! TO.N,GND*
X136525000Y-168275000D03*
G04 #@! TO.P,U4,21*
G04 #@! TO.N,6v*
X133985000Y-168275000D03*
G04 #@! TD*
G04 #@! TO.P,U5,13*
G04 #@! TO.N,M-TF2*
X103505000Y-142240000D03*
G04 #@! TO.P,U5,12*
G04 #@! TO.N,Net-(U5-Pad1)*
X103505000Y-144780000D03*
G04 #@! TO.P,U5,11*
G04 #@! TO.N,M-TF1*
X103505000Y-147320000D03*
G04 #@! TO.P,U5,6*
G04 #@! TO.N,Net-(U5-Pad1)*
X121920000Y-138430000D03*
G04 #@! TO.P,U5,5*
G04 #@! TO.N,N/C*
X121920000Y-140970000D03*
G04 #@! TO.P,U5,4*
X121920000Y-143510000D03*
G04 #@! TO.P,U5,3*
G04 #@! TO.N,M-TFa*
X121920000Y-146050000D03*
G04 #@! TO.P,U5,2*
G04 #@! TO.N,N/C*
X121920000Y-148590000D03*
G04 #@! TO.P,U5,1*
G04 #@! TO.N,Net-(U5-Pad1)*
X121920000Y-151130000D03*
G04 #@! TO.P,U5,23*
G04 #@! TO.N,Neg6v*
X108585000Y-168275000D03*
G04 #@! TO.P,U5,22*
G04 #@! TO.N,GND*
X106045000Y-168275000D03*
G04 #@! TO.P,U5,21*
G04 #@! TO.N,6v*
X103505000Y-168275000D03*
G04 #@! TD*
G04 #@! TO.P,U6,13*
G04 #@! TO.N,JTPC2*
X73025000Y-142240000D03*
G04 #@! TO.P,U6,12*
G04 #@! TO.N,Net-(U6-Pad1)*
X73025000Y-144780000D03*
G04 #@! TO.P,U6,11*
G04 #@! TO.N,JTPC1*
X73025000Y-147320000D03*
G04 #@! TO.P,U6,6*
G04 #@! TO.N,Net-(U6-Pad1)*
X91440000Y-138430000D03*
G04 #@! TO.P,U6,5*
G04 #@! TO.N,t5*
X91440000Y-140970000D03*
G04 #@! TO.P,U6,4*
G04 #@! TO.N,N/C*
X91440000Y-143510000D03*
G04 #@! TO.P,U6,3*
G04 #@! TO.N,JTPCa*
X91440000Y-146050000D03*
G04 #@! TO.P,U6,2*
G04 #@! TO.N,N/C*
X91440000Y-148590000D03*
G04 #@! TO.P,U6,1*
G04 #@! TO.N,Net-(U6-Pad1)*
X91440000Y-151130000D03*
G04 #@! TO.P,U6,23*
G04 #@! TO.N,Neg6v*
X78105000Y-168275000D03*
G04 #@! TO.P,U6,22*
G04 #@! TO.N,GND*
X75565000Y-168275000D03*
G04 #@! TO.P,U6,21*
G04 #@! TO.N,6v*
X73025000Y-168275000D03*
G04 #@! TD*
G04 #@! TO.P,U7,13*
G04 #@! TO.N,JTG16-*
X42545000Y-142240000D03*
G04 #@! TO.P,U7,12*
G04 #@! TO.N,JTG15-*
X42545000Y-144780000D03*
G04 #@! TO.P,U7,11*
G04 #@! TO.N,JTG14-*
X42545000Y-147320000D03*
G04 #@! TO.P,U7,6*
G04 #@! TO.N,J16*
X60960000Y-138430000D03*
G04 #@! TO.P,U7,5*
G04 #@! TO.N,MTI*
X60960000Y-140970000D03*
G04 #@! TO.P,U7,4*
G04 #@! TO.N,J15*
X60960000Y-143510000D03*
G04 #@! TO.P,U7,3*
G04 #@! TO.N,MTI*
X60960000Y-146050000D03*
G04 #@! TO.P,U7,2*
X60960000Y-148590000D03*
G04 #@! TO.P,U7,1*
G04 #@! TO.N,J14*
X60960000Y-151130000D03*
G04 #@! TO.P,U7,23*
G04 #@! TO.N,Neg6v*
X47625000Y-168275000D03*
G04 #@! TO.P,U7,22*
G04 #@! TO.N,GND*
X45085000Y-168275000D03*
G04 #@! TO.P,U7,21*
G04 #@! TO.N,6v*
X42545000Y-168275000D03*
G04 #@! TD*
G04 #@! TO.P,U9,13*
G04 #@! TO.N,LTG2*
X194945000Y-78740000D03*
G04 #@! TO.P,U9,12*
G04 #@! TO.N,Net-(U9-Pad1)*
X194945000Y-81280000D03*
G04 #@! TO.P,U9,11*
G04 #@! TO.N,LTG1*
X194945000Y-83820000D03*
G04 #@! TO.P,U9,6*
G04 #@! TO.N,Net-(U9-Pad1)*
X213360000Y-74930000D03*
G04 #@! TO.P,U9,5*
G04 #@! TO.N,t2-2*
X213360000Y-77470000D03*
G04 #@! TO.P,U9,4*
G04 #@! TO.N,N/C*
X213360000Y-80010000D03*
G04 #@! TO.P,U9,3*
G04 #@! TO.N,LTGa*
X213360000Y-82550000D03*
G04 #@! TO.P,U9,2*
G04 #@! TO.N,N/C*
X213360000Y-85090000D03*
G04 #@! TO.P,U9,1*
G04 #@! TO.N,Net-(U9-Pad1)*
X213360000Y-87630000D03*
G04 #@! TO.P,U9,23*
G04 #@! TO.N,Neg6v*
X200025000Y-104775000D03*
G04 #@! TO.P,U9,22*
G04 #@! TO.N,GND*
X197485000Y-104775000D03*
G04 #@! TO.P,U9,21*
G04 #@! TO.N,6v*
X194945000Y-104775000D03*
G04 #@! TD*
G04 #@! TO.P,U10,13*
G04 #@! TO.N,PTG2-2*
X164465000Y-78740000D03*
G04 #@! TO.P,U10,12*
G04 #@! TO.N,Net-(U10-Pad1)*
X164465000Y-81280000D03*
G04 #@! TO.P,U10,11*
G04 #@! TO.N,PTG2-1*
X164465000Y-83820000D03*
G04 #@! TO.P,U10,6*
G04 #@! TO.N,Net-(U10-Pad1)*
X182880000Y-74930000D03*
G04 #@! TO.P,U10,5*
G04 #@! TO.N,t2-2*
X182880000Y-77470000D03*
G04 #@! TO.P,U10,4*
G04 #@! TO.N,N/C*
X182880000Y-80010000D03*
G04 #@! TO.P,U10,3*
G04 #@! TO.N,PTG2-a*
X182880000Y-82550000D03*
G04 #@! TO.P,U10,2*
G04 #@! TO.N,N/C*
X182880000Y-85090000D03*
G04 #@! TO.P,U10,1*
G04 #@! TO.N,Net-(U10-Pad1)*
X182880000Y-87630000D03*
G04 #@! TO.P,U10,23*
G04 #@! TO.N,Neg6v*
X169545000Y-104775000D03*
G04 #@! TO.P,U10,22*
G04 #@! TO.N,GND*
X167005000Y-104775000D03*
G04 #@! TO.P,U10,21*
G04 #@! TO.N,6v*
X164465000Y-104775000D03*
G04 #@! TD*
D13*
G04 #@! TO.P,C1,2*
G04 #@! TO.N,GND*
X34000000Y-38250000D03*
D14*
G04 #@! TO.P,C1,1*
G04 #@! TO.N,6v*
X34000000Y-40750000D03*
G04 #@! TD*
D13*
G04 #@! TO.P,C2,2*
G04 #@! TO.N,Neg6v*
X139000000Y-37250000D03*
D14*
G04 #@! TO.P,C2,1*
G04 #@! TO.N,GND*
X139000000Y-34750000D03*
G04 #@! TD*
D15*
G04 #@! TO.P,J1,AL*
G04 #@! TO.N,GND*
X39605000Y-33401000D03*
G04 #@! TO.P,J1,32*
X39605000Y-30861000D03*
G04 #@! TO.P,J1,AK*
G04 #@! TO.N,Neg6v*
X42145000Y-33401000D03*
G04 #@! TO.P,J1,31*
X42145000Y-30861000D03*
G04 #@! TO.P,J1,AJ*
G04 #@! TO.N,N/C*
X44685000Y-33401000D03*
G04 #@! TO.P,J1,30*
X44685000Y-30861000D03*
G04 #@! TO.P,J1,AH*
G04 #@! TO.N,JTG15-*
X47225000Y-33401000D03*
G04 #@! TO.P,J1,29*
G04 #@! TO.N,J15*
X47225000Y-30861000D03*
G04 #@! TO.P,J1,AF*
G04 #@! TO.N,t2-2*
X49765000Y-33401000D03*
G04 #@! TO.P,J1,28*
G04 #@! TO.N,ATF2*
X49765000Y-30861000D03*
G04 #@! TO.P,J1,AE*
G04 #@! TO.N,JTG14-*
X52305000Y-33401000D03*
G04 #@! TO.P,J1,27*
G04 #@! TO.N,ATF1*
X52305000Y-30861000D03*
G04 #@! TO.P,J1,AD*
G04 #@! TO.N,t5*
X54845000Y-33401000D03*
G04 #@! TO.P,J1,26*
G04 #@! TO.N,QTF2*
X54845000Y-30861000D03*
G04 #@! TO.P,J1,AC*
G04 #@! TO.N,ATFa*
X57385000Y-33401000D03*
G04 #@! TO.P,J1,25*
G04 #@! TO.N,QTF1*
X57385000Y-30861000D03*
G04 #@! TO.P,J1,AB*
G04 #@! TO.N,QTFa*
X59925000Y-33401000D03*
G04 #@! TO.P,J1,24*
G04 #@! TO.N,JTPC2*
X59925000Y-30861000D03*
G04 #@! TO.P,J1,AA*
G04 #@! TO.N,JTPCa*
X62465000Y-33401000D03*
G04 #@! TO.P,J1,23*
G04 #@! TO.N,JTPC1*
X62465000Y-30861000D03*
G04 #@! TO.P,J1,Z*
G04 #@! TO.N,J14*
X65005000Y-33401000D03*
G04 #@! TO.P,J1,22*
G04 #@! TO.N,MTP2*
X65005000Y-30861000D03*
G04 #@! TO.P,J1,Y*
G04 #@! TO.N,MTPa*
X67545000Y-33401000D03*
G04 #@! TO.P,J1,21*
G04 #@! TO.N,MTP1*
X67545000Y-30861000D03*
G04 #@! TO.P,J1,X*
G04 #@! TO.N,MTI*
X70085000Y-33401000D03*
G04 #@! TO.P,J1,20*
G04 #@! TO.N,M-TF2*
X70085000Y-30861000D03*
G04 #@! TO.P,J1,W*
G04 #@! TO.N,M-TFa*
X72625000Y-33401000D03*
G04 #@! TO.P,J1,19*
G04 #@! TO.N,M-TF1*
X72625000Y-30861000D03*
G04 #@! TO.P,J1,V*
G04 #@! TO.N,J16*
X75165000Y-33401000D03*
G04 #@! TO.P,J1,18*
G04 #@! TO.N,MTF2*
X75165000Y-30861000D03*
G04 #@! TO.P,J1,U*
G04 #@! TO.N,MTFa*
X77705000Y-33401000D03*
G04 #@! TO.P,J1,17*
G04 #@! TO.N,MTF1*
X77705000Y-30861000D03*
G04 #@! TO.P,J1,T*
G04 #@! TO.N,JTG16-*
X80245000Y-33401000D03*
G04 #@! TO.P,J1,16*
G04 #@! TO.N,JTF2*
X80245000Y-30861000D03*
G04 #@! TO.P,J1,S*
G04 #@! TO.N,JTFa*
X82785000Y-33401000D03*
G04 #@! TO.P,J1,15*
G04 #@! TO.N,JTF1*
X82785000Y-30861000D03*
G04 #@! TO.P,J1,R*
G04 #@! TO.N,VTG-*
X85325000Y-33401000D03*
G04 #@! TO.P,J1,14*
G04 #@! TO.N,VTG1*
X85325000Y-30861000D03*
G04 #@! TO.P,J1,P*
G04 #@! TO.N,VTGa*
X87865000Y-33401000D03*
G04 #@! TO.P,J1,13*
G04 #@! TO.N,VTG2*
X87865000Y-30861000D03*
G04 #@! TO.P,J1,N*
G04 #@! TO.N,N/C*
X90405000Y-33401000D03*
G04 #@! TO.P,J1,12*
G04 #@! TO.N,PTG2-2*
X90405000Y-30861000D03*
G04 #@! TO.P,J1,M*
G04 #@! TO.N,PTG2-a*
X92945000Y-33401000D03*
G04 #@! TO.P,J1,11*
G04 #@! TO.N,PTG2-1*
X92945000Y-30861000D03*
G04 #@! TO.P,J1,L*
G04 #@! TO.N,N/C*
X95485000Y-33401000D03*
G04 #@! TO.P,J1,10*
G04 #@! TO.N,PTG1-1*
X95485000Y-30861000D03*
G04 #@! TO.P,J1,K*
G04 #@! TO.N,PTG1-a*
X98025000Y-33401000D03*
G04 #@! TO.P,J1,9*
G04 #@! TO.N,PTG1-2*
X98025000Y-30861000D03*
G04 #@! TO.P,J1,J*
G04 #@! TO.N,N/C*
X100565000Y-33401000D03*
G04 #@! TO.P,J1,8*
G04 #@! TO.N,LTG2*
X100565000Y-30861000D03*
G04 #@! TO.P,J1,H*
G04 #@! TO.N,LTGa*
X103105000Y-33401000D03*
G04 #@! TO.P,J1,7*
G04 #@! TO.N,LTG1*
X103105000Y-30861000D03*
G04 #@! TO.P,J1,F*
G04 #@! TO.N,N/C*
X105645000Y-33401000D03*
G04 #@! TO.P,J1,6*
G04 #@! TO.N,RTG1*
X105645000Y-30861000D03*
G04 #@! TO.P,J1,E*
G04 #@! TO.N,RTGa*
X108185000Y-33401000D03*
G04 #@! TO.P,J1,5*
G04 #@! TO.N,RTG2*
X108185000Y-30861000D03*
G04 #@! TO.P,J1,D*
G04 #@! TO.N,N/C*
X110725000Y-33401000D03*
G04 #@! TO.P,J1,4*
G04 #@! TO.N,FTG1*
X110725000Y-30861000D03*
G04 #@! TO.P,J1,C*
G04 #@! TO.N,FTGa*
X113265000Y-33401000D03*
G04 #@! TO.P,J1,3*
G04 #@! TO.N,FTG2*
X113265000Y-30861000D03*
G04 #@! TO.P,J1,B*
G04 #@! TO.N,6v*
X115805000Y-33401000D03*
G04 #@! TO.P,J1,2*
X115805000Y-30861000D03*
G04 #@! TO.P,J1,A*
G04 #@! TO.N,GND*
X118345000Y-33401000D03*
D16*
G04 #@! TO.P,J1,1*
X118345000Y-30861000D03*
G04 #@! TD*
D11*
G04 #@! TO.P,R1,1*
G04 #@! TO.N,FTGa*
X250000000Y-97250000D03*
D12*
G04 #@! TO.P,R1,2*
G04 #@! TO.N,6v*
X250000000Y-104870000D03*
G04 #@! TD*
G04 #@! TO.P,R2,2*
G04 #@! TO.N,6v*
X219750000Y-104620000D03*
D11*
G04 #@! TO.P,R2,1*
G04 #@! TO.N,LTGa*
X219750000Y-97000000D03*
G04 #@! TD*
D17*
G04 #@! TO.N,t5*
X70472200Y-78313100D03*
G04 #@! TO.N,JTPC2*
X65671600Y-124935300D03*
G04 #@! TO.N,JTPCa*
X65857900Y-120467900D03*
G04 #@! TO.N,M-TF1*
X70859300Y-35020800D03*
G04 #@! TO.N,JTG16-*
X48495000Y-78920500D03*
G04 #@! TO.N,PTG1-2*
X138199800Y-70509700D03*
G04 #@! TD*
D18*
G04 #@! TO.N,6v*
X115805000Y-30861000D02*
X115805000Y-33401000D01*
X133985000Y-104775000D02*
X135899100Y-102860900D01*
X135899100Y-102860900D02*
X135899100Y-53495100D01*
X135899100Y-53495100D02*
X115805000Y-33401000D01*
G04 #@! TO.N,Neg6v*
X169545000Y-104775000D02*
X169545000Y-67795000D01*
X169545000Y-67795000D02*
X139000000Y-37250000D01*
X78105000Y-104775000D02*
X79579400Y-106249400D01*
X79579400Y-106249400D02*
X107110600Y-106249400D01*
X107110600Y-106249400D02*
X108585000Y-104775000D01*
X78105000Y-168275000D02*
X76653400Y-166823400D01*
X76653400Y-166823400D02*
X49076600Y-166823400D01*
X49076600Y-166823400D02*
X47625000Y-168275000D01*
X42145000Y-33401000D02*
X41094300Y-34451700D01*
X41094300Y-34451700D02*
X41094300Y-98244300D01*
X41094300Y-98244300D02*
X47625000Y-104775000D01*
X42145000Y-30861000D02*
X42145000Y-33401000D01*
X200025000Y-104775000D02*
X201499400Y-106249400D01*
X201499400Y-106249400D02*
X229030600Y-106249400D01*
X229030600Y-106249400D02*
X230505000Y-104775000D01*
G04 #@! TO.N,GND*
X118345000Y-33401000D02*
X136625900Y-51681900D01*
X136625900Y-51681900D02*
X136625900Y-104674100D01*
X136625900Y-104674100D02*
X136525000Y-104775000D01*
X118345000Y-30861000D02*
X118345000Y-33401000D01*
X197485000Y-168275000D02*
X198962200Y-169752200D01*
X198962200Y-169752200D02*
X226487800Y-169752200D01*
X226487800Y-169752200D02*
X227965000Y-168275000D01*
X167005000Y-168275000D02*
X168507600Y-169777600D01*
X168507600Y-169777600D02*
X195982400Y-169777600D01*
X195982400Y-169777600D02*
X197485000Y-168275000D01*
X167005000Y-104775000D02*
X168455400Y-106225400D01*
X168455400Y-106225400D02*
X196034600Y-106225400D01*
X196034600Y-106225400D02*
X197485000Y-104775000D01*
X75565000Y-168275000D02*
X77016000Y-169726000D01*
X77016000Y-169726000D02*
X104594000Y-169726000D01*
X104594000Y-169726000D02*
X106045000Y-168275000D01*
X106045000Y-168275000D02*
X107495400Y-169725400D01*
X107495400Y-169725400D02*
X135074600Y-169725400D01*
X135074600Y-169725400D02*
X136525000Y-168275000D01*
X227965000Y-104775000D02*
X226514200Y-103324200D01*
X226514200Y-103324200D02*
X198935800Y-103324200D01*
X198935800Y-103324200D02*
X197485000Y-104775000D01*
X136525000Y-168275000D02*
X137975400Y-169725400D01*
X137975400Y-169725400D02*
X165554600Y-169725400D01*
X165554600Y-169725400D02*
X167005000Y-168275000D01*
X35250400Y-38250000D02*
X35250400Y-94940400D01*
X35250400Y-94940400D02*
X45085000Y-104775000D01*
X39605000Y-33401000D02*
X35250400Y-37755600D01*
X35250400Y-37755600D02*
X35250400Y-38250000D01*
X34000000Y-38250000D02*
X35250400Y-38250000D01*
X39605000Y-33401000D02*
X39605000Y-30861000D01*
X106045000Y-104775000D02*
X104592300Y-103322300D01*
X104592300Y-103322300D02*
X77017700Y-103322300D01*
X77017700Y-103322300D02*
X75565000Y-104775000D01*
D19*
G04 #@! TO.N,MTPa*
X127000000Y-97250000D02*
X127000000Y-87630000D01*
X127000000Y-87630000D02*
X121920000Y-82550000D01*
G04 #@! TO.N,Net-(U2-Pad1)*
X213360000Y-151130000D02*
X214708100Y-149781900D01*
X214708100Y-149781900D02*
X214708100Y-139778100D01*
X214708100Y-139778100D02*
X213360000Y-138430000D01*
G04 #@! TO.N,Net-(U9-Pad1)*
X211994200Y-81280000D02*
X211994200Y-76295800D01*
X211994200Y-76295800D02*
X213360000Y-74930000D01*
X213360000Y-87630000D02*
X211994200Y-86264200D01*
X211994200Y-86264200D02*
X211994200Y-81280000D01*
X211994200Y-81280000D02*
X194945000Y-81280000D01*
G04 #@! TO.N,Net-(U10-Pad1)*
X182880000Y-87630000D02*
X181488200Y-86238200D01*
X181488200Y-86238200D02*
X181488200Y-76321800D01*
X181488200Y-76321800D02*
X182880000Y-74930000D01*
G04 #@! TO.N,Net-(U11-Pad1)*
X152400000Y-87630000D02*
X151074700Y-86304700D01*
X151074700Y-86304700D02*
X151074700Y-76255300D01*
X151074700Y-76255300D02*
X152400000Y-74930000D01*
G04 #@! TO.N,Net-(U12-Pad1)*
X121920000Y-87630000D02*
X120591000Y-86301000D01*
X120591000Y-86301000D02*
X120591000Y-76259000D01*
X120591000Y-76259000D02*
X121920000Y-74930000D01*
G04 #@! TO.N,Net-(U13-Pad1)*
X91440000Y-87383900D02*
X79128900Y-87383900D01*
X79128900Y-87383900D02*
X73025000Y-81280000D01*
X91440000Y-74930000D02*
X92772100Y-76262100D01*
X92772100Y-76262100D02*
X92772100Y-86051800D01*
X92772100Y-86051800D02*
X91440000Y-87383900D01*
X91440000Y-87630000D02*
X91440000Y-87383900D01*
G04 #@! TO.N,J15*
X47225000Y-30861000D02*
X48440500Y-29645500D01*
X48440500Y-29645500D02*
X52761200Y-29645500D01*
X52761200Y-29645500D02*
X53495200Y-30379500D01*
X53495200Y-30379500D02*
X53495200Y-136045200D01*
X53495200Y-136045200D02*
X60960000Y-143510000D01*
G04 #@! TO.N,t2-2*
X213360000Y-77470000D02*
X213415400Y-77414600D01*
X213415400Y-77414600D02*
X242409300Y-77414600D01*
X242409300Y-77414600D02*
X242464700Y-77470000D01*
X242464700Y-77470000D02*
X242464700Y-139594700D01*
X242464700Y-139594700D02*
X243840000Y-140970000D01*
X242464700Y-77470000D02*
X243840000Y-77470000D01*
G04 #@! TO.N,ATF2*
X49765000Y-30861000D02*
X48495000Y-32131000D01*
X48495000Y-32131000D02*
X48495000Y-72790000D01*
X48495000Y-72790000D02*
X42545000Y-78740000D01*
G04 #@! TO.N,JTG14-*
X52305000Y-33401000D02*
X52305000Y-137560000D01*
X52305000Y-137560000D02*
X42545000Y-147320000D01*
G04 #@! TO.N,ATF1*
X52305000Y-30861000D02*
X50944700Y-32221300D01*
X50944700Y-32221300D02*
X50944700Y-75420300D01*
X50944700Y-75420300D02*
X42545000Y-83820000D01*
G04 #@! TO.N,t5*
X70472200Y-78313100D02*
X70472200Y-115611600D01*
X70472200Y-115611600D02*
X88764300Y-133903700D01*
X88764300Y-133903700D02*
X88764300Y-138294300D01*
X88764300Y-138294300D02*
X91440000Y-140970000D01*
G04 #@! TO.N,ATFa*
X60960000Y-82550000D02*
X57385000Y-78975000D01*
X57385000Y-78975000D02*
X57385000Y-33401000D01*
G04 #@! TO.N,JTPC2*
X59925000Y-30861000D02*
X61195000Y-32131000D01*
X61195000Y-32131000D02*
X61195000Y-34152500D01*
X61195000Y-34152500D02*
X64364800Y-37322300D01*
X64364800Y-37322300D02*
X64364800Y-123628500D01*
X64364800Y-123628500D02*
X65671600Y-124935300D01*
G04 #@! TO.N,JTPCa*
X62465000Y-33401000D02*
X65857900Y-36793900D01*
X65857900Y-36793900D02*
X65857900Y-120467900D01*
X96500000Y-160500000D02*
X96500000Y-151110000D01*
X96500000Y-151110000D02*
X91440000Y-146050000D01*
G04 #@! TO.N,JTPC1*
X62465000Y-30861000D02*
X63752900Y-32148900D01*
X63752900Y-32148900D02*
X65487900Y-32148900D01*
X65487900Y-32148900D02*
X66180400Y-32841400D01*
X66180400Y-32841400D02*
X66180400Y-33698600D01*
X66180400Y-33698600D02*
X69184400Y-36702600D01*
X69184400Y-36702600D02*
X69184400Y-143479400D01*
X69184400Y-143479400D02*
X73025000Y-147320000D01*
G04 #@! TO.N,J14*
X65005000Y-33401000D02*
X66583200Y-34979200D01*
X66583200Y-34979200D02*
X66583200Y-145506800D01*
X66583200Y-145506800D02*
X60960000Y-151130000D01*
G04 #@! TO.N,MTP1*
X67545000Y-30861000D02*
X69221200Y-29184800D01*
X69221200Y-29184800D02*
X75184100Y-29184800D01*
X75184100Y-29184800D02*
X76435000Y-30435700D01*
X76435000Y-30435700D02*
X76435000Y-34576300D01*
X76435000Y-34576300D02*
X100925500Y-59066800D01*
X100925500Y-59066800D02*
X100925500Y-81240500D01*
X100925500Y-81240500D02*
X103505000Y-83820000D01*
G04 #@! TO.N,MTI*
X70085000Y-33401000D02*
X69746900Y-33739100D01*
X69746900Y-33739100D02*
X69746900Y-115748500D01*
X69746900Y-115748500D02*
X74350800Y-120352400D01*
X74350800Y-120352400D02*
X74350800Y-147874500D01*
X74350800Y-147874500D02*
X69734000Y-152491300D01*
X69734000Y-152491300D02*
X60443200Y-152491300D01*
X60443200Y-152491300D02*
X59631500Y-151679600D01*
X59631500Y-151679600D02*
X59631500Y-149918500D01*
X59631500Y-149918500D02*
X60960000Y-148590000D01*
X60960000Y-146050000D02*
X60960000Y-148590000D01*
X60960000Y-146050000D02*
X62290100Y-144719900D01*
X62290100Y-144719900D02*
X62290100Y-142300100D01*
X62290100Y-142300100D02*
X60960000Y-140970000D01*
G04 #@! TO.N,M-TF2*
X103505000Y-142240000D02*
X71647800Y-110382800D01*
X71647800Y-110382800D02*
X71647800Y-34783500D01*
X71647800Y-34783500D02*
X71373900Y-34509600D01*
X71373900Y-34509600D02*
X71373900Y-32149900D01*
X71373900Y-32149900D02*
X70085000Y-30861000D01*
G04 #@! TO.N,M-TFa*
X121920000Y-146050000D02*
X110585800Y-134715800D01*
X110585800Y-134715800D02*
X110585800Y-98754700D01*
X110585800Y-98754700D02*
X99265000Y-87433900D01*
X99265000Y-87433900D02*
X99265000Y-60041000D01*
X99265000Y-60041000D02*
X72625000Y-33401000D01*
G04 #@! TO.N,M-TF1*
X103505000Y-147320000D02*
X71197500Y-115012500D01*
X71197500Y-115012500D02*
X71197500Y-35359000D01*
X71197500Y-35359000D02*
X70859300Y-35020800D01*
G04 #@! TO.N,J16*
X75165000Y-33401000D02*
X73895000Y-32131000D01*
X73895000Y-32131000D02*
X73895000Y-30449700D01*
X73895000Y-30449700D02*
X73080500Y-29635200D01*
X73080500Y-29635200D02*
X69648600Y-29635200D01*
X69648600Y-29635200D02*
X68720400Y-30563400D01*
X68720400Y-30563400D02*
X68720400Y-31386600D01*
X68720400Y-31386600D02*
X68010900Y-32096100D01*
X68010900Y-32096100D02*
X67036300Y-32096100D01*
X67036300Y-32096100D02*
X66275000Y-31334800D01*
X66275000Y-31334800D02*
X66275000Y-30466700D01*
X66275000Y-30466700D02*
X65462900Y-29654600D01*
X65462900Y-29654600D02*
X59440000Y-29654600D01*
X59440000Y-29654600D02*
X58732300Y-30362300D01*
X58732300Y-30362300D02*
X58732300Y-68546500D01*
X58732300Y-68546500D02*
X62289300Y-72103500D01*
X62289300Y-72103500D02*
X62289300Y-137100700D01*
X62289300Y-137100700D02*
X60960000Y-138430000D01*
G04 #@! TO.N,MTF1*
X77705000Y-30861000D02*
X78880800Y-29685200D01*
X78880800Y-29685200D02*
X88384500Y-29685200D01*
X88384500Y-29685200D02*
X89135000Y-30435700D01*
X89135000Y-30435700D02*
X89135000Y-33890000D01*
X89135000Y-33890000D02*
X132434500Y-77189500D01*
X132434500Y-77189500D02*
X132434500Y-82269500D01*
X132434500Y-82269500D02*
X133985000Y-83820000D01*
G04 #@! TO.N,JTG16-*
X42545000Y-142240000D02*
X48992300Y-135792700D01*
X48992300Y-135792700D02*
X48992300Y-79417800D01*
X48992300Y-79417800D02*
X48495000Y-78920500D01*
G04 #@! TO.N,JTF2*
X80245000Y-30861000D02*
X79054400Y-32051600D01*
X79054400Y-32051600D02*
X79054400Y-35292600D01*
X79054400Y-35292600D02*
X111448000Y-67686200D01*
X111448000Y-67686200D02*
X111448000Y-119703000D01*
X111448000Y-119703000D02*
X133985000Y-142240000D01*
G04 #@! TO.N,JTFa*
X82785000Y-33401000D02*
X82785000Y-33733900D01*
X82785000Y-33733900D02*
X117708700Y-68657600D01*
X117708700Y-68657600D02*
X117708700Y-111358700D01*
X117708700Y-111358700D02*
X152400000Y-146050000D01*
G04 #@! TO.N,JTF1*
X82785000Y-30861000D02*
X81594700Y-32051300D01*
X81594700Y-32051300D02*
X81594700Y-35292600D01*
X81594700Y-35292600D02*
X111898400Y-65596300D01*
X111898400Y-65596300D02*
X111898400Y-117953200D01*
X111898400Y-117953200D02*
X135382600Y-141437400D01*
X135382600Y-141437400D02*
X135382600Y-145922400D01*
X135382600Y-145922400D02*
X133985000Y-147320000D01*
G04 #@! TO.N,VTG-*
X164465000Y-144780000D02*
X129631400Y-109946400D01*
X129631400Y-109946400D02*
X129631400Y-78568200D01*
X129631400Y-78568200D02*
X85325000Y-34261800D01*
X85325000Y-34261800D02*
X85325000Y-33401000D01*
G04 #@! TO.N,VTG1*
X164465000Y-147320000D02*
X129126500Y-111981500D01*
X129126500Y-111981500D02*
X129126500Y-79438500D01*
X129126500Y-79438500D02*
X84145000Y-34457000D01*
X84145000Y-34457000D02*
X84145000Y-32041000D01*
X84145000Y-32041000D02*
X85325000Y-30861000D01*
G04 #@! TO.N,VTGa*
X182880000Y-146050000D02*
X172741100Y-146050000D01*
X172741100Y-146050000D02*
X131789300Y-105098200D01*
X131789300Y-105098200D02*
X131789300Y-77325300D01*
X131789300Y-77325300D02*
X87865000Y-33401000D01*
X189000000Y-160750000D02*
X189000000Y-152170000D01*
X189000000Y-152170000D02*
X182880000Y-146050000D01*
G04 #@! TO.N,VTG2*
X164465000Y-142240000D02*
X131237600Y-109012600D01*
X131237600Y-109012600D02*
X131237600Y-78900700D01*
X131237600Y-78900700D02*
X86685000Y-34348100D01*
X86685000Y-34348100D02*
X86685000Y-32041000D01*
X86685000Y-32041000D02*
X87865000Y-30861000D01*
G04 #@! TO.N,PTG2-a*
X187750000Y-97250000D02*
X187750000Y-87420000D01*
X187750000Y-87420000D02*
X182880000Y-82550000D01*
G04 #@! TO.N,PTG1-1*
X95485000Y-30861000D02*
X96834900Y-32210900D01*
X96834900Y-32210900D02*
X96834900Y-37528600D01*
X96834900Y-37528600D02*
X135310400Y-76004100D01*
X135310400Y-76004100D02*
X135310400Y-97089200D01*
X135310400Y-97089200D02*
X132634100Y-99765500D01*
X132634100Y-99765500D02*
X132634100Y-105306100D01*
X132634100Y-105306100D02*
X163242800Y-135914800D01*
X163242800Y-135914800D02*
X183539800Y-135914800D01*
X183539800Y-135914800D02*
X194945000Y-147320000D01*
G04 #@! TO.N,PTG1-a*
X98025000Y-33401000D02*
X99226300Y-34602300D01*
X99226300Y-34602300D02*
X111186200Y-34602300D01*
X111186200Y-34602300D02*
X112012900Y-33775600D01*
X112012900Y-33775600D02*
X112012900Y-32961200D01*
X112012900Y-32961200D02*
X112937700Y-32036400D01*
X112937700Y-32036400D02*
X113790600Y-32036400D01*
X113790600Y-32036400D02*
X114535000Y-31292000D01*
X114535000Y-31292000D02*
X114535000Y-30388300D01*
X114535000Y-30388300D02*
X115237700Y-29685600D01*
X115237700Y-29685600D02*
X119391300Y-29685600D01*
X119391300Y-29685600D02*
X140335600Y-50629900D01*
X140335600Y-50629900D02*
X140335600Y-84528200D01*
X140335600Y-84528200D02*
X201857400Y-146050000D01*
X201857400Y-146050000D02*
X213360000Y-146050000D01*
G04 #@! TO.N,PTG1-2*
X138199800Y-70509700D02*
X138199800Y-85494800D01*
X138199800Y-85494800D02*
X194945000Y-142240000D01*
G04 #@! TO.N,LTG2*
X194945000Y-78740000D02*
X142792500Y-26587500D01*
X142792500Y-26587500D02*
X104838500Y-26587500D01*
X104838500Y-26587500D02*
X100565000Y-30861000D01*
G04 #@! TO.N,LTGa*
X219750000Y-97000000D02*
X219750000Y-88940000D01*
X219750000Y-88940000D02*
X213360000Y-82550000D01*
G04 #@! TO.N,LTG1*
X103105000Y-30861000D02*
X106126900Y-27839100D01*
X106126900Y-27839100D02*
X120171900Y-27839100D01*
X120171900Y-27839100D02*
X128208100Y-35875300D01*
X128208100Y-35875300D02*
X147000300Y-35875300D01*
X147000300Y-35875300D02*
X194945000Y-83820000D01*
G04 #@! TO.N,RTG1*
X225425000Y-147320000D02*
X212308600Y-134203600D01*
X212308600Y-134203600D02*
X191382000Y-134203600D01*
X191382000Y-134203600D02*
X142487100Y-85308700D01*
X142487100Y-85308700D02*
X142487100Y-51428100D01*
X142487100Y-51428100D02*
X119808700Y-28749700D01*
X119808700Y-28749700D02*
X111158100Y-28749700D01*
X111158100Y-28749700D02*
X109455000Y-30452800D01*
X109455000Y-30452800D02*
X109455000Y-31260400D01*
X109455000Y-31260400D02*
X108652900Y-32062500D01*
X108652900Y-32062500D02*
X106846500Y-32062500D01*
X106846500Y-32062500D02*
X105645000Y-30861000D01*
G04 #@! TO.N,RTGa*
X242434200Y-148654200D02*
X224848900Y-148654200D01*
X224848900Y-148654200D02*
X221227800Y-145033100D01*
X221227800Y-145033100D02*
X221227800Y-144378700D01*
X221227800Y-144378700D02*
X211923500Y-135074400D01*
X211923500Y-135074400D02*
X191564500Y-135074400D01*
X191564500Y-135074400D02*
X141877600Y-85387500D01*
X141877600Y-85387500D02*
X141877600Y-51535000D01*
X141877600Y-51535000D02*
X119542600Y-29200000D01*
X119542600Y-29200000D02*
X113183300Y-29200000D01*
X113183300Y-29200000D02*
X111995000Y-30388300D01*
X111995000Y-30388300D02*
X111995000Y-31292000D01*
X111995000Y-31292000D02*
X111250600Y-32036400D01*
X111250600Y-32036400D02*
X109549600Y-32036400D01*
X109549600Y-32036400D02*
X108185000Y-33401000D01*
X242434200Y-148654200D02*
X242434200Y-147455800D01*
X242434200Y-147455800D02*
X243840000Y-146050000D01*
X250250000Y-160750000D02*
X242434200Y-152934200D01*
X242434200Y-152934200D02*
X242434200Y-148654200D01*
G04 #@! TO.N,RTG2*
X225425000Y-142240000D02*
X190009800Y-106824800D01*
X190009800Y-106824800D02*
X164640500Y-106824800D01*
X164640500Y-106824800D02*
X161746900Y-103931200D01*
X161746900Y-103931200D02*
X161746900Y-70050900D01*
X161746900Y-70050900D02*
X161746800Y-70050900D01*
X161746800Y-70050900D02*
X119995300Y-28299400D01*
X119995300Y-28299400D02*
X110746600Y-28299400D01*
X110746600Y-28299400D02*
X108185000Y-30861000D01*
G04 #@! TD*
M02*
