G04 #@! TF.GenerationSoftware,KiCad,Pcbnew,(5.0.0)*
G04 #@! TF.CreationDate,2019-11-22T19:44:57+00:00*
G04 #@! TF.ProjectId,A-FP,412D46502E6B696361645F7063620000,rev?*
G04 #@! TF.SameCoordinates,Original*
G04 #@! TF.FileFunction,Legend,Top*
G04 #@! TF.FilePolarity,Positive*
%FSLAX46Y46*%
G04 Gerber Fmt 4.6, Leading zero omitted, Abs format (unit mm)*
G04 Created by KiCad (PCBNEW (5.0.0)) date 11/22/19 19:44:57*
%MOMM*%
%LPD*%
G01*
G04 APERTURE LIST*
%ADD10C,0.300000*%
%ADD11C,0.120000*%
%ADD12C,0.150000*%
G04 APERTURE END LIST*
D10*
X209342857Y-179666666D02*
X214104761Y-179666666D01*
X208390476Y-182523809D02*
X211723809Y-172523809D01*
X215057142Y-182523809D01*
X218390476Y-178714285D02*
X226009523Y-178714285D01*
X234104761Y-177285714D02*
X230771428Y-177285714D01*
X230771428Y-182523809D02*
X230771428Y-172523809D01*
X235533333Y-172523809D01*
X239342857Y-182523809D02*
X239342857Y-172523809D01*
X243152380Y-172523809D01*
X244104761Y-173000000D01*
X244580952Y-173476190D01*
X245057142Y-174428571D01*
X245057142Y-175857142D01*
X244580952Y-176809523D01*
X244104761Y-177285714D01*
X243152380Y-177761904D01*
X239342857Y-177761904D01*
X31378571Y-178892857D02*
X31592857Y-178964285D01*
X31664285Y-179035714D01*
X31735714Y-179178571D01*
X31735714Y-179392857D01*
X31664285Y-179535714D01*
X31592857Y-179607142D01*
X31450000Y-179678571D01*
X30878571Y-179678571D01*
X30878571Y-178178571D01*
X31378571Y-178178571D01*
X31521428Y-178250000D01*
X31592857Y-178321428D01*
X31664285Y-178464285D01*
X31664285Y-178607142D01*
X31592857Y-178750000D01*
X31521428Y-178821428D01*
X31378571Y-178892857D01*
X30878571Y-178892857D01*
X32592857Y-179678571D02*
X32450000Y-179607142D01*
X32378571Y-179535714D01*
X32307142Y-179392857D01*
X32307142Y-178964285D01*
X32378571Y-178821428D01*
X32450000Y-178750000D01*
X32592857Y-178678571D01*
X32807142Y-178678571D01*
X32950000Y-178750000D01*
X33021428Y-178821428D01*
X33092857Y-178964285D01*
X33092857Y-179392857D01*
X33021428Y-179535714D01*
X32950000Y-179607142D01*
X32807142Y-179678571D01*
X32592857Y-179678571D01*
X34378571Y-179678571D02*
X34378571Y-178892857D01*
X34307142Y-178750000D01*
X34164285Y-178678571D01*
X33878571Y-178678571D01*
X33735714Y-178750000D01*
X34378571Y-179607142D02*
X34235714Y-179678571D01*
X33878571Y-179678571D01*
X33735714Y-179607142D01*
X33664285Y-179464285D01*
X33664285Y-179321428D01*
X33735714Y-179178571D01*
X33878571Y-179107142D01*
X34235714Y-179107142D01*
X34378571Y-179035714D01*
X35092857Y-179678571D02*
X35092857Y-178678571D01*
X35092857Y-178964285D02*
X35164285Y-178821428D01*
X35235714Y-178750000D01*
X35378571Y-178678571D01*
X35521428Y-178678571D01*
X36664285Y-179678571D02*
X36664285Y-178178571D01*
X36664285Y-179607142D02*
X36521428Y-179678571D01*
X36235714Y-179678571D01*
X36092857Y-179607142D01*
X36021428Y-179535714D01*
X35950000Y-179392857D01*
X35950000Y-178964285D01*
X36021428Y-178821428D01*
X36092857Y-178750000D01*
X36235714Y-178678571D01*
X36521428Y-178678571D01*
X36664285Y-178750000D01*
X38521428Y-179678571D02*
X38521428Y-178178571D01*
X39092857Y-178178571D01*
X39235714Y-178250000D01*
X39307142Y-178321428D01*
X39378571Y-178464285D01*
X39378571Y-178678571D01*
X39307142Y-178821428D01*
X39235714Y-178892857D01*
X39092857Y-178964285D01*
X38521428Y-178964285D01*
X40235714Y-179678571D02*
X40092857Y-179607142D01*
X40021428Y-179535714D01*
X39950000Y-179392857D01*
X39950000Y-178964285D01*
X40021428Y-178821428D01*
X40092857Y-178750000D01*
X40235714Y-178678571D01*
X40450000Y-178678571D01*
X40592857Y-178750000D01*
X40664285Y-178821428D01*
X40735714Y-178964285D01*
X40735714Y-179392857D01*
X40664285Y-179535714D01*
X40592857Y-179607142D01*
X40450000Y-179678571D01*
X40235714Y-179678571D01*
X41307142Y-179607142D02*
X41450000Y-179678571D01*
X41735714Y-179678571D01*
X41878571Y-179607142D01*
X41950000Y-179464285D01*
X41950000Y-179392857D01*
X41878571Y-179250000D01*
X41735714Y-179178571D01*
X41521428Y-179178571D01*
X41378571Y-179107142D01*
X41307142Y-178964285D01*
X41307142Y-178892857D01*
X41378571Y-178750000D01*
X41521428Y-178678571D01*
X41735714Y-178678571D01*
X41878571Y-178750000D01*
X42592857Y-179678571D02*
X42592857Y-178678571D01*
X42592857Y-178178571D02*
X42521428Y-178250000D01*
X42592857Y-178321428D01*
X42664285Y-178250000D01*
X42592857Y-178178571D01*
X42592857Y-178321428D01*
X43092857Y-178678571D02*
X43664285Y-178678571D01*
X43307142Y-178178571D02*
X43307142Y-179464285D01*
X43378571Y-179607142D01*
X43521428Y-179678571D01*
X43664285Y-179678571D01*
X44164285Y-179678571D02*
X44164285Y-178678571D01*
X44164285Y-178178571D02*
X44092857Y-178250000D01*
X44164285Y-178321428D01*
X44235714Y-178250000D01*
X44164285Y-178178571D01*
X44164285Y-178321428D01*
X45092857Y-179678571D02*
X44950000Y-179607142D01*
X44878571Y-179535714D01*
X44807142Y-179392857D01*
X44807142Y-178964285D01*
X44878571Y-178821428D01*
X44950000Y-178750000D01*
X45092857Y-178678571D01*
X45307142Y-178678571D01*
X45450000Y-178750000D01*
X45521428Y-178821428D01*
X45592857Y-178964285D01*
X45592857Y-179392857D01*
X45521428Y-179535714D01*
X45450000Y-179607142D01*
X45307142Y-179678571D01*
X45092857Y-179678571D01*
X46235714Y-178678571D02*
X46235714Y-179678571D01*
X46235714Y-178821428D02*
X46307142Y-178750000D01*
X46450000Y-178678571D01*
X46664285Y-178678571D01*
X46807142Y-178750000D01*
X46878571Y-178892857D01*
X46878571Y-179678571D01*
X47521428Y-179607142D02*
X47664285Y-179678571D01*
X47950000Y-179678571D01*
X48092857Y-179607142D01*
X48164285Y-179464285D01*
X48164285Y-179392857D01*
X48092857Y-179250000D01*
X47950000Y-179178571D01*
X47735714Y-179178571D01*
X47592857Y-179107142D01*
X47521428Y-178964285D01*
X47521428Y-178892857D01*
X47592857Y-178750000D01*
X47735714Y-178678571D01*
X47950000Y-178678571D01*
X48092857Y-178750000D01*
X49878571Y-178321428D02*
X49950000Y-178250000D01*
X50092857Y-178178571D01*
X50450000Y-178178571D01*
X50592857Y-178250000D01*
X50664285Y-178321428D01*
X50735714Y-178464285D01*
X50735714Y-178607142D01*
X50664285Y-178821428D01*
X49807142Y-179678571D01*
X50735714Y-179678571D01*
X51235714Y-178178571D02*
X52164285Y-178178571D01*
X51664285Y-178750000D01*
X51878571Y-178750000D01*
X52021428Y-178821428D01*
X52092857Y-178892857D01*
X52164285Y-179035714D01*
X52164285Y-179392857D01*
X52092857Y-179535714D01*
X52021428Y-179607142D01*
X51878571Y-179678571D01*
X51450000Y-179678571D01*
X51307142Y-179607142D01*
X51235714Y-179535714D01*
X52878571Y-179607142D02*
X52878571Y-179678571D01*
X52807142Y-179821428D01*
X52735714Y-179892857D01*
X54592857Y-178321428D02*
X54664285Y-178250000D01*
X54807142Y-178178571D01*
X55164285Y-178178571D01*
X55307142Y-178250000D01*
X55378571Y-178321428D01*
X55449999Y-178464285D01*
X55449999Y-178607142D01*
X55378571Y-178821428D01*
X54521428Y-179678571D01*
X55449999Y-179678571D01*
X56735714Y-178678571D02*
X56735714Y-179678571D01*
X56378571Y-178107142D02*
X56021428Y-179178571D01*
X56949999Y-179178571D01*
X57592857Y-179607142D02*
X57592857Y-179678571D01*
X57521428Y-179821428D01*
X57450000Y-179892857D01*
X59307142Y-178321428D02*
X59378571Y-178250000D01*
X59521428Y-178178571D01*
X59878571Y-178178571D01*
X60021428Y-178250000D01*
X60092857Y-178321428D01*
X60164285Y-178464285D01*
X60164285Y-178607142D01*
X60092857Y-178821428D01*
X59235714Y-179678571D01*
X60164285Y-179678571D01*
X61521428Y-178178571D02*
X60807142Y-178178571D01*
X60735714Y-178892857D01*
X60807142Y-178821428D01*
X60949999Y-178750000D01*
X61307142Y-178750000D01*
X61449999Y-178821428D01*
X61521428Y-178892857D01*
X61592857Y-179035714D01*
X61592857Y-179392857D01*
X61521428Y-179535714D01*
X61449999Y-179607142D01*
X61307142Y-179678571D01*
X60949999Y-179678571D01*
X60807142Y-179607142D01*
X60735714Y-179535714D01*
X131614285Y-30478571D02*
X131614285Y-28978571D01*
X132185714Y-28978571D01*
X132328571Y-29050000D01*
X132400000Y-29121428D01*
X132471428Y-29264285D01*
X132471428Y-29478571D01*
X132400000Y-29621428D01*
X132328571Y-29692857D01*
X132185714Y-29764285D01*
X131614285Y-29764285D01*
X133328571Y-30478571D02*
X133185714Y-30407142D01*
X133114285Y-30264285D01*
X133114285Y-28978571D01*
X134542857Y-30478571D02*
X134542857Y-29692857D01*
X134471428Y-29550000D01*
X134328571Y-29478571D01*
X134042857Y-29478571D01*
X133900000Y-29550000D01*
X134542857Y-30407142D02*
X134400000Y-30478571D01*
X134042857Y-30478571D01*
X133900000Y-30407142D01*
X133828571Y-30264285D01*
X133828571Y-30121428D01*
X133900000Y-29978571D01*
X134042857Y-29907142D01*
X134400000Y-29907142D01*
X134542857Y-29835714D01*
X135900000Y-30407142D02*
X135757142Y-30478571D01*
X135471428Y-30478571D01*
X135328571Y-30407142D01*
X135257142Y-30335714D01*
X135185714Y-30192857D01*
X135185714Y-29764285D01*
X135257142Y-29621428D01*
X135328571Y-29550000D01*
X135471428Y-29478571D01*
X135757142Y-29478571D01*
X135900000Y-29550000D01*
X137114285Y-30407142D02*
X136971428Y-30478571D01*
X136685714Y-30478571D01*
X136542857Y-30407142D01*
X136471428Y-30264285D01*
X136471428Y-29692857D01*
X136542857Y-29550000D01*
X136685714Y-29478571D01*
X136971428Y-29478571D01*
X137114285Y-29550000D01*
X137185714Y-29692857D01*
X137185714Y-29835714D01*
X136471428Y-29978571D01*
X139614285Y-30407142D02*
X139471428Y-30478571D01*
X139185714Y-30478571D01*
X139042857Y-30407142D01*
X138971428Y-30335714D01*
X138900000Y-30192857D01*
X138900000Y-29764285D01*
X138971428Y-29621428D01*
X139042857Y-29550000D01*
X139185714Y-29478571D01*
X139471428Y-29478571D01*
X139614285Y-29550000D01*
X140471428Y-30478571D02*
X140328571Y-30407142D01*
X140257142Y-30335714D01*
X140185714Y-30192857D01*
X140185714Y-29764285D01*
X140257142Y-29621428D01*
X140328571Y-29550000D01*
X140471428Y-29478571D01*
X140685714Y-29478571D01*
X140828571Y-29550000D01*
X140900000Y-29621428D01*
X140971428Y-29764285D01*
X140971428Y-30192857D01*
X140900000Y-30335714D01*
X140828571Y-30407142D01*
X140685714Y-30478571D01*
X140471428Y-30478571D01*
X141614285Y-29478571D02*
X141614285Y-30478571D01*
X141614285Y-29621428D02*
X141685714Y-29550000D01*
X141828571Y-29478571D01*
X142042857Y-29478571D01*
X142185714Y-29550000D01*
X142257142Y-29692857D01*
X142257142Y-30478571D01*
X142971428Y-29478571D02*
X142971428Y-30478571D01*
X142971428Y-29621428D02*
X143042857Y-29550000D01*
X143185714Y-29478571D01*
X143400000Y-29478571D01*
X143542857Y-29550000D01*
X143614285Y-29692857D01*
X143614285Y-30478571D01*
X144900000Y-30407142D02*
X144757142Y-30478571D01*
X144471428Y-30478571D01*
X144328571Y-30407142D01*
X144257142Y-30264285D01*
X144257142Y-29692857D01*
X144328571Y-29550000D01*
X144471428Y-29478571D01*
X144757142Y-29478571D01*
X144900000Y-29550000D01*
X144971428Y-29692857D01*
X144971428Y-29835714D01*
X144257142Y-29978571D01*
X146257142Y-30407142D02*
X146114285Y-30478571D01*
X145828571Y-30478571D01*
X145685714Y-30407142D01*
X145614285Y-30335714D01*
X145542857Y-30192857D01*
X145542857Y-29764285D01*
X145614285Y-29621428D01*
X145685714Y-29550000D01*
X145828571Y-29478571D01*
X146114285Y-29478571D01*
X146257142Y-29550000D01*
X146685714Y-29478571D02*
X147257142Y-29478571D01*
X146900000Y-28978571D02*
X146900000Y-30264285D01*
X146971428Y-30407142D01*
X147114285Y-30478571D01*
X147257142Y-30478571D01*
X147971428Y-30478571D02*
X147828571Y-30407142D01*
X147757142Y-30335714D01*
X147685714Y-30192857D01*
X147685714Y-29764285D01*
X147757142Y-29621428D01*
X147828571Y-29550000D01*
X147971428Y-29478571D01*
X148185714Y-29478571D01*
X148328571Y-29550000D01*
X148400000Y-29621428D01*
X148471428Y-29764285D01*
X148471428Y-30192857D01*
X148400000Y-30335714D01*
X148328571Y-30407142D01*
X148185714Y-30478571D01*
X147971428Y-30478571D01*
X149114285Y-30478571D02*
X149114285Y-29478571D01*
X149114285Y-29764285D02*
X149185714Y-29621428D01*
X149257142Y-29550000D01*
X149400000Y-29478571D01*
X149542857Y-29478571D01*
X151400000Y-30478571D02*
X151257142Y-30407142D01*
X151185714Y-30335714D01*
X151114285Y-30192857D01*
X151114285Y-29764285D01*
X151185714Y-29621428D01*
X151257142Y-29550000D01*
X151400000Y-29478571D01*
X151614285Y-29478571D01*
X151757142Y-29550000D01*
X151828571Y-29621428D01*
X151900000Y-29764285D01*
X151900000Y-30192857D01*
X151828571Y-30335714D01*
X151757142Y-30407142D01*
X151614285Y-30478571D01*
X151400000Y-30478571D01*
X152542857Y-29478571D02*
X152542857Y-30478571D01*
X152542857Y-29621428D02*
X152614285Y-29550000D01*
X152757142Y-29478571D01*
X152971428Y-29478571D01*
X153114285Y-29550000D01*
X153185714Y-29692857D01*
X153185714Y-30478571D01*
X155685714Y-29478571D02*
X155685714Y-30478571D01*
X155042857Y-29478571D02*
X155042857Y-30264285D01*
X155114285Y-30407142D01*
X155257142Y-30478571D01*
X155471428Y-30478571D01*
X155614285Y-30407142D01*
X155685714Y-30335714D01*
X156400000Y-29478571D02*
X156400000Y-30478571D01*
X156400000Y-29621428D02*
X156471428Y-29550000D01*
X156614285Y-29478571D01*
X156828571Y-29478571D01*
X156971428Y-29550000D01*
X157042857Y-29692857D01*
X157042857Y-30478571D01*
X158400000Y-30478571D02*
X158400000Y-28978571D01*
X158400000Y-30407142D02*
X158257142Y-30478571D01*
X157971428Y-30478571D01*
X157828571Y-30407142D01*
X157757142Y-30335714D01*
X157685714Y-30192857D01*
X157685714Y-29764285D01*
X157757142Y-29621428D01*
X157828571Y-29550000D01*
X157971428Y-29478571D01*
X158257142Y-29478571D01*
X158400000Y-29550000D01*
X159685714Y-30407142D02*
X159542857Y-30478571D01*
X159257142Y-30478571D01*
X159114285Y-30407142D01*
X159042857Y-30264285D01*
X159042857Y-29692857D01*
X159114285Y-29550000D01*
X159257142Y-29478571D01*
X159542857Y-29478571D01*
X159685714Y-29550000D01*
X159757142Y-29692857D01*
X159757142Y-29835714D01*
X159042857Y-29978571D01*
X160400000Y-30478571D02*
X160400000Y-29478571D01*
X160400000Y-29764285D02*
X160471428Y-29621428D01*
X160542857Y-29550000D01*
X160685714Y-29478571D01*
X160828571Y-29478571D01*
X161257142Y-30407142D02*
X161400000Y-30478571D01*
X161685714Y-30478571D01*
X161828571Y-30407142D01*
X161900000Y-30264285D01*
X161900000Y-30192857D01*
X161828571Y-30050000D01*
X161685714Y-29978571D01*
X161471428Y-29978571D01*
X161328571Y-29907142D01*
X161257142Y-29764285D01*
X161257142Y-29692857D01*
X161328571Y-29550000D01*
X161471428Y-29478571D01*
X161685714Y-29478571D01*
X161828571Y-29550000D01*
X162542857Y-30478571D02*
X162542857Y-29478571D01*
X162542857Y-28978571D02*
X162471428Y-29050000D01*
X162542857Y-29121428D01*
X162614285Y-29050000D01*
X162542857Y-28978571D01*
X162542857Y-29121428D01*
X163900000Y-30478571D02*
X163900000Y-28978571D01*
X163900000Y-30407142D02*
X163757142Y-30478571D01*
X163471428Y-30478571D01*
X163328571Y-30407142D01*
X163257142Y-30335714D01*
X163185714Y-30192857D01*
X163185714Y-29764285D01*
X163257142Y-29621428D01*
X163328571Y-29550000D01*
X163471428Y-29478571D01*
X163757142Y-29478571D01*
X163900000Y-29550000D01*
X165185714Y-30407142D02*
X165042857Y-30478571D01*
X164757142Y-30478571D01*
X164614285Y-30407142D01*
X164542857Y-30264285D01*
X164542857Y-29692857D01*
X164614285Y-29550000D01*
X164757142Y-29478571D01*
X165042857Y-29478571D01*
X165185714Y-29550000D01*
X165257142Y-29692857D01*
X165257142Y-29835714D01*
X164542857Y-29978571D01*
D11*
G04 #@! TO.C,C1*
X233970000Y-33020000D02*
G75*
G03X233970000Y-33020000I-4120000J0D01*
G01*
X229850000Y-28940000D02*
X229850000Y-37100000D01*
X229890000Y-28940000D02*
X229890000Y-37100000D01*
X229930000Y-28940000D02*
X229930000Y-37100000D01*
X229970000Y-28941000D02*
X229970000Y-37099000D01*
X230010000Y-28943000D02*
X230010000Y-37097000D01*
X230050000Y-28944000D02*
X230050000Y-37096000D01*
X230090000Y-28946000D02*
X230090000Y-31980000D01*
X230090000Y-34060000D02*
X230090000Y-37094000D01*
X230130000Y-28949000D02*
X230130000Y-31980000D01*
X230130000Y-34060000D02*
X230130000Y-37091000D01*
X230170000Y-28952000D02*
X230170000Y-31980000D01*
X230170000Y-34060000D02*
X230170000Y-37088000D01*
X230210000Y-28955000D02*
X230210000Y-31980000D01*
X230210000Y-34060000D02*
X230210000Y-37085000D01*
X230250000Y-28959000D02*
X230250000Y-31980000D01*
X230250000Y-34060000D02*
X230250000Y-37081000D01*
X230290000Y-28963000D02*
X230290000Y-31980000D01*
X230290000Y-34060000D02*
X230290000Y-37077000D01*
X230330000Y-28968000D02*
X230330000Y-31980000D01*
X230330000Y-34060000D02*
X230330000Y-37072000D01*
X230370000Y-28972000D02*
X230370000Y-31980000D01*
X230370000Y-34060000D02*
X230370000Y-37068000D01*
X230410000Y-28978000D02*
X230410000Y-31980000D01*
X230410000Y-34060000D02*
X230410000Y-37062000D01*
X230450000Y-28983000D02*
X230450000Y-31980000D01*
X230450000Y-34060000D02*
X230450000Y-37057000D01*
X230490000Y-28990000D02*
X230490000Y-31980000D01*
X230490000Y-34060000D02*
X230490000Y-37050000D01*
X230530000Y-28996000D02*
X230530000Y-31980000D01*
X230530000Y-34060000D02*
X230530000Y-37044000D01*
X230571000Y-29003000D02*
X230571000Y-31980000D01*
X230571000Y-34060000D02*
X230571000Y-37037000D01*
X230611000Y-29010000D02*
X230611000Y-31980000D01*
X230611000Y-34060000D02*
X230611000Y-37030000D01*
X230651000Y-29018000D02*
X230651000Y-31980000D01*
X230651000Y-34060000D02*
X230651000Y-37022000D01*
X230691000Y-29026000D02*
X230691000Y-31980000D01*
X230691000Y-34060000D02*
X230691000Y-37014000D01*
X230731000Y-29035000D02*
X230731000Y-31980000D01*
X230731000Y-34060000D02*
X230731000Y-37005000D01*
X230771000Y-29044000D02*
X230771000Y-31980000D01*
X230771000Y-34060000D02*
X230771000Y-36996000D01*
X230811000Y-29053000D02*
X230811000Y-31980000D01*
X230811000Y-34060000D02*
X230811000Y-36987000D01*
X230851000Y-29063000D02*
X230851000Y-31980000D01*
X230851000Y-34060000D02*
X230851000Y-36977000D01*
X230891000Y-29073000D02*
X230891000Y-31980000D01*
X230891000Y-34060000D02*
X230891000Y-36967000D01*
X230931000Y-29084000D02*
X230931000Y-31980000D01*
X230931000Y-34060000D02*
X230931000Y-36956000D01*
X230971000Y-29095000D02*
X230971000Y-31980000D01*
X230971000Y-34060000D02*
X230971000Y-36945000D01*
X231011000Y-29106000D02*
X231011000Y-31980000D01*
X231011000Y-34060000D02*
X231011000Y-36934000D01*
X231051000Y-29118000D02*
X231051000Y-31980000D01*
X231051000Y-34060000D02*
X231051000Y-36922000D01*
X231091000Y-29131000D02*
X231091000Y-31980000D01*
X231091000Y-34060000D02*
X231091000Y-36909000D01*
X231131000Y-29143000D02*
X231131000Y-31980000D01*
X231131000Y-34060000D02*
X231131000Y-36897000D01*
X231171000Y-29157000D02*
X231171000Y-31980000D01*
X231171000Y-34060000D02*
X231171000Y-36883000D01*
X231211000Y-29170000D02*
X231211000Y-31980000D01*
X231211000Y-34060000D02*
X231211000Y-36870000D01*
X231251000Y-29185000D02*
X231251000Y-31980000D01*
X231251000Y-34060000D02*
X231251000Y-36855000D01*
X231291000Y-29199000D02*
X231291000Y-31980000D01*
X231291000Y-34060000D02*
X231291000Y-36841000D01*
X231331000Y-29215000D02*
X231331000Y-31980000D01*
X231331000Y-34060000D02*
X231331000Y-36825000D01*
X231371000Y-29230000D02*
X231371000Y-31980000D01*
X231371000Y-34060000D02*
X231371000Y-36810000D01*
X231411000Y-29246000D02*
X231411000Y-31980000D01*
X231411000Y-34060000D02*
X231411000Y-36794000D01*
X231451000Y-29263000D02*
X231451000Y-31980000D01*
X231451000Y-34060000D02*
X231451000Y-36777000D01*
X231491000Y-29280000D02*
X231491000Y-31980000D01*
X231491000Y-34060000D02*
X231491000Y-36760000D01*
X231531000Y-29298000D02*
X231531000Y-31980000D01*
X231531000Y-34060000D02*
X231531000Y-36742000D01*
X231571000Y-29316000D02*
X231571000Y-31980000D01*
X231571000Y-34060000D02*
X231571000Y-36724000D01*
X231611000Y-29334000D02*
X231611000Y-31980000D01*
X231611000Y-34060000D02*
X231611000Y-36706000D01*
X231651000Y-29354000D02*
X231651000Y-31980000D01*
X231651000Y-34060000D02*
X231651000Y-36686000D01*
X231691000Y-29373000D02*
X231691000Y-31980000D01*
X231691000Y-34060000D02*
X231691000Y-36667000D01*
X231731000Y-29393000D02*
X231731000Y-31980000D01*
X231731000Y-34060000D02*
X231731000Y-36647000D01*
X231771000Y-29414000D02*
X231771000Y-31980000D01*
X231771000Y-34060000D02*
X231771000Y-36626000D01*
X231811000Y-29436000D02*
X231811000Y-31980000D01*
X231811000Y-34060000D02*
X231811000Y-36604000D01*
X231851000Y-29458000D02*
X231851000Y-31980000D01*
X231851000Y-34060000D02*
X231851000Y-36582000D01*
X231891000Y-29480000D02*
X231891000Y-31980000D01*
X231891000Y-34060000D02*
X231891000Y-36560000D01*
X231931000Y-29503000D02*
X231931000Y-31980000D01*
X231931000Y-34060000D02*
X231931000Y-36537000D01*
X231971000Y-29527000D02*
X231971000Y-31980000D01*
X231971000Y-34060000D02*
X231971000Y-36513000D01*
X232011000Y-29551000D02*
X232011000Y-31980000D01*
X232011000Y-34060000D02*
X232011000Y-36489000D01*
X232051000Y-29576000D02*
X232051000Y-31980000D01*
X232051000Y-34060000D02*
X232051000Y-36464000D01*
X232091000Y-29602000D02*
X232091000Y-31980000D01*
X232091000Y-34060000D02*
X232091000Y-36438000D01*
X232131000Y-29628000D02*
X232131000Y-31980000D01*
X232131000Y-34060000D02*
X232131000Y-36412000D01*
X232171000Y-29655000D02*
X232171000Y-36385000D01*
X232211000Y-29682000D02*
X232211000Y-36358000D01*
X232251000Y-29711000D02*
X232251000Y-36329000D01*
X232291000Y-29740000D02*
X232291000Y-36300000D01*
X232331000Y-29770000D02*
X232331000Y-36270000D01*
X232371000Y-29800000D02*
X232371000Y-36240000D01*
X232411000Y-29831000D02*
X232411000Y-36209000D01*
X232451000Y-29864000D02*
X232451000Y-36176000D01*
X232491000Y-29896000D02*
X232491000Y-36144000D01*
X232531000Y-29930000D02*
X232531000Y-36110000D01*
X232571000Y-29965000D02*
X232571000Y-36075000D01*
X232611000Y-30001000D02*
X232611000Y-36039000D01*
X232651000Y-30037000D02*
X232651000Y-36003000D01*
X232691000Y-30075000D02*
X232691000Y-35965000D01*
X232731000Y-30113000D02*
X232731000Y-35927000D01*
X232771000Y-30153000D02*
X232771000Y-35887000D01*
X232811000Y-30194000D02*
X232811000Y-35846000D01*
X232851000Y-30236000D02*
X232851000Y-35804000D01*
X232891000Y-30279000D02*
X232891000Y-35761000D01*
X232931000Y-30323000D02*
X232931000Y-35717000D01*
X232971000Y-30369000D02*
X232971000Y-35671000D01*
X233011000Y-30416000D02*
X233011000Y-35624000D01*
X233051000Y-30464000D02*
X233051000Y-35576000D01*
X233091000Y-30515000D02*
X233091000Y-35525000D01*
X233131000Y-30566000D02*
X233131000Y-35474000D01*
X233171000Y-30620000D02*
X233171000Y-35420000D01*
X233211000Y-30675000D02*
X233211000Y-35365000D01*
X233251000Y-30733000D02*
X233251000Y-35307000D01*
X233291000Y-30792000D02*
X233291000Y-35248000D01*
X233331000Y-30854000D02*
X233331000Y-35186000D01*
X233371000Y-30918000D02*
X233371000Y-35122000D01*
X233411000Y-30986000D02*
X233411000Y-35054000D01*
X233451000Y-31056000D02*
X233451000Y-34984000D01*
X233491000Y-31130000D02*
X233491000Y-34910000D01*
X233531000Y-31207000D02*
X233531000Y-34833000D01*
X233571000Y-31289000D02*
X233571000Y-34751000D01*
X233611000Y-31375000D02*
X233611000Y-34665000D01*
X233651000Y-31468000D02*
X233651000Y-34572000D01*
X233691000Y-31567000D02*
X233691000Y-34473000D01*
X233731000Y-31674000D02*
X233731000Y-34366000D01*
X233771000Y-31791000D02*
X233771000Y-34249000D01*
X233811000Y-31922000D02*
X233811000Y-34118000D01*
X233851000Y-32072000D02*
X233851000Y-33968000D01*
X233891000Y-32252000D02*
X233891000Y-33788000D01*
X233931000Y-32487000D02*
X233931000Y-33553000D01*
X225440302Y-30705000D02*
X226240302Y-30705000D01*
X225840302Y-30305000D02*
X225840302Y-31105000D01*
G04 #@! TO.C,C2*
X238540302Y-30305000D02*
X238540302Y-31105000D01*
X238140302Y-30705000D02*
X238940302Y-30705000D01*
X246631000Y-32487000D02*
X246631000Y-33553000D01*
X246591000Y-32252000D02*
X246591000Y-33788000D01*
X246551000Y-32072000D02*
X246551000Y-33968000D01*
X246511000Y-31922000D02*
X246511000Y-34118000D01*
X246471000Y-31791000D02*
X246471000Y-34249000D01*
X246431000Y-31674000D02*
X246431000Y-34366000D01*
X246391000Y-31567000D02*
X246391000Y-34473000D01*
X246351000Y-31468000D02*
X246351000Y-34572000D01*
X246311000Y-31375000D02*
X246311000Y-34665000D01*
X246271000Y-31289000D02*
X246271000Y-34751000D01*
X246231000Y-31207000D02*
X246231000Y-34833000D01*
X246191000Y-31130000D02*
X246191000Y-34910000D01*
X246151000Y-31056000D02*
X246151000Y-34984000D01*
X246111000Y-30986000D02*
X246111000Y-35054000D01*
X246071000Y-30918000D02*
X246071000Y-35122000D01*
X246031000Y-30854000D02*
X246031000Y-35186000D01*
X245991000Y-30792000D02*
X245991000Y-35248000D01*
X245951000Y-30733000D02*
X245951000Y-35307000D01*
X245911000Y-30675000D02*
X245911000Y-35365000D01*
X245871000Y-30620000D02*
X245871000Y-35420000D01*
X245831000Y-30566000D02*
X245831000Y-35474000D01*
X245791000Y-30515000D02*
X245791000Y-35525000D01*
X245751000Y-30464000D02*
X245751000Y-35576000D01*
X245711000Y-30416000D02*
X245711000Y-35624000D01*
X245671000Y-30369000D02*
X245671000Y-35671000D01*
X245631000Y-30323000D02*
X245631000Y-35717000D01*
X245591000Y-30279000D02*
X245591000Y-35761000D01*
X245551000Y-30236000D02*
X245551000Y-35804000D01*
X245511000Y-30194000D02*
X245511000Y-35846000D01*
X245471000Y-30153000D02*
X245471000Y-35887000D01*
X245431000Y-30113000D02*
X245431000Y-35927000D01*
X245391000Y-30075000D02*
X245391000Y-35965000D01*
X245351000Y-30037000D02*
X245351000Y-36003000D01*
X245311000Y-30001000D02*
X245311000Y-36039000D01*
X245271000Y-29965000D02*
X245271000Y-36075000D01*
X245231000Y-29930000D02*
X245231000Y-36110000D01*
X245191000Y-29896000D02*
X245191000Y-36144000D01*
X245151000Y-29864000D02*
X245151000Y-36176000D01*
X245111000Y-29831000D02*
X245111000Y-36209000D01*
X245071000Y-29800000D02*
X245071000Y-36240000D01*
X245031000Y-29770000D02*
X245031000Y-36270000D01*
X244991000Y-29740000D02*
X244991000Y-36300000D01*
X244951000Y-29711000D02*
X244951000Y-36329000D01*
X244911000Y-29682000D02*
X244911000Y-36358000D01*
X244871000Y-29655000D02*
X244871000Y-36385000D01*
X244831000Y-34060000D02*
X244831000Y-36412000D01*
X244831000Y-29628000D02*
X244831000Y-31980000D01*
X244791000Y-34060000D02*
X244791000Y-36438000D01*
X244791000Y-29602000D02*
X244791000Y-31980000D01*
X244751000Y-34060000D02*
X244751000Y-36464000D01*
X244751000Y-29576000D02*
X244751000Y-31980000D01*
X244711000Y-34060000D02*
X244711000Y-36489000D01*
X244711000Y-29551000D02*
X244711000Y-31980000D01*
X244671000Y-34060000D02*
X244671000Y-36513000D01*
X244671000Y-29527000D02*
X244671000Y-31980000D01*
X244631000Y-34060000D02*
X244631000Y-36537000D01*
X244631000Y-29503000D02*
X244631000Y-31980000D01*
X244591000Y-34060000D02*
X244591000Y-36560000D01*
X244591000Y-29480000D02*
X244591000Y-31980000D01*
X244551000Y-34060000D02*
X244551000Y-36582000D01*
X244551000Y-29458000D02*
X244551000Y-31980000D01*
X244511000Y-34060000D02*
X244511000Y-36604000D01*
X244511000Y-29436000D02*
X244511000Y-31980000D01*
X244471000Y-34060000D02*
X244471000Y-36626000D01*
X244471000Y-29414000D02*
X244471000Y-31980000D01*
X244431000Y-34060000D02*
X244431000Y-36647000D01*
X244431000Y-29393000D02*
X244431000Y-31980000D01*
X244391000Y-34060000D02*
X244391000Y-36667000D01*
X244391000Y-29373000D02*
X244391000Y-31980000D01*
X244351000Y-34060000D02*
X244351000Y-36686000D01*
X244351000Y-29354000D02*
X244351000Y-31980000D01*
X244311000Y-34060000D02*
X244311000Y-36706000D01*
X244311000Y-29334000D02*
X244311000Y-31980000D01*
X244271000Y-34060000D02*
X244271000Y-36724000D01*
X244271000Y-29316000D02*
X244271000Y-31980000D01*
X244231000Y-34060000D02*
X244231000Y-36742000D01*
X244231000Y-29298000D02*
X244231000Y-31980000D01*
X244191000Y-34060000D02*
X244191000Y-36760000D01*
X244191000Y-29280000D02*
X244191000Y-31980000D01*
X244151000Y-34060000D02*
X244151000Y-36777000D01*
X244151000Y-29263000D02*
X244151000Y-31980000D01*
X244111000Y-34060000D02*
X244111000Y-36794000D01*
X244111000Y-29246000D02*
X244111000Y-31980000D01*
X244071000Y-34060000D02*
X244071000Y-36810000D01*
X244071000Y-29230000D02*
X244071000Y-31980000D01*
X244031000Y-34060000D02*
X244031000Y-36825000D01*
X244031000Y-29215000D02*
X244031000Y-31980000D01*
X243991000Y-34060000D02*
X243991000Y-36841000D01*
X243991000Y-29199000D02*
X243991000Y-31980000D01*
X243951000Y-34060000D02*
X243951000Y-36855000D01*
X243951000Y-29185000D02*
X243951000Y-31980000D01*
X243911000Y-34060000D02*
X243911000Y-36870000D01*
X243911000Y-29170000D02*
X243911000Y-31980000D01*
X243871000Y-34060000D02*
X243871000Y-36883000D01*
X243871000Y-29157000D02*
X243871000Y-31980000D01*
X243831000Y-34060000D02*
X243831000Y-36897000D01*
X243831000Y-29143000D02*
X243831000Y-31980000D01*
X243791000Y-34060000D02*
X243791000Y-36909000D01*
X243791000Y-29131000D02*
X243791000Y-31980000D01*
X243751000Y-34060000D02*
X243751000Y-36922000D01*
X243751000Y-29118000D02*
X243751000Y-31980000D01*
X243711000Y-34060000D02*
X243711000Y-36934000D01*
X243711000Y-29106000D02*
X243711000Y-31980000D01*
X243671000Y-34060000D02*
X243671000Y-36945000D01*
X243671000Y-29095000D02*
X243671000Y-31980000D01*
X243631000Y-34060000D02*
X243631000Y-36956000D01*
X243631000Y-29084000D02*
X243631000Y-31980000D01*
X243591000Y-34060000D02*
X243591000Y-36967000D01*
X243591000Y-29073000D02*
X243591000Y-31980000D01*
X243551000Y-34060000D02*
X243551000Y-36977000D01*
X243551000Y-29063000D02*
X243551000Y-31980000D01*
X243511000Y-34060000D02*
X243511000Y-36987000D01*
X243511000Y-29053000D02*
X243511000Y-31980000D01*
X243471000Y-34060000D02*
X243471000Y-36996000D01*
X243471000Y-29044000D02*
X243471000Y-31980000D01*
X243431000Y-34060000D02*
X243431000Y-37005000D01*
X243431000Y-29035000D02*
X243431000Y-31980000D01*
X243391000Y-34060000D02*
X243391000Y-37014000D01*
X243391000Y-29026000D02*
X243391000Y-31980000D01*
X243351000Y-34060000D02*
X243351000Y-37022000D01*
X243351000Y-29018000D02*
X243351000Y-31980000D01*
X243311000Y-34060000D02*
X243311000Y-37030000D01*
X243311000Y-29010000D02*
X243311000Y-31980000D01*
X243271000Y-34060000D02*
X243271000Y-37037000D01*
X243271000Y-29003000D02*
X243271000Y-31980000D01*
X243230000Y-34060000D02*
X243230000Y-37044000D01*
X243230000Y-28996000D02*
X243230000Y-31980000D01*
X243190000Y-34060000D02*
X243190000Y-37050000D01*
X243190000Y-28990000D02*
X243190000Y-31980000D01*
X243150000Y-34060000D02*
X243150000Y-37057000D01*
X243150000Y-28983000D02*
X243150000Y-31980000D01*
X243110000Y-34060000D02*
X243110000Y-37062000D01*
X243110000Y-28978000D02*
X243110000Y-31980000D01*
X243070000Y-34060000D02*
X243070000Y-37068000D01*
X243070000Y-28972000D02*
X243070000Y-31980000D01*
X243030000Y-34060000D02*
X243030000Y-37072000D01*
X243030000Y-28968000D02*
X243030000Y-31980000D01*
X242990000Y-34060000D02*
X242990000Y-37077000D01*
X242990000Y-28963000D02*
X242990000Y-31980000D01*
X242950000Y-34060000D02*
X242950000Y-37081000D01*
X242950000Y-28959000D02*
X242950000Y-31980000D01*
X242910000Y-34060000D02*
X242910000Y-37085000D01*
X242910000Y-28955000D02*
X242910000Y-31980000D01*
X242870000Y-34060000D02*
X242870000Y-37088000D01*
X242870000Y-28952000D02*
X242870000Y-31980000D01*
X242830000Y-34060000D02*
X242830000Y-37091000D01*
X242830000Y-28949000D02*
X242830000Y-31980000D01*
X242790000Y-34060000D02*
X242790000Y-37094000D01*
X242790000Y-28946000D02*
X242790000Y-31980000D01*
X242750000Y-28944000D02*
X242750000Y-37096000D01*
X242710000Y-28943000D02*
X242710000Y-37097000D01*
X242670000Y-28941000D02*
X242670000Y-37099000D01*
X242630000Y-28940000D02*
X242630000Y-37100000D01*
X242590000Y-28940000D02*
X242590000Y-37100000D01*
X242550000Y-28940000D02*
X242550000Y-37100000D01*
X246670000Y-33020000D02*
G75*
G03X246670000Y-33020000I-4120000J0D01*
G01*
D12*
G04 #@! TO.C,U1*
X223520000Y-170180000D02*
X223520000Y-119380000D01*
X223520000Y-119380000D02*
X245745000Y-119380000D01*
X245745000Y-119380000D02*
X245745000Y-170180000D01*
X245745000Y-170180000D02*
X223520000Y-170180000D01*
G04 #@! TO.C,U3*
X184785000Y-170180000D02*
X162560000Y-170180000D01*
X184785000Y-119380000D02*
X184785000Y-170180000D01*
X162560000Y-119380000D02*
X184785000Y-119380000D01*
X162560000Y-170180000D02*
X162560000Y-119380000D01*
G04 #@! TO.C,U5*
X123825000Y-170180000D02*
X101600000Y-170180000D01*
X123825000Y-119380000D02*
X123825000Y-170180000D01*
X101600000Y-119380000D02*
X123825000Y-119380000D01*
X101600000Y-170180000D02*
X101600000Y-119380000D01*
G04 #@! TO.C,U7*
X62865000Y-170180000D02*
X40640000Y-170180000D01*
X62865000Y-119380000D02*
X62865000Y-170180000D01*
X40640000Y-119380000D02*
X62865000Y-119380000D01*
X40640000Y-170180000D02*
X40640000Y-119380000D01*
G04 #@! TO.C,U8*
X223520000Y-106680000D02*
X223520000Y-55880000D01*
X223520000Y-55880000D02*
X245745000Y-55880000D01*
X245745000Y-55880000D02*
X245745000Y-106680000D01*
X245745000Y-106680000D02*
X223520000Y-106680000D01*
G04 #@! TO.C,U10*
X184785000Y-106680000D02*
X162560000Y-106680000D01*
X184785000Y-55880000D02*
X184785000Y-106680000D01*
X162560000Y-55880000D02*
X184785000Y-55880000D01*
X162560000Y-106680000D02*
X162560000Y-55880000D01*
G04 #@! TO.C,U12*
X101600000Y-106680000D02*
X101600000Y-55880000D01*
X101600000Y-55880000D02*
X123825000Y-55880000D01*
X123825000Y-55880000D02*
X123825000Y-106680000D01*
X123825000Y-106680000D02*
X101600000Y-106680000D01*
G04 #@! TO.C,U14*
X40640000Y-106680000D02*
X40640000Y-55880000D01*
X40640000Y-55880000D02*
X62865000Y-55880000D01*
X62865000Y-55880000D02*
X62865000Y-106680000D01*
X62865000Y-106680000D02*
X40640000Y-106680000D01*
D11*
G04 #@! TO.C,R1*
X160120000Y-72890000D02*
X158280000Y-72890000D01*
X158280000Y-72890000D02*
X158280000Y-76730000D01*
X158280000Y-76730000D02*
X160120000Y-76730000D01*
X160120000Y-76730000D02*
X160120000Y-72890000D01*
X159200000Y-71940000D02*
X159200000Y-72890000D01*
X159200000Y-77680000D02*
X159200000Y-76730000D01*
G04 #@! TO.C,R2*
X219800000Y-141280000D02*
X219800000Y-140330000D01*
X219800000Y-135540000D02*
X219800000Y-136490000D01*
X220720000Y-140330000D02*
X220720000Y-136490000D01*
X218880000Y-140330000D02*
X220720000Y-140330000D01*
X218880000Y-136490000D02*
X218880000Y-140330000D01*
X220720000Y-136490000D02*
X218880000Y-136490000D01*
G04 #@! TO.C,R3*
X35000000Y-80280000D02*
X35000000Y-79330000D01*
X35000000Y-74540000D02*
X35000000Y-75490000D01*
X35920000Y-79330000D02*
X35920000Y-75490000D01*
X34080000Y-79330000D02*
X35920000Y-79330000D01*
X34080000Y-75490000D02*
X34080000Y-79330000D01*
X35920000Y-75490000D02*
X34080000Y-75490000D01*
G04 #@! TO.C,R4*
X98520000Y-136490000D02*
X96680000Y-136490000D01*
X96680000Y-136490000D02*
X96680000Y-140330000D01*
X96680000Y-140330000D02*
X98520000Y-140330000D01*
X98520000Y-140330000D02*
X98520000Y-136490000D01*
X97600000Y-135540000D02*
X97600000Y-136490000D01*
X97600000Y-141280000D02*
X97600000Y-140330000D01*
D12*
G04 #@! TO.C,U2*
X215265000Y-170180000D02*
X193040000Y-170180000D01*
X215265000Y-119380000D02*
X215265000Y-170180000D01*
X193040000Y-119380000D02*
X215265000Y-119380000D01*
X193040000Y-170180000D02*
X193040000Y-119380000D01*
G04 #@! TO.C,U6*
X93345000Y-170180000D02*
X71120000Y-170180000D01*
X93345000Y-119380000D02*
X93345000Y-170180000D01*
X71120000Y-119380000D02*
X93345000Y-119380000D01*
X71120000Y-170180000D02*
X71120000Y-119380000D01*
G04 #@! TO.C,U9*
X193040000Y-106680000D02*
X193040000Y-55880000D01*
X193040000Y-55880000D02*
X215265000Y-55880000D01*
X215265000Y-55880000D02*
X215265000Y-106680000D01*
X215265000Y-106680000D02*
X193040000Y-106680000D01*
G04 #@! TO.C,U11*
X132080000Y-106680000D02*
X132080000Y-55880000D01*
X132080000Y-55880000D02*
X154305000Y-55880000D01*
X154305000Y-55880000D02*
X154305000Y-106680000D01*
X154305000Y-106680000D02*
X132080000Y-106680000D01*
G04 #@! TO.C,U13*
X71120000Y-106680000D02*
X71120000Y-55880000D01*
X71120000Y-55880000D02*
X93345000Y-55880000D01*
X93345000Y-55880000D02*
X93345000Y-106680000D01*
X93345000Y-106680000D02*
X71120000Y-106680000D01*
G04 #@! TO.C,U4*
X132080000Y-170180000D02*
X132080000Y-119380000D01*
X132080000Y-119380000D02*
X154305000Y-119380000D01*
X154305000Y-119380000D02*
X154305000Y-170180000D01*
X154305000Y-170180000D02*
X132080000Y-170180000D01*
G04 #@! TO.C,C1*
X229683333Y-28127142D02*
X229635714Y-28174761D01*
X229492857Y-28222380D01*
X229397619Y-28222380D01*
X229254761Y-28174761D01*
X229159523Y-28079523D01*
X229111904Y-27984285D01*
X229064285Y-27793809D01*
X229064285Y-27650952D01*
X229111904Y-27460476D01*
X229159523Y-27365238D01*
X229254761Y-27270000D01*
X229397619Y-27222380D01*
X229492857Y-27222380D01*
X229635714Y-27270000D01*
X229683333Y-27317619D01*
X230635714Y-28222380D02*
X230064285Y-28222380D01*
X230350000Y-28222380D02*
X230350000Y-27222380D01*
X230254761Y-27365238D01*
X230159523Y-27460476D01*
X230064285Y-27508095D01*
G04 #@! TO.C,C2*
X242383333Y-28127142D02*
X242335714Y-28174761D01*
X242192857Y-28222380D01*
X242097619Y-28222380D01*
X241954761Y-28174761D01*
X241859523Y-28079523D01*
X241811904Y-27984285D01*
X241764285Y-27793809D01*
X241764285Y-27650952D01*
X241811904Y-27460476D01*
X241859523Y-27365238D01*
X241954761Y-27270000D01*
X242097619Y-27222380D01*
X242192857Y-27222380D01*
X242335714Y-27270000D01*
X242383333Y-27317619D01*
X242764285Y-27317619D02*
X242811904Y-27270000D01*
X242907142Y-27222380D01*
X243145238Y-27222380D01*
X243240476Y-27270000D01*
X243288095Y-27317619D01*
X243335714Y-27412857D01*
X243335714Y-27508095D01*
X243288095Y-27650952D01*
X242716666Y-28222380D01*
X243335714Y-28222380D01*
G04 #@! TO.C,U1*
X228552380Y-165861904D02*
X229361904Y-165861904D01*
X229457142Y-165814285D01*
X229504761Y-165766666D01*
X229552380Y-165671428D01*
X229552380Y-165480952D01*
X229504761Y-165385714D01*
X229457142Y-165338095D01*
X229361904Y-165290476D01*
X228552380Y-165290476D01*
X229552380Y-164290476D02*
X229552380Y-164861904D01*
X229552380Y-164576190D02*
X228552380Y-164576190D01*
X228695238Y-164671428D01*
X228790476Y-164766666D01*
X228838095Y-164861904D01*
G04 #@! TO.C,U3*
X167592380Y-165861904D02*
X168401904Y-165861904D01*
X168497142Y-165814285D01*
X168544761Y-165766666D01*
X168592380Y-165671428D01*
X168592380Y-165480952D01*
X168544761Y-165385714D01*
X168497142Y-165338095D01*
X168401904Y-165290476D01*
X167592380Y-165290476D01*
X167592380Y-164909523D02*
X167592380Y-164290476D01*
X167973333Y-164623809D01*
X167973333Y-164480952D01*
X168020952Y-164385714D01*
X168068571Y-164338095D01*
X168163809Y-164290476D01*
X168401904Y-164290476D01*
X168497142Y-164338095D01*
X168544761Y-164385714D01*
X168592380Y-164480952D01*
X168592380Y-164766666D01*
X168544761Y-164861904D01*
X168497142Y-164909523D01*
X181957142Y-163357142D02*
X181957142Y-164785714D01*
X178957142Y-164785714D01*
X181814285Y-162500000D02*
X181957142Y-162071428D01*
X181957142Y-161357142D01*
X181814285Y-161071428D01*
X181671428Y-160928571D01*
X181385714Y-160785714D01*
X181100000Y-160785714D01*
X180814285Y-160928571D01*
X180671428Y-161071428D01*
X180528571Y-161357142D01*
X180385714Y-161928571D01*
X180242857Y-162214285D01*
X180100000Y-162357142D01*
X179814285Y-162500000D01*
X179528571Y-162500000D01*
X179242857Y-162357142D01*
X179100000Y-162214285D01*
X178957142Y-161928571D01*
X178957142Y-161214285D01*
X179100000Y-160785714D01*
X178957142Y-158928571D02*
X178957142Y-158642857D01*
X179100000Y-158357142D01*
X179242857Y-158214285D01*
X179528571Y-158071428D01*
X180100000Y-157928571D01*
X180814285Y-157928571D01*
X181385714Y-158071428D01*
X181671428Y-158214285D01*
X181814285Y-158357142D01*
X181957142Y-158642857D01*
X181957142Y-158928571D01*
X181814285Y-159214285D01*
X181671428Y-159357142D01*
X181385714Y-159500000D01*
X180814285Y-159642857D01*
X180100000Y-159642857D01*
X179528571Y-159500000D01*
X179242857Y-159357142D01*
X179100000Y-159214285D01*
X178957142Y-158928571D01*
X181957142Y-155071428D02*
X181957142Y-156785714D01*
X181957142Y-155928571D02*
X178957142Y-155928571D01*
X179385714Y-156214285D01*
X179671428Y-156500000D01*
X179814285Y-156785714D01*
G04 #@! TO.C,U5*
X106632380Y-165861904D02*
X107441904Y-165861904D01*
X107537142Y-165814285D01*
X107584761Y-165766666D01*
X107632380Y-165671428D01*
X107632380Y-165480952D01*
X107584761Y-165385714D01*
X107537142Y-165338095D01*
X107441904Y-165290476D01*
X106632380Y-165290476D01*
X106632380Y-164338095D02*
X106632380Y-164814285D01*
X107108571Y-164861904D01*
X107060952Y-164814285D01*
X107013333Y-164719047D01*
X107013333Y-164480952D01*
X107060952Y-164385714D01*
X107108571Y-164338095D01*
X107203809Y-164290476D01*
X107441904Y-164290476D01*
X107537142Y-164338095D01*
X107584761Y-164385714D01*
X107632380Y-164480952D01*
X107632380Y-164719047D01*
X107584761Y-164814285D01*
X107537142Y-164861904D01*
X121357142Y-163157142D02*
X121357142Y-164585714D01*
X118357142Y-164585714D01*
X121214285Y-162300000D02*
X121357142Y-161871428D01*
X121357142Y-161157142D01*
X121214285Y-160871428D01*
X121071428Y-160728571D01*
X120785714Y-160585714D01*
X120500000Y-160585714D01*
X120214285Y-160728571D01*
X120071428Y-160871428D01*
X119928571Y-161157142D01*
X119785714Y-161728571D01*
X119642857Y-162014285D01*
X119500000Y-162157142D01*
X119214285Y-162300000D01*
X118928571Y-162300000D01*
X118642857Y-162157142D01*
X118500000Y-162014285D01*
X118357142Y-161728571D01*
X118357142Y-161014285D01*
X118500000Y-160585714D01*
X118357142Y-158728571D02*
X118357142Y-158442857D01*
X118500000Y-158157142D01*
X118642857Y-158014285D01*
X118928571Y-157871428D01*
X119500000Y-157728571D01*
X120214285Y-157728571D01*
X120785714Y-157871428D01*
X121071428Y-158014285D01*
X121214285Y-158157142D01*
X121357142Y-158442857D01*
X121357142Y-158728571D01*
X121214285Y-159014285D01*
X121071428Y-159157142D01*
X120785714Y-159300000D01*
X120214285Y-159442857D01*
X119500000Y-159442857D01*
X118928571Y-159300000D01*
X118642857Y-159157142D01*
X118500000Y-159014285D01*
X118357142Y-158728571D01*
X121357142Y-154871428D02*
X121357142Y-156585714D01*
X121357142Y-155728571D02*
X118357142Y-155728571D01*
X118785714Y-156014285D01*
X119071428Y-156300000D01*
X119214285Y-156585714D01*
G04 #@! TO.C,U7*
X45672380Y-165861904D02*
X46481904Y-165861904D01*
X46577142Y-165814285D01*
X46624761Y-165766666D01*
X46672380Y-165671428D01*
X46672380Y-165480952D01*
X46624761Y-165385714D01*
X46577142Y-165338095D01*
X46481904Y-165290476D01*
X45672380Y-165290476D01*
X45672380Y-164909523D02*
X45672380Y-164242857D01*
X46672380Y-164671428D01*
G04 #@! TO.C,U8*
X228552380Y-102361904D02*
X229361904Y-102361904D01*
X229457142Y-102314285D01*
X229504761Y-102266666D01*
X229552380Y-102171428D01*
X229552380Y-101980952D01*
X229504761Y-101885714D01*
X229457142Y-101838095D01*
X229361904Y-101790476D01*
X228552380Y-101790476D01*
X228980952Y-101171428D02*
X228933333Y-101266666D01*
X228885714Y-101314285D01*
X228790476Y-101361904D01*
X228742857Y-101361904D01*
X228647619Y-101314285D01*
X228600000Y-101266666D01*
X228552380Y-101171428D01*
X228552380Y-100980952D01*
X228600000Y-100885714D01*
X228647619Y-100838095D01*
X228742857Y-100790476D01*
X228790476Y-100790476D01*
X228885714Y-100838095D01*
X228933333Y-100885714D01*
X228980952Y-100980952D01*
X228980952Y-101171428D01*
X229028571Y-101266666D01*
X229076190Y-101314285D01*
X229171428Y-101361904D01*
X229361904Y-101361904D01*
X229457142Y-101314285D01*
X229504761Y-101266666D01*
X229552380Y-101171428D01*
X229552380Y-100980952D01*
X229504761Y-100885714D01*
X229457142Y-100838095D01*
X229361904Y-100790476D01*
X229171428Y-100790476D01*
X229076190Y-100838095D01*
X229028571Y-100885714D01*
X228980952Y-100980952D01*
G04 #@! TO.C,U10*
X167592380Y-102838095D02*
X168401904Y-102838095D01*
X168497142Y-102790476D01*
X168544761Y-102742857D01*
X168592380Y-102647619D01*
X168592380Y-102457142D01*
X168544761Y-102361904D01*
X168497142Y-102314285D01*
X168401904Y-102266666D01*
X167592380Y-102266666D01*
X168592380Y-101266666D02*
X168592380Y-101838095D01*
X168592380Y-101552380D02*
X167592380Y-101552380D01*
X167735238Y-101647619D01*
X167830476Y-101742857D01*
X167878095Y-101838095D01*
X167592380Y-100647619D02*
X167592380Y-100552380D01*
X167640000Y-100457142D01*
X167687619Y-100409523D01*
X167782857Y-100361904D01*
X167973333Y-100314285D01*
X168211428Y-100314285D01*
X168401904Y-100361904D01*
X168497142Y-100409523D01*
X168544761Y-100457142D01*
X168592380Y-100552380D01*
X168592380Y-100647619D01*
X168544761Y-100742857D01*
X168497142Y-100790476D01*
X168401904Y-100838095D01*
X168211428Y-100885714D01*
X167973333Y-100885714D01*
X167782857Y-100838095D01*
X167687619Y-100790476D01*
X167640000Y-100742857D01*
X167592380Y-100647619D01*
G04 #@! TO.C,U12*
X106632380Y-102838095D02*
X107441904Y-102838095D01*
X107537142Y-102790476D01*
X107584761Y-102742857D01*
X107632380Y-102647619D01*
X107632380Y-102457142D01*
X107584761Y-102361904D01*
X107537142Y-102314285D01*
X107441904Y-102266666D01*
X106632380Y-102266666D01*
X107632380Y-101266666D02*
X107632380Y-101838095D01*
X107632380Y-101552380D02*
X106632380Y-101552380D01*
X106775238Y-101647619D01*
X106870476Y-101742857D01*
X106918095Y-101838095D01*
X106727619Y-100885714D02*
X106680000Y-100838095D01*
X106632380Y-100742857D01*
X106632380Y-100504761D01*
X106680000Y-100409523D01*
X106727619Y-100361904D01*
X106822857Y-100314285D01*
X106918095Y-100314285D01*
X107060952Y-100361904D01*
X107632380Y-100933333D01*
X107632380Y-100314285D01*
G04 #@! TO.C,U14*
X45672380Y-102838095D02*
X46481904Y-102838095D01*
X46577142Y-102790476D01*
X46624761Y-102742857D01*
X46672380Y-102647619D01*
X46672380Y-102457142D01*
X46624761Y-102361904D01*
X46577142Y-102314285D01*
X46481904Y-102266666D01*
X45672380Y-102266666D01*
X46672380Y-101266666D02*
X46672380Y-101838095D01*
X46672380Y-101552380D02*
X45672380Y-101552380D01*
X45815238Y-101647619D01*
X45910476Y-101742857D01*
X45958095Y-101838095D01*
X46005714Y-100409523D02*
X46672380Y-100409523D01*
X45624761Y-100647619D02*
X46339047Y-100885714D01*
X46339047Y-100266666D01*
G04 #@! TO.C,R1*
X161572380Y-74976666D02*
X161096190Y-75310000D01*
X161572380Y-75548095D02*
X160572380Y-75548095D01*
X160572380Y-75167142D01*
X160620000Y-75071904D01*
X160667619Y-75024285D01*
X160762857Y-74976666D01*
X160905714Y-74976666D01*
X161000952Y-75024285D01*
X161048571Y-75071904D01*
X161096190Y-75167142D01*
X161096190Y-75548095D01*
X161572380Y-74024285D02*
X161572380Y-74595714D01*
X161572380Y-74310000D02*
X160572380Y-74310000D01*
X160715238Y-74405238D01*
X160810476Y-74500476D01*
X160858095Y-74595714D01*
G04 #@! TO.C,R2*
X222172380Y-138576666D02*
X221696190Y-138910000D01*
X222172380Y-139148095D02*
X221172380Y-139148095D01*
X221172380Y-138767142D01*
X221220000Y-138671904D01*
X221267619Y-138624285D01*
X221362857Y-138576666D01*
X221505714Y-138576666D01*
X221600952Y-138624285D01*
X221648571Y-138671904D01*
X221696190Y-138767142D01*
X221696190Y-139148095D01*
X221267619Y-138195714D02*
X221220000Y-138148095D01*
X221172380Y-138052857D01*
X221172380Y-137814761D01*
X221220000Y-137719523D01*
X221267619Y-137671904D01*
X221362857Y-137624285D01*
X221458095Y-137624285D01*
X221600952Y-137671904D01*
X222172380Y-138243333D01*
X222172380Y-137624285D01*
G04 #@! TO.C,R3*
X37372380Y-77576666D02*
X36896190Y-77910000D01*
X37372380Y-78148095D02*
X36372380Y-78148095D01*
X36372380Y-77767142D01*
X36420000Y-77671904D01*
X36467619Y-77624285D01*
X36562857Y-77576666D01*
X36705714Y-77576666D01*
X36800952Y-77624285D01*
X36848571Y-77671904D01*
X36896190Y-77767142D01*
X36896190Y-78148095D01*
X36372380Y-77243333D02*
X36372380Y-76624285D01*
X36753333Y-76957619D01*
X36753333Y-76814761D01*
X36800952Y-76719523D01*
X36848571Y-76671904D01*
X36943809Y-76624285D01*
X37181904Y-76624285D01*
X37277142Y-76671904D01*
X37324761Y-76719523D01*
X37372380Y-76814761D01*
X37372380Y-77100476D01*
X37324761Y-77195714D01*
X37277142Y-77243333D01*
G04 #@! TO.C,R4*
X99972380Y-138576666D02*
X99496190Y-138910000D01*
X99972380Y-139148095D02*
X98972380Y-139148095D01*
X98972380Y-138767142D01*
X99020000Y-138671904D01*
X99067619Y-138624285D01*
X99162857Y-138576666D01*
X99305714Y-138576666D01*
X99400952Y-138624285D01*
X99448571Y-138671904D01*
X99496190Y-138767142D01*
X99496190Y-139148095D01*
X99305714Y-137719523D02*
X99972380Y-137719523D01*
X98924761Y-137957619D02*
X99639047Y-138195714D01*
X99639047Y-137576666D01*
X95132380Y-139624285D02*
X95132380Y-139005238D01*
X95513333Y-139338571D01*
X95513333Y-139195714D01*
X95560952Y-139100476D01*
X95608571Y-139052857D01*
X95703809Y-139005238D01*
X95941904Y-139005238D01*
X96037142Y-139052857D01*
X96084761Y-139100476D01*
X96132380Y-139195714D01*
X96132380Y-139481428D01*
X96084761Y-139576666D01*
X96037142Y-139624285D01*
X96132380Y-138576666D02*
X95132380Y-138576666D01*
X95751428Y-138481428D02*
X96132380Y-138195714D01*
X95465714Y-138195714D02*
X95846666Y-138576666D01*
X96132380Y-137719523D02*
X96132380Y-137529047D01*
X96084761Y-137433809D01*
X96037142Y-137386190D01*
X95894285Y-137290952D01*
X95703809Y-137243333D01*
X95322857Y-137243333D01*
X95227619Y-137290952D01*
X95180000Y-137338571D01*
X95132380Y-137433809D01*
X95132380Y-137624285D01*
X95180000Y-137719523D01*
X95227619Y-137767142D01*
X95322857Y-137814761D01*
X95560952Y-137814761D01*
X95656190Y-137767142D01*
X95703809Y-137719523D01*
X95751428Y-137624285D01*
X95751428Y-137433809D01*
X95703809Y-137338571D01*
X95656190Y-137290952D01*
X95560952Y-137243333D01*
G04 #@! TO.C,U2*
X198072380Y-165861904D02*
X198881904Y-165861904D01*
X198977142Y-165814285D01*
X199024761Y-165766666D01*
X199072380Y-165671428D01*
X199072380Y-165480952D01*
X199024761Y-165385714D01*
X198977142Y-165338095D01*
X198881904Y-165290476D01*
X198072380Y-165290476D01*
X198167619Y-164861904D02*
X198120000Y-164814285D01*
X198072380Y-164719047D01*
X198072380Y-164480952D01*
X198120000Y-164385714D01*
X198167619Y-164338095D01*
X198262857Y-164290476D01*
X198358095Y-164290476D01*
X198500952Y-164338095D01*
X199072380Y-164909523D01*
X199072380Y-164290476D01*
G04 #@! TO.C,U6*
X76152380Y-165861904D02*
X76961904Y-165861904D01*
X77057142Y-165814285D01*
X77104761Y-165766666D01*
X77152380Y-165671428D01*
X77152380Y-165480952D01*
X77104761Y-165385714D01*
X77057142Y-165338095D01*
X76961904Y-165290476D01*
X76152380Y-165290476D01*
X76152380Y-164385714D02*
X76152380Y-164576190D01*
X76200000Y-164671428D01*
X76247619Y-164719047D01*
X76390476Y-164814285D01*
X76580952Y-164861904D01*
X76961904Y-164861904D01*
X77057142Y-164814285D01*
X77104761Y-164766666D01*
X77152380Y-164671428D01*
X77152380Y-164480952D01*
X77104761Y-164385714D01*
X77057142Y-164338095D01*
X76961904Y-164290476D01*
X76723809Y-164290476D01*
X76628571Y-164338095D01*
X76580952Y-164385714D01*
X76533333Y-164480952D01*
X76533333Y-164671428D01*
X76580952Y-164766666D01*
X76628571Y-164814285D01*
X76723809Y-164861904D01*
G04 #@! TO.C,U9*
X198072380Y-102361904D02*
X198881904Y-102361904D01*
X198977142Y-102314285D01*
X199024761Y-102266666D01*
X199072380Y-102171428D01*
X199072380Y-101980952D01*
X199024761Y-101885714D01*
X198977142Y-101838095D01*
X198881904Y-101790476D01*
X198072380Y-101790476D01*
X199072380Y-101266666D02*
X199072380Y-101076190D01*
X199024761Y-100980952D01*
X198977142Y-100933333D01*
X198834285Y-100838095D01*
X198643809Y-100790476D01*
X198262857Y-100790476D01*
X198167619Y-100838095D01*
X198120000Y-100885714D01*
X198072380Y-100980952D01*
X198072380Y-101171428D01*
X198120000Y-101266666D01*
X198167619Y-101314285D01*
X198262857Y-101361904D01*
X198500952Y-101361904D01*
X198596190Y-101314285D01*
X198643809Y-101266666D01*
X198691428Y-101171428D01*
X198691428Y-100980952D01*
X198643809Y-100885714D01*
X198596190Y-100838095D01*
X198500952Y-100790476D01*
G04 #@! TO.C,U11*
X137112380Y-102838095D02*
X137921904Y-102838095D01*
X138017142Y-102790476D01*
X138064761Y-102742857D01*
X138112380Y-102647619D01*
X138112380Y-102457142D01*
X138064761Y-102361904D01*
X138017142Y-102314285D01*
X137921904Y-102266666D01*
X137112380Y-102266666D01*
X138112380Y-101266666D02*
X138112380Y-101838095D01*
X138112380Y-101552380D02*
X137112380Y-101552380D01*
X137255238Y-101647619D01*
X137350476Y-101742857D01*
X137398095Y-101838095D01*
X138112380Y-100314285D02*
X138112380Y-100885714D01*
X138112380Y-100600000D02*
X137112380Y-100600000D01*
X137255238Y-100695238D01*
X137350476Y-100790476D01*
X137398095Y-100885714D01*
G04 #@! TO.C,U13*
X76152380Y-102838095D02*
X76961904Y-102838095D01*
X77057142Y-102790476D01*
X77104761Y-102742857D01*
X77152380Y-102647619D01*
X77152380Y-102457142D01*
X77104761Y-102361904D01*
X77057142Y-102314285D01*
X76961904Y-102266666D01*
X76152380Y-102266666D01*
X77152380Y-101266666D02*
X77152380Y-101838095D01*
X77152380Y-101552380D02*
X76152380Y-101552380D01*
X76295238Y-101647619D01*
X76390476Y-101742857D01*
X76438095Y-101838095D01*
X76152380Y-100933333D02*
X76152380Y-100314285D01*
X76533333Y-100647619D01*
X76533333Y-100504761D01*
X76580952Y-100409523D01*
X76628571Y-100361904D01*
X76723809Y-100314285D01*
X76961904Y-100314285D01*
X77057142Y-100361904D01*
X77104761Y-100409523D01*
X77152380Y-100504761D01*
X77152380Y-100790476D01*
X77104761Y-100885714D01*
X77057142Y-100933333D01*
G04 #@! TO.C,U4*
X137112380Y-165861904D02*
X137921904Y-165861904D01*
X138017142Y-165814285D01*
X138064761Y-165766666D01*
X138112380Y-165671428D01*
X138112380Y-165480952D01*
X138064761Y-165385714D01*
X138017142Y-165338095D01*
X137921904Y-165290476D01*
X137112380Y-165290476D01*
X137445714Y-164385714D02*
X138112380Y-164385714D01*
X137064761Y-164623809D02*
X137779047Y-164861904D01*
X137779047Y-164242857D01*
X151217142Y-163377142D02*
X151217142Y-164805714D01*
X148217142Y-164805714D01*
X151074285Y-162520000D02*
X151217142Y-162091428D01*
X151217142Y-161377142D01*
X151074285Y-161091428D01*
X150931428Y-160948571D01*
X150645714Y-160805714D01*
X150360000Y-160805714D01*
X150074285Y-160948571D01*
X149931428Y-161091428D01*
X149788571Y-161377142D01*
X149645714Y-161948571D01*
X149502857Y-162234285D01*
X149360000Y-162377142D01*
X149074285Y-162520000D01*
X148788571Y-162520000D01*
X148502857Y-162377142D01*
X148360000Y-162234285D01*
X148217142Y-161948571D01*
X148217142Y-161234285D01*
X148360000Y-160805714D01*
X148217142Y-158948571D02*
X148217142Y-158662857D01*
X148360000Y-158377142D01*
X148502857Y-158234285D01*
X148788571Y-158091428D01*
X149360000Y-157948571D01*
X150074285Y-157948571D01*
X150645714Y-158091428D01*
X150931428Y-158234285D01*
X151074285Y-158377142D01*
X151217142Y-158662857D01*
X151217142Y-158948571D01*
X151074285Y-159234285D01*
X150931428Y-159377142D01*
X150645714Y-159520000D01*
X150074285Y-159662857D01*
X149360000Y-159662857D01*
X148788571Y-159520000D01*
X148502857Y-159377142D01*
X148360000Y-159234285D01*
X148217142Y-158948571D01*
X149502857Y-156234285D02*
X149360000Y-156520000D01*
X149217142Y-156662857D01*
X148931428Y-156805714D01*
X148788571Y-156805714D01*
X148502857Y-156662857D01*
X148360000Y-156520000D01*
X148217142Y-156234285D01*
X148217142Y-155662857D01*
X148360000Y-155377142D01*
X148502857Y-155234285D01*
X148788571Y-155091428D01*
X148931428Y-155091428D01*
X149217142Y-155234285D01*
X149360000Y-155377142D01*
X149502857Y-155662857D01*
X149502857Y-156234285D01*
X149645714Y-156520000D01*
X149788571Y-156662857D01*
X150074285Y-156805714D01*
X150645714Y-156805714D01*
X150931428Y-156662857D01*
X151074285Y-156520000D01*
X151217142Y-156234285D01*
X151217142Y-155662857D01*
X151074285Y-155377142D01*
X150931428Y-155234285D01*
X150645714Y-155091428D01*
X150074285Y-155091428D01*
X149788571Y-155234285D01*
X149645714Y-155377142D01*
X149502857Y-155662857D01*
G04 #@! TD*
M02*
