G04 #@! TF.GenerationSoftware,KiCad,Pcbnew,(5.0.0)*
G04 #@! TF.CreationDate,2019-11-22T19:44:57+00:00*
G04 #@! TF.ProjectId,A-FP,412D46502E6B696361645F7063620000,rev?*
G04 #@! TF.SameCoordinates,Original*
G04 #@! TF.FileFunction,Soldermask,Top*
G04 #@! TF.FilePolarity,Negative*
%FSLAX46Y46*%
G04 Gerber Fmt 4.6, Leading zero omitted, Abs format (unit mm)*
G04 Created by KiCad (PCBNEW (5.0.0)) date 11/22/19 19:44:57*
%MOMM*%
%LPD*%
G01*
G04 APERTURE LIST*
%ADD10R,1.600000X1.600000*%
%ADD11C,1.600000*%
%ADD12R,1.700000X1.700000*%
%ADD13C,1.700000*%
%ADD14C,2.800000*%
%ADD15C,1.524000*%
%ADD16C,1.400000*%
%ADD17O,1.400000X1.400000*%
%ADD18C,2.000000*%
G04 APERTURE END LIST*
D10*
G04 #@! TO.C,C1*
X228600000Y-33020000D03*
D11*
X231100000Y-33020000D03*
G04 #@! TD*
G04 #@! TO.C,C2*
X243800000Y-33020000D03*
D10*
X241300000Y-33020000D03*
G04 #@! TD*
D12*
G04 #@! TO.C,J1*
X118345000Y-30861000D03*
D13*
X118345000Y-33401000D03*
X115805000Y-30861000D03*
X115805000Y-33401000D03*
X113265000Y-30861000D03*
X113265000Y-33401000D03*
X110725000Y-30861000D03*
X110725000Y-33401000D03*
X108185000Y-30861000D03*
X108185000Y-33401000D03*
X105645000Y-30861000D03*
X105645000Y-33401000D03*
X103105000Y-30861000D03*
X103105000Y-33401000D03*
X100565000Y-30861000D03*
X100565000Y-33401000D03*
X98025000Y-30861000D03*
X98025000Y-33401000D03*
X95485000Y-30861000D03*
X95485000Y-33401000D03*
X92945000Y-30861000D03*
X92945000Y-33401000D03*
X90405000Y-30861000D03*
X90405000Y-33401000D03*
X87865000Y-30861000D03*
X87865000Y-33401000D03*
X85325000Y-30861000D03*
X85325000Y-33401000D03*
X82785000Y-30861000D03*
X82785000Y-33401000D03*
X80245000Y-30861000D03*
X80245000Y-33401000D03*
X77705000Y-30861000D03*
X77705000Y-33401000D03*
X75165000Y-30861000D03*
X75165000Y-33401000D03*
X72625000Y-30861000D03*
X72625000Y-33401000D03*
X70085000Y-30861000D03*
X70085000Y-33401000D03*
X67545000Y-30861000D03*
X67545000Y-33401000D03*
X65005000Y-30861000D03*
X65005000Y-33401000D03*
X62465000Y-30861000D03*
X62465000Y-33401000D03*
X59925000Y-30861000D03*
X59925000Y-33401000D03*
X57385000Y-30861000D03*
X57385000Y-33401000D03*
X54845000Y-30861000D03*
X54845000Y-33401000D03*
X52305000Y-30861000D03*
X52305000Y-33401000D03*
X49765000Y-30861000D03*
X49765000Y-33401000D03*
X47225000Y-30861000D03*
X47225000Y-33401000D03*
X44685000Y-30861000D03*
X44685000Y-33401000D03*
X42145000Y-30861000D03*
X42145000Y-33401000D03*
X39605000Y-30861000D03*
X39605000Y-33401000D03*
D14*
X123425000Y-28321000D03*
X34525000Y-28321000D03*
G04 #@! TD*
D15*
G04 #@! TO.C,U1*
X225425000Y-168275000D03*
X227965000Y-168275000D03*
X230505000Y-168275000D03*
X243840000Y-151130000D03*
X243840000Y-148590000D03*
X243840000Y-146050000D03*
X243840000Y-143510000D03*
X243840000Y-140970000D03*
X243840000Y-138430000D03*
X225425000Y-147320000D03*
X225425000Y-144780000D03*
X225425000Y-142240000D03*
G04 #@! TD*
G04 #@! TO.C,U3*
X164465000Y-142240000D03*
X164465000Y-144780000D03*
X164465000Y-147320000D03*
X182880000Y-138430000D03*
X182880000Y-140970000D03*
X182880000Y-143510000D03*
X182880000Y-146050000D03*
X182880000Y-148590000D03*
X182880000Y-151130000D03*
X169545000Y-168275000D03*
X167005000Y-168275000D03*
X164465000Y-168275000D03*
G04 #@! TD*
G04 #@! TO.C,U5*
X103505000Y-142240000D03*
X103505000Y-144780000D03*
X103505000Y-147320000D03*
X121920000Y-138430000D03*
X121920000Y-140970000D03*
X121920000Y-143510000D03*
X121920000Y-146050000D03*
X121920000Y-148590000D03*
X121920000Y-151130000D03*
X108585000Y-168275000D03*
X106045000Y-168275000D03*
X103505000Y-168275000D03*
G04 #@! TD*
G04 #@! TO.C,U7*
X42545000Y-142240000D03*
X42545000Y-144780000D03*
X42545000Y-147320000D03*
X60960000Y-138430000D03*
X60960000Y-140970000D03*
X60960000Y-143510000D03*
X60960000Y-146050000D03*
X60960000Y-148590000D03*
X60960000Y-151130000D03*
X47625000Y-168275000D03*
X45085000Y-168275000D03*
X42545000Y-168275000D03*
G04 #@! TD*
G04 #@! TO.C,U8*
X225425000Y-104775000D03*
X227965000Y-104775000D03*
X230505000Y-104775000D03*
X243840000Y-87630000D03*
X243840000Y-85090000D03*
X243840000Y-82550000D03*
X243840000Y-80010000D03*
X243840000Y-77470000D03*
X243840000Y-74930000D03*
X225425000Y-83820000D03*
X225425000Y-81280000D03*
X225425000Y-78740000D03*
G04 #@! TD*
G04 #@! TO.C,U10*
X164465000Y-78740000D03*
X164465000Y-81280000D03*
X164465000Y-83820000D03*
X182880000Y-74930000D03*
X182880000Y-77470000D03*
X182880000Y-80010000D03*
X182880000Y-82550000D03*
X182880000Y-85090000D03*
X182880000Y-87630000D03*
X169545000Y-104775000D03*
X167005000Y-104775000D03*
X164465000Y-104775000D03*
G04 #@! TD*
G04 #@! TO.C,U12*
X103505000Y-104775000D03*
X106045000Y-104775000D03*
X108585000Y-104775000D03*
X121920000Y-87630000D03*
X121920000Y-85090000D03*
X121920000Y-82550000D03*
X121920000Y-80010000D03*
X121920000Y-77470000D03*
X121920000Y-74930000D03*
X103505000Y-83820000D03*
X103505000Y-81280000D03*
X103505000Y-78740000D03*
G04 #@! TD*
G04 #@! TO.C,U14*
X42545000Y-104775000D03*
X45085000Y-104775000D03*
X47625000Y-104775000D03*
X60960000Y-87630000D03*
X60960000Y-85090000D03*
X60960000Y-82550000D03*
X60960000Y-80010000D03*
X60960000Y-77470000D03*
X60960000Y-74930000D03*
X42545000Y-83820000D03*
X42545000Y-81280000D03*
X42545000Y-78740000D03*
G04 #@! TD*
D16*
G04 #@! TO.C,R1*
X159200000Y-71000000D03*
D17*
X159200000Y-78620000D03*
G04 #@! TD*
G04 #@! TO.C,R2*
X219800000Y-142220000D03*
D16*
X219800000Y-134600000D03*
G04 #@! TD*
D17*
G04 #@! TO.C,R3*
X35000000Y-81220000D03*
D16*
X35000000Y-73600000D03*
G04 #@! TD*
G04 #@! TO.C,R4*
X97600000Y-134600000D03*
D17*
X97600000Y-142220000D03*
G04 #@! TD*
D15*
G04 #@! TO.C,U2*
X194945000Y-142240000D03*
X194945000Y-144780000D03*
X194945000Y-147320000D03*
X213360000Y-138430000D03*
X213360000Y-140970000D03*
X213360000Y-143510000D03*
X213360000Y-146050000D03*
X213360000Y-148590000D03*
X213360000Y-151130000D03*
X200025000Y-168275000D03*
X197485000Y-168275000D03*
X194945000Y-168275000D03*
G04 #@! TD*
G04 #@! TO.C,U6*
X73025000Y-142240000D03*
X73025000Y-144780000D03*
X73025000Y-147320000D03*
X91440000Y-138430000D03*
X91440000Y-140970000D03*
X91440000Y-143510000D03*
X91440000Y-146050000D03*
X91440000Y-148590000D03*
X91440000Y-151130000D03*
X78105000Y-168275000D03*
X75565000Y-168275000D03*
X73025000Y-168275000D03*
G04 #@! TD*
G04 #@! TO.C,U9*
X194945000Y-104775000D03*
X197485000Y-104775000D03*
X200025000Y-104775000D03*
X213360000Y-87630000D03*
X213360000Y-85090000D03*
X213360000Y-82550000D03*
X213360000Y-80010000D03*
X213360000Y-77470000D03*
X213360000Y-74930000D03*
X194945000Y-83820000D03*
X194945000Y-81280000D03*
X194945000Y-78740000D03*
G04 #@! TD*
G04 #@! TO.C,U11*
X133985000Y-104775000D03*
X136525000Y-104775000D03*
X139065000Y-104775000D03*
X152400000Y-87630000D03*
X152400000Y-85090000D03*
X152400000Y-82550000D03*
X152400000Y-80010000D03*
X152400000Y-77470000D03*
X152400000Y-74930000D03*
X133985000Y-83820000D03*
X133985000Y-81280000D03*
X133985000Y-78740000D03*
G04 #@! TD*
G04 #@! TO.C,U13*
X73025000Y-104775000D03*
X75565000Y-104775000D03*
X78105000Y-104775000D03*
X91440000Y-87630000D03*
X91440000Y-85090000D03*
X91440000Y-82550000D03*
X91440000Y-80010000D03*
X91440000Y-77470000D03*
X91440000Y-74930000D03*
X73025000Y-83820000D03*
X73025000Y-81280000D03*
X73025000Y-78740000D03*
G04 #@! TD*
D18*
G04 #@! TO.C,U4*
X133985000Y-168275000D03*
X136525000Y-168275000D03*
X139065000Y-168275000D03*
X152400000Y-151130000D03*
X152400000Y-148590000D03*
X152400000Y-146050000D03*
X152400000Y-143510000D03*
X152400000Y-140970000D03*
X152400000Y-138430000D03*
X133985000Y-147320000D03*
X133985000Y-144780000D03*
X133985000Y-142240000D03*
G04 #@! TD*
M02*
