G04 #@! TF.GenerationSoftware,KiCad,Pcbnew,(5.0.0)*
G04 #@! TF.CreationDate,2019-11-22T19:44:57+00:00*
G04 #@! TF.ProjectId,A-FP,412D46502E6B696361645F7063620000,rev?*
G04 #@! TF.SameCoordinates,Original*
G04 #@! TF.FileFunction,Copper,L1,Top,Signal*
G04 #@! TF.FilePolarity,Positive*
%FSLAX46Y46*%
G04 Gerber Fmt 4.6, Leading zero omitted, Abs format (unit mm)*
G04 Created by KiCad (PCBNEW (5.0.0)) date 11/22/19 19:44:57*
%MOMM*%
%LPD*%
G01*
G04 APERTURE LIST*
G04 #@! TA.AperFunction,ComponentPad*
%ADD10R,1.600000X1.600000*%
G04 #@! TD*
G04 #@! TA.AperFunction,ComponentPad*
%ADD11C,1.600000*%
G04 #@! TD*
G04 #@! TA.AperFunction,ComponentPad*
%ADD12R,1.700000X1.700000*%
G04 #@! TD*
G04 #@! TA.AperFunction,ComponentPad*
%ADD13C,1.700000*%
G04 #@! TD*
G04 #@! TA.AperFunction,ComponentPad*
%ADD14C,1.524000*%
G04 #@! TD*
G04 #@! TA.AperFunction,ComponentPad*
%ADD15C,1.400000*%
G04 #@! TD*
G04 #@! TA.AperFunction,ComponentPad*
%ADD16O,1.400000X1.400000*%
G04 #@! TD*
G04 #@! TA.AperFunction,ComponentPad*
%ADD17C,2.000000*%
G04 #@! TD*
G04 #@! TA.AperFunction,ViaPad*
%ADD18C,0.800000*%
G04 #@! TD*
G04 #@! TA.AperFunction,Conductor*
%ADD19C,0.250000*%
G04 #@! TD*
G04 APERTURE END LIST*
D10*
G04 #@! TO.P,C1,1*
G04 #@! TO.N,6v*
X228600000Y-33020000D03*
D11*
G04 #@! TO.P,C1,2*
G04 #@! TO.N,GND*
X231100000Y-33020000D03*
G04 #@! TD*
G04 #@! TO.P,C2,2*
G04 #@! TO.N,Neg6v*
X243800000Y-33020000D03*
D10*
G04 #@! TO.P,C2,1*
G04 #@! TO.N,GND*
X241300000Y-33020000D03*
G04 #@! TD*
D12*
G04 #@! TO.P,J1,1*
G04 #@! TO.N,GND*
X118345000Y-30861000D03*
D13*
G04 #@! TO.P,J1,A*
X118345000Y-33401000D03*
G04 #@! TO.P,J1,2*
G04 #@! TO.N,6v*
X115805000Y-30861000D03*
G04 #@! TO.P,J1,B*
X115805000Y-33401000D03*
G04 #@! TO.P,J1,3*
G04 #@! TO.N,J1-*
X113265000Y-30861000D03*
G04 #@! TO.P,J1,C*
G04 #@! TO.N,N/C*
X113265000Y-33401000D03*
G04 #@! TO.P,J1,4*
X110725000Y-30861000D03*
G04 #@! TO.P,J1,D*
X110725000Y-33401000D03*
G04 #@! TO.P,J1,5*
G04 #@! TO.N,1TPC-*
X108185000Y-30861000D03*
G04 #@! TO.P,J1,E*
G04 #@! TO.N,N/C*
X108185000Y-33401000D03*
G04 #@! TO.P,J1,6*
X105645000Y-30861000D03*
G04 #@! TO.P,J1,F*
X105645000Y-33401000D03*
G04 #@! TO.P,J1,7*
X103105000Y-30861000D03*
G04 #@! TO.P,J1,H*
X103105000Y-33401000D03*
G04 #@! TO.P,J1,8*
G04 #@! TO.N,J2-*
X100565000Y-30861000D03*
G04 #@! TO.P,J1,J*
G04 #@! TO.N,N/C*
X100565000Y-33401000D03*
G04 #@! TO.P,J1,9*
X98025000Y-30861000D03*
G04 #@! TO.P,J1,K*
G04 #@! TO.N,{PC2}*
X98025000Y-33401000D03*
G04 #@! TO.P,J1,10*
G04 #@! TO.N,N/C*
X95485000Y-30861000D03*
G04 #@! TO.P,J1,L*
G04 #@! TO.N,JTPC*
X95485000Y-33401000D03*
G04 #@! TO.P,J1,11*
G04 #@! TO.N,N/C*
X92945000Y-30861000D03*
G04 #@! TO.P,J1,M*
G04 #@! TO.N,PC2-*
X92945000Y-33401000D03*
G04 #@! TO.P,J1,12*
G04 #@! TO.N,PulseGenMargin*
X90405000Y-30861000D03*
G04 #@! TO.P,J1,N*
G04 #@! TO.N,N/C*
X90405000Y-33401000D03*
G04 #@! TO.P,J1,13*
X87865000Y-30861000D03*
G04 #@! TO.P,J1,P*
G04 #@! TO.N,{PC1}*
X87865000Y-33401000D03*
G04 #@! TO.P,J1,14*
G04 #@! TO.N,WFR*
X85325000Y-30861000D03*
G04 #@! TO.P,J1,R*
G04 #@! TO.N,N/C*
X85325000Y-33401000D03*
G04 #@! TO.P,J1,15*
X82785000Y-30861000D03*
G04 #@! TO.P,J1,S*
G04 #@! TO.N,PC1-*
X82785000Y-33401000D03*
G04 #@! TO.P,J1,16*
G04 #@! TO.N,N/C*
X80245000Y-30861000D03*
G04 #@! TO.P,J1,T*
G04 #@! TO.N,PC3-*
X80245000Y-33401000D03*
G04 #@! TO.P,J1,17*
G04 #@! TO.N,N/C*
X77705000Y-30861000D03*
G04 #@! TO.P,J1,U*
X77705000Y-33401000D03*
G04 #@! TO.P,J1,18*
X75165000Y-30861000D03*
G04 #@! TO.P,J1,V*
G04 #@! TO.N,{PC3}*
X75165000Y-33401000D03*
G04 #@! TO.P,J1,19*
G04 #@! TO.N,J3-*
X72625000Y-30861000D03*
G04 #@! TO.P,J1,W*
G04 #@! TO.N,N/C*
X72625000Y-33401000D03*
G04 #@! TO.P,J1,20*
G04 #@! TO.N,PC1-4*
X70085000Y-30861000D03*
G04 #@! TO.P,J1,X*
G04 #@! TO.N,N/C*
X70085000Y-33401000D03*
G04 #@! TO.P,J1,21*
X67545000Y-30861000D03*
G04 #@! TO.P,J1,Y*
G04 #@! TO.N,{PC4}*
X67545000Y-33401000D03*
G04 #@! TO.P,J1,22*
G04 #@! TO.N,N/C*
X65005000Y-30861000D03*
G04 #@! TO.P,J1,Z*
X65005000Y-33401000D03*
G04 #@! TO.P,J1,23*
X62465000Y-30861000D03*
G04 #@! TO.P,J1,AA*
G04 #@! TO.N,PC4-*
X62465000Y-33401000D03*
G04 #@! TO.P,J1,24*
G04 #@! TO.N,N/C*
X59925000Y-30861000D03*
G04 #@! TO.P,J1,AB*
X59925000Y-33401000D03*
G04 #@! TO.P,J1,25*
X57385000Y-30861000D03*
G04 #@! TO.P,J1,AC*
X57385000Y-33401000D03*
G04 #@! TO.P,J1,26*
X54845000Y-30861000D03*
G04 #@! TO.P,J1,AD*
X54845000Y-33401000D03*
G04 #@! TO.P,J1,27*
G04 #@! TO.N,J4-*
X52305000Y-30861000D03*
G04 #@! TO.P,J1,AE*
G04 #@! TO.N,N/C*
X52305000Y-33401000D03*
G04 #@! TO.P,J1,28*
G04 #@! TO.N,PC4-*
X49765000Y-30861000D03*
G04 #@! TO.P,J1,AF*
G04 #@! TO.N,N/C*
X49765000Y-33401000D03*
G04 #@! TO.P,J1,29*
X47225000Y-30861000D03*
G04 #@! TO.P,J1,AH*
X47225000Y-33401000D03*
G04 #@! TO.P,J1,30*
X44685000Y-30861000D03*
G04 #@! TO.P,J1,AJ*
X44685000Y-33401000D03*
G04 #@! TO.P,J1,31*
G04 #@! TO.N,Neg6v*
X42145000Y-30861000D03*
G04 #@! TO.P,J1,AK*
X42145000Y-33401000D03*
G04 #@! TO.P,J1,32*
G04 #@! TO.N,GND*
X39605000Y-30861000D03*
G04 #@! TO.P,J1,AL*
X39605000Y-33401000D03*
G04 #@! TD*
D14*
G04 #@! TO.P,U1,21*
G04 #@! TO.N,6v*
X225425000Y-168275000D03*
G04 #@! TO.P,U1,22*
G04 #@! TO.N,GND*
X227965000Y-168275000D03*
G04 #@! TO.P,U1,23*
G04 #@! TO.N,Neg6v*
X230505000Y-168275000D03*
G04 #@! TO.P,U1,1*
G04 #@! TO.N,N/C*
X243840000Y-151130000D03*
G04 #@! TO.P,U1,2*
X243840000Y-148590000D03*
G04 #@! TO.P,U1,3*
X243840000Y-146050000D03*
G04 #@! TO.P,U1,4*
G04 #@! TO.N,Net-(U1-Pad4)*
X243840000Y-143510000D03*
G04 #@! TO.P,U1,5*
G04 #@! TO.N,N/C*
X243840000Y-140970000D03*
G04 #@! TO.P,U1,6*
G04 #@! TO.N,Net-(U1-Pad6)*
X243840000Y-138430000D03*
G04 #@! TO.P,U1,11*
G04 #@! TO.N,N/C*
X225425000Y-147320000D03*
G04 #@! TO.P,U1,12*
G04 #@! TO.N,PC1-*
X225425000Y-144780000D03*
G04 #@! TO.P,U1,13*
X225425000Y-142240000D03*
G04 #@! TD*
G04 #@! TO.P,U3,13*
G04 #@! TO.N,Net-(U10-Pad6)*
X164465000Y-142240000D03*
G04 #@! TO.P,U3,12*
X164465000Y-144780000D03*
G04 #@! TO.P,U3,11*
X164465000Y-147320000D03*
G04 #@! TO.P,U3,6*
G04 #@! TO.N,J2-*
X182880000Y-138430000D03*
G04 #@! TO.P,U3,5*
G04 #@! TO.N,JTPC*
X182880000Y-140970000D03*
G04 #@! TO.P,U3,4*
G04 #@! TO.N,N/C*
X182880000Y-143510000D03*
G04 #@! TO.P,U3,3*
G04 #@! TO.N,Net-(U2-Pad13)*
X182880000Y-146050000D03*
G04 #@! TO.P,U3,2*
G04 #@! TO.N,WFM-*
X182880000Y-148590000D03*
G04 #@! TO.P,U3,1*
G04 #@! TO.N,PC2-*
X182880000Y-151130000D03*
G04 #@! TO.P,U3,23*
G04 #@! TO.N,Neg6v*
X169545000Y-168275000D03*
G04 #@! TO.P,U3,22*
G04 #@! TO.N,GND*
X167005000Y-168275000D03*
G04 #@! TO.P,U3,21*
G04 #@! TO.N,6v*
X164465000Y-168275000D03*
G04 #@! TD*
G04 #@! TO.P,U5,13*
G04 #@! TO.N,PC3-*
X103505000Y-142240000D03*
G04 #@! TO.P,U5,12*
X103505000Y-144780000D03*
G04 #@! TO.P,U5,11*
G04 #@! TO.N,N/C*
X103505000Y-147320000D03*
G04 #@! TO.P,U5,6*
G04 #@! TO.N,Net-(U12-Pad11)*
X121920000Y-138430000D03*
G04 #@! TO.P,U5,5*
G04 #@! TO.N,N/C*
X121920000Y-140970000D03*
G04 #@! TO.P,U5,4*
G04 #@! TO.N,Net-(U13-Pad11)*
X121920000Y-143510000D03*
G04 #@! TO.P,U5,3*
G04 #@! TO.N,N/C*
X121920000Y-146050000D03*
G04 #@! TO.P,U5,2*
X121920000Y-148590000D03*
G04 #@! TO.P,U5,1*
X121920000Y-151130000D03*
G04 #@! TO.P,U5,23*
G04 #@! TO.N,Neg6v*
X108585000Y-168275000D03*
G04 #@! TO.P,U5,22*
G04 #@! TO.N,GND*
X106045000Y-168275000D03*
G04 #@! TO.P,U5,21*
G04 #@! TO.N,6v*
X103505000Y-168275000D03*
G04 #@! TD*
G04 #@! TO.P,U7,13*
G04 #@! TO.N,Net-(U14-Pad6)*
X42545000Y-142240000D03*
G04 #@! TO.P,U7,12*
X42545000Y-144780000D03*
G04 #@! TO.P,U7,11*
X42545000Y-147320000D03*
G04 #@! TO.P,U7,6*
G04 #@! TO.N,J4-*
X60960000Y-138430000D03*
G04 #@! TO.P,U7,5*
G04 #@! TO.N,JTPC*
X60960000Y-140970000D03*
G04 #@! TO.P,U7,4*
G04 #@! TO.N,N/C*
X60960000Y-143510000D03*
G04 #@! TO.P,U7,3*
G04 #@! TO.N,Net-(U6-Pad13)*
X60960000Y-146050000D03*
G04 #@! TO.P,U7,2*
G04 #@! TO.N,WFM-*
X60960000Y-148590000D03*
G04 #@! TO.P,U7,1*
G04 #@! TO.N,PC4-*
X60960000Y-151130000D03*
G04 #@! TO.P,U7,23*
G04 #@! TO.N,Neg6v*
X47625000Y-168275000D03*
G04 #@! TO.P,U7,22*
G04 #@! TO.N,GND*
X45085000Y-168275000D03*
G04 #@! TO.P,U7,21*
G04 #@! TO.N,6v*
X42545000Y-168275000D03*
G04 #@! TD*
G04 #@! TO.P,U8,21*
G04 #@! TO.N,6v*
X225425000Y-104775000D03*
G04 #@! TO.P,U8,22*
G04 #@! TO.N,GND*
X227965000Y-104775000D03*
G04 #@! TO.P,U8,23*
G04 #@! TO.N,Neg6v*
X230505000Y-104775000D03*
G04 #@! TO.P,U8,1*
G04 #@! TO.N,PC1-*
X243840000Y-87630000D03*
G04 #@! TO.P,U8,2*
G04 #@! TO.N,WFM-*
X243840000Y-85090000D03*
G04 #@! TO.P,U8,3*
G04 #@! TO.N,Net-(U8-Pad3)*
X243840000Y-82550000D03*
G04 #@! TO.P,U8,4*
G04 #@! TO.N,N/C*
X243840000Y-80010000D03*
G04 #@! TO.P,U8,5*
G04 #@! TO.N,JTPC*
X243840000Y-77470000D03*
G04 #@! TO.P,U8,6*
G04 #@! TO.N,J1-*
X243840000Y-74930000D03*
G04 #@! TO.P,U8,11*
G04 #@! TO.N,Net-(U1-Pad6)*
X225425000Y-83820000D03*
G04 #@! TO.P,U8,12*
X225425000Y-81280000D03*
G04 #@! TO.P,U8,13*
X225425000Y-78740000D03*
G04 #@! TD*
G04 #@! TO.P,U10,13*
G04 #@! TO.N,PC2-*
X164465000Y-78740000D03*
G04 #@! TO.P,U10,12*
X164465000Y-81280000D03*
G04 #@! TO.P,U10,11*
G04 #@! TO.N,N/C*
X164465000Y-83820000D03*
G04 #@! TO.P,U10,6*
G04 #@! TO.N,Net-(U10-Pad6)*
X182880000Y-74930000D03*
G04 #@! TO.P,U10,5*
G04 #@! TO.N,N/C*
X182880000Y-77470000D03*
G04 #@! TO.P,U10,4*
G04 #@! TO.N,Net-(U10-Pad4)*
X182880000Y-80010000D03*
G04 #@! TO.P,U10,3*
G04 #@! TO.N,N/C*
X182880000Y-82550000D03*
G04 #@! TO.P,U10,2*
X182880000Y-85090000D03*
G04 #@! TO.P,U10,1*
X182880000Y-87630000D03*
G04 #@! TO.P,U10,23*
G04 #@! TO.N,Neg6v*
X169545000Y-104775000D03*
G04 #@! TO.P,U10,22*
G04 #@! TO.N,GND*
X167005000Y-104775000D03*
G04 #@! TO.P,U10,21*
G04 #@! TO.N,6v*
X164465000Y-104775000D03*
G04 #@! TD*
G04 #@! TO.P,U12,21*
G04 #@! TO.N,6v*
X103505000Y-104775000D03*
G04 #@! TO.P,U12,22*
G04 #@! TO.N,GND*
X106045000Y-104775000D03*
G04 #@! TO.P,U12,23*
G04 #@! TO.N,Neg6v*
X108585000Y-104775000D03*
G04 #@! TO.P,U12,1*
G04 #@! TO.N,PC3-*
X121920000Y-87630000D03*
G04 #@! TO.P,U12,2*
G04 #@! TO.N,WFM-*
X121920000Y-85090000D03*
G04 #@! TO.P,U12,3*
G04 #@! TO.N,Net-(U12-Pad3)*
X121920000Y-82550000D03*
G04 #@! TO.P,U12,4*
G04 #@! TO.N,N/C*
X121920000Y-80010000D03*
G04 #@! TO.P,U12,5*
G04 #@! TO.N,JTPC*
X121920000Y-77470000D03*
G04 #@! TO.P,U12,6*
G04 #@! TO.N,J3-*
X121920000Y-74930000D03*
G04 #@! TO.P,U12,11*
G04 #@! TO.N,Net-(U12-Pad11)*
X103505000Y-83820000D03*
G04 #@! TO.P,U12,12*
X103505000Y-81280000D03*
G04 #@! TO.P,U12,13*
X103505000Y-78740000D03*
G04 #@! TD*
G04 #@! TO.P,U14,21*
G04 #@! TO.N,6v*
X42545000Y-104775000D03*
G04 #@! TO.P,U14,22*
G04 #@! TO.N,GND*
X45085000Y-104775000D03*
G04 #@! TO.P,U14,23*
G04 #@! TO.N,Neg6v*
X47625000Y-104775000D03*
G04 #@! TO.P,U14,1*
G04 #@! TO.N,N/C*
X60960000Y-87630000D03*
G04 #@! TO.P,U14,2*
X60960000Y-85090000D03*
G04 #@! TO.P,U14,3*
X60960000Y-82550000D03*
G04 #@! TO.P,U14,4*
G04 #@! TO.N,Net-(U14-Pad4)*
X60960000Y-80010000D03*
G04 #@! TO.P,U14,5*
G04 #@! TO.N,N/C*
X60960000Y-77470000D03*
G04 #@! TO.P,U14,6*
G04 #@! TO.N,Net-(U14-Pad6)*
X60960000Y-74930000D03*
G04 #@! TO.P,U14,11*
G04 #@! TO.N,N/C*
X42545000Y-83820000D03*
G04 #@! TO.P,U14,12*
G04 #@! TO.N,PC4-*
X42545000Y-81280000D03*
G04 #@! TO.P,U14,13*
X42545000Y-78740000D03*
G04 #@! TD*
D15*
G04 #@! TO.P,R1,1*
G04 #@! TO.N,{PC2}*
X159200000Y-71000000D03*
D16*
G04 #@! TO.P,R1,2*
G04 #@! TO.N,PC2-*
X159200000Y-78620000D03*
G04 #@! TD*
G04 #@! TO.P,R2,2*
G04 #@! TO.N,PC1-*
X219800000Y-142220000D03*
D15*
G04 #@! TO.P,R2,1*
G04 #@! TO.N,{PC1}*
X219800000Y-134600000D03*
G04 #@! TD*
D16*
G04 #@! TO.P,R3,2*
G04 #@! TO.N,PC4-*
X35000000Y-81220000D03*
D15*
G04 #@! TO.P,R3,1*
G04 #@! TO.N,{PC4}*
X35000000Y-73600000D03*
G04 #@! TD*
G04 #@! TO.P,R4,1*
G04 #@! TO.N,{PC3}*
X97600000Y-134600000D03*
D16*
G04 #@! TO.P,R4,2*
G04 #@! TO.N,PC3-*
X97600000Y-142220000D03*
G04 #@! TD*
D14*
G04 #@! TO.P,U2,13*
G04 #@! TO.N,Net-(U2-Pad13)*
X194945000Y-142240000D03*
G04 #@! TO.P,U2,12*
G04 #@! TO.N,N/C*
X194945000Y-144780000D03*
G04 #@! TO.P,U2,11*
G04 #@! TO.N,Net-(U10-Pad4)*
X194945000Y-147320000D03*
G04 #@! TO.P,U2,6*
G04 #@! TO.N,Net-(U10-Pad6)*
X213360000Y-138430000D03*
G04 #@! TO.P,U2,5*
G04 #@! TO.N,PC1-*
X213360000Y-140970000D03*
G04 #@! TO.P,U2,4*
G04 #@! TO.N,2.4vRef*
X213360000Y-143510000D03*
G04 #@! TO.P,U2,3*
G04 #@! TO.N,N/C*
X213360000Y-146050000D03*
G04 #@! TO.P,U2,2*
G04 #@! TO.N,PC1-*
X213360000Y-148590000D03*
G04 #@! TO.P,U2,1*
G04 #@! TO.N,PC2-*
X213360000Y-151130000D03*
G04 #@! TO.P,U2,23*
G04 #@! TO.N,Neg6v*
X200025000Y-168275000D03*
G04 #@! TO.P,U2,22*
G04 #@! TO.N,GND*
X197485000Y-168275000D03*
G04 #@! TO.P,U2,21*
G04 #@! TO.N,6v*
X194945000Y-168275000D03*
G04 #@! TD*
G04 #@! TO.P,U6,13*
G04 #@! TO.N,Net-(U6-Pad13)*
X73025000Y-142240000D03*
G04 #@! TO.P,U6,12*
G04 #@! TO.N,N/C*
X73025000Y-144780000D03*
G04 #@! TO.P,U6,11*
G04 #@! TO.N,Net-(U14-Pad4)*
X73025000Y-147320000D03*
G04 #@! TO.P,U6,6*
G04 #@! TO.N,Net-(U14-Pad6)*
X91440000Y-138430000D03*
G04 #@! TO.P,U6,5*
G04 #@! TO.N,PC3-*
X91440000Y-140970000D03*
G04 #@! TO.P,U6,4*
G04 #@! TO.N,2.4vRef*
X91440000Y-143510000D03*
G04 #@! TO.P,U6,3*
G04 #@! TO.N,N/C*
X91440000Y-146050000D03*
G04 #@! TO.P,U6,2*
G04 #@! TO.N,PC3-*
X91440000Y-148590000D03*
G04 #@! TO.P,U6,1*
G04 #@! TO.N,PC4-*
X91440000Y-151130000D03*
G04 #@! TO.P,U6,23*
G04 #@! TO.N,Neg6v*
X78105000Y-168275000D03*
G04 #@! TO.P,U6,22*
G04 #@! TO.N,GND*
X75565000Y-168275000D03*
G04 #@! TO.P,U6,21*
G04 #@! TO.N,6v*
X73025000Y-168275000D03*
G04 #@! TD*
G04 #@! TO.P,U9,21*
G04 #@! TO.N,6v*
X194945000Y-104775000D03*
G04 #@! TO.P,U9,22*
G04 #@! TO.N,GND*
X197485000Y-104775000D03*
G04 #@! TO.P,U9,23*
G04 #@! TO.N,Neg6v*
X200025000Y-104775000D03*
G04 #@! TO.P,U9,1*
G04 #@! TO.N,PC1-*
X213360000Y-87630000D03*
G04 #@! TO.P,U9,2*
G04 #@! TO.N,1TPC-*
X213360000Y-85090000D03*
G04 #@! TO.P,U9,3*
G04 #@! TO.N,N/C*
X213360000Y-82550000D03*
G04 #@! TO.P,U9,4*
G04 #@! TO.N,2.4vRef*
X213360000Y-80010000D03*
G04 #@! TO.P,U9,5*
G04 #@! TO.N,1TPC-*
X213360000Y-77470000D03*
G04 #@! TO.P,U9,6*
G04 #@! TO.N,Net-(U1-Pad6)*
X213360000Y-74930000D03*
G04 #@! TO.P,U9,11*
G04 #@! TO.N,Net-(U1-Pad4)*
X194945000Y-83820000D03*
G04 #@! TO.P,U9,12*
G04 #@! TO.N,N/C*
X194945000Y-81280000D03*
G04 #@! TO.P,U9,13*
G04 #@! TO.N,Net-(U8-Pad3)*
X194945000Y-78740000D03*
G04 #@! TD*
G04 #@! TO.P,U11,21*
G04 #@! TO.N,6v*
X133985000Y-104775000D03*
G04 #@! TO.P,U11,22*
G04 #@! TO.N,GND*
X136525000Y-104775000D03*
G04 #@! TO.P,U11,23*
G04 #@! TO.N,Neg6v*
X139065000Y-104775000D03*
G04 #@! TO.P,U11,1*
G04 #@! TO.N,Net-(U11-Pad1)*
X152400000Y-87630000D03*
G04 #@! TO.P,U11,2*
G04 #@! TO.N,PC1-*
X152400000Y-85090000D03*
G04 #@! TO.P,U11,3*
G04 #@! TO.N,PC2-*
X152400000Y-82550000D03*
G04 #@! TO.P,U11,4*
G04 #@! TO.N,PC3-*
X152400000Y-80010000D03*
G04 #@! TO.P,U11,5*
G04 #@! TO.N,PC4-*
X152400000Y-77470000D03*
G04 #@! TO.P,U11,6*
G04 #@! TO.N,WFR*
X152400000Y-74930000D03*
G04 #@! TO.P,U11,11*
G04 #@! TO.N,PC1-4*
X133985000Y-83820000D03*
G04 #@! TO.P,U11,12*
G04 #@! TO.N,Net-(U11-Pad1)*
X133985000Y-81280000D03*
G04 #@! TO.P,U11,13*
G04 #@! TO.N,WFM-*
X133985000Y-78740000D03*
G04 #@! TD*
G04 #@! TO.P,U13,21*
G04 #@! TO.N,6v*
X73025000Y-104775000D03*
G04 #@! TO.P,U13,22*
G04 #@! TO.N,GND*
X75565000Y-104775000D03*
G04 #@! TO.P,U13,23*
G04 #@! TO.N,Neg6v*
X78105000Y-104775000D03*
G04 #@! TO.P,U13,1*
G04 #@! TO.N,PC3-*
X91440000Y-87630000D03*
G04 #@! TO.P,U13,2*
G04 #@! TO.N,PC2-*
X91440000Y-85090000D03*
G04 #@! TO.P,U13,3*
G04 #@! TO.N,N/C*
X91440000Y-82550000D03*
G04 #@! TO.P,U13,4*
G04 #@! TO.N,2.4vRef*
X91440000Y-80010000D03*
G04 #@! TO.P,U13,5*
G04 #@! TO.N,PC2-*
X91440000Y-77470000D03*
G04 #@! TO.P,U13,6*
G04 #@! TO.N,Net-(U12-Pad11)*
X91440000Y-74930000D03*
G04 #@! TO.P,U13,11*
G04 #@! TO.N,Net-(U13-Pad11)*
X73025000Y-83820000D03*
G04 #@! TO.P,U13,12*
G04 #@! TO.N,N/C*
X73025000Y-81280000D03*
G04 #@! TO.P,U13,13*
G04 #@! TO.N,Net-(U12-Pad3)*
X73025000Y-78740000D03*
G04 #@! TD*
D17*
G04 #@! TO.P,U4,21*
G04 #@! TO.N,6v*
X133985000Y-168275000D03*
G04 #@! TO.P,U4,22*
G04 #@! TO.N,GND*
X136525000Y-168275000D03*
G04 #@! TO.P,U4,23*
G04 #@! TO.N,Neg6v*
X139065000Y-168275000D03*
G04 #@! TO.P,U4,1*
G04 #@! TO.N,N/C*
X152400000Y-151130000D03*
G04 #@! TO.P,U4,2*
X152400000Y-148590000D03*
G04 #@! TO.P,U4,3*
X152400000Y-146050000D03*
G04 #@! TO.P,U4,4*
X152400000Y-143510000D03*
G04 #@! TO.P,U4,5*
X152400000Y-140970000D03*
G04 #@! TO.P,U4,6*
G04 #@! TO.N,PulseGenMargin*
X152400000Y-138430000D03*
G04 #@! TO.P,U4,11*
G04 #@! TO.N,2.4vRef*
X133985000Y-147320000D03*
G04 #@! TO.P,U4,12*
G04 #@! TO.N,N/C*
X133985000Y-144780000D03*
G04 #@! TO.P,U4,13*
X133985000Y-142240000D03*
G04 #@! TD*
D18*
G04 #@! TO.N,JTPC*
X116481500Y-106843800D03*
G04 #@! TO.N,PC1-*
X134389900Y-74144800D03*
G04 #@! TO.N,WFM-*
X118423300Y-108897800D03*
G04 #@! TO.N,{PC1}*
X182133700Y-134600000D03*
G04 #@! TD*
D19*
G04 #@! TO.N,6v*
X164465000Y-167174900D02*
X164212600Y-166922500D01*
X164212600Y-166922500D02*
X135337500Y-166922500D01*
X135337500Y-166922500D02*
X133985000Y-168275000D01*
X194945000Y-168275000D02*
X193844900Y-167174900D01*
X193844900Y-167174900D02*
X164465000Y-167174900D01*
X164465000Y-167174900D02*
X164465000Y-168275000D01*
X225425000Y-168275000D02*
X224282700Y-169417300D01*
X224282700Y-169417300D02*
X196087300Y-169417300D01*
X196087300Y-169417300D02*
X194945000Y-168275000D01*
X133985000Y-168275000D02*
X132896500Y-167186500D01*
X132896500Y-167186500D02*
X104593500Y-167186500D01*
X104593500Y-167186500D02*
X103505000Y-168275000D01*
X43670200Y-167149800D02*
X42545000Y-168275000D01*
X73025000Y-168275000D02*
X71899800Y-167149800D01*
X71899800Y-167149800D02*
X43670200Y-167149800D01*
X43670200Y-167149800D02*
X41438800Y-164918400D01*
X41438800Y-164918400D02*
X41438800Y-108968000D01*
X41438800Y-108968000D02*
X44088400Y-106318400D01*
X44088400Y-106318400D02*
X42545000Y-104775000D01*
X73025000Y-104775000D02*
X71481600Y-106318400D01*
X71481600Y-106318400D02*
X44088400Y-106318400D01*
X73025000Y-104775000D02*
X74568800Y-106318800D01*
X74568800Y-106318800D02*
X101961200Y-106318800D01*
X101961200Y-106318800D02*
X103505000Y-104775000D01*
X103505000Y-168275000D02*
X102417600Y-167187600D01*
X102417600Y-167187600D02*
X74112400Y-167187600D01*
X74112400Y-167187600D02*
X73025000Y-168275000D01*
X133985000Y-104775000D02*
X117524600Y-104775000D01*
X117524600Y-104775000D02*
X115969600Y-106330000D01*
X115969600Y-106330000D02*
X105060000Y-106330000D01*
X105060000Y-106330000D02*
X103505000Y-104775000D01*
X164465000Y-104775000D02*
X166033600Y-106343600D01*
X166033600Y-106343600D02*
X193376400Y-106343600D01*
X193376400Y-106343600D02*
X194945000Y-104775000D01*
X133985000Y-104775000D02*
X135561500Y-106351500D01*
X135561500Y-106351500D02*
X162888500Y-106351500D01*
X162888500Y-106351500D02*
X164465000Y-104775000D01*
X194945000Y-104775000D02*
X196502300Y-106332300D01*
X196502300Y-106332300D02*
X223867700Y-106332300D01*
X223867700Y-106332300D02*
X225425000Y-104775000D01*
G04 #@! TO.N,GND*
X136525000Y-169614800D02*
X165665200Y-169614800D01*
X165665200Y-169614800D02*
X167005000Y-168275000D01*
X106045000Y-169375100D02*
X106284700Y-169614800D01*
X106284700Y-169614800D02*
X136525000Y-169614800D01*
X136525000Y-169614800D02*
X136525000Y-168275000D01*
X197485000Y-168275000D02*
X198575000Y-167185000D01*
X198575000Y-167185000D02*
X226875000Y-167185000D01*
X226875000Y-167185000D02*
X227965000Y-168275000D01*
X106045000Y-104775000D02*
X107582800Y-103237200D01*
X107582800Y-103237200D02*
X134987200Y-103237200D01*
X134987200Y-103237200D02*
X136525000Y-104775000D01*
X167005000Y-104775000D02*
X165449400Y-103219400D01*
X165449400Y-103219400D02*
X138080600Y-103219400D01*
X138080600Y-103219400D02*
X136525000Y-104775000D01*
X106045000Y-104775000D02*
X104503500Y-103233500D01*
X104503500Y-103233500D02*
X77106500Y-103233500D01*
X77106500Y-103233500D02*
X75565000Y-104775000D01*
X197485000Y-104775000D02*
X195944700Y-103234700D01*
X195944700Y-103234700D02*
X168545300Y-103234700D01*
X168545300Y-103234700D02*
X167005000Y-104775000D01*
X75565000Y-104775000D02*
X74025500Y-103235500D01*
X74025500Y-103235500D02*
X46624500Y-103235500D01*
X46624500Y-103235500D02*
X45085000Y-104775000D01*
X197485000Y-104775000D02*
X199055700Y-103204300D01*
X199055700Y-103204300D02*
X230476000Y-103204300D01*
X230476000Y-103204300D02*
X231622500Y-104350800D01*
X231622500Y-104350800D02*
X231622500Y-105241200D01*
X231622500Y-105241200D02*
X230995300Y-105868400D01*
X230995300Y-105868400D02*
X229058400Y-105868400D01*
X229058400Y-105868400D02*
X227965000Y-104775000D01*
X75565000Y-168275000D02*
X74406800Y-169433200D01*
X74406800Y-169433200D02*
X46243200Y-169433200D01*
X46243200Y-169433200D02*
X45085000Y-168275000D01*
X75565000Y-168275000D02*
X76665100Y-169375100D01*
X76665100Y-169375100D02*
X106045000Y-169375100D01*
X118345000Y-30861000D02*
X117169700Y-30861000D01*
X39605000Y-30861000D02*
X40780300Y-29685700D01*
X40780300Y-29685700D02*
X116361800Y-29685700D01*
X116361800Y-29685700D02*
X117169700Y-30493600D01*
X117169700Y-30493600D02*
X117169700Y-30861000D01*
X241300000Y-33020000D02*
X231100000Y-33020000D01*
X106045000Y-169375100D02*
X106045000Y-168275000D01*
G04 #@! TO.N,Neg6v*
X108585000Y-104775000D02*
X109672400Y-103687600D01*
X109672400Y-103687600D02*
X134450800Y-103687600D01*
X134450800Y-103687600D02*
X135255000Y-104491800D01*
X135255000Y-104491800D02*
X135255000Y-105075000D01*
X135255000Y-105075000D02*
X136081100Y-105901100D01*
X136081100Y-105901100D02*
X137938900Y-105901100D01*
X137938900Y-105901100D02*
X139065000Y-104775000D01*
X108585000Y-104775000D02*
X107495400Y-105864600D01*
X107495400Y-105864600D02*
X105564600Y-105864600D01*
X105564600Y-105864600D02*
X104775000Y-105075000D01*
X104775000Y-105075000D02*
X104775000Y-104491800D01*
X104775000Y-104491800D02*
X103967100Y-103683900D01*
X103967100Y-103683900D02*
X79196100Y-103683900D01*
X79196100Y-103683900D02*
X78105000Y-104775000D01*
X78105000Y-104775000D02*
X77011500Y-105868500D01*
X77011500Y-105868500D02*
X75106900Y-105868500D01*
X75106900Y-105868500D02*
X74295000Y-105056600D01*
X74295000Y-105056600D02*
X74295000Y-104484900D01*
X74295000Y-104484900D02*
X73496000Y-103685900D01*
X73496000Y-103685900D02*
X48714100Y-103685900D01*
X48714100Y-103685900D02*
X47625000Y-104775000D01*
X169545000Y-104775000D02*
X168454300Y-105865700D01*
X168454300Y-105865700D02*
X166499200Y-105865700D01*
X166499200Y-105865700D02*
X165735000Y-105101500D01*
X165735000Y-105101500D02*
X165735000Y-104501800D01*
X165735000Y-104501800D02*
X164920800Y-103687600D01*
X164920800Y-103687600D02*
X140152400Y-103687600D01*
X140152400Y-103687600D02*
X139065000Y-104775000D01*
X47625000Y-104775000D02*
X46534900Y-105865100D01*
X46534900Y-105865100D02*
X44605100Y-105865100D01*
X44605100Y-105865100D02*
X43815000Y-105075000D01*
X43815000Y-105075000D02*
X43815000Y-89365000D01*
X43815000Y-89365000D02*
X41377400Y-86927400D01*
X41377400Y-86927400D02*
X41377400Y-34168600D01*
X41377400Y-34168600D02*
X42145000Y-33401000D01*
X200025000Y-104775000D02*
X198937600Y-105862400D01*
X198937600Y-105862400D02*
X197025500Y-105862400D01*
X197025500Y-105862400D02*
X196215000Y-105051900D01*
X196215000Y-105051900D02*
X196215000Y-104483200D01*
X196215000Y-104483200D02*
X195416900Y-103685100D01*
X195416900Y-103685100D02*
X170634900Y-103685100D01*
X170634900Y-103685100D02*
X169545000Y-104775000D01*
X230505000Y-104775000D02*
X229389000Y-103659000D01*
X229389000Y-103659000D02*
X201141000Y-103659000D01*
X201141000Y-103659000D02*
X200025000Y-104775000D01*
G04 #@! TO.N,J1-*
X243840000Y-74930000D02*
X201041000Y-32131000D01*
X201041000Y-32131000D02*
X114535000Y-32131000D01*
X114535000Y-32131000D02*
X113265000Y-30861000D01*
G04 #@! TO.N,JTPC*
X181408400Y-134180100D02*
X154072100Y-106843800D01*
X154072100Y-106843800D02*
X116481500Y-106843800D01*
X243840000Y-77470000D02*
X244929400Y-78559400D01*
X244929400Y-78559400D02*
X244929400Y-92611200D01*
X244929400Y-92611200D02*
X213426100Y-124114500D01*
X213426100Y-124114500D02*
X191474000Y-124114500D01*
X191474000Y-124114500D02*
X181408400Y-134180100D01*
X181408400Y-134180100D02*
X181408400Y-139498400D01*
X181408400Y-139498400D02*
X182880000Y-140970000D01*
X60960000Y-140970000D02*
X95086200Y-106843800D01*
X95086200Y-106843800D02*
X116481500Y-106843800D01*
G04 #@! TO.N,PC2-*
X152400000Y-82550000D02*
X136979200Y-82550000D01*
X136979200Y-82550000D02*
X133326400Y-86202800D01*
X133326400Y-86202800D02*
X92552800Y-86202800D01*
X92552800Y-86202800D02*
X91440000Y-85090000D01*
X159200000Y-78620000D02*
X164345000Y-78620000D01*
X164345000Y-78620000D02*
X164465000Y-78740000D01*
X213360000Y-151130000D02*
X182880000Y-151130000D01*
G04 #@! TO.N,PC1-*
X213360000Y-87630000D02*
X243840000Y-87630000D01*
X152400000Y-85090000D02*
X153670000Y-86360000D01*
X153670000Y-86360000D02*
X212090000Y-86360000D01*
X212090000Y-86360000D02*
X213360000Y-87630000D01*
X134389900Y-74144800D02*
X123528800Y-74144800D01*
X123528800Y-74144800D02*
X82785000Y-33401000D01*
X214450000Y-142220000D02*
X214450000Y-147500000D01*
X214450000Y-147500000D02*
X213360000Y-148590000D01*
X213360000Y-140970000D02*
X214450000Y-142060000D01*
X214450000Y-142060000D02*
X214450000Y-142220000D01*
X214450000Y-142220000D02*
X218774700Y-142220000D01*
X219800000Y-142220000D02*
X218774700Y-142220000D01*
X219800000Y-142220000D02*
X225405000Y-142220000D01*
X225405000Y-142220000D02*
X225425000Y-142240000D01*
G04 #@! TO.N,PC3-*
X94888700Y-144418700D02*
X91440000Y-140970000D01*
X91440000Y-148590000D02*
X94888700Y-145141300D01*
X94888700Y-145141300D02*
X94888700Y-144418700D01*
X97087400Y-142220000D02*
X94888700Y-144418700D01*
X97600000Y-142220000D02*
X97087400Y-142220000D01*
X121920000Y-87630000D02*
X140448000Y-87630000D01*
X140448000Y-87630000D02*
X144258000Y-83820000D01*
X144258000Y-83820000D02*
X152733600Y-83820000D01*
X152733600Y-83820000D02*
X153500600Y-83053000D01*
X153500600Y-83053000D02*
X153500600Y-81110600D01*
X153500600Y-81110600D02*
X152400000Y-80010000D01*
X91440000Y-87630000D02*
X121920000Y-87630000D01*
G04 #@! TO.N,J3-*
X121920000Y-74930000D02*
X81955800Y-34965800D01*
X81955800Y-34965800D02*
X75054200Y-34965800D01*
X75054200Y-34965800D02*
X73895000Y-33806600D01*
X73895000Y-33806600D02*
X73895000Y-32131000D01*
X73895000Y-32131000D02*
X72625000Y-30861000D01*
G04 #@! TO.N,PC4-*
X60960000Y-151130000D02*
X91440000Y-151130000D01*
X62465000Y-73840100D02*
X115112900Y-73840100D01*
X115112900Y-73840100D02*
X117630000Y-76357200D01*
X117630000Y-76357200D02*
X151287200Y-76357200D01*
X151287200Y-76357200D02*
X152400000Y-77470000D01*
X42545000Y-78740000D02*
X47444900Y-73840100D01*
X47444900Y-73840100D02*
X62465000Y-73840100D01*
X62465000Y-73840100D02*
X62465000Y-33401000D01*
X49765000Y-30861000D02*
X51035000Y-32131000D01*
X51035000Y-32131000D02*
X61195000Y-32131000D01*
X61195000Y-32131000D02*
X62465000Y-33401000D01*
G04 #@! TO.N,Net-(U1-Pad6)*
X213360000Y-74930000D02*
X221615000Y-74930000D01*
X221615000Y-74930000D02*
X225425000Y-78740000D01*
G04 #@! TO.N,Net-(U10-Pad6)*
X213360000Y-138430000D02*
X188635800Y-138430000D01*
X188635800Y-138430000D02*
X184825800Y-142240000D01*
X184825800Y-142240000D02*
X164465000Y-142240000D01*
G04 #@! TO.N,WFM-*
X133985000Y-78740000D02*
X157591200Y-78740000D01*
X157591200Y-78740000D02*
X158705200Y-79854000D01*
X158705200Y-79854000D02*
X181186300Y-79854000D01*
X181186300Y-79854000D02*
X182452900Y-81120600D01*
X182452900Y-81120600D02*
X187911800Y-81120600D01*
X187911800Y-81120600D02*
X189341200Y-82550000D01*
X189341200Y-82550000D02*
X211822300Y-82550000D01*
X211822300Y-82550000D02*
X212932900Y-83660600D01*
X212932900Y-83660600D02*
X222037900Y-83660600D01*
X222037900Y-83660600D02*
X223467300Y-85090000D01*
X223467300Y-85090000D02*
X243840000Y-85090000D01*
X121920000Y-85090000D02*
X127635000Y-85090000D01*
X127635000Y-85090000D02*
X133985000Y-78740000D01*
X182880000Y-148590000D02*
X177958300Y-143668300D01*
X177958300Y-143668300D02*
X161652300Y-143668300D01*
X161652300Y-143668300D02*
X126881800Y-108897800D01*
X126881800Y-108897800D02*
X118423300Y-108897800D01*
X60960000Y-148590000D02*
X82095800Y-148590000D01*
X82095800Y-148590000D02*
X90985800Y-139700000D01*
X90985800Y-139700000D02*
X91778800Y-139700000D01*
X91778800Y-139700000D02*
X93746500Y-137732300D01*
X93746500Y-137732300D02*
X93746500Y-133574600D01*
X93746500Y-133574600D02*
X118423300Y-108897800D01*
G04 #@! TO.N,Net-(U12-Pad11)*
X91440000Y-74930000D02*
X99695000Y-74930000D01*
X99695000Y-74930000D02*
X103505000Y-78740000D01*
G04 #@! TO.N,Net-(U14-Pad6)*
X91440000Y-138430000D02*
X65224200Y-138430000D01*
X65224200Y-138430000D02*
X61414200Y-142240000D01*
X61414200Y-142240000D02*
X42545000Y-142240000D01*
G04 #@! TO.N,1TPC-*
X108185000Y-30861000D02*
X109455000Y-32131000D01*
X109455000Y-32131000D02*
X111156000Y-32131000D01*
X111156000Y-32131000D02*
X111900400Y-32875400D01*
X111900400Y-32875400D02*
X111900400Y-33756100D01*
X111900400Y-33756100D02*
X118128800Y-39984500D01*
X118128800Y-39984500D02*
X175874500Y-39984500D01*
X175874500Y-39984500D02*
X213360000Y-77470000D01*
G04 #@! TO.N,{PC2}*
X159200000Y-71000000D02*
X135624000Y-71000000D01*
X135624000Y-71000000D02*
X98025000Y-33401000D01*
G04 #@! TO.N,{PC1}*
X219800000Y-134600000D02*
X182133700Y-134600000D01*
G04 #@! TO.N,WFR*
X152400000Y-74930000D02*
X138917100Y-74930000D01*
X138917100Y-74930000D02*
X99396000Y-35408900D01*
X99396000Y-35408900D02*
X88190900Y-35408900D01*
X88190900Y-35408900D02*
X86595000Y-33813000D01*
X86595000Y-33813000D02*
X86595000Y-32131000D01*
X86595000Y-32131000D02*
X85325000Y-30861000D01*
G04 #@! TO.N,Net-(U2-Pad13)*
X194945000Y-142240000D02*
X186690000Y-142240000D01*
X186690000Y-142240000D02*
X182880000Y-146050000D01*
G04 #@! TO.N,Net-(U6-Pad13)*
X73025000Y-142240000D02*
X69215000Y-146050000D01*
X69215000Y-146050000D02*
X60960000Y-146050000D01*
G04 #@! TO.N,Net-(U8-Pad3)*
X194945000Y-78740000D02*
X216011200Y-78740000D01*
X216011200Y-78740000D02*
X219821200Y-82550000D01*
X219821200Y-82550000D02*
X243840000Y-82550000D01*
G04 #@! TO.N,Net-(U12-Pad3)*
X73025000Y-78740000D02*
X101967300Y-78740000D01*
X101967300Y-78740000D02*
X103077900Y-79850600D01*
X103077900Y-79850600D02*
X119220600Y-79850600D01*
X119220600Y-79850600D02*
X121920000Y-82550000D01*
G04 #@! TO.N,2.4vRef*
X133985000Y-147320000D02*
X139127500Y-152462500D01*
X139127500Y-152462500D02*
X178106900Y-152462500D01*
X178106900Y-152462500D02*
X180709400Y-149860000D01*
X180709400Y-149860000D02*
X207010000Y-149860000D01*
X207010000Y-149860000D02*
X213360000Y-143510000D01*
G04 #@! TD*
M02*
