G04 #@! TF.GenerationSoftware,KiCad,Pcbnew,(5.0.0)*
G04 #@! TF.CreationDate,2019-03-30T18:13:55+00:00*
G04 #@! TF.ProjectId,A-FA,412D46412E6B696361645F7063620000,rev?*
G04 #@! TF.SameCoordinates,Original*
G04 #@! TF.FileFunction,Soldermask,Top*
G04 #@! TF.FilePolarity,Negative*
%FSLAX46Y46*%
G04 Gerber Fmt 4.6, Leading zero omitted, Abs format (unit mm)*
G04 Created by KiCad (PCBNEW (5.0.0)) date 03/30/19 18:13:55*
%MOMM*%
%LPD*%
G01*
G04 APERTURE LIST*
%ADD10C,2.000000*%
%ADD11C,1.400000*%
%ADD12O,1.400000X1.400000*%
%ADD13C,1.600000*%
%ADD14R,1.600000X1.600000*%
%ADD15C,2.800000*%
%ADD16C,1.700000*%
%ADD17R,1.700000X1.700000*%
%ADD18C,1.800000*%
%ADD19R,1.800000X1.800000*%
%ADD20O,1.700000X1.700000*%
%ADD21C,2.400000*%
G04 APERTURE END LIST*
D10*
G04 #@! TO.C,U8*
X225425000Y-78740000D03*
X225425000Y-81280000D03*
X225425000Y-83820000D03*
X243840000Y-74930000D03*
X243840000Y-77470000D03*
X243840000Y-80010000D03*
X243840000Y-82550000D03*
X243840000Y-85090000D03*
X243840000Y-87630000D03*
X230505000Y-104775000D03*
X227965000Y-104775000D03*
X225425000Y-104775000D03*
G04 #@! TD*
G04 #@! TO.C,U1*
X225425000Y-142240000D03*
X225425000Y-144780000D03*
X225425000Y-147320000D03*
X243840000Y-138430000D03*
X243840000Y-140970000D03*
X243840000Y-143510000D03*
X243840000Y-146050000D03*
X243840000Y-148590000D03*
X243840000Y-151130000D03*
X230505000Y-168275000D03*
X227965000Y-168275000D03*
X225425000Y-168275000D03*
G04 #@! TD*
G04 #@! TO.C,U12*
X103505000Y-78740000D03*
X103505000Y-81280000D03*
X103505000Y-83820000D03*
X121920000Y-74930000D03*
X121920000Y-77470000D03*
X121920000Y-80010000D03*
X121920000Y-82550000D03*
X121920000Y-85090000D03*
X121920000Y-87630000D03*
X108585000Y-104775000D03*
X106045000Y-104775000D03*
X103505000Y-104775000D03*
G04 #@! TD*
G04 #@! TO.C,U11*
X133985000Y-78740000D03*
X133985000Y-81280000D03*
X133985000Y-83820000D03*
X152400000Y-74930000D03*
X152400000Y-77470000D03*
X152400000Y-80010000D03*
X152400000Y-82550000D03*
X152400000Y-85090000D03*
X152400000Y-87630000D03*
X139065000Y-104775000D03*
X136525000Y-104775000D03*
X133985000Y-104775000D03*
G04 #@! TD*
G04 #@! TO.C,U14*
X42545000Y-78740000D03*
X42545000Y-81280000D03*
X42545000Y-83820000D03*
X60960000Y-74930000D03*
X60960000Y-77470000D03*
X60960000Y-80010000D03*
X60960000Y-82550000D03*
X60960000Y-85090000D03*
X60960000Y-87630000D03*
X47625000Y-104775000D03*
X45085000Y-104775000D03*
X42545000Y-104775000D03*
G04 #@! TD*
G04 #@! TO.C,U13*
X73025000Y-78740000D03*
X73025000Y-81280000D03*
X73025000Y-83820000D03*
X91440000Y-74930000D03*
X91440000Y-77470000D03*
X91440000Y-80010000D03*
X91440000Y-82550000D03*
X91440000Y-85090000D03*
X91440000Y-87630000D03*
X78105000Y-104775000D03*
X75565000Y-104775000D03*
X73025000Y-104775000D03*
G04 #@! TD*
D11*
G04 #@! TO.C,R3*
X237426000Y-74866500D03*
D12*
X237426000Y-82486500D03*
G04 #@! TD*
D11*
G04 #@! TO.C,R4*
X146114000Y-69850000D03*
D12*
X146114000Y-77470000D03*
G04 #@! TD*
D11*
G04 #@! TO.C,R5*
X84010500Y-133350000D03*
D12*
X84010500Y-140970000D03*
G04 #@! TD*
D11*
G04 #@! TO.C,R6*
X113856000Y-133350000D03*
D12*
X113856000Y-140970000D03*
G04 #@! TD*
D11*
G04 #@! TO.C,R7*
X84772500Y-69786500D03*
D12*
X84772500Y-77406500D03*
G04 #@! TD*
D11*
G04 #@! TO.C,R8*
X53975000Y-69913500D03*
D12*
X53975000Y-77533500D03*
G04 #@! TD*
D11*
G04 #@! TO.C,R9*
X114998000Y-77470000D03*
D12*
X114998000Y-85090000D03*
G04 #@! TD*
D11*
G04 #@! TO.C,R10*
X146304000Y-87820500D03*
D12*
X146304000Y-95440500D03*
G04 #@! TD*
D11*
G04 #@! TO.C,R11*
X152273000Y-157924000D03*
D12*
X144653000Y-157924000D03*
G04 #@! TD*
D11*
G04 #@! TO.C,R12*
X113919000Y-150050000D03*
D12*
X113919000Y-157670000D03*
G04 #@! TD*
D11*
G04 #@! TO.C,R13*
X84772500Y-83185000D03*
D12*
X84772500Y-90805000D03*
G04 #@! TD*
D11*
G04 #@! TO.C,R14*
X144716000Y-143510000D03*
D12*
X144716000Y-151130000D03*
G04 #@! TD*
D11*
G04 #@! TO.C,R15*
X87947500Y-143637000D03*
D12*
X87947500Y-136017000D03*
G04 #@! TD*
D11*
G04 #@! TO.C,R16*
X53975000Y-83185000D03*
D12*
X53975000Y-90805000D03*
G04 #@! TD*
D11*
G04 #@! TO.C,R17*
X91503500Y-94488000D03*
D12*
X91503500Y-102108000D03*
G04 #@! TD*
D10*
G04 #@! TO.C,U2*
X194945000Y-142240000D03*
X194945000Y-144780000D03*
X194945000Y-147320000D03*
X213360000Y-138430000D03*
X213360000Y-140970000D03*
X213360000Y-143510000D03*
X213360000Y-146050000D03*
X213360000Y-148590000D03*
X213360000Y-151130000D03*
X200025000Y-168275000D03*
X197485000Y-168275000D03*
X194945000Y-168275000D03*
G04 #@! TD*
G04 #@! TO.C,U3*
X164465000Y-142240000D03*
X164465000Y-144780000D03*
X164465000Y-147320000D03*
X182880000Y-138430000D03*
X182880000Y-140970000D03*
X182880000Y-143510000D03*
X182880000Y-146050000D03*
X182880000Y-148590000D03*
X182880000Y-151130000D03*
X169545000Y-168275000D03*
X167005000Y-168275000D03*
X164465000Y-168275000D03*
G04 #@! TD*
G04 #@! TO.C,U4*
X133985000Y-142240000D03*
X133985000Y-144780000D03*
X133985000Y-147320000D03*
X152400000Y-138430000D03*
X152400000Y-140970000D03*
X152400000Y-143510000D03*
X152400000Y-146050000D03*
X152400000Y-148590000D03*
X152400000Y-151130000D03*
X139065000Y-168275000D03*
X136525000Y-168275000D03*
X133985000Y-168275000D03*
G04 #@! TD*
G04 #@! TO.C,U5*
X103505000Y-142240000D03*
X103505000Y-144780000D03*
X103505000Y-147320000D03*
X121920000Y-138430000D03*
X121920000Y-140970000D03*
X121920000Y-143510000D03*
X121920000Y-146050000D03*
X121920000Y-148590000D03*
X121920000Y-151130000D03*
X108585000Y-168275000D03*
X106045000Y-168275000D03*
X103505000Y-168275000D03*
G04 #@! TD*
G04 #@! TO.C,U6*
X73025000Y-142240000D03*
X73025000Y-144780000D03*
X73025000Y-147320000D03*
X91440000Y-138430000D03*
X91440000Y-140970000D03*
X91440000Y-143510000D03*
X91440000Y-146050000D03*
X91440000Y-148590000D03*
X91440000Y-151130000D03*
X78105000Y-168275000D03*
X75565000Y-168275000D03*
X73025000Y-168275000D03*
G04 #@! TD*
G04 #@! TO.C,U7*
X42545000Y-142240000D03*
X42545000Y-144780000D03*
X42545000Y-147320000D03*
X60960000Y-138430000D03*
X60960000Y-140970000D03*
X60960000Y-143510000D03*
X60960000Y-146050000D03*
X60960000Y-148590000D03*
X60960000Y-151130000D03*
X47625000Y-168275000D03*
X45085000Y-168275000D03*
X42545000Y-168275000D03*
G04 #@! TD*
G04 #@! TO.C,U9*
X194945000Y-78740000D03*
X194945000Y-81280000D03*
X194945000Y-83820000D03*
X213360000Y-74930000D03*
X213360000Y-77470000D03*
X213360000Y-80010000D03*
X213360000Y-82550000D03*
X213360000Y-85090000D03*
X213360000Y-87630000D03*
X200025000Y-104775000D03*
X197485000Y-104775000D03*
X194945000Y-104775000D03*
G04 #@! TD*
G04 #@! TO.C,U10*
X164465000Y-78740000D03*
X164465000Y-81280000D03*
X164465000Y-83820000D03*
X182880000Y-74930000D03*
X182880000Y-77470000D03*
X182880000Y-80010000D03*
X182880000Y-82550000D03*
X182880000Y-85090000D03*
X182880000Y-87630000D03*
X169545000Y-104775000D03*
X167005000Y-104775000D03*
X164465000Y-104775000D03*
G04 #@! TD*
D13*
G04 #@! TO.C,C1*
X243800000Y-33020000D03*
D14*
X241300000Y-33020000D03*
G04 #@! TD*
D13*
G04 #@! TO.C,C2*
X231100000Y-33020000D03*
D14*
X228600000Y-33020000D03*
G04 #@! TD*
D15*
G04 #@! TO.C,J1*
X34525000Y-28321000D03*
X123425000Y-28321000D03*
D16*
X39605000Y-33401000D03*
X39605000Y-30861000D03*
X42145000Y-33401000D03*
X42145000Y-30861000D03*
X44685000Y-33401000D03*
X44685000Y-30861000D03*
X47225000Y-33401000D03*
X47225000Y-30861000D03*
X49765000Y-33401000D03*
X49765000Y-30861000D03*
X52305000Y-33401000D03*
X52305000Y-30861000D03*
X54845000Y-33401000D03*
X54845000Y-30861000D03*
X57385000Y-33401000D03*
X57385000Y-30861000D03*
X59925000Y-33401000D03*
X59925000Y-30861000D03*
X62465000Y-33401000D03*
X62465000Y-30861000D03*
X65005000Y-33401000D03*
X65005000Y-30861000D03*
X67545000Y-33401000D03*
X67545000Y-30861000D03*
X70085000Y-33401000D03*
X70085000Y-30861000D03*
X72625000Y-33401000D03*
X72625000Y-30861000D03*
X75165000Y-33401000D03*
X75165000Y-30861000D03*
X77705000Y-33401000D03*
X77705000Y-30861000D03*
X80245000Y-33401000D03*
X80245000Y-30861000D03*
X82785000Y-33401000D03*
X82785000Y-30861000D03*
X85325000Y-33401000D03*
X85325000Y-30861000D03*
X87865000Y-33401000D03*
X87865000Y-30861000D03*
X90405000Y-33401000D03*
X90405000Y-30861000D03*
X92945000Y-33401000D03*
X92945000Y-30861000D03*
X95485000Y-33401000D03*
X95485000Y-30861000D03*
X98025000Y-33401000D03*
X98025000Y-30861000D03*
X100565000Y-33401000D03*
X100565000Y-30861000D03*
X103105000Y-33401000D03*
X103105000Y-30861000D03*
X105645000Y-33401000D03*
X105645000Y-30861000D03*
X108185000Y-33401000D03*
X108185000Y-30861000D03*
X110725000Y-33401000D03*
X110725000Y-30861000D03*
X113265000Y-33401000D03*
X113265000Y-30861000D03*
X115805000Y-33401000D03*
X115805000Y-30861000D03*
X118345000Y-33401000D03*
D17*
X118345000Y-30861000D03*
G04 #@! TD*
D11*
G04 #@! TO.C,R51*
X162560000Y-176276000D03*
D12*
X170180000Y-176276000D03*
G04 #@! TD*
D11*
G04 #@! TO.C,R52*
X152400000Y-176276000D03*
D12*
X160020000Y-176276000D03*
G04 #@! TD*
D11*
G04 #@! TO.C,R53*
X142240000Y-176276000D03*
D12*
X149860000Y-176276000D03*
G04 #@! TD*
D11*
G04 #@! TO.C,R54*
X132080000Y-176276000D03*
D12*
X139700000Y-176276000D03*
G04 #@! TD*
D11*
G04 #@! TO.C,R55*
X121920000Y-176276000D03*
D12*
X129540000Y-176276000D03*
G04 #@! TD*
D11*
G04 #@! TO.C,R56*
X111760000Y-176276000D03*
D12*
X119380000Y-176276000D03*
G04 #@! TD*
D11*
G04 #@! TO.C,R57*
X101600000Y-176276000D03*
D12*
X109220000Y-176276000D03*
G04 #@! TD*
D11*
G04 #@! TO.C,R58*
X91440000Y-176276000D03*
D12*
X99060000Y-176276000D03*
G04 #@! TD*
D11*
G04 #@! TO.C,R59*
X81280000Y-176276000D03*
D12*
X88900000Y-176276000D03*
G04 #@! TD*
D11*
G04 #@! TO.C,R60*
X71120000Y-176276000D03*
D12*
X78740000Y-176276000D03*
G04 #@! TD*
D11*
G04 #@! TO.C,R61*
X60960000Y-176276000D03*
D12*
X68580000Y-176276000D03*
G04 #@! TD*
D18*
G04 #@! TO.C,D1*
X172720000Y-181864000D03*
D19*
X170180000Y-181864000D03*
G04 #@! TD*
G04 #@! TO.C,D2*
X160020000Y-181864000D03*
D18*
X162560000Y-181864000D03*
G04 #@! TD*
D19*
G04 #@! TO.C,D3*
X149860000Y-181864000D03*
D18*
X152400000Y-181864000D03*
G04 #@! TD*
G04 #@! TO.C,D4*
X142240000Y-181864000D03*
D19*
X139700000Y-181864000D03*
G04 #@! TD*
G04 #@! TO.C,D5*
X129540000Y-181864000D03*
D18*
X132080000Y-181864000D03*
G04 #@! TD*
G04 #@! TO.C,D6*
X121920000Y-181864000D03*
D19*
X119380000Y-181864000D03*
G04 #@! TD*
G04 #@! TO.C,D7*
X109220000Y-181864000D03*
D18*
X111760000Y-181864000D03*
G04 #@! TD*
G04 #@! TO.C,D8*
X101600000Y-181864000D03*
D19*
X99060000Y-181864000D03*
G04 #@! TD*
G04 #@! TO.C,D9*
X88900000Y-181864000D03*
D18*
X91440000Y-181864000D03*
G04 #@! TD*
D19*
G04 #@! TO.C,D10*
X78740000Y-181864000D03*
D18*
X81280000Y-181864000D03*
G04 #@! TD*
G04 #@! TO.C,D11*
X71120000Y-181864000D03*
D19*
X68580000Y-181864000D03*
G04 #@! TD*
D17*
G04 #@! TO.C,J2*
X42608500Y-176276000D03*
D20*
X42608500Y-178816000D03*
G04 #@! TD*
D21*
G04 #@! TO.C,TP1*
X250190000Y-120650000D03*
G04 #@! TD*
G04 #@! TO.C,TP2*
X250190000Y-69850000D03*
G04 #@! TD*
G04 #@! TO.C,TP3*
X250190000Y-125730000D03*
G04 #@! TD*
M02*
