G04 #@! TF.GenerationSoftware,KiCad,Pcbnew,(5.0.0)*
G04 #@! TF.CreationDate,2019-01-17T20:46:19+00:00*
G04 #@! TF.ProjectId,A-FA,412D46412E6B696361645F7063620000,rev?*
G04 #@! TF.SameCoordinates,Original*
G04 #@! TF.FileFunction,Soldermask,Bot*
G04 #@! TF.FilePolarity,Negative*
%FSLAX46Y46*%
G04 Gerber Fmt 4.6, Leading zero omitted, Abs format (unit mm)*
G04 Created by KiCad (PCBNEW (5.0.0)) date 01/17/19 20:46:19*
%MOMM*%
%LPD*%
G01*
G04 APERTURE LIST*
%ADD10C,1.524000*%
%ADD11C,1.400000*%
%ADD12O,1.400000X1.400000*%
%ADD13C,2.000000*%
%ADD14C,1.600000*%
%ADD15R,1.600000X1.600000*%
%ADD16R,1.700000X1.700000*%
%ADD17C,1.700000*%
%ADD18C,2.800000*%
G04 APERTURE END LIST*
D10*
G04 #@! TO.C,U8*
X225425000Y-104775000D03*
X227965000Y-104775000D03*
X230505000Y-104775000D03*
X243840000Y-87630000D03*
X243840000Y-85090000D03*
X243840000Y-82550000D03*
X243840000Y-80010000D03*
X243840000Y-77470000D03*
X243840000Y-74930000D03*
X225425000Y-83820000D03*
X225425000Y-81280000D03*
X225425000Y-78740000D03*
G04 #@! TD*
G04 #@! TO.C,U1*
X225425000Y-142240000D03*
X225425000Y-144780000D03*
X225425000Y-147320000D03*
X243840000Y-138430000D03*
X243840000Y-140970000D03*
X243840000Y-143510000D03*
X243840000Y-146050000D03*
X243840000Y-148590000D03*
X243840000Y-151130000D03*
X230505000Y-168275000D03*
X227965000Y-168275000D03*
X225425000Y-168275000D03*
G04 #@! TD*
G04 #@! TO.C,U12*
X103505000Y-104775000D03*
X106045000Y-104775000D03*
X108585000Y-104775000D03*
X121920000Y-87630000D03*
X121920000Y-85090000D03*
X121920000Y-82550000D03*
X121920000Y-80010000D03*
X121920000Y-77470000D03*
X121920000Y-74930000D03*
X103505000Y-83820000D03*
X103505000Y-81280000D03*
X103505000Y-78740000D03*
G04 #@! TD*
G04 #@! TO.C,U11*
X133985000Y-78740000D03*
X133985000Y-81280000D03*
X133985000Y-83820000D03*
X152400000Y-74930000D03*
X152400000Y-77470000D03*
X152400000Y-80010000D03*
X152400000Y-82550000D03*
X152400000Y-85090000D03*
X152400000Y-87630000D03*
X139065000Y-104775000D03*
X136525000Y-104775000D03*
X133985000Y-104775000D03*
G04 #@! TD*
G04 #@! TO.C,U14*
X42545000Y-104775000D03*
X45085000Y-104775000D03*
X47625000Y-104775000D03*
X60960000Y-87630000D03*
X60960000Y-85090000D03*
X60960000Y-82550000D03*
X60960000Y-80010000D03*
X60960000Y-77470000D03*
X60960000Y-74930000D03*
X42545000Y-83820000D03*
X42545000Y-81280000D03*
X42545000Y-78740000D03*
G04 #@! TD*
G04 #@! TO.C,U13*
X73025000Y-78740000D03*
X73025000Y-81280000D03*
X73025000Y-83820000D03*
X91440000Y-74930000D03*
X91440000Y-77470000D03*
X91440000Y-80010000D03*
X91440000Y-82550000D03*
X91440000Y-85090000D03*
X91440000Y-87630000D03*
X78105000Y-104775000D03*
X75565000Y-104775000D03*
X73025000Y-104775000D03*
G04 #@! TD*
D11*
G04 #@! TO.C,R3*
X237426000Y-74866500D03*
D12*
X237426000Y-82486500D03*
G04 #@! TD*
G04 #@! TO.C,R4*
X146114000Y-77470000D03*
D11*
X146114000Y-69850000D03*
G04 #@! TD*
G04 #@! TO.C,R5*
X84010500Y-133350000D03*
D12*
X84010500Y-140970000D03*
G04 #@! TD*
D11*
G04 #@! TO.C,R6*
X113856000Y-133350000D03*
D12*
X113856000Y-140970000D03*
G04 #@! TD*
D11*
G04 #@! TO.C,R7*
X84772500Y-69786500D03*
D12*
X84772500Y-77406500D03*
G04 #@! TD*
D11*
G04 #@! TO.C,R8*
X53975000Y-69913500D03*
D12*
X53975000Y-77533500D03*
G04 #@! TD*
D11*
G04 #@! TO.C,R9*
X114998000Y-77470000D03*
D12*
X114998000Y-85090000D03*
G04 #@! TD*
D11*
G04 #@! TO.C,R10*
X146304000Y-87820500D03*
D12*
X146304000Y-95440500D03*
G04 #@! TD*
G04 #@! TO.C,R11*
X144653000Y-157924000D03*
D11*
X152273000Y-157924000D03*
G04 #@! TD*
D12*
G04 #@! TO.C,R12*
X113919000Y-157670000D03*
D11*
X113919000Y-150050000D03*
G04 #@! TD*
G04 #@! TO.C,R13*
X84772500Y-83185000D03*
D12*
X84772500Y-90805000D03*
G04 #@! TD*
G04 #@! TO.C,R14*
X144716000Y-151130000D03*
D11*
X144716000Y-143510000D03*
G04 #@! TD*
D12*
G04 #@! TO.C,R15*
X87947500Y-136017000D03*
D11*
X87947500Y-143637000D03*
G04 #@! TD*
D12*
G04 #@! TO.C,R16*
X53975000Y-90805000D03*
D11*
X53975000Y-83185000D03*
G04 #@! TD*
D12*
G04 #@! TO.C,R17*
X91503500Y-102108000D03*
D11*
X91503500Y-94488000D03*
G04 #@! TD*
D13*
G04 #@! TO.C,TP1*
X250190000Y-120650000D03*
G04 #@! TD*
G04 #@! TO.C,TP2*
X250190000Y-69850000D03*
G04 #@! TD*
G04 #@! TO.C,TP3*
X250190000Y-125730000D03*
G04 #@! TD*
D10*
G04 #@! TO.C,U2*
X194945000Y-168275000D03*
X197485000Y-168275000D03*
X200025000Y-168275000D03*
X213360000Y-151130000D03*
X213360000Y-148590000D03*
X213360000Y-146050000D03*
X213360000Y-143510000D03*
X213360000Y-140970000D03*
X213360000Y-138430000D03*
X194945000Y-147320000D03*
X194945000Y-144780000D03*
X194945000Y-142240000D03*
G04 #@! TD*
G04 #@! TO.C,U3*
X164465000Y-168275000D03*
X167005000Y-168275000D03*
X169545000Y-168275000D03*
X182880000Y-151130000D03*
X182880000Y-148590000D03*
X182880000Y-146050000D03*
X182880000Y-143510000D03*
X182880000Y-140970000D03*
X182880000Y-138430000D03*
X164465000Y-147320000D03*
X164465000Y-144780000D03*
X164465000Y-142240000D03*
G04 #@! TD*
G04 #@! TO.C,U4*
X133985000Y-168275000D03*
X136525000Y-168275000D03*
X139065000Y-168275000D03*
X152400000Y-151130000D03*
X152400000Y-148590000D03*
X152400000Y-146050000D03*
X152400000Y-143510000D03*
X152400000Y-140970000D03*
X152400000Y-138430000D03*
X133985000Y-147320000D03*
X133985000Y-144780000D03*
X133985000Y-142240000D03*
G04 #@! TD*
G04 #@! TO.C,U5*
X103505000Y-142240000D03*
X103505000Y-144780000D03*
X103505000Y-147320000D03*
X121920000Y-138430000D03*
X121920000Y-140970000D03*
X121920000Y-143510000D03*
X121920000Y-146050000D03*
X121920000Y-148590000D03*
X121920000Y-151130000D03*
X108585000Y-168275000D03*
X106045000Y-168275000D03*
X103505000Y-168275000D03*
G04 #@! TD*
G04 #@! TO.C,U6*
X73025000Y-168275000D03*
X75565000Y-168275000D03*
X78105000Y-168275000D03*
X91440000Y-151130000D03*
X91440000Y-148590000D03*
X91440000Y-146050000D03*
X91440000Y-143510000D03*
X91440000Y-140970000D03*
X91440000Y-138430000D03*
X73025000Y-147320000D03*
X73025000Y-144780000D03*
X73025000Y-142240000D03*
G04 #@! TD*
G04 #@! TO.C,U7*
X42545000Y-142240000D03*
X42545000Y-144780000D03*
X42545000Y-147320000D03*
X60960000Y-138430000D03*
X60960000Y-140970000D03*
X60960000Y-143510000D03*
X60960000Y-146050000D03*
X60960000Y-148590000D03*
X60960000Y-151130000D03*
X47625000Y-168275000D03*
X45085000Y-168275000D03*
X42545000Y-168275000D03*
G04 #@! TD*
G04 #@! TO.C,U9*
X194945000Y-78740000D03*
X194945000Y-81280000D03*
X194945000Y-83820000D03*
X213360000Y-74930000D03*
X213360000Y-77470000D03*
X213360000Y-80010000D03*
X213360000Y-82550000D03*
X213360000Y-85090000D03*
X213360000Y-87630000D03*
X200025000Y-104775000D03*
X197485000Y-104775000D03*
X194945000Y-104775000D03*
G04 #@! TD*
G04 #@! TO.C,U10*
X164465000Y-78740000D03*
X164465000Y-81280000D03*
X164465000Y-83820000D03*
X182880000Y-74930000D03*
X182880000Y-77470000D03*
X182880000Y-80010000D03*
X182880000Y-82550000D03*
X182880000Y-85090000D03*
X182880000Y-87630000D03*
X169545000Y-104775000D03*
X167005000Y-104775000D03*
X164465000Y-104775000D03*
G04 #@! TD*
D14*
G04 #@! TO.C,C1*
X243800000Y-33020000D03*
D15*
X241300000Y-33020000D03*
G04 #@! TD*
G04 #@! TO.C,C2*
X228600000Y-33020000D03*
D14*
X231100000Y-33020000D03*
G04 #@! TD*
D16*
G04 #@! TO.C,J1*
X177800000Y-30480000D03*
D17*
X177800000Y-33020000D03*
X175260000Y-30480000D03*
X175260000Y-33020000D03*
X172720000Y-30480000D03*
X172720000Y-33020000D03*
X170180000Y-30480000D03*
X170180000Y-33020000D03*
X167640000Y-30480000D03*
X167640000Y-33020000D03*
X165100000Y-30480000D03*
X165100000Y-33020000D03*
X162560000Y-30480000D03*
X162560000Y-33020000D03*
X160020000Y-30480000D03*
X160020000Y-33020000D03*
X157480000Y-30480000D03*
X157480000Y-33020000D03*
X154940000Y-30480000D03*
X154940000Y-33020000D03*
X152400000Y-30480000D03*
X152400000Y-33020000D03*
X149860000Y-30480000D03*
X149860000Y-33020000D03*
X147320000Y-30480000D03*
X147320000Y-33020000D03*
X144780000Y-30480000D03*
X144780000Y-33020000D03*
X142240000Y-30480000D03*
X142240000Y-33020000D03*
X139700000Y-30480000D03*
X139700000Y-33020000D03*
X137160000Y-30480000D03*
X137160000Y-33020000D03*
X134620000Y-30480000D03*
X134620000Y-33020000D03*
X132080000Y-30480000D03*
X132080000Y-33020000D03*
X129540000Y-30480000D03*
X129540000Y-33020000D03*
X127000000Y-30480000D03*
X127000000Y-33020000D03*
X124460000Y-30480000D03*
X124460000Y-33020000D03*
X121920000Y-30480000D03*
X121920000Y-33020000D03*
X119380000Y-30480000D03*
X119380000Y-33020000D03*
X116840000Y-30480000D03*
X116840000Y-33020000D03*
X114300000Y-30480000D03*
X114300000Y-33020000D03*
X111760000Y-30480000D03*
X111760000Y-33020000D03*
X109220000Y-30480000D03*
X109220000Y-33020000D03*
X106680000Y-30480000D03*
X106680000Y-33020000D03*
X104140000Y-30480000D03*
X104140000Y-33020000D03*
X101600000Y-30480000D03*
X101600000Y-33020000D03*
X99060000Y-30480000D03*
X99060000Y-33020000D03*
D18*
X182880000Y-27940000D03*
X93980000Y-27940000D03*
G04 #@! TD*
M02*
