G04 #@! TF.GenerationSoftware,KiCad,Pcbnew,(5.0.0)*
G04 #@! TF.CreationDate,2019-01-17T20:46:19+00:00*
G04 #@! TF.ProjectId,A-FA,412D46412E6B696361645F7063620000,rev?*
G04 #@! TF.SameCoordinates,Original*
G04 #@! TF.FileFunction,Legend,Top*
G04 #@! TF.FilePolarity,Positive*
%FSLAX46Y46*%
G04 Gerber Fmt 4.6, Leading zero omitted, Abs format (unit mm)*
G04 Created by KiCad (PCBNEW (5.0.0)) date 01/17/19 20:46:19*
%MOMM*%
%LPD*%
G01*
G04 APERTURE LIST*
%ADD10C,0.300000*%
%ADD11C,0.150000*%
%ADD12C,0.120000*%
G04 APERTURE END LIST*
D10*
X32076571Y-38502166D02*
X38124190Y-38502166D01*
X30867047Y-42130738D02*
X35100380Y-29430738D01*
X39333714Y-42130738D01*
X43567047Y-37292642D02*
X53243238Y-37292642D01*
X63524190Y-35478357D02*
X59290857Y-35478357D01*
X59290857Y-42130738D02*
X59290857Y-29430738D01*
X65338476Y-29430738D01*
X69571809Y-38502166D02*
X75619428Y-38502166D01*
X68362285Y-42130738D02*
X72595619Y-29430738D01*
X76828952Y-42130738D01*
D11*
G04 #@! TO.C,U8*
X223520000Y-106680000D02*
X223520000Y-55880000D01*
X223520000Y-55880000D02*
X245745000Y-55880000D01*
X245745000Y-55880000D02*
X245745000Y-106680000D01*
X245745000Y-106680000D02*
X223520000Y-106680000D01*
G04 #@! TO.C,U1*
X245745000Y-170180000D02*
X223520000Y-170180000D01*
X245745000Y-119380000D02*
X245745000Y-170180000D01*
X223520000Y-119380000D02*
X245745000Y-119380000D01*
X223520000Y-170180000D02*
X223520000Y-119380000D01*
G04 #@! TO.C,U12*
X101600000Y-106680000D02*
X101600000Y-55880000D01*
X101600000Y-55880000D02*
X123825000Y-55880000D01*
X123825000Y-55880000D02*
X123825000Y-106680000D01*
X123825000Y-106680000D02*
X101600000Y-106680000D01*
G04 #@! TO.C,U11*
X154305000Y-106680000D02*
X132080000Y-106680000D01*
X154305000Y-55880000D02*
X154305000Y-106680000D01*
X132080000Y-55880000D02*
X154305000Y-55880000D01*
X132080000Y-106680000D02*
X132080000Y-55880000D01*
G04 #@! TO.C,U14*
X40640000Y-106680000D02*
X40640000Y-55880000D01*
X40640000Y-55880000D02*
X62865000Y-55880000D01*
X62865000Y-55880000D02*
X62865000Y-106680000D01*
X62865000Y-106680000D02*
X40640000Y-106680000D01*
G04 #@! TO.C,U13*
X93345000Y-106680000D02*
X71120000Y-106680000D01*
X93345000Y-55880000D02*
X93345000Y-106680000D01*
X71120000Y-55880000D02*
X93345000Y-55880000D01*
X71120000Y-106680000D02*
X71120000Y-55880000D01*
D12*
G04 #@! TO.C,R3*
X238346000Y-76756500D02*
X236506000Y-76756500D01*
X236506000Y-76756500D02*
X236506000Y-80596500D01*
X236506000Y-80596500D02*
X238346000Y-80596500D01*
X238346000Y-80596500D02*
X238346000Y-76756500D01*
X237426000Y-75806500D02*
X237426000Y-76756500D01*
X237426000Y-81546500D02*
X237426000Y-80596500D01*
G04 #@! TO.C,R4*
X146114000Y-76530000D02*
X146114000Y-75580000D01*
X146114000Y-70790000D02*
X146114000Y-71740000D01*
X147034000Y-75580000D02*
X147034000Y-71740000D01*
X145194000Y-75580000D02*
X147034000Y-75580000D01*
X145194000Y-71740000D02*
X145194000Y-75580000D01*
X147034000Y-71740000D02*
X145194000Y-71740000D01*
G04 #@! TO.C,R5*
X84930500Y-135240000D02*
X83090500Y-135240000D01*
X83090500Y-135240000D02*
X83090500Y-139080000D01*
X83090500Y-139080000D02*
X84930500Y-139080000D01*
X84930500Y-139080000D02*
X84930500Y-135240000D01*
X84010500Y-134290000D02*
X84010500Y-135240000D01*
X84010500Y-140030000D02*
X84010500Y-139080000D01*
G04 #@! TO.C,R6*
X114776000Y-135240000D02*
X112936000Y-135240000D01*
X112936000Y-135240000D02*
X112936000Y-139080000D01*
X112936000Y-139080000D02*
X114776000Y-139080000D01*
X114776000Y-139080000D02*
X114776000Y-135240000D01*
X113856000Y-134290000D02*
X113856000Y-135240000D01*
X113856000Y-140030000D02*
X113856000Y-139080000D01*
G04 #@! TO.C,R7*
X85692500Y-71676500D02*
X83852500Y-71676500D01*
X83852500Y-71676500D02*
X83852500Y-75516500D01*
X83852500Y-75516500D02*
X85692500Y-75516500D01*
X85692500Y-75516500D02*
X85692500Y-71676500D01*
X84772500Y-70726500D02*
X84772500Y-71676500D01*
X84772500Y-76466500D02*
X84772500Y-75516500D01*
G04 #@! TO.C,R8*
X54895000Y-71803500D02*
X53055000Y-71803500D01*
X53055000Y-71803500D02*
X53055000Y-75643500D01*
X53055000Y-75643500D02*
X54895000Y-75643500D01*
X54895000Y-75643500D02*
X54895000Y-71803500D01*
X53975000Y-70853500D02*
X53975000Y-71803500D01*
X53975000Y-76593500D02*
X53975000Y-75643500D01*
G04 #@! TO.C,R9*
X115918000Y-79360000D02*
X114078000Y-79360000D01*
X114078000Y-79360000D02*
X114078000Y-83200000D01*
X114078000Y-83200000D02*
X115918000Y-83200000D01*
X115918000Y-83200000D02*
X115918000Y-79360000D01*
X114998000Y-78410000D02*
X114998000Y-79360000D01*
X114998000Y-84150000D02*
X114998000Y-83200000D01*
G04 #@! TO.C,R10*
X147224000Y-89710500D02*
X145384000Y-89710500D01*
X145384000Y-89710500D02*
X145384000Y-93550500D01*
X145384000Y-93550500D02*
X147224000Y-93550500D01*
X147224000Y-93550500D02*
X147224000Y-89710500D01*
X146304000Y-88760500D02*
X146304000Y-89710500D01*
X146304000Y-94500500D02*
X146304000Y-93550500D01*
G04 #@! TO.C,R11*
X145593000Y-157924000D02*
X146543000Y-157924000D01*
X151333000Y-157924000D02*
X150383000Y-157924000D01*
X146543000Y-158844000D02*
X150383000Y-158844000D01*
X146543000Y-157004000D02*
X146543000Y-158844000D01*
X150383000Y-157004000D02*
X146543000Y-157004000D01*
X150383000Y-158844000D02*
X150383000Y-157004000D01*
G04 #@! TO.C,R12*
X113919000Y-156730000D02*
X113919000Y-155780000D01*
X113919000Y-150990000D02*
X113919000Y-151940000D01*
X114839000Y-155780000D02*
X114839000Y-151940000D01*
X112999000Y-155780000D02*
X114839000Y-155780000D01*
X112999000Y-151940000D02*
X112999000Y-155780000D01*
X114839000Y-151940000D02*
X112999000Y-151940000D01*
G04 #@! TO.C,R13*
X85692500Y-85075000D02*
X83852500Y-85075000D01*
X83852500Y-85075000D02*
X83852500Y-88915000D01*
X83852500Y-88915000D02*
X85692500Y-88915000D01*
X85692500Y-88915000D02*
X85692500Y-85075000D01*
X84772500Y-84125000D02*
X84772500Y-85075000D01*
X84772500Y-89865000D02*
X84772500Y-88915000D01*
G04 #@! TO.C,R14*
X144716000Y-150190000D02*
X144716000Y-149240000D01*
X144716000Y-144450000D02*
X144716000Y-145400000D01*
X145636000Y-149240000D02*
X145636000Y-145400000D01*
X143796000Y-149240000D02*
X145636000Y-149240000D01*
X143796000Y-145400000D02*
X143796000Y-149240000D01*
X145636000Y-145400000D02*
X143796000Y-145400000D01*
G04 #@! TO.C,R15*
X87947500Y-136957000D02*
X87947500Y-137907000D01*
X87947500Y-142697000D02*
X87947500Y-141747000D01*
X87027500Y-137907000D02*
X87027500Y-141747000D01*
X88867500Y-137907000D02*
X87027500Y-137907000D01*
X88867500Y-141747000D02*
X88867500Y-137907000D01*
X87027500Y-141747000D02*
X88867500Y-141747000D01*
G04 #@! TO.C,R16*
X53975000Y-89865000D02*
X53975000Y-88915000D01*
X53975000Y-84125000D02*
X53975000Y-85075000D01*
X54895000Y-88915000D02*
X54895000Y-85075000D01*
X53055000Y-88915000D02*
X54895000Y-88915000D01*
X53055000Y-85075000D02*
X53055000Y-88915000D01*
X54895000Y-85075000D02*
X53055000Y-85075000D01*
G04 #@! TO.C,R17*
X91503500Y-101168000D02*
X91503500Y-100218000D01*
X91503500Y-95428000D02*
X91503500Y-96378000D01*
X92423500Y-100218000D02*
X92423500Y-96378000D01*
X90583500Y-100218000D02*
X92423500Y-100218000D01*
X90583500Y-96378000D02*
X90583500Y-100218000D01*
X92423500Y-96378000D02*
X90583500Y-96378000D01*
G04 #@! TO.C,TP1*
X251441000Y-120650000D02*
G75*
G03X251441000Y-120650000I-1251000J0D01*
G01*
G04 #@! TO.C,TP2*
X251441000Y-69850000D02*
G75*
G03X251441000Y-69850000I-1251000J0D01*
G01*
G04 #@! TO.C,TP3*
X251441000Y-125730000D02*
G75*
G03X251441000Y-125730000I-1251000J0D01*
G01*
D11*
G04 #@! TO.C,U2*
X193040000Y-170180000D02*
X193040000Y-119380000D01*
X193040000Y-119380000D02*
X215265000Y-119380000D01*
X215265000Y-119380000D02*
X215265000Y-170180000D01*
X215265000Y-170180000D02*
X193040000Y-170180000D01*
G04 #@! TO.C,U3*
X162560000Y-170180000D02*
X162560000Y-119380000D01*
X162560000Y-119380000D02*
X184785000Y-119380000D01*
X184785000Y-119380000D02*
X184785000Y-170180000D01*
X184785000Y-170180000D02*
X162560000Y-170180000D01*
G04 #@! TO.C,U4*
X132080000Y-170180000D02*
X132080000Y-119380000D01*
X132080000Y-119380000D02*
X154305000Y-119380000D01*
X154305000Y-119380000D02*
X154305000Y-170180000D01*
X154305000Y-170180000D02*
X132080000Y-170180000D01*
G04 #@! TO.C,U5*
X123825000Y-170180000D02*
X101600000Y-170180000D01*
X123825000Y-119380000D02*
X123825000Y-170180000D01*
X101600000Y-119380000D02*
X123825000Y-119380000D01*
X101600000Y-170180000D02*
X101600000Y-119380000D01*
G04 #@! TO.C,U6*
X71120000Y-170180000D02*
X71120000Y-119380000D01*
X71120000Y-119380000D02*
X93345000Y-119380000D01*
X93345000Y-119380000D02*
X93345000Y-170180000D01*
X93345000Y-170180000D02*
X71120000Y-170180000D01*
G04 #@! TO.C,U7*
X62865000Y-170180000D02*
X40640000Y-170180000D01*
X62865000Y-119380000D02*
X62865000Y-170180000D01*
X40640000Y-119380000D02*
X62865000Y-119380000D01*
X40640000Y-170180000D02*
X40640000Y-119380000D01*
G04 #@! TO.C,U9*
X215265000Y-106680000D02*
X193040000Y-106680000D01*
X215265000Y-55880000D02*
X215265000Y-106680000D01*
X193040000Y-55880000D02*
X215265000Y-55880000D01*
X193040000Y-106680000D02*
X193040000Y-55880000D01*
G04 #@! TO.C,U10*
X184785000Y-106680000D02*
X162560000Y-106680000D01*
X184785000Y-55880000D02*
X184785000Y-106680000D01*
X162560000Y-55880000D02*
X184785000Y-55880000D01*
X162560000Y-106680000D02*
X162560000Y-55880000D01*
D12*
G04 #@! TO.C,C1*
X238540302Y-30305000D02*
X238540302Y-31105000D01*
X238140302Y-30705000D02*
X238940302Y-30705000D01*
X246631000Y-32487000D02*
X246631000Y-33553000D01*
X246591000Y-32252000D02*
X246591000Y-33788000D01*
X246551000Y-32072000D02*
X246551000Y-33968000D01*
X246511000Y-31922000D02*
X246511000Y-34118000D01*
X246471000Y-31791000D02*
X246471000Y-34249000D01*
X246431000Y-31674000D02*
X246431000Y-34366000D01*
X246391000Y-31567000D02*
X246391000Y-34473000D01*
X246351000Y-31468000D02*
X246351000Y-34572000D01*
X246311000Y-31375000D02*
X246311000Y-34665000D01*
X246271000Y-31289000D02*
X246271000Y-34751000D01*
X246231000Y-31207000D02*
X246231000Y-34833000D01*
X246191000Y-31130000D02*
X246191000Y-34910000D01*
X246151000Y-31056000D02*
X246151000Y-34984000D01*
X246111000Y-30986000D02*
X246111000Y-35054000D01*
X246071000Y-30918000D02*
X246071000Y-35122000D01*
X246031000Y-30854000D02*
X246031000Y-35186000D01*
X245991000Y-30792000D02*
X245991000Y-35248000D01*
X245951000Y-30733000D02*
X245951000Y-35307000D01*
X245911000Y-30675000D02*
X245911000Y-35365000D01*
X245871000Y-30620000D02*
X245871000Y-35420000D01*
X245831000Y-30566000D02*
X245831000Y-35474000D01*
X245791000Y-30515000D02*
X245791000Y-35525000D01*
X245751000Y-30464000D02*
X245751000Y-35576000D01*
X245711000Y-30416000D02*
X245711000Y-35624000D01*
X245671000Y-30369000D02*
X245671000Y-35671000D01*
X245631000Y-30323000D02*
X245631000Y-35717000D01*
X245591000Y-30279000D02*
X245591000Y-35761000D01*
X245551000Y-30236000D02*
X245551000Y-35804000D01*
X245511000Y-30194000D02*
X245511000Y-35846000D01*
X245471000Y-30153000D02*
X245471000Y-35887000D01*
X245431000Y-30113000D02*
X245431000Y-35927000D01*
X245391000Y-30075000D02*
X245391000Y-35965000D01*
X245351000Y-30037000D02*
X245351000Y-36003000D01*
X245311000Y-30001000D02*
X245311000Y-36039000D01*
X245271000Y-29965000D02*
X245271000Y-36075000D01*
X245231000Y-29930000D02*
X245231000Y-36110000D01*
X245191000Y-29896000D02*
X245191000Y-36144000D01*
X245151000Y-29864000D02*
X245151000Y-36176000D01*
X245111000Y-29831000D02*
X245111000Y-36209000D01*
X245071000Y-29800000D02*
X245071000Y-36240000D01*
X245031000Y-29770000D02*
X245031000Y-36270000D01*
X244991000Y-29740000D02*
X244991000Y-36300000D01*
X244951000Y-29711000D02*
X244951000Y-36329000D01*
X244911000Y-29682000D02*
X244911000Y-36358000D01*
X244871000Y-29655000D02*
X244871000Y-36385000D01*
X244831000Y-34060000D02*
X244831000Y-36412000D01*
X244831000Y-29628000D02*
X244831000Y-31980000D01*
X244791000Y-34060000D02*
X244791000Y-36438000D01*
X244791000Y-29602000D02*
X244791000Y-31980000D01*
X244751000Y-34060000D02*
X244751000Y-36464000D01*
X244751000Y-29576000D02*
X244751000Y-31980000D01*
X244711000Y-34060000D02*
X244711000Y-36489000D01*
X244711000Y-29551000D02*
X244711000Y-31980000D01*
X244671000Y-34060000D02*
X244671000Y-36513000D01*
X244671000Y-29527000D02*
X244671000Y-31980000D01*
X244631000Y-34060000D02*
X244631000Y-36537000D01*
X244631000Y-29503000D02*
X244631000Y-31980000D01*
X244591000Y-34060000D02*
X244591000Y-36560000D01*
X244591000Y-29480000D02*
X244591000Y-31980000D01*
X244551000Y-34060000D02*
X244551000Y-36582000D01*
X244551000Y-29458000D02*
X244551000Y-31980000D01*
X244511000Y-34060000D02*
X244511000Y-36604000D01*
X244511000Y-29436000D02*
X244511000Y-31980000D01*
X244471000Y-34060000D02*
X244471000Y-36626000D01*
X244471000Y-29414000D02*
X244471000Y-31980000D01*
X244431000Y-34060000D02*
X244431000Y-36647000D01*
X244431000Y-29393000D02*
X244431000Y-31980000D01*
X244391000Y-34060000D02*
X244391000Y-36667000D01*
X244391000Y-29373000D02*
X244391000Y-31980000D01*
X244351000Y-34060000D02*
X244351000Y-36686000D01*
X244351000Y-29354000D02*
X244351000Y-31980000D01*
X244311000Y-34060000D02*
X244311000Y-36706000D01*
X244311000Y-29334000D02*
X244311000Y-31980000D01*
X244271000Y-34060000D02*
X244271000Y-36724000D01*
X244271000Y-29316000D02*
X244271000Y-31980000D01*
X244231000Y-34060000D02*
X244231000Y-36742000D01*
X244231000Y-29298000D02*
X244231000Y-31980000D01*
X244191000Y-34060000D02*
X244191000Y-36760000D01*
X244191000Y-29280000D02*
X244191000Y-31980000D01*
X244151000Y-34060000D02*
X244151000Y-36777000D01*
X244151000Y-29263000D02*
X244151000Y-31980000D01*
X244111000Y-34060000D02*
X244111000Y-36794000D01*
X244111000Y-29246000D02*
X244111000Y-31980000D01*
X244071000Y-34060000D02*
X244071000Y-36810000D01*
X244071000Y-29230000D02*
X244071000Y-31980000D01*
X244031000Y-34060000D02*
X244031000Y-36825000D01*
X244031000Y-29215000D02*
X244031000Y-31980000D01*
X243991000Y-34060000D02*
X243991000Y-36841000D01*
X243991000Y-29199000D02*
X243991000Y-31980000D01*
X243951000Y-34060000D02*
X243951000Y-36855000D01*
X243951000Y-29185000D02*
X243951000Y-31980000D01*
X243911000Y-34060000D02*
X243911000Y-36870000D01*
X243911000Y-29170000D02*
X243911000Y-31980000D01*
X243871000Y-34060000D02*
X243871000Y-36883000D01*
X243871000Y-29157000D02*
X243871000Y-31980000D01*
X243831000Y-34060000D02*
X243831000Y-36897000D01*
X243831000Y-29143000D02*
X243831000Y-31980000D01*
X243791000Y-34060000D02*
X243791000Y-36909000D01*
X243791000Y-29131000D02*
X243791000Y-31980000D01*
X243751000Y-34060000D02*
X243751000Y-36922000D01*
X243751000Y-29118000D02*
X243751000Y-31980000D01*
X243711000Y-34060000D02*
X243711000Y-36934000D01*
X243711000Y-29106000D02*
X243711000Y-31980000D01*
X243671000Y-34060000D02*
X243671000Y-36945000D01*
X243671000Y-29095000D02*
X243671000Y-31980000D01*
X243631000Y-34060000D02*
X243631000Y-36956000D01*
X243631000Y-29084000D02*
X243631000Y-31980000D01*
X243591000Y-34060000D02*
X243591000Y-36967000D01*
X243591000Y-29073000D02*
X243591000Y-31980000D01*
X243551000Y-34060000D02*
X243551000Y-36977000D01*
X243551000Y-29063000D02*
X243551000Y-31980000D01*
X243511000Y-34060000D02*
X243511000Y-36987000D01*
X243511000Y-29053000D02*
X243511000Y-31980000D01*
X243471000Y-34060000D02*
X243471000Y-36996000D01*
X243471000Y-29044000D02*
X243471000Y-31980000D01*
X243431000Y-34060000D02*
X243431000Y-37005000D01*
X243431000Y-29035000D02*
X243431000Y-31980000D01*
X243391000Y-34060000D02*
X243391000Y-37014000D01*
X243391000Y-29026000D02*
X243391000Y-31980000D01*
X243351000Y-34060000D02*
X243351000Y-37022000D01*
X243351000Y-29018000D02*
X243351000Y-31980000D01*
X243311000Y-34060000D02*
X243311000Y-37030000D01*
X243311000Y-29010000D02*
X243311000Y-31980000D01*
X243271000Y-34060000D02*
X243271000Y-37037000D01*
X243271000Y-29003000D02*
X243271000Y-31980000D01*
X243230000Y-34060000D02*
X243230000Y-37044000D01*
X243230000Y-28996000D02*
X243230000Y-31980000D01*
X243190000Y-34060000D02*
X243190000Y-37050000D01*
X243190000Y-28990000D02*
X243190000Y-31980000D01*
X243150000Y-34060000D02*
X243150000Y-37057000D01*
X243150000Y-28983000D02*
X243150000Y-31980000D01*
X243110000Y-34060000D02*
X243110000Y-37062000D01*
X243110000Y-28978000D02*
X243110000Y-31980000D01*
X243070000Y-34060000D02*
X243070000Y-37068000D01*
X243070000Y-28972000D02*
X243070000Y-31980000D01*
X243030000Y-34060000D02*
X243030000Y-37072000D01*
X243030000Y-28968000D02*
X243030000Y-31980000D01*
X242990000Y-34060000D02*
X242990000Y-37077000D01*
X242990000Y-28963000D02*
X242990000Y-31980000D01*
X242950000Y-34060000D02*
X242950000Y-37081000D01*
X242950000Y-28959000D02*
X242950000Y-31980000D01*
X242910000Y-34060000D02*
X242910000Y-37085000D01*
X242910000Y-28955000D02*
X242910000Y-31980000D01*
X242870000Y-34060000D02*
X242870000Y-37088000D01*
X242870000Y-28952000D02*
X242870000Y-31980000D01*
X242830000Y-34060000D02*
X242830000Y-37091000D01*
X242830000Y-28949000D02*
X242830000Y-31980000D01*
X242790000Y-34060000D02*
X242790000Y-37094000D01*
X242790000Y-28946000D02*
X242790000Y-31980000D01*
X242750000Y-28944000D02*
X242750000Y-37096000D01*
X242710000Y-28943000D02*
X242710000Y-37097000D01*
X242670000Y-28941000D02*
X242670000Y-37099000D01*
X242630000Y-28940000D02*
X242630000Y-37100000D01*
X242590000Y-28940000D02*
X242590000Y-37100000D01*
X242550000Y-28940000D02*
X242550000Y-37100000D01*
X246670000Y-33020000D02*
G75*
G03X246670000Y-33020000I-4120000J0D01*
G01*
G04 #@! TO.C,C2*
X233970000Y-33020000D02*
G75*
G03X233970000Y-33020000I-4120000J0D01*
G01*
X229850000Y-28940000D02*
X229850000Y-37100000D01*
X229890000Y-28940000D02*
X229890000Y-37100000D01*
X229930000Y-28940000D02*
X229930000Y-37100000D01*
X229970000Y-28941000D02*
X229970000Y-37099000D01*
X230010000Y-28943000D02*
X230010000Y-37097000D01*
X230050000Y-28944000D02*
X230050000Y-37096000D01*
X230090000Y-28946000D02*
X230090000Y-31980000D01*
X230090000Y-34060000D02*
X230090000Y-37094000D01*
X230130000Y-28949000D02*
X230130000Y-31980000D01*
X230130000Y-34060000D02*
X230130000Y-37091000D01*
X230170000Y-28952000D02*
X230170000Y-31980000D01*
X230170000Y-34060000D02*
X230170000Y-37088000D01*
X230210000Y-28955000D02*
X230210000Y-31980000D01*
X230210000Y-34060000D02*
X230210000Y-37085000D01*
X230250000Y-28959000D02*
X230250000Y-31980000D01*
X230250000Y-34060000D02*
X230250000Y-37081000D01*
X230290000Y-28963000D02*
X230290000Y-31980000D01*
X230290000Y-34060000D02*
X230290000Y-37077000D01*
X230330000Y-28968000D02*
X230330000Y-31980000D01*
X230330000Y-34060000D02*
X230330000Y-37072000D01*
X230370000Y-28972000D02*
X230370000Y-31980000D01*
X230370000Y-34060000D02*
X230370000Y-37068000D01*
X230410000Y-28978000D02*
X230410000Y-31980000D01*
X230410000Y-34060000D02*
X230410000Y-37062000D01*
X230450000Y-28983000D02*
X230450000Y-31980000D01*
X230450000Y-34060000D02*
X230450000Y-37057000D01*
X230490000Y-28990000D02*
X230490000Y-31980000D01*
X230490000Y-34060000D02*
X230490000Y-37050000D01*
X230530000Y-28996000D02*
X230530000Y-31980000D01*
X230530000Y-34060000D02*
X230530000Y-37044000D01*
X230571000Y-29003000D02*
X230571000Y-31980000D01*
X230571000Y-34060000D02*
X230571000Y-37037000D01*
X230611000Y-29010000D02*
X230611000Y-31980000D01*
X230611000Y-34060000D02*
X230611000Y-37030000D01*
X230651000Y-29018000D02*
X230651000Y-31980000D01*
X230651000Y-34060000D02*
X230651000Y-37022000D01*
X230691000Y-29026000D02*
X230691000Y-31980000D01*
X230691000Y-34060000D02*
X230691000Y-37014000D01*
X230731000Y-29035000D02*
X230731000Y-31980000D01*
X230731000Y-34060000D02*
X230731000Y-37005000D01*
X230771000Y-29044000D02*
X230771000Y-31980000D01*
X230771000Y-34060000D02*
X230771000Y-36996000D01*
X230811000Y-29053000D02*
X230811000Y-31980000D01*
X230811000Y-34060000D02*
X230811000Y-36987000D01*
X230851000Y-29063000D02*
X230851000Y-31980000D01*
X230851000Y-34060000D02*
X230851000Y-36977000D01*
X230891000Y-29073000D02*
X230891000Y-31980000D01*
X230891000Y-34060000D02*
X230891000Y-36967000D01*
X230931000Y-29084000D02*
X230931000Y-31980000D01*
X230931000Y-34060000D02*
X230931000Y-36956000D01*
X230971000Y-29095000D02*
X230971000Y-31980000D01*
X230971000Y-34060000D02*
X230971000Y-36945000D01*
X231011000Y-29106000D02*
X231011000Y-31980000D01*
X231011000Y-34060000D02*
X231011000Y-36934000D01*
X231051000Y-29118000D02*
X231051000Y-31980000D01*
X231051000Y-34060000D02*
X231051000Y-36922000D01*
X231091000Y-29131000D02*
X231091000Y-31980000D01*
X231091000Y-34060000D02*
X231091000Y-36909000D01*
X231131000Y-29143000D02*
X231131000Y-31980000D01*
X231131000Y-34060000D02*
X231131000Y-36897000D01*
X231171000Y-29157000D02*
X231171000Y-31980000D01*
X231171000Y-34060000D02*
X231171000Y-36883000D01*
X231211000Y-29170000D02*
X231211000Y-31980000D01*
X231211000Y-34060000D02*
X231211000Y-36870000D01*
X231251000Y-29185000D02*
X231251000Y-31980000D01*
X231251000Y-34060000D02*
X231251000Y-36855000D01*
X231291000Y-29199000D02*
X231291000Y-31980000D01*
X231291000Y-34060000D02*
X231291000Y-36841000D01*
X231331000Y-29215000D02*
X231331000Y-31980000D01*
X231331000Y-34060000D02*
X231331000Y-36825000D01*
X231371000Y-29230000D02*
X231371000Y-31980000D01*
X231371000Y-34060000D02*
X231371000Y-36810000D01*
X231411000Y-29246000D02*
X231411000Y-31980000D01*
X231411000Y-34060000D02*
X231411000Y-36794000D01*
X231451000Y-29263000D02*
X231451000Y-31980000D01*
X231451000Y-34060000D02*
X231451000Y-36777000D01*
X231491000Y-29280000D02*
X231491000Y-31980000D01*
X231491000Y-34060000D02*
X231491000Y-36760000D01*
X231531000Y-29298000D02*
X231531000Y-31980000D01*
X231531000Y-34060000D02*
X231531000Y-36742000D01*
X231571000Y-29316000D02*
X231571000Y-31980000D01*
X231571000Y-34060000D02*
X231571000Y-36724000D01*
X231611000Y-29334000D02*
X231611000Y-31980000D01*
X231611000Y-34060000D02*
X231611000Y-36706000D01*
X231651000Y-29354000D02*
X231651000Y-31980000D01*
X231651000Y-34060000D02*
X231651000Y-36686000D01*
X231691000Y-29373000D02*
X231691000Y-31980000D01*
X231691000Y-34060000D02*
X231691000Y-36667000D01*
X231731000Y-29393000D02*
X231731000Y-31980000D01*
X231731000Y-34060000D02*
X231731000Y-36647000D01*
X231771000Y-29414000D02*
X231771000Y-31980000D01*
X231771000Y-34060000D02*
X231771000Y-36626000D01*
X231811000Y-29436000D02*
X231811000Y-31980000D01*
X231811000Y-34060000D02*
X231811000Y-36604000D01*
X231851000Y-29458000D02*
X231851000Y-31980000D01*
X231851000Y-34060000D02*
X231851000Y-36582000D01*
X231891000Y-29480000D02*
X231891000Y-31980000D01*
X231891000Y-34060000D02*
X231891000Y-36560000D01*
X231931000Y-29503000D02*
X231931000Y-31980000D01*
X231931000Y-34060000D02*
X231931000Y-36537000D01*
X231971000Y-29527000D02*
X231971000Y-31980000D01*
X231971000Y-34060000D02*
X231971000Y-36513000D01*
X232011000Y-29551000D02*
X232011000Y-31980000D01*
X232011000Y-34060000D02*
X232011000Y-36489000D01*
X232051000Y-29576000D02*
X232051000Y-31980000D01*
X232051000Y-34060000D02*
X232051000Y-36464000D01*
X232091000Y-29602000D02*
X232091000Y-31980000D01*
X232091000Y-34060000D02*
X232091000Y-36438000D01*
X232131000Y-29628000D02*
X232131000Y-31980000D01*
X232131000Y-34060000D02*
X232131000Y-36412000D01*
X232171000Y-29655000D02*
X232171000Y-36385000D01*
X232211000Y-29682000D02*
X232211000Y-36358000D01*
X232251000Y-29711000D02*
X232251000Y-36329000D01*
X232291000Y-29740000D02*
X232291000Y-36300000D01*
X232331000Y-29770000D02*
X232331000Y-36270000D01*
X232371000Y-29800000D02*
X232371000Y-36240000D01*
X232411000Y-29831000D02*
X232411000Y-36209000D01*
X232451000Y-29864000D02*
X232451000Y-36176000D01*
X232491000Y-29896000D02*
X232491000Y-36144000D01*
X232531000Y-29930000D02*
X232531000Y-36110000D01*
X232571000Y-29965000D02*
X232571000Y-36075000D01*
X232611000Y-30001000D02*
X232611000Y-36039000D01*
X232651000Y-30037000D02*
X232651000Y-36003000D01*
X232691000Y-30075000D02*
X232691000Y-35965000D01*
X232731000Y-30113000D02*
X232731000Y-35927000D01*
X232771000Y-30153000D02*
X232771000Y-35887000D01*
X232811000Y-30194000D02*
X232811000Y-35846000D01*
X232851000Y-30236000D02*
X232851000Y-35804000D01*
X232891000Y-30279000D02*
X232891000Y-35761000D01*
X232931000Y-30323000D02*
X232931000Y-35717000D01*
X232971000Y-30369000D02*
X232971000Y-35671000D01*
X233011000Y-30416000D02*
X233011000Y-35624000D01*
X233051000Y-30464000D02*
X233051000Y-35576000D01*
X233091000Y-30515000D02*
X233091000Y-35525000D01*
X233131000Y-30566000D02*
X233131000Y-35474000D01*
X233171000Y-30620000D02*
X233171000Y-35420000D01*
X233211000Y-30675000D02*
X233211000Y-35365000D01*
X233251000Y-30733000D02*
X233251000Y-35307000D01*
X233291000Y-30792000D02*
X233291000Y-35248000D01*
X233331000Y-30854000D02*
X233331000Y-35186000D01*
X233371000Y-30918000D02*
X233371000Y-35122000D01*
X233411000Y-30986000D02*
X233411000Y-35054000D01*
X233451000Y-31056000D02*
X233451000Y-34984000D01*
X233491000Y-31130000D02*
X233491000Y-34910000D01*
X233531000Y-31207000D02*
X233531000Y-34833000D01*
X233571000Y-31289000D02*
X233571000Y-34751000D01*
X233611000Y-31375000D02*
X233611000Y-34665000D01*
X233651000Y-31468000D02*
X233651000Y-34572000D01*
X233691000Y-31567000D02*
X233691000Y-34473000D01*
X233731000Y-31674000D02*
X233731000Y-34366000D01*
X233771000Y-31791000D02*
X233771000Y-34249000D01*
X233811000Y-31922000D02*
X233811000Y-34118000D01*
X233851000Y-32072000D02*
X233851000Y-33968000D01*
X233891000Y-32252000D02*
X233891000Y-33788000D01*
X233931000Y-32487000D02*
X233931000Y-33553000D01*
X225440302Y-30705000D02*
X226240302Y-30705000D01*
X225840302Y-30305000D02*
X225840302Y-31105000D01*
G04 #@! TO.C,U8*
D11*
X228552380Y-102361904D02*
X229361904Y-102361904D01*
X229457142Y-102314285D01*
X229504761Y-102266666D01*
X229552380Y-102171428D01*
X229552380Y-101980952D01*
X229504761Y-101885714D01*
X229457142Y-101838095D01*
X229361904Y-101790476D01*
X228552380Y-101790476D01*
X228980952Y-101171428D02*
X228933333Y-101266666D01*
X228885714Y-101314285D01*
X228790476Y-101361904D01*
X228742857Y-101361904D01*
X228647619Y-101314285D01*
X228600000Y-101266666D01*
X228552380Y-101171428D01*
X228552380Y-100980952D01*
X228600000Y-100885714D01*
X228647619Y-100838095D01*
X228742857Y-100790476D01*
X228790476Y-100790476D01*
X228885714Y-100838095D01*
X228933333Y-100885714D01*
X228980952Y-100980952D01*
X228980952Y-101171428D01*
X229028571Y-101266666D01*
X229076190Y-101314285D01*
X229171428Y-101361904D01*
X229361904Y-101361904D01*
X229457142Y-101314285D01*
X229504761Y-101266666D01*
X229552380Y-101171428D01*
X229552380Y-100980952D01*
X229504761Y-100885714D01*
X229457142Y-100838095D01*
X229361904Y-100790476D01*
X229171428Y-100790476D01*
X229076190Y-100838095D01*
X229028571Y-100885714D01*
X228980952Y-100980952D01*
G04 #@! TO.C,U1*
X228552380Y-165861904D02*
X229361904Y-165861904D01*
X229457142Y-165814285D01*
X229504761Y-165766666D01*
X229552380Y-165671428D01*
X229552380Y-165480952D01*
X229504761Y-165385714D01*
X229457142Y-165338095D01*
X229361904Y-165290476D01*
X228552380Y-165290476D01*
X229552380Y-164290476D02*
X229552380Y-164861904D01*
X229552380Y-164576190D02*
X228552380Y-164576190D01*
X228695238Y-164671428D01*
X228790476Y-164766666D01*
X228838095Y-164861904D01*
G04 #@! TO.C,U12*
X106632380Y-102838095D02*
X107441904Y-102838095D01*
X107537142Y-102790476D01*
X107584761Y-102742857D01*
X107632380Y-102647619D01*
X107632380Y-102457142D01*
X107584761Y-102361904D01*
X107537142Y-102314285D01*
X107441904Y-102266666D01*
X106632380Y-102266666D01*
X107632380Y-101266666D02*
X107632380Y-101838095D01*
X107632380Y-101552380D02*
X106632380Y-101552380D01*
X106775238Y-101647619D01*
X106870476Y-101742857D01*
X106918095Y-101838095D01*
X106727619Y-100885714D02*
X106680000Y-100838095D01*
X106632380Y-100742857D01*
X106632380Y-100504761D01*
X106680000Y-100409523D01*
X106727619Y-100361904D01*
X106822857Y-100314285D01*
X106918095Y-100314285D01*
X107060952Y-100361904D01*
X107632380Y-100933333D01*
X107632380Y-100314285D01*
G04 #@! TO.C,U11*
X137112380Y-102838095D02*
X137921904Y-102838095D01*
X138017142Y-102790476D01*
X138064761Y-102742857D01*
X138112380Y-102647619D01*
X138112380Y-102457142D01*
X138064761Y-102361904D01*
X138017142Y-102314285D01*
X137921904Y-102266666D01*
X137112380Y-102266666D01*
X138112380Y-101266666D02*
X138112380Y-101838095D01*
X138112380Y-101552380D02*
X137112380Y-101552380D01*
X137255238Y-101647619D01*
X137350476Y-101742857D01*
X137398095Y-101838095D01*
X138112380Y-100314285D02*
X138112380Y-100885714D01*
X138112380Y-100600000D02*
X137112380Y-100600000D01*
X137255238Y-100695238D01*
X137350476Y-100790476D01*
X137398095Y-100885714D01*
G04 #@! TO.C,U14*
X45672380Y-102838095D02*
X46481904Y-102838095D01*
X46577142Y-102790476D01*
X46624761Y-102742857D01*
X46672380Y-102647619D01*
X46672380Y-102457142D01*
X46624761Y-102361904D01*
X46577142Y-102314285D01*
X46481904Y-102266666D01*
X45672380Y-102266666D01*
X46672380Y-101266666D02*
X46672380Y-101838095D01*
X46672380Y-101552380D02*
X45672380Y-101552380D01*
X45815238Y-101647619D01*
X45910476Y-101742857D01*
X45958095Y-101838095D01*
X46005714Y-100409523D02*
X46672380Y-100409523D01*
X45624761Y-100647619D02*
X46339047Y-100885714D01*
X46339047Y-100266666D01*
G04 #@! TO.C,U13*
X76152380Y-102838095D02*
X76961904Y-102838095D01*
X77057142Y-102790476D01*
X77104761Y-102742857D01*
X77152380Y-102647619D01*
X77152380Y-102457142D01*
X77104761Y-102361904D01*
X77057142Y-102314285D01*
X76961904Y-102266666D01*
X76152380Y-102266666D01*
X77152380Y-101266666D02*
X77152380Y-101838095D01*
X77152380Y-101552380D02*
X76152380Y-101552380D01*
X76295238Y-101647619D01*
X76390476Y-101742857D01*
X76438095Y-101838095D01*
X76152380Y-100933333D02*
X76152380Y-100314285D01*
X76533333Y-100647619D01*
X76533333Y-100504761D01*
X76580952Y-100409523D01*
X76628571Y-100361904D01*
X76723809Y-100314285D01*
X76961904Y-100314285D01*
X77057142Y-100361904D01*
X77104761Y-100409523D01*
X77152380Y-100504761D01*
X77152380Y-100790476D01*
X77104761Y-100885714D01*
X77057142Y-100933333D01*
G04 #@! TO.C,R3*
X239798380Y-78843166D02*
X239322190Y-79176500D01*
X239798380Y-79414595D02*
X238798380Y-79414595D01*
X238798380Y-79033642D01*
X238846000Y-78938404D01*
X238893619Y-78890785D01*
X238988857Y-78843166D01*
X239131714Y-78843166D01*
X239226952Y-78890785D01*
X239274571Y-78938404D01*
X239322190Y-79033642D01*
X239322190Y-79414595D01*
X238798380Y-78509833D02*
X238798380Y-77890785D01*
X239179333Y-78224119D01*
X239179333Y-78081261D01*
X239226952Y-77986023D01*
X239274571Y-77938404D01*
X239369809Y-77890785D01*
X239607904Y-77890785D01*
X239703142Y-77938404D01*
X239750761Y-77986023D01*
X239798380Y-78081261D01*
X239798380Y-78366976D01*
X239750761Y-78462214D01*
X239703142Y-78509833D01*
G04 #@! TO.C,R4*
X148486380Y-73826666D02*
X148010190Y-74160000D01*
X148486380Y-74398095D02*
X147486380Y-74398095D01*
X147486380Y-74017142D01*
X147534000Y-73921904D01*
X147581619Y-73874285D01*
X147676857Y-73826666D01*
X147819714Y-73826666D01*
X147914952Y-73874285D01*
X147962571Y-73921904D01*
X148010190Y-74017142D01*
X148010190Y-74398095D01*
X147819714Y-72969523D02*
X148486380Y-72969523D01*
X147438761Y-73207619D02*
X148153047Y-73445714D01*
X148153047Y-72826666D01*
G04 #@! TO.C,R5*
X86382880Y-137326666D02*
X85906690Y-137660000D01*
X86382880Y-137898095D02*
X85382880Y-137898095D01*
X85382880Y-137517142D01*
X85430500Y-137421904D01*
X85478119Y-137374285D01*
X85573357Y-137326666D01*
X85716214Y-137326666D01*
X85811452Y-137374285D01*
X85859071Y-137421904D01*
X85906690Y-137517142D01*
X85906690Y-137898095D01*
X85382880Y-136421904D02*
X85382880Y-136898095D01*
X85859071Y-136945714D01*
X85811452Y-136898095D01*
X85763833Y-136802857D01*
X85763833Y-136564761D01*
X85811452Y-136469523D01*
X85859071Y-136421904D01*
X85954309Y-136374285D01*
X86192404Y-136374285D01*
X86287642Y-136421904D01*
X86335261Y-136469523D01*
X86382880Y-136564761D01*
X86382880Y-136802857D01*
X86335261Y-136898095D01*
X86287642Y-136945714D01*
G04 #@! TO.C,R6*
X116228380Y-137326666D02*
X115752190Y-137660000D01*
X116228380Y-137898095D02*
X115228380Y-137898095D01*
X115228380Y-137517142D01*
X115276000Y-137421904D01*
X115323619Y-137374285D01*
X115418857Y-137326666D01*
X115561714Y-137326666D01*
X115656952Y-137374285D01*
X115704571Y-137421904D01*
X115752190Y-137517142D01*
X115752190Y-137898095D01*
X115228380Y-136469523D02*
X115228380Y-136660000D01*
X115276000Y-136755238D01*
X115323619Y-136802857D01*
X115466476Y-136898095D01*
X115656952Y-136945714D01*
X116037904Y-136945714D01*
X116133142Y-136898095D01*
X116180761Y-136850476D01*
X116228380Y-136755238D01*
X116228380Y-136564761D01*
X116180761Y-136469523D01*
X116133142Y-136421904D01*
X116037904Y-136374285D01*
X115799809Y-136374285D01*
X115704571Y-136421904D01*
X115656952Y-136469523D01*
X115609333Y-136564761D01*
X115609333Y-136755238D01*
X115656952Y-136850476D01*
X115704571Y-136898095D01*
X115799809Y-136945714D01*
G04 #@! TO.C,R7*
X87144880Y-73763166D02*
X86668690Y-74096500D01*
X87144880Y-74334595D02*
X86144880Y-74334595D01*
X86144880Y-73953642D01*
X86192500Y-73858404D01*
X86240119Y-73810785D01*
X86335357Y-73763166D01*
X86478214Y-73763166D01*
X86573452Y-73810785D01*
X86621071Y-73858404D01*
X86668690Y-73953642D01*
X86668690Y-74334595D01*
X86144880Y-73429833D02*
X86144880Y-72763166D01*
X87144880Y-73191738D01*
G04 #@! TO.C,R8*
X56347380Y-73890166D02*
X55871190Y-74223500D01*
X56347380Y-74461595D02*
X55347380Y-74461595D01*
X55347380Y-74080642D01*
X55395000Y-73985404D01*
X55442619Y-73937785D01*
X55537857Y-73890166D01*
X55680714Y-73890166D01*
X55775952Y-73937785D01*
X55823571Y-73985404D01*
X55871190Y-74080642D01*
X55871190Y-74461595D01*
X55775952Y-73318738D02*
X55728333Y-73413976D01*
X55680714Y-73461595D01*
X55585476Y-73509214D01*
X55537857Y-73509214D01*
X55442619Y-73461595D01*
X55395000Y-73413976D01*
X55347380Y-73318738D01*
X55347380Y-73128261D01*
X55395000Y-73033023D01*
X55442619Y-72985404D01*
X55537857Y-72937785D01*
X55585476Y-72937785D01*
X55680714Y-72985404D01*
X55728333Y-73033023D01*
X55775952Y-73128261D01*
X55775952Y-73318738D01*
X55823571Y-73413976D01*
X55871190Y-73461595D01*
X55966428Y-73509214D01*
X56156904Y-73509214D01*
X56252142Y-73461595D01*
X56299761Y-73413976D01*
X56347380Y-73318738D01*
X56347380Y-73128261D01*
X56299761Y-73033023D01*
X56252142Y-72985404D01*
X56156904Y-72937785D01*
X55966428Y-72937785D01*
X55871190Y-72985404D01*
X55823571Y-73033023D01*
X55775952Y-73128261D01*
G04 #@! TO.C,R9*
X117370380Y-81446666D02*
X116894190Y-81780000D01*
X117370380Y-82018095D02*
X116370380Y-82018095D01*
X116370380Y-81637142D01*
X116418000Y-81541904D01*
X116465619Y-81494285D01*
X116560857Y-81446666D01*
X116703714Y-81446666D01*
X116798952Y-81494285D01*
X116846571Y-81541904D01*
X116894190Y-81637142D01*
X116894190Y-82018095D01*
X117370380Y-80970476D02*
X117370380Y-80780000D01*
X117322761Y-80684761D01*
X117275142Y-80637142D01*
X117132285Y-80541904D01*
X116941809Y-80494285D01*
X116560857Y-80494285D01*
X116465619Y-80541904D01*
X116418000Y-80589523D01*
X116370380Y-80684761D01*
X116370380Y-80875238D01*
X116418000Y-80970476D01*
X116465619Y-81018095D01*
X116560857Y-81065714D01*
X116798952Y-81065714D01*
X116894190Y-81018095D01*
X116941809Y-80970476D01*
X116989428Y-80875238D01*
X116989428Y-80684761D01*
X116941809Y-80589523D01*
X116894190Y-80541904D01*
X116798952Y-80494285D01*
G04 #@! TO.C,R10*
X148676380Y-92273357D02*
X148200190Y-92606690D01*
X148676380Y-92844785D02*
X147676380Y-92844785D01*
X147676380Y-92463833D01*
X147724000Y-92368595D01*
X147771619Y-92320976D01*
X147866857Y-92273357D01*
X148009714Y-92273357D01*
X148104952Y-92320976D01*
X148152571Y-92368595D01*
X148200190Y-92463833D01*
X148200190Y-92844785D01*
X148676380Y-91320976D02*
X148676380Y-91892404D01*
X148676380Y-91606690D02*
X147676380Y-91606690D01*
X147819238Y-91701928D01*
X147914476Y-91797166D01*
X147962095Y-91892404D01*
X147676380Y-90701928D02*
X147676380Y-90606690D01*
X147724000Y-90511452D01*
X147771619Y-90463833D01*
X147866857Y-90416214D01*
X148057333Y-90368595D01*
X148295428Y-90368595D01*
X148485904Y-90416214D01*
X148581142Y-90463833D01*
X148628761Y-90511452D01*
X148676380Y-90606690D01*
X148676380Y-90701928D01*
X148628761Y-90797166D01*
X148581142Y-90844785D01*
X148485904Y-90892404D01*
X148295428Y-90940023D01*
X148057333Y-90940023D01*
X147866857Y-90892404D01*
X147771619Y-90844785D01*
X147724000Y-90797166D01*
X147676380Y-90701928D01*
G04 #@! TO.C,R11*
X147820142Y-160296380D02*
X147486809Y-159820190D01*
X147248714Y-160296380D02*
X147248714Y-159296380D01*
X147629666Y-159296380D01*
X147724904Y-159344000D01*
X147772523Y-159391619D01*
X147820142Y-159486857D01*
X147820142Y-159629714D01*
X147772523Y-159724952D01*
X147724904Y-159772571D01*
X147629666Y-159820190D01*
X147248714Y-159820190D01*
X148772523Y-160296380D02*
X148201095Y-160296380D01*
X148486809Y-160296380D02*
X148486809Y-159296380D01*
X148391571Y-159439238D01*
X148296333Y-159534476D01*
X148201095Y-159582095D01*
X149724904Y-160296380D02*
X149153476Y-160296380D01*
X149439190Y-160296380D02*
X149439190Y-159296380D01*
X149343952Y-159439238D01*
X149248714Y-159534476D01*
X149153476Y-159582095D01*
G04 #@! TO.C,R12*
X116291380Y-154502857D02*
X115815190Y-154836190D01*
X116291380Y-155074285D02*
X115291380Y-155074285D01*
X115291380Y-154693333D01*
X115339000Y-154598095D01*
X115386619Y-154550476D01*
X115481857Y-154502857D01*
X115624714Y-154502857D01*
X115719952Y-154550476D01*
X115767571Y-154598095D01*
X115815190Y-154693333D01*
X115815190Y-155074285D01*
X116291380Y-153550476D02*
X116291380Y-154121904D01*
X116291380Y-153836190D02*
X115291380Y-153836190D01*
X115434238Y-153931428D01*
X115529476Y-154026666D01*
X115577095Y-154121904D01*
X115386619Y-153169523D02*
X115339000Y-153121904D01*
X115291380Y-153026666D01*
X115291380Y-152788571D01*
X115339000Y-152693333D01*
X115386619Y-152645714D01*
X115481857Y-152598095D01*
X115577095Y-152598095D01*
X115719952Y-152645714D01*
X116291380Y-153217142D01*
X116291380Y-152598095D01*
G04 #@! TO.C,R13*
X87144880Y-87637857D02*
X86668690Y-87971190D01*
X87144880Y-88209285D02*
X86144880Y-88209285D01*
X86144880Y-87828333D01*
X86192500Y-87733095D01*
X86240119Y-87685476D01*
X86335357Y-87637857D01*
X86478214Y-87637857D01*
X86573452Y-87685476D01*
X86621071Y-87733095D01*
X86668690Y-87828333D01*
X86668690Y-88209285D01*
X87144880Y-86685476D02*
X87144880Y-87256904D01*
X87144880Y-86971190D02*
X86144880Y-86971190D01*
X86287738Y-87066428D01*
X86382976Y-87161666D01*
X86430595Y-87256904D01*
X86144880Y-86352142D02*
X86144880Y-85733095D01*
X86525833Y-86066428D01*
X86525833Y-85923571D01*
X86573452Y-85828333D01*
X86621071Y-85780714D01*
X86716309Y-85733095D01*
X86954404Y-85733095D01*
X87049642Y-85780714D01*
X87097261Y-85828333D01*
X87144880Y-85923571D01*
X87144880Y-86209285D01*
X87097261Y-86304523D01*
X87049642Y-86352142D01*
G04 #@! TO.C,R14*
X147088380Y-147962857D02*
X146612190Y-148296190D01*
X147088380Y-148534285D02*
X146088380Y-148534285D01*
X146088380Y-148153333D01*
X146136000Y-148058095D01*
X146183619Y-148010476D01*
X146278857Y-147962857D01*
X146421714Y-147962857D01*
X146516952Y-148010476D01*
X146564571Y-148058095D01*
X146612190Y-148153333D01*
X146612190Y-148534285D01*
X147088380Y-147010476D02*
X147088380Y-147581904D01*
X147088380Y-147296190D02*
X146088380Y-147296190D01*
X146231238Y-147391428D01*
X146326476Y-147486666D01*
X146374095Y-147581904D01*
X146421714Y-146153333D02*
X147088380Y-146153333D01*
X146040761Y-146391428D02*
X146755047Y-146629523D01*
X146755047Y-146010476D01*
G04 #@! TO.C,R15*
X86479880Y-140469857D02*
X86003690Y-140803190D01*
X86479880Y-141041285D02*
X85479880Y-141041285D01*
X85479880Y-140660333D01*
X85527500Y-140565095D01*
X85575119Y-140517476D01*
X85670357Y-140469857D01*
X85813214Y-140469857D01*
X85908452Y-140517476D01*
X85956071Y-140565095D01*
X86003690Y-140660333D01*
X86003690Y-141041285D01*
X86479880Y-139517476D02*
X86479880Y-140088904D01*
X86479880Y-139803190D02*
X85479880Y-139803190D01*
X85622738Y-139898428D01*
X85717976Y-139993666D01*
X85765595Y-140088904D01*
X85479880Y-138612714D02*
X85479880Y-139088904D01*
X85956071Y-139136523D01*
X85908452Y-139088904D01*
X85860833Y-138993666D01*
X85860833Y-138755571D01*
X85908452Y-138660333D01*
X85956071Y-138612714D01*
X86051309Y-138565095D01*
X86289404Y-138565095D01*
X86384642Y-138612714D01*
X86432261Y-138660333D01*
X86479880Y-138755571D01*
X86479880Y-138993666D01*
X86432261Y-139088904D01*
X86384642Y-139136523D01*
G04 #@! TO.C,R16*
X56347380Y-87637857D02*
X55871190Y-87971190D01*
X56347380Y-88209285D02*
X55347380Y-88209285D01*
X55347380Y-87828333D01*
X55395000Y-87733095D01*
X55442619Y-87685476D01*
X55537857Y-87637857D01*
X55680714Y-87637857D01*
X55775952Y-87685476D01*
X55823571Y-87733095D01*
X55871190Y-87828333D01*
X55871190Y-88209285D01*
X56347380Y-86685476D02*
X56347380Y-87256904D01*
X56347380Y-86971190D02*
X55347380Y-86971190D01*
X55490238Y-87066428D01*
X55585476Y-87161666D01*
X55633095Y-87256904D01*
X55347380Y-85828333D02*
X55347380Y-86018809D01*
X55395000Y-86114047D01*
X55442619Y-86161666D01*
X55585476Y-86256904D01*
X55775952Y-86304523D01*
X56156904Y-86304523D01*
X56252142Y-86256904D01*
X56299761Y-86209285D01*
X56347380Y-86114047D01*
X56347380Y-85923571D01*
X56299761Y-85828333D01*
X56252142Y-85780714D01*
X56156904Y-85733095D01*
X55918809Y-85733095D01*
X55823571Y-85780714D01*
X55775952Y-85828333D01*
X55728333Y-85923571D01*
X55728333Y-86114047D01*
X55775952Y-86209285D01*
X55823571Y-86256904D01*
X55918809Y-86304523D01*
G04 #@! TO.C,R17*
X93875880Y-98940857D02*
X93399690Y-99274190D01*
X93875880Y-99512285D02*
X92875880Y-99512285D01*
X92875880Y-99131333D01*
X92923500Y-99036095D01*
X92971119Y-98988476D01*
X93066357Y-98940857D01*
X93209214Y-98940857D01*
X93304452Y-98988476D01*
X93352071Y-99036095D01*
X93399690Y-99131333D01*
X93399690Y-99512285D01*
X93875880Y-97988476D02*
X93875880Y-98559904D01*
X93875880Y-98274190D02*
X92875880Y-98274190D01*
X93018738Y-98369428D01*
X93113976Y-98464666D01*
X93161595Y-98559904D01*
X92875880Y-97655142D02*
X92875880Y-96988476D01*
X93875880Y-97417047D01*
G04 #@! TO.C,TP1*
X248928095Y-122352380D02*
X249499523Y-122352380D01*
X249213809Y-123352380D02*
X249213809Y-122352380D01*
X249832857Y-123352380D02*
X249832857Y-122352380D01*
X250213809Y-122352380D01*
X250309047Y-122400000D01*
X250356666Y-122447619D01*
X250404285Y-122542857D01*
X250404285Y-122685714D01*
X250356666Y-122780952D01*
X250309047Y-122828571D01*
X250213809Y-122876190D01*
X249832857Y-122876190D01*
X251356666Y-123352380D02*
X250785238Y-123352380D01*
X251070952Y-123352380D02*
X251070952Y-122352380D01*
X250975714Y-122495238D01*
X250880476Y-122590476D01*
X250785238Y-122638095D01*
G04 #@! TO.C,TP2*
X248928095Y-71552380D02*
X249499523Y-71552380D01*
X249213809Y-72552380D02*
X249213809Y-71552380D01*
X249832857Y-72552380D02*
X249832857Y-71552380D01*
X250213809Y-71552380D01*
X250309047Y-71600000D01*
X250356666Y-71647619D01*
X250404285Y-71742857D01*
X250404285Y-71885714D01*
X250356666Y-71980952D01*
X250309047Y-72028571D01*
X250213809Y-72076190D01*
X249832857Y-72076190D01*
X250785238Y-71647619D02*
X250832857Y-71600000D01*
X250928095Y-71552380D01*
X251166190Y-71552380D01*
X251261428Y-71600000D01*
X251309047Y-71647619D01*
X251356666Y-71742857D01*
X251356666Y-71838095D01*
X251309047Y-71980952D01*
X250737619Y-72552380D01*
X251356666Y-72552380D01*
G04 #@! TO.C,TP3*
X248928095Y-127432380D02*
X249499523Y-127432380D01*
X249213809Y-128432380D02*
X249213809Y-127432380D01*
X249832857Y-128432380D02*
X249832857Y-127432380D01*
X250213809Y-127432380D01*
X250309047Y-127480000D01*
X250356666Y-127527619D01*
X250404285Y-127622857D01*
X250404285Y-127765714D01*
X250356666Y-127860952D01*
X250309047Y-127908571D01*
X250213809Y-127956190D01*
X249832857Y-127956190D01*
X250737619Y-127432380D02*
X251356666Y-127432380D01*
X251023333Y-127813333D01*
X251166190Y-127813333D01*
X251261428Y-127860952D01*
X251309047Y-127908571D01*
X251356666Y-128003809D01*
X251356666Y-128241904D01*
X251309047Y-128337142D01*
X251261428Y-128384761D01*
X251166190Y-128432380D01*
X250880476Y-128432380D01*
X250785238Y-128384761D01*
X250737619Y-128337142D01*
G04 #@! TO.C,U2*
X198072380Y-165861904D02*
X198881904Y-165861904D01*
X198977142Y-165814285D01*
X199024761Y-165766666D01*
X199072380Y-165671428D01*
X199072380Y-165480952D01*
X199024761Y-165385714D01*
X198977142Y-165338095D01*
X198881904Y-165290476D01*
X198072380Y-165290476D01*
X198167619Y-164861904D02*
X198120000Y-164814285D01*
X198072380Y-164719047D01*
X198072380Y-164480952D01*
X198120000Y-164385714D01*
X198167619Y-164338095D01*
X198262857Y-164290476D01*
X198358095Y-164290476D01*
X198500952Y-164338095D01*
X199072380Y-164909523D01*
X199072380Y-164290476D01*
G04 #@! TO.C,U3*
X167592380Y-165861904D02*
X168401904Y-165861904D01*
X168497142Y-165814285D01*
X168544761Y-165766666D01*
X168592380Y-165671428D01*
X168592380Y-165480952D01*
X168544761Y-165385714D01*
X168497142Y-165338095D01*
X168401904Y-165290476D01*
X167592380Y-165290476D01*
X167592380Y-164909523D02*
X167592380Y-164290476D01*
X167973333Y-164623809D01*
X167973333Y-164480952D01*
X168020952Y-164385714D01*
X168068571Y-164338095D01*
X168163809Y-164290476D01*
X168401904Y-164290476D01*
X168497142Y-164338095D01*
X168544761Y-164385714D01*
X168592380Y-164480952D01*
X168592380Y-164766666D01*
X168544761Y-164861904D01*
X168497142Y-164909523D01*
G04 #@! TO.C,U4*
X137112380Y-165861904D02*
X137921904Y-165861904D01*
X138017142Y-165814285D01*
X138064761Y-165766666D01*
X138112380Y-165671428D01*
X138112380Y-165480952D01*
X138064761Y-165385714D01*
X138017142Y-165338095D01*
X137921904Y-165290476D01*
X137112380Y-165290476D01*
X137445714Y-164385714D02*
X138112380Y-164385714D01*
X137064761Y-164623809D02*
X137779047Y-164861904D01*
X137779047Y-164242857D01*
G04 #@! TO.C,U5*
X106132380Y-165861904D02*
X106941904Y-165861904D01*
X107037142Y-165814285D01*
X107084761Y-165766666D01*
X107132380Y-165671428D01*
X107132380Y-165480952D01*
X107084761Y-165385714D01*
X107037142Y-165338095D01*
X106941904Y-165290476D01*
X106132380Y-165290476D01*
X106132380Y-164338095D02*
X106132380Y-164814285D01*
X106608571Y-164861904D01*
X106560952Y-164814285D01*
X106513333Y-164719047D01*
X106513333Y-164480952D01*
X106560952Y-164385714D01*
X106608571Y-164338095D01*
X106703809Y-164290476D01*
X106941904Y-164290476D01*
X107037142Y-164338095D01*
X107084761Y-164385714D01*
X107132380Y-164480952D01*
X107132380Y-164719047D01*
X107084761Y-164814285D01*
X107037142Y-164861904D01*
G04 #@! TO.C,U6*
X76152380Y-165861904D02*
X76961904Y-165861904D01*
X77057142Y-165814285D01*
X77104761Y-165766666D01*
X77152380Y-165671428D01*
X77152380Y-165480952D01*
X77104761Y-165385714D01*
X77057142Y-165338095D01*
X76961904Y-165290476D01*
X76152380Y-165290476D01*
X76152380Y-164385714D02*
X76152380Y-164576190D01*
X76200000Y-164671428D01*
X76247619Y-164719047D01*
X76390476Y-164814285D01*
X76580952Y-164861904D01*
X76961904Y-164861904D01*
X77057142Y-164814285D01*
X77104761Y-164766666D01*
X77152380Y-164671428D01*
X77152380Y-164480952D01*
X77104761Y-164385714D01*
X77057142Y-164338095D01*
X76961904Y-164290476D01*
X76723809Y-164290476D01*
X76628571Y-164338095D01*
X76580952Y-164385714D01*
X76533333Y-164480952D01*
X76533333Y-164671428D01*
X76580952Y-164766666D01*
X76628571Y-164814285D01*
X76723809Y-164861904D01*
G04 #@! TO.C,U7*
X45672380Y-165861904D02*
X46481904Y-165861904D01*
X46577142Y-165814285D01*
X46624761Y-165766666D01*
X46672380Y-165671428D01*
X46672380Y-165480952D01*
X46624761Y-165385714D01*
X46577142Y-165338095D01*
X46481904Y-165290476D01*
X45672380Y-165290476D01*
X45672380Y-164909523D02*
X45672380Y-164242857D01*
X46672380Y-164671428D01*
G04 #@! TO.C,U9*
X198072380Y-102361904D02*
X198881904Y-102361904D01*
X198977142Y-102314285D01*
X199024761Y-102266666D01*
X199072380Y-102171428D01*
X199072380Y-101980952D01*
X199024761Y-101885714D01*
X198977142Y-101838095D01*
X198881904Y-101790476D01*
X198072380Y-101790476D01*
X199072380Y-101266666D02*
X199072380Y-101076190D01*
X199024761Y-100980952D01*
X198977142Y-100933333D01*
X198834285Y-100838095D01*
X198643809Y-100790476D01*
X198262857Y-100790476D01*
X198167619Y-100838095D01*
X198120000Y-100885714D01*
X198072380Y-100980952D01*
X198072380Y-101171428D01*
X198120000Y-101266666D01*
X198167619Y-101314285D01*
X198262857Y-101361904D01*
X198500952Y-101361904D01*
X198596190Y-101314285D01*
X198643809Y-101266666D01*
X198691428Y-101171428D01*
X198691428Y-100980952D01*
X198643809Y-100885714D01*
X198596190Y-100838095D01*
X198500952Y-100790476D01*
G04 #@! TO.C,U10*
X167592380Y-102838095D02*
X168401904Y-102838095D01*
X168497142Y-102790476D01*
X168544761Y-102742857D01*
X168592380Y-102647619D01*
X168592380Y-102457142D01*
X168544761Y-102361904D01*
X168497142Y-102314285D01*
X168401904Y-102266666D01*
X167592380Y-102266666D01*
X168592380Y-101266666D02*
X168592380Y-101838095D01*
X168592380Y-101552380D02*
X167592380Y-101552380D01*
X167735238Y-101647619D01*
X167830476Y-101742857D01*
X167878095Y-101838095D01*
X167592380Y-100647619D02*
X167592380Y-100552380D01*
X167640000Y-100457142D01*
X167687619Y-100409523D01*
X167782857Y-100361904D01*
X167973333Y-100314285D01*
X168211428Y-100314285D01*
X168401904Y-100361904D01*
X168497142Y-100409523D01*
X168544761Y-100457142D01*
X168592380Y-100552380D01*
X168592380Y-100647619D01*
X168544761Y-100742857D01*
X168497142Y-100790476D01*
X168401904Y-100838095D01*
X168211428Y-100885714D01*
X167973333Y-100885714D01*
X167782857Y-100838095D01*
X167687619Y-100790476D01*
X167640000Y-100742857D01*
X167592380Y-100647619D01*
G04 #@! TO.C,C1*
X242383333Y-28127142D02*
X242335714Y-28174761D01*
X242192857Y-28222380D01*
X242097619Y-28222380D01*
X241954761Y-28174761D01*
X241859523Y-28079523D01*
X241811904Y-27984285D01*
X241764285Y-27793809D01*
X241764285Y-27650952D01*
X241811904Y-27460476D01*
X241859523Y-27365238D01*
X241954761Y-27270000D01*
X242097619Y-27222380D01*
X242192857Y-27222380D01*
X242335714Y-27270000D01*
X242383333Y-27317619D01*
X243335714Y-28222380D02*
X242764285Y-28222380D01*
X243050000Y-28222380D02*
X243050000Y-27222380D01*
X242954761Y-27365238D01*
X242859523Y-27460476D01*
X242764285Y-27508095D01*
G04 #@! TO.C,C2*
X229683333Y-28127142D02*
X229635714Y-28174761D01*
X229492857Y-28222380D01*
X229397619Y-28222380D01*
X229254761Y-28174761D01*
X229159523Y-28079523D01*
X229111904Y-27984285D01*
X229064285Y-27793809D01*
X229064285Y-27650952D01*
X229111904Y-27460476D01*
X229159523Y-27365238D01*
X229254761Y-27270000D01*
X229397619Y-27222380D01*
X229492857Y-27222380D01*
X229635714Y-27270000D01*
X229683333Y-27317619D01*
X230064285Y-27317619D02*
X230111904Y-27270000D01*
X230207142Y-27222380D01*
X230445238Y-27222380D01*
X230540476Y-27270000D01*
X230588095Y-27317619D01*
X230635714Y-27412857D01*
X230635714Y-27508095D01*
X230588095Y-27650952D01*
X230016666Y-28222380D01*
X230635714Y-28222380D01*
G04 #@! TD*
M02*
