G04 #@! TF.GenerationSoftware,KiCad,Pcbnew,(5.0.0)*
G04 #@! TF.CreationDate,2019-10-07T01:06:36+01:00*
G04 #@! TF.ProjectId,A-FA,412D46412E6B696361645F7063620000,rev?*
G04 #@! TF.SameCoordinates,Original*
G04 #@! TF.FileFunction,Copper,L2,Bot,Signal*
G04 #@! TF.FilePolarity,Positive*
%FSLAX46Y46*%
G04 Gerber Fmt 4.6, Leading zero omitted, Abs format (unit mm)*
G04 Created by KiCad (PCBNEW (5.0.0)) date 10/07/19 01:06:36*
%MOMM*%
%LPD*%
G01*
G04 APERTURE LIST*
G04 #@! TA.AperFunction,ComponentPad*
%ADD10C,2.000000*%
G04 #@! TD*
G04 #@! TA.AperFunction,ComponentPad*
%ADD11C,1.400000*%
G04 #@! TD*
G04 #@! TA.AperFunction,ComponentPad*
%ADD12O,1.400000X1.400000*%
G04 #@! TD*
G04 #@! TA.AperFunction,ComponentPad*
%ADD13C,1.600000*%
G04 #@! TD*
G04 #@! TA.AperFunction,ComponentPad*
%ADD14R,1.600000X1.600000*%
G04 #@! TD*
G04 #@! TA.AperFunction,ComponentPad*
%ADD15C,1.700000*%
G04 #@! TD*
G04 #@! TA.AperFunction,ComponentPad*
%ADD16R,1.700000X1.700000*%
G04 #@! TD*
G04 #@! TA.AperFunction,ViaPad*
%ADD17C,0.800000*%
G04 #@! TD*
G04 #@! TA.AperFunction,Conductor*
%ADD18C,0.250000*%
G04 #@! TD*
G04 #@! TA.AperFunction,Conductor*
%ADD19C,0.500000*%
G04 #@! TD*
G04 APERTURE END LIST*
D10*
G04 #@! TO.P,U8,13*
G04 #@! TO.N,Net-(U1-Pad2)*
X225425000Y-78740000D03*
G04 #@! TO.P,U8,12*
G04 #@! TO.N,Gn*
X225425000Y-81280000D03*
G04 #@! TO.P,U8,11*
G04 #@! TO.N,Cn*
X225425000Y-83820000D03*
G04 #@! TO.P,U8,6*
G04 #@! TO.N,Net-(U1-Pad4)*
X243840000Y-74930000D03*
G04 #@! TO.P,U8,5*
G04 #@! TO.N,Cn-1*
X243840000Y-77470000D03*
G04 #@! TO.P,U8,4*
G04 #@! TO.N,~JTG~*
X243840000Y-80010000D03*
G04 #@! TO.P,U8,3*
G04 #@! TO.N,~G~n*
X243840000Y-82550000D03*
G04 #@! TO.P,U8,2*
G04 #@! TO.N,Net-(U3-Pad13)*
X243840000Y-85090000D03*
G04 #@! TO.P,U8,1*
G04 #@! TO.N,Net-(U1-Pad2)*
X243840000Y-87630000D03*
G04 #@! TO.P,U8,23*
G04 #@! TO.N,Neg6v*
X230505000Y-104775000D03*
G04 #@! TO.P,U8,22*
G04 #@! TO.N,GND*
X227965000Y-104775000D03*
G04 #@! TO.P,U8,21*
G04 #@! TO.N,6v*
X225425000Y-104775000D03*
G04 #@! TD*
G04 #@! TO.P,U1,13*
G04 #@! TO.N,Fn*
X225425000Y-142240000D03*
G04 #@! TO.P,U1,12*
G04 #@! TO.N,Net-(U1-Pad12)*
X225425000Y-144780000D03*
G04 #@! TO.P,U1,11*
G04 #@! TO.N,N/C*
X225425000Y-147320000D03*
G04 #@! TO.P,U1,6*
X243840000Y-138430000D03*
G04 #@! TO.P,U1,5*
G04 #@! TO.N,Net-(U1-Pad12)*
X243840000Y-140970000D03*
G04 #@! TO.P,U1,4*
G04 #@! TO.N,Net-(U1-Pad4)*
X243840000Y-143510000D03*
G04 #@! TO.P,U1,3*
G04 #@! TO.N,Net-(U1-Pad2)*
X243840000Y-146050000D03*
G04 #@! TO.P,U1,2*
X243840000Y-148590000D03*
G04 #@! TO.P,U1,1*
G04 #@! TO.N,Cn-1*
X243840000Y-151130000D03*
G04 #@! TO.P,U1,23*
G04 #@! TO.N,Neg6v*
X230505000Y-168275000D03*
G04 #@! TO.P,U1,22*
G04 #@! TO.N,GND*
X227965000Y-168275000D03*
G04 #@! TO.P,U1,21*
G04 #@! TO.N,6v*
X225425000Y-168275000D03*
G04 #@! TD*
G04 #@! TO.P,U12,13*
G04 #@! TO.N,~M~n*
X103505000Y-78740000D03*
G04 #@! TO.P,U12,12*
G04 #@! TO.N,N/C*
X103505000Y-81280000D03*
G04 #@! TO.P,U12,11*
X103505000Y-83820000D03*
G04 #@! TO.P,U12,6*
G04 #@! TO.N,WTM*
X121920000Y-74930000D03*
G04 #@! TO.P,U12,5*
G04 #@! TO.N,Wn*
X121920000Y-77470000D03*
G04 #@! TO.P,U12,4*
G04 #@! TO.N,GTM*
X121920000Y-80010000D03*
G04 #@! TO.P,U12,3*
G04 #@! TO.N,Gn*
X121920000Y-82550000D03*
G04 #@! TO.P,U12,2*
G04 #@! TO.N,~OTM*
X121920000Y-85090000D03*
G04 #@! TO.P,U12,1*
G04 #@! TO.N,Mn*
X121920000Y-87630000D03*
G04 #@! TO.P,U12,23*
G04 #@! TO.N,Neg6v*
X108585000Y-104775000D03*
G04 #@! TO.P,U12,22*
G04 #@! TO.N,GND*
X106045000Y-104775000D03*
G04 #@! TO.P,U12,21*
G04 #@! TO.N,6v*
X103505000Y-104775000D03*
G04 #@! TD*
G04 #@! TO.P,U11,13*
G04 #@! TO.N,Jn*
X133985000Y-78740000D03*
G04 #@! TO.P,U11,12*
G04 #@! TO.N,~J~n*
X133985000Y-81280000D03*
G04 #@! TO.P,U11,11*
G04 #@! TO.N,N/C*
X133985000Y-83820000D03*
G04 #@! TO.P,U11,6*
X152400000Y-74930000D03*
G04 #@! TO.P,U11,5*
G04 #@! TO.N,~J~n*
X152400000Y-77470000D03*
G04 #@! TO.P,U11,4*
G04 #@! TO.N,Gn*
X152400000Y-80010000D03*
G04 #@! TO.P,U11,3*
G04 #@! TO.N,GTJ*
X152400000Y-82550000D03*
G04 #@! TO.P,U11,2*
G04 #@! TO.N,~OTJ*
X152400000Y-85090000D03*
G04 #@! TO.P,U11,1*
G04 #@! TO.N,Jn*
X152400000Y-87630000D03*
G04 #@! TO.P,U11,23*
G04 #@! TO.N,Neg6v*
X139065000Y-104775000D03*
G04 #@! TO.P,U11,22*
G04 #@! TO.N,GND*
X136525000Y-104775000D03*
G04 #@! TO.P,U11,21*
G04 #@! TO.N,6v*
X133985000Y-104775000D03*
G04 #@! TD*
G04 #@! TO.P,U14,13*
G04 #@! TO.N,Qn*
X42545000Y-78740000D03*
G04 #@! TO.P,U14,12*
G04 #@! TO.N,~Q~n*
X42545000Y-81280000D03*
G04 #@! TO.P,U14,11*
G04 #@! TO.N,N/C*
X42545000Y-83820000D03*
G04 #@! TO.P,U14,6*
X60960000Y-74930000D03*
G04 #@! TO.P,U14,5*
G04 #@! TO.N,~Q~n*
X60960000Y-77470000D03*
G04 #@! TO.P,U14,4*
G04 #@! TO.N,Gn*
X60960000Y-80010000D03*
G04 #@! TO.P,U14,3*
G04 #@! TO.N,GTQ*
X60960000Y-82550000D03*
G04 #@! TO.P,U14,2*
G04 #@! TO.N,~OTQ*
X60960000Y-85090000D03*
G04 #@! TO.P,U14,1*
G04 #@! TO.N,Qn*
X60960000Y-87630000D03*
G04 #@! TO.P,U14,23*
G04 #@! TO.N,Neg6v*
X47625000Y-104775000D03*
G04 #@! TO.P,U14,22*
G04 #@! TO.N,GND*
X45085000Y-104775000D03*
G04 #@! TO.P,U14,21*
G04 #@! TO.N,6v*
X42545000Y-104775000D03*
G04 #@! TD*
G04 #@! TO.P,U13,13*
G04 #@! TO.N,An*
X73025000Y-78740000D03*
G04 #@! TO.P,U13,12*
G04 #@! TO.N,~A~n*
X73025000Y-81280000D03*
G04 #@! TO.P,U13,11*
G04 #@! TO.N,N/C*
X73025000Y-83820000D03*
G04 #@! TO.P,U13,6*
X91440000Y-74930000D03*
G04 #@! TO.P,U13,5*
G04 #@! TO.N,~A~n*
X91440000Y-77470000D03*
G04 #@! TO.P,U13,4*
G04 #@! TO.N,Gn*
X91440000Y-80010000D03*
G04 #@! TO.P,U13,3*
G04 #@! TO.N,GTA*
X91440000Y-82550000D03*
G04 #@! TO.P,U13,2*
G04 #@! TO.N,~OTA*
X91440000Y-85090000D03*
G04 #@! TO.P,U13,1*
G04 #@! TO.N,An*
X91440000Y-87630000D03*
G04 #@! TO.P,U13,23*
G04 #@! TO.N,Neg6v*
X78105000Y-104775000D03*
G04 #@! TO.P,U13,22*
G04 #@! TO.N,GND*
X75565000Y-104775000D03*
G04 #@! TO.P,U13,21*
G04 #@! TO.N,6v*
X73025000Y-104775000D03*
G04 #@! TD*
D11*
G04 #@! TO.P,R3,1*
G04 #@! TO.N,{Gn}*
X252400000Y-74600000D03*
D12*
G04 #@! TO.P,R3,2*
G04 #@! TO.N,~G~n*
X252400000Y-82220000D03*
G04 #@! TD*
D11*
G04 #@! TO.P,R4,1*
G04 #@! TO.N,{Jn}*
X158400000Y-69850000D03*
D12*
G04 #@! TO.P,R4,2*
G04 #@! TO.N,~J~n*
X158400000Y-77470000D03*
G04 #@! TD*
D11*
G04 #@! TO.P,R5,1*
G04 #@! TO.N,{Mn}*
X97400000Y-133350000D03*
D12*
G04 #@! TO.P,R5,2*
G04 #@! TO.N,~M~n*
X97400000Y-140970000D03*
G04 #@! TD*
D11*
G04 #@! TO.P,R6,1*
G04 #@! TO.N,{IPn}*
X128400000Y-133350000D03*
D12*
G04 #@! TO.P,R6,2*
G04 #@! TO.N,~IP~n*
X128400000Y-140970000D03*
G04 #@! TD*
D11*
G04 #@! TO.P,R7,1*
G04 #@! TO.N,{An}*
X97400000Y-69786500D03*
D12*
G04 #@! TO.P,R7,2*
G04 #@! TO.N,~A~n*
X97400000Y-77406500D03*
G04 #@! TD*
D11*
G04 #@! TO.P,R8,1*
G04 #@! TO.N,{Qn}*
X66600000Y-70000000D03*
D12*
G04 #@! TO.P,R8,2*
G04 #@! TO.N,~Q~n*
X66600000Y-77620000D03*
G04 #@! TD*
D11*
G04 #@! TO.P,R9,1*
G04 #@! TO.N,Wn*
X128200000Y-77200000D03*
D12*
G04 #@! TO.P,R9,2*
G04 #@! TO.N,6v*
X128200000Y-84820000D03*
G04 #@! TD*
D11*
G04 #@! TO.P,R10,1*
G04 #@! TO.N,~J~n*
X158400000Y-87800000D03*
D12*
G04 #@! TO.P,R10,2*
G04 #@! TO.N,6v*
X158400000Y-95420000D03*
G04 #@! TD*
D11*
G04 #@! TO.P,R11,1*
G04 #@! TO.N,~M~n*
X158600000Y-157800000D03*
D12*
G04 #@! TO.P,R11,2*
G04 #@! TO.N,6v*
X158600000Y-165420000D03*
G04 #@! TD*
D11*
G04 #@! TO.P,R12,1*
G04 #@! TO.N,~IP~n*
X128600000Y-150000000D03*
D12*
G04 #@! TO.P,R12,2*
G04 #@! TO.N,6v*
X128600000Y-157620000D03*
G04 #@! TD*
D11*
G04 #@! TO.P,R13,1*
G04 #@! TO.N,~A~n*
X97400000Y-83185000D03*
D12*
G04 #@! TO.P,R13,2*
G04 #@! TO.N,6v*
X97400000Y-90805000D03*
G04 #@! TD*
D11*
G04 #@! TO.P,R14,1*
G04 #@! TO.N,Mn*
X158400000Y-143400000D03*
D12*
G04 #@! TO.P,R14,2*
G04 #@! TO.N,6v*
X158400000Y-151020000D03*
G04 #@! TD*
D11*
G04 #@! TO.P,R15,1*
G04 #@! TO.N,~STORE~nx*
X97400000Y-145200000D03*
D12*
G04 #@! TO.P,R15,2*
G04 #@! TO.N,6v*
X97400000Y-152820000D03*
G04 #@! TD*
D11*
G04 #@! TO.P,R16,1*
G04 #@! TO.N,~Q~n*
X66600000Y-83185000D03*
D12*
G04 #@! TO.P,R16,2*
G04 #@! TO.N,6v*
X66600000Y-90805000D03*
G04 #@! TD*
D11*
G04 #@! TO.P,R17,1*
G04 #@! TO.N,An*
X97200000Y-97200000D03*
D12*
G04 #@! TO.P,R17,2*
G04 #@! TO.N,6v*
X97200000Y-104820000D03*
G04 #@! TD*
D10*
G04 #@! TO.P,U2,13*
G04 #@! TO.N,Yn*
X194945000Y-142240000D03*
G04 #@! TO.P,U2,12*
G04 #@! TO.N,~G~n*
X194945000Y-144780000D03*
G04 #@! TO.P,U2,11*
G04 #@! TO.N,Xn*
X194945000Y-147320000D03*
G04 #@! TO.P,U2,6*
G04 #@! TO.N,~Y~n*
X213360000Y-138430000D03*
G04 #@! TO.P,U2,5*
G04 #@! TO.N,Xn*
X213360000Y-140970000D03*
G04 #@! TO.P,U2,4*
G04 #@! TO.N,Yn*
X213360000Y-143510000D03*
G04 #@! TO.P,U2,3*
G04 #@! TO.N,VTG*
X213360000Y-146050000D03*
G04 #@! TO.P,U2,2*
G04 #@! TO.N,N/C*
X213360000Y-148590000D03*
G04 #@! TO.P,U2,1*
G04 #@! TO.N,~X~n*
X213360000Y-151130000D03*
G04 #@! TO.P,U2,23*
G04 #@! TO.N,Neg6v*
X200025000Y-168275000D03*
G04 #@! TO.P,U2,22*
G04 #@! TO.N,GND*
X197485000Y-168275000D03*
G04 #@! TO.P,U2,21*
G04 #@! TO.N,6v*
X194945000Y-168275000D03*
G04 #@! TD*
G04 #@! TO.P,U3,13*
G04 #@! TO.N,Net-(U3-Pad13)*
X164465000Y-142240000D03*
G04 #@! TO.P,U3,12*
G04 #@! TO.N,Net-(U1-Pad4)*
X164465000Y-144780000D03*
G04 #@! TO.P,U3,11*
G04 #@! TO.N,N/C*
X164465000Y-147320000D03*
G04 #@! TO.P,U3,6*
G04 #@! TO.N,Xn*
X182880000Y-138430000D03*
G04 #@! TO.P,U3,5*
G04 #@! TO.N,Yn*
X182880000Y-140970000D03*
G04 #@! TO.P,U3,4*
X182880000Y-143510000D03*
G04 #@! TO.P,U3,3*
G04 #@! TO.N,Xn*
X182880000Y-146050000D03*
G04 #@! TO.P,U3,2*
G04 #@! TO.N,~Y~n*
X182880000Y-148590000D03*
G04 #@! TO.P,U3,1*
G04 #@! TO.N,~X~n*
X182880000Y-151130000D03*
G04 #@! TO.P,U3,23*
G04 #@! TO.N,Neg6v*
X169545000Y-168275000D03*
G04 #@! TO.P,U3,22*
G04 #@! TO.N,GND*
X167005000Y-168275000D03*
G04 #@! TO.P,U3,21*
G04 #@! TO.N,6v*
X164465000Y-168275000D03*
G04 #@! TD*
G04 #@! TO.P,U4,13*
G04 #@! TO.N,~X~n*
X133985000Y-142240000D03*
G04 #@! TO.P,U4,12*
G04 #@! TO.N,N/C*
X133985000Y-144780000D03*
G04 #@! TO.P,U4,11*
X133985000Y-147320000D03*
G04 #@! TO.P,U4,6*
G04 #@! TO.N,Jn*
X152400000Y-138430000D03*
G04 #@! TO.P,U4,5*
G04 #@! TO.N,JTF*
X152400000Y-140970000D03*
G04 #@! TO.P,U4,4*
G04 #@! TO.N,Mn*
X152400000Y-143510000D03*
G04 #@! TO.P,U4,3*
G04 #@! TO.N,MTF*
X152400000Y-146050000D03*
G04 #@! TO.P,U4,2*
G04 #@! TO.N,~M~n*
X152400000Y-148590000D03*
G04 #@! TO.P,U4,1*
G04 #@! TO.N,~M~TF*
X152400000Y-151130000D03*
G04 #@! TO.P,U4,23*
G04 #@! TO.N,Neg6v*
X139065000Y-168275000D03*
G04 #@! TO.P,U4,22*
G04 #@! TO.N,GND*
X136525000Y-168275000D03*
G04 #@! TO.P,U4,21*
G04 #@! TO.N,6v*
X133985000Y-168275000D03*
G04 #@! TD*
G04 #@! TO.P,U5,13*
G04 #@! TO.N,IPn*
X103505000Y-142240000D03*
G04 #@! TO.P,U5,12*
G04 #@! TO.N,~IP~n*
X103505000Y-144780000D03*
G04 #@! TO.P,U5,11*
G04 #@! TO.N,N/C*
X103505000Y-147320000D03*
G04 #@! TO.P,U5,6*
X121920000Y-138430000D03*
G04 #@! TO.P,U5,5*
G04 #@! TO.N,~IP~n*
X121920000Y-140970000D03*
G04 #@! TO.P,U5,4*
G04 #@! TO.N,Mn*
X121920000Y-143510000D03*
G04 #@! TO.P,U5,3*
G04 #@! TO.N,MTIP*
X121920000Y-146050000D03*
G04 #@! TO.P,U5,2*
G04 #@! TO.N,~OTIP*
X121920000Y-148590000D03*
G04 #@! TO.P,U5,1*
G04 #@! TO.N,IPn*
X121920000Y-151130000D03*
G04 #@! TO.P,U5,23*
G04 #@! TO.N,Neg6v*
X108585000Y-168275000D03*
G04 #@! TO.P,U5,22*
G04 #@! TO.N,GND*
X106045000Y-168275000D03*
G04 #@! TO.P,U5,21*
G04 #@! TO.N,6v*
X103505000Y-168275000D03*
G04 #@! TD*
G04 #@! TO.P,U6,13*
G04 #@! TO.N,Mn*
X73025000Y-142240000D03*
G04 #@! TO.P,U6,12*
G04 #@! TO.N,N/C*
X73025000Y-144780000D03*
G04 #@! TO.P,U6,11*
G04 #@! TO.N,~M~n*
X73025000Y-147320000D03*
G04 #@! TO.P,U6,6*
G04 #@! TO.N,~STORE~n*
X91440000Y-138430000D03*
G04 #@! TO.P,U6,5*
G04 #@! TO.N,~M~n*
X91440000Y-140970000D03*
G04 #@! TO.P,U6,4*
G04 #@! TO.N,~STORE~nx*
X91440000Y-143510000D03*
G04 #@! TO.P,U6,3*
G04 #@! TO.N,N/C*
X91440000Y-146050000D03*
G04 #@! TO.P,U6,2*
X91440000Y-148590000D03*
G04 #@! TO.P,U6,1*
G04 #@! TO.N,IIn*
X91440000Y-151130000D03*
G04 #@! TO.P,U6,23*
G04 #@! TO.N,Neg6v*
X78105000Y-168275000D03*
G04 #@! TO.P,U6,22*
G04 #@! TO.N,GND*
X75565000Y-168275000D03*
G04 #@! TO.P,U6,21*
G04 #@! TO.N,6v*
X73025000Y-168275000D03*
G04 #@! TD*
G04 #@! TO.P,U7,13*
G04 #@! TO.N,~Y~n*
X42545000Y-142240000D03*
G04 #@! TO.P,U7,12*
G04 #@! TO.N,N/C*
X42545000Y-144780000D03*
G04 #@! TO.P,U7,11*
X42545000Y-147320000D03*
G04 #@! TO.P,U7,6*
G04 #@! TO.N,An*
X60960000Y-138430000D03*
G04 #@! TO.P,U7,5*
G04 #@! TO.N,ATF*
X60960000Y-140970000D03*
G04 #@! TO.P,U7,4*
G04 #@! TO.N,N/C*
X60960000Y-143510000D03*
G04 #@! TO.P,U7,3*
G04 #@! TO.N,DTF*
X60960000Y-146050000D03*
G04 #@! TO.P,U7,2*
G04 #@! TO.N,Qn*
X60960000Y-148590000D03*
G04 #@! TO.P,U7,1*
G04 #@! TO.N,QTF*
X60960000Y-151130000D03*
G04 #@! TO.P,U7,23*
G04 #@! TO.N,Neg6v*
X47625000Y-168275000D03*
G04 #@! TO.P,U7,22*
G04 #@! TO.N,GND*
X45085000Y-168275000D03*
G04 #@! TO.P,U7,21*
G04 #@! TO.N,6v*
X42545000Y-168275000D03*
G04 #@! TD*
G04 #@! TO.P,U9,13*
G04 #@! TO.N,~G~n*
X194945000Y-78740000D03*
G04 #@! TO.P,U9,12*
G04 #@! TO.N,N/C*
X194945000Y-81280000D03*
G04 #@! TO.P,U9,11*
X194945000Y-83820000D03*
G04 #@! TO.P,U9,6*
G04 #@! TO.N,RTG*
X213360000Y-74930000D03*
G04 #@! TO.P,U9,5*
G04 #@! TO.N,FnR*
X213360000Y-77470000D03*
G04 #@! TO.P,U9,4*
G04 #@! TO.N,FTG*
X213360000Y-80010000D03*
G04 #@! TO.P,U9,3*
G04 #@! TO.N,Fn*
X213360000Y-82550000D03*
G04 #@! TO.P,U9,2*
G04 #@! TO.N,LTG*
X213360000Y-85090000D03*
G04 #@! TO.P,U9,1*
G04 #@! TO.N,FnL*
X213360000Y-87630000D03*
G04 #@! TO.P,U9,23*
G04 #@! TO.N,Neg6v*
X200025000Y-104775000D03*
G04 #@! TO.P,U9,22*
G04 #@! TO.N,GND*
X197485000Y-104775000D03*
G04 #@! TO.P,U9,21*
G04 #@! TO.N,6v*
X194945000Y-104775000D03*
G04 #@! TD*
G04 #@! TO.P,U10,13*
G04 #@! TO.N,~G~n*
X164465000Y-78740000D03*
G04 #@! TO.P,U10,12*
G04 #@! TO.N,N/C*
X164465000Y-81280000D03*
G04 #@! TO.P,U10,11*
X164465000Y-83820000D03*
G04 #@! TO.P,U10,6*
G04 #@! TO.N,An-7*
X182880000Y-74930000D03*
G04 #@! TO.P,U10,5*
G04 #@! TO.N,PTGb*
X182880000Y-77470000D03*
G04 #@! TO.P,U10,4*
G04 #@! TO.N,IPn*
X182880000Y-80010000D03*
G04 #@! TO.P,U10,3*
G04 #@! TO.N,PTGa*
X182880000Y-82550000D03*
G04 #@! TO.P,U10,2*
G04 #@! TO.N,~OTG*
X182880000Y-85090000D03*
G04 #@! TO.P,U10,1*
G04 #@! TO.N,Gn*
X182880000Y-87630000D03*
G04 #@! TO.P,U10,23*
G04 #@! TO.N,Neg6v*
X169545000Y-104775000D03*
G04 #@! TO.P,U10,22*
G04 #@! TO.N,GND*
X167005000Y-104775000D03*
G04 #@! TO.P,U10,21*
G04 #@! TO.N,6v*
X164465000Y-104775000D03*
G04 #@! TD*
D13*
G04 #@! TO.P,C1,2*
G04 #@! TO.N,GND*
X146900000Y-37000000D03*
D14*
G04 #@! TO.P,C1,1*
G04 #@! TO.N,6v*
X144400000Y-37000000D03*
G04 #@! TD*
D13*
G04 #@! TO.P,C2,2*
G04 #@! TO.N,Neg6v*
X33300000Y-39800000D03*
D14*
G04 #@! TO.P,C2,1*
G04 #@! TO.N,GND*
X30800000Y-39800000D03*
G04 #@! TD*
D15*
G04 #@! TO.P,J1,AL*
G04 #@! TO.N,GND*
X39605000Y-33401000D03*
G04 #@! TO.P,J1,32*
X39605000Y-30861000D03*
G04 #@! TO.P,J1,AK*
G04 #@! TO.N,Neg6v*
X42145000Y-33401000D03*
G04 #@! TO.P,J1,31*
X42145000Y-30861000D03*
G04 #@! TO.P,J1,AJ*
G04 #@! TO.N,~STORE~n*
X44685000Y-33401000D03*
G04 #@! TO.P,J1,30*
G04 #@! TO.N,QTF*
X44685000Y-30861000D03*
G04 #@! TO.P,J1,AH*
G04 #@! TO.N,~Q~n*
X47225000Y-33401000D03*
G04 #@! TO.P,J1,29*
G04 #@! TO.N,DTF*
X47225000Y-30861000D03*
G04 #@! TO.P,J1,AF*
G04 #@! TO.N,N/C*
X49765000Y-33401000D03*
G04 #@! TO.P,J1,28*
G04 #@! TO.N,ATF*
X49765000Y-30861000D03*
G04 #@! TO.P,J1,AE*
G04 #@! TO.N,GTQ*
X52305000Y-33401000D03*
G04 #@! TO.P,J1,27*
G04 #@! TO.N,An*
X52305000Y-30861000D03*
G04 #@! TO.P,J1,AD*
G04 #@! TO.N,Mn*
X54845000Y-33401000D03*
G04 #@! TO.P,J1,26*
G04 #@! TO.N,~OTQ*
X54845000Y-30861000D03*
G04 #@! TO.P,J1,AC*
G04 #@! TO.N,{Qn}*
X57385000Y-33401000D03*
G04 #@! TO.P,J1,25*
G04 #@! TO.N,IIn*
X57385000Y-30861000D03*
G04 #@! TO.P,J1,AB*
G04 #@! TO.N,~A~n*
X59925000Y-33401000D03*
G04 #@! TO.P,J1,24*
G04 #@! TO.N,~STORE~nx*
X59925000Y-30861000D03*
G04 #@! TO.P,J1,AA*
G04 #@! TO.N,~OTA*
X62465000Y-33401000D03*
G04 #@! TO.P,J1,23*
G04 #@! TO.N,GTA*
X62465000Y-30861000D03*
G04 #@! TO.P,J1,Z*
G04 #@! TO.N,{An}*
X65005000Y-33401000D03*
G04 #@! TO.P,J1,22*
G04 #@! TO.N,MTIP*
X65005000Y-30861000D03*
G04 #@! TO.P,J1,Y*
G04 #@! TO.N,{IPn}*
X67545000Y-33401000D03*
G04 #@! TO.P,J1,21*
G04 #@! TO.N,IPn*
X67545000Y-30861000D03*
G04 #@! TO.P,J1,X*
G04 #@! TO.N,~OTIP*
X70085000Y-33401000D03*
G04 #@! TO.P,J1,20*
G04 #@! TO.N,~OTM*
X70085000Y-30861000D03*
G04 #@! TO.P,J1,W*
G04 #@! TO.N,~IP~n*
X72625000Y-33401000D03*
G04 #@! TO.P,J1,19*
G04 #@! TO.N,WTM*
X72625000Y-30861000D03*
G04 #@! TO.P,J1,V*
G04 #@! TO.N,~M~n*
X75165000Y-33401000D03*
G04 #@! TO.P,J1,18*
G04 #@! TO.N,Wn*
X75165000Y-30861000D03*
G04 #@! TO.P,J1,U*
G04 #@! TO.N,{Mn}*
X77705000Y-33401000D03*
G04 #@! TO.P,J1,17*
G04 #@! TO.N,GTM*
X77705000Y-30861000D03*
G04 #@! TO.P,J1,T*
G04 #@! TO.N,Jn*
X80245000Y-33401000D03*
G04 #@! TO.P,J1,16*
G04 #@! TO.N,~M~TF*
X80245000Y-30861000D03*
G04 #@! TO.P,J1,S*
G04 #@! TO.N,{Jn}*
X82785000Y-33401000D03*
G04 #@! TO.P,J1,15*
G04 #@! TO.N,MTF*
X82785000Y-30861000D03*
G04 #@! TO.P,J1,R*
G04 #@! TO.N,~J~n*
X85325000Y-33401000D03*
G04 #@! TO.P,J1,14*
G04 #@! TO.N,JTF*
X85325000Y-30861000D03*
G04 #@! TO.P,J1,P*
G04 #@! TO.N,~OTJ*
X87865000Y-33401000D03*
G04 #@! TO.P,J1,13*
G04 #@! TO.N,GTJ*
X87865000Y-30861000D03*
G04 #@! TO.P,J1,N*
G04 #@! TO.N,~J~n*
X90405000Y-33401000D03*
G04 #@! TO.P,J1,12*
G04 #@! TO.N,An-7*
X90405000Y-30861000D03*
G04 #@! TO.P,J1,M*
G04 #@! TO.N,{Gn}*
X92945000Y-33401000D03*
G04 #@! TO.P,J1,11*
G04 #@! TO.N,PTGb*
X92945000Y-30861000D03*
G04 #@! TO.P,J1,L*
G04 #@! TO.N,PTGa*
X95485000Y-33401000D03*
G04 #@! TO.P,J1,10*
G04 #@! TO.N,~OTG*
X95485000Y-30861000D03*
G04 #@! TO.P,J1,K*
G04 #@! TO.N,N/C*
X98025000Y-33401000D03*
G04 #@! TO.P,J1,9*
G04 #@! TO.N,IPn*
X98025000Y-30861000D03*
G04 #@! TO.P,J1,J*
G04 #@! TO.N,Gn*
X100565000Y-33401000D03*
G04 #@! TO.P,J1,8*
G04 #@! TO.N,VTG*
X100565000Y-30861000D03*
G04 #@! TO.P,J1,H*
G04 #@! TO.N,LTG*
X103105000Y-33401000D03*
G04 #@! TO.P,J1,7*
G04 #@! TO.N,RTG*
X103105000Y-30861000D03*
G04 #@! TO.P,J1,F*
G04 #@! TO.N,N/C*
X105645000Y-33401000D03*
G04 #@! TO.P,J1,6*
G04 #@! TO.N,FTG*
X105645000Y-30861000D03*
G04 #@! TO.P,J1,E*
G04 #@! TO.N,Fn*
X108185000Y-33401000D03*
G04 #@! TO.P,J1,5*
G04 #@! TO.N,FnR*
X108185000Y-30861000D03*
G04 #@! TO.P,J1,D*
G04 #@! TO.N,FnL*
X110725000Y-33401000D03*
G04 #@! TO.P,J1,4*
G04 #@! TO.N,~JTG~*
X110725000Y-30861000D03*
G04 #@! TO.P,J1,C*
G04 #@! TO.N,Cn-1*
X113265000Y-33401000D03*
G04 #@! TO.P,J1,3*
G04 #@! TO.N,Cn*
X113265000Y-30861000D03*
G04 #@! TO.P,J1,B*
G04 #@! TO.N,6v*
X115805000Y-33401000D03*
G04 #@! TO.P,J1,2*
X115805000Y-30861000D03*
G04 #@! TO.P,J1,A*
G04 #@! TO.N,GND*
X118345000Y-33401000D03*
D16*
G04 #@! TO.P,J1,1*
X118345000Y-30861000D03*
G04 #@! TD*
D11*
G04 #@! TO.P,R99,1*
G04 #@! TO.N,Gn*
X219600000Y-93200000D03*
D12*
G04 #@! TO.P,R99,2*
G04 #@! TO.N,6v*
X219600000Y-100820000D03*
G04 #@! TD*
D17*
G04 #@! TO.N,{Mn}*
X77140000Y-46805100D03*
G04 #@! TO.N,An*
X61565700Y-101281000D03*
G04 #@! TO.N,Gn*
X111498000Y-77740300D03*
G04 #@! TO.N,Cn*
X176746000Y-35140600D03*
G04 #@! TO.N,FTG*
X166333000Y-32983400D03*
G04 #@! TO.N,{IPn}*
X99765000Y-70231700D03*
G04 #@! TO.N,~STORE~n*
X61940900Y-50656900D03*
G04 #@! TO.N,~OTA*
X80502800Y-60679400D03*
G04 #@! TO.N,~M~n*
X106736000Y-139728000D03*
G04 #@! TD*
D18*
G04 #@! TO.N,{Mn}*
X77140000Y-46805100D02*
X77140000Y-88498500D01*
X77140000Y-88498500D02*
X97400000Y-108758000D01*
X97400000Y-108758000D02*
X97400000Y-133350000D01*
G04 #@! TO.N,{Qn}*
X66600000Y-70000000D02*
X57385000Y-60785000D01*
X57385000Y-60785000D02*
X57385000Y-33401000D01*
G04 #@! TO.N,Wn*
X121920000Y-77470000D02*
X81515000Y-37065000D01*
X81515000Y-37065000D02*
X81515000Y-30455800D01*
X81515000Y-30455800D02*
X80288500Y-29229300D01*
X80288500Y-29229300D02*
X76796700Y-29229300D01*
X76796700Y-29229300D02*
X75165000Y-30861000D01*
G04 #@! TO.N,Mn*
X152400000Y-143510000D02*
X121920000Y-113030000D01*
X121920000Y-113030000D02*
X121920000Y-87630000D01*
G04 #@! TO.N,An*
X52305000Y-30861000D02*
X53520900Y-29645100D01*
X53520900Y-29645100D02*
X57844300Y-29645100D01*
X57844300Y-29645100D02*
X58655000Y-30455800D01*
X58655000Y-30455800D02*
X58655000Y-60416200D01*
X58655000Y-60416200D02*
X73025000Y-74786200D01*
X73025000Y-74786200D02*
X73025000Y-78740000D01*
X97200000Y-97200000D02*
X91440000Y-91440000D01*
X91440000Y-91440000D02*
X91440000Y-87630000D01*
X61565700Y-101281000D02*
X60960000Y-101886000D01*
X60960000Y-101886000D02*
X60960000Y-138430000D01*
G04 #@! TO.N,Gn*
X100565000Y-33401000D02*
X138504000Y-71339900D01*
X138504000Y-71339900D02*
X143730000Y-71339900D01*
X143730000Y-71339900D02*
X152400000Y-80010000D01*
X121920000Y-82550000D02*
X116308000Y-82550000D01*
X116308000Y-82550000D02*
X111498000Y-77740300D01*
G04 #@! TO.N,Jn*
X133985000Y-78740000D02*
X135365000Y-80120400D01*
X135365000Y-80120400D02*
X135365000Y-99786600D01*
X135365000Y-99786600D02*
X132179000Y-102973000D01*
X132179000Y-102973000D02*
X132179000Y-118209000D01*
X132179000Y-118209000D02*
X152400000Y-138430000D01*
G04 #@! TO.N,Qn*
X60960000Y-148590000D02*
X62780300Y-146770000D01*
X62780300Y-146770000D02*
X62780300Y-89450300D01*
X62780300Y-89450300D02*
X60960000Y-87630000D01*
G04 #@! TO.N,Fn*
X213360000Y-82550000D02*
X231831000Y-101021000D01*
X231831000Y-101021000D02*
X231831000Y-135834000D01*
X231831000Y-135834000D02*
X225425000Y-142240000D01*
G04 #@! TO.N,Net-(U1-Pad12)*
X243840000Y-140970000D02*
X229235000Y-140970000D01*
X229235000Y-140970000D02*
X225425000Y-144780000D01*
G04 #@! TO.N,VTG*
X194382000Y-148645000D02*
X210765000Y-148645000D01*
X170870000Y-92120000D02*
X170870000Y-121342000D01*
X162505000Y-83754400D02*
X170870000Y-92120000D01*
X170870000Y-121342000D02*
X192947000Y-143419000D01*
X102426000Y-29000000D02*
X119000000Y-29000000D01*
X100565000Y-30861000D02*
X102426000Y-29000000D01*
X192947000Y-147211000D02*
X194382000Y-148645000D01*
X119000000Y-29000000D02*
X123000000Y-33000000D01*
X123000000Y-33000000D02*
X144535500Y-33000000D01*
X210765000Y-148645000D02*
X213360000Y-146050000D01*
X144535500Y-33000000D02*
X162505000Y-50969500D01*
X192947000Y-143419000D02*
X192947000Y-147211000D01*
X162505000Y-50969500D02*
X162505000Y-83754400D01*
G04 #@! TO.N,Xn*
X182880000Y-146050000D02*
X184246000Y-144684000D01*
X184246000Y-144684000D02*
X184246000Y-139796000D01*
X184246000Y-139796000D02*
X182880000Y-138430000D01*
X213360000Y-140970000D02*
X207010000Y-147320000D01*
X207010000Y-147320000D02*
X194945000Y-147320000D01*
G04 #@! TO.N,MTF*
X82785000Y-30861000D02*
X83986800Y-29659200D01*
X83986800Y-29659200D02*
X85883700Y-29659200D01*
X85883700Y-29659200D02*
X86595000Y-30370500D01*
X86595000Y-30370500D02*
X86595000Y-33796700D01*
X86595000Y-33796700D02*
X88305400Y-35507100D01*
X88305400Y-35507100D02*
X88849000Y-35507100D01*
X88849000Y-35507100D02*
X130169000Y-76826700D01*
X130169000Y-76826700D02*
X134005000Y-76826700D01*
X134005000Y-76826700D02*
X135816000Y-78637600D01*
X135816000Y-78637600D02*
X135816000Y-100334000D01*
X135816000Y-100334000D02*
X132629000Y-103521000D01*
X132629000Y-103521000D02*
X132629000Y-114443000D01*
X132629000Y-114443000D02*
X153781000Y-135595000D01*
X153781000Y-135595000D02*
X153781000Y-144669000D01*
X153781000Y-144669000D02*
X152400000Y-146050000D01*
G04 #@! TO.N,JTF*
X85325000Y-30861000D02*
X84147100Y-32038900D01*
X84147100Y-32038900D02*
X84147100Y-34915700D01*
X84147100Y-34915700D02*
X131678000Y-82446400D01*
X131678000Y-82446400D02*
X131678000Y-120248000D01*
X131678000Y-120248000D02*
X152400000Y-140970000D01*
G04 #@! TO.N,IIn*
X57385000Y-30861000D02*
X56180300Y-32065700D01*
X56180300Y-32065700D02*
X56180300Y-61030400D01*
X56180300Y-61030400D02*
X64719000Y-69569100D01*
X64719000Y-69569100D02*
X64719000Y-124409000D01*
X64719000Y-124409000D02*
X91440000Y-151130000D01*
G04 #@! TO.N,ATF*
X60960000Y-140970000D02*
X50657100Y-130667000D01*
X50657100Y-130667000D02*
X50657100Y-43736300D01*
X50657100Y-43736300D02*
X48583800Y-41663000D01*
X48583800Y-41663000D02*
X48583800Y-32042200D01*
X48583800Y-32042200D02*
X49765000Y-30861000D01*
G04 #@! TO.N,DTF*
X60960000Y-146050000D02*
X62329900Y-144680000D01*
X62329900Y-144680000D02*
X62329900Y-91066100D01*
X62329900Y-91066100D02*
X51107500Y-79843700D01*
X51107500Y-79843700D02*
X51107500Y-30529600D01*
X51107500Y-30529600D02*
X50229900Y-29652000D01*
X50229900Y-29652000D02*
X48434000Y-29652000D01*
X48434000Y-29652000D02*
X47225000Y-30861000D01*
G04 #@! TO.N,QTF*
X44685000Y-30861000D02*
X45955000Y-32131000D01*
X45955000Y-32131000D02*
X45955000Y-39671100D01*
X45955000Y-39671100D02*
X48950400Y-42666500D01*
X48950400Y-42666500D02*
X48950400Y-139120000D01*
X48950400Y-139120000D02*
X60960000Y-151130000D01*
G04 #@! TO.N,Cn*
X225425000Y-83820000D02*
X176746000Y-35140600D01*
G04 #@! TO.N,FTG*
X213360000Y-80010000D02*
X166333000Y-32983400D01*
G04 #@! TO.N,PTGb*
X180917000Y-75507000D02*
X181880001Y-76470001D01*
X181880001Y-76470001D02*
X182880000Y-77470000D01*
X92945000Y-30861000D02*
X95706022Y-28099978D01*
X119699978Y-28099978D02*
X123000000Y-31400000D01*
X123000000Y-31400000D02*
X144209000Y-31400000D01*
X144209000Y-31400000D02*
X180917000Y-68108000D01*
X95706022Y-28099978D02*
X119699978Y-28099978D01*
X180917000Y-68108000D02*
X180917000Y-75507000D01*
G04 #@! TO.N,IPn*
X103505000Y-142240000D02*
X103505000Y-108076000D01*
X103505000Y-108076000D02*
X78765900Y-83337200D01*
X78765900Y-83337200D02*
X78765900Y-43568000D01*
X78765900Y-43568000D02*
X71355000Y-36157100D01*
X71355000Y-36157100D02*
X71355000Y-32979000D01*
X71355000Y-32979000D02*
X70524900Y-32148900D01*
X70524900Y-32148900D02*
X68832900Y-32148900D01*
X68832900Y-32148900D02*
X67545000Y-30861000D01*
X181880001Y-79010001D02*
X182880000Y-80010000D01*
X100336011Y-28549989D02*
X119349989Y-28549989D01*
X119349989Y-28549989D02*
X123000000Y-32200000D01*
X98025000Y-30861000D02*
X100336011Y-28549989D01*
X123000000Y-32200000D02*
X144372400Y-32200000D01*
X144372400Y-32200000D02*
X180148000Y-67975600D01*
X180148000Y-77278000D02*
X181880001Y-79010001D01*
X180148000Y-67975600D02*
X180148000Y-77278000D01*
G04 #@! TO.N,GTJ*
X152400000Y-82550000D02*
X145507000Y-75656600D01*
X145507000Y-75656600D02*
X133458000Y-75656600D01*
X133458000Y-75656600D02*
X91675000Y-33873600D01*
X91675000Y-33873600D02*
X91675000Y-32970000D01*
X91675000Y-32970000D02*
X90930600Y-32225600D01*
X90930600Y-32225600D02*
X89229600Y-32225600D01*
X89229600Y-32225600D02*
X87865000Y-30861000D01*
G04 #@! TO.N,GTM*
X77705000Y-30861000D02*
X79026700Y-32182700D01*
X79026700Y-32182700D02*
X79026700Y-37116700D01*
X79026700Y-37116700D02*
X121920000Y-80010000D01*
G04 #@! TO.N,GTA*
X62465000Y-30861000D02*
X63640900Y-29685100D01*
X63640900Y-29685100D02*
X70580500Y-29685100D01*
X70580500Y-29685100D02*
X71260300Y-30364900D01*
X71260300Y-30364900D02*
X71260300Y-31160600D01*
X71260300Y-31160600D02*
X72230700Y-32131000D01*
X72230700Y-32131000D02*
X73062900Y-32131000D01*
X73062900Y-32131000D02*
X73895000Y-32963100D01*
X73895000Y-32963100D02*
X73895000Y-35426000D01*
X73895000Y-35426000D02*
X89530700Y-51061700D01*
X89530700Y-51061700D02*
X89530700Y-80640700D01*
X89530700Y-80640700D02*
X91440000Y-82550000D01*
G04 #@! TO.N,GTQ*
X52305000Y-33401000D02*
X52305000Y-73895000D01*
X52305000Y-73895000D02*
X60960000Y-82550000D01*
D19*
G04 #@! TO.N,6v*
X133985000Y-164155000D02*
X156414000Y-164155000D01*
X156414000Y-164155000D02*
X157450000Y-163119000D01*
X133985000Y-168275000D02*
X133985000Y-164155000D01*
X115805000Y-30861000D02*
X115805000Y-33401000D01*
X66600000Y-90805000D02*
X66600000Y-91955300D01*
X66600000Y-91955300D02*
X73025000Y-98380300D01*
X73025000Y-98380300D02*
X73025000Y-104775000D01*
X128600000Y-157620000D02*
X128600000Y-158770000D01*
X128600000Y-158770000D02*
X133985000Y-164155000D01*
X158400000Y-151020000D02*
X158400000Y-152170000D01*
X158400000Y-152170000D02*
X157450000Y-153121000D01*
X157450000Y-153121000D02*
X157450000Y-163119000D01*
X158600000Y-165420000D02*
X158600000Y-164270000D01*
X158600000Y-164270000D02*
X157450000Y-163119000D01*
X128600000Y-157620000D02*
X103505000Y-157620000D01*
X97400000Y-90805000D02*
X97400000Y-91955300D01*
X97400000Y-91955300D02*
X103505000Y-98060300D01*
X103505000Y-98060300D02*
X103505000Y-104775000D01*
X144400000Y-37000000D02*
X144400000Y-38250300D01*
X144400000Y-38250300D02*
X157250000Y-51100000D01*
X157250000Y-51100000D02*
X157250000Y-93119400D01*
X157250000Y-93119400D02*
X158400000Y-94269700D01*
X158400000Y-94269700D02*
X158400000Y-95420000D01*
X97400000Y-152820000D02*
X88480000Y-152820000D01*
X88480000Y-152820000D02*
X73025000Y-168275000D01*
X97200000Y-104820000D02*
X97200000Y-105970000D01*
X97200000Y-105970000D02*
X98550300Y-107321000D01*
X98550300Y-107321000D02*
X98550300Y-150519000D01*
X98550300Y-150519000D02*
X97400000Y-151670000D01*
X97400000Y-151670000D02*
X97400000Y-152820000D01*
X97400000Y-152820000D02*
X98550300Y-152820000D01*
X98550300Y-152820000D02*
X103350000Y-157620000D01*
X103350000Y-157620000D02*
X103505000Y-157620000D01*
X103505000Y-157620000D02*
X103505000Y-168275000D01*
X164465000Y-104775000D02*
X163000000Y-106240000D01*
X163000000Y-106240000D02*
X135450000Y-106240000D01*
X135450000Y-106240000D02*
X133985000Y-104775000D01*
G04 #@! TO.N,Neg6v*
X42145000Y-30861000D02*
X42145000Y-33401000D01*
X47625000Y-168275000D02*
X49075400Y-169725000D01*
X49075400Y-169725000D02*
X76654600Y-169725000D01*
X76654600Y-169725000D02*
X78105000Y-168275000D01*
X78105000Y-168275000D02*
X79555400Y-169725000D01*
X79555400Y-169725000D02*
X107135000Y-169725000D01*
X107135000Y-169725000D02*
X108585000Y-168275000D01*
X169545000Y-104775000D02*
X169545000Y-165326000D01*
X169545000Y-165326000D02*
X171019000Y-166801000D01*
X169545000Y-168275000D02*
X171019000Y-166801000D01*
X171019000Y-166801000D02*
X198551000Y-166801000D01*
X198551000Y-166801000D02*
X200025000Y-168275000D01*
X139065000Y-168275000D02*
X137615000Y-169725000D01*
X137615000Y-169725000D02*
X110035000Y-169725000D01*
X110035000Y-169725000D02*
X108585000Y-168275000D01*
X139065000Y-168275000D02*
X140515000Y-169725000D01*
X140515000Y-169725000D02*
X168095000Y-169725000D01*
X168095000Y-169725000D02*
X169545000Y-168275000D01*
G04 #@! TO.N,GND*
X223971000Y-108769000D02*
X227965000Y-104775000D01*
X197485000Y-104775000D02*
X201479000Y-108769000D01*
X201479000Y-108769000D02*
X223971000Y-108769000D01*
X153850000Y-92507300D02*
X148793000Y-92507300D01*
X148793000Y-92507300D02*
X136525000Y-104775000D01*
X143150000Y-36010000D02*
X143150000Y-47877700D01*
X143150000Y-47877700D02*
X153850000Y-58578500D01*
X153850000Y-58578500D02*
X153850000Y-92507300D01*
X118345000Y-30861000D02*
X118345000Y-33401000D01*
X118345000Y-33401000D02*
X120954000Y-36010000D01*
X120954000Y-36010000D02*
X143150000Y-36010000D01*
X143150000Y-36010000D02*
X143410000Y-35749600D01*
X143410000Y-35749600D02*
X145650000Y-35749600D01*
X145650000Y-35749600D02*
X146900000Y-37000000D01*
X153850000Y-92507300D02*
X164540000Y-103197000D01*
X164540000Y-103197000D02*
X165427000Y-103197000D01*
X165427000Y-103197000D02*
X167005000Y-104775000D01*
X39605000Y-30861000D02*
X39605000Y-33401000D01*
X39605000Y-33401000D02*
X37199000Y-33401000D01*
X37199000Y-33401000D02*
X30800000Y-39800000D01*
X197485000Y-168275000D02*
X199009000Y-169799000D01*
X199009000Y-169799000D02*
X223971000Y-169799000D01*
X223971000Y-169799000D02*
X226441000Y-169799000D01*
X226441000Y-169799000D02*
X227965000Y-168275000D01*
X223971000Y-169799000D02*
X223971000Y-108769000D01*
X136525000Y-168275000D02*
X137975000Y-166825000D01*
X137975000Y-166825000D02*
X165555000Y-166825000D01*
X165555000Y-166825000D02*
X167005000Y-168275000D01*
D18*
G04 #@! TO.N,{IPn}*
X99765000Y-70231700D02*
X110389000Y-80855700D01*
X110389000Y-80855700D02*
X110389000Y-115339000D01*
X110389000Y-115339000D02*
X128400000Y-133350000D01*
G04 #@! TO.N,Cn-1*
X243840000Y-151130000D02*
X246111000Y-148859000D01*
X246111000Y-148859000D02*
X246111000Y-79740600D01*
X246111000Y-79740600D02*
X243840000Y-77470000D01*
G04 #@! TO.N,MTIP*
X121920000Y-146050000D02*
X123291000Y-147421000D01*
X123291000Y-147421000D02*
X123291000Y-151673000D01*
X123291000Y-151673000D02*
X122488000Y-152476000D01*
X122488000Y-152476000D02*
X106135000Y-152476000D01*
X106135000Y-152476000D02*
X101266000Y-147608000D01*
X101266000Y-147608000D02*
X101266000Y-107436000D01*
X101266000Y-107436000D02*
X77865300Y-84035000D01*
X77865300Y-84035000D02*
X77865300Y-46504600D01*
X77865300Y-46504600D02*
X66275000Y-34914300D01*
X66275000Y-34914300D02*
X66275000Y-32131000D01*
X66275000Y-32131000D02*
X65005000Y-30861000D01*
G04 #@! TO.N,~STORE~n*
X61940900Y-50656900D02*
X75508500Y-64224500D01*
X75508500Y-64224500D02*
X75508500Y-88697100D01*
X75508500Y-88697100D02*
X91440000Y-104629000D01*
X91440000Y-104629000D02*
X91440000Y-138430000D01*
G04 #@! TO.N,~Q~n*
X66600000Y-83185000D02*
X66600000Y-77620000D01*
G04 #@! TO.N,~OTQ*
X54845000Y-30861000D02*
X53654400Y-32051600D01*
X53654400Y-32051600D02*
X53654400Y-64396700D01*
X53654400Y-64396700D02*
X62306800Y-73049100D01*
X62306800Y-73049100D02*
X62306800Y-83743200D01*
X62306800Y-83743200D02*
X60960000Y-85090000D01*
G04 #@! TO.N,~A~n*
X97400000Y-83185000D02*
X97400000Y-77406500D01*
X91440000Y-77470000D02*
X96311200Y-77470000D01*
X96311200Y-77470000D02*
X96374700Y-77406500D01*
X96374700Y-77406500D02*
X97400000Y-77406500D01*
X59925000Y-33401000D02*
X59925000Y-59219800D01*
X59925000Y-59219800D02*
X74350400Y-73645200D01*
X74350400Y-73645200D02*
X74350400Y-79954600D01*
X74350400Y-79954600D02*
X73025000Y-81280000D01*
G04 #@! TO.N,~STORE~nx*
X91440000Y-143510000D02*
X88800200Y-140870000D01*
X88800200Y-140870000D02*
X88800200Y-111876000D01*
X88800200Y-111876000D02*
X74800800Y-97876900D01*
X74800800Y-97876900D02*
X74800800Y-69745600D01*
X74800800Y-69745600D02*
X61195000Y-56139800D01*
X61195000Y-56139800D02*
X61195000Y-32131000D01*
X61195000Y-32131000D02*
X59925000Y-30861000D01*
G04 #@! TO.N,~OTA*
X80502800Y-60679400D02*
X80502800Y-74152800D01*
X80502800Y-74152800D02*
X91440000Y-85090000D01*
G04 #@! TO.N,~OTIP*
X121920000Y-148590000D02*
X121858000Y-148652000D01*
X121858000Y-148652000D02*
X102947000Y-148652000D01*
X102947000Y-148652000D02*
X101876000Y-147580000D01*
X101876000Y-147580000D02*
X101876000Y-107402000D01*
X101876000Y-107402000D02*
X78315600Y-83842000D01*
X78315600Y-83842000D02*
X78315600Y-45870500D01*
X78315600Y-45870500D02*
X70085000Y-37639900D01*
X70085000Y-37639900D02*
X70085000Y-33401000D01*
G04 #@! TO.N,~IP~n*
X128400000Y-140970000D02*
X128400000Y-141995000D01*
X128400000Y-141995000D02*
X128600000Y-142195000D01*
X128600000Y-142195000D02*
X128600000Y-150000000D01*
X121920000Y-140970000D02*
X104918000Y-140970000D01*
X104918000Y-140970000D02*
X104918000Y-143367000D01*
X104918000Y-143367000D02*
X103505000Y-144780000D01*
X104918000Y-140970000D02*
X104918000Y-108072000D01*
X104918000Y-108072000D02*
X79216200Y-82370700D01*
X79216200Y-82370700D02*
X79216200Y-41633200D01*
X79216200Y-41633200D02*
X72625000Y-35042000D01*
X72625000Y-35042000D02*
X72625000Y-33401000D01*
G04 #@! TO.N,~M~n*
X109939000Y-136525000D02*
X106736000Y-139728000D01*
X158600000Y-157800000D02*
X159437000Y-156963000D01*
X159437000Y-156963000D02*
X159437000Y-150606000D01*
X159437000Y-150606000D02*
X158793000Y-149962000D01*
X158793000Y-149962000D02*
X153772000Y-149962000D01*
X109939000Y-136525000D02*
X134523000Y-136525000D01*
X134523000Y-136525000D02*
X150504000Y-152506000D01*
X150504000Y-152506000D02*
X152907000Y-152506000D01*
X152907000Y-152506000D02*
X153772000Y-151641000D01*
X153772000Y-151641000D02*
X153772000Y-149962000D01*
X153772000Y-149962000D02*
X152400000Y-148590000D01*
X75165000Y-33401000D02*
X75165000Y-35010000D01*
X75165000Y-35010000D02*
X98893500Y-58738500D01*
X98893500Y-58738500D02*
X98893500Y-74128500D01*
X98893500Y-74128500D02*
X103505000Y-78740000D01*
X103505000Y-78740000D02*
X109939000Y-85173600D01*
X109939000Y-85173600D02*
X109939000Y-136525000D01*
G04 #@! TO.N,~M~TF*
X152400000Y-151130000D02*
X110839000Y-109569000D01*
X110839000Y-109569000D02*
X110839000Y-78107500D01*
X110839000Y-78107500D02*
X110773000Y-78040700D01*
X110773000Y-78040700D02*
X110773000Y-69568500D01*
X110773000Y-69568500D02*
X76515600Y-35311500D01*
X76515600Y-35311500D02*
X76515600Y-30371800D01*
X76515600Y-30371800D02*
X77207800Y-29679600D01*
X77207800Y-29679600D02*
X79063600Y-29679600D01*
X79063600Y-29679600D02*
X80245000Y-30861000D01*
G04 #@! TO.N,~J~n*
X158400000Y-87800000D02*
X158400000Y-77470000D01*
X85325000Y-33401000D02*
X88106500Y-36182500D01*
X88106500Y-36182500D02*
X88887500Y-36182500D01*
X88887500Y-36182500D02*
X133985000Y-81280000D01*
G04 #@! TO.N,~OTJ*
X152400000Y-85090000D02*
X143417000Y-76107000D01*
X143417000Y-76107000D02*
X130571000Y-76107000D01*
X130571000Y-76107000D02*
X87865000Y-33401000D01*
G04 #@! TO.N,~G~n*
X184840000Y-88959900D02*
X174685000Y-88959900D01*
X174685000Y-88959900D02*
X164465000Y-78740000D01*
X194945000Y-78740000D02*
X184840000Y-88845000D01*
X184840000Y-88845000D02*
X184840000Y-88959900D01*
X184840000Y-88959900D02*
X184840000Y-134675000D01*
X184840000Y-134675000D02*
X194945000Y-144780000D01*
G04 #@! TO.N,Net-(U1-Pad4)*
X243840000Y-74930000D02*
X242454000Y-76316100D01*
X242454000Y-76316100D02*
X242454000Y-111644000D01*
X242454000Y-111644000D02*
X245180000Y-114370000D01*
X245180000Y-114370000D02*
X245180000Y-142170000D01*
X245180000Y-142170000D02*
X243840000Y-143510000D01*
G04 #@! TO.N,Net-(U1-Pad2)*
X243840000Y-148590000D02*
X243840000Y-146050000D01*
X243840000Y-146050000D02*
X245660000Y-144230000D01*
X245660000Y-144230000D02*
X245660000Y-89450200D01*
X245660000Y-89450200D02*
X243840000Y-87630000D01*
G04 #@! TO.N,An-7*
X91254999Y-30011001D02*
X90405000Y-30861000D01*
X182880000Y-69434000D02*
X144046000Y-30600000D01*
X182880000Y-74930000D02*
X182880000Y-69434000D01*
X144046000Y-30600000D02*
X123000000Y-30600000D01*
X123000000Y-30600000D02*
X120049967Y-27649967D01*
X120049967Y-27649967D02*
X93616033Y-27649967D01*
X93616033Y-27649967D02*
X91254999Y-30011001D01*
G04 #@! TD*
M02*
