G04 #@! TF.GenerationSoftware,KiCad,Pcbnew,(5.0.0)*
G04 #@! TF.CreationDate,2019-01-17T20:46:19+00:00*
G04 #@! TF.ProjectId,A-FA,412D46412E6B696361645F7063620000,rev?*
G04 #@! TF.SameCoordinates,Original*
G04 #@! TF.FileFunction,Copper,L2,Bot,Signal*
G04 #@! TF.FilePolarity,Positive*
%FSLAX46Y46*%
G04 Gerber Fmt 4.6, Leading zero omitted, Abs format (unit mm)*
G04 Created by KiCad (PCBNEW (5.0.0)) date 01/17/19 20:46:19*
%MOMM*%
%LPD*%
G01*
G04 APERTURE LIST*
G04 #@! TA.AperFunction,ComponentPad*
%ADD10C,1.524000*%
G04 #@! TD*
G04 #@! TA.AperFunction,ComponentPad*
%ADD11C,1.400000*%
G04 #@! TD*
G04 #@! TA.AperFunction,ComponentPad*
%ADD12O,1.400000X1.400000*%
G04 #@! TD*
G04 #@! TA.AperFunction,ComponentPad*
%ADD13C,2.000000*%
G04 #@! TD*
G04 #@! TA.AperFunction,ComponentPad*
%ADD14C,1.600000*%
G04 #@! TD*
G04 #@! TA.AperFunction,ComponentPad*
%ADD15R,1.600000X1.600000*%
G04 #@! TD*
G04 #@! TA.AperFunction,ComponentPad*
%ADD16R,1.700000X1.700000*%
G04 #@! TD*
G04 #@! TA.AperFunction,ComponentPad*
%ADD17C,1.700000*%
G04 #@! TD*
G04 #@! TA.AperFunction,ViaPad*
%ADD18C,0.800000*%
G04 #@! TD*
G04 #@! TA.AperFunction,Conductor*
%ADD19C,0.250000*%
G04 #@! TD*
G04 APERTURE END LIST*
D10*
G04 #@! TO.P,U8,21*
G04 #@! TO.N,6v*
X225425000Y-104775000D03*
G04 #@! TO.P,U8,22*
G04 #@! TO.N,GND*
X227965000Y-104775000D03*
G04 #@! TO.P,U8,23*
G04 #@! TO.N,Neg6v*
X230505000Y-104775000D03*
G04 #@! TO.P,U8,1*
G04 #@! TO.N,TP3*
X243840000Y-87630000D03*
G04 #@! TO.P,U8,2*
G04 #@! TO.N,TP2*
X243840000Y-85090000D03*
G04 #@! TO.P,U8,3*
G04 #@! TO.N,Gn-*
X243840000Y-82550000D03*
G04 #@! TO.P,U8,4*
G04 #@! TO.N,JTG-|NC*
X243840000Y-80010000D03*
G04 #@! TO.P,U8,5*
G04 #@! TO.N,Cn-1*
X243840000Y-77470000D03*
G04 #@! TO.P,U8,6*
G04 #@! TO.N,TP1*
X243840000Y-74930000D03*
G04 #@! TO.P,U8,11*
G04 #@! TO.N,Cn*
X225425000Y-83820000D03*
G04 #@! TO.P,U8,12*
G04 #@! TO.N,Gn*
X225425000Y-81280000D03*
G04 #@! TO.P,U8,13*
G04 #@! TO.N,TP3*
X225425000Y-78740000D03*
G04 #@! TD*
G04 #@! TO.P,U1,13*
G04 #@! TO.N,Fn*
X225425000Y-142240000D03*
G04 #@! TO.P,U1,12*
G04 #@! TO.N,Net-(U1-Pad12)*
X225425000Y-144780000D03*
G04 #@! TO.P,U1,11*
G04 #@! TO.N,N/C*
X225425000Y-147320000D03*
G04 #@! TO.P,U1,6*
X243840000Y-138430000D03*
G04 #@! TO.P,U1,5*
G04 #@! TO.N,Net-(U1-Pad12)*
X243840000Y-140970000D03*
G04 #@! TO.P,U1,4*
G04 #@! TO.N,TP1*
X243840000Y-143510000D03*
G04 #@! TO.P,U1,3*
G04 #@! TO.N,TP3*
X243840000Y-146050000D03*
G04 #@! TO.P,U1,2*
X243840000Y-148590000D03*
G04 #@! TO.P,U1,1*
G04 #@! TO.N,Cn-1*
X243840000Y-151130000D03*
G04 #@! TO.P,U1,23*
G04 #@! TO.N,Neg6v*
X230505000Y-168275000D03*
G04 #@! TO.P,U1,22*
G04 #@! TO.N,GND*
X227965000Y-168275000D03*
G04 #@! TO.P,U1,21*
G04 #@! TO.N,6v*
X225425000Y-168275000D03*
G04 #@! TD*
G04 #@! TO.P,U12,21*
G04 #@! TO.N,6v*
X103505000Y-104775000D03*
G04 #@! TO.P,U12,22*
G04 #@! TO.N,GND*
X106045000Y-104775000D03*
G04 #@! TO.P,U12,23*
G04 #@! TO.N,Neg6v*
X108585000Y-104775000D03*
G04 #@! TO.P,U12,1*
G04 #@! TO.N,Mn*
X121920000Y-87630000D03*
G04 #@! TO.P,U12,2*
G04 #@! TO.N,0TM-*
X121920000Y-85090000D03*
G04 #@! TO.P,U12,3*
G04 #@! TO.N,Gn*
X121920000Y-82550000D03*
G04 #@! TO.P,U12,4*
G04 #@! TO.N,GTM*
X121920000Y-80010000D03*
G04 #@! TO.P,U12,5*
G04 #@! TO.N,Wn*
X121920000Y-77470000D03*
G04 #@! TO.P,U12,6*
G04 #@! TO.N,WTM*
X121920000Y-74930000D03*
G04 #@! TO.P,U12,11*
G04 #@! TO.N,N/C*
X103505000Y-83820000D03*
G04 #@! TO.P,U12,12*
X103505000Y-81280000D03*
G04 #@! TO.P,U12,13*
G04 #@! TO.N,Mn-*
X103505000Y-78740000D03*
G04 #@! TD*
G04 #@! TO.P,U11,13*
G04 #@! TO.N,Jn*
X133985000Y-78740000D03*
G04 #@! TO.P,U11,12*
G04 #@! TO.N,Jn-*
X133985000Y-81280000D03*
G04 #@! TO.P,U11,11*
G04 #@! TO.N,N/C*
X133985000Y-83820000D03*
G04 #@! TO.P,U11,6*
X152400000Y-74930000D03*
G04 #@! TO.P,U11,5*
G04 #@! TO.N,Jn-*
X152400000Y-77470000D03*
G04 #@! TO.P,U11,4*
G04 #@! TO.N,Gn*
X152400000Y-80010000D03*
G04 #@! TO.P,U11,3*
G04 #@! TO.N,GTJ*
X152400000Y-82550000D03*
G04 #@! TO.P,U11,2*
G04 #@! TO.N,0TJ-*
X152400000Y-85090000D03*
G04 #@! TO.P,U11,1*
G04 #@! TO.N,Jn*
X152400000Y-87630000D03*
G04 #@! TO.P,U11,23*
G04 #@! TO.N,Neg6v*
X139065000Y-104775000D03*
G04 #@! TO.P,U11,22*
G04 #@! TO.N,GND*
X136525000Y-104775000D03*
G04 #@! TO.P,U11,21*
G04 #@! TO.N,6v*
X133985000Y-104775000D03*
G04 #@! TD*
G04 #@! TO.P,U14,21*
G04 #@! TO.N,6v*
X42545000Y-104775000D03*
G04 #@! TO.P,U14,22*
G04 #@! TO.N,GND*
X45085000Y-104775000D03*
G04 #@! TO.P,U14,23*
G04 #@! TO.N,Neg6v*
X47625000Y-104775000D03*
G04 #@! TO.P,U14,1*
G04 #@! TO.N,Qn*
X60960000Y-87630000D03*
G04 #@! TO.P,U14,2*
G04 #@! TO.N,0TQ-*
X60960000Y-85090000D03*
G04 #@! TO.P,U14,3*
G04 #@! TO.N,GTQ*
X60960000Y-82550000D03*
G04 #@! TO.P,U14,4*
G04 #@! TO.N,Gn*
X60960000Y-80010000D03*
G04 #@! TO.P,U14,5*
G04 #@! TO.N,Qn-*
X60960000Y-77470000D03*
G04 #@! TO.P,U14,6*
G04 #@! TO.N,N/C*
X60960000Y-74930000D03*
G04 #@! TO.P,U14,11*
X42545000Y-83820000D03*
G04 #@! TO.P,U14,12*
G04 #@! TO.N,Qn-*
X42545000Y-81280000D03*
G04 #@! TO.P,U14,13*
G04 #@! TO.N,Qn*
X42545000Y-78740000D03*
G04 #@! TD*
G04 #@! TO.P,U13,13*
G04 #@! TO.N,An*
X73025000Y-78740000D03*
G04 #@! TO.P,U13,12*
G04 #@! TO.N,An-*
X73025000Y-81280000D03*
G04 #@! TO.P,U13,11*
G04 #@! TO.N,N/C*
X73025000Y-83820000D03*
G04 #@! TO.P,U13,6*
X91440000Y-74930000D03*
G04 #@! TO.P,U13,5*
G04 #@! TO.N,An-*
X91440000Y-77470000D03*
G04 #@! TO.P,U13,4*
G04 #@! TO.N,Gn*
X91440000Y-80010000D03*
G04 #@! TO.P,U13,3*
G04 #@! TO.N,GTA*
X91440000Y-82550000D03*
G04 #@! TO.P,U13,2*
G04 #@! TO.N,0TA-*
X91440000Y-85090000D03*
G04 #@! TO.P,U13,1*
G04 #@! TO.N,An*
X91440000Y-87630000D03*
G04 #@! TO.P,U13,23*
G04 #@! TO.N,Neg6v*
X78105000Y-104775000D03*
G04 #@! TO.P,U13,22*
G04 #@! TO.N,GND*
X75565000Y-104775000D03*
G04 #@! TO.P,U13,21*
G04 #@! TO.N,6v*
X73025000Y-104775000D03*
G04 #@! TD*
D11*
G04 #@! TO.P,R3,1*
G04 #@! TO.N,{Gn}*
X237426000Y-74866500D03*
D12*
G04 #@! TO.P,R3,2*
G04 #@! TO.N,Gn-*
X237426000Y-82486500D03*
G04 #@! TD*
G04 #@! TO.P,R4,2*
G04 #@! TO.N,Jn-*
X146114000Y-77470000D03*
D11*
G04 #@! TO.P,R4,1*
G04 #@! TO.N,{Jn}*
X146114000Y-69850000D03*
G04 #@! TD*
G04 #@! TO.P,R5,1*
G04 #@! TO.N,{Mn}*
X84010500Y-133350000D03*
D12*
G04 #@! TO.P,R5,2*
G04 #@! TO.N,Mn-*
X84010500Y-140970000D03*
G04 #@! TD*
D11*
G04 #@! TO.P,R6,1*
G04 #@! TO.N,{IPn}*
X113856000Y-133350000D03*
D12*
G04 #@! TO.P,R6,2*
G04 #@! TO.N,IPn-*
X113856000Y-140970000D03*
G04 #@! TD*
D11*
G04 #@! TO.P,R7,1*
G04 #@! TO.N,{An}*
X84772500Y-69786500D03*
D12*
G04 #@! TO.P,R7,2*
G04 #@! TO.N,An-*
X84772500Y-77406500D03*
G04 #@! TD*
D11*
G04 #@! TO.P,R8,1*
G04 #@! TO.N,{Qn}*
X53975000Y-69913500D03*
D12*
G04 #@! TO.P,R8,2*
G04 #@! TO.N,Qn-*
X53975000Y-77533500D03*
G04 #@! TD*
D11*
G04 #@! TO.P,R9,1*
G04 #@! TO.N,Wn*
X114998000Y-77470000D03*
D12*
G04 #@! TO.P,R9,2*
G04 #@! TO.N,6v*
X114998000Y-85090000D03*
G04 #@! TD*
D11*
G04 #@! TO.P,R10,1*
G04 #@! TO.N,Jn-*
X146304000Y-87820500D03*
D12*
G04 #@! TO.P,R10,2*
G04 #@! TO.N,6v*
X146304000Y-95440500D03*
G04 #@! TD*
G04 #@! TO.P,R11,2*
G04 #@! TO.N,6v*
X144653000Y-157924000D03*
D11*
G04 #@! TO.P,R11,1*
G04 #@! TO.N,Mn-*
X152273000Y-157924000D03*
G04 #@! TD*
D12*
G04 #@! TO.P,R12,2*
G04 #@! TO.N,6v*
X113919000Y-157670000D03*
D11*
G04 #@! TO.P,R12,1*
G04 #@! TO.N,IPn-*
X113919000Y-150050000D03*
G04 #@! TD*
G04 #@! TO.P,R13,1*
G04 #@! TO.N,An-*
X84772500Y-83185000D03*
D12*
G04 #@! TO.P,R13,2*
G04 #@! TO.N,6v*
X84772500Y-90805000D03*
G04 #@! TD*
G04 #@! TO.P,R14,2*
G04 #@! TO.N,6v*
X144716000Y-151130000D03*
D11*
G04 #@! TO.P,R14,1*
G04 #@! TO.N,Mn*
X144716000Y-143510000D03*
G04 #@! TD*
D12*
G04 #@! TO.P,R15,2*
G04 #@! TO.N,6v*
X87947500Y-136017000D03*
D11*
G04 #@! TO.P,R15,1*
G04 #@! TO.N,STOREnx-*
X87947500Y-143637000D03*
G04 #@! TD*
D12*
G04 #@! TO.P,R16,2*
G04 #@! TO.N,6v*
X53975000Y-90805000D03*
D11*
G04 #@! TO.P,R16,1*
G04 #@! TO.N,Qn-*
X53975000Y-83185000D03*
G04 #@! TD*
D12*
G04 #@! TO.P,R17,2*
G04 #@! TO.N,6v*
X91503500Y-102108000D03*
D11*
G04 #@! TO.P,R17,1*
G04 #@! TO.N,An*
X91503500Y-94488000D03*
G04 #@! TD*
D13*
G04 #@! TO.P,TP1,1*
G04 #@! TO.N,TP1*
X250190000Y-120650000D03*
G04 #@! TD*
G04 #@! TO.P,TP2,1*
G04 #@! TO.N,TP2*
X250190000Y-69850000D03*
G04 #@! TD*
G04 #@! TO.P,TP3,1*
G04 #@! TO.N,TP3*
X250190000Y-125730000D03*
G04 #@! TD*
D10*
G04 #@! TO.P,U2,21*
G04 #@! TO.N,6v*
X194945000Y-168275000D03*
G04 #@! TO.P,U2,22*
G04 #@! TO.N,GND*
X197485000Y-168275000D03*
G04 #@! TO.P,U2,23*
G04 #@! TO.N,Neg6v*
X200025000Y-168275000D03*
G04 #@! TO.P,U2,1*
G04 #@! TO.N,Xn-*
X213360000Y-151130000D03*
G04 #@! TO.P,U2,2*
G04 #@! TO.N,N/C*
X213360000Y-148590000D03*
G04 #@! TO.P,U2,3*
G04 #@! TO.N,VTG*
X213360000Y-146050000D03*
G04 #@! TO.P,U2,4*
G04 #@! TO.N,Yn*
X213360000Y-143510000D03*
G04 #@! TO.P,U2,5*
G04 #@! TO.N,Xn*
X213360000Y-140970000D03*
G04 #@! TO.P,U2,6*
G04 #@! TO.N,Yn-*
X213360000Y-138430000D03*
G04 #@! TO.P,U2,11*
G04 #@! TO.N,Xn*
X194945000Y-147320000D03*
G04 #@! TO.P,U2,12*
G04 #@! TO.N,Gn-*
X194945000Y-144780000D03*
G04 #@! TO.P,U2,13*
G04 #@! TO.N,Yn*
X194945000Y-142240000D03*
G04 #@! TD*
G04 #@! TO.P,U3,21*
G04 #@! TO.N,6v*
X164465000Y-168275000D03*
G04 #@! TO.P,U3,22*
G04 #@! TO.N,GND*
X167005000Y-168275000D03*
G04 #@! TO.P,U3,23*
G04 #@! TO.N,Neg6v*
X169545000Y-168275000D03*
G04 #@! TO.P,U3,1*
G04 #@! TO.N,Xn-*
X182880000Y-151130000D03*
G04 #@! TO.P,U3,2*
G04 #@! TO.N,Yn-*
X182880000Y-148590000D03*
G04 #@! TO.P,U3,3*
G04 #@! TO.N,Xn*
X182880000Y-146050000D03*
G04 #@! TO.P,U3,4*
G04 #@! TO.N,Yn*
X182880000Y-143510000D03*
G04 #@! TO.P,U3,5*
X182880000Y-140970000D03*
G04 #@! TO.P,U3,6*
G04 #@! TO.N,Xn*
X182880000Y-138430000D03*
G04 #@! TO.P,U3,11*
G04 #@! TO.N,N/C*
X164465000Y-147320000D03*
G04 #@! TO.P,U3,12*
G04 #@! TO.N,TP1*
X164465000Y-144780000D03*
G04 #@! TO.P,U3,13*
G04 #@! TO.N,TP2*
X164465000Y-142240000D03*
G04 #@! TD*
G04 #@! TO.P,U4,21*
G04 #@! TO.N,6v*
X133985000Y-168275000D03*
G04 #@! TO.P,U4,22*
G04 #@! TO.N,GND*
X136525000Y-168275000D03*
G04 #@! TO.P,U4,23*
G04 #@! TO.N,Neg6v*
X139065000Y-168275000D03*
G04 #@! TO.P,U4,1*
G04 #@! TO.N,M-TF*
X152400000Y-151130000D03*
G04 #@! TO.P,U4,2*
G04 #@! TO.N,Mn-*
X152400000Y-148590000D03*
G04 #@! TO.P,U4,3*
G04 #@! TO.N,MTF*
X152400000Y-146050000D03*
G04 #@! TO.P,U4,4*
G04 #@! TO.N,Mn*
X152400000Y-143510000D03*
G04 #@! TO.P,U4,5*
G04 #@! TO.N,JTF*
X152400000Y-140970000D03*
G04 #@! TO.P,U4,6*
G04 #@! TO.N,Jn*
X152400000Y-138430000D03*
G04 #@! TO.P,U4,11*
G04 #@! TO.N,N/C*
X133985000Y-147320000D03*
G04 #@! TO.P,U4,12*
X133985000Y-144780000D03*
G04 #@! TO.P,U4,13*
G04 #@! TO.N,Xn-*
X133985000Y-142240000D03*
G04 #@! TD*
G04 #@! TO.P,U5,13*
G04 #@! TO.N,IPn*
X103505000Y-142240000D03*
G04 #@! TO.P,U5,12*
G04 #@! TO.N,IPn-*
X103505000Y-144780000D03*
G04 #@! TO.P,U5,11*
G04 #@! TO.N,N/C*
X103505000Y-147320000D03*
G04 #@! TO.P,U5,6*
X121920000Y-138430000D03*
G04 #@! TO.P,U5,5*
G04 #@! TO.N,IPn-*
X121920000Y-140970000D03*
G04 #@! TO.P,U5,4*
G04 #@! TO.N,Mn*
X121920000Y-143510000D03*
G04 #@! TO.P,U5,3*
G04 #@! TO.N,MTIP*
X121920000Y-146050000D03*
G04 #@! TO.P,U5,2*
G04 #@! TO.N,0TIP-*
X121920000Y-148590000D03*
G04 #@! TO.P,U5,1*
G04 #@! TO.N,IPn*
X121920000Y-151130000D03*
G04 #@! TO.P,U5,23*
G04 #@! TO.N,Neg6v*
X108585000Y-168275000D03*
G04 #@! TO.P,U5,22*
G04 #@! TO.N,GND*
X106045000Y-168275000D03*
G04 #@! TO.P,U5,21*
G04 #@! TO.N,6v*
X103505000Y-168275000D03*
G04 #@! TD*
G04 #@! TO.P,U6,21*
G04 #@! TO.N,6v*
X73025000Y-168275000D03*
G04 #@! TO.P,U6,22*
G04 #@! TO.N,GND*
X75565000Y-168275000D03*
G04 #@! TO.P,U6,23*
G04 #@! TO.N,Neg6v*
X78105000Y-168275000D03*
G04 #@! TO.P,U6,1*
G04 #@! TO.N,IIn*
X91440000Y-151130000D03*
G04 #@! TO.P,U6,2*
G04 #@! TO.N,N/C*
X91440000Y-148590000D03*
G04 #@! TO.P,U6,3*
X91440000Y-146050000D03*
G04 #@! TO.P,U6,4*
G04 #@! TO.N,STOREnx-*
X91440000Y-143510000D03*
G04 #@! TO.P,U6,5*
G04 #@! TO.N,Mn-*
X91440000Y-140970000D03*
G04 #@! TO.P,U6,6*
G04 #@! TO.N,STOREn-*
X91440000Y-138430000D03*
G04 #@! TO.P,U6,11*
G04 #@! TO.N,Mn-*
X73025000Y-147320000D03*
G04 #@! TO.P,U6,12*
G04 #@! TO.N,N/C*
X73025000Y-144780000D03*
G04 #@! TO.P,U6,13*
G04 #@! TO.N,Mn*
X73025000Y-142240000D03*
G04 #@! TD*
G04 #@! TO.P,U7,13*
G04 #@! TO.N,Yn-*
X42545000Y-142240000D03*
G04 #@! TO.P,U7,12*
G04 #@! TO.N,N/C*
X42545000Y-144780000D03*
G04 #@! TO.P,U7,11*
X42545000Y-147320000D03*
G04 #@! TO.P,U7,6*
G04 #@! TO.N,An*
X60960000Y-138430000D03*
G04 #@! TO.P,U7,5*
G04 #@! TO.N,ATF*
X60960000Y-140970000D03*
G04 #@! TO.P,U7,4*
G04 #@! TO.N,N/C*
X60960000Y-143510000D03*
G04 #@! TO.P,U7,3*
G04 #@! TO.N,DTF*
X60960000Y-146050000D03*
G04 #@! TO.P,U7,2*
G04 #@! TO.N,Qn*
X60960000Y-148590000D03*
G04 #@! TO.P,U7,1*
G04 #@! TO.N,QTF*
X60960000Y-151130000D03*
G04 #@! TO.P,U7,23*
G04 #@! TO.N,Neg6v*
X47625000Y-168275000D03*
G04 #@! TO.P,U7,22*
G04 #@! TO.N,GND*
X45085000Y-168275000D03*
G04 #@! TO.P,U7,21*
G04 #@! TO.N,6v*
X42545000Y-168275000D03*
G04 #@! TD*
G04 #@! TO.P,U9,13*
G04 #@! TO.N,Gn-*
X194945000Y-78740000D03*
G04 #@! TO.P,U9,12*
G04 #@! TO.N,N/C*
X194945000Y-81280000D03*
G04 #@! TO.P,U9,11*
X194945000Y-83820000D03*
G04 #@! TO.P,U9,6*
G04 #@! TO.N,RTG*
X213360000Y-74930000D03*
G04 #@! TO.P,U9,5*
G04 #@! TO.N,FnR*
X213360000Y-77470000D03*
G04 #@! TO.P,U9,4*
G04 #@! TO.N,FTG*
X213360000Y-80010000D03*
G04 #@! TO.P,U9,3*
G04 #@! TO.N,Fn*
X213360000Y-82550000D03*
G04 #@! TO.P,U9,2*
G04 #@! TO.N,LTG*
X213360000Y-85090000D03*
G04 #@! TO.P,U9,1*
G04 #@! TO.N,FnL*
X213360000Y-87630000D03*
G04 #@! TO.P,U9,23*
G04 #@! TO.N,Neg6v*
X200025000Y-104775000D03*
G04 #@! TO.P,U9,22*
G04 #@! TO.N,GND*
X197485000Y-104775000D03*
G04 #@! TO.P,U9,21*
G04 #@! TO.N,6v*
X194945000Y-104775000D03*
G04 #@! TD*
G04 #@! TO.P,U10,13*
G04 #@! TO.N,Gn-*
X164465000Y-78740000D03*
G04 #@! TO.P,U10,12*
G04 #@! TO.N,N/C*
X164465000Y-81280000D03*
G04 #@! TO.P,U10,11*
X164465000Y-83820000D03*
G04 #@! TO.P,U10,6*
G04 #@! TO.N,An-7|IPn*
X182880000Y-74930000D03*
G04 #@! TO.P,U10,5*
G04 #@! TO.N,PTGb*
X182880000Y-77470000D03*
G04 #@! TO.P,U10,4*
G04 #@! TO.N,IPn*
X182880000Y-80010000D03*
G04 #@! TO.P,U10,3*
G04 #@! TO.N,PTGa*
X182880000Y-82550000D03*
G04 #@! TO.P,U10,2*
G04 #@! TO.N,0TG-*
X182880000Y-85090000D03*
G04 #@! TO.P,U10,1*
G04 #@! TO.N,Gn*
X182880000Y-87630000D03*
G04 #@! TO.P,U10,23*
G04 #@! TO.N,Neg6v*
X169545000Y-104775000D03*
G04 #@! TO.P,U10,22*
G04 #@! TO.N,GND*
X167005000Y-104775000D03*
G04 #@! TO.P,U10,21*
G04 #@! TO.N,6v*
X164465000Y-104775000D03*
G04 #@! TD*
D14*
G04 #@! TO.P,C1,2*
G04 #@! TO.N,GND*
X243800000Y-33020000D03*
D15*
G04 #@! TO.P,C1,1*
G04 #@! TO.N,6v*
X241300000Y-33020000D03*
G04 #@! TD*
G04 #@! TO.P,C2,1*
G04 #@! TO.N,GND*
X228600000Y-33020000D03*
D14*
G04 #@! TO.P,C2,2*
G04 #@! TO.N,Neg6v*
X231100000Y-33020000D03*
G04 #@! TD*
D16*
G04 #@! TO.P,J1,1*
G04 #@! TO.N,GND*
X177800000Y-30480000D03*
D17*
G04 #@! TO.P,J1,A*
X177800000Y-33020000D03*
G04 #@! TO.P,J1,2*
G04 #@! TO.N,6v*
X175260000Y-30480000D03*
G04 #@! TO.P,J1,B*
X175260000Y-33020000D03*
G04 #@! TO.P,J1,3*
G04 #@! TO.N,Cn*
X172720000Y-30480000D03*
G04 #@! TO.P,J1,C*
G04 #@! TO.N,Cn-1*
X172720000Y-33020000D03*
G04 #@! TO.P,J1,4*
G04 #@! TO.N,JTG-|NC*
X170180000Y-30480000D03*
G04 #@! TO.P,J1,D*
G04 #@! TO.N,FnL*
X170180000Y-33020000D03*
G04 #@! TO.P,J1,5*
G04 #@! TO.N,FnR*
X167640000Y-30480000D03*
G04 #@! TO.P,J1,E*
G04 #@! TO.N,Fn*
X167640000Y-33020000D03*
G04 #@! TO.P,J1,6*
G04 #@! TO.N,FTG*
X165100000Y-30480000D03*
G04 #@! TO.P,J1,F*
G04 #@! TO.N,N/C*
X165100000Y-33020000D03*
G04 #@! TO.P,J1,7*
G04 #@! TO.N,RTG*
X162560000Y-30480000D03*
G04 #@! TO.P,J1,H*
G04 #@! TO.N,LTG*
X162560000Y-33020000D03*
G04 #@! TO.P,J1,8*
G04 #@! TO.N,VTG*
X160020000Y-30480000D03*
G04 #@! TO.P,J1,J*
G04 #@! TO.N,Gn*
X160020000Y-33020000D03*
G04 #@! TO.P,J1,9*
G04 #@! TO.N,IPn*
X157480000Y-30480000D03*
G04 #@! TO.P,J1,K*
G04 #@! TO.N,N/C*
X157480000Y-33020000D03*
G04 #@! TO.P,J1,10*
G04 #@! TO.N,0TG-*
X154940000Y-30480000D03*
G04 #@! TO.P,J1,L*
G04 #@! TO.N,PTGa*
X154940000Y-33020000D03*
G04 #@! TO.P,J1,11*
G04 #@! TO.N,PTGb*
X152400000Y-30480000D03*
G04 #@! TO.P,J1,M*
G04 #@! TO.N,{Gn}*
X152400000Y-33020000D03*
G04 #@! TO.P,J1,12*
G04 #@! TO.N,An-7|IPn*
X149860000Y-30480000D03*
G04 #@! TO.P,J1,N*
G04 #@! TO.N,Jn-*
X149860000Y-33020000D03*
G04 #@! TO.P,J1,13*
G04 #@! TO.N,GTJ*
X147320000Y-30480000D03*
G04 #@! TO.P,J1,P*
G04 #@! TO.N,0TJ-*
X147320000Y-33020000D03*
G04 #@! TO.P,J1,14*
G04 #@! TO.N,JTF*
X144780000Y-30480000D03*
G04 #@! TO.P,J1,R*
G04 #@! TO.N,Jn-*
X144780000Y-33020000D03*
G04 #@! TO.P,J1,15*
G04 #@! TO.N,MTF*
X142240000Y-30480000D03*
G04 #@! TO.P,J1,S*
G04 #@! TO.N,{Jn}*
X142240000Y-33020000D03*
G04 #@! TO.P,J1,16*
G04 #@! TO.N,M-TF*
X139700000Y-30480000D03*
G04 #@! TO.P,J1,T*
G04 #@! TO.N,Jn*
X139700000Y-33020000D03*
G04 #@! TO.P,J1,17*
G04 #@! TO.N,GTM*
X137160000Y-30480000D03*
G04 #@! TO.P,J1,U*
G04 #@! TO.N,{Mn}*
X137160000Y-33020000D03*
G04 #@! TO.P,J1,18*
G04 #@! TO.N,Wn*
X134620000Y-30480000D03*
G04 #@! TO.P,J1,V*
G04 #@! TO.N,Mn-*
X134620000Y-33020000D03*
G04 #@! TO.P,J1,19*
G04 #@! TO.N,WTM*
X132080000Y-30480000D03*
G04 #@! TO.P,J1,W*
G04 #@! TO.N,IPn-*
X132080000Y-33020000D03*
G04 #@! TO.P,J1,20*
G04 #@! TO.N,0TM-*
X129540000Y-30480000D03*
G04 #@! TO.P,J1,X*
G04 #@! TO.N,0TIP-*
X129540000Y-33020000D03*
G04 #@! TO.P,J1,21*
G04 #@! TO.N,IPn*
X127000000Y-30480000D03*
G04 #@! TO.P,J1,Y*
G04 #@! TO.N,{IPn}*
X127000000Y-33020000D03*
G04 #@! TO.P,J1,22*
G04 #@! TO.N,MTIP*
X124460000Y-30480000D03*
G04 #@! TO.P,J1,Z*
G04 #@! TO.N,{An}*
X124460000Y-33020000D03*
G04 #@! TO.P,J1,23*
G04 #@! TO.N,GTA*
X121920000Y-30480000D03*
G04 #@! TO.P,J1,AA*
G04 #@! TO.N,0TA-*
X121920000Y-33020000D03*
G04 #@! TO.P,J1,24*
G04 #@! TO.N,STOREnx-*
X119380000Y-30480000D03*
G04 #@! TO.P,J1,AB*
G04 #@! TO.N,An-*
X119380000Y-33020000D03*
G04 #@! TO.P,J1,25*
G04 #@! TO.N,IIn*
X116840000Y-30480000D03*
G04 #@! TO.P,J1,AC*
G04 #@! TO.N,{Qn}*
X116840000Y-33020000D03*
G04 #@! TO.P,J1,26*
G04 #@! TO.N,0TQ-*
X114300000Y-30480000D03*
G04 #@! TO.P,J1,AD*
G04 #@! TO.N,Mn*
X114300000Y-33020000D03*
G04 #@! TO.P,J1,27*
G04 #@! TO.N,An*
X111760000Y-30480000D03*
G04 #@! TO.P,J1,AE*
G04 #@! TO.N,GTQ*
X111760000Y-33020000D03*
G04 #@! TO.P,J1,28*
G04 #@! TO.N,ATF*
X109220000Y-30480000D03*
G04 #@! TO.P,J1,AF*
G04 #@! TO.N,N/C*
X109220000Y-33020000D03*
G04 #@! TO.P,J1,29*
G04 #@! TO.N,DTF*
X106680000Y-30480000D03*
G04 #@! TO.P,J1,AH*
G04 #@! TO.N,Qn-*
X106680000Y-33020000D03*
G04 #@! TO.P,J1,30*
G04 #@! TO.N,QTF*
X104140000Y-30480000D03*
G04 #@! TO.P,J1,AJ*
G04 #@! TO.N,STOREn-*
X104140000Y-33020000D03*
G04 #@! TO.P,J1,31*
G04 #@! TO.N,Neg6v*
X101600000Y-30480000D03*
G04 #@! TO.P,J1,AK*
X101600000Y-33020000D03*
G04 #@! TO.P,J1,32*
G04 #@! TO.N,GND*
X99060000Y-30480000D03*
G04 #@! TO.P,J1,AL*
X99060000Y-33020000D03*
G04 #@! TD*
D18*
G04 #@! TO.N,{Mn}*
X130738700Y-78891900D03*
G04 #@! TO.N,FnL*
X195655700Y-67558000D03*
G04 #@! TD*
D19*
G04 #@! TO.N,{Jn}*
X142240000Y-33020000D02*
X142240000Y-65976000D01*
X142240000Y-65976000D02*
X146114000Y-69850000D01*
G04 #@! TO.N,{Mn}*
X137160000Y-33020000D02*
X130738700Y-39441300D01*
X130738700Y-39441300D02*
X130738700Y-78891900D01*
G04 #@! TO.N,Mn*
X121920000Y-87630000D02*
X121920000Y-122430400D01*
X121920000Y-122430400D02*
X112380300Y-131970100D01*
X112380300Y-131970100D02*
X112380300Y-133970300D01*
X112380300Y-133970300D02*
X121920000Y-143510000D01*
X114300000Y-33020000D02*
X116915600Y-35635600D01*
X116915600Y-35635600D02*
X116915600Y-82625600D01*
X116915600Y-82625600D02*
X121920000Y-87630000D01*
G04 #@! TO.N,An*
X74972800Y-77602300D02*
X85000500Y-87630000D01*
X85000500Y-87630000D02*
X91440000Y-87630000D01*
X73025000Y-78740000D02*
X74162700Y-77602300D01*
X74162700Y-77602300D02*
X74972800Y-77602300D01*
X111760000Y-30480000D02*
X110584600Y-31655400D01*
X110584600Y-31655400D02*
X103614400Y-31655400D01*
X103614400Y-31655400D02*
X102870000Y-30911000D01*
X102870000Y-30911000D02*
X102870000Y-29979900D01*
X102870000Y-29979900D02*
X102186400Y-29296300D01*
X102186400Y-29296300D02*
X98551700Y-29296300D01*
X98551700Y-29296300D02*
X74972800Y-52875200D01*
X74972800Y-52875200D02*
X74972800Y-77602300D01*
X91503500Y-94488000D02*
X91440000Y-94424500D01*
X91440000Y-94424500D02*
X91440000Y-87630000D01*
G04 #@! TO.N,Gn*
X152400000Y-80010000D02*
X151277200Y-78887200D01*
X151277200Y-78887200D02*
X151277200Y-35127900D01*
X151277200Y-35127900D02*
X151203600Y-35054300D01*
X151203600Y-35054300D02*
X151203600Y-32553700D01*
X151203600Y-32553700D02*
X152072700Y-31684600D01*
X152072700Y-31684600D02*
X152860400Y-31684600D01*
X152860400Y-31684600D02*
X153670000Y-30875000D01*
X153670000Y-30875000D02*
X153670000Y-29991600D01*
X153670000Y-29991600D02*
X154389600Y-29272000D01*
X154389600Y-29272000D02*
X157954700Y-29272000D01*
X157954700Y-29272000D02*
X158750000Y-30067300D01*
X158750000Y-30067300D02*
X158750000Y-30992700D01*
X158750000Y-30992700D02*
X160020000Y-32262700D01*
X160020000Y-32262700D02*
X160020000Y-33020000D01*
G04 #@! TO.N,Jn*
X139700000Y-33020000D02*
X139700000Y-73025000D01*
X139700000Y-73025000D02*
X133985000Y-78740000D01*
X152400000Y-87630000D02*
X152400000Y-138430000D01*
G04 #@! TO.N,Qn*
X60960000Y-87630000D02*
X62055600Y-88725600D01*
X62055600Y-88725600D02*
X62055600Y-143967100D01*
X62055600Y-143967100D02*
X61242700Y-144780000D01*
X61242700Y-144780000D02*
X60658800Y-144780000D01*
X60658800Y-144780000D02*
X59870000Y-145568800D01*
X59870000Y-145568800D02*
X59870000Y-147500000D01*
X59870000Y-147500000D02*
X60960000Y-148590000D01*
G04 #@! TO.N,TP1*
X243840000Y-143510000D02*
X245479000Y-141871000D01*
X245479000Y-141871000D02*
X245479000Y-125361000D01*
X245479000Y-125361000D02*
X250190000Y-120650000D01*
G04 #@! TO.N,TP2*
X250190000Y-69850000D02*
X250190000Y-78740000D01*
X250190000Y-78740000D02*
X243840000Y-85090000D01*
G04 #@! TO.N,TP3*
X250190000Y-125730000D02*
X250190000Y-139700000D01*
X250190000Y-139700000D02*
X243840000Y-146050000D01*
X243840000Y-146050000D02*
X243840000Y-148590000D01*
G04 #@! TO.N,Fn*
X167640000Y-33020000D02*
X208330700Y-73710700D01*
X208330700Y-73710700D02*
X213686500Y-73710700D01*
X213686500Y-73710700D02*
X214482400Y-74506600D01*
X214482400Y-74506600D02*
X214482400Y-75377600D01*
X214482400Y-75377600D02*
X213660000Y-76200000D01*
X213660000Y-76200000D02*
X213018500Y-76200000D01*
X213018500Y-76200000D02*
X212254600Y-76963900D01*
X212254600Y-76963900D02*
X212254600Y-81444600D01*
X212254600Y-81444600D02*
X213360000Y-82550000D01*
X213360000Y-82550000D02*
X217034000Y-86224000D01*
X217034000Y-86224000D02*
X217034000Y-133849000D01*
X217034000Y-133849000D02*
X225425000Y-142240000D01*
G04 #@! TO.N,Net-(U1-Pad12)*
X243840000Y-140970000D02*
X229235000Y-140970000D01*
X229235000Y-140970000D02*
X225425000Y-144780000D01*
G04 #@! TO.N,VTG*
X213360000Y-146050000D02*
X210727200Y-143417200D01*
X210727200Y-143417200D02*
X210727200Y-90227400D01*
X210727200Y-90227400D02*
X161199700Y-40699900D01*
X161199700Y-40699900D02*
X161199700Y-31659700D01*
X161199700Y-31659700D02*
X160020000Y-30480000D01*
G04 #@! TO.N,Xn*
X183969400Y-144960600D02*
X186328800Y-147320000D01*
X186328800Y-147320000D02*
X194945000Y-147320000D01*
X182880000Y-138430000D02*
X183969400Y-139519400D01*
X183969400Y-139519400D02*
X183969400Y-144960600D01*
X183969400Y-144960600D02*
X182880000Y-146050000D01*
G04 #@! TO.N,MTF*
X142240000Y-30480000D02*
X143510000Y-31750000D01*
X143510000Y-31750000D02*
X143510000Y-65706000D01*
X143510000Y-65706000D02*
X149025500Y-71221500D01*
X149025500Y-71221500D02*
X149025500Y-142675500D01*
X149025500Y-142675500D02*
X152400000Y-146050000D01*
G04 #@! TO.N,JTF*
X144780000Y-30480000D02*
X146050000Y-31750000D01*
X146050000Y-31750000D02*
X146050000Y-34722600D01*
X146050000Y-34722600D02*
X149475800Y-38148400D01*
X149475800Y-38148400D02*
X149475800Y-138045800D01*
X149475800Y-138045800D02*
X152400000Y-140970000D01*
G04 #@! TO.N,IIn*
X91440000Y-151130000D02*
X113119600Y-129450400D01*
X113119600Y-129450400D02*
X113119600Y-32531700D01*
X113119600Y-32531700D02*
X113836800Y-31814500D01*
X113836800Y-31814500D02*
X115505500Y-31814500D01*
X115505500Y-31814500D02*
X116840000Y-30480000D01*
G04 #@! TO.N,ATF*
X60960000Y-140970000D02*
X59855600Y-139865600D01*
X59855600Y-139865600D02*
X59855600Y-66067000D01*
X59855600Y-66067000D02*
X98024600Y-27898000D01*
X98024600Y-27898000D02*
X106638000Y-27898000D01*
X106638000Y-27898000D02*
X109220000Y-30480000D01*
G04 #@! TO.N,DTF*
X106680000Y-30480000D02*
X104548400Y-28348400D01*
X104548400Y-28348400D02*
X98225800Y-28348400D01*
X98225800Y-28348400D02*
X62933100Y-63641100D01*
X62933100Y-63641100D02*
X62933100Y-144076900D01*
X62933100Y-144076900D02*
X60960000Y-146050000D01*
G04 #@! TO.N,QTF*
X60960000Y-151130000D02*
X65205700Y-146884300D01*
X65205700Y-146884300D02*
X65205700Y-62005400D01*
X65205700Y-62005400D02*
X98365200Y-28845900D01*
X98365200Y-28845900D02*
X102505900Y-28845900D01*
X102505900Y-28845900D02*
X104140000Y-30480000D01*
G04 #@! TO.N,Cn*
X172720000Y-30480000D02*
X173990000Y-31750000D01*
X173990000Y-31750000D02*
X173990000Y-33423300D01*
X173990000Y-33423300D02*
X174794300Y-34227600D01*
X174794300Y-34227600D02*
X176151100Y-34227600D01*
X176151100Y-34227600D02*
X225425000Y-83501500D01*
X225425000Y-83501500D02*
X225425000Y-83820000D01*
G04 #@! TO.N,RTG*
X162560000Y-30480000D02*
X163924600Y-31844600D01*
X163924600Y-31844600D02*
X165589500Y-31844600D01*
X165589500Y-31844600D02*
X166275400Y-32530500D01*
X166275400Y-32530500D02*
X166275400Y-33331000D01*
X166275400Y-33331000D02*
X167188400Y-34244000D01*
X167188400Y-34244000D02*
X167704100Y-34244000D01*
X167704100Y-34244000D02*
X208390100Y-74930000D01*
X208390100Y-74930000D02*
X213360000Y-74930000D01*
G04 #@! TO.N,FTG*
X165100000Y-30480000D02*
X166301300Y-29278700D01*
X166301300Y-29278700D02*
X168101200Y-29278700D01*
X168101200Y-29278700D02*
X168910000Y-30087500D01*
X168910000Y-30087500D02*
X168910000Y-30889400D01*
X168910000Y-30889400D02*
X169865200Y-31844600D01*
X169865200Y-31844600D02*
X170705600Y-31844600D01*
X170705600Y-31844600D02*
X171450000Y-32589000D01*
X171450000Y-32589000D02*
X171450000Y-33502900D01*
X171450000Y-33502900D02*
X207417400Y-69470300D01*
X207417400Y-69470300D02*
X210756900Y-69470300D01*
X210756900Y-69470300D02*
X215411700Y-74125100D01*
X215411700Y-74125100D02*
X215411700Y-77958300D01*
X215411700Y-77958300D02*
X213360000Y-80010000D01*
G04 #@! TO.N,LTG*
X213360000Y-85090000D02*
X213360000Y-84236500D01*
X213360000Y-84236500D02*
X162560000Y-33436500D01*
X162560000Y-33436500D02*
X162560000Y-33020000D01*
G04 #@! TO.N,IPn*
X182880000Y-80010000D02*
X183979700Y-81109700D01*
X183979700Y-81109700D02*
X183979700Y-85565600D01*
X183979700Y-85565600D02*
X183185300Y-86360000D01*
X183185300Y-86360000D02*
X181321000Y-86360000D01*
X181321000Y-86360000D02*
X153513000Y-114168000D01*
X153513000Y-114168000D02*
X153513000Y-151580300D01*
X153513000Y-151580300D02*
X152820500Y-152272800D01*
X152820500Y-152272800D02*
X151973700Y-152272800D01*
X151973700Y-152272800D02*
X149805500Y-150104600D01*
X149805500Y-150104600D02*
X122945400Y-150104600D01*
X122945400Y-150104600D02*
X121920000Y-151130000D01*
X157480000Y-30480000D02*
X158750000Y-31750000D01*
X158750000Y-31750000D02*
X158750000Y-55880000D01*
X158750000Y-55880000D02*
X182880000Y-80010000D01*
X121920000Y-151130000D02*
X112395000Y-151130000D01*
X112395000Y-151130000D02*
X103505000Y-142240000D01*
G04 #@! TO.N,PTGa*
X182880000Y-82550000D02*
X154940000Y-54610000D01*
X154940000Y-54610000D02*
X154940000Y-33020000D01*
G04 #@! TO.N,GTJ*
X147320000Y-30480000D02*
X148590000Y-31750000D01*
X148590000Y-31750000D02*
X148590000Y-34195400D01*
X148590000Y-34195400D02*
X150826700Y-36432100D01*
X150826700Y-36432100D02*
X150826700Y-80976700D01*
X150826700Y-80976700D02*
X152400000Y-82550000D01*
G04 #@! TO.N,6v*
X194945000Y-104775000D02*
X193851800Y-103681800D01*
X193851800Y-103681800D02*
X165558200Y-103681800D01*
X165558200Y-103681800D02*
X164465000Y-104775000D01*
X226514400Y-31825900D02*
X238980600Y-31825900D01*
X238980600Y-31825900D02*
X240174700Y-33020000D01*
X175260000Y-31825900D02*
X226514400Y-31825900D01*
X226514400Y-31825900D02*
X226514400Y-103685600D01*
X226514400Y-103685600D02*
X225425000Y-104775000D01*
X175260000Y-31825900D02*
X175260000Y-30480000D01*
X175260000Y-33020000D02*
X175260000Y-31825900D01*
X241300000Y-33020000D02*
X240174700Y-33020000D01*
X84110400Y-93689600D02*
X73025000Y-104775000D01*
X84772500Y-91830300D02*
X84772500Y-93027500D01*
X84772500Y-93027500D02*
X84110400Y-93689600D01*
X91503500Y-101082700D02*
X84110400Y-93689600D01*
X91503500Y-102108000D02*
X91503500Y-101082700D01*
X84772500Y-90805000D02*
X84772500Y-91830300D01*
X103505000Y-168275000D02*
X89607900Y-154377900D01*
X89607900Y-154377900D02*
X86922100Y-154377900D01*
X86922100Y-154377900D02*
X86922100Y-138067700D01*
X86922100Y-138067700D02*
X87947500Y-137042300D01*
X86922100Y-154377900D02*
X73025000Y-168275000D01*
X113919000Y-158695300D02*
X113084700Y-158695300D01*
X113084700Y-158695300D02*
X103505000Y-168275000D01*
X87947500Y-136017000D02*
X87947500Y-137042300D01*
X144653000Y-157924000D02*
X145678300Y-157924000D01*
X145678300Y-157924000D02*
X156029300Y-168275000D01*
X156029300Y-168275000D02*
X164465000Y-168275000D01*
X144140400Y-157924000D02*
X144653000Y-157924000D01*
X144140400Y-157924000D02*
X143627700Y-157924000D01*
X143627700Y-157924000D02*
X143627700Y-158632300D01*
X143627700Y-158632300D02*
X133985000Y-168275000D01*
X113919000Y-158695300D02*
X124405300Y-158695300D01*
X124405300Y-158695300D02*
X133985000Y-168275000D01*
X144716000Y-152155300D02*
X144653000Y-152218300D01*
X144653000Y-152218300D02*
X144653000Y-157924000D01*
X144716000Y-151130000D02*
X144716000Y-152155300D01*
X113919000Y-158182600D02*
X113919000Y-158695300D01*
X113919000Y-157670000D02*
X113919000Y-158182600D01*
X194945000Y-168275000D02*
X193847500Y-167177500D01*
X193847500Y-167177500D02*
X165562500Y-167177500D01*
X165562500Y-167177500D02*
X164465000Y-168275000D01*
X53975000Y-90805000D02*
X53975000Y-91830300D01*
X53975000Y-91830300D02*
X42545000Y-103260300D01*
X42545000Y-103260300D02*
X42545000Y-104775000D01*
G04 #@! TO.N,Neg6v*
X78105000Y-168275000D02*
X77004500Y-169375500D01*
X77004500Y-169375500D02*
X48725500Y-169375500D01*
X48725500Y-169375500D02*
X47625000Y-168275000D01*
X47625000Y-168275000D02*
X47625000Y-104775000D01*
X101600000Y-33020000D02*
X108585000Y-40005000D01*
X108585000Y-40005000D02*
X108585000Y-104775000D01*
X230505000Y-104775000D02*
X230505000Y-33615000D01*
X230505000Y-33615000D02*
X231100000Y-33020000D01*
X200025000Y-168275000D02*
X201183300Y-169433300D01*
X201183300Y-169433300D02*
X229346700Y-169433300D01*
X229346700Y-169433300D02*
X230505000Y-168275000D01*
X200025000Y-168275000D02*
X200025000Y-104775000D01*
X101600000Y-33020000D02*
X101600000Y-30480000D01*
G04 #@! TO.N,GND*
X167005000Y-168275000D02*
X168163300Y-169433300D01*
X168163300Y-169433300D02*
X196326700Y-169433300D01*
X196326700Y-169433300D02*
X197485000Y-168275000D01*
X99060000Y-97790000D02*
X93704000Y-103146000D01*
X93704000Y-103146000D02*
X77194000Y-103146000D01*
X77194000Y-103146000D02*
X75565000Y-104775000D01*
X99060000Y-33020000D02*
X99060000Y-97790000D01*
X99060000Y-97790000D02*
X106045000Y-104775000D01*
X99060000Y-30480000D02*
X99060000Y-33020000D01*
X228600000Y-33020000D02*
X228600000Y-34145300D01*
X227965000Y-104775000D02*
X227965000Y-34780300D01*
X227965000Y-34780300D02*
X228600000Y-34145300D01*
X106045000Y-168275000D02*
X104957600Y-169362400D01*
X104957600Y-169362400D02*
X81911400Y-169362400D01*
X81911400Y-169362400D02*
X79694300Y-167145300D01*
X79694300Y-167145300D02*
X76694700Y-167145300D01*
X76694700Y-167145300D02*
X75565000Y-168275000D01*
X136525000Y-168275000D02*
X135430500Y-169369500D01*
X135430500Y-169369500D02*
X107139500Y-169369500D01*
X107139500Y-169369500D02*
X106045000Y-168275000D01*
X45085000Y-104775000D02*
X45085000Y-168275000D01*
G04 #@! TO.N,Gn-*
X194945000Y-78740000D02*
X196034400Y-79829400D01*
X196034400Y-79829400D02*
X196034400Y-143690600D01*
X196034400Y-143690600D02*
X194945000Y-144780000D01*
G04 #@! TO.N,0TG-*
X182880000Y-85090000D02*
X153735300Y-55945300D01*
X153735300Y-55945300D02*
X153735300Y-31684700D01*
X153735300Y-31684700D02*
X154940000Y-30480000D01*
G04 #@! TO.N,Jn-*
X146114000Y-77470000D02*
X146114000Y-78495300D01*
X146114000Y-78495300D02*
X146304000Y-78685300D01*
X146304000Y-78685300D02*
X146304000Y-87820500D01*
G04 #@! TO.N,0TJ-*
X147320000Y-33020000D02*
X147320000Y-34199200D01*
X147320000Y-34199200D02*
X149926100Y-36805300D01*
X149926100Y-36805300D02*
X149926100Y-82616100D01*
X149926100Y-82616100D02*
X152400000Y-85090000D01*
G04 #@! TO.N,M-TF*
X139700000Y-30480000D02*
X140970000Y-31750000D01*
X140970000Y-31750000D02*
X140970000Y-135256900D01*
X140970000Y-135256900D02*
X150947400Y-145234300D01*
X150947400Y-145234300D02*
X150947400Y-149677400D01*
X150947400Y-149677400D02*
X152400000Y-151130000D01*
G04 #@! TO.N,Mn-*
X103505000Y-78740000D02*
X107136400Y-82371400D01*
X107136400Y-82371400D02*
X107136400Y-120155200D01*
X107136400Y-120155200D02*
X90350500Y-136941100D01*
X90350500Y-136941100D02*
X90350500Y-139880500D01*
X90350500Y-139880500D02*
X91440000Y-140970000D01*
G04 #@! TO.N,IPn-*
X113856000Y-140970000D02*
X113856000Y-141995300D01*
X113856000Y-141995300D02*
X113919000Y-142058300D01*
X113919000Y-142058300D02*
X113919000Y-150050000D01*
X132080000Y-33020000D02*
X130878500Y-31818500D01*
X130878500Y-31818500D02*
X129072200Y-31818500D01*
X129072200Y-31818500D02*
X128270000Y-32620700D01*
X128270000Y-32620700D02*
X128270000Y-134620000D01*
X128270000Y-134620000D02*
X121920000Y-140970000D01*
G04 #@! TO.N,0TM-*
X129540000Y-30480000D02*
X128175400Y-31844600D01*
X128175400Y-31844600D02*
X126474400Y-31844600D01*
X126474400Y-31844600D02*
X125761200Y-32557800D01*
X125761200Y-32557800D02*
X125761200Y-81248800D01*
X125761200Y-81248800D02*
X121920000Y-85090000D01*
G04 #@! TO.N,0TIP-*
X129540000Y-33020000D02*
X129540000Y-140970000D01*
X129540000Y-140970000D02*
X121920000Y-148590000D01*
G04 #@! TO.N,{IPn}*
X127000000Y-33020000D02*
X127000000Y-120206000D01*
X127000000Y-120206000D02*
X113856000Y-133350000D01*
G04 #@! TO.N,STOREnx-*
X119380000Y-30480000D02*
X118127500Y-29227500D01*
X118127500Y-29227500D02*
X113866200Y-29227500D01*
X113866200Y-29227500D02*
X113119800Y-29973900D01*
X113119800Y-29973900D02*
X113119800Y-30784500D01*
X113119800Y-30784500D02*
X112154300Y-31750000D01*
X112154300Y-31750000D02*
X111350600Y-31750000D01*
X111350600Y-31750000D02*
X110543900Y-32556700D01*
X110543900Y-32556700D02*
X110543900Y-124406100D01*
X110543900Y-124406100D02*
X91440000Y-143510000D01*
G04 #@! TO.N,An-*
X84772500Y-77406500D02*
X91376500Y-77406500D01*
X91376500Y-77406500D02*
X91440000Y-77470000D01*
G04 #@! TO.N,Qn-*
X53975000Y-81280000D02*
X53975000Y-77533500D01*
X53975000Y-83185000D02*
X53975000Y-81280000D01*
X53975000Y-81280000D02*
X42545000Y-81280000D01*
G04 #@! TO.N,STOREn-*
X104140000Y-33020000D02*
X109675000Y-38555000D01*
X109675000Y-38555000D02*
X109675000Y-120195000D01*
X109675000Y-120195000D02*
X91440000Y-138430000D01*
G04 #@! TO.N,Cn-1*
X243840000Y-77470000D02*
X242727400Y-78582600D01*
X242727400Y-78582600D02*
X242727400Y-133489500D01*
X242727400Y-133489500D02*
X244946000Y-135708100D01*
X244946000Y-135708100D02*
X244946000Y-141434000D01*
X244946000Y-141434000D02*
X244140000Y-142240000D01*
X244140000Y-142240000D02*
X243533000Y-142240000D01*
X243533000Y-142240000D02*
X242745400Y-143027600D01*
X242745400Y-143027600D02*
X242745400Y-150035400D01*
X242745400Y-150035400D02*
X243840000Y-151130000D01*
G04 #@! TO.N,MTIP*
X124460000Y-30480000D02*
X123190000Y-31750000D01*
X123190000Y-31750000D02*
X123190000Y-33472400D01*
X123190000Y-33472400D02*
X120828400Y-35834000D01*
X120828400Y-35834000D02*
X120828400Y-85536200D01*
X120828400Y-85536200D02*
X121830700Y-86538500D01*
X121830700Y-86538500D02*
X122419000Y-86538500D01*
X122419000Y-86538500D02*
X123013700Y-87133200D01*
X123013700Y-87133200D02*
X123013700Y-122253400D01*
X123013700Y-122253400D02*
X112830700Y-132436400D01*
X112830700Y-132436400D02*
X112830700Y-133774800D01*
X112830700Y-133774800D02*
X121295900Y-142240000D01*
X121295900Y-142240000D02*
X122212600Y-142240000D01*
X122212600Y-142240000D02*
X123010100Y-143037500D01*
X123010100Y-143037500D02*
X123010100Y-144959900D01*
X123010100Y-144959900D02*
X121920000Y-146050000D01*
G04 #@! TO.N,FnL*
X195655700Y-67558000D02*
X195655700Y-69925700D01*
X195655700Y-69925700D02*
X213360000Y-87630000D01*
G04 #@! TO.N,FnR*
X167640000Y-30480000D02*
X168910000Y-31750000D01*
X168910000Y-31750000D02*
X168910000Y-33430300D01*
X168910000Y-33430300D02*
X208538700Y-73059000D01*
X208538700Y-73059000D02*
X213671700Y-73059000D01*
X213671700Y-73059000D02*
X214932800Y-74320100D01*
X214932800Y-74320100D02*
X214932800Y-75897200D01*
X214932800Y-75897200D02*
X213360000Y-77470000D01*
G04 #@! TD*
M02*
