G04 #@! TF.GenerationSoftware,KiCad,Pcbnew,(5.0.0)*
G04 #@! TF.CreationDate,2019-03-30T18:13:55+00:00*
G04 #@! TF.ProjectId,A-FA,412D46412E6B696361645F7063620000,rev?*
G04 #@! TF.SameCoordinates,Original*
G04 #@! TF.FileFunction,Copper,L2,Bot,Signal*
G04 #@! TF.FilePolarity,Positive*
%FSLAX46Y46*%
G04 Gerber Fmt 4.6, Leading zero omitted, Abs format (unit mm)*
G04 Created by KiCad (PCBNEW (5.0.0)) date 03/30/19 18:13:55*
%MOMM*%
%LPD*%
G01*
G04 APERTURE LIST*
G04 #@! TA.AperFunction,ComponentPad*
%ADD10C,2.000000*%
G04 #@! TD*
G04 #@! TA.AperFunction,ComponentPad*
%ADD11C,1.400000*%
G04 #@! TD*
G04 #@! TA.AperFunction,ComponentPad*
%ADD12O,1.400000X1.400000*%
G04 #@! TD*
G04 #@! TA.AperFunction,ComponentPad*
%ADD13C,1.600000*%
G04 #@! TD*
G04 #@! TA.AperFunction,ComponentPad*
%ADD14R,1.600000X1.600000*%
G04 #@! TD*
G04 #@! TA.AperFunction,ComponentPad*
%ADD15C,1.700000*%
G04 #@! TD*
G04 #@! TA.AperFunction,ComponentPad*
%ADD16R,1.700000X1.700000*%
G04 #@! TD*
G04 #@! TA.AperFunction,ComponentPad*
%ADD17C,1.800000*%
G04 #@! TD*
G04 #@! TA.AperFunction,ComponentPad*
%ADD18R,1.800000X1.800000*%
G04 #@! TD*
G04 #@! TA.AperFunction,ComponentPad*
%ADD19O,1.700000X1.700000*%
G04 #@! TD*
G04 #@! TA.AperFunction,ComponentPad*
%ADD20C,2.400000*%
G04 #@! TD*
G04 #@! TA.AperFunction,ViaPad*
%ADD21C,0.800000*%
G04 #@! TD*
G04 #@! TA.AperFunction,ViaPad*
%ADD22C,1.600000*%
G04 #@! TD*
G04 #@! TA.AperFunction,Conductor*
%ADD23C,0.250000*%
G04 #@! TD*
G04 #@! TA.AperFunction,Conductor*
%ADD24C,0.500000*%
G04 #@! TD*
G04 APERTURE END LIST*
D10*
G04 #@! TO.P,U8,13*
G04 #@! TO.N,TP3*
X225425000Y-78740000D03*
G04 #@! TO.P,U8,12*
G04 #@! TO.N,Gn*
X225425000Y-81280000D03*
G04 #@! TO.P,U8,11*
G04 #@! TO.N,Cn*
X225425000Y-83820000D03*
G04 #@! TO.P,U8,6*
G04 #@! TO.N,TP1*
X243840000Y-74930000D03*
G04 #@! TO.P,U8,5*
G04 #@! TO.N,Cn-1*
X243840000Y-77470000D03*
G04 #@! TO.P,U8,4*
G04 #@! TO.N,JTG-|NC*
X243840000Y-80010000D03*
G04 #@! TO.P,U8,3*
G04 #@! TO.N,Gn-*
X243840000Y-82550000D03*
G04 #@! TO.P,U8,2*
G04 #@! TO.N,TP2*
X243840000Y-85090000D03*
G04 #@! TO.P,U8,1*
G04 #@! TO.N,TP3*
X243840000Y-87630000D03*
G04 #@! TO.P,U8,23*
G04 #@! TO.N,Neg6v*
X230505000Y-104775000D03*
G04 #@! TO.P,U8,22*
G04 #@! TO.N,GND*
X227965000Y-104775000D03*
G04 #@! TO.P,U8,21*
G04 #@! TO.N,6v*
X225425000Y-104775000D03*
G04 #@! TD*
G04 #@! TO.P,U1,13*
G04 #@! TO.N,Fn*
X225425000Y-142240000D03*
G04 #@! TO.P,U1,12*
G04 #@! TO.N,Net-(U1-Pad12)*
X225425000Y-144780000D03*
G04 #@! TO.P,U1,11*
G04 #@! TO.N,N/C*
X225425000Y-147320000D03*
G04 #@! TO.P,U1,6*
X243840000Y-138430000D03*
G04 #@! TO.P,U1,5*
G04 #@! TO.N,Net-(U1-Pad12)*
X243840000Y-140970000D03*
G04 #@! TO.P,U1,4*
G04 #@! TO.N,TP1*
X243840000Y-143510000D03*
G04 #@! TO.P,U1,3*
G04 #@! TO.N,TP3*
X243840000Y-146050000D03*
G04 #@! TO.P,U1,2*
X243840000Y-148590000D03*
G04 #@! TO.P,U1,1*
G04 #@! TO.N,Cn-1*
X243840000Y-151130000D03*
G04 #@! TO.P,U1,23*
G04 #@! TO.N,Neg6v*
X230505000Y-168275000D03*
G04 #@! TO.P,U1,22*
G04 #@! TO.N,GND*
X227965000Y-168275000D03*
G04 #@! TO.P,U1,21*
G04 #@! TO.N,6v*
X225425000Y-168275000D03*
G04 #@! TD*
G04 #@! TO.P,U12,13*
G04 #@! TO.N,Mn-*
X103505000Y-78740000D03*
G04 #@! TO.P,U12,12*
G04 #@! TO.N,N/C*
X103505000Y-81280000D03*
G04 #@! TO.P,U12,11*
X103505000Y-83820000D03*
G04 #@! TO.P,U12,6*
G04 #@! TO.N,WTM*
X121920000Y-74930000D03*
G04 #@! TO.P,U12,5*
G04 #@! TO.N,Wn*
X121920000Y-77470000D03*
G04 #@! TO.P,U12,4*
G04 #@! TO.N,GTM*
X121920000Y-80010000D03*
G04 #@! TO.P,U12,3*
G04 #@! TO.N,Gn*
X121920000Y-82550000D03*
G04 #@! TO.P,U12,2*
G04 #@! TO.N,0TM-*
X121920000Y-85090000D03*
G04 #@! TO.P,U12,1*
G04 #@! TO.N,Mn*
X121920000Y-87630000D03*
G04 #@! TO.P,U12,23*
G04 #@! TO.N,Neg6v*
X108585000Y-104775000D03*
G04 #@! TO.P,U12,22*
G04 #@! TO.N,GND*
X106045000Y-104775000D03*
G04 #@! TO.P,U12,21*
G04 #@! TO.N,6v*
X103505000Y-104775000D03*
G04 #@! TD*
G04 #@! TO.P,U11,13*
G04 #@! TO.N,Jn*
X133985000Y-78740000D03*
G04 #@! TO.P,U11,12*
G04 #@! TO.N,Jn-*
X133985000Y-81280000D03*
G04 #@! TO.P,U11,11*
G04 #@! TO.N,N/C*
X133985000Y-83820000D03*
G04 #@! TO.P,U11,6*
X152400000Y-74930000D03*
G04 #@! TO.P,U11,5*
G04 #@! TO.N,Jn-*
X152400000Y-77470000D03*
G04 #@! TO.P,U11,4*
G04 #@! TO.N,Gn*
X152400000Y-80010000D03*
G04 #@! TO.P,U11,3*
G04 #@! TO.N,GTJ*
X152400000Y-82550000D03*
G04 #@! TO.P,U11,2*
G04 #@! TO.N,0TJ-*
X152400000Y-85090000D03*
G04 #@! TO.P,U11,1*
G04 #@! TO.N,Jn*
X152400000Y-87630000D03*
G04 #@! TO.P,U11,23*
G04 #@! TO.N,Neg6v*
X139065000Y-104775000D03*
G04 #@! TO.P,U11,22*
G04 #@! TO.N,GND*
X136525000Y-104775000D03*
G04 #@! TO.P,U11,21*
G04 #@! TO.N,6v*
X133985000Y-104775000D03*
G04 #@! TD*
G04 #@! TO.P,U14,13*
G04 #@! TO.N,Qn*
X42545000Y-78740000D03*
G04 #@! TO.P,U14,12*
G04 #@! TO.N,Qn-*
X42545000Y-81280000D03*
G04 #@! TO.P,U14,11*
G04 #@! TO.N,N/C*
X42545000Y-83820000D03*
G04 #@! TO.P,U14,6*
X60960000Y-74930000D03*
G04 #@! TO.P,U14,5*
G04 #@! TO.N,Qn-*
X60960000Y-77470000D03*
G04 #@! TO.P,U14,4*
G04 #@! TO.N,Gn*
X60960000Y-80010000D03*
G04 #@! TO.P,U14,3*
G04 #@! TO.N,GTQ*
X60960000Y-82550000D03*
G04 #@! TO.P,U14,2*
G04 #@! TO.N,0TQ-*
X60960000Y-85090000D03*
G04 #@! TO.P,U14,1*
G04 #@! TO.N,Qn*
X60960000Y-87630000D03*
G04 #@! TO.P,U14,23*
G04 #@! TO.N,Neg6v*
X47625000Y-104775000D03*
G04 #@! TO.P,U14,22*
G04 #@! TO.N,GND*
X45085000Y-104775000D03*
G04 #@! TO.P,U14,21*
G04 #@! TO.N,6v*
X42545000Y-104775000D03*
G04 #@! TD*
G04 #@! TO.P,U13,13*
G04 #@! TO.N,An*
X73025000Y-78740000D03*
G04 #@! TO.P,U13,12*
G04 #@! TO.N,An-*
X73025000Y-81280000D03*
G04 #@! TO.P,U13,11*
G04 #@! TO.N,N/C*
X73025000Y-83820000D03*
G04 #@! TO.P,U13,6*
X91440000Y-74930000D03*
G04 #@! TO.P,U13,5*
G04 #@! TO.N,An-*
X91440000Y-77470000D03*
G04 #@! TO.P,U13,4*
G04 #@! TO.N,Gn*
X91440000Y-80010000D03*
G04 #@! TO.P,U13,3*
G04 #@! TO.N,GTA*
X91440000Y-82550000D03*
G04 #@! TO.P,U13,2*
G04 #@! TO.N,0TA-*
X91440000Y-85090000D03*
G04 #@! TO.P,U13,1*
G04 #@! TO.N,An*
X91440000Y-87630000D03*
G04 #@! TO.P,U13,23*
G04 #@! TO.N,Neg6v*
X78105000Y-104775000D03*
G04 #@! TO.P,U13,22*
G04 #@! TO.N,GND*
X75565000Y-104775000D03*
G04 #@! TO.P,U13,21*
G04 #@! TO.N,6v*
X73025000Y-104775000D03*
G04 #@! TD*
D11*
G04 #@! TO.P,R3,1*
G04 #@! TO.N,{Gn}*
X237426000Y-74866500D03*
D12*
G04 #@! TO.P,R3,2*
G04 #@! TO.N,Gn-*
X237426000Y-82486500D03*
G04 #@! TD*
D11*
G04 #@! TO.P,R4,1*
G04 #@! TO.N,{Jn}*
X146114000Y-69850000D03*
D12*
G04 #@! TO.P,R4,2*
G04 #@! TO.N,Jn-*
X146114000Y-77470000D03*
G04 #@! TD*
D11*
G04 #@! TO.P,R5,1*
G04 #@! TO.N,{Mn}*
X84010500Y-133350000D03*
D12*
G04 #@! TO.P,R5,2*
G04 #@! TO.N,Mn-*
X84010500Y-140970000D03*
G04 #@! TD*
D11*
G04 #@! TO.P,R6,1*
G04 #@! TO.N,{IPn}*
X113856000Y-133350000D03*
D12*
G04 #@! TO.P,R6,2*
G04 #@! TO.N,IPn-*
X113856000Y-140970000D03*
G04 #@! TD*
D11*
G04 #@! TO.P,R7,1*
G04 #@! TO.N,{An}*
X84772500Y-69786500D03*
D12*
G04 #@! TO.P,R7,2*
G04 #@! TO.N,An-*
X84772500Y-77406500D03*
G04 #@! TD*
D11*
G04 #@! TO.P,R8,1*
G04 #@! TO.N,{Qn}*
X53975000Y-69913500D03*
D12*
G04 #@! TO.P,R8,2*
G04 #@! TO.N,Qn-*
X53975000Y-77533500D03*
G04 #@! TD*
D11*
G04 #@! TO.P,R9,1*
G04 #@! TO.N,Wn*
X114998000Y-77470000D03*
D12*
G04 #@! TO.P,R9,2*
G04 #@! TO.N,6v*
X114998000Y-85090000D03*
G04 #@! TD*
D11*
G04 #@! TO.P,R10,1*
G04 #@! TO.N,Jn-*
X146304000Y-87820500D03*
D12*
G04 #@! TO.P,R10,2*
G04 #@! TO.N,6v*
X146304000Y-95440500D03*
G04 #@! TD*
D11*
G04 #@! TO.P,R11,1*
G04 #@! TO.N,Mn-*
X152273000Y-157924000D03*
D12*
G04 #@! TO.P,R11,2*
G04 #@! TO.N,6v*
X144653000Y-157924000D03*
G04 #@! TD*
D11*
G04 #@! TO.P,R12,1*
G04 #@! TO.N,IPn-*
X113919000Y-150050000D03*
D12*
G04 #@! TO.P,R12,2*
G04 #@! TO.N,6v*
X113919000Y-157670000D03*
G04 #@! TD*
D11*
G04 #@! TO.P,R13,1*
G04 #@! TO.N,An-*
X84772500Y-83185000D03*
D12*
G04 #@! TO.P,R13,2*
G04 #@! TO.N,6v*
X84772500Y-90805000D03*
G04 #@! TD*
D11*
G04 #@! TO.P,R14,1*
G04 #@! TO.N,Mn*
X144716000Y-143510000D03*
D12*
G04 #@! TO.P,R14,2*
G04 #@! TO.N,6v*
X144716000Y-151130000D03*
G04 #@! TD*
D11*
G04 #@! TO.P,R15,1*
G04 #@! TO.N,STOREnx-*
X87947500Y-143637000D03*
D12*
G04 #@! TO.P,R15,2*
G04 #@! TO.N,6v*
X87947500Y-136017000D03*
G04 #@! TD*
D11*
G04 #@! TO.P,R16,1*
G04 #@! TO.N,Qn-*
X53975000Y-83185000D03*
D12*
G04 #@! TO.P,R16,2*
G04 #@! TO.N,6v*
X53975000Y-90805000D03*
G04 #@! TD*
D11*
G04 #@! TO.P,R17,1*
G04 #@! TO.N,An*
X91503500Y-94488000D03*
D12*
G04 #@! TO.P,R17,2*
G04 #@! TO.N,6v*
X91503500Y-102108000D03*
G04 #@! TD*
D10*
G04 #@! TO.P,U2,13*
G04 #@! TO.N,Yn*
X194945000Y-142240000D03*
G04 #@! TO.P,U2,12*
G04 #@! TO.N,Gn-*
X194945000Y-144780000D03*
G04 #@! TO.P,U2,11*
G04 #@! TO.N,Xn*
X194945000Y-147320000D03*
G04 #@! TO.P,U2,6*
G04 #@! TO.N,Yn-*
X213360000Y-138430000D03*
G04 #@! TO.P,U2,5*
G04 #@! TO.N,Xn*
X213360000Y-140970000D03*
G04 #@! TO.P,U2,4*
G04 #@! TO.N,Yn*
X213360000Y-143510000D03*
G04 #@! TO.P,U2,3*
G04 #@! TO.N,VTG*
X213360000Y-146050000D03*
G04 #@! TO.P,U2,2*
G04 #@! TO.N,N/C*
X213360000Y-148590000D03*
G04 #@! TO.P,U2,1*
G04 #@! TO.N,Xn-*
X213360000Y-151130000D03*
G04 #@! TO.P,U2,23*
G04 #@! TO.N,Neg6v*
X200025000Y-168275000D03*
G04 #@! TO.P,U2,22*
G04 #@! TO.N,GND*
X197485000Y-168275000D03*
G04 #@! TO.P,U2,21*
G04 #@! TO.N,6v*
X194945000Y-168275000D03*
G04 #@! TD*
G04 #@! TO.P,U3,13*
G04 #@! TO.N,TP2*
X164465000Y-142240000D03*
G04 #@! TO.P,U3,12*
G04 #@! TO.N,TP1*
X164465000Y-144780000D03*
G04 #@! TO.P,U3,11*
G04 #@! TO.N,N/C*
X164465000Y-147320000D03*
G04 #@! TO.P,U3,6*
G04 #@! TO.N,Xn*
X182880000Y-138430000D03*
G04 #@! TO.P,U3,5*
G04 #@! TO.N,Yn*
X182880000Y-140970000D03*
G04 #@! TO.P,U3,4*
X182880000Y-143510000D03*
G04 #@! TO.P,U3,3*
G04 #@! TO.N,Xn*
X182880000Y-146050000D03*
G04 #@! TO.P,U3,2*
G04 #@! TO.N,Yn-*
X182880000Y-148590000D03*
G04 #@! TO.P,U3,1*
G04 #@! TO.N,Xn-*
X182880000Y-151130000D03*
G04 #@! TO.P,U3,23*
G04 #@! TO.N,Neg6v*
X169545000Y-168275000D03*
G04 #@! TO.P,U3,22*
G04 #@! TO.N,GND*
X167005000Y-168275000D03*
G04 #@! TO.P,U3,21*
G04 #@! TO.N,6v*
X164465000Y-168275000D03*
G04 #@! TD*
G04 #@! TO.P,U4,13*
G04 #@! TO.N,Xn-*
X133985000Y-142240000D03*
G04 #@! TO.P,U4,12*
G04 #@! TO.N,N/C*
X133985000Y-144780000D03*
G04 #@! TO.P,U4,11*
X133985000Y-147320000D03*
G04 #@! TO.P,U4,6*
G04 #@! TO.N,Jn*
X152400000Y-138430000D03*
G04 #@! TO.P,U4,5*
G04 #@! TO.N,JTF*
X152400000Y-140970000D03*
G04 #@! TO.P,U4,4*
G04 #@! TO.N,Mn*
X152400000Y-143510000D03*
G04 #@! TO.P,U4,3*
G04 #@! TO.N,MTF*
X152400000Y-146050000D03*
G04 #@! TO.P,U4,2*
G04 #@! TO.N,Mn-*
X152400000Y-148590000D03*
G04 #@! TO.P,U4,1*
G04 #@! TO.N,M-TF*
X152400000Y-151130000D03*
G04 #@! TO.P,U4,23*
G04 #@! TO.N,Neg6v*
X139065000Y-168275000D03*
G04 #@! TO.P,U4,22*
G04 #@! TO.N,GND*
X136525000Y-168275000D03*
G04 #@! TO.P,U4,21*
G04 #@! TO.N,6v*
X133985000Y-168275000D03*
G04 #@! TD*
G04 #@! TO.P,U5,13*
G04 #@! TO.N,IPn*
X103505000Y-142240000D03*
G04 #@! TO.P,U5,12*
G04 #@! TO.N,IPn-*
X103505000Y-144780000D03*
G04 #@! TO.P,U5,11*
G04 #@! TO.N,N/C*
X103505000Y-147320000D03*
G04 #@! TO.P,U5,6*
X121920000Y-138430000D03*
G04 #@! TO.P,U5,5*
G04 #@! TO.N,IPn-*
X121920000Y-140970000D03*
G04 #@! TO.P,U5,4*
G04 #@! TO.N,Mn*
X121920000Y-143510000D03*
G04 #@! TO.P,U5,3*
G04 #@! TO.N,MTIP*
X121920000Y-146050000D03*
G04 #@! TO.P,U5,2*
G04 #@! TO.N,0TIP-*
X121920000Y-148590000D03*
G04 #@! TO.P,U5,1*
G04 #@! TO.N,IPn*
X121920000Y-151130000D03*
G04 #@! TO.P,U5,23*
G04 #@! TO.N,Neg6v*
X108585000Y-168275000D03*
G04 #@! TO.P,U5,22*
G04 #@! TO.N,GND*
X106045000Y-168275000D03*
G04 #@! TO.P,U5,21*
G04 #@! TO.N,6v*
X103505000Y-168275000D03*
G04 #@! TD*
G04 #@! TO.P,U6,13*
G04 #@! TO.N,Mn*
X73025000Y-142240000D03*
G04 #@! TO.P,U6,12*
G04 #@! TO.N,N/C*
X73025000Y-144780000D03*
G04 #@! TO.P,U6,11*
G04 #@! TO.N,Mn-*
X73025000Y-147320000D03*
G04 #@! TO.P,U6,6*
G04 #@! TO.N,STOREn-*
X91440000Y-138430000D03*
G04 #@! TO.P,U6,5*
G04 #@! TO.N,Mn-*
X91440000Y-140970000D03*
G04 #@! TO.P,U6,4*
G04 #@! TO.N,STOREnx-*
X91440000Y-143510000D03*
G04 #@! TO.P,U6,3*
G04 #@! TO.N,N/C*
X91440000Y-146050000D03*
G04 #@! TO.P,U6,2*
X91440000Y-148590000D03*
G04 #@! TO.P,U6,1*
G04 #@! TO.N,IIn*
X91440000Y-151130000D03*
G04 #@! TO.P,U6,23*
G04 #@! TO.N,Neg6v*
X78105000Y-168275000D03*
G04 #@! TO.P,U6,22*
G04 #@! TO.N,GND*
X75565000Y-168275000D03*
G04 #@! TO.P,U6,21*
G04 #@! TO.N,6v*
X73025000Y-168275000D03*
G04 #@! TD*
G04 #@! TO.P,U7,13*
G04 #@! TO.N,Yn-*
X42545000Y-142240000D03*
G04 #@! TO.P,U7,12*
G04 #@! TO.N,N/C*
X42545000Y-144780000D03*
G04 #@! TO.P,U7,11*
X42545000Y-147320000D03*
G04 #@! TO.P,U7,6*
G04 #@! TO.N,An*
X60960000Y-138430000D03*
G04 #@! TO.P,U7,5*
G04 #@! TO.N,ATF*
X60960000Y-140970000D03*
G04 #@! TO.P,U7,4*
G04 #@! TO.N,N/C*
X60960000Y-143510000D03*
G04 #@! TO.P,U7,3*
G04 #@! TO.N,DTF*
X60960000Y-146050000D03*
G04 #@! TO.P,U7,2*
G04 #@! TO.N,Qn*
X60960000Y-148590000D03*
G04 #@! TO.P,U7,1*
G04 #@! TO.N,QTF*
X60960000Y-151130000D03*
G04 #@! TO.P,U7,23*
G04 #@! TO.N,Neg6v*
X47625000Y-168275000D03*
G04 #@! TO.P,U7,22*
G04 #@! TO.N,GND*
X45085000Y-168275000D03*
G04 #@! TO.P,U7,21*
G04 #@! TO.N,6v*
X42545000Y-168275000D03*
G04 #@! TD*
G04 #@! TO.P,U9,13*
G04 #@! TO.N,Gn-*
X194945000Y-78740000D03*
G04 #@! TO.P,U9,12*
G04 #@! TO.N,N/C*
X194945000Y-81280000D03*
G04 #@! TO.P,U9,11*
X194945000Y-83820000D03*
G04 #@! TO.P,U9,6*
G04 #@! TO.N,RTG*
X213360000Y-74930000D03*
G04 #@! TO.P,U9,5*
G04 #@! TO.N,FnR*
X213360000Y-77470000D03*
G04 #@! TO.P,U9,4*
G04 #@! TO.N,FTG*
X213360000Y-80010000D03*
G04 #@! TO.P,U9,3*
G04 #@! TO.N,Fn*
X213360000Y-82550000D03*
G04 #@! TO.P,U9,2*
G04 #@! TO.N,LTG*
X213360000Y-85090000D03*
G04 #@! TO.P,U9,1*
G04 #@! TO.N,FnL*
X213360000Y-87630000D03*
G04 #@! TO.P,U9,23*
G04 #@! TO.N,Neg6v*
X200025000Y-104775000D03*
G04 #@! TO.P,U9,22*
G04 #@! TO.N,GND*
X197485000Y-104775000D03*
G04 #@! TO.P,U9,21*
G04 #@! TO.N,6v*
X194945000Y-104775000D03*
G04 #@! TD*
G04 #@! TO.P,U10,13*
G04 #@! TO.N,Gn-*
X164465000Y-78740000D03*
G04 #@! TO.P,U10,12*
G04 #@! TO.N,N/C*
X164465000Y-81280000D03*
G04 #@! TO.P,U10,11*
X164465000Y-83820000D03*
G04 #@! TO.P,U10,6*
G04 #@! TO.N,An-7|IPn*
X182880000Y-74930000D03*
G04 #@! TO.P,U10,5*
G04 #@! TO.N,PTGb*
X182880000Y-77470000D03*
G04 #@! TO.P,U10,4*
G04 #@! TO.N,IPn*
X182880000Y-80010000D03*
G04 #@! TO.P,U10,3*
G04 #@! TO.N,PTGa*
X182880000Y-82550000D03*
G04 #@! TO.P,U10,2*
G04 #@! TO.N,0TG-*
X182880000Y-85090000D03*
G04 #@! TO.P,U10,1*
G04 #@! TO.N,Gn*
X182880000Y-87630000D03*
G04 #@! TO.P,U10,23*
G04 #@! TO.N,Neg6v*
X169545000Y-104775000D03*
G04 #@! TO.P,U10,22*
G04 #@! TO.N,GND*
X167005000Y-104775000D03*
G04 #@! TO.P,U10,21*
G04 #@! TO.N,6v*
X164465000Y-104775000D03*
G04 #@! TD*
D13*
G04 #@! TO.P,C1,2*
G04 #@! TO.N,GND*
X243800000Y-33020000D03*
D14*
G04 #@! TO.P,C1,1*
G04 #@! TO.N,6v*
X241300000Y-33020000D03*
G04 #@! TD*
D13*
G04 #@! TO.P,C2,2*
G04 #@! TO.N,Neg6v*
X231100000Y-33020000D03*
D14*
G04 #@! TO.P,C2,1*
G04 #@! TO.N,GND*
X228600000Y-33020000D03*
G04 #@! TD*
D15*
G04 #@! TO.P,J1,AL*
G04 #@! TO.N,GND*
X39605000Y-33401000D03*
G04 #@! TO.P,J1,32*
X39605000Y-30861000D03*
G04 #@! TO.P,J1,AK*
G04 #@! TO.N,Neg6v*
X42145000Y-33401000D03*
G04 #@! TO.P,J1,31*
X42145000Y-30861000D03*
G04 #@! TO.P,J1,AJ*
G04 #@! TO.N,STOREn-*
X44685000Y-33401000D03*
G04 #@! TO.P,J1,30*
G04 #@! TO.N,QTF*
X44685000Y-30861000D03*
G04 #@! TO.P,J1,AH*
G04 #@! TO.N,Qn-*
X47225000Y-33401000D03*
G04 #@! TO.P,J1,29*
G04 #@! TO.N,DTF*
X47225000Y-30861000D03*
G04 #@! TO.P,J1,AF*
G04 #@! TO.N,N/C*
X49765000Y-33401000D03*
G04 #@! TO.P,J1,28*
G04 #@! TO.N,ATF*
X49765000Y-30861000D03*
G04 #@! TO.P,J1,AE*
G04 #@! TO.N,GTQ*
X52305000Y-33401000D03*
G04 #@! TO.P,J1,27*
G04 #@! TO.N,An*
X52305000Y-30861000D03*
G04 #@! TO.P,J1,AD*
G04 #@! TO.N,Mn*
X54845000Y-33401000D03*
G04 #@! TO.P,J1,26*
G04 #@! TO.N,0TQ-*
X54845000Y-30861000D03*
G04 #@! TO.P,J1,AC*
G04 #@! TO.N,{Qn}*
X57385000Y-33401000D03*
G04 #@! TO.P,J1,25*
G04 #@! TO.N,IIn*
X57385000Y-30861000D03*
G04 #@! TO.P,J1,AB*
G04 #@! TO.N,An-*
X59925000Y-33401000D03*
G04 #@! TO.P,J1,24*
G04 #@! TO.N,STOREnx-*
X59925000Y-30861000D03*
G04 #@! TO.P,J1,AA*
G04 #@! TO.N,0TA-*
X62465000Y-33401000D03*
G04 #@! TO.P,J1,23*
G04 #@! TO.N,GTA*
X62465000Y-30861000D03*
G04 #@! TO.P,J1,Z*
G04 #@! TO.N,{An}*
X65005000Y-33401000D03*
G04 #@! TO.P,J1,22*
G04 #@! TO.N,MTIP*
X65005000Y-30861000D03*
G04 #@! TO.P,J1,Y*
G04 #@! TO.N,{IPn}*
X67545000Y-33401000D03*
G04 #@! TO.P,J1,21*
G04 #@! TO.N,IPn*
X67545000Y-30861000D03*
G04 #@! TO.P,J1,X*
G04 #@! TO.N,0TIP-*
X70085000Y-33401000D03*
G04 #@! TO.P,J1,20*
G04 #@! TO.N,0TM-*
X70085000Y-30861000D03*
G04 #@! TO.P,J1,W*
G04 #@! TO.N,IPn-*
X72625000Y-33401000D03*
G04 #@! TO.P,J1,19*
G04 #@! TO.N,WTM*
X72625000Y-30861000D03*
G04 #@! TO.P,J1,V*
G04 #@! TO.N,Mn-*
X75165000Y-33401000D03*
G04 #@! TO.P,J1,18*
G04 #@! TO.N,Wn*
X75165000Y-30861000D03*
G04 #@! TO.P,J1,U*
G04 #@! TO.N,{Mn}*
X77705000Y-33401000D03*
G04 #@! TO.P,J1,17*
G04 #@! TO.N,GTM*
X77705000Y-30861000D03*
G04 #@! TO.P,J1,T*
G04 #@! TO.N,Jn*
X80245000Y-33401000D03*
G04 #@! TO.P,J1,16*
G04 #@! TO.N,M-TF*
X80245000Y-30861000D03*
G04 #@! TO.P,J1,S*
G04 #@! TO.N,{Jn}*
X82785000Y-33401000D03*
G04 #@! TO.P,J1,15*
G04 #@! TO.N,MTF*
X82785000Y-30861000D03*
G04 #@! TO.P,J1,R*
G04 #@! TO.N,Jn-*
X85325000Y-33401000D03*
G04 #@! TO.P,J1,14*
G04 #@! TO.N,JTF*
X85325000Y-30861000D03*
G04 #@! TO.P,J1,P*
G04 #@! TO.N,0TJ-*
X87865000Y-33401000D03*
G04 #@! TO.P,J1,13*
G04 #@! TO.N,GTJ*
X87865000Y-30861000D03*
G04 #@! TO.P,J1,N*
G04 #@! TO.N,Jn-*
X90405000Y-33401000D03*
G04 #@! TO.P,J1,12*
G04 #@! TO.N,An-7|IPn*
X90405000Y-30861000D03*
G04 #@! TO.P,J1,M*
G04 #@! TO.N,{Gn}*
X92945000Y-33401000D03*
G04 #@! TO.P,J1,11*
G04 #@! TO.N,PTGb*
X92945000Y-30861000D03*
G04 #@! TO.P,J1,L*
G04 #@! TO.N,PTGa*
X95485000Y-33401000D03*
G04 #@! TO.P,J1,10*
G04 #@! TO.N,0TG-*
X95485000Y-30861000D03*
G04 #@! TO.P,J1,K*
G04 #@! TO.N,N/C*
X98025000Y-33401000D03*
G04 #@! TO.P,J1,9*
G04 #@! TO.N,IPn*
X98025000Y-30861000D03*
G04 #@! TO.P,J1,J*
G04 #@! TO.N,Gn*
X100565000Y-33401000D03*
G04 #@! TO.P,J1,8*
G04 #@! TO.N,VTG*
X100565000Y-30861000D03*
G04 #@! TO.P,J1,H*
G04 #@! TO.N,LTG*
X103105000Y-33401000D03*
G04 #@! TO.P,J1,7*
G04 #@! TO.N,RTG*
X103105000Y-30861000D03*
G04 #@! TO.P,J1,F*
G04 #@! TO.N,N/C*
X105645000Y-33401000D03*
G04 #@! TO.P,J1,6*
G04 #@! TO.N,FTG*
X105645000Y-30861000D03*
G04 #@! TO.P,J1,E*
G04 #@! TO.N,Fn*
X108185000Y-33401000D03*
G04 #@! TO.P,J1,5*
G04 #@! TO.N,FnR*
X108185000Y-30861000D03*
G04 #@! TO.P,J1,D*
G04 #@! TO.N,FnL*
X110725000Y-33401000D03*
G04 #@! TO.P,J1,4*
G04 #@! TO.N,JTG-|NC*
X110725000Y-30861000D03*
G04 #@! TO.P,J1,C*
G04 #@! TO.N,Cn-1*
X113265000Y-33401000D03*
G04 #@! TO.P,J1,3*
G04 #@! TO.N,Cn*
X113265000Y-30861000D03*
G04 #@! TO.P,J1,B*
G04 #@! TO.N,6v*
X115805000Y-33401000D03*
G04 #@! TO.P,J1,2*
X115805000Y-30861000D03*
G04 #@! TO.P,J1,A*
G04 #@! TO.N,GND*
X118345000Y-33401000D03*
D16*
G04 #@! TO.P,J1,1*
X118345000Y-30861000D03*
G04 #@! TD*
D11*
G04 #@! TO.P,R51,1*
G04 #@! TO.N,Net-(J2-Pad1)*
X162560000Y-176276000D03*
D12*
G04 #@! TO.P,R51,2*
G04 #@! TO.N,Qn*
X170180000Y-176276000D03*
G04 #@! TD*
D11*
G04 #@! TO.P,R52,1*
G04 #@! TO.N,Net-(J2-Pad1)*
X152400000Y-176276000D03*
D12*
G04 #@! TO.P,R52,2*
G04 #@! TO.N,Cn*
X160020000Y-176276000D03*
G04 #@! TD*
D11*
G04 #@! TO.P,R53,1*
G04 #@! TO.N,Net-(J2-Pad1)*
X142240000Y-176276000D03*
D12*
G04 #@! TO.P,R53,2*
G04 #@! TO.N,Fn*
X149860000Y-176276000D03*
G04 #@! TD*
D11*
G04 #@! TO.P,R54,1*
G04 #@! TO.N,Net-(J2-Pad1)*
X132080000Y-176276000D03*
D12*
G04 #@! TO.P,R54,2*
G04 #@! TO.N,Mn*
X139700000Y-176276000D03*
G04 #@! TD*
D11*
G04 #@! TO.P,R55,1*
G04 #@! TO.N,Net-(J2-Pad1)*
X121920000Y-176276000D03*
D12*
G04 #@! TO.P,R55,2*
G04 #@! TO.N,IPn*
X129540000Y-176276000D03*
G04 #@! TD*
D11*
G04 #@! TO.P,R56,1*
G04 #@! TO.N,Net-(J2-Pad1)*
X111760000Y-176276000D03*
D12*
G04 #@! TO.P,R56,2*
G04 #@! TO.N,Jn*
X119380000Y-176276000D03*
G04 #@! TD*
D11*
G04 #@! TO.P,R57,1*
G04 #@! TO.N,Net-(J2-Pad1)*
X101600000Y-176276000D03*
D12*
G04 #@! TO.P,R57,2*
G04 #@! TO.N,Gn*
X109220000Y-176276000D03*
G04 #@! TD*
D11*
G04 #@! TO.P,R58,1*
G04 #@! TO.N,Net-(J2-Pad1)*
X91440000Y-176276000D03*
D12*
G04 #@! TO.P,R58,2*
G04 #@! TO.N,An*
X99060000Y-176276000D03*
G04 #@! TD*
D11*
G04 #@! TO.P,R59,1*
G04 #@! TO.N,Net-(J2-Pad1)*
X81280000Y-176276000D03*
D12*
G04 #@! TO.P,R59,2*
G04 #@! TO.N,Yn*
X88900000Y-176276000D03*
G04 #@! TD*
D11*
G04 #@! TO.P,R60,1*
G04 #@! TO.N,Net-(J2-Pad1)*
X71120000Y-176276000D03*
D12*
G04 #@! TO.P,R60,2*
G04 #@! TO.N,Xn*
X78740000Y-176276000D03*
G04 #@! TD*
D11*
G04 #@! TO.P,R61,1*
G04 #@! TO.N,Net-(J2-Pad1)*
X60960000Y-176276000D03*
D12*
G04 #@! TO.P,R61,2*
G04 #@! TO.N,Cn-1*
X68580000Y-176276000D03*
G04 #@! TD*
D17*
G04 #@! TO.P,D1,2*
G04 #@! TO.N,Qn*
X172720000Y-181864000D03*
D18*
G04 #@! TO.P,D1,1*
G04 #@! TO.N,GND*
X170180000Y-181864000D03*
G04 #@! TD*
G04 #@! TO.P,D2,1*
G04 #@! TO.N,GND*
X160020000Y-181864000D03*
D17*
G04 #@! TO.P,D2,2*
G04 #@! TO.N,Cn*
X162560000Y-181864000D03*
G04 #@! TD*
D18*
G04 #@! TO.P,D3,1*
G04 #@! TO.N,GND*
X149860000Y-181864000D03*
D17*
G04 #@! TO.P,D3,2*
G04 #@! TO.N,Fn*
X152400000Y-181864000D03*
G04 #@! TD*
G04 #@! TO.P,D4,2*
G04 #@! TO.N,Mn*
X142240000Y-181864000D03*
D18*
G04 #@! TO.P,D4,1*
G04 #@! TO.N,GND*
X139700000Y-181864000D03*
G04 #@! TD*
G04 #@! TO.P,D5,1*
G04 #@! TO.N,GND*
X129540000Y-181864000D03*
D17*
G04 #@! TO.P,D5,2*
G04 #@! TO.N,IPn*
X132080000Y-181864000D03*
G04 #@! TD*
G04 #@! TO.P,D6,2*
G04 #@! TO.N,Jn*
X121920000Y-181864000D03*
D18*
G04 #@! TO.P,D6,1*
G04 #@! TO.N,GND*
X119380000Y-181864000D03*
G04 #@! TD*
G04 #@! TO.P,D7,1*
G04 #@! TO.N,GND*
X109220000Y-181864000D03*
D17*
G04 #@! TO.P,D7,2*
G04 #@! TO.N,Gn*
X111760000Y-181864000D03*
G04 #@! TD*
G04 #@! TO.P,D8,2*
G04 #@! TO.N,An*
X101600000Y-181864000D03*
D18*
G04 #@! TO.P,D8,1*
G04 #@! TO.N,GND*
X99060000Y-181864000D03*
G04 #@! TD*
G04 #@! TO.P,D9,1*
G04 #@! TO.N,GND*
X88900000Y-181864000D03*
D17*
G04 #@! TO.P,D9,2*
G04 #@! TO.N,Yn*
X91440000Y-181864000D03*
G04 #@! TD*
D18*
G04 #@! TO.P,D10,1*
G04 #@! TO.N,GND*
X78740000Y-181864000D03*
D17*
G04 #@! TO.P,D10,2*
G04 #@! TO.N,Xn*
X81280000Y-181864000D03*
G04 #@! TD*
G04 #@! TO.P,D11,2*
G04 #@! TO.N,Cn-1*
X71120000Y-181864000D03*
D18*
G04 #@! TO.P,D11,1*
G04 #@! TO.N,GND*
X68580000Y-181864000D03*
G04 #@! TD*
D16*
G04 #@! TO.P,J2,1*
G04 #@! TO.N,Net-(J2-Pad1)*
X42608500Y-176276000D03*
D19*
G04 #@! TO.P,J2,2*
G04 #@! TO.N,6v*
X42608500Y-178816000D03*
G04 #@! TD*
D20*
G04 #@! TO.P,TP1,1*
G04 #@! TO.N,TP1*
X250190000Y-120650000D03*
G04 #@! TD*
G04 #@! TO.P,TP2,1*
G04 #@! TO.N,TP2*
X250190000Y-69850000D03*
G04 #@! TD*
G04 #@! TO.P,TP3,1*
G04 #@! TO.N,TP3*
X250190000Y-125730000D03*
G04 #@! TD*
D21*
G04 #@! TO.N,{Jn}*
X130062000Y-67592300D03*
G04 #@! TO.N,{Mn}*
X92924700Y-108195000D03*
G04 #@! TO.N,Jn*
X152400000Y-102428000D03*
X139300000Y-144332000D03*
G04 #@! TO.N,Yn*
X151172000Y-164682000D03*
G04 #@! TO.N,MTF*
X123989000Y-72814400D03*
G04 #@! TO.N,JTF*
X116626000Y-62110900D03*
G04 #@! TO.N,FTG*
X176890000Y-43539600D03*
G04 #@! TO.N,IPn*
X169322500Y-41317500D03*
D22*
G04 #@! TO.N,6v*
X202232000Y-104775000D03*
D21*
G04 #@! TO.N,Gn-*
X177107500Y-120656900D03*
X159650400Y-102319200D03*
G04 #@! TO.N,M-TF*
X119261000Y-63286600D03*
G04 #@! TO.N,0TIP-*
X118602000Y-83781400D03*
G04 #@! TO.N,{IPn}*
X99911400Y-66190900D03*
G04 #@! TO.N,Xn-*
X149283000Y-153286000D03*
G04 #@! TO.N,MTIP*
X118394000Y-86398800D03*
G04 #@! TO.N,FnL*
X184576000Y-58846400D03*
G04 #@! TD*
D23*
G04 #@! TO.N,{Jn}*
X130062000Y-67592300D02*
X143856000Y-67592300D01*
X143856000Y-67592300D02*
X146114000Y-69850000D01*
G04 #@! TO.N,{Mn}*
X77705000Y-33401000D02*
X78380600Y-34076600D01*
X78380600Y-34076600D02*
X78380600Y-91248200D01*
X78380600Y-91248200D02*
X92924700Y-105792000D01*
X92924700Y-105792000D02*
X92924700Y-108195000D01*
G04 #@! TO.N,{Qn}*
X57385000Y-33401000D02*
X57385000Y-66503500D01*
X57385000Y-66503500D02*
X53975000Y-69913500D01*
G04 #@! TO.N,Mn*
X124534000Y-140896000D02*
X121920000Y-143510000D01*
X144716000Y-143510000D02*
X142102000Y-140896000D01*
X142102000Y-140896000D02*
X124534000Y-140896000D01*
X121920000Y-87630000D02*
X121920000Y-125924000D01*
X121920000Y-125924000D02*
X124534000Y-128538000D01*
X124534000Y-128538000D02*
X124534000Y-140896000D01*
X139700000Y-176276000D02*
X139700000Y-175251000D01*
X139700000Y-175251000D02*
X150043000Y-164908000D01*
X150043000Y-164908000D02*
X150043000Y-145867000D01*
X150043000Y-145867000D02*
X152400000Y-143510000D01*
G04 #@! TO.N,An*
X73025000Y-78740000D02*
X60960000Y-90805000D01*
X60960000Y-90805000D02*
X60960000Y-138430000D01*
X91440000Y-87630000D02*
X91503500Y-87693500D01*
X91503500Y-87693500D02*
X91503500Y-94488000D01*
X99060000Y-176276000D02*
X98034700Y-176276000D01*
X98034700Y-176276000D02*
X93298800Y-171540000D01*
X93298800Y-171540000D02*
X74374100Y-171540000D01*
X74374100Y-171540000D02*
X63198800Y-160365000D01*
X63198800Y-160365000D02*
X63198800Y-140669000D01*
X63198800Y-140669000D02*
X60960000Y-138430000D01*
G04 #@! TO.N,Gn*
X182880000Y-87630000D02*
X184218000Y-88968100D01*
X184218000Y-88968100D02*
X217737000Y-88968100D01*
X217737000Y-88968100D02*
X225425000Y-81280000D01*
X109220000Y-176276000D02*
X109220000Y-175251000D01*
X109220000Y-175251000D02*
X115027000Y-169444000D01*
X115027000Y-169444000D02*
X115027000Y-86578000D01*
X100565000Y-33401000D02*
X113856000Y-46692000D01*
X113856000Y-46692000D02*
X113856000Y-85406700D01*
X113856000Y-85406700D02*
X115027000Y-86578000D01*
X115027000Y-86578000D02*
X117877000Y-83728500D01*
X117877000Y-83728500D02*
X117877000Y-83481000D01*
X117877000Y-83481000D02*
X118808000Y-82550000D01*
X118808000Y-82550000D02*
X121920000Y-82550000D01*
G04 #@! TO.N,Jn*
X152400000Y-87630000D02*
X152400000Y-102428000D01*
X121920000Y-181864000D02*
X125445000Y-181864000D01*
X125445000Y-181864000D02*
X130778000Y-176532000D01*
X130778000Y-176532000D02*
X130778000Y-152854000D01*
X130778000Y-152854000D02*
X139300000Y-144332000D01*
G04 #@! TO.N,Qn*
X169169000Y-178313000D02*
X163904000Y-183577000D01*
X163904000Y-183577000D02*
X106564000Y-183577000D01*
X106564000Y-183577000D02*
X103274000Y-180287000D01*
X103274000Y-180287000D02*
X101271000Y-180287000D01*
X101271000Y-180287000D02*
X93595600Y-172612000D01*
X93595600Y-172612000D02*
X92958700Y-172612000D01*
X92958700Y-172612000D02*
X92508500Y-172162000D01*
X92508500Y-172162000D02*
X74358700Y-172162000D01*
X74358700Y-172162000D02*
X62285400Y-160088000D01*
X62285400Y-160088000D02*
X62285400Y-149915000D01*
X62285400Y-149915000D02*
X60960000Y-148590000D01*
X170180000Y-176276000D02*
X170180000Y-177301000D01*
X170180000Y-177301000D02*
X169169000Y-178313000D01*
X172720000Y-181864000D02*
X169169000Y-178313000D01*
G04 #@! TO.N,TP1*
X250190000Y-120650000D02*
X245899000Y-124941000D01*
X245899000Y-124941000D02*
X245899000Y-141451000D01*
X245899000Y-141451000D02*
X243840000Y-143510000D01*
X250190000Y-120650000D02*
X242471000Y-112931000D01*
X242471000Y-112931000D02*
X242471000Y-76298600D01*
X242471000Y-76298600D02*
X243840000Y-74930000D01*
G04 #@! TO.N,TP2*
X250190000Y-69850000D02*
X250190000Y-78740000D01*
X250190000Y-78740000D02*
X243840000Y-85090000D01*
G04 #@! TO.N,TP3*
X250190000Y-125730000D02*
X251751000Y-124169000D01*
X251751000Y-124169000D02*
X251751000Y-95541000D01*
X251751000Y-95541000D02*
X243840000Y-87630000D01*
X243840000Y-146050000D02*
X250190000Y-139700000D01*
X250190000Y-139700000D02*
X250190000Y-125730000D01*
X243840000Y-146050000D02*
X243840000Y-148590000D01*
G04 #@! TO.N,Fn*
X225425000Y-142240000D02*
X224100000Y-140915000D01*
X224100000Y-140915000D02*
X224100000Y-93917600D01*
X224100000Y-93917600D02*
X226758000Y-91259700D01*
X226758000Y-91259700D02*
X226758000Y-78164500D01*
X226758000Y-78164500D02*
X226004000Y-77410900D01*
X226004000Y-77410900D02*
X218499000Y-77410900D01*
X218499000Y-77410900D02*
X213360000Y-82550000D01*
X152400000Y-181864000D02*
X152400000Y-180852000D01*
X152400000Y-180852000D02*
X152400000Y-179841000D01*
X152400000Y-179841000D02*
X149860000Y-177301000D01*
X149860000Y-177301000D02*
X149860000Y-176276000D01*
X152400000Y-180852000D02*
X154674000Y-183127000D01*
X154674000Y-183127000D02*
X163054000Y-183127000D01*
X163054000Y-183127000D02*
X163793000Y-182388000D01*
X163793000Y-182388000D02*
X163793000Y-171367000D01*
X163793000Y-171367000D02*
X163084000Y-170658000D01*
X163084000Y-170658000D02*
X163084000Y-167774000D01*
X163084000Y-167774000D02*
X172151000Y-158707000D01*
X172151000Y-158707000D02*
X208958000Y-158707000D01*
X208958000Y-158707000D02*
X225425000Y-142240000D01*
G04 #@! TO.N,Net-(U1-Pad12)*
X243840000Y-140970000D02*
X229235000Y-140970000D01*
X229235000Y-140970000D02*
X225425000Y-144780000D01*
G04 #@! TO.N,VTG*
X201654000Y-101956000D02*
X201696000Y-101998000D01*
X201654000Y-101956000D02*
X191739100Y-101956000D01*
X201696000Y-101956000D02*
X201654000Y-101956000D01*
X213360000Y-146050000D02*
X215181000Y-144229000D01*
X215181000Y-144229000D02*
X215181000Y-115483000D01*
X215181000Y-115483000D02*
X201696000Y-101998000D01*
X191739100Y-101956000D02*
X191697100Y-101998000D01*
X191697100Y-101998000D02*
X191560000Y-101998000D01*
X191739100Y-101956000D02*
X191560000Y-101956000D01*
X191560000Y-101998000D02*
X119520000Y-29957900D01*
X119520000Y-29957900D02*
X119520000Y-29876200D01*
X119520000Y-29876200D02*
X119330000Y-29685700D01*
X119330000Y-29685700D02*
X115275000Y-29685700D01*
X115275000Y-29685700D02*
X114442000Y-30519200D01*
X114442000Y-30519200D02*
X114442000Y-31349300D01*
X114442000Y-31349300D02*
X113754000Y-32036400D01*
X113754000Y-32036400D02*
X101740000Y-32036400D01*
X101740000Y-32036400D02*
X100565000Y-30861000D01*
G04 #@! TO.N,Yn*
X91440000Y-181864000D02*
X91440000Y-179841000D01*
X91440000Y-179841000D02*
X88900000Y-177301000D01*
X88900000Y-177301000D02*
X88900000Y-176276000D01*
X151172000Y-164682000D02*
X161708000Y-164682000D01*
X161708000Y-164682000D02*
X182880000Y-143510000D01*
G04 #@! TO.N,Xn*
X182880000Y-146050000D02*
X184246000Y-144684000D01*
X184246000Y-144684000D02*
X184246000Y-139796000D01*
X184246000Y-139796000D02*
X182880000Y-138430000D01*
X194945000Y-147320000D02*
X205164000Y-137101000D01*
X205164000Y-137101000D02*
X213906000Y-137101000D01*
X213906000Y-137101000D02*
X214718000Y-137914000D01*
X214718000Y-137914000D02*
X214718000Y-139612000D01*
X214718000Y-139612000D02*
X213360000Y-140970000D01*
X81280000Y-181864000D02*
X81280000Y-179841000D01*
X81280000Y-179841000D02*
X78740000Y-177301000D01*
X78740000Y-177301000D02*
X78740000Y-176276000D01*
G04 #@! TO.N,MTF*
X152400000Y-146050000D02*
X154276000Y-144174000D01*
X154276000Y-144174000D02*
X154276000Y-136053000D01*
X154276000Y-136053000D02*
X123989000Y-105767000D01*
X123989000Y-105767000D02*
X123989000Y-72814400D01*
G04 #@! TO.N,JTF*
X116626000Y-62110900D02*
X123245000Y-68730700D01*
X123245000Y-68730700D02*
X123245000Y-106954000D01*
X123245000Y-106954000D02*
X153776000Y-137484000D01*
X153776000Y-137484000D02*
X153776000Y-139594000D01*
X153776000Y-139594000D02*
X152400000Y-140970000D01*
G04 #@! TO.N,IIn*
X57385000Y-30861000D02*
X58586300Y-29659700D01*
X58586300Y-29659700D02*
X60386200Y-29659700D01*
X60386200Y-29659700D02*
X61195000Y-30468500D01*
X61195000Y-30468500D02*
X61195000Y-31270400D01*
X61195000Y-31270400D02*
X62150200Y-32225600D01*
X62150200Y-32225600D02*
X62990600Y-32225600D01*
X62990600Y-32225600D02*
X63735000Y-32970000D01*
X63735000Y-32970000D02*
X63735000Y-34840000D01*
X63735000Y-34840000D02*
X77479900Y-48584900D01*
X77479900Y-48584900D02*
X77479900Y-91939600D01*
X77479900Y-91939600D02*
X89908900Y-104369000D01*
X89908900Y-104369000D02*
X89908900Y-149599000D01*
X89908900Y-149599000D02*
X91440000Y-151130000D01*
G04 #@! TO.N,ATF*
X60960000Y-140970000D02*
X51035000Y-131045000D01*
X51035000Y-131045000D02*
X51035000Y-32131000D01*
X51035000Y-32131000D02*
X49765000Y-30861000D01*
G04 #@! TO.N,DTF*
X47225000Y-30861000D02*
X48495000Y-32131000D01*
X48495000Y-32131000D02*
X48495000Y-92156500D01*
X48495000Y-92156500D02*
X49851200Y-93512700D01*
X49851200Y-93512700D02*
X49851200Y-134941000D01*
X49851200Y-134941000D02*
X60960000Y-146050000D01*
G04 #@! TO.N,QTF*
X60960000Y-151130000D02*
X49400800Y-139571000D01*
X49400800Y-139571000D02*
X49400800Y-96504400D01*
X49400800Y-96504400D02*
X45955000Y-93058600D01*
X45955000Y-93058600D02*
X45955000Y-32131000D01*
X45955000Y-32131000D02*
X44685000Y-30861000D01*
G04 #@! TO.N,Cn*
X162560000Y-181864000D02*
X162560000Y-179841000D01*
X162560000Y-179841000D02*
X160020000Y-177301000D01*
X160020000Y-177301000D02*
X160020000Y-176276000D01*
X225425000Y-83820000D02*
X215663000Y-93581600D01*
X215663000Y-93581600D02*
X183862000Y-93581600D01*
X183862000Y-93581600D02*
X183862000Y-93581500D01*
X183862000Y-93581500D02*
X119515000Y-29234100D01*
X119515000Y-29234100D02*
X114892000Y-29234100D01*
X114892000Y-29234100D02*
X113265000Y-30861000D01*
X215663000Y-93581600D02*
X215663000Y-150702000D01*
X215663000Y-150702000D02*
X212538000Y-153828000D01*
X212538000Y-153828000D02*
X176313000Y-153828000D01*
X176313000Y-153828000D02*
X160020000Y-170121000D01*
X160020000Y-170121000D02*
X160020000Y-176276000D01*
G04 #@! TO.N,FTG*
X176890000Y-43539600D02*
X213360000Y-80010000D01*
G04 #@! TO.N,An-7|IPn*
X182880000Y-74930000D02*
X172764000Y-64814000D01*
X172764000Y-64814000D02*
X157438000Y-64814000D01*
X157438000Y-64814000D02*
X120464000Y-27840600D01*
X120464000Y-27840600D02*
X93425400Y-27840600D01*
X93425400Y-27840600D02*
X90405000Y-30861000D01*
G04 #@! TO.N,PTGb*
X182880000Y-77470000D02*
X170674000Y-65264300D01*
X170674000Y-65264300D02*
X156828000Y-65264300D01*
X156828000Y-65264300D02*
X119855000Y-28290900D01*
X119855000Y-28290900D02*
X95515100Y-28290900D01*
X95515100Y-28290900D02*
X92945000Y-30861000D01*
G04 #@! TO.N,IPn*
X169322500Y-41317500D02*
X169322500Y-59101700D01*
X169322500Y-59101700D02*
X184279500Y-74058700D01*
X184279500Y-74058700D02*
X184279500Y-78610500D01*
X184279500Y-78610500D02*
X182880000Y-80010000D01*
X103505000Y-142240000D02*
X102180000Y-140915000D01*
X102180000Y-140915000D02*
X102180000Y-104132000D01*
X102180000Y-104132000D02*
X104866000Y-101446000D01*
X104866000Y-101446000D02*
X104866000Y-85557200D01*
X104866000Y-85557200D02*
X105316000Y-85106900D01*
X105316000Y-85106900D02*
X105316000Y-77681800D01*
X105316000Y-77681800D02*
X99186100Y-71551800D01*
X99186100Y-71551800D02*
X99186100Y-65890500D01*
X99186100Y-65890500D02*
X99240500Y-65836100D01*
X99240500Y-65836100D02*
X99240500Y-32076500D01*
X99240500Y-32076500D02*
X98438700Y-31274600D01*
X98438700Y-31274600D02*
X98025000Y-30861000D01*
X129540000Y-176276000D02*
X129540000Y-175251000D01*
X129540000Y-175251000D02*
X121920000Y-167631000D01*
X121920000Y-167631000D02*
X121920000Y-151130000D01*
G04 #@! TO.N,GTQ*
X52305000Y-33401000D02*
X52305000Y-73895000D01*
X52305000Y-73895000D02*
X60960000Y-82550000D01*
D24*
G04 #@! TO.N,6v*
X144653000Y-157924000D02*
X143503000Y-157924000D01*
X143503000Y-157924000D02*
X143503000Y-158757000D01*
X143503000Y-158757000D02*
X133985000Y-168275000D01*
X144716000Y-151130000D02*
X144716000Y-152280000D01*
X144716000Y-152280000D02*
X144653000Y-152343000D01*
X144653000Y-152343000D02*
X144653000Y-157924000D01*
X42608500Y-178816000D02*
X43908900Y-177516000D01*
X43908900Y-177516000D02*
X43908900Y-169639000D01*
X43908900Y-169639000D02*
X42545000Y-168275000D01*
X194945000Y-104775000D02*
X196395000Y-103325000D01*
X196395000Y-103325000D02*
X200781000Y-103325000D01*
X200781000Y-103325000D02*
X202232000Y-104775000D01*
X88265000Y-153035000D02*
X103505000Y-168275000D01*
X114998000Y-85090000D02*
X114998000Y-83939700D01*
X114998000Y-83939700D02*
X116157000Y-82781100D01*
X116157000Y-82781100D02*
X116157000Y-62844400D01*
X116157000Y-62844400D02*
X115775000Y-62463100D01*
X115775000Y-62463100D02*
X115775000Y-33430700D01*
X115775000Y-33430700D02*
X115805000Y-33401000D01*
X87947500Y-136017000D02*
X87947500Y-134867000D01*
X87947500Y-134867000D02*
X73025000Y-119944000D01*
X73025000Y-119944000D02*
X73025000Y-104775000D01*
X164465000Y-168275000D02*
X165947000Y-169757000D01*
X165947000Y-169757000D02*
X193463000Y-169757000D01*
X193463000Y-169757000D02*
X194945000Y-168275000D01*
X115805000Y-30861000D02*
X115805000Y-33401000D01*
X225425000Y-104775000D02*
X226894000Y-106244000D01*
X226894000Y-106244000D02*
X231128000Y-106244000D01*
X231128000Y-106244000D02*
X241300000Y-96071700D01*
X241300000Y-96071700D02*
X241300000Y-33020000D01*
X113919000Y-157670000D02*
X113919000Y-158820000D01*
X113919000Y-158820000D02*
X112960000Y-158820000D01*
X112960000Y-158820000D02*
X103505000Y-168275000D01*
X87947500Y-136017000D02*
X87947500Y-137167000D01*
X87947500Y-137167000D02*
X86785200Y-138330000D01*
X86785200Y-138330000D02*
X86785200Y-151555000D01*
X86785200Y-151555000D02*
X88265000Y-153035000D01*
X88265000Y-153035000D02*
X73025000Y-168275000D01*
G04 #@! TO.N,Neg6v*
X47625000Y-104775000D02*
X47625000Y-168275000D01*
X42145000Y-33401000D02*
X41082600Y-34463400D01*
X41082600Y-34463400D02*
X41082600Y-98232600D01*
X41082600Y-98232600D02*
X47625000Y-104775000D01*
X169545000Y-104775000D02*
X171019000Y-106249000D01*
X171019000Y-106249000D02*
X198551000Y-106249000D01*
X198551000Y-106249000D02*
X200025000Y-104775000D01*
X139065000Y-104775000D02*
X140537000Y-103303000D01*
X140537000Y-103303000D02*
X168073000Y-103303000D01*
X168073000Y-103303000D02*
X169545000Y-104775000D01*
X108585000Y-168275000D02*
X106385000Y-170475000D01*
X106385000Y-170475000D02*
X80304700Y-170475000D01*
X80304700Y-170475000D02*
X78105000Y-168275000D01*
X230505000Y-104775000D02*
X230505000Y-33615000D01*
X230505000Y-33615000D02*
X231100000Y-33020000D01*
X42145000Y-30861000D02*
X42145000Y-33401000D01*
X169545000Y-168275000D02*
X170996000Y-166824000D01*
X170996000Y-166824000D02*
X198574000Y-166824000D01*
X198574000Y-166824000D02*
X200025000Y-168275000D01*
X200025000Y-168275000D02*
X201490000Y-166810000D01*
X201490000Y-166810000D02*
X229040000Y-166810000D01*
X229040000Y-166810000D02*
X230505000Y-168275000D01*
G04 #@! TO.N,GND*
X136525000Y-177339000D02*
X134065000Y-177339000D01*
X134065000Y-177339000D02*
X129540000Y-181864000D01*
X136525000Y-168275000D02*
X136525000Y-177339000D01*
X39605000Y-33401000D02*
X39605000Y-99295000D01*
X39605000Y-99295000D02*
X45085000Y-104775000D01*
X39605000Y-30861000D02*
X39605000Y-33401000D01*
X118345000Y-33401000D02*
X118345000Y-58899100D01*
X118345000Y-58899100D02*
X131525000Y-72079300D01*
X131525000Y-72079300D02*
X131525000Y-99775200D01*
X131525000Y-99775200D02*
X136525000Y-104775000D01*
X118345000Y-30861000D02*
X118345000Y-33401000D01*
X227965000Y-104775000D02*
X227965000Y-34905300D01*
X227965000Y-34905300D02*
X228600000Y-34270300D01*
X228600000Y-34270300D02*
X228600000Y-33020000D01*
X75565000Y-168275000D02*
X77046000Y-166794000D01*
X77046000Y-166794000D02*
X96532100Y-166794000D01*
X96532100Y-166794000D02*
X99512400Y-169774000D01*
X99512400Y-169774000D02*
X104546000Y-169774000D01*
X104546000Y-169774000D02*
X106045000Y-168275000D01*
X136525000Y-104775000D02*
X137990000Y-106240000D01*
X137990000Y-106240000D02*
X165540000Y-106240000D01*
X165540000Y-106240000D02*
X167005000Y-104775000D01*
X45085000Y-168275000D02*
X45085000Y-104775000D01*
X139700000Y-181864000D02*
X139700000Y-180514000D01*
X109220000Y-181864000D02*
X110570000Y-180514000D01*
X110570000Y-180514000D02*
X116679000Y-180514000D01*
X116679000Y-180514000D02*
X118030000Y-181864000D01*
X118030000Y-181864000D02*
X119380000Y-181864000D01*
X149860000Y-181864000D02*
X148510000Y-181864000D01*
X148510000Y-181864000D02*
X147159000Y-180514000D01*
X147159000Y-180514000D02*
X139700000Y-180514000D01*
X136525000Y-177339000D02*
X139700000Y-180514000D01*
D23*
G04 #@! TO.N,Gn-*
X177107500Y-120656900D02*
X177107500Y-126942500D01*
X177107500Y-126942500D02*
X194945000Y-144780000D01*
X164465000Y-78740000D02*
X165836900Y-80111900D01*
X165836900Y-80111900D02*
X165836900Y-96132700D01*
X165836900Y-96132700D02*
X159650400Y-102319200D01*
G04 #@! TO.N,Jn-*
X146114000Y-81280000D02*
X133985000Y-81280000D01*
X146304000Y-87820500D02*
X146304000Y-81470000D01*
X146304000Y-81470000D02*
X146114000Y-81280000D01*
X146114000Y-77470000D02*
X146114000Y-81280000D01*
X90405000Y-33401000D02*
X89224300Y-34581700D01*
X89224300Y-34581700D02*
X86505700Y-34581700D01*
X86505700Y-34581700D02*
X85325000Y-33401000D01*
G04 #@! TO.N,M-TF*
X152400000Y-151130000D02*
X154727000Y-148803000D01*
X154727000Y-148803000D02*
X154727000Y-128432000D01*
X154727000Y-128432000D02*
X129474000Y-103178000D01*
X129474000Y-103178000D02*
X129474000Y-73499200D01*
X129474000Y-73499200D02*
X119261000Y-63286600D01*
G04 #@! TO.N,Mn-*
X75165000Y-33401000D02*
X76340400Y-32225600D01*
X76340400Y-32225600D02*
X78230600Y-32225600D01*
X78230600Y-32225600D02*
X78975000Y-32970000D01*
X78975000Y-32970000D02*
X78975000Y-54210000D01*
X78975000Y-54210000D02*
X103505000Y-78740000D01*
X91440000Y-140970000D02*
X101134000Y-131276000D01*
X101134000Y-131276000D02*
X101134000Y-81111000D01*
X101134000Y-81111000D02*
X103505000Y-78740000D01*
X152400000Y-148590000D02*
X151043000Y-149947000D01*
X151043000Y-149947000D02*
X151043000Y-156694000D01*
X151043000Y-156694000D02*
X152273000Y-157924000D01*
G04 #@! TO.N,IPn-*
X72625000Y-33401000D02*
X73895000Y-32131000D01*
X73895000Y-32131000D02*
X73895000Y-30466800D01*
X73895000Y-30466800D02*
X74747100Y-29614700D01*
X74747100Y-29614700D02*
X78200000Y-29614700D01*
X78200000Y-29614700D02*
X78880300Y-30295000D01*
X78880300Y-30295000D02*
X78880300Y-31160600D01*
X78880300Y-31160600D02*
X79945300Y-32225600D01*
X79945300Y-32225600D02*
X80770600Y-32225600D01*
X80770600Y-32225600D02*
X81515000Y-32970000D01*
X81515000Y-32970000D02*
X81515000Y-54742500D01*
X81515000Y-54742500D02*
X104866000Y-78093300D01*
X104866000Y-78093300D02*
X104866000Y-84695000D01*
X104866000Y-84695000D02*
X101729000Y-87831600D01*
X101729000Y-87831600D02*
X101729000Y-143004000D01*
X101729000Y-143004000D02*
X103505000Y-144780000D01*
X103505000Y-144780000D02*
X109021000Y-144780000D01*
X113919000Y-150050000D02*
X109021000Y-145152000D01*
X109021000Y-145152000D02*
X109021000Y-144780000D01*
X113856000Y-140970000D02*
X112831000Y-140970000D01*
X112831000Y-140970000D02*
X109021000Y-144780000D01*
G04 #@! TO.N,0TIP-*
X118602000Y-83781400D02*
X117667000Y-84716500D01*
X117667000Y-84716500D02*
X117667000Y-144337000D01*
X117667000Y-144337000D02*
X121920000Y-148590000D01*
G04 #@! TO.N,{IPn}*
X99911400Y-66190900D02*
X111829000Y-78108400D01*
X111829000Y-78108400D02*
X111829000Y-131323000D01*
X111829000Y-131323000D02*
X113856000Y-133350000D01*
G04 #@! TO.N,STOREnx-*
X59925000Y-30861000D02*
X61195000Y-32131000D01*
X61195000Y-32131000D02*
X61195000Y-33793100D01*
X61195000Y-33793100D02*
X74800700Y-47398800D01*
X74800700Y-47398800D02*
X74800700Y-91046300D01*
X74800700Y-91046300D02*
X88999700Y-105245000D01*
X88999700Y-105245000D02*
X88999700Y-142585000D01*
X88999700Y-142585000D02*
X87947500Y-143637000D01*
G04 #@! TO.N,An-*
X84772500Y-77470000D02*
X84772500Y-77406500D01*
X84772500Y-83185000D02*
X84772500Y-77470000D01*
X59925000Y-33401000D02*
X74350300Y-47826300D01*
X74350300Y-47826300D02*
X74350300Y-79954700D01*
X74350300Y-79954700D02*
X73025000Y-81280000D01*
X84772500Y-77470000D02*
X91440000Y-77470000D01*
G04 #@! TO.N,0TQ-*
X54845000Y-30861000D02*
X56209600Y-32225600D01*
X56209600Y-32225600D02*
X57910600Y-32225600D01*
X57910600Y-32225600D02*
X58655000Y-32970000D01*
X58655000Y-32970000D02*
X58655000Y-60640300D01*
X58655000Y-60640300D02*
X62337000Y-64322300D01*
X62337000Y-64322300D02*
X62337000Y-83713000D01*
X62337000Y-83713000D02*
X60960000Y-85090000D01*
G04 #@! TO.N,Qn-*
X53975000Y-83185000D02*
X53975000Y-77533500D01*
G04 #@! TO.N,STOREn-*
X44685000Y-33401000D02*
X43478400Y-32194400D01*
X43478400Y-32194400D02*
X43478400Y-30386300D01*
X43478400Y-30386300D02*
X44663100Y-29201600D01*
X44663100Y-29201600D02*
X62546900Y-29201600D01*
X62546900Y-29201600D02*
X63640300Y-30295000D01*
X63640300Y-30295000D02*
X63640300Y-31160600D01*
X63640300Y-31160600D02*
X64705300Y-32225600D01*
X64705300Y-32225600D02*
X65530600Y-32225600D01*
X65530600Y-32225600D02*
X66275000Y-32970000D01*
X66275000Y-32970000D02*
X66275000Y-34840000D01*
X66275000Y-34840000D02*
X77930200Y-46495200D01*
X77930200Y-46495200D02*
X77930200Y-91752900D01*
X77930200Y-91752900D02*
X91440000Y-105263000D01*
X91440000Y-105263000D02*
X91440000Y-138430000D01*
G04 #@! TO.N,Xn-*
X133985000Y-142240000D02*
X138236000Y-142240000D01*
X138236000Y-142240000D02*
X149283000Y-153286000D01*
X182880000Y-151130000D02*
X213360000Y-151130000D01*
G04 #@! TO.N,Yn-*
X182880000Y-148590000D02*
X182974000Y-148684000D01*
X182974000Y-148684000D02*
X203106000Y-148684000D01*
X203106000Y-148684000D02*
X213360000Y-138430000D01*
G04 #@! TO.N,MTIP*
X121920000Y-146050000D02*
X118394000Y-142524000D01*
X118394000Y-142524000D02*
X118394000Y-86398800D01*
G04 #@! TO.N,FnL*
X184576000Y-58846400D02*
X213360000Y-87630000D01*
G04 #@! TO.N,Net-(J2-Pad1)*
X81280000Y-176276000D02*
X82313600Y-175242000D01*
X82313600Y-175242000D02*
X90406400Y-175242000D01*
X90406400Y-175242000D02*
X91440000Y-176276000D01*
G04 #@! TD*
M02*
