G04 #@! TF.GenerationSoftware,KiCad,Pcbnew,(5.0.0)*
G04 #@! TF.CreationDate,2019-01-17T20:46:18+00:00*
G04 #@! TF.ProjectId,A-FA,412D46412E6B696361645F7063620000,rev?*
G04 #@! TF.SameCoordinates,Original*
G04 #@! TF.FileFunction,Copper,L1,Top,Signal*
G04 #@! TF.FilePolarity,Positive*
%FSLAX46Y46*%
G04 Gerber Fmt 4.6, Leading zero omitted, Abs format (unit mm)*
G04 Created by KiCad (PCBNEW (5.0.0)) date 01/17/19 20:46:18*
%MOMM*%
%LPD*%
G01*
G04 APERTURE LIST*
G04 #@! TA.AperFunction,ComponentPad*
%ADD10C,1.524000*%
G04 #@! TD*
G04 #@! TA.AperFunction,ComponentPad*
%ADD11C,1.400000*%
G04 #@! TD*
G04 #@! TA.AperFunction,ComponentPad*
%ADD12O,1.400000X1.400000*%
G04 #@! TD*
G04 #@! TA.AperFunction,ComponentPad*
%ADD13C,2.000000*%
G04 #@! TD*
G04 #@! TA.AperFunction,ComponentPad*
%ADD14C,1.600000*%
G04 #@! TD*
G04 #@! TA.AperFunction,ComponentPad*
%ADD15R,1.600000X1.600000*%
G04 #@! TD*
G04 #@! TA.AperFunction,ComponentPad*
%ADD16R,1.700000X1.700000*%
G04 #@! TD*
G04 #@! TA.AperFunction,ComponentPad*
%ADD17C,1.700000*%
G04 #@! TD*
G04 #@! TA.AperFunction,ViaPad*
%ADD18C,0.800000*%
G04 #@! TD*
G04 #@! TA.AperFunction,Conductor*
%ADD19C,0.250000*%
G04 #@! TD*
G04 APERTURE END LIST*
D10*
G04 #@! TO.P,U8,21*
G04 #@! TO.N,6v*
X225425000Y-104775000D03*
G04 #@! TO.P,U8,22*
G04 #@! TO.N,GND*
X227965000Y-104775000D03*
G04 #@! TO.P,U8,23*
G04 #@! TO.N,Neg6v*
X230505000Y-104775000D03*
G04 #@! TO.P,U8,1*
G04 #@! TO.N,TP3*
X243840000Y-87630000D03*
G04 #@! TO.P,U8,2*
G04 #@! TO.N,TP2*
X243840000Y-85090000D03*
G04 #@! TO.P,U8,3*
G04 #@! TO.N,Gn-*
X243840000Y-82550000D03*
G04 #@! TO.P,U8,4*
G04 #@! TO.N,JTG-|NC*
X243840000Y-80010000D03*
G04 #@! TO.P,U8,5*
G04 #@! TO.N,Cn-1*
X243840000Y-77470000D03*
G04 #@! TO.P,U8,6*
G04 #@! TO.N,TP1*
X243840000Y-74930000D03*
G04 #@! TO.P,U8,11*
G04 #@! TO.N,Cn*
X225425000Y-83820000D03*
G04 #@! TO.P,U8,12*
G04 #@! TO.N,Gn*
X225425000Y-81280000D03*
G04 #@! TO.P,U8,13*
G04 #@! TO.N,TP3*
X225425000Y-78740000D03*
G04 #@! TD*
G04 #@! TO.P,U1,13*
G04 #@! TO.N,Fn*
X225425000Y-142240000D03*
G04 #@! TO.P,U1,12*
G04 #@! TO.N,Net-(U1-Pad12)*
X225425000Y-144780000D03*
G04 #@! TO.P,U1,11*
G04 #@! TO.N,N/C*
X225425000Y-147320000D03*
G04 #@! TO.P,U1,6*
X243840000Y-138430000D03*
G04 #@! TO.P,U1,5*
G04 #@! TO.N,Net-(U1-Pad12)*
X243840000Y-140970000D03*
G04 #@! TO.P,U1,4*
G04 #@! TO.N,TP1*
X243840000Y-143510000D03*
G04 #@! TO.P,U1,3*
G04 #@! TO.N,TP3*
X243840000Y-146050000D03*
G04 #@! TO.P,U1,2*
X243840000Y-148590000D03*
G04 #@! TO.P,U1,1*
G04 #@! TO.N,Cn-1*
X243840000Y-151130000D03*
G04 #@! TO.P,U1,23*
G04 #@! TO.N,Neg6v*
X230505000Y-168275000D03*
G04 #@! TO.P,U1,22*
G04 #@! TO.N,GND*
X227965000Y-168275000D03*
G04 #@! TO.P,U1,21*
G04 #@! TO.N,6v*
X225425000Y-168275000D03*
G04 #@! TD*
G04 #@! TO.P,U12,21*
G04 #@! TO.N,6v*
X103505000Y-104775000D03*
G04 #@! TO.P,U12,22*
G04 #@! TO.N,GND*
X106045000Y-104775000D03*
G04 #@! TO.P,U12,23*
G04 #@! TO.N,Neg6v*
X108585000Y-104775000D03*
G04 #@! TO.P,U12,1*
G04 #@! TO.N,Mn*
X121920000Y-87630000D03*
G04 #@! TO.P,U12,2*
G04 #@! TO.N,0TM-*
X121920000Y-85090000D03*
G04 #@! TO.P,U12,3*
G04 #@! TO.N,Gn*
X121920000Y-82550000D03*
G04 #@! TO.P,U12,4*
G04 #@! TO.N,GTM*
X121920000Y-80010000D03*
G04 #@! TO.P,U12,5*
G04 #@! TO.N,Wn*
X121920000Y-77470000D03*
G04 #@! TO.P,U12,6*
G04 #@! TO.N,WTM*
X121920000Y-74930000D03*
G04 #@! TO.P,U12,11*
G04 #@! TO.N,N/C*
X103505000Y-83820000D03*
G04 #@! TO.P,U12,12*
X103505000Y-81280000D03*
G04 #@! TO.P,U12,13*
G04 #@! TO.N,Mn-*
X103505000Y-78740000D03*
G04 #@! TD*
G04 #@! TO.P,U11,13*
G04 #@! TO.N,Jn*
X133985000Y-78740000D03*
G04 #@! TO.P,U11,12*
G04 #@! TO.N,Jn-*
X133985000Y-81280000D03*
G04 #@! TO.P,U11,11*
G04 #@! TO.N,N/C*
X133985000Y-83820000D03*
G04 #@! TO.P,U11,6*
X152400000Y-74930000D03*
G04 #@! TO.P,U11,5*
G04 #@! TO.N,Jn-*
X152400000Y-77470000D03*
G04 #@! TO.P,U11,4*
G04 #@! TO.N,Gn*
X152400000Y-80010000D03*
G04 #@! TO.P,U11,3*
G04 #@! TO.N,GTJ*
X152400000Y-82550000D03*
G04 #@! TO.P,U11,2*
G04 #@! TO.N,0TJ-*
X152400000Y-85090000D03*
G04 #@! TO.P,U11,1*
G04 #@! TO.N,Jn*
X152400000Y-87630000D03*
G04 #@! TO.P,U11,23*
G04 #@! TO.N,Neg6v*
X139065000Y-104775000D03*
G04 #@! TO.P,U11,22*
G04 #@! TO.N,GND*
X136525000Y-104775000D03*
G04 #@! TO.P,U11,21*
G04 #@! TO.N,6v*
X133985000Y-104775000D03*
G04 #@! TD*
G04 #@! TO.P,U14,21*
G04 #@! TO.N,6v*
X42545000Y-104775000D03*
G04 #@! TO.P,U14,22*
G04 #@! TO.N,GND*
X45085000Y-104775000D03*
G04 #@! TO.P,U14,23*
G04 #@! TO.N,Neg6v*
X47625000Y-104775000D03*
G04 #@! TO.P,U14,1*
G04 #@! TO.N,Qn*
X60960000Y-87630000D03*
G04 #@! TO.P,U14,2*
G04 #@! TO.N,0TQ-*
X60960000Y-85090000D03*
G04 #@! TO.P,U14,3*
G04 #@! TO.N,GTQ*
X60960000Y-82550000D03*
G04 #@! TO.P,U14,4*
G04 #@! TO.N,Gn*
X60960000Y-80010000D03*
G04 #@! TO.P,U14,5*
G04 #@! TO.N,Qn-*
X60960000Y-77470000D03*
G04 #@! TO.P,U14,6*
G04 #@! TO.N,N/C*
X60960000Y-74930000D03*
G04 #@! TO.P,U14,11*
X42545000Y-83820000D03*
G04 #@! TO.P,U14,12*
G04 #@! TO.N,Qn-*
X42545000Y-81280000D03*
G04 #@! TO.P,U14,13*
G04 #@! TO.N,Qn*
X42545000Y-78740000D03*
G04 #@! TD*
G04 #@! TO.P,U13,13*
G04 #@! TO.N,An*
X73025000Y-78740000D03*
G04 #@! TO.P,U13,12*
G04 #@! TO.N,An-*
X73025000Y-81280000D03*
G04 #@! TO.P,U13,11*
G04 #@! TO.N,N/C*
X73025000Y-83820000D03*
G04 #@! TO.P,U13,6*
X91440000Y-74930000D03*
G04 #@! TO.P,U13,5*
G04 #@! TO.N,An-*
X91440000Y-77470000D03*
G04 #@! TO.P,U13,4*
G04 #@! TO.N,Gn*
X91440000Y-80010000D03*
G04 #@! TO.P,U13,3*
G04 #@! TO.N,GTA*
X91440000Y-82550000D03*
G04 #@! TO.P,U13,2*
G04 #@! TO.N,0TA-*
X91440000Y-85090000D03*
G04 #@! TO.P,U13,1*
G04 #@! TO.N,An*
X91440000Y-87630000D03*
G04 #@! TO.P,U13,23*
G04 #@! TO.N,Neg6v*
X78105000Y-104775000D03*
G04 #@! TO.P,U13,22*
G04 #@! TO.N,GND*
X75565000Y-104775000D03*
G04 #@! TO.P,U13,21*
G04 #@! TO.N,6v*
X73025000Y-104775000D03*
G04 #@! TD*
D11*
G04 #@! TO.P,R3,1*
G04 #@! TO.N,{Gn}*
X237426000Y-74866500D03*
D12*
G04 #@! TO.P,R3,2*
G04 #@! TO.N,Gn-*
X237426000Y-82486500D03*
G04 #@! TD*
G04 #@! TO.P,R4,2*
G04 #@! TO.N,Jn-*
X146114000Y-77470000D03*
D11*
G04 #@! TO.P,R4,1*
G04 #@! TO.N,{Jn}*
X146114000Y-69850000D03*
G04 #@! TD*
G04 #@! TO.P,R5,1*
G04 #@! TO.N,{Mn}*
X84010500Y-133350000D03*
D12*
G04 #@! TO.P,R5,2*
G04 #@! TO.N,Mn-*
X84010500Y-140970000D03*
G04 #@! TD*
D11*
G04 #@! TO.P,R6,1*
G04 #@! TO.N,{IPn}*
X113856000Y-133350000D03*
D12*
G04 #@! TO.P,R6,2*
G04 #@! TO.N,IPn-*
X113856000Y-140970000D03*
G04 #@! TD*
D11*
G04 #@! TO.P,R7,1*
G04 #@! TO.N,{An}*
X84772500Y-69786500D03*
D12*
G04 #@! TO.P,R7,2*
G04 #@! TO.N,An-*
X84772500Y-77406500D03*
G04 #@! TD*
D11*
G04 #@! TO.P,R8,1*
G04 #@! TO.N,{Qn}*
X53975000Y-69913500D03*
D12*
G04 #@! TO.P,R8,2*
G04 #@! TO.N,Qn-*
X53975000Y-77533500D03*
G04 #@! TD*
D11*
G04 #@! TO.P,R9,1*
G04 #@! TO.N,Wn*
X114998000Y-77470000D03*
D12*
G04 #@! TO.P,R9,2*
G04 #@! TO.N,6v*
X114998000Y-85090000D03*
G04 #@! TD*
D11*
G04 #@! TO.P,R10,1*
G04 #@! TO.N,Jn-*
X146304000Y-87820500D03*
D12*
G04 #@! TO.P,R10,2*
G04 #@! TO.N,6v*
X146304000Y-95440500D03*
G04 #@! TD*
G04 #@! TO.P,R11,2*
G04 #@! TO.N,6v*
X144653000Y-157924000D03*
D11*
G04 #@! TO.P,R11,1*
G04 #@! TO.N,Mn-*
X152273000Y-157924000D03*
G04 #@! TD*
D12*
G04 #@! TO.P,R12,2*
G04 #@! TO.N,6v*
X113919000Y-157670000D03*
D11*
G04 #@! TO.P,R12,1*
G04 #@! TO.N,IPn-*
X113919000Y-150050000D03*
G04 #@! TD*
G04 #@! TO.P,R13,1*
G04 #@! TO.N,An-*
X84772500Y-83185000D03*
D12*
G04 #@! TO.P,R13,2*
G04 #@! TO.N,6v*
X84772500Y-90805000D03*
G04 #@! TD*
G04 #@! TO.P,R14,2*
G04 #@! TO.N,6v*
X144716000Y-151130000D03*
D11*
G04 #@! TO.P,R14,1*
G04 #@! TO.N,Mn*
X144716000Y-143510000D03*
G04 #@! TD*
D12*
G04 #@! TO.P,R15,2*
G04 #@! TO.N,6v*
X87947500Y-136017000D03*
D11*
G04 #@! TO.P,R15,1*
G04 #@! TO.N,STOREnx-*
X87947500Y-143637000D03*
G04 #@! TD*
D12*
G04 #@! TO.P,R16,2*
G04 #@! TO.N,6v*
X53975000Y-90805000D03*
D11*
G04 #@! TO.P,R16,1*
G04 #@! TO.N,Qn-*
X53975000Y-83185000D03*
G04 #@! TD*
D12*
G04 #@! TO.P,R17,2*
G04 #@! TO.N,6v*
X91503500Y-102108000D03*
D11*
G04 #@! TO.P,R17,1*
G04 #@! TO.N,An*
X91503500Y-94488000D03*
G04 #@! TD*
D13*
G04 #@! TO.P,TP1,1*
G04 #@! TO.N,TP1*
X250190000Y-120650000D03*
G04 #@! TD*
G04 #@! TO.P,TP2,1*
G04 #@! TO.N,TP2*
X250190000Y-69850000D03*
G04 #@! TD*
G04 #@! TO.P,TP3,1*
G04 #@! TO.N,TP3*
X250190000Y-125730000D03*
G04 #@! TD*
D10*
G04 #@! TO.P,U2,21*
G04 #@! TO.N,6v*
X194945000Y-168275000D03*
G04 #@! TO.P,U2,22*
G04 #@! TO.N,GND*
X197485000Y-168275000D03*
G04 #@! TO.P,U2,23*
G04 #@! TO.N,Neg6v*
X200025000Y-168275000D03*
G04 #@! TO.P,U2,1*
G04 #@! TO.N,Xn-*
X213360000Y-151130000D03*
G04 #@! TO.P,U2,2*
G04 #@! TO.N,N/C*
X213360000Y-148590000D03*
G04 #@! TO.P,U2,3*
G04 #@! TO.N,VTG*
X213360000Y-146050000D03*
G04 #@! TO.P,U2,4*
G04 #@! TO.N,Yn*
X213360000Y-143510000D03*
G04 #@! TO.P,U2,5*
G04 #@! TO.N,Xn*
X213360000Y-140970000D03*
G04 #@! TO.P,U2,6*
G04 #@! TO.N,Yn-*
X213360000Y-138430000D03*
G04 #@! TO.P,U2,11*
G04 #@! TO.N,Xn*
X194945000Y-147320000D03*
G04 #@! TO.P,U2,12*
G04 #@! TO.N,Gn-*
X194945000Y-144780000D03*
G04 #@! TO.P,U2,13*
G04 #@! TO.N,Yn*
X194945000Y-142240000D03*
G04 #@! TD*
G04 #@! TO.P,U3,21*
G04 #@! TO.N,6v*
X164465000Y-168275000D03*
G04 #@! TO.P,U3,22*
G04 #@! TO.N,GND*
X167005000Y-168275000D03*
G04 #@! TO.P,U3,23*
G04 #@! TO.N,Neg6v*
X169545000Y-168275000D03*
G04 #@! TO.P,U3,1*
G04 #@! TO.N,Xn-*
X182880000Y-151130000D03*
G04 #@! TO.P,U3,2*
G04 #@! TO.N,Yn-*
X182880000Y-148590000D03*
G04 #@! TO.P,U3,3*
G04 #@! TO.N,Xn*
X182880000Y-146050000D03*
G04 #@! TO.P,U3,4*
G04 #@! TO.N,Yn*
X182880000Y-143510000D03*
G04 #@! TO.P,U3,5*
X182880000Y-140970000D03*
G04 #@! TO.P,U3,6*
G04 #@! TO.N,Xn*
X182880000Y-138430000D03*
G04 #@! TO.P,U3,11*
G04 #@! TO.N,N/C*
X164465000Y-147320000D03*
G04 #@! TO.P,U3,12*
G04 #@! TO.N,TP1*
X164465000Y-144780000D03*
G04 #@! TO.P,U3,13*
G04 #@! TO.N,TP2*
X164465000Y-142240000D03*
G04 #@! TD*
G04 #@! TO.P,U4,21*
G04 #@! TO.N,6v*
X133985000Y-168275000D03*
G04 #@! TO.P,U4,22*
G04 #@! TO.N,GND*
X136525000Y-168275000D03*
G04 #@! TO.P,U4,23*
G04 #@! TO.N,Neg6v*
X139065000Y-168275000D03*
G04 #@! TO.P,U4,1*
G04 #@! TO.N,M-TF*
X152400000Y-151130000D03*
G04 #@! TO.P,U4,2*
G04 #@! TO.N,Mn-*
X152400000Y-148590000D03*
G04 #@! TO.P,U4,3*
G04 #@! TO.N,MTF*
X152400000Y-146050000D03*
G04 #@! TO.P,U4,4*
G04 #@! TO.N,Mn*
X152400000Y-143510000D03*
G04 #@! TO.P,U4,5*
G04 #@! TO.N,JTF*
X152400000Y-140970000D03*
G04 #@! TO.P,U4,6*
G04 #@! TO.N,Jn*
X152400000Y-138430000D03*
G04 #@! TO.P,U4,11*
G04 #@! TO.N,N/C*
X133985000Y-147320000D03*
G04 #@! TO.P,U4,12*
X133985000Y-144780000D03*
G04 #@! TO.P,U4,13*
G04 #@! TO.N,Xn-*
X133985000Y-142240000D03*
G04 #@! TD*
G04 #@! TO.P,U5,13*
G04 #@! TO.N,IPn*
X103505000Y-142240000D03*
G04 #@! TO.P,U5,12*
G04 #@! TO.N,IPn-*
X103505000Y-144780000D03*
G04 #@! TO.P,U5,11*
G04 #@! TO.N,N/C*
X103505000Y-147320000D03*
G04 #@! TO.P,U5,6*
X121920000Y-138430000D03*
G04 #@! TO.P,U5,5*
G04 #@! TO.N,IPn-*
X121920000Y-140970000D03*
G04 #@! TO.P,U5,4*
G04 #@! TO.N,Mn*
X121920000Y-143510000D03*
G04 #@! TO.P,U5,3*
G04 #@! TO.N,MTIP*
X121920000Y-146050000D03*
G04 #@! TO.P,U5,2*
G04 #@! TO.N,0TIP-*
X121920000Y-148590000D03*
G04 #@! TO.P,U5,1*
G04 #@! TO.N,IPn*
X121920000Y-151130000D03*
G04 #@! TO.P,U5,23*
G04 #@! TO.N,Neg6v*
X108585000Y-168275000D03*
G04 #@! TO.P,U5,22*
G04 #@! TO.N,GND*
X106045000Y-168275000D03*
G04 #@! TO.P,U5,21*
G04 #@! TO.N,6v*
X103505000Y-168275000D03*
G04 #@! TD*
G04 #@! TO.P,U6,21*
G04 #@! TO.N,6v*
X73025000Y-168275000D03*
G04 #@! TO.P,U6,22*
G04 #@! TO.N,GND*
X75565000Y-168275000D03*
G04 #@! TO.P,U6,23*
G04 #@! TO.N,Neg6v*
X78105000Y-168275000D03*
G04 #@! TO.P,U6,1*
G04 #@! TO.N,IIn*
X91440000Y-151130000D03*
G04 #@! TO.P,U6,2*
G04 #@! TO.N,N/C*
X91440000Y-148590000D03*
G04 #@! TO.P,U6,3*
X91440000Y-146050000D03*
G04 #@! TO.P,U6,4*
G04 #@! TO.N,STOREnx-*
X91440000Y-143510000D03*
G04 #@! TO.P,U6,5*
G04 #@! TO.N,Mn-*
X91440000Y-140970000D03*
G04 #@! TO.P,U6,6*
G04 #@! TO.N,STOREn-*
X91440000Y-138430000D03*
G04 #@! TO.P,U6,11*
G04 #@! TO.N,Mn-*
X73025000Y-147320000D03*
G04 #@! TO.P,U6,12*
G04 #@! TO.N,N/C*
X73025000Y-144780000D03*
G04 #@! TO.P,U6,13*
G04 #@! TO.N,Mn*
X73025000Y-142240000D03*
G04 #@! TD*
G04 #@! TO.P,U7,13*
G04 #@! TO.N,Yn-*
X42545000Y-142240000D03*
G04 #@! TO.P,U7,12*
G04 #@! TO.N,N/C*
X42545000Y-144780000D03*
G04 #@! TO.P,U7,11*
X42545000Y-147320000D03*
G04 #@! TO.P,U7,6*
G04 #@! TO.N,An*
X60960000Y-138430000D03*
G04 #@! TO.P,U7,5*
G04 #@! TO.N,ATF*
X60960000Y-140970000D03*
G04 #@! TO.P,U7,4*
G04 #@! TO.N,N/C*
X60960000Y-143510000D03*
G04 #@! TO.P,U7,3*
G04 #@! TO.N,DTF*
X60960000Y-146050000D03*
G04 #@! TO.P,U7,2*
G04 #@! TO.N,Qn*
X60960000Y-148590000D03*
G04 #@! TO.P,U7,1*
G04 #@! TO.N,QTF*
X60960000Y-151130000D03*
G04 #@! TO.P,U7,23*
G04 #@! TO.N,Neg6v*
X47625000Y-168275000D03*
G04 #@! TO.P,U7,22*
G04 #@! TO.N,GND*
X45085000Y-168275000D03*
G04 #@! TO.P,U7,21*
G04 #@! TO.N,6v*
X42545000Y-168275000D03*
G04 #@! TD*
G04 #@! TO.P,U9,13*
G04 #@! TO.N,Gn-*
X194945000Y-78740000D03*
G04 #@! TO.P,U9,12*
G04 #@! TO.N,N/C*
X194945000Y-81280000D03*
G04 #@! TO.P,U9,11*
X194945000Y-83820000D03*
G04 #@! TO.P,U9,6*
G04 #@! TO.N,RTG*
X213360000Y-74930000D03*
G04 #@! TO.P,U9,5*
G04 #@! TO.N,FnR*
X213360000Y-77470000D03*
G04 #@! TO.P,U9,4*
G04 #@! TO.N,FTG*
X213360000Y-80010000D03*
G04 #@! TO.P,U9,3*
G04 #@! TO.N,Fn*
X213360000Y-82550000D03*
G04 #@! TO.P,U9,2*
G04 #@! TO.N,LTG*
X213360000Y-85090000D03*
G04 #@! TO.P,U9,1*
G04 #@! TO.N,FnL*
X213360000Y-87630000D03*
G04 #@! TO.P,U9,23*
G04 #@! TO.N,Neg6v*
X200025000Y-104775000D03*
G04 #@! TO.P,U9,22*
G04 #@! TO.N,GND*
X197485000Y-104775000D03*
G04 #@! TO.P,U9,21*
G04 #@! TO.N,6v*
X194945000Y-104775000D03*
G04 #@! TD*
G04 #@! TO.P,U10,13*
G04 #@! TO.N,Gn-*
X164465000Y-78740000D03*
G04 #@! TO.P,U10,12*
G04 #@! TO.N,N/C*
X164465000Y-81280000D03*
G04 #@! TO.P,U10,11*
X164465000Y-83820000D03*
G04 #@! TO.P,U10,6*
G04 #@! TO.N,An-7|IPn*
X182880000Y-74930000D03*
G04 #@! TO.P,U10,5*
G04 #@! TO.N,PTGb*
X182880000Y-77470000D03*
G04 #@! TO.P,U10,4*
G04 #@! TO.N,IPn*
X182880000Y-80010000D03*
G04 #@! TO.P,U10,3*
G04 #@! TO.N,PTGa*
X182880000Y-82550000D03*
G04 #@! TO.P,U10,2*
G04 #@! TO.N,0TG-*
X182880000Y-85090000D03*
G04 #@! TO.P,U10,1*
G04 #@! TO.N,Gn*
X182880000Y-87630000D03*
G04 #@! TO.P,U10,23*
G04 #@! TO.N,Neg6v*
X169545000Y-104775000D03*
G04 #@! TO.P,U10,22*
G04 #@! TO.N,GND*
X167005000Y-104775000D03*
G04 #@! TO.P,U10,21*
G04 #@! TO.N,6v*
X164465000Y-104775000D03*
G04 #@! TD*
D14*
G04 #@! TO.P,C1,2*
G04 #@! TO.N,GND*
X243800000Y-33020000D03*
D15*
G04 #@! TO.P,C1,1*
G04 #@! TO.N,6v*
X241300000Y-33020000D03*
G04 #@! TD*
G04 #@! TO.P,C2,1*
G04 #@! TO.N,GND*
X228600000Y-33020000D03*
D14*
G04 #@! TO.P,C2,2*
G04 #@! TO.N,Neg6v*
X231100000Y-33020000D03*
G04 #@! TD*
D16*
G04 #@! TO.P,J1,1*
G04 #@! TO.N,GND*
X177800000Y-30480000D03*
D17*
G04 #@! TO.P,J1,A*
X177800000Y-33020000D03*
G04 #@! TO.P,J1,2*
G04 #@! TO.N,6v*
X175260000Y-30480000D03*
G04 #@! TO.P,J1,B*
X175260000Y-33020000D03*
G04 #@! TO.P,J1,3*
G04 #@! TO.N,Cn*
X172720000Y-30480000D03*
G04 #@! TO.P,J1,C*
G04 #@! TO.N,Cn-1*
X172720000Y-33020000D03*
G04 #@! TO.P,J1,4*
G04 #@! TO.N,JTG-|NC*
X170180000Y-30480000D03*
G04 #@! TO.P,J1,D*
G04 #@! TO.N,FnL*
X170180000Y-33020000D03*
G04 #@! TO.P,J1,5*
G04 #@! TO.N,FnR*
X167640000Y-30480000D03*
G04 #@! TO.P,J1,E*
G04 #@! TO.N,Fn*
X167640000Y-33020000D03*
G04 #@! TO.P,J1,6*
G04 #@! TO.N,FTG*
X165100000Y-30480000D03*
G04 #@! TO.P,J1,F*
G04 #@! TO.N,N/C*
X165100000Y-33020000D03*
G04 #@! TO.P,J1,7*
G04 #@! TO.N,RTG*
X162560000Y-30480000D03*
G04 #@! TO.P,J1,H*
G04 #@! TO.N,LTG*
X162560000Y-33020000D03*
G04 #@! TO.P,J1,8*
G04 #@! TO.N,VTG*
X160020000Y-30480000D03*
G04 #@! TO.P,J1,J*
G04 #@! TO.N,Gn*
X160020000Y-33020000D03*
G04 #@! TO.P,J1,9*
G04 #@! TO.N,IPn*
X157480000Y-30480000D03*
G04 #@! TO.P,J1,K*
G04 #@! TO.N,N/C*
X157480000Y-33020000D03*
G04 #@! TO.P,J1,10*
G04 #@! TO.N,0TG-*
X154940000Y-30480000D03*
G04 #@! TO.P,J1,L*
G04 #@! TO.N,PTGa*
X154940000Y-33020000D03*
G04 #@! TO.P,J1,11*
G04 #@! TO.N,PTGb*
X152400000Y-30480000D03*
G04 #@! TO.P,J1,M*
G04 #@! TO.N,{Gn}*
X152400000Y-33020000D03*
G04 #@! TO.P,J1,12*
G04 #@! TO.N,An-7|IPn*
X149860000Y-30480000D03*
G04 #@! TO.P,J1,N*
G04 #@! TO.N,Jn-*
X149860000Y-33020000D03*
G04 #@! TO.P,J1,13*
G04 #@! TO.N,GTJ*
X147320000Y-30480000D03*
G04 #@! TO.P,J1,P*
G04 #@! TO.N,0TJ-*
X147320000Y-33020000D03*
G04 #@! TO.P,J1,14*
G04 #@! TO.N,JTF*
X144780000Y-30480000D03*
G04 #@! TO.P,J1,R*
G04 #@! TO.N,Jn-*
X144780000Y-33020000D03*
G04 #@! TO.P,J1,15*
G04 #@! TO.N,MTF*
X142240000Y-30480000D03*
G04 #@! TO.P,J1,S*
G04 #@! TO.N,{Jn}*
X142240000Y-33020000D03*
G04 #@! TO.P,J1,16*
G04 #@! TO.N,M-TF*
X139700000Y-30480000D03*
G04 #@! TO.P,J1,T*
G04 #@! TO.N,Jn*
X139700000Y-33020000D03*
G04 #@! TO.P,J1,17*
G04 #@! TO.N,GTM*
X137160000Y-30480000D03*
G04 #@! TO.P,J1,U*
G04 #@! TO.N,{Mn}*
X137160000Y-33020000D03*
G04 #@! TO.P,J1,18*
G04 #@! TO.N,Wn*
X134620000Y-30480000D03*
G04 #@! TO.P,J1,V*
G04 #@! TO.N,Mn-*
X134620000Y-33020000D03*
G04 #@! TO.P,J1,19*
G04 #@! TO.N,WTM*
X132080000Y-30480000D03*
G04 #@! TO.P,J1,W*
G04 #@! TO.N,IPn-*
X132080000Y-33020000D03*
G04 #@! TO.P,J1,20*
G04 #@! TO.N,0TM-*
X129540000Y-30480000D03*
G04 #@! TO.P,J1,X*
G04 #@! TO.N,0TIP-*
X129540000Y-33020000D03*
G04 #@! TO.P,J1,21*
G04 #@! TO.N,IPn*
X127000000Y-30480000D03*
G04 #@! TO.P,J1,Y*
G04 #@! TO.N,{IPn}*
X127000000Y-33020000D03*
G04 #@! TO.P,J1,22*
G04 #@! TO.N,MTIP*
X124460000Y-30480000D03*
G04 #@! TO.P,J1,Z*
G04 #@! TO.N,{An}*
X124460000Y-33020000D03*
G04 #@! TO.P,J1,23*
G04 #@! TO.N,GTA*
X121920000Y-30480000D03*
G04 #@! TO.P,J1,AA*
G04 #@! TO.N,0TA-*
X121920000Y-33020000D03*
G04 #@! TO.P,J1,24*
G04 #@! TO.N,STOREnx-*
X119380000Y-30480000D03*
G04 #@! TO.P,J1,AB*
G04 #@! TO.N,An-*
X119380000Y-33020000D03*
G04 #@! TO.P,J1,25*
G04 #@! TO.N,IIn*
X116840000Y-30480000D03*
G04 #@! TO.P,J1,AC*
G04 #@! TO.N,{Qn}*
X116840000Y-33020000D03*
G04 #@! TO.P,J1,26*
G04 #@! TO.N,0TQ-*
X114300000Y-30480000D03*
G04 #@! TO.P,J1,AD*
G04 #@! TO.N,Mn*
X114300000Y-33020000D03*
G04 #@! TO.P,J1,27*
G04 #@! TO.N,An*
X111760000Y-30480000D03*
G04 #@! TO.P,J1,AE*
G04 #@! TO.N,GTQ*
X111760000Y-33020000D03*
G04 #@! TO.P,J1,28*
G04 #@! TO.N,ATF*
X109220000Y-30480000D03*
G04 #@! TO.P,J1,AF*
G04 #@! TO.N,N/C*
X109220000Y-33020000D03*
G04 #@! TO.P,J1,29*
G04 #@! TO.N,DTF*
X106680000Y-30480000D03*
G04 #@! TO.P,J1,AH*
G04 #@! TO.N,Qn-*
X106680000Y-33020000D03*
G04 #@! TO.P,J1,30*
G04 #@! TO.N,QTF*
X104140000Y-30480000D03*
G04 #@! TO.P,J1,AJ*
G04 #@! TO.N,STOREn-*
X104140000Y-33020000D03*
G04 #@! TO.P,J1,31*
G04 #@! TO.N,Neg6v*
X101600000Y-30480000D03*
G04 #@! TO.P,J1,AK*
X101600000Y-33020000D03*
G04 #@! TO.P,J1,32*
G04 #@! TO.N,GND*
X99060000Y-30480000D03*
G04 #@! TO.P,J1,AL*
X99060000Y-33020000D03*
G04 #@! TD*
D18*
G04 #@! TO.N,{Mn}*
X130738700Y-78891900D03*
G04 #@! TO.N,FnL*
X195655700Y-67558000D03*
G04 #@! TD*
D19*
G04 #@! TO.N,{Gn}*
X152400000Y-33020000D02*
X152400000Y-32383100D01*
X152400000Y-32383100D02*
X151180400Y-31163500D01*
X151180400Y-31163500D02*
X151180400Y-30034900D01*
X151180400Y-30034900D02*
X151960900Y-29254400D01*
X151960900Y-29254400D02*
X155399600Y-29254400D01*
X155399600Y-29254400D02*
X156210000Y-30064800D01*
X156210000Y-30064800D02*
X156210000Y-33427700D01*
X156210000Y-33427700D02*
X195185500Y-72403200D01*
X195185500Y-72403200D02*
X234962700Y-72403200D01*
X234962700Y-72403200D02*
X237426000Y-74866500D01*
G04 #@! TO.N,{Mn}*
X130738700Y-78891900D02*
X125954500Y-83676100D01*
X125954500Y-83676100D02*
X108459300Y-83676100D01*
X108459300Y-83676100D02*
X84010500Y-108124900D01*
X84010500Y-108124900D02*
X84010500Y-133350000D01*
G04 #@! TO.N,{An}*
X124460000Y-33020000D02*
X87693500Y-69786500D01*
X87693500Y-69786500D02*
X84772500Y-69786500D01*
G04 #@! TO.N,{Qn}*
X116840000Y-33020000D02*
X115570000Y-31750000D01*
X115570000Y-31750000D02*
X115570000Y-30065100D01*
X115570000Y-30065100D02*
X114796600Y-29291700D01*
X114796600Y-29291700D02*
X113808300Y-29291700D01*
X113808300Y-29291700D02*
X113030000Y-30070000D01*
X113030000Y-30070000D02*
X113030000Y-30877400D01*
X113030000Y-30877400D02*
X112062800Y-31844600D01*
X112062800Y-31844600D02*
X106190600Y-31844600D01*
X106190600Y-31844600D02*
X105504600Y-32530600D01*
X105504600Y-32530600D02*
X105504600Y-33317800D01*
X105504600Y-33317800D02*
X68908900Y-69913500D01*
X68908900Y-69913500D02*
X53975000Y-69913500D01*
G04 #@! TO.N,Wn*
X134620000Y-30480000D02*
X135795500Y-31655500D01*
X135795500Y-31655500D02*
X135795500Y-63594500D01*
X135795500Y-63594500D02*
X121920000Y-77470000D01*
X114998000Y-77470000D02*
X121920000Y-77470000D01*
G04 #@! TO.N,Mn*
X121920000Y-143510000D02*
X119555200Y-145874800D01*
X119555200Y-145874800D02*
X99137400Y-145874800D01*
X99137400Y-145874800D02*
X93129100Y-139866500D01*
X93129100Y-139866500D02*
X75398500Y-139866500D01*
X75398500Y-139866500D02*
X73025000Y-142240000D01*
X144716000Y-143510000D02*
X121920000Y-143510000D01*
X152400000Y-143510000D02*
X144716000Y-143510000D01*
G04 #@! TO.N,An*
X91503500Y-94488000D02*
X60960000Y-125031500D01*
X60960000Y-125031500D02*
X60960000Y-138430000D01*
G04 #@! TO.N,Gn*
X182880000Y-87630000D02*
X175260000Y-80010000D01*
X175260000Y-80010000D02*
X152400000Y-80010000D01*
X225425000Y-81280000D02*
X204581300Y-81280000D01*
X204581300Y-81280000D02*
X198231300Y-87630000D01*
X198231300Y-87630000D02*
X182880000Y-87630000D01*
X152400000Y-80010000D02*
X146687000Y-80010000D01*
X146687000Y-80010000D02*
X144329200Y-77652200D01*
X144329200Y-77652200D02*
X126817800Y-77652200D01*
X126817800Y-77652200D02*
X121920000Y-82550000D01*
X92543400Y-82550000D02*
X92543400Y-85527000D01*
X92543400Y-85527000D02*
X91886700Y-86183700D01*
X91886700Y-86183700D02*
X60490000Y-86183700D01*
X60490000Y-86183700D02*
X59814500Y-85508200D01*
X59814500Y-85508200D02*
X59814500Y-81155500D01*
X59814500Y-81155500D02*
X60960000Y-80010000D01*
X91440000Y-80010000D02*
X92543400Y-81113400D01*
X92543400Y-81113400D02*
X92543400Y-82550000D01*
X121920000Y-82550000D02*
X92543400Y-82550000D01*
G04 #@! TO.N,Jn*
X133985000Y-78740000D02*
X143510000Y-78740000D01*
X143510000Y-78740000D02*
X152400000Y-87630000D01*
G04 #@! TO.N,Qn*
X42545000Y-78740000D02*
X52070000Y-78740000D01*
X52070000Y-78740000D02*
X60960000Y-87630000D01*
G04 #@! TO.N,TP1*
X243840000Y-143510000D02*
X237640800Y-137310800D01*
X237640800Y-137310800D02*
X171934200Y-137310800D01*
X171934200Y-137310800D02*
X164465000Y-144780000D01*
X250190000Y-120650000D02*
X250190000Y-81280000D01*
X250190000Y-81280000D02*
X243840000Y-74930000D01*
G04 #@! TO.N,TP2*
X243840000Y-85090000D02*
X240338400Y-88591600D01*
X240338400Y-88591600D02*
X240338400Y-96480000D01*
X240338400Y-96480000D02*
X230030400Y-106788000D01*
X230030400Y-106788000D02*
X199917000Y-106788000D01*
X199917000Y-106788000D02*
X164465000Y-142240000D01*
G04 #@! TO.N,TP3*
X250190000Y-125730000D02*
X243840000Y-119380000D01*
X243840000Y-119380000D02*
X243840000Y-87630000D01*
X225425000Y-78740000D02*
X227965000Y-81280000D01*
X227965000Y-81280000D02*
X244124300Y-81280000D01*
X244124300Y-81280000D02*
X244927500Y-82083200D01*
X244927500Y-82083200D02*
X244927500Y-86542500D01*
X244927500Y-86542500D02*
X243840000Y-87630000D01*
G04 #@! TO.N,Yn*
X194945000Y-142240000D02*
X212090000Y-142240000D01*
X212090000Y-142240000D02*
X213360000Y-143510000D01*
X183968600Y-142240000D02*
X194945000Y-142240000D01*
X183968600Y-142240000D02*
X183968600Y-142421400D01*
X183968600Y-142421400D02*
X182880000Y-143510000D01*
X182880000Y-140970000D02*
X183968600Y-142058600D01*
X183968600Y-142058600D02*
X183968600Y-142240000D01*
G04 #@! TO.N,Xn*
X194945000Y-147320000D02*
X213707300Y-147320000D01*
X213707300Y-147320000D02*
X214467200Y-146560100D01*
X214467200Y-146560100D02*
X214467200Y-142077200D01*
X214467200Y-142077200D02*
X213360000Y-140970000D01*
G04 #@! TO.N,An-7|IPn*
X149860000Y-30480000D02*
X151209400Y-31829400D01*
X151209400Y-31829400D02*
X151209400Y-43259400D01*
X151209400Y-43259400D02*
X182880000Y-74930000D01*
G04 #@! TO.N,PTGb*
X152400000Y-30480000D02*
X153670000Y-31750000D01*
X153670000Y-31750000D02*
X153670000Y-43846900D01*
X153670000Y-43846900D02*
X183969400Y-74146300D01*
X183969400Y-74146300D02*
X183969400Y-76380600D01*
X183969400Y-76380600D02*
X182880000Y-77470000D01*
G04 #@! TO.N,IPn*
X157480000Y-30480000D02*
X155803500Y-28803500D01*
X155803500Y-28803500D02*
X128676500Y-28803500D01*
X128676500Y-28803500D02*
X127000000Y-30480000D01*
G04 #@! TO.N,GTM*
X137160000Y-30480000D02*
X138359400Y-31679400D01*
X138359400Y-31679400D02*
X138359400Y-63570600D01*
X138359400Y-63570600D02*
X121920000Y-80010000D01*
G04 #@! TO.N,WTM*
X132080000Y-30480000D02*
X130810000Y-31750000D01*
X130810000Y-31750000D02*
X130810000Y-66040000D01*
X130810000Y-66040000D02*
X121920000Y-74930000D01*
G04 #@! TO.N,GTA*
X121920000Y-30480000D02*
X123284600Y-31844600D01*
X123284600Y-31844600D02*
X124985600Y-31844600D01*
X124985600Y-31844600D02*
X125636900Y-32495900D01*
X125636900Y-32495900D02*
X125636900Y-44875800D01*
X125636900Y-44875800D02*
X91772700Y-78740000D01*
X91772700Y-78740000D02*
X91147500Y-78740000D01*
X91147500Y-78740000D02*
X90349900Y-79537600D01*
X90349900Y-79537600D02*
X90349900Y-81459900D01*
X90349900Y-81459900D02*
X91440000Y-82550000D01*
G04 #@! TO.N,GTQ*
X111760000Y-33020000D02*
X62230000Y-82550000D01*
X62230000Y-82550000D02*
X60960000Y-82550000D01*
G04 #@! TO.N,6v*
X95195800Y-104775000D02*
X87947500Y-112023300D01*
X87947500Y-112023300D02*
X87947500Y-134991700D01*
X87947500Y-136017000D02*
X87947500Y-134991700D01*
X95195800Y-104775000D02*
X103505000Y-104775000D01*
X92528800Y-102108000D02*
X95195800Y-104775000D01*
X225425000Y-104775000D02*
X224324200Y-103674200D01*
X224324200Y-103674200D02*
X199555800Y-103674200D01*
X199555800Y-103674200D02*
X198755000Y-104475000D01*
X198755000Y-104475000D02*
X198755000Y-105061700D01*
X198755000Y-105061700D02*
X197930600Y-105886100D01*
X197930600Y-105886100D02*
X196056100Y-105886100D01*
X196056100Y-105886100D02*
X194945000Y-104775000D01*
X91503500Y-102108000D02*
X92528800Y-102108000D01*
X114998000Y-85090000D02*
X114998000Y-86115300D01*
X133985000Y-104775000D02*
X125660000Y-104775000D01*
X125660000Y-104775000D02*
X114720100Y-93835100D01*
X114720100Y-93835100D02*
X114444900Y-93835100D01*
X114444900Y-93835100D02*
X103505000Y-104775000D01*
X114720100Y-93835100D02*
X114720100Y-86393200D01*
X114720100Y-86393200D02*
X114998000Y-86115300D01*
X164465000Y-104775000D02*
X156155700Y-96465700D01*
X156155700Y-96465700D02*
X146304000Y-96465700D01*
X146304000Y-96465700D02*
X142294300Y-96465700D01*
X142294300Y-96465700D02*
X133985000Y-104775000D01*
X146304000Y-95440500D02*
X146304000Y-96465700D01*
X84772500Y-90805000D02*
X55000300Y-90805000D01*
X53975000Y-90805000D02*
X55000300Y-90805000D01*
X194945000Y-168275000D02*
X196503200Y-169833200D01*
X196503200Y-169833200D02*
X223866800Y-169833200D01*
X223866800Y-169833200D02*
X225425000Y-168275000D01*
X42545000Y-168275000D02*
X43687300Y-169417300D01*
X43687300Y-169417300D02*
X71882700Y-169417300D01*
X71882700Y-169417300D02*
X73025000Y-168275000D01*
G04 #@! TO.N,Neg6v*
X169545000Y-168275000D02*
X168457600Y-169362400D01*
X168457600Y-169362400D02*
X140152400Y-169362400D01*
X140152400Y-169362400D02*
X139065000Y-168275000D01*
X200025000Y-168275000D02*
X198936900Y-167186900D01*
X198936900Y-167186900D02*
X170633100Y-167186900D01*
X170633100Y-167186900D02*
X169545000Y-168275000D01*
X108585000Y-104775000D02*
X110147600Y-106337600D01*
X110147600Y-106337600D02*
X137502400Y-106337600D01*
X137502400Y-106337600D02*
X139065000Y-104775000D01*
X139065000Y-104775000D02*
X140621200Y-106331200D01*
X140621200Y-106331200D02*
X167988800Y-106331200D01*
X167988800Y-106331200D02*
X169545000Y-104775000D01*
X78105000Y-104775000D02*
X77009400Y-103679400D01*
X77009400Y-103679400D02*
X48720600Y-103679400D01*
X48720600Y-103679400D02*
X47625000Y-104775000D01*
X78105000Y-168275000D02*
X79192400Y-169362400D01*
X79192400Y-169362400D02*
X107497600Y-169362400D01*
X107497600Y-169362400D02*
X108585000Y-168275000D01*
X139065000Y-168275000D02*
X137977600Y-169362400D01*
X137977600Y-169362400D02*
X109672400Y-169362400D01*
X109672400Y-169362400D02*
X108585000Y-168275000D01*
X200025000Y-104775000D02*
X198463500Y-106336500D01*
X198463500Y-106336500D02*
X171106500Y-106336500D01*
X171106500Y-106336500D02*
X169545000Y-104775000D01*
X200025000Y-104775000D02*
X201114000Y-105864000D01*
X201114000Y-105864000D02*
X229416000Y-105864000D01*
X229416000Y-105864000D02*
X230505000Y-104775000D01*
G04 #@! TO.N,GND*
X106045000Y-104775000D02*
X107153000Y-103667000D01*
X107153000Y-103667000D02*
X115948500Y-103667000D01*
X115948500Y-103667000D02*
X118146400Y-105864900D01*
X118146400Y-105864900D02*
X135435100Y-105864900D01*
X135435100Y-105864900D02*
X136525000Y-104775000D01*
X177800000Y-33020000D02*
X227474700Y-33020000D01*
X228600000Y-33020000D02*
X227474700Y-33020000D01*
X177800000Y-33020000D02*
X177800000Y-30480000D01*
X136525000Y-168275000D02*
X137612400Y-167187600D01*
X137612400Y-167187600D02*
X165917600Y-167187600D01*
X165917600Y-167187600D02*
X167005000Y-168275000D01*
X45085000Y-168275000D02*
X46173100Y-167186900D01*
X46173100Y-167186900D02*
X74476900Y-167186900D01*
X74476900Y-167186900D02*
X75565000Y-168275000D01*
X228600000Y-33020000D02*
X229725300Y-33020000D01*
X229725300Y-33020000D02*
X229725300Y-32738700D01*
X229725300Y-32738700D02*
X230569400Y-31894600D01*
X230569400Y-31894600D02*
X242674600Y-31894600D01*
X242674600Y-31894600D02*
X243800000Y-33020000D01*
X197485000Y-168275000D02*
X198572400Y-169362400D01*
X198572400Y-169362400D02*
X218411100Y-169362400D01*
X218411100Y-169362400D02*
X220586800Y-167186700D01*
X220586800Y-167186700D02*
X226876700Y-167186700D01*
X226876700Y-167186700D02*
X227965000Y-168275000D01*
X197485000Y-104775000D02*
X199036200Y-103223800D01*
X199036200Y-103223800D02*
X226413800Y-103223800D01*
X226413800Y-103223800D02*
X227965000Y-104775000D01*
X167005000Y-104775000D02*
X168095000Y-103685000D01*
X168095000Y-103685000D02*
X196395000Y-103685000D01*
X196395000Y-103685000D02*
X197485000Y-104775000D01*
X136525000Y-104775000D02*
X137637000Y-103663000D01*
X137637000Y-103663000D02*
X145661100Y-103663000D01*
X145661100Y-103663000D02*
X147876000Y-105877900D01*
X147876000Y-105877900D02*
X165902100Y-105877900D01*
X165902100Y-105877900D02*
X167005000Y-104775000D01*
X45085000Y-104775000D02*
X46184800Y-105874800D01*
X46184800Y-105874800D02*
X74465200Y-105874800D01*
X74465200Y-105874800D02*
X75565000Y-104775000D01*
G04 #@! TO.N,Gn-*
X237426000Y-82486500D02*
X228169300Y-82486500D01*
X228169300Y-82486500D02*
X225852100Y-80169300D01*
X225852100Y-80169300D02*
X220393100Y-80169300D01*
X220393100Y-80169300D02*
X218963800Y-78740000D01*
X218963800Y-78740000D02*
X194945000Y-78740000D01*
X237938700Y-82486500D02*
X237426000Y-82486500D01*
X237938700Y-82486500D02*
X238451300Y-82486500D01*
X194945000Y-78740000D02*
X164465000Y-78740000D01*
X243840000Y-82550000D02*
X238514800Y-82550000D01*
X238514800Y-82550000D02*
X238451300Y-82486500D01*
G04 #@! TO.N,JTG-|NC*
X170180000Y-30480000D02*
X171450000Y-31750000D01*
X171450000Y-31750000D02*
X171450000Y-33439300D01*
X171450000Y-33439300D02*
X173974200Y-35963500D01*
X173974200Y-35963500D02*
X199981400Y-35963500D01*
X199981400Y-35963500D02*
X243840000Y-79822100D01*
X243840000Y-79822100D02*
X243840000Y-80010000D01*
G04 #@! TO.N,Jn-*
X144780000Y-33020000D02*
X145970600Y-31829400D01*
X145970600Y-31829400D02*
X148669400Y-31829400D01*
X148669400Y-31829400D02*
X149860000Y-33020000D01*
X144780000Y-33020000D02*
X144780000Y-75110700D01*
X144780000Y-75110700D02*
X146114000Y-76444700D01*
X133985000Y-81280000D02*
X139763500Y-81280000D01*
X139763500Y-81280000D02*
X146304000Y-87820500D01*
X146114000Y-77470000D02*
X146114000Y-76444700D01*
X146114000Y-77470000D02*
X152400000Y-77470000D01*
G04 #@! TO.N,Mn-*
X134620000Y-33020000D02*
X133350000Y-31750000D01*
X133350000Y-31750000D02*
X133350000Y-30083100D01*
X133350000Y-30083100D02*
X132568500Y-29301600D01*
X132568500Y-29301600D02*
X129033200Y-29301600D01*
X129033200Y-29301600D02*
X128270000Y-30064800D01*
X128270000Y-30064800D02*
X128270000Y-53975000D01*
X128270000Y-53975000D02*
X103505000Y-78740000D01*
X151310600Y-149679400D02*
X152400000Y-148590000D01*
X91440000Y-140970000D02*
X98892600Y-148422600D01*
X98892600Y-148422600D02*
X119517900Y-148422600D01*
X119517900Y-148422600D02*
X120774700Y-149679400D01*
X120774700Y-149679400D02*
X151310600Y-149679400D01*
X152273000Y-157924000D02*
X151310600Y-156961600D01*
X151310600Y-156961600D02*
X151310600Y-149679400D01*
X85035800Y-140970000D02*
X91440000Y-140970000D01*
X84010500Y-140970000D02*
X85035800Y-140970000D01*
X84010500Y-140970000D02*
X82985200Y-140970000D01*
X82985200Y-140970000D02*
X76635200Y-147320000D01*
X76635200Y-147320000D02*
X73025000Y-147320000D01*
G04 #@! TO.N,IPn-*
X121920000Y-140970000D02*
X113856000Y-140970000D01*
X113856000Y-140970000D02*
X112830700Y-140970000D01*
X112830700Y-140970000D02*
X109020700Y-144780000D01*
X109020700Y-144780000D02*
X103505000Y-144780000D01*
G04 #@! TO.N,0TA-*
X91440000Y-85090000D02*
X86428700Y-80078700D01*
X86428700Y-80078700D02*
X86428600Y-80078700D01*
X86428600Y-80078700D02*
X86428600Y-73275100D01*
X86428600Y-73275100D02*
X83744400Y-70590900D01*
X83744400Y-70590900D02*
X83744400Y-69359500D01*
X83744400Y-69359500D02*
X85241800Y-67862100D01*
X85241800Y-67862100D02*
X87077900Y-67862100D01*
X87077900Y-67862100D02*
X121920000Y-33020000D01*
G04 #@! TO.N,STOREnx-*
X87947500Y-143637000D02*
X91313000Y-143637000D01*
X91313000Y-143637000D02*
X91440000Y-143510000D01*
G04 #@! TO.N,An-*
X84772500Y-81280000D02*
X84772500Y-77406500D01*
X84772500Y-83185000D02*
X84772500Y-81280000D01*
X84772500Y-81280000D02*
X73025000Y-81280000D01*
X84772500Y-77406500D02*
X84772500Y-76381200D01*
X119380000Y-33020000D02*
X83294000Y-69106000D01*
X83294000Y-69106000D02*
X83294000Y-74902700D01*
X83294000Y-74902700D02*
X84772500Y-76381200D01*
G04 #@! TO.N,0TQ-*
X114300000Y-30480000D02*
X113030000Y-31750000D01*
X113030000Y-31750000D02*
X113030000Y-33423200D01*
X113030000Y-33423200D02*
X61363200Y-85090000D01*
X61363200Y-85090000D02*
X60960000Y-85090000D01*
G04 #@! TO.N,Qn-*
X60960000Y-77470000D02*
X62230000Y-77470000D01*
X62230000Y-77470000D02*
X106680000Y-33020000D01*
X53975000Y-77533500D02*
X55000300Y-77533500D01*
X60960000Y-77470000D02*
X55063800Y-77470000D01*
X55063800Y-77470000D02*
X55000300Y-77533500D01*
G04 #@! TO.N,Xn-*
X182880000Y-151130000D02*
X213360000Y-151130000D01*
X133985000Y-142240000D02*
X152709000Y-142240000D01*
X152709000Y-142240000D02*
X161599000Y-151130000D01*
X161599000Y-151130000D02*
X182880000Y-151130000D01*
G04 #@! TO.N,Yn-*
X180180600Y-145890600D02*
X182880000Y-148590000D01*
X42545000Y-142240000D02*
X61238600Y-142240000D01*
X61238600Y-142240000D02*
X66141000Y-137337600D01*
X66141000Y-137337600D02*
X155484900Y-137337600D01*
X155484900Y-137337600D02*
X164037900Y-145890600D01*
X164037900Y-145890600D02*
X180180600Y-145890600D01*
X180180600Y-145890600D02*
X180180600Y-142105000D01*
X180180600Y-142105000D02*
X182585600Y-139700000D01*
X182585600Y-139700000D02*
X212090000Y-139700000D01*
X212090000Y-139700000D02*
X213360000Y-138430000D01*
G04 #@! TO.N,Cn-1*
X243840000Y-77470000D02*
X200614700Y-34244700D01*
X200614700Y-34244700D02*
X173944700Y-34244700D01*
X173944700Y-34244700D02*
X172720000Y-33020000D01*
G04 #@! TO.N,FnL*
X170180000Y-33020000D02*
X170180000Y-42082300D01*
X170180000Y-42082300D02*
X195655700Y-67558000D01*
G04 #@! TD*
M02*
