M48
;DRILL file {KiCad (5.0.0)} date 08/30/19 22:58:44
;FORMAT={-:-/ absolute / inch / decimal}
FMAT,2
INCH,TZ
T1C0.0300
T2C0.0315
T3C0.0394
T4C0.0512
T5C0.0551
T6C0.1693
%
G90
G05
M72
T1
X3.507Y-1.587
X3.507Y-2.187
X3.607Y-1.587
X3.607Y-2.187
X4.107Y-1.587
X4.107Y-2.187
X4.207Y-1.587
X4.207Y-2.187
X4.307Y-1.587
X4.307Y-2.187
X4.507Y-1.587
X4.507Y-2.187
X3.502Y-2.565
X3.502Y-3.165
X3.602Y-2.565
X3.602Y-3.165
X4.102Y-2.565
X4.102Y-3.165
X4.202Y-2.565
X4.202Y-3.165
X4.302Y-2.565
X4.302Y-3.165
X4.502Y-2.565
X4.502Y-3.165
T2
X5.177Y-1.2073
X5.177Y-1.601
X5.199Y-1.9
X5.199Y-2.2937
T3
X3.3611Y-1.299
X3.558Y-1.299
X4.447Y-3.501
X4.447Y-3.6979
X5.35Y-3.0241
X5.35Y-3.1226
X5.35Y-3.221
X5.362Y-2.4241
X5.362Y-2.5226
X5.362Y-2.621
T4
X3.641Y-3.535
X3.841Y-3.535
X4.041Y-3.535
X5.573Y-1.594
X5.573Y-1.794
X5.573Y-1.994
T5
X3.022Y-2.598
X3.022Y-3.098
T6
X2.9941Y-1.2598G85X3.0689Y-1.2598
G05
X2.9941Y-3.6614G85X3.0689Y-3.6614
G05
X5.5925Y-1.2598G85X5.6673Y-1.2598
G05
X5.5925Y-3.6614G85X5.6673Y-3.6614
G05
T0
M30
