G04 #@! TF.GenerationSoftware,KiCad,Pcbnew,(5.0.0)*
G04 #@! TF.CreationDate,2019-09-22T13:37:25+01:00*
G04 #@! TF.ProjectId,Display PSU,446973706C6179205053552E6B696361,rev?*
G04 #@! TF.SameCoordinates,Original*
G04 #@! TF.FileFunction,Legend,Top*
G04 #@! TF.FilePolarity,Positive*
%FSLAX46Y46*%
G04 Gerber Fmt 4.6, Leading zero omitted, Abs format (unit mm)*
G04 Created by KiCad (PCBNEW (5.0.0)) date 09/22/19 13:37:25*
%MOMM*%
%LPD*%
G01*
G04 APERTURE LIST*
%ADD10C,0.300000*%
%ADD11C,0.500000*%
%ADD12C,0.120000*%
%ADD13C,0.150000*%
G04 APERTURE END LIST*
D10*
X277943571Y-61602857D02*
X277943571Y-61460000D01*
X278015000Y-61317142D01*
X278086428Y-61245714D01*
X278229285Y-61174285D01*
X278515000Y-61102857D01*
X278872142Y-61102857D01*
X279157857Y-61174285D01*
X279300714Y-61245714D01*
X279372142Y-61317142D01*
X279443571Y-61460000D01*
X279443571Y-61602857D01*
X279372142Y-61745714D01*
X279300714Y-61817142D01*
X279157857Y-61888571D01*
X278872142Y-61960000D01*
X278515000Y-61960000D01*
X278229285Y-61888571D01*
X278086428Y-61817142D01*
X278015000Y-61745714D01*
X277943571Y-61602857D01*
X278443571Y-60602857D02*
X279443571Y-60245714D01*
X278443571Y-59888571D01*
X278872142Y-68603571D02*
X278872142Y-67460714D01*
X279443571Y-66746428D02*
X277943571Y-66746428D01*
X278657857Y-66746428D02*
X278657857Y-65889285D01*
X279443571Y-65889285D02*
X277943571Y-65889285D01*
X277943571Y-65389285D02*
X277943571Y-64532142D01*
X279443571Y-64960714D02*
X277943571Y-64960714D01*
X278872142Y-57808571D02*
X278872142Y-56665714D01*
X279443571Y-57237142D02*
X278300714Y-57237142D01*
X279443571Y-55951428D02*
X277943571Y-55951428D01*
X278657857Y-55951428D02*
X278657857Y-55094285D01*
X279443571Y-55094285D02*
X277943571Y-55094285D01*
X277943571Y-54594285D02*
X277943571Y-53737142D01*
X279443571Y-54165714D02*
X277943571Y-54165714D01*
X219817142Y-68603571D02*
X219817142Y-67460714D01*
X220388571Y-66746428D02*
X218888571Y-66746428D01*
X219602857Y-66746428D02*
X219602857Y-65889285D01*
X220388571Y-65889285D02*
X218888571Y-65889285D01*
X218888571Y-65389285D02*
X218888571Y-64532142D01*
X220388571Y-64960714D02*
X218888571Y-64960714D01*
X218888571Y-61602857D02*
X218888571Y-61460000D01*
X218960000Y-61317142D01*
X219031428Y-61245714D01*
X219174285Y-61174285D01*
X219460000Y-61102857D01*
X219817142Y-61102857D01*
X220102857Y-61174285D01*
X220245714Y-61245714D01*
X220317142Y-61317142D01*
X220388571Y-61460000D01*
X220388571Y-61602857D01*
X220317142Y-61745714D01*
X220245714Y-61817142D01*
X220102857Y-61888571D01*
X219817142Y-61960000D01*
X219460000Y-61960000D01*
X219174285Y-61888571D01*
X219031428Y-61817142D01*
X218960000Y-61745714D01*
X218888571Y-61602857D01*
X219388571Y-60602857D02*
X220388571Y-60245714D01*
X219388571Y-59888571D01*
X219817142Y-57808571D02*
X219817142Y-56665714D01*
X220388571Y-57237142D02*
X219245714Y-57237142D01*
X220388571Y-55951428D02*
X218888571Y-55951428D01*
X219602857Y-55951428D02*
X219602857Y-55094285D01*
X220388571Y-55094285D02*
X218888571Y-55094285D01*
X218888571Y-54594285D02*
X218888571Y-53737142D01*
X220388571Y-54165714D02*
X218888571Y-54165714D01*
X158222142Y-57808571D02*
X158222142Y-56665714D01*
X158793571Y-57237142D02*
X157650714Y-57237142D01*
X158793571Y-55951428D02*
X157293571Y-55951428D01*
X158007857Y-55951428D02*
X158007857Y-55094285D01*
X158793571Y-55094285D02*
X157293571Y-55094285D01*
X157293571Y-54594285D02*
X157293571Y-53737142D01*
X158793571Y-54165714D02*
X157293571Y-54165714D01*
X158222142Y-68603571D02*
X158222142Y-67460714D01*
X158793571Y-66746428D02*
X157293571Y-66746428D01*
X158007857Y-66746428D02*
X158007857Y-65889285D01*
X158793571Y-65889285D02*
X157293571Y-65889285D01*
X157293571Y-65389285D02*
X157293571Y-64532142D01*
X158793571Y-64960714D02*
X157293571Y-64960714D01*
X157293571Y-61602857D02*
X157293571Y-61460000D01*
X157365000Y-61317142D01*
X157436428Y-61245714D01*
X157579285Y-61174285D01*
X157865000Y-61102857D01*
X158222142Y-61102857D01*
X158507857Y-61174285D01*
X158650714Y-61245714D01*
X158722142Y-61317142D01*
X158793571Y-61460000D01*
X158793571Y-61602857D01*
X158722142Y-61745714D01*
X158650714Y-61817142D01*
X158507857Y-61888571D01*
X158222142Y-61960000D01*
X157865000Y-61960000D01*
X157579285Y-61888571D01*
X157436428Y-61817142D01*
X157365000Y-61745714D01*
X157293571Y-61602857D01*
X157793571Y-60602857D02*
X158793571Y-60245714D01*
X157793571Y-59888571D01*
X29396428Y-54602142D02*
X29396428Y-54745000D01*
X29325000Y-54887857D01*
X29253571Y-54959285D01*
X29110714Y-55030714D01*
X28825000Y-55102142D01*
X28467857Y-55102142D01*
X28182142Y-55030714D01*
X28039285Y-54959285D01*
X27967857Y-54887857D01*
X27896428Y-54745000D01*
X27896428Y-54602142D01*
X27967857Y-54459285D01*
X28039285Y-54387857D01*
X28182142Y-54316428D01*
X28467857Y-54245000D01*
X28825000Y-54245000D01*
X29110714Y-54316428D01*
X29253571Y-54387857D01*
X29325000Y-54459285D01*
X29396428Y-54602142D01*
X28896428Y-55602142D02*
X27896428Y-55959285D01*
X28896428Y-56316428D01*
X94722142Y-68603571D02*
X94722142Y-67460714D01*
X95293571Y-66746428D02*
X93793571Y-66746428D01*
X94507857Y-66746428D02*
X94507857Y-65889285D01*
X95293571Y-65889285D02*
X93793571Y-65889285D01*
X93793571Y-65389285D02*
X93793571Y-64532142D01*
X95293571Y-64960714D02*
X93793571Y-64960714D01*
X94722142Y-57808571D02*
X94722142Y-56665714D01*
X95293571Y-57237142D02*
X94150714Y-57237142D01*
X95293571Y-55951428D02*
X93793571Y-55951428D01*
X94507857Y-55951428D02*
X94507857Y-55094285D01*
X95293571Y-55094285D02*
X93793571Y-55094285D01*
X93793571Y-54594285D02*
X93793571Y-53737142D01*
X95293571Y-54165714D02*
X93793571Y-54165714D01*
X93793571Y-61602857D02*
X93793571Y-61460000D01*
X93865000Y-61317142D01*
X93936428Y-61245714D01*
X94079285Y-61174285D01*
X94365000Y-61102857D01*
X94722142Y-61102857D01*
X95007857Y-61174285D01*
X95150714Y-61245714D01*
X95222142Y-61317142D01*
X95293571Y-61460000D01*
X95293571Y-61602857D01*
X95222142Y-61745714D01*
X95150714Y-61817142D01*
X95007857Y-61888571D01*
X94722142Y-61960000D01*
X94365000Y-61960000D01*
X94079285Y-61888571D01*
X93936428Y-61817142D01*
X93865000Y-61745714D01*
X93793571Y-61602857D01*
X94293571Y-60602857D02*
X95293571Y-60245714D01*
X94293571Y-59888571D01*
X71887857Y-93678571D02*
X71887857Y-92178571D01*
X72745000Y-93678571D01*
X72745000Y-92178571D01*
X74030714Y-93607142D02*
X73887857Y-93678571D01*
X73602142Y-93678571D01*
X73459285Y-93607142D01*
X73387857Y-93464285D01*
X73387857Y-92892857D01*
X73459285Y-92750000D01*
X73602142Y-92678571D01*
X73887857Y-92678571D01*
X74030714Y-92750000D01*
X74102142Y-92892857D01*
X74102142Y-93035714D01*
X73387857Y-93178571D01*
X74959285Y-93678571D02*
X74816428Y-93607142D01*
X74745000Y-93535714D01*
X74673571Y-93392857D01*
X74673571Y-92964285D01*
X74745000Y-92821428D01*
X74816428Y-92750000D01*
X74959285Y-92678571D01*
X75173571Y-92678571D01*
X75316428Y-92750000D01*
X75387857Y-92821428D01*
X75459285Y-92964285D01*
X75459285Y-93392857D01*
X75387857Y-93535714D01*
X75316428Y-93607142D01*
X75173571Y-93678571D01*
X74959285Y-93678571D01*
X76102142Y-92678571D02*
X76102142Y-93678571D01*
X76102142Y-92821428D02*
X76173571Y-92750000D01*
X76316428Y-92678571D01*
X76530714Y-92678571D01*
X76673571Y-92750000D01*
X76745000Y-92892857D01*
X76745000Y-93678571D01*
X78602142Y-93678571D02*
X78602142Y-92178571D01*
X79173571Y-92178571D01*
X79316428Y-92250000D01*
X79387857Y-92321428D01*
X79459285Y-92464285D01*
X79459285Y-92678571D01*
X79387857Y-92821428D01*
X79316428Y-92892857D01*
X79173571Y-92964285D01*
X78602142Y-92964285D01*
X80316428Y-93678571D02*
X80173571Y-93607142D01*
X80102142Y-93535714D01*
X80030714Y-93392857D01*
X80030714Y-92964285D01*
X80102142Y-92821428D01*
X80173571Y-92750000D01*
X80316428Y-92678571D01*
X80530714Y-92678571D01*
X80673571Y-92750000D01*
X80745000Y-92821428D01*
X80816428Y-92964285D01*
X80816428Y-93392857D01*
X80745000Y-93535714D01*
X80673571Y-93607142D01*
X80530714Y-93678571D01*
X80316428Y-93678571D01*
X81316428Y-92678571D02*
X81602142Y-93678571D01*
X81887857Y-92964285D01*
X82173571Y-93678571D01*
X82459285Y-92678571D01*
X83602142Y-93607142D02*
X83459285Y-93678571D01*
X83173571Y-93678571D01*
X83030714Y-93607142D01*
X82959285Y-93464285D01*
X82959285Y-92892857D01*
X83030714Y-92750000D01*
X83173571Y-92678571D01*
X83459285Y-92678571D01*
X83602142Y-92750000D01*
X83673571Y-92892857D01*
X83673571Y-93035714D01*
X82959285Y-93178571D01*
X84316428Y-93678571D02*
X84316428Y-92678571D01*
X84316428Y-92964285D02*
X84387857Y-92821428D01*
X84459285Y-92750000D01*
X84602142Y-92678571D01*
X84745000Y-92678571D01*
X86316428Y-93607142D02*
X86530714Y-93678571D01*
X86887857Y-93678571D01*
X87030714Y-93607142D01*
X87102142Y-93535714D01*
X87173571Y-93392857D01*
X87173571Y-93250000D01*
X87102142Y-93107142D01*
X87030714Y-93035714D01*
X86887857Y-92964285D01*
X86602142Y-92892857D01*
X86459285Y-92821428D01*
X86387857Y-92750000D01*
X86316428Y-92607142D01*
X86316428Y-92464285D01*
X86387857Y-92321428D01*
X86459285Y-92250000D01*
X86602142Y-92178571D01*
X86959285Y-92178571D01*
X87173571Y-92250000D01*
X88459285Y-92678571D02*
X88459285Y-93678571D01*
X87816428Y-92678571D02*
X87816428Y-93464285D01*
X87887857Y-93607142D01*
X88030714Y-93678571D01*
X88245000Y-93678571D01*
X88387857Y-93607142D01*
X88459285Y-93535714D01*
X89173571Y-92678571D02*
X89173571Y-94178571D01*
X89173571Y-92750000D02*
X89316428Y-92678571D01*
X89602142Y-92678571D01*
X89745000Y-92750000D01*
X89816428Y-92821428D01*
X89887857Y-92964285D01*
X89887857Y-93392857D01*
X89816428Y-93535714D01*
X89745000Y-93607142D01*
X89602142Y-93678571D01*
X89316428Y-93678571D01*
X89173571Y-93607142D01*
X90530714Y-92678571D02*
X90530714Y-94178571D01*
X90530714Y-92750000D02*
X90673571Y-92678571D01*
X90959285Y-92678571D01*
X91102142Y-92750000D01*
X91173571Y-92821428D01*
X91245000Y-92964285D01*
X91245000Y-93392857D01*
X91173571Y-93535714D01*
X91102142Y-93607142D01*
X90959285Y-93678571D01*
X90673571Y-93678571D01*
X90530714Y-93607142D01*
X92102142Y-93678571D02*
X91959285Y-93607142D01*
X91887857Y-93464285D01*
X91887857Y-92178571D01*
X92530714Y-92678571D02*
X92887857Y-93678571D01*
X93245000Y-92678571D02*
X92887857Y-93678571D01*
X92745000Y-94035714D01*
X92673571Y-94107142D01*
X92530714Y-94178571D01*
X29396428Y-59607142D02*
X29396428Y-59750000D01*
X29325000Y-59892857D01*
X29253571Y-59964285D01*
X29110714Y-60035714D01*
X28825000Y-60107142D01*
X28467857Y-60107142D01*
X28182142Y-60035714D01*
X28039285Y-59964285D01*
X27967857Y-59892857D01*
X27896428Y-59750000D01*
X27896428Y-59607142D01*
X27967857Y-59464285D01*
X28039285Y-59392857D01*
X28182142Y-59321428D01*
X28467857Y-59250000D01*
X28825000Y-59250000D01*
X29110714Y-59321428D01*
X29253571Y-59392857D01*
X29325000Y-59464285D01*
X29396428Y-59607142D01*
X28896428Y-60607142D02*
X27896428Y-60964285D01*
X28896428Y-61321428D01*
X28467857Y-63547857D02*
X28467857Y-64690714D01*
X27896428Y-64119285D02*
X29039285Y-64119285D01*
X29396428Y-66047857D02*
X29396428Y-65762142D01*
X29325000Y-65619285D01*
X29253571Y-65547857D01*
X29039285Y-65405000D01*
X28753571Y-65333571D01*
X28182142Y-65333571D01*
X28039285Y-65405000D01*
X27967857Y-65476428D01*
X27896428Y-65619285D01*
X27896428Y-65905000D01*
X27967857Y-66047857D01*
X28039285Y-66119285D01*
X28182142Y-66190714D01*
X28539285Y-66190714D01*
X28682142Y-66119285D01*
X28753571Y-66047857D01*
X28825000Y-65905000D01*
X28825000Y-65619285D01*
X28753571Y-65476428D01*
X28682142Y-65405000D01*
X28539285Y-65333571D01*
X28896428Y-66690714D02*
X27896428Y-67047857D01*
X28896428Y-67405000D01*
D11*
G04 #@! TO.C,U1*
X43815000Y-58420000D02*
X43815000Y-38100000D01*
X76835000Y-58420000D02*
X43815000Y-58420000D01*
X76835000Y-38100000D02*
X76835000Y-58420000D01*
X43815000Y-38100000D02*
X76835000Y-38100000D01*
G04 #@! TO.C,U2*
X43815000Y-83820000D02*
X43815000Y-63500000D01*
X76835000Y-83820000D02*
X43815000Y-83820000D01*
X76835000Y-63500000D02*
X76835000Y-83820000D01*
X43815000Y-63500000D02*
X76835000Y-63500000D01*
D12*
G04 #@! TO.C,RV1*
X69116000Y-87240000D02*
X69116000Y-91177000D01*
X69116000Y-95544000D02*
X69116000Y-99480000D01*
X59075000Y-87240000D02*
X59075000Y-91177000D01*
X59075000Y-95544000D02*
X59075000Y-99480000D01*
X69116000Y-87240000D02*
X67466000Y-87240000D01*
X65724000Y-87240000D02*
X64965000Y-87240000D01*
X63224000Y-87240000D02*
X62465000Y-87240000D01*
X60725000Y-87240000D02*
X59075000Y-87240000D01*
X69116000Y-99480000D02*
X59075000Y-99480000D01*
G04 #@! TO.C,C2*
X83380000Y-36980000D02*
X83380000Y-34140000D01*
X83380000Y-34140000D02*
X79340000Y-34140000D01*
X79340000Y-34140000D02*
X79340000Y-36980000D01*
X79340000Y-36980000D02*
X83380000Y-36980000D01*
X85320000Y-35560000D02*
X83380000Y-35560000D01*
X77400000Y-35560000D02*
X79340000Y-35560000D01*
G04 #@! TO.C,C4*
X77400000Y-86360000D02*
X79340000Y-86360000D01*
X85320000Y-86360000D02*
X83380000Y-86360000D01*
X79340000Y-87780000D02*
X83380000Y-87780000D01*
X79340000Y-84940000D02*
X79340000Y-87780000D01*
X83380000Y-84940000D02*
X79340000Y-84940000D01*
X83380000Y-87780000D02*
X83380000Y-84940000D01*
G04 #@! TO.C,J1*
X39010000Y-55880000D02*
G75*
G03X39010000Y-55880000I-2180000J0D01*
G01*
X39010000Y-60960000D02*
G75*
G03X39010000Y-60960000I-2180000J0D01*
G01*
X39010000Y-66040000D02*
G75*
G03X39010000Y-66040000I-2180000J0D01*
G01*
X32030000Y-53280000D02*
X32030000Y-68640000D01*
X34530000Y-53280000D02*
X34530000Y-68640000D01*
X40730000Y-53280000D02*
X40730000Y-68640000D01*
X42790000Y-53280000D02*
X42790000Y-68640000D01*
X31470000Y-53280000D02*
X31470000Y-68640000D01*
X42790000Y-53280000D02*
X31470000Y-53280000D01*
X42790000Y-68640000D02*
X31470000Y-68640000D01*
X38218000Y-57534000D02*
X38111000Y-57427000D01*
X35283000Y-54598000D02*
X35176000Y-54492000D01*
X38484000Y-57268000D02*
X38377000Y-57161000D01*
X35549000Y-54332000D02*
X35442000Y-54226000D01*
X38218000Y-62614000D02*
X37822000Y-62219000D01*
X35556000Y-59953000D02*
X35176000Y-59573000D01*
X38484000Y-62348000D02*
X38104000Y-61968000D01*
X35838000Y-59702000D02*
X35442000Y-59307000D01*
X38218000Y-67694000D02*
X37822000Y-67299000D01*
X35556000Y-65033000D02*
X35176000Y-64653000D01*
X38484000Y-67428000D02*
X38104000Y-67048000D01*
X35838000Y-64782000D02*
X35442000Y-64387000D01*
X31970000Y-53040000D02*
X31230000Y-53040000D01*
X31230000Y-53040000D02*
X31230000Y-53540000D01*
G04 #@! TO.C,J2*
X92595000Y-68880000D02*
X92595000Y-68380000D01*
X91855000Y-68880000D02*
X92595000Y-68880000D01*
X87987000Y-57138000D02*
X88383000Y-57533000D01*
X85341000Y-54492000D02*
X85721000Y-54872000D01*
X88269000Y-56887000D02*
X88649000Y-57267000D01*
X85607000Y-54226000D02*
X86003000Y-54621000D01*
X87987000Y-62218000D02*
X88383000Y-62613000D01*
X85341000Y-59572000D02*
X85721000Y-59952000D01*
X88269000Y-61967000D02*
X88649000Y-62347000D01*
X85607000Y-59306000D02*
X86003000Y-59701000D01*
X88276000Y-67588000D02*
X88383000Y-67694000D01*
X85341000Y-64652000D02*
X85448000Y-64759000D01*
X88542000Y-67322000D02*
X88649000Y-67428000D01*
X85607000Y-64386000D02*
X85714000Y-64493000D01*
X81035000Y-53280000D02*
X92355000Y-53280000D01*
X81035000Y-68640000D02*
X92355000Y-68640000D01*
X92355000Y-68640000D02*
X92355000Y-53280000D01*
X81035000Y-68640000D02*
X81035000Y-53280000D01*
X83095000Y-68640000D02*
X83095000Y-53280000D01*
X89295000Y-68640000D02*
X89295000Y-53280000D01*
X91795000Y-68640000D02*
X91795000Y-53280000D01*
X89175000Y-55880000D02*
G75*
G03X89175000Y-55880000I-2180000J0D01*
G01*
X89175000Y-60960000D02*
G75*
G03X89175000Y-60960000I-2180000J0D01*
G01*
X89175000Y-66040000D02*
G75*
G03X89175000Y-66040000I-2180000J0D01*
G01*
G04 #@! TO.C,C1*
X39450000Y-39270000D02*
X39450000Y-47010000D01*
X34210000Y-39270000D02*
X34210000Y-47010000D01*
X39450000Y-39270000D02*
X34210000Y-39270000D01*
X39450000Y-47010000D02*
X34210000Y-47010000D01*
G04 #@! TO.C,C3*
X39450000Y-82570000D02*
X34210000Y-82570000D01*
X39450000Y-74830000D02*
X34210000Y-74830000D01*
X34210000Y-74830000D02*
X34210000Y-82570000D01*
X39450000Y-74830000D02*
X39450000Y-82570000D01*
G04 #@! TO.C,RV2*
X59154000Y-34680000D02*
X59154000Y-30743000D01*
X59154000Y-26376000D02*
X59154000Y-22440000D01*
X69195000Y-34680000D02*
X69195000Y-30743000D01*
X69195000Y-26376000D02*
X69195000Y-22440000D01*
X59154000Y-34680000D02*
X60804000Y-34680000D01*
X62546000Y-34680000D02*
X63305000Y-34680000D01*
X65046000Y-34680000D02*
X65805000Y-34680000D01*
X67545000Y-34680000D02*
X69195000Y-34680000D01*
X59154000Y-22440000D02*
X69195000Y-22440000D01*
G04 #@! TO.C,C5*
X102950000Y-39270000D02*
X102950000Y-47010000D01*
X97710000Y-39270000D02*
X97710000Y-47010000D01*
X102950000Y-39270000D02*
X97710000Y-39270000D01*
X102950000Y-47010000D02*
X97710000Y-47010000D01*
G04 #@! TO.C,C6*
X141535000Y-35560000D02*
X143475000Y-35560000D01*
X149455000Y-35560000D02*
X147515000Y-35560000D01*
X143475000Y-36980000D02*
X147515000Y-36980000D01*
X143475000Y-34140000D02*
X143475000Y-36980000D01*
X147515000Y-34140000D02*
X143475000Y-34140000D01*
X147515000Y-36980000D02*
X147515000Y-34140000D01*
G04 #@! TO.C,C7*
X103585000Y-82570000D02*
X98345000Y-82570000D01*
X103585000Y-74830000D02*
X98345000Y-74830000D01*
X98345000Y-74830000D02*
X98345000Y-82570000D01*
X103585000Y-74830000D02*
X103585000Y-82570000D01*
G04 #@! TO.C,C8*
X147515000Y-87780000D02*
X147515000Y-84940000D01*
X147515000Y-84940000D02*
X143475000Y-84940000D01*
X143475000Y-84940000D02*
X143475000Y-87780000D01*
X143475000Y-87780000D02*
X147515000Y-87780000D01*
X149455000Y-86360000D02*
X147515000Y-86360000D01*
X141535000Y-86360000D02*
X143475000Y-86360000D01*
G04 #@! TO.C,C9*
X164545000Y-47010000D02*
X159305000Y-47010000D01*
X164545000Y-39270000D02*
X159305000Y-39270000D01*
X159305000Y-39270000D02*
X159305000Y-47010000D01*
X164545000Y-39270000D02*
X164545000Y-47010000D01*
G04 #@! TO.C,C10*
X209110000Y-36980000D02*
X209110000Y-34140000D01*
X209110000Y-34140000D02*
X205070000Y-34140000D01*
X205070000Y-34140000D02*
X205070000Y-36980000D01*
X205070000Y-36980000D02*
X209110000Y-36980000D01*
X211050000Y-35560000D02*
X209110000Y-35560000D01*
X203130000Y-35560000D02*
X205070000Y-35560000D01*
G04 #@! TO.C,C11*
X164545000Y-74830000D02*
X164545000Y-82570000D01*
X159305000Y-74830000D02*
X159305000Y-82570000D01*
X164545000Y-74830000D02*
X159305000Y-74830000D01*
X164545000Y-82570000D02*
X159305000Y-82570000D01*
G04 #@! TO.C,C12*
X203130000Y-86360000D02*
X205070000Y-86360000D01*
X211050000Y-86360000D02*
X209110000Y-86360000D01*
X205070000Y-87780000D02*
X209110000Y-87780000D01*
X205070000Y-84940000D02*
X205070000Y-87780000D01*
X209110000Y-84940000D02*
X205070000Y-84940000D01*
X209110000Y-87780000D02*
X209110000Y-84940000D01*
G04 #@! TO.C,C13*
X223600000Y-39270000D02*
X223600000Y-47010000D01*
X218360000Y-39270000D02*
X218360000Y-47010000D01*
X223600000Y-39270000D02*
X218360000Y-39270000D01*
X223600000Y-47010000D02*
X218360000Y-47010000D01*
G04 #@! TO.C,C14*
X262185000Y-35560000D02*
X264125000Y-35560000D01*
X270105000Y-35560000D02*
X268165000Y-35560000D01*
X264125000Y-36980000D02*
X268165000Y-36980000D01*
X264125000Y-34140000D02*
X264125000Y-36980000D01*
X268165000Y-34140000D02*
X264125000Y-34140000D01*
X268165000Y-36980000D02*
X268165000Y-34140000D01*
G04 #@! TO.C,C15*
X223600000Y-82570000D02*
X218360000Y-82570000D01*
X223600000Y-74830000D02*
X218360000Y-74830000D01*
X218360000Y-74830000D02*
X218360000Y-82570000D01*
X223600000Y-74830000D02*
X223600000Y-82570000D01*
G04 #@! TO.C,C16*
X268165000Y-87780000D02*
X268165000Y-84940000D01*
X268165000Y-84940000D02*
X264125000Y-84940000D01*
X264125000Y-84940000D02*
X264125000Y-87780000D01*
X264125000Y-87780000D02*
X268165000Y-87780000D01*
X270105000Y-86360000D02*
X268165000Y-86360000D01*
X262185000Y-86360000D02*
X264125000Y-86360000D01*
G04 #@! TO.C,J3*
X152675000Y-66040000D02*
G75*
G03X152675000Y-66040000I-2180000J0D01*
G01*
X152675000Y-60960000D02*
G75*
G03X152675000Y-60960000I-2180000J0D01*
G01*
X152675000Y-55880000D02*
G75*
G03X152675000Y-55880000I-2180000J0D01*
G01*
X155295000Y-68640000D02*
X155295000Y-53280000D01*
X152795000Y-68640000D02*
X152795000Y-53280000D01*
X146595000Y-68640000D02*
X146595000Y-53280000D01*
X144535000Y-68640000D02*
X144535000Y-53280000D01*
X155855000Y-68640000D02*
X155855000Y-53280000D01*
X144535000Y-68640000D02*
X155855000Y-68640000D01*
X144535000Y-53280000D02*
X155855000Y-53280000D01*
X149107000Y-64386000D02*
X149214000Y-64493000D01*
X152042000Y-67322000D02*
X152149000Y-67428000D01*
X148841000Y-64652000D02*
X148948000Y-64759000D01*
X151776000Y-67588000D02*
X151883000Y-67694000D01*
X149107000Y-59306000D02*
X149503000Y-59701000D01*
X151769000Y-61967000D02*
X152149000Y-62347000D01*
X148841000Y-59572000D02*
X149221000Y-59952000D01*
X151487000Y-62218000D02*
X151883000Y-62613000D01*
X149107000Y-54226000D02*
X149503000Y-54621000D01*
X151769000Y-56887000D02*
X152149000Y-57267000D01*
X148841000Y-54492000D02*
X149221000Y-54872000D01*
X151487000Y-57138000D02*
X151883000Y-57533000D01*
X155355000Y-68880000D02*
X156095000Y-68880000D01*
X156095000Y-68880000D02*
X156095000Y-68380000D01*
G04 #@! TO.C,J4*
X217690000Y-68880000D02*
X217690000Y-68380000D01*
X216950000Y-68880000D02*
X217690000Y-68880000D01*
X213082000Y-57138000D02*
X213478000Y-57533000D01*
X210436000Y-54492000D02*
X210816000Y-54872000D01*
X213364000Y-56887000D02*
X213744000Y-57267000D01*
X210702000Y-54226000D02*
X211098000Y-54621000D01*
X213082000Y-62218000D02*
X213478000Y-62613000D01*
X210436000Y-59572000D02*
X210816000Y-59952000D01*
X213364000Y-61967000D02*
X213744000Y-62347000D01*
X210702000Y-59306000D02*
X211098000Y-59701000D01*
X213371000Y-67588000D02*
X213478000Y-67694000D01*
X210436000Y-64652000D02*
X210543000Y-64759000D01*
X213637000Y-67322000D02*
X213744000Y-67428000D01*
X210702000Y-64386000D02*
X210809000Y-64493000D01*
X206130000Y-53280000D02*
X217450000Y-53280000D01*
X206130000Y-68640000D02*
X217450000Y-68640000D01*
X217450000Y-68640000D02*
X217450000Y-53280000D01*
X206130000Y-68640000D02*
X206130000Y-53280000D01*
X208190000Y-68640000D02*
X208190000Y-53280000D01*
X214390000Y-68640000D02*
X214390000Y-53280000D01*
X216890000Y-68640000D02*
X216890000Y-53280000D01*
X214270000Y-55880000D02*
G75*
G03X214270000Y-55880000I-2180000J0D01*
G01*
X214270000Y-60960000D02*
G75*
G03X214270000Y-60960000I-2180000J0D01*
G01*
X214270000Y-66040000D02*
G75*
G03X214270000Y-66040000I-2180000J0D01*
G01*
G04 #@! TO.C,J5*
X273325000Y-66040000D02*
G75*
G03X273325000Y-66040000I-2180000J0D01*
G01*
X273325000Y-60960000D02*
G75*
G03X273325000Y-60960000I-2180000J0D01*
G01*
X273325000Y-55880000D02*
G75*
G03X273325000Y-55880000I-2180000J0D01*
G01*
X275945000Y-68640000D02*
X275945000Y-53280000D01*
X273445000Y-68640000D02*
X273445000Y-53280000D01*
X267245000Y-68640000D02*
X267245000Y-53280000D01*
X265185000Y-68640000D02*
X265185000Y-53280000D01*
X276505000Y-68640000D02*
X276505000Y-53280000D01*
X265185000Y-68640000D02*
X276505000Y-68640000D01*
X265185000Y-53280000D02*
X276505000Y-53280000D01*
X269757000Y-64386000D02*
X269864000Y-64493000D01*
X272692000Y-67322000D02*
X272799000Y-67428000D01*
X269491000Y-64652000D02*
X269598000Y-64759000D01*
X272426000Y-67588000D02*
X272533000Y-67694000D01*
X269757000Y-59306000D02*
X270153000Y-59701000D01*
X272419000Y-61967000D02*
X272799000Y-62347000D01*
X269491000Y-59572000D02*
X269871000Y-59952000D01*
X272137000Y-62218000D02*
X272533000Y-62613000D01*
X269757000Y-54226000D02*
X270153000Y-54621000D01*
X272419000Y-56887000D02*
X272799000Y-57267000D01*
X269491000Y-54492000D02*
X269871000Y-54872000D01*
X272137000Y-57138000D02*
X272533000Y-57533000D01*
X276005000Y-68880000D02*
X276745000Y-68880000D01*
X276745000Y-68880000D02*
X276745000Y-68380000D01*
G04 #@! TO.C,RV3*
X132616000Y-99480000D02*
X122575000Y-99480000D01*
X124225000Y-87240000D02*
X122575000Y-87240000D01*
X126724000Y-87240000D02*
X125965000Y-87240000D01*
X129224000Y-87240000D02*
X128465000Y-87240000D01*
X132616000Y-87240000D02*
X130966000Y-87240000D01*
X122575000Y-95544000D02*
X122575000Y-99480000D01*
X122575000Y-87240000D02*
X122575000Y-91177000D01*
X132616000Y-95544000D02*
X132616000Y-99480000D01*
X132616000Y-87240000D02*
X132616000Y-91177000D01*
G04 #@! TO.C,RV4*
X122654000Y-34680000D02*
X122654000Y-30743000D01*
X122654000Y-26376000D02*
X122654000Y-22440000D01*
X132695000Y-34680000D02*
X132695000Y-30743000D01*
X132695000Y-26376000D02*
X132695000Y-22440000D01*
X122654000Y-34680000D02*
X124304000Y-34680000D01*
X126046000Y-34680000D02*
X126805000Y-34680000D01*
X128546000Y-34680000D02*
X129305000Y-34680000D01*
X131045000Y-34680000D02*
X132695000Y-34680000D01*
X122654000Y-22440000D02*
X132695000Y-22440000D01*
G04 #@! TO.C,RV5*
X194211000Y-87240000D02*
X194211000Y-91177000D01*
X194211000Y-95544000D02*
X194211000Y-99480000D01*
X184170000Y-87240000D02*
X184170000Y-91177000D01*
X184170000Y-95544000D02*
X184170000Y-99480000D01*
X194211000Y-87240000D02*
X192561000Y-87240000D01*
X190819000Y-87240000D02*
X190060000Y-87240000D01*
X188319000Y-87240000D02*
X187560000Y-87240000D01*
X185820000Y-87240000D02*
X184170000Y-87240000D01*
X194211000Y-99480000D02*
X184170000Y-99480000D01*
G04 #@! TO.C,RV6*
X184249000Y-22440000D02*
X194290000Y-22440000D01*
X192640000Y-34680000D02*
X194290000Y-34680000D01*
X190141000Y-34680000D02*
X190900000Y-34680000D01*
X187641000Y-34680000D02*
X188400000Y-34680000D01*
X184249000Y-34680000D02*
X185899000Y-34680000D01*
X194290000Y-26376000D02*
X194290000Y-22440000D01*
X194290000Y-34680000D02*
X194290000Y-30743000D01*
X184249000Y-26376000D02*
X184249000Y-22440000D01*
X184249000Y-34680000D02*
X184249000Y-30743000D01*
G04 #@! TO.C,RV7*
X253266000Y-87240000D02*
X253266000Y-91177000D01*
X253266000Y-95544000D02*
X253266000Y-99480000D01*
X243225000Y-87240000D02*
X243225000Y-91177000D01*
X243225000Y-95544000D02*
X243225000Y-99480000D01*
X253266000Y-87240000D02*
X251616000Y-87240000D01*
X249874000Y-87240000D02*
X249115000Y-87240000D01*
X247374000Y-87240000D02*
X246615000Y-87240000D01*
X244875000Y-87240000D02*
X243225000Y-87240000D01*
X253266000Y-99480000D02*
X243225000Y-99480000D01*
G04 #@! TO.C,RV8*
X243304000Y-22440000D02*
X253345000Y-22440000D01*
X251695000Y-34680000D02*
X253345000Y-34680000D01*
X249196000Y-34680000D02*
X249955000Y-34680000D01*
X246696000Y-34680000D02*
X247455000Y-34680000D01*
X243304000Y-34680000D02*
X244954000Y-34680000D01*
X253345000Y-26376000D02*
X253345000Y-22440000D01*
X253345000Y-34680000D02*
X253345000Y-30743000D01*
X243304000Y-26376000D02*
X243304000Y-22440000D01*
X243304000Y-34680000D02*
X243304000Y-30743000D01*
D11*
G04 #@! TO.C,U3*
X107315000Y-38100000D02*
X140335000Y-38100000D01*
X140335000Y-38100000D02*
X140335000Y-58420000D01*
X140335000Y-58420000D02*
X107315000Y-58420000D01*
X107315000Y-58420000D02*
X107315000Y-38100000D01*
G04 #@! TO.C,U4*
X107315000Y-83820000D02*
X107315000Y-63500000D01*
X140335000Y-83820000D02*
X107315000Y-83820000D01*
X140335000Y-63500000D02*
X140335000Y-83820000D01*
X107315000Y-63500000D02*
X140335000Y-63500000D01*
G04 #@! TO.C,U5*
X168910000Y-58420000D02*
X168910000Y-38100000D01*
X201930000Y-58420000D02*
X168910000Y-58420000D01*
X201930000Y-38100000D02*
X201930000Y-58420000D01*
X168910000Y-38100000D02*
X201930000Y-38100000D01*
G04 #@! TO.C,U6*
X168910000Y-63500000D02*
X201930000Y-63500000D01*
X201930000Y-63500000D02*
X201930000Y-83820000D01*
X201930000Y-83820000D02*
X168910000Y-83820000D01*
X168910000Y-83820000D02*
X168910000Y-63500000D01*
G04 #@! TO.C,U7*
X227965000Y-58420000D02*
X227965000Y-38100000D01*
X260985000Y-58420000D02*
X227965000Y-58420000D01*
X260985000Y-38100000D02*
X260985000Y-58420000D01*
X227965000Y-38100000D02*
X260985000Y-38100000D01*
G04 #@! TO.C,U8*
X227965000Y-63500000D02*
X260985000Y-63500000D01*
X260985000Y-63500000D02*
X260985000Y-83820000D01*
X260985000Y-83820000D02*
X227965000Y-83820000D01*
X227965000Y-83820000D02*
X227965000Y-63500000D01*
G04 #@! TO.C,U1*
D13*
X60833095Y-48212380D02*
X60833095Y-49021904D01*
X60880714Y-49117142D01*
X60928333Y-49164761D01*
X61023571Y-49212380D01*
X61214047Y-49212380D01*
X61309285Y-49164761D01*
X61356904Y-49117142D01*
X61404523Y-49021904D01*
X61404523Y-48212380D01*
X62404523Y-49212380D02*
X61833095Y-49212380D01*
X62118809Y-49212380D02*
X62118809Y-48212380D01*
X62023571Y-48355238D01*
X61928333Y-48450476D01*
X61833095Y-48498095D01*
G04 #@! TO.C,U2*
X60833095Y-73612380D02*
X60833095Y-74421904D01*
X60880714Y-74517142D01*
X60928333Y-74564761D01*
X61023571Y-74612380D01*
X61214047Y-74612380D01*
X61309285Y-74564761D01*
X61356904Y-74517142D01*
X61404523Y-74421904D01*
X61404523Y-73612380D01*
X61833095Y-73707619D02*
X61880714Y-73660000D01*
X61975952Y-73612380D01*
X62214047Y-73612380D01*
X62309285Y-73660000D01*
X62356904Y-73707619D01*
X62404523Y-73802857D01*
X62404523Y-73898095D01*
X62356904Y-74040952D01*
X61785476Y-74612380D01*
X62404523Y-74612380D01*
G04 #@! TO.C,RV1*
X72197380Y-93005238D02*
X71721190Y-93338571D01*
X72197380Y-93576666D02*
X71197380Y-93576666D01*
X71197380Y-93195714D01*
X71245000Y-93100476D01*
X71292619Y-93052857D01*
X71387857Y-93005238D01*
X71530714Y-93005238D01*
X71625952Y-93052857D01*
X71673571Y-93100476D01*
X71721190Y-93195714D01*
X71721190Y-93576666D01*
X71197380Y-92719523D02*
X72197380Y-92386190D01*
X71197380Y-92052857D01*
X72197380Y-91195714D02*
X72197380Y-91767142D01*
X72197380Y-91481428D02*
X71197380Y-91481428D01*
X71340238Y-91576666D01*
X71435476Y-91671904D01*
X71483095Y-91767142D01*
G04 #@! TO.C,C2*
X81193333Y-38337142D02*
X81145714Y-38384761D01*
X81002857Y-38432380D01*
X80907619Y-38432380D01*
X80764761Y-38384761D01*
X80669523Y-38289523D01*
X80621904Y-38194285D01*
X80574285Y-38003809D01*
X80574285Y-37860952D01*
X80621904Y-37670476D01*
X80669523Y-37575238D01*
X80764761Y-37480000D01*
X80907619Y-37432380D01*
X81002857Y-37432380D01*
X81145714Y-37480000D01*
X81193333Y-37527619D01*
X81574285Y-37527619D02*
X81621904Y-37480000D01*
X81717142Y-37432380D01*
X81955238Y-37432380D01*
X82050476Y-37480000D01*
X82098095Y-37527619D01*
X82145714Y-37622857D01*
X82145714Y-37718095D01*
X82098095Y-37860952D01*
X81526666Y-38432380D01*
X82145714Y-38432380D01*
G04 #@! TO.C,C4*
X81193333Y-89137142D02*
X81145714Y-89184761D01*
X81002857Y-89232380D01*
X80907619Y-89232380D01*
X80764761Y-89184761D01*
X80669523Y-89089523D01*
X80621904Y-88994285D01*
X80574285Y-88803809D01*
X80574285Y-88660952D01*
X80621904Y-88470476D01*
X80669523Y-88375238D01*
X80764761Y-88280000D01*
X80907619Y-88232380D01*
X81002857Y-88232380D01*
X81145714Y-88280000D01*
X81193333Y-88327619D01*
X82050476Y-88565714D02*
X82050476Y-89232380D01*
X81812380Y-88184761D02*
X81574285Y-88899047D01*
X82193333Y-88899047D01*
G04 #@! TO.C,J1*
X31913580Y-51920733D02*
X32627866Y-51920733D01*
X32770723Y-51968352D01*
X32865961Y-52063590D01*
X32913580Y-52206447D01*
X32913580Y-52301685D01*
X32913580Y-50920733D02*
X32913580Y-51492161D01*
X32913580Y-51206447D02*
X31913580Y-51206447D01*
X32056438Y-51301685D01*
X32151676Y-51396923D01*
X32199295Y-51492161D01*
G04 #@! TO.C,J2*
X79487380Y-61293333D02*
X80201666Y-61293333D01*
X80344523Y-61340952D01*
X80439761Y-61436190D01*
X80487380Y-61579047D01*
X80487380Y-61674285D01*
X79582619Y-60864761D02*
X79535000Y-60817142D01*
X79487380Y-60721904D01*
X79487380Y-60483809D01*
X79535000Y-60388571D01*
X79582619Y-60340952D01*
X79677857Y-60293333D01*
X79773095Y-60293333D01*
X79915952Y-60340952D01*
X80487380Y-60912380D01*
X80487380Y-60293333D01*
G04 #@! TO.C,C1*
X40937142Y-43306666D02*
X40984761Y-43354285D01*
X41032380Y-43497142D01*
X41032380Y-43592380D01*
X40984761Y-43735238D01*
X40889523Y-43830476D01*
X40794285Y-43878095D01*
X40603809Y-43925714D01*
X40460952Y-43925714D01*
X40270476Y-43878095D01*
X40175238Y-43830476D01*
X40080000Y-43735238D01*
X40032380Y-43592380D01*
X40032380Y-43497142D01*
X40080000Y-43354285D01*
X40127619Y-43306666D01*
X41032380Y-42354285D02*
X41032380Y-42925714D01*
X41032380Y-42640000D02*
X40032380Y-42640000D01*
X40175238Y-42735238D01*
X40270476Y-42830476D01*
X40318095Y-42925714D01*
G04 #@! TO.C,C3*
X40937142Y-78866666D02*
X40984761Y-78914285D01*
X41032380Y-79057142D01*
X41032380Y-79152380D01*
X40984761Y-79295238D01*
X40889523Y-79390476D01*
X40794285Y-79438095D01*
X40603809Y-79485714D01*
X40460952Y-79485714D01*
X40270476Y-79438095D01*
X40175238Y-79390476D01*
X40080000Y-79295238D01*
X40032380Y-79152380D01*
X40032380Y-79057142D01*
X40080000Y-78914285D01*
X40127619Y-78866666D01*
X40032380Y-78533333D02*
X40032380Y-77914285D01*
X40413333Y-78247619D01*
X40413333Y-78104761D01*
X40460952Y-78009523D01*
X40508571Y-77961904D01*
X40603809Y-77914285D01*
X40841904Y-77914285D01*
X40937142Y-77961904D01*
X40984761Y-78009523D01*
X41032380Y-78104761D01*
X41032380Y-78390476D01*
X40984761Y-78485714D01*
X40937142Y-78533333D01*
G04 #@! TO.C,RV2*
X56977380Y-30105238D02*
X56501190Y-30438571D01*
X56977380Y-30676666D02*
X55977380Y-30676666D01*
X55977380Y-30295714D01*
X56025000Y-30200476D01*
X56072619Y-30152857D01*
X56167857Y-30105238D01*
X56310714Y-30105238D01*
X56405952Y-30152857D01*
X56453571Y-30200476D01*
X56501190Y-30295714D01*
X56501190Y-30676666D01*
X55977380Y-29819523D02*
X56977380Y-29486190D01*
X55977380Y-29152857D01*
X56072619Y-28867142D02*
X56025000Y-28819523D01*
X55977380Y-28724285D01*
X55977380Y-28486190D01*
X56025000Y-28390952D01*
X56072619Y-28343333D01*
X56167857Y-28295714D01*
X56263095Y-28295714D01*
X56405952Y-28343333D01*
X56977380Y-28914761D01*
X56977380Y-28295714D01*
G04 #@! TO.C,C5*
X104437142Y-43306666D02*
X104484761Y-43354285D01*
X104532380Y-43497142D01*
X104532380Y-43592380D01*
X104484761Y-43735238D01*
X104389523Y-43830476D01*
X104294285Y-43878095D01*
X104103809Y-43925714D01*
X103960952Y-43925714D01*
X103770476Y-43878095D01*
X103675238Y-43830476D01*
X103580000Y-43735238D01*
X103532380Y-43592380D01*
X103532380Y-43497142D01*
X103580000Y-43354285D01*
X103627619Y-43306666D01*
X103532380Y-42401904D02*
X103532380Y-42878095D01*
X104008571Y-42925714D01*
X103960952Y-42878095D01*
X103913333Y-42782857D01*
X103913333Y-42544761D01*
X103960952Y-42449523D01*
X104008571Y-42401904D01*
X104103809Y-42354285D01*
X104341904Y-42354285D01*
X104437142Y-42401904D01*
X104484761Y-42449523D01*
X104532380Y-42544761D01*
X104532380Y-42782857D01*
X104484761Y-42878095D01*
X104437142Y-42925714D01*
G04 #@! TO.C,C6*
X145328333Y-38337142D02*
X145280714Y-38384761D01*
X145137857Y-38432380D01*
X145042619Y-38432380D01*
X144899761Y-38384761D01*
X144804523Y-38289523D01*
X144756904Y-38194285D01*
X144709285Y-38003809D01*
X144709285Y-37860952D01*
X144756904Y-37670476D01*
X144804523Y-37575238D01*
X144899761Y-37480000D01*
X145042619Y-37432380D01*
X145137857Y-37432380D01*
X145280714Y-37480000D01*
X145328333Y-37527619D01*
X146185476Y-37432380D02*
X145995000Y-37432380D01*
X145899761Y-37480000D01*
X145852142Y-37527619D01*
X145756904Y-37670476D01*
X145709285Y-37860952D01*
X145709285Y-38241904D01*
X145756904Y-38337142D01*
X145804523Y-38384761D01*
X145899761Y-38432380D01*
X146090238Y-38432380D01*
X146185476Y-38384761D01*
X146233095Y-38337142D01*
X146280714Y-38241904D01*
X146280714Y-38003809D01*
X146233095Y-37908571D01*
X146185476Y-37860952D01*
X146090238Y-37813333D01*
X145899761Y-37813333D01*
X145804523Y-37860952D01*
X145756904Y-37908571D01*
X145709285Y-38003809D01*
G04 #@! TO.C,C7*
X105072142Y-78866666D02*
X105119761Y-78914285D01*
X105167380Y-79057142D01*
X105167380Y-79152380D01*
X105119761Y-79295238D01*
X105024523Y-79390476D01*
X104929285Y-79438095D01*
X104738809Y-79485714D01*
X104595952Y-79485714D01*
X104405476Y-79438095D01*
X104310238Y-79390476D01*
X104215000Y-79295238D01*
X104167380Y-79152380D01*
X104167380Y-79057142D01*
X104215000Y-78914285D01*
X104262619Y-78866666D01*
X104167380Y-78533333D02*
X104167380Y-77866666D01*
X105167380Y-78295238D01*
G04 #@! TO.C,C8*
X145328333Y-89137142D02*
X145280714Y-89184761D01*
X145137857Y-89232380D01*
X145042619Y-89232380D01*
X144899761Y-89184761D01*
X144804523Y-89089523D01*
X144756904Y-88994285D01*
X144709285Y-88803809D01*
X144709285Y-88660952D01*
X144756904Y-88470476D01*
X144804523Y-88375238D01*
X144899761Y-88280000D01*
X145042619Y-88232380D01*
X145137857Y-88232380D01*
X145280714Y-88280000D01*
X145328333Y-88327619D01*
X145899761Y-88660952D02*
X145804523Y-88613333D01*
X145756904Y-88565714D01*
X145709285Y-88470476D01*
X145709285Y-88422857D01*
X145756904Y-88327619D01*
X145804523Y-88280000D01*
X145899761Y-88232380D01*
X146090238Y-88232380D01*
X146185476Y-88280000D01*
X146233095Y-88327619D01*
X146280714Y-88422857D01*
X146280714Y-88470476D01*
X146233095Y-88565714D01*
X146185476Y-88613333D01*
X146090238Y-88660952D01*
X145899761Y-88660952D01*
X145804523Y-88708571D01*
X145756904Y-88756190D01*
X145709285Y-88851428D01*
X145709285Y-89041904D01*
X145756904Y-89137142D01*
X145804523Y-89184761D01*
X145899761Y-89232380D01*
X146090238Y-89232380D01*
X146185476Y-89184761D01*
X146233095Y-89137142D01*
X146280714Y-89041904D01*
X146280714Y-88851428D01*
X146233095Y-88756190D01*
X146185476Y-88708571D01*
X146090238Y-88660952D01*
G04 #@! TO.C,C9*
X166032142Y-43306666D02*
X166079761Y-43354285D01*
X166127380Y-43497142D01*
X166127380Y-43592380D01*
X166079761Y-43735238D01*
X165984523Y-43830476D01*
X165889285Y-43878095D01*
X165698809Y-43925714D01*
X165555952Y-43925714D01*
X165365476Y-43878095D01*
X165270238Y-43830476D01*
X165175000Y-43735238D01*
X165127380Y-43592380D01*
X165127380Y-43497142D01*
X165175000Y-43354285D01*
X165222619Y-43306666D01*
X166127380Y-42830476D02*
X166127380Y-42640000D01*
X166079761Y-42544761D01*
X166032142Y-42497142D01*
X165889285Y-42401904D01*
X165698809Y-42354285D01*
X165317857Y-42354285D01*
X165222619Y-42401904D01*
X165175000Y-42449523D01*
X165127380Y-42544761D01*
X165127380Y-42735238D01*
X165175000Y-42830476D01*
X165222619Y-42878095D01*
X165317857Y-42925714D01*
X165555952Y-42925714D01*
X165651190Y-42878095D01*
X165698809Y-42830476D01*
X165746428Y-42735238D01*
X165746428Y-42544761D01*
X165698809Y-42449523D01*
X165651190Y-42401904D01*
X165555952Y-42354285D01*
G04 #@! TO.C,C10*
X206447142Y-38337142D02*
X206399523Y-38384761D01*
X206256666Y-38432380D01*
X206161428Y-38432380D01*
X206018571Y-38384761D01*
X205923333Y-38289523D01*
X205875714Y-38194285D01*
X205828095Y-38003809D01*
X205828095Y-37860952D01*
X205875714Y-37670476D01*
X205923333Y-37575238D01*
X206018571Y-37480000D01*
X206161428Y-37432380D01*
X206256666Y-37432380D01*
X206399523Y-37480000D01*
X206447142Y-37527619D01*
X207399523Y-38432380D02*
X206828095Y-38432380D01*
X207113809Y-38432380D02*
X207113809Y-37432380D01*
X207018571Y-37575238D01*
X206923333Y-37670476D01*
X206828095Y-37718095D01*
X208018571Y-37432380D02*
X208113809Y-37432380D01*
X208209047Y-37480000D01*
X208256666Y-37527619D01*
X208304285Y-37622857D01*
X208351904Y-37813333D01*
X208351904Y-38051428D01*
X208304285Y-38241904D01*
X208256666Y-38337142D01*
X208209047Y-38384761D01*
X208113809Y-38432380D01*
X208018571Y-38432380D01*
X207923333Y-38384761D01*
X207875714Y-38337142D01*
X207828095Y-38241904D01*
X207780476Y-38051428D01*
X207780476Y-37813333D01*
X207828095Y-37622857D01*
X207875714Y-37527619D01*
X207923333Y-37480000D01*
X208018571Y-37432380D01*
G04 #@! TO.C,C11*
X166032142Y-79342857D02*
X166079761Y-79390476D01*
X166127380Y-79533333D01*
X166127380Y-79628571D01*
X166079761Y-79771428D01*
X165984523Y-79866666D01*
X165889285Y-79914285D01*
X165698809Y-79961904D01*
X165555952Y-79961904D01*
X165365476Y-79914285D01*
X165270238Y-79866666D01*
X165175000Y-79771428D01*
X165127380Y-79628571D01*
X165127380Y-79533333D01*
X165175000Y-79390476D01*
X165222619Y-79342857D01*
X166127380Y-78390476D02*
X166127380Y-78961904D01*
X166127380Y-78676190D02*
X165127380Y-78676190D01*
X165270238Y-78771428D01*
X165365476Y-78866666D01*
X165413095Y-78961904D01*
X166127380Y-77438095D02*
X166127380Y-78009523D01*
X166127380Y-77723809D02*
X165127380Y-77723809D01*
X165270238Y-77819047D01*
X165365476Y-77914285D01*
X165413095Y-78009523D01*
G04 #@! TO.C,C12*
X206447142Y-89137142D02*
X206399523Y-89184761D01*
X206256666Y-89232380D01*
X206161428Y-89232380D01*
X206018571Y-89184761D01*
X205923333Y-89089523D01*
X205875714Y-88994285D01*
X205828095Y-88803809D01*
X205828095Y-88660952D01*
X205875714Y-88470476D01*
X205923333Y-88375238D01*
X206018571Y-88280000D01*
X206161428Y-88232380D01*
X206256666Y-88232380D01*
X206399523Y-88280000D01*
X206447142Y-88327619D01*
X207399523Y-89232380D02*
X206828095Y-89232380D01*
X207113809Y-89232380D02*
X207113809Y-88232380D01*
X207018571Y-88375238D01*
X206923333Y-88470476D01*
X206828095Y-88518095D01*
X207780476Y-88327619D02*
X207828095Y-88280000D01*
X207923333Y-88232380D01*
X208161428Y-88232380D01*
X208256666Y-88280000D01*
X208304285Y-88327619D01*
X208351904Y-88422857D01*
X208351904Y-88518095D01*
X208304285Y-88660952D01*
X207732857Y-89232380D01*
X208351904Y-89232380D01*
G04 #@! TO.C,C13*
X225087142Y-43782857D02*
X225134761Y-43830476D01*
X225182380Y-43973333D01*
X225182380Y-44068571D01*
X225134761Y-44211428D01*
X225039523Y-44306666D01*
X224944285Y-44354285D01*
X224753809Y-44401904D01*
X224610952Y-44401904D01*
X224420476Y-44354285D01*
X224325238Y-44306666D01*
X224230000Y-44211428D01*
X224182380Y-44068571D01*
X224182380Y-43973333D01*
X224230000Y-43830476D01*
X224277619Y-43782857D01*
X225182380Y-42830476D02*
X225182380Y-43401904D01*
X225182380Y-43116190D02*
X224182380Y-43116190D01*
X224325238Y-43211428D01*
X224420476Y-43306666D01*
X224468095Y-43401904D01*
X224182380Y-42497142D02*
X224182380Y-41878095D01*
X224563333Y-42211428D01*
X224563333Y-42068571D01*
X224610952Y-41973333D01*
X224658571Y-41925714D01*
X224753809Y-41878095D01*
X224991904Y-41878095D01*
X225087142Y-41925714D01*
X225134761Y-41973333D01*
X225182380Y-42068571D01*
X225182380Y-42354285D01*
X225134761Y-42449523D01*
X225087142Y-42497142D01*
G04 #@! TO.C,C14*
X265502142Y-38337142D02*
X265454523Y-38384761D01*
X265311666Y-38432380D01*
X265216428Y-38432380D01*
X265073571Y-38384761D01*
X264978333Y-38289523D01*
X264930714Y-38194285D01*
X264883095Y-38003809D01*
X264883095Y-37860952D01*
X264930714Y-37670476D01*
X264978333Y-37575238D01*
X265073571Y-37480000D01*
X265216428Y-37432380D01*
X265311666Y-37432380D01*
X265454523Y-37480000D01*
X265502142Y-37527619D01*
X266454523Y-38432380D02*
X265883095Y-38432380D01*
X266168809Y-38432380D02*
X266168809Y-37432380D01*
X266073571Y-37575238D01*
X265978333Y-37670476D01*
X265883095Y-37718095D01*
X267311666Y-37765714D02*
X267311666Y-38432380D01*
X267073571Y-37384761D02*
X266835476Y-38099047D01*
X267454523Y-38099047D01*
G04 #@! TO.C,C15*
X225087142Y-79342857D02*
X225134761Y-79390476D01*
X225182380Y-79533333D01*
X225182380Y-79628571D01*
X225134761Y-79771428D01*
X225039523Y-79866666D01*
X224944285Y-79914285D01*
X224753809Y-79961904D01*
X224610952Y-79961904D01*
X224420476Y-79914285D01*
X224325238Y-79866666D01*
X224230000Y-79771428D01*
X224182380Y-79628571D01*
X224182380Y-79533333D01*
X224230000Y-79390476D01*
X224277619Y-79342857D01*
X225182380Y-78390476D02*
X225182380Y-78961904D01*
X225182380Y-78676190D02*
X224182380Y-78676190D01*
X224325238Y-78771428D01*
X224420476Y-78866666D01*
X224468095Y-78961904D01*
X224182380Y-77485714D02*
X224182380Y-77961904D01*
X224658571Y-78009523D01*
X224610952Y-77961904D01*
X224563333Y-77866666D01*
X224563333Y-77628571D01*
X224610952Y-77533333D01*
X224658571Y-77485714D01*
X224753809Y-77438095D01*
X224991904Y-77438095D01*
X225087142Y-77485714D01*
X225134761Y-77533333D01*
X225182380Y-77628571D01*
X225182380Y-77866666D01*
X225134761Y-77961904D01*
X225087142Y-78009523D01*
G04 #@! TO.C,C16*
X265502142Y-89137142D02*
X265454523Y-89184761D01*
X265311666Y-89232380D01*
X265216428Y-89232380D01*
X265073571Y-89184761D01*
X264978333Y-89089523D01*
X264930714Y-88994285D01*
X264883095Y-88803809D01*
X264883095Y-88660952D01*
X264930714Y-88470476D01*
X264978333Y-88375238D01*
X265073571Y-88280000D01*
X265216428Y-88232380D01*
X265311666Y-88232380D01*
X265454523Y-88280000D01*
X265502142Y-88327619D01*
X266454523Y-89232380D02*
X265883095Y-89232380D01*
X266168809Y-89232380D02*
X266168809Y-88232380D01*
X266073571Y-88375238D01*
X265978333Y-88470476D01*
X265883095Y-88518095D01*
X267311666Y-88232380D02*
X267121190Y-88232380D01*
X267025952Y-88280000D01*
X266978333Y-88327619D01*
X266883095Y-88470476D01*
X266835476Y-88660952D01*
X266835476Y-89041904D01*
X266883095Y-89137142D01*
X266930714Y-89184761D01*
X267025952Y-89232380D01*
X267216428Y-89232380D01*
X267311666Y-89184761D01*
X267359285Y-89137142D01*
X267406904Y-89041904D01*
X267406904Y-88803809D01*
X267359285Y-88708571D01*
X267311666Y-88660952D01*
X267216428Y-88613333D01*
X267025952Y-88613333D01*
X266930714Y-88660952D01*
X266883095Y-88708571D01*
X266835476Y-88803809D01*
G04 #@! TO.C,J3*
X142987380Y-61293333D02*
X143701666Y-61293333D01*
X143844523Y-61340952D01*
X143939761Y-61436190D01*
X143987380Y-61579047D01*
X143987380Y-61674285D01*
X142987380Y-60912380D02*
X142987380Y-60293333D01*
X143368333Y-60626666D01*
X143368333Y-60483809D01*
X143415952Y-60388571D01*
X143463571Y-60340952D01*
X143558809Y-60293333D01*
X143796904Y-60293333D01*
X143892142Y-60340952D01*
X143939761Y-60388571D01*
X143987380Y-60483809D01*
X143987380Y-60769523D01*
X143939761Y-60864761D01*
X143892142Y-60912380D01*
G04 #@! TO.C,J4*
X204582380Y-61293333D02*
X205296666Y-61293333D01*
X205439523Y-61340952D01*
X205534761Y-61436190D01*
X205582380Y-61579047D01*
X205582380Y-61674285D01*
X204915714Y-60388571D02*
X205582380Y-60388571D01*
X204534761Y-60626666D02*
X205249047Y-60864761D01*
X205249047Y-60245714D01*
G04 #@! TO.C,J5*
X263637380Y-61293333D02*
X264351666Y-61293333D01*
X264494523Y-61340952D01*
X264589761Y-61436190D01*
X264637380Y-61579047D01*
X264637380Y-61674285D01*
X263637380Y-60340952D02*
X263637380Y-60817142D01*
X264113571Y-60864761D01*
X264065952Y-60817142D01*
X264018333Y-60721904D01*
X264018333Y-60483809D01*
X264065952Y-60388571D01*
X264113571Y-60340952D01*
X264208809Y-60293333D01*
X264446904Y-60293333D01*
X264542142Y-60340952D01*
X264589761Y-60388571D01*
X264637380Y-60483809D01*
X264637380Y-60721904D01*
X264589761Y-60817142D01*
X264542142Y-60864761D01*
G04 #@! TO.C,RV3*
X135697380Y-93005238D02*
X135221190Y-93338571D01*
X135697380Y-93576666D02*
X134697380Y-93576666D01*
X134697380Y-93195714D01*
X134745000Y-93100476D01*
X134792619Y-93052857D01*
X134887857Y-93005238D01*
X135030714Y-93005238D01*
X135125952Y-93052857D01*
X135173571Y-93100476D01*
X135221190Y-93195714D01*
X135221190Y-93576666D01*
X134697380Y-92719523D02*
X135697380Y-92386190D01*
X134697380Y-92052857D01*
X134697380Y-91814761D02*
X134697380Y-91195714D01*
X135078333Y-91529047D01*
X135078333Y-91386190D01*
X135125952Y-91290952D01*
X135173571Y-91243333D01*
X135268809Y-91195714D01*
X135506904Y-91195714D01*
X135602142Y-91243333D01*
X135649761Y-91290952D01*
X135697380Y-91386190D01*
X135697380Y-91671904D01*
X135649761Y-91767142D01*
X135602142Y-91814761D01*
G04 #@! TO.C,RV4*
X120477380Y-30105238D02*
X120001190Y-30438571D01*
X120477380Y-30676666D02*
X119477380Y-30676666D01*
X119477380Y-30295714D01*
X119525000Y-30200476D01*
X119572619Y-30152857D01*
X119667857Y-30105238D01*
X119810714Y-30105238D01*
X119905952Y-30152857D01*
X119953571Y-30200476D01*
X120001190Y-30295714D01*
X120001190Y-30676666D01*
X119477380Y-29819523D02*
X120477380Y-29486190D01*
X119477380Y-29152857D01*
X119810714Y-28390952D02*
X120477380Y-28390952D01*
X119429761Y-28629047D02*
X120144047Y-28867142D01*
X120144047Y-28248095D01*
G04 #@! TO.C,RV5*
X197292380Y-93005238D02*
X196816190Y-93338571D01*
X197292380Y-93576666D02*
X196292380Y-93576666D01*
X196292380Y-93195714D01*
X196340000Y-93100476D01*
X196387619Y-93052857D01*
X196482857Y-93005238D01*
X196625714Y-93005238D01*
X196720952Y-93052857D01*
X196768571Y-93100476D01*
X196816190Y-93195714D01*
X196816190Y-93576666D01*
X196292380Y-92719523D02*
X197292380Y-92386190D01*
X196292380Y-92052857D01*
X196292380Y-91243333D02*
X196292380Y-91719523D01*
X196768571Y-91767142D01*
X196720952Y-91719523D01*
X196673333Y-91624285D01*
X196673333Y-91386190D01*
X196720952Y-91290952D01*
X196768571Y-91243333D01*
X196863809Y-91195714D01*
X197101904Y-91195714D01*
X197197142Y-91243333D01*
X197244761Y-91290952D01*
X197292380Y-91386190D01*
X197292380Y-91624285D01*
X197244761Y-91719523D01*
X197197142Y-91767142D01*
G04 #@! TO.C,RV6*
X182072380Y-30105238D02*
X181596190Y-30438571D01*
X182072380Y-30676666D02*
X181072380Y-30676666D01*
X181072380Y-30295714D01*
X181120000Y-30200476D01*
X181167619Y-30152857D01*
X181262857Y-30105238D01*
X181405714Y-30105238D01*
X181500952Y-30152857D01*
X181548571Y-30200476D01*
X181596190Y-30295714D01*
X181596190Y-30676666D01*
X181072380Y-29819523D02*
X182072380Y-29486190D01*
X181072380Y-29152857D01*
X181072380Y-28390952D02*
X181072380Y-28581428D01*
X181120000Y-28676666D01*
X181167619Y-28724285D01*
X181310476Y-28819523D01*
X181500952Y-28867142D01*
X181881904Y-28867142D01*
X181977142Y-28819523D01*
X182024761Y-28771904D01*
X182072380Y-28676666D01*
X182072380Y-28486190D01*
X182024761Y-28390952D01*
X181977142Y-28343333D01*
X181881904Y-28295714D01*
X181643809Y-28295714D01*
X181548571Y-28343333D01*
X181500952Y-28390952D01*
X181453333Y-28486190D01*
X181453333Y-28676666D01*
X181500952Y-28771904D01*
X181548571Y-28819523D01*
X181643809Y-28867142D01*
G04 #@! TO.C,RV7*
X256347380Y-93005238D02*
X255871190Y-93338571D01*
X256347380Y-93576666D02*
X255347380Y-93576666D01*
X255347380Y-93195714D01*
X255395000Y-93100476D01*
X255442619Y-93052857D01*
X255537857Y-93005238D01*
X255680714Y-93005238D01*
X255775952Y-93052857D01*
X255823571Y-93100476D01*
X255871190Y-93195714D01*
X255871190Y-93576666D01*
X255347380Y-92719523D02*
X256347380Y-92386190D01*
X255347380Y-92052857D01*
X255347380Y-91814761D02*
X255347380Y-91148095D01*
X256347380Y-91576666D01*
G04 #@! TO.C,RV8*
X241127380Y-30105238D02*
X240651190Y-30438571D01*
X241127380Y-30676666D02*
X240127380Y-30676666D01*
X240127380Y-30295714D01*
X240175000Y-30200476D01*
X240222619Y-30152857D01*
X240317857Y-30105238D01*
X240460714Y-30105238D01*
X240555952Y-30152857D01*
X240603571Y-30200476D01*
X240651190Y-30295714D01*
X240651190Y-30676666D01*
X240127380Y-29819523D02*
X241127380Y-29486190D01*
X240127380Y-29152857D01*
X240555952Y-28676666D02*
X240508333Y-28771904D01*
X240460714Y-28819523D01*
X240365476Y-28867142D01*
X240317857Y-28867142D01*
X240222619Y-28819523D01*
X240175000Y-28771904D01*
X240127380Y-28676666D01*
X240127380Y-28486190D01*
X240175000Y-28390952D01*
X240222619Y-28343333D01*
X240317857Y-28295714D01*
X240365476Y-28295714D01*
X240460714Y-28343333D01*
X240508333Y-28390952D01*
X240555952Y-28486190D01*
X240555952Y-28676666D01*
X240603571Y-28771904D01*
X240651190Y-28819523D01*
X240746428Y-28867142D01*
X240936904Y-28867142D01*
X241032142Y-28819523D01*
X241079761Y-28771904D01*
X241127380Y-28676666D01*
X241127380Y-28486190D01*
X241079761Y-28390952D01*
X241032142Y-28343333D01*
X240936904Y-28295714D01*
X240746428Y-28295714D01*
X240651190Y-28343333D01*
X240603571Y-28390952D01*
X240555952Y-28486190D01*
G04 #@! TO.C,U3*
X124333095Y-48212380D02*
X124333095Y-49021904D01*
X124380714Y-49117142D01*
X124428333Y-49164761D01*
X124523571Y-49212380D01*
X124714047Y-49212380D01*
X124809285Y-49164761D01*
X124856904Y-49117142D01*
X124904523Y-49021904D01*
X124904523Y-48212380D01*
X125285476Y-48212380D02*
X125904523Y-48212380D01*
X125571190Y-48593333D01*
X125714047Y-48593333D01*
X125809285Y-48640952D01*
X125856904Y-48688571D01*
X125904523Y-48783809D01*
X125904523Y-49021904D01*
X125856904Y-49117142D01*
X125809285Y-49164761D01*
X125714047Y-49212380D01*
X125428333Y-49212380D01*
X125333095Y-49164761D01*
X125285476Y-49117142D01*
G04 #@! TO.C,U4*
X124333095Y-73612380D02*
X124333095Y-74421904D01*
X124380714Y-74517142D01*
X124428333Y-74564761D01*
X124523571Y-74612380D01*
X124714047Y-74612380D01*
X124809285Y-74564761D01*
X124856904Y-74517142D01*
X124904523Y-74421904D01*
X124904523Y-73612380D01*
X125809285Y-73945714D02*
X125809285Y-74612380D01*
X125571190Y-73564761D02*
X125333095Y-74279047D01*
X125952142Y-74279047D01*
G04 #@! TO.C,U5*
X185928095Y-48212380D02*
X185928095Y-49021904D01*
X185975714Y-49117142D01*
X186023333Y-49164761D01*
X186118571Y-49212380D01*
X186309047Y-49212380D01*
X186404285Y-49164761D01*
X186451904Y-49117142D01*
X186499523Y-49021904D01*
X186499523Y-48212380D01*
X187451904Y-48212380D02*
X186975714Y-48212380D01*
X186928095Y-48688571D01*
X186975714Y-48640952D01*
X187070952Y-48593333D01*
X187309047Y-48593333D01*
X187404285Y-48640952D01*
X187451904Y-48688571D01*
X187499523Y-48783809D01*
X187499523Y-49021904D01*
X187451904Y-49117142D01*
X187404285Y-49164761D01*
X187309047Y-49212380D01*
X187070952Y-49212380D01*
X186975714Y-49164761D01*
X186928095Y-49117142D01*
G04 #@! TO.C,U6*
X185928095Y-73612380D02*
X185928095Y-74421904D01*
X185975714Y-74517142D01*
X186023333Y-74564761D01*
X186118571Y-74612380D01*
X186309047Y-74612380D01*
X186404285Y-74564761D01*
X186451904Y-74517142D01*
X186499523Y-74421904D01*
X186499523Y-73612380D01*
X187404285Y-73612380D02*
X187213809Y-73612380D01*
X187118571Y-73660000D01*
X187070952Y-73707619D01*
X186975714Y-73850476D01*
X186928095Y-74040952D01*
X186928095Y-74421904D01*
X186975714Y-74517142D01*
X187023333Y-74564761D01*
X187118571Y-74612380D01*
X187309047Y-74612380D01*
X187404285Y-74564761D01*
X187451904Y-74517142D01*
X187499523Y-74421904D01*
X187499523Y-74183809D01*
X187451904Y-74088571D01*
X187404285Y-74040952D01*
X187309047Y-73993333D01*
X187118571Y-73993333D01*
X187023333Y-74040952D01*
X186975714Y-74088571D01*
X186928095Y-74183809D01*
G04 #@! TO.C,U7*
X244983095Y-48212380D02*
X244983095Y-49021904D01*
X245030714Y-49117142D01*
X245078333Y-49164761D01*
X245173571Y-49212380D01*
X245364047Y-49212380D01*
X245459285Y-49164761D01*
X245506904Y-49117142D01*
X245554523Y-49021904D01*
X245554523Y-48212380D01*
X245935476Y-48212380D02*
X246602142Y-48212380D01*
X246173571Y-49212380D01*
G04 #@! TO.C,U8*
X244983095Y-73612380D02*
X244983095Y-74421904D01*
X245030714Y-74517142D01*
X245078333Y-74564761D01*
X245173571Y-74612380D01*
X245364047Y-74612380D01*
X245459285Y-74564761D01*
X245506904Y-74517142D01*
X245554523Y-74421904D01*
X245554523Y-73612380D01*
X246173571Y-74040952D02*
X246078333Y-73993333D01*
X246030714Y-73945714D01*
X245983095Y-73850476D01*
X245983095Y-73802857D01*
X246030714Y-73707619D01*
X246078333Y-73660000D01*
X246173571Y-73612380D01*
X246364047Y-73612380D01*
X246459285Y-73660000D01*
X246506904Y-73707619D01*
X246554523Y-73802857D01*
X246554523Y-73850476D01*
X246506904Y-73945714D01*
X246459285Y-73993333D01*
X246364047Y-74040952D01*
X246173571Y-74040952D01*
X246078333Y-74088571D01*
X246030714Y-74136190D01*
X245983095Y-74231428D01*
X245983095Y-74421904D01*
X246030714Y-74517142D01*
X246078333Y-74564761D01*
X246173571Y-74612380D01*
X246364047Y-74612380D01*
X246459285Y-74564761D01*
X246506904Y-74517142D01*
X246554523Y-74421904D01*
X246554523Y-74231428D01*
X246506904Y-74136190D01*
X246459285Y-74088571D01*
X246364047Y-74040952D01*
G04 #@! TD*
M02*
