G04 #@! TF.GenerationSoftware,KiCad,Pcbnew,(5.0.0)*
G04 #@! TF.CreationDate,2019-08-04T21:11:27+01:00*
G04 #@! TF.ProjectId,Display PSU,446973706C6179205053552E6B696361,rev?*
G04 #@! TF.SameCoordinates,Original*
G04 #@! TF.FileFunction,Soldermask,Bot*
G04 #@! TF.FilePolarity,Negative*
%FSLAX46Y46*%
G04 Gerber Fmt 4.6, Leading zero omitted, Abs format (unit mm)*
G04 Created by KiCad (PCBNEW (5.0.0)) date 08/04/19 21:11:27*
%MOMM*%
%LPD*%
G01*
G04 APERTURE LIST*
%ADD10C,1.524000*%
%ADD11C,1.800000*%
%ADD12C,4.000000*%
%ADD13C,1.600000*%
%ADD14O,1.600000X1.600000*%
%ADD15R,2.600000X2.600000*%
%ADD16C,2.600000*%
%ADD17C,2.000000*%
%ADD18R,2.800000X2.800000*%
%ADD19O,2.800000X2.800000*%
%ADD20O,10.400000X8.600000*%
G04 APERTURE END LIST*
D10*
G04 #@! TO.C,U1*
X89078000Y-40309800D03*
X91618000Y-40309800D03*
X104318000Y-40309800D03*
X106858000Y-40309800D03*
X109398000Y-40309800D03*
X114478000Y-40309800D03*
X89078000Y-55549800D03*
X91618000Y-55549800D03*
X104318000Y-55549800D03*
X106858000Y-55549800D03*
X109398000Y-55549800D03*
X114478000Y-55549800D03*
G04 #@! TD*
G04 #@! TO.C,U2*
X114351000Y-80391000D03*
X109271000Y-80391000D03*
X106731000Y-80391000D03*
X104191000Y-80391000D03*
X91491000Y-80391000D03*
X88951000Y-80391000D03*
X114351000Y-65151000D03*
X109271000Y-65151000D03*
X106731000Y-65151000D03*
X104191000Y-65151000D03*
X91491000Y-65151000D03*
X88951000Y-65151000D03*
G04 #@! TD*
D11*
G04 #@! TO.C,RV1*
X135890000Y-76813400D03*
X135890000Y-79313400D03*
X135890000Y-81813400D03*
D12*
X142890000Y-74913400D03*
X142890000Y-83713400D03*
G04 #@! TD*
D13*
G04 #@! TO.C,C2*
X131496000Y-40665400D03*
D14*
X131496000Y-30665400D03*
G04 #@! TD*
G04 #@! TO.C,C4*
X132055000Y-58260000D03*
D13*
X132055000Y-48260000D03*
G04 #@! TD*
D15*
G04 #@! TO.C,J1*
X102641000Y-89789000D03*
D16*
X97561000Y-89789000D03*
X92481000Y-89789000D03*
G04 #@! TD*
G04 #@! TO.C,J2*
X141554000Y-40487600D03*
X141554000Y-45567600D03*
D15*
X141554000Y-50647600D03*
G04 #@! TD*
D17*
G04 #@! TO.C,C1*
X90373200Y-32994600D03*
X85373200Y-32994600D03*
G04 #@! TD*
G04 #@! TO.C,C3*
X112954000Y-93925400D03*
X112954000Y-88925400D03*
G04 #@! TD*
D18*
G04 #@! TO.C,D1*
X76758800Y-65989200D03*
D19*
X76758800Y-78689200D03*
G04 #@! TD*
D11*
G04 #@! TO.C,RV2*
X136195000Y-61573400D03*
X136195000Y-64073400D03*
X136195000Y-66573400D03*
D12*
X143195000Y-59673400D03*
X143195000Y-68473400D03*
G04 #@! TD*
D20*
G04 #@! TO.C,H1*
X143000000Y-32000000D03*
G04 #@! TD*
G04 #@! TO.C,H2*
X77000000Y-32000000D03*
G04 #@! TD*
G04 #@! TO.C,H4*
X77000000Y-93000000D03*
G04 #@! TD*
G04 #@! TO.C,H3*
X143000000Y-93000000D03*
G04 #@! TD*
M02*
