M48
;DRILL file {KiCad (5.0.0)} date 09/22/19 13:37:28
;FORMAT={-:-/ absolute / inch / decimal}
FMAT,2
INCH,TZ
T1C0.0300
T2C0.0315
T3C0.0394
T4C0.0512
T5C0.1693
%
G90
G05
M72
T1
X6.85Y-1.6
X6.85Y-2.2
X6.95Y-1.6
X6.95Y-2.2
X7.45Y-1.6
X7.45Y-2.2
X7.55Y-1.6
X7.55Y-2.2
X7.65Y-1.6
X7.65Y-2.2
X7.85Y-1.6
X7.85Y-2.2
X4.425Y-1.6
X4.425Y-2.2
X4.525Y-1.6
X4.525Y-2.2
X5.025Y-1.6
X5.025Y-2.2
X5.125Y-1.6
X5.125Y-2.2
X5.225Y-1.6
X5.225Y-2.2
X5.425Y-1.6
X5.425Y-2.2
X6.85Y-2.6
X6.85Y-3.2
X6.95Y-2.6
X6.95Y-3.2
X7.45Y-2.6
X7.45Y-3.2
X7.55Y-2.6
X7.55Y-3.2
X7.65Y-2.6
X7.65Y-3.2
X7.85Y-2.6
X7.85Y-3.2
X9.175Y-2.6
X9.175Y-3.2
X9.275Y-2.6
X9.275Y-3.2
X9.775Y-2.6
X9.775Y-3.2
X9.875Y-2.6
X9.875Y-3.2
X9.975Y-2.6
X9.975Y-3.2
X10.175Y-2.6
X10.175Y-3.2
X1.925Y-2.6
X1.925Y-3.2
X2.025Y-2.6
X2.025Y-3.2
X2.525Y-2.6
X2.525Y-3.2
X2.625Y-2.6
X2.625Y-3.2
X2.725Y-2.6
X2.725Y-3.2
X2.925Y-2.6
X2.925Y-3.2
X4.425Y-2.6
X4.425Y-3.2
X4.525Y-2.6
X4.525Y-3.2
X5.025Y-2.6
X5.025Y-3.2
X5.125Y-2.6
X5.125Y-3.2
X5.225Y-2.6
X5.225Y-3.2
X5.425Y-2.6
X5.425Y-3.2
X9.175Y-1.6
X9.175Y-2.2
X9.275Y-1.6
X9.275Y-2.2
X9.775Y-1.6
X9.775Y-2.2
X9.875Y-1.6
X9.875Y-2.2
X9.975Y-1.6
X9.975Y-2.2
X10.175Y-1.6
X10.175Y-2.2
X1.925Y-1.6
X1.925Y-2.2
X2.025Y-1.6
X2.025Y-2.2
X2.525Y-1.6
X2.525Y-2.2
X2.625Y-1.6
X2.625Y-2.2
X2.725Y-1.6
X2.725Y-2.2
X2.925Y-1.6
X2.925Y-2.2
T2
X10.2813Y-1.4
X10.675Y-1.4
X10.2813Y-3.4
X10.675Y-3.4
X7.9563Y-3.4
X8.35Y-3.4
X3.0063Y-3.4
X3.4Y-3.4
X7.9563Y-1.4
X8.35Y-1.4
X5.5313Y-3.4
X5.925Y-3.4
X5.5313Y-1.4
X5.925Y-1.4
X3.0063Y-1.4
X3.4Y-1.4
T3
X3.95Y-1.6
X3.95Y-1.7969
X6.375Y-1.6
X6.375Y-1.7969
X7.35Y-3.4
X7.4484Y-3.4
X7.5469Y-3.4
X8.7Y-3.
X8.7Y-3.1969
X1.45Y-1.6
X1.45Y-1.7969
X6.375Y-3.
X6.375Y-3.1969
X4.9281Y-1.4
X5.0266Y-1.4
X5.125Y-1.4
X1.45Y-3.
X1.45Y-3.1969
X7.3531Y-1.4
X7.4516Y-1.4
X7.55Y-1.4
X9.675Y-3.4
X9.7734Y-3.4
X9.8719Y-3.4
X3.975Y-3.
X3.975Y-3.1969
X4.925Y-3.4
X5.0234Y-3.4
X5.1219Y-3.4
X2.425Y-3.4
X2.5234Y-3.4
X2.6219Y-3.4
X2.4281Y-1.4
X2.5266Y-1.4
X2.625Y-1.4
X8.7Y-1.6
X8.7Y-1.7969
X9.6781Y-1.4
X9.7766Y-1.4
X9.875Y-1.4
T4
X10.675Y-2.2
X10.675Y-2.4
X10.675Y-2.6
X3.425Y-2.2
X3.425Y-2.4
X3.425Y-2.6
X8.35Y-2.2
X8.35Y-2.4
X8.35Y-2.6
X5.925Y-2.2
X5.925Y-2.4
X5.925Y-2.6
X1.45Y-2.2
X1.45Y-2.4
X1.45Y-2.6
T5
X10.6876Y-3.7G85X10.7624Y-3.7
G05
X6.0376Y-3.7G85X6.1124Y-3.7
G05
X6.0376Y-1.1G85X6.1124Y-1.1
G05
X1.0376Y-3.7G85X1.1124Y-3.7
G05
X1.0376Y-1.1G85X1.1124Y-1.1
G05
X10.6876Y-1.1G85X10.7624Y-1.1
G05
T0
M30
