G04 #@! TF.GenerationSoftware,KiCad,Pcbnew,(5.0.0)*
G04 #@! TF.CreationDate,2019-04-28T23:15:24+01:00*
G04 #@! TF.ProjectId,LS04,4C5330342E6B696361645F7063620000,rev?*
G04 #@! TF.SameCoordinates,Original*
G04 #@! TF.FileFunction,Legend,Top*
G04 #@! TF.FilePolarity,Positive*
%FSLAX46Y46*%
G04 Gerber Fmt 4.6, Leading zero omitted, Abs format (unit mm)*
G04 Created by KiCad (PCBNEW (5.0.0)) date 04/28/19 23:15:24*
%MOMM*%
%LPD*%
G01*
G04 APERTURE LIST*
%ADD10C,0.300000*%
%ADD11C,0.150000*%
%ADD12C,0.120000*%
G04 APERTURE END LIST*
D10*
X164945428Y-21125571D02*
X164231142Y-21125571D01*
X164231142Y-19625571D01*
X165374000Y-21054142D02*
X165588285Y-21125571D01*
X165945428Y-21125571D01*
X166088285Y-21054142D01*
X166159714Y-20982714D01*
X166231142Y-20839857D01*
X166231142Y-20697000D01*
X166159714Y-20554142D01*
X166088285Y-20482714D01*
X165945428Y-20411285D01*
X165659714Y-20339857D01*
X165516857Y-20268428D01*
X165445428Y-20197000D01*
X165374000Y-20054142D01*
X165374000Y-19911285D01*
X165445428Y-19768428D01*
X165516857Y-19697000D01*
X165659714Y-19625571D01*
X166016857Y-19625571D01*
X166231142Y-19697000D01*
X167159714Y-19625571D02*
X167302571Y-19625571D01*
X167445428Y-19697000D01*
X167516857Y-19768428D01*
X167588285Y-19911285D01*
X167659714Y-20197000D01*
X167659714Y-20554142D01*
X167588285Y-20839857D01*
X167516857Y-20982714D01*
X167445428Y-21054142D01*
X167302571Y-21125571D01*
X167159714Y-21125571D01*
X167016857Y-21054142D01*
X166945428Y-20982714D01*
X166874000Y-20839857D01*
X166802571Y-20554142D01*
X166802571Y-20197000D01*
X166874000Y-19911285D01*
X166945428Y-19768428D01*
X167016857Y-19697000D01*
X167159714Y-19625571D01*
X168945428Y-20125571D02*
X168945428Y-21125571D01*
X168588285Y-19554142D02*
X168231142Y-20625571D01*
X169159714Y-20625571D01*
D11*
G04 #@! TO.C,J1*
X131128000Y-36385500D02*
X131128000Y-14160500D01*
X181928000Y-36385500D02*
X131128000Y-36385500D01*
X181928000Y-14160500D02*
X181928000Y-36385500D01*
X131128000Y-14160500D02*
X181928000Y-14160500D01*
D12*
G04 #@! TO.C,D1*
X144249000Y-27118500D02*
X142009000Y-27118500D01*
X144249000Y-27358500D02*
X142009000Y-27358500D01*
X144249000Y-27238500D02*
X142009000Y-27238500D01*
X143129000Y-31408500D02*
X143129000Y-30758500D01*
X143129000Y-25868500D02*
X143129000Y-26518500D01*
X144249000Y-30758500D02*
X144249000Y-26518500D01*
X142009000Y-30758500D02*
X144249000Y-30758500D01*
X142009000Y-26518500D02*
X142009000Y-30758500D01*
X144249000Y-26518500D02*
X142009000Y-26518500D01*
G04 #@! TO.C,D2*
X139024000Y-30822000D02*
X141264000Y-30822000D01*
X141264000Y-30822000D02*
X141264000Y-26582000D01*
X141264000Y-26582000D02*
X139024000Y-26582000D01*
X139024000Y-26582000D02*
X139024000Y-30822000D01*
X140144000Y-31472000D02*
X140144000Y-30822000D01*
X140144000Y-25932000D02*
X140144000Y-26582000D01*
X139024000Y-30102000D02*
X141264000Y-30102000D01*
X139024000Y-29982000D02*
X141264000Y-29982000D01*
X139024000Y-30222000D02*
X141264000Y-30222000D01*
G04 #@! TO.C,D3*
X159934000Y-24832500D02*
X157694000Y-24832500D01*
X159934000Y-25072500D02*
X157694000Y-25072500D01*
X159934000Y-24952500D02*
X157694000Y-24952500D01*
X158814000Y-29122500D02*
X158814000Y-28472500D01*
X158814000Y-23582500D02*
X158814000Y-24232500D01*
X159934000Y-28472500D02*
X159934000Y-24232500D01*
X157694000Y-28472500D02*
X159934000Y-28472500D01*
X157694000Y-24232500D02*
X157694000Y-28472500D01*
X159934000Y-24232500D02*
X157694000Y-24232500D01*
G04 #@! TO.C,D4*
X154772000Y-27872500D02*
X157012000Y-27872500D01*
X154772000Y-27632500D02*
X157012000Y-27632500D01*
X154772000Y-27752500D02*
X157012000Y-27752500D01*
X155892000Y-23582500D02*
X155892000Y-24232500D01*
X155892000Y-29122500D02*
X155892000Y-28472500D01*
X154772000Y-24232500D02*
X154772000Y-28472500D01*
X157012000Y-24232500D02*
X154772000Y-24232500D01*
X157012000Y-28472500D02*
X157012000Y-24232500D01*
X154772000Y-28472500D02*
X157012000Y-28472500D01*
G04 #@! TO.C,D5*
X177015000Y-26455000D02*
X174775000Y-26455000D01*
X174775000Y-26455000D02*
X174775000Y-30695000D01*
X174775000Y-30695000D02*
X177015000Y-30695000D01*
X177015000Y-30695000D02*
X177015000Y-26455000D01*
X175895000Y-25805000D02*
X175895000Y-26455000D01*
X175895000Y-31345000D02*
X175895000Y-30695000D01*
X177015000Y-27175000D02*
X174775000Y-27175000D01*
X177015000Y-27295000D02*
X174775000Y-27295000D01*
X177015000Y-27055000D02*
X174775000Y-27055000D01*
G04 #@! TO.C,D6*
X171790000Y-30095000D02*
X174030000Y-30095000D01*
X171790000Y-29855000D02*
X174030000Y-29855000D01*
X171790000Y-29975000D02*
X174030000Y-29975000D01*
X172910000Y-25805000D02*
X172910000Y-26455000D01*
X172910000Y-31345000D02*
X172910000Y-30695000D01*
X171790000Y-26455000D02*
X171790000Y-30695000D01*
X174030000Y-26455000D02*
X171790000Y-26455000D01*
X174030000Y-30695000D02*
X174030000Y-26455000D01*
X171790000Y-30695000D02*
X174030000Y-30695000D01*
G04 #@! TO.C,D7*
X138344000Y-27182000D02*
X136104000Y-27182000D01*
X138344000Y-27422000D02*
X136104000Y-27422000D01*
X138344000Y-27302000D02*
X136104000Y-27302000D01*
X137224000Y-31472000D02*
X137224000Y-30822000D01*
X137224000Y-25932000D02*
X137224000Y-26582000D01*
X138344000Y-30822000D02*
X138344000Y-26582000D01*
X136104000Y-30822000D02*
X138344000Y-30822000D01*
X136104000Y-26582000D02*
X136104000Y-30822000D01*
X138344000Y-26582000D02*
X136104000Y-26582000D01*
G04 #@! TO.C,D8*
X154092000Y-24232500D02*
X151852000Y-24232500D01*
X151852000Y-24232500D02*
X151852000Y-28472500D01*
X151852000Y-28472500D02*
X154092000Y-28472500D01*
X154092000Y-28472500D02*
X154092000Y-24232500D01*
X152972000Y-23582500D02*
X152972000Y-24232500D01*
X152972000Y-29122500D02*
X152972000Y-28472500D01*
X154092000Y-24952500D02*
X151852000Y-24952500D01*
X154092000Y-25072500D02*
X151852000Y-25072500D01*
X154092000Y-24832500D02*
X151852000Y-24832500D01*
G04 #@! TO.C,D9*
X171046000Y-26518500D02*
X168806000Y-26518500D01*
X168806000Y-26518500D02*
X168806000Y-30758500D01*
X168806000Y-30758500D02*
X171046000Y-30758500D01*
X171046000Y-30758500D02*
X171046000Y-26518500D01*
X169926000Y-25868500D02*
X169926000Y-26518500D01*
X169926000Y-31408500D02*
X169926000Y-30758500D01*
X171046000Y-27238500D02*
X168806000Y-27238500D01*
X171046000Y-27358500D02*
X168806000Y-27358500D01*
X171046000Y-27118500D02*
X168806000Y-27118500D01*
G04 #@! TO.C,R1*
X146050000Y-31508500D02*
X146050000Y-30558500D01*
X146050000Y-25768500D02*
X146050000Y-26718500D01*
X146970000Y-30558500D02*
X146970000Y-26718500D01*
X145130000Y-30558500D02*
X146970000Y-30558500D01*
X145130000Y-26718500D02*
X145130000Y-30558500D01*
X146970000Y-26718500D02*
X145130000Y-26718500D01*
G04 #@! TO.C,R2*
X135222000Y-26782000D02*
X133382000Y-26782000D01*
X133382000Y-26782000D02*
X133382000Y-30622000D01*
X133382000Y-30622000D02*
X135222000Y-30622000D01*
X135222000Y-30622000D02*
X135222000Y-26782000D01*
X134302000Y-25832000D02*
X134302000Y-26782000D01*
X134302000Y-31572000D02*
X134302000Y-30622000D01*
G04 #@! TO.C,R3*
X162654000Y-24432500D02*
X160814000Y-24432500D01*
X160814000Y-24432500D02*
X160814000Y-28272500D01*
X160814000Y-28272500D02*
X162654000Y-28272500D01*
X162654000Y-28272500D02*
X162654000Y-24432500D01*
X161734000Y-23482500D02*
X161734000Y-24432500D01*
X161734000Y-29222500D02*
X161734000Y-28272500D01*
G04 #@! TO.C,R4*
X149987000Y-29222500D02*
X149987000Y-28272500D01*
X149987000Y-23482500D02*
X149987000Y-24432500D01*
X150907000Y-28272500D02*
X150907000Y-24432500D01*
X149067000Y-28272500D02*
X150907000Y-28272500D01*
X149067000Y-24432500D02*
X149067000Y-28272500D01*
X150907000Y-24432500D02*
X149067000Y-24432500D01*
G04 #@! TO.C,R5*
X179800000Y-26655000D02*
X177960000Y-26655000D01*
X177960000Y-26655000D02*
X177960000Y-30495000D01*
X177960000Y-30495000D02*
X179800000Y-30495000D01*
X179800000Y-30495000D02*
X179800000Y-26655000D01*
X178880000Y-25705000D02*
X178880000Y-26655000D01*
X178880000Y-31445000D02*
X178880000Y-30495000D01*
G04 #@! TO.C,R6*
X166942000Y-31508500D02*
X166942000Y-30558500D01*
X166942000Y-25768500D02*
X166942000Y-26718500D01*
X167862000Y-30558500D02*
X167862000Y-26718500D01*
X166022000Y-30558500D02*
X167862000Y-30558500D01*
X166022000Y-26718500D02*
X166022000Y-30558500D01*
X167862000Y-26718500D02*
X166022000Y-26718500D01*
G04 #@! TO.C,VT1*
X138898878Y-19267611D02*
G75*
G03X138889000Y-15379000I1690122J1948611D01*
G01*
X138889000Y-15379000D02*
X138889000Y-19229000D01*
G04 #@! TO.C,VT2*
X147208000Y-15379000D02*
X147208000Y-19229000D01*
X147217878Y-19267611D02*
G75*
G03X147208000Y-15379000I1690122J1948611D01*
G01*
G04 #@! TO.C,VT3*
X173179000Y-15315500D02*
X173179000Y-19165500D01*
X173188878Y-19204111D02*
G75*
G03X173179000Y-15315500I1690122J1948611D01*
G01*
G04 #@! TO.C,J1*
D11*
X135874666Y-19192880D02*
X135874666Y-19907166D01*
X135827047Y-20050023D01*
X135731809Y-20145261D01*
X135588952Y-20192880D01*
X135493714Y-20192880D01*
X136874666Y-20192880D02*
X136303238Y-20192880D01*
X136588952Y-20192880D02*
X136588952Y-19192880D01*
X136493714Y-19335738D01*
X136398476Y-19430976D01*
X136303238Y-19478595D01*
G04 #@! TO.C,D1*
X143507381Y-29317594D02*
X142507381Y-29317594D01*
X142507381Y-29079499D01*
X142555001Y-28936641D01*
X142650239Y-28841403D01*
X142745477Y-28793784D01*
X142935953Y-28746165D01*
X143078810Y-28746165D01*
X143269286Y-28793784D01*
X143364524Y-28841403D01*
X143459762Y-28936641D01*
X143507381Y-29079499D01*
X143507381Y-29317594D01*
X143507381Y-27793784D02*
X143507381Y-28365213D01*
X143507381Y-28079499D02*
X142507381Y-28079499D01*
X142650239Y-28174737D01*
X142745477Y-28269975D01*
X142793096Y-28365213D01*
G04 #@! TO.C,D2*
X140573379Y-29440095D02*
X139573379Y-29440095D01*
X139573379Y-29202000D01*
X139620999Y-29059142D01*
X139716237Y-28963904D01*
X139811475Y-28916285D01*
X140001951Y-28868666D01*
X140144808Y-28868666D01*
X140335284Y-28916285D01*
X140430522Y-28963904D01*
X140525760Y-29059142D01*
X140573379Y-29202000D01*
X140573379Y-29440095D01*
X139668618Y-28487714D02*
X139620999Y-28440095D01*
X139573379Y-28344857D01*
X139573379Y-28106761D01*
X139620999Y-28011523D01*
X139668618Y-27963904D01*
X139763856Y-27916285D01*
X139859094Y-27916285D01*
X140001951Y-27963904D01*
X140573379Y-28535333D01*
X140573379Y-27916285D01*
G04 #@! TO.C,D3*
X159289381Y-27090595D02*
X158289381Y-27090595D01*
X158289381Y-26852500D01*
X158337001Y-26709642D01*
X158432239Y-26614404D01*
X158527477Y-26566785D01*
X158717953Y-26519166D01*
X158860810Y-26519166D01*
X159051286Y-26566785D01*
X159146524Y-26614404D01*
X159241762Y-26709642D01*
X159289381Y-26852500D01*
X159289381Y-27090595D01*
X158289381Y-26185833D02*
X158289381Y-25566785D01*
X158670334Y-25900119D01*
X158670334Y-25757261D01*
X158717953Y-25662023D01*
X158765572Y-25614404D01*
X158860810Y-25566785D01*
X159098905Y-25566785D01*
X159194143Y-25614404D01*
X159241762Y-25662023D01*
X159289381Y-25757261D01*
X159289381Y-26042976D01*
X159241762Y-26138214D01*
X159194143Y-26185833D01*
G04 #@! TO.C,D4*
X156565379Y-27149596D02*
X155565379Y-27149596D01*
X155565379Y-26911501D01*
X155612999Y-26768643D01*
X155708237Y-26673405D01*
X155803475Y-26625786D01*
X155993951Y-26578167D01*
X156136808Y-26578167D01*
X156327284Y-26625786D01*
X156422522Y-26673405D01*
X156517760Y-26768643D01*
X156565379Y-26911501D01*
X156565379Y-27149596D01*
X155898713Y-25721024D02*
X156565379Y-25721024D01*
X155517760Y-25959120D02*
X156232046Y-26197215D01*
X156232046Y-25578167D01*
G04 #@! TO.C,D5*
X176316881Y-29313095D02*
X175316881Y-29313095D01*
X175316881Y-29075000D01*
X175364501Y-28932142D01*
X175459739Y-28836904D01*
X175554977Y-28789285D01*
X175745453Y-28741666D01*
X175888310Y-28741666D01*
X176078786Y-28789285D01*
X176174024Y-28836904D01*
X176269262Y-28932142D01*
X176316881Y-29075000D01*
X176316881Y-29313095D01*
X175316881Y-27836904D02*
X175316881Y-28313095D01*
X175793072Y-28360714D01*
X175745453Y-28313095D01*
X175697834Y-28217857D01*
X175697834Y-27979761D01*
X175745453Y-27884523D01*
X175793072Y-27836904D01*
X175888310Y-27789285D01*
X176126405Y-27789285D01*
X176221643Y-27836904D01*
X176269262Y-27884523D01*
X176316881Y-27979761D01*
X176316881Y-28217857D01*
X176269262Y-28313095D01*
X176221643Y-28360714D01*
G04 #@! TO.C,D6*
X173329379Y-29313095D02*
X172329379Y-29313095D01*
X172329379Y-29075000D01*
X172376999Y-28932142D01*
X172472237Y-28836904D01*
X172567475Y-28789285D01*
X172757951Y-28741666D01*
X172900808Y-28741666D01*
X173091284Y-28789285D01*
X173186522Y-28836904D01*
X173281760Y-28932142D01*
X173329379Y-29075000D01*
X173329379Y-29313095D01*
X172329379Y-27884523D02*
X172329379Y-28075000D01*
X172376999Y-28170238D01*
X172424618Y-28217857D01*
X172567475Y-28313095D01*
X172757951Y-28360714D01*
X173138903Y-28360714D01*
X173234141Y-28313095D01*
X173281760Y-28265476D01*
X173329379Y-28170238D01*
X173329379Y-27979761D01*
X173281760Y-27884523D01*
X173234141Y-27836904D01*
X173138903Y-27789285D01*
X172900808Y-27789285D01*
X172805570Y-27836904D01*
X172757951Y-27884523D01*
X172710332Y-27979761D01*
X172710332Y-28170238D01*
X172757951Y-28265476D01*
X172805570Y-28313095D01*
X172900808Y-28360714D01*
G04 #@! TO.C,D7*
X137655881Y-29440095D02*
X136655881Y-29440095D01*
X136655881Y-29202000D01*
X136703501Y-29059142D01*
X136798739Y-28963904D01*
X136893977Y-28916285D01*
X137084453Y-28868666D01*
X137227310Y-28868666D01*
X137417786Y-28916285D01*
X137513024Y-28963904D01*
X137608262Y-29059142D01*
X137655881Y-29202000D01*
X137655881Y-29440095D01*
X136655881Y-28535333D02*
X136655881Y-27868666D01*
X137655881Y-28297238D01*
G04 #@! TO.C,D8*
X153467381Y-27090595D02*
X152467381Y-27090595D01*
X152467381Y-26852500D01*
X152515001Y-26709642D01*
X152610239Y-26614404D01*
X152705477Y-26566785D01*
X152895953Y-26519166D01*
X153038810Y-26519166D01*
X153229286Y-26566785D01*
X153324524Y-26614404D01*
X153419762Y-26709642D01*
X153467381Y-26852500D01*
X153467381Y-27090595D01*
X152895953Y-25947738D02*
X152848334Y-26042976D01*
X152800715Y-26090595D01*
X152705477Y-26138214D01*
X152657858Y-26138214D01*
X152562620Y-26090595D01*
X152515001Y-26042976D01*
X152467381Y-25947738D01*
X152467381Y-25757261D01*
X152515001Y-25662023D01*
X152562620Y-25614404D01*
X152657858Y-25566785D01*
X152705477Y-25566785D01*
X152800715Y-25614404D01*
X152848334Y-25662023D01*
X152895953Y-25757261D01*
X152895953Y-25947738D01*
X152943572Y-26042976D01*
X152991191Y-26090595D01*
X153086429Y-26138214D01*
X153276905Y-26138214D01*
X153372143Y-26090595D01*
X153419762Y-26042976D01*
X153467381Y-25947738D01*
X153467381Y-25757261D01*
X153419762Y-25662023D01*
X153372143Y-25614404D01*
X153276905Y-25566785D01*
X153086429Y-25566785D01*
X152991191Y-25614404D01*
X152943572Y-25662023D01*
X152895953Y-25757261D01*
G04 #@! TO.C,D9*
X170357881Y-29376595D02*
X169357881Y-29376595D01*
X169357881Y-29138500D01*
X169405501Y-28995642D01*
X169500739Y-28900404D01*
X169595977Y-28852785D01*
X169786453Y-28805166D01*
X169929310Y-28805166D01*
X170119786Y-28852785D01*
X170215024Y-28900404D01*
X170310262Y-28995642D01*
X170357881Y-29138500D01*
X170357881Y-29376595D01*
X170357881Y-28328976D02*
X170357881Y-28138500D01*
X170310262Y-28043261D01*
X170262643Y-27995642D01*
X170119786Y-27900404D01*
X169929310Y-27852785D01*
X169548358Y-27852785D01*
X169453120Y-27900404D01*
X169405501Y-27948023D01*
X169357881Y-28043261D01*
X169357881Y-28233738D01*
X169405501Y-28328976D01*
X169453120Y-28376595D01*
X169548358Y-28424214D01*
X169786453Y-28424214D01*
X169881691Y-28376595D01*
X169929310Y-28328976D01*
X169976929Y-28233738D01*
X169976929Y-28043261D01*
X169929310Y-27948023D01*
X169881691Y-27900404D01*
X169786453Y-27852785D01*
G04 #@! TO.C,R1*
X146525381Y-28682665D02*
X146049191Y-29015999D01*
X146525381Y-29254094D02*
X145525381Y-29254094D01*
X145525381Y-28873141D01*
X145573001Y-28777903D01*
X145620620Y-28730284D01*
X145715858Y-28682665D01*
X145858715Y-28682665D01*
X145953953Y-28730284D01*
X146001572Y-28777903D01*
X146049191Y-28873141D01*
X146049191Y-29254094D01*
X146525381Y-27730284D02*
X146525381Y-28301713D01*
X146525381Y-28015999D02*
X145525381Y-28015999D01*
X145668239Y-28111237D01*
X145763477Y-28206475D01*
X145811096Y-28301713D01*
G04 #@! TO.C,R2*
X134690880Y-28868666D02*
X134214690Y-29202000D01*
X134690880Y-29440095D02*
X133690880Y-29440095D01*
X133690880Y-29059142D01*
X133738500Y-28963904D01*
X133786119Y-28916285D01*
X133881357Y-28868666D01*
X134024214Y-28868666D01*
X134119452Y-28916285D01*
X134167071Y-28963904D01*
X134214690Y-29059142D01*
X134214690Y-29440095D01*
X133786119Y-28487714D02*
X133738500Y-28440095D01*
X133690880Y-28344857D01*
X133690880Y-28106761D01*
X133738500Y-28011523D01*
X133786119Y-27963904D01*
X133881357Y-27916285D01*
X133976595Y-27916285D01*
X134119452Y-27963904D01*
X134690880Y-28535333D01*
X134690880Y-27916285D01*
G04 #@! TO.C,R3*
X162175881Y-26519166D02*
X161699691Y-26852500D01*
X162175881Y-27090595D02*
X161175881Y-27090595D01*
X161175881Y-26709642D01*
X161223501Y-26614404D01*
X161271120Y-26566785D01*
X161366358Y-26519166D01*
X161509215Y-26519166D01*
X161604453Y-26566785D01*
X161652072Y-26614404D01*
X161699691Y-26709642D01*
X161699691Y-27090595D01*
X161175881Y-26185833D02*
X161175881Y-25566785D01*
X161556834Y-25900119D01*
X161556834Y-25757261D01*
X161604453Y-25662023D01*
X161652072Y-25614404D01*
X161747310Y-25566785D01*
X161985405Y-25566785D01*
X162080643Y-25614404D01*
X162128262Y-25662023D01*
X162175881Y-25757261D01*
X162175881Y-26042976D01*
X162128262Y-26138214D01*
X162080643Y-26185833D01*
G04 #@! TO.C,R4*
X150502880Y-26519166D02*
X150026690Y-26852500D01*
X150502880Y-27090595D02*
X149502880Y-27090595D01*
X149502880Y-26709642D01*
X149550500Y-26614404D01*
X149598119Y-26566785D01*
X149693357Y-26519166D01*
X149836214Y-26519166D01*
X149931452Y-26566785D01*
X149979071Y-26614404D01*
X150026690Y-26709642D01*
X150026690Y-27090595D01*
X149836214Y-25662023D02*
X150502880Y-25662023D01*
X149455261Y-25900119D02*
X150169547Y-26138214D01*
X150169547Y-25519166D01*
G04 #@! TO.C,R5*
X179301881Y-28773165D02*
X178825691Y-29106499D01*
X179301881Y-29344594D02*
X178301881Y-29344594D01*
X178301881Y-28963641D01*
X178349501Y-28868403D01*
X178397120Y-28820784D01*
X178492358Y-28773165D01*
X178635215Y-28773165D01*
X178730453Y-28820784D01*
X178778072Y-28868403D01*
X178825691Y-28963641D01*
X178825691Y-29344594D01*
X178301881Y-27868403D02*
X178301881Y-28344594D01*
X178778072Y-28392213D01*
X178730453Y-28344594D01*
X178682834Y-28249356D01*
X178682834Y-28011260D01*
X178730453Y-27916022D01*
X178778072Y-27868403D01*
X178873310Y-27820784D01*
X179111405Y-27820784D01*
X179206643Y-27868403D01*
X179254262Y-27916022D01*
X179301881Y-28011260D01*
X179301881Y-28249356D01*
X179254262Y-28344594D01*
X179206643Y-28392213D01*
G04 #@! TO.C,R6*
X167373881Y-28773165D02*
X166897691Y-29106499D01*
X167373881Y-29344594D02*
X166373881Y-29344594D01*
X166373881Y-28963641D01*
X166421501Y-28868403D01*
X166469120Y-28820784D01*
X166564358Y-28773165D01*
X166707215Y-28773165D01*
X166802453Y-28820784D01*
X166850072Y-28868403D01*
X166897691Y-28963641D01*
X166897691Y-29344594D01*
X166373881Y-27916022D02*
X166373881Y-28106499D01*
X166421501Y-28201737D01*
X166469120Y-28249356D01*
X166611977Y-28344594D01*
X166802453Y-28392213D01*
X167183405Y-28392213D01*
X167278643Y-28344594D01*
X167326262Y-28296975D01*
X167373881Y-28201737D01*
X167373881Y-28011260D01*
X167326262Y-27916022D01*
X167278643Y-27868403D01*
X167183405Y-27820784D01*
X166945310Y-27820784D01*
X166850072Y-27868403D01*
X166802453Y-27916022D01*
X166754834Y-28011260D01*
X166754834Y-28201737D01*
X166802453Y-28296975D01*
X166850072Y-28344594D01*
X166945310Y-28392213D01*
G04 #@! TO.C,VT1*
X143601380Y-18509476D02*
X144601380Y-18176142D01*
X143601380Y-17842809D01*
X143601380Y-17652333D02*
X143601380Y-17080904D01*
X144601380Y-17366619D02*
X143601380Y-17366619D01*
X144601380Y-16223761D02*
X144601380Y-16795190D01*
X144601380Y-16509476D02*
X143601380Y-16509476D01*
X143744238Y-16604714D01*
X143839476Y-16699952D01*
X143887095Y-16795190D01*
G04 #@! TO.C,VT2*
X151920380Y-18509476D02*
X152920380Y-18176142D01*
X151920380Y-17842809D01*
X151920380Y-17652333D02*
X151920380Y-17080904D01*
X152920380Y-17366619D02*
X151920380Y-17366619D01*
X152015619Y-16795190D02*
X151968000Y-16747571D01*
X151920380Y-16652333D01*
X151920380Y-16414238D01*
X151968000Y-16319000D01*
X152015619Y-16271380D01*
X152110857Y-16223761D01*
X152206095Y-16223761D01*
X152348952Y-16271380D01*
X152920380Y-16842809D01*
X152920380Y-16223761D01*
G04 #@! TO.C,VT3*
X177891380Y-18445976D02*
X178891380Y-18112642D01*
X177891380Y-17779309D01*
X177891380Y-17588833D02*
X177891380Y-17017404D01*
X178891380Y-17303119D02*
X177891380Y-17303119D01*
X177891380Y-16779309D02*
X177891380Y-16160261D01*
X178272333Y-16493595D01*
X178272333Y-16350738D01*
X178319952Y-16255500D01*
X178367571Y-16207880D01*
X178462809Y-16160261D01*
X178700904Y-16160261D01*
X178796142Y-16207880D01*
X178843761Y-16255500D01*
X178891380Y-16350738D01*
X178891380Y-16636452D01*
X178843761Y-16731690D01*
X178796142Y-16779309D01*
G04 #@! TD*
M02*
