G04 #@! TF.GenerationSoftware,KiCad,Pcbnew,(5.0.0)*
G04 #@! TF.CreationDate,2019-01-17T16:23:05+00:00*
G04 #@! TF.ProjectId,LS04,4C5330342E6B696361645F7063620000,rev?*
G04 #@! TF.SameCoordinates,Original*
G04 #@! TF.FileFunction,Soldermask,Bot*
G04 #@! TF.FilePolarity,Negative*
%FSLAX46Y46*%
G04 Gerber Fmt 4.6, Leading zero omitted, Abs format (unit mm)*
G04 Created by KiCad (PCBNEW (5.0.0)) date 01/17/19 16:23:05*
%MOMM*%
%LPD*%
G01*
G04 APERTURE LIST*
%ADD10O,1.600000X1.600000*%
%ADD11R,1.600000X1.600000*%
%ADD12C,1.524000*%
%ADD13O,1.400000X1.400000*%
%ADD14C,1.400000*%
%ADD15C,1.300000*%
%ADD16R,1.300000X1.300000*%
G04 APERTURE END LIST*
D10*
G04 #@! TO.C,D1*
X143129000Y-32448500D03*
D11*
X143129000Y-24828500D03*
G04 #@! TD*
G04 #@! TO.C,D2*
X140144000Y-32512000D03*
D10*
X140144000Y-24892000D03*
G04 #@! TD*
G04 #@! TO.C,D3*
X158814000Y-30162500D03*
D11*
X158814000Y-22542500D03*
G04 #@! TD*
D10*
G04 #@! TO.C,D4*
X155892000Y-22542500D03*
D11*
X155892000Y-30162500D03*
G04 #@! TD*
G04 #@! TO.C,D5*
X175895000Y-24765000D03*
D10*
X175895000Y-32385000D03*
G04 #@! TD*
G04 #@! TO.C,D6*
X172910000Y-24765000D03*
D11*
X172910000Y-32385000D03*
G04 #@! TD*
D10*
G04 #@! TO.C,D7*
X137224000Y-32512000D03*
D11*
X137224000Y-24892000D03*
G04 #@! TD*
G04 #@! TO.C,D8*
X152972000Y-22542500D03*
D10*
X152972000Y-30162500D03*
G04 #@! TD*
D11*
G04 #@! TO.C,D9*
X169926000Y-24828500D03*
D10*
X169926000Y-32448500D03*
G04 #@! TD*
D12*
G04 #@! TO.C,J1*
X133171000Y-16077000D03*
X133171000Y-18617000D03*
X133171000Y-21157000D03*
X150316000Y-34492000D03*
X152856000Y-34492000D03*
X155396000Y-34492000D03*
X157936000Y-34492000D03*
X160476000Y-34492000D03*
X163016000Y-34492000D03*
X154126000Y-16077000D03*
X156666000Y-16077000D03*
X159206000Y-16077000D03*
G04 #@! TD*
D13*
G04 #@! TO.C,R1*
X146050000Y-32448500D03*
D14*
X146050000Y-24828500D03*
G04 #@! TD*
G04 #@! TO.C,R2*
X134302000Y-24892000D03*
D13*
X134302000Y-32512000D03*
G04 #@! TD*
D14*
G04 #@! TO.C,R3*
X161734000Y-22542500D03*
D13*
X161734000Y-30162500D03*
G04 #@! TD*
G04 #@! TO.C,R4*
X149987000Y-30162500D03*
D14*
X149987000Y-22542500D03*
G04 #@! TD*
G04 #@! TO.C,R5*
X178880000Y-24765000D03*
D13*
X178880000Y-32385000D03*
G04 #@! TD*
G04 #@! TO.C,R6*
X166942000Y-32448500D03*
D14*
X166942000Y-24828500D03*
G04 #@! TD*
D15*
G04 #@! TO.C,VT1*
X139319000Y-17526000D03*
X140589000Y-16256000D03*
D16*
X140589000Y-18796000D03*
G04 #@! TD*
G04 #@! TO.C,VT2*
X148908000Y-18859500D03*
D15*
X148908000Y-16319500D03*
X147638000Y-17589500D03*
G04 #@! TD*
D16*
G04 #@! TO.C,VT3*
X174879000Y-18732500D03*
D15*
X174879000Y-16192500D03*
X173609000Y-17462500D03*
G04 #@! TD*
M02*
