M48
;DRILL file {KiCad (5.0.0)} date 01/17/19 16:23:01
;FORMAT={-:-/ absolute / inch / decimal}
FMAT,2
INCH,TZ
T1C0.0276
T2C0.0295
T3C0.0300
T4C0.0315
%
G90
G05
M72
T1
X6.3675Y-0.8875
X6.3675Y-1.1875
X5.905Y-0.8875
X5.905Y-1.1875
X5.75Y-0.9775
X5.75Y-1.2775
X5.2875Y-0.98
X5.2875Y-1.28
X6.5725Y-0.9775
X6.5725Y-1.2775
X7.0425Y-0.975
X7.0425Y-1.275
T2
X5.8125Y-0.6925
X5.8625Y-0.6425
X5.8625Y-0.7425
X5.485Y-0.69
X5.535Y-0.64
X5.535Y-0.74
X6.835Y-0.6875
X6.885Y-0.6375
X6.885Y-0.7375
T3
X5.243Y-0.633
X5.243Y-0.733
X5.243Y-0.833
X5.918Y-1.358
X6.018Y-1.358
X6.068Y-0.633
X6.118Y-1.358
X6.168Y-0.633
X6.218Y-1.358
X6.268Y-0.633
X6.318Y-1.358
X6.418Y-1.358
T4
X5.4025Y-0.98
X5.4025Y-1.28
X6.69Y-0.9775
X6.69Y-1.2775
X6.1375Y-0.8875
X6.1375Y-1.1875
X6.8075Y-0.975
X6.8075Y-1.275
X6.925Y-0.975
X6.925Y-1.275
X6.2525Y-0.8875
X6.2525Y-1.1875
X5.635Y-0.9775
X5.635Y-1.2775
X5.5175Y-0.98
X5.5175Y-1.28
X6.0225Y-0.8875
X6.0225Y-1.1875
T0
M30
