G04 #@! TF.GenerationSoftware,KiCad,Pcbnew,(5.0.0)*
G04 #@! TF.CreationDate,2019-04-28T23:15:24+01:00*
G04 #@! TF.ProjectId,LS04,4C5330342E6B696361645F7063620000,rev?*
G04 #@! TF.SameCoordinates,Original*
G04 #@! TF.FileFunction,Soldermask,Bot*
G04 #@! TF.FilePolarity,Negative*
%FSLAX46Y46*%
G04 Gerber Fmt 4.6, Leading zero omitted, Abs format (unit mm)*
G04 Created by KiCad (PCBNEW (5.0.0)) date 04/28/19 23:15:24*
%MOMM*%
%LPD*%
G01*
G04 APERTURE LIST*
%ADD10C,2.000000*%
%ADD11O,1.600000X1.600000*%
%ADD12R,1.600000X1.600000*%
%ADD13O,1.400000X1.400000*%
%ADD14C,1.400000*%
%ADD15R,1.500000X1.050000*%
%ADD16C,0.100000*%
%ADD17C,1.050000*%
G04 APERTURE END LIST*
D10*
G04 #@! TO.C,J1*
X159068000Y-16065500D03*
X156528000Y-16065500D03*
X153988000Y-16065500D03*
X162878000Y-34480500D03*
X160338000Y-34480500D03*
X157798000Y-34480500D03*
X155258000Y-34480500D03*
X152718000Y-34480500D03*
X150178000Y-34480500D03*
X133033000Y-21145500D03*
X133033000Y-18605500D03*
X133033000Y-16065500D03*
G04 #@! TD*
D11*
G04 #@! TO.C,D1*
X143129000Y-32448500D03*
D12*
X143129000Y-24828500D03*
G04 #@! TD*
G04 #@! TO.C,D2*
X140144000Y-32512000D03*
D11*
X140144000Y-24892000D03*
G04 #@! TD*
G04 #@! TO.C,D3*
X158814000Y-30162500D03*
D12*
X158814000Y-22542500D03*
G04 #@! TD*
D11*
G04 #@! TO.C,D4*
X155892000Y-22542500D03*
D12*
X155892000Y-30162500D03*
G04 #@! TD*
G04 #@! TO.C,D5*
X175895000Y-24765000D03*
D11*
X175895000Y-32385000D03*
G04 #@! TD*
G04 #@! TO.C,D6*
X172910000Y-24765000D03*
D12*
X172910000Y-32385000D03*
G04 #@! TD*
D11*
G04 #@! TO.C,D7*
X137224000Y-32512000D03*
D12*
X137224000Y-24892000D03*
G04 #@! TD*
G04 #@! TO.C,D8*
X152972000Y-22542500D03*
D11*
X152972000Y-30162500D03*
G04 #@! TD*
D12*
G04 #@! TO.C,D9*
X169926000Y-24828500D03*
D11*
X169926000Y-32448500D03*
G04 #@! TD*
D13*
G04 #@! TO.C,R1*
X146050000Y-32448500D03*
D14*
X146050000Y-24828500D03*
G04 #@! TD*
G04 #@! TO.C,R2*
X134302000Y-24892000D03*
D13*
X134302000Y-32512000D03*
G04 #@! TD*
D14*
G04 #@! TO.C,R3*
X161734000Y-22542500D03*
D13*
X161734000Y-30162500D03*
G04 #@! TD*
G04 #@! TO.C,R4*
X149987000Y-30162500D03*
D14*
X149987000Y-22542500D03*
G04 #@! TD*
G04 #@! TO.C,R5*
X178880000Y-24765000D03*
D13*
X178880000Y-32385000D03*
G04 #@! TD*
G04 #@! TO.C,R6*
X166942000Y-32448500D03*
D14*
X166942000Y-24828500D03*
G04 #@! TD*
D15*
G04 #@! TO.C,VT1*
X140589000Y-16129000D03*
D16*
G36*
X141102229Y-18145264D02*
X141127711Y-18149044D01*
X141152700Y-18155303D01*
X141176954Y-18163982D01*
X141200242Y-18174996D01*
X141222337Y-18188239D01*
X141243028Y-18203585D01*
X141262116Y-18220884D01*
X141279415Y-18239972D01*
X141294761Y-18260663D01*
X141308004Y-18282758D01*
X141319018Y-18306046D01*
X141327697Y-18330300D01*
X141333956Y-18355289D01*
X141337736Y-18380771D01*
X141339000Y-18406500D01*
X141339000Y-18931500D01*
X141337736Y-18957229D01*
X141333956Y-18982711D01*
X141327697Y-19007700D01*
X141319018Y-19031954D01*
X141308004Y-19055242D01*
X141294761Y-19077337D01*
X141279415Y-19098028D01*
X141262116Y-19117116D01*
X141243028Y-19134415D01*
X141222337Y-19149761D01*
X141200242Y-19163004D01*
X141176954Y-19174018D01*
X141152700Y-19182697D01*
X141127711Y-19188956D01*
X141102229Y-19192736D01*
X141076500Y-19194000D01*
X140101500Y-19194000D01*
X140075771Y-19192736D01*
X140050289Y-19188956D01*
X140025300Y-19182697D01*
X140001046Y-19174018D01*
X139977758Y-19163004D01*
X139955663Y-19149761D01*
X139934972Y-19134415D01*
X139915884Y-19117116D01*
X139898585Y-19098028D01*
X139883239Y-19077337D01*
X139869996Y-19055242D01*
X139858982Y-19031954D01*
X139850303Y-19007700D01*
X139844044Y-18982711D01*
X139840264Y-18957229D01*
X139839000Y-18931500D01*
X139839000Y-18406500D01*
X139840264Y-18380771D01*
X139844044Y-18355289D01*
X139850303Y-18330300D01*
X139858982Y-18306046D01*
X139869996Y-18282758D01*
X139883239Y-18260663D01*
X139898585Y-18239972D01*
X139915884Y-18220884D01*
X139934972Y-18203585D01*
X139955663Y-18188239D01*
X139977758Y-18174996D01*
X140001046Y-18163982D01*
X140025300Y-18155303D01*
X140050289Y-18149044D01*
X140075771Y-18145264D01*
X140101500Y-18144000D01*
X141076500Y-18144000D01*
X141102229Y-18145264D01*
X141102229Y-18145264D01*
G37*
D17*
X140589000Y-18669000D03*
D16*
G36*
X141102229Y-16875264D02*
X141127711Y-16879044D01*
X141152700Y-16885303D01*
X141176954Y-16893982D01*
X141200242Y-16904996D01*
X141222337Y-16918239D01*
X141243028Y-16933585D01*
X141262116Y-16950884D01*
X141279415Y-16969972D01*
X141294761Y-16990663D01*
X141308004Y-17012758D01*
X141319018Y-17036046D01*
X141327697Y-17060300D01*
X141333956Y-17085289D01*
X141337736Y-17110771D01*
X141339000Y-17136500D01*
X141339000Y-17661500D01*
X141337736Y-17687229D01*
X141333956Y-17712711D01*
X141327697Y-17737700D01*
X141319018Y-17761954D01*
X141308004Y-17785242D01*
X141294761Y-17807337D01*
X141279415Y-17828028D01*
X141262116Y-17847116D01*
X141243028Y-17864415D01*
X141222337Y-17879761D01*
X141200242Y-17893004D01*
X141176954Y-17904018D01*
X141152700Y-17912697D01*
X141127711Y-17918956D01*
X141102229Y-17922736D01*
X141076500Y-17924000D01*
X140101500Y-17924000D01*
X140075771Y-17922736D01*
X140050289Y-17918956D01*
X140025300Y-17912697D01*
X140001046Y-17904018D01*
X139977758Y-17893004D01*
X139955663Y-17879761D01*
X139934972Y-17864415D01*
X139915884Y-17847116D01*
X139898585Y-17828028D01*
X139883239Y-17807337D01*
X139869996Y-17785242D01*
X139858982Y-17761954D01*
X139850303Y-17737700D01*
X139844044Y-17712711D01*
X139840264Y-17687229D01*
X139839000Y-17661500D01*
X139839000Y-17136500D01*
X139840264Y-17110771D01*
X139844044Y-17085289D01*
X139850303Y-17060300D01*
X139858982Y-17036046D01*
X139869996Y-17012758D01*
X139883239Y-16990663D01*
X139898585Y-16969972D01*
X139915884Y-16950884D01*
X139934972Y-16933585D01*
X139955663Y-16918239D01*
X139977758Y-16904996D01*
X140001046Y-16893982D01*
X140025300Y-16885303D01*
X140050289Y-16879044D01*
X140075771Y-16875264D01*
X140101500Y-16874000D01*
X141076500Y-16874000D01*
X141102229Y-16875264D01*
X141102229Y-16875264D01*
G37*
D17*
X140589000Y-17399000D03*
G04 #@! TD*
D16*
G04 #@! TO.C,VT2*
G36*
X149421229Y-16875264D02*
X149446711Y-16879044D01*
X149471700Y-16885303D01*
X149495954Y-16893982D01*
X149519242Y-16904996D01*
X149541337Y-16918239D01*
X149562028Y-16933585D01*
X149581116Y-16950884D01*
X149598415Y-16969972D01*
X149613761Y-16990663D01*
X149627004Y-17012758D01*
X149638018Y-17036046D01*
X149646697Y-17060300D01*
X149652956Y-17085289D01*
X149656736Y-17110771D01*
X149658000Y-17136500D01*
X149658000Y-17661500D01*
X149656736Y-17687229D01*
X149652956Y-17712711D01*
X149646697Y-17737700D01*
X149638018Y-17761954D01*
X149627004Y-17785242D01*
X149613761Y-17807337D01*
X149598415Y-17828028D01*
X149581116Y-17847116D01*
X149562028Y-17864415D01*
X149541337Y-17879761D01*
X149519242Y-17893004D01*
X149495954Y-17904018D01*
X149471700Y-17912697D01*
X149446711Y-17918956D01*
X149421229Y-17922736D01*
X149395500Y-17924000D01*
X148420500Y-17924000D01*
X148394771Y-17922736D01*
X148369289Y-17918956D01*
X148344300Y-17912697D01*
X148320046Y-17904018D01*
X148296758Y-17893004D01*
X148274663Y-17879761D01*
X148253972Y-17864415D01*
X148234884Y-17847116D01*
X148217585Y-17828028D01*
X148202239Y-17807337D01*
X148188996Y-17785242D01*
X148177982Y-17761954D01*
X148169303Y-17737700D01*
X148163044Y-17712711D01*
X148159264Y-17687229D01*
X148158000Y-17661500D01*
X148158000Y-17136500D01*
X148159264Y-17110771D01*
X148163044Y-17085289D01*
X148169303Y-17060300D01*
X148177982Y-17036046D01*
X148188996Y-17012758D01*
X148202239Y-16990663D01*
X148217585Y-16969972D01*
X148234884Y-16950884D01*
X148253972Y-16933585D01*
X148274663Y-16918239D01*
X148296758Y-16904996D01*
X148320046Y-16893982D01*
X148344300Y-16885303D01*
X148369289Y-16879044D01*
X148394771Y-16875264D01*
X148420500Y-16874000D01*
X149395500Y-16874000D01*
X149421229Y-16875264D01*
X149421229Y-16875264D01*
G37*
D17*
X148908000Y-17399000D03*
D16*
G36*
X149421229Y-18145264D02*
X149446711Y-18149044D01*
X149471700Y-18155303D01*
X149495954Y-18163982D01*
X149519242Y-18174996D01*
X149541337Y-18188239D01*
X149562028Y-18203585D01*
X149581116Y-18220884D01*
X149598415Y-18239972D01*
X149613761Y-18260663D01*
X149627004Y-18282758D01*
X149638018Y-18306046D01*
X149646697Y-18330300D01*
X149652956Y-18355289D01*
X149656736Y-18380771D01*
X149658000Y-18406500D01*
X149658000Y-18931500D01*
X149656736Y-18957229D01*
X149652956Y-18982711D01*
X149646697Y-19007700D01*
X149638018Y-19031954D01*
X149627004Y-19055242D01*
X149613761Y-19077337D01*
X149598415Y-19098028D01*
X149581116Y-19117116D01*
X149562028Y-19134415D01*
X149541337Y-19149761D01*
X149519242Y-19163004D01*
X149495954Y-19174018D01*
X149471700Y-19182697D01*
X149446711Y-19188956D01*
X149421229Y-19192736D01*
X149395500Y-19194000D01*
X148420500Y-19194000D01*
X148394771Y-19192736D01*
X148369289Y-19188956D01*
X148344300Y-19182697D01*
X148320046Y-19174018D01*
X148296758Y-19163004D01*
X148274663Y-19149761D01*
X148253972Y-19134415D01*
X148234884Y-19117116D01*
X148217585Y-19098028D01*
X148202239Y-19077337D01*
X148188996Y-19055242D01*
X148177982Y-19031954D01*
X148169303Y-19007700D01*
X148163044Y-18982711D01*
X148159264Y-18957229D01*
X148158000Y-18931500D01*
X148158000Y-18406500D01*
X148159264Y-18380771D01*
X148163044Y-18355289D01*
X148169303Y-18330300D01*
X148177982Y-18306046D01*
X148188996Y-18282758D01*
X148202239Y-18260663D01*
X148217585Y-18239972D01*
X148234884Y-18220884D01*
X148253972Y-18203585D01*
X148274663Y-18188239D01*
X148296758Y-18174996D01*
X148320046Y-18163982D01*
X148344300Y-18155303D01*
X148369289Y-18149044D01*
X148394771Y-18145264D01*
X148420500Y-18144000D01*
X149395500Y-18144000D01*
X149421229Y-18145264D01*
X149421229Y-18145264D01*
G37*
D17*
X148908000Y-18669000D03*
D15*
X148908000Y-16129000D03*
G04 #@! TD*
D16*
G04 #@! TO.C,VT3*
G36*
X175392229Y-16811764D02*
X175417711Y-16815544D01*
X175442700Y-16821803D01*
X175466954Y-16830482D01*
X175490242Y-16841496D01*
X175512337Y-16854739D01*
X175533028Y-16870085D01*
X175552116Y-16887384D01*
X175569415Y-16906472D01*
X175584761Y-16927163D01*
X175598004Y-16949258D01*
X175609018Y-16972546D01*
X175617697Y-16996800D01*
X175623956Y-17021789D01*
X175627736Y-17047271D01*
X175629000Y-17073000D01*
X175629000Y-17598000D01*
X175627736Y-17623729D01*
X175623956Y-17649211D01*
X175617697Y-17674200D01*
X175609018Y-17698454D01*
X175598004Y-17721742D01*
X175584761Y-17743837D01*
X175569415Y-17764528D01*
X175552116Y-17783616D01*
X175533028Y-17800915D01*
X175512337Y-17816261D01*
X175490242Y-17829504D01*
X175466954Y-17840518D01*
X175442700Y-17849197D01*
X175417711Y-17855456D01*
X175392229Y-17859236D01*
X175366500Y-17860500D01*
X174391500Y-17860500D01*
X174365771Y-17859236D01*
X174340289Y-17855456D01*
X174315300Y-17849197D01*
X174291046Y-17840518D01*
X174267758Y-17829504D01*
X174245663Y-17816261D01*
X174224972Y-17800915D01*
X174205884Y-17783616D01*
X174188585Y-17764528D01*
X174173239Y-17743837D01*
X174159996Y-17721742D01*
X174148982Y-17698454D01*
X174140303Y-17674200D01*
X174134044Y-17649211D01*
X174130264Y-17623729D01*
X174129000Y-17598000D01*
X174129000Y-17073000D01*
X174130264Y-17047271D01*
X174134044Y-17021789D01*
X174140303Y-16996800D01*
X174148982Y-16972546D01*
X174159996Y-16949258D01*
X174173239Y-16927163D01*
X174188585Y-16906472D01*
X174205884Y-16887384D01*
X174224972Y-16870085D01*
X174245663Y-16854739D01*
X174267758Y-16841496D01*
X174291046Y-16830482D01*
X174315300Y-16821803D01*
X174340289Y-16815544D01*
X174365771Y-16811764D01*
X174391500Y-16810500D01*
X175366500Y-16810500D01*
X175392229Y-16811764D01*
X175392229Y-16811764D01*
G37*
D17*
X174879000Y-17335500D03*
D16*
G36*
X175392229Y-18081764D02*
X175417711Y-18085544D01*
X175442700Y-18091803D01*
X175466954Y-18100482D01*
X175490242Y-18111496D01*
X175512337Y-18124739D01*
X175533028Y-18140085D01*
X175552116Y-18157384D01*
X175569415Y-18176472D01*
X175584761Y-18197163D01*
X175598004Y-18219258D01*
X175609018Y-18242546D01*
X175617697Y-18266800D01*
X175623956Y-18291789D01*
X175627736Y-18317271D01*
X175629000Y-18343000D01*
X175629000Y-18868000D01*
X175627736Y-18893729D01*
X175623956Y-18919211D01*
X175617697Y-18944200D01*
X175609018Y-18968454D01*
X175598004Y-18991742D01*
X175584761Y-19013837D01*
X175569415Y-19034528D01*
X175552116Y-19053616D01*
X175533028Y-19070915D01*
X175512337Y-19086261D01*
X175490242Y-19099504D01*
X175466954Y-19110518D01*
X175442700Y-19119197D01*
X175417711Y-19125456D01*
X175392229Y-19129236D01*
X175366500Y-19130500D01*
X174391500Y-19130500D01*
X174365771Y-19129236D01*
X174340289Y-19125456D01*
X174315300Y-19119197D01*
X174291046Y-19110518D01*
X174267758Y-19099504D01*
X174245663Y-19086261D01*
X174224972Y-19070915D01*
X174205884Y-19053616D01*
X174188585Y-19034528D01*
X174173239Y-19013837D01*
X174159996Y-18991742D01*
X174148982Y-18968454D01*
X174140303Y-18944200D01*
X174134044Y-18919211D01*
X174130264Y-18893729D01*
X174129000Y-18868000D01*
X174129000Y-18343000D01*
X174130264Y-18317271D01*
X174134044Y-18291789D01*
X174140303Y-18266800D01*
X174148982Y-18242546D01*
X174159996Y-18219258D01*
X174173239Y-18197163D01*
X174188585Y-18176472D01*
X174205884Y-18157384D01*
X174224972Y-18140085D01*
X174245663Y-18124739D01*
X174267758Y-18111496D01*
X174291046Y-18100482D01*
X174315300Y-18091803D01*
X174340289Y-18085544D01*
X174365771Y-18081764D01*
X174391500Y-18080500D01*
X175366500Y-18080500D01*
X175392229Y-18081764D01*
X175392229Y-18081764D01*
G37*
D17*
X174879000Y-18605500D03*
D15*
X174879000Y-16065500D03*
G04 #@! TD*
M02*
