G04 #@! TF.GenerationSoftware,KiCad,Pcbnew,(5.0.0)*
G04 #@! TF.CreationDate,2019-08-30T22:53:04+01:00*
G04 #@! TF.ProjectId,A-FK,412D464B2E6B696361645F7063620000,rev?*
G04 #@! TF.SameCoordinates,Original*
G04 #@! TF.FileFunction,Copper,L1,Top,Signal*
G04 #@! TF.FilePolarity,Positive*
%FSLAX46Y46*%
G04 Gerber Fmt 4.6, Leading zero omitted, Abs format (unit mm)*
G04 Created by KiCad (PCBNEW (5.0.0)) date 08/30/19 22:53:04*
%MOMM*%
%LPD*%
G01*
G04 APERTURE LIST*
G04 #@! TA.AperFunction,ComponentPad*
%ADD10C,2.000000*%
G04 #@! TD*
G04 #@! TA.AperFunction,ComponentPad*
%ADD11C,1.400000*%
G04 #@! TD*
G04 #@! TA.AperFunction,ComponentPad*
%ADD12O,1.400000X1.400000*%
G04 #@! TD*
G04 #@! TA.AperFunction,ComponentPad*
%ADD13C,1.600000*%
G04 #@! TD*
G04 #@! TA.AperFunction,ComponentPad*
%ADD14R,1.600000X1.600000*%
G04 #@! TD*
G04 #@! TA.AperFunction,ComponentPad*
%ADD15C,1.700000*%
G04 #@! TD*
G04 #@! TA.AperFunction,ComponentPad*
%ADD16R,1.700000X1.700000*%
G04 #@! TD*
G04 #@! TA.AperFunction,ViaPad*
%ADD17C,0.800000*%
G04 #@! TD*
G04 #@! TA.AperFunction,Conductor*
%ADD18C,0.500000*%
G04 #@! TD*
G04 #@! TA.AperFunction,Conductor*
%ADD19C,0.250000*%
G04 #@! TD*
G04 APERTURE END LIST*
D10*
G04 #@! TO.P,U8,13*
G04 #@! TO.N,CRS*
X225425000Y-78740000D03*
G04 #@! TO.P,U8,12*
G04 #@! TO.N,SFD*
X225425000Y-81280000D03*
G04 #@! TO.P,U8,11*
G04 #@! TO.N,N/C*
X225425000Y-83820000D03*
G04 #@! TO.P,U8,6*
G04 #@! TO.N,CRSm*
X243840000Y-74930000D03*
G04 #@! TO.P,U8,5*
G04 #@! TO.N,N/C*
X243840000Y-77470000D03*
G04 #@! TO.P,U8,4*
G04 #@! TO.N,SFDm*
X243840000Y-80010000D03*
G04 #@! TO.P,U8,3*
G04 #@! TO.N,N/C*
X243840000Y-82550000D03*
G04 #@! TO.P,U8,2*
X243840000Y-85090000D03*
G04 #@! TO.P,U8,1*
X243840000Y-87630000D03*
G04 #@! TO.P,U8,23*
G04 #@! TO.N,Neg6v*
X230505000Y-104775000D03*
G04 #@! TO.P,U8,22*
G04 #@! TO.N,GND*
X227965000Y-104775000D03*
G04 #@! TO.P,U8,21*
G04 #@! TO.N,6v*
X225425000Y-104775000D03*
G04 #@! TD*
G04 #@! TO.P,U1,13*
G04 #@! TO.N,OTG-1*
X225425000Y-142240000D03*
G04 #@! TO.P,U1,12*
G04 #@! TO.N,Net-(U1-Pad1)*
X225425000Y-144780000D03*
G04 #@! TO.P,U1,11*
G04 #@! TO.N,OTG-2*
X225425000Y-147320000D03*
G04 #@! TO.P,U1,6*
G04 #@! TO.N,Net-(U1-Pad1)*
X243840000Y-138430000D03*
G04 #@! TO.P,U1,5*
G04 #@! TO.N,RESET-2*
X243840000Y-140970000D03*
G04 #@! TO.P,U1,4*
G04 #@! TO.N,N/C*
X243840000Y-143510000D03*
G04 #@! TO.P,U1,3*
G04 #@! TO.N,Net-(R8-Pad2)*
X243840000Y-146050000D03*
G04 #@! TO.P,U1,2*
G04 #@! TO.N,N/C*
X243840000Y-148590000D03*
G04 #@! TO.P,U1,1*
G04 #@! TO.N,Net-(U1-Pad1)*
X243840000Y-151130000D03*
G04 #@! TO.P,U1,23*
G04 #@! TO.N,Neg6v*
X230505000Y-168275000D03*
G04 #@! TO.P,U1,22*
G04 #@! TO.N,GND*
X227965000Y-168275000D03*
G04 #@! TO.P,U1,21*
G04 #@! TO.N,6v*
X225425000Y-168275000D03*
G04 #@! TD*
G04 #@! TO.P,U12,13*
G04 #@! TO.N,OTA-1*
X103505000Y-78740000D03*
G04 #@! TO.P,U12,12*
G04 #@! TO.N,Net-(U12-Pad1)*
X103505000Y-81280000D03*
G04 #@! TO.P,U12,11*
G04 #@! TO.N,OTA-2*
X103505000Y-83820000D03*
G04 #@! TO.P,U12,6*
G04 #@! TO.N,Net-(U12-Pad1)*
X121920000Y-74930000D03*
G04 #@! TO.P,U12,5*
G04 #@! TO.N,RESET-2*
X121920000Y-77470000D03*
G04 #@! TO.P,U12,4*
G04 #@! TO.N,N/C*
X121920000Y-80010000D03*
G04 #@! TO.P,U12,3*
G04 #@! TO.N,OTA-'*
X121920000Y-82550000D03*
G04 #@! TO.P,U12,2*
G04 #@! TO.N,N/C*
X121920000Y-85090000D03*
G04 #@! TO.P,U12,1*
G04 #@! TO.N,Net-(U12-Pad1)*
X121920000Y-87630000D03*
G04 #@! TO.P,U12,23*
G04 #@! TO.N,Neg6v*
X108585000Y-104775000D03*
G04 #@! TO.P,U12,22*
G04 #@! TO.N,GND*
X106045000Y-104775000D03*
G04 #@! TO.P,U12,21*
G04 #@! TO.N,6v*
X103505000Y-104775000D03*
G04 #@! TD*
G04 #@! TO.P,U11,13*
G04 #@! TO.N,GTM1*
X133985000Y-78740000D03*
G04 #@! TO.P,U11,12*
G04 #@! TO.N,Net-(U11-Pad1)*
X133985000Y-81280000D03*
G04 #@! TO.P,U11,11*
G04 #@! TO.N,GTM2*
X133985000Y-83820000D03*
G04 #@! TO.P,U11,6*
G04 #@! TO.N,Net-(U11-Pad1)*
X152400000Y-74930000D03*
G04 #@! TO.P,U11,5*
G04 #@! TO.N,t4*
X152400000Y-77470000D03*
G04 #@! TO.P,U11,4*
G04 #@! TO.N,N/C*
X152400000Y-80010000D03*
G04 #@! TO.P,U11,3*
G04 #@! TO.N,GTMa*
X152400000Y-82550000D03*
G04 #@! TO.P,U11,2*
G04 #@! TO.N,N/C*
X152400000Y-85090000D03*
G04 #@! TO.P,U11,1*
G04 #@! TO.N,Net-(U11-Pad1)*
X152400000Y-87630000D03*
G04 #@! TO.P,U11,23*
G04 #@! TO.N,Neg6v*
X139065000Y-104775000D03*
G04 #@! TO.P,U11,22*
G04 #@! TO.N,GND*
X136525000Y-104775000D03*
G04 #@! TO.P,U11,21*
G04 #@! TO.N,6v*
X133985000Y-104775000D03*
G04 #@! TD*
G04 #@! TO.P,U14,13*
G04 #@! TO.N,OTQ-2*
X42545000Y-78740000D03*
G04 #@! TO.P,U14,12*
G04 #@! TO.N,Net-(U14-Pad1)*
X42545000Y-81280000D03*
G04 #@! TO.P,U14,11*
G04 #@! TO.N,OTQ-1*
X42545000Y-83820000D03*
G04 #@! TO.P,U14,6*
G04 #@! TO.N,Net-(U14-Pad1)*
X60960000Y-74930000D03*
G04 #@! TO.P,U14,5*
G04 #@! TO.N,RESET-2*
X60960000Y-77470000D03*
G04 #@! TO.P,U14,4*
G04 #@! TO.N,N/C*
X60960000Y-80010000D03*
G04 #@! TO.P,U14,3*
G04 #@! TO.N,Net-(R3-Pad2)*
X60960000Y-82550000D03*
G04 #@! TO.P,U14,2*
G04 #@! TO.N,N/C*
X60960000Y-85090000D03*
G04 #@! TO.P,U14,1*
G04 #@! TO.N,Net-(U14-Pad1)*
X60960000Y-87630000D03*
G04 #@! TO.P,U14,23*
G04 #@! TO.N,Neg6v*
X47625000Y-104775000D03*
G04 #@! TO.P,U14,22*
G04 #@! TO.N,GND*
X45085000Y-104775000D03*
G04 #@! TO.P,U14,21*
G04 #@! TO.N,6v*
X42545000Y-104775000D03*
G04 #@! TD*
G04 #@! TO.P,U13,13*
G04 #@! TO.N,GTQ2*
X73025000Y-78740000D03*
G04 #@! TO.P,U13,12*
G04 #@! TO.N,Net-(U13-Pad1)*
X73025000Y-81280000D03*
G04 #@! TO.P,U13,11*
G04 #@! TO.N,GTQ1*
X73025000Y-83820000D03*
G04 #@! TO.P,U13,6*
G04 #@! TO.N,Net-(U13-Pad1)*
X91440000Y-74930000D03*
G04 #@! TO.P,U13,5*
G04 #@! TO.N,t4*
X91440000Y-77470000D03*
G04 #@! TO.P,U13,4*
G04 #@! TO.N,N/C*
X91440000Y-80010000D03*
G04 #@! TO.P,U13,3*
G04 #@! TO.N,GTQa*
X91440000Y-82550000D03*
G04 #@! TO.P,U13,2*
G04 #@! TO.N,N/C*
X91440000Y-85090000D03*
G04 #@! TO.P,U13,1*
G04 #@! TO.N,Net-(U13-Pad1)*
X91440000Y-87630000D03*
G04 #@! TO.P,U13,23*
G04 #@! TO.N,Neg6v*
X78105000Y-104775000D03*
G04 #@! TO.P,U13,22*
G04 #@! TO.N,GND*
X75565000Y-104775000D03*
G04 #@! TO.P,U13,21*
G04 #@! TO.N,6v*
X73025000Y-104775000D03*
G04 #@! TD*
D11*
G04 #@! TO.P,R3,1*
G04 #@! TO.N,6v*
X56692800Y-150063000D03*
D12*
G04 #@! TO.P,R3,2*
G04 #@! TO.N,Net-(R3-Pad2)*
X49072800Y-150063000D03*
G04 #@! TD*
D11*
G04 #@! TO.P,R4,1*
G04 #@! TO.N,6v*
X56642000Y-144729000D03*
D12*
G04 #@! TO.P,R4,2*
G04 #@! TO.N,OTA-'*
X49022000Y-144729000D03*
G04 #@! TD*
D11*
G04 #@! TO.P,R5,1*
G04 #@! TO.N,6v*
X56616600Y-139675000D03*
D12*
G04 #@! TO.P,R5,2*
G04 #@! TO.N,OTJ-'*
X48996600Y-139675000D03*
G04 #@! TD*
D11*
G04 #@! TO.P,R6,1*
G04 #@! TO.N,6v*
X85394800Y-149962000D03*
D12*
G04 #@! TO.P,R6,2*
G04 #@! TO.N,Net-(R6-Pad2)*
X77774800Y-149962000D03*
G04 #@! TD*
D11*
G04 #@! TO.P,R7,1*
G04 #@! TO.N,6v*
X85445600Y-144805000D03*
D12*
G04 #@! TO.P,R7,2*
G04 #@! TO.N,Net-(R7-Pad2)*
X77825600Y-144805000D03*
G04 #@! TD*
D11*
G04 #@! TO.P,R8,1*
G04 #@! TO.N,6v*
X85293200Y-139319000D03*
D12*
G04 #@! TO.P,R8,2*
G04 #@! TO.N,Net-(R8-Pad2)*
X77673200Y-139319000D03*
G04 #@! TD*
D11*
G04 #@! TO.P,R9,1*
G04 #@! TO.N,6v*
X77825600Y-154102000D03*
D12*
G04 #@! TO.P,R9,2*
G04 #@! TO.N,OTMa*
X85445600Y-154102000D03*
G04 #@! TD*
D11*
G04 #@! TO.P,R10,1*
G04 #@! TO.N,6v*
X108382000Y-150774000D03*
D12*
G04 #@! TO.P,R10,2*
G04 #@! TO.N,GTAa*
X116002000Y-150774000D03*
G04 #@! TD*
D11*
G04 #@! TO.P,R11,1*
G04 #@! TO.N,6v*
X200101000Y-151003000D03*
D12*
G04 #@! TO.P,R11,2*
G04 #@! TO.N,GTJa*
X207721000Y-151003000D03*
G04 #@! TD*
D11*
G04 #@! TO.P,R12,1*
G04 #@! TO.N,6v*
X139167000Y-89763600D03*
D12*
G04 #@! TO.P,R12,2*
G04 #@! TO.N,GTMa*
X146787000Y-89763600D03*
G04 #@! TD*
D11*
G04 #@! TO.P,R13,1*
G04 #@! TO.N,6v*
X78359000Y-88417400D03*
D12*
G04 #@! TO.P,R13,2*
G04 #@! TO.N,GTQa*
X85979000Y-88417400D03*
G04 #@! TD*
D11*
G04 #@! TO.P,R14,1*
G04 #@! TO.N,6v*
X170332000Y-150724000D03*
D12*
G04 #@! TO.P,R14,2*
G04 #@! TO.N,WTMa*
X177952000Y-150724000D03*
G04 #@! TD*
D10*
G04 #@! TO.P,U2,13*
G04 #@! TO.N,GTJ1*
X194945000Y-142240000D03*
G04 #@! TO.P,U2,12*
G04 #@! TO.N,Net-(U2-Pad1)*
X194945000Y-144780000D03*
G04 #@! TO.P,U2,11*
G04 #@! TO.N,GTJ2*
X194945000Y-147320000D03*
G04 #@! TO.P,U2,6*
G04 #@! TO.N,Net-(U2-Pad1)*
X213360000Y-138430000D03*
G04 #@! TO.P,U2,5*
G04 #@! TO.N,t4*
X213360000Y-140970000D03*
G04 #@! TO.P,U2,4*
G04 #@! TO.N,N/C*
X213360000Y-143510000D03*
G04 #@! TO.P,U2,3*
G04 #@! TO.N,GTJa*
X213360000Y-146050000D03*
G04 #@! TO.P,U2,2*
G04 #@! TO.N,N/C*
X213360000Y-148590000D03*
G04 #@! TO.P,U2,1*
G04 #@! TO.N,Net-(U2-Pad1)*
X213360000Y-151130000D03*
G04 #@! TO.P,U2,23*
G04 #@! TO.N,Neg6v*
X200025000Y-168275000D03*
G04 #@! TO.P,U2,22*
G04 #@! TO.N,GND*
X197485000Y-168275000D03*
G04 #@! TO.P,U2,21*
G04 #@! TO.N,6v*
X194945000Y-168275000D03*
G04 #@! TD*
G04 #@! TO.P,U3,13*
G04 #@! TO.N,WTM1*
X164465000Y-142240000D03*
G04 #@! TO.P,U3,12*
G04 #@! TO.N,Net-(U3-Pad1)*
X164465000Y-144780000D03*
G04 #@! TO.P,U3,11*
G04 #@! TO.N,WTM2*
X164465000Y-147320000D03*
G04 #@! TO.P,U3,6*
G04 #@! TO.N,Net-(U3-Pad1)*
X182880000Y-138430000D03*
G04 #@! TO.P,U3,5*
G04 #@! TO.N,t4*
X182880000Y-140970000D03*
G04 #@! TO.P,U3,4*
G04 #@! TO.N,N/C*
X182880000Y-143510000D03*
G04 #@! TO.P,U3,3*
G04 #@! TO.N,WTMa*
X182880000Y-146050000D03*
G04 #@! TO.P,U3,2*
G04 #@! TO.N,N/C*
X182880000Y-148590000D03*
G04 #@! TO.P,U3,1*
G04 #@! TO.N,Net-(U3-Pad1)*
X182880000Y-151130000D03*
G04 #@! TO.P,U3,23*
G04 #@! TO.N,Neg6v*
X169545000Y-168275000D03*
G04 #@! TO.P,U3,22*
G04 #@! TO.N,GND*
X167005000Y-168275000D03*
G04 #@! TO.P,U3,21*
G04 #@! TO.N,6v*
X164465000Y-168275000D03*
G04 #@! TD*
G04 #@! TO.P,U4,13*
G04 #@! TO.N,OTP-1*
X133985000Y-142240000D03*
G04 #@! TO.P,U4,12*
G04 #@! TO.N,Net-(U4-Pad1)*
X133985000Y-144780000D03*
G04 #@! TO.P,U4,11*
G04 #@! TO.N,OTP-2*
X133985000Y-147320000D03*
G04 #@! TO.P,U4,6*
G04 #@! TO.N,Net-(U4-Pad1)*
X152400000Y-138430000D03*
G04 #@! TO.P,U4,5*
G04 #@! TO.N,RESET-2*
X152400000Y-140970000D03*
G04 #@! TO.P,U4,4*
G04 #@! TO.N,N/C*
X152400000Y-143510000D03*
G04 #@! TO.P,U4,3*
G04 #@! TO.N,Net-(R7-Pad2)*
X152400000Y-146050000D03*
G04 #@! TO.P,U4,2*
G04 #@! TO.N,N/C*
X152400000Y-148590000D03*
G04 #@! TO.P,U4,1*
G04 #@! TO.N,Net-(U4-Pad1)*
X152400000Y-151130000D03*
G04 #@! TO.P,U4,23*
G04 #@! TO.N,Neg6v*
X139065000Y-168275000D03*
G04 #@! TO.P,U4,22*
G04 #@! TO.N,GND*
X136525000Y-168275000D03*
G04 #@! TO.P,U4,21*
G04 #@! TO.N,6v*
X133985000Y-168275000D03*
G04 #@! TD*
G04 #@! TO.P,U5,13*
G04 #@! TO.N,GTA2*
X103505000Y-142240000D03*
G04 #@! TO.P,U5,12*
G04 #@! TO.N,Net-(U5-Pad1)*
X103505000Y-144780000D03*
G04 #@! TO.P,U5,11*
G04 #@! TO.N,GTA1*
X103505000Y-147320000D03*
G04 #@! TO.P,U5,6*
G04 #@! TO.N,Net-(U5-Pad1)*
X121920000Y-138430000D03*
G04 #@! TO.P,U5,5*
G04 #@! TO.N,t4*
X121920000Y-140970000D03*
G04 #@! TO.P,U5,4*
G04 #@! TO.N,N/C*
X121920000Y-143510000D03*
G04 #@! TO.P,U5,3*
G04 #@! TO.N,GTAa*
X121920000Y-146050000D03*
G04 #@! TO.P,U5,2*
G04 #@! TO.N,N/C*
X121920000Y-148590000D03*
G04 #@! TO.P,U5,1*
G04 #@! TO.N,Net-(U5-Pad1)*
X121920000Y-151130000D03*
G04 #@! TO.P,U5,23*
G04 #@! TO.N,Neg6v*
X108585000Y-168275000D03*
G04 #@! TO.P,U5,22*
G04 #@! TO.N,GND*
X106045000Y-168275000D03*
G04 #@! TO.P,U5,21*
G04 #@! TO.N,6v*
X103505000Y-168275000D03*
G04 #@! TD*
G04 #@! TO.P,U6,13*
G04 #@! TO.N,Net-(R8-Pad2)*
X73025000Y-142240000D03*
G04 #@! TO.P,U6,12*
G04 #@! TO.N,Net-(R7-Pad2)*
X73025000Y-144780000D03*
G04 #@! TO.P,U6,11*
G04 #@! TO.N,Net-(R6-Pad2)*
X73025000Y-147320000D03*
G04 #@! TO.P,U6,6*
G04 #@! TO.N,t1*
X91440000Y-138430000D03*
G04 #@! TO.P,U6,5*
G04 #@! TO.N,N/C*
X91440000Y-140970000D03*
G04 #@! TO.P,U6,4*
G04 #@! TO.N,t1*
X91440000Y-143510000D03*
G04 #@! TO.P,U6,3*
G04 #@! TO.N,MTPa*
X91440000Y-146050000D03*
G04 #@! TO.P,U6,2*
G04 #@! TO.N,t3-2*
X91440000Y-148590000D03*
G04 #@! TO.P,U6,1*
G04 #@! TO.N,OTMa*
X91440000Y-151130000D03*
G04 #@! TO.P,U6,23*
G04 #@! TO.N,Neg6v*
X78105000Y-168275000D03*
G04 #@! TO.P,U6,22*
G04 #@! TO.N,GND*
X75565000Y-168275000D03*
G04 #@! TO.P,U6,21*
G04 #@! TO.N,6v*
X73025000Y-168275000D03*
G04 #@! TD*
G04 #@! TO.P,U7,13*
G04 #@! TO.N,OTJ-'*
X42545000Y-142240000D03*
G04 #@! TO.P,U7,12*
G04 #@! TO.N,OTA-'*
X42545000Y-144780000D03*
G04 #@! TO.P,U7,11*
G04 #@! TO.N,Net-(R3-Pad2)*
X42545000Y-147320000D03*
G04 #@! TO.P,U7,6*
G04 #@! TO.N,t3-2*
X60960000Y-138430000D03*
G04 #@! TO.P,U7,5*
G04 #@! TO.N,GTJa*
X60960000Y-140970000D03*
G04 #@! TO.P,U7,4*
G04 #@! TO.N,t3-2*
X60960000Y-143510000D03*
G04 #@! TO.P,U7,3*
G04 #@! TO.N,GTAa*
X60960000Y-146050000D03*
G04 #@! TO.P,U7,2*
G04 #@! TO.N,t3-2*
X60960000Y-148590000D03*
G04 #@! TO.P,U7,1*
G04 #@! TO.N,GTQa*
X60960000Y-151130000D03*
G04 #@! TO.P,U7,23*
G04 #@! TO.N,Neg6v*
X47625000Y-168275000D03*
G04 #@! TO.P,U7,22*
G04 #@! TO.N,GND*
X45085000Y-168275000D03*
G04 #@! TO.P,U7,21*
G04 #@! TO.N,6v*
X42545000Y-168275000D03*
G04 #@! TD*
G04 #@! TO.P,U9,13*
G04 #@! TO.N,OTJ-1*
X194945000Y-78740000D03*
G04 #@! TO.P,U9,12*
G04 #@! TO.N,Net-(U9-Pad1)*
X194945000Y-81280000D03*
G04 #@! TO.P,U9,11*
G04 #@! TO.N,OTJ-2*
X194945000Y-83820000D03*
G04 #@! TO.P,U9,6*
G04 #@! TO.N,Net-(U9-Pad1)*
X213360000Y-74930000D03*
G04 #@! TO.P,U9,5*
G04 #@! TO.N,RESET-2*
X213360000Y-77470000D03*
G04 #@! TO.P,U9,4*
G04 #@! TO.N,N/C*
X213360000Y-80010000D03*
G04 #@! TO.P,U9,3*
G04 #@! TO.N,OTJ-'*
X213360000Y-82550000D03*
G04 #@! TO.P,U9,2*
G04 #@! TO.N,N/C*
X213360000Y-85090000D03*
G04 #@! TO.P,U9,1*
G04 #@! TO.N,Net-(U9-Pad1)*
X213360000Y-87630000D03*
G04 #@! TO.P,U9,23*
G04 #@! TO.N,Neg6v*
X200025000Y-104775000D03*
G04 #@! TO.P,U9,22*
G04 #@! TO.N,GND*
X197485000Y-104775000D03*
G04 #@! TO.P,U9,21*
G04 #@! TO.N,6v*
X194945000Y-104775000D03*
G04 #@! TD*
G04 #@! TO.P,U10,13*
G04 #@! TO.N,OTM-1*
X164465000Y-78740000D03*
G04 #@! TO.P,U10,12*
G04 #@! TO.N,Net-(U10-Pad1)*
X164465000Y-81280000D03*
G04 #@! TO.P,U10,11*
G04 #@! TO.N,OTM-2*
X164465000Y-83820000D03*
G04 #@! TO.P,U10,6*
G04 #@! TO.N,Net-(U10-Pad1)*
X182880000Y-74930000D03*
G04 #@! TO.P,U10,5*
G04 #@! TO.N,RESET-2*
X182880000Y-77470000D03*
G04 #@! TO.P,U10,4*
G04 #@! TO.N,N/C*
X182880000Y-80010000D03*
G04 #@! TO.P,U10,3*
G04 #@! TO.N,Net-(R6-Pad2)*
X182880000Y-82550000D03*
G04 #@! TO.P,U10,2*
G04 #@! TO.N,N/C*
X182880000Y-85090000D03*
G04 #@! TO.P,U10,1*
G04 #@! TO.N,Net-(U10-Pad1)*
X182880000Y-87630000D03*
G04 #@! TO.P,U10,23*
G04 #@! TO.N,Neg6v*
X169545000Y-104775000D03*
G04 #@! TO.P,U10,22*
G04 #@! TO.N,GND*
X167005000Y-104775000D03*
G04 #@! TO.P,U10,21*
G04 #@! TO.N,6v*
X164465000Y-104775000D03*
G04 #@! TD*
D13*
G04 #@! TO.P,C1,2*
G04 #@! TO.N,GND*
X243800000Y-33020000D03*
D14*
G04 #@! TO.P,C1,1*
G04 #@! TO.N,6v*
X241300000Y-33020000D03*
G04 #@! TD*
D13*
G04 #@! TO.P,C2,2*
G04 #@! TO.N,Neg6v*
X231100000Y-33020000D03*
D14*
G04 #@! TO.P,C2,1*
G04 #@! TO.N,GND*
X228600000Y-33020000D03*
G04 #@! TD*
D15*
G04 #@! TO.P,J1,AL*
G04 #@! TO.N,GND*
X39605000Y-33401000D03*
G04 #@! TO.P,J1,32*
X39605000Y-30861000D03*
G04 #@! TO.P,J1,AK*
G04 #@! TO.N,Neg6v*
X42145000Y-33401000D03*
G04 #@! TO.P,J1,31*
X42145000Y-30861000D03*
G04 #@! TO.P,J1,AJ*
G04 #@! TO.N,N/C*
X44685000Y-33401000D03*
G04 #@! TO.P,J1,30*
X44685000Y-30861000D03*
G04 #@! TO.P,J1,AH*
G04 #@! TO.N,RESET-2*
X47225000Y-33401000D03*
G04 #@! TO.P,J1,29*
G04 #@! TO.N,OTQ-1*
X47225000Y-30861000D03*
G04 #@! TO.P,J1,AF*
G04 #@! TO.N,t1*
X49765000Y-33401000D03*
G04 #@! TO.P,J1,28*
G04 #@! TO.N,GTQ2*
X49765000Y-30861000D03*
G04 #@! TO.P,J1,AE*
G04 #@! TO.N,t3-2*
X52305000Y-33401000D03*
G04 #@! TO.P,J1,27*
G04 #@! TO.N,GTQ1*
X52305000Y-30861000D03*
G04 #@! TO.P,J1,AD*
G04 #@! TO.N,t4*
X54845000Y-33401000D03*
G04 #@! TO.P,J1,26*
G04 #@! TO.N,OTA-2*
X54845000Y-30861000D03*
G04 #@! TO.P,J1,AC*
G04 #@! TO.N,GTQa*
X57385000Y-33401000D03*
G04 #@! TO.P,J1,25*
G04 #@! TO.N,OTA-1*
X57385000Y-30861000D03*
G04 #@! TO.P,J1,AB*
G04 #@! TO.N,OTQ-2*
X59925000Y-33401000D03*
G04 #@! TO.P,J1,24*
G04 #@! TO.N,GTA2*
X59925000Y-30861000D03*
G04 #@! TO.P,J1,AA*
G04 #@! TO.N,GTAa*
X62465000Y-33401000D03*
G04 #@! TO.P,J1,23*
G04 #@! TO.N,GTA1*
X62465000Y-30861000D03*
G04 #@! TO.P,J1,Z*
G04 #@! TO.N,OTA-'*
X65005000Y-33401000D03*
G04 #@! TO.P,J1,22*
G04 #@! TO.N,OTP-2*
X65005000Y-30861000D03*
G04 #@! TO.P,J1,Y*
G04 #@! TO.N,MTPa*
X67545000Y-33401000D03*
G04 #@! TO.P,J1,21*
G04 #@! TO.N,OTP-1*
X67545000Y-30861000D03*
G04 #@! TO.P,J1,X*
G04 #@! TO.N,N/C*
X70085000Y-33401000D03*
G04 #@! TO.P,J1,20*
G04 #@! TO.N,GTM2*
X70085000Y-30861000D03*
G04 #@! TO.P,J1,W*
G04 #@! TO.N,GTMa*
X72625000Y-33401000D03*
G04 #@! TO.P,J1,19*
G04 #@! TO.N,GTM1*
X72625000Y-30861000D03*
G04 #@! TO.P,J1,V*
G04 #@! TO.N,N/C*
X75165000Y-33401000D03*
G04 #@! TO.P,J1,18*
G04 #@! TO.N,WTM2*
X75165000Y-30861000D03*
G04 #@! TO.P,J1,U*
G04 #@! TO.N,WTMa*
X77705000Y-33401000D03*
G04 #@! TO.P,J1,17*
G04 #@! TO.N,WTM1*
X77705000Y-30861000D03*
G04 #@! TO.P,J1,T*
G04 #@! TO.N,N/C*
X80245000Y-33401000D03*
G04 #@! TO.P,J1,16*
G04 #@! TO.N,OTM-2*
X80245000Y-30861000D03*
G04 #@! TO.P,J1,S*
G04 #@! TO.N,OTMa*
X82785000Y-33401000D03*
G04 #@! TO.P,J1,15*
G04 #@! TO.N,OTM-1*
X82785000Y-30861000D03*
G04 #@! TO.P,J1,R*
G04 #@! TO.N,N/C*
X85325000Y-33401000D03*
G04 #@! TO.P,J1,14*
G04 #@! TO.N,GTJ2*
X85325000Y-30861000D03*
G04 #@! TO.P,J1,P*
G04 #@! TO.N,GTJa*
X87865000Y-33401000D03*
G04 #@! TO.P,J1,13*
G04 #@! TO.N,GTJ1*
X87865000Y-30861000D03*
G04 #@! TO.P,J1,N*
G04 #@! TO.N,N/C*
X90405000Y-33401000D03*
G04 #@! TO.P,J1,12*
G04 #@! TO.N,OTJ-2*
X90405000Y-30861000D03*
G04 #@! TO.P,J1,M*
G04 #@! TO.N,OTJ-'*
X92945000Y-33401000D03*
G04 #@! TO.P,J1,11*
G04 #@! TO.N,OTJ-1*
X92945000Y-30861000D03*
G04 #@! TO.P,J1,L*
G04 #@! TO.N,N/C*
X95485000Y-33401000D03*
G04 #@! TO.P,J1,10*
G04 #@! TO.N,OTG-2*
X95485000Y-30861000D03*
G04 #@! TO.P,J1,K*
G04 #@! TO.N,N/C*
X98025000Y-33401000D03*
G04 #@! TO.P,J1,9*
G04 #@! TO.N,OTG-1*
X98025000Y-30861000D03*
G04 #@! TO.P,J1,J*
G04 #@! TO.N,N/C*
X100565000Y-33401000D03*
G04 #@! TO.P,J1,8*
X100565000Y-30861000D03*
G04 #@! TO.P,J1,H*
X103105000Y-33401000D03*
G04 #@! TO.P,J1,7*
X103105000Y-30861000D03*
G04 #@! TO.P,J1,F*
G04 #@! TO.N,SFDm*
X105645000Y-33401000D03*
G04 #@! TO.P,J1,6*
G04 #@! TO.N,SFD*
X105645000Y-30861000D03*
G04 #@! TO.P,J1,E*
G04 #@! TO.N,CRSm*
X108185000Y-33401000D03*
G04 #@! TO.P,J1,5*
G04 #@! TO.N,CRS*
X108185000Y-30861000D03*
G04 #@! TO.P,J1,D*
G04 #@! TO.N,N/C*
X110725000Y-33401000D03*
G04 #@! TO.P,J1,4*
X110725000Y-30861000D03*
G04 #@! TO.P,J1,C*
X113265000Y-33401000D03*
G04 #@! TO.P,J1,3*
X113265000Y-30861000D03*
G04 #@! TO.P,J1,B*
G04 #@! TO.N,6v*
X115805000Y-33401000D03*
G04 #@! TO.P,J1,2*
X115805000Y-30861000D03*
G04 #@! TO.P,J1,A*
G04 #@! TO.N,GND*
X118345000Y-33401000D03*
D16*
G04 #@! TO.P,J1,1*
X118345000Y-30861000D03*
G04 #@! TD*
D17*
G04 #@! TO.N,GTQ2*
X55828000Y-38158800D03*
G04 #@! TO.N,GTQa*
X70398400Y-102170100D03*
G04 #@! TO.N,GTA1*
X63449300Y-41541500D03*
G04 #@! TO.N,MTPa*
X69413600Y-48556300D03*
G04 #@! TO.N,GTM2*
X127563000Y-77398000D03*
G04 #@! TO.N,GTMa*
X112828600Y-73604600D03*
G04 #@! TO.N,OTM-2*
X94950300Y-44711300D03*
G04 #@! TO.N,OTMa*
X71160200Y-50287400D03*
G04 #@! TO.N,GTJa*
X68844600Y-53871100D03*
G04 #@! TO.N,CRS*
X178721400Y-32036400D03*
G04 #@! TO.N,Net-(R6-Pad2)*
X89975500Y-101577900D03*
G04 #@! TD*
D18*
G04 #@! TO.N,6v*
X164465000Y-168275000D02*
X163014600Y-169725400D01*
X163014600Y-169725400D02*
X135435400Y-169725400D01*
X135435400Y-169725400D02*
X133985000Y-168275000D01*
X56642000Y-144729000D02*
X56616600Y-144703600D01*
X56616600Y-144703600D02*
X56616600Y-139675000D01*
X103505000Y-168275000D02*
X104955400Y-169725400D01*
X104955400Y-169725400D02*
X132534600Y-169725400D01*
X132534600Y-169725400D02*
X133985000Y-168275000D01*
X108382000Y-150774000D02*
X106569600Y-152586400D01*
X106569600Y-152586400D02*
X88019200Y-152586400D01*
X88019200Y-152586400D02*
X85394800Y-149962000D01*
X42545000Y-104775000D02*
X43996700Y-106226700D01*
X43996700Y-106226700D02*
X71573300Y-106226700D01*
X71573300Y-106226700D02*
X73025000Y-104775000D01*
X77825600Y-154102000D02*
X81965600Y-149962000D01*
X81965600Y-149962000D02*
X85394800Y-149962000D01*
X194945000Y-104775000D02*
X196395400Y-106225400D01*
X196395400Y-106225400D02*
X223974600Y-106225400D01*
X223974600Y-106225400D02*
X225425000Y-104775000D01*
G04 #@! TO.N,Neg6v*
X78105000Y-168275000D02*
X76622800Y-169757200D01*
X76622800Y-169757200D02*
X49107200Y-169757200D01*
X49107200Y-169757200D02*
X47625000Y-168275000D01*
X108585000Y-168275000D02*
X107112700Y-166802700D01*
X107112700Y-166802700D02*
X79577300Y-166802700D01*
X79577300Y-166802700D02*
X78105000Y-168275000D01*
X47625000Y-104775000D02*
X49075400Y-103324600D01*
X49075400Y-103324600D02*
X76654600Y-103324600D01*
X76654600Y-103324600D02*
X78105000Y-104775000D01*
X169545000Y-104775000D02*
X168093400Y-103323400D01*
X168093400Y-103323400D02*
X140516600Y-103323400D01*
X140516600Y-103323400D02*
X139065000Y-104775000D01*
X139065000Y-104775000D02*
X137614700Y-103324700D01*
X137614700Y-103324700D02*
X110035300Y-103324700D01*
X110035300Y-103324700D02*
X108585000Y-104775000D01*
X78105000Y-104775000D02*
X79574100Y-103305900D01*
X79574100Y-103305900D02*
X107115900Y-103305900D01*
X107115900Y-103305900D02*
X108585000Y-104775000D01*
X200025000Y-168275000D02*
X201479700Y-169729700D01*
X201479700Y-169729700D02*
X229050300Y-169729700D01*
X229050300Y-169729700D02*
X230505000Y-168275000D01*
X200025000Y-168275000D02*
X198573800Y-169726200D01*
X198573800Y-169726200D02*
X170996200Y-169726200D01*
X170996200Y-169726200D02*
X169545000Y-168275000D01*
X139065000Y-168275000D02*
X140516000Y-166824000D01*
X140516000Y-166824000D02*
X168094000Y-166824000D01*
X168094000Y-166824000D02*
X169545000Y-168275000D01*
X200025000Y-104775000D02*
X201493000Y-103307000D01*
X201493000Y-103307000D02*
X229037000Y-103307000D01*
X229037000Y-103307000D02*
X230505000Y-104775000D01*
G04 #@! TO.N,GND*
X167005000Y-104775000D02*
X168466600Y-106236600D01*
X168466600Y-106236600D02*
X192603800Y-106236600D01*
X192603800Y-106236600D02*
X193449100Y-105391300D01*
X136525000Y-104775000D02*
X137975400Y-106225400D01*
X137975400Y-106225400D02*
X165554600Y-106225400D01*
X165554600Y-106225400D02*
X167005000Y-104775000D01*
X106045000Y-104775000D02*
X107530400Y-106260400D01*
X107530400Y-106260400D02*
X135039600Y-106260400D01*
X135039600Y-106260400D02*
X136525000Y-104775000D01*
X75565000Y-104775000D02*
X77015400Y-106225400D01*
X77015400Y-106225400D02*
X104594600Y-106225400D01*
X104594600Y-106225400D02*
X106045000Y-104775000D01*
X58013700Y-155346300D02*
X45085000Y-168275000D01*
X58013700Y-122326300D02*
X58013700Y-155346300D01*
X58013700Y-155346300D02*
X68407900Y-165740500D01*
X68407900Y-165740500D02*
X73030500Y-165740500D01*
X73030500Y-165740500D02*
X75565000Y-168275000D01*
X58013700Y-122326300D02*
X75565000Y-104775000D01*
X41089600Y-103316000D02*
X41089600Y-105402200D01*
X41089600Y-105402200D02*
X58013700Y-122326300D01*
X41089600Y-103316000D02*
X43626000Y-103316000D01*
X43626000Y-103316000D02*
X45085000Y-104775000D01*
X39605000Y-33401000D02*
X39605000Y-101831400D01*
X39605000Y-101831400D02*
X41089600Y-103316000D01*
X39605000Y-30861000D02*
X39605000Y-33401000D01*
X118345000Y-30861000D02*
X117018500Y-29534500D01*
X117018500Y-29534500D02*
X40931500Y-29534500D01*
X40931500Y-29534500D02*
X39605000Y-30861000D01*
X193449100Y-105391300D02*
X193449100Y-104204000D01*
X193449100Y-104204000D02*
X194372500Y-103280600D01*
X194372500Y-103280600D02*
X195990600Y-103280600D01*
X195990600Y-103280600D02*
X197485000Y-104775000D01*
X227965000Y-104775000D02*
X225786600Y-106953400D01*
X225786600Y-106953400D02*
X195011200Y-106953400D01*
X195011200Y-106953400D02*
X193449100Y-105391300D01*
X228600000Y-33020000D02*
X229850400Y-34270400D01*
X229850400Y-34270400D02*
X242549600Y-34270400D01*
X242549600Y-34270400D02*
X243800000Y-33020000D01*
D19*
G04 #@! TO.N,RESET-2*
X127973200Y-83523200D02*
X121920000Y-77470000D01*
X182880000Y-77470000D02*
X171375500Y-88974500D01*
X171375500Y-88974500D02*
X149602100Y-88974500D01*
X149602100Y-88974500D02*
X146996100Y-86368500D01*
X146996100Y-86368500D02*
X130818500Y-86368500D01*
X130818500Y-86368500D02*
X127973200Y-83523200D01*
X60960000Y-77470000D02*
X69340300Y-85850300D01*
X69340300Y-85850300D02*
X85900400Y-85850300D01*
X85900400Y-85850300D02*
X89060800Y-89010700D01*
X89060800Y-89010700D02*
X122485700Y-89010700D01*
X122485700Y-89010700D02*
X127973200Y-83523200D01*
X213360000Y-77470000D02*
X241393900Y-105503900D01*
X241393900Y-105503900D02*
X241393900Y-138523900D01*
X241393900Y-138523900D02*
X243840000Y-140970000D01*
G04 #@! TO.N,OTQ-1*
X47225000Y-30861000D02*
X45955000Y-32131000D01*
X45955000Y-32131000D02*
X45955000Y-33848500D01*
X45955000Y-33848500D02*
X41132900Y-38670600D01*
X41132900Y-38670600D02*
X41132900Y-82407900D01*
X41132900Y-82407900D02*
X42545000Y-83820000D01*
G04 #@! TO.N,GTQ2*
X49765000Y-30861000D02*
X51035000Y-32131000D01*
X51035000Y-32131000D02*
X51035000Y-33819900D01*
X51035000Y-33819900D02*
X55373900Y-38158800D01*
X55373900Y-38158800D02*
X55828000Y-38158800D01*
G04 #@! TO.N,t3-2*
X60960000Y-143510000D02*
X68478300Y-151028300D01*
X68478300Y-151028300D02*
X78209100Y-151028300D01*
X78209100Y-151028300D02*
X80647400Y-148590000D01*
X80647400Y-148590000D02*
X91440000Y-148590000D01*
G04 #@! TO.N,t4*
X54845000Y-33401000D02*
X56020400Y-32225600D01*
X56020400Y-32225600D02*
X60450600Y-32225600D01*
X60450600Y-32225600D02*
X61195000Y-32970000D01*
X61195000Y-32970000D02*
X61195000Y-47248400D01*
X61195000Y-47248400D02*
X86799200Y-72852600D01*
X86799200Y-72852600D02*
X92797800Y-72852600D01*
X92797800Y-72852600D02*
X92797800Y-76112200D01*
X92797800Y-76112200D02*
X91440000Y-77470000D01*
X92797800Y-72852600D02*
X147782600Y-72852600D01*
X147782600Y-72852600D02*
X152400000Y-77470000D01*
X121920000Y-140970000D02*
X133449700Y-152499700D01*
X133449700Y-152499700D02*
X152914300Y-152499700D01*
X152914300Y-152499700D02*
X162169900Y-143244100D01*
X162169900Y-143244100D02*
X162169900Y-142608200D01*
X162169900Y-142608200D02*
X163869600Y-140908500D01*
X163869600Y-140908500D02*
X182880000Y-140908500D01*
X182880000Y-140908500D02*
X182880000Y-140970000D01*
X182880000Y-140908500D02*
X213298500Y-140908500D01*
X213298500Y-140908500D02*
X213360000Y-140970000D01*
G04 #@! TO.N,GTQa*
X85979000Y-88417400D02*
X84953700Y-88417400D01*
X84953700Y-88417400D02*
X71201000Y-102170100D01*
X71201000Y-102170100D02*
X70398400Y-102170100D01*
G04 #@! TO.N,OTQ-2*
X59925000Y-33401000D02*
X59925000Y-61360000D01*
X59925000Y-61360000D02*
X42545000Y-78740000D01*
G04 #@! TO.N,GTAa*
X116002000Y-150774000D02*
X114976700Y-150774000D01*
X114976700Y-150774000D02*
X110579400Y-155171300D01*
X110579400Y-155171300D02*
X70081300Y-155171300D01*
X70081300Y-155171300D02*
X60960000Y-146050000D01*
G04 #@! TO.N,GTA1*
X62465000Y-30861000D02*
X63663600Y-32059600D01*
X63663600Y-32059600D02*
X63663600Y-41327200D01*
X63663600Y-41327200D02*
X63449300Y-41541500D01*
G04 #@! TO.N,OTA-'*
X49022000Y-144729000D02*
X47996700Y-144729000D01*
X42545000Y-144780000D02*
X47945700Y-144780000D01*
X47945700Y-144780000D02*
X47996700Y-144729000D01*
G04 #@! TO.N,MTPa*
X67545000Y-33401000D02*
X69413600Y-35269600D01*
X69413600Y-35269600D02*
X69413600Y-48556300D01*
G04 #@! TO.N,GTM2*
X133985000Y-83820000D02*
X127563000Y-77398000D01*
G04 #@! TO.N,GTMa*
X152400000Y-82550000D02*
X143454600Y-73604600D01*
X143454600Y-73604600D02*
X112828600Y-73604600D01*
G04 #@! TO.N,OTM-2*
X164465000Y-83820000D02*
X152917200Y-72272200D01*
X152917200Y-72272200D02*
X122511200Y-72272200D01*
X122511200Y-72272200D02*
X94950300Y-44711300D01*
G04 #@! TO.N,OTMa*
X82785000Y-33401000D02*
X82785000Y-38662600D01*
X82785000Y-38662600D02*
X71160200Y-50287400D01*
G04 #@! TO.N,OTM-1*
X82785000Y-30861000D02*
X84149600Y-32225600D01*
X84149600Y-32225600D02*
X88390600Y-32225600D01*
X88390600Y-32225600D02*
X89135000Y-32970000D01*
X89135000Y-32970000D02*
X89135000Y-33812200D01*
X89135000Y-33812200D02*
X114037100Y-58714300D01*
X114037100Y-58714300D02*
X144439300Y-58714300D01*
X144439300Y-58714300D02*
X164465000Y-78740000D01*
G04 #@! TO.N,GTJa*
X87865000Y-33401000D02*
X87865000Y-34850700D01*
X87865000Y-34850700D02*
X68844600Y-53871100D01*
X60960000Y-140970000D02*
X59627100Y-142302900D01*
X59627100Y-142302900D02*
X59627100Y-151721800D01*
X59627100Y-151721800D02*
X63527000Y-155621700D01*
X63527000Y-155621700D02*
X202077000Y-155621700D01*
X202077000Y-155621700D02*
X206695700Y-151003000D01*
X207721000Y-151003000D02*
X206695700Y-151003000D01*
G04 #@! TO.N,OTJ-2*
X194945000Y-83820000D02*
X169388900Y-58263900D01*
X169388900Y-58263900D02*
X116133000Y-58263900D01*
X116133000Y-58263900D02*
X91675000Y-33805900D01*
X91675000Y-33805900D02*
X91675000Y-32131000D01*
X91675000Y-32131000D02*
X90405000Y-30861000D01*
G04 #@! TO.N,OTJ-'*
X48996600Y-139675000D02*
X45110000Y-139675000D01*
X45110000Y-139675000D02*
X42545000Y-142240000D01*
G04 #@! TO.N,OTJ-1*
X92945000Y-30861000D02*
X94309600Y-32225600D01*
X94309600Y-32225600D02*
X96010600Y-32225600D01*
X96010600Y-32225600D02*
X96755000Y-32970000D01*
X96755000Y-32970000D02*
X96755000Y-33873700D01*
X96755000Y-33873700D02*
X103943600Y-41062300D01*
X103943600Y-41062300D02*
X157267300Y-41062300D01*
X157267300Y-41062300D02*
X194945000Y-78740000D01*
G04 #@! TO.N,SFDm*
X243840000Y-80010000D02*
X200687100Y-36857100D01*
X200687100Y-36857100D02*
X109101100Y-36857100D01*
X109101100Y-36857100D02*
X105645000Y-33401000D01*
G04 #@! TO.N,SFD*
X105645000Y-30861000D02*
X104446300Y-32059700D01*
X104446300Y-32059700D02*
X104446300Y-33891600D01*
X104446300Y-33891600D02*
X107862200Y-37307500D01*
X107862200Y-37307500D02*
X181452500Y-37307500D01*
X181452500Y-37307500D02*
X225425000Y-81280000D01*
G04 #@! TO.N,CRSm*
X243840000Y-74930000D02*
X203755800Y-34845800D01*
X203755800Y-34845800D02*
X109629800Y-34845800D01*
X109629800Y-34845800D02*
X108185000Y-33401000D01*
G04 #@! TO.N,CRS*
X108185000Y-30861000D02*
X109360400Y-32036400D01*
X109360400Y-32036400D02*
X178721400Y-32036400D01*
G04 #@! TO.N,Net-(R6-Pad2)*
X89975500Y-101577900D02*
X163852100Y-101577900D01*
X163852100Y-101577900D02*
X182880000Y-82550000D01*
X77774800Y-149962000D02*
X75667000Y-149962000D01*
X75667000Y-149962000D02*
X73025000Y-147320000D01*
G04 #@! TO.N,Net-(R7-Pad2)*
X77825600Y-144805000D02*
X76800300Y-144805000D01*
X76799000Y-144780000D02*
X76799000Y-144362400D01*
X76799000Y-144362400D02*
X84101200Y-137060200D01*
X84101200Y-137060200D02*
X143410200Y-137060200D01*
X143410200Y-137060200D02*
X152400000Y-146050000D01*
X76800300Y-144805000D02*
X76800300Y-144781300D01*
X76800300Y-144781300D02*
X76799000Y-144780000D01*
X76799000Y-144780000D02*
X73025000Y-144780000D01*
G04 #@! TO.N,Net-(R8-Pad2)*
X78698500Y-139319000D02*
X81407700Y-136609800D01*
X81407700Y-136609800D02*
X234399800Y-136609800D01*
X234399800Y-136609800D02*
X243840000Y-146050000D01*
X77673200Y-139319000D02*
X78698500Y-139319000D01*
G04 #@! TO.N,Net-(U1-Pad1)*
X243840000Y-151130000D02*
X231775000Y-151130000D01*
X231775000Y-151130000D02*
X225425000Y-144780000D01*
G04 #@! TO.N,Net-(U2-Pad1)*
X213040000Y-150809900D02*
X207010000Y-144780000D01*
X207010000Y-144780000D02*
X194945000Y-144780000D01*
X213360000Y-151130000D02*
X213040000Y-150809900D01*
X213040000Y-150809900D02*
X214725800Y-149124100D01*
X214725800Y-149124100D02*
X214725800Y-139795800D01*
X214725800Y-139795800D02*
X213360000Y-138430000D01*
G04 #@! TO.N,Net-(U3-Pad1)*
X182880000Y-151130000D02*
X176530000Y-144780000D01*
X176530000Y-144780000D02*
X164465000Y-144780000D01*
G04 #@! TO.N,Net-(U4-Pad1)*
X152080000Y-150809900D02*
X146050000Y-144780000D01*
X146050000Y-144780000D02*
X133985000Y-144780000D01*
X152400000Y-151130000D02*
X152080000Y-150809900D01*
X152080000Y-150809900D02*
X153765800Y-149124100D01*
X153765800Y-149124100D02*
X153765800Y-139795800D01*
X153765800Y-139795800D02*
X152400000Y-138430000D01*
G04 #@! TO.N,Net-(U5-Pad1)*
X115570000Y-144780000D02*
X103505000Y-144780000D01*
X121920000Y-138430000D02*
X115570000Y-144780000D01*
X121920000Y-151130000D02*
X115570000Y-144780000D01*
G04 #@! TO.N,Net-(U9-Pad1)*
X212013800Y-81280000D02*
X212013800Y-76276200D01*
X212013800Y-76276200D02*
X213360000Y-74930000D01*
X213360000Y-87630000D02*
X212013800Y-86283800D01*
X212013800Y-86283800D02*
X212013800Y-81280000D01*
X212013800Y-81280000D02*
X194945000Y-81280000D01*
G04 #@! TO.N,Net-(U10-Pad1)*
X182880000Y-87630000D02*
X184239900Y-86270100D01*
X184239900Y-86270100D02*
X184239900Y-76289900D01*
X184239900Y-76289900D02*
X182880000Y-74930000D01*
X182880000Y-74930000D02*
X170815000Y-74930000D01*
X170815000Y-74930000D02*
X164465000Y-81280000D01*
G04 #@! TO.N,Net-(U11-Pad1)*
X152079900Y-87309800D02*
X146050000Y-81280000D01*
X146050000Y-81280000D02*
X133985000Y-81280000D01*
X152400000Y-87630000D02*
X152079900Y-87309800D01*
X152079900Y-87309800D02*
X153759900Y-85629800D01*
X153759900Y-85629800D02*
X153759900Y-76289900D01*
X153759900Y-76289900D02*
X152400000Y-74930000D01*
G04 #@! TO.N,Net-(U12-Pad1)*
X115570000Y-81280000D02*
X103505000Y-81280000D01*
X121920000Y-87630000D02*
X115570000Y-81280000D01*
X121920000Y-74930000D02*
X115570000Y-81280000D01*
G04 #@! TO.N,Net-(U13-Pad1)*
X85090000Y-81280000D02*
X73025000Y-81280000D01*
X91440000Y-87630000D02*
X85090000Y-81280000D01*
X91440000Y-74930000D02*
X85090000Y-81280000D01*
G04 #@! TO.N,Net-(U14-Pad1)*
X60960000Y-87630000D02*
X48895000Y-87630000D01*
X48895000Y-87630000D02*
X42545000Y-81280000D01*
G04 #@! TD*
M02*
