G04 #@! TF.GenerationSoftware,KiCad,Pcbnew,(5.0.0)*
G04 #@! TF.CreationDate,2019-08-30T22:53:04+01:00*
G04 #@! TF.ProjectId,A-FK,412D464B2E6B696361645F7063620000,rev?*
G04 #@! TF.SameCoordinates,Original*
G04 #@! TF.FileFunction,Copper,L2,Bot,Signal*
G04 #@! TF.FilePolarity,Positive*
%FSLAX46Y46*%
G04 Gerber Fmt 4.6, Leading zero omitted, Abs format (unit mm)*
G04 Created by KiCad (PCBNEW (5.0.0)) date 08/30/19 22:53:04*
%MOMM*%
%LPD*%
G01*
G04 APERTURE LIST*
G04 #@! TA.AperFunction,ComponentPad*
%ADD10C,2.000000*%
G04 #@! TD*
G04 #@! TA.AperFunction,ComponentPad*
%ADD11C,1.400000*%
G04 #@! TD*
G04 #@! TA.AperFunction,ComponentPad*
%ADD12O,1.400000X1.400000*%
G04 #@! TD*
G04 #@! TA.AperFunction,ComponentPad*
%ADD13C,1.600000*%
G04 #@! TD*
G04 #@! TA.AperFunction,ComponentPad*
%ADD14R,1.600000X1.600000*%
G04 #@! TD*
G04 #@! TA.AperFunction,ComponentPad*
%ADD15C,1.700000*%
G04 #@! TD*
G04 #@! TA.AperFunction,ComponentPad*
%ADD16R,1.700000X1.700000*%
G04 #@! TD*
G04 #@! TA.AperFunction,ViaPad*
%ADD17C,0.800000*%
G04 #@! TD*
G04 #@! TA.AperFunction,Conductor*
%ADD18C,0.500000*%
G04 #@! TD*
G04 #@! TA.AperFunction,Conductor*
%ADD19C,0.250000*%
G04 #@! TD*
G04 APERTURE END LIST*
D10*
G04 #@! TO.P,U8,13*
G04 #@! TO.N,CRS*
X225425000Y-78740000D03*
G04 #@! TO.P,U8,12*
G04 #@! TO.N,SFD*
X225425000Y-81280000D03*
G04 #@! TO.P,U8,11*
G04 #@! TO.N,N/C*
X225425000Y-83820000D03*
G04 #@! TO.P,U8,6*
G04 #@! TO.N,CRSm*
X243840000Y-74930000D03*
G04 #@! TO.P,U8,5*
G04 #@! TO.N,N/C*
X243840000Y-77470000D03*
G04 #@! TO.P,U8,4*
G04 #@! TO.N,SFDm*
X243840000Y-80010000D03*
G04 #@! TO.P,U8,3*
G04 #@! TO.N,N/C*
X243840000Y-82550000D03*
G04 #@! TO.P,U8,2*
X243840000Y-85090000D03*
G04 #@! TO.P,U8,1*
X243840000Y-87630000D03*
G04 #@! TO.P,U8,23*
G04 #@! TO.N,Neg6v*
X230505000Y-104775000D03*
G04 #@! TO.P,U8,22*
G04 #@! TO.N,GND*
X227965000Y-104775000D03*
G04 #@! TO.P,U8,21*
G04 #@! TO.N,6v*
X225425000Y-104775000D03*
G04 #@! TD*
G04 #@! TO.P,U1,13*
G04 #@! TO.N,OTG-1*
X225425000Y-142240000D03*
G04 #@! TO.P,U1,12*
G04 #@! TO.N,Net-(U1-Pad1)*
X225425000Y-144780000D03*
G04 #@! TO.P,U1,11*
G04 #@! TO.N,OTG-2*
X225425000Y-147320000D03*
G04 #@! TO.P,U1,6*
G04 #@! TO.N,Net-(U1-Pad1)*
X243840000Y-138430000D03*
G04 #@! TO.P,U1,5*
G04 #@! TO.N,RESET-2*
X243840000Y-140970000D03*
G04 #@! TO.P,U1,4*
G04 #@! TO.N,N/C*
X243840000Y-143510000D03*
G04 #@! TO.P,U1,3*
G04 #@! TO.N,Net-(R8-Pad2)*
X243840000Y-146050000D03*
G04 #@! TO.P,U1,2*
G04 #@! TO.N,N/C*
X243840000Y-148590000D03*
G04 #@! TO.P,U1,1*
G04 #@! TO.N,Net-(U1-Pad1)*
X243840000Y-151130000D03*
G04 #@! TO.P,U1,23*
G04 #@! TO.N,Neg6v*
X230505000Y-168275000D03*
G04 #@! TO.P,U1,22*
G04 #@! TO.N,GND*
X227965000Y-168275000D03*
G04 #@! TO.P,U1,21*
G04 #@! TO.N,6v*
X225425000Y-168275000D03*
G04 #@! TD*
G04 #@! TO.P,U12,13*
G04 #@! TO.N,OTA-1*
X103505000Y-78740000D03*
G04 #@! TO.P,U12,12*
G04 #@! TO.N,Net-(U12-Pad1)*
X103505000Y-81280000D03*
G04 #@! TO.P,U12,11*
G04 #@! TO.N,OTA-2*
X103505000Y-83820000D03*
G04 #@! TO.P,U12,6*
G04 #@! TO.N,Net-(U12-Pad1)*
X121920000Y-74930000D03*
G04 #@! TO.P,U12,5*
G04 #@! TO.N,RESET-2*
X121920000Y-77470000D03*
G04 #@! TO.P,U12,4*
G04 #@! TO.N,N/C*
X121920000Y-80010000D03*
G04 #@! TO.P,U12,3*
G04 #@! TO.N,OTA-'*
X121920000Y-82550000D03*
G04 #@! TO.P,U12,2*
G04 #@! TO.N,N/C*
X121920000Y-85090000D03*
G04 #@! TO.P,U12,1*
G04 #@! TO.N,Net-(U12-Pad1)*
X121920000Y-87630000D03*
G04 #@! TO.P,U12,23*
G04 #@! TO.N,Neg6v*
X108585000Y-104775000D03*
G04 #@! TO.P,U12,22*
G04 #@! TO.N,GND*
X106045000Y-104775000D03*
G04 #@! TO.P,U12,21*
G04 #@! TO.N,6v*
X103505000Y-104775000D03*
G04 #@! TD*
G04 #@! TO.P,U11,13*
G04 #@! TO.N,GTM1*
X133985000Y-78740000D03*
G04 #@! TO.P,U11,12*
G04 #@! TO.N,Net-(U11-Pad1)*
X133985000Y-81280000D03*
G04 #@! TO.P,U11,11*
G04 #@! TO.N,GTM2*
X133985000Y-83820000D03*
G04 #@! TO.P,U11,6*
G04 #@! TO.N,Net-(U11-Pad1)*
X152400000Y-74930000D03*
G04 #@! TO.P,U11,5*
G04 #@! TO.N,t4*
X152400000Y-77470000D03*
G04 #@! TO.P,U11,4*
G04 #@! TO.N,N/C*
X152400000Y-80010000D03*
G04 #@! TO.P,U11,3*
G04 #@! TO.N,GTMa*
X152400000Y-82550000D03*
G04 #@! TO.P,U11,2*
G04 #@! TO.N,N/C*
X152400000Y-85090000D03*
G04 #@! TO.P,U11,1*
G04 #@! TO.N,Net-(U11-Pad1)*
X152400000Y-87630000D03*
G04 #@! TO.P,U11,23*
G04 #@! TO.N,Neg6v*
X139065000Y-104775000D03*
G04 #@! TO.P,U11,22*
G04 #@! TO.N,GND*
X136525000Y-104775000D03*
G04 #@! TO.P,U11,21*
G04 #@! TO.N,6v*
X133985000Y-104775000D03*
G04 #@! TD*
G04 #@! TO.P,U14,13*
G04 #@! TO.N,OTQ-2*
X42545000Y-78740000D03*
G04 #@! TO.P,U14,12*
G04 #@! TO.N,Net-(U14-Pad1)*
X42545000Y-81280000D03*
G04 #@! TO.P,U14,11*
G04 #@! TO.N,OTQ-1*
X42545000Y-83820000D03*
G04 #@! TO.P,U14,6*
G04 #@! TO.N,Net-(U14-Pad1)*
X60960000Y-74930000D03*
G04 #@! TO.P,U14,5*
G04 #@! TO.N,RESET-2*
X60960000Y-77470000D03*
G04 #@! TO.P,U14,4*
G04 #@! TO.N,N/C*
X60960000Y-80010000D03*
G04 #@! TO.P,U14,3*
G04 #@! TO.N,Net-(R3-Pad2)*
X60960000Y-82550000D03*
G04 #@! TO.P,U14,2*
G04 #@! TO.N,N/C*
X60960000Y-85090000D03*
G04 #@! TO.P,U14,1*
G04 #@! TO.N,Net-(U14-Pad1)*
X60960000Y-87630000D03*
G04 #@! TO.P,U14,23*
G04 #@! TO.N,Neg6v*
X47625000Y-104775000D03*
G04 #@! TO.P,U14,22*
G04 #@! TO.N,GND*
X45085000Y-104775000D03*
G04 #@! TO.P,U14,21*
G04 #@! TO.N,6v*
X42545000Y-104775000D03*
G04 #@! TD*
G04 #@! TO.P,U13,13*
G04 #@! TO.N,GTQ2*
X73025000Y-78740000D03*
G04 #@! TO.P,U13,12*
G04 #@! TO.N,Net-(U13-Pad1)*
X73025000Y-81280000D03*
G04 #@! TO.P,U13,11*
G04 #@! TO.N,GTQ1*
X73025000Y-83820000D03*
G04 #@! TO.P,U13,6*
G04 #@! TO.N,Net-(U13-Pad1)*
X91440000Y-74930000D03*
G04 #@! TO.P,U13,5*
G04 #@! TO.N,t4*
X91440000Y-77470000D03*
G04 #@! TO.P,U13,4*
G04 #@! TO.N,N/C*
X91440000Y-80010000D03*
G04 #@! TO.P,U13,3*
G04 #@! TO.N,GTQa*
X91440000Y-82550000D03*
G04 #@! TO.P,U13,2*
G04 #@! TO.N,N/C*
X91440000Y-85090000D03*
G04 #@! TO.P,U13,1*
G04 #@! TO.N,Net-(U13-Pad1)*
X91440000Y-87630000D03*
G04 #@! TO.P,U13,23*
G04 #@! TO.N,Neg6v*
X78105000Y-104775000D03*
G04 #@! TO.P,U13,22*
G04 #@! TO.N,GND*
X75565000Y-104775000D03*
G04 #@! TO.P,U13,21*
G04 #@! TO.N,6v*
X73025000Y-104775000D03*
G04 #@! TD*
D11*
G04 #@! TO.P,R3,1*
G04 #@! TO.N,6v*
X56692800Y-150063000D03*
D12*
G04 #@! TO.P,R3,2*
G04 #@! TO.N,Net-(R3-Pad2)*
X49072800Y-150063000D03*
G04 #@! TD*
D11*
G04 #@! TO.P,R4,1*
G04 #@! TO.N,6v*
X56642000Y-144729000D03*
D12*
G04 #@! TO.P,R4,2*
G04 #@! TO.N,OTA-'*
X49022000Y-144729000D03*
G04 #@! TD*
D11*
G04 #@! TO.P,R5,1*
G04 #@! TO.N,6v*
X56616600Y-139675000D03*
D12*
G04 #@! TO.P,R5,2*
G04 #@! TO.N,OTJ-'*
X48996600Y-139675000D03*
G04 #@! TD*
D11*
G04 #@! TO.P,R6,1*
G04 #@! TO.N,6v*
X85394800Y-149962000D03*
D12*
G04 #@! TO.P,R6,2*
G04 #@! TO.N,Net-(R6-Pad2)*
X77774800Y-149962000D03*
G04 #@! TD*
D11*
G04 #@! TO.P,R7,1*
G04 #@! TO.N,6v*
X85445600Y-144805000D03*
D12*
G04 #@! TO.P,R7,2*
G04 #@! TO.N,Net-(R7-Pad2)*
X77825600Y-144805000D03*
G04 #@! TD*
D11*
G04 #@! TO.P,R8,1*
G04 #@! TO.N,6v*
X85293200Y-139319000D03*
D12*
G04 #@! TO.P,R8,2*
G04 #@! TO.N,Net-(R8-Pad2)*
X77673200Y-139319000D03*
G04 #@! TD*
D11*
G04 #@! TO.P,R9,1*
G04 #@! TO.N,6v*
X77825600Y-154102000D03*
D12*
G04 #@! TO.P,R9,2*
G04 #@! TO.N,OTMa*
X85445600Y-154102000D03*
G04 #@! TD*
D11*
G04 #@! TO.P,R10,1*
G04 #@! TO.N,6v*
X108382000Y-150774000D03*
D12*
G04 #@! TO.P,R10,2*
G04 #@! TO.N,GTAa*
X116002000Y-150774000D03*
G04 #@! TD*
D11*
G04 #@! TO.P,R11,1*
G04 #@! TO.N,6v*
X200101000Y-151003000D03*
D12*
G04 #@! TO.P,R11,2*
G04 #@! TO.N,GTJa*
X207721000Y-151003000D03*
G04 #@! TD*
D11*
G04 #@! TO.P,R12,1*
G04 #@! TO.N,6v*
X139167000Y-89763600D03*
D12*
G04 #@! TO.P,R12,2*
G04 #@! TO.N,GTMa*
X146787000Y-89763600D03*
G04 #@! TD*
D11*
G04 #@! TO.P,R13,1*
G04 #@! TO.N,6v*
X78359000Y-88417400D03*
D12*
G04 #@! TO.P,R13,2*
G04 #@! TO.N,GTQa*
X85979000Y-88417400D03*
G04 #@! TD*
D11*
G04 #@! TO.P,R14,1*
G04 #@! TO.N,6v*
X170332000Y-150724000D03*
D12*
G04 #@! TO.P,R14,2*
G04 #@! TO.N,WTMa*
X177952000Y-150724000D03*
G04 #@! TD*
D10*
G04 #@! TO.P,U2,13*
G04 #@! TO.N,GTJ1*
X194945000Y-142240000D03*
G04 #@! TO.P,U2,12*
G04 #@! TO.N,Net-(U2-Pad1)*
X194945000Y-144780000D03*
G04 #@! TO.P,U2,11*
G04 #@! TO.N,GTJ2*
X194945000Y-147320000D03*
G04 #@! TO.P,U2,6*
G04 #@! TO.N,Net-(U2-Pad1)*
X213360000Y-138430000D03*
G04 #@! TO.P,U2,5*
G04 #@! TO.N,t4*
X213360000Y-140970000D03*
G04 #@! TO.P,U2,4*
G04 #@! TO.N,N/C*
X213360000Y-143510000D03*
G04 #@! TO.P,U2,3*
G04 #@! TO.N,GTJa*
X213360000Y-146050000D03*
G04 #@! TO.P,U2,2*
G04 #@! TO.N,N/C*
X213360000Y-148590000D03*
G04 #@! TO.P,U2,1*
G04 #@! TO.N,Net-(U2-Pad1)*
X213360000Y-151130000D03*
G04 #@! TO.P,U2,23*
G04 #@! TO.N,Neg6v*
X200025000Y-168275000D03*
G04 #@! TO.P,U2,22*
G04 #@! TO.N,GND*
X197485000Y-168275000D03*
G04 #@! TO.P,U2,21*
G04 #@! TO.N,6v*
X194945000Y-168275000D03*
G04 #@! TD*
G04 #@! TO.P,U3,13*
G04 #@! TO.N,WTM1*
X164465000Y-142240000D03*
G04 #@! TO.P,U3,12*
G04 #@! TO.N,Net-(U3-Pad1)*
X164465000Y-144780000D03*
G04 #@! TO.P,U3,11*
G04 #@! TO.N,WTM2*
X164465000Y-147320000D03*
G04 #@! TO.P,U3,6*
G04 #@! TO.N,Net-(U3-Pad1)*
X182880000Y-138430000D03*
G04 #@! TO.P,U3,5*
G04 #@! TO.N,t4*
X182880000Y-140970000D03*
G04 #@! TO.P,U3,4*
G04 #@! TO.N,N/C*
X182880000Y-143510000D03*
G04 #@! TO.P,U3,3*
G04 #@! TO.N,WTMa*
X182880000Y-146050000D03*
G04 #@! TO.P,U3,2*
G04 #@! TO.N,N/C*
X182880000Y-148590000D03*
G04 #@! TO.P,U3,1*
G04 #@! TO.N,Net-(U3-Pad1)*
X182880000Y-151130000D03*
G04 #@! TO.P,U3,23*
G04 #@! TO.N,Neg6v*
X169545000Y-168275000D03*
G04 #@! TO.P,U3,22*
G04 #@! TO.N,GND*
X167005000Y-168275000D03*
G04 #@! TO.P,U3,21*
G04 #@! TO.N,6v*
X164465000Y-168275000D03*
G04 #@! TD*
G04 #@! TO.P,U4,13*
G04 #@! TO.N,OTP-1*
X133985000Y-142240000D03*
G04 #@! TO.P,U4,12*
G04 #@! TO.N,Net-(U4-Pad1)*
X133985000Y-144780000D03*
G04 #@! TO.P,U4,11*
G04 #@! TO.N,OTP-2*
X133985000Y-147320000D03*
G04 #@! TO.P,U4,6*
G04 #@! TO.N,Net-(U4-Pad1)*
X152400000Y-138430000D03*
G04 #@! TO.P,U4,5*
G04 #@! TO.N,RESET-2*
X152400000Y-140970000D03*
G04 #@! TO.P,U4,4*
G04 #@! TO.N,N/C*
X152400000Y-143510000D03*
G04 #@! TO.P,U4,3*
G04 #@! TO.N,Net-(R7-Pad2)*
X152400000Y-146050000D03*
G04 #@! TO.P,U4,2*
G04 #@! TO.N,N/C*
X152400000Y-148590000D03*
G04 #@! TO.P,U4,1*
G04 #@! TO.N,Net-(U4-Pad1)*
X152400000Y-151130000D03*
G04 #@! TO.P,U4,23*
G04 #@! TO.N,Neg6v*
X139065000Y-168275000D03*
G04 #@! TO.P,U4,22*
G04 #@! TO.N,GND*
X136525000Y-168275000D03*
G04 #@! TO.P,U4,21*
G04 #@! TO.N,6v*
X133985000Y-168275000D03*
G04 #@! TD*
G04 #@! TO.P,U5,13*
G04 #@! TO.N,GTA2*
X103505000Y-142240000D03*
G04 #@! TO.P,U5,12*
G04 #@! TO.N,Net-(U5-Pad1)*
X103505000Y-144780000D03*
G04 #@! TO.P,U5,11*
G04 #@! TO.N,GTA1*
X103505000Y-147320000D03*
G04 #@! TO.P,U5,6*
G04 #@! TO.N,Net-(U5-Pad1)*
X121920000Y-138430000D03*
G04 #@! TO.P,U5,5*
G04 #@! TO.N,t4*
X121920000Y-140970000D03*
G04 #@! TO.P,U5,4*
G04 #@! TO.N,N/C*
X121920000Y-143510000D03*
G04 #@! TO.P,U5,3*
G04 #@! TO.N,GTAa*
X121920000Y-146050000D03*
G04 #@! TO.P,U5,2*
G04 #@! TO.N,N/C*
X121920000Y-148590000D03*
G04 #@! TO.P,U5,1*
G04 #@! TO.N,Net-(U5-Pad1)*
X121920000Y-151130000D03*
G04 #@! TO.P,U5,23*
G04 #@! TO.N,Neg6v*
X108585000Y-168275000D03*
G04 #@! TO.P,U5,22*
G04 #@! TO.N,GND*
X106045000Y-168275000D03*
G04 #@! TO.P,U5,21*
G04 #@! TO.N,6v*
X103505000Y-168275000D03*
G04 #@! TD*
G04 #@! TO.P,U6,13*
G04 #@! TO.N,Net-(R8-Pad2)*
X73025000Y-142240000D03*
G04 #@! TO.P,U6,12*
G04 #@! TO.N,Net-(R7-Pad2)*
X73025000Y-144780000D03*
G04 #@! TO.P,U6,11*
G04 #@! TO.N,Net-(R6-Pad2)*
X73025000Y-147320000D03*
G04 #@! TO.P,U6,6*
G04 #@! TO.N,t1*
X91440000Y-138430000D03*
G04 #@! TO.P,U6,5*
G04 #@! TO.N,N/C*
X91440000Y-140970000D03*
G04 #@! TO.P,U6,4*
G04 #@! TO.N,t1*
X91440000Y-143510000D03*
G04 #@! TO.P,U6,3*
G04 #@! TO.N,MTPa*
X91440000Y-146050000D03*
G04 #@! TO.P,U6,2*
G04 #@! TO.N,t3-2*
X91440000Y-148590000D03*
G04 #@! TO.P,U6,1*
G04 #@! TO.N,OTMa*
X91440000Y-151130000D03*
G04 #@! TO.P,U6,23*
G04 #@! TO.N,Neg6v*
X78105000Y-168275000D03*
G04 #@! TO.P,U6,22*
G04 #@! TO.N,GND*
X75565000Y-168275000D03*
G04 #@! TO.P,U6,21*
G04 #@! TO.N,6v*
X73025000Y-168275000D03*
G04 #@! TD*
G04 #@! TO.P,U7,13*
G04 #@! TO.N,OTJ-'*
X42545000Y-142240000D03*
G04 #@! TO.P,U7,12*
G04 #@! TO.N,OTA-'*
X42545000Y-144780000D03*
G04 #@! TO.P,U7,11*
G04 #@! TO.N,Net-(R3-Pad2)*
X42545000Y-147320000D03*
G04 #@! TO.P,U7,6*
G04 #@! TO.N,t3-2*
X60960000Y-138430000D03*
G04 #@! TO.P,U7,5*
G04 #@! TO.N,GTJa*
X60960000Y-140970000D03*
G04 #@! TO.P,U7,4*
G04 #@! TO.N,t3-2*
X60960000Y-143510000D03*
G04 #@! TO.P,U7,3*
G04 #@! TO.N,GTAa*
X60960000Y-146050000D03*
G04 #@! TO.P,U7,2*
G04 #@! TO.N,t3-2*
X60960000Y-148590000D03*
G04 #@! TO.P,U7,1*
G04 #@! TO.N,GTQa*
X60960000Y-151130000D03*
G04 #@! TO.P,U7,23*
G04 #@! TO.N,Neg6v*
X47625000Y-168275000D03*
G04 #@! TO.P,U7,22*
G04 #@! TO.N,GND*
X45085000Y-168275000D03*
G04 #@! TO.P,U7,21*
G04 #@! TO.N,6v*
X42545000Y-168275000D03*
G04 #@! TD*
G04 #@! TO.P,U9,13*
G04 #@! TO.N,OTJ-1*
X194945000Y-78740000D03*
G04 #@! TO.P,U9,12*
G04 #@! TO.N,Net-(U9-Pad1)*
X194945000Y-81280000D03*
G04 #@! TO.P,U9,11*
G04 #@! TO.N,OTJ-2*
X194945000Y-83820000D03*
G04 #@! TO.P,U9,6*
G04 #@! TO.N,Net-(U9-Pad1)*
X213360000Y-74930000D03*
G04 #@! TO.P,U9,5*
G04 #@! TO.N,RESET-2*
X213360000Y-77470000D03*
G04 #@! TO.P,U9,4*
G04 #@! TO.N,N/C*
X213360000Y-80010000D03*
G04 #@! TO.P,U9,3*
G04 #@! TO.N,OTJ-'*
X213360000Y-82550000D03*
G04 #@! TO.P,U9,2*
G04 #@! TO.N,N/C*
X213360000Y-85090000D03*
G04 #@! TO.P,U9,1*
G04 #@! TO.N,Net-(U9-Pad1)*
X213360000Y-87630000D03*
G04 #@! TO.P,U9,23*
G04 #@! TO.N,Neg6v*
X200025000Y-104775000D03*
G04 #@! TO.P,U9,22*
G04 #@! TO.N,GND*
X197485000Y-104775000D03*
G04 #@! TO.P,U9,21*
G04 #@! TO.N,6v*
X194945000Y-104775000D03*
G04 #@! TD*
G04 #@! TO.P,U10,13*
G04 #@! TO.N,OTM-1*
X164465000Y-78740000D03*
G04 #@! TO.P,U10,12*
G04 #@! TO.N,Net-(U10-Pad1)*
X164465000Y-81280000D03*
G04 #@! TO.P,U10,11*
G04 #@! TO.N,OTM-2*
X164465000Y-83820000D03*
G04 #@! TO.P,U10,6*
G04 #@! TO.N,Net-(U10-Pad1)*
X182880000Y-74930000D03*
G04 #@! TO.P,U10,5*
G04 #@! TO.N,RESET-2*
X182880000Y-77470000D03*
G04 #@! TO.P,U10,4*
G04 #@! TO.N,N/C*
X182880000Y-80010000D03*
G04 #@! TO.P,U10,3*
G04 #@! TO.N,Net-(R6-Pad2)*
X182880000Y-82550000D03*
G04 #@! TO.P,U10,2*
G04 #@! TO.N,N/C*
X182880000Y-85090000D03*
G04 #@! TO.P,U10,1*
G04 #@! TO.N,Net-(U10-Pad1)*
X182880000Y-87630000D03*
G04 #@! TO.P,U10,23*
G04 #@! TO.N,Neg6v*
X169545000Y-104775000D03*
G04 #@! TO.P,U10,22*
G04 #@! TO.N,GND*
X167005000Y-104775000D03*
G04 #@! TO.P,U10,21*
G04 #@! TO.N,6v*
X164465000Y-104775000D03*
G04 #@! TD*
D13*
G04 #@! TO.P,C1,2*
G04 #@! TO.N,GND*
X243800000Y-33020000D03*
D14*
G04 #@! TO.P,C1,1*
G04 #@! TO.N,6v*
X241300000Y-33020000D03*
G04 #@! TD*
D13*
G04 #@! TO.P,C2,2*
G04 #@! TO.N,Neg6v*
X231100000Y-33020000D03*
D14*
G04 #@! TO.P,C2,1*
G04 #@! TO.N,GND*
X228600000Y-33020000D03*
G04 #@! TD*
D15*
G04 #@! TO.P,J1,AL*
G04 #@! TO.N,GND*
X39605000Y-33401000D03*
G04 #@! TO.P,J1,32*
X39605000Y-30861000D03*
G04 #@! TO.P,J1,AK*
G04 #@! TO.N,Neg6v*
X42145000Y-33401000D03*
G04 #@! TO.P,J1,31*
X42145000Y-30861000D03*
G04 #@! TO.P,J1,AJ*
G04 #@! TO.N,N/C*
X44685000Y-33401000D03*
G04 #@! TO.P,J1,30*
X44685000Y-30861000D03*
G04 #@! TO.P,J1,AH*
G04 #@! TO.N,RESET-2*
X47225000Y-33401000D03*
G04 #@! TO.P,J1,29*
G04 #@! TO.N,OTQ-1*
X47225000Y-30861000D03*
G04 #@! TO.P,J1,AF*
G04 #@! TO.N,t1*
X49765000Y-33401000D03*
G04 #@! TO.P,J1,28*
G04 #@! TO.N,GTQ2*
X49765000Y-30861000D03*
G04 #@! TO.P,J1,AE*
G04 #@! TO.N,t3-2*
X52305000Y-33401000D03*
G04 #@! TO.P,J1,27*
G04 #@! TO.N,GTQ1*
X52305000Y-30861000D03*
G04 #@! TO.P,J1,AD*
G04 #@! TO.N,t4*
X54845000Y-33401000D03*
G04 #@! TO.P,J1,26*
G04 #@! TO.N,OTA-2*
X54845000Y-30861000D03*
G04 #@! TO.P,J1,AC*
G04 #@! TO.N,GTQa*
X57385000Y-33401000D03*
G04 #@! TO.P,J1,25*
G04 #@! TO.N,OTA-1*
X57385000Y-30861000D03*
G04 #@! TO.P,J1,AB*
G04 #@! TO.N,OTQ-2*
X59925000Y-33401000D03*
G04 #@! TO.P,J1,24*
G04 #@! TO.N,GTA2*
X59925000Y-30861000D03*
G04 #@! TO.P,J1,AA*
G04 #@! TO.N,GTAa*
X62465000Y-33401000D03*
G04 #@! TO.P,J1,23*
G04 #@! TO.N,GTA1*
X62465000Y-30861000D03*
G04 #@! TO.P,J1,Z*
G04 #@! TO.N,OTA-'*
X65005000Y-33401000D03*
G04 #@! TO.P,J1,22*
G04 #@! TO.N,OTP-2*
X65005000Y-30861000D03*
G04 #@! TO.P,J1,Y*
G04 #@! TO.N,MTPa*
X67545000Y-33401000D03*
G04 #@! TO.P,J1,21*
G04 #@! TO.N,OTP-1*
X67545000Y-30861000D03*
G04 #@! TO.P,J1,X*
G04 #@! TO.N,N/C*
X70085000Y-33401000D03*
G04 #@! TO.P,J1,20*
G04 #@! TO.N,GTM2*
X70085000Y-30861000D03*
G04 #@! TO.P,J1,W*
G04 #@! TO.N,GTMa*
X72625000Y-33401000D03*
G04 #@! TO.P,J1,19*
G04 #@! TO.N,GTM1*
X72625000Y-30861000D03*
G04 #@! TO.P,J1,V*
G04 #@! TO.N,N/C*
X75165000Y-33401000D03*
G04 #@! TO.P,J1,18*
G04 #@! TO.N,WTM2*
X75165000Y-30861000D03*
G04 #@! TO.P,J1,U*
G04 #@! TO.N,WTMa*
X77705000Y-33401000D03*
G04 #@! TO.P,J1,17*
G04 #@! TO.N,WTM1*
X77705000Y-30861000D03*
G04 #@! TO.P,J1,T*
G04 #@! TO.N,N/C*
X80245000Y-33401000D03*
G04 #@! TO.P,J1,16*
G04 #@! TO.N,OTM-2*
X80245000Y-30861000D03*
G04 #@! TO.P,J1,S*
G04 #@! TO.N,OTMa*
X82785000Y-33401000D03*
G04 #@! TO.P,J1,15*
G04 #@! TO.N,OTM-1*
X82785000Y-30861000D03*
G04 #@! TO.P,J1,R*
G04 #@! TO.N,N/C*
X85325000Y-33401000D03*
G04 #@! TO.P,J1,14*
G04 #@! TO.N,GTJ2*
X85325000Y-30861000D03*
G04 #@! TO.P,J1,P*
G04 #@! TO.N,GTJa*
X87865000Y-33401000D03*
G04 #@! TO.P,J1,13*
G04 #@! TO.N,GTJ1*
X87865000Y-30861000D03*
G04 #@! TO.P,J1,N*
G04 #@! TO.N,N/C*
X90405000Y-33401000D03*
G04 #@! TO.P,J1,12*
G04 #@! TO.N,OTJ-2*
X90405000Y-30861000D03*
G04 #@! TO.P,J1,M*
G04 #@! TO.N,OTJ-'*
X92945000Y-33401000D03*
G04 #@! TO.P,J1,11*
G04 #@! TO.N,OTJ-1*
X92945000Y-30861000D03*
G04 #@! TO.P,J1,L*
G04 #@! TO.N,N/C*
X95485000Y-33401000D03*
G04 #@! TO.P,J1,10*
G04 #@! TO.N,OTG-2*
X95485000Y-30861000D03*
G04 #@! TO.P,J1,K*
G04 #@! TO.N,N/C*
X98025000Y-33401000D03*
G04 #@! TO.P,J1,9*
G04 #@! TO.N,OTG-1*
X98025000Y-30861000D03*
G04 #@! TO.P,J1,J*
G04 #@! TO.N,N/C*
X100565000Y-33401000D03*
G04 #@! TO.P,J1,8*
X100565000Y-30861000D03*
G04 #@! TO.P,J1,H*
X103105000Y-33401000D03*
G04 #@! TO.P,J1,7*
X103105000Y-30861000D03*
G04 #@! TO.P,J1,F*
G04 #@! TO.N,SFDm*
X105645000Y-33401000D03*
G04 #@! TO.P,J1,6*
G04 #@! TO.N,SFD*
X105645000Y-30861000D03*
G04 #@! TO.P,J1,E*
G04 #@! TO.N,CRSm*
X108185000Y-33401000D03*
G04 #@! TO.P,J1,5*
G04 #@! TO.N,CRS*
X108185000Y-30861000D03*
G04 #@! TO.P,J1,D*
G04 #@! TO.N,N/C*
X110725000Y-33401000D03*
G04 #@! TO.P,J1,4*
X110725000Y-30861000D03*
G04 #@! TO.P,J1,C*
X113265000Y-33401000D03*
G04 #@! TO.P,J1,3*
X113265000Y-30861000D03*
G04 #@! TO.P,J1,B*
G04 #@! TO.N,6v*
X115805000Y-33401000D03*
G04 #@! TO.P,J1,2*
X115805000Y-30861000D03*
G04 #@! TO.P,J1,A*
G04 #@! TO.N,GND*
X118345000Y-33401000D03*
D16*
G04 #@! TO.P,J1,1*
X118345000Y-30861000D03*
G04 #@! TD*
D17*
G04 #@! TO.N,GTQ2*
X55828000Y-38158800D03*
G04 #@! TO.N,GTQa*
X70398400Y-102170100D03*
G04 #@! TO.N,GTA1*
X63449300Y-41541500D03*
G04 #@! TO.N,MTPa*
X69413600Y-48556300D03*
G04 #@! TO.N,GTM2*
X127563000Y-77398000D03*
G04 #@! TO.N,GTMa*
X112828600Y-73604600D03*
G04 #@! TO.N,OTM-2*
X94950300Y-44711300D03*
G04 #@! TO.N,OTMa*
X71160200Y-50287400D03*
G04 #@! TO.N,GTJa*
X68844600Y-53871100D03*
G04 #@! TO.N,CRS*
X178721400Y-32036400D03*
G04 #@! TO.N,Net-(R6-Pad2)*
X89975500Y-101577900D03*
G04 #@! TD*
D18*
G04 #@! TO.N,6v*
X73025000Y-158902600D02*
X73025000Y-168275000D01*
X77825600Y-154102000D02*
X73025000Y-158902600D01*
X73025000Y-158902600D02*
X61112600Y-158902600D01*
X61112600Y-158902600D02*
X56692800Y-154482800D01*
X56692800Y-154482800D02*
X56337200Y-154482800D01*
X56337200Y-154482800D02*
X42545000Y-168275000D01*
X56692800Y-150063000D02*
X56692800Y-154482800D01*
X193494600Y-106225400D02*
X200101000Y-112831800D01*
X200101000Y-112831800D02*
X200101000Y-151003000D01*
X193494600Y-106225400D02*
X194945000Y-104775000D01*
X164465000Y-104775000D02*
X165915400Y-106225400D01*
X165915400Y-106225400D02*
X193494600Y-106225400D01*
X139167000Y-100750100D02*
X143191900Y-104775000D01*
X143191900Y-104775000D02*
X164465000Y-104775000D01*
X139167000Y-100750100D02*
X138009900Y-100750100D01*
X138009900Y-100750100D02*
X133985000Y-104775000D01*
X139167000Y-100750100D02*
X139167000Y-89763600D01*
X115805000Y-33401000D02*
X139167000Y-56763000D01*
X139167000Y-56763000D02*
X139167000Y-89763600D01*
X115805000Y-33401000D02*
X115805000Y-30861000D01*
X107940800Y-150774000D02*
X107940800Y-109210800D01*
X107940800Y-109210800D02*
X103505000Y-104775000D01*
X103505000Y-168275000D02*
X107940800Y-163839200D01*
X107940800Y-163839200D02*
X107940800Y-150774000D01*
X108382000Y-150774000D02*
X107940800Y-150774000D01*
X175767000Y-156159000D02*
X170332000Y-150724000D01*
X194945000Y-156159000D02*
X175767000Y-156159000D01*
X175767000Y-156159000D02*
X164465000Y-167461000D01*
X164465000Y-167461000D02*
X164465000Y-168275000D01*
X194945000Y-166810000D02*
X194945000Y-168275000D01*
X194945000Y-156159000D02*
X194945000Y-166810000D01*
X194945000Y-166810000D02*
X223960000Y-166810000D01*
X223960000Y-166810000D02*
X225425000Y-168275000D01*
X200101000Y-151003000D02*
X194945000Y-156159000D01*
X225425000Y-104775000D02*
X226884800Y-106234800D01*
X226884800Y-106234800D02*
X231154400Y-106234800D01*
X231154400Y-106234800D02*
X241300000Y-96089200D01*
X241300000Y-96089200D02*
X241300000Y-33020000D01*
X85293200Y-139319000D02*
X85445600Y-139471400D01*
X85445600Y-139471400D02*
X85445600Y-144805000D01*
X85293200Y-139319000D02*
X85293200Y-117043200D01*
X85293200Y-117043200D02*
X73025000Y-104775000D01*
X85394800Y-149962000D02*
X85445600Y-149911200D01*
X85445600Y-149911200D02*
X85445600Y-144805000D01*
X56642000Y-144729000D02*
X56692800Y-144779800D01*
X56692800Y-144779800D02*
X56692800Y-150063000D01*
X78359000Y-88417400D02*
X73025000Y-93751400D01*
X73025000Y-93751400D02*
X73025000Y-104775000D01*
G04 #@! TO.N,Neg6v*
X42145000Y-33401000D02*
X46535400Y-37791400D01*
X46535400Y-37791400D02*
X46535400Y-103685400D01*
X46535400Y-103685400D02*
X47625000Y-104775000D01*
X42145000Y-30861000D02*
X42145000Y-33401000D01*
X109567900Y-166799000D02*
X109567900Y-167292100D01*
X109567900Y-167292100D02*
X108585000Y-168275000D01*
X108585000Y-104775000D02*
X109567900Y-105757900D01*
X109567900Y-105757900D02*
X109567900Y-166799000D01*
X109567900Y-166799000D02*
X137589000Y-166799000D01*
X137589000Y-166799000D02*
X139065000Y-168275000D01*
X169545000Y-104775000D02*
X171013800Y-103306200D01*
X171013800Y-103306200D02*
X198556200Y-103306200D01*
X198556200Y-103306200D02*
X200025000Y-104775000D01*
X231100000Y-33020000D02*
X231100000Y-104180000D01*
X231100000Y-104180000D02*
X230505000Y-104775000D01*
G04 #@! TO.N,GND*
X106045000Y-168275000D02*
X107495400Y-169725400D01*
X107495400Y-169725400D02*
X135074600Y-169725400D01*
X135074600Y-169725400D02*
X136525000Y-168275000D01*
X75565000Y-168275000D02*
X77015400Y-169725400D01*
X77015400Y-169725400D02*
X104594600Y-169725400D01*
X104594600Y-169725400D02*
X106045000Y-168275000D01*
X228600000Y-33020000D02*
X228600000Y-34270300D01*
X227965000Y-104775000D02*
X227965000Y-34905300D01*
X227965000Y-34905300D02*
X228600000Y-34270300D01*
X197485000Y-168275000D02*
X198939600Y-169729600D01*
X198939600Y-169729600D02*
X226510400Y-169729600D01*
X226510400Y-169729600D02*
X227965000Y-168275000D01*
X167005000Y-168275000D02*
X168456000Y-169726000D01*
X168456000Y-169726000D02*
X196034000Y-169726000D01*
X196034000Y-169726000D02*
X197485000Y-168275000D01*
X167005000Y-168275000D02*
X165554600Y-169725400D01*
X165554600Y-169725400D02*
X137975400Y-169725400D01*
X137975400Y-169725400D02*
X136525000Y-168275000D01*
X118345000Y-30861000D02*
X118345000Y-33401000D01*
D19*
G04 #@! TO.N,RESET-2*
X47225000Y-33401000D02*
X48011500Y-34187500D01*
X48011500Y-34187500D02*
X48011500Y-64521500D01*
X48011500Y-64521500D02*
X60960000Y-77470000D01*
X121920000Y-77470000D02*
X123713100Y-79263100D01*
X123713100Y-79263100D02*
X123713100Y-112283100D01*
X123713100Y-112283100D02*
X152400000Y-140970000D01*
X182880000Y-77470000D02*
X182955900Y-77394100D01*
X182955900Y-77394100D02*
X213284100Y-77394100D01*
X213284100Y-77394100D02*
X213360000Y-77470000D01*
G04 #@! TO.N,t1*
X49765000Y-33401000D02*
X49765000Y-33758400D01*
X49765000Y-33758400D02*
X70569800Y-54563200D01*
X70569800Y-54563200D02*
X70569800Y-83263700D01*
X70569800Y-83263700D02*
X72577600Y-85271500D01*
X72577600Y-85271500D02*
X76663400Y-85271500D01*
X76663400Y-85271500D02*
X91440000Y-100048100D01*
X91440000Y-100048100D02*
X91440000Y-138430000D01*
X91440000Y-138430000D02*
X90087800Y-139782200D01*
X90087800Y-139782200D02*
X90087800Y-142157800D01*
X90087800Y-142157800D02*
X91440000Y-143510000D01*
G04 #@! TO.N,GTQ2*
X55828000Y-38158800D02*
X73025000Y-55355800D01*
X73025000Y-55355800D02*
X73025000Y-78740000D01*
G04 #@! TO.N,t3-2*
X60960000Y-138430000D02*
X62737700Y-136652300D01*
X62737700Y-136652300D02*
X62737700Y-71909800D01*
X62737700Y-71909800D02*
X48582800Y-57754900D01*
X48582800Y-57754900D02*
X48582800Y-32882200D01*
X48582800Y-32882200D02*
X49239400Y-32225600D01*
X49239400Y-32225600D02*
X51129600Y-32225600D01*
X51129600Y-32225600D02*
X52305000Y-33401000D01*
X60960000Y-138430000D02*
X59624500Y-139765500D01*
X59624500Y-139765500D02*
X59624500Y-142174500D01*
X59624500Y-142174500D02*
X60960000Y-143510000D01*
X60960000Y-143510000D02*
X59631700Y-144838300D01*
X59631700Y-144838300D02*
X59631700Y-147261700D01*
X59631700Y-147261700D02*
X60960000Y-148590000D01*
G04 #@! TO.N,GTQ1*
X52305000Y-30861000D02*
X53515700Y-32071700D01*
X53515700Y-32071700D02*
X53515700Y-36872200D01*
X53515700Y-36872200D02*
X71020300Y-54376800D01*
X71020300Y-54376800D02*
X71020300Y-81815300D01*
X71020300Y-81815300D02*
X73025000Y-83820000D01*
G04 #@! TO.N,t4*
X91440000Y-77470000D02*
X114470200Y-100500200D01*
X114470200Y-100500200D02*
X114470200Y-133520200D01*
X114470200Y-133520200D02*
X121920000Y-140970000D01*
G04 #@! TO.N,OTA-2*
X54845000Y-30861000D02*
X56471800Y-29234200D01*
X56471800Y-29234200D02*
X59983700Y-29234200D01*
X59983700Y-29234200D02*
X61195000Y-30445500D01*
X61195000Y-30445500D02*
X61195000Y-33885000D01*
X61195000Y-33885000D02*
X104873900Y-77563900D01*
X104873900Y-77563900D02*
X104873900Y-82451100D01*
X104873900Y-82451100D02*
X103505000Y-83820000D01*
G04 #@! TO.N,GTQa*
X91440000Y-82550000D02*
X84343300Y-75453300D01*
X84343300Y-75453300D02*
X84343300Y-60359300D01*
X84343300Y-60359300D02*
X57385000Y-33401000D01*
X85979000Y-88417400D02*
X85979000Y-87392100D01*
X85979000Y-87392100D02*
X86597900Y-87392100D01*
X86597900Y-87392100D02*
X91440000Y-82550000D01*
X70398400Y-102170100D02*
X70398400Y-141691600D01*
X70398400Y-141691600D02*
X60960000Y-151130000D01*
G04 #@! TO.N,OTA-1*
X103505000Y-78740000D02*
X58655000Y-33890000D01*
X58655000Y-33890000D02*
X58655000Y-32131000D01*
X58655000Y-32131000D02*
X57385000Y-30861000D01*
G04 #@! TO.N,GTA2*
X59925000Y-30861000D02*
X58748600Y-29684600D01*
X58748600Y-29684600D02*
X56788900Y-29684600D01*
X56788900Y-29684600D02*
X56200500Y-30273000D01*
X56200500Y-30273000D02*
X56200500Y-33945700D01*
X56200500Y-33945700D02*
X59791700Y-37536900D01*
X59791700Y-37536900D02*
X60470600Y-37536900D01*
X60470600Y-37536900D02*
X83892900Y-60959200D01*
X83892900Y-60959200D02*
X83892900Y-88324700D01*
X83892900Y-88324700D02*
X103505000Y-107936800D01*
X103505000Y-107936800D02*
X103505000Y-142240000D01*
G04 #@! TO.N,GTAa*
X62465000Y-33401000D02*
X116335100Y-87271100D01*
X116335100Y-87271100D02*
X116335100Y-130413500D01*
X116335100Y-130413500D02*
X123301100Y-137379500D01*
X123301100Y-137379500D02*
X123301100Y-144668900D01*
X123301100Y-144668900D02*
X121920000Y-146050000D01*
X116002000Y-150774000D02*
X117027300Y-150774000D01*
X117027300Y-150774000D02*
X121751300Y-146050000D01*
X121751300Y-146050000D02*
X121920000Y-146050000D01*
G04 #@! TO.N,GTA1*
X63449300Y-41541500D02*
X75329000Y-53421200D01*
X75329000Y-53421200D02*
X75329000Y-80490400D01*
X75329000Y-80490400D02*
X100994200Y-106155600D01*
X100994200Y-106155600D02*
X100994200Y-144809300D01*
X100994200Y-144809300D02*
X100994300Y-144809300D01*
X100994300Y-144809300D02*
X103505000Y-147320000D01*
G04 #@! TO.N,OTA-'*
X63800200Y-30384500D02*
X62199500Y-28783800D01*
X62199500Y-28783800D02*
X50175100Y-28783800D01*
X50175100Y-28783800D02*
X48585100Y-30373800D01*
X48585100Y-30373800D02*
X48585100Y-31165200D01*
X48585100Y-31165200D02*
X47524700Y-32225600D01*
X47524700Y-32225600D02*
X46699400Y-32225600D01*
X46699400Y-32225600D02*
X46048000Y-32877000D01*
X46048000Y-32877000D02*
X46048000Y-35766900D01*
X46048000Y-35766900D02*
X47561100Y-37280000D01*
X47561100Y-37280000D02*
X47561100Y-97810500D01*
X47561100Y-97810500D02*
X50039500Y-100288900D01*
X50039500Y-100288900D02*
X50039500Y-142686200D01*
X50039500Y-142686200D02*
X49022000Y-143703700D01*
X65005000Y-33401000D02*
X63800200Y-32196200D01*
X63800200Y-32196200D02*
X63800200Y-30384500D01*
X121920000Y-82550000D02*
X120040900Y-82550000D01*
X120040900Y-82550000D02*
X71260400Y-33769500D01*
X71260400Y-33769500D02*
X71260400Y-32875400D01*
X71260400Y-32875400D02*
X70516000Y-32131000D01*
X70516000Y-32131000D02*
X69688600Y-32131000D01*
X69688600Y-32131000D02*
X68815000Y-31257400D01*
X68815000Y-31257400D02*
X68815000Y-30373200D01*
X68815000Y-30373200D02*
X68127400Y-29685600D01*
X68127400Y-29685600D02*
X64499100Y-29685600D01*
X64499100Y-29685600D02*
X63800200Y-30384500D01*
X49022000Y-144729000D02*
X49022000Y-143703700D01*
G04 #@! TO.N,OTP-2*
X133985000Y-147320000D02*
X117920100Y-131255100D01*
X117920100Y-131255100D02*
X117920100Y-87234400D01*
X117920100Y-87234400D02*
X66275000Y-35589300D01*
X66275000Y-35589300D02*
X66275000Y-32131000D01*
X66275000Y-32131000D02*
X65005000Y-30861000D01*
G04 #@! TO.N,MTPa*
X91440000Y-146050000D02*
X92774700Y-144715300D01*
X92774700Y-144715300D02*
X92774700Y-100399600D01*
X92774700Y-100399600D02*
X74350400Y-81975300D01*
X74350400Y-81975300D02*
X74350400Y-54742000D01*
X74350400Y-54742000D02*
X69413600Y-49805200D01*
X69413600Y-49805200D02*
X69413600Y-48556300D01*
G04 #@! TO.N,OTP-1*
X133985000Y-142240000D02*
X118370500Y-126625500D01*
X118370500Y-126625500D02*
X118370500Y-87029900D01*
X118370500Y-87029900D02*
X68815000Y-37474400D01*
X68815000Y-37474400D02*
X68815000Y-32131000D01*
X68815000Y-32131000D02*
X67545000Y-30861000D01*
G04 #@! TO.N,GTM2*
X70085000Y-30861000D02*
X71291100Y-32067100D01*
X71291100Y-32067100D02*
X73145300Y-32067100D01*
X73145300Y-32067100D02*
X73974600Y-31237800D01*
X73974600Y-31237800D02*
X73974600Y-30386100D01*
X73974600Y-30386100D02*
X74679300Y-29681400D01*
X74679300Y-29681400D02*
X78212000Y-29681400D01*
X78212000Y-29681400D02*
X78975000Y-30444400D01*
X78975000Y-30444400D02*
X78975000Y-33793200D01*
X78975000Y-33793200D02*
X90637100Y-45455300D01*
X90637100Y-45455300D02*
X96350500Y-45455300D01*
X96350500Y-45455300D02*
X127563000Y-76667800D01*
X127563000Y-76667800D02*
X127563000Y-77398000D01*
G04 #@! TO.N,GTMa*
X72625000Y-33401000D02*
X112828600Y-73604600D01*
X152400000Y-82550000D02*
X146787000Y-88163000D01*
X146787000Y-88163000D02*
X146787000Y-89763600D01*
G04 #@! TO.N,GTM1*
X133985000Y-78740000D02*
X91675000Y-36430000D01*
X91675000Y-36430000D02*
X91675000Y-33004600D01*
X91675000Y-33004600D02*
X90801400Y-32131000D01*
X90801400Y-32131000D02*
X89959000Y-32131000D01*
X89959000Y-32131000D02*
X89135000Y-31307000D01*
X89135000Y-31307000D02*
X89135000Y-30455400D01*
X89135000Y-30455400D02*
X87910700Y-29231100D01*
X87910700Y-29231100D02*
X74254900Y-29231100D01*
X74254900Y-29231100D02*
X72625000Y-30861000D01*
G04 #@! TO.N,WTM2*
X164465000Y-147320000D02*
X124350100Y-107205100D01*
X124350100Y-107205100D02*
X124350100Y-75437400D01*
X124350100Y-75437400D02*
X121447600Y-72534900D01*
X121447600Y-72534900D02*
X112585900Y-72534900D01*
X112585900Y-72534900D02*
X73974400Y-33923400D01*
X73974400Y-33923400D02*
X73974400Y-32051600D01*
X73974400Y-32051600D02*
X75165000Y-30861000D01*
G04 #@! TO.N,WTMa*
X77705000Y-33401000D02*
X109814000Y-65510000D01*
X109814000Y-65510000D02*
X115751500Y-65510000D01*
X115751500Y-65510000D02*
X126522200Y-76280700D01*
X126522200Y-76280700D02*
X126522200Y-100481600D01*
X126522200Y-100481600D02*
X176764600Y-150724000D01*
X176764600Y-150724000D02*
X176926700Y-150724000D01*
X177952000Y-150724000D02*
X176926700Y-150724000D01*
X177952000Y-150724000D02*
X178977300Y-150724000D01*
X178977300Y-150724000D02*
X178977300Y-149952700D01*
X178977300Y-149952700D02*
X182880000Y-146050000D01*
G04 #@! TO.N,WTM1*
X77705000Y-30861000D02*
X76514400Y-32051600D01*
X76514400Y-32051600D02*
X76514400Y-33899700D01*
X76514400Y-33899700D02*
X114676200Y-72061500D01*
X114676200Y-72061500D02*
X121611100Y-72061500D01*
X121611100Y-72061500D02*
X126071900Y-76522300D01*
X126071900Y-76522300D02*
X126071900Y-103846900D01*
X126071900Y-103846900D02*
X164465000Y-142240000D01*
G04 #@! TO.N,OTM-2*
X80245000Y-30861000D02*
X81609600Y-32225600D01*
X81609600Y-32225600D02*
X83310600Y-32225600D01*
X83310600Y-32225600D02*
X84133300Y-33048300D01*
X84133300Y-33048300D02*
X84133300Y-33894300D01*
X84133300Y-33894300D02*
X94950300Y-44711300D01*
G04 #@! TO.N,OTMa*
X91440000Y-151130000D02*
X93267300Y-149302700D01*
X93267300Y-149302700D02*
X93267300Y-99065600D01*
X93267300Y-99065600D02*
X74800800Y-80599100D01*
X74800800Y-80599100D02*
X74800800Y-53928000D01*
X74800800Y-53928000D02*
X71160200Y-50287400D01*
X91440000Y-151130000D02*
X88468000Y-154102000D01*
X88468000Y-154102000D02*
X85445600Y-154102000D01*
G04 #@! TO.N,GTJ2*
X85325000Y-30861000D02*
X86595000Y-32131000D01*
X86595000Y-32131000D02*
X86595000Y-33813400D01*
X86595000Y-33813400D02*
X128288400Y-75506800D01*
X128288400Y-75506800D02*
X128288400Y-101610900D01*
X128288400Y-101610900D02*
X163077200Y-136399700D01*
X163077200Y-136399700D02*
X184024700Y-136399700D01*
X184024700Y-136399700D02*
X194945000Y-147320000D01*
G04 #@! TO.N,GTJa*
X60960000Y-140970000D02*
X68844600Y-133085400D01*
X68844600Y-133085400D02*
X68844600Y-53871100D01*
X207721000Y-151003000D02*
X208746300Y-151003000D01*
X208746300Y-151003000D02*
X208746300Y-150663700D01*
X208746300Y-150663700D02*
X213360000Y-146050000D01*
G04 #@! TO.N,GTJ1*
X194945000Y-142240000D02*
X159505700Y-106800700D01*
X159505700Y-106800700D02*
X134115100Y-106800700D01*
X134115100Y-106800700D02*
X131402900Y-104088500D01*
X131402900Y-104088500D02*
X131402900Y-76844200D01*
X131402900Y-76844200D02*
X89135000Y-34576300D01*
X89135000Y-34576300D02*
X89135000Y-32131000D01*
X89135000Y-32131000D02*
X87865000Y-30861000D01*
G04 #@! TO.N,OTJ-'*
X91751000Y-30137700D02*
X89919200Y-28305900D01*
X89919200Y-28305900D02*
X48056500Y-28305900D01*
X48056500Y-28305900D02*
X46048200Y-30314200D01*
X46048200Y-30314200D02*
X46048200Y-31162100D01*
X46048200Y-31162100D02*
X44984700Y-32225600D01*
X44984700Y-32225600D02*
X44159400Y-32225600D01*
X44159400Y-32225600D02*
X43480700Y-32904300D01*
X43480700Y-32904300D02*
X43480700Y-33874900D01*
X43480700Y-33874900D02*
X47110800Y-37505000D01*
X47110800Y-37505000D02*
X47110800Y-100284800D01*
X47110800Y-100284800D02*
X48996600Y-102170600D01*
X48996600Y-102170600D02*
X48996600Y-139675000D01*
X91751000Y-30137700D02*
X93148800Y-28739900D01*
X93148800Y-28739900D02*
X121287100Y-28739900D01*
X121287100Y-28739900D02*
X181520000Y-88972800D01*
X181520000Y-88972800D02*
X206937200Y-88972800D01*
X206937200Y-88972800D02*
X213360000Y-82550000D01*
X91751000Y-30137700D02*
X91751000Y-32207000D01*
X91751000Y-32207000D02*
X92945000Y-33401000D01*
G04 #@! TO.N,OTG-2*
X95485000Y-30861000D02*
X96660400Y-32036400D01*
X96660400Y-32036400D02*
X98513900Y-32036400D01*
X98513900Y-32036400D02*
X99295000Y-31255300D01*
X99295000Y-31255300D02*
X99295000Y-30468700D01*
X99295000Y-30468700D02*
X100078100Y-29685600D01*
X100078100Y-29685600D02*
X120438500Y-29685600D01*
X120438500Y-29685600D02*
X193397800Y-102644900D01*
X193397800Y-102644900D02*
X199804500Y-102644900D01*
X199804500Y-102644900D02*
X222732100Y-125572500D01*
X222732100Y-125572500D02*
X222732100Y-144627200D01*
X222732100Y-144627200D02*
X222732200Y-144627200D01*
X222732200Y-144627200D02*
X225425000Y-147320000D01*
G04 #@! TO.N,OTG-1*
X98025000Y-30861000D02*
X99650800Y-29235200D01*
X99650800Y-29235200D02*
X120660000Y-29235200D01*
X120660000Y-29235200D02*
X180848000Y-89423200D01*
X180848000Y-89423200D02*
X187220200Y-89423200D01*
X187220200Y-89423200D02*
X225425000Y-127628000D01*
X225425000Y-127628000D02*
X225425000Y-142240000D01*
G04 #@! TO.N,CRS*
X225425000Y-78740000D02*
X178721400Y-32036400D01*
G04 #@! TO.N,Net-(R3-Pad2)*
X48137700Y-148615100D02*
X50489900Y-146262900D01*
X50489900Y-146262900D02*
X50489900Y-93020100D01*
X50489900Y-93020100D02*
X60960000Y-82550000D01*
X42545000Y-147320000D02*
X43840200Y-148615200D01*
X43840200Y-148615200D02*
X48137600Y-148615200D01*
X48137600Y-148615200D02*
X48137700Y-148615100D01*
X49072800Y-149550300D02*
X48137700Y-148615100D01*
X49072800Y-150063000D02*
X49072800Y-149550300D01*
G04 #@! TO.N,Net-(R6-Pad2)*
X77774800Y-149962000D02*
X78800100Y-149962000D01*
X78800100Y-149962000D02*
X79826000Y-150987900D01*
X79826000Y-150987900D02*
X85834700Y-150987900D01*
X85834700Y-150987900D02*
X87710000Y-149112600D01*
X87710000Y-149112600D02*
X87710000Y-103843400D01*
X87710000Y-103843400D02*
X89975500Y-101577900D01*
G04 #@! TO.N,Net-(R8-Pad2)*
X77673200Y-139319000D02*
X75946000Y-139319000D01*
X75946000Y-139319000D02*
X73025000Y-142240000D01*
G04 #@! TO.N,Net-(U1-Pad1)*
X243840000Y-151130000D02*
X245236100Y-149733900D01*
X245236100Y-149733900D02*
X245236100Y-139826100D01*
X245236100Y-139826100D02*
X243840000Y-138430000D01*
G04 #@! TO.N,Net-(U3-Pad1)*
X182880000Y-151130000D02*
X184239900Y-149770100D01*
X184239900Y-149770100D02*
X184239900Y-139789900D01*
X184239900Y-139789900D02*
X182880000Y-138430000D01*
G04 #@! TO.N,Net-(U14-Pad1)*
X60960000Y-87630000D02*
X62287300Y-86302700D01*
X62287300Y-86302700D02*
X62287300Y-76257300D01*
X62287300Y-76257300D02*
X60960000Y-74930000D01*
G04 #@! TD*
M02*
