G04 #@! TF.GenerationSoftware,KiCad,Pcbnew,(5.0.0)*
G04 #@! TF.CreationDate,2019-12-09T00:58:10+00:00*
G04 #@! TF.ProjectId,Control Panel,436F6E74726F6C2050616E656C2E6B69,rev?*
G04 #@! TF.SameCoordinates,Original*
G04 #@! TF.FileFunction,Other,User*
%FSLAX46Y46*%
G04 Gerber Fmt 4.6, Leading zero omitted, Abs format (unit mm)*
G04 Created by KiCad (PCBNEW (5.0.0)) date 12/09/19 00:58:10*
%MOMM*%
%LPD*%
G01*
G04 APERTURE LIST*
%ADD10C,0.500000*%
%ADD11C,0.050000*%
G04 APERTURE END LIST*
D10*
G04 #@! TO.C,SW8*
X100330000Y-72302000D02*
X115570000Y-72302000D01*
X115570000Y-72302000D02*
X115570000Y-128690000D01*
X115570000Y-128690000D02*
X100330000Y-128690000D01*
X100330000Y-128690000D02*
X100330000Y-72302000D01*
G04 #@! TO.C,SW9*
X82550000Y-72302000D02*
X97790000Y-72302000D01*
X97790000Y-72302000D02*
X97790000Y-128690000D01*
X97790000Y-128690000D02*
X82550000Y-128690000D01*
X82550000Y-128690000D02*
X82550000Y-72302000D01*
G04 #@! TO.C,SW10*
X46990000Y-72302000D02*
X62230000Y-72302000D01*
X62230000Y-72302000D02*
X62230000Y-128690000D01*
X62230000Y-128690000D02*
X46990000Y-128690000D01*
X46990000Y-128690000D02*
X46990000Y-72302000D01*
G04 #@! TO.C,SW11*
X64770000Y-72302000D02*
X80010000Y-72302000D01*
X80010000Y-72302000D02*
X80010000Y-128690000D01*
X80010000Y-128690000D02*
X64770000Y-128690000D01*
X64770000Y-128690000D02*
X64770000Y-72302000D01*
G04 #@! TO.C,SW13*
X233680000Y-72302000D02*
X248920000Y-72302000D01*
X248920000Y-72302000D02*
X248920000Y-128690000D01*
X248920000Y-128690000D02*
X233680000Y-128690000D01*
X233680000Y-128690000D02*
X233680000Y-72302000D01*
G04 #@! TO.C,SW15*
X251460000Y-72302000D02*
X266700000Y-72302000D01*
X266700000Y-72302000D02*
X266700000Y-128690000D01*
X266700000Y-128690000D02*
X251460000Y-128690000D01*
X251460000Y-128690000D02*
X251460000Y-72302000D01*
G04 #@! TO.C,SW17*
X269240000Y-72302000D02*
X284480000Y-72302000D01*
X284480000Y-72302000D02*
X284480000Y-128690000D01*
X284480000Y-128690000D02*
X269240000Y-128690000D01*
X269240000Y-128690000D02*
X269240000Y-72302000D01*
G04 #@! TO.C,SW35*
X53340000Y-58840000D02*
X53340000Y-8040000D01*
X38100000Y-58840000D02*
X38100000Y-8040000D01*
X38100000Y-58840000D02*
X53340000Y-58840000D01*
X38100000Y-8040000D02*
X53340000Y-8040000D01*
G04 #@! TO.C,SW20*
X320040000Y-58840000D02*
X320040000Y-8040000D01*
X304800000Y-58840000D02*
X304800000Y-8040000D01*
X304800000Y-58840000D02*
X320040000Y-58840000D01*
X304800000Y-8040000D02*
X320040000Y-8040000D01*
G04 #@! TO.C,SW19*
X337820000Y-58840000D02*
X337820000Y-8040000D01*
X322580000Y-58840000D02*
X322580000Y-8040000D01*
X322580000Y-58840000D02*
X337820000Y-58840000D01*
X322580000Y-8040000D02*
X337820000Y-8040000D01*
G04 #@! TO.C,SW18*
X355600000Y-58840000D02*
X355600000Y-8040000D01*
X340360000Y-58840000D02*
X340360000Y-8040000D01*
X340360000Y-58840000D02*
X355600000Y-58840000D01*
X340360000Y-8040000D02*
X355600000Y-8040000D01*
G04 #@! TO.C,SW21*
X302260000Y-58840000D02*
X302260000Y-8040000D01*
X287020000Y-58840000D02*
X287020000Y-8040000D01*
X287020000Y-58840000D02*
X302260000Y-58840000D01*
X287020000Y-8040000D02*
X302260000Y-8040000D01*
G04 #@! TO.C,SW22*
X284480000Y-58840000D02*
X284480000Y-8040000D01*
X269240000Y-58840000D02*
X269240000Y-8040000D01*
X269240000Y-58840000D02*
X284480000Y-58840000D01*
X269240000Y-8040000D02*
X284480000Y-8040000D01*
G04 #@! TO.C,SW23*
X266700000Y-58840000D02*
X266700000Y-8040000D01*
X251460000Y-58840000D02*
X251460000Y-8040000D01*
X251460000Y-58840000D02*
X266700000Y-58840000D01*
X251460000Y-8040000D02*
X266700000Y-8040000D01*
G04 #@! TO.C,SW24*
X248920000Y-58840000D02*
X248920000Y-8040000D01*
X233680000Y-58840000D02*
X233680000Y-8040000D01*
X233680000Y-58840000D02*
X248920000Y-58840000D01*
X233680000Y-8040000D02*
X248920000Y-8040000D01*
G04 #@! TO.C,SW25*
X231140000Y-58840000D02*
X231140000Y-8040000D01*
X215900000Y-58840000D02*
X215900000Y-8040000D01*
X215900000Y-58840000D02*
X231140000Y-58840000D01*
X215900000Y-8040000D02*
X231140000Y-8040000D01*
G04 #@! TO.C,SW26*
X213360000Y-58840000D02*
X213360000Y-8040000D01*
X198120000Y-58840000D02*
X198120000Y-8040000D01*
X198120000Y-58840000D02*
X213360000Y-58840000D01*
X198120000Y-8040000D02*
X213360000Y-8040000D01*
G04 #@! TO.C,SW27*
X195580000Y-58840000D02*
X195580000Y-8040000D01*
X180340000Y-58840000D02*
X180340000Y-8040000D01*
X180340000Y-58840000D02*
X195580000Y-58840000D01*
X180340000Y-8040000D02*
X195580000Y-8040000D01*
G04 #@! TO.C,SW28*
X177800000Y-58840000D02*
X177800000Y-8040000D01*
X162560000Y-58840000D02*
X162560000Y-8040000D01*
X162560000Y-58840000D02*
X177800000Y-58840000D01*
X162560000Y-8040000D02*
X177800000Y-8040000D01*
G04 #@! TO.C,SW29*
X160020000Y-58840000D02*
X160020000Y-8040000D01*
X144780000Y-58840000D02*
X144780000Y-8040000D01*
X144780000Y-58840000D02*
X160020000Y-58840000D01*
X144780000Y-8040000D02*
X160020000Y-8040000D01*
G04 #@! TO.C,SW30*
X142240000Y-58840000D02*
X142240000Y-8040000D01*
X127000000Y-58840000D02*
X127000000Y-8040000D01*
X127000000Y-58840000D02*
X142240000Y-58840000D01*
X127000000Y-8040000D02*
X142240000Y-8040000D01*
G04 #@! TO.C,SW31*
X124460000Y-58840000D02*
X124460000Y-8040000D01*
X109220000Y-58840000D02*
X109220000Y-8040000D01*
X109220000Y-58840000D02*
X124460000Y-58840000D01*
X109220000Y-8040000D02*
X124460000Y-8040000D01*
G04 #@! TO.C,SW32*
X106680000Y-58840000D02*
X106680000Y-8040000D01*
X91440000Y-58840000D02*
X91440000Y-8040000D01*
X91440000Y-58840000D02*
X106680000Y-58840000D01*
X91440000Y-8040000D02*
X106680000Y-8040000D01*
G04 #@! TO.C,SW33*
X88900000Y-58840000D02*
X88900000Y-8040000D01*
X73660000Y-58840000D02*
X73660000Y-8040000D01*
X73660000Y-58840000D02*
X88900000Y-58840000D01*
X73660000Y-8040000D02*
X88900000Y-8040000D01*
G04 #@! TO.C,SW34*
X71120000Y-58840000D02*
X71120000Y-8040000D01*
X55880000Y-58840000D02*
X55880000Y-8040000D01*
X55880000Y-58840000D02*
X71120000Y-58840000D01*
X55880000Y-8040000D02*
X71120000Y-8040000D01*
G04 #@! TO.C,SW16*
X225298000Y-116498000D02*
X193802000Y-116498000D01*
X193802000Y-116498000D02*
X193802000Y-90590000D01*
X193802000Y-90590000D02*
X225298000Y-90590000D01*
X225298000Y-90590000D02*
X225298000Y-116498000D01*
G04 #@! TO.C,SW12*
X159258000Y-90590000D02*
X159258000Y-116498000D01*
X127762000Y-90590000D02*
X159258000Y-90590000D01*
X127762000Y-116498000D02*
X127762000Y-90590000D01*
X159258000Y-116498000D02*
X127762000Y-116498000D01*
G04 #@! TO.C,SW14*
X192278000Y-90590000D02*
X192278000Y-116498000D01*
X160782000Y-90590000D02*
X192278000Y-90590000D01*
X160782000Y-116498000D02*
X160782000Y-90590000D01*
X192278000Y-116498000D02*
X160782000Y-116498000D01*
D11*
G04 #@! TO.C,R431*
X309650000Y-79750000D02*
X312150000Y-79750000D01*
X312150000Y-79750000D02*
X312150000Y-70030000D01*
X312150000Y-70030000D02*
X309650000Y-70030000D01*
X309650000Y-70030000D02*
X309650000Y-79750000D01*
G04 #@! TO.C,C51*
X309150000Y-85200000D02*
X309150000Y-80200000D01*
X309150000Y-80200000D02*
X291650000Y-80200000D01*
X291650000Y-80200000D02*
X291650000Y-85200000D01*
X291650000Y-85200000D02*
X309150000Y-85200000D01*
G04 #@! TO.C,C52*
X400350000Y-112200000D02*
X417850000Y-112200000D01*
X400350000Y-107200000D02*
X400350000Y-112200000D01*
X417850000Y-107200000D02*
X400350000Y-107200000D01*
X417850000Y-112200000D02*
X417850000Y-107200000D01*
G04 #@! TO.C,C53*
X414150000Y-32100000D02*
X414150000Y-27100000D01*
X414150000Y-27100000D02*
X396650000Y-27100000D01*
X396650000Y-27100000D02*
X396650000Y-32100000D01*
X396650000Y-32100000D02*
X414150000Y-32100000D01*
G04 #@! TO.C,C54*
X392750000Y-49200000D02*
X410250000Y-49200000D01*
X392750000Y-44200000D02*
X392750000Y-49200000D01*
X410250000Y-44200000D02*
X392750000Y-44200000D01*
X410250000Y-49200000D02*
X410250000Y-44200000D01*
G04 #@! TO.C,C55*
X442050000Y-43800000D02*
X442050000Y-38800000D01*
X442050000Y-38800000D02*
X424550000Y-38800000D01*
X424550000Y-38800000D02*
X424550000Y-43800000D01*
X424550000Y-43800000D02*
X442050000Y-43800000D01*
G04 #@! TO.C,C56*
X424550000Y-24200000D02*
X442050000Y-24200000D01*
X424550000Y-19200000D02*
X424550000Y-24200000D01*
X442050000Y-19200000D02*
X424550000Y-19200000D01*
X442050000Y-24200000D02*
X442050000Y-19200000D01*
G04 #@! TO.C,C57*
X457550000Y-43800000D02*
X475050000Y-43800000D01*
X457550000Y-38800000D02*
X457550000Y-43800000D01*
X475050000Y-38800000D02*
X457550000Y-38800000D01*
X475050000Y-43800000D02*
X475050000Y-38800000D01*
G04 #@! TO.C,C58*
X475050000Y-23800000D02*
X475050000Y-18800000D01*
X475050000Y-18800000D02*
X457550000Y-18800000D01*
X457550000Y-18800000D02*
X457550000Y-23800000D01*
X457550000Y-23800000D02*
X475050000Y-23800000D01*
G04 #@! TO.C,C121*
X136250000Y-127300000D02*
X136250000Y-122300000D01*
X136250000Y-122300000D02*
X118750000Y-122300000D01*
X118750000Y-122300000D02*
X118750000Y-127300000D01*
X118750000Y-127300000D02*
X136250000Y-127300000D01*
G04 #@! TO.C,C141*
X154850000Y-127500000D02*
X172350000Y-127500000D01*
X154850000Y-122500000D02*
X154850000Y-127500000D01*
X172350000Y-122500000D02*
X154850000Y-122500000D01*
X172350000Y-127500000D02*
X172350000Y-122500000D01*
G04 #@! TO.C,C161*
X199250000Y-128100000D02*
X199250000Y-123100000D01*
X199250000Y-123100000D02*
X181750000Y-123100000D01*
X181750000Y-123100000D02*
X181750000Y-128100000D01*
X181750000Y-128100000D02*
X199250000Y-128100000D01*
G04 #@! TO.C,D1*
X342170000Y-123150000D02*
X332450000Y-123150000D01*
X342170000Y-125650000D02*
X342170000Y-123150000D01*
X332450000Y-125650000D02*
X342170000Y-125650000D01*
X332450000Y-123150000D02*
X332450000Y-125650000D01*
G04 #@! TO.C,D2*
X310550000Y-123150000D02*
X310550000Y-125650000D01*
X310550000Y-125650000D02*
X320270000Y-125650000D01*
X320270000Y-125650000D02*
X320270000Y-123150000D01*
X320270000Y-123150000D02*
X310550000Y-123150000D01*
G04 #@! TO.C,D12*
X137570000Y-116650000D02*
X127850000Y-116650000D01*
X137570000Y-119150000D02*
X137570000Y-116650000D01*
X127850000Y-119150000D02*
X137570000Y-119150000D01*
X127850000Y-116650000D02*
X127850000Y-119150000D01*
G04 #@! TO.C,D14*
X170570000Y-117150000D02*
X160850000Y-117150000D01*
X170570000Y-119650000D02*
X170570000Y-117150000D01*
X160850000Y-119650000D02*
X170570000Y-119650000D01*
X160850000Y-117150000D02*
X160850000Y-119650000D01*
G04 #@! TO.C,D16*
X198570000Y-118550000D02*
X188850000Y-118550000D01*
X198570000Y-121050000D02*
X198570000Y-118550000D01*
X188850000Y-121050000D02*
X198570000Y-121050000D01*
X188850000Y-118550000D02*
X188850000Y-121050000D01*
G04 #@! TO.C,D41*
X309150000Y-70150000D02*
X306650000Y-70150000D01*
X306650000Y-70150000D02*
X306650000Y-79870000D01*
X306650000Y-79870000D02*
X309150000Y-79870000D01*
X309150000Y-79870000D02*
X309150000Y-70150000D01*
G04 #@! TO.C,D42*
X422450000Y-103670000D02*
X422450000Y-93950000D01*
X419950000Y-103670000D02*
X422450000Y-103670000D01*
X419950000Y-93950000D02*
X419950000Y-103670000D01*
X422450000Y-93950000D02*
X419950000Y-93950000D01*
G04 #@! TO.C,D45*
X443450000Y-38470000D02*
X443450000Y-28750000D01*
X440950000Y-38470000D02*
X443450000Y-38470000D01*
X440950000Y-28750000D02*
X440950000Y-38470000D01*
X443450000Y-28750000D02*
X440950000Y-28750000D01*
G04 #@! TO.C,D46*
X448350000Y-8950000D02*
X445850000Y-8950000D01*
X445850000Y-8950000D02*
X445850000Y-18670000D01*
X445850000Y-18670000D02*
X448350000Y-18670000D01*
X448350000Y-18670000D02*
X448350000Y-8950000D01*
G04 #@! TO.C,D47*
X475050000Y-28750000D02*
X472550000Y-28750000D01*
X472550000Y-28750000D02*
X472550000Y-38470000D01*
X472550000Y-38470000D02*
X475050000Y-38470000D01*
X475050000Y-38470000D02*
X475050000Y-28750000D01*
G04 #@! TO.C,D48*
X475050000Y-8750000D02*
X472550000Y-8750000D01*
X472550000Y-8750000D02*
X472550000Y-18470000D01*
X472550000Y-18470000D02*
X475050000Y-18470000D01*
X475050000Y-18470000D02*
X475050000Y-8750000D01*
G04 #@! TO.C,Q11*
X304850000Y-79550000D02*
X299350000Y-79550000D01*
X304850000Y-79550000D02*
X304850000Y-74950000D01*
X299350000Y-74950000D02*
X299350000Y-79550000D01*
X299350000Y-74950000D02*
X304850000Y-74950000D01*
G04 #@! TO.C,Q12*
X402950000Y-99950000D02*
X408450000Y-99950000D01*
X402950000Y-99950000D02*
X402950000Y-104550000D01*
X408450000Y-104550000D02*
X408450000Y-99950000D01*
X408450000Y-104550000D02*
X402950000Y-104550000D01*
G04 #@! TO.C,Q13*
X401350000Y-20650000D02*
X406850000Y-20650000D01*
X401350000Y-20650000D02*
X401350000Y-25250000D01*
X406850000Y-25250000D02*
X406850000Y-20650000D01*
X406850000Y-25250000D02*
X401350000Y-25250000D01*
G04 #@! TO.C,Q14*
X401550000Y-13650000D02*
X407050000Y-13650000D01*
X401550000Y-13650000D02*
X401550000Y-18250000D01*
X407050000Y-18250000D02*
X407050000Y-13650000D01*
X407050000Y-18250000D02*
X401550000Y-18250000D01*
G04 #@! TO.C,Q15*
X437850000Y-36850000D02*
X432350000Y-36850000D01*
X437850000Y-36850000D02*
X437850000Y-32250000D01*
X432350000Y-32250000D02*
X432350000Y-36850000D01*
X432350000Y-32250000D02*
X437850000Y-32250000D01*
G04 #@! TO.C,Q16*
X432250000Y-13550000D02*
X437750000Y-13550000D01*
X432250000Y-13550000D02*
X432250000Y-18150000D01*
X437750000Y-18150000D02*
X437750000Y-13550000D01*
X437750000Y-18150000D02*
X432250000Y-18150000D01*
G04 #@! TO.C,Q17*
X470750000Y-38150000D02*
X465250000Y-38150000D01*
X470750000Y-38150000D02*
X470750000Y-33550000D01*
X465250000Y-33550000D02*
X465250000Y-38150000D01*
X465250000Y-33550000D02*
X470750000Y-33550000D01*
G04 #@! TO.C,Q18*
X465250000Y-13550000D02*
X470750000Y-13550000D01*
X465250000Y-13550000D02*
X465250000Y-18150000D01*
X470750000Y-18150000D02*
X470750000Y-13550000D01*
X470750000Y-18150000D02*
X465250000Y-18150000D01*
G04 #@! TO.C,Q21*
X299350000Y-69950000D02*
X304850000Y-69950000D01*
X299350000Y-69950000D02*
X299350000Y-74550000D01*
X304850000Y-74550000D02*
X304850000Y-69950000D01*
X304850000Y-74550000D02*
X299350000Y-74550000D01*
G04 #@! TO.C,Q22*
X408450000Y-98550000D02*
X402950000Y-98550000D01*
X408450000Y-98550000D02*
X408450000Y-93950000D01*
X402950000Y-93950000D02*
X402950000Y-98550000D01*
X402950000Y-93950000D02*
X408450000Y-93950000D01*
G04 #@! TO.C,Q23*
X406850000Y-37950000D02*
X401350000Y-37950000D01*
X406850000Y-37950000D02*
X406850000Y-33350000D01*
X401350000Y-33350000D02*
X401350000Y-37950000D01*
X401350000Y-33350000D02*
X406850000Y-33350000D01*
G04 #@! TO.C,Q24*
X401550000Y-8650000D02*
X407050000Y-8650000D01*
X401550000Y-8650000D02*
X401550000Y-13250000D01*
X407050000Y-13250000D02*
X407050000Y-8650000D01*
X407050000Y-13250000D02*
X401550000Y-13250000D01*
G04 #@! TO.C,Q25*
X432350000Y-26750000D02*
X437850000Y-26750000D01*
X432350000Y-26750000D02*
X432350000Y-31350000D01*
X437850000Y-31350000D02*
X437850000Y-26750000D01*
X437850000Y-31350000D02*
X432350000Y-31350000D01*
G04 #@! TO.C,Q26*
X437750000Y-13150000D02*
X432250000Y-13150000D01*
X437750000Y-13150000D02*
X437750000Y-8550000D01*
X432250000Y-8550000D02*
X432250000Y-13150000D01*
X432250000Y-8550000D02*
X437750000Y-8550000D01*
G04 #@! TO.C,Q27*
X470750000Y-33150000D02*
X465250000Y-33150000D01*
X470750000Y-33150000D02*
X470750000Y-28550000D01*
X465250000Y-28550000D02*
X465250000Y-33150000D01*
X465250000Y-28550000D02*
X470750000Y-28550000D01*
G04 #@! TO.C,Q28*
X470750000Y-13150000D02*
X465250000Y-13150000D01*
X470750000Y-13150000D02*
X470750000Y-8550000D01*
X465250000Y-8550000D02*
X465250000Y-13150000D01*
X465250000Y-8550000D02*
X470750000Y-8550000D01*
G04 #@! TO.C,R19*
X212350000Y-123350000D02*
X212350000Y-125850000D01*
X212350000Y-125850000D02*
X222070000Y-125850000D01*
X222070000Y-125850000D02*
X222070000Y-123350000D01*
X222070000Y-123350000D02*
X212350000Y-123350000D01*
G04 #@! TO.C,R22*
X202770000Y-51150000D02*
X193050000Y-51150000D01*
X202770000Y-53650000D02*
X202770000Y-51150000D01*
X193050000Y-53650000D02*
X202770000Y-53650000D01*
X193050000Y-51150000D02*
X193050000Y-53650000D01*
G04 #@! TO.C,R24*
X305550000Y-66950000D02*
X305550000Y-64450000D01*
X305550000Y-64450000D02*
X295830000Y-64450000D01*
X295830000Y-64450000D02*
X295830000Y-66950000D01*
X295830000Y-66950000D02*
X305550000Y-66950000D01*
G04 #@! TO.C,R25*
X395450000Y-94130000D02*
X395450000Y-103850000D01*
X397950000Y-94130000D02*
X395450000Y-94130000D01*
X397950000Y-103850000D02*
X397950000Y-94130000D01*
X395450000Y-103850000D02*
X397950000Y-103850000D01*
G04 #@! TO.C,R26*
X129250000Y-46350000D02*
X129250000Y-56070000D01*
X131750000Y-46350000D02*
X129250000Y-46350000D01*
X131750000Y-56070000D02*
X131750000Y-46350000D01*
X129250000Y-56070000D02*
X131750000Y-56070000D01*
G04 #@! TO.C,R28*
X349470000Y-65950000D02*
X339750000Y-65950000D01*
X349470000Y-68450000D02*
X349470000Y-65950000D01*
X339750000Y-68450000D02*
X349470000Y-68450000D01*
X339750000Y-65950000D02*
X339750000Y-68450000D01*
G04 #@! TO.C,R30*
X66420000Y-86150000D02*
X63920000Y-86150000D01*
X63920000Y-86150000D02*
X63920000Y-95870000D01*
X63920000Y-95870000D02*
X66420000Y-95870000D01*
X66420000Y-95870000D02*
X66420000Y-86150000D01*
G04 #@! TO.C,R31*
X84200000Y-86150000D02*
X81700000Y-86150000D01*
X81700000Y-86150000D02*
X81700000Y-95870000D01*
X81700000Y-95870000D02*
X84200000Y-95870000D01*
X84200000Y-95870000D02*
X84200000Y-86150000D01*
G04 #@! TO.C,R32*
X101980000Y-95870000D02*
X101980000Y-86150000D01*
X99480000Y-95870000D02*
X101980000Y-95870000D01*
X99480000Y-86150000D02*
X99480000Y-95870000D01*
X101980000Y-86150000D02*
X99480000Y-86150000D01*
G04 #@! TO.C,R35*
X312750000Y-90650000D02*
X315250000Y-90650000D01*
X315250000Y-90650000D02*
X315250000Y-80930000D01*
X315250000Y-80930000D02*
X312750000Y-80930000D01*
X312750000Y-80930000D02*
X312750000Y-90650000D01*
G04 #@! TO.C,R61*
X294650000Y-79750000D02*
X297150000Y-79750000D01*
X297150000Y-79750000D02*
X297150000Y-70030000D01*
X297150000Y-70030000D02*
X294650000Y-70030000D01*
X294650000Y-70030000D02*
X294650000Y-79750000D01*
G04 #@! TO.C,R66*
X427550000Y-8630000D02*
X427550000Y-18350000D01*
X430050000Y-8630000D02*
X427550000Y-8630000D01*
X430050000Y-18350000D02*
X430050000Y-8630000D01*
X427550000Y-18350000D02*
X430050000Y-18350000D01*
G04 #@! TO.C,R67*
X460550000Y-38350000D02*
X463050000Y-38350000D01*
X463050000Y-38350000D02*
X463050000Y-28630000D01*
X463050000Y-28630000D02*
X460550000Y-28630000D01*
X460550000Y-28630000D02*
X460550000Y-38350000D01*
G04 #@! TO.C,R68*
X460550000Y-18350000D02*
X463050000Y-18350000D01*
X463050000Y-18350000D02*
X463050000Y-8630000D01*
X463050000Y-8630000D02*
X460550000Y-8630000D01*
X460550000Y-8630000D02*
X460550000Y-18350000D01*
G04 #@! TO.C,R121*
X141250000Y-122350000D02*
X141250000Y-124850000D01*
X141250000Y-124850000D02*
X150970000Y-124850000D01*
X150970000Y-124850000D02*
X150970000Y-122350000D01*
X150970000Y-122350000D02*
X141250000Y-122350000D01*
G04 #@! TO.C,R432*
X427350000Y-93230000D02*
X427350000Y-102950000D01*
X429850000Y-93230000D02*
X427350000Y-93230000D01*
X429850000Y-102950000D02*
X429850000Y-93230000D01*
X427350000Y-102950000D02*
X429850000Y-102950000D01*
G04 #@! TO.C,R433*
X415650000Y-33650000D02*
X413150000Y-33650000D01*
X413150000Y-33650000D02*
X413150000Y-43370000D01*
X413150000Y-43370000D02*
X415650000Y-43370000D01*
X415650000Y-43370000D02*
X415650000Y-33650000D01*
G04 #@! TO.C,R435*
X437570000Y-110950000D02*
X427850000Y-110950000D01*
X437570000Y-113450000D02*
X437570000Y-110950000D01*
X427850000Y-113450000D02*
X437570000Y-113450000D01*
X427850000Y-110950000D02*
X427850000Y-113450000D01*
G04 #@! TO.C,R436*
X449350000Y-33250000D02*
X451850000Y-33250000D01*
X451850000Y-33250000D02*
X451850000Y-23530000D01*
X451850000Y-23530000D02*
X449350000Y-23530000D01*
X449350000Y-23530000D02*
X449350000Y-33250000D01*
G04 #@! TO.C,R438*
X475550000Y-8630000D02*
X475550000Y-18350000D01*
X478050000Y-8630000D02*
X475550000Y-8630000D01*
X478050000Y-18350000D02*
X478050000Y-8630000D01*
X475550000Y-18350000D02*
X478050000Y-18350000D01*
G04 #@! TO.C,J10*
X378200000Y-82000000D02*
X378200000Y-123640000D01*
X390400000Y-82000000D02*
X378200000Y-82000000D01*
X390400000Y-123640000D02*
X390400000Y-82000000D01*
X378200000Y-123640000D02*
X390400000Y-123640000D01*
G04 #@! TO.C,J4*
X361100000Y-82200000D02*
X361100000Y-123840000D01*
X373300000Y-82200000D02*
X361100000Y-82200000D01*
X373300000Y-123840000D02*
X373300000Y-82200000D01*
X361100000Y-123840000D02*
X373300000Y-123840000D01*
G04 #@! TD*
M02*
