M48
;DRILL file {KiCad (5.0.0)} date 12/09/19 00:58:14
;FORMAT={-:-/ absolute / inch / decimal}
FMAT,2
INCH,TZ
T1C0.0276
T2C0.0295
T3C0.0300
T4C0.0315
T5C0.0394
T6C0.0400
T7C0.0472
T8C0.0512
T9C0.0730
T10C0.1000
T11C0.2000
%
G90
G05
M72
T1
X5.0701Y-3.3268
X5.3701Y-3.3268
X16.8819Y-0.3811
X16.8819Y-0.6811
X16.315Y-1.3661
X16.315Y-1.6661
X18.1811Y-0.3811
X18.1811Y-0.6811
X17.7402Y-0.9677
X17.7402Y-1.2677
X5.6024Y-4.8661
X5.9024Y-4.8661
X3.9657Y-3.4331
X3.9657Y-3.7331
X0.3701Y-2.2165
X0.6701Y-2.2165
X12.2402Y-2.7984
X12.2402Y-3.0984
X3.2657Y-3.4331
X3.2657Y-3.7331
X18.1811Y-1.1685
X18.1811Y-1.4685
X2.5657Y-3.4331
X2.5657Y-3.7331
X5.0866Y-3.063
X5.3866Y-3.063
X18.7717Y-0.3811
X18.7717Y-0.6811
X5.1378Y-1.8661
X5.1378Y-2.1661
X0.4677Y-3.1299
X0.7677Y-3.1299
X13.4173Y-2.6457
X13.7173Y-2.6457
X16.8858Y-4.4173
X17.1858Y-4.4173
X1.1614Y-2.3819
X1.4614Y-2.3819
X15.6181Y-3.7472
X15.6181Y-4.0472
X11.6882Y-2.5866
X11.9882Y-2.5866
X16.874Y-3.7118
X16.874Y-4.0118
X11.6496Y-2.7984
X11.6496Y-3.0984
X7.6417Y-2.063
X7.9417Y-2.063
X8.4016Y-4.9055
X8.7016Y-4.9055
X12.3622Y-3.2276
X12.3622Y-3.5276
X1.1693Y-2.9016
X1.4693Y-2.9016
T2
X18.378Y-1.4291
X18.428Y-1.4291
X18.478Y-1.4291
X15.8622Y-1.4213
X15.9122Y-1.4213
X15.9622Y-1.4213
X15.9252Y-3.8071
X15.9752Y-3.8071
X16.0252Y-3.8071
X15.8622Y-0.9213
X15.9122Y-0.9213
X15.9622Y-0.9213
X15.9252Y-4.0433
X15.9752Y-4.0433
X16.0252Y-4.0433
X17.0827Y-1.1614
X17.1327Y-1.1614
X17.1827Y-1.1614
X11.8465Y-3.0591
X11.8965Y-3.0591
X11.9465Y-3.0591
X17.0787Y-0.6417
X17.1287Y-0.6417
X17.1787Y-0.6417
X18.378Y-0.6417
X18.428Y-0.6417
X18.478Y-0.6417
X18.378Y-1.2323
X18.428Y-1.2323
X18.478Y-1.2323
X17.0827Y-1.378
X17.1327Y-1.378
X17.1827Y-1.378
X17.0787Y-0.4449
X17.1287Y-0.4449
X17.1787Y-0.4449
X15.8701Y-0.4488
X15.9201Y-0.4488
X15.9701Y-0.4488
X15.8701Y-0.6457
X15.9201Y-0.6457
X15.9701Y-0.6457
X18.378Y-0.4449
X18.428Y-0.4449
X18.478Y-0.4449
X11.8465Y-2.8622
X11.8965Y-2.8622
X11.9465Y-2.8622
T3
X0.7244Y-3.9469
X0.7244Y-4.1969
X0.7244Y-4.4469
X0.7244Y-4.6043
X0.8976Y-4.1969
X0.8976Y-4.4469
X0.8976Y-4.6043
X1.0709Y-4.1969
X1.0709Y-4.4469
X1.0709Y-4.6043
X1.2441Y-3.9469
X1.2441Y-4.1969
X1.2441Y-4.4469
X1.2441Y-4.6043
T4
X12.5Y-3.8665
X12.5Y-4.4665
X12.8Y-3.7065
X12.8Y-4.6165
X13.1Y-3.8665
X13.1Y-4.4665
X7.4764Y-4.7165
X7.7764Y-4.7165
X17.4094Y-1.1732
X17.4094Y-1.4732
X13.3Y-3.8665
X13.3Y-4.4665
X13.6Y-3.7065
X13.6Y-4.6165
X13.9Y-3.8665
X13.9Y-4.4665
X11.7Y-3.8665
X11.7Y-4.4665
X12.Y-3.7065
X12.Y-4.6165
X12.3Y-3.8665
X12.3Y-4.4665
X5.0748Y-4.6417
X5.3748Y-4.6417
X17.6024Y-0.3937
X17.6024Y-0.6937
X16.5827Y-3.7402
X16.5827Y-4.0402
X15.5Y-2.2165
X15.5Y-2.8165
X15.8Y-2.0565
X15.8Y-2.9665
X16.1Y-2.2165
X16.1Y-2.8165
X16.3Y-2.2165
X16.3Y-2.8165
X16.6Y-2.0565
X16.6Y-2.9665
X16.9Y-2.2165
X16.9Y-2.8165
X6.374Y-4.6614
X6.674Y-4.6614
X0.8299Y-3.4882
X1.1299Y-3.4882
X12.122Y-2.8031
X12.122Y-3.1031
X12.2677Y-4.8976
X12.5677Y-4.8976
X18.6535Y-1.1732
X18.6535Y-1.4732
X13.1299Y-4.8976
X13.4299Y-4.8976
X18.6535Y-0.3858
X18.6535Y-0.6858
X14.7Y-2.2165
X14.7Y-2.8165
X15.Y-2.0565
X15.Y-2.9665
X15.3Y-2.2165
X15.3Y-2.8165
T5
X15.5118Y-1.8386
X16.1024Y-1.8386
X5.17Y-3.6465
X5.33Y-3.6465
X5.49Y-3.6465
X5.65Y-3.6465
X5.81Y-3.6465
X5.97Y-3.6465
X6.13Y-3.6465
X15.6654Y-1.1654
X16.2559Y-1.1654
X6.1457Y-4.9213
X6.7362Y-4.9213
X16.7638Y-0.8543
X17.3543Y-0.8543
X7.2047Y-4.9449
X7.7953Y-4.9449
X6.47Y-3.6465
X6.63Y-3.6465
X6.79Y-3.6465
X6.95Y-3.6465
X7.11Y-3.6465
X7.27Y-3.6465
X7.43Y-3.6465
X18.063Y-1.626
X18.6535Y-1.626
X4.7244Y-4.9134
X5.315Y-4.9134
X15.811Y-4.3189
X16.4016Y-4.3189
X18.063Y-0.8386
X18.6535Y-0.8386
X16.7638Y-1.626
X17.3543Y-1.626
X7.77Y-3.6465
X7.93Y-3.6465
X8.09Y-3.6465
X8.25Y-3.6465
X8.41Y-3.6465
X8.57Y-3.6465
X8.73Y-3.6465
X11.5315Y-3.2559
X12.122Y-3.2559
X0.3677Y-2.5299
X0.3677Y-2.6299
X0.4677Y-2.5299
X0.4677Y-2.6299
X0.5677Y-2.5299
X0.5677Y-2.6299
X0.6677Y-2.5299
X0.6677Y-2.6299
X0.7677Y-2.5299
X0.7677Y-2.6299
X0.8677Y-2.5299
X0.8677Y-2.6299
X0.9677Y-2.5299
X0.9677Y-2.6299
X1.0677Y-2.5299
X1.0677Y-2.6299
X1.1677Y-2.5299
X1.1677Y-2.6299
X1.2677Y-2.5299
X1.2677Y-2.6299
T7
X11.4Y-2.2165
X11.6Y-2.2165
X11.8Y-2.2165
X9.28Y-2.9465
X9.28Y-3.0665
X9.28Y-3.1865
X9.48Y-2.9465
X9.48Y-3.0665
X9.48Y-3.1865
X9.6Y-2.9465
X9.6Y-3.0665
X9.6Y-3.1865
X9.72Y-2.9465
X9.72Y-3.0665
X9.72Y-3.1865
X3.33Y-2.9465
X3.33Y-3.0665
X3.33Y-3.1865
X3.53Y-2.9465
X3.53Y-3.0665
X3.53Y-3.1865
X3.65Y-2.9465
X3.65Y-3.0665
X3.65Y-3.1865
X3.77Y-2.9465
X3.77Y-3.0665
X3.77Y-3.1865
X3.7Y-2.2165
X3.9Y-2.2165
X4.1Y-2.2165
X13.5Y-2.2165
X13.7Y-2.2165
X13.9Y-2.2165
X4.03Y-2.9465
X4.03Y-3.0665
X4.03Y-3.1865
X4.23Y-2.9465
X4.23Y-3.0665
X4.23Y-3.1865
X4.35Y-2.9465
X4.35Y-3.0665
X4.35Y-3.1865
X4.47Y-2.9465
X4.47Y-3.0665
X4.47Y-3.1865
X10.Y-2.2165
X10.2Y-2.2165
X10.4Y-2.2165
X10.7Y-2.2165
X10.9Y-2.2165
X11.1Y-2.2165
X2.63Y-2.9465
X2.63Y-3.0665
X2.63Y-3.1865
X2.83Y-2.9465
X2.83Y-3.0665
X2.83Y-3.1865
X2.95Y-2.9465
X2.95Y-3.0665
X2.95Y-3.1865
X3.07Y-2.9465
X3.07Y-3.0665
X3.07Y-3.1865
X10.68Y-2.9465
X10.68Y-3.0665
X10.68Y-3.1865
X10.88Y-2.9465
X10.88Y-3.0665
X10.88Y-3.1865
X11.Y-2.9465
X11.Y-3.0665
X11.Y-3.1865
X11.12Y-2.9465
X11.12Y-3.0665
X11.12Y-3.1865
X9.3Y-2.2165
X9.5Y-2.2165
X9.7Y-2.2165
X5.8Y-2.2165
X6.Y-2.2165
X6.2Y-2.2165
X5.1Y-2.2165
X5.3Y-2.2165
X5.5Y-2.2165
X1.6Y-2.2165
X1.8Y-2.2165
X2.Y-2.2165
X3.Y-2.2165
X3.2Y-2.2165
X3.4Y-2.2165
X9.98Y-2.9465
X9.98Y-3.0665
X9.98Y-3.1865
X10.18Y-2.9465
X10.18Y-3.0665
X10.18Y-3.1865
X10.3Y-2.9465
X10.3Y-3.0665
X10.3Y-3.1865
X10.42Y-2.9465
X10.42Y-3.0665
X10.42Y-3.1865
X8.6Y-2.2165
X8.8Y-2.2165
X9.Y-2.2165
X1.93Y-2.9465
X1.93Y-3.0665
X1.93Y-3.1865
X2.13Y-2.9465
X2.13Y-3.0665
X2.13Y-3.1865
X2.25Y-2.9465
X2.25Y-3.0665
X2.25Y-3.1865
X2.37Y-2.9465
X2.37Y-3.0665
X2.37Y-3.1865
X2.3Y-2.2165
X2.5Y-2.2165
X2.7Y-2.2165
X7.2Y-2.2165
X7.4Y-2.2165
X7.6Y-2.2165
X7.9Y-2.2165
X8.1Y-2.2165
X8.3Y-2.2165
X12.8Y-2.2165
X13.Y-2.2165
X13.2Y-2.2165
X12.1Y-2.2165
X12.3Y-2.2165
X12.5Y-2.2165
X6.5Y-2.2165
X6.7Y-2.2165
X6.9Y-2.2165
X4.4Y-2.2165
X4.6Y-2.2165
X4.8Y-2.2165
T8
X15.1417Y-3.348
X15.1417Y-3.548
X15.1417Y-3.748
X15.1417Y-3.948
X15.1417Y-4.148
X15.1417Y-4.348
X15.1417Y-4.548
X15.1417Y-4.748
X14.4685Y-3.3559
X14.4685Y-3.5559
X14.4685Y-3.7559
X14.4685Y-3.9559
X14.4685Y-4.1559
X14.4685Y-4.3559
X14.4685Y-4.5559
X14.4685Y-4.7559
T9
X14.5386Y-0.3803
X14.5386Y-0.9
X14.7886Y-0.3803
X14.7886Y-0.6402
X14.7886Y-0.9
X15.0386Y-0.3803
X15.0386Y-0.6402
X15.0386Y-0.9
X15.2Y-0.3803
X15.2Y-0.6402
X15.2Y-0.9
X14.5386Y-1.2803
X14.5386Y-1.8
X14.7886Y-1.2803
X14.7886Y-1.5402
X14.7886Y-1.8
X15.0386Y-1.2803
X15.0386Y-1.5402
X15.0386Y-1.8
X15.2Y-1.2803
X15.2Y-1.5402
X15.2Y-1.8
T10
X3.4Y-4.9165
X3.7Y-3.4165
X3.75Y-1.9665
X4.05Y-0.4665
X13.55Y-1.9665
X13.85Y-0.4665
X4.1Y-4.9165
X4.4Y-3.4165
X10.05Y-1.9665
X10.35Y-0.4665
X10.75Y-1.9665
X11.05Y-0.4665
X2.7Y-4.9165
X3.Y-3.4165
X10.75Y-4.9165
X11.05Y-3.4165
X9.35Y-1.9665
X9.65Y-0.4665
X5.85Y-1.9665
X6.15Y-0.4665
X5.15Y-1.9665
X5.45Y-0.4665
X1.65Y-1.9665
X1.95Y-0.4665
X3.05Y-1.9665
X3.35Y-0.4665
X10.05Y-4.9165
X10.35Y-3.4165
X8.65Y-1.9665
X8.95Y-0.4665
X2.Y-4.9165
X2.3Y-3.4165
X2.35Y-1.9665
X2.65Y-0.4665
X7.25Y-1.9665
X7.55Y-0.4665
X7.95Y-1.9665
X8.25Y-0.4665
X12.85Y-1.9665
X13.15Y-0.4665
X12.15Y-1.9665
X12.45Y-0.4665
X6.55Y-1.9665
X6.85Y-0.4665
X4.45Y-1.9665
X4.75Y-0.4665
X11.45Y-1.9665
X11.75Y-0.4665
X9.35Y-4.9165
X9.65Y-3.4165
T11
X12.85Y-0.4665
X13.15Y-1.9665
X12.15Y-0.4665
X12.45Y-1.9665
X6.55Y-0.4665
X6.85Y-1.9665
X4.45Y-0.4665
X4.75Y-1.9665
X11.45Y-0.4665
X11.75Y-1.9665
X9.35Y-3.4165
X9.65Y-4.9165
X3.4Y-3.4165
X3.7Y-4.9165
X3.75Y-0.4665
X4.05Y-1.9665
X13.55Y-0.4665
X13.85Y-1.9665
X4.1Y-3.4165
X4.4Y-4.9165
X10.05Y-0.4665
X10.35Y-1.9665
X10.75Y-0.4665
X11.05Y-1.9665
X2.7Y-3.4165
X3.Y-4.9165
X10.75Y-3.4165
X11.05Y-4.9165
X9.35Y-0.4665
X9.65Y-1.9665
X5.85Y-0.4665
X6.15Y-1.9665
X5.15Y-0.4665
X5.45Y-1.9665
X1.65Y-0.4665
X1.95Y-1.9665
X3.05Y-0.4665
X3.35Y-1.9665
X10.05Y-3.4165
X10.35Y-4.9165
X8.65Y-0.4665
X8.95Y-1.9665
X2.Y-3.4165
X2.3Y-4.9165
X2.35Y-0.4665
X2.65Y-1.9665
X7.25Y-0.4665
X7.55Y-1.9665
X7.95Y-0.4665
X8.25Y-1.9665
T6
X18.6128Y-4.5355G85X18.6628Y-4.5355
G05
X18.6128Y-4.7205G85X18.6628Y-4.7205
G05
X18.6128Y-4.9055G85X18.6628Y-4.9055
G05
T0
M30
