G04 #@! TF.GenerationSoftware,KiCad,Pcbnew,(5.0.0)*
G04 #@! TF.CreationDate,2019-12-09T00:58:10+00:00*
G04 #@! TF.ProjectId,Control Panel,436F6E74726F6C2050616E656C2E6B69,rev?*
G04 #@! TF.SameCoordinates,Original*
G04 #@! TF.FileFunction,Soldermask,Top*
G04 #@! TF.FilePolarity,Negative*
%FSLAX46Y46*%
G04 Gerber Fmt 4.6, Leading zero omitted, Abs format (unit mm)*
G04 Created by KiCad (PCBNEW (5.0.0)) date 12/09/19 00:58:10*
%MOMM*%
%LPD*%
G01*
G04 APERTURE LIST*
%ADD10C,5.080000*%
%ADD11R,2.000000X2.000000*%
%ADD12C,2.000000*%
%ADD13O,1.700000X1.700000*%
%ADD14R,1.700000X1.700000*%
%ADD15C,1.524000*%
%ADD16C,1.400000*%
%ADD17O,1.400000X1.400000*%
%ADD18C,2.500000*%
%ADD19C,17.000000*%
%ADD20O,2.000000X2.000000*%
%ADD21O,1.600000X1.600000*%
%ADD22R,1.600000X1.600000*%
%ADD23C,4.064000*%
%ADD24R,2.794000X3.810000*%
%ADD25R,1.050000X1.500000*%
%ADD26C,0.100000*%
%ADD27C,1.050000*%
%ADD28R,3.302000X2.032000*%
%ADD29C,2.600000*%
%ADD30R,2.600000X2.600000*%
G04 APERTURE END LIST*
D10*
G04 #@! TO.C,SW8*
X111760000Y-124880000D03*
X104140000Y-86780000D03*
D11*
X113538000Y-74842000D03*
X102362000Y-77890000D03*
X107442000Y-77890000D03*
X110490000Y-74842000D03*
X107442000Y-74842000D03*
X102362000Y-74842000D03*
X110490000Y-77890000D03*
X102362000Y-80938000D03*
X113538000Y-77890000D03*
X107442000Y-80938000D03*
X113538000Y-80938000D03*
X110490000Y-80938000D03*
D10*
X111760000Y-86780000D03*
X104140000Y-124880000D03*
G04 #@! TD*
G04 #@! TO.C,SW9*
X93980000Y-124880000D03*
X86360000Y-86780000D03*
D11*
X95758000Y-74842000D03*
X84582000Y-77890000D03*
X89662000Y-77890000D03*
X92710000Y-74842000D03*
X89662000Y-74842000D03*
X84582000Y-74842000D03*
X92710000Y-77890000D03*
X84582000Y-80938000D03*
X95758000Y-77890000D03*
X89662000Y-80938000D03*
X95758000Y-80938000D03*
X92710000Y-80938000D03*
D10*
X93980000Y-86780000D03*
X86360000Y-124880000D03*
G04 #@! TD*
G04 #@! TO.C,SW10*
X58420000Y-124880000D03*
X50800000Y-86780000D03*
D11*
X60198000Y-74842000D03*
X49022000Y-77890000D03*
X54102000Y-77890000D03*
X57150000Y-74842000D03*
X54102000Y-74842000D03*
X49022000Y-74842000D03*
X57150000Y-77890000D03*
X49022000Y-80938000D03*
X60198000Y-77890000D03*
X54102000Y-80938000D03*
X60198000Y-80938000D03*
X57150000Y-80938000D03*
D10*
X58420000Y-86780000D03*
X50800000Y-124880000D03*
G04 #@! TD*
G04 #@! TO.C,SW11*
X76200000Y-124880000D03*
X68580000Y-86780000D03*
D11*
X77978000Y-74842000D03*
X66802000Y-77890000D03*
X71882000Y-77890000D03*
X74930000Y-74842000D03*
X71882000Y-74842000D03*
X66802000Y-74842000D03*
X74930000Y-77890000D03*
X66802000Y-80938000D03*
X77978000Y-77890000D03*
X71882000Y-80938000D03*
X77978000Y-80938000D03*
X74930000Y-80938000D03*
D10*
X76200000Y-86780000D03*
X68580000Y-124880000D03*
G04 #@! TD*
G04 #@! TO.C,SW13*
X245110000Y-124880000D03*
X237490000Y-86780000D03*
D11*
X246888000Y-74842000D03*
X235712000Y-77890000D03*
X240792000Y-77890000D03*
X243840000Y-74842000D03*
X240792000Y-74842000D03*
X235712000Y-74842000D03*
X243840000Y-77890000D03*
X235712000Y-80938000D03*
X246888000Y-77890000D03*
X240792000Y-80938000D03*
X246888000Y-80938000D03*
X243840000Y-80938000D03*
D10*
X245110000Y-86780000D03*
X237490000Y-124880000D03*
G04 #@! TD*
G04 #@! TO.C,SW15*
X262890000Y-124880000D03*
X255270000Y-86780000D03*
D11*
X264668000Y-74842000D03*
X253492000Y-77890000D03*
X258572000Y-77890000D03*
X261620000Y-74842000D03*
X258572000Y-74842000D03*
X253492000Y-74842000D03*
X261620000Y-77890000D03*
X253492000Y-80938000D03*
X264668000Y-77890000D03*
X258572000Y-80938000D03*
X264668000Y-80938000D03*
X261620000Y-80938000D03*
D10*
X262890000Y-86780000D03*
X255270000Y-124880000D03*
G04 #@! TD*
G04 #@! TO.C,SW17*
X280670000Y-124880000D03*
X273050000Y-86780000D03*
D11*
X282448000Y-74842000D03*
X271272000Y-77890000D03*
X276352000Y-77890000D03*
X279400000Y-74842000D03*
X276352000Y-74842000D03*
X271272000Y-74842000D03*
X279400000Y-77890000D03*
X271272000Y-80938000D03*
X282448000Y-77890000D03*
X276352000Y-80938000D03*
X282448000Y-80938000D03*
X279400000Y-80938000D03*
D10*
X280670000Y-86780000D03*
X273050000Y-124880000D03*
G04 #@! TD*
G04 #@! TO.C,SW35*
X41910000Y-11850000D03*
X49530000Y-49950000D03*
D11*
X50800000Y-56300000D03*
X40640000Y-56300000D03*
X45720000Y-56300000D03*
D10*
X49530000Y-11850000D03*
X41910000Y-49950000D03*
G04 #@! TD*
G04 #@! TO.C,SW20*
X308610000Y-11850000D03*
X316230000Y-49950000D03*
D11*
X317500000Y-56300000D03*
X307340000Y-56300000D03*
X312420000Y-56300000D03*
D10*
X316230000Y-11850000D03*
X308610000Y-49950000D03*
G04 #@! TD*
G04 #@! TO.C,SW19*
X326390000Y-11850000D03*
X334010000Y-49950000D03*
D11*
X335280000Y-56300000D03*
X325120000Y-56300000D03*
X330200000Y-56300000D03*
D10*
X334010000Y-11850000D03*
X326390000Y-49950000D03*
G04 #@! TD*
G04 #@! TO.C,SW18*
X344170000Y-11850000D03*
X351790000Y-49950000D03*
D11*
X353060000Y-56300000D03*
X342900000Y-56300000D03*
X347980000Y-56300000D03*
D10*
X351790000Y-11850000D03*
X344170000Y-49950000D03*
G04 #@! TD*
G04 #@! TO.C,SW21*
X290830000Y-11850000D03*
X298450000Y-49950000D03*
D11*
X299720000Y-56300000D03*
X289560000Y-56300000D03*
X294640000Y-56300000D03*
D10*
X298450000Y-11850000D03*
X290830000Y-49950000D03*
G04 #@! TD*
G04 #@! TO.C,SW22*
X273050000Y-11850000D03*
X280670000Y-49950000D03*
D11*
X281940000Y-56300000D03*
X271780000Y-56300000D03*
X276860000Y-56300000D03*
D10*
X280670000Y-11850000D03*
X273050000Y-49950000D03*
G04 #@! TD*
G04 #@! TO.C,SW23*
X255270000Y-11850000D03*
X262890000Y-49950000D03*
D11*
X264160000Y-56300000D03*
X254000000Y-56300000D03*
X259080000Y-56300000D03*
D10*
X262890000Y-11850000D03*
X255270000Y-49950000D03*
G04 #@! TD*
G04 #@! TO.C,SW24*
X237490000Y-11850000D03*
X245110000Y-49950000D03*
D11*
X246380000Y-56300000D03*
X236220000Y-56300000D03*
X241300000Y-56300000D03*
D10*
X245110000Y-11850000D03*
X237490000Y-49950000D03*
G04 #@! TD*
G04 #@! TO.C,SW25*
X219710000Y-11850000D03*
X227330000Y-49950000D03*
D11*
X228600000Y-56300000D03*
X218440000Y-56300000D03*
X223520000Y-56300000D03*
D10*
X227330000Y-11850000D03*
X219710000Y-49950000D03*
G04 #@! TD*
G04 #@! TO.C,SW26*
X201930000Y-11850000D03*
X209550000Y-49950000D03*
D11*
X210820000Y-56300000D03*
X200660000Y-56300000D03*
X205740000Y-56300000D03*
D10*
X209550000Y-11850000D03*
X201930000Y-49950000D03*
G04 #@! TD*
G04 #@! TO.C,SW27*
X184150000Y-11850000D03*
X191770000Y-49950000D03*
D11*
X193040000Y-56300000D03*
X182880000Y-56300000D03*
X187960000Y-56300000D03*
D10*
X191770000Y-11850000D03*
X184150000Y-49950000D03*
G04 #@! TD*
G04 #@! TO.C,SW28*
X166370000Y-11850000D03*
X173990000Y-49950000D03*
D11*
X175260000Y-56300000D03*
X165100000Y-56300000D03*
X170180000Y-56300000D03*
D10*
X173990000Y-11850000D03*
X166370000Y-49950000D03*
G04 #@! TD*
G04 #@! TO.C,SW29*
X148590000Y-11850000D03*
X156210000Y-49950000D03*
D11*
X157480000Y-56300000D03*
X147320000Y-56300000D03*
X152400000Y-56300000D03*
D10*
X156210000Y-11850000D03*
X148590000Y-49950000D03*
G04 #@! TD*
G04 #@! TO.C,SW30*
X130810000Y-11850000D03*
X138430000Y-49950000D03*
D11*
X139700000Y-56300000D03*
X129540000Y-56300000D03*
X134620000Y-56300000D03*
D10*
X138430000Y-11850000D03*
X130810000Y-49950000D03*
G04 #@! TD*
G04 #@! TO.C,SW31*
X113030000Y-11850000D03*
X120650000Y-49950000D03*
D11*
X121920000Y-56300000D03*
X111760000Y-56300000D03*
X116840000Y-56300000D03*
D10*
X120650000Y-11850000D03*
X113030000Y-49950000D03*
G04 #@! TD*
G04 #@! TO.C,SW32*
X95250000Y-11850000D03*
X102870000Y-49950000D03*
D11*
X104140000Y-56300000D03*
X93980000Y-56300000D03*
X99060000Y-56300000D03*
D10*
X102870000Y-11850000D03*
X95250000Y-49950000D03*
G04 #@! TD*
G04 #@! TO.C,SW33*
X77470000Y-11850000D03*
X85090000Y-49950000D03*
D11*
X86360000Y-56300000D03*
X76200000Y-56300000D03*
X81280000Y-56300000D03*
D10*
X85090000Y-11850000D03*
X77470000Y-49950000D03*
G04 #@! TD*
G04 #@! TO.C,SW34*
X59690000Y-11850000D03*
X67310000Y-49950000D03*
D11*
X68580000Y-56300000D03*
X58420000Y-56300000D03*
X63500000Y-56300000D03*
D10*
X67310000Y-11850000D03*
X59690000Y-49950000D03*
G04 #@! TD*
D12*
G04 #@! TO.C,SW16*
X209550000Y-92622000D03*
X197358000Y-92622000D03*
X201422000Y-92622000D03*
X205486000Y-92622000D03*
X213614000Y-92622000D03*
X217678000Y-92622000D03*
X221742000Y-92622000D03*
G04 #@! TD*
G04 #@! TO.C,SW12*
X155702000Y-92622000D03*
X151638000Y-92622000D03*
X147574000Y-92622000D03*
X139446000Y-92622000D03*
X135382000Y-92622000D03*
X131318000Y-92622000D03*
X143510000Y-92622000D03*
G04 #@! TD*
G04 #@! TO.C,SW14*
X188722000Y-92622000D03*
X184658000Y-92622000D03*
X180594000Y-92622000D03*
X172466000Y-92622000D03*
X168402000Y-92622000D03*
X164338000Y-92622000D03*
X176530000Y-92622000D03*
G04 #@! TD*
D13*
G04 #@! TO.C,J1*
X9340000Y-64260000D03*
X9340000Y-66800000D03*
X11880000Y-64260000D03*
X11880000Y-66800000D03*
X14420000Y-64260000D03*
X14420000Y-66800000D03*
X16960000Y-64260000D03*
X16960000Y-66800000D03*
X19500000Y-64260000D03*
X19500000Y-66800000D03*
X22040000Y-64260000D03*
X22040000Y-66800000D03*
X24580000Y-64260000D03*
X24580000Y-66800000D03*
X27120000Y-64260000D03*
X27120000Y-66800000D03*
X29660000Y-64260000D03*
X29660000Y-66800000D03*
X32200000Y-64260000D03*
D14*
X32200000Y-66800000D03*
G04 #@! TD*
D15*
G04 #@! TO.C,K3*
X22800000Y-116950000D03*
X31600000Y-116950000D03*
X18400000Y-116950000D03*
X27200000Y-116950000D03*
X31600000Y-100250000D03*
X18400000Y-100250000D03*
X22800000Y-112950000D03*
X27200000Y-112950000D03*
X31600000Y-112950000D03*
X18400000Y-112950000D03*
X18400000Y-106600000D03*
X31600000Y-106600000D03*
X22800000Y-106600000D03*
X27200000Y-106600000D03*
G04 #@! TD*
D16*
G04 #@! TO.C,R431*
X310900000Y-78700000D03*
D17*
X310900000Y-71080000D03*
G04 #@! TD*
D18*
G04 #@! TO.C,SW2*
X353060000Y-113450000D03*
X345440000Y-94146000D03*
X345440000Y-117260000D03*
X337820000Y-98210000D03*
X353060000Y-98210000D03*
X337820000Y-113450000D03*
D19*
X345440000Y-105830000D03*
G04 #@! TD*
D18*
G04 #@! TO.C,SW3*
X312420000Y-113450000D03*
X304800000Y-94146000D03*
X304800000Y-117260000D03*
X297180000Y-98210000D03*
X312420000Y-98210000D03*
X297180000Y-113450000D03*
D19*
X304800000Y-105830000D03*
G04 #@! TD*
D18*
G04 #@! TO.C,SW4*
X332740000Y-113450000D03*
X325120000Y-94146000D03*
X325120000Y-117260000D03*
X317500000Y-98210000D03*
X332740000Y-98210000D03*
X317500000Y-113450000D03*
D19*
X325120000Y-105830000D03*
G04 #@! TD*
D18*
G04 #@! TO.C,SW5*
X429260000Y-71540000D03*
X421640000Y-52236000D03*
X421640000Y-75350000D03*
X414020000Y-56300000D03*
X429260000Y-56300000D03*
X414020000Y-71540000D03*
D19*
X421640000Y-63920000D03*
G04 #@! TD*
D18*
G04 #@! TO.C,SW7*
X408940000Y-71540000D03*
X401320000Y-52236000D03*
X401320000Y-75350000D03*
X393700000Y-56300000D03*
X408940000Y-56300000D03*
X393700000Y-71540000D03*
D19*
X401320000Y-63920000D03*
G04 #@! TD*
D11*
G04 #@! TO.C,C51*
X307900000Y-82700000D03*
D20*
X292900000Y-82700000D03*
G04 #@! TD*
G04 #@! TO.C,C52*
X401600000Y-109700000D03*
D11*
X416600000Y-109700000D03*
G04 #@! TD*
G04 #@! TO.C,C53*
X412900000Y-29600000D03*
D20*
X397900000Y-29600000D03*
G04 #@! TD*
G04 #@! TO.C,C54*
X394000000Y-46700000D03*
D11*
X409000000Y-46700000D03*
G04 #@! TD*
G04 #@! TO.C,C55*
X440800000Y-41300000D03*
D20*
X425800000Y-41300000D03*
G04 #@! TD*
G04 #@! TO.C,C56*
X425800000Y-21700000D03*
D11*
X440800000Y-21700000D03*
G04 #@! TD*
D20*
G04 #@! TO.C,C57*
X458800000Y-41300000D03*
D11*
X473800000Y-41300000D03*
G04 #@! TD*
G04 #@! TO.C,C58*
X473800000Y-21300000D03*
D20*
X458800000Y-21300000D03*
G04 #@! TD*
D11*
G04 #@! TO.C,C121*
X135000000Y-124800000D03*
D20*
X120000000Y-124800000D03*
G04 #@! TD*
G04 #@! TO.C,C141*
X156100000Y-125000000D03*
D11*
X171100000Y-125000000D03*
G04 #@! TD*
G04 #@! TO.C,C161*
X198000000Y-125600000D03*
D20*
X183000000Y-125600000D03*
G04 #@! TD*
D21*
G04 #@! TO.C,D1*
X341120000Y-124400000D03*
D22*
X333500000Y-124400000D03*
G04 #@! TD*
G04 #@! TO.C,D2*
X311600000Y-124400000D03*
D21*
X319220000Y-124400000D03*
G04 #@! TD*
D22*
G04 #@! TO.C,D3*
X28700000Y-88600000D03*
D21*
X21080000Y-88600000D03*
G04 #@! TD*
G04 #@! TO.C,D12*
X136520000Y-117900000D03*
D22*
X128900000Y-117900000D03*
G04 #@! TD*
D21*
G04 #@! TO.C,D14*
X169520000Y-118400000D03*
D22*
X161900000Y-118400000D03*
G04 #@! TD*
D21*
G04 #@! TO.C,D16*
X197520000Y-119800000D03*
D22*
X189900000Y-119800000D03*
G04 #@! TD*
G04 #@! TO.C,D41*
X307900000Y-71200000D03*
D21*
X307900000Y-78820000D03*
G04 #@! TD*
G04 #@! TO.C,D42*
X421200000Y-102620000D03*
D22*
X421200000Y-95000000D03*
G04 #@! TD*
D21*
G04 #@! TO.C,D45*
X442200000Y-37420000D03*
D22*
X442200000Y-29800000D03*
G04 #@! TD*
G04 #@! TO.C,D46*
X447100000Y-10000000D03*
D21*
X447100000Y-17620000D03*
G04 #@! TD*
D22*
G04 #@! TO.C,D47*
X473800000Y-29800000D03*
D21*
X473800000Y-37420000D03*
G04 #@! TD*
D22*
G04 #@! TO.C,D48*
X473800000Y-9800000D03*
D21*
X473800000Y-17420000D03*
G04 #@! TD*
D23*
G04 #@! TO.C,K1*
X369280000Y-32520000D03*
X369280000Y-45720000D03*
D24*
X375630000Y-32520000D03*
X375630000Y-39120000D03*
X375630000Y-45720000D03*
X381980000Y-32520000D03*
X381980000Y-39120000D03*
X381980000Y-45720000D03*
X386080000Y-32520000D03*
X386080000Y-39120000D03*
X386080000Y-45720000D03*
G04 #@! TD*
G04 #@! TO.C,K2*
X386080000Y-22860000D03*
X386080000Y-16260000D03*
X386080000Y-9660000D03*
X381980000Y-22860000D03*
X381980000Y-16260000D03*
X381980000Y-9660000D03*
X375630000Y-22860000D03*
X375630000Y-16260000D03*
X375630000Y-9660000D03*
D23*
X369280000Y-22860000D03*
X369280000Y-9660000D03*
G04 #@! TD*
D25*
G04 #@! TO.C,Q11*
X300900000Y-77700000D03*
D26*
G36*
X303728229Y-76951264D02*
X303753711Y-76955044D01*
X303778700Y-76961303D01*
X303802954Y-76969982D01*
X303826242Y-76980996D01*
X303848337Y-76994239D01*
X303869028Y-77009585D01*
X303888116Y-77026884D01*
X303905415Y-77045972D01*
X303920761Y-77066663D01*
X303934004Y-77088758D01*
X303945018Y-77112046D01*
X303953697Y-77136300D01*
X303959956Y-77161289D01*
X303963736Y-77186771D01*
X303965000Y-77212500D01*
X303965000Y-78187500D01*
X303963736Y-78213229D01*
X303959956Y-78238711D01*
X303953697Y-78263700D01*
X303945018Y-78287954D01*
X303934004Y-78311242D01*
X303920761Y-78333337D01*
X303905415Y-78354028D01*
X303888116Y-78373116D01*
X303869028Y-78390415D01*
X303848337Y-78405761D01*
X303826242Y-78419004D01*
X303802954Y-78430018D01*
X303778700Y-78438697D01*
X303753711Y-78444956D01*
X303728229Y-78448736D01*
X303702500Y-78450000D01*
X303177500Y-78450000D01*
X303151771Y-78448736D01*
X303126289Y-78444956D01*
X303101300Y-78438697D01*
X303077046Y-78430018D01*
X303053758Y-78419004D01*
X303031663Y-78405761D01*
X303010972Y-78390415D01*
X302991884Y-78373116D01*
X302974585Y-78354028D01*
X302959239Y-78333337D01*
X302945996Y-78311242D01*
X302934982Y-78287954D01*
X302926303Y-78263700D01*
X302920044Y-78238711D01*
X302916264Y-78213229D01*
X302915000Y-78187500D01*
X302915000Y-77212500D01*
X302916264Y-77186771D01*
X302920044Y-77161289D01*
X302926303Y-77136300D01*
X302934982Y-77112046D01*
X302945996Y-77088758D01*
X302959239Y-77066663D01*
X302974585Y-77045972D01*
X302991884Y-77026884D01*
X303010972Y-77009585D01*
X303031663Y-76994239D01*
X303053758Y-76980996D01*
X303077046Y-76969982D01*
X303101300Y-76961303D01*
X303126289Y-76955044D01*
X303151771Y-76951264D01*
X303177500Y-76950000D01*
X303702500Y-76950000D01*
X303728229Y-76951264D01*
X303728229Y-76951264D01*
G37*
D27*
X303440000Y-77700000D03*
D26*
G36*
X302458229Y-76951264D02*
X302483711Y-76955044D01*
X302508700Y-76961303D01*
X302532954Y-76969982D01*
X302556242Y-76980996D01*
X302578337Y-76994239D01*
X302599028Y-77009585D01*
X302618116Y-77026884D01*
X302635415Y-77045972D01*
X302650761Y-77066663D01*
X302664004Y-77088758D01*
X302675018Y-77112046D01*
X302683697Y-77136300D01*
X302689956Y-77161289D01*
X302693736Y-77186771D01*
X302695000Y-77212500D01*
X302695000Y-78187500D01*
X302693736Y-78213229D01*
X302689956Y-78238711D01*
X302683697Y-78263700D01*
X302675018Y-78287954D01*
X302664004Y-78311242D01*
X302650761Y-78333337D01*
X302635415Y-78354028D01*
X302618116Y-78373116D01*
X302599028Y-78390415D01*
X302578337Y-78405761D01*
X302556242Y-78419004D01*
X302532954Y-78430018D01*
X302508700Y-78438697D01*
X302483711Y-78444956D01*
X302458229Y-78448736D01*
X302432500Y-78450000D01*
X301907500Y-78450000D01*
X301881771Y-78448736D01*
X301856289Y-78444956D01*
X301831300Y-78438697D01*
X301807046Y-78430018D01*
X301783758Y-78419004D01*
X301761663Y-78405761D01*
X301740972Y-78390415D01*
X301721884Y-78373116D01*
X301704585Y-78354028D01*
X301689239Y-78333337D01*
X301675996Y-78311242D01*
X301664982Y-78287954D01*
X301656303Y-78263700D01*
X301650044Y-78238711D01*
X301646264Y-78213229D01*
X301645000Y-78187500D01*
X301645000Y-77212500D01*
X301646264Y-77186771D01*
X301650044Y-77161289D01*
X301656303Y-77136300D01*
X301664982Y-77112046D01*
X301675996Y-77088758D01*
X301689239Y-77066663D01*
X301704585Y-77045972D01*
X301721884Y-77026884D01*
X301740972Y-77009585D01*
X301761663Y-76994239D01*
X301783758Y-76980996D01*
X301807046Y-76969982D01*
X301831300Y-76961303D01*
X301856289Y-76955044D01*
X301881771Y-76951264D01*
X301907500Y-76950000D01*
X302432500Y-76950000D01*
X302458229Y-76951264D01*
X302458229Y-76951264D01*
G37*
D27*
X302170000Y-77700000D03*
G04 #@! TD*
D26*
G04 #@! TO.C,Q12*
G36*
X406058229Y-101951264D02*
X406083711Y-101955044D01*
X406108700Y-101961303D01*
X406132954Y-101969982D01*
X406156242Y-101980996D01*
X406178337Y-101994239D01*
X406199028Y-102009585D01*
X406218116Y-102026884D01*
X406235415Y-102045972D01*
X406250761Y-102066663D01*
X406264004Y-102088758D01*
X406275018Y-102112046D01*
X406283697Y-102136300D01*
X406289956Y-102161289D01*
X406293736Y-102186771D01*
X406295000Y-102212500D01*
X406295000Y-103187500D01*
X406293736Y-103213229D01*
X406289956Y-103238711D01*
X406283697Y-103263700D01*
X406275018Y-103287954D01*
X406264004Y-103311242D01*
X406250761Y-103333337D01*
X406235415Y-103354028D01*
X406218116Y-103373116D01*
X406199028Y-103390415D01*
X406178337Y-103405761D01*
X406156242Y-103419004D01*
X406132954Y-103430018D01*
X406108700Y-103438697D01*
X406083711Y-103444956D01*
X406058229Y-103448736D01*
X406032500Y-103450000D01*
X405507500Y-103450000D01*
X405481771Y-103448736D01*
X405456289Y-103444956D01*
X405431300Y-103438697D01*
X405407046Y-103430018D01*
X405383758Y-103419004D01*
X405361663Y-103405761D01*
X405340972Y-103390415D01*
X405321884Y-103373116D01*
X405304585Y-103354028D01*
X405289239Y-103333337D01*
X405275996Y-103311242D01*
X405264982Y-103287954D01*
X405256303Y-103263700D01*
X405250044Y-103238711D01*
X405246264Y-103213229D01*
X405245000Y-103187500D01*
X405245000Y-102212500D01*
X405246264Y-102186771D01*
X405250044Y-102161289D01*
X405256303Y-102136300D01*
X405264982Y-102112046D01*
X405275996Y-102088758D01*
X405289239Y-102066663D01*
X405304585Y-102045972D01*
X405321884Y-102026884D01*
X405340972Y-102009585D01*
X405361663Y-101994239D01*
X405383758Y-101980996D01*
X405407046Y-101969982D01*
X405431300Y-101961303D01*
X405456289Y-101955044D01*
X405481771Y-101951264D01*
X405507500Y-101950000D01*
X406032500Y-101950000D01*
X406058229Y-101951264D01*
X406058229Y-101951264D01*
G37*
D27*
X405770000Y-102700000D03*
D26*
G36*
X407328229Y-101951264D02*
X407353711Y-101955044D01*
X407378700Y-101961303D01*
X407402954Y-101969982D01*
X407426242Y-101980996D01*
X407448337Y-101994239D01*
X407469028Y-102009585D01*
X407488116Y-102026884D01*
X407505415Y-102045972D01*
X407520761Y-102066663D01*
X407534004Y-102088758D01*
X407545018Y-102112046D01*
X407553697Y-102136300D01*
X407559956Y-102161289D01*
X407563736Y-102186771D01*
X407565000Y-102212500D01*
X407565000Y-103187500D01*
X407563736Y-103213229D01*
X407559956Y-103238711D01*
X407553697Y-103263700D01*
X407545018Y-103287954D01*
X407534004Y-103311242D01*
X407520761Y-103333337D01*
X407505415Y-103354028D01*
X407488116Y-103373116D01*
X407469028Y-103390415D01*
X407448337Y-103405761D01*
X407426242Y-103419004D01*
X407402954Y-103430018D01*
X407378700Y-103438697D01*
X407353711Y-103444956D01*
X407328229Y-103448736D01*
X407302500Y-103450000D01*
X406777500Y-103450000D01*
X406751771Y-103448736D01*
X406726289Y-103444956D01*
X406701300Y-103438697D01*
X406677046Y-103430018D01*
X406653758Y-103419004D01*
X406631663Y-103405761D01*
X406610972Y-103390415D01*
X406591884Y-103373116D01*
X406574585Y-103354028D01*
X406559239Y-103333337D01*
X406545996Y-103311242D01*
X406534982Y-103287954D01*
X406526303Y-103263700D01*
X406520044Y-103238711D01*
X406516264Y-103213229D01*
X406515000Y-103187500D01*
X406515000Y-102212500D01*
X406516264Y-102186771D01*
X406520044Y-102161289D01*
X406526303Y-102136300D01*
X406534982Y-102112046D01*
X406545996Y-102088758D01*
X406559239Y-102066663D01*
X406574585Y-102045972D01*
X406591884Y-102026884D01*
X406610972Y-102009585D01*
X406631663Y-101994239D01*
X406653758Y-101980996D01*
X406677046Y-101969982D01*
X406701300Y-101961303D01*
X406726289Y-101955044D01*
X406751771Y-101951264D01*
X406777500Y-101950000D01*
X407302500Y-101950000D01*
X407328229Y-101951264D01*
X407328229Y-101951264D01*
G37*
D27*
X407040000Y-102700000D03*
D25*
X404500000Y-102700000D03*
G04 #@! TD*
D26*
G04 #@! TO.C,Q13*
G36*
X404458229Y-22651264D02*
X404483711Y-22655044D01*
X404508700Y-22661303D01*
X404532954Y-22669982D01*
X404556242Y-22680996D01*
X404578337Y-22694239D01*
X404599028Y-22709585D01*
X404618116Y-22726884D01*
X404635415Y-22745972D01*
X404650761Y-22766663D01*
X404664004Y-22788758D01*
X404675018Y-22812046D01*
X404683697Y-22836300D01*
X404689956Y-22861289D01*
X404693736Y-22886771D01*
X404695000Y-22912500D01*
X404695000Y-23887500D01*
X404693736Y-23913229D01*
X404689956Y-23938711D01*
X404683697Y-23963700D01*
X404675018Y-23987954D01*
X404664004Y-24011242D01*
X404650761Y-24033337D01*
X404635415Y-24054028D01*
X404618116Y-24073116D01*
X404599028Y-24090415D01*
X404578337Y-24105761D01*
X404556242Y-24119004D01*
X404532954Y-24130018D01*
X404508700Y-24138697D01*
X404483711Y-24144956D01*
X404458229Y-24148736D01*
X404432500Y-24150000D01*
X403907500Y-24150000D01*
X403881771Y-24148736D01*
X403856289Y-24144956D01*
X403831300Y-24138697D01*
X403807046Y-24130018D01*
X403783758Y-24119004D01*
X403761663Y-24105761D01*
X403740972Y-24090415D01*
X403721884Y-24073116D01*
X403704585Y-24054028D01*
X403689239Y-24033337D01*
X403675996Y-24011242D01*
X403664982Y-23987954D01*
X403656303Y-23963700D01*
X403650044Y-23938711D01*
X403646264Y-23913229D01*
X403645000Y-23887500D01*
X403645000Y-22912500D01*
X403646264Y-22886771D01*
X403650044Y-22861289D01*
X403656303Y-22836300D01*
X403664982Y-22812046D01*
X403675996Y-22788758D01*
X403689239Y-22766663D01*
X403704585Y-22745972D01*
X403721884Y-22726884D01*
X403740972Y-22709585D01*
X403761663Y-22694239D01*
X403783758Y-22680996D01*
X403807046Y-22669982D01*
X403831300Y-22661303D01*
X403856289Y-22655044D01*
X403881771Y-22651264D01*
X403907500Y-22650000D01*
X404432500Y-22650000D01*
X404458229Y-22651264D01*
X404458229Y-22651264D01*
G37*
D27*
X404170000Y-23400000D03*
D26*
G36*
X405728229Y-22651264D02*
X405753711Y-22655044D01*
X405778700Y-22661303D01*
X405802954Y-22669982D01*
X405826242Y-22680996D01*
X405848337Y-22694239D01*
X405869028Y-22709585D01*
X405888116Y-22726884D01*
X405905415Y-22745972D01*
X405920761Y-22766663D01*
X405934004Y-22788758D01*
X405945018Y-22812046D01*
X405953697Y-22836300D01*
X405959956Y-22861289D01*
X405963736Y-22886771D01*
X405965000Y-22912500D01*
X405965000Y-23887500D01*
X405963736Y-23913229D01*
X405959956Y-23938711D01*
X405953697Y-23963700D01*
X405945018Y-23987954D01*
X405934004Y-24011242D01*
X405920761Y-24033337D01*
X405905415Y-24054028D01*
X405888116Y-24073116D01*
X405869028Y-24090415D01*
X405848337Y-24105761D01*
X405826242Y-24119004D01*
X405802954Y-24130018D01*
X405778700Y-24138697D01*
X405753711Y-24144956D01*
X405728229Y-24148736D01*
X405702500Y-24150000D01*
X405177500Y-24150000D01*
X405151771Y-24148736D01*
X405126289Y-24144956D01*
X405101300Y-24138697D01*
X405077046Y-24130018D01*
X405053758Y-24119004D01*
X405031663Y-24105761D01*
X405010972Y-24090415D01*
X404991884Y-24073116D01*
X404974585Y-24054028D01*
X404959239Y-24033337D01*
X404945996Y-24011242D01*
X404934982Y-23987954D01*
X404926303Y-23963700D01*
X404920044Y-23938711D01*
X404916264Y-23913229D01*
X404915000Y-23887500D01*
X404915000Y-22912500D01*
X404916264Y-22886771D01*
X404920044Y-22861289D01*
X404926303Y-22836300D01*
X404934982Y-22812046D01*
X404945996Y-22788758D01*
X404959239Y-22766663D01*
X404974585Y-22745972D01*
X404991884Y-22726884D01*
X405010972Y-22709585D01*
X405031663Y-22694239D01*
X405053758Y-22680996D01*
X405077046Y-22669982D01*
X405101300Y-22661303D01*
X405126289Y-22655044D01*
X405151771Y-22651264D01*
X405177500Y-22650000D01*
X405702500Y-22650000D01*
X405728229Y-22651264D01*
X405728229Y-22651264D01*
G37*
D27*
X405440000Y-23400000D03*
D25*
X402900000Y-23400000D03*
G04 #@! TD*
D26*
G04 #@! TO.C,Q14*
G36*
X404658229Y-15651264D02*
X404683711Y-15655044D01*
X404708700Y-15661303D01*
X404732954Y-15669982D01*
X404756242Y-15680996D01*
X404778337Y-15694239D01*
X404799028Y-15709585D01*
X404818116Y-15726884D01*
X404835415Y-15745972D01*
X404850761Y-15766663D01*
X404864004Y-15788758D01*
X404875018Y-15812046D01*
X404883697Y-15836300D01*
X404889956Y-15861289D01*
X404893736Y-15886771D01*
X404895000Y-15912500D01*
X404895000Y-16887500D01*
X404893736Y-16913229D01*
X404889956Y-16938711D01*
X404883697Y-16963700D01*
X404875018Y-16987954D01*
X404864004Y-17011242D01*
X404850761Y-17033337D01*
X404835415Y-17054028D01*
X404818116Y-17073116D01*
X404799028Y-17090415D01*
X404778337Y-17105761D01*
X404756242Y-17119004D01*
X404732954Y-17130018D01*
X404708700Y-17138697D01*
X404683711Y-17144956D01*
X404658229Y-17148736D01*
X404632500Y-17150000D01*
X404107500Y-17150000D01*
X404081771Y-17148736D01*
X404056289Y-17144956D01*
X404031300Y-17138697D01*
X404007046Y-17130018D01*
X403983758Y-17119004D01*
X403961663Y-17105761D01*
X403940972Y-17090415D01*
X403921884Y-17073116D01*
X403904585Y-17054028D01*
X403889239Y-17033337D01*
X403875996Y-17011242D01*
X403864982Y-16987954D01*
X403856303Y-16963700D01*
X403850044Y-16938711D01*
X403846264Y-16913229D01*
X403845000Y-16887500D01*
X403845000Y-15912500D01*
X403846264Y-15886771D01*
X403850044Y-15861289D01*
X403856303Y-15836300D01*
X403864982Y-15812046D01*
X403875996Y-15788758D01*
X403889239Y-15766663D01*
X403904585Y-15745972D01*
X403921884Y-15726884D01*
X403940972Y-15709585D01*
X403961663Y-15694239D01*
X403983758Y-15680996D01*
X404007046Y-15669982D01*
X404031300Y-15661303D01*
X404056289Y-15655044D01*
X404081771Y-15651264D01*
X404107500Y-15650000D01*
X404632500Y-15650000D01*
X404658229Y-15651264D01*
X404658229Y-15651264D01*
G37*
D27*
X404370000Y-16400000D03*
D26*
G36*
X405928229Y-15651264D02*
X405953711Y-15655044D01*
X405978700Y-15661303D01*
X406002954Y-15669982D01*
X406026242Y-15680996D01*
X406048337Y-15694239D01*
X406069028Y-15709585D01*
X406088116Y-15726884D01*
X406105415Y-15745972D01*
X406120761Y-15766663D01*
X406134004Y-15788758D01*
X406145018Y-15812046D01*
X406153697Y-15836300D01*
X406159956Y-15861289D01*
X406163736Y-15886771D01*
X406165000Y-15912500D01*
X406165000Y-16887500D01*
X406163736Y-16913229D01*
X406159956Y-16938711D01*
X406153697Y-16963700D01*
X406145018Y-16987954D01*
X406134004Y-17011242D01*
X406120761Y-17033337D01*
X406105415Y-17054028D01*
X406088116Y-17073116D01*
X406069028Y-17090415D01*
X406048337Y-17105761D01*
X406026242Y-17119004D01*
X406002954Y-17130018D01*
X405978700Y-17138697D01*
X405953711Y-17144956D01*
X405928229Y-17148736D01*
X405902500Y-17150000D01*
X405377500Y-17150000D01*
X405351771Y-17148736D01*
X405326289Y-17144956D01*
X405301300Y-17138697D01*
X405277046Y-17130018D01*
X405253758Y-17119004D01*
X405231663Y-17105761D01*
X405210972Y-17090415D01*
X405191884Y-17073116D01*
X405174585Y-17054028D01*
X405159239Y-17033337D01*
X405145996Y-17011242D01*
X405134982Y-16987954D01*
X405126303Y-16963700D01*
X405120044Y-16938711D01*
X405116264Y-16913229D01*
X405115000Y-16887500D01*
X405115000Y-15912500D01*
X405116264Y-15886771D01*
X405120044Y-15861289D01*
X405126303Y-15836300D01*
X405134982Y-15812046D01*
X405145996Y-15788758D01*
X405159239Y-15766663D01*
X405174585Y-15745972D01*
X405191884Y-15726884D01*
X405210972Y-15709585D01*
X405231663Y-15694239D01*
X405253758Y-15680996D01*
X405277046Y-15669982D01*
X405301300Y-15661303D01*
X405326289Y-15655044D01*
X405351771Y-15651264D01*
X405377500Y-15650000D01*
X405902500Y-15650000D01*
X405928229Y-15651264D01*
X405928229Y-15651264D01*
G37*
D27*
X405640000Y-16400000D03*
D25*
X403100000Y-16400000D03*
G04 #@! TD*
G04 #@! TO.C,Q15*
X433900000Y-35000000D03*
D26*
G36*
X436728229Y-34251264D02*
X436753711Y-34255044D01*
X436778700Y-34261303D01*
X436802954Y-34269982D01*
X436826242Y-34280996D01*
X436848337Y-34294239D01*
X436869028Y-34309585D01*
X436888116Y-34326884D01*
X436905415Y-34345972D01*
X436920761Y-34366663D01*
X436934004Y-34388758D01*
X436945018Y-34412046D01*
X436953697Y-34436300D01*
X436959956Y-34461289D01*
X436963736Y-34486771D01*
X436965000Y-34512500D01*
X436965000Y-35487500D01*
X436963736Y-35513229D01*
X436959956Y-35538711D01*
X436953697Y-35563700D01*
X436945018Y-35587954D01*
X436934004Y-35611242D01*
X436920761Y-35633337D01*
X436905415Y-35654028D01*
X436888116Y-35673116D01*
X436869028Y-35690415D01*
X436848337Y-35705761D01*
X436826242Y-35719004D01*
X436802954Y-35730018D01*
X436778700Y-35738697D01*
X436753711Y-35744956D01*
X436728229Y-35748736D01*
X436702500Y-35750000D01*
X436177500Y-35750000D01*
X436151771Y-35748736D01*
X436126289Y-35744956D01*
X436101300Y-35738697D01*
X436077046Y-35730018D01*
X436053758Y-35719004D01*
X436031663Y-35705761D01*
X436010972Y-35690415D01*
X435991884Y-35673116D01*
X435974585Y-35654028D01*
X435959239Y-35633337D01*
X435945996Y-35611242D01*
X435934982Y-35587954D01*
X435926303Y-35563700D01*
X435920044Y-35538711D01*
X435916264Y-35513229D01*
X435915000Y-35487500D01*
X435915000Y-34512500D01*
X435916264Y-34486771D01*
X435920044Y-34461289D01*
X435926303Y-34436300D01*
X435934982Y-34412046D01*
X435945996Y-34388758D01*
X435959239Y-34366663D01*
X435974585Y-34345972D01*
X435991884Y-34326884D01*
X436010972Y-34309585D01*
X436031663Y-34294239D01*
X436053758Y-34280996D01*
X436077046Y-34269982D01*
X436101300Y-34261303D01*
X436126289Y-34255044D01*
X436151771Y-34251264D01*
X436177500Y-34250000D01*
X436702500Y-34250000D01*
X436728229Y-34251264D01*
X436728229Y-34251264D01*
G37*
D27*
X436440000Y-35000000D03*
D26*
G36*
X435458229Y-34251264D02*
X435483711Y-34255044D01*
X435508700Y-34261303D01*
X435532954Y-34269982D01*
X435556242Y-34280996D01*
X435578337Y-34294239D01*
X435599028Y-34309585D01*
X435618116Y-34326884D01*
X435635415Y-34345972D01*
X435650761Y-34366663D01*
X435664004Y-34388758D01*
X435675018Y-34412046D01*
X435683697Y-34436300D01*
X435689956Y-34461289D01*
X435693736Y-34486771D01*
X435695000Y-34512500D01*
X435695000Y-35487500D01*
X435693736Y-35513229D01*
X435689956Y-35538711D01*
X435683697Y-35563700D01*
X435675018Y-35587954D01*
X435664004Y-35611242D01*
X435650761Y-35633337D01*
X435635415Y-35654028D01*
X435618116Y-35673116D01*
X435599028Y-35690415D01*
X435578337Y-35705761D01*
X435556242Y-35719004D01*
X435532954Y-35730018D01*
X435508700Y-35738697D01*
X435483711Y-35744956D01*
X435458229Y-35748736D01*
X435432500Y-35750000D01*
X434907500Y-35750000D01*
X434881771Y-35748736D01*
X434856289Y-35744956D01*
X434831300Y-35738697D01*
X434807046Y-35730018D01*
X434783758Y-35719004D01*
X434761663Y-35705761D01*
X434740972Y-35690415D01*
X434721884Y-35673116D01*
X434704585Y-35654028D01*
X434689239Y-35633337D01*
X434675996Y-35611242D01*
X434664982Y-35587954D01*
X434656303Y-35563700D01*
X434650044Y-35538711D01*
X434646264Y-35513229D01*
X434645000Y-35487500D01*
X434645000Y-34512500D01*
X434646264Y-34486771D01*
X434650044Y-34461289D01*
X434656303Y-34436300D01*
X434664982Y-34412046D01*
X434675996Y-34388758D01*
X434689239Y-34366663D01*
X434704585Y-34345972D01*
X434721884Y-34326884D01*
X434740972Y-34309585D01*
X434761663Y-34294239D01*
X434783758Y-34280996D01*
X434807046Y-34269982D01*
X434831300Y-34261303D01*
X434856289Y-34255044D01*
X434881771Y-34251264D01*
X434907500Y-34250000D01*
X435432500Y-34250000D01*
X435458229Y-34251264D01*
X435458229Y-34251264D01*
G37*
D27*
X435170000Y-35000000D03*
G04 #@! TD*
D26*
G04 #@! TO.C,Q16*
G36*
X435358229Y-15551264D02*
X435383711Y-15555044D01*
X435408700Y-15561303D01*
X435432954Y-15569982D01*
X435456242Y-15580996D01*
X435478337Y-15594239D01*
X435499028Y-15609585D01*
X435518116Y-15626884D01*
X435535415Y-15645972D01*
X435550761Y-15666663D01*
X435564004Y-15688758D01*
X435575018Y-15712046D01*
X435583697Y-15736300D01*
X435589956Y-15761289D01*
X435593736Y-15786771D01*
X435595000Y-15812500D01*
X435595000Y-16787500D01*
X435593736Y-16813229D01*
X435589956Y-16838711D01*
X435583697Y-16863700D01*
X435575018Y-16887954D01*
X435564004Y-16911242D01*
X435550761Y-16933337D01*
X435535415Y-16954028D01*
X435518116Y-16973116D01*
X435499028Y-16990415D01*
X435478337Y-17005761D01*
X435456242Y-17019004D01*
X435432954Y-17030018D01*
X435408700Y-17038697D01*
X435383711Y-17044956D01*
X435358229Y-17048736D01*
X435332500Y-17050000D01*
X434807500Y-17050000D01*
X434781771Y-17048736D01*
X434756289Y-17044956D01*
X434731300Y-17038697D01*
X434707046Y-17030018D01*
X434683758Y-17019004D01*
X434661663Y-17005761D01*
X434640972Y-16990415D01*
X434621884Y-16973116D01*
X434604585Y-16954028D01*
X434589239Y-16933337D01*
X434575996Y-16911242D01*
X434564982Y-16887954D01*
X434556303Y-16863700D01*
X434550044Y-16838711D01*
X434546264Y-16813229D01*
X434545000Y-16787500D01*
X434545000Y-15812500D01*
X434546264Y-15786771D01*
X434550044Y-15761289D01*
X434556303Y-15736300D01*
X434564982Y-15712046D01*
X434575996Y-15688758D01*
X434589239Y-15666663D01*
X434604585Y-15645972D01*
X434621884Y-15626884D01*
X434640972Y-15609585D01*
X434661663Y-15594239D01*
X434683758Y-15580996D01*
X434707046Y-15569982D01*
X434731300Y-15561303D01*
X434756289Y-15555044D01*
X434781771Y-15551264D01*
X434807500Y-15550000D01*
X435332500Y-15550000D01*
X435358229Y-15551264D01*
X435358229Y-15551264D01*
G37*
D27*
X435070000Y-16300000D03*
D26*
G36*
X436628229Y-15551264D02*
X436653711Y-15555044D01*
X436678700Y-15561303D01*
X436702954Y-15569982D01*
X436726242Y-15580996D01*
X436748337Y-15594239D01*
X436769028Y-15609585D01*
X436788116Y-15626884D01*
X436805415Y-15645972D01*
X436820761Y-15666663D01*
X436834004Y-15688758D01*
X436845018Y-15712046D01*
X436853697Y-15736300D01*
X436859956Y-15761289D01*
X436863736Y-15786771D01*
X436865000Y-15812500D01*
X436865000Y-16787500D01*
X436863736Y-16813229D01*
X436859956Y-16838711D01*
X436853697Y-16863700D01*
X436845018Y-16887954D01*
X436834004Y-16911242D01*
X436820761Y-16933337D01*
X436805415Y-16954028D01*
X436788116Y-16973116D01*
X436769028Y-16990415D01*
X436748337Y-17005761D01*
X436726242Y-17019004D01*
X436702954Y-17030018D01*
X436678700Y-17038697D01*
X436653711Y-17044956D01*
X436628229Y-17048736D01*
X436602500Y-17050000D01*
X436077500Y-17050000D01*
X436051771Y-17048736D01*
X436026289Y-17044956D01*
X436001300Y-17038697D01*
X435977046Y-17030018D01*
X435953758Y-17019004D01*
X435931663Y-17005761D01*
X435910972Y-16990415D01*
X435891884Y-16973116D01*
X435874585Y-16954028D01*
X435859239Y-16933337D01*
X435845996Y-16911242D01*
X435834982Y-16887954D01*
X435826303Y-16863700D01*
X435820044Y-16838711D01*
X435816264Y-16813229D01*
X435815000Y-16787500D01*
X435815000Y-15812500D01*
X435816264Y-15786771D01*
X435820044Y-15761289D01*
X435826303Y-15736300D01*
X435834982Y-15712046D01*
X435845996Y-15688758D01*
X435859239Y-15666663D01*
X435874585Y-15645972D01*
X435891884Y-15626884D01*
X435910972Y-15609585D01*
X435931663Y-15594239D01*
X435953758Y-15580996D01*
X435977046Y-15569982D01*
X436001300Y-15561303D01*
X436026289Y-15555044D01*
X436051771Y-15551264D01*
X436077500Y-15550000D01*
X436602500Y-15550000D01*
X436628229Y-15551264D01*
X436628229Y-15551264D01*
G37*
D27*
X436340000Y-16300000D03*
D25*
X433800000Y-16300000D03*
G04 #@! TD*
G04 #@! TO.C,Q17*
X466800000Y-36300000D03*
D26*
G36*
X469628229Y-35551264D02*
X469653711Y-35555044D01*
X469678700Y-35561303D01*
X469702954Y-35569982D01*
X469726242Y-35580996D01*
X469748337Y-35594239D01*
X469769028Y-35609585D01*
X469788116Y-35626884D01*
X469805415Y-35645972D01*
X469820761Y-35666663D01*
X469834004Y-35688758D01*
X469845018Y-35712046D01*
X469853697Y-35736300D01*
X469859956Y-35761289D01*
X469863736Y-35786771D01*
X469865000Y-35812500D01*
X469865000Y-36787500D01*
X469863736Y-36813229D01*
X469859956Y-36838711D01*
X469853697Y-36863700D01*
X469845018Y-36887954D01*
X469834004Y-36911242D01*
X469820761Y-36933337D01*
X469805415Y-36954028D01*
X469788116Y-36973116D01*
X469769028Y-36990415D01*
X469748337Y-37005761D01*
X469726242Y-37019004D01*
X469702954Y-37030018D01*
X469678700Y-37038697D01*
X469653711Y-37044956D01*
X469628229Y-37048736D01*
X469602500Y-37050000D01*
X469077500Y-37050000D01*
X469051771Y-37048736D01*
X469026289Y-37044956D01*
X469001300Y-37038697D01*
X468977046Y-37030018D01*
X468953758Y-37019004D01*
X468931663Y-37005761D01*
X468910972Y-36990415D01*
X468891884Y-36973116D01*
X468874585Y-36954028D01*
X468859239Y-36933337D01*
X468845996Y-36911242D01*
X468834982Y-36887954D01*
X468826303Y-36863700D01*
X468820044Y-36838711D01*
X468816264Y-36813229D01*
X468815000Y-36787500D01*
X468815000Y-35812500D01*
X468816264Y-35786771D01*
X468820044Y-35761289D01*
X468826303Y-35736300D01*
X468834982Y-35712046D01*
X468845996Y-35688758D01*
X468859239Y-35666663D01*
X468874585Y-35645972D01*
X468891884Y-35626884D01*
X468910972Y-35609585D01*
X468931663Y-35594239D01*
X468953758Y-35580996D01*
X468977046Y-35569982D01*
X469001300Y-35561303D01*
X469026289Y-35555044D01*
X469051771Y-35551264D01*
X469077500Y-35550000D01*
X469602500Y-35550000D01*
X469628229Y-35551264D01*
X469628229Y-35551264D01*
G37*
D27*
X469340000Y-36300000D03*
D26*
G36*
X468358229Y-35551264D02*
X468383711Y-35555044D01*
X468408700Y-35561303D01*
X468432954Y-35569982D01*
X468456242Y-35580996D01*
X468478337Y-35594239D01*
X468499028Y-35609585D01*
X468518116Y-35626884D01*
X468535415Y-35645972D01*
X468550761Y-35666663D01*
X468564004Y-35688758D01*
X468575018Y-35712046D01*
X468583697Y-35736300D01*
X468589956Y-35761289D01*
X468593736Y-35786771D01*
X468595000Y-35812500D01*
X468595000Y-36787500D01*
X468593736Y-36813229D01*
X468589956Y-36838711D01*
X468583697Y-36863700D01*
X468575018Y-36887954D01*
X468564004Y-36911242D01*
X468550761Y-36933337D01*
X468535415Y-36954028D01*
X468518116Y-36973116D01*
X468499028Y-36990415D01*
X468478337Y-37005761D01*
X468456242Y-37019004D01*
X468432954Y-37030018D01*
X468408700Y-37038697D01*
X468383711Y-37044956D01*
X468358229Y-37048736D01*
X468332500Y-37050000D01*
X467807500Y-37050000D01*
X467781771Y-37048736D01*
X467756289Y-37044956D01*
X467731300Y-37038697D01*
X467707046Y-37030018D01*
X467683758Y-37019004D01*
X467661663Y-37005761D01*
X467640972Y-36990415D01*
X467621884Y-36973116D01*
X467604585Y-36954028D01*
X467589239Y-36933337D01*
X467575996Y-36911242D01*
X467564982Y-36887954D01*
X467556303Y-36863700D01*
X467550044Y-36838711D01*
X467546264Y-36813229D01*
X467545000Y-36787500D01*
X467545000Y-35812500D01*
X467546264Y-35786771D01*
X467550044Y-35761289D01*
X467556303Y-35736300D01*
X467564982Y-35712046D01*
X467575996Y-35688758D01*
X467589239Y-35666663D01*
X467604585Y-35645972D01*
X467621884Y-35626884D01*
X467640972Y-35609585D01*
X467661663Y-35594239D01*
X467683758Y-35580996D01*
X467707046Y-35569982D01*
X467731300Y-35561303D01*
X467756289Y-35555044D01*
X467781771Y-35551264D01*
X467807500Y-35550000D01*
X468332500Y-35550000D01*
X468358229Y-35551264D01*
X468358229Y-35551264D01*
G37*
D27*
X468070000Y-36300000D03*
G04 #@! TD*
D26*
G04 #@! TO.C,Q18*
G36*
X468358229Y-15551264D02*
X468383711Y-15555044D01*
X468408700Y-15561303D01*
X468432954Y-15569982D01*
X468456242Y-15580996D01*
X468478337Y-15594239D01*
X468499028Y-15609585D01*
X468518116Y-15626884D01*
X468535415Y-15645972D01*
X468550761Y-15666663D01*
X468564004Y-15688758D01*
X468575018Y-15712046D01*
X468583697Y-15736300D01*
X468589956Y-15761289D01*
X468593736Y-15786771D01*
X468595000Y-15812500D01*
X468595000Y-16787500D01*
X468593736Y-16813229D01*
X468589956Y-16838711D01*
X468583697Y-16863700D01*
X468575018Y-16887954D01*
X468564004Y-16911242D01*
X468550761Y-16933337D01*
X468535415Y-16954028D01*
X468518116Y-16973116D01*
X468499028Y-16990415D01*
X468478337Y-17005761D01*
X468456242Y-17019004D01*
X468432954Y-17030018D01*
X468408700Y-17038697D01*
X468383711Y-17044956D01*
X468358229Y-17048736D01*
X468332500Y-17050000D01*
X467807500Y-17050000D01*
X467781771Y-17048736D01*
X467756289Y-17044956D01*
X467731300Y-17038697D01*
X467707046Y-17030018D01*
X467683758Y-17019004D01*
X467661663Y-17005761D01*
X467640972Y-16990415D01*
X467621884Y-16973116D01*
X467604585Y-16954028D01*
X467589239Y-16933337D01*
X467575996Y-16911242D01*
X467564982Y-16887954D01*
X467556303Y-16863700D01*
X467550044Y-16838711D01*
X467546264Y-16813229D01*
X467545000Y-16787500D01*
X467545000Y-15812500D01*
X467546264Y-15786771D01*
X467550044Y-15761289D01*
X467556303Y-15736300D01*
X467564982Y-15712046D01*
X467575996Y-15688758D01*
X467589239Y-15666663D01*
X467604585Y-15645972D01*
X467621884Y-15626884D01*
X467640972Y-15609585D01*
X467661663Y-15594239D01*
X467683758Y-15580996D01*
X467707046Y-15569982D01*
X467731300Y-15561303D01*
X467756289Y-15555044D01*
X467781771Y-15551264D01*
X467807500Y-15550000D01*
X468332500Y-15550000D01*
X468358229Y-15551264D01*
X468358229Y-15551264D01*
G37*
D27*
X468070000Y-16300000D03*
D26*
G36*
X469628229Y-15551264D02*
X469653711Y-15555044D01*
X469678700Y-15561303D01*
X469702954Y-15569982D01*
X469726242Y-15580996D01*
X469748337Y-15594239D01*
X469769028Y-15609585D01*
X469788116Y-15626884D01*
X469805415Y-15645972D01*
X469820761Y-15666663D01*
X469834004Y-15688758D01*
X469845018Y-15712046D01*
X469853697Y-15736300D01*
X469859956Y-15761289D01*
X469863736Y-15786771D01*
X469865000Y-15812500D01*
X469865000Y-16787500D01*
X469863736Y-16813229D01*
X469859956Y-16838711D01*
X469853697Y-16863700D01*
X469845018Y-16887954D01*
X469834004Y-16911242D01*
X469820761Y-16933337D01*
X469805415Y-16954028D01*
X469788116Y-16973116D01*
X469769028Y-16990415D01*
X469748337Y-17005761D01*
X469726242Y-17019004D01*
X469702954Y-17030018D01*
X469678700Y-17038697D01*
X469653711Y-17044956D01*
X469628229Y-17048736D01*
X469602500Y-17050000D01*
X469077500Y-17050000D01*
X469051771Y-17048736D01*
X469026289Y-17044956D01*
X469001300Y-17038697D01*
X468977046Y-17030018D01*
X468953758Y-17019004D01*
X468931663Y-17005761D01*
X468910972Y-16990415D01*
X468891884Y-16973116D01*
X468874585Y-16954028D01*
X468859239Y-16933337D01*
X468845996Y-16911242D01*
X468834982Y-16887954D01*
X468826303Y-16863700D01*
X468820044Y-16838711D01*
X468816264Y-16813229D01*
X468815000Y-16787500D01*
X468815000Y-15812500D01*
X468816264Y-15786771D01*
X468820044Y-15761289D01*
X468826303Y-15736300D01*
X468834982Y-15712046D01*
X468845996Y-15688758D01*
X468859239Y-15666663D01*
X468874585Y-15645972D01*
X468891884Y-15626884D01*
X468910972Y-15609585D01*
X468931663Y-15594239D01*
X468953758Y-15580996D01*
X468977046Y-15569982D01*
X469001300Y-15561303D01*
X469026289Y-15555044D01*
X469051771Y-15551264D01*
X469077500Y-15550000D01*
X469602500Y-15550000D01*
X469628229Y-15551264D01*
X469628229Y-15551264D01*
G37*
D27*
X469340000Y-16300000D03*
D25*
X466800000Y-16300000D03*
G04 #@! TD*
D26*
G04 #@! TO.C,Q21*
G36*
X302458229Y-71951264D02*
X302483711Y-71955044D01*
X302508700Y-71961303D01*
X302532954Y-71969982D01*
X302556242Y-71980996D01*
X302578337Y-71994239D01*
X302599028Y-72009585D01*
X302618116Y-72026884D01*
X302635415Y-72045972D01*
X302650761Y-72066663D01*
X302664004Y-72088758D01*
X302675018Y-72112046D01*
X302683697Y-72136300D01*
X302689956Y-72161289D01*
X302693736Y-72186771D01*
X302695000Y-72212500D01*
X302695000Y-73187500D01*
X302693736Y-73213229D01*
X302689956Y-73238711D01*
X302683697Y-73263700D01*
X302675018Y-73287954D01*
X302664004Y-73311242D01*
X302650761Y-73333337D01*
X302635415Y-73354028D01*
X302618116Y-73373116D01*
X302599028Y-73390415D01*
X302578337Y-73405761D01*
X302556242Y-73419004D01*
X302532954Y-73430018D01*
X302508700Y-73438697D01*
X302483711Y-73444956D01*
X302458229Y-73448736D01*
X302432500Y-73450000D01*
X301907500Y-73450000D01*
X301881771Y-73448736D01*
X301856289Y-73444956D01*
X301831300Y-73438697D01*
X301807046Y-73430018D01*
X301783758Y-73419004D01*
X301761663Y-73405761D01*
X301740972Y-73390415D01*
X301721884Y-73373116D01*
X301704585Y-73354028D01*
X301689239Y-73333337D01*
X301675996Y-73311242D01*
X301664982Y-73287954D01*
X301656303Y-73263700D01*
X301650044Y-73238711D01*
X301646264Y-73213229D01*
X301645000Y-73187500D01*
X301645000Y-72212500D01*
X301646264Y-72186771D01*
X301650044Y-72161289D01*
X301656303Y-72136300D01*
X301664982Y-72112046D01*
X301675996Y-72088758D01*
X301689239Y-72066663D01*
X301704585Y-72045972D01*
X301721884Y-72026884D01*
X301740972Y-72009585D01*
X301761663Y-71994239D01*
X301783758Y-71980996D01*
X301807046Y-71969982D01*
X301831300Y-71961303D01*
X301856289Y-71955044D01*
X301881771Y-71951264D01*
X301907500Y-71950000D01*
X302432500Y-71950000D01*
X302458229Y-71951264D01*
X302458229Y-71951264D01*
G37*
D27*
X302170000Y-72700000D03*
D26*
G36*
X303728229Y-71951264D02*
X303753711Y-71955044D01*
X303778700Y-71961303D01*
X303802954Y-71969982D01*
X303826242Y-71980996D01*
X303848337Y-71994239D01*
X303869028Y-72009585D01*
X303888116Y-72026884D01*
X303905415Y-72045972D01*
X303920761Y-72066663D01*
X303934004Y-72088758D01*
X303945018Y-72112046D01*
X303953697Y-72136300D01*
X303959956Y-72161289D01*
X303963736Y-72186771D01*
X303965000Y-72212500D01*
X303965000Y-73187500D01*
X303963736Y-73213229D01*
X303959956Y-73238711D01*
X303953697Y-73263700D01*
X303945018Y-73287954D01*
X303934004Y-73311242D01*
X303920761Y-73333337D01*
X303905415Y-73354028D01*
X303888116Y-73373116D01*
X303869028Y-73390415D01*
X303848337Y-73405761D01*
X303826242Y-73419004D01*
X303802954Y-73430018D01*
X303778700Y-73438697D01*
X303753711Y-73444956D01*
X303728229Y-73448736D01*
X303702500Y-73450000D01*
X303177500Y-73450000D01*
X303151771Y-73448736D01*
X303126289Y-73444956D01*
X303101300Y-73438697D01*
X303077046Y-73430018D01*
X303053758Y-73419004D01*
X303031663Y-73405761D01*
X303010972Y-73390415D01*
X302991884Y-73373116D01*
X302974585Y-73354028D01*
X302959239Y-73333337D01*
X302945996Y-73311242D01*
X302934982Y-73287954D01*
X302926303Y-73263700D01*
X302920044Y-73238711D01*
X302916264Y-73213229D01*
X302915000Y-73187500D01*
X302915000Y-72212500D01*
X302916264Y-72186771D01*
X302920044Y-72161289D01*
X302926303Y-72136300D01*
X302934982Y-72112046D01*
X302945996Y-72088758D01*
X302959239Y-72066663D01*
X302974585Y-72045972D01*
X302991884Y-72026884D01*
X303010972Y-72009585D01*
X303031663Y-71994239D01*
X303053758Y-71980996D01*
X303077046Y-71969982D01*
X303101300Y-71961303D01*
X303126289Y-71955044D01*
X303151771Y-71951264D01*
X303177500Y-71950000D01*
X303702500Y-71950000D01*
X303728229Y-71951264D01*
X303728229Y-71951264D01*
G37*
D27*
X303440000Y-72700000D03*
D25*
X300900000Y-72700000D03*
G04 #@! TD*
G04 #@! TO.C,Q22*
X404500000Y-96700000D03*
D26*
G36*
X407328229Y-95951264D02*
X407353711Y-95955044D01*
X407378700Y-95961303D01*
X407402954Y-95969982D01*
X407426242Y-95980996D01*
X407448337Y-95994239D01*
X407469028Y-96009585D01*
X407488116Y-96026884D01*
X407505415Y-96045972D01*
X407520761Y-96066663D01*
X407534004Y-96088758D01*
X407545018Y-96112046D01*
X407553697Y-96136300D01*
X407559956Y-96161289D01*
X407563736Y-96186771D01*
X407565000Y-96212500D01*
X407565000Y-97187500D01*
X407563736Y-97213229D01*
X407559956Y-97238711D01*
X407553697Y-97263700D01*
X407545018Y-97287954D01*
X407534004Y-97311242D01*
X407520761Y-97333337D01*
X407505415Y-97354028D01*
X407488116Y-97373116D01*
X407469028Y-97390415D01*
X407448337Y-97405761D01*
X407426242Y-97419004D01*
X407402954Y-97430018D01*
X407378700Y-97438697D01*
X407353711Y-97444956D01*
X407328229Y-97448736D01*
X407302500Y-97450000D01*
X406777500Y-97450000D01*
X406751771Y-97448736D01*
X406726289Y-97444956D01*
X406701300Y-97438697D01*
X406677046Y-97430018D01*
X406653758Y-97419004D01*
X406631663Y-97405761D01*
X406610972Y-97390415D01*
X406591884Y-97373116D01*
X406574585Y-97354028D01*
X406559239Y-97333337D01*
X406545996Y-97311242D01*
X406534982Y-97287954D01*
X406526303Y-97263700D01*
X406520044Y-97238711D01*
X406516264Y-97213229D01*
X406515000Y-97187500D01*
X406515000Y-96212500D01*
X406516264Y-96186771D01*
X406520044Y-96161289D01*
X406526303Y-96136300D01*
X406534982Y-96112046D01*
X406545996Y-96088758D01*
X406559239Y-96066663D01*
X406574585Y-96045972D01*
X406591884Y-96026884D01*
X406610972Y-96009585D01*
X406631663Y-95994239D01*
X406653758Y-95980996D01*
X406677046Y-95969982D01*
X406701300Y-95961303D01*
X406726289Y-95955044D01*
X406751771Y-95951264D01*
X406777500Y-95950000D01*
X407302500Y-95950000D01*
X407328229Y-95951264D01*
X407328229Y-95951264D01*
G37*
D27*
X407040000Y-96700000D03*
D26*
G36*
X406058229Y-95951264D02*
X406083711Y-95955044D01*
X406108700Y-95961303D01*
X406132954Y-95969982D01*
X406156242Y-95980996D01*
X406178337Y-95994239D01*
X406199028Y-96009585D01*
X406218116Y-96026884D01*
X406235415Y-96045972D01*
X406250761Y-96066663D01*
X406264004Y-96088758D01*
X406275018Y-96112046D01*
X406283697Y-96136300D01*
X406289956Y-96161289D01*
X406293736Y-96186771D01*
X406295000Y-96212500D01*
X406295000Y-97187500D01*
X406293736Y-97213229D01*
X406289956Y-97238711D01*
X406283697Y-97263700D01*
X406275018Y-97287954D01*
X406264004Y-97311242D01*
X406250761Y-97333337D01*
X406235415Y-97354028D01*
X406218116Y-97373116D01*
X406199028Y-97390415D01*
X406178337Y-97405761D01*
X406156242Y-97419004D01*
X406132954Y-97430018D01*
X406108700Y-97438697D01*
X406083711Y-97444956D01*
X406058229Y-97448736D01*
X406032500Y-97450000D01*
X405507500Y-97450000D01*
X405481771Y-97448736D01*
X405456289Y-97444956D01*
X405431300Y-97438697D01*
X405407046Y-97430018D01*
X405383758Y-97419004D01*
X405361663Y-97405761D01*
X405340972Y-97390415D01*
X405321884Y-97373116D01*
X405304585Y-97354028D01*
X405289239Y-97333337D01*
X405275996Y-97311242D01*
X405264982Y-97287954D01*
X405256303Y-97263700D01*
X405250044Y-97238711D01*
X405246264Y-97213229D01*
X405245000Y-97187500D01*
X405245000Y-96212500D01*
X405246264Y-96186771D01*
X405250044Y-96161289D01*
X405256303Y-96136300D01*
X405264982Y-96112046D01*
X405275996Y-96088758D01*
X405289239Y-96066663D01*
X405304585Y-96045972D01*
X405321884Y-96026884D01*
X405340972Y-96009585D01*
X405361663Y-95994239D01*
X405383758Y-95980996D01*
X405407046Y-95969982D01*
X405431300Y-95961303D01*
X405456289Y-95955044D01*
X405481771Y-95951264D01*
X405507500Y-95950000D01*
X406032500Y-95950000D01*
X406058229Y-95951264D01*
X406058229Y-95951264D01*
G37*
D27*
X405770000Y-96700000D03*
G04 #@! TD*
D25*
G04 #@! TO.C,Q23*
X402900000Y-36100000D03*
D26*
G36*
X405728229Y-35351264D02*
X405753711Y-35355044D01*
X405778700Y-35361303D01*
X405802954Y-35369982D01*
X405826242Y-35380996D01*
X405848337Y-35394239D01*
X405869028Y-35409585D01*
X405888116Y-35426884D01*
X405905415Y-35445972D01*
X405920761Y-35466663D01*
X405934004Y-35488758D01*
X405945018Y-35512046D01*
X405953697Y-35536300D01*
X405959956Y-35561289D01*
X405963736Y-35586771D01*
X405965000Y-35612500D01*
X405965000Y-36587500D01*
X405963736Y-36613229D01*
X405959956Y-36638711D01*
X405953697Y-36663700D01*
X405945018Y-36687954D01*
X405934004Y-36711242D01*
X405920761Y-36733337D01*
X405905415Y-36754028D01*
X405888116Y-36773116D01*
X405869028Y-36790415D01*
X405848337Y-36805761D01*
X405826242Y-36819004D01*
X405802954Y-36830018D01*
X405778700Y-36838697D01*
X405753711Y-36844956D01*
X405728229Y-36848736D01*
X405702500Y-36850000D01*
X405177500Y-36850000D01*
X405151771Y-36848736D01*
X405126289Y-36844956D01*
X405101300Y-36838697D01*
X405077046Y-36830018D01*
X405053758Y-36819004D01*
X405031663Y-36805761D01*
X405010972Y-36790415D01*
X404991884Y-36773116D01*
X404974585Y-36754028D01*
X404959239Y-36733337D01*
X404945996Y-36711242D01*
X404934982Y-36687954D01*
X404926303Y-36663700D01*
X404920044Y-36638711D01*
X404916264Y-36613229D01*
X404915000Y-36587500D01*
X404915000Y-35612500D01*
X404916264Y-35586771D01*
X404920044Y-35561289D01*
X404926303Y-35536300D01*
X404934982Y-35512046D01*
X404945996Y-35488758D01*
X404959239Y-35466663D01*
X404974585Y-35445972D01*
X404991884Y-35426884D01*
X405010972Y-35409585D01*
X405031663Y-35394239D01*
X405053758Y-35380996D01*
X405077046Y-35369982D01*
X405101300Y-35361303D01*
X405126289Y-35355044D01*
X405151771Y-35351264D01*
X405177500Y-35350000D01*
X405702500Y-35350000D01*
X405728229Y-35351264D01*
X405728229Y-35351264D01*
G37*
D27*
X405440000Y-36100000D03*
D26*
G36*
X404458229Y-35351264D02*
X404483711Y-35355044D01*
X404508700Y-35361303D01*
X404532954Y-35369982D01*
X404556242Y-35380996D01*
X404578337Y-35394239D01*
X404599028Y-35409585D01*
X404618116Y-35426884D01*
X404635415Y-35445972D01*
X404650761Y-35466663D01*
X404664004Y-35488758D01*
X404675018Y-35512046D01*
X404683697Y-35536300D01*
X404689956Y-35561289D01*
X404693736Y-35586771D01*
X404695000Y-35612500D01*
X404695000Y-36587500D01*
X404693736Y-36613229D01*
X404689956Y-36638711D01*
X404683697Y-36663700D01*
X404675018Y-36687954D01*
X404664004Y-36711242D01*
X404650761Y-36733337D01*
X404635415Y-36754028D01*
X404618116Y-36773116D01*
X404599028Y-36790415D01*
X404578337Y-36805761D01*
X404556242Y-36819004D01*
X404532954Y-36830018D01*
X404508700Y-36838697D01*
X404483711Y-36844956D01*
X404458229Y-36848736D01*
X404432500Y-36850000D01*
X403907500Y-36850000D01*
X403881771Y-36848736D01*
X403856289Y-36844956D01*
X403831300Y-36838697D01*
X403807046Y-36830018D01*
X403783758Y-36819004D01*
X403761663Y-36805761D01*
X403740972Y-36790415D01*
X403721884Y-36773116D01*
X403704585Y-36754028D01*
X403689239Y-36733337D01*
X403675996Y-36711242D01*
X403664982Y-36687954D01*
X403656303Y-36663700D01*
X403650044Y-36638711D01*
X403646264Y-36613229D01*
X403645000Y-36587500D01*
X403645000Y-35612500D01*
X403646264Y-35586771D01*
X403650044Y-35561289D01*
X403656303Y-35536300D01*
X403664982Y-35512046D01*
X403675996Y-35488758D01*
X403689239Y-35466663D01*
X403704585Y-35445972D01*
X403721884Y-35426884D01*
X403740972Y-35409585D01*
X403761663Y-35394239D01*
X403783758Y-35380996D01*
X403807046Y-35369982D01*
X403831300Y-35361303D01*
X403856289Y-35355044D01*
X403881771Y-35351264D01*
X403907500Y-35350000D01*
X404432500Y-35350000D01*
X404458229Y-35351264D01*
X404458229Y-35351264D01*
G37*
D27*
X404170000Y-36100000D03*
G04 #@! TD*
D26*
G04 #@! TO.C,Q24*
G36*
X404658229Y-10651264D02*
X404683711Y-10655044D01*
X404708700Y-10661303D01*
X404732954Y-10669982D01*
X404756242Y-10680996D01*
X404778337Y-10694239D01*
X404799028Y-10709585D01*
X404818116Y-10726884D01*
X404835415Y-10745972D01*
X404850761Y-10766663D01*
X404864004Y-10788758D01*
X404875018Y-10812046D01*
X404883697Y-10836300D01*
X404889956Y-10861289D01*
X404893736Y-10886771D01*
X404895000Y-10912500D01*
X404895000Y-11887500D01*
X404893736Y-11913229D01*
X404889956Y-11938711D01*
X404883697Y-11963700D01*
X404875018Y-11987954D01*
X404864004Y-12011242D01*
X404850761Y-12033337D01*
X404835415Y-12054028D01*
X404818116Y-12073116D01*
X404799028Y-12090415D01*
X404778337Y-12105761D01*
X404756242Y-12119004D01*
X404732954Y-12130018D01*
X404708700Y-12138697D01*
X404683711Y-12144956D01*
X404658229Y-12148736D01*
X404632500Y-12150000D01*
X404107500Y-12150000D01*
X404081771Y-12148736D01*
X404056289Y-12144956D01*
X404031300Y-12138697D01*
X404007046Y-12130018D01*
X403983758Y-12119004D01*
X403961663Y-12105761D01*
X403940972Y-12090415D01*
X403921884Y-12073116D01*
X403904585Y-12054028D01*
X403889239Y-12033337D01*
X403875996Y-12011242D01*
X403864982Y-11987954D01*
X403856303Y-11963700D01*
X403850044Y-11938711D01*
X403846264Y-11913229D01*
X403845000Y-11887500D01*
X403845000Y-10912500D01*
X403846264Y-10886771D01*
X403850044Y-10861289D01*
X403856303Y-10836300D01*
X403864982Y-10812046D01*
X403875996Y-10788758D01*
X403889239Y-10766663D01*
X403904585Y-10745972D01*
X403921884Y-10726884D01*
X403940972Y-10709585D01*
X403961663Y-10694239D01*
X403983758Y-10680996D01*
X404007046Y-10669982D01*
X404031300Y-10661303D01*
X404056289Y-10655044D01*
X404081771Y-10651264D01*
X404107500Y-10650000D01*
X404632500Y-10650000D01*
X404658229Y-10651264D01*
X404658229Y-10651264D01*
G37*
D27*
X404370000Y-11400000D03*
D26*
G36*
X405928229Y-10651264D02*
X405953711Y-10655044D01*
X405978700Y-10661303D01*
X406002954Y-10669982D01*
X406026242Y-10680996D01*
X406048337Y-10694239D01*
X406069028Y-10709585D01*
X406088116Y-10726884D01*
X406105415Y-10745972D01*
X406120761Y-10766663D01*
X406134004Y-10788758D01*
X406145018Y-10812046D01*
X406153697Y-10836300D01*
X406159956Y-10861289D01*
X406163736Y-10886771D01*
X406165000Y-10912500D01*
X406165000Y-11887500D01*
X406163736Y-11913229D01*
X406159956Y-11938711D01*
X406153697Y-11963700D01*
X406145018Y-11987954D01*
X406134004Y-12011242D01*
X406120761Y-12033337D01*
X406105415Y-12054028D01*
X406088116Y-12073116D01*
X406069028Y-12090415D01*
X406048337Y-12105761D01*
X406026242Y-12119004D01*
X406002954Y-12130018D01*
X405978700Y-12138697D01*
X405953711Y-12144956D01*
X405928229Y-12148736D01*
X405902500Y-12150000D01*
X405377500Y-12150000D01*
X405351771Y-12148736D01*
X405326289Y-12144956D01*
X405301300Y-12138697D01*
X405277046Y-12130018D01*
X405253758Y-12119004D01*
X405231663Y-12105761D01*
X405210972Y-12090415D01*
X405191884Y-12073116D01*
X405174585Y-12054028D01*
X405159239Y-12033337D01*
X405145996Y-12011242D01*
X405134982Y-11987954D01*
X405126303Y-11963700D01*
X405120044Y-11938711D01*
X405116264Y-11913229D01*
X405115000Y-11887500D01*
X405115000Y-10912500D01*
X405116264Y-10886771D01*
X405120044Y-10861289D01*
X405126303Y-10836300D01*
X405134982Y-10812046D01*
X405145996Y-10788758D01*
X405159239Y-10766663D01*
X405174585Y-10745972D01*
X405191884Y-10726884D01*
X405210972Y-10709585D01*
X405231663Y-10694239D01*
X405253758Y-10680996D01*
X405277046Y-10669982D01*
X405301300Y-10661303D01*
X405326289Y-10655044D01*
X405351771Y-10651264D01*
X405377500Y-10650000D01*
X405902500Y-10650000D01*
X405928229Y-10651264D01*
X405928229Y-10651264D01*
G37*
D27*
X405640000Y-11400000D03*
D25*
X403100000Y-11400000D03*
G04 #@! TD*
D26*
G04 #@! TO.C,Q25*
G36*
X435458229Y-28751264D02*
X435483711Y-28755044D01*
X435508700Y-28761303D01*
X435532954Y-28769982D01*
X435556242Y-28780996D01*
X435578337Y-28794239D01*
X435599028Y-28809585D01*
X435618116Y-28826884D01*
X435635415Y-28845972D01*
X435650761Y-28866663D01*
X435664004Y-28888758D01*
X435675018Y-28912046D01*
X435683697Y-28936300D01*
X435689956Y-28961289D01*
X435693736Y-28986771D01*
X435695000Y-29012500D01*
X435695000Y-29987500D01*
X435693736Y-30013229D01*
X435689956Y-30038711D01*
X435683697Y-30063700D01*
X435675018Y-30087954D01*
X435664004Y-30111242D01*
X435650761Y-30133337D01*
X435635415Y-30154028D01*
X435618116Y-30173116D01*
X435599028Y-30190415D01*
X435578337Y-30205761D01*
X435556242Y-30219004D01*
X435532954Y-30230018D01*
X435508700Y-30238697D01*
X435483711Y-30244956D01*
X435458229Y-30248736D01*
X435432500Y-30250000D01*
X434907500Y-30250000D01*
X434881771Y-30248736D01*
X434856289Y-30244956D01*
X434831300Y-30238697D01*
X434807046Y-30230018D01*
X434783758Y-30219004D01*
X434761663Y-30205761D01*
X434740972Y-30190415D01*
X434721884Y-30173116D01*
X434704585Y-30154028D01*
X434689239Y-30133337D01*
X434675996Y-30111242D01*
X434664982Y-30087954D01*
X434656303Y-30063700D01*
X434650044Y-30038711D01*
X434646264Y-30013229D01*
X434645000Y-29987500D01*
X434645000Y-29012500D01*
X434646264Y-28986771D01*
X434650044Y-28961289D01*
X434656303Y-28936300D01*
X434664982Y-28912046D01*
X434675996Y-28888758D01*
X434689239Y-28866663D01*
X434704585Y-28845972D01*
X434721884Y-28826884D01*
X434740972Y-28809585D01*
X434761663Y-28794239D01*
X434783758Y-28780996D01*
X434807046Y-28769982D01*
X434831300Y-28761303D01*
X434856289Y-28755044D01*
X434881771Y-28751264D01*
X434907500Y-28750000D01*
X435432500Y-28750000D01*
X435458229Y-28751264D01*
X435458229Y-28751264D01*
G37*
D27*
X435170000Y-29500000D03*
D26*
G36*
X436728229Y-28751264D02*
X436753711Y-28755044D01*
X436778700Y-28761303D01*
X436802954Y-28769982D01*
X436826242Y-28780996D01*
X436848337Y-28794239D01*
X436869028Y-28809585D01*
X436888116Y-28826884D01*
X436905415Y-28845972D01*
X436920761Y-28866663D01*
X436934004Y-28888758D01*
X436945018Y-28912046D01*
X436953697Y-28936300D01*
X436959956Y-28961289D01*
X436963736Y-28986771D01*
X436965000Y-29012500D01*
X436965000Y-29987500D01*
X436963736Y-30013229D01*
X436959956Y-30038711D01*
X436953697Y-30063700D01*
X436945018Y-30087954D01*
X436934004Y-30111242D01*
X436920761Y-30133337D01*
X436905415Y-30154028D01*
X436888116Y-30173116D01*
X436869028Y-30190415D01*
X436848337Y-30205761D01*
X436826242Y-30219004D01*
X436802954Y-30230018D01*
X436778700Y-30238697D01*
X436753711Y-30244956D01*
X436728229Y-30248736D01*
X436702500Y-30250000D01*
X436177500Y-30250000D01*
X436151771Y-30248736D01*
X436126289Y-30244956D01*
X436101300Y-30238697D01*
X436077046Y-30230018D01*
X436053758Y-30219004D01*
X436031663Y-30205761D01*
X436010972Y-30190415D01*
X435991884Y-30173116D01*
X435974585Y-30154028D01*
X435959239Y-30133337D01*
X435945996Y-30111242D01*
X435934982Y-30087954D01*
X435926303Y-30063700D01*
X435920044Y-30038711D01*
X435916264Y-30013229D01*
X435915000Y-29987500D01*
X435915000Y-29012500D01*
X435916264Y-28986771D01*
X435920044Y-28961289D01*
X435926303Y-28936300D01*
X435934982Y-28912046D01*
X435945996Y-28888758D01*
X435959239Y-28866663D01*
X435974585Y-28845972D01*
X435991884Y-28826884D01*
X436010972Y-28809585D01*
X436031663Y-28794239D01*
X436053758Y-28780996D01*
X436077046Y-28769982D01*
X436101300Y-28761303D01*
X436126289Y-28755044D01*
X436151771Y-28751264D01*
X436177500Y-28750000D01*
X436702500Y-28750000D01*
X436728229Y-28751264D01*
X436728229Y-28751264D01*
G37*
D27*
X436440000Y-29500000D03*
D25*
X433900000Y-29500000D03*
G04 #@! TD*
G04 #@! TO.C,Q26*
X433800000Y-11300000D03*
D26*
G36*
X436628229Y-10551264D02*
X436653711Y-10555044D01*
X436678700Y-10561303D01*
X436702954Y-10569982D01*
X436726242Y-10580996D01*
X436748337Y-10594239D01*
X436769028Y-10609585D01*
X436788116Y-10626884D01*
X436805415Y-10645972D01*
X436820761Y-10666663D01*
X436834004Y-10688758D01*
X436845018Y-10712046D01*
X436853697Y-10736300D01*
X436859956Y-10761289D01*
X436863736Y-10786771D01*
X436865000Y-10812500D01*
X436865000Y-11787500D01*
X436863736Y-11813229D01*
X436859956Y-11838711D01*
X436853697Y-11863700D01*
X436845018Y-11887954D01*
X436834004Y-11911242D01*
X436820761Y-11933337D01*
X436805415Y-11954028D01*
X436788116Y-11973116D01*
X436769028Y-11990415D01*
X436748337Y-12005761D01*
X436726242Y-12019004D01*
X436702954Y-12030018D01*
X436678700Y-12038697D01*
X436653711Y-12044956D01*
X436628229Y-12048736D01*
X436602500Y-12050000D01*
X436077500Y-12050000D01*
X436051771Y-12048736D01*
X436026289Y-12044956D01*
X436001300Y-12038697D01*
X435977046Y-12030018D01*
X435953758Y-12019004D01*
X435931663Y-12005761D01*
X435910972Y-11990415D01*
X435891884Y-11973116D01*
X435874585Y-11954028D01*
X435859239Y-11933337D01*
X435845996Y-11911242D01*
X435834982Y-11887954D01*
X435826303Y-11863700D01*
X435820044Y-11838711D01*
X435816264Y-11813229D01*
X435815000Y-11787500D01*
X435815000Y-10812500D01*
X435816264Y-10786771D01*
X435820044Y-10761289D01*
X435826303Y-10736300D01*
X435834982Y-10712046D01*
X435845996Y-10688758D01*
X435859239Y-10666663D01*
X435874585Y-10645972D01*
X435891884Y-10626884D01*
X435910972Y-10609585D01*
X435931663Y-10594239D01*
X435953758Y-10580996D01*
X435977046Y-10569982D01*
X436001300Y-10561303D01*
X436026289Y-10555044D01*
X436051771Y-10551264D01*
X436077500Y-10550000D01*
X436602500Y-10550000D01*
X436628229Y-10551264D01*
X436628229Y-10551264D01*
G37*
D27*
X436340000Y-11300000D03*
D26*
G36*
X435358229Y-10551264D02*
X435383711Y-10555044D01*
X435408700Y-10561303D01*
X435432954Y-10569982D01*
X435456242Y-10580996D01*
X435478337Y-10594239D01*
X435499028Y-10609585D01*
X435518116Y-10626884D01*
X435535415Y-10645972D01*
X435550761Y-10666663D01*
X435564004Y-10688758D01*
X435575018Y-10712046D01*
X435583697Y-10736300D01*
X435589956Y-10761289D01*
X435593736Y-10786771D01*
X435595000Y-10812500D01*
X435595000Y-11787500D01*
X435593736Y-11813229D01*
X435589956Y-11838711D01*
X435583697Y-11863700D01*
X435575018Y-11887954D01*
X435564004Y-11911242D01*
X435550761Y-11933337D01*
X435535415Y-11954028D01*
X435518116Y-11973116D01*
X435499028Y-11990415D01*
X435478337Y-12005761D01*
X435456242Y-12019004D01*
X435432954Y-12030018D01*
X435408700Y-12038697D01*
X435383711Y-12044956D01*
X435358229Y-12048736D01*
X435332500Y-12050000D01*
X434807500Y-12050000D01*
X434781771Y-12048736D01*
X434756289Y-12044956D01*
X434731300Y-12038697D01*
X434707046Y-12030018D01*
X434683758Y-12019004D01*
X434661663Y-12005761D01*
X434640972Y-11990415D01*
X434621884Y-11973116D01*
X434604585Y-11954028D01*
X434589239Y-11933337D01*
X434575996Y-11911242D01*
X434564982Y-11887954D01*
X434556303Y-11863700D01*
X434550044Y-11838711D01*
X434546264Y-11813229D01*
X434545000Y-11787500D01*
X434545000Y-10812500D01*
X434546264Y-10786771D01*
X434550044Y-10761289D01*
X434556303Y-10736300D01*
X434564982Y-10712046D01*
X434575996Y-10688758D01*
X434589239Y-10666663D01*
X434604585Y-10645972D01*
X434621884Y-10626884D01*
X434640972Y-10609585D01*
X434661663Y-10594239D01*
X434683758Y-10580996D01*
X434707046Y-10569982D01*
X434731300Y-10561303D01*
X434756289Y-10555044D01*
X434781771Y-10551264D01*
X434807500Y-10550000D01*
X435332500Y-10550000D01*
X435358229Y-10551264D01*
X435358229Y-10551264D01*
G37*
D27*
X435070000Y-11300000D03*
G04 #@! TD*
D25*
G04 #@! TO.C,Q27*
X466800000Y-31300000D03*
D26*
G36*
X469628229Y-30551264D02*
X469653711Y-30555044D01*
X469678700Y-30561303D01*
X469702954Y-30569982D01*
X469726242Y-30580996D01*
X469748337Y-30594239D01*
X469769028Y-30609585D01*
X469788116Y-30626884D01*
X469805415Y-30645972D01*
X469820761Y-30666663D01*
X469834004Y-30688758D01*
X469845018Y-30712046D01*
X469853697Y-30736300D01*
X469859956Y-30761289D01*
X469863736Y-30786771D01*
X469865000Y-30812500D01*
X469865000Y-31787500D01*
X469863736Y-31813229D01*
X469859956Y-31838711D01*
X469853697Y-31863700D01*
X469845018Y-31887954D01*
X469834004Y-31911242D01*
X469820761Y-31933337D01*
X469805415Y-31954028D01*
X469788116Y-31973116D01*
X469769028Y-31990415D01*
X469748337Y-32005761D01*
X469726242Y-32019004D01*
X469702954Y-32030018D01*
X469678700Y-32038697D01*
X469653711Y-32044956D01*
X469628229Y-32048736D01*
X469602500Y-32050000D01*
X469077500Y-32050000D01*
X469051771Y-32048736D01*
X469026289Y-32044956D01*
X469001300Y-32038697D01*
X468977046Y-32030018D01*
X468953758Y-32019004D01*
X468931663Y-32005761D01*
X468910972Y-31990415D01*
X468891884Y-31973116D01*
X468874585Y-31954028D01*
X468859239Y-31933337D01*
X468845996Y-31911242D01*
X468834982Y-31887954D01*
X468826303Y-31863700D01*
X468820044Y-31838711D01*
X468816264Y-31813229D01*
X468815000Y-31787500D01*
X468815000Y-30812500D01*
X468816264Y-30786771D01*
X468820044Y-30761289D01*
X468826303Y-30736300D01*
X468834982Y-30712046D01*
X468845996Y-30688758D01*
X468859239Y-30666663D01*
X468874585Y-30645972D01*
X468891884Y-30626884D01*
X468910972Y-30609585D01*
X468931663Y-30594239D01*
X468953758Y-30580996D01*
X468977046Y-30569982D01*
X469001300Y-30561303D01*
X469026289Y-30555044D01*
X469051771Y-30551264D01*
X469077500Y-30550000D01*
X469602500Y-30550000D01*
X469628229Y-30551264D01*
X469628229Y-30551264D01*
G37*
D27*
X469340000Y-31300000D03*
D26*
G36*
X468358229Y-30551264D02*
X468383711Y-30555044D01*
X468408700Y-30561303D01*
X468432954Y-30569982D01*
X468456242Y-30580996D01*
X468478337Y-30594239D01*
X468499028Y-30609585D01*
X468518116Y-30626884D01*
X468535415Y-30645972D01*
X468550761Y-30666663D01*
X468564004Y-30688758D01*
X468575018Y-30712046D01*
X468583697Y-30736300D01*
X468589956Y-30761289D01*
X468593736Y-30786771D01*
X468595000Y-30812500D01*
X468595000Y-31787500D01*
X468593736Y-31813229D01*
X468589956Y-31838711D01*
X468583697Y-31863700D01*
X468575018Y-31887954D01*
X468564004Y-31911242D01*
X468550761Y-31933337D01*
X468535415Y-31954028D01*
X468518116Y-31973116D01*
X468499028Y-31990415D01*
X468478337Y-32005761D01*
X468456242Y-32019004D01*
X468432954Y-32030018D01*
X468408700Y-32038697D01*
X468383711Y-32044956D01*
X468358229Y-32048736D01*
X468332500Y-32050000D01*
X467807500Y-32050000D01*
X467781771Y-32048736D01*
X467756289Y-32044956D01*
X467731300Y-32038697D01*
X467707046Y-32030018D01*
X467683758Y-32019004D01*
X467661663Y-32005761D01*
X467640972Y-31990415D01*
X467621884Y-31973116D01*
X467604585Y-31954028D01*
X467589239Y-31933337D01*
X467575996Y-31911242D01*
X467564982Y-31887954D01*
X467556303Y-31863700D01*
X467550044Y-31838711D01*
X467546264Y-31813229D01*
X467545000Y-31787500D01*
X467545000Y-30812500D01*
X467546264Y-30786771D01*
X467550044Y-30761289D01*
X467556303Y-30736300D01*
X467564982Y-30712046D01*
X467575996Y-30688758D01*
X467589239Y-30666663D01*
X467604585Y-30645972D01*
X467621884Y-30626884D01*
X467640972Y-30609585D01*
X467661663Y-30594239D01*
X467683758Y-30580996D01*
X467707046Y-30569982D01*
X467731300Y-30561303D01*
X467756289Y-30555044D01*
X467781771Y-30551264D01*
X467807500Y-30550000D01*
X468332500Y-30550000D01*
X468358229Y-30551264D01*
X468358229Y-30551264D01*
G37*
D27*
X468070000Y-31300000D03*
G04 #@! TD*
D25*
G04 #@! TO.C,Q28*
X466800000Y-11300000D03*
D26*
G36*
X469628229Y-10551264D02*
X469653711Y-10555044D01*
X469678700Y-10561303D01*
X469702954Y-10569982D01*
X469726242Y-10580996D01*
X469748337Y-10594239D01*
X469769028Y-10609585D01*
X469788116Y-10626884D01*
X469805415Y-10645972D01*
X469820761Y-10666663D01*
X469834004Y-10688758D01*
X469845018Y-10712046D01*
X469853697Y-10736300D01*
X469859956Y-10761289D01*
X469863736Y-10786771D01*
X469865000Y-10812500D01*
X469865000Y-11787500D01*
X469863736Y-11813229D01*
X469859956Y-11838711D01*
X469853697Y-11863700D01*
X469845018Y-11887954D01*
X469834004Y-11911242D01*
X469820761Y-11933337D01*
X469805415Y-11954028D01*
X469788116Y-11973116D01*
X469769028Y-11990415D01*
X469748337Y-12005761D01*
X469726242Y-12019004D01*
X469702954Y-12030018D01*
X469678700Y-12038697D01*
X469653711Y-12044956D01*
X469628229Y-12048736D01*
X469602500Y-12050000D01*
X469077500Y-12050000D01*
X469051771Y-12048736D01*
X469026289Y-12044956D01*
X469001300Y-12038697D01*
X468977046Y-12030018D01*
X468953758Y-12019004D01*
X468931663Y-12005761D01*
X468910972Y-11990415D01*
X468891884Y-11973116D01*
X468874585Y-11954028D01*
X468859239Y-11933337D01*
X468845996Y-11911242D01*
X468834982Y-11887954D01*
X468826303Y-11863700D01*
X468820044Y-11838711D01*
X468816264Y-11813229D01*
X468815000Y-11787500D01*
X468815000Y-10812500D01*
X468816264Y-10786771D01*
X468820044Y-10761289D01*
X468826303Y-10736300D01*
X468834982Y-10712046D01*
X468845996Y-10688758D01*
X468859239Y-10666663D01*
X468874585Y-10645972D01*
X468891884Y-10626884D01*
X468910972Y-10609585D01*
X468931663Y-10594239D01*
X468953758Y-10580996D01*
X468977046Y-10569982D01*
X469001300Y-10561303D01*
X469026289Y-10555044D01*
X469051771Y-10551264D01*
X469077500Y-10550000D01*
X469602500Y-10550000D01*
X469628229Y-10551264D01*
X469628229Y-10551264D01*
G37*
D27*
X469340000Y-11300000D03*
D26*
G36*
X468358229Y-10551264D02*
X468383711Y-10555044D01*
X468408700Y-10561303D01*
X468432954Y-10569982D01*
X468456242Y-10580996D01*
X468478337Y-10594239D01*
X468499028Y-10609585D01*
X468518116Y-10626884D01*
X468535415Y-10645972D01*
X468550761Y-10666663D01*
X468564004Y-10688758D01*
X468575018Y-10712046D01*
X468583697Y-10736300D01*
X468589956Y-10761289D01*
X468593736Y-10786771D01*
X468595000Y-10812500D01*
X468595000Y-11787500D01*
X468593736Y-11813229D01*
X468589956Y-11838711D01*
X468583697Y-11863700D01*
X468575018Y-11887954D01*
X468564004Y-11911242D01*
X468550761Y-11933337D01*
X468535415Y-11954028D01*
X468518116Y-11973116D01*
X468499028Y-11990415D01*
X468478337Y-12005761D01*
X468456242Y-12019004D01*
X468432954Y-12030018D01*
X468408700Y-12038697D01*
X468383711Y-12044956D01*
X468358229Y-12048736D01*
X468332500Y-12050000D01*
X467807500Y-12050000D01*
X467781771Y-12048736D01*
X467756289Y-12044956D01*
X467731300Y-12038697D01*
X467707046Y-12030018D01*
X467683758Y-12019004D01*
X467661663Y-12005761D01*
X467640972Y-11990415D01*
X467621884Y-11973116D01*
X467604585Y-11954028D01*
X467589239Y-11933337D01*
X467575996Y-11911242D01*
X467564982Y-11887954D01*
X467556303Y-11863700D01*
X467550044Y-11838711D01*
X467546264Y-11813229D01*
X467545000Y-11787500D01*
X467545000Y-10812500D01*
X467546264Y-10786771D01*
X467550044Y-10761289D01*
X467556303Y-10736300D01*
X467564982Y-10712046D01*
X467575996Y-10688758D01*
X467589239Y-10666663D01*
X467604585Y-10645972D01*
X467621884Y-10626884D01*
X467640972Y-10609585D01*
X467661663Y-10594239D01*
X467683758Y-10580996D01*
X467707046Y-10569982D01*
X467731300Y-10561303D01*
X467756289Y-10555044D01*
X467781771Y-10551264D01*
X467807500Y-10550000D01*
X468332500Y-10550000D01*
X468358229Y-10551264D01*
X468358229Y-10551264D01*
G37*
D27*
X468070000Y-11300000D03*
G04 #@! TD*
D16*
G04 #@! TO.C,R19*
X213400000Y-124600000D03*
D17*
X221020000Y-124600000D03*
G04 #@! TD*
G04 #@! TO.C,R22*
X201720000Y-52400000D03*
D16*
X194100000Y-52400000D03*
G04 #@! TD*
G04 #@! TO.C,R23*
X136400000Y-84500000D03*
D17*
X128780000Y-84500000D03*
G04 #@! TD*
D16*
G04 #@! TO.C,R24*
X304500000Y-65700000D03*
D17*
X296880000Y-65700000D03*
G04 #@! TD*
G04 #@! TO.C,R25*
X396700000Y-95180000D03*
D16*
X396700000Y-102800000D03*
G04 #@! TD*
D17*
G04 #@! TO.C,R26*
X130500000Y-47400000D03*
D16*
X130500000Y-55020000D03*
G04 #@! TD*
G04 #@! TO.C,R27*
X19500000Y-79500000D03*
D17*
X11880000Y-79500000D03*
G04 #@! TD*
G04 #@! TO.C,R28*
X348420000Y-67200000D03*
D16*
X340800000Y-67200000D03*
G04 #@! TD*
D17*
G04 #@! TO.C,R29*
X17020000Y-56300000D03*
D16*
X9400000Y-56300000D03*
G04 #@! TD*
G04 #@! TO.C,R30*
X65170000Y-87200000D03*
D17*
X65170000Y-94820000D03*
G04 #@! TD*
D16*
G04 #@! TO.C,R31*
X82950000Y-87200000D03*
D17*
X82950000Y-94820000D03*
G04 #@! TD*
G04 #@! TO.C,R32*
X100730000Y-94820000D03*
D16*
X100730000Y-87200000D03*
G04 #@! TD*
G04 #@! TO.C,R33*
X29500000Y-60500000D03*
D17*
X37120000Y-60500000D03*
G04 #@! TD*
G04 #@! TO.C,R34*
X37320000Y-73700000D03*
D16*
X29700000Y-73700000D03*
G04 #@! TD*
G04 #@! TO.C,R35*
X314000000Y-89600000D03*
D17*
X314000000Y-81980000D03*
G04 #@! TD*
G04 #@! TO.C,R36*
X136820000Y-77800000D03*
D16*
X129200000Y-77800000D03*
G04 #@! TD*
G04 #@! TO.C,R61*
X295900000Y-78700000D03*
D17*
X295900000Y-71080000D03*
G04 #@! TD*
G04 #@! TO.C,R66*
X428800000Y-9680000D03*
D16*
X428800000Y-17300000D03*
G04 #@! TD*
G04 #@! TO.C,R67*
X461800000Y-37300000D03*
D17*
X461800000Y-29680000D03*
G04 #@! TD*
D16*
G04 #@! TO.C,R68*
X461800000Y-17300000D03*
D17*
X461800000Y-9680000D03*
G04 #@! TD*
D16*
G04 #@! TO.C,R121*
X142300000Y-123600000D03*
D17*
X149920000Y-123600000D03*
G04 #@! TD*
G04 #@! TO.C,R432*
X428600000Y-94280000D03*
D16*
X428600000Y-101900000D03*
G04 #@! TD*
G04 #@! TO.C,R433*
X414400000Y-34700000D03*
D17*
X414400000Y-42320000D03*
G04 #@! TD*
G04 #@! TO.C,R435*
X436520000Y-112200000D03*
D16*
X428900000Y-112200000D03*
G04 #@! TD*
G04 #@! TO.C,R436*
X450600000Y-32200000D03*
D17*
X450600000Y-24580000D03*
G04 #@! TD*
G04 #@! TO.C,R438*
X476800000Y-9680000D03*
D16*
X476800000Y-17300000D03*
G04 #@! TD*
D28*
G04 #@! TO.C,SW1*
X473400000Y-115201000D03*
X473400000Y-124599000D03*
X473400000Y-119900000D03*
G04 #@! TD*
D19*
G04 #@! TO.C,SW6*
X381000000Y-63920000D03*
D18*
X373380000Y-71540000D03*
X388620000Y-56300000D03*
X373380000Y-56300000D03*
X381000000Y-75350000D03*
X381000000Y-52236000D03*
X388620000Y-71540000D03*
G04 #@! TD*
D29*
G04 #@! TO.C,J10*
X384600000Y-85040000D03*
X384600000Y-90120000D03*
X384600000Y-95200000D03*
X384600000Y-100280000D03*
X384600000Y-105360000D03*
X384600000Y-110440000D03*
X384600000Y-115520000D03*
D30*
X384600000Y-120600000D03*
G04 #@! TD*
D29*
G04 #@! TO.C,J4*
X367500000Y-85240000D03*
X367500000Y-90320000D03*
X367500000Y-95400000D03*
X367500000Y-100480000D03*
X367500000Y-105560000D03*
X367500000Y-110640000D03*
X367500000Y-115720000D03*
D30*
X367500000Y-120800000D03*
G04 #@! TD*
M02*
