G04 #@! TF.GenerationSoftware,KiCad,Pcbnew,(5.0.0)*
G04 #@! TF.CreationDate,2019-11-08T18:39:11+00:00*
G04 #@! TF.ProjectId,A-FO,412D464F2E6B696361645F7063620000,rev?*
G04 #@! TF.SameCoordinates,Original*
G04 #@! TF.FileFunction,Copper,L2,Bot,Signal*
G04 #@! TF.FilePolarity,Positive*
%FSLAX46Y46*%
G04 Gerber Fmt 4.6, Leading zero omitted, Abs format (unit mm)*
G04 Created by KiCad (PCBNEW (5.0.0)) date 11/08/19 18:39:11*
%MOMM*%
%LPD*%
G01*
G04 APERTURE LIST*
G04 #@! TA.AperFunction,ComponentPad*
%ADD10C,2.000000*%
G04 #@! TD*
G04 #@! TA.AperFunction,ComponentPad*
%ADD11C,1.600000*%
G04 #@! TD*
G04 #@! TA.AperFunction,ComponentPad*
%ADD12R,1.600000X1.600000*%
G04 #@! TD*
G04 #@! TA.AperFunction,ComponentPad*
%ADD13C,1.700000*%
G04 #@! TD*
G04 #@! TA.AperFunction,ComponentPad*
%ADD14R,1.700000X1.700000*%
G04 #@! TD*
G04 #@! TA.AperFunction,ViaPad*
%ADD15C,0.800000*%
G04 #@! TD*
G04 #@! TA.AperFunction,Conductor*
%ADD16C,0.500000*%
G04 #@! TD*
G04 #@! TA.AperFunction,Conductor*
%ADD17C,0.250000*%
G04 #@! TD*
G04 APERTURE END LIST*
D10*
G04 #@! TO.P,U4,13*
G04 #@! TO.N,Net-(U4-Pad13)*
X133985000Y-142240000D03*
G04 #@! TO.P,U4,12*
G04 #@! TO.N,Net-(U4-Pad12)*
X133985000Y-144780000D03*
G04 #@! TO.P,U4,11*
G04 #@! TO.N,Net-(U4-Pad11)*
X133985000Y-147320000D03*
G04 #@! TO.P,U4,6*
G04 #@! TO.N,IG12*
X152400000Y-138430000D03*
G04 #@! TO.P,U4,5*
G04 #@! TO.N,N/C*
X152400000Y-140970000D03*
G04 #@! TO.P,U4,4*
G04 #@! TO.N,IG11*
X152400000Y-143510000D03*
G04 #@! TO.P,U4,3*
G04 #@! TO.N,N/C*
X152400000Y-146050000D03*
G04 #@! TO.P,U4,2*
G04 #@! TO.N,IG10*
X152400000Y-148590000D03*
G04 #@! TO.P,U4,1*
G04 #@! TO.N,N/C*
X152400000Y-151130000D03*
G04 #@! TO.P,U4,23*
G04 #@! TO.N,Neg6v*
X139065000Y-168275000D03*
G04 #@! TO.P,U4,22*
G04 #@! TO.N,GND*
X136525000Y-168275000D03*
G04 #@! TO.P,U4,21*
G04 #@! TO.N,6v*
X133985000Y-168275000D03*
G04 #@! TD*
G04 #@! TO.P,U8,13*
G04 #@! TO.N,Net-(U1-Pad5)*
X225425000Y-78740000D03*
G04 #@! TO.P,U8,12*
G04 #@! TO.N,Net-(U1-Pad3)*
X225425000Y-81280000D03*
G04 #@! TO.P,U8,11*
G04 #@! TO.N,Net-(U1-Pad1)*
X225425000Y-83820000D03*
G04 #@! TO.P,U8,6*
G04 #@! TO.N,IG3*
X243840000Y-74930000D03*
G04 #@! TO.P,U8,5*
G04 #@! TO.N,N/C*
X243840000Y-77470000D03*
G04 #@! TO.P,U8,4*
G04 #@! TO.N,IG2*
X243840000Y-80010000D03*
G04 #@! TO.P,U8,3*
G04 #@! TO.N,N/C*
X243840000Y-82550000D03*
G04 #@! TO.P,U8,2*
G04 #@! TO.N,IG1*
X243840000Y-85090000D03*
G04 #@! TO.P,U8,1*
G04 #@! TO.N,N/C*
X243840000Y-87630000D03*
G04 #@! TO.P,U8,23*
G04 #@! TO.N,Neg6v*
X230505000Y-104775000D03*
G04 #@! TO.P,U8,22*
G04 #@! TO.N,GND*
X227965000Y-104775000D03*
G04 #@! TO.P,U8,21*
G04 #@! TO.N,6v*
X225425000Y-104775000D03*
G04 #@! TD*
G04 #@! TO.P,U1,13*
G04 #@! TO.N,IP3*
X225425000Y-142240000D03*
G04 #@! TO.P,U1,12*
G04 #@! TO.N,IP2*
X225425000Y-144780000D03*
G04 #@! TO.P,U1,11*
G04 #@! TO.N,IP1*
X225425000Y-147320000D03*
G04 #@! TO.P,U1,6*
G04 #@! TO.N,N/C*
X243840000Y-138430000D03*
G04 #@! TO.P,U1,5*
G04 #@! TO.N,Net-(U1-Pad5)*
X243840000Y-140970000D03*
G04 #@! TO.P,U1,4*
G04 #@! TO.N,N/C*
X243840000Y-143510000D03*
G04 #@! TO.P,U1,3*
G04 #@! TO.N,Net-(U1-Pad3)*
X243840000Y-146050000D03*
G04 #@! TO.P,U1,2*
G04 #@! TO.N,N/C*
X243840000Y-148590000D03*
G04 #@! TO.P,U1,1*
G04 #@! TO.N,Net-(U1-Pad1)*
X243840000Y-151130000D03*
G04 #@! TO.P,U1,23*
G04 #@! TO.N,Neg6v*
X230505000Y-168275000D03*
G04 #@! TO.P,U1,22*
G04 #@! TO.N,GND*
X227965000Y-168275000D03*
G04 #@! TO.P,U1,21*
G04 #@! TO.N,6v*
X225425000Y-168275000D03*
G04 #@! TD*
G04 #@! TO.P,U12,13*
G04 #@! TO.N,IP14*
X103505000Y-78740000D03*
G04 #@! TO.P,U12,12*
G04 #@! TO.N,IP13*
X103505000Y-81280000D03*
G04 #@! TO.P,U12,11*
G04 #@! TO.N,IP15*
X103505000Y-83820000D03*
G04 #@! TO.P,U12,6*
G04 #@! TO.N,N/C*
X121920000Y-74930000D03*
G04 #@! TO.P,U12,5*
G04 #@! TO.N,Net-(U11-Pad13)*
X121920000Y-77470000D03*
G04 #@! TO.P,U12,4*
G04 #@! TO.N,N/C*
X121920000Y-80010000D03*
G04 #@! TO.P,U12,3*
G04 #@! TO.N,Net-(U11-Pad12)*
X121920000Y-82550000D03*
G04 #@! TO.P,U12,2*
G04 #@! TO.N,N/C*
X121920000Y-85090000D03*
G04 #@! TO.P,U12,1*
G04 #@! TO.N,Net-(U11-Pad11)*
X121920000Y-87630000D03*
G04 #@! TO.P,U12,23*
G04 #@! TO.N,Neg6v*
X108585000Y-104775000D03*
G04 #@! TO.P,U12,22*
G04 #@! TO.N,GND*
X106045000Y-104775000D03*
G04 #@! TO.P,U12,21*
G04 #@! TO.N,6v*
X103505000Y-104775000D03*
G04 #@! TD*
G04 #@! TO.P,U11,13*
G04 #@! TO.N,Net-(U11-Pad13)*
X133985000Y-78740000D03*
G04 #@! TO.P,U11,12*
G04 #@! TO.N,Net-(U11-Pad12)*
X133985000Y-81280000D03*
G04 #@! TO.P,U11,11*
G04 #@! TO.N,Net-(U11-Pad11)*
X133985000Y-83820000D03*
G04 #@! TO.P,U11,6*
G04 #@! TO.N,IG14*
X152400000Y-74930000D03*
G04 #@! TO.P,U11,5*
G04 #@! TO.N,N/C*
X152400000Y-77470000D03*
G04 #@! TO.P,U11,4*
G04 #@! TO.N,IG13*
X152400000Y-80010000D03*
G04 #@! TO.P,U11,3*
G04 #@! TO.N,N/C*
X152400000Y-82550000D03*
G04 #@! TO.P,U11,2*
G04 #@! TO.N,IG15*
X152400000Y-85090000D03*
G04 #@! TO.P,U11,1*
G04 #@! TO.N,N/C*
X152400000Y-87630000D03*
G04 #@! TO.P,U11,23*
G04 #@! TO.N,Neg6v*
X139065000Y-104775000D03*
G04 #@! TO.P,U11,22*
G04 #@! TO.N,GND*
X136525000Y-104775000D03*
G04 #@! TO.P,U11,21*
G04 #@! TO.N,6v*
X133985000Y-104775000D03*
G04 #@! TD*
G04 #@! TO.P,U14,13*
G04 #@! TO.N,N/C*
X42545000Y-78740000D03*
G04 #@! TO.P,U14,12*
G04 #@! TO.N,RBT*
X42545000Y-81280000D03*
G04 #@! TO.P,U14,11*
G04 #@! TO.N,SBT*
X42545000Y-83820000D03*
G04 #@! TO.P,U14,6*
G04 #@! TO.N,N/C*
X60960000Y-74930000D03*
G04 #@! TO.P,U14,5*
X60960000Y-77470000D03*
G04 #@! TO.P,U14,4*
G04 #@! TO.N,Net-(U13-Pad12)*
X60960000Y-80010000D03*
G04 #@! TO.P,U14,3*
G04 #@! TO.N,t4-2*
X60960000Y-82550000D03*
G04 #@! TO.P,U14,2*
X60960000Y-85090000D03*
G04 #@! TO.P,U14,1*
G04 #@! TO.N,Net-(U13-Pad11)*
X60960000Y-87630000D03*
G04 #@! TO.P,U14,23*
G04 #@! TO.N,Neg6v*
X47625000Y-104775000D03*
G04 #@! TO.P,U14,22*
G04 #@! TO.N,GND*
X45085000Y-104775000D03*
G04 #@! TO.P,U14,21*
G04 #@! TO.N,6v*
X42545000Y-104775000D03*
G04 #@! TD*
G04 #@! TO.P,U13,13*
G04 #@! TO.N,N/C*
X73025000Y-78740000D03*
G04 #@! TO.P,U13,12*
G04 #@! TO.N,Net-(U13-Pad12)*
X73025000Y-81280000D03*
G04 #@! TO.P,U13,11*
G04 #@! TO.N,Net-(U13-Pad11)*
X73025000Y-83820000D03*
G04 #@! TO.P,U13,6*
G04 #@! TO.N,N/C*
X91440000Y-74930000D03*
G04 #@! TO.P,U13,5*
X91440000Y-77470000D03*
G04 #@! TO.P,U13,4*
G04 #@! TO.N,RBTm*
X91440000Y-80010000D03*
G04 #@! TO.P,U13,3*
G04 #@! TO.N,N/C*
X91440000Y-82550000D03*
G04 #@! TO.P,U13,2*
G04 #@! TO.N,SBTm*
X91440000Y-85090000D03*
G04 #@! TO.P,U13,1*
G04 #@! TO.N,N/C*
X91440000Y-87630000D03*
G04 #@! TO.P,U13,23*
G04 #@! TO.N,Neg6v*
X78105000Y-104775000D03*
G04 #@! TO.P,U13,22*
G04 #@! TO.N,GND*
X75565000Y-104775000D03*
G04 #@! TO.P,U13,21*
G04 #@! TO.N,6v*
X73025000Y-104775000D03*
G04 #@! TD*
G04 #@! TO.P,U2,13*
G04 #@! TO.N,Net-(U2-Pad13)*
X194945000Y-142240000D03*
G04 #@! TO.P,U2,12*
G04 #@! TO.N,Net-(U2-Pad12)*
X194945000Y-144780000D03*
G04 #@! TO.P,U2,11*
G04 #@! TO.N,Net-(U2-Pad11)*
X194945000Y-147320000D03*
G04 #@! TO.P,U2,6*
G04 #@! TO.N,IG5*
X213360000Y-138430000D03*
G04 #@! TO.P,U2,5*
G04 #@! TO.N,N/C*
X213360000Y-140970000D03*
G04 #@! TO.P,U2,4*
G04 #@! TO.N,IG6*
X213360000Y-143510000D03*
G04 #@! TO.P,U2,3*
G04 #@! TO.N,N/C*
X213360000Y-146050000D03*
G04 #@! TO.P,U2,2*
G04 #@! TO.N,IG4*
X213360000Y-148590000D03*
G04 #@! TO.P,U2,1*
G04 #@! TO.N,N/C*
X213360000Y-151130000D03*
G04 #@! TO.P,U2,23*
G04 #@! TO.N,Neg6v*
X200025000Y-168275000D03*
G04 #@! TO.P,U2,22*
G04 #@! TO.N,GND*
X197485000Y-168275000D03*
G04 #@! TO.P,U2,21*
G04 #@! TO.N,6v*
X194945000Y-168275000D03*
G04 #@! TD*
G04 #@! TO.P,U3,13*
G04 #@! TO.N,IP5*
X164465000Y-142240000D03*
G04 #@! TO.P,U3,12*
G04 #@! TO.N,IP6*
X164465000Y-144780000D03*
G04 #@! TO.P,U3,11*
G04 #@! TO.N,IP4*
X164465000Y-147320000D03*
G04 #@! TO.P,U3,6*
G04 #@! TO.N,N/C*
X182880000Y-138430000D03*
G04 #@! TO.P,U3,5*
G04 #@! TO.N,Net-(U2-Pad13)*
X182880000Y-140970000D03*
G04 #@! TO.P,U3,4*
G04 #@! TO.N,N/C*
X182880000Y-143510000D03*
G04 #@! TO.P,U3,3*
G04 #@! TO.N,Net-(U2-Pad12)*
X182880000Y-146050000D03*
G04 #@! TO.P,U3,2*
G04 #@! TO.N,N/C*
X182880000Y-148590000D03*
G04 #@! TO.P,U3,1*
G04 #@! TO.N,Net-(U2-Pad11)*
X182880000Y-151130000D03*
G04 #@! TO.P,U3,23*
G04 #@! TO.N,Neg6v*
X169545000Y-168275000D03*
G04 #@! TO.P,U3,22*
G04 #@! TO.N,GND*
X167005000Y-168275000D03*
G04 #@! TO.P,U3,21*
G04 #@! TO.N,6v*
X164465000Y-168275000D03*
G04 #@! TD*
G04 #@! TO.P,U9,13*
G04 #@! TO.N,Net-(U10-Pad5)*
X194945000Y-78740000D03*
G04 #@! TO.P,U9,12*
G04 #@! TO.N,Net-(U10-Pad3)*
X194945000Y-81280000D03*
G04 #@! TO.P,U9,11*
G04 #@! TO.N,Net-(U10-Pad1)*
X194945000Y-83820000D03*
G04 #@! TO.P,U9,6*
G04 #@! TO.N,IG8*
X213360000Y-74930000D03*
G04 #@! TO.P,U9,5*
G04 #@! TO.N,N/C*
X213360000Y-77470000D03*
G04 #@! TO.P,U9,4*
G04 #@! TO.N,IG7*
X213360000Y-80010000D03*
G04 #@! TO.P,U9,3*
G04 #@! TO.N,N/C*
X213360000Y-82550000D03*
G04 #@! TO.P,U9,2*
G04 #@! TO.N,IG9*
X213360000Y-85090000D03*
G04 #@! TO.P,U9,1*
G04 #@! TO.N,N/C*
X213360000Y-87630000D03*
G04 #@! TO.P,U9,23*
G04 #@! TO.N,Neg6v*
X200025000Y-104775000D03*
G04 #@! TO.P,U9,22*
G04 #@! TO.N,GND*
X197485000Y-104775000D03*
G04 #@! TO.P,U9,21*
G04 #@! TO.N,6v*
X194945000Y-104775000D03*
G04 #@! TD*
G04 #@! TO.P,U10,13*
G04 #@! TO.N,IP8*
X164465000Y-78740000D03*
G04 #@! TO.P,U10,12*
G04 #@! TO.N,IP7*
X164465000Y-81280000D03*
G04 #@! TO.P,U10,11*
G04 #@! TO.N,IP9*
X164465000Y-83820000D03*
G04 #@! TO.P,U10,6*
G04 #@! TO.N,N/C*
X182880000Y-74930000D03*
G04 #@! TO.P,U10,5*
G04 #@! TO.N,Net-(U10-Pad5)*
X182880000Y-77470000D03*
G04 #@! TO.P,U10,4*
G04 #@! TO.N,N/C*
X182880000Y-80010000D03*
G04 #@! TO.P,U10,3*
G04 #@! TO.N,Net-(U10-Pad3)*
X182880000Y-82550000D03*
G04 #@! TO.P,U10,2*
G04 #@! TO.N,N/C*
X182880000Y-85090000D03*
G04 #@! TO.P,U10,1*
G04 #@! TO.N,Net-(U10-Pad1)*
X182880000Y-87630000D03*
G04 #@! TO.P,U10,23*
G04 #@! TO.N,Neg6v*
X169545000Y-104775000D03*
G04 #@! TO.P,U10,22*
G04 #@! TO.N,GND*
X167005000Y-104775000D03*
G04 #@! TO.P,U10,21*
G04 #@! TO.N,6v*
X164465000Y-104775000D03*
G04 #@! TD*
G04 #@! TO.P,U5,13*
G04 #@! TO.N,IP12*
X103505000Y-142240000D03*
G04 #@! TO.P,U5,12*
G04 #@! TO.N,IP11*
X103505000Y-144780000D03*
G04 #@! TO.P,U5,11*
G04 #@! TO.N,IP10*
X103505000Y-147320000D03*
G04 #@! TO.P,U5,6*
G04 #@! TO.N,N/C*
X121920000Y-138430000D03*
G04 #@! TO.P,U5,5*
G04 #@! TO.N,Net-(U4-Pad13)*
X121920000Y-140970000D03*
G04 #@! TO.P,U5,4*
G04 #@! TO.N,N/C*
X121920000Y-143510000D03*
G04 #@! TO.P,U5,3*
G04 #@! TO.N,Net-(U4-Pad12)*
X121920000Y-146050000D03*
G04 #@! TO.P,U5,2*
G04 #@! TO.N,N/C*
X121920000Y-148590000D03*
G04 #@! TO.P,U5,1*
G04 #@! TO.N,Net-(U4-Pad11)*
X121920000Y-151130000D03*
G04 #@! TO.P,U5,23*
G04 #@! TO.N,Neg6v*
X108585000Y-168275000D03*
G04 #@! TO.P,U5,22*
G04 #@! TO.N,GND*
X106045000Y-168275000D03*
G04 #@! TO.P,U5,21*
G04 #@! TO.N,6v*
X103505000Y-168275000D03*
G04 #@! TD*
G04 #@! TO.P,U6,13*
G04 #@! TO.N,Net-(U6-Pad13)*
X73025000Y-142240000D03*
G04 #@! TO.P,U6,12*
G04 #@! TO.N,Net-(U6-Pad12)*
X73025000Y-144780000D03*
G04 #@! TO.P,U6,11*
G04 #@! TO.N,Net-(U6-Pad11)*
X73025000Y-147320000D03*
G04 #@! TO.P,U6,6*
G04 #@! TO.N,IG18*
X91440000Y-138430000D03*
G04 #@! TO.P,U6,5*
G04 #@! TO.N,N/C*
X91440000Y-140970000D03*
G04 #@! TO.P,U6,4*
G04 #@! TO.N,IG17*
X91440000Y-143510000D03*
G04 #@! TO.P,U6,3*
G04 #@! TO.N,N/C*
X91440000Y-146050000D03*
G04 #@! TO.P,U6,2*
G04 #@! TO.N,IG16*
X91440000Y-148590000D03*
G04 #@! TO.P,U6,1*
G04 #@! TO.N,N/C*
X91440000Y-151130000D03*
G04 #@! TO.P,U6,23*
G04 #@! TO.N,Neg6v*
X78105000Y-168275000D03*
G04 #@! TO.P,U6,22*
G04 #@! TO.N,GND*
X75565000Y-168275000D03*
G04 #@! TO.P,U6,21*
G04 #@! TO.N,6v*
X73025000Y-168275000D03*
G04 #@! TD*
G04 #@! TO.P,U7,13*
G04 #@! TO.N,IP18*
X42545000Y-142240000D03*
G04 #@! TO.P,U7,12*
G04 #@! TO.N,IP17*
X42545000Y-144780000D03*
G04 #@! TO.P,U7,11*
G04 #@! TO.N,IP16*
X42545000Y-147320000D03*
G04 #@! TO.P,U7,6*
G04 #@! TO.N,N/C*
X60960000Y-138430000D03*
G04 #@! TO.P,U7,5*
G04 #@! TO.N,Net-(U6-Pad13)*
X60960000Y-140970000D03*
G04 #@! TO.P,U7,4*
G04 #@! TO.N,N/C*
X60960000Y-143510000D03*
G04 #@! TO.P,U7,3*
G04 #@! TO.N,Net-(U6-Pad12)*
X60960000Y-146050000D03*
G04 #@! TO.P,U7,2*
G04 #@! TO.N,N/C*
X60960000Y-148590000D03*
G04 #@! TO.P,U7,1*
G04 #@! TO.N,Net-(U6-Pad11)*
X60960000Y-151130000D03*
G04 #@! TO.P,U7,23*
G04 #@! TO.N,Neg6v*
X47625000Y-168275000D03*
G04 #@! TO.P,U7,22*
G04 #@! TO.N,GND*
X45085000Y-168275000D03*
G04 #@! TO.P,U7,21*
G04 #@! TO.N,6v*
X42545000Y-168275000D03*
G04 #@! TD*
D11*
G04 #@! TO.P,C1,2*
G04 #@! TO.N,Neg6v*
X146900000Y-37000000D03*
D12*
G04 #@! TO.P,C1,1*
G04 #@! TO.N,GND*
X144400000Y-37000000D03*
G04 #@! TD*
D11*
G04 #@! TO.P,C2,2*
G04 #@! TO.N,GND*
X33300000Y-39800000D03*
D12*
G04 #@! TO.P,C2,1*
G04 #@! TO.N,6v*
X30800000Y-39800000D03*
G04 #@! TD*
D13*
G04 #@! TO.P,J1,AL*
G04 #@! TO.N,GND*
X39605000Y-33401000D03*
G04 #@! TO.P,J1,32*
X39605000Y-30861000D03*
G04 #@! TO.P,J1,AK*
G04 #@! TO.N,Neg6v*
X42145000Y-33401000D03*
G04 #@! TO.P,J1,31*
X42145000Y-30861000D03*
G04 #@! TO.P,J1,AJ*
G04 #@! TO.N,t4-2*
X44685000Y-33401000D03*
G04 #@! TO.P,J1,30*
G04 #@! TO.N,N/C*
X44685000Y-30861000D03*
G04 #@! TO.P,J1,AH*
G04 #@! TO.N,SBTm*
X47225000Y-33401000D03*
G04 #@! TO.P,J1,29*
G04 #@! TO.N,SBT*
X47225000Y-30861000D03*
G04 #@! TO.P,J1,AF*
G04 #@! TO.N,N/C*
X49765000Y-33401000D03*
G04 #@! TO.P,J1,28*
X49765000Y-30861000D03*
G04 #@! TO.P,J1,AE*
G04 #@! TO.N,RBTm*
X52305000Y-33401000D03*
G04 #@! TO.P,J1,27*
G04 #@! TO.N,RBT*
X52305000Y-30861000D03*
G04 #@! TO.P,J1,AD*
G04 #@! TO.N,IG18*
X54845000Y-33401000D03*
G04 #@! TO.P,J1,26*
G04 #@! TO.N,IP18*
X54845000Y-30861000D03*
G04 #@! TO.P,J1,AC*
G04 #@! TO.N,IG17*
X57385000Y-33401000D03*
G04 #@! TO.P,J1,25*
G04 #@! TO.N,IP17*
X57385000Y-30861000D03*
G04 #@! TO.P,J1,AB*
G04 #@! TO.N,IG16*
X59925000Y-33401000D03*
G04 #@! TO.P,J1,24*
G04 #@! TO.N,IP16*
X59925000Y-30861000D03*
G04 #@! TO.P,J1,AA*
G04 #@! TO.N,N/C*
X62465000Y-33401000D03*
G04 #@! TO.P,J1,23*
X62465000Y-30861000D03*
G04 #@! TO.P,J1,Z*
X65005000Y-33401000D03*
G04 #@! TO.P,J1,22*
X65005000Y-30861000D03*
G04 #@! TO.P,J1,Y*
X67545000Y-33401000D03*
G04 #@! TO.P,J1,21*
X67545000Y-30861000D03*
G04 #@! TO.P,J1,X*
X70085000Y-33401000D03*
G04 #@! TO.P,J1,20*
X70085000Y-30861000D03*
G04 #@! TO.P,J1,W*
G04 #@! TO.N,IG15*
X72625000Y-33401000D03*
G04 #@! TO.P,J1,19*
G04 #@! TO.N,IP15*
X72625000Y-30861000D03*
G04 #@! TO.P,J1,V*
G04 #@! TO.N,IG14*
X75165000Y-33401000D03*
G04 #@! TO.P,J1,18*
G04 #@! TO.N,IP14*
X75165000Y-30861000D03*
G04 #@! TO.P,J1,U*
G04 #@! TO.N,IG13*
X77705000Y-33401000D03*
G04 #@! TO.P,J1,17*
G04 #@! TO.N,IP13*
X77705000Y-30861000D03*
G04 #@! TO.P,J1,T*
G04 #@! TO.N,IG12*
X80245000Y-33401000D03*
G04 #@! TO.P,J1,16*
G04 #@! TO.N,IP12*
X80245000Y-30861000D03*
G04 #@! TO.P,J1,S*
G04 #@! TO.N,IG11*
X82785000Y-33401000D03*
G04 #@! TO.P,J1,15*
G04 #@! TO.N,IP11*
X82785000Y-30861000D03*
G04 #@! TO.P,J1,R*
G04 #@! TO.N,IG10*
X85325000Y-33401000D03*
G04 #@! TO.P,J1,14*
G04 #@! TO.N,IP10*
X85325000Y-30861000D03*
G04 #@! TO.P,J1,P*
G04 #@! TO.N,N/C*
X87865000Y-33401000D03*
G04 #@! TO.P,J1,13*
X87865000Y-30861000D03*
G04 #@! TO.P,J1,N*
X90405000Y-33401000D03*
G04 #@! TO.P,J1,12*
X90405000Y-30861000D03*
G04 #@! TO.P,J1,M*
G04 #@! TO.N,IG9*
X92945000Y-33401000D03*
G04 #@! TO.P,J1,11*
G04 #@! TO.N,IP9*
X92945000Y-30861000D03*
G04 #@! TO.P,J1,L*
G04 #@! TO.N,IG8*
X95485000Y-33401000D03*
G04 #@! TO.P,J1,10*
G04 #@! TO.N,IP8*
X95485000Y-30861000D03*
G04 #@! TO.P,J1,K*
G04 #@! TO.N,IG7*
X98025000Y-33401000D03*
G04 #@! TO.P,J1,9*
G04 #@! TO.N,IP7*
X98025000Y-30861000D03*
G04 #@! TO.P,J1,J*
G04 #@! TO.N,IG6*
X100565000Y-33401000D03*
G04 #@! TO.P,J1,8*
G04 #@! TO.N,IP6*
X100565000Y-30861000D03*
G04 #@! TO.P,J1,H*
G04 #@! TO.N,IG5*
X103105000Y-33401000D03*
G04 #@! TO.P,J1,7*
G04 #@! TO.N,IP5*
X103105000Y-30861000D03*
G04 #@! TO.P,J1,F*
G04 #@! TO.N,IG4*
X105645000Y-33401000D03*
G04 #@! TO.P,J1,6*
G04 #@! TO.N,IP4*
X105645000Y-30861000D03*
G04 #@! TO.P,J1,E*
G04 #@! TO.N,IG3*
X108185000Y-33401000D03*
G04 #@! TO.P,J1,5*
G04 #@! TO.N,IP3*
X108185000Y-30861000D03*
G04 #@! TO.P,J1,D*
G04 #@! TO.N,IG2*
X110725000Y-33401000D03*
G04 #@! TO.P,J1,4*
G04 #@! TO.N,IP2*
X110725000Y-30861000D03*
G04 #@! TO.P,J1,C*
G04 #@! TO.N,IG1*
X113265000Y-33401000D03*
G04 #@! TO.P,J1,3*
G04 #@! TO.N,IP1*
X113265000Y-30861000D03*
G04 #@! TO.P,J1,B*
G04 #@! TO.N,6v*
X115805000Y-33401000D03*
G04 #@! TO.P,J1,2*
X115805000Y-30861000D03*
G04 #@! TO.P,J1,A*
G04 #@! TO.N,GND*
X118345000Y-33401000D03*
D14*
G04 #@! TO.P,J1,1*
X118345000Y-30861000D03*
G04 #@! TD*
D15*
G04 #@! TO.N,IG18*
X56730500Y-37699700D03*
G04 #@! TO.N,IG11*
X88015000Y-38631000D03*
G04 #@! TO.N,IG10*
X87273200Y-35349200D03*
G04 #@! TO.N,IG6*
X119927400Y-52763400D03*
G04 #@! TO.N,IG5*
X130211300Y-51380800D03*
G04 #@! TO.N,IG4*
X119197200Y-50093800D03*
G04 #@! TD*
D16*
G04 #@! TO.N,6v*
X115805000Y-92475000D02*
X103505000Y-104775000D01*
X115805000Y-33401000D02*
X115805000Y-92475000D01*
X115805000Y-92475000D02*
X121685000Y-92475000D01*
X121685000Y-92475000D02*
X133985000Y-104775000D01*
X115805000Y-30861000D02*
X115805000Y-33401000D01*
X133985000Y-104775000D02*
X135465100Y-106255100D01*
X135465100Y-106255100D02*
X162984900Y-106255100D01*
X162984900Y-106255100D02*
X164465000Y-104775000D01*
X225425000Y-104775000D02*
X226901900Y-103298100D01*
X226901900Y-103298100D02*
X231149500Y-103298100D01*
X231149500Y-103298100D02*
X232006000Y-104154600D01*
X232006000Y-104154600D02*
X232006000Y-161694000D01*
X232006000Y-161694000D02*
X225425000Y-168275000D01*
X42545000Y-168275000D02*
X41086800Y-166816800D01*
X41086800Y-166816800D02*
X41086800Y-106233200D01*
X41086800Y-106233200D02*
X42545000Y-104775000D01*
X30800000Y-39800000D02*
X30800000Y-93030000D01*
X30800000Y-93030000D02*
X42545000Y-104775000D01*
G04 #@! TO.N,Neg6v*
X169545000Y-166774800D02*
X140565200Y-166774800D01*
X140565200Y-166774800D02*
X139065000Y-168275000D01*
X169545000Y-166774800D02*
X198524800Y-166774800D01*
X198524800Y-166774800D02*
X200025000Y-168275000D01*
X169545000Y-104775000D02*
X169545000Y-166774800D01*
X169545000Y-166774800D02*
X169545000Y-168275000D01*
X139065000Y-104775000D02*
X140525900Y-103314100D01*
X140525900Y-103314100D02*
X168084100Y-103314100D01*
X168084100Y-103314100D02*
X169545000Y-104775000D01*
X200025000Y-104775000D02*
X198085800Y-102835800D01*
X198085800Y-102835800D02*
X196034600Y-102835800D01*
X196034600Y-102835800D02*
X146900000Y-53701200D01*
X146900000Y-53701200D02*
X146900000Y-37000000D01*
X78105000Y-168275000D02*
X76647000Y-169733000D01*
X76647000Y-169733000D02*
X49083000Y-169733000D01*
X49083000Y-169733000D02*
X47625000Y-168275000D01*
X108585000Y-168275000D02*
X107123100Y-169736900D01*
X107123100Y-169736900D02*
X79566900Y-169736900D01*
X79566900Y-169736900D02*
X78105000Y-168275000D01*
X42145000Y-30861000D02*
X42145000Y-33401000D01*
G04 #@! TO.N,GND*
X118345000Y-33401000D02*
X118345000Y-86595000D01*
X118345000Y-86595000D02*
X136525000Y-104775000D01*
X118345000Y-30861000D02*
X118345000Y-33401000D01*
X106045000Y-168275000D02*
X107515800Y-166804200D01*
X107515800Y-166804200D02*
X135054200Y-166804200D01*
X135054200Y-166804200D02*
X136525000Y-168275000D01*
X197485000Y-104775000D02*
X198972900Y-106262900D01*
X198972900Y-106262900D02*
X226477100Y-106262900D01*
X226477100Y-106262900D02*
X227965000Y-104775000D01*
X197485000Y-168275000D02*
X198939600Y-169729600D01*
X198939600Y-169729600D02*
X226510400Y-169729600D01*
X226510400Y-169729600D02*
X227965000Y-168275000D01*
X167005000Y-168275000D02*
X168456000Y-169726000D01*
X168456000Y-169726000D02*
X196034000Y-169726000D01*
X196034000Y-169726000D02*
X197485000Y-168275000D01*
X136525000Y-168275000D02*
X137995700Y-169745700D01*
X137995700Y-169745700D02*
X165534300Y-169745700D01*
X165534300Y-169745700D02*
X167005000Y-168275000D01*
X33300000Y-39800000D02*
X39605000Y-33495000D01*
X39605000Y-33495000D02*
X39605000Y-33401000D01*
X39605000Y-30861000D02*
X39605000Y-33401000D01*
D17*
G04 #@! TO.N,Net-(U1-Pad5)*
X243840000Y-140970000D02*
X236986500Y-134116500D01*
X236986500Y-134116500D02*
X236986500Y-90301500D01*
X236986500Y-90301500D02*
X225425000Y-78740000D01*
G04 #@! TO.N,Net-(U1-Pad3)*
X243840000Y-146050000D02*
X234339200Y-136549200D01*
X234339200Y-136549200D02*
X234339200Y-90194200D01*
X234339200Y-90194200D02*
X225425000Y-81280000D01*
G04 #@! TO.N,t4-2*
X60960000Y-85090000D02*
X60960000Y-82550000D01*
G04 #@! TO.N,SBT*
X47225000Y-30861000D02*
X45955000Y-32131000D01*
X45955000Y-32131000D02*
X45955000Y-36190000D01*
X45955000Y-36190000D02*
X41145000Y-41000000D01*
X41145000Y-41000000D02*
X41145000Y-82420000D01*
X41145000Y-82420000D02*
X42545000Y-83820000D01*
G04 #@! TO.N,RBT*
X52305000Y-30861000D02*
X51035000Y-32131000D01*
X51035000Y-32131000D02*
X51035000Y-72790000D01*
X51035000Y-72790000D02*
X42545000Y-81280000D01*
G04 #@! TO.N,IG18*
X56730500Y-37699700D02*
X56730500Y-103720500D01*
X56730500Y-103720500D02*
X91440000Y-138430000D01*
G04 #@! TO.N,IP18*
X54845000Y-30861000D02*
X53575000Y-32131000D01*
X53575000Y-32131000D02*
X53575000Y-131210000D01*
X53575000Y-131210000D02*
X42545000Y-142240000D01*
G04 #@! TO.N,IG17*
X57385000Y-33401000D02*
X65870900Y-41886900D01*
X65870900Y-41886900D02*
X65870900Y-110660700D01*
X65870900Y-110660700D02*
X92765700Y-137555500D01*
X92765700Y-137555500D02*
X92765700Y-142184300D01*
X92765700Y-142184300D02*
X91440000Y-143510000D01*
G04 #@! TO.N,IP17*
X57385000Y-30861000D02*
X56209700Y-32036300D01*
X56209700Y-32036300D02*
X56209700Y-37194800D01*
X56209700Y-37194800D02*
X56005200Y-37399300D01*
X56005200Y-37399300D02*
X56005200Y-131319800D01*
X56005200Y-131319800D02*
X42545000Y-144780000D01*
G04 #@! TO.N,IG16*
X91440000Y-148590000D02*
X93216100Y-146813900D01*
X93216100Y-146813900D02*
X93216100Y-134510800D01*
X93216100Y-134510800D02*
X71699600Y-112994300D01*
X71699600Y-112994300D02*
X71699600Y-45175600D01*
X71699600Y-45175600D02*
X59925000Y-33401000D01*
G04 #@! TO.N,IP13*
X103505000Y-81280000D02*
X91729600Y-69504600D01*
X91729600Y-69504600D02*
X91729600Y-33024500D01*
X91729600Y-33024500D02*
X90930700Y-32225600D01*
X90930700Y-32225600D02*
X90105300Y-32225600D01*
X90105300Y-32225600D02*
X89040300Y-31160600D01*
X89040300Y-31160600D02*
X89040300Y-30295000D01*
X89040300Y-30295000D02*
X87946900Y-29201600D01*
X87946900Y-29201600D02*
X79364400Y-29201600D01*
X79364400Y-29201600D02*
X77705000Y-30861000D01*
G04 #@! TO.N,IG12*
X80245000Y-33401000D02*
X79025800Y-32181800D01*
X79025800Y-32181800D02*
X79025800Y-30413800D01*
X79025800Y-30413800D02*
X79787600Y-29652000D01*
X79787600Y-29652000D02*
X85859200Y-29652000D01*
X85859200Y-29652000D02*
X86595000Y-30387800D01*
X86595000Y-30387800D02*
X86595000Y-31257400D01*
X86595000Y-31257400D02*
X87468600Y-32131000D01*
X87468600Y-32131000D02*
X88296000Y-32131000D01*
X88296000Y-32131000D02*
X89040400Y-32875400D01*
X89040400Y-32875400D02*
X89040400Y-94100000D01*
X89040400Y-94100000D02*
X133370400Y-138430000D01*
X133370400Y-138430000D02*
X152400000Y-138430000D01*
G04 #@! TO.N,IP12*
X80245000Y-30861000D02*
X81515000Y-32131000D01*
X81515000Y-32131000D02*
X81515000Y-120250000D01*
X81515000Y-120250000D02*
X103505000Y-142240000D01*
G04 #@! TO.N,IG11*
X88015000Y-38631000D02*
X88015000Y-93711500D01*
X88015000Y-93711500D02*
X137813500Y-143510000D01*
X137813500Y-143510000D02*
X152400000Y-143510000D01*
G04 #@! TO.N,IP11*
X103505000Y-144780000D02*
X104853100Y-143431900D01*
X104853100Y-143431900D02*
X104853100Y-139809400D01*
X104853100Y-139809400D02*
X83974700Y-118931000D01*
X83974700Y-118931000D02*
X83974700Y-32050700D01*
X83974700Y-32050700D02*
X82785000Y-30861000D01*
G04 #@! TO.N,IG10*
X87273200Y-35349200D02*
X87273200Y-93606600D01*
X87273200Y-93606600D02*
X142256600Y-148590000D01*
X142256600Y-148590000D02*
X152400000Y-148590000D01*
G04 #@! TO.N,IP10*
X85325000Y-30861000D02*
X86544800Y-32080800D01*
X86544800Y-32080800D02*
X86544800Y-118622400D01*
X86544800Y-118622400D02*
X105324900Y-137402500D01*
X105324900Y-137402500D02*
X105324900Y-145500100D01*
X105324900Y-145500100D02*
X103505000Y-147320000D01*
G04 #@! TO.N,IG9*
X92945000Y-33401000D02*
X94309600Y-32036400D01*
X94309600Y-32036400D02*
X96010600Y-32036400D01*
X96010600Y-32036400D02*
X96755000Y-31292000D01*
X96755000Y-31292000D02*
X96755000Y-30400900D01*
X96755000Y-30400900D02*
X99312300Y-27843600D01*
X99312300Y-27843600D02*
X120071200Y-27843600D01*
X120071200Y-27843600D02*
X126541600Y-34314000D01*
X126541600Y-34314000D02*
X162584000Y-34314000D01*
X162584000Y-34314000D02*
X213360000Y-85090000D01*
G04 #@! TO.N,IP7*
X98025000Y-30861000D02*
X99208200Y-29677800D01*
X99208200Y-29677800D02*
X106212800Y-29677800D01*
X106212800Y-29677800D02*
X106915000Y-30380000D01*
X106915000Y-30380000D02*
X106915000Y-31373600D01*
X106915000Y-31373600D02*
X107577800Y-32036400D01*
X107577800Y-32036400D02*
X111250600Y-32036400D01*
X111250600Y-32036400D02*
X111995000Y-31292000D01*
X111995000Y-31292000D02*
X111995000Y-30452800D01*
X111995000Y-30452800D02*
X113223500Y-29224300D01*
X113223500Y-29224300D02*
X119541100Y-29224300D01*
X119541100Y-29224300D02*
X121738600Y-31421800D01*
X121738600Y-31421800D02*
X121738600Y-35955400D01*
X121738600Y-35955400D02*
X121738700Y-35955400D01*
X121738700Y-35955400D02*
X121738700Y-38553700D01*
X121738700Y-38553700D02*
X164465000Y-81280000D01*
G04 #@! TO.N,IG6*
X213360000Y-143510000D02*
X160936800Y-91086800D01*
X160936800Y-91086800D02*
X153953200Y-91086800D01*
X153953200Y-91086800D02*
X119927400Y-57061000D01*
X119927400Y-57061000D02*
X119927400Y-52763400D01*
G04 #@! TO.N,IP6*
X100565000Y-30861000D02*
X101835000Y-32131000D01*
X101835000Y-32131000D02*
X101835000Y-73345300D01*
X101835000Y-73345300D02*
X104844900Y-76355200D01*
X104844900Y-76355200D02*
X104844900Y-100105200D01*
X104844900Y-100105200D02*
X101274200Y-103675900D01*
X101274200Y-103675900D02*
X101274200Y-105696900D01*
X101274200Y-105696900D02*
X102583000Y-107005700D01*
X102583000Y-107005700D02*
X126690700Y-107005700D01*
X126690700Y-107005700D02*
X164465000Y-144780000D01*
G04 #@! TO.N,IG5*
X130211300Y-51380800D02*
X130728800Y-51380800D01*
X130728800Y-51380800D02*
X161479000Y-82131000D01*
X161479000Y-82131000D02*
X161479000Y-86549100D01*
X161479000Y-86549100D02*
X161479100Y-86549100D01*
X161479100Y-86549100D02*
X213360000Y-138430000D01*
G04 #@! TO.N,IP5*
X103105000Y-30861000D02*
X104316300Y-32072300D01*
X104316300Y-32072300D02*
X104316300Y-73659800D01*
X104316300Y-73659800D02*
X105295300Y-74638800D01*
X105295300Y-74638800D02*
X105295300Y-100339000D01*
X105295300Y-100339000D02*
X101724500Y-103909800D01*
X101724500Y-103909800D02*
X101724500Y-105510300D01*
X101724500Y-105510300D02*
X102769600Y-106555400D01*
X102769600Y-106555400D02*
X128780400Y-106555400D01*
X128780400Y-106555400D02*
X164465000Y-142240000D01*
G04 #@! TO.N,IG4*
X119197200Y-50093800D02*
X119197200Y-56967700D01*
X119197200Y-56967700D02*
X164337100Y-102107600D01*
X164337100Y-102107600D02*
X168760500Y-102107600D01*
X168760500Y-102107600D02*
X210627900Y-143975000D01*
X210627900Y-143975000D02*
X210627900Y-145857900D01*
X210627900Y-145857900D02*
X213360000Y-148590000D01*
G04 #@! TO.N,IP4*
X105645000Y-30861000D02*
X106848100Y-32064100D01*
X106848100Y-32064100D02*
X106848100Y-99461600D01*
X106848100Y-99461600D02*
X102174800Y-104134900D01*
X102174800Y-104134900D02*
X102174800Y-105323700D01*
X102174800Y-105323700D02*
X102951500Y-106100400D01*
X102951500Y-106100400D02*
X130204400Y-106100400D01*
X130204400Y-106100400D02*
X165843200Y-141739200D01*
X165843200Y-141739200D02*
X165843200Y-145941800D01*
X165843200Y-145941800D02*
X164465000Y-147320000D01*
G04 #@! TO.N,IP3*
X225425000Y-142240000D02*
X192571500Y-109386500D01*
X192571500Y-109386500D02*
X192571500Y-100980900D01*
X192571500Y-100980900D02*
X119914300Y-28323700D01*
X119914300Y-28323700D02*
X110722300Y-28323700D01*
X110722300Y-28323700D02*
X108185000Y-30861000D01*
G04 #@! TO.N,IP2*
X225425000Y-144780000D02*
X192121000Y-111476000D01*
X192121000Y-111476000D02*
X192121000Y-101167300D01*
X192121000Y-101167300D02*
X119727700Y-28774000D01*
X119727700Y-28774000D02*
X112812000Y-28774000D01*
X112812000Y-28774000D02*
X110725000Y-30861000D01*
G04 #@! TO.N,IP1*
X113265000Y-30861000D02*
X114440400Y-29685600D01*
X114440400Y-29685600D02*
X119365500Y-29685600D01*
X119365500Y-29685600D02*
X120470400Y-30790500D01*
X120470400Y-30790500D02*
X120470400Y-37922300D01*
X120470400Y-37922300D02*
X162856700Y-80308600D01*
X162856700Y-80308600D02*
X162856700Y-84751700D01*
X162856700Y-84751700D02*
X225425000Y-147320000D01*
G04 #@! TD*
M02*
