G04 #@! TF.GenerationSoftware,KiCad,Pcbnew,(5.0.0)*
G04 #@! TF.CreationDate,2019-11-08T18:39:11+00:00*
G04 #@! TF.ProjectId,A-FO,412D464F2E6B696361645F7063620000,rev?*
G04 #@! TF.SameCoordinates,Original*
G04 #@! TF.FileFunction,Copper,L1,Top,Signal*
G04 #@! TF.FilePolarity,Positive*
%FSLAX46Y46*%
G04 Gerber Fmt 4.6, Leading zero omitted, Abs format (unit mm)*
G04 Created by KiCad (PCBNEW (5.0.0)) date 11/08/19 18:39:11*
%MOMM*%
%LPD*%
G01*
G04 APERTURE LIST*
G04 #@! TA.AperFunction,ComponentPad*
%ADD10C,2.000000*%
G04 #@! TD*
G04 #@! TA.AperFunction,ComponentPad*
%ADD11C,1.600000*%
G04 #@! TD*
G04 #@! TA.AperFunction,ComponentPad*
%ADD12R,1.600000X1.600000*%
G04 #@! TD*
G04 #@! TA.AperFunction,ComponentPad*
%ADD13C,1.700000*%
G04 #@! TD*
G04 #@! TA.AperFunction,ComponentPad*
%ADD14R,1.700000X1.700000*%
G04 #@! TD*
G04 #@! TA.AperFunction,ViaPad*
%ADD15C,0.800000*%
G04 #@! TD*
G04 #@! TA.AperFunction,Conductor*
%ADD16C,0.500000*%
G04 #@! TD*
G04 #@! TA.AperFunction,Conductor*
%ADD17C,0.250000*%
G04 #@! TD*
G04 APERTURE END LIST*
D10*
G04 #@! TO.P,U4,13*
G04 #@! TO.N,Net-(U4-Pad13)*
X133985000Y-142240000D03*
G04 #@! TO.P,U4,12*
G04 #@! TO.N,Net-(U4-Pad12)*
X133985000Y-144780000D03*
G04 #@! TO.P,U4,11*
G04 #@! TO.N,Net-(U4-Pad11)*
X133985000Y-147320000D03*
G04 #@! TO.P,U4,6*
G04 #@! TO.N,IG12*
X152400000Y-138430000D03*
G04 #@! TO.P,U4,5*
G04 #@! TO.N,N/C*
X152400000Y-140970000D03*
G04 #@! TO.P,U4,4*
G04 #@! TO.N,IG11*
X152400000Y-143510000D03*
G04 #@! TO.P,U4,3*
G04 #@! TO.N,N/C*
X152400000Y-146050000D03*
G04 #@! TO.P,U4,2*
G04 #@! TO.N,IG10*
X152400000Y-148590000D03*
G04 #@! TO.P,U4,1*
G04 #@! TO.N,N/C*
X152400000Y-151130000D03*
G04 #@! TO.P,U4,23*
G04 #@! TO.N,Neg6v*
X139065000Y-168275000D03*
G04 #@! TO.P,U4,22*
G04 #@! TO.N,GND*
X136525000Y-168275000D03*
G04 #@! TO.P,U4,21*
G04 #@! TO.N,6v*
X133985000Y-168275000D03*
G04 #@! TD*
G04 #@! TO.P,U8,13*
G04 #@! TO.N,Net-(U1-Pad5)*
X225425000Y-78740000D03*
G04 #@! TO.P,U8,12*
G04 #@! TO.N,Net-(U1-Pad3)*
X225425000Y-81280000D03*
G04 #@! TO.P,U8,11*
G04 #@! TO.N,Net-(U1-Pad1)*
X225425000Y-83820000D03*
G04 #@! TO.P,U8,6*
G04 #@! TO.N,IG3*
X243840000Y-74930000D03*
G04 #@! TO.P,U8,5*
G04 #@! TO.N,N/C*
X243840000Y-77470000D03*
G04 #@! TO.P,U8,4*
G04 #@! TO.N,IG2*
X243840000Y-80010000D03*
G04 #@! TO.P,U8,3*
G04 #@! TO.N,N/C*
X243840000Y-82550000D03*
G04 #@! TO.P,U8,2*
G04 #@! TO.N,IG1*
X243840000Y-85090000D03*
G04 #@! TO.P,U8,1*
G04 #@! TO.N,N/C*
X243840000Y-87630000D03*
G04 #@! TO.P,U8,23*
G04 #@! TO.N,Neg6v*
X230505000Y-104775000D03*
G04 #@! TO.P,U8,22*
G04 #@! TO.N,GND*
X227965000Y-104775000D03*
G04 #@! TO.P,U8,21*
G04 #@! TO.N,6v*
X225425000Y-104775000D03*
G04 #@! TD*
G04 #@! TO.P,U1,13*
G04 #@! TO.N,IP3*
X225425000Y-142240000D03*
G04 #@! TO.P,U1,12*
G04 #@! TO.N,IP2*
X225425000Y-144780000D03*
G04 #@! TO.P,U1,11*
G04 #@! TO.N,IP1*
X225425000Y-147320000D03*
G04 #@! TO.P,U1,6*
G04 #@! TO.N,N/C*
X243840000Y-138430000D03*
G04 #@! TO.P,U1,5*
G04 #@! TO.N,Net-(U1-Pad5)*
X243840000Y-140970000D03*
G04 #@! TO.P,U1,4*
G04 #@! TO.N,N/C*
X243840000Y-143510000D03*
G04 #@! TO.P,U1,3*
G04 #@! TO.N,Net-(U1-Pad3)*
X243840000Y-146050000D03*
G04 #@! TO.P,U1,2*
G04 #@! TO.N,N/C*
X243840000Y-148590000D03*
G04 #@! TO.P,U1,1*
G04 #@! TO.N,Net-(U1-Pad1)*
X243840000Y-151130000D03*
G04 #@! TO.P,U1,23*
G04 #@! TO.N,Neg6v*
X230505000Y-168275000D03*
G04 #@! TO.P,U1,22*
G04 #@! TO.N,GND*
X227965000Y-168275000D03*
G04 #@! TO.P,U1,21*
G04 #@! TO.N,6v*
X225425000Y-168275000D03*
G04 #@! TD*
G04 #@! TO.P,U12,13*
G04 #@! TO.N,IP14*
X103505000Y-78740000D03*
G04 #@! TO.P,U12,12*
G04 #@! TO.N,IP13*
X103505000Y-81280000D03*
G04 #@! TO.P,U12,11*
G04 #@! TO.N,IP15*
X103505000Y-83820000D03*
G04 #@! TO.P,U12,6*
G04 #@! TO.N,N/C*
X121920000Y-74930000D03*
G04 #@! TO.P,U12,5*
G04 #@! TO.N,Net-(U11-Pad13)*
X121920000Y-77470000D03*
G04 #@! TO.P,U12,4*
G04 #@! TO.N,N/C*
X121920000Y-80010000D03*
G04 #@! TO.P,U12,3*
G04 #@! TO.N,Net-(U11-Pad12)*
X121920000Y-82550000D03*
G04 #@! TO.P,U12,2*
G04 #@! TO.N,N/C*
X121920000Y-85090000D03*
G04 #@! TO.P,U12,1*
G04 #@! TO.N,Net-(U11-Pad11)*
X121920000Y-87630000D03*
G04 #@! TO.P,U12,23*
G04 #@! TO.N,Neg6v*
X108585000Y-104775000D03*
G04 #@! TO.P,U12,22*
G04 #@! TO.N,GND*
X106045000Y-104775000D03*
G04 #@! TO.P,U12,21*
G04 #@! TO.N,6v*
X103505000Y-104775000D03*
G04 #@! TD*
G04 #@! TO.P,U11,13*
G04 #@! TO.N,Net-(U11-Pad13)*
X133985000Y-78740000D03*
G04 #@! TO.P,U11,12*
G04 #@! TO.N,Net-(U11-Pad12)*
X133985000Y-81280000D03*
G04 #@! TO.P,U11,11*
G04 #@! TO.N,Net-(U11-Pad11)*
X133985000Y-83820000D03*
G04 #@! TO.P,U11,6*
G04 #@! TO.N,IG14*
X152400000Y-74930000D03*
G04 #@! TO.P,U11,5*
G04 #@! TO.N,N/C*
X152400000Y-77470000D03*
G04 #@! TO.P,U11,4*
G04 #@! TO.N,IG13*
X152400000Y-80010000D03*
G04 #@! TO.P,U11,3*
G04 #@! TO.N,N/C*
X152400000Y-82550000D03*
G04 #@! TO.P,U11,2*
G04 #@! TO.N,IG15*
X152400000Y-85090000D03*
G04 #@! TO.P,U11,1*
G04 #@! TO.N,N/C*
X152400000Y-87630000D03*
G04 #@! TO.P,U11,23*
G04 #@! TO.N,Neg6v*
X139065000Y-104775000D03*
G04 #@! TO.P,U11,22*
G04 #@! TO.N,GND*
X136525000Y-104775000D03*
G04 #@! TO.P,U11,21*
G04 #@! TO.N,6v*
X133985000Y-104775000D03*
G04 #@! TD*
G04 #@! TO.P,U14,13*
G04 #@! TO.N,N/C*
X42545000Y-78740000D03*
G04 #@! TO.P,U14,12*
G04 #@! TO.N,RBT*
X42545000Y-81280000D03*
G04 #@! TO.P,U14,11*
G04 #@! TO.N,SBT*
X42545000Y-83820000D03*
G04 #@! TO.P,U14,6*
G04 #@! TO.N,N/C*
X60960000Y-74930000D03*
G04 #@! TO.P,U14,5*
X60960000Y-77470000D03*
G04 #@! TO.P,U14,4*
G04 #@! TO.N,Net-(U13-Pad12)*
X60960000Y-80010000D03*
G04 #@! TO.P,U14,3*
G04 #@! TO.N,t4-2*
X60960000Y-82550000D03*
G04 #@! TO.P,U14,2*
X60960000Y-85090000D03*
G04 #@! TO.P,U14,1*
G04 #@! TO.N,Net-(U13-Pad11)*
X60960000Y-87630000D03*
G04 #@! TO.P,U14,23*
G04 #@! TO.N,Neg6v*
X47625000Y-104775000D03*
G04 #@! TO.P,U14,22*
G04 #@! TO.N,GND*
X45085000Y-104775000D03*
G04 #@! TO.P,U14,21*
G04 #@! TO.N,6v*
X42545000Y-104775000D03*
G04 #@! TD*
G04 #@! TO.P,U13,13*
G04 #@! TO.N,N/C*
X73025000Y-78740000D03*
G04 #@! TO.P,U13,12*
G04 #@! TO.N,Net-(U13-Pad12)*
X73025000Y-81280000D03*
G04 #@! TO.P,U13,11*
G04 #@! TO.N,Net-(U13-Pad11)*
X73025000Y-83820000D03*
G04 #@! TO.P,U13,6*
G04 #@! TO.N,N/C*
X91440000Y-74930000D03*
G04 #@! TO.P,U13,5*
X91440000Y-77470000D03*
G04 #@! TO.P,U13,4*
G04 #@! TO.N,RBTm*
X91440000Y-80010000D03*
G04 #@! TO.P,U13,3*
G04 #@! TO.N,N/C*
X91440000Y-82550000D03*
G04 #@! TO.P,U13,2*
G04 #@! TO.N,SBTm*
X91440000Y-85090000D03*
G04 #@! TO.P,U13,1*
G04 #@! TO.N,N/C*
X91440000Y-87630000D03*
G04 #@! TO.P,U13,23*
G04 #@! TO.N,Neg6v*
X78105000Y-104775000D03*
G04 #@! TO.P,U13,22*
G04 #@! TO.N,GND*
X75565000Y-104775000D03*
G04 #@! TO.P,U13,21*
G04 #@! TO.N,6v*
X73025000Y-104775000D03*
G04 #@! TD*
G04 #@! TO.P,U2,13*
G04 #@! TO.N,Net-(U2-Pad13)*
X194945000Y-142240000D03*
G04 #@! TO.P,U2,12*
G04 #@! TO.N,Net-(U2-Pad12)*
X194945000Y-144780000D03*
G04 #@! TO.P,U2,11*
G04 #@! TO.N,Net-(U2-Pad11)*
X194945000Y-147320000D03*
G04 #@! TO.P,U2,6*
G04 #@! TO.N,IG5*
X213360000Y-138430000D03*
G04 #@! TO.P,U2,5*
G04 #@! TO.N,N/C*
X213360000Y-140970000D03*
G04 #@! TO.P,U2,4*
G04 #@! TO.N,IG6*
X213360000Y-143510000D03*
G04 #@! TO.P,U2,3*
G04 #@! TO.N,N/C*
X213360000Y-146050000D03*
G04 #@! TO.P,U2,2*
G04 #@! TO.N,IG4*
X213360000Y-148590000D03*
G04 #@! TO.P,U2,1*
G04 #@! TO.N,N/C*
X213360000Y-151130000D03*
G04 #@! TO.P,U2,23*
G04 #@! TO.N,Neg6v*
X200025000Y-168275000D03*
G04 #@! TO.P,U2,22*
G04 #@! TO.N,GND*
X197485000Y-168275000D03*
G04 #@! TO.P,U2,21*
G04 #@! TO.N,6v*
X194945000Y-168275000D03*
G04 #@! TD*
G04 #@! TO.P,U3,13*
G04 #@! TO.N,IP5*
X164465000Y-142240000D03*
G04 #@! TO.P,U3,12*
G04 #@! TO.N,IP6*
X164465000Y-144780000D03*
G04 #@! TO.P,U3,11*
G04 #@! TO.N,IP4*
X164465000Y-147320000D03*
G04 #@! TO.P,U3,6*
G04 #@! TO.N,N/C*
X182880000Y-138430000D03*
G04 #@! TO.P,U3,5*
G04 #@! TO.N,Net-(U2-Pad13)*
X182880000Y-140970000D03*
G04 #@! TO.P,U3,4*
G04 #@! TO.N,N/C*
X182880000Y-143510000D03*
G04 #@! TO.P,U3,3*
G04 #@! TO.N,Net-(U2-Pad12)*
X182880000Y-146050000D03*
G04 #@! TO.P,U3,2*
G04 #@! TO.N,N/C*
X182880000Y-148590000D03*
G04 #@! TO.P,U3,1*
G04 #@! TO.N,Net-(U2-Pad11)*
X182880000Y-151130000D03*
G04 #@! TO.P,U3,23*
G04 #@! TO.N,Neg6v*
X169545000Y-168275000D03*
G04 #@! TO.P,U3,22*
G04 #@! TO.N,GND*
X167005000Y-168275000D03*
G04 #@! TO.P,U3,21*
G04 #@! TO.N,6v*
X164465000Y-168275000D03*
G04 #@! TD*
G04 #@! TO.P,U9,13*
G04 #@! TO.N,Net-(U10-Pad5)*
X194945000Y-78740000D03*
G04 #@! TO.P,U9,12*
G04 #@! TO.N,Net-(U10-Pad3)*
X194945000Y-81280000D03*
G04 #@! TO.P,U9,11*
G04 #@! TO.N,Net-(U10-Pad1)*
X194945000Y-83820000D03*
G04 #@! TO.P,U9,6*
G04 #@! TO.N,IG8*
X213360000Y-74930000D03*
G04 #@! TO.P,U9,5*
G04 #@! TO.N,N/C*
X213360000Y-77470000D03*
G04 #@! TO.P,U9,4*
G04 #@! TO.N,IG7*
X213360000Y-80010000D03*
G04 #@! TO.P,U9,3*
G04 #@! TO.N,N/C*
X213360000Y-82550000D03*
G04 #@! TO.P,U9,2*
G04 #@! TO.N,IG9*
X213360000Y-85090000D03*
G04 #@! TO.P,U9,1*
G04 #@! TO.N,N/C*
X213360000Y-87630000D03*
G04 #@! TO.P,U9,23*
G04 #@! TO.N,Neg6v*
X200025000Y-104775000D03*
G04 #@! TO.P,U9,22*
G04 #@! TO.N,GND*
X197485000Y-104775000D03*
G04 #@! TO.P,U9,21*
G04 #@! TO.N,6v*
X194945000Y-104775000D03*
G04 #@! TD*
G04 #@! TO.P,U10,13*
G04 #@! TO.N,IP8*
X164465000Y-78740000D03*
G04 #@! TO.P,U10,12*
G04 #@! TO.N,IP7*
X164465000Y-81280000D03*
G04 #@! TO.P,U10,11*
G04 #@! TO.N,IP9*
X164465000Y-83820000D03*
G04 #@! TO.P,U10,6*
G04 #@! TO.N,N/C*
X182880000Y-74930000D03*
G04 #@! TO.P,U10,5*
G04 #@! TO.N,Net-(U10-Pad5)*
X182880000Y-77470000D03*
G04 #@! TO.P,U10,4*
G04 #@! TO.N,N/C*
X182880000Y-80010000D03*
G04 #@! TO.P,U10,3*
G04 #@! TO.N,Net-(U10-Pad3)*
X182880000Y-82550000D03*
G04 #@! TO.P,U10,2*
G04 #@! TO.N,N/C*
X182880000Y-85090000D03*
G04 #@! TO.P,U10,1*
G04 #@! TO.N,Net-(U10-Pad1)*
X182880000Y-87630000D03*
G04 #@! TO.P,U10,23*
G04 #@! TO.N,Neg6v*
X169545000Y-104775000D03*
G04 #@! TO.P,U10,22*
G04 #@! TO.N,GND*
X167005000Y-104775000D03*
G04 #@! TO.P,U10,21*
G04 #@! TO.N,6v*
X164465000Y-104775000D03*
G04 #@! TD*
G04 #@! TO.P,U5,13*
G04 #@! TO.N,IP12*
X103505000Y-142240000D03*
G04 #@! TO.P,U5,12*
G04 #@! TO.N,IP11*
X103505000Y-144780000D03*
G04 #@! TO.P,U5,11*
G04 #@! TO.N,IP10*
X103505000Y-147320000D03*
G04 #@! TO.P,U5,6*
G04 #@! TO.N,N/C*
X121920000Y-138430000D03*
G04 #@! TO.P,U5,5*
G04 #@! TO.N,Net-(U4-Pad13)*
X121920000Y-140970000D03*
G04 #@! TO.P,U5,4*
G04 #@! TO.N,N/C*
X121920000Y-143510000D03*
G04 #@! TO.P,U5,3*
G04 #@! TO.N,Net-(U4-Pad12)*
X121920000Y-146050000D03*
G04 #@! TO.P,U5,2*
G04 #@! TO.N,N/C*
X121920000Y-148590000D03*
G04 #@! TO.P,U5,1*
G04 #@! TO.N,Net-(U4-Pad11)*
X121920000Y-151130000D03*
G04 #@! TO.P,U5,23*
G04 #@! TO.N,Neg6v*
X108585000Y-168275000D03*
G04 #@! TO.P,U5,22*
G04 #@! TO.N,GND*
X106045000Y-168275000D03*
G04 #@! TO.P,U5,21*
G04 #@! TO.N,6v*
X103505000Y-168275000D03*
G04 #@! TD*
G04 #@! TO.P,U6,13*
G04 #@! TO.N,Net-(U6-Pad13)*
X73025000Y-142240000D03*
G04 #@! TO.P,U6,12*
G04 #@! TO.N,Net-(U6-Pad12)*
X73025000Y-144780000D03*
G04 #@! TO.P,U6,11*
G04 #@! TO.N,Net-(U6-Pad11)*
X73025000Y-147320000D03*
G04 #@! TO.P,U6,6*
G04 #@! TO.N,IG18*
X91440000Y-138430000D03*
G04 #@! TO.P,U6,5*
G04 #@! TO.N,N/C*
X91440000Y-140970000D03*
G04 #@! TO.P,U6,4*
G04 #@! TO.N,IG17*
X91440000Y-143510000D03*
G04 #@! TO.P,U6,3*
G04 #@! TO.N,N/C*
X91440000Y-146050000D03*
G04 #@! TO.P,U6,2*
G04 #@! TO.N,IG16*
X91440000Y-148590000D03*
G04 #@! TO.P,U6,1*
G04 #@! TO.N,N/C*
X91440000Y-151130000D03*
G04 #@! TO.P,U6,23*
G04 #@! TO.N,Neg6v*
X78105000Y-168275000D03*
G04 #@! TO.P,U6,22*
G04 #@! TO.N,GND*
X75565000Y-168275000D03*
G04 #@! TO.P,U6,21*
G04 #@! TO.N,6v*
X73025000Y-168275000D03*
G04 #@! TD*
G04 #@! TO.P,U7,13*
G04 #@! TO.N,IP18*
X42545000Y-142240000D03*
G04 #@! TO.P,U7,12*
G04 #@! TO.N,IP17*
X42545000Y-144780000D03*
G04 #@! TO.P,U7,11*
G04 #@! TO.N,IP16*
X42545000Y-147320000D03*
G04 #@! TO.P,U7,6*
G04 #@! TO.N,N/C*
X60960000Y-138430000D03*
G04 #@! TO.P,U7,5*
G04 #@! TO.N,Net-(U6-Pad13)*
X60960000Y-140970000D03*
G04 #@! TO.P,U7,4*
G04 #@! TO.N,N/C*
X60960000Y-143510000D03*
G04 #@! TO.P,U7,3*
G04 #@! TO.N,Net-(U6-Pad12)*
X60960000Y-146050000D03*
G04 #@! TO.P,U7,2*
G04 #@! TO.N,N/C*
X60960000Y-148590000D03*
G04 #@! TO.P,U7,1*
G04 #@! TO.N,Net-(U6-Pad11)*
X60960000Y-151130000D03*
G04 #@! TO.P,U7,23*
G04 #@! TO.N,Neg6v*
X47625000Y-168275000D03*
G04 #@! TO.P,U7,22*
G04 #@! TO.N,GND*
X45085000Y-168275000D03*
G04 #@! TO.P,U7,21*
G04 #@! TO.N,6v*
X42545000Y-168275000D03*
G04 #@! TD*
D11*
G04 #@! TO.P,C1,2*
G04 #@! TO.N,Neg6v*
X146900000Y-37000000D03*
D12*
G04 #@! TO.P,C1,1*
G04 #@! TO.N,GND*
X144400000Y-37000000D03*
G04 #@! TD*
D11*
G04 #@! TO.P,C2,2*
G04 #@! TO.N,GND*
X33300000Y-39800000D03*
D12*
G04 #@! TO.P,C2,1*
G04 #@! TO.N,6v*
X30800000Y-39800000D03*
G04 #@! TD*
D13*
G04 #@! TO.P,J1,AL*
G04 #@! TO.N,GND*
X39605000Y-33401000D03*
G04 #@! TO.P,J1,32*
X39605000Y-30861000D03*
G04 #@! TO.P,J1,AK*
G04 #@! TO.N,Neg6v*
X42145000Y-33401000D03*
G04 #@! TO.P,J1,31*
X42145000Y-30861000D03*
G04 #@! TO.P,J1,AJ*
G04 #@! TO.N,t4-2*
X44685000Y-33401000D03*
G04 #@! TO.P,J1,30*
G04 #@! TO.N,N/C*
X44685000Y-30861000D03*
G04 #@! TO.P,J1,AH*
G04 #@! TO.N,SBTm*
X47225000Y-33401000D03*
G04 #@! TO.P,J1,29*
G04 #@! TO.N,SBT*
X47225000Y-30861000D03*
G04 #@! TO.P,J1,AF*
G04 #@! TO.N,N/C*
X49765000Y-33401000D03*
G04 #@! TO.P,J1,28*
X49765000Y-30861000D03*
G04 #@! TO.P,J1,AE*
G04 #@! TO.N,RBTm*
X52305000Y-33401000D03*
G04 #@! TO.P,J1,27*
G04 #@! TO.N,RBT*
X52305000Y-30861000D03*
G04 #@! TO.P,J1,AD*
G04 #@! TO.N,IG18*
X54845000Y-33401000D03*
G04 #@! TO.P,J1,26*
G04 #@! TO.N,IP18*
X54845000Y-30861000D03*
G04 #@! TO.P,J1,AC*
G04 #@! TO.N,IG17*
X57385000Y-33401000D03*
G04 #@! TO.P,J1,25*
G04 #@! TO.N,IP17*
X57385000Y-30861000D03*
G04 #@! TO.P,J1,AB*
G04 #@! TO.N,IG16*
X59925000Y-33401000D03*
G04 #@! TO.P,J1,24*
G04 #@! TO.N,IP16*
X59925000Y-30861000D03*
G04 #@! TO.P,J1,AA*
G04 #@! TO.N,N/C*
X62465000Y-33401000D03*
G04 #@! TO.P,J1,23*
X62465000Y-30861000D03*
G04 #@! TO.P,J1,Z*
X65005000Y-33401000D03*
G04 #@! TO.P,J1,22*
X65005000Y-30861000D03*
G04 #@! TO.P,J1,Y*
X67545000Y-33401000D03*
G04 #@! TO.P,J1,21*
X67545000Y-30861000D03*
G04 #@! TO.P,J1,X*
X70085000Y-33401000D03*
G04 #@! TO.P,J1,20*
X70085000Y-30861000D03*
G04 #@! TO.P,J1,W*
G04 #@! TO.N,IG15*
X72625000Y-33401000D03*
G04 #@! TO.P,J1,19*
G04 #@! TO.N,IP15*
X72625000Y-30861000D03*
G04 #@! TO.P,J1,V*
G04 #@! TO.N,IG14*
X75165000Y-33401000D03*
G04 #@! TO.P,J1,18*
G04 #@! TO.N,IP14*
X75165000Y-30861000D03*
G04 #@! TO.P,J1,U*
G04 #@! TO.N,IG13*
X77705000Y-33401000D03*
G04 #@! TO.P,J1,17*
G04 #@! TO.N,IP13*
X77705000Y-30861000D03*
G04 #@! TO.P,J1,T*
G04 #@! TO.N,IG12*
X80245000Y-33401000D03*
G04 #@! TO.P,J1,16*
G04 #@! TO.N,IP12*
X80245000Y-30861000D03*
G04 #@! TO.P,J1,S*
G04 #@! TO.N,IG11*
X82785000Y-33401000D03*
G04 #@! TO.P,J1,15*
G04 #@! TO.N,IP11*
X82785000Y-30861000D03*
G04 #@! TO.P,J1,R*
G04 #@! TO.N,IG10*
X85325000Y-33401000D03*
G04 #@! TO.P,J1,14*
G04 #@! TO.N,IP10*
X85325000Y-30861000D03*
G04 #@! TO.P,J1,P*
G04 #@! TO.N,N/C*
X87865000Y-33401000D03*
G04 #@! TO.P,J1,13*
X87865000Y-30861000D03*
G04 #@! TO.P,J1,N*
X90405000Y-33401000D03*
G04 #@! TO.P,J1,12*
X90405000Y-30861000D03*
G04 #@! TO.P,J1,M*
G04 #@! TO.N,IG9*
X92945000Y-33401000D03*
G04 #@! TO.P,J1,11*
G04 #@! TO.N,IP9*
X92945000Y-30861000D03*
G04 #@! TO.P,J1,L*
G04 #@! TO.N,IG8*
X95485000Y-33401000D03*
G04 #@! TO.P,J1,10*
G04 #@! TO.N,IP8*
X95485000Y-30861000D03*
G04 #@! TO.P,J1,K*
G04 #@! TO.N,IG7*
X98025000Y-33401000D03*
G04 #@! TO.P,J1,9*
G04 #@! TO.N,IP7*
X98025000Y-30861000D03*
G04 #@! TO.P,J1,J*
G04 #@! TO.N,IG6*
X100565000Y-33401000D03*
G04 #@! TO.P,J1,8*
G04 #@! TO.N,IP6*
X100565000Y-30861000D03*
G04 #@! TO.P,J1,H*
G04 #@! TO.N,IG5*
X103105000Y-33401000D03*
G04 #@! TO.P,J1,7*
G04 #@! TO.N,IP5*
X103105000Y-30861000D03*
G04 #@! TO.P,J1,F*
G04 #@! TO.N,IG4*
X105645000Y-33401000D03*
G04 #@! TO.P,J1,6*
G04 #@! TO.N,IP4*
X105645000Y-30861000D03*
G04 #@! TO.P,J1,E*
G04 #@! TO.N,IG3*
X108185000Y-33401000D03*
G04 #@! TO.P,J1,5*
G04 #@! TO.N,IP3*
X108185000Y-30861000D03*
G04 #@! TO.P,J1,D*
G04 #@! TO.N,IG2*
X110725000Y-33401000D03*
G04 #@! TO.P,J1,4*
G04 #@! TO.N,IP2*
X110725000Y-30861000D03*
G04 #@! TO.P,J1,C*
G04 #@! TO.N,IG1*
X113265000Y-33401000D03*
G04 #@! TO.P,J1,3*
G04 #@! TO.N,IP1*
X113265000Y-30861000D03*
G04 #@! TO.P,J1,B*
G04 #@! TO.N,6v*
X115805000Y-33401000D03*
G04 #@! TO.P,J1,2*
X115805000Y-30861000D03*
G04 #@! TO.P,J1,A*
G04 #@! TO.N,GND*
X118345000Y-33401000D03*
D14*
G04 #@! TO.P,J1,1*
X118345000Y-30861000D03*
G04 #@! TD*
D15*
G04 #@! TO.N,IG18*
X56730500Y-37699700D03*
G04 #@! TO.N,IG11*
X88015000Y-38631000D03*
G04 #@! TO.N,IG10*
X87273200Y-35349200D03*
G04 #@! TO.N,IG6*
X119927400Y-52763400D03*
G04 #@! TO.N,IG5*
X130211300Y-51380800D03*
G04 #@! TO.N,IG4*
X119197200Y-50093800D03*
G04 #@! TD*
D16*
G04 #@! TO.N,6v*
X103505000Y-168275000D02*
X102054600Y-169725400D01*
X102054600Y-169725400D02*
X74475400Y-169725400D01*
X74475400Y-169725400D02*
X73025000Y-168275000D01*
X42545000Y-168275000D02*
X43995400Y-169725400D01*
X43995400Y-169725400D02*
X71574600Y-169725400D01*
X71574600Y-169725400D02*
X73025000Y-168275000D01*
X133985000Y-168275000D02*
X132534600Y-169725400D01*
X132534600Y-169725400D02*
X104955400Y-169725400D01*
X104955400Y-169725400D02*
X103505000Y-168275000D01*
X164465000Y-104775000D02*
X165915400Y-103324600D01*
X165915400Y-103324600D02*
X193494600Y-103324600D01*
X193494600Y-103324600D02*
X194945000Y-104775000D01*
X194945000Y-168275000D02*
X193494000Y-169726000D01*
X193494000Y-169726000D02*
X165916000Y-169726000D01*
X165916000Y-169726000D02*
X164465000Y-168275000D01*
X164465000Y-168275000D02*
X163014600Y-169725400D01*
X163014600Y-169725400D02*
X135435400Y-169725400D01*
X135435400Y-169725400D02*
X133985000Y-168275000D01*
X194945000Y-168275000D02*
X196397900Y-169727900D01*
X196397900Y-169727900D02*
X223972100Y-169727900D01*
X223972100Y-169727900D02*
X225425000Y-168275000D01*
X225425000Y-104775000D02*
X223971300Y-103321300D01*
X223971300Y-103321300D02*
X196398700Y-103321300D01*
X196398700Y-103321300D02*
X194945000Y-104775000D01*
X42545000Y-104775000D02*
X44020000Y-106250000D01*
X44020000Y-106250000D02*
X71550000Y-106250000D01*
X71550000Y-106250000D02*
X73025000Y-104775000D01*
G04 #@! TO.N,Neg6v*
X139065000Y-168275000D02*
X137613400Y-166823400D01*
X137613400Y-166823400D02*
X110036600Y-166823400D01*
X110036600Y-166823400D02*
X108585000Y-168275000D01*
X108585000Y-104775000D02*
X110035400Y-103324600D01*
X110035400Y-103324600D02*
X137614600Y-103324600D01*
X137614600Y-103324600D02*
X139065000Y-104775000D01*
X78105000Y-104775000D02*
X79574100Y-103305900D01*
X79574100Y-103305900D02*
X107115900Y-103305900D01*
X107115900Y-103305900D02*
X108585000Y-104775000D01*
X229006500Y-106238300D02*
X229041700Y-106238300D01*
X229041700Y-106238300D02*
X230505000Y-104775000D01*
X200025000Y-104775000D02*
X201488300Y-106238300D01*
X201488300Y-106238300D02*
X229006500Y-106238300D01*
X229006500Y-106238300D02*
X229006500Y-166776500D01*
X229006500Y-166776500D02*
X201523500Y-166776500D01*
X201523500Y-166776500D02*
X200025000Y-168275000D01*
X230505000Y-168275000D02*
X229006500Y-166776500D01*
X49076600Y-103323400D02*
X47625000Y-104775000D01*
X78105000Y-104775000D02*
X76653400Y-103323400D01*
X76653400Y-103323400D02*
X49076600Y-103323400D01*
X42145000Y-33401000D02*
X49076600Y-40332600D01*
X49076600Y-40332600D02*
X49076600Y-103323400D01*
G04 #@! TO.N,GND*
X106045000Y-168275000D02*
X104574800Y-166804800D01*
X104574800Y-166804800D02*
X77035200Y-166804800D01*
X77035200Y-166804800D02*
X75565000Y-168275000D01*
X144400000Y-37000000D02*
X143149700Y-37000000D01*
X118345000Y-33401000D02*
X139550700Y-33401000D01*
X139550700Y-33401000D02*
X143149700Y-37000000D01*
X41921400Y-103273300D02*
X43583300Y-103273300D01*
X43583300Y-103273300D02*
X45085000Y-104775000D01*
X46821300Y-111707200D02*
X41085400Y-105971300D01*
X41085400Y-105971300D02*
X41085400Y-104109300D01*
X41085400Y-104109300D02*
X41921400Y-103273300D01*
X33300000Y-39800000D02*
X33300000Y-94651900D01*
X33300000Y-94651900D02*
X41921400Y-103273300D01*
X46821300Y-111707200D02*
X68632800Y-111707200D01*
X68632800Y-111707200D02*
X75565000Y-104775000D01*
X46821300Y-166824600D02*
X46821300Y-111707200D01*
X46821300Y-166824600D02*
X74114600Y-166824600D01*
X74114600Y-166824600D02*
X75565000Y-168275000D01*
X45085000Y-168275000D02*
X46535400Y-166824600D01*
X46535400Y-166824600D02*
X46821300Y-166824600D01*
X136525000Y-104775000D02*
X137980500Y-106230500D01*
X137980500Y-106230500D02*
X165549500Y-106230500D01*
X165549500Y-106230500D02*
X167005000Y-104775000D01*
X136525000Y-104775000D02*
X135074600Y-106225400D01*
X135074600Y-106225400D02*
X107495400Y-106225400D01*
X107495400Y-106225400D02*
X106045000Y-104775000D01*
X106045000Y-104775000D02*
X104594600Y-106225400D01*
X104594600Y-106225400D02*
X77015400Y-106225400D01*
X77015400Y-106225400D02*
X75565000Y-104775000D01*
X167005000Y-104775000D02*
X168455400Y-106225400D01*
X168455400Y-106225400D02*
X196034600Y-106225400D01*
X196034600Y-106225400D02*
X197485000Y-104775000D01*
D17*
G04 #@! TO.N,Net-(U1-Pad1)*
X243840000Y-151130000D02*
X233495300Y-140785300D01*
X233495300Y-140785300D02*
X233495300Y-91890300D01*
X233495300Y-91890300D02*
X225425000Y-83820000D01*
G04 #@! TO.N,Net-(U2-Pad13)*
X182880000Y-140970000D02*
X193675000Y-140970000D01*
X193675000Y-140970000D02*
X194945000Y-142240000D01*
G04 #@! TO.N,Net-(U2-Pad12)*
X182880000Y-146050000D02*
X193675000Y-146050000D01*
X193675000Y-146050000D02*
X194945000Y-144780000D01*
G04 #@! TO.N,Net-(U2-Pad11)*
X182880000Y-151130000D02*
X191135000Y-151130000D01*
X191135000Y-151130000D02*
X194945000Y-147320000D01*
G04 #@! TO.N,Net-(U10-Pad5)*
X182880000Y-77470000D02*
X193675000Y-77470000D01*
X193675000Y-77470000D02*
X194945000Y-78740000D01*
G04 #@! TO.N,Net-(U10-Pad3)*
X182880000Y-82550000D02*
X193675000Y-82550000D01*
X193675000Y-82550000D02*
X194945000Y-81280000D01*
G04 #@! TO.N,Net-(U13-Pad12)*
X73025000Y-81280000D02*
X62230000Y-81280000D01*
X62230000Y-81280000D02*
X60960000Y-80010000D01*
G04 #@! TO.N,Net-(U13-Pad11)*
X73025000Y-83820000D02*
X69215000Y-87630000D01*
X69215000Y-87630000D02*
X60960000Y-87630000D01*
G04 #@! TO.N,t4-2*
X44685000Y-33401000D02*
X59473300Y-48189300D01*
X59473300Y-48189300D02*
X59473300Y-81063300D01*
X59473300Y-81063300D02*
X60960000Y-82550000D01*
G04 #@! TO.N,SBTm*
X47225000Y-33401000D02*
X88707900Y-74883900D01*
X88707900Y-74883900D02*
X88707900Y-82357900D01*
X88707900Y-82357900D02*
X91440000Y-85090000D01*
G04 #@! TO.N,RBTm*
X52305000Y-33401000D02*
X52305000Y-34299900D01*
X52305000Y-34299900D02*
X90035600Y-72030500D01*
X90035600Y-72030500D02*
X90035600Y-78605600D01*
X90035600Y-78605600D02*
X91440000Y-80010000D01*
G04 #@! TO.N,IG18*
X54845000Y-33401000D02*
X54845000Y-35814200D01*
X54845000Y-35814200D02*
X56730500Y-37699700D01*
G04 #@! TO.N,IP16*
X59925000Y-30861000D02*
X58560400Y-32225600D01*
X58560400Y-32225600D02*
X41619400Y-32225600D01*
X41619400Y-32225600D02*
X40875000Y-32970000D01*
X40875000Y-32970000D02*
X40875000Y-33873600D01*
X40875000Y-33873600D02*
X37470500Y-37278100D01*
X37470500Y-37278100D02*
X34216500Y-37278100D01*
X34216500Y-37278100D02*
X32140200Y-39354400D01*
X32140200Y-39354400D02*
X32140200Y-136915200D01*
X32140200Y-136915200D02*
X42545000Y-147320000D01*
G04 #@! TO.N,IG15*
X72625000Y-33401000D02*
X111365200Y-72141200D01*
X111365200Y-72141200D02*
X129261300Y-72141200D01*
X129261300Y-72141200D02*
X142210100Y-85090000D01*
X142210100Y-85090000D02*
X152400000Y-85090000D01*
G04 #@! TO.N,IP15*
X72625000Y-30861000D02*
X71260400Y-32225600D01*
X71260400Y-32225600D02*
X69559400Y-32225600D01*
X69559400Y-32225600D02*
X68908000Y-32877000D01*
X68908000Y-32877000D02*
X68908000Y-49223000D01*
X68908000Y-49223000D02*
X103505000Y-83820000D01*
G04 #@! TO.N,IG14*
X152400000Y-74930000D02*
X133323900Y-74930000D01*
X133323900Y-74930000D02*
X123940300Y-65546400D01*
X123940300Y-65546400D02*
X110728200Y-65546400D01*
X110728200Y-65546400D02*
X78975000Y-33793200D01*
X78975000Y-33793200D02*
X78975000Y-32970000D01*
X78975000Y-32970000D02*
X78230600Y-32225600D01*
X78230600Y-32225600D02*
X76340400Y-32225600D01*
X76340400Y-32225600D02*
X75165000Y-33401000D01*
G04 #@! TO.N,IP14*
X75165000Y-30861000D02*
X73989600Y-32036400D01*
X73989600Y-32036400D02*
X72320300Y-32036400D01*
X72320300Y-32036400D02*
X71444900Y-32911800D01*
X71444900Y-32911800D02*
X71444900Y-46679900D01*
X71444900Y-46679900D02*
X103505000Y-78740000D01*
G04 #@! TO.N,IG13*
X152400000Y-80010000D02*
X137767000Y-80010000D01*
X137767000Y-80010000D02*
X126933000Y-69176000D01*
X126933000Y-69176000D02*
X113480000Y-69176000D01*
X113480000Y-69176000D02*
X77705000Y-33401000D01*
G04 #@! TO.N,IG11*
X82785000Y-33401000D02*
X88015000Y-38631000D01*
G04 #@! TO.N,IG10*
X85325000Y-33401000D02*
X87273200Y-35349200D01*
G04 #@! TO.N,IP9*
X164465000Y-83820000D02*
X153754800Y-73109800D01*
X153754800Y-73109800D02*
X132835500Y-73109800D01*
X132835500Y-73109800D02*
X95731200Y-36005500D01*
X95731200Y-36005500D02*
X93868400Y-36005500D01*
X93868400Y-36005500D02*
X91759200Y-33896300D01*
X91759200Y-33896300D02*
X91759200Y-32046800D01*
X91759200Y-32046800D02*
X92945000Y-30861000D01*
G04 #@! TO.N,IG8*
X95485000Y-33401000D02*
X96660400Y-32225600D01*
X96660400Y-32225600D02*
X98550600Y-32225600D01*
X98550600Y-32225600D02*
X99295000Y-32970000D01*
X99295000Y-32970000D02*
X99295000Y-33809200D01*
X99295000Y-33809200D02*
X136624500Y-71138700D01*
X136624500Y-71138700D02*
X209568700Y-71138700D01*
X209568700Y-71138700D02*
X213360000Y-74930000D01*
G04 #@! TO.N,IP8*
X164465000Y-78740000D02*
X158208200Y-72483200D01*
X158208200Y-72483200D02*
X132845800Y-72483200D01*
X132845800Y-72483200D02*
X94305500Y-33942900D01*
X94305500Y-33942900D02*
X94305500Y-32040500D01*
X94305500Y-32040500D02*
X95485000Y-30861000D01*
G04 #@! TO.N,IG7*
X213360000Y-80010000D02*
X205108900Y-71758900D01*
X205108900Y-71758900D02*
X136382900Y-71758900D01*
X136382900Y-71758900D02*
X98025000Y-33401000D01*
G04 #@! TO.N,IG6*
X100565000Y-33401000D02*
X119927400Y-52763400D01*
G04 #@! TO.N,IG5*
X103105000Y-33401000D02*
X103105000Y-35065900D01*
X103105000Y-35065900D02*
X119419900Y-51380800D01*
X119419900Y-51380800D02*
X130211300Y-51380800D01*
G04 #@! TO.N,IG4*
X119197200Y-50093800D02*
X105645000Y-36541600D01*
X105645000Y-36541600D02*
X105645000Y-33401000D01*
G04 #@! TO.N,IG3*
X243840000Y-74930000D02*
X199885400Y-30975400D01*
X199885400Y-30975400D02*
X122989400Y-30975400D01*
X122989400Y-30975400D02*
X121652800Y-29638800D01*
X121652800Y-29638800D02*
X112799400Y-29638800D01*
X112799400Y-29638800D02*
X111995000Y-30443200D01*
X111995000Y-30443200D02*
X111995000Y-31257400D01*
X111995000Y-31257400D02*
X111121400Y-32131000D01*
X111121400Y-32131000D02*
X109455000Y-32131000D01*
X109455000Y-32131000D02*
X108185000Y-33401000D01*
G04 #@! TO.N,IG2*
X110725000Y-33401000D02*
X111933300Y-32192700D01*
X111933300Y-32192700D02*
X116268200Y-32192700D01*
X116268200Y-32192700D02*
X117075100Y-32999600D01*
X117075100Y-32999600D02*
X117075100Y-33806700D01*
X117075100Y-33806700D02*
X131514900Y-48246500D01*
X131514900Y-48246500D02*
X212076500Y-48246500D01*
X212076500Y-48246500D02*
X243840000Y-80010000D01*
G04 #@! TO.N,IG1*
X113265000Y-33401000D02*
X150259000Y-70395000D01*
X150259000Y-70395000D02*
X229145000Y-70395000D01*
X229145000Y-70395000D02*
X243840000Y-85090000D01*
G04 #@! TO.N,Net-(U4-Pad13)*
X121920000Y-140970000D02*
X132715000Y-140970000D01*
X132715000Y-140970000D02*
X133985000Y-142240000D01*
G04 #@! TO.N,Net-(U4-Pad12)*
X121920000Y-146050000D02*
X132715000Y-146050000D01*
X132715000Y-146050000D02*
X133985000Y-144780000D01*
G04 #@! TO.N,Net-(U4-Pad11)*
X121920000Y-151130000D02*
X125730000Y-147320000D01*
X125730000Y-147320000D02*
X133985000Y-147320000D01*
G04 #@! TO.N,Net-(U6-Pad13)*
X60960000Y-140970000D02*
X71755000Y-140970000D01*
X71755000Y-140970000D02*
X73025000Y-142240000D01*
G04 #@! TO.N,Net-(U6-Pad12)*
X60960000Y-146050000D02*
X71755000Y-146050000D01*
X71755000Y-146050000D02*
X73025000Y-144780000D01*
G04 #@! TO.N,Net-(U6-Pad11)*
X60960000Y-151130000D02*
X69215000Y-151130000D01*
X69215000Y-151130000D02*
X73025000Y-147320000D01*
G04 #@! TO.N,Net-(U10-Pad1)*
X182880000Y-87630000D02*
X191135000Y-87630000D01*
X191135000Y-87630000D02*
X194945000Y-83820000D01*
G04 #@! TO.N,Net-(U11-Pad13)*
X133985000Y-78740000D02*
X132715000Y-77470000D01*
X132715000Y-77470000D02*
X121920000Y-77470000D01*
G04 #@! TO.N,Net-(U11-Pad12)*
X133985000Y-81280000D02*
X123190000Y-81280000D01*
X123190000Y-81280000D02*
X121920000Y-82550000D01*
G04 #@! TO.N,Net-(U11-Pad11)*
X133985000Y-83820000D02*
X130175000Y-87630000D01*
X130175000Y-87630000D02*
X121920000Y-87630000D01*
G04 #@! TD*
M02*
