G04 #@! TF.FileFunction,Soldermask,Top*
%FSLAX46Y46*%
G04 Gerber Fmt 4.6, Leading zero omitted, Abs format (unit mm)*
G04 Created by KiCad (PCBNEW 4.0.5) date 03/11/17 13:27:16*
%MOMM*%
%LPD*%
G01*
G04 APERTURE LIST*
%ADD10C,0.100000*%
%ADD11R,2.000000X2.000000*%
%ADD12O,2.000000X2.000000*%
%ADD13R,3.000000X2.400000*%
%ADD14O,3.000000X2.400000*%
%ADD15C,1.924000*%
%ADD16R,1.924000X1.924000*%
%ADD17R,1.797000X1.797000*%
%ADD18C,1.797000*%
%ADD19R,2.400000X3.000000*%
%ADD20O,2.400000X3.000000*%
G04 APERTURE END LIST*
D10*
D11*
X124460000Y-91440000D03*
D12*
X104140000Y-99060000D03*
X121920000Y-91440000D03*
X106680000Y-99060000D03*
X119380000Y-91440000D03*
X109220000Y-99060000D03*
X116840000Y-91440000D03*
X111760000Y-99060000D03*
X114300000Y-91440000D03*
X114300000Y-99060000D03*
X111760000Y-91440000D03*
X116840000Y-99060000D03*
X109220000Y-91440000D03*
X119380000Y-99060000D03*
X106680000Y-91440000D03*
X121920000Y-99060000D03*
X104140000Y-91440000D03*
X124460000Y-99060000D03*
D13*
X59690000Y-107950000D03*
D14*
X59690000Y-105410000D03*
X59690000Y-102870000D03*
X59690000Y-100330000D03*
X59690000Y-97790000D03*
X59690000Y-95250000D03*
X59690000Y-92710000D03*
X59690000Y-90170000D03*
D15*
X360680000Y-80010000D03*
X360680000Y-85090000D03*
D16*
X358140000Y-82550000D03*
X363220000Y-82550000D03*
D15*
X378460000Y-80010000D03*
X378460000Y-85090000D03*
D16*
X375920000Y-82550000D03*
X381000000Y-82550000D03*
D15*
X396240000Y-80010000D03*
X396240000Y-85090000D03*
D16*
X393700000Y-82550000D03*
X398780000Y-82550000D03*
D15*
X332740000Y-119380000D03*
X332740000Y-124460000D03*
D16*
X330200000Y-121920000D03*
X335280000Y-121920000D03*
D15*
X314960000Y-119380000D03*
X314960000Y-124460000D03*
D16*
X312420000Y-121920000D03*
X317500000Y-121920000D03*
D15*
X297180000Y-119380000D03*
X297180000Y-124460000D03*
D16*
X294640000Y-121920000D03*
X299720000Y-121920000D03*
D17*
X264160000Y-119380000D03*
D18*
X264160000Y-121920000D03*
X264160000Y-124460000D03*
D17*
X248920000Y-119380000D03*
D18*
X248920000Y-121920000D03*
X248920000Y-124460000D03*
D17*
X233680000Y-119380000D03*
D18*
X233680000Y-121920000D03*
X233680000Y-124460000D03*
D15*
X210820000Y-118110000D03*
X210820000Y-123190000D03*
D16*
X208280000Y-120650000D03*
X213360000Y-120650000D03*
D11*
X341630000Y-74930000D03*
D12*
X349250000Y-107950000D03*
X341630000Y-77470000D03*
X349250000Y-105410000D03*
X341630000Y-80010000D03*
X349250000Y-102870000D03*
X341630000Y-82550000D03*
X349250000Y-100330000D03*
X341630000Y-85090000D03*
X349250000Y-97790000D03*
X341630000Y-87630000D03*
X349250000Y-95250000D03*
X341630000Y-90170000D03*
X349250000Y-92710000D03*
X341630000Y-92710000D03*
X349250000Y-90170000D03*
X341630000Y-95250000D03*
X349250000Y-87630000D03*
X341630000Y-97790000D03*
X349250000Y-85090000D03*
X341630000Y-100330000D03*
X349250000Y-82550000D03*
X341630000Y-102870000D03*
X349250000Y-80010000D03*
X341630000Y-105410000D03*
X349250000Y-77470000D03*
X341630000Y-107950000D03*
X349250000Y-74930000D03*
D11*
X177800000Y-74930000D03*
D12*
X185420000Y-107950000D03*
X177800000Y-77470000D03*
X185420000Y-105410000D03*
X177800000Y-80010000D03*
X185420000Y-102870000D03*
X177800000Y-82550000D03*
X185420000Y-100330000D03*
X177800000Y-85090000D03*
X185420000Y-97790000D03*
X177800000Y-87630000D03*
X185420000Y-95250000D03*
X177800000Y-90170000D03*
X185420000Y-92710000D03*
X177800000Y-92710000D03*
X185420000Y-90170000D03*
X177800000Y-95250000D03*
X185420000Y-87630000D03*
X177800000Y-97790000D03*
X185420000Y-85090000D03*
X177800000Y-100330000D03*
X185420000Y-82550000D03*
X177800000Y-102870000D03*
X185420000Y-80010000D03*
X177800000Y-105410000D03*
X185420000Y-77470000D03*
X177800000Y-107950000D03*
X185420000Y-74930000D03*
D11*
X219710000Y-74930000D03*
D12*
X227330000Y-107950000D03*
X219710000Y-77470000D03*
X227330000Y-105410000D03*
X219710000Y-80010000D03*
X227330000Y-102870000D03*
X219710000Y-82550000D03*
X227330000Y-100330000D03*
X219710000Y-85090000D03*
X227330000Y-97790000D03*
X219710000Y-87630000D03*
X227330000Y-95250000D03*
X219710000Y-90170000D03*
X227330000Y-92710000D03*
X219710000Y-92710000D03*
X227330000Y-90170000D03*
X219710000Y-95250000D03*
X227330000Y-87630000D03*
X219710000Y-97790000D03*
X227330000Y-85090000D03*
X219710000Y-100330000D03*
X227330000Y-82550000D03*
X219710000Y-102870000D03*
X227330000Y-80010000D03*
X219710000Y-105410000D03*
X227330000Y-77470000D03*
X219710000Y-107950000D03*
X227330000Y-74930000D03*
D17*
X325120000Y-54610000D03*
D18*
X325120000Y-57150000D03*
X325120000Y-59690000D03*
D17*
X309880000Y-54610000D03*
D18*
X309880000Y-57150000D03*
X309880000Y-59690000D03*
D17*
X294640000Y-54610000D03*
D18*
X294640000Y-57150000D03*
X294640000Y-59690000D03*
D17*
X279400000Y-54610000D03*
D18*
X279400000Y-57150000D03*
X279400000Y-59690000D03*
D17*
X264160000Y-54610000D03*
D18*
X264160000Y-57150000D03*
X264160000Y-59690000D03*
D17*
X248920000Y-54610000D03*
D18*
X248920000Y-57150000D03*
X248920000Y-59690000D03*
D17*
X233680000Y-54610000D03*
D18*
X233680000Y-57150000D03*
X233680000Y-59690000D03*
D17*
X218440000Y-54610000D03*
D18*
X218440000Y-57150000D03*
X218440000Y-59690000D03*
D17*
X203200000Y-54610000D03*
D18*
X203200000Y-57150000D03*
X203200000Y-59690000D03*
D17*
X187960000Y-54610000D03*
D18*
X187960000Y-57150000D03*
X187960000Y-59690000D03*
D17*
X172720000Y-54610000D03*
D18*
X172720000Y-57150000D03*
X172720000Y-59690000D03*
D17*
X157480000Y-54610000D03*
D18*
X157480000Y-57150000D03*
X157480000Y-59690000D03*
D17*
X142240000Y-54610000D03*
D18*
X142240000Y-57150000D03*
X142240000Y-59690000D03*
D17*
X127000000Y-54610000D03*
D18*
X127000000Y-57150000D03*
X127000000Y-59690000D03*
D17*
X111760000Y-54610000D03*
D18*
X111760000Y-57150000D03*
X111760000Y-59690000D03*
D17*
X96520000Y-54610000D03*
D18*
X96520000Y-57150000D03*
X96520000Y-59690000D03*
D17*
X81280000Y-54610000D03*
D18*
X81280000Y-57150000D03*
X81280000Y-59690000D03*
D17*
X66040000Y-54610000D03*
D18*
X66040000Y-57150000D03*
X66040000Y-59690000D03*
X302260000Y-124460000D03*
X309880000Y-124460000D03*
X364490000Y-74930000D03*
X356870000Y-74930000D03*
X374650000Y-74930000D03*
X382270000Y-74930000D03*
X392430000Y-74930000D03*
X400050000Y-74930000D03*
X320040000Y-124460000D03*
X327660000Y-124460000D03*
X284480000Y-124460000D03*
X292100000Y-124460000D03*
X85090000Y-83820000D03*
X85090000Y-91440000D03*
X78740000Y-83820000D03*
X78740000Y-91440000D03*
X72390000Y-83820000D03*
X72390000Y-91440000D03*
X196850000Y-123190000D03*
X204470000Y-123190000D03*
X165100000Y-123190000D03*
X172720000Y-123190000D03*
X133350000Y-123190000D03*
X140970000Y-123190000D03*
D19*
X374650000Y-120650000D03*
D20*
X377190000Y-120650000D03*
X379730000Y-120650000D03*
D15*
X180340000Y-118110000D03*
X180340000Y-123190000D03*
D16*
X177800000Y-120650000D03*
X182880000Y-120650000D03*
D15*
X149860000Y-118110000D03*
X149860000Y-123190000D03*
D16*
X147320000Y-120650000D03*
X152400000Y-120650000D03*
D17*
X119380000Y-119380000D03*
D18*
X119380000Y-121920000D03*
X119380000Y-124460000D03*
D17*
X104140000Y-119380000D03*
D18*
X104140000Y-121920000D03*
X104140000Y-124460000D03*
D17*
X88900000Y-119380000D03*
D18*
X88900000Y-121920000D03*
X88900000Y-124460000D03*
D17*
X73660000Y-119380000D03*
D18*
X73660000Y-121920000D03*
X73660000Y-124460000D03*
M02*
