G04 #@! TF.FileFunction,Legend,Top*
%FSLAX46Y46*%
G04 Gerber Fmt 4.6, Leading zero omitted, Abs format (unit mm)*
G04 Created by KiCad (PCBNEW 4.0.5) date 03/11/17 13:27:16*
%MOMM*%
%LPD*%
G01*
G04 APERTURE LIST*
%ADD10C,0.100000*%
%ADD11C,0.300000*%
%ADD12C,0.200000*%
%ADD13C,0.120000*%
%ADD14C,0.150000*%
G04 APERTURE END LIST*
D10*
D11*
X233251429Y-66718571D02*
X233251429Y-65218571D01*
X234108572Y-66718571D01*
X234108572Y-65218571D01*
D12*
X327660000Y-68580000D02*
X327660000Y-64770000D01*
X139700000Y-68580000D02*
X327660000Y-68580000D01*
X139700000Y-64770000D02*
X139700000Y-68580000D01*
D11*
X105624286Y-67202857D02*
X105124286Y-67202857D01*
X105124286Y-67988571D02*
X105124286Y-66488571D01*
X105838572Y-66488571D01*
D12*
X129540000Y-68580000D02*
X129540000Y-64770000D01*
X78740000Y-68580000D02*
X129540000Y-68580000D01*
X78740000Y-64770000D02*
X78740000Y-68580000D01*
D11*
X66147143Y-67202857D02*
X66361429Y-67274286D01*
X66432857Y-67345714D01*
X66504286Y-67488571D01*
X66504286Y-67702857D01*
X66432857Y-67845714D01*
X66361429Y-67917143D01*
X66218571Y-67988571D01*
X65647143Y-67988571D01*
X65647143Y-66488571D01*
X66147143Y-66488571D01*
X66290000Y-66560000D01*
X66361429Y-66631429D01*
X66432857Y-66774286D01*
X66432857Y-66917143D01*
X66361429Y-67060000D01*
X66290000Y-67131429D01*
X66147143Y-67202857D01*
X65647143Y-67202857D01*
X387747143Y-96770000D02*
X388461429Y-96770000D01*
X387604286Y-97198571D02*
X388104286Y-95698571D01*
X388604286Y-97198571D01*
X389747143Y-96198571D02*
X389747143Y-97198571D01*
X389104286Y-96198571D02*
X389104286Y-96984286D01*
X389175714Y-97127143D01*
X389318572Y-97198571D01*
X389532857Y-97198571D01*
X389675714Y-97127143D01*
X389747143Y-97055714D01*
X390247143Y-96198571D02*
X390818572Y-96198571D01*
X390461429Y-95698571D02*
X390461429Y-96984286D01*
X390532857Y-97127143D01*
X390675715Y-97198571D01*
X390818572Y-97198571D01*
X391532858Y-97198571D02*
X391390000Y-97127143D01*
X391318572Y-97055714D01*
X391247143Y-96912857D01*
X391247143Y-96484286D01*
X391318572Y-96341429D01*
X391390000Y-96270000D01*
X391532858Y-96198571D01*
X391747143Y-96198571D01*
X391890000Y-96270000D01*
X391961429Y-96341429D01*
X392032858Y-96484286D01*
X392032858Y-96912857D01*
X391961429Y-97055714D01*
X391890000Y-97127143D01*
X391747143Y-97198571D01*
X391532858Y-97198571D01*
X374781429Y-90618571D02*
X375067143Y-90618571D01*
X375210001Y-90690000D01*
X375352858Y-90832857D01*
X375424286Y-91118571D01*
X375424286Y-91618571D01*
X375352858Y-91904286D01*
X375210001Y-92047143D01*
X375067143Y-92118571D01*
X374781429Y-92118571D01*
X374638572Y-92047143D01*
X374495715Y-91904286D01*
X374424286Y-91618571D01*
X374424286Y-91118571D01*
X374495715Y-90832857D01*
X374638572Y-90690000D01*
X374781429Y-90618571D01*
X376067144Y-91118571D02*
X376067144Y-92618571D01*
X376067144Y-91190000D02*
X376210001Y-91118571D01*
X376495715Y-91118571D01*
X376638572Y-91190000D01*
X376710001Y-91261429D01*
X376781430Y-91404286D01*
X376781430Y-91832857D01*
X376710001Y-91975714D01*
X376638572Y-92047143D01*
X376495715Y-92118571D01*
X376210001Y-92118571D01*
X376067144Y-92047143D01*
X377995715Y-92047143D02*
X377852858Y-92118571D01*
X377567144Y-92118571D01*
X377424287Y-92047143D01*
X377352858Y-91904286D01*
X377352858Y-91332857D01*
X377424287Y-91190000D01*
X377567144Y-91118571D01*
X377852858Y-91118571D01*
X377995715Y-91190000D01*
X378067144Y-91332857D01*
X378067144Y-91475714D01*
X377352858Y-91618571D01*
X378710001Y-92118571D02*
X378710001Y-91118571D01*
X378710001Y-91404286D02*
X378781429Y-91261429D01*
X378852858Y-91190000D01*
X378995715Y-91118571D01*
X379138572Y-91118571D01*
X380281429Y-92118571D02*
X380281429Y-91332857D01*
X380210000Y-91190000D01*
X380067143Y-91118571D01*
X379781429Y-91118571D01*
X379638572Y-91190000D01*
X380281429Y-92047143D02*
X380138572Y-92118571D01*
X379781429Y-92118571D01*
X379638572Y-92047143D01*
X379567143Y-91904286D01*
X379567143Y-91761429D01*
X379638572Y-91618571D01*
X379781429Y-91547143D01*
X380138572Y-91547143D01*
X380281429Y-91475714D01*
X380781429Y-91118571D02*
X381352858Y-91118571D01*
X380995715Y-90618571D02*
X380995715Y-91904286D01*
X381067143Y-92047143D01*
X381210001Y-92118571D01*
X381352858Y-92118571D01*
X382424286Y-92047143D02*
X382281429Y-92118571D01*
X381995715Y-92118571D01*
X381852858Y-92047143D01*
X381781429Y-91904286D01*
X381781429Y-91332857D01*
X381852858Y-91190000D01*
X381995715Y-91118571D01*
X382281429Y-91118571D01*
X382424286Y-91190000D01*
X382495715Y-91332857D01*
X382495715Y-91475714D01*
X381781429Y-91618571D01*
X364922857Y-95698571D02*
X365780000Y-95698571D01*
X365351429Y-97198571D02*
X365351429Y-95698571D01*
X366851428Y-97127143D02*
X366708571Y-97198571D01*
X366422857Y-97198571D01*
X366280000Y-97127143D01*
X366208571Y-96984286D01*
X366208571Y-96412857D01*
X366280000Y-96270000D01*
X366422857Y-96198571D01*
X366708571Y-96198571D01*
X366851428Y-96270000D01*
X366922857Y-96412857D01*
X366922857Y-96555714D01*
X366208571Y-96698571D01*
X367494285Y-97127143D02*
X367637142Y-97198571D01*
X367922857Y-97198571D01*
X368065714Y-97127143D01*
X368137142Y-96984286D01*
X368137142Y-96912857D01*
X368065714Y-96770000D01*
X367922857Y-96698571D01*
X367708571Y-96698571D01*
X367565714Y-96627143D01*
X367494285Y-96484286D01*
X367494285Y-96412857D01*
X367565714Y-96270000D01*
X367708571Y-96198571D01*
X367922857Y-96198571D01*
X368065714Y-96270000D01*
X368565714Y-96198571D02*
X369137143Y-96198571D01*
X368780000Y-95698571D02*
X368780000Y-96984286D01*
X368851428Y-97127143D01*
X368994286Y-97198571D01*
X369137143Y-97198571D01*
D12*
X384810000Y-99060000D02*
X387350000Y-96520000D01*
X378460000Y-96520000D02*
X378460000Y-92710000D01*
X372110000Y-99060000D02*
X369570000Y-96520000D01*
D11*
X376852858Y-104813571D02*
X376852858Y-103313571D01*
X377710001Y-104813571D02*
X377067144Y-103956429D01*
X377710001Y-103313571D02*
X376852858Y-104170714D01*
X378924286Y-104742143D02*
X378781429Y-104813571D01*
X378495715Y-104813571D01*
X378352858Y-104742143D01*
X378281429Y-104599286D01*
X378281429Y-104027857D01*
X378352858Y-103885000D01*
X378495715Y-103813571D01*
X378781429Y-103813571D01*
X378924286Y-103885000D01*
X378995715Y-104027857D01*
X378995715Y-104170714D01*
X378281429Y-104313571D01*
X379495715Y-103813571D02*
X379852858Y-104813571D01*
X380210000Y-103813571D02*
X379852858Y-104813571D01*
X379710000Y-105170714D01*
X379638572Y-105242143D01*
X379495715Y-105313571D01*
X375138571Y-107292143D02*
X375352857Y-107363571D01*
X375710000Y-107363571D01*
X375852857Y-107292143D01*
X375924286Y-107220714D01*
X375995714Y-107077857D01*
X375995714Y-106935000D01*
X375924286Y-106792143D01*
X375852857Y-106720714D01*
X375710000Y-106649286D01*
X375424286Y-106577857D01*
X375281428Y-106506429D01*
X375210000Y-106435000D01*
X375138571Y-106292143D01*
X375138571Y-106149286D01*
X375210000Y-106006429D01*
X375281428Y-105935000D01*
X375424286Y-105863571D01*
X375781428Y-105863571D01*
X375995714Y-105935000D01*
X376495714Y-106363571D02*
X376781428Y-107363571D01*
X377067142Y-106649286D01*
X377352857Y-107363571D01*
X377638571Y-106363571D01*
X378210000Y-107363571D02*
X378210000Y-106363571D01*
X378210000Y-105863571D02*
X378138571Y-105935000D01*
X378210000Y-106006429D01*
X378281428Y-105935000D01*
X378210000Y-105863571D01*
X378210000Y-106006429D01*
X378710000Y-106363571D02*
X379281429Y-106363571D01*
X378924286Y-105863571D02*
X378924286Y-107149286D01*
X378995714Y-107292143D01*
X379138572Y-107363571D01*
X379281429Y-107363571D01*
X380424286Y-107292143D02*
X380281429Y-107363571D01*
X379995715Y-107363571D01*
X379852857Y-107292143D01*
X379781429Y-107220714D01*
X379710000Y-107077857D01*
X379710000Y-106649286D01*
X379781429Y-106506429D01*
X379852857Y-106435000D01*
X379995715Y-106363571D01*
X380281429Y-106363571D01*
X380424286Y-106435000D01*
X381067143Y-107363571D02*
X381067143Y-105863571D01*
X381710000Y-107363571D02*
X381710000Y-106577857D01*
X381638571Y-106435000D01*
X381495714Y-106363571D01*
X381281429Y-106363571D01*
X381138571Y-106435000D01*
X381067143Y-106506429D01*
D12*
X387618100Y-105410000D02*
G75*
G03X387618100Y-105410000I-9158100J0D01*
G01*
D11*
X374567143Y-55058571D02*
X375067143Y-56558571D01*
X375567143Y-55058571D01*
X376281429Y-56558571D02*
X376138571Y-56487143D01*
X376067143Y-56415714D01*
X375995714Y-56272857D01*
X375995714Y-55844286D01*
X376067143Y-55701429D01*
X376138571Y-55630000D01*
X376281429Y-55558571D01*
X376495714Y-55558571D01*
X376638571Y-55630000D01*
X376710000Y-55701429D01*
X376781429Y-55844286D01*
X376781429Y-56272857D01*
X376710000Y-56415714D01*
X376638571Y-56487143D01*
X376495714Y-56558571D01*
X376281429Y-56558571D01*
X377638572Y-56558571D02*
X377495714Y-56487143D01*
X377424286Y-56344286D01*
X377424286Y-55058571D01*
X378852857Y-55558571D02*
X378852857Y-56558571D01*
X378210000Y-55558571D02*
X378210000Y-56344286D01*
X378281428Y-56487143D01*
X378424286Y-56558571D01*
X378638571Y-56558571D01*
X378781428Y-56487143D01*
X378852857Y-56415714D01*
X379567143Y-56558571D02*
X379567143Y-55558571D01*
X379567143Y-55701429D02*
X379638571Y-55630000D01*
X379781429Y-55558571D01*
X379995714Y-55558571D01*
X380138571Y-55630000D01*
X380210000Y-55772857D01*
X380210000Y-56558571D01*
X380210000Y-55772857D02*
X380281429Y-55630000D01*
X380424286Y-55558571D01*
X380638571Y-55558571D01*
X380781429Y-55630000D01*
X380852857Y-55772857D01*
X380852857Y-56558571D01*
X382138571Y-56487143D02*
X381995714Y-56558571D01*
X381710000Y-56558571D01*
X381567143Y-56487143D01*
X381495714Y-56344286D01*
X381495714Y-55772857D01*
X381567143Y-55630000D01*
X381710000Y-55558571D01*
X381995714Y-55558571D01*
X382138571Y-55630000D01*
X382210000Y-55772857D01*
X382210000Y-55915714D01*
X381495714Y-56058571D01*
D12*
X388379017Y-55880000D02*
G75*
G03X388379017Y-55880000I-9919017J0D01*
G01*
D13*
X125850000Y-96250000D02*
G75*
G02X125850000Y-94250000I0J1000000D01*
G01*
X125850000Y-94250000D02*
X125850000Y-92480000D01*
X125850000Y-92480000D02*
X102750000Y-92480000D01*
X102750000Y-92480000D02*
X102750000Y-98020000D01*
X102750000Y-98020000D02*
X125850000Y-98020000D01*
X125850000Y-98020000D02*
X125850000Y-96250000D01*
X125850000Y-90050000D02*
X102750000Y-90050000D01*
X102750000Y-90050000D02*
X102750000Y-100450000D01*
X102750000Y-100450000D02*
X125850000Y-100450000D01*
X125850000Y-100450000D02*
X125850000Y-90050000D01*
X56670000Y-109320000D02*
X62670000Y-109320000D01*
X62670000Y-109320000D02*
X62670000Y-88800000D01*
X62670000Y-88800000D02*
X56670000Y-88800000D01*
X56670000Y-88800000D02*
X56670000Y-109320000D01*
X62670000Y-107950000D02*
X61670000Y-107950000D01*
X61670000Y-107950000D02*
X61670000Y-102870000D01*
X61670000Y-102870000D02*
X62670000Y-102870000D01*
X61670000Y-107950000D02*
X61240000Y-107700000D01*
X61240000Y-107700000D02*
X61240000Y-102870000D01*
X61240000Y-102870000D02*
X61670000Y-102870000D01*
X62670000Y-107700000D02*
X61670000Y-107700000D01*
X62670000Y-90170000D02*
X61670000Y-90170000D01*
X61670000Y-90170000D02*
X61670000Y-95250000D01*
X61670000Y-95250000D02*
X62670000Y-95250000D01*
X61670000Y-90170000D02*
X61240000Y-90420000D01*
X61240000Y-90420000D02*
X61240000Y-95250000D01*
X61240000Y-95250000D02*
X61670000Y-95250000D01*
X62670000Y-90420000D02*
X61670000Y-90420000D01*
X56670000Y-108750000D02*
X57290000Y-108750000D01*
X57290000Y-108750000D02*
X57290000Y-107150000D01*
X57290000Y-107150000D02*
X56670000Y-107150000D01*
X56670000Y-106210000D02*
X57290000Y-106210000D01*
X57290000Y-106210000D02*
X57290000Y-104610000D01*
X57290000Y-104610000D02*
X56670000Y-104610000D01*
X56670000Y-103670000D02*
X57290000Y-103670000D01*
X57290000Y-103670000D02*
X57290000Y-102070000D01*
X57290000Y-102070000D02*
X56670000Y-102070000D01*
X56670000Y-101130000D02*
X57290000Y-101130000D01*
X57290000Y-101130000D02*
X57290000Y-99530000D01*
X57290000Y-99530000D02*
X56670000Y-99530000D01*
X56670000Y-98590000D02*
X57290000Y-98590000D01*
X57290000Y-98590000D02*
X57290000Y-96990000D01*
X57290000Y-96990000D02*
X56670000Y-96990000D01*
X56670000Y-96050000D02*
X57290000Y-96050000D01*
X57290000Y-96050000D02*
X57290000Y-94450000D01*
X57290000Y-94450000D02*
X56670000Y-94450000D01*
X56670000Y-93510000D02*
X57290000Y-93510000D01*
X57290000Y-93510000D02*
X57290000Y-91910000D01*
X57290000Y-91910000D02*
X56670000Y-91910000D01*
X56670000Y-90970000D02*
X57290000Y-90970000D01*
X57290000Y-90970000D02*
X57290000Y-89370000D01*
X57290000Y-89370000D02*
X56670000Y-89370000D01*
D14*
X358140000Y-80010000D02*
X363220000Y-80010000D01*
X363220000Y-80010000D02*
X363220000Y-85090000D01*
X363220000Y-85090000D02*
X358140000Y-85090000D01*
X358140000Y-85090000D02*
X358140000Y-80010000D01*
X375920000Y-80010000D02*
X381000000Y-80010000D01*
X381000000Y-80010000D02*
X381000000Y-85090000D01*
X381000000Y-85090000D02*
X375920000Y-85090000D01*
X375920000Y-85090000D02*
X375920000Y-80010000D01*
X393700000Y-80010000D02*
X398780000Y-80010000D01*
X398780000Y-80010000D02*
X398780000Y-85090000D01*
X398780000Y-85090000D02*
X393700000Y-85090000D01*
X393700000Y-85090000D02*
X393700000Y-80010000D01*
X330200000Y-119380000D02*
X335280000Y-119380000D01*
X335280000Y-119380000D02*
X335280000Y-124460000D01*
X335280000Y-124460000D02*
X330200000Y-124460000D01*
X330200000Y-124460000D02*
X330200000Y-119380000D01*
X312420000Y-119380000D02*
X317500000Y-119380000D01*
X317500000Y-119380000D02*
X317500000Y-124460000D01*
X317500000Y-124460000D02*
X312420000Y-124460000D01*
X312420000Y-124460000D02*
X312420000Y-119380000D01*
X294640000Y-119380000D02*
X299720000Y-119380000D01*
X299720000Y-119380000D02*
X299720000Y-124460000D01*
X299720000Y-124460000D02*
X294640000Y-124460000D01*
X294640000Y-124460000D02*
X294640000Y-119380000D01*
X262890000Y-118110000D02*
X265430000Y-118110000D01*
X265430000Y-118110000D02*
X265430000Y-125730000D01*
X265430000Y-125730000D02*
X262890000Y-125730000D01*
X262890000Y-125730000D02*
X262890000Y-118110000D01*
X265430000Y-120650000D02*
X262890000Y-120650000D01*
X247650000Y-118110000D02*
X250190000Y-118110000D01*
X250190000Y-118110000D02*
X250190000Y-125730000D01*
X250190000Y-125730000D02*
X247650000Y-125730000D01*
X247650000Y-125730000D02*
X247650000Y-118110000D01*
X250190000Y-120650000D02*
X247650000Y-120650000D01*
X232410000Y-118110000D02*
X234950000Y-118110000D01*
X234950000Y-118110000D02*
X234950000Y-125730000D01*
X234950000Y-125730000D02*
X232410000Y-125730000D01*
X232410000Y-125730000D02*
X232410000Y-118110000D01*
X234950000Y-120650000D02*
X232410000Y-120650000D01*
X208280000Y-118110000D02*
X213360000Y-118110000D01*
X213360000Y-118110000D02*
X213360000Y-123190000D01*
X213360000Y-123190000D02*
X208280000Y-123190000D01*
X208280000Y-123190000D02*
X208280000Y-118110000D01*
D13*
X346440000Y-73540000D02*
G75*
G02X344440000Y-73540000I-1000000J0D01*
G01*
X344440000Y-73540000D02*
X342670000Y-73540000D01*
X342670000Y-73540000D02*
X342670000Y-109340000D01*
X342670000Y-109340000D02*
X348210000Y-109340000D01*
X348210000Y-109340000D02*
X348210000Y-73540000D01*
X348210000Y-73540000D02*
X346440000Y-73540000D01*
X340240000Y-73540000D02*
X340240000Y-109340000D01*
X340240000Y-109340000D02*
X350640000Y-109340000D01*
X350640000Y-109340000D02*
X350640000Y-73540000D01*
X350640000Y-73540000D02*
X340240000Y-73540000D01*
X182610000Y-73540000D02*
G75*
G02X180610000Y-73540000I-1000000J0D01*
G01*
X180610000Y-73540000D02*
X178840000Y-73540000D01*
X178840000Y-73540000D02*
X178840000Y-109340000D01*
X178840000Y-109340000D02*
X184380000Y-109340000D01*
X184380000Y-109340000D02*
X184380000Y-73540000D01*
X184380000Y-73540000D02*
X182610000Y-73540000D01*
X176410000Y-73540000D02*
X176410000Y-109340000D01*
X176410000Y-109340000D02*
X186810000Y-109340000D01*
X186810000Y-109340000D02*
X186810000Y-73540000D01*
X186810000Y-73540000D02*
X176410000Y-73540000D01*
X224520000Y-73540000D02*
G75*
G02X222520000Y-73540000I-1000000J0D01*
G01*
X222520000Y-73540000D02*
X220750000Y-73540000D01*
X220750000Y-73540000D02*
X220750000Y-109340000D01*
X220750000Y-109340000D02*
X226290000Y-109340000D01*
X226290000Y-109340000D02*
X226290000Y-73540000D01*
X226290000Y-73540000D02*
X224520000Y-73540000D01*
X218320000Y-73540000D02*
X218320000Y-109340000D01*
X218320000Y-109340000D02*
X228720000Y-109340000D01*
X228720000Y-109340000D02*
X228720000Y-73540000D01*
X228720000Y-73540000D02*
X218320000Y-73540000D01*
D14*
X323850000Y-53340000D02*
X326390000Y-53340000D01*
X326390000Y-53340000D02*
X326390000Y-60960000D01*
X326390000Y-60960000D02*
X323850000Y-60960000D01*
X323850000Y-60960000D02*
X323850000Y-53340000D01*
X326390000Y-55880000D02*
X323850000Y-55880000D01*
X308610000Y-53340000D02*
X311150000Y-53340000D01*
X311150000Y-53340000D02*
X311150000Y-60960000D01*
X311150000Y-60960000D02*
X308610000Y-60960000D01*
X308610000Y-60960000D02*
X308610000Y-53340000D01*
X311150000Y-55880000D02*
X308610000Y-55880000D01*
X293370000Y-53340000D02*
X295910000Y-53340000D01*
X295910000Y-53340000D02*
X295910000Y-60960000D01*
X295910000Y-60960000D02*
X293370000Y-60960000D01*
X293370000Y-60960000D02*
X293370000Y-53340000D01*
X295910000Y-55880000D02*
X293370000Y-55880000D01*
X278130000Y-53340000D02*
X280670000Y-53340000D01*
X280670000Y-53340000D02*
X280670000Y-60960000D01*
X280670000Y-60960000D02*
X278130000Y-60960000D01*
X278130000Y-60960000D02*
X278130000Y-53340000D01*
X280670000Y-55880000D02*
X278130000Y-55880000D01*
X262890000Y-53340000D02*
X265430000Y-53340000D01*
X265430000Y-53340000D02*
X265430000Y-60960000D01*
X265430000Y-60960000D02*
X262890000Y-60960000D01*
X262890000Y-60960000D02*
X262890000Y-53340000D01*
X265430000Y-55880000D02*
X262890000Y-55880000D01*
X247650000Y-53340000D02*
X250190000Y-53340000D01*
X250190000Y-53340000D02*
X250190000Y-60960000D01*
X250190000Y-60960000D02*
X247650000Y-60960000D01*
X247650000Y-60960000D02*
X247650000Y-53340000D01*
X250190000Y-55880000D02*
X247650000Y-55880000D01*
X232410000Y-53340000D02*
X234950000Y-53340000D01*
X234950000Y-53340000D02*
X234950000Y-60960000D01*
X234950000Y-60960000D02*
X232410000Y-60960000D01*
X232410000Y-60960000D02*
X232410000Y-53340000D01*
X234950000Y-55880000D02*
X232410000Y-55880000D01*
X217170000Y-53340000D02*
X219710000Y-53340000D01*
X219710000Y-53340000D02*
X219710000Y-60960000D01*
X219710000Y-60960000D02*
X217170000Y-60960000D01*
X217170000Y-60960000D02*
X217170000Y-53340000D01*
X219710000Y-55880000D02*
X217170000Y-55880000D01*
X201930000Y-53340000D02*
X204470000Y-53340000D01*
X204470000Y-53340000D02*
X204470000Y-60960000D01*
X204470000Y-60960000D02*
X201930000Y-60960000D01*
X201930000Y-60960000D02*
X201930000Y-53340000D01*
X204470000Y-55880000D02*
X201930000Y-55880000D01*
X186690000Y-53340000D02*
X189230000Y-53340000D01*
X189230000Y-53340000D02*
X189230000Y-60960000D01*
X189230000Y-60960000D02*
X186690000Y-60960000D01*
X186690000Y-60960000D02*
X186690000Y-53340000D01*
X189230000Y-55880000D02*
X186690000Y-55880000D01*
X171450000Y-53340000D02*
X173990000Y-53340000D01*
X173990000Y-53340000D02*
X173990000Y-60960000D01*
X173990000Y-60960000D02*
X171450000Y-60960000D01*
X171450000Y-60960000D02*
X171450000Y-53340000D01*
X173990000Y-55880000D02*
X171450000Y-55880000D01*
X156210000Y-53340000D02*
X158750000Y-53340000D01*
X158750000Y-53340000D02*
X158750000Y-60960000D01*
X158750000Y-60960000D02*
X156210000Y-60960000D01*
X156210000Y-60960000D02*
X156210000Y-53340000D01*
X158750000Y-55880000D02*
X156210000Y-55880000D01*
X140970000Y-53340000D02*
X143510000Y-53340000D01*
X143510000Y-53340000D02*
X143510000Y-60960000D01*
X143510000Y-60960000D02*
X140970000Y-60960000D01*
X140970000Y-60960000D02*
X140970000Y-53340000D01*
X143510000Y-55880000D02*
X140970000Y-55880000D01*
X125730000Y-53340000D02*
X128270000Y-53340000D01*
X128270000Y-53340000D02*
X128270000Y-60960000D01*
X128270000Y-60960000D02*
X125730000Y-60960000D01*
X125730000Y-60960000D02*
X125730000Y-53340000D01*
X128270000Y-55880000D02*
X125730000Y-55880000D01*
X110490000Y-53340000D02*
X113030000Y-53340000D01*
X113030000Y-53340000D02*
X113030000Y-60960000D01*
X113030000Y-60960000D02*
X110490000Y-60960000D01*
X110490000Y-60960000D02*
X110490000Y-53340000D01*
X113030000Y-55880000D02*
X110490000Y-55880000D01*
X95250000Y-53340000D02*
X97790000Y-53340000D01*
X97790000Y-53340000D02*
X97790000Y-60960000D01*
X97790000Y-60960000D02*
X95250000Y-60960000D01*
X95250000Y-60960000D02*
X95250000Y-53340000D01*
X97790000Y-55880000D02*
X95250000Y-55880000D01*
X80010000Y-53340000D02*
X82550000Y-53340000D01*
X82550000Y-53340000D02*
X82550000Y-60960000D01*
X82550000Y-60960000D02*
X80010000Y-60960000D01*
X80010000Y-60960000D02*
X80010000Y-53340000D01*
X82550000Y-55880000D02*
X80010000Y-55880000D01*
X64770000Y-53340000D02*
X67310000Y-53340000D01*
X67310000Y-53340000D02*
X67310000Y-60960000D01*
X67310000Y-60960000D02*
X64770000Y-60960000D01*
X64770000Y-60960000D02*
X64770000Y-53340000D01*
X67310000Y-55880000D02*
X64770000Y-55880000D01*
X302260000Y-124460000D02*
X302768000Y-124460000D01*
X309880000Y-124460000D02*
X309372000Y-124460000D01*
X309372000Y-124460000D02*
X309372000Y-123444000D01*
X309372000Y-123444000D02*
X302768000Y-123444000D01*
X302768000Y-123444000D02*
X302768000Y-125476000D01*
X302768000Y-125476000D02*
X309372000Y-125476000D01*
X309372000Y-125476000D02*
X309372000Y-124460000D01*
X302768000Y-123952000D02*
X303276000Y-123444000D01*
X364490000Y-74930000D02*
X363982000Y-74930000D01*
X356870000Y-74930000D02*
X357378000Y-74930000D01*
X357378000Y-74930000D02*
X357378000Y-75946000D01*
X357378000Y-75946000D02*
X363982000Y-75946000D01*
X363982000Y-75946000D02*
X363982000Y-73914000D01*
X363982000Y-73914000D02*
X357378000Y-73914000D01*
X357378000Y-73914000D02*
X357378000Y-74930000D01*
X363982000Y-75438000D02*
X363474000Y-75946000D01*
X374650000Y-74930000D02*
X375158000Y-74930000D01*
X382270000Y-74930000D02*
X381762000Y-74930000D01*
X381762000Y-74930000D02*
X381762000Y-73914000D01*
X381762000Y-73914000D02*
X375158000Y-73914000D01*
X375158000Y-73914000D02*
X375158000Y-75946000D01*
X375158000Y-75946000D02*
X381762000Y-75946000D01*
X381762000Y-75946000D02*
X381762000Y-74930000D01*
X375158000Y-74422000D02*
X375666000Y-73914000D01*
X392430000Y-74930000D02*
X392938000Y-74930000D01*
X400050000Y-74930000D02*
X399542000Y-74930000D01*
X399542000Y-74930000D02*
X399542000Y-73914000D01*
X399542000Y-73914000D02*
X392938000Y-73914000D01*
X392938000Y-73914000D02*
X392938000Y-75946000D01*
X392938000Y-75946000D02*
X399542000Y-75946000D01*
X399542000Y-75946000D02*
X399542000Y-74930000D01*
X392938000Y-74422000D02*
X393446000Y-73914000D01*
X320040000Y-124460000D02*
X320548000Y-124460000D01*
X327660000Y-124460000D02*
X327152000Y-124460000D01*
X327152000Y-124460000D02*
X327152000Y-123444000D01*
X327152000Y-123444000D02*
X320548000Y-123444000D01*
X320548000Y-123444000D02*
X320548000Y-125476000D01*
X320548000Y-125476000D02*
X327152000Y-125476000D01*
X327152000Y-125476000D02*
X327152000Y-124460000D01*
X320548000Y-123952000D02*
X321056000Y-123444000D01*
X284480000Y-124460000D02*
X284988000Y-124460000D01*
X292100000Y-124460000D02*
X291592000Y-124460000D01*
X291592000Y-124460000D02*
X291592000Y-123444000D01*
X291592000Y-123444000D02*
X284988000Y-123444000D01*
X284988000Y-123444000D02*
X284988000Y-125476000D01*
X284988000Y-125476000D02*
X291592000Y-125476000D01*
X291592000Y-125476000D02*
X291592000Y-124460000D01*
X284988000Y-123952000D02*
X285496000Y-123444000D01*
X85090000Y-83820000D02*
X85090000Y-84328000D01*
X85090000Y-91440000D02*
X85090000Y-90932000D01*
X85090000Y-90932000D02*
X86106000Y-90932000D01*
X86106000Y-90932000D02*
X86106000Y-84328000D01*
X86106000Y-84328000D02*
X84074000Y-84328000D01*
X84074000Y-84328000D02*
X84074000Y-90932000D01*
X84074000Y-90932000D02*
X85090000Y-90932000D01*
X85598000Y-84328000D02*
X86106000Y-84836000D01*
X78740000Y-83820000D02*
X78740000Y-84328000D01*
X78740000Y-91440000D02*
X78740000Y-90932000D01*
X78740000Y-90932000D02*
X79756000Y-90932000D01*
X79756000Y-90932000D02*
X79756000Y-84328000D01*
X79756000Y-84328000D02*
X77724000Y-84328000D01*
X77724000Y-84328000D02*
X77724000Y-90932000D01*
X77724000Y-90932000D02*
X78740000Y-90932000D01*
X79248000Y-84328000D02*
X79756000Y-84836000D01*
X72390000Y-83820000D02*
X72390000Y-84328000D01*
X72390000Y-91440000D02*
X72390000Y-90932000D01*
X72390000Y-90932000D02*
X73406000Y-90932000D01*
X73406000Y-90932000D02*
X73406000Y-84328000D01*
X73406000Y-84328000D02*
X71374000Y-84328000D01*
X71374000Y-84328000D02*
X71374000Y-90932000D01*
X71374000Y-90932000D02*
X72390000Y-90932000D01*
X72898000Y-84328000D02*
X73406000Y-84836000D01*
X196850000Y-123190000D02*
X197358000Y-123190000D01*
X204470000Y-123190000D02*
X203962000Y-123190000D01*
X203962000Y-123190000D02*
X203962000Y-122174000D01*
X203962000Y-122174000D02*
X197358000Y-122174000D01*
X197358000Y-122174000D02*
X197358000Y-124206000D01*
X197358000Y-124206000D02*
X203962000Y-124206000D01*
X203962000Y-124206000D02*
X203962000Y-123190000D01*
X197358000Y-122682000D02*
X197866000Y-122174000D01*
X165100000Y-123190000D02*
X165608000Y-123190000D01*
X172720000Y-123190000D02*
X172212000Y-123190000D01*
X172212000Y-123190000D02*
X172212000Y-122174000D01*
X172212000Y-122174000D02*
X165608000Y-122174000D01*
X165608000Y-122174000D02*
X165608000Y-124206000D01*
X165608000Y-124206000D02*
X172212000Y-124206000D01*
X172212000Y-124206000D02*
X172212000Y-123190000D01*
X165608000Y-122682000D02*
X166116000Y-122174000D01*
X133350000Y-123190000D02*
X133858000Y-123190000D01*
X140970000Y-123190000D02*
X140462000Y-123190000D01*
X140462000Y-123190000D02*
X140462000Y-122174000D01*
X140462000Y-122174000D02*
X133858000Y-122174000D01*
X133858000Y-122174000D02*
X133858000Y-124206000D01*
X133858000Y-124206000D02*
X140462000Y-124206000D01*
X140462000Y-124206000D02*
X140462000Y-123190000D01*
X133858000Y-122682000D02*
X134366000Y-122174000D01*
D13*
X373280000Y-117630000D02*
X373280000Y-123630000D01*
X373280000Y-123630000D02*
X381100000Y-123630000D01*
X381100000Y-123630000D02*
X381100000Y-117630000D01*
X381100000Y-117630000D02*
X373280000Y-117630000D01*
X374650000Y-123630000D02*
X374650000Y-122630000D01*
X374650000Y-122630000D02*
X379730000Y-122630000D01*
X379730000Y-122630000D02*
X379730000Y-123630000D01*
X374650000Y-122630000D02*
X374900000Y-122200000D01*
X374900000Y-122200000D02*
X379480000Y-122200000D01*
X379480000Y-122200000D02*
X379730000Y-122630000D01*
X374900000Y-123630000D02*
X374900000Y-122630000D01*
X379480000Y-123630000D02*
X379480000Y-122630000D01*
X373850000Y-117630000D02*
X373850000Y-118250000D01*
X373850000Y-118250000D02*
X375450000Y-118250000D01*
X375450000Y-118250000D02*
X375450000Y-117630000D01*
X376390000Y-117630000D02*
X376390000Y-118250000D01*
X376390000Y-118250000D02*
X377990000Y-118250000D01*
X377990000Y-118250000D02*
X377990000Y-117630000D01*
X378930000Y-117630000D02*
X378930000Y-118250000D01*
X378930000Y-118250000D02*
X380530000Y-118250000D01*
X380530000Y-118250000D02*
X380530000Y-117630000D01*
D14*
X177800000Y-118110000D02*
X182880000Y-118110000D01*
X182880000Y-118110000D02*
X182880000Y-123190000D01*
X182880000Y-123190000D02*
X177800000Y-123190000D01*
X177800000Y-123190000D02*
X177800000Y-118110000D01*
X147320000Y-118110000D02*
X152400000Y-118110000D01*
X152400000Y-118110000D02*
X152400000Y-123190000D01*
X152400000Y-123190000D02*
X147320000Y-123190000D01*
X147320000Y-123190000D02*
X147320000Y-118110000D01*
X118110000Y-118110000D02*
X120650000Y-118110000D01*
X120650000Y-118110000D02*
X120650000Y-125730000D01*
X120650000Y-125730000D02*
X118110000Y-125730000D01*
X118110000Y-125730000D02*
X118110000Y-118110000D01*
X120650000Y-120650000D02*
X118110000Y-120650000D01*
X102870000Y-118110000D02*
X105410000Y-118110000D01*
X105410000Y-118110000D02*
X105410000Y-125730000D01*
X105410000Y-125730000D02*
X102870000Y-125730000D01*
X102870000Y-125730000D02*
X102870000Y-118110000D01*
X105410000Y-120650000D02*
X102870000Y-120650000D01*
X87630000Y-118110000D02*
X90170000Y-118110000D01*
X90170000Y-118110000D02*
X90170000Y-125730000D01*
X90170000Y-125730000D02*
X87630000Y-125730000D01*
X87630000Y-125730000D02*
X87630000Y-118110000D01*
X90170000Y-120650000D02*
X87630000Y-120650000D01*
X72390000Y-118110000D02*
X74930000Y-118110000D01*
X74930000Y-118110000D02*
X74930000Y-125730000D01*
X74930000Y-125730000D02*
X72390000Y-125730000D01*
X72390000Y-125730000D02*
X72390000Y-118110000D01*
X74930000Y-120650000D02*
X72390000Y-120650000D01*
X126302381Y-96011905D02*
X127111905Y-96011905D01*
X127207143Y-95964286D01*
X127254762Y-95916667D01*
X127302381Y-95821429D01*
X127302381Y-95630952D01*
X127254762Y-95535714D01*
X127207143Y-95488095D01*
X127111905Y-95440476D01*
X126302381Y-95440476D01*
X126635714Y-94535714D02*
X127302381Y-94535714D01*
X126254762Y-94773810D02*
X126969048Y-95011905D01*
X126969048Y-94392857D01*
X55642381Y-107688095D02*
X54642381Y-107688095D01*
X54642381Y-107307142D01*
X54690000Y-107211904D01*
X54737619Y-107164285D01*
X54832857Y-107116666D01*
X54975714Y-107116666D01*
X55070952Y-107164285D01*
X55118571Y-107211904D01*
X55166190Y-107307142D01*
X55166190Y-107688095D01*
X55642381Y-106164285D02*
X55642381Y-106735714D01*
X55642381Y-106450000D02*
X54642381Y-106450000D01*
X54785238Y-106545238D01*
X54880476Y-106640476D01*
X54928095Y-106735714D01*
X359346667Y-83454762D02*
X359489524Y-83502381D01*
X359727620Y-83502381D01*
X359822858Y-83454762D01*
X359870477Y-83407143D01*
X359918096Y-83311905D01*
X359918096Y-83216667D01*
X359870477Y-83121429D01*
X359822858Y-83073810D01*
X359727620Y-83026190D01*
X359537143Y-82978571D01*
X359441905Y-82930952D01*
X359394286Y-82883333D01*
X359346667Y-82788095D01*
X359346667Y-82692857D01*
X359394286Y-82597619D01*
X359441905Y-82550000D01*
X359537143Y-82502381D01*
X359775239Y-82502381D01*
X359918096Y-82550000D01*
X360251429Y-82502381D02*
X360489524Y-83502381D01*
X360680001Y-82788095D01*
X360870477Y-83502381D01*
X361108572Y-82502381D01*
X362013334Y-83502381D02*
X361441905Y-83502381D01*
X361727619Y-83502381D02*
X361727619Y-82502381D01*
X361632381Y-82645238D01*
X361537143Y-82740476D01*
X361441905Y-82788095D01*
X377126667Y-83454762D02*
X377269524Y-83502381D01*
X377507620Y-83502381D01*
X377602858Y-83454762D01*
X377650477Y-83407143D01*
X377698096Y-83311905D01*
X377698096Y-83216667D01*
X377650477Y-83121429D01*
X377602858Y-83073810D01*
X377507620Y-83026190D01*
X377317143Y-82978571D01*
X377221905Y-82930952D01*
X377174286Y-82883333D01*
X377126667Y-82788095D01*
X377126667Y-82692857D01*
X377174286Y-82597619D01*
X377221905Y-82550000D01*
X377317143Y-82502381D01*
X377555239Y-82502381D01*
X377698096Y-82550000D01*
X378031429Y-82502381D02*
X378269524Y-83502381D01*
X378460001Y-82788095D01*
X378650477Y-83502381D01*
X378888572Y-82502381D01*
X379221905Y-82597619D02*
X379269524Y-82550000D01*
X379364762Y-82502381D01*
X379602858Y-82502381D01*
X379698096Y-82550000D01*
X379745715Y-82597619D01*
X379793334Y-82692857D01*
X379793334Y-82788095D01*
X379745715Y-82930952D01*
X379174286Y-83502381D01*
X379793334Y-83502381D01*
X394906667Y-83454762D02*
X395049524Y-83502381D01*
X395287620Y-83502381D01*
X395382858Y-83454762D01*
X395430477Y-83407143D01*
X395478096Y-83311905D01*
X395478096Y-83216667D01*
X395430477Y-83121429D01*
X395382858Y-83073810D01*
X395287620Y-83026190D01*
X395097143Y-82978571D01*
X395001905Y-82930952D01*
X394954286Y-82883333D01*
X394906667Y-82788095D01*
X394906667Y-82692857D01*
X394954286Y-82597619D01*
X395001905Y-82550000D01*
X395097143Y-82502381D01*
X395335239Y-82502381D01*
X395478096Y-82550000D01*
X395811429Y-82502381D02*
X396049524Y-83502381D01*
X396240001Y-82788095D01*
X396430477Y-83502381D01*
X396668572Y-82502381D01*
X396954286Y-82502381D02*
X397573334Y-82502381D01*
X397240000Y-82883333D01*
X397382858Y-82883333D01*
X397478096Y-82930952D01*
X397525715Y-82978571D01*
X397573334Y-83073810D01*
X397573334Y-83311905D01*
X397525715Y-83407143D01*
X397478096Y-83454762D01*
X397382858Y-83502381D01*
X397097143Y-83502381D01*
X397001905Y-83454762D01*
X396954286Y-83407143D01*
X331406667Y-122824762D02*
X331549524Y-122872381D01*
X331787620Y-122872381D01*
X331882858Y-122824762D01*
X331930477Y-122777143D01*
X331978096Y-122681905D01*
X331978096Y-122586667D01*
X331930477Y-122491429D01*
X331882858Y-122443810D01*
X331787620Y-122396190D01*
X331597143Y-122348571D01*
X331501905Y-122300952D01*
X331454286Y-122253333D01*
X331406667Y-122158095D01*
X331406667Y-122062857D01*
X331454286Y-121967619D01*
X331501905Y-121920000D01*
X331597143Y-121872381D01*
X331835239Y-121872381D01*
X331978096Y-121920000D01*
X332311429Y-121872381D02*
X332549524Y-122872381D01*
X332740001Y-122158095D01*
X332930477Y-122872381D01*
X333168572Y-121872381D01*
X334025715Y-121872381D02*
X333549524Y-121872381D01*
X333501905Y-122348571D01*
X333549524Y-122300952D01*
X333644762Y-122253333D01*
X333882858Y-122253333D01*
X333978096Y-122300952D01*
X334025715Y-122348571D01*
X334073334Y-122443810D01*
X334073334Y-122681905D01*
X334025715Y-122777143D01*
X333978096Y-122824762D01*
X333882858Y-122872381D01*
X333644762Y-122872381D01*
X333549524Y-122824762D01*
X333501905Y-122777143D01*
X313626667Y-122824762D02*
X313769524Y-122872381D01*
X314007620Y-122872381D01*
X314102858Y-122824762D01*
X314150477Y-122777143D01*
X314198096Y-122681905D01*
X314198096Y-122586667D01*
X314150477Y-122491429D01*
X314102858Y-122443810D01*
X314007620Y-122396190D01*
X313817143Y-122348571D01*
X313721905Y-122300952D01*
X313674286Y-122253333D01*
X313626667Y-122158095D01*
X313626667Y-122062857D01*
X313674286Y-121967619D01*
X313721905Y-121920000D01*
X313817143Y-121872381D01*
X314055239Y-121872381D01*
X314198096Y-121920000D01*
X314531429Y-121872381D02*
X314769524Y-122872381D01*
X314960001Y-122158095D01*
X315150477Y-122872381D01*
X315388572Y-121872381D01*
X316198096Y-121872381D02*
X316007619Y-121872381D01*
X315912381Y-121920000D01*
X315864762Y-121967619D01*
X315769524Y-122110476D01*
X315721905Y-122300952D01*
X315721905Y-122681905D01*
X315769524Y-122777143D01*
X315817143Y-122824762D01*
X315912381Y-122872381D01*
X316102858Y-122872381D01*
X316198096Y-122824762D01*
X316245715Y-122777143D01*
X316293334Y-122681905D01*
X316293334Y-122443810D01*
X316245715Y-122348571D01*
X316198096Y-122300952D01*
X316102858Y-122253333D01*
X315912381Y-122253333D01*
X315817143Y-122300952D01*
X315769524Y-122348571D01*
X315721905Y-122443810D01*
X294576667Y-121054762D02*
X294719524Y-121102381D01*
X294957620Y-121102381D01*
X295052858Y-121054762D01*
X295100477Y-121007143D01*
X295148096Y-120911905D01*
X295148096Y-120816667D01*
X295100477Y-120721429D01*
X295052858Y-120673810D01*
X294957620Y-120626190D01*
X294767143Y-120578571D01*
X294671905Y-120530952D01*
X294624286Y-120483333D01*
X294576667Y-120388095D01*
X294576667Y-120292857D01*
X294624286Y-120197619D01*
X294671905Y-120150000D01*
X294767143Y-120102381D01*
X295005239Y-120102381D01*
X295148096Y-120150000D01*
X295481429Y-120102381D02*
X295719524Y-121102381D01*
X295910001Y-120388095D01*
X296100477Y-121102381D01*
X296338572Y-120102381D01*
X296624286Y-120102381D02*
X297290953Y-120102381D01*
X296862381Y-121102381D01*
X267104762Y-123253333D02*
X267152381Y-123110476D01*
X267152381Y-122872380D01*
X267104762Y-122777142D01*
X267057143Y-122729523D01*
X266961905Y-122681904D01*
X266866667Y-122681904D01*
X266771429Y-122729523D01*
X266723810Y-122777142D01*
X266676190Y-122872380D01*
X266628571Y-123062857D01*
X266580952Y-123158095D01*
X266533333Y-123205714D01*
X266438095Y-123253333D01*
X266342857Y-123253333D01*
X266247619Y-123205714D01*
X266200000Y-123158095D01*
X266152381Y-123062857D01*
X266152381Y-122824761D01*
X266200000Y-122681904D01*
X266152381Y-122348571D02*
X267152381Y-122110476D01*
X266438095Y-121919999D01*
X267152381Y-121729523D01*
X266152381Y-121491428D01*
X266580952Y-120967619D02*
X266533333Y-121062857D01*
X266485714Y-121110476D01*
X266390476Y-121158095D01*
X266342857Y-121158095D01*
X266247619Y-121110476D01*
X266200000Y-121062857D01*
X266152381Y-120967619D01*
X266152381Y-120777142D01*
X266200000Y-120681904D01*
X266247619Y-120634285D01*
X266342857Y-120586666D01*
X266390476Y-120586666D01*
X266485714Y-120634285D01*
X266533333Y-120681904D01*
X266580952Y-120777142D01*
X266580952Y-120967619D01*
X266628571Y-121062857D01*
X266676190Y-121110476D01*
X266771429Y-121158095D01*
X266961905Y-121158095D01*
X267057143Y-121110476D01*
X267104762Y-121062857D01*
X267152381Y-120967619D01*
X267152381Y-120777142D01*
X267104762Y-120681904D01*
X267057143Y-120634285D01*
X266961905Y-120586666D01*
X266771429Y-120586666D01*
X266676190Y-120634285D01*
X266628571Y-120681904D01*
X266580952Y-120777142D01*
X251864762Y-123253333D02*
X251912381Y-123110476D01*
X251912381Y-122872380D01*
X251864762Y-122777142D01*
X251817143Y-122729523D01*
X251721905Y-122681904D01*
X251626667Y-122681904D01*
X251531429Y-122729523D01*
X251483810Y-122777142D01*
X251436190Y-122872380D01*
X251388571Y-123062857D01*
X251340952Y-123158095D01*
X251293333Y-123205714D01*
X251198095Y-123253333D01*
X251102857Y-123253333D01*
X251007619Y-123205714D01*
X250960000Y-123158095D01*
X250912381Y-123062857D01*
X250912381Y-122824761D01*
X250960000Y-122681904D01*
X250912381Y-122348571D02*
X251912381Y-122110476D01*
X251198095Y-121919999D01*
X251912381Y-121729523D01*
X250912381Y-121491428D01*
X251912381Y-121062857D02*
X251912381Y-120872381D01*
X251864762Y-120777142D01*
X251817143Y-120729523D01*
X251674286Y-120634285D01*
X251483810Y-120586666D01*
X251102857Y-120586666D01*
X251007619Y-120634285D01*
X250960000Y-120681904D01*
X250912381Y-120777142D01*
X250912381Y-120967619D01*
X250960000Y-121062857D01*
X251007619Y-121110476D01*
X251102857Y-121158095D01*
X251340952Y-121158095D01*
X251436190Y-121110476D01*
X251483810Y-121062857D01*
X251531429Y-120967619D01*
X251531429Y-120777142D01*
X251483810Y-120681904D01*
X251436190Y-120634285D01*
X251340952Y-120586666D01*
X236624762Y-123729524D02*
X236672381Y-123586667D01*
X236672381Y-123348571D01*
X236624762Y-123253333D01*
X236577143Y-123205714D01*
X236481905Y-123158095D01*
X236386667Y-123158095D01*
X236291429Y-123205714D01*
X236243810Y-123253333D01*
X236196190Y-123348571D01*
X236148571Y-123539048D01*
X236100952Y-123634286D01*
X236053333Y-123681905D01*
X235958095Y-123729524D01*
X235862857Y-123729524D01*
X235767619Y-123681905D01*
X235720000Y-123634286D01*
X235672381Y-123539048D01*
X235672381Y-123300952D01*
X235720000Y-123158095D01*
X235672381Y-122824762D02*
X236672381Y-122586667D01*
X235958095Y-122396190D01*
X236672381Y-122205714D01*
X235672381Y-121967619D01*
X236672381Y-121062857D02*
X236672381Y-121634286D01*
X236672381Y-121348572D02*
X235672381Y-121348572D01*
X235815238Y-121443810D01*
X235910476Y-121539048D01*
X235958095Y-121634286D01*
X235672381Y-120443810D02*
X235672381Y-120348571D01*
X235720000Y-120253333D01*
X235767619Y-120205714D01*
X235862857Y-120158095D01*
X236053333Y-120110476D01*
X236291429Y-120110476D01*
X236481905Y-120158095D01*
X236577143Y-120205714D01*
X236624762Y-120253333D01*
X236672381Y-120348571D01*
X236672381Y-120443810D01*
X236624762Y-120539048D01*
X236577143Y-120586667D01*
X236481905Y-120634286D01*
X236291429Y-120681905D01*
X236053333Y-120681905D01*
X235862857Y-120634286D01*
X235767619Y-120586667D01*
X235720000Y-120539048D01*
X235672381Y-120443810D01*
X209010476Y-127404762D02*
X209153333Y-127452381D01*
X209391429Y-127452381D01*
X209486667Y-127404762D01*
X209534286Y-127357143D01*
X209581905Y-127261905D01*
X209581905Y-127166667D01*
X209534286Y-127071429D01*
X209486667Y-127023810D01*
X209391429Y-126976190D01*
X209200952Y-126928571D01*
X209105714Y-126880952D01*
X209058095Y-126833333D01*
X209010476Y-126738095D01*
X209010476Y-126642857D01*
X209058095Y-126547619D01*
X209105714Y-126500000D01*
X209200952Y-126452381D01*
X209439048Y-126452381D01*
X209581905Y-126500000D01*
X209915238Y-126452381D02*
X210153333Y-127452381D01*
X210343810Y-126738095D01*
X210534286Y-127452381D01*
X210772381Y-126452381D01*
X211677143Y-127452381D02*
X211105714Y-127452381D01*
X211391428Y-127452381D02*
X211391428Y-126452381D01*
X211296190Y-126595238D01*
X211200952Y-126690476D01*
X211105714Y-126738095D01*
X212629524Y-127452381D02*
X212058095Y-127452381D01*
X212343809Y-127452381D02*
X212343809Y-126452381D01*
X212248571Y-126595238D01*
X212153333Y-126690476D01*
X212058095Y-126738095D01*
X344678095Y-71992381D02*
X344678095Y-72801905D01*
X344725714Y-72897143D01*
X344773333Y-72944762D01*
X344868571Y-72992381D01*
X345059048Y-72992381D01*
X345154286Y-72944762D01*
X345201905Y-72897143D01*
X345249524Y-72801905D01*
X345249524Y-71992381D01*
X346249524Y-72992381D02*
X345678095Y-72992381D01*
X345963809Y-72992381D02*
X345963809Y-71992381D01*
X345868571Y-72135238D01*
X345773333Y-72230476D01*
X345678095Y-72278095D01*
X180848095Y-71992381D02*
X180848095Y-72801905D01*
X180895714Y-72897143D01*
X180943333Y-72944762D01*
X181038571Y-72992381D01*
X181229048Y-72992381D01*
X181324286Y-72944762D01*
X181371905Y-72897143D01*
X181419524Y-72801905D01*
X181419524Y-71992381D01*
X181848095Y-72087619D02*
X181895714Y-72040000D01*
X181990952Y-71992381D01*
X182229048Y-71992381D01*
X182324286Y-72040000D01*
X182371905Y-72087619D01*
X182419524Y-72182857D01*
X182419524Y-72278095D01*
X182371905Y-72420952D01*
X181800476Y-72992381D01*
X182419524Y-72992381D01*
X222758095Y-71992381D02*
X222758095Y-72801905D01*
X222805714Y-72897143D01*
X222853333Y-72944762D01*
X222948571Y-72992381D01*
X223139048Y-72992381D01*
X223234286Y-72944762D01*
X223281905Y-72897143D01*
X223329524Y-72801905D01*
X223329524Y-71992381D01*
X223710476Y-71992381D02*
X224329524Y-71992381D01*
X223996190Y-72373333D01*
X224139048Y-72373333D01*
X224234286Y-72420952D01*
X224281905Y-72468571D01*
X224329524Y-72563810D01*
X224329524Y-72801905D01*
X224281905Y-72897143D01*
X224234286Y-72944762D01*
X224139048Y-72992381D01*
X223853333Y-72992381D01*
X223758095Y-72944762D01*
X223710476Y-72897143D01*
X327112381Y-58554762D02*
X328112381Y-58316667D01*
X327398095Y-58126190D01*
X328112381Y-57935714D01*
X327112381Y-57697619D01*
X327160000Y-56792857D02*
X327112381Y-56888095D01*
X327112381Y-57030952D01*
X327160000Y-57173810D01*
X327255238Y-57269048D01*
X327350476Y-57316667D01*
X327540952Y-57364286D01*
X327683810Y-57364286D01*
X327874286Y-57316667D01*
X327969524Y-57269048D01*
X328064762Y-57173810D01*
X328112381Y-57030952D01*
X328112381Y-56935714D01*
X328064762Y-56792857D01*
X328017143Y-56745238D01*
X327683810Y-56745238D01*
X327683810Y-56935714D01*
X328112381Y-55792857D02*
X328112381Y-56364286D01*
X328112381Y-56078572D02*
X327112381Y-56078572D01*
X327255238Y-56173810D01*
X327350476Y-56269048D01*
X327398095Y-56364286D01*
X311872381Y-58554762D02*
X312872381Y-58316667D01*
X312158095Y-58126190D01*
X312872381Y-57935714D01*
X311872381Y-57697619D01*
X311920000Y-56792857D02*
X311872381Y-56888095D01*
X311872381Y-57030952D01*
X311920000Y-57173810D01*
X312015238Y-57269048D01*
X312110476Y-57316667D01*
X312300952Y-57364286D01*
X312443810Y-57364286D01*
X312634286Y-57316667D01*
X312729524Y-57269048D01*
X312824762Y-57173810D01*
X312872381Y-57030952D01*
X312872381Y-56935714D01*
X312824762Y-56792857D01*
X312777143Y-56745238D01*
X312443810Y-56745238D01*
X312443810Y-56935714D01*
X311967619Y-56364286D02*
X311920000Y-56316667D01*
X311872381Y-56221429D01*
X311872381Y-55983333D01*
X311920000Y-55888095D01*
X311967619Y-55840476D01*
X312062857Y-55792857D01*
X312158095Y-55792857D01*
X312300952Y-55840476D01*
X312872381Y-56411905D01*
X312872381Y-55792857D01*
X296632381Y-58554762D02*
X297632381Y-58316667D01*
X296918095Y-58126190D01*
X297632381Y-57935714D01*
X296632381Y-57697619D01*
X296680000Y-56792857D02*
X296632381Y-56888095D01*
X296632381Y-57030952D01*
X296680000Y-57173810D01*
X296775238Y-57269048D01*
X296870476Y-57316667D01*
X297060952Y-57364286D01*
X297203810Y-57364286D01*
X297394286Y-57316667D01*
X297489524Y-57269048D01*
X297584762Y-57173810D01*
X297632381Y-57030952D01*
X297632381Y-56935714D01*
X297584762Y-56792857D01*
X297537143Y-56745238D01*
X297203810Y-56745238D01*
X297203810Y-56935714D01*
X296632381Y-56411905D02*
X296632381Y-55792857D01*
X297013333Y-56126191D01*
X297013333Y-55983333D01*
X297060952Y-55888095D01*
X297108571Y-55840476D01*
X297203810Y-55792857D01*
X297441905Y-55792857D01*
X297537143Y-55840476D01*
X297584762Y-55888095D01*
X297632381Y-55983333D01*
X297632381Y-56269048D01*
X297584762Y-56364286D01*
X297537143Y-56411905D01*
X281392381Y-58554762D02*
X282392381Y-58316667D01*
X281678095Y-58126190D01*
X282392381Y-57935714D01*
X281392381Y-57697619D01*
X281440000Y-56792857D02*
X281392381Y-56888095D01*
X281392381Y-57030952D01*
X281440000Y-57173810D01*
X281535238Y-57269048D01*
X281630476Y-57316667D01*
X281820952Y-57364286D01*
X281963810Y-57364286D01*
X282154286Y-57316667D01*
X282249524Y-57269048D01*
X282344762Y-57173810D01*
X282392381Y-57030952D01*
X282392381Y-56935714D01*
X282344762Y-56792857D01*
X282297143Y-56745238D01*
X281963810Y-56745238D01*
X281963810Y-56935714D01*
X281725714Y-55888095D02*
X282392381Y-55888095D01*
X281344762Y-56126191D02*
X282059048Y-56364286D01*
X282059048Y-55745238D01*
X266152381Y-58554762D02*
X267152381Y-58316667D01*
X266438095Y-58126190D01*
X267152381Y-57935714D01*
X266152381Y-57697619D01*
X266200000Y-56792857D02*
X266152381Y-56888095D01*
X266152381Y-57030952D01*
X266200000Y-57173810D01*
X266295238Y-57269048D01*
X266390476Y-57316667D01*
X266580952Y-57364286D01*
X266723810Y-57364286D01*
X266914286Y-57316667D01*
X267009524Y-57269048D01*
X267104762Y-57173810D01*
X267152381Y-57030952D01*
X267152381Y-56935714D01*
X267104762Y-56792857D01*
X267057143Y-56745238D01*
X266723810Y-56745238D01*
X266723810Y-56935714D01*
X266152381Y-55840476D02*
X266152381Y-56316667D01*
X266628571Y-56364286D01*
X266580952Y-56316667D01*
X266533333Y-56221429D01*
X266533333Y-55983333D01*
X266580952Y-55888095D01*
X266628571Y-55840476D01*
X266723810Y-55792857D01*
X266961905Y-55792857D01*
X267057143Y-55840476D01*
X267104762Y-55888095D01*
X267152381Y-55983333D01*
X267152381Y-56221429D01*
X267104762Y-56316667D01*
X267057143Y-56364286D01*
X250912381Y-58554762D02*
X251912381Y-58316667D01*
X251198095Y-58126190D01*
X251912381Y-57935714D01*
X250912381Y-57697619D01*
X250960000Y-56792857D02*
X250912381Y-56888095D01*
X250912381Y-57030952D01*
X250960000Y-57173810D01*
X251055238Y-57269048D01*
X251150476Y-57316667D01*
X251340952Y-57364286D01*
X251483810Y-57364286D01*
X251674286Y-57316667D01*
X251769524Y-57269048D01*
X251864762Y-57173810D01*
X251912381Y-57030952D01*
X251912381Y-56935714D01*
X251864762Y-56792857D01*
X251817143Y-56745238D01*
X251483810Y-56745238D01*
X251483810Y-56935714D01*
X250912381Y-55888095D02*
X250912381Y-56078572D01*
X250960000Y-56173810D01*
X251007619Y-56221429D01*
X251150476Y-56316667D01*
X251340952Y-56364286D01*
X251721905Y-56364286D01*
X251817143Y-56316667D01*
X251864762Y-56269048D01*
X251912381Y-56173810D01*
X251912381Y-55983333D01*
X251864762Y-55888095D01*
X251817143Y-55840476D01*
X251721905Y-55792857D01*
X251483810Y-55792857D01*
X251388571Y-55840476D01*
X251340952Y-55888095D01*
X251293333Y-55983333D01*
X251293333Y-56173810D01*
X251340952Y-56269048D01*
X251388571Y-56316667D01*
X251483810Y-56364286D01*
X235672381Y-58554762D02*
X236672381Y-58316667D01*
X235958095Y-58126190D01*
X236672381Y-57935714D01*
X235672381Y-57697619D01*
X235720000Y-56792857D02*
X235672381Y-56888095D01*
X235672381Y-57030952D01*
X235720000Y-57173810D01*
X235815238Y-57269048D01*
X235910476Y-57316667D01*
X236100952Y-57364286D01*
X236243810Y-57364286D01*
X236434286Y-57316667D01*
X236529524Y-57269048D01*
X236624762Y-57173810D01*
X236672381Y-57030952D01*
X236672381Y-56935714D01*
X236624762Y-56792857D01*
X236577143Y-56745238D01*
X236243810Y-56745238D01*
X236243810Y-56935714D01*
X235672381Y-56411905D02*
X235672381Y-55745238D01*
X236672381Y-56173810D01*
X220432381Y-58554762D02*
X221432381Y-58316667D01*
X220718095Y-58126190D01*
X221432381Y-57935714D01*
X220432381Y-57697619D01*
X220480000Y-56792857D02*
X220432381Y-56888095D01*
X220432381Y-57030952D01*
X220480000Y-57173810D01*
X220575238Y-57269048D01*
X220670476Y-57316667D01*
X220860952Y-57364286D01*
X221003810Y-57364286D01*
X221194286Y-57316667D01*
X221289524Y-57269048D01*
X221384762Y-57173810D01*
X221432381Y-57030952D01*
X221432381Y-56935714D01*
X221384762Y-56792857D01*
X221337143Y-56745238D01*
X221003810Y-56745238D01*
X221003810Y-56935714D01*
X220860952Y-56173810D02*
X220813333Y-56269048D01*
X220765714Y-56316667D01*
X220670476Y-56364286D01*
X220622857Y-56364286D01*
X220527619Y-56316667D01*
X220480000Y-56269048D01*
X220432381Y-56173810D01*
X220432381Y-55983333D01*
X220480000Y-55888095D01*
X220527619Y-55840476D01*
X220622857Y-55792857D01*
X220670476Y-55792857D01*
X220765714Y-55840476D01*
X220813333Y-55888095D01*
X220860952Y-55983333D01*
X220860952Y-56173810D01*
X220908571Y-56269048D01*
X220956190Y-56316667D01*
X221051429Y-56364286D01*
X221241905Y-56364286D01*
X221337143Y-56316667D01*
X221384762Y-56269048D01*
X221432381Y-56173810D01*
X221432381Y-55983333D01*
X221384762Y-55888095D01*
X221337143Y-55840476D01*
X221241905Y-55792857D01*
X221051429Y-55792857D01*
X220956190Y-55840476D01*
X220908571Y-55888095D01*
X220860952Y-55983333D01*
X205192381Y-58554762D02*
X206192381Y-58316667D01*
X205478095Y-58126190D01*
X206192381Y-57935714D01*
X205192381Y-57697619D01*
X205240000Y-56792857D02*
X205192381Y-56888095D01*
X205192381Y-57030952D01*
X205240000Y-57173810D01*
X205335238Y-57269048D01*
X205430476Y-57316667D01*
X205620952Y-57364286D01*
X205763810Y-57364286D01*
X205954286Y-57316667D01*
X206049524Y-57269048D01*
X206144762Y-57173810D01*
X206192381Y-57030952D01*
X206192381Y-56935714D01*
X206144762Y-56792857D01*
X206097143Y-56745238D01*
X205763810Y-56745238D01*
X205763810Y-56935714D01*
X206192381Y-56269048D02*
X206192381Y-56078572D01*
X206144762Y-55983333D01*
X206097143Y-55935714D01*
X205954286Y-55840476D01*
X205763810Y-55792857D01*
X205382857Y-55792857D01*
X205287619Y-55840476D01*
X205240000Y-55888095D01*
X205192381Y-55983333D01*
X205192381Y-56173810D01*
X205240000Y-56269048D01*
X205287619Y-56316667D01*
X205382857Y-56364286D01*
X205620952Y-56364286D01*
X205716190Y-56316667D01*
X205763810Y-56269048D01*
X205811429Y-56173810D01*
X205811429Y-55983333D01*
X205763810Y-55888095D01*
X205716190Y-55840476D01*
X205620952Y-55792857D01*
X189952381Y-59030952D02*
X190952381Y-58792857D01*
X190238095Y-58602380D01*
X190952381Y-58411904D01*
X189952381Y-58173809D01*
X190000000Y-57269047D02*
X189952381Y-57364285D01*
X189952381Y-57507142D01*
X190000000Y-57650000D01*
X190095238Y-57745238D01*
X190190476Y-57792857D01*
X190380952Y-57840476D01*
X190523810Y-57840476D01*
X190714286Y-57792857D01*
X190809524Y-57745238D01*
X190904762Y-57650000D01*
X190952381Y-57507142D01*
X190952381Y-57411904D01*
X190904762Y-57269047D01*
X190857143Y-57221428D01*
X190523810Y-57221428D01*
X190523810Y-57411904D01*
X190952381Y-56269047D02*
X190952381Y-56840476D01*
X190952381Y-56554762D02*
X189952381Y-56554762D01*
X190095238Y-56650000D01*
X190190476Y-56745238D01*
X190238095Y-56840476D01*
X189952381Y-55650000D02*
X189952381Y-55554761D01*
X190000000Y-55459523D01*
X190047619Y-55411904D01*
X190142857Y-55364285D01*
X190333333Y-55316666D01*
X190571429Y-55316666D01*
X190761905Y-55364285D01*
X190857143Y-55411904D01*
X190904762Y-55459523D01*
X190952381Y-55554761D01*
X190952381Y-55650000D01*
X190904762Y-55745238D01*
X190857143Y-55792857D01*
X190761905Y-55840476D01*
X190571429Y-55888095D01*
X190333333Y-55888095D01*
X190142857Y-55840476D01*
X190047619Y-55792857D01*
X190000000Y-55745238D01*
X189952381Y-55650000D01*
X174712381Y-59030952D02*
X175712381Y-58792857D01*
X174998095Y-58602380D01*
X175712381Y-58411904D01*
X174712381Y-58173809D01*
X174760000Y-57269047D02*
X174712381Y-57364285D01*
X174712381Y-57507142D01*
X174760000Y-57650000D01*
X174855238Y-57745238D01*
X174950476Y-57792857D01*
X175140952Y-57840476D01*
X175283810Y-57840476D01*
X175474286Y-57792857D01*
X175569524Y-57745238D01*
X175664762Y-57650000D01*
X175712381Y-57507142D01*
X175712381Y-57411904D01*
X175664762Y-57269047D01*
X175617143Y-57221428D01*
X175283810Y-57221428D01*
X175283810Y-57411904D01*
X175712381Y-56269047D02*
X175712381Y-56840476D01*
X175712381Y-56554762D02*
X174712381Y-56554762D01*
X174855238Y-56650000D01*
X174950476Y-56745238D01*
X174998095Y-56840476D01*
X175712381Y-55316666D02*
X175712381Y-55888095D01*
X175712381Y-55602381D02*
X174712381Y-55602381D01*
X174855238Y-55697619D01*
X174950476Y-55792857D01*
X174998095Y-55888095D01*
X159472381Y-59030952D02*
X160472381Y-58792857D01*
X159758095Y-58602380D01*
X160472381Y-58411904D01*
X159472381Y-58173809D01*
X159520000Y-57269047D02*
X159472381Y-57364285D01*
X159472381Y-57507142D01*
X159520000Y-57650000D01*
X159615238Y-57745238D01*
X159710476Y-57792857D01*
X159900952Y-57840476D01*
X160043810Y-57840476D01*
X160234286Y-57792857D01*
X160329524Y-57745238D01*
X160424762Y-57650000D01*
X160472381Y-57507142D01*
X160472381Y-57411904D01*
X160424762Y-57269047D01*
X160377143Y-57221428D01*
X160043810Y-57221428D01*
X160043810Y-57411904D01*
X160472381Y-56269047D02*
X160472381Y-56840476D01*
X160472381Y-56554762D02*
X159472381Y-56554762D01*
X159615238Y-56650000D01*
X159710476Y-56745238D01*
X159758095Y-56840476D01*
X159567619Y-55888095D02*
X159520000Y-55840476D01*
X159472381Y-55745238D01*
X159472381Y-55507142D01*
X159520000Y-55411904D01*
X159567619Y-55364285D01*
X159662857Y-55316666D01*
X159758095Y-55316666D01*
X159900952Y-55364285D01*
X160472381Y-55935714D01*
X160472381Y-55316666D01*
X144232381Y-59030952D02*
X145232381Y-58792857D01*
X144518095Y-58602380D01*
X145232381Y-58411904D01*
X144232381Y-58173809D01*
X144280000Y-57269047D02*
X144232381Y-57364285D01*
X144232381Y-57507142D01*
X144280000Y-57650000D01*
X144375238Y-57745238D01*
X144470476Y-57792857D01*
X144660952Y-57840476D01*
X144803810Y-57840476D01*
X144994286Y-57792857D01*
X145089524Y-57745238D01*
X145184762Y-57650000D01*
X145232381Y-57507142D01*
X145232381Y-57411904D01*
X145184762Y-57269047D01*
X145137143Y-57221428D01*
X144803810Y-57221428D01*
X144803810Y-57411904D01*
X145232381Y-56269047D02*
X145232381Y-56840476D01*
X145232381Y-56554762D02*
X144232381Y-56554762D01*
X144375238Y-56650000D01*
X144470476Y-56745238D01*
X144518095Y-56840476D01*
X144232381Y-55935714D02*
X144232381Y-55316666D01*
X144613333Y-55650000D01*
X144613333Y-55507142D01*
X144660952Y-55411904D01*
X144708571Y-55364285D01*
X144803810Y-55316666D01*
X145041905Y-55316666D01*
X145137143Y-55364285D01*
X145184762Y-55411904D01*
X145232381Y-55507142D01*
X145232381Y-55792857D01*
X145184762Y-55888095D01*
X145137143Y-55935714D01*
X128992381Y-59030952D02*
X129992381Y-58792857D01*
X129278095Y-58602380D01*
X129992381Y-58411904D01*
X128992381Y-58173809D01*
X129040000Y-57269047D02*
X128992381Y-57364285D01*
X128992381Y-57507142D01*
X129040000Y-57650000D01*
X129135238Y-57745238D01*
X129230476Y-57792857D01*
X129420952Y-57840476D01*
X129563810Y-57840476D01*
X129754286Y-57792857D01*
X129849524Y-57745238D01*
X129944762Y-57650000D01*
X129992381Y-57507142D01*
X129992381Y-57411904D01*
X129944762Y-57269047D01*
X129897143Y-57221428D01*
X129563810Y-57221428D01*
X129563810Y-57411904D01*
X129992381Y-56269047D02*
X129992381Y-56840476D01*
X129992381Y-56554762D02*
X128992381Y-56554762D01*
X129135238Y-56650000D01*
X129230476Y-56745238D01*
X129278095Y-56840476D01*
X129325714Y-55411904D02*
X129992381Y-55411904D01*
X128944762Y-55650000D02*
X129659048Y-55888095D01*
X129659048Y-55269047D01*
X113752381Y-59030952D02*
X114752381Y-58792857D01*
X114038095Y-58602380D01*
X114752381Y-58411904D01*
X113752381Y-58173809D01*
X113800000Y-57269047D02*
X113752381Y-57364285D01*
X113752381Y-57507142D01*
X113800000Y-57650000D01*
X113895238Y-57745238D01*
X113990476Y-57792857D01*
X114180952Y-57840476D01*
X114323810Y-57840476D01*
X114514286Y-57792857D01*
X114609524Y-57745238D01*
X114704762Y-57650000D01*
X114752381Y-57507142D01*
X114752381Y-57411904D01*
X114704762Y-57269047D01*
X114657143Y-57221428D01*
X114323810Y-57221428D01*
X114323810Y-57411904D01*
X114752381Y-56269047D02*
X114752381Y-56840476D01*
X114752381Y-56554762D02*
X113752381Y-56554762D01*
X113895238Y-56650000D01*
X113990476Y-56745238D01*
X114038095Y-56840476D01*
X113752381Y-55364285D02*
X113752381Y-55840476D01*
X114228571Y-55888095D01*
X114180952Y-55840476D01*
X114133333Y-55745238D01*
X114133333Y-55507142D01*
X114180952Y-55411904D01*
X114228571Y-55364285D01*
X114323810Y-55316666D01*
X114561905Y-55316666D01*
X114657143Y-55364285D01*
X114704762Y-55411904D01*
X114752381Y-55507142D01*
X114752381Y-55745238D01*
X114704762Y-55840476D01*
X114657143Y-55888095D01*
X98512381Y-59030952D02*
X99512381Y-58792857D01*
X98798095Y-58602380D01*
X99512381Y-58411904D01*
X98512381Y-58173809D01*
X98560000Y-57269047D02*
X98512381Y-57364285D01*
X98512381Y-57507142D01*
X98560000Y-57650000D01*
X98655238Y-57745238D01*
X98750476Y-57792857D01*
X98940952Y-57840476D01*
X99083810Y-57840476D01*
X99274286Y-57792857D01*
X99369524Y-57745238D01*
X99464762Y-57650000D01*
X99512381Y-57507142D01*
X99512381Y-57411904D01*
X99464762Y-57269047D01*
X99417143Y-57221428D01*
X99083810Y-57221428D01*
X99083810Y-57411904D01*
X99512381Y-56269047D02*
X99512381Y-56840476D01*
X99512381Y-56554762D02*
X98512381Y-56554762D01*
X98655238Y-56650000D01*
X98750476Y-56745238D01*
X98798095Y-56840476D01*
X98512381Y-55411904D02*
X98512381Y-55602381D01*
X98560000Y-55697619D01*
X98607619Y-55745238D01*
X98750476Y-55840476D01*
X98940952Y-55888095D01*
X99321905Y-55888095D01*
X99417143Y-55840476D01*
X99464762Y-55792857D01*
X99512381Y-55697619D01*
X99512381Y-55507142D01*
X99464762Y-55411904D01*
X99417143Y-55364285D01*
X99321905Y-55316666D01*
X99083810Y-55316666D01*
X98988571Y-55364285D01*
X98940952Y-55411904D01*
X98893333Y-55507142D01*
X98893333Y-55697619D01*
X98940952Y-55792857D01*
X98988571Y-55840476D01*
X99083810Y-55888095D01*
X83272381Y-59030952D02*
X84272381Y-58792857D01*
X83558095Y-58602380D01*
X84272381Y-58411904D01*
X83272381Y-58173809D01*
X83320000Y-57269047D02*
X83272381Y-57364285D01*
X83272381Y-57507142D01*
X83320000Y-57650000D01*
X83415238Y-57745238D01*
X83510476Y-57792857D01*
X83700952Y-57840476D01*
X83843810Y-57840476D01*
X84034286Y-57792857D01*
X84129524Y-57745238D01*
X84224762Y-57650000D01*
X84272381Y-57507142D01*
X84272381Y-57411904D01*
X84224762Y-57269047D01*
X84177143Y-57221428D01*
X83843810Y-57221428D01*
X83843810Y-57411904D01*
X84272381Y-56269047D02*
X84272381Y-56840476D01*
X84272381Y-56554762D02*
X83272381Y-56554762D01*
X83415238Y-56650000D01*
X83510476Y-56745238D01*
X83558095Y-56840476D01*
X83272381Y-55935714D02*
X83272381Y-55269047D01*
X84272381Y-55697619D01*
X68032381Y-59030952D02*
X69032381Y-58792857D01*
X68318095Y-58602380D01*
X69032381Y-58411904D01*
X68032381Y-58173809D01*
X68080000Y-57269047D02*
X68032381Y-57364285D01*
X68032381Y-57507142D01*
X68080000Y-57650000D01*
X68175238Y-57745238D01*
X68270476Y-57792857D01*
X68460952Y-57840476D01*
X68603810Y-57840476D01*
X68794286Y-57792857D01*
X68889524Y-57745238D01*
X68984762Y-57650000D01*
X69032381Y-57507142D01*
X69032381Y-57411904D01*
X68984762Y-57269047D01*
X68937143Y-57221428D01*
X68603810Y-57221428D01*
X68603810Y-57411904D01*
X69032381Y-56269047D02*
X69032381Y-56840476D01*
X69032381Y-56554762D02*
X68032381Y-56554762D01*
X68175238Y-56650000D01*
X68270476Y-56745238D01*
X68318095Y-56840476D01*
X68460952Y-55697619D02*
X68413333Y-55792857D01*
X68365714Y-55840476D01*
X68270476Y-55888095D01*
X68222857Y-55888095D01*
X68127619Y-55840476D01*
X68080000Y-55792857D01*
X68032381Y-55697619D01*
X68032381Y-55507142D01*
X68080000Y-55411904D01*
X68127619Y-55364285D01*
X68222857Y-55316666D01*
X68270476Y-55316666D01*
X68365714Y-55364285D01*
X68413333Y-55411904D01*
X68460952Y-55507142D01*
X68460952Y-55697619D01*
X68508571Y-55792857D01*
X68556190Y-55840476D01*
X68651429Y-55888095D01*
X68841905Y-55888095D01*
X68937143Y-55840476D01*
X68984762Y-55792857D01*
X69032381Y-55697619D01*
X69032381Y-55507142D01*
X68984762Y-55411904D01*
X68937143Y-55364285D01*
X68841905Y-55316666D01*
X68651429Y-55316666D01*
X68556190Y-55364285D01*
X68508571Y-55411904D01*
X68460952Y-55507142D01*
X305903334Y-125039381D02*
X305570000Y-124563190D01*
X305331905Y-125039381D02*
X305331905Y-124039381D01*
X305712858Y-124039381D01*
X305808096Y-124087000D01*
X305855715Y-124134619D01*
X305903334Y-124229857D01*
X305903334Y-124372714D01*
X305855715Y-124467952D01*
X305808096Y-124515571D01*
X305712858Y-124563190D01*
X305331905Y-124563190D01*
X306808096Y-124039381D02*
X306331905Y-124039381D01*
X306284286Y-124515571D01*
X306331905Y-124467952D01*
X306427143Y-124420333D01*
X306665239Y-124420333D01*
X306760477Y-124467952D01*
X306808096Y-124515571D01*
X306855715Y-124610810D01*
X306855715Y-124848905D01*
X306808096Y-124944143D01*
X306760477Y-124991762D01*
X306665239Y-125039381D01*
X306427143Y-125039381D01*
X306331905Y-124991762D01*
X306284286Y-124944143D01*
X360513334Y-75255381D02*
X360180000Y-74779190D01*
X359941905Y-75255381D02*
X359941905Y-74255381D01*
X360322858Y-74255381D01*
X360418096Y-74303000D01*
X360465715Y-74350619D01*
X360513334Y-74445857D01*
X360513334Y-74588714D01*
X360465715Y-74683952D01*
X360418096Y-74731571D01*
X360322858Y-74779190D01*
X359941905Y-74779190D01*
X361465715Y-75255381D02*
X360894286Y-75255381D01*
X361180000Y-75255381D02*
X361180000Y-74255381D01*
X361084762Y-74398238D01*
X360989524Y-74493476D01*
X360894286Y-74541095D01*
X378293334Y-75509381D02*
X377960000Y-75033190D01*
X377721905Y-75509381D02*
X377721905Y-74509381D01*
X378102858Y-74509381D01*
X378198096Y-74557000D01*
X378245715Y-74604619D01*
X378293334Y-74699857D01*
X378293334Y-74842714D01*
X378245715Y-74937952D01*
X378198096Y-74985571D01*
X378102858Y-75033190D01*
X377721905Y-75033190D01*
X378674286Y-74604619D02*
X378721905Y-74557000D01*
X378817143Y-74509381D01*
X379055239Y-74509381D01*
X379150477Y-74557000D01*
X379198096Y-74604619D01*
X379245715Y-74699857D01*
X379245715Y-74795095D01*
X379198096Y-74937952D01*
X378626667Y-75509381D01*
X379245715Y-75509381D01*
X396073334Y-75509381D02*
X395740000Y-75033190D01*
X395501905Y-75509381D02*
X395501905Y-74509381D01*
X395882858Y-74509381D01*
X395978096Y-74557000D01*
X396025715Y-74604619D01*
X396073334Y-74699857D01*
X396073334Y-74842714D01*
X396025715Y-74937952D01*
X395978096Y-74985571D01*
X395882858Y-75033190D01*
X395501905Y-75033190D01*
X396406667Y-74509381D02*
X397025715Y-74509381D01*
X396692381Y-74890333D01*
X396835239Y-74890333D01*
X396930477Y-74937952D01*
X396978096Y-74985571D01*
X397025715Y-75080810D01*
X397025715Y-75318905D01*
X396978096Y-75414143D01*
X396930477Y-75461762D01*
X396835239Y-75509381D01*
X396549524Y-75509381D01*
X396454286Y-75461762D01*
X396406667Y-75414143D01*
X323683334Y-125039381D02*
X323350000Y-124563190D01*
X323111905Y-125039381D02*
X323111905Y-124039381D01*
X323492858Y-124039381D01*
X323588096Y-124087000D01*
X323635715Y-124134619D01*
X323683334Y-124229857D01*
X323683334Y-124372714D01*
X323635715Y-124467952D01*
X323588096Y-124515571D01*
X323492858Y-124563190D01*
X323111905Y-124563190D01*
X324540477Y-124372714D02*
X324540477Y-125039381D01*
X324302381Y-123991762D02*
X324064286Y-124706048D01*
X324683334Y-124706048D01*
X288123334Y-125039381D02*
X287790000Y-124563190D01*
X287551905Y-125039381D02*
X287551905Y-124039381D01*
X287932858Y-124039381D01*
X288028096Y-124087000D01*
X288075715Y-124134619D01*
X288123334Y-124229857D01*
X288123334Y-124372714D01*
X288075715Y-124467952D01*
X288028096Y-124515571D01*
X287932858Y-124563190D01*
X287551905Y-124563190D01*
X288980477Y-124039381D02*
X288790000Y-124039381D01*
X288694762Y-124087000D01*
X288647143Y-124134619D01*
X288551905Y-124277476D01*
X288504286Y-124467952D01*
X288504286Y-124848905D01*
X288551905Y-124944143D01*
X288599524Y-124991762D01*
X288694762Y-125039381D01*
X288885239Y-125039381D01*
X288980477Y-124991762D01*
X289028096Y-124944143D01*
X289075715Y-124848905D01*
X289075715Y-124610810D01*
X289028096Y-124515571D01*
X288980477Y-124467952D01*
X288885239Y-124420333D01*
X288694762Y-124420333D01*
X288599524Y-124467952D01*
X288551905Y-124515571D01*
X288504286Y-124610810D01*
X85415381Y-87796666D02*
X84939190Y-88130000D01*
X85415381Y-88368095D02*
X84415381Y-88368095D01*
X84415381Y-87987142D01*
X84463000Y-87891904D01*
X84510619Y-87844285D01*
X84605857Y-87796666D01*
X84748714Y-87796666D01*
X84843952Y-87844285D01*
X84891571Y-87891904D01*
X84939190Y-87987142D01*
X84939190Y-88368095D01*
X84415381Y-87463333D02*
X84415381Y-86796666D01*
X85415381Y-87225238D01*
X79065381Y-87796666D02*
X78589190Y-88130000D01*
X79065381Y-88368095D02*
X78065381Y-88368095D01*
X78065381Y-87987142D01*
X78113000Y-87891904D01*
X78160619Y-87844285D01*
X78255857Y-87796666D01*
X78398714Y-87796666D01*
X78493952Y-87844285D01*
X78541571Y-87891904D01*
X78589190Y-87987142D01*
X78589190Y-88368095D01*
X78493952Y-87225238D02*
X78446333Y-87320476D01*
X78398714Y-87368095D01*
X78303476Y-87415714D01*
X78255857Y-87415714D01*
X78160619Y-87368095D01*
X78113000Y-87320476D01*
X78065381Y-87225238D01*
X78065381Y-87034761D01*
X78113000Y-86939523D01*
X78160619Y-86891904D01*
X78255857Y-86844285D01*
X78303476Y-86844285D01*
X78398714Y-86891904D01*
X78446333Y-86939523D01*
X78493952Y-87034761D01*
X78493952Y-87225238D01*
X78541571Y-87320476D01*
X78589190Y-87368095D01*
X78684429Y-87415714D01*
X78874905Y-87415714D01*
X78970143Y-87368095D01*
X79017762Y-87320476D01*
X79065381Y-87225238D01*
X79065381Y-87034761D01*
X79017762Y-86939523D01*
X78970143Y-86891904D01*
X78874905Y-86844285D01*
X78684429Y-86844285D01*
X78589190Y-86891904D01*
X78541571Y-86939523D01*
X78493952Y-87034761D01*
X72715381Y-87796666D02*
X72239190Y-88130000D01*
X72715381Y-88368095D02*
X71715381Y-88368095D01*
X71715381Y-87987142D01*
X71763000Y-87891904D01*
X71810619Y-87844285D01*
X71905857Y-87796666D01*
X72048714Y-87796666D01*
X72143952Y-87844285D01*
X72191571Y-87891904D01*
X72239190Y-87987142D01*
X72239190Y-88368095D01*
X72715381Y-87320476D02*
X72715381Y-87130000D01*
X72667762Y-87034761D01*
X72620143Y-86987142D01*
X72477286Y-86891904D01*
X72286810Y-86844285D01*
X71905857Y-86844285D01*
X71810619Y-86891904D01*
X71763000Y-86939523D01*
X71715381Y-87034761D01*
X71715381Y-87225238D01*
X71763000Y-87320476D01*
X71810619Y-87368095D01*
X71905857Y-87415714D01*
X72143952Y-87415714D01*
X72239190Y-87368095D01*
X72286810Y-87320476D01*
X72334429Y-87225238D01*
X72334429Y-87034761D01*
X72286810Y-86939523D01*
X72239190Y-86891904D01*
X72143952Y-86844285D01*
X200017143Y-123769381D02*
X199683809Y-123293190D01*
X199445714Y-123769381D02*
X199445714Y-122769381D01*
X199826667Y-122769381D01*
X199921905Y-122817000D01*
X199969524Y-122864619D01*
X200017143Y-122959857D01*
X200017143Y-123102714D01*
X199969524Y-123197952D01*
X199921905Y-123245571D01*
X199826667Y-123293190D01*
X199445714Y-123293190D01*
X200969524Y-123769381D02*
X200398095Y-123769381D01*
X200683809Y-123769381D02*
X200683809Y-122769381D01*
X200588571Y-122912238D01*
X200493333Y-123007476D01*
X200398095Y-123055095D01*
X201588571Y-122769381D02*
X201683810Y-122769381D01*
X201779048Y-122817000D01*
X201826667Y-122864619D01*
X201874286Y-122959857D01*
X201921905Y-123150333D01*
X201921905Y-123388429D01*
X201874286Y-123578905D01*
X201826667Y-123674143D01*
X201779048Y-123721762D01*
X201683810Y-123769381D01*
X201588571Y-123769381D01*
X201493333Y-123721762D01*
X201445714Y-123674143D01*
X201398095Y-123578905D01*
X201350476Y-123388429D01*
X201350476Y-123150333D01*
X201398095Y-122959857D01*
X201445714Y-122864619D01*
X201493333Y-122817000D01*
X201588571Y-122769381D01*
X168267143Y-123769381D02*
X167933809Y-123293190D01*
X167695714Y-123769381D02*
X167695714Y-122769381D01*
X168076667Y-122769381D01*
X168171905Y-122817000D01*
X168219524Y-122864619D01*
X168267143Y-122959857D01*
X168267143Y-123102714D01*
X168219524Y-123197952D01*
X168171905Y-123245571D01*
X168076667Y-123293190D01*
X167695714Y-123293190D01*
X169219524Y-123769381D02*
X168648095Y-123769381D01*
X168933809Y-123769381D02*
X168933809Y-122769381D01*
X168838571Y-122912238D01*
X168743333Y-123007476D01*
X168648095Y-123055095D01*
X170171905Y-123769381D02*
X169600476Y-123769381D01*
X169886190Y-123769381D02*
X169886190Y-122769381D01*
X169790952Y-122912238D01*
X169695714Y-123007476D01*
X169600476Y-123055095D01*
X136517143Y-123769381D02*
X136183809Y-123293190D01*
X135945714Y-123769381D02*
X135945714Y-122769381D01*
X136326667Y-122769381D01*
X136421905Y-122817000D01*
X136469524Y-122864619D01*
X136517143Y-122959857D01*
X136517143Y-123102714D01*
X136469524Y-123197952D01*
X136421905Y-123245571D01*
X136326667Y-123293190D01*
X135945714Y-123293190D01*
X137469524Y-123769381D02*
X136898095Y-123769381D01*
X137183809Y-123769381D02*
X137183809Y-122769381D01*
X137088571Y-122912238D01*
X136993333Y-123007476D01*
X136898095Y-123055095D01*
X137850476Y-122864619D02*
X137898095Y-122817000D01*
X137993333Y-122769381D01*
X138231429Y-122769381D01*
X138326667Y-122817000D01*
X138374286Y-122864619D01*
X138421905Y-122959857D01*
X138421905Y-123055095D01*
X138374286Y-123197952D01*
X137802857Y-123769381D01*
X138421905Y-123769381D01*
X374316667Y-116554762D02*
X374459524Y-116602381D01*
X374697620Y-116602381D01*
X374792858Y-116554762D01*
X374840477Y-116507143D01*
X374888096Y-116411905D01*
X374888096Y-116316667D01*
X374840477Y-116221429D01*
X374792858Y-116173810D01*
X374697620Y-116126190D01*
X374507143Y-116078571D01*
X374411905Y-116030952D01*
X374364286Y-115983333D01*
X374316667Y-115888095D01*
X374316667Y-115792857D01*
X374364286Y-115697619D01*
X374411905Y-115650000D01*
X374507143Y-115602381D01*
X374745239Y-115602381D01*
X374888096Y-115650000D01*
X375221429Y-115602381D02*
X375459524Y-116602381D01*
X375650001Y-115888095D01*
X375840477Y-116602381D01*
X376078572Y-115602381D01*
X376888096Y-115935714D02*
X376888096Y-116602381D01*
X376650000Y-115554762D02*
X376411905Y-116269048D01*
X377030953Y-116269048D01*
X178530476Y-127404762D02*
X178673333Y-127452381D01*
X178911429Y-127452381D01*
X179006667Y-127404762D01*
X179054286Y-127357143D01*
X179101905Y-127261905D01*
X179101905Y-127166667D01*
X179054286Y-127071429D01*
X179006667Y-127023810D01*
X178911429Y-126976190D01*
X178720952Y-126928571D01*
X178625714Y-126880952D01*
X178578095Y-126833333D01*
X178530476Y-126738095D01*
X178530476Y-126642857D01*
X178578095Y-126547619D01*
X178625714Y-126500000D01*
X178720952Y-126452381D01*
X178959048Y-126452381D01*
X179101905Y-126500000D01*
X179435238Y-126452381D02*
X179673333Y-127452381D01*
X179863810Y-126738095D01*
X180054286Y-127452381D01*
X180292381Y-126452381D01*
X181197143Y-127452381D02*
X180625714Y-127452381D01*
X180911428Y-127452381D02*
X180911428Y-126452381D01*
X180816190Y-126595238D01*
X180720952Y-126690476D01*
X180625714Y-126738095D01*
X181578095Y-126547619D02*
X181625714Y-126500000D01*
X181720952Y-126452381D01*
X181959048Y-126452381D01*
X182054286Y-126500000D01*
X182101905Y-126547619D01*
X182149524Y-126642857D01*
X182149524Y-126738095D01*
X182101905Y-126880952D01*
X181530476Y-127452381D01*
X182149524Y-127452381D01*
X148050476Y-126134762D02*
X148193333Y-126182381D01*
X148431429Y-126182381D01*
X148526667Y-126134762D01*
X148574286Y-126087143D01*
X148621905Y-125991905D01*
X148621905Y-125896667D01*
X148574286Y-125801429D01*
X148526667Y-125753810D01*
X148431429Y-125706190D01*
X148240952Y-125658571D01*
X148145714Y-125610952D01*
X148098095Y-125563333D01*
X148050476Y-125468095D01*
X148050476Y-125372857D01*
X148098095Y-125277619D01*
X148145714Y-125230000D01*
X148240952Y-125182381D01*
X148479048Y-125182381D01*
X148621905Y-125230000D01*
X148955238Y-125182381D02*
X149193333Y-126182381D01*
X149383810Y-125468095D01*
X149574286Y-126182381D01*
X149812381Y-125182381D01*
X150717143Y-126182381D02*
X150145714Y-126182381D01*
X150431428Y-126182381D02*
X150431428Y-125182381D01*
X150336190Y-125325238D01*
X150240952Y-125420476D01*
X150145714Y-125468095D01*
X151050476Y-125182381D02*
X151669524Y-125182381D01*
X151336190Y-125563333D01*
X151479048Y-125563333D01*
X151574286Y-125610952D01*
X151621905Y-125658571D01*
X151669524Y-125753810D01*
X151669524Y-125991905D01*
X151621905Y-126087143D01*
X151574286Y-126134762D01*
X151479048Y-126182381D01*
X151193333Y-126182381D01*
X151098095Y-126134762D01*
X151050476Y-126087143D01*
X122324762Y-123729524D02*
X122372381Y-123586667D01*
X122372381Y-123348571D01*
X122324762Y-123253333D01*
X122277143Y-123205714D01*
X122181905Y-123158095D01*
X122086667Y-123158095D01*
X121991429Y-123205714D01*
X121943810Y-123253333D01*
X121896190Y-123348571D01*
X121848571Y-123539048D01*
X121800952Y-123634286D01*
X121753333Y-123681905D01*
X121658095Y-123729524D01*
X121562857Y-123729524D01*
X121467619Y-123681905D01*
X121420000Y-123634286D01*
X121372381Y-123539048D01*
X121372381Y-123300952D01*
X121420000Y-123158095D01*
X121372381Y-122824762D02*
X122372381Y-122586667D01*
X121658095Y-122396190D01*
X122372381Y-122205714D01*
X121372381Y-121967619D01*
X122372381Y-121062857D02*
X122372381Y-121634286D01*
X122372381Y-121348572D02*
X121372381Y-121348572D01*
X121515238Y-121443810D01*
X121610476Y-121539048D01*
X121658095Y-121634286D01*
X121705714Y-120205714D02*
X122372381Y-120205714D01*
X121324762Y-120443810D02*
X122039048Y-120681905D01*
X122039048Y-120062857D01*
X107084762Y-123729524D02*
X107132381Y-123586667D01*
X107132381Y-123348571D01*
X107084762Y-123253333D01*
X107037143Y-123205714D01*
X106941905Y-123158095D01*
X106846667Y-123158095D01*
X106751429Y-123205714D01*
X106703810Y-123253333D01*
X106656190Y-123348571D01*
X106608571Y-123539048D01*
X106560952Y-123634286D01*
X106513333Y-123681905D01*
X106418095Y-123729524D01*
X106322857Y-123729524D01*
X106227619Y-123681905D01*
X106180000Y-123634286D01*
X106132381Y-123539048D01*
X106132381Y-123300952D01*
X106180000Y-123158095D01*
X106132381Y-122824762D02*
X107132381Y-122586667D01*
X106418095Y-122396190D01*
X107132381Y-122205714D01*
X106132381Y-121967619D01*
X107132381Y-121062857D02*
X107132381Y-121634286D01*
X107132381Y-121348572D02*
X106132381Y-121348572D01*
X106275238Y-121443810D01*
X106370476Y-121539048D01*
X106418095Y-121634286D01*
X106132381Y-120158095D02*
X106132381Y-120634286D01*
X106608571Y-120681905D01*
X106560952Y-120634286D01*
X106513333Y-120539048D01*
X106513333Y-120300952D01*
X106560952Y-120205714D01*
X106608571Y-120158095D01*
X106703810Y-120110476D01*
X106941905Y-120110476D01*
X107037143Y-120158095D01*
X107084762Y-120205714D01*
X107132381Y-120300952D01*
X107132381Y-120539048D01*
X107084762Y-120634286D01*
X107037143Y-120681905D01*
X91844762Y-123729524D02*
X91892381Y-123586667D01*
X91892381Y-123348571D01*
X91844762Y-123253333D01*
X91797143Y-123205714D01*
X91701905Y-123158095D01*
X91606667Y-123158095D01*
X91511429Y-123205714D01*
X91463810Y-123253333D01*
X91416190Y-123348571D01*
X91368571Y-123539048D01*
X91320952Y-123634286D01*
X91273333Y-123681905D01*
X91178095Y-123729524D01*
X91082857Y-123729524D01*
X90987619Y-123681905D01*
X90940000Y-123634286D01*
X90892381Y-123539048D01*
X90892381Y-123300952D01*
X90940000Y-123158095D01*
X90892381Y-122824762D02*
X91892381Y-122586667D01*
X91178095Y-122396190D01*
X91892381Y-122205714D01*
X90892381Y-121967619D01*
X91892381Y-121062857D02*
X91892381Y-121634286D01*
X91892381Y-121348572D02*
X90892381Y-121348572D01*
X91035238Y-121443810D01*
X91130476Y-121539048D01*
X91178095Y-121634286D01*
X90892381Y-120205714D02*
X90892381Y-120396191D01*
X90940000Y-120491429D01*
X90987619Y-120539048D01*
X91130476Y-120634286D01*
X91320952Y-120681905D01*
X91701905Y-120681905D01*
X91797143Y-120634286D01*
X91844762Y-120586667D01*
X91892381Y-120491429D01*
X91892381Y-120300952D01*
X91844762Y-120205714D01*
X91797143Y-120158095D01*
X91701905Y-120110476D01*
X91463810Y-120110476D01*
X91368571Y-120158095D01*
X91320952Y-120205714D01*
X91273333Y-120300952D01*
X91273333Y-120491429D01*
X91320952Y-120586667D01*
X91368571Y-120634286D01*
X91463810Y-120681905D01*
X76604762Y-123729524D02*
X76652381Y-123586667D01*
X76652381Y-123348571D01*
X76604762Y-123253333D01*
X76557143Y-123205714D01*
X76461905Y-123158095D01*
X76366667Y-123158095D01*
X76271429Y-123205714D01*
X76223810Y-123253333D01*
X76176190Y-123348571D01*
X76128571Y-123539048D01*
X76080952Y-123634286D01*
X76033333Y-123681905D01*
X75938095Y-123729524D01*
X75842857Y-123729524D01*
X75747619Y-123681905D01*
X75700000Y-123634286D01*
X75652381Y-123539048D01*
X75652381Y-123300952D01*
X75700000Y-123158095D01*
X75652381Y-122824762D02*
X76652381Y-122586667D01*
X75938095Y-122396190D01*
X76652381Y-122205714D01*
X75652381Y-121967619D01*
X76652381Y-121062857D02*
X76652381Y-121634286D01*
X76652381Y-121348572D02*
X75652381Y-121348572D01*
X75795238Y-121443810D01*
X75890476Y-121539048D01*
X75938095Y-121634286D01*
X75652381Y-120729524D02*
X75652381Y-120062857D01*
X76652381Y-120491429D01*
M02*
