%TF.GenerationSoftware,KiCad,Pcbnew,(5.1.6)-1*%
%TF.CreationDate,2020-10-25T19:30:32+00:00*%
%TF.ProjectId,QuadNew1 - Copy,51756164-4e65-4773-9120-2d20436f7079,rev?*%
%TF.SameCoordinates,Original*%
%TF.FileFunction,Legend,Top*%
%TF.FilePolarity,Positive*%
%FSLAX46Y46*%
G04 Gerber Fmt 4.6, Leading zero omitted, Abs format (unit mm)*
G04 Created by KiCad (PCBNEW (5.1.6)-1) date 2020-10-25 19:30:32*
%MOMM*%
%LPD*%
G01*
G04 APERTURE LIST*
%ADD10C,0.300000*%
%ADD11C,0.120000*%
%ADD12C,0.150000*%
G04 APERTURE END LIST*
D10*
X96314000Y-65532857D02*
X96314000Y-64332857D01*
X96314000Y-64904285D02*
X96999714Y-64904285D01*
X96999714Y-65532857D02*
X96999714Y-64332857D01*
X97571142Y-64904285D02*
X97971142Y-64904285D01*
X98142571Y-65532857D02*
X97571142Y-65532857D01*
X97571142Y-64332857D01*
X98142571Y-64332857D01*
X98599714Y-65190000D02*
X99171142Y-65190000D01*
X98485428Y-65532857D02*
X98885428Y-64332857D01*
X99285428Y-65532857D01*
X99514000Y-64332857D02*
X100199714Y-64332857D01*
X99856857Y-65532857D02*
X99856857Y-64332857D01*
X100599714Y-64904285D02*
X100999714Y-64904285D01*
X101171142Y-65532857D02*
X100599714Y-65532857D01*
X100599714Y-64332857D01*
X101171142Y-64332857D01*
X102371142Y-65532857D02*
X101971142Y-64961428D01*
X101685428Y-65532857D02*
X101685428Y-64332857D01*
X102142571Y-64332857D01*
X102256857Y-64390000D01*
X102314000Y-64447142D01*
X102371142Y-64561428D01*
X102371142Y-64732857D01*
X102314000Y-64847142D01*
X102256857Y-64904285D01*
X102142571Y-64961428D01*
X101685428Y-64961428D01*
X96142571Y-67575714D02*
X96314000Y-67632857D01*
X96599714Y-67632857D01*
X96714000Y-67575714D01*
X96771142Y-67518571D01*
X96828285Y-67404285D01*
X96828285Y-67290000D01*
X96771142Y-67175714D01*
X96714000Y-67118571D01*
X96599714Y-67061428D01*
X96371142Y-67004285D01*
X96256857Y-66947142D01*
X96199714Y-66890000D01*
X96142571Y-66775714D01*
X96142571Y-66661428D01*
X96199714Y-66547142D01*
X96256857Y-66490000D01*
X96371142Y-66432857D01*
X96656857Y-66432857D01*
X96828285Y-66490000D01*
X97342571Y-66432857D02*
X97342571Y-67404285D01*
X97399714Y-67518571D01*
X97456857Y-67575714D01*
X97571142Y-67632857D01*
X97799714Y-67632857D01*
X97914000Y-67575714D01*
X97971142Y-67518571D01*
X98028285Y-67404285D01*
X98028285Y-66432857D01*
X98599714Y-67632857D02*
X98599714Y-66432857D01*
X99056857Y-66432857D01*
X99171142Y-66490000D01*
X99228285Y-66547142D01*
X99285428Y-66661428D01*
X99285428Y-66832857D01*
X99228285Y-66947142D01*
X99171142Y-67004285D01*
X99056857Y-67061428D01*
X98599714Y-67061428D01*
X99799714Y-67632857D02*
X99799714Y-66432857D01*
X100256857Y-66432857D01*
X100371142Y-66490000D01*
X100428285Y-66547142D01*
X100485428Y-66661428D01*
X100485428Y-66832857D01*
X100428285Y-66947142D01*
X100371142Y-67004285D01*
X100256857Y-67061428D01*
X99799714Y-67061428D01*
X101571142Y-67632857D02*
X100999714Y-67632857D01*
X100999714Y-66432857D01*
X102199714Y-67061428D02*
X102199714Y-67632857D01*
X101799714Y-66432857D02*
X102199714Y-67061428D01*
X102599714Y-66432857D01*
X97060000Y-106242857D02*
X97802857Y-106242857D01*
X97402857Y-106700000D01*
X97574285Y-106700000D01*
X97688571Y-106757142D01*
X97745714Y-106814285D01*
X97802857Y-106928571D01*
X97802857Y-107214285D01*
X97745714Y-107328571D01*
X97688571Y-107385714D01*
X97574285Y-107442857D01*
X97231428Y-107442857D01*
X97117142Y-107385714D01*
X97060000Y-107328571D01*
X98202857Y-106242857D02*
X98945714Y-106242857D01*
X98545714Y-106700000D01*
X98717142Y-106700000D01*
X98831428Y-106757142D01*
X98888571Y-106814285D01*
X98945714Y-106928571D01*
X98945714Y-107214285D01*
X98888571Y-107328571D01*
X98831428Y-107385714D01*
X98717142Y-107442857D01*
X98374285Y-107442857D01*
X98260000Y-107385714D01*
X98202857Y-107328571D01*
X99688571Y-106242857D02*
X99802857Y-106242857D01*
X99917142Y-106300000D01*
X99974285Y-106357142D01*
X100031428Y-106471428D01*
X100088571Y-106700000D01*
X100088571Y-106985714D01*
X100031428Y-107214285D01*
X99974285Y-107328571D01*
X99917142Y-107385714D01*
X99802857Y-107442857D01*
X99688571Y-107442857D01*
X99574285Y-107385714D01*
X99517142Y-107328571D01*
X99460000Y-107214285D01*
X99402857Y-106985714D01*
X99402857Y-106700000D01*
X99460000Y-106471428D01*
X99517142Y-106357142D01*
X99574285Y-106300000D01*
X99688571Y-106242857D01*
X100488571Y-106642857D02*
X100774285Y-107442857D01*
X101060000Y-106642857D01*
X96288571Y-109542857D02*
X96288571Y-108342857D01*
X96745714Y-108342857D01*
X96860000Y-108400000D01*
X96917142Y-108457142D01*
X96974285Y-108571428D01*
X96974285Y-108742857D01*
X96917142Y-108857142D01*
X96860000Y-108914285D01*
X96745714Y-108971428D01*
X96288571Y-108971428D01*
X97717142Y-108342857D02*
X97945714Y-108342857D01*
X98060000Y-108400000D01*
X98174285Y-108514285D01*
X98231428Y-108742857D01*
X98231428Y-109142857D01*
X98174285Y-109371428D01*
X98060000Y-109485714D01*
X97945714Y-109542857D01*
X97717142Y-109542857D01*
X97602857Y-109485714D01*
X97488571Y-109371428D01*
X97431428Y-109142857D01*
X97431428Y-108742857D01*
X97488571Y-108514285D01*
X97602857Y-108400000D01*
X97717142Y-108342857D01*
X98631428Y-108342857D02*
X98917142Y-109542857D01*
X99145714Y-108685714D01*
X99374285Y-109542857D01*
X99660000Y-108342857D01*
X100117142Y-108914285D02*
X100517142Y-108914285D01*
X100688571Y-109542857D02*
X100117142Y-109542857D01*
X100117142Y-108342857D01*
X100688571Y-108342857D01*
X101888571Y-109542857D02*
X101488571Y-108971428D01*
X101202857Y-109542857D02*
X101202857Y-108342857D01*
X101660000Y-108342857D01*
X101774285Y-108400000D01*
X101831428Y-108457142D01*
X101888571Y-108571428D01*
X101888571Y-108742857D01*
X101831428Y-108857142D01*
X101774285Y-108914285D01*
X101660000Y-108971428D01*
X101202857Y-108971428D01*
X96428285Y-79953857D02*
X96656857Y-79953857D01*
X96771142Y-80011000D01*
X96885428Y-80125285D01*
X96942571Y-80353857D01*
X96942571Y-80753857D01*
X96885428Y-80982428D01*
X96771142Y-81096714D01*
X96656857Y-81153857D01*
X96428285Y-81153857D01*
X96314000Y-81096714D01*
X96199714Y-80982428D01*
X96142571Y-80753857D01*
X96142571Y-80353857D01*
X96199714Y-80125285D01*
X96314000Y-80011000D01*
X96428285Y-79953857D01*
X97456857Y-79953857D02*
X97456857Y-80925285D01*
X97514000Y-81039571D01*
X97571142Y-81096714D01*
X97685428Y-81153857D01*
X97914000Y-81153857D01*
X98028285Y-81096714D01*
X98085428Y-81039571D01*
X98142571Y-80925285D01*
X98142571Y-79953857D01*
X98542571Y-79953857D02*
X99228285Y-79953857D01*
X98885428Y-81153857D02*
X98885428Y-79953857D01*
X99628285Y-81153857D02*
X99628285Y-79953857D01*
X100085428Y-79953857D01*
X100199714Y-80011000D01*
X100256857Y-80068142D01*
X100314000Y-80182428D01*
X100314000Y-80353857D01*
X100256857Y-80468142D01*
X100199714Y-80525285D01*
X100085428Y-80582428D01*
X99628285Y-80582428D01*
X100828285Y-79953857D02*
X100828285Y-80925285D01*
X100885428Y-81039571D01*
X100942571Y-81096714D01*
X101056857Y-81153857D01*
X101285428Y-81153857D01*
X101399714Y-81096714D01*
X101456857Y-81039571D01*
X101514000Y-80925285D01*
X101514000Y-79953857D01*
X101914000Y-79953857D02*
X102599714Y-79953857D01*
X102256857Y-81153857D02*
X102256857Y-79953857D01*
X96856857Y-83196714D02*
X97028285Y-83253857D01*
X97314000Y-83253857D01*
X97428285Y-83196714D01*
X97485428Y-83139571D01*
X97542571Y-83025285D01*
X97542571Y-82911000D01*
X97485428Y-82796714D01*
X97428285Y-82739571D01*
X97314000Y-82682428D01*
X97085428Y-82625285D01*
X96971142Y-82568142D01*
X96914000Y-82511000D01*
X96856857Y-82396714D01*
X96856857Y-82282428D01*
X96914000Y-82168142D01*
X96971142Y-82111000D01*
X97085428Y-82053857D01*
X97371142Y-82053857D01*
X97542571Y-82111000D01*
X97885428Y-82053857D02*
X98571142Y-82053857D01*
X98228285Y-83253857D02*
X98228285Y-82053857D01*
X98914000Y-82911000D02*
X99485428Y-82911000D01*
X98799714Y-83253857D02*
X99199714Y-82053857D01*
X99599714Y-83253857D01*
X100628285Y-82111000D02*
X100514000Y-82053857D01*
X100342571Y-82053857D01*
X100171142Y-82111000D01*
X100056857Y-82225285D01*
X99999714Y-82339571D01*
X99942571Y-82568142D01*
X99942571Y-82739571D01*
X99999714Y-82968142D01*
X100056857Y-83082428D01*
X100171142Y-83196714D01*
X100342571Y-83253857D01*
X100456857Y-83253857D01*
X100628285Y-83196714D01*
X100685428Y-83139571D01*
X100685428Y-82739571D01*
X100456857Y-82739571D01*
X101199714Y-82625285D02*
X101599714Y-82625285D01*
X101771142Y-83253857D02*
X101199714Y-83253857D01*
X101199714Y-82053857D01*
X101771142Y-82053857D01*
X28292571Y-122371857D02*
X28521142Y-122371857D01*
X28635428Y-122429000D01*
X28749714Y-122543285D01*
X28806857Y-122771857D01*
X28806857Y-123171857D01*
X28749714Y-123400428D01*
X28635428Y-123514714D01*
X28521142Y-123571857D01*
X28292571Y-123571857D01*
X28178285Y-123514714D01*
X28064000Y-123400428D01*
X28006857Y-123171857D01*
X28006857Y-122771857D01*
X28064000Y-122543285D01*
X28178285Y-122429000D01*
X28292571Y-122371857D01*
X29321142Y-123571857D02*
X29321142Y-122371857D01*
X29778285Y-122371857D01*
X29892571Y-122429000D01*
X29949714Y-122486142D01*
X30006857Y-122600428D01*
X30006857Y-122771857D01*
X29949714Y-122886142D01*
X29892571Y-122943285D01*
X29778285Y-123000428D01*
X29321142Y-123000428D01*
X30349714Y-122371857D02*
X31035428Y-122371857D01*
X30692571Y-123571857D02*
X30692571Y-122371857D01*
X27149714Y-125671857D02*
X27149714Y-124471857D01*
X27606857Y-124471857D01*
X27721142Y-124529000D01*
X27778285Y-124586142D01*
X27835428Y-124700428D01*
X27835428Y-124871857D01*
X27778285Y-124986142D01*
X27721142Y-125043285D01*
X27606857Y-125100428D01*
X27149714Y-125100428D01*
X28349714Y-125671857D02*
X28349714Y-124471857D01*
X28921142Y-125671857D02*
X28921142Y-124471857D01*
X29606857Y-125671857D01*
X29606857Y-124471857D01*
X31892571Y-125786142D02*
X31778285Y-125729000D01*
X31664000Y-125614714D01*
X31492571Y-125443285D01*
X31378285Y-125386142D01*
X31264000Y-125386142D01*
X31321142Y-125671857D02*
X31206857Y-125614714D01*
X31092571Y-125500428D01*
X31035428Y-125271857D01*
X31035428Y-124871857D01*
X31092571Y-124643285D01*
X31206857Y-124529000D01*
X31321142Y-124471857D01*
X31549714Y-124471857D01*
X31664000Y-124529000D01*
X31778285Y-124643285D01*
X31835428Y-124871857D01*
X31835428Y-125271857D01*
X31778285Y-125500428D01*
X31664000Y-125614714D01*
X31549714Y-125671857D01*
X31321142Y-125671857D01*
X27622857Y-70174714D02*
X27794285Y-70231857D01*
X28080000Y-70231857D01*
X28194285Y-70174714D01*
X28251428Y-70117571D01*
X28308571Y-70003285D01*
X28308571Y-69889000D01*
X28251428Y-69774714D01*
X28194285Y-69717571D01*
X28080000Y-69660428D01*
X27851428Y-69603285D01*
X27737142Y-69546142D01*
X27680000Y-69489000D01*
X27622857Y-69374714D01*
X27622857Y-69260428D01*
X27680000Y-69146142D01*
X27737142Y-69089000D01*
X27851428Y-69031857D01*
X28137142Y-69031857D01*
X28308571Y-69089000D01*
X28822857Y-70231857D02*
X28822857Y-69031857D01*
X30022857Y-69089000D02*
X29908571Y-69031857D01*
X29737142Y-69031857D01*
X29565714Y-69089000D01*
X29451428Y-69203285D01*
X29394285Y-69317571D01*
X29337142Y-69546142D01*
X29337142Y-69717571D01*
X29394285Y-69946142D01*
X29451428Y-70060428D01*
X29565714Y-70174714D01*
X29737142Y-70231857D01*
X29851428Y-70231857D01*
X30022857Y-70174714D01*
X30080000Y-70117571D01*
X30080000Y-69717571D01*
X29851428Y-69717571D01*
X30594285Y-70231857D02*
X30594285Y-69031857D01*
X31280000Y-70231857D01*
X31280000Y-69031857D01*
X31794285Y-69889000D02*
X32365714Y-69889000D01*
X31680000Y-70231857D02*
X32080000Y-69031857D01*
X32480000Y-70231857D01*
X33451428Y-70231857D02*
X32880000Y-70231857D01*
X32880000Y-69031857D01*
X28165714Y-72331857D02*
X28165714Y-71131857D01*
X28737142Y-72331857D02*
X28737142Y-71131857D01*
X29422857Y-72331857D01*
X29422857Y-71131857D01*
X29994285Y-72331857D02*
X29994285Y-71131857D01*
X30451428Y-71131857D01*
X30565714Y-71189000D01*
X30622857Y-71246142D01*
X30680000Y-71360428D01*
X30680000Y-71531857D01*
X30622857Y-71646142D01*
X30565714Y-71703285D01*
X30451428Y-71760428D01*
X29994285Y-71760428D01*
X31194285Y-71131857D02*
X31194285Y-72103285D01*
X31251428Y-72217571D01*
X31308571Y-72274714D01*
X31422857Y-72331857D01*
X31651428Y-72331857D01*
X31765714Y-72274714D01*
X31822857Y-72217571D01*
X31880000Y-72103285D01*
X31880000Y-71131857D01*
X32280000Y-71131857D02*
X32965714Y-71131857D01*
X32622857Y-72331857D02*
X32622857Y-71131857D01*
D11*
%TO.C,J2*%
X98981000Y-102677000D02*
X99581000Y-102677000D01*
X98981000Y-101077000D02*
X98981000Y-102677000D01*
X99581000Y-101077000D02*
X98981000Y-101077000D01*
X98981000Y-98717000D02*
X99581000Y-98717000D01*
X98981000Y-97117000D02*
X98981000Y-98717000D01*
X99581000Y-97117000D02*
X98981000Y-97117000D01*
X92021000Y-101877000D02*
X90351000Y-101877000D01*
X92021000Y-97917000D02*
X92021000Y-101877000D01*
X90351000Y-97917000D02*
X92021000Y-97917000D01*
X90351000Y-101877000D02*
X89351000Y-101877000D01*
X90351000Y-97917000D02*
X90351000Y-101877000D01*
X89351000Y-97917000D02*
X90351000Y-97917000D01*
X96361000Y-95607000D02*
X92361000Y-95607000D01*
X90356000Y-95897000D02*
X99581000Y-95897000D01*
X90356000Y-97802000D02*
X90356000Y-95897000D01*
X89351000Y-97802000D02*
X90356000Y-97802000D01*
X89351000Y-101992000D02*
X89351000Y-97802000D01*
X90356000Y-101992000D02*
X89351000Y-101992000D01*
X90356000Y-103897000D02*
X90356000Y-101992000D01*
X99581000Y-103897000D02*
X90356000Y-103897000D01*
X99581000Y-95897000D02*
X99581000Y-103897000D01*
%TO.C,C3*%
X71647000Y-119780000D02*
X95887000Y-119780000D01*
X71647000Y-132220000D02*
X95887000Y-132220000D01*
X71647000Y-119780000D02*
X71647000Y-124815000D01*
X71647000Y-127185000D02*
X71647000Y-132220000D01*
X95887000Y-119780000D02*
X95887000Y-124815000D01*
X95887000Y-127185000D02*
X95887000Y-132220000D01*
%TO.C,R10*%
X48690000Y-112370000D02*
X48690000Y-107630000D01*
X48690000Y-107630000D02*
X36550000Y-107630000D01*
X36550000Y-107630000D02*
X36550000Y-112370000D01*
X36550000Y-112370000D02*
X48690000Y-112370000D01*
X48800000Y-110000000D02*
X48690000Y-110000000D01*
X36440000Y-110000000D02*
X36550000Y-110000000D01*
%TO.C,R9*%
X80983000Y-116000000D02*
X80873000Y-116000000D01*
X68623000Y-116000000D02*
X68733000Y-116000000D01*
X80873000Y-113630000D02*
X68733000Y-113630000D01*
X80873000Y-118370000D02*
X80873000Y-113630000D01*
X68733000Y-118370000D02*
X80873000Y-118370000D01*
X68733000Y-113630000D02*
X68733000Y-118370000D01*
%TO.C,C2*%
X68582000Y-127185000D02*
X68582000Y-132220000D01*
X68582000Y-119780000D02*
X68582000Y-124815000D01*
X44342000Y-127185000D02*
X44342000Y-132220000D01*
X44342000Y-119780000D02*
X44342000Y-124815000D01*
X44342000Y-132220000D02*
X68582000Y-132220000D01*
X44342000Y-119780000D02*
X68582000Y-119780000D01*
%TO.C,R3*%
X68733000Y-89630000D02*
X68733000Y-94370000D01*
X68733000Y-94370000D02*
X80873000Y-94370000D01*
X80873000Y-94370000D02*
X80873000Y-89630000D01*
X80873000Y-89630000D02*
X68733000Y-89630000D01*
X68623000Y-92000000D02*
X68733000Y-92000000D01*
X80983000Y-92000000D02*
X80873000Y-92000000D01*
%TO.C,R8*%
X80873000Y-112370000D02*
X80873000Y-107630000D01*
X80873000Y-107630000D02*
X68733000Y-107630000D01*
X68733000Y-107630000D02*
X68733000Y-112370000D01*
X68733000Y-112370000D02*
X80873000Y-112370000D01*
X80983000Y-110000000D02*
X80873000Y-110000000D01*
X68623000Y-110000000D02*
X68733000Y-110000000D01*
%TO.C,R7*%
X68623000Y-104000000D02*
X68733000Y-104000000D01*
X80983000Y-104000000D02*
X80873000Y-104000000D01*
X68733000Y-106370000D02*
X80873000Y-106370000D01*
X68733000Y-101630000D02*
X68733000Y-106370000D01*
X80873000Y-101630000D02*
X68733000Y-101630000D01*
X80873000Y-106370000D02*
X80873000Y-101630000D01*
%TO.C,R6*%
X68733000Y-95630000D02*
X68733000Y-100370000D01*
X68733000Y-100370000D02*
X80873000Y-100370000D01*
X80873000Y-100370000D02*
X80873000Y-95630000D01*
X80873000Y-95630000D02*
X68733000Y-95630000D01*
X68623000Y-98000000D02*
X68733000Y-98000000D01*
X80983000Y-98000000D02*
X80873000Y-98000000D01*
%TO.C,R5*%
X48800000Y-98000000D02*
X48690000Y-98000000D01*
X36440000Y-98000000D02*
X36550000Y-98000000D01*
X48690000Y-95630000D02*
X36550000Y-95630000D01*
X48690000Y-100370000D02*
X48690000Y-95630000D01*
X36550000Y-100370000D02*
X48690000Y-100370000D01*
X36550000Y-95630000D02*
X36550000Y-100370000D01*
%TO.C,R2*%
X48800000Y-92000000D02*
X48690000Y-92000000D01*
X36440000Y-92000000D02*
X36550000Y-92000000D01*
X48690000Y-89630000D02*
X36550000Y-89630000D01*
X48690000Y-94370000D02*
X48690000Y-89630000D01*
X36550000Y-94370000D02*
X48690000Y-94370000D01*
X36550000Y-89630000D02*
X36550000Y-94370000D01*
%TO.C,R1*%
X68537000Y-58573000D02*
X63797000Y-58573000D01*
X63797000Y-58573000D02*
X63797000Y-70713000D01*
X63797000Y-70713000D02*
X68537000Y-70713000D01*
X68537000Y-70713000D02*
X68537000Y-58573000D01*
X66167000Y-58463000D02*
X66167000Y-58573000D01*
X66167000Y-70823000D02*
X66167000Y-70713000D01*
%TO.C,R4*%
X48800000Y-104000000D02*
X48690000Y-104000000D01*
X36440000Y-104000000D02*
X36550000Y-104000000D01*
X48690000Y-101630000D02*
X36550000Y-101630000D01*
X48690000Y-106370000D02*
X48690000Y-101630000D01*
X36550000Y-106370000D02*
X48690000Y-106370000D01*
X36550000Y-101630000D02*
X36550000Y-106370000D01*
%TO.C,R11*%
X48800000Y-116000000D02*
X48690000Y-116000000D01*
X36440000Y-116000000D02*
X36550000Y-116000000D01*
X48690000Y-113630000D02*
X36550000Y-113630000D01*
X48690000Y-118370000D02*
X48690000Y-113630000D01*
X36550000Y-118370000D02*
X48690000Y-118370000D01*
X36550000Y-113630000D02*
X36550000Y-118370000D01*
%TO.C,C1*%
X54823000Y-81347000D02*
X54823000Y-89087000D01*
X54823000Y-89087000D02*
X74063000Y-89087000D01*
X74063000Y-89087000D02*
X74063000Y-81347000D01*
X74063000Y-81347000D02*
X54823000Y-81347000D01*
X52983000Y-85217000D02*
X54823000Y-85217000D01*
X75903000Y-85217000D02*
X74063000Y-85217000D01*
%TO.C,J3*%
X99581000Y-85102000D02*
X99581000Y-93102000D01*
X99581000Y-93102000D02*
X90356000Y-93102000D01*
X90356000Y-93102000D02*
X90356000Y-91197000D01*
X90356000Y-91197000D02*
X89351000Y-91197000D01*
X89351000Y-91197000D02*
X89351000Y-87007000D01*
X89351000Y-87007000D02*
X90356000Y-87007000D01*
X90356000Y-87007000D02*
X90356000Y-85102000D01*
X90356000Y-85102000D02*
X99581000Y-85102000D01*
X96361000Y-84812000D02*
X92361000Y-84812000D01*
X89351000Y-87122000D02*
X90351000Y-87122000D01*
X90351000Y-87122000D02*
X90351000Y-91082000D01*
X90351000Y-91082000D02*
X89351000Y-91082000D01*
X90351000Y-87122000D02*
X92021000Y-87122000D01*
X92021000Y-87122000D02*
X92021000Y-91082000D01*
X92021000Y-91082000D02*
X90351000Y-91082000D01*
X99581000Y-86322000D02*
X98981000Y-86322000D01*
X98981000Y-86322000D02*
X98981000Y-87922000D01*
X98981000Y-87922000D02*
X99581000Y-87922000D01*
X99581000Y-90282000D02*
X98981000Y-90282000D01*
X98981000Y-90282000D02*
X98981000Y-91882000D01*
X98981000Y-91882000D02*
X99581000Y-91882000D01*
%TO.C,J0*%
X42406000Y-130220000D02*
X34406000Y-130220000D01*
X34406000Y-130220000D02*
X34406000Y-120995000D01*
X34406000Y-120995000D02*
X36311000Y-120995000D01*
X36311000Y-120995000D02*
X36311000Y-119990000D01*
X36311000Y-119990000D02*
X40501000Y-119990000D01*
X40501000Y-119990000D02*
X40501000Y-120995000D01*
X40501000Y-120995000D02*
X42406000Y-120995000D01*
X42406000Y-120995000D02*
X42406000Y-130220000D01*
X42696000Y-127000000D02*
X42696000Y-123000000D01*
X40386000Y-119990000D02*
X40386000Y-120990000D01*
X40386000Y-120990000D02*
X36426000Y-120990000D01*
X36426000Y-120990000D02*
X36426000Y-119990000D01*
X40386000Y-120990000D02*
X40386000Y-122660000D01*
X40386000Y-122660000D02*
X36426000Y-122660000D01*
X36426000Y-122660000D02*
X36426000Y-120990000D01*
X41186000Y-130220000D02*
X41186000Y-129620000D01*
X41186000Y-129620000D02*
X39586000Y-129620000D01*
X39586000Y-129620000D02*
X39586000Y-130220000D01*
X37226000Y-130220000D02*
X37226000Y-129620000D01*
X37226000Y-129620000D02*
X35626000Y-129620000D01*
X35626000Y-129620000D02*
X35626000Y-130220000D01*
%TO.C,J4*%
X103137000Y-53860000D02*
X103137000Y-61860000D01*
X103137000Y-61860000D02*
X93912000Y-61860000D01*
X93912000Y-61860000D02*
X93912000Y-59955000D01*
X93912000Y-59955000D02*
X92907000Y-59955000D01*
X92907000Y-59955000D02*
X92907000Y-55765000D01*
X92907000Y-55765000D02*
X93912000Y-55765000D01*
X93912000Y-55765000D02*
X93912000Y-53860000D01*
X93912000Y-53860000D02*
X103137000Y-53860000D01*
X99917000Y-53570000D02*
X95917000Y-53570000D01*
X92907000Y-55880000D02*
X93907000Y-55880000D01*
X93907000Y-55880000D02*
X93907000Y-59840000D01*
X93907000Y-59840000D02*
X92907000Y-59840000D01*
X93907000Y-55880000D02*
X95577000Y-55880000D01*
X95577000Y-55880000D02*
X95577000Y-59840000D01*
X95577000Y-59840000D02*
X93907000Y-59840000D01*
X103137000Y-55080000D02*
X102537000Y-55080000D01*
X102537000Y-55080000D02*
X102537000Y-56680000D01*
X102537000Y-56680000D02*
X103137000Y-56680000D01*
X103137000Y-59040000D02*
X102537000Y-59040000D01*
X102537000Y-59040000D02*
X102537000Y-60640000D01*
X102537000Y-60640000D02*
X103137000Y-60640000D01*
%TO.C,J1*%
X25133000Y-83173000D02*
X25133000Y-75173000D01*
X25133000Y-75173000D02*
X34358000Y-75173000D01*
X34358000Y-75173000D02*
X34358000Y-77078000D01*
X34358000Y-77078000D02*
X35363000Y-77078000D01*
X35363000Y-77078000D02*
X35363000Y-81268000D01*
X35363000Y-81268000D02*
X34358000Y-81268000D01*
X34358000Y-81268000D02*
X34358000Y-83173000D01*
X34358000Y-83173000D02*
X25133000Y-83173000D01*
X28353000Y-83463000D02*
X32353000Y-83463000D01*
X35363000Y-81153000D02*
X34363000Y-81153000D01*
X34363000Y-81153000D02*
X34363000Y-77193000D01*
X34363000Y-77193000D02*
X35363000Y-77193000D01*
X34363000Y-81153000D02*
X32693000Y-81153000D01*
X32693000Y-81153000D02*
X32693000Y-77193000D01*
X32693000Y-77193000D02*
X34363000Y-77193000D01*
X25133000Y-81953000D02*
X25733000Y-81953000D01*
X25733000Y-81953000D02*
X25733000Y-80353000D01*
X25733000Y-80353000D02*
X25133000Y-80353000D01*
X25133000Y-77993000D02*
X25733000Y-77993000D01*
X25733000Y-77993000D02*
X25733000Y-76393000D01*
X25733000Y-76393000D02*
X25133000Y-76393000D01*
%TO.C,J2*%
D12*
X97623380Y-98250333D02*
X98337666Y-98250333D01*
X98480523Y-98297952D01*
X98575761Y-98393190D01*
X98623380Y-98536047D01*
X98623380Y-98631285D01*
X97718619Y-97821761D02*
X97671000Y-97774142D01*
X97623380Y-97678904D01*
X97623380Y-97440809D01*
X97671000Y-97345571D01*
X97718619Y-97297952D01*
X97813857Y-97250333D01*
X97909095Y-97250333D01*
X98051952Y-97297952D01*
X98623380Y-97869380D01*
X98623380Y-97250333D01*
%TO.C,C3*%
X83600333Y-126357142D02*
X83552714Y-126404761D01*
X83409857Y-126452380D01*
X83314619Y-126452380D01*
X83171761Y-126404761D01*
X83076523Y-126309523D01*
X83028904Y-126214285D01*
X82981285Y-126023809D01*
X82981285Y-125880952D01*
X83028904Y-125690476D01*
X83076523Y-125595238D01*
X83171761Y-125500000D01*
X83314619Y-125452380D01*
X83409857Y-125452380D01*
X83552714Y-125500000D01*
X83600333Y-125547619D01*
X83933666Y-125452380D02*
X84552714Y-125452380D01*
X84219380Y-125833333D01*
X84362238Y-125833333D01*
X84457476Y-125880952D01*
X84505095Y-125928571D01*
X84552714Y-126023809D01*
X84552714Y-126261904D01*
X84505095Y-126357142D01*
X84457476Y-126404761D01*
X84362238Y-126452380D01*
X84076523Y-126452380D01*
X83981285Y-126404761D01*
X83933666Y-126357142D01*
%TO.C,R10*%
X41977142Y-110452380D02*
X41643809Y-109976190D01*
X41405714Y-110452380D02*
X41405714Y-109452380D01*
X41786666Y-109452380D01*
X41881904Y-109500000D01*
X41929523Y-109547619D01*
X41977142Y-109642857D01*
X41977142Y-109785714D01*
X41929523Y-109880952D01*
X41881904Y-109928571D01*
X41786666Y-109976190D01*
X41405714Y-109976190D01*
X42929523Y-110452380D02*
X42358095Y-110452380D01*
X42643809Y-110452380D02*
X42643809Y-109452380D01*
X42548571Y-109595238D01*
X42453333Y-109690476D01*
X42358095Y-109738095D01*
X43548571Y-109452380D02*
X43643809Y-109452380D01*
X43739047Y-109500000D01*
X43786666Y-109547619D01*
X43834285Y-109642857D01*
X43881904Y-109833333D01*
X43881904Y-110071428D01*
X43834285Y-110261904D01*
X43786666Y-110357142D01*
X43739047Y-110404761D01*
X43643809Y-110452380D01*
X43548571Y-110452380D01*
X43453333Y-110404761D01*
X43405714Y-110357142D01*
X43358095Y-110261904D01*
X43310476Y-110071428D01*
X43310476Y-109833333D01*
X43358095Y-109642857D01*
X43405714Y-109547619D01*
X43453333Y-109500000D01*
X43548571Y-109452380D01*
%TO.C,R9*%
X74636333Y-116452380D02*
X74303000Y-115976190D01*
X74064904Y-116452380D02*
X74064904Y-115452380D01*
X74445857Y-115452380D01*
X74541095Y-115500000D01*
X74588714Y-115547619D01*
X74636333Y-115642857D01*
X74636333Y-115785714D01*
X74588714Y-115880952D01*
X74541095Y-115928571D01*
X74445857Y-115976190D01*
X74064904Y-115976190D01*
X75112523Y-116452380D02*
X75303000Y-116452380D01*
X75398238Y-116404761D01*
X75445857Y-116357142D01*
X75541095Y-116214285D01*
X75588714Y-116023809D01*
X75588714Y-115642857D01*
X75541095Y-115547619D01*
X75493476Y-115500000D01*
X75398238Y-115452380D01*
X75207761Y-115452380D01*
X75112523Y-115500000D01*
X75064904Y-115547619D01*
X75017285Y-115642857D01*
X75017285Y-115880952D01*
X75064904Y-115976190D01*
X75112523Y-116023809D01*
X75207761Y-116071428D01*
X75398238Y-116071428D01*
X75493476Y-116023809D01*
X75541095Y-115976190D01*
X75588714Y-115880952D01*
%TO.C,C2*%
X56295333Y-126357142D02*
X56247714Y-126404761D01*
X56104857Y-126452380D01*
X56009619Y-126452380D01*
X55866761Y-126404761D01*
X55771523Y-126309523D01*
X55723904Y-126214285D01*
X55676285Y-126023809D01*
X55676285Y-125880952D01*
X55723904Y-125690476D01*
X55771523Y-125595238D01*
X55866761Y-125500000D01*
X56009619Y-125452380D01*
X56104857Y-125452380D01*
X56247714Y-125500000D01*
X56295333Y-125547619D01*
X56676285Y-125547619D02*
X56723904Y-125500000D01*
X56819142Y-125452380D01*
X57057238Y-125452380D01*
X57152476Y-125500000D01*
X57200095Y-125547619D01*
X57247714Y-125642857D01*
X57247714Y-125738095D01*
X57200095Y-125880952D01*
X56628666Y-126452380D01*
X57247714Y-126452380D01*
%TO.C,R3*%
X74636333Y-92452380D02*
X74303000Y-91976190D01*
X74064904Y-92452380D02*
X74064904Y-91452380D01*
X74445857Y-91452380D01*
X74541095Y-91500000D01*
X74588714Y-91547619D01*
X74636333Y-91642857D01*
X74636333Y-91785714D01*
X74588714Y-91880952D01*
X74541095Y-91928571D01*
X74445857Y-91976190D01*
X74064904Y-91976190D01*
X74969666Y-91452380D02*
X75588714Y-91452380D01*
X75255380Y-91833333D01*
X75398238Y-91833333D01*
X75493476Y-91880952D01*
X75541095Y-91928571D01*
X75588714Y-92023809D01*
X75588714Y-92261904D01*
X75541095Y-92357142D01*
X75493476Y-92404761D01*
X75398238Y-92452380D01*
X75112523Y-92452380D01*
X75017285Y-92404761D01*
X74969666Y-92357142D01*
%TO.C,R8*%
X74636333Y-110452380D02*
X74303000Y-109976190D01*
X74064904Y-110452380D02*
X74064904Y-109452380D01*
X74445857Y-109452380D01*
X74541095Y-109500000D01*
X74588714Y-109547619D01*
X74636333Y-109642857D01*
X74636333Y-109785714D01*
X74588714Y-109880952D01*
X74541095Y-109928571D01*
X74445857Y-109976190D01*
X74064904Y-109976190D01*
X75207761Y-109880952D02*
X75112523Y-109833333D01*
X75064904Y-109785714D01*
X75017285Y-109690476D01*
X75017285Y-109642857D01*
X75064904Y-109547619D01*
X75112523Y-109500000D01*
X75207761Y-109452380D01*
X75398238Y-109452380D01*
X75493476Y-109500000D01*
X75541095Y-109547619D01*
X75588714Y-109642857D01*
X75588714Y-109690476D01*
X75541095Y-109785714D01*
X75493476Y-109833333D01*
X75398238Y-109880952D01*
X75207761Y-109880952D01*
X75112523Y-109928571D01*
X75064904Y-109976190D01*
X75017285Y-110071428D01*
X75017285Y-110261904D01*
X75064904Y-110357142D01*
X75112523Y-110404761D01*
X75207761Y-110452380D01*
X75398238Y-110452380D01*
X75493476Y-110404761D01*
X75541095Y-110357142D01*
X75588714Y-110261904D01*
X75588714Y-110071428D01*
X75541095Y-109976190D01*
X75493476Y-109928571D01*
X75398238Y-109880952D01*
%TO.C,R7*%
X74636333Y-104452380D02*
X74303000Y-103976190D01*
X74064904Y-104452380D02*
X74064904Y-103452380D01*
X74445857Y-103452380D01*
X74541095Y-103500000D01*
X74588714Y-103547619D01*
X74636333Y-103642857D01*
X74636333Y-103785714D01*
X74588714Y-103880952D01*
X74541095Y-103928571D01*
X74445857Y-103976190D01*
X74064904Y-103976190D01*
X74969666Y-103452380D02*
X75636333Y-103452380D01*
X75207761Y-104452380D01*
%TO.C,R6*%
X74636333Y-98452380D02*
X74303000Y-97976190D01*
X74064904Y-98452380D02*
X74064904Y-97452380D01*
X74445857Y-97452380D01*
X74541095Y-97500000D01*
X74588714Y-97547619D01*
X74636333Y-97642857D01*
X74636333Y-97785714D01*
X74588714Y-97880952D01*
X74541095Y-97928571D01*
X74445857Y-97976190D01*
X74064904Y-97976190D01*
X75493476Y-97452380D02*
X75303000Y-97452380D01*
X75207761Y-97500000D01*
X75160142Y-97547619D01*
X75064904Y-97690476D01*
X75017285Y-97880952D01*
X75017285Y-98261904D01*
X75064904Y-98357142D01*
X75112523Y-98404761D01*
X75207761Y-98452380D01*
X75398238Y-98452380D01*
X75493476Y-98404761D01*
X75541095Y-98357142D01*
X75588714Y-98261904D01*
X75588714Y-98023809D01*
X75541095Y-97928571D01*
X75493476Y-97880952D01*
X75398238Y-97833333D01*
X75207761Y-97833333D01*
X75112523Y-97880952D01*
X75064904Y-97928571D01*
X75017285Y-98023809D01*
%TO.C,R5*%
X42453333Y-98452380D02*
X42120000Y-97976190D01*
X41881904Y-98452380D02*
X41881904Y-97452380D01*
X42262857Y-97452380D01*
X42358095Y-97500000D01*
X42405714Y-97547619D01*
X42453333Y-97642857D01*
X42453333Y-97785714D01*
X42405714Y-97880952D01*
X42358095Y-97928571D01*
X42262857Y-97976190D01*
X41881904Y-97976190D01*
X43358095Y-97452380D02*
X42881904Y-97452380D01*
X42834285Y-97928571D01*
X42881904Y-97880952D01*
X42977142Y-97833333D01*
X43215238Y-97833333D01*
X43310476Y-97880952D01*
X43358095Y-97928571D01*
X43405714Y-98023809D01*
X43405714Y-98261904D01*
X43358095Y-98357142D01*
X43310476Y-98404761D01*
X43215238Y-98452380D01*
X42977142Y-98452380D01*
X42881904Y-98404761D01*
X42834285Y-98357142D01*
%TO.C,R2*%
X42453333Y-92452380D02*
X42120000Y-91976190D01*
X41881904Y-92452380D02*
X41881904Y-91452380D01*
X42262857Y-91452380D01*
X42358095Y-91500000D01*
X42405714Y-91547619D01*
X42453333Y-91642857D01*
X42453333Y-91785714D01*
X42405714Y-91880952D01*
X42358095Y-91928571D01*
X42262857Y-91976190D01*
X41881904Y-91976190D01*
X42834285Y-91547619D02*
X42881904Y-91500000D01*
X42977142Y-91452380D01*
X43215238Y-91452380D01*
X43310476Y-91500000D01*
X43358095Y-91547619D01*
X43405714Y-91642857D01*
X43405714Y-91738095D01*
X43358095Y-91880952D01*
X42786666Y-92452380D01*
X43405714Y-92452380D01*
%TO.C,R1*%
X66619380Y-64809666D02*
X66143190Y-65143000D01*
X66619380Y-65381095D02*
X65619380Y-65381095D01*
X65619380Y-65000142D01*
X65667000Y-64904904D01*
X65714619Y-64857285D01*
X65809857Y-64809666D01*
X65952714Y-64809666D01*
X66047952Y-64857285D01*
X66095571Y-64904904D01*
X66143190Y-65000142D01*
X66143190Y-65381095D01*
X66619380Y-63857285D02*
X66619380Y-64428714D01*
X66619380Y-64143000D02*
X65619380Y-64143000D01*
X65762238Y-64238238D01*
X65857476Y-64333476D01*
X65905095Y-64428714D01*
%TO.C,R4*%
X42453333Y-104452380D02*
X42120000Y-103976190D01*
X41881904Y-104452380D02*
X41881904Y-103452380D01*
X42262857Y-103452380D01*
X42358095Y-103500000D01*
X42405714Y-103547619D01*
X42453333Y-103642857D01*
X42453333Y-103785714D01*
X42405714Y-103880952D01*
X42358095Y-103928571D01*
X42262857Y-103976190D01*
X41881904Y-103976190D01*
X43310476Y-103785714D02*
X43310476Y-104452380D01*
X43072380Y-103404761D02*
X42834285Y-104119047D01*
X43453333Y-104119047D01*
%TO.C,R11*%
X41977142Y-116452380D02*
X41643809Y-115976190D01*
X41405714Y-116452380D02*
X41405714Y-115452380D01*
X41786666Y-115452380D01*
X41881904Y-115500000D01*
X41929523Y-115547619D01*
X41977142Y-115642857D01*
X41977142Y-115785714D01*
X41929523Y-115880952D01*
X41881904Y-115928571D01*
X41786666Y-115976190D01*
X41405714Y-115976190D01*
X42929523Y-116452380D02*
X42358095Y-116452380D01*
X42643809Y-116452380D02*
X42643809Y-115452380D01*
X42548571Y-115595238D01*
X42453333Y-115690476D01*
X42358095Y-115738095D01*
X43881904Y-116452380D02*
X43310476Y-116452380D01*
X43596190Y-116452380D02*
X43596190Y-115452380D01*
X43500952Y-115595238D01*
X43405714Y-115690476D01*
X43310476Y-115738095D01*
%TO.C,C1*%
X49109333Y-85574142D02*
X49061714Y-85621761D01*
X48918857Y-85669380D01*
X48823619Y-85669380D01*
X48680761Y-85621761D01*
X48585523Y-85526523D01*
X48537904Y-85431285D01*
X48490285Y-85240809D01*
X48490285Y-85097952D01*
X48537904Y-84907476D01*
X48585523Y-84812238D01*
X48680761Y-84717000D01*
X48823619Y-84669380D01*
X48918857Y-84669380D01*
X49061714Y-84717000D01*
X49109333Y-84764619D01*
X50061714Y-85669380D02*
X49490285Y-85669380D01*
X49776000Y-85669380D02*
X49776000Y-84669380D01*
X49680761Y-84812238D01*
X49585523Y-84907476D01*
X49490285Y-84955095D01*
%TO.C,J3*%
X94027666Y-82764380D02*
X94027666Y-83478666D01*
X93980047Y-83621523D01*
X93884809Y-83716761D01*
X93741952Y-83764380D01*
X93646714Y-83764380D01*
X94408619Y-82764380D02*
X95027666Y-82764380D01*
X94694333Y-83145333D01*
X94837190Y-83145333D01*
X94932428Y-83192952D01*
X94980047Y-83240571D01*
X95027666Y-83335809D01*
X95027666Y-83573904D01*
X94980047Y-83669142D01*
X94932428Y-83716761D01*
X94837190Y-83764380D01*
X94551476Y-83764380D01*
X94456238Y-83716761D01*
X94408619Y-83669142D01*
%TO.C,J0*%
X40052666Y-126782380D02*
X40052666Y-127496666D01*
X40005047Y-127639523D01*
X39909809Y-127734761D01*
X39766952Y-127782380D01*
X39671714Y-127782380D01*
X40719333Y-126782380D02*
X40814571Y-126782380D01*
X40909809Y-126830000D01*
X40957428Y-126877619D01*
X41005047Y-126972857D01*
X41052666Y-127163333D01*
X41052666Y-127401428D01*
X41005047Y-127591904D01*
X40957428Y-127687142D01*
X40909809Y-127734761D01*
X40814571Y-127782380D01*
X40719333Y-127782380D01*
X40624095Y-127734761D01*
X40576476Y-127687142D01*
X40528857Y-127591904D01*
X40481238Y-127401428D01*
X40481238Y-127163333D01*
X40528857Y-126972857D01*
X40576476Y-126877619D01*
X40624095Y-126830000D01*
X40719333Y-126782380D01*
%TO.C,J4*%
X101179380Y-56213333D02*
X101893666Y-56213333D01*
X102036523Y-56260952D01*
X102131761Y-56356190D01*
X102179380Y-56499047D01*
X102179380Y-56594285D01*
X101512714Y-55308571D02*
X102179380Y-55308571D01*
X101131761Y-55546666D02*
X101846047Y-55784761D01*
X101846047Y-55165714D01*
%TO.C,J1*%
X25995380Y-81486333D02*
X26709666Y-81486333D01*
X26852523Y-81533952D01*
X26947761Y-81629190D01*
X26995380Y-81772047D01*
X26995380Y-81867285D01*
X26995380Y-80486333D02*
X26995380Y-81057761D01*
X26995380Y-80772047D02*
X25995380Y-80772047D01*
X26138238Y-80867285D01*
X26233476Y-80962523D01*
X26281095Y-81057761D01*
%TO.C,H1*%
X37638095Y-57102380D02*
X37638095Y-56102380D01*
X37638095Y-56578571D02*
X38209523Y-56578571D01*
X38209523Y-57102380D02*
X38209523Y-56102380D01*
X39209523Y-57102380D02*
X38638095Y-57102380D01*
X38923809Y-57102380D02*
X38923809Y-56102380D01*
X38828571Y-56245238D01*
X38733333Y-56340476D01*
X38638095Y-56388095D01*
%TO.C,H2*%
X57438095Y-76902380D02*
X57438095Y-75902380D01*
X57438095Y-76378571D02*
X58009523Y-76378571D01*
X58009523Y-76902380D02*
X58009523Y-75902380D01*
X58438095Y-75997619D02*
X58485714Y-75950000D01*
X58580952Y-75902380D01*
X58819047Y-75902380D01*
X58914285Y-75950000D01*
X58961904Y-75997619D01*
X59009523Y-76092857D01*
X59009523Y-76188095D01*
X58961904Y-76330952D01*
X58390476Y-76902380D01*
X59009523Y-76902380D01*
%TO.C,H3*%
X72638095Y-57102380D02*
X72638095Y-56102380D01*
X72638095Y-56578571D02*
X73209523Y-56578571D01*
X73209523Y-57102380D02*
X73209523Y-56102380D01*
X73590476Y-56102380D02*
X74209523Y-56102380D01*
X73876190Y-56483333D01*
X74019047Y-56483333D01*
X74114285Y-56530952D01*
X74161904Y-56578571D01*
X74209523Y-56673809D01*
X74209523Y-56911904D01*
X74161904Y-57007142D01*
X74114285Y-57054761D01*
X74019047Y-57102380D01*
X73733333Y-57102380D01*
X73638095Y-57054761D01*
X73590476Y-57007142D01*
%TO.C,H4*%
X92438095Y-77102380D02*
X92438095Y-76102380D01*
X92438095Y-76578571D02*
X93009523Y-76578571D01*
X93009523Y-77102380D02*
X93009523Y-76102380D01*
X93914285Y-76435714D02*
X93914285Y-77102380D01*
X93676190Y-76054761D02*
X93438095Y-76769047D01*
X94057142Y-76769047D01*
%TD*%
M02*
