M48
; DRILL file {KiCad (5.1.6)-1} date 10/25/20 19:30:27
; FORMAT={-:-/ absolute / inch / decimal}
; #@! TF.CreationDate,2020-10-25T19:30:27+00:00
; #@! TF.GenerationSoftware,Kicad,Pcbnew,(5.1.6)-1
; #@! TF.FileFunction,Plated,1,2,PTH
FMAT,2
INCH
T1C0.0315
T2C0.0402
T3C0.0472
T4C0.0669
%
G90
G05
T1
X2.045Y-3.355
X3.0293Y-3.355
T3
X1.378Y-4.0945
X1.978Y-4.0945
X1.378Y-4.5669
X1.978Y-4.5669
X1.78Y-4.9606
X2.6658Y-4.9606
X2.645Y-3.8583
X3.245Y-3.8583
X1.378Y-3.8583
X1.978Y-3.8583
X1.378Y-3.622
X1.978Y-3.622
X2.605Y-2.245
X2.605Y-2.845
X2.645Y-4.0945
X3.245Y-4.0945
X2.6378Y-4.5669
X3.245Y-4.5669
X2.645Y-4.3307
X3.245Y-4.3307
X2.855Y-4.9606
X3.7408Y-4.9606
X2.645Y-3.622
X3.245Y-3.622
X1.378Y-4.3307
X1.978Y-4.3307
T4
X3.715Y-3.855
X3.715Y-4.0109
X1.195Y-3.0391
X1.195Y-3.195
X1.4341Y-4.9213
X1.59Y-4.9213
X3.855Y-2.2
X3.855Y-2.3559
X3.715Y-3.43
X3.715Y-3.5859
T2
G00X2.9252Y-2.7483
M15
G01X2.9252Y-2.7085
M16
G05
G00X3.0045Y-2.9527
M15
G01X2.9811Y-2.9205
M16
G05
G00X2.9812Y-2.5362
M15
G01X3.0046Y-2.504
M16
G05
G00X3.1889Y-3.0714
M15
G01X3.1511Y-3.0591
M16
G05
G00X3.1511Y-2.3975
M15
G01X3.1889Y-2.3852
M16
G05
G00X3.4079Y-2.3975
M15
G01X3.3701Y-2.3853
M16
G05
G00X3.5545Y-2.9527
M15
G01X3.5779Y-2.9205
M16
G05
G00X3.5779Y-2.5362
M15
G01X3.5545Y-2.504
M16
G05
G00X3.6339Y-2.7482
M15
G01X3.6339Y-2.7084
M16
G05
G00X1.5472Y-2.7483
M15
G01X1.5472Y-2.7085
M16
G05
G00X1.6266Y-2.9527
M15
G01X1.6032Y-2.9205
M16
G05
G00X1.6032Y-2.5362
M15
G01X1.6266Y-2.504
M16
G05
G00X1.811Y-3.0714
M15
G01X1.7732Y-3.0591
M16
G05
G00X1.7732Y-2.3975
M15
G01X1.811Y-2.3852
M16
G05
G00X2.03Y-2.3975
M15
G01X1.9922Y-2.3853
M16
G05
G00X2.1765Y-2.9527
M15
G01X2.1999Y-2.9205
M16
G05
G00X2.2Y-2.5362
M15
G01X2.1766Y-2.504
M16
G05
G00X2.2559Y-2.7482
M15
G01X2.2559Y-2.7084
M16
G05
T0
M30
