G04 #@! TF.GenerationSoftware,KiCad,Pcbnew,(5.0.0)*
G04 #@! TF.CreationDate,2019-11-08T18:27:29+00:00*
G04 #@! TF.ProjectId,A-FS,412D46532E6B696361645F7063620000,rev?*
G04 #@! TF.SameCoordinates,Original*
G04 #@! TF.FileFunction,Copper,L2,Bot,Signal*
G04 #@! TF.FilePolarity,Positive*
%FSLAX46Y46*%
G04 Gerber Fmt 4.6, Leading zero omitted, Abs format (unit mm)*
G04 Created by KiCad (PCBNEW (5.0.0)) date 11/08/19 18:27:29*
%MOMM*%
%LPD*%
G01*
G04 APERTURE LIST*
G04 #@! TA.AperFunction,ComponentPad*
%ADD10C,2.000000*%
G04 #@! TD*
G04 #@! TA.AperFunction,ComponentPad*
%ADD11C,1.600000*%
G04 #@! TD*
G04 #@! TA.AperFunction,ComponentPad*
%ADD12R,1.600000X1.600000*%
G04 #@! TD*
G04 #@! TA.AperFunction,ComponentPad*
%ADD13C,1.700000*%
G04 #@! TD*
G04 #@! TA.AperFunction,ComponentPad*
%ADD14R,1.700000X1.700000*%
G04 #@! TD*
G04 #@! TA.AperFunction,ViaPad*
%ADD15C,0.800000*%
G04 #@! TD*
G04 #@! TA.AperFunction,Conductor*
%ADD16C,0.500000*%
G04 #@! TD*
G04 #@! TA.AperFunction,Conductor*
%ADD17C,0.250000*%
G04 #@! TD*
G04 APERTURE END LIST*
D10*
G04 #@! TO.P,U8,13*
G04 #@! TO.N,Net-(U1-Pad5)*
X225425000Y-78740000D03*
G04 #@! TO.P,U8,12*
G04 #@! TO.N,Net-(U1-Pad3)*
X225425000Y-81280000D03*
G04 #@! TO.P,U8,11*
G04 #@! TO.N,Net-(U1-Pad1)*
X225425000Y-83820000D03*
G04 #@! TO.P,U8,6*
G04 #@! TO.N,IR3*
X243840000Y-74930000D03*
G04 #@! TO.P,U8,5*
G04 #@! TO.N,N/C*
X243840000Y-77470000D03*
G04 #@! TO.P,U8,4*
G04 #@! TO.N,IR2*
X243840000Y-80010000D03*
G04 #@! TO.P,U8,3*
G04 #@! TO.N,N/C*
X243840000Y-82550000D03*
G04 #@! TO.P,U8,2*
G04 #@! TO.N,IR1*
X243840000Y-85090000D03*
G04 #@! TO.P,U8,1*
G04 #@! TO.N,N/C*
X243840000Y-87630000D03*
G04 #@! TO.P,U8,23*
G04 #@! TO.N,Neg6v*
X230505000Y-104775000D03*
G04 #@! TO.P,U8,22*
G04 #@! TO.N,GND*
X227965000Y-104775000D03*
G04 #@! TO.P,U8,21*
G04 #@! TO.N,6v*
X225425000Y-104775000D03*
G04 #@! TD*
G04 #@! TO.P,U1,13*
G04 #@! TO.N,IP'3*
X225425000Y-142240000D03*
G04 #@! TO.P,U1,12*
G04 #@! TO.N,IP'2*
X225425000Y-144780000D03*
G04 #@! TO.P,U1,11*
G04 #@! TO.N,IP'1*
X225425000Y-147320000D03*
G04 #@! TO.P,U1,6*
G04 #@! TO.N,N/C*
X243840000Y-138430000D03*
G04 #@! TO.P,U1,5*
G04 #@! TO.N,Net-(U1-Pad5)*
X243840000Y-140970000D03*
G04 #@! TO.P,U1,4*
G04 #@! TO.N,N/C*
X243840000Y-143510000D03*
G04 #@! TO.P,U1,3*
G04 #@! TO.N,Net-(U1-Pad3)*
X243840000Y-146050000D03*
G04 #@! TO.P,U1,2*
G04 #@! TO.N,N/C*
X243840000Y-148590000D03*
G04 #@! TO.P,U1,1*
G04 #@! TO.N,Net-(U1-Pad1)*
X243840000Y-151130000D03*
G04 #@! TO.P,U1,23*
G04 #@! TO.N,Neg6v*
X230505000Y-168275000D03*
G04 #@! TO.P,U1,22*
G04 #@! TO.N,GND*
X227965000Y-168275000D03*
G04 #@! TO.P,U1,21*
G04 #@! TO.N,6v*
X225425000Y-168275000D03*
G04 #@! TD*
G04 #@! TO.P,U12,13*
G04 #@! TO.N,W15*
X103505000Y-78740000D03*
G04 #@! TO.P,U12,12*
G04 #@! TO.N,N/C*
X103505000Y-81280000D03*
G04 #@! TO.P,U12,11*
X103505000Y-83820000D03*
G04 #@! TO.P,U12,6*
G04 #@! TO.N,~NG15~k*
X121920000Y-74930000D03*
G04 #@! TO.P,U12,5*
G04 #@! TO.N,N/C*
X121920000Y-77470000D03*
G04 #@! TO.P,U12,4*
X121920000Y-80010000D03*
G04 #@! TO.P,U12,3*
X121920000Y-82550000D03*
G04 #@! TO.P,U12,2*
X121920000Y-85090000D03*
G04 #@! TO.P,U12,1*
X121920000Y-87630000D03*
G04 #@! TO.P,U12,23*
G04 #@! TO.N,Neg6v*
X108585000Y-104775000D03*
G04 #@! TO.P,U12,22*
G04 #@! TO.N,GND*
X106045000Y-104775000D03*
G04 #@! TO.P,U12,21*
G04 #@! TO.N,6v*
X103505000Y-104775000D03*
G04 #@! TD*
G04 #@! TO.P,U11,13*
G04 #@! TO.N,W18*
X133985000Y-78740000D03*
G04 #@! TO.P,U11,12*
G04 #@! TO.N,W14*
X133985000Y-81280000D03*
G04 #@! TO.P,U11,11*
G04 #@! TO.N,W16*
X133985000Y-83820000D03*
G04 #@! TO.P,U11,6*
G04 #@! TO.N,~NG18~k*
X152400000Y-74930000D03*
G04 #@! TO.P,U11,5*
G04 #@! TO.N,N/C*
X152400000Y-77470000D03*
G04 #@! TO.P,U11,4*
G04 #@! TO.N,~NG14~k*
X152400000Y-80010000D03*
G04 #@! TO.P,U11,3*
G04 #@! TO.N,N/C*
X152400000Y-82550000D03*
G04 #@! TO.P,U11,2*
G04 #@! TO.N,~NG16~k*
X152400000Y-85090000D03*
G04 #@! TO.P,U11,1*
G04 #@! TO.N,N/C*
X152400000Y-87630000D03*
G04 #@! TO.P,U11,23*
G04 #@! TO.N,Neg6v*
X139065000Y-104775000D03*
G04 #@! TO.P,U11,22*
G04 #@! TO.N,GND*
X136525000Y-104775000D03*
G04 #@! TO.P,U11,21*
G04 #@! TO.N,6v*
X133985000Y-104775000D03*
G04 #@! TD*
G04 #@! TO.P,U14,13*
G04 #@! TO.N,INT2*
X42545000Y-78740000D03*
G04 #@! TO.P,U14,12*
G04 #@! TO.N,INT1*
X42545000Y-81280000D03*
G04 #@! TO.P,U14,11*
G04 #@! TO.N,INT3*
X42545000Y-83820000D03*
G04 #@! TO.P,U14,6*
G04 #@! TO.N,N/C*
X60960000Y-74930000D03*
G04 #@! TO.P,U14,5*
G04 #@! TO.N,Net-(U13-Pad13)*
X60960000Y-77470000D03*
G04 #@! TO.P,U14,4*
G04 #@! TO.N,N/C*
X60960000Y-80010000D03*
G04 #@! TO.P,U14,3*
G04 #@! TO.N,Net-(U13-Pad12)*
X60960000Y-82550000D03*
G04 #@! TO.P,U14,2*
G04 #@! TO.N,N/C*
X60960000Y-85090000D03*
G04 #@! TO.P,U14,1*
G04 #@! TO.N,Net-(U13-Pad11)*
X60960000Y-87630000D03*
G04 #@! TO.P,U14,23*
G04 #@! TO.N,Neg6v*
X47625000Y-104775000D03*
G04 #@! TO.P,U14,22*
G04 #@! TO.N,GND*
X45085000Y-104775000D03*
G04 #@! TO.P,U14,21*
G04 #@! TO.N,6v*
X42545000Y-104775000D03*
G04 #@! TD*
G04 #@! TO.P,U13,13*
G04 #@! TO.N,Net-(U13-Pad13)*
X73025000Y-78740000D03*
G04 #@! TO.P,U13,12*
G04 #@! TO.N,Net-(U13-Pad12)*
X73025000Y-81280000D03*
G04 #@! TO.P,U13,11*
G04 #@! TO.N,Net-(U13-Pad11)*
X73025000Y-83820000D03*
G04 #@! TO.P,U13,6*
G04 #@! TO.N,PI2*
X91440000Y-74930000D03*
G04 #@! TO.P,U13,5*
G04 #@! TO.N,N/C*
X91440000Y-77470000D03*
G04 #@! TO.P,U13,4*
G04 #@! TO.N,PI1*
X91440000Y-80010000D03*
G04 #@! TO.P,U13,3*
G04 #@! TO.N,N/C*
X91440000Y-82550000D03*
G04 #@! TO.P,U13,2*
G04 #@! TO.N,PI3*
X91440000Y-85090000D03*
G04 #@! TO.P,U13,1*
G04 #@! TO.N,N/C*
X91440000Y-87630000D03*
G04 #@! TO.P,U13,23*
G04 #@! TO.N,Neg6v*
X78105000Y-104775000D03*
G04 #@! TO.P,U13,22*
G04 #@! TO.N,GND*
X75565000Y-104775000D03*
G04 #@! TO.P,U13,21*
G04 #@! TO.N,6v*
X73025000Y-104775000D03*
G04 #@! TD*
G04 #@! TO.P,U2,13*
G04 #@! TO.N,Net-(U2-Pad13)*
X194945000Y-142240000D03*
G04 #@! TO.P,U2,12*
G04 #@! TO.N,Net-(U2-Pad12)*
X194945000Y-144780000D03*
G04 #@! TO.P,U2,11*
G04 #@! TO.N,Net-(U2-Pad11)*
X194945000Y-147320000D03*
G04 #@! TO.P,U2,6*
G04 #@! TO.N,IR7*
X213360000Y-138430000D03*
G04 #@! TO.P,U2,5*
G04 #@! TO.N,N/C*
X213360000Y-140970000D03*
G04 #@! TO.P,U2,4*
G04 #@! TO.N,IR6*
X213360000Y-143510000D03*
G04 #@! TO.P,U2,3*
G04 #@! TO.N,N/C*
X213360000Y-146050000D03*
G04 #@! TO.P,U2,2*
G04 #@! TO.N,IR4*
X213360000Y-148590000D03*
G04 #@! TO.P,U2,1*
G04 #@! TO.N,N/C*
X213360000Y-151130000D03*
G04 #@! TO.P,U2,23*
G04 #@! TO.N,Neg6v*
X200025000Y-168275000D03*
G04 #@! TO.P,U2,22*
G04 #@! TO.N,GND*
X197485000Y-168275000D03*
G04 #@! TO.P,U2,21*
G04 #@! TO.N,6v*
X194945000Y-168275000D03*
G04 #@! TD*
G04 #@! TO.P,U3,13*
G04 #@! TO.N,IP'7*
X164465000Y-142240000D03*
G04 #@! TO.P,U3,12*
G04 #@! TO.N,IP'6*
X164465000Y-144780000D03*
G04 #@! TO.P,U3,11*
G04 #@! TO.N,IP'4*
X164465000Y-147320000D03*
G04 #@! TO.P,U3,6*
G04 #@! TO.N,N/C*
X182880000Y-138430000D03*
G04 #@! TO.P,U3,5*
G04 #@! TO.N,Net-(U2-Pad13)*
X182880000Y-140970000D03*
G04 #@! TO.P,U3,4*
G04 #@! TO.N,N/C*
X182880000Y-143510000D03*
G04 #@! TO.P,U3,3*
G04 #@! TO.N,Net-(U2-Pad12)*
X182880000Y-146050000D03*
G04 #@! TO.P,U3,2*
G04 #@! TO.N,N/C*
X182880000Y-148590000D03*
G04 #@! TO.P,U3,1*
G04 #@! TO.N,Net-(U2-Pad11)*
X182880000Y-151130000D03*
G04 #@! TO.P,U3,23*
G04 #@! TO.N,Neg6v*
X169545000Y-168275000D03*
G04 #@! TO.P,U3,22*
G04 #@! TO.N,GND*
X167005000Y-168275000D03*
G04 #@! TO.P,U3,21*
G04 #@! TO.N,6v*
X164465000Y-168275000D03*
G04 #@! TD*
G04 #@! TO.P,U4,13*
G04 #@! TO.N,W4*
X133985000Y-142240000D03*
G04 #@! TO.P,U4,12*
G04 #@! TO.N,W3*
X133985000Y-144780000D03*
G04 #@! TO.P,U4,11*
G04 #@! TO.N,W2*
X133985000Y-147320000D03*
G04 #@! TO.P,U4,6*
G04 #@! TO.N,~NG4~k*
X152400000Y-138430000D03*
G04 #@! TO.P,U4,5*
G04 #@! TO.N,N/C*
X152400000Y-140970000D03*
G04 #@! TO.P,U4,4*
G04 #@! TO.N,~NG3~k*
X152400000Y-143510000D03*
G04 #@! TO.P,U4,3*
G04 #@! TO.N,N/C*
X152400000Y-146050000D03*
G04 #@! TO.P,U4,2*
G04 #@! TO.N,~NG2~k*
X152400000Y-148590000D03*
G04 #@! TO.P,U4,1*
G04 #@! TO.N,N/C*
X152400000Y-151130000D03*
G04 #@! TO.P,U4,23*
G04 #@! TO.N,Neg6v*
X139065000Y-168275000D03*
G04 #@! TO.P,U4,22*
G04 #@! TO.N,GND*
X136525000Y-168275000D03*
G04 #@! TO.P,U4,21*
G04 #@! TO.N,6v*
X133985000Y-168275000D03*
G04 #@! TD*
G04 #@! TO.P,U9,13*
G04 #@! TO.N,Net-(U10-Pad5)*
X194945000Y-78740000D03*
G04 #@! TO.P,U9,12*
G04 #@! TO.N,Net-(U10-Pad3)*
X194945000Y-81280000D03*
G04 #@! TO.P,U9,11*
G04 #@! TO.N,N/C*
X194945000Y-83820000D03*
G04 #@! TO.P,U9,6*
G04 #@! TO.N,IR5*
X213360000Y-74930000D03*
G04 #@! TO.P,U9,5*
G04 #@! TO.N,N/C*
X213360000Y-77470000D03*
G04 #@! TO.P,U9,4*
G04 #@! TO.N,IR8*
X213360000Y-80010000D03*
G04 #@! TO.P,U9,3*
G04 #@! TO.N,N/C*
X213360000Y-82550000D03*
G04 #@! TO.P,U9,2*
X213360000Y-85090000D03*
G04 #@! TO.P,U9,1*
X213360000Y-87630000D03*
G04 #@! TO.P,U9,23*
G04 #@! TO.N,Neg6v*
X200025000Y-104775000D03*
G04 #@! TO.P,U9,22*
G04 #@! TO.N,GND*
X197485000Y-104775000D03*
G04 #@! TO.P,U9,21*
G04 #@! TO.N,6v*
X194945000Y-104775000D03*
G04 #@! TD*
G04 #@! TO.P,U10,13*
G04 #@! TO.N,IP'5*
X164465000Y-78740000D03*
G04 #@! TO.P,U10,12*
G04 #@! TO.N,IP'8*
X164465000Y-81280000D03*
G04 #@! TO.P,U10,11*
G04 #@! TO.N,N/C*
X164465000Y-83820000D03*
G04 #@! TO.P,U10,6*
X182880000Y-74930000D03*
G04 #@! TO.P,U10,5*
G04 #@! TO.N,Net-(U10-Pad5)*
X182880000Y-77470000D03*
G04 #@! TO.P,U10,4*
G04 #@! TO.N,~A~1*
X182880000Y-80010000D03*
G04 #@! TO.P,U10,3*
G04 #@! TO.N,Net-(U10-Pad3)*
X182880000Y-82550000D03*
G04 #@! TO.P,U10,2*
G04 #@! TO.N,N/C*
X182880000Y-85090000D03*
G04 #@! TO.P,U10,1*
X182880000Y-87630000D03*
G04 #@! TO.P,U10,23*
G04 #@! TO.N,Neg6v*
X169545000Y-104775000D03*
G04 #@! TO.P,U10,22*
G04 #@! TO.N,GND*
X167005000Y-104775000D03*
G04 #@! TO.P,U10,21*
G04 #@! TO.N,6v*
X164465000Y-104775000D03*
G04 #@! TD*
D11*
G04 #@! TO.P,C1,2*
G04 #@! TO.N,Neg6v*
X146900000Y-37000000D03*
D12*
G04 #@! TO.P,C1,1*
G04 #@! TO.N,GND*
X144400000Y-37000000D03*
G04 #@! TD*
D11*
G04 #@! TO.P,C2,2*
G04 #@! TO.N,GND*
X33300000Y-39800000D03*
D12*
G04 #@! TO.P,C2,1*
G04 #@! TO.N,6v*
X30800000Y-39800000D03*
G04 #@! TD*
D13*
G04 #@! TO.P,J1,AL*
G04 #@! TO.N,GND*
X39605000Y-33401000D03*
G04 #@! TO.P,J1,32*
X39605000Y-30861000D03*
G04 #@! TO.P,J1,AK*
G04 #@! TO.N,Neg6v*
X42145000Y-33401000D03*
G04 #@! TO.P,J1,31*
X42145000Y-30861000D03*
G04 #@! TO.P,J1,AJ*
G04 #@! TO.N,~A~1*
X44685000Y-33401000D03*
G04 #@! TO.P,J1,30*
G04 #@! TO.N,N/C*
X44685000Y-30861000D03*
G04 #@! TO.P,J1,AH*
G04 #@! TO.N,PI3*
X47225000Y-33401000D03*
G04 #@! TO.P,J1,29*
G04 #@! TO.N,INT3*
X47225000Y-30861000D03*
G04 #@! TO.P,J1,AF*
G04 #@! TO.N,PI2*
X49765000Y-33401000D03*
G04 #@! TO.P,J1,28*
G04 #@! TO.N,INT2*
X49765000Y-30861000D03*
G04 #@! TO.P,J1,AE*
G04 #@! TO.N,PI1*
X52305000Y-33401000D03*
G04 #@! TO.P,J1,27*
G04 #@! TO.N,INT1*
X52305000Y-30861000D03*
G04 #@! TO.P,J1,AD*
G04 #@! TO.N,N/C*
X54845000Y-33401000D03*
G04 #@! TO.P,J1,26*
X54845000Y-30861000D03*
G04 #@! TO.P,J1,AC*
X57385000Y-33401000D03*
G04 #@! TO.P,J1,25*
X57385000Y-30861000D03*
G04 #@! TO.P,J1,AB*
X59925000Y-33401000D03*
G04 #@! TO.P,J1,24*
X59925000Y-30861000D03*
G04 #@! TO.P,J1,AA*
X62465000Y-33401000D03*
G04 #@! TO.P,J1,23*
X62465000Y-30861000D03*
G04 #@! TO.P,J1,Z*
X65005000Y-33401000D03*
G04 #@! TO.P,J1,22*
X65005000Y-30861000D03*
G04 #@! TO.P,J1,Y*
X67545000Y-33401000D03*
G04 #@! TO.P,J1,21*
X67545000Y-30861000D03*
G04 #@! TO.P,J1,X*
X70085000Y-33401000D03*
G04 #@! TO.P,J1,20*
G04 #@! TO.N,W15*
X70085000Y-30861000D03*
G04 #@! TO.P,J1,W*
G04 #@! TO.N,N/C*
X72625000Y-33401000D03*
G04 #@! TO.P,J1,19*
X72625000Y-30861000D03*
G04 #@! TO.P,J1,V*
G04 #@! TO.N,~NG15~k*
X75165000Y-33401000D03*
G04 #@! TO.P,J1,18*
G04 #@! TO.N,N/C*
X75165000Y-30861000D03*
G04 #@! TO.P,J1,U*
G04 #@! TO.N,~NG2~k*
X77705000Y-33401000D03*
G04 #@! TO.P,J1,17*
G04 #@! TO.N,W4*
X77705000Y-30861000D03*
G04 #@! TO.P,J1,T*
G04 #@! TO.N,~NG3~k*
X80245000Y-33401000D03*
G04 #@! TO.P,J1,16*
G04 #@! TO.N,W3*
X80245000Y-30861000D03*
G04 #@! TO.P,J1,S*
G04 #@! TO.N,~NG4~k*
X82785000Y-33401000D03*
G04 #@! TO.P,J1,15*
G04 #@! TO.N,W2*
X82785000Y-30861000D03*
G04 #@! TO.P,J1,R*
G04 #@! TO.N,~NG18~k*
X85325000Y-33401000D03*
G04 #@! TO.P,J1,14*
G04 #@! TO.N,W18*
X85325000Y-30861000D03*
G04 #@! TO.P,J1,P*
G04 #@! TO.N,~NG14~k*
X87865000Y-33401000D03*
G04 #@! TO.P,J1,13*
G04 #@! TO.N,W14*
X87865000Y-30861000D03*
G04 #@! TO.P,J1,N*
G04 #@! TO.N,~NG16~k*
X90405000Y-33401000D03*
G04 #@! TO.P,J1,12*
G04 #@! TO.N,W16*
X90405000Y-30861000D03*
G04 #@! TO.P,J1,M*
G04 #@! TO.N,N/C*
X92945000Y-33401000D03*
G04 #@! TO.P,J1,11*
X92945000Y-30861000D03*
G04 #@! TO.P,J1,L*
G04 #@! TO.N,IR5*
X95485000Y-33401000D03*
G04 #@! TO.P,J1,10*
G04 #@! TO.N,IP'5*
X95485000Y-30861000D03*
G04 #@! TO.P,J1,K*
G04 #@! TO.N,IR8*
X98025000Y-33401000D03*
G04 #@! TO.P,J1,9*
G04 #@! TO.N,IP'8*
X98025000Y-30861000D03*
G04 #@! TO.P,J1,J*
G04 #@! TO.N,IR7*
X100565000Y-33401000D03*
G04 #@! TO.P,J1,8*
G04 #@! TO.N,IP'7*
X100565000Y-30861000D03*
G04 #@! TO.P,J1,H*
G04 #@! TO.N,IR6*
X103105000Y-33401000D03*
G04 #@! TO.P,J1,7*
G04 #@! TO.N,IP'6*
X103105000Y-30861000D03*
G04 #@! TO.P,J1,F*
G04 #@! TO.N,IR4*
X105645000Y-33401000D03*
G04 #@! TO.P,J1,6*
G04 #@! TO.N,IP'4*
X105645000Y-30861000D03*
G04 #@! TO.P,J1,E*
G04 #@! TO.N,IR3*
X108185000Y-33401000D03*
G04 #@! TO.P,J1,5*
G04 #@! TO.N,IP'3*
X108185000Y-30861000D03*
G04 #@! TO.P,J1,D*
G04 #@! TO.N,IR2*
X110725000Y-33401000D03*
G04 #@! TO.P,J1,4*
G04 #@! TO.N,IP'2*
X110725000Y-30861000D03*
G04 #@! TO.P,J1,C*
G04 #@! TO.N,IR1*
X113265000Y-33401000D03*
G04 #@! TO.P,J1,3*
G04 #@! TO.N,IP'1*
X113265000Y-30861000D03*
G04 #@! TO.P,J1,B*
G04 #@! TO.N,6v*
X115805000Y-33401000D03*
G04 #@! TO.P,J1,2*
X115805000Y-30861000D03*
G04 #@! TO.P,J1,A*
G04 #@! TO.N,GND*
X118345000Y-33401000D03*
D14*
G04 #@! TO.P,J1,1*
X118345000Y-30861000D03*
G04 #@! TD*
D15*
G04 #@! TO.N,IP'7*
X137006700Y-68996100D03*
G04 #@! TO.N,IR6*
X148877700Y-69491700D03*
G04 #@! TO.N,IP'6*
X139248100Y-68639300D03*
G04 #@! TO.N,IR4*
X136733300Y-64037300D03*
G04 #@! TO.N,IP'4*
X138695700Y-65373300D03*
G04 #@! TD*
D16*
G04 #@! TO.N,6v*
X164465000Y-168275000D02*
X165918900Y-166821100D01*
X165918900Y-166821100D02*
X193491100Y-166821100D01*
X193491100Y-166821100D02*
X194945000Y-168275000D01*
X162999500Y-166809500D02*
X164465000Y-168275000D01*
X115805000Y-33401000D02*
X115805000Y-45302000D01*
X115805000Y-45302000D02*
X135449600Y-64946600D01*
X135449600Y-64946600D02*
X135449600Y-100331000D01*
X135449600Y-100331000D02*
X132495300Y-103285300D01*
X164465000Y-104775000D02*
X162999500Y-106240500D01*
X162999500Y-106240500D02*
X162999500Y-166809500D01*
X162999500Y-166809500D02*
X135450500Y-166809500D01*
X135450500Y-166809500D02*
X133985000Y-168275000D01*
X115805000Y-30861000D02*
X115805000Y-33401000D01*
X132495300Y-103285300D02*
X104994700Y-103285300D01*
X104994700Y-103285300D02*
X103505000Y-104775000D01*
X133985000Y-104775000D02*
X132495300Y-103285300D01*
X30800000Y-39800000D02*
X30800000Y-93030000D01*
X30800000Y-93030000D02*
X42545000Y-104775000D01*
G04 #@! TO.N,Neg6v*
X108585000Y-104775000D02*
X110056200Y-106246200D01*
X110056200Y-106246200D02*
X137593800Y-106246200D01*
X137593800Y-106246200D02*
X139065000Y-104775000D01*
X139065000Y-104775000D02*
X140522300Y-103317700D01*
X140522300Y-103317700D02*
X168087700Y-103317700D01*
X168087700Y-103317700D02*
X169545000Y-104775000D01*
X200025000Y-104775000D02*
X198085800Y-102835800D01*
X198085800Y-102835800D02*
X196034600Y-102835800D01*
X196034600Y-102835800D02*
X146900000Y-53701200D01*
X146900000Y-53701200D02*
X146900000Y-37000000D01*
X78105000Y-104775000D02*
X76634700Y-106245300D01*
X76634700Y-106245300D02*
X49095300Y-106245300D01*
X49095300Y-106245300D02*
X47625000Y-104775000D01*
X42145000Y-33401000D02*
X40567900Y-34978100D01*
X40567900Y-34978100D02*
X40567900Y-97717900D01*
X40567900Y-97717900D02*
X47625000Y-104775000D01*
X42145000Y-30861000D02*
X42145000Y-33401000D01*
G04 #@! TO.N,GND*
X118345000Y-33401000D02*
X118345000Y-46851500D01*
X118345000Y-46851500D02*
X136150000Y-64656500D01*
X136150000Y-64656500D02*
X136150000Y-104400000D01*
X136150000Y-104400000D02*
X136525000Y-104775000D01*
X118345000Y-30861000D02*
X118345000Y-33401000D01*
X197485000Y-168275000D02*
X196034600Y-169725400D01*
X196034600Y-169725400D02*
X168455400Y-169725400D01*
X168455400Y-169725400D02*
X167005000Y-168275000D01*
X227720700Y-168275000D02*
X227720700Y-107506500D01*
X227720700Y-107506500D02*
X226477100Y-106262900D01*
X197485000Y-168275000D02*
X198939400Y-169729400D01*
X198939400Y-169729400D02*
X226266300Y-169729400D01*
X226266300Y-169729400D02*
X227720700Y-168275000D01*
X227720700Y-168275000D02*
X227965000Y-168275000D01*
X226477100Y-106262900D02*
X227965000Y-104775000D01*
X197485000Y-104775000D02*
X198972900Y-106262900D01*
X198972900Y-106262900D02*
X226477100Y-106262900D01*
X33300000Y-39800000D02*
X39605000Y-33495000D01*
X39605000Y-33495000D02*
X39605000Y-33401000D01*
X39605000Y-30861000D02*
X39605000Y-33401000D01*
D17*
G04 #@! TO.N,~A~1*
X44685000Y-33401000D02*
X43494400Y-32210400D01*
X43494400Y-32210400D02*
X43494400Y-30370300D01*
X43494400Y-30370300D02*
X46029900Y-27834800D01*
X46029900Y-27834800D02*
X120117900Y-27834800D01*
X120117900Y-27834800D02*
X128053700Y-35770600D01*
X128053700Y-35770600D02*
X147266900Y-35770600D01*
X147266900Y-35770600D02*
X180257100Y-68760800D01*
X180257100Y-68760800D02*
X180257100Y-77387100D01*
X180257100Y-77387100D02*
X182880000Y-80010000D01*
G04 #@! TO.N,INT3*
X47225000Y-30861000D02*
X45955000Y-32131000D01*
X45955000Y-32131000D02*
X45955000Y-36190000D01*
X45955000Y-36190000D02*
X41145000Y-41000000D01*
X41145000Y-41000000D02*
X41145000Y-82420000D01*
X41145000Y-82420000D02*
X42545000Y-83820000D01*
G04 #@! TO.N,INT2*
X49765000Y-30861000D02*
X48495000Y-32131000D01*
X48495000Y-32131000D02*
X48495000Y-72790000D01*
X48495000Y-72790000D02*
X42545000Y-78740000D01*
G04 #@! TO.N,INT1*
X52305000Y-30861000D02*
X51114500Y-32051500D01*
X51114500Y-32051500D02*
X51114500Y-72710500D01*
X51114500Y-72710500D02*
X42545000Y-81280000D01*
G04 #@! TO.N,~NG2~k*
X77705000Y-33401000D02*
X77705000Y-92919700D01*
X77705000Y-92919700D02*
X133451200Y-148665900D01*
X133451200Y-148665900D02*
X152324100Y-148665900D01*
X152324100Y-148665900D02*
X152400000Y-148590000D01*
G04 #@! TO.N,W4*
X77705000Y-30861000D02*
X78975000Y-32131000D01*
X78975000Y-32131000D02*
X78975000Y-87230000D01*
X78975000Y-87230000D02*
X133985000Y-142240000D01*
G04 #@! TO.N,~NG3~k*
X80245000Y-33401000D02*
X80245000Y-32764100D01*
X80245000Y-32764100D02*
X79064400Y-31583500D01*
X79064400Y-31583500D02*
X79064400Y-30311300D01*
X79064400Y-30311300D02*
X80149400Y-29226300D01*
X80149400Y-29226300D02*
X85373300Y-29226300D01*
X85373300Y-29226300D02*
X86688800Y-30541800D01*
X86688800Y-30541800D02*
X86688800Y-31349100D01*
X86688800Y-31349100D02*
X87565300Y-32225600D01*
X87565300Y-32225600D02*
X88390600Y-32225600D01*
X88390600Y-32225600D02*
X89135000Y-32970000D01*
X89135000Y-32970000D02*
X89135000Y-92292600D01*
X89135000Y-92292600D02*
X104221000Y-107378600D01*
X104221000Y-107378600D02*
X123287700Y-107378600D01*
X123287700Y-107378600D02*
X153768900Y-137859800D01*
X153768900Y-137859800D02*
X153768900Y-142141100D01*
X153768900Y-142141100D02*
X152400000Y-143510000D01*
G04 #@! TO.N,W3*
X133985000Y-144780000D02*
X135351100Y-143413900D01*
X135351100Y-143413900D02*
X135351100Y-141406000D01*
X135351100Y-141406000D02*
X81515000Y-87569900D01*
X81515000Y-87569900D02*
X81515000Y-32767900D01*
X81515000Y-32767900D02*
X80245000Y-31497900D01*
X80245000Y-31497900D02*
X80245000Y-30861000D01*
G04 #@! TO.N,~NG4~k*
X82785000Y-33401000D02*
X81587700Y-32203700D01*
X81587700Y-32203700D02*
X81587700Y-30341700D01*
X81587700Y-30341700D02*
X82251900Y-29677500D01*
X82251900Y-29677500D02*
X83324900Y-29677500D01*
X83324900Y-29677500D02*
X84055000Y-30407600D01*
X84055000Y-30407600D02*
X84055000Y-31270300D01*
X84055000Y-31270300D02*
X85010300Y-32225600D01*
X85010300Y-32225600D02*
X85850600Y-32225600D01*
X85850600Y-32225600D02*
X86689000Y-33064000D01*
X86689000Y-33064000D02*
X86689000Y-90483500D01*
X86689000Y-90483500D02*
X134635500Y-138430000D01*
X134635500Y-138430000D02*
X152400000Y-138430000D01*
G04 #@! TO.N,W2*
X133985000Y-147320000D02*
X135801500Y-145503500D01*
X135801500Y-145503500D02*
X135801500Y-140582500D01*
X135801500Y-140582500D02*
X84055000Y-88836000D01*
X84055000Y-88836000D02*
X84055000Y-32131000D01*
X84055000Y-32131000D02*
X82785000Y-30861000D01*
G04 #@! TO.N,W14*
X87865000Y-30861000D02*
X89057700Y-29668300D01*
X89057700Y-29668300D02*
X90900400Y-29668300D01*
X90900400Y-29668300D02*
X91675000Y-30442900D01*
X91675000Y-30442900D02*
X91675000Y-31270400D01*
X91675000Y-31270400D02*
X92630200Y-32225600D01*
X92630200Y-32225600D02*
X93470600Y-32225600D01*
X93470600Y-32225600D02*
X94215000Y-32970000D01*
X94215000Y-32970000D02*
X94215000Y-41510000D01*
X94215000Y-41510000D02*
X133985000Y-81280000D01*
G04 #@! TO.N,W16*
X90405000Y-30861000D02*
X91675000Y-32131000D01*
X91675000Y-32131000D02*
X91675000Y-41510000D01*
X91675000Y-41510000D02*
X133985000Y-83820000D01*
G04 #@! TO.N,IR7*
X100565000Y-33401000D02*
X101929600Y-32036400D01*
X101929600Y-32036400D02*
X113790600Y-32036400D01*
X113790600Y-32036400D02*
X114535000Y-31292000D01*
X114535000Y-31292000D02*
X114535000Y-30360900D01*
X114535000Y-30360900D02*
X115210300Y-29685600D01*
X115210300Y-29685600D02*
X119345500Y-29685600D01*
X119345500Y-29685600D02*
X178438300Y-88778400D01*
X178438300Y-88778400D02*
X178438300Y-103508300D01*
X178438300Y-103508300D02*
X213360000Y-138430000D01*
G04 #@! TO.N,IP'7*
X137006700Y-68996100D02*
X137006700Y-75463300D01*
X137006700Y-75463300D02*
X163809000Y-102265600D01*
X163809000Y-102265600D02*
X168951700Y-102265600D01*
X168951700Y-102265600D02*
X170928200Y-104242100D01*
X170928200Y-104242100D02*
X170928200Y-135776800D01*
X170928200Y-135776800D02*
X164465000Y-142240000D01*
G04 #@! TO.N,IR6*
X213360000Y-143510000D02*
X157159700Y-87309700D01*
X157159700Y-87309700D02*
X157159700Y-77136700D01*
X157159700Y-77136700D02*
X149514700Y-69491700D01*
X149514700Y-69491700D02*
X148877700Y-69491700D01*
G04 #@! TO.N,IP'6*
X139248100Y-68639300D02*
X139248100Y-77032700D01*
X139248100Y-77032700D02*
X152982900Y-90767500D01*
X152982900Y-90767500D02*
X158090500Y-90767500D01*
X158090500Y-90767500D02*
X171378600Y-104055600D01*
X171378600Y-104055600D02*
X171378600Y-137866400D01*
X171378600Y-137866400D02*
X164465000Y-144780000D01*
G04 #@! TO.N,IR4*
X136733300Y-64037300D02*
X142197800Y-64037300D01*
X142197800Y-64037300D02*
X151223500Y-73063000D01*
X151223500Y-73063000D02*
X152449100Y-73063000D01*
X152449100Y-73063000D02*
X154019400Y-74633300D01*
X154019400Y-74633300D02*
X154019400Y-84806300D01*
X154019400Y-84806300D02*
X210627900Y-141414800D01*
X210627900Y-141414800D02*
X210627900Y-145857900D01*
X210627900Y-145857900D02*
X213360000Y-148590000D01*
G04 #@! TO.N,IP'4*
X138695700Y-65373300D02*
X140400200Y-67077800D01*
X140400200Y-67077800D02*
X140400200Y-77546600D01*
X140400200Y-77546600D02*
X152270400Y-89416800D01*
X152270400Y-89416800D02*
X157388400Y-89416800D01*
X157388400Y-89416800D02*
X171829000Y-103857400D01*
X171829000Y-103857400D02*
X171829000Y-139956000D01*
X171829000Y-139956000D02*
X164465000Y-147320000D01*
G04 #@! TO.N,IP'3*
X225425000Y-142240000D02*
X185643300Y-102458300D01*
X185643300Y-102458300D02*
X185643300Y-93997100D01*
X185643300Y-93997100D02*
X119966100Y-28319900D01*
X119966100Y-28319900D02*
X110726100Y-28319900D01*
X110726100Y-28319900D02*
X108185000Y-30861000D01*
G04 #@! TO.N,IP'2*
X225425000Y-144780000D02*
X185193000Y-104548000D01*
X185193000Y-104548000D02*
X185193000Y-94183700D01*
X185193000Y-94183700D02*
X119779500Y-28770200D01*
X119779500Y-28770200D02*
X112815800Y-28770200D01*
X112815800Y-28770200D02*
X110725000Y-30861000D01*
G04 #@! TO.N,IP'1*
X225425000Y-147320000D02*
X183493500Y-105388500D01*
X183493500Y-105388500D02*
X183493500Y-93196600D01*
X183493500Y-93196600D02*
X119517500Y-29220600D01*
X119517500Y-29220600D02*
X114905400Y-29220600D01*
X114905400Y-29220600D02*
X113265000Y-30861000D01*
G04 #@! TO.N,Net-(U1-Pad5)*
X243840000Y-140970000D02*
X236986500Y-134116500D01*
X236986500Y-134116500D02*
X236986500Y-90301500D01*
X236986500Y-90301500D02*
X225425000Y-78740000D01*
G04 #@! TO.N,Net-(U1-Pad3)*
X243840000Y-146050000D02*
X234339200Y-136549200D01*
X234339200Y-136549200D02*
X234339200Y-90194200D01*
X234339200Y-90194200D02*
X225425000Y-81280000D01*
G04 #@! TD*
M02*
