G04 #@! TF.GenerationSoftware,KiCad,Pcbnew,(5.0.0)*
G04 #@! TF.CreationDate,2019-11-08T18:27:30+00:00*
G04 #@! TF.ProjectId,A-FS,412D46532E6B696361645F7063620000,rev?*
G04 #@! TF.SameCoordinates,Original*
G04 #@! TF.FileFunction,Legend,Top*
G04 #@! TF.FilePolarity,Positive*
%FSLAX46Y46*%
G04 Gerber Fmt 4.6, Leading zero omitted, Abs format (unit mm)*
G04 Created by KiCad (PCBNEW (5.0.0)) date 11/08/19 18:27:30*
%MOMM*%
%LPD*%
G01*
G04 APERTURE LIST*
%ADD10C,0.300000*%
%ADD11C,0.200000*%
%ADD12C,0.150000*%
%ADD13C,0.120000*%
G04 APERTURE END LIST*
D10*
X33500000Y-180492857D02*
X33714285Y-180564285D01*
X33785714Y-180635714D01*
X33857142Y-180778571D01*
X33857142Y-180992857D01*
X33785714Y-181135714D01*
X33714285Y-181207142D01*
X33571428Y-181278571D01*
X33000000Y-181278571D01*
X33000000Y-179778571D01*
X33500000Y-179778571D01*
X33642857Y-179850000D01*
X33714285Y-179921428D01*
X33785714Y-180064285D01*
X33785714Y-180207142D01*
X33714285Y-180350000D01*
X33642857Y-180421428D01*
X33500000Y-180492857D01*
X33000000Y-180492857D01*
X34714285Y-181278571D02*
X34571428Y-181207142D01*
X34500000Y-181135714D01*
X34428571Y-180992857D01*
X34428571Y-180564285D01*
X34500000Y-180421428D01*
X34571428Y-180350000D01*
X34714285Y-180278571D01*
X34928571Y-180278571D01*
X35071428Y-180350000D01*
X35142857Y-180421428D01*
X35214285Y-180564285D01*
X35214285Y-180992857D01*
X35142857Y-181135714D01*
X35071428Y-181207142D01*
X34928571Y-181278571D01*
X34714285Y-181278571D01*
X36500000Y-181278571D02*
X36500000Y-180492857D01*
X36428571Y-180350000D01*
X36285714Y-180278571D01*
X36000000Y-180278571D01*
X35857142Y-180350000D01*
X36500000Y-181207142D02*
X36357142Y-181278571D01*
X36000000Y-181278571D01*
X35857142Y-181207142D01*
X35785714Y-181064285D01*
X35785714Y-180921428D01*
X35857142Y-180778571D01*
X36000000Y-180707142D01*
X36357142Y-180707142D01*
X36500000Y-180635714D01*
X37214285Y-181278571D02*
X37214285Y-180278571D01*
X37214285Y-180564285D02*
X37285714Y-180421428D01*
X37357142Y-180350000D01*
X37500000Y-180278571D01*
X37642857Y-180278571D01*
X38785714Y-181278571D02*
X38785714Y-179778571D01*
X38785714Y-181207142D02*
X38642857Y-181278571D01*
X38357142Y-181278571D01*
X38214285Y-181207142D01*
X38142857Y-181135714D01*
X38071428Y-180992857D01*
X38071428Y-180564285D01*
X38142857Y-180421428D01*
X38214285Y-180350000D01*
X38357142Y-180278571D01*
X38642857Y-180278571D01*
X38785714Y-180350000D01*
X40642857Y-181278571D02*
X40642857Y-179778571D01*
X41214285Y-179778571D01*
X41357142Y-179850000D01*
X41428571Y-179921428D01*
X41500000Y-180064285D01*
X41500000Y-180278571D01*
X41428571Y-180421428D01*
X41357142Y-180492857D01*
X41214285Y-180564285D01*
X40642857Y-180564285D01*
X42357142Y-181278571D02*
X42214285Y-181207142D01*
X42142857Y-181135714D01*
X42071428Y-180992857D01*
X42071428Y-180564285D01*
X42142857Y-180421428D01*
X42214285Y-180350000D01*
X42357142Y-180278571D01*
X42571428Y-180278571D01*
X42714285Y-180350000D01*
X42785714Y-180421428D01*
X42857142Y-180564285D01*
X42857142Y-180992857D01*
X42785714Y-181135714D01*
X42714285Y-181207142D01*
X42571428Y-181278571D01*
X42357142Y-181278571D01*
X43428571Y-181207142D02*
X43571428Y-181278571D01*
X43857142Y-181278571D01*
X44000000Y-181207142D01*
X44071428Y-181064285D01*
X44071428Y-180992857D01*
X44000000Y-180850000D01*
X43857142Y-180778571D01*
X43642857Y-180778571D01*
X43500000Y-180707142D01*
X43428571Y-180564285D01*
X43428571Y-180492857D01*
X43500000Y-180350000D01*
X43642857Y-180278571D01*
X43857142Y-180278571D01*
X44000000Y-180350000D01*
X44714285Y-181278571D02*
X44714285Y-180278571D01*
X44714285Y-179778571D02*
X44642857Y-179850000D01*
X44714285Y-179921428D01*
X44785714Y-179850000D01*
X44714285Y-179778571D01*
X44714285Y-179921428D01*
X45214285Y-180278571D02*
X45785714Y-180278571D01*
X45428571Y-179778571D02*
X45428571Y-181064285D01*
X45500000Y-181207142D01*
X45642857Y-181278571D01*
X45785714Y-181278571D01*
X46285714Y-181278571D02*
X46285714Y-180278571D01*
X46285714Y-179778571D02*
X46214285Y-179850000D01*
X46285714Y-179921428D01*
X46357142Y-179850000D01*
X46285714Y-179778571D01*
X46285714Y-179921428D01*
X47214285Y-181278571D02*
X47071428Y-181207142D01*
X47000000Y-181135714D01*
X46928571Y-180992857D01*
X46928571Y-180564285D01*
X47000000Y-180421428D01*
X47071428Y-180350000D01*
X47214285Y-180278571D01*
X47428571Y-180278571D01*
X47571428Y-180350000D01*
X47642857Y-180421428D01*
X47714285Y-180564285D01*
X47714285Y-180992857D01*
X47642857Y-181135714D01*
X47571428Y-181207142D01*
X47428571Y-181278571D01*
X47214285Y-181278571D01*
X48357142Y-180278571D02*
X48357142Y-181278571D01*
X48357142Y-180421428D02*
X48428571Y-180350000D01*
X48571428Y-180278571D01*
X48785714Y-180278571D01*
X48928571Y-180350000D01*
X49000000Y-180492857D01*
X49000000Y-181278571D01*
X50785714Y-179921428D02*
X50857142Y-179850000D01*
X51000000Y-179778571D01*
X51357142Y-179778571D01*
X51500000Y-179850000D01*
X51571428Y-179921428D01*
X51642857Y-180064285D01*
X51642857Y-180207142D01*
X51571428Y-180421428D01*
X50714285Y-181278571D01*
X51642857Y-181278571D01*
X52357142Y-181278571D02*
X52642857Y-181278571D01*
X52785714Y-181207142D01*
X52857142Y-181135714D01*
X53000000Y-180921428D01*
X53071428Y-180635714D01*
X53071428Y-180064285D01*
X53000000Y-179921428D01*
X52928571Y-179850000D01*
X52785714Y-179778571D01*
X52500000Y-179778571D01*
X52357142Y-179850000D01*
X52285714Y-179921428D01*
X52214285Y-180064285D01*
X52214285Y-180421428D01*
X52285714Y-180564285D01*
X52357142Y-180635714D01*
X52500000Y-180707142D01*
X52785714Y-180707142D01*
X52928571Y-180635714D01*
X53000000Y-180564285D01*
X53071428Y-180421428D01*
X45054761Y-51949047D02*
X45054761Y-49409047D01*
X46022380Y-49409047D01*
X46264285Y-49530000D01*
X46385238Y-49650952D01*
X46506190Y-49892857D01*
X46506190Y-50255714D01*
X46385238Y-50497619D01*
X46264285Y-50618571D01*
X46022380Y-50739523D01*
X45054761Y-50739523D01*
X75474285Y-51949047D02*
X75474285Y-49409047D01*
X76925714Y-51949047D01*
X76925714Y-49409047D01*
X105833333Y-51949047D02*
X105833333Y-49409047D01*
X106680000Y-51223333D01*
X107526666Y-49409047D01*
X107526666Y-51949047D01*
X137946190Y-51949047D02*
X136736666Y-51949047D01*
X136736666Y-49409047D01*
X166974761Y-51949047D02*
X166974761Y-49409047D01*
X168426190Y-51949047D02*
X167337619Y-50497619D01*
X168426190Y-49409047D02*
X166974761Y-50860476D01*
X198482857Y-49409047D02*
X198482857Y-51223333D01*
X198361904Y-51586190D01*
X198120000Y-51828095D01*
X197757142Y-51949047D01*
X197515238Y-51949047D01*
X227874285Y-51949047D02*
X227874285Y-49409047D01*
X227874285Y-50618571D02*
X229325714Y-50618571D01*
X229325714Y-51949047D02*
X229325714Y-49409047D01*
X46385238Y-113030000D02*
X46143333Y-112909047D01*
X45780476Y-112909047D01*
X45417619Y-113030000D01*
X45175714Y-113271904D01*
X45054761Y-113513809D01*
X44933809Y-113997619D01*
X44933809Y-114360476D01*
X45054761Y-114844285D01*
X45175714Y-115086190D01*
X45417619Y-115328095D01*
X45780476Y-115449047D01*
X46022380Y-115449047D01*
X46385238Y-115328095D01*
X46506190Y-115207142D01*
X46506190Y-114360476D01*
X46022380Y-114360476D01*
X76562857Y-114118571D02*
X75716190Y-114118571D01*
X75716190Y-115449047D02*
X75716190Y-112909047D01*
X76925714Y-112909047D01*
X106135714Y-114118571D02*
X106982380Y-114118571D01*
X107345238Y-115449047D02*
X106135714Y-115449047D01*
X106135714Y-112909047D01*
X107345238Y-112909047D01*
X136494761Y-115449047D02*
X136494761Y-112909047D01*
X137099523Y-112909047D01*
X137462380Y-113030000D01*
X137704285Y-113271904D01*
X137825238Y-113513809D01*
X137946190Y-113997619D01*
X137946190Y-114360476D01*
X137825238Y-114844285D01*
X137704285Y-115086190D01*
X137462380Y-115328095D01*
X137099523Y-115449047D01*
X136494761Y-115449047D01*
X168426190Y-115207142D02*
X168305238Y-115328095D01*
X167942380Y-115449047D01*
X167700476Y-115449047D01*
X167337619Y-115328095D01*
X167095714Y-115086190D01*
X166974761Y-114844285D01*
X166853809Y-114360476D01*
X166853809Y-113997619D01*
X166974761Y-113513809D01*
X167095714Y-113271904D01*
X167337619Y-113030000D01*
X167700476Y-112909047D01*
X167942380Y-112909047D01*
X168305238Y-113030000D01*
X168426190Y-113150952D01*
X198301428Y-114118571D02*
X198664285Y-114239523D01*
X198785238Y-114360476D01*
X198906190Y-114602380D01*
X198906190Y-114965238D01*
X198785238Y-115207142D01*
X198664285Y-115328095D01*
X198422380Y-115449047D01*
X197454761Y-115449047D01*
X197454761Y-112909047D01*
X198301428Y-112909047D01*
X198543333Y-113030000D01*
X198664285Y-113150952D01*
X198785238Y-113392857D01*
X198785238Y-113634761D01*
X198664285Y-113876666D01*
X198543333Y-113997619D01*
X198301428Y-114118571D01*
X197454761Y-114118571D01*
X227995238Y-114723333D02*
X229204761Y-114723333D01*
X227753333Y-115449047D02*
X228600000Y-112909047D01*
X229446666Y-115449047D01*
X129510071Y-29356857D02*
X129010071Y-29356857D01*
X129010071Y-30142571D02*
X129010071Y-28642571D01*
X129724357Y-28642571D01*
X130295785Y-30142571D02*
X130295785Y-29142571D01*
X130295785Y-28642571D02*
X130224357Y-28714000D01*
X130295785Y-28785428D01*
X130367214Y-28714000D01*
X130295785Y-28642571D01*
X130295785Y-28785428D01*
X130795785Y-29142571D02*
X131367214Y-29142571D01*
X131010071Y-28642571D02*
X131010071Y-29928285D01*
X131081500Y-30071142D01*
X131224357Y-30142571D01*
X131367214Y-30142571D01*
X133867214Y-29999714D02*
X133795785Y-30071142D01*
X133581500Y-30142571D01*
X133438642Y-30142571D01*
X133224357Y-30071142D01*
X133081500Y-29928285D01*
X133010071Y-29785428D01*
X132938642Y-29499714D01*
X132938642Y-29285428D01*
X133010071Y-28999714D01*
X133081500Y-28856857D01*
X133224357Y-28714000D01*
X133438642Y-28642571D01*
X133581500Y-28642571D01*
X133795785Y-28714000D01*
X133867214Y-28785428D01*
X134724357Y-30142571D02*
X134581500Y-30071142D01*
X134510071Y-29999714D01*
X134438642Y-29856857D01*
X134438642Y-29428285D01*
X134510071Y-29285428D01*
X134581500Y-29214000D01*
X134724357Y-29142571D01*
X134938642Y-29142571D01*
X135081500Y-29214000D01*
X135152928Y-29285428D01*
X135224357Y-29428285D01*
X135224357Y-29856857D01*
X135152928Y-29999714D01*
X135081500Y-30071142D01*
X134938642Y-30142571D01*
X134724357Y-30142571D01*
X135867214Y-29142571D02*
X135867214Y-30142571D01*
X135867214Y-29285428D02*
X135938642Y-29214000D01*
X136081500Y-29142571D01*
X136295785Y-29142571D01*
X136438642Y-29214000D01*
X136510071Y-29356857D01*
X136510071Y-30142571D01*
X137224357Y-29142571D02*
X137224357Y-30142571D01*
X137224357Y-29285428D02*
X137295785Y-29214000D01*
X137438642Y-29142571D01*
X137652928Y-29142571D01*
X137795785Y-29214000D01*
X137867214Y-29356857D01*
X137867214Y-30142571D01*
X139152928Y-30071142D02*
X139010071Y-30142571D01*
X138724357Y-30142571D01*
X138581500Y-30071142D01*
X138510071Y-29928285D01*
X138510071Y-29356857D01*
X138581500Y-29214000D01*
X138724357Y-29142571D01*
X139010071Y-29142571D01*
X139152928Y-29214000D01*
X139224357Y-29356857D01*
X139224357Y-29499714D01*
X138510071Y-29642571D01*
X140510071Y-30071142D02*
X140367214Y-30142571D01*
X140081500Y-30142571D01*
X139938642Y-30071142D01*
X139867214Y-29999714D01*
X139795785Y-29856857D01*
X139795785Y-29428285D01*
X139867214Y-29285428D01*
X139938642Y-29214000D01*
X140081500Y-29142571D01*
X140367214Y-29142571D01*
X140510071Y-29214000D01*
X140938642Y-29142571D02*
X141510071Y-29142571D01*
X141152928Y-28642571D02*
X141152928Y-29928285D01*
X141224357Y-30071142D01*
X141367214Y-30142571D01*
X141510071Y-30142571D01*
X142224357Y-30142571D02*
X142081500Y-30071142D01*
X142010071Y-29999714D01*
X141938642Y-29856857D01*
X141938642Y-29428285D01*
X142010071Y-29285428D01*
X142081500Y-29214000D01*
X142224357Y-29142571D01*
X142438642Y-29142571D01*
X142581500Y-29214000D01*
X142652928Y-29285428D01*
X142724357Y-29428285D01*
X142724357Y-29856857D01*
X142652928Y-29999714D01*
X142581500Y-30071142D01*
X142438642Y-30142571D01*
X142224357Y-30142571D01*
X143367214Y-30142571D02*
X143367214Y-29142571D01*
X143367214Y-29428285D02*
X143438642Y-29285428D01*
X143510071Y-29214000D01*
X143652928Y-29142571D01*
X143795785Y-29142571D01*
X145224357Y-29142571D02*
X145795785Y-29142571D01*
X145438642Y-28642571D02*
X145438642Y-29928285D01*
X145510071Y-30071142D01*
X145652928Y-30142571D01*
X145795785Y-30142571D01*
X146510071Y-30142571D02*
X146367214Y-30071142D01*
X146295785Y-29999714D01*
X146224357Y-29856857D01*
X146224357Y-29428285D01*
X146295785Y-29285428D01*
X146367214Y-29214000D01*
X146510071Y-29142571D01*
X146724357Y-29142571D01*
X146867214Y-29214000D01*
X146938642Y-29285428D01*
X147010071Y-29428285D01*
X147010071Y-29856857D01*
X146938642Y-29999714D01*
X146867214Y-30071142D01*
X146724357Y-30142571D01*
X146510071Y-30142571D01*
X148795785Y-28642571D02*
X148795785Y-29856857D01*
X148867214Y-29999714D01*
X148938642Y-30071142D01*
X149081500Y-30142571D01*
X149367214Y-30142571D01*
X149510071Y-30071142D01*
X149581500Y-29999714D01*
X149652928Y-29856857D01*
X149652928Y-28642571D01*
X150367214Y-29142571D02*
X150367214Y-30142571D01*
X150367214Y-29285428D02*
X150438642Y-29214000D01*
X150581500Y-29142571D01*
X150795785Y-29142571D01*
X150938642Y-29214000D01*
X151010071Y-29356857D01*
X151010071Y-30142571D01*
X152367214Y-30142571D02*
X152367214Y-28642571D01*
X152367214Y-30071142D02*
X152224357Y-30142571D01*
X151938642Y-30142571D01*
X151795785Y-30071142D01*
X151724357Y-29999714D01*
X151652928Y-29856857D01*
X151652928Y-29428285D01*
X151724357Y-29285428D01*
X151795785Y-29214000D01*
X151938642Y-29142571D01*
X152224357Y-29142571D01*
X152367214Y-29214000D01*
X153652928Y-30071142D02*
X153510071Y-30142571D01*
X153224357Y-30142571D01*
X153081500Y-30071142D01*
X153010071Y-29928285D01*
X153010071Y-29356857D01*
X153081500Y-29214000D01*
X153224357Y-29142571D01*
X153510071Y-29142571D01*
X153652928Y-29214000D01*
X153724357Y-29356857D01*
X153724357Y-29499714D01*
X153010071Y-29642571D01*
X154367214Y-30142571D02*
X154367214Y-29142571D01*
X154367214Y-29428285D02*
X154438642Y-29285428D01*
X154510071Y-29214000D01*
X154652928Y-29142571D01*
X154795785Y-29142571D01*
X155224357Y-30071142D02*
X155367214Y-30142571D01*
X155652928Y-30142571D01*
X155795785Y-30071142D01*
X155867214Y-29928285D01*
X155867214Y-29856857D01*
X155795785Y-29714000D01*
X155652928Y-29642571D01*
X155438642Y-29642571D01*
X155295785Y-29571142D01*
X155224357Y-29428285D01*
X155224357Y-29356857D01*
X155295785Y-29214000D01*
X155438642Y-29142571D01*
X155652928Y-29142571D01*
X155795785Y-29214000D01*
X156510071Y-30142571D02*
X156510071Y-29142571D01*
X156510071Y-28642571D02*
X156438642Y-28714000D01*
X156510071Y-28785428D01*
X156581500Y-28714000D01*
X156510071Y-28642571D01*
X156510071Y-28785428D01*
X157867214Y-30142571D02*
X157867214Y-28642571D01*
X157867214Y-30071142D02*
X157724357Y-30142571D01*
X157438642Y-30142571D01*
X157295785Y-30071142D01*
X157224357Y-29999714D01*
X157152928Y-29856857D01*
X157152928Y-29428285D01*
X157224357Y-29285428D01*
X157295785Y-29214000D01*
X157438642Y-29142571D01*
X157724357Y-29142571D01*
X157867214Y-29214000D01*
X159152928Y-30071142D02*
X159010071Y-30142571D01*
X158724357Y-30142571D01*
X158581500Y-30071142D01*
X158510071Y-29928285D01*
X158510071Y-29356857D01*
X158581500Y-29214000D01*
X158724357Y-29142571D01*
X159010071Y-29142571D01*
X159152928Y-29214000D01*
X159224357Y-29356857D01*
X159224357Y-29499714D01*
X158510071Y-29642571D01*
X228953428Y-92118571D02*
X228239142Y-92118571D01*
X228239142Y-90618571D01*
X229382000Y-92047142D02*
X229596285Y-92118571D01*
X229953428Y-92118571D01*
X230096285Y-92047142D01*
X230167714Y-91975714D01*
X230239142Y-91832857D01*
X230239142Y-91690000D01*
X230167714Y-91547142D01*
X230096285Y-91475714D01*
X229953428Y-91404285D01*
X229667714Y-91332857D01*
X229524857Y-91261428D01*
X229453428Y-91190000D01*
X229382000Y-91047142D01*
X229382000Y-90904285D01*
X229453428Y-90761428D01*
X229524857Y-90690000D01*
X229667714Y-90618571D01*
X230024857Y-90618571D01*
X230239142Y-90690000D01*
X231167714Y-90618571D02*
X231310571Y-90618571D01*
X231453428Y-90690000D01*
X231524857Y-90761428D01*
X231596285Y-90904285D01*
X231667714Y-91190000D01*
X231667714Y-91547142D01*
X231596285Y-91832857D01*
X231524857Y-91975714D01*
X231453428Y-92047142D01*
X231310571Y-92118571D01*
X231167714Y-92118571D01*
X231024857Y-92047142D01*
X230953428Y-91975714D01*
X230882000Y-91832857D01*
X230810571Y-91547142D01*
X230810571Y-91190000D01*
X230882000Y-90904285D01*
X230953428Y-90761428D01*
X231024857Y-90690000D01*
X231167714Y-90618571D01*
X233096285Y-92118571D02*
X232239142Y-92118571D01*
X232667714Y-92118571D02*
X232667714Y-90618571D01*
X232524857Y-90832857D01*
X232382000Y-90975714D01*
X232239142Y-91047142D01*
X197457428Y-92055071D02*
X196743142Y-92055071D01*
X196743142Y-90555071D01*
X197886000Y-91983642D02*
X198100285Y-92055071D01*
X198457428Y-92055071D01*
X198600285Y-91983642D01*
X198671714Y-91912214D01*
X198743142Y-91769357D01*
X198743142Y-91626500D01*
X198671714Y-91483642D01*
X198600285Y-91412214D01*
X198457428Y-91340785D01*
X198171714Y-91269357D01*
X198028857Y-91197928D01*
X197957428Y-91126500D01*
X197886000Y-90983642D01*
X197886000Y-90840785D01*
X197957428Y-90697928D01*
X198028857Y-90626500D01*
X198171714Y-90555071D01*
X198528857Y-90555071D01*
X198743142Y-90626500D01*
X199671714Y-90555071D02*
X199814571Y-90555071D01*
X199957428Y-90626500D01*
X200028857Y-90697928D01*
X200100285Y-90840785D01*
X200171714Y-91126500D01*
X200171714Y-91483642D01*
X200100285Y-91769357D01*
X200028857Y-91912214D01*
X199957428Y-91983642D01*
X199814571Y-92055071D01*
X199671714Y-92055071D01*
X199528857Y-91983642D01*
X199457428Y-91912214D01*
X199386000Y-91769357D01*
X199314571Y-91483642D01*
X199314571Y-91126500D01*
X199386000Y-90840785D01*
X199457428Y-90697928D01*
X199528857Y-90626500D01*
X199671714Y-90555071D01*
X201528857Y-90555071D02*
X200814571Y-90555071D01*
X200743142Y-91269357D01*
X200814571Y-91197928D01*
X200957428Y-91126500D01*
X201314571Y-91126500D01*
X201457428Y-91197928D01*
X201528857Y-91269357D01*
X201600285Y-91412214D01*
X201600285Y-91769357D01*
X201528857Y-91912214D01*
X201457428Y-91983642D01*
X201314571Y-92055071D01*
X200957428Y-92055071D01*
X200814571Y-91983642D01*
X200743142Y-91912214D01*
X169707928Y-92118571D02*
X168993642Y-92118571D01*
X168993642Y-90618571D01*
X170136500Y-92047142D02*
X170350785Y-92118571D01*
X170707928Y-92118571D01*
X170850785Y-92047142D01*
X170922214Y-91975714D01*
X170993642Y-91832857D01*
X170993642Y-91690000D01*
X170922214Y-91547142D01*
X170850785Y-91475714D01*
X170707928Y-91404285D01*
X170422214Y-91332857D01*
X170279357Y-91261428D01*
X170207928Y-91190000D01*
X170136500Y-91047142D01*
X170136500Y-90904285D01*
X170207928Y-90761428D01*
X170279357Y-90690000D01*
X170422214Y-90618571D01*
X170779357Y-90618571D01*
X170993642Y-90690000D01*
X171922214Y-90618571D02*
X172065071Y-90618571D01*
X172207928Y-90690000D01*
X172279357Y-90761428D01*
X172350785Y-90904285D01*
X172422214Y-91190000D01*
X172422214Y-91547142D01*
X172350785Y-91832857D01*
X172279357Y-91975714D01*
X172207928Y-92047142D01*
X172065071Y-92118571D01*
X171922214Y-92118571D01*
X171779357Y-92047142D01*
X171707928Y-91975714D01*
X171636500Y-91832857D01*
X171565071Y-91547142D01*
X171565071Y-91190000D01*
X171636500Y-90904285D01*
X171707928Y-90761428D01*
X171779357Y-90690000D01*
X171922214Y-90618571D01*
X173779357Y-90618571D02*
X173065071Y-90618571D01*
X172993642Y-91332857D01*
X173065071Y-91261428D01*
X173207928Y-91190000D01*
X173565071Y-91190000D01*
X173707928Y-91261428D01*
X173779357Y-91332857D01*
X173850785Y-91475714D01*
X173850785Y-91832857D01*
X173779357Y-91975714D01*
X173707928Y-92047142D01*
X173565071Y-92118571D01*
X173207928Y-92118571D01*
X173065071Y-92047142D01*
X172993642Y-91975714D01*
X135735428Y-92118571D02*
X135021142Y-92118571D01*
X135021142Y-90618571D01*
X136164000Y-92047142D02*
X136378285Y-92118571D01*
X136735428Y-92118571D01*
X136878285Y-92047142D01*
X136949714Y-91975714D01*
X137021142Y-91832857D01*
X137021142Y-91690000D01*
X136949714Y-91547142D01*
X136878285Y-91475714D01*
X136735428Y-91404285D01*
X136449714Y-91332857D01*
X136306857Y-91261428D01*
X136235428Y-91190000D01*
X136164000Y-91047142D01*
X136164000Y-90904285D01*
X136235428Y-90761428D01*
X136306857Y-90690000D01*
X136449714Y-90618571D01*
X136806857Y-90618571D01*
X137021142Y-90690000D01*
X137949714Y-90618571D02*
X138092571Y-90618571D01*
X138235428Y-90690000D01*
X138306857Y-90761428D01*
X138378285Y-90904285D01*
X138449714Y-91190000D01*
X138449714Y-91547142D01*
X138378285Y-91832857D01*
X138306857Y-91975714D01*
X138235428Y-92047142D01*
X138092571Y-92118571D01*
X137949714Y-92118571D01*
X137806857Y-92047142D01*
X137735428Y-91975714D01*
X137664000Y-91832857D01*
X137592571Y-91547142D01*
X137592571Y-91190000D01*
X137664000Y-90904285D01*
X137735428Y-90761428D01*
X137806857Y-90690000D01*
X137949714Y-90618571D01*
X139735428Y-90618571D02*
X139449714Y-90618571D01*
X139306857Y-90690000D01*
X139235428Y-90761428D01*
X139092571Y-90975714D01*
X139021142Y-91261428D01*
X139021142Y-91832857D01*
X139092571Y-91975714D01*
X139164000Y-92047142D01*
X139306857Y-92118571D01*
X139592571Y-92118571D01*
X139735428Y-92047142D01*
X139806857Y-91975714D01*
X139878285Y-91832857D01*
X139878285Y-91475714D01*
X139806857Y-91332857D01*
X139735428Y-91261428D01*
X139592571Y-91190000D01*
X139306857Y-91190000D01*
X139164000Y-91261428D01*
X139092571Y-91332857D01*
X139021142Y-91475714D01*
X106017428Y-92055071D02*
X105303142Y-92055071D01*
X105303142Y-90555071D01*
X106446000Y-91983642D02*
X106660285Y-92055071D01*
X107017428Y-92055071D01*
X107160285Y-91983642D01*
X107231714Y-91912214D01*
X107303142Y-91769357D01*
X107303142Y-91626500D01*
X107231714Y-91483642D01*
X107160285Y-91412214D01*
X107017428Y-91340785D01*
X106731714Y-91269357D01*
X106588857Y-91197928D01*
X106517428Y-91126500D01*
X106446000Y-90983642D01*
X106446000Y-90840785D01*
X106517428Y-90697928D01*
X106588857Y-90626500D01*
X106731714Y-90555071D01*
X107088857Y-90555071D01*
X107303142Y-90626500D01*
X108231714Y-90555071D02*
X108374571Y-90555071D01*
X108517428Y-90626500D01*
X108588857Y-90697928D01*
X108660285Y-90840785D01*
X108731714Y-91126500D01*
X108731714Y-91483642D01*
X108660285Y-91769357D01*
X108588857Y-91912214D01*
X108517428Y-91983642D01*
X108374571Y-92055071D01*
X108231714Y-92055071D01*
X108088857Y-91983642D01*
X108017428Y-91912214D01*
X107946000Y-91769357D01*
X107874571Y-91483642D01*
X107874571Y-91126500D01*
X107946000Y-90840785D01*
X108017428Y-90697928D01*
X108088857Y-90626500D01*
X108231714Y-90555071D01*
X110088857Y-90555071D02*
X109374571Y-90555071D01*
X109303142Y-91269357D01*
X109374571Y-91197928D01*
X109517428Y-91126500D01*
X109874571Y-91126500D01*
X110017428Y-91197928D01*
X110088857Y-91269357D01*
X110160285Y-91412214D01*
X110160285Y-91769357D01*
X110088857Y-91912214D01*
X110017428Y-91983642D01*
X109874571Y-92055071D01*
X109517428Y-92055071D01*
X109374571Y-91983642D01*
X109303142Y-91912214D01*
X82204928Y-62400571D02*
X81490642Y-62400571D01*
X81490642Y-60900571D01*
X82633500Y-62329142D02*
X82847785Y-62400571D01*
X83204928Y-62400571D01*
X83347785Y-62329142D01*
X83419214Y-62257714D01*
X83490642Y-62114857D01*
X83490642Y-61972000D01*
X83419214Y-61829142D01*
X83347785Y-61757714D01*
X83204928Y-61686285D01*
X82919214Y-61614857D01*
X82776357Y-61543428D01*
X82704928Y-61472000D01*
X82633500Y-61329142D01*
X82633500Y-61186285D01*
X82704928Y-61043428D01*
X82776357Y-60972000D01*
X82919214Y-60900571D01*
X83276357Y-60900571D01*
X83490642Y-60972000D01*
X84419214Y-60900571D02*
X84562071Y-60900571D01*
X84704928Y-60972000D01*
X84776357Y-61043428D01*
X84847785Y-61186285D01*
X84919214Y-61472000D01*
X84919214Y-61829142D01*
X84847785Y-62114857D01*
X84776357Y-62257714D01*
X84704928Y-62329142D01*
X84562071Y-62400571D01*
X84419214Y-62400571D01*
X84276357Y-62329142D01*
X84204928Y-62257714D01*
X84133500Y-62114857D01*
X84062071Y-61829142D01*
X84062071Y-61472000D01*
X84133500Y-61186285D01*
X84204928Y-61043428D01*
X84276357Y-60972000D01*
X84419214Y-60900571D01*
X86204928Y-60900571D02*
X85919214Y-60900571D01*
X85776357Y-60972000D01*
X85704928Y-61043428D01*
X85562071Y-61257714D01*
X85490642Y-61543428D01*
X85490642Y-62114857D01*
X85562071Y-62257714D01*
X85633500Y-62329142D01*
X85776357Y-62400571D01*
X86062071Y-62400571D01*
X86204928Y-62329142D01*
X86276357Y-62257714D01*
X86347785Y-62114857D01*
X86347785Y-61757714D01*
X86276357Y-61614857D01*
X86204928Y-61543428D01*
X86062071Y-61472000D01*
X85776357Y-61472000D01*
X85633500Y-61543428D01*
X85562071Y-61614857D01*
X85490642Y-61757714D01*
X50327928Y-65956571D02*
X49613642Y-65956571D01*
X49613642Y-64456571D01*
X50756500Y-65885142D02*
X50970785Y-65956571D01*
X51327928Y-65956571D01*
X51470785Y-65885142D01*
X51542214Y-65813714D01*
X51613642Y-65670857D01*
X51613642Y-65528000D01*
X51542214Y-65385142D01*
X51470785Y-65313714D01*
X51327928Y-65242285D01*
X51042214Y-65170857D01*
X50899357Y-65099428D01*
X50827928Y-65028000D01*
X50756500Y-64885142D01*
X50756500Y-64742285D01*
X50827928Y-64599428D01*
X50899357Y-64528000D01*
X51042214Y-64456571D01*
X51399357Y-64456571D01*
X51613642Y-64528000D01*
X52542214Y-64456571D02*
X52685071Y-64456571D01*
X52827928Y-64528000D01*
X52899357Y-64599428D01*
X52970785Y-64742285D01*
X53042214Y-65028000D01*
X53042214Y-65385142D01*
X52970785Y-65670857D01*
X52899357Y-65813714D01*
X52827928Y-65885142D01*
X52685071Y-65956571D01*
X52542214Y-65956571D01*
X52399357Y-65885142D01*
X52327928Y-65813714D01*
X52256500Y-65670857D01*
X52185071Y-65385142D01*
X52185071Y-65028000D01*
X52256500Y-64742285D01*
X52327928Y-64599428D01*
X52399357Y-64528000D01*
X52542214Y-64456571D01*
X54327928Y-64456571D02*
X54042214Y-64456571D01*
X53899357Y-64528000D01*
X53827928Y-64599428D01*
X53685071Y-64813714D01*
X53613642Y-65099428D01*
X53613642Y-65670857D01*
X53685071Y-65813714D01*
X53756500Y-65885142D01*
X53899357Y-65956571D01*
X54185071Y-65956571D01*
X54327928Y-65885142D01*
X54399357Y-65813714D01*
X54470785Y-65670857D01*
X54470785Y-65313714D01*
X54399357Y-65170857D01*
X54327928Y-65099428D01*
X54185071Y-65028000D01*
X53899357Y-65028000D01*
X53756500Y-65099428D01*
X53685071Y-65170857D01*
X53613642Y-65313714D01*
X50137428Y-127234071D02*
X49423142Y-127234071D01*
X49423142Y-125734071D01*
X50566000Y-127162642D02*
X50780285Y-127234071D01*
X51137428Y-127234071D01*
X51280285Y-127162642D01*
X51351714Y-127091214D01*
X51423142Y-126948357D01*
X51423142Y-126805500D01*
X51351714Y-126662642D01*
X51280285Y-126591214D01*
X51137428Y-126519785D01*
X50851714Y-126448357D01*
X50708857Y-126376928D01*
X50637428Y-126305500D01*
X50566000Y-126162642D01*
X50566000Y-126019785D01*
X50637428Y-125876928D01*
X50708857Y-125805500D01*
X50851714Y-125734071D01*
X51208857Y-125734071D01*
X51423142Y-125805500D01*
X52351714Y-125734071D02*
X52494571Y-125734071D01*
X52637428Y-125805500D01*
X52708857Y-125876928D01*
X52780285Y-126019785D01*
X52851714Y-126305500D01*
X52851714Y-126662642D01*
X52780285Y-126948357D01*
X52708857Y-127091214D01*
X52637428Y-127162642D01*
X52494571Y-127234071D01*
X52351714Y-127234071D01*
X52208857Y-127162642D01*
X52137428Y-127091214D01*
X52066000Y-126948357D01*
X51994571Y-126662642D01*
X51994571Y-126305500D01*
X52066000Y-126019785D01*
X52137428Y-125876928D01*
X52208857Y-125805500D01*
X52351714Y-125734071D01*
X54208857Y-125734071D02*
X53494571Y-125734071D01*
X53423142Y-126448357D01*
X53494571Y-126376928D01*
X53637428Y-126305500D01*
X53994571Y-126305500D01*
X54137428Y-126376928D01*
X54208857Y-126448357D01*
X54280285Y-126591214D01*
X54280285Y-126948357D01*
X54208857Y-127091214D01*
X54137428Y-127162642D01*
X53994571Y-127234071D01*
X53637428Y-127234071D01*
X53494571Y-127162642D01*
X53423142Y-127091214D01*
X78966428Y-127234071D02*
X78252142Y-127234071D01*
X78252142Y-125734071D01*
X79395000Y-127162642D02*
X79609285Y-127234071D01*
X79966428Y-127234071D01*
X80109285Y-127162642D01*
X80180714Y-127091214D01*
X80252142Y-126948357D01*
X80252142Y-126805500D01*
X80180714Y-126662642D01*
X80109285Y-126591214D01*
X79966428Y-126519785D01*
X79680714Y-126448357D01*
X79537857Y-126376928D01*
X79466428Y-126305500D01*
X79395000Y-126162642D01*
X79395000Y-126019785D01*
X79466428Y-125876928D01*
X79537857Y-125805500D01*
X79680714Y-125734071D01*
X80037857Y-125734071D01*
X80252142Y-125805500D01*
X81180714Y-125734071D02*
X81323571Y-125734071D01*
X81466428Y-125805500D01*
X81537857Y-125876928D01*
X81609285Y-126019785D01*
X81680714Y-126305500D01*
X81680714Y-126662642D01*
X81609285Y-126948357D01*
X81537857Y-127091214D01*
X81466428Y-127162642D01*
X81323571Y-127234071D01*
X81180714Y-127234071D01*
X81037857Y-127162642D01*
X80966428Y-127091214D01*
X80895000Y-126948357D01*
X80823571Y-126662642D01*
X80823571Y-126305500D01*
X80895000Y-126019785D01*
X80966428Y-125876928D01*
X81037857Y-125805500D01*
X81180714Y-125734071D01*
X82252142Y-125876928D02*
X82323571Y-125805500D01*
X82466428Y-125734071D01*
X82823571Y-125734071D01*
X82966428Y-125805500D01*
X83037857Y-125876928D01*
X83109285Y-126019785D01*
X83109285Y-126162642D01*
X83037857Y-126376928D01*
X82180714Y-127234071D01*
X83109285Y-127234071D01*
X110843428Y-127234071D02*
X110129142Y-127234071D01*
X110129142Y-125734071D01*
X111272000Y-127162642D02*
X111486285Y-127234071D01*
X111843428Y-127234071D01*
X111986285Y-127162642D01*
X112057714Y-127091214D01*
X112129142Y-126948357D01*
X112129142Y-126805500D01*
X112057714Y-126662642D01*
X111986285Y-126591214D01*
X111843428Y-126519785D01*
X111557714Y-126448357D01*
X111414857Y-126376928D01*
X111343428Y-126305500D01*
X111272000Y-126162642D01*
X111272000Y-126019785D01*
X111343428Y-125876928D01*
X111414857Y-125805500D01*
X111557714Y-125734071D01*
X111914857Y-125734071D01*
X112129142Y-125805500D01*
X113057714Y-125734071D02*
X113200571Y-125734071D01*
X113343428Y-125805500D01*
X113414857Y-125876928D01*
X113486285Y-126019785D01*
X113557714Y-126305500D01*
X113557714Y-126662642D01*
X113486285Y-126948357D01*
X113414857Y-127091214D01*
X113343428Y-127162642D01*
X113200571Y-127234071D01*
X113057714Y-127234071D01*
X112914857Y-127162642D01*
X112843428Y-127091214D01*
X112772000Y-126948357D01*
X112700571Y-126662642D01*
X112700571Y-126305500D01*
X112772000Y-126019785D01*
X112843428Y-125876928D01*
X112914857Y-125805500D01*
X113057714Y-125734071D01*
X114843428Y-125734071D02*
X114557714Y-125734071D01*
X114414857Y-125805500D01*
X114343428Y-125876928D01*
X114200571Y-126091214D01*
X114129142Y-126376928D01*
X114129142Y-126948357D01*
X114200571Y-127091214D01*
X114272000Y-127162642D01*
X114414857Y-127234071D01*
X114700571Y-127234071D01*
X114843428Y-127162642D01*
X114914857Y-127091214D01*
X114986285Y-126948357D01*
X114986285Y-126591214D01*
X114914857Y-126448357D01*
X114843428Y-126376928D01*
X114700571Y-126305500D01*
X114414857Y-126305500D01*
X114272000Y-126376928D01*
X114200571Y-126448357D01*
X114129142Y-126591214D01*
X141196428Y-127234071D02*
X140482142Y-127234071D01*
X140482142Y-125734071D01*
X141625000Y-127162642D02*
X141839285Y-127234071D01*
X142196428Y-127234071D01*
X142339285Y-127162642D01*
X142410714Y-127091214D01*
X142482142Y-126948357D01*
X142482142Y-126805500D01*
X142410714Y-126662642D01*
X142339285Y-126591214D01*
X142196428Y-126519785D01*
X141910714Y-126448357D01*
X141767857Y-126376928D01*
X141696428Y-126305500D01*
X141625000Y-126162642D01*
X141625000Y-126019785D01*
X141696428Y-125876928D01*
X141767857Y-125805500D01*
X141910714Y-125734071D01*
X142267857Y-125734071D01*
X142482142Y-125805500D01*
X143410714Y-125734071D02*
X143553571Y-125734071D01*
X143696428Y-125805500D01*
X143767857Y-125876928D01*
X143839285Y-126019785D01*
X143910714Y-126305500D01*
X143910714Y-126662642D01*
X143839285Y-126948357D01*
X143767857Y-127091214D01*
X143696428Y-127162642D01*
X143553571Y-127234071D01*
X143410714Y-127234071D01*
X143267857Y-127162642D01*
X143196428Y-127091214D01*
X143125000Y-126948357D01*
X143053571Y-126662642D01*
X143053571Y-126305500D01*
X143125000Y-126019785D01*
X143196428Y-125876928D01*
X143267857Y-125805500D01*
X143410714Y-125734071D01*
X145267857Y-125734071D02*
X144553571Y-125734071D01*
X144482142Y-126448357D01*
X144553571Y-126376928D01*
X144696428Y-126305500D01*
X145053571Y-126305500D01*
X145196428Y-126376928D01*
X145267857Y-126448357D01*
X145339285Y-126591214D01*
X145339285Y-126948357D01*
X145267857Y-127091214D01*
X145196428Y-127162642D01*
X145053571Y-127234071D01*
X144696428Y-127234071D01*
X144553571Y-127162642D01*
X144482142Y-127091214D01*
X172057428Y-126980071D02*
X171343142Y-126980071D01*
X171343142Y-125480071D01*
X172486000Y-126908642D02*
X172700285Y-126980071D01*
X173057428Y-126980071D01*
X173200285Y-126908642D01*
X173271714Y-126837214D01*
X173343142Y-126694357D01*
X173343142Y-126551500D01*
X173271714Y-126408642D01*
X173200285Y-126337214D01*
X173057428Y-126265785D01*
X172771714Y-126194357D01*
X172628857Y-126122928D01*
X172557428Y-126051500D01*
X172486000Y-125908642D01*
X172486000Y-125765785D01*
X172557428Y-125622928D01*
X172628857Y-125551500D01*
X172771714Y-125480071D01*
X173128857Y-125480071D01*
X173343142Y-125551500D01*
X174271714Y-125480071D02*
X174414571Y-125480071D01*
X174557428Y-125551500D01*
X174628857Y-125622928D01*
X174700285Y-125765785D01*
X174771714Y-126051500D01*
X174771714Y-126408642D01*
X174700285Y-126694357D01*
X174628857Y-126837214D01*
X174557428Y-126908642D01*
X174414571Y-126980071D01*
X174271714Y-126980071D01*
X174128857Y-126908642D01*
X174057428Y-126837214D01*
X173986000Y-126694357D01*
X173914571Y-126408642D01*
X173914571Y-126051500D01*
X173986000Y-125765785D01*
X174057428Y-125622928D01*
X174128857Y-125551500D01*
X174271714Y-125480071D01*
X176057428Y-125480071D02*
X175771714Y-125480071D01*
X175628857Y-125551500D01*
X175557428Y-125622928D01*
X175414571Y-125837214D01*
X175343142Y-126122928D01*
X175343142Y-126694357D01*
X175414571Y-126837214D01*
X175486000Y-126908642D01*
X175628857Y-126980071D01*
X175914571Y-126980071D01*
X176057428Y-126908642D01*
X176128857Y-126837214D01*
X176200285Y-126694357D01*
X176200285Y-126337214D01*
X176128857Y-126194357D01*
X176057428Y-126122928D01*
X175914571Y-126051500D01*
X175628857Y-126051500D01*
X175486000Y-126122928D01*
X175414571Y-126194357D01*
X175343142Y-126337214D01*
X203045428Y-126789571D02*
X202331142Y-126789571D01*
X202331142Y-125289571D01*
X203474000Y-126718142D02*
X203688285Y-126789571D01*
X204045428Y-126789571D01*
X204188285Y-126718142D01*
X204259714Y-126646714D01*
X204331142Y-126503857D01*
X204331142Y-126361000D01*
X204259714Y-126218142D01*
X204188285Y-126146714D01*
X204045428Y-126075285D01*
X203759714Y-126003857D01*
X203616857Y-125932428D01*
X203545428Y-125861000D01*
X203474000Y-125718142D01*
X203474000Y-125575285D01*
X203545428Y-125432428D01*
X203616857Y-125361000D01*
X203759714Y-125289571D01*
X204116857Y-125289571D01*
X204331142Y-125361000D01*
X205259714Y-125289571D02*
X205402571Y-125289571D01*
X205545428Y-125361000D01*
X205616857Y-125432428D01*
X205688285Y-125575285D01*
X205759714Y-125861000D01*
X205759714Y-126218142D01*
X205688285Y-126503857D01*
X205616857Y-126646714D01*
X205545428Y-126718142D01*
X205402571Y-126789571D01*
X205259714Y-126789571D01*
X205116857Y-126718142D01*
X205045428Y-126646714D01*
X204974000Y-126503857D01*
X204902571Y-126218142D01*
X204902571Y-125861000D01*
X204974000Y-125575285D01*
X205045428Y-125432428D01*
X205116857Y-125361000D01*
X205259714Y-125289571D01*
X206259714Y-125289571D02*
X207188285Y-125289571D01*
X206688285Y-125861000D01*
X206902571Y-125861000D01*
X207045428Y-125932428D01*
X207116857Y-126003857D01*
X207188285Y-126146714D01*
X207188285Y-126503857D01*
X207116857Y-126646714D01*
X207045428Y-126718142D01*
X206902571Y-126789571D01*
X206474000Y-126789571D01*
X206331142Y-126718142D01*
X206259714Y-126646714D01*
X233017428Y-126662571D02*
X232303142Y-126662571D01*
X232303142Y-125162571D01*
X233446000Y-126591142D02*
X233660285Y-126662571D01*
X234017428Y-126662571D01*
X234160285Y-126591142D01*
X234231714Y-126519714D01*
X234303142Y-126376857D01*
X234303142Y-126234000D01*
X234231714Y-126091142D01*
X234160285Y-126019714D01*
X234017428Y-125948285D01*
X233731714Y-125876857D01*
X233588857Y-125805428D01*
X233517428Y-125734000D01*
X233446000Y-125591142D01*
X233446000Y-125448285D01*
X233517428Y-125305428D01*
X233588857Y-125234000D01*
X233731714Y-125162571D01*
X234088857Y-125162571D01*
X234303142Y-125234000D01*
X235231714Y-125162571D02*
X235374571Y-125162571D01*
X235517428Y-125234000D01*
X235588857Y-125305428D01*
X235660285Y-125448285D01*
X235731714Y-125734000D01*
X235731714Y-126091142D01*
X235660285Y-126376857D01*
X235588857Y-126519714D01*
X235517428Y-126591142D01*
X235374571Y-126662571D01*
X235231714Y-126662571D01*
X235088857Y-126591142D01*
X235017428Y-126519714D01*
X234946000Y-126376857D01*
X234874571Y-126091142D01*
X234874571Y-125734000D01*
X234946000Y-125448285D01*
X235017428Y-125305428D01*
X235088857Y-125234000D01*
X235231714Y-125162571D01*
X237017428Y-125162571D02*
X236731714Y-125162571D01*
X236588857Y-125234000D01*
X236517428Y-125305428D01*
X236374571Y-125519714D01*
X236303142Y-125805428D01*
X236303142Y-126376857D01*
X236374571Y-126519714D01*
X236446000Y-126591142D01*
X236588857Y-126662571D01*
X236874571Y-126662571D01*
X237017428Y-126591142D01*
X237088857Y-126519714D01*
X237160285Y-126376857D01*
X237160285Y-126019714D01*
X237088857Y-125876857D01*
X237017428Y-125805428D01*
X236874571Y-125734000D01*
X236588857Y-125734000D01*
X236446000Y-125805428D01*
X236374571Y-125876857D01*
X236303142Y-126019714D01*
D11*
X32004000Y-26098500D02*
X125984000Y-26098500D01*
X151599900Y-40640000D02*
X151599900Y-45720000D01*
X151599900Y-43180000D02*
X258749800Y-43180000D01*
X132549900Y-40640000D02*
X132549900Y-45720000D01*
X25400000Y-43180000D02*
X132549900Y-43180000D01*
D10*
X205080809Y-180551666D02*
X211128428Y-180551666D01*
X203871285Y-184180238D02*
X208104619Y-171480238D01*
X212337952Y-184180238D01*
X216571285Y-179342142D02*
X226247476Y-179342142D01*
X236528428Y-177527857D02*
X232295095Y-177527857D01*
X232295095Y-184180238D02*
X232295095Y-171480238D01*
X238342714Y-171480238D01*
X242576047Y-183575476D02*
X244390333Y-184180238D01*
X247414142Y-184180238D01*
X248623666Y-183575476D01*
X249228428Y-182970714D01*
X249833190Y-181761190D01*
X249833190Y-180551666D01*
X249228428Y-179342142D01*
X248623666Y-178737380D01*
X247414142Y-178132619D01*
X244995095Y-177527857D01*
X243785571Y-176923095D01*
X243180809Y-176318333D01*
X242576047Y-175108809D01*
X242576047Y-173899285D01*
X243180809Y-172689761D01*
X243785571Y-172085000D01*
X244995095Y-171480238D01*
X248018904Y-171480238D01*
X249833190Y-172085000D01*
D12*
G04 #@! TO.C,U8*
X245745000Y-106680000D02*
X223520000Y-106680000D01*
X245745000Y-55880000D02*
X245745000Y-106680000D01*
X223520000Y-55880000D02*
X245745000Y-55880000D01*
X223520000Y-106680000D02*
X223520000Y-55880000D01*
G04 #@! TO.C,U1*
X245745000Y-170180000D02*
X223520000Y-170180000D01*
X245745000Y-119380000D02*
X245745000Y-170180000D01*
X223520000Y-119380000D02*
X245745000Y-119380000D01*
X223520000Y-170180000D02*
X223520000Y-119380000D01*
G04 #@! TO.C,U12*
X123825000Y-106680000D02*
X101600000Y-106680000D01*
X123825000Y-55880000D02*
X123825000Y-106680000D01*
X101600000Y-55880000D02*
X123825000Y-55880000D01*
X101600000Y-106680000D02*
X101600000Y-55880000D01*
G04 #@! TO.C,U11*
X154305000Y-106680000D02*
X132080000Y-106680000D01*
X154305000Y-55880000D02*
X154305000Y-106680000D01*
X132080000Y-55880000D02*
X154305000Y-55880000D01*
X132080000Y-106680000D02*
X132080000Y-55880000D01*
G04 #@! TO.C,U14*
X62865000Y-106680000D02*
X40640000Y-106680000D01*
X62865000Y-55880000D02*
X62865000Y-106680000D01*
X40640000Y-55880000D02*
X62865000Y-55880000D01*
X40640000Y-106680000D02*
X40640000Y-55880000D01*
G04 #@! TO.C,U13*
X93345000Y-106680000D02*
X71120000Y-106680000D01*
X93345000Y-55880000D02*
X93345000Y-106680000D01*
X71120000Y-55880000D02*
X93345000Y-55880000D01*
X71120000Y-106680000D02*
X71120000Y-55880000D01*
G04 #@! TO.C,U2*
X215265000Y-170180000D02*
X193040000Y-170180000D01*
X215265000Y-119380000D02*
X215265000Y-170180000D01*
X193040000Y-119380000D02*
X215265000Y-119380000D01*
X193040000Y-170180000D02*
X193040000Y-119380000D01*
G04 #@! TO.C,U3*
X184785000Y-170180000D02*
X162560000Y-170180000D01*
X184785000Y-119380000D02*
X184785000Y-170180000D01*
X162560000Y-119380000D02*
X184785000Y-119380000D01*
X162560000Y-170180000D02*
X162560000Y-119380000D01*
G04 #@! TO.C,U4*
X154305000Y-170180000D02*
X132080000Y-170180000D01*
X154305000Y-119380000D02*
X154305000Y-170180000D01*
X132080000Y-119380000D02*
X154305000Y-119380000D01*
X132080000Y-170180000D02*
X132080000Y-119380000D01*
G04 #@! TO.C,U9*
X215265000Y-106680000D02*
X193040000Y-106680000D01*
X215265000Y-55880000D02*
X215265000Y-106680000D01*
X193040000Y-55880000D02*
X215265000Y-55880000D01*
X193040000Y-106680000D02*
X193040000Y-55880000D01*
G04 #@! TO.C,U10*
X184785000Y-106680000D02*
X162560000Y-106680000D01*
X184785000Y-55880000D02*
X184785000Y-106680000D01*
X162560000Y-55880000D02*
X184785000Y-55880000D01*
X162560000Y-106680000D02*
X162560000Y-55880000D01*
D13*
G04 #@! TO.C,C1*
X141640302Y-34285000D02*
X141640302Y-35085000D01*
X141240302Y-34685000D02*
X142040302Y-34685000D01*
X149731000Y-36467000D02*
X149731000Y-37533000D01*
X149691000Y-36232000D02*
X149691000Y-37768000D01*
X149651000Y-36052000D02*
X149651000Y-37948000D01*
X149611000Y-35902000D02*
X149611000Y-38098000D01*
X149571000Y-35771000D02*
X149571000Y-38229000D01*
X149531000Y-35654000D02*
X149531000Y-38346000D01*
X149491000Y-35547000D02*
X149491000Y-38453000D01*
X149451000Y-35448000D02*
X149451000Y-38552000D01*
X149411000Y-35355000D02*
X149411000Y-38645000D01*
X149371000Y-35269000D02*
X149371000Y-38731000D01*
X149331000Y-35187000D02*
X149331000Y-38813000D01*
X149291000Y-35110000D02*
X149291000Y-38890000D01*
X149251000Y-35036000D02*
X149251000Y-38964000D01*
X149211000Y-34966000D02*
X149211000Y-39034000D01*
X149171000Y-34898000D02*
X149171000Y-39102000D01*
X149131000Y-34834000D02*
X149131000Y-39166000D01*
X149091000Y-34772000D02*
X149091000Y-39228000D01*
X149051000Y-34713000D02*
X149051000Y-39287000D01*
X149011000Y-34655000D02*
X149011000Y-39345000D01*
X148971000Y-34600000D02*
X148971000Y-39400000D01*
X148931000Y-34546000D02*
X148931000Y-39454000D01*
X148891000Y-34495000D02*
X148891000Y-39505000D01*
X148851000Y-34444000D02*
X148851000Y-39556000D01*
X148811000Y-34396000D02*
X148811000Y-39604000D01*
X148771000Y-34349000D02*
X148771000Y-39651000D01*
X148731000Y-34303000D02*
X148731000Y-39697000D01*
X148691000Y-34259000D02*
X148691000Y-39741000D01*
X148651000Y-34216000D02*
X148651000Y-39784000D01*
X148611000Y-34174000D02*
X148611000Y-39826000D01*
X148571000Y-34133000D02*
X148571000Y-39867000D01*
X148531000Y-34093000D02*
X148531000Y-39907000D01*
X148491000Y-34055000D02*
X148491000Y-39945000D01*
X148451000Y-34017000D02*
X148451000Y-39983000D01*
X148411000Y-33981000D02*
X148411000Y-40019000D01*
X148371000Y-33945000D02*
X148371000Y-40055000D01*
X148331000Y-33910000D02*
X148331000Y-40090000D01*
X148291000Y-33876000D02*
X148291000Y-40124000D01*
X148251000Y-33844000D02*
X148251000Y-40156000D01*
X148211000Y-33811000D02*
X148211000Y-40189000D01*
X148171000Y-33780000D02*
X148171000Y-40220000D01*
X148131000Y-33750000D02*
X148131000Y-40250000D01*
X148091000Y-33720000D02*
X148091000Y-40280000D01*
X148051000Y-33691000D02*
X148051000Y-40309000D01*
X148011000Y-33662000D02*
X148011000Y-40338000D01*
X147971000Y-33635000D02*
X147971000Y-40365000D01*
X147931000Y-38040000D02*
X147931000Y-40392000D01*
X147931000Y-33608000D02*
X147931000Y-35960000D01*
X147891000Y-38040000D02*
X147891000Y-40418000D01*
X147891000Y-33582000D02*
X147891000Y-35960000D01*
X147851000Y-38040000D02*
X147851000Y-40444000D01*
X147851000Y-33556000D02*
X147851000Y-35960000D01*
X147811000Y-38040000D02*
X147811000Y-40469000D01*
X147811000Y-33531000D02*
X147811000Y-35960000D01*
X147771000Y-38040000D02*
X147771000Y-40493000D01*
X147771000Y-33507000D02*
X147771000Y-35960000D01*
X147731000Y-38040000D02*
X147731000Y-40517000D01*
X147731000Y-33483000D02*
X147731000Y-35960000D01*
X147691000Y-38040000D02*
X147691000Y-40540000D01*
X147691000Y-33460000D02*
X147691000Y-35960000D01*
X147651000Y-38040000D02*
X147651000Y-40562000D01*
X147651000Y-33438000D02*
X147651000Y-35960000D01*
X147611000Y-38040000D02*
X147611000Y-40584000D01*
X147611000Y-33416000D02*
X147611000Y-35960000D01*
X147571000Y-38040000D02*
X147571000Y-40606000D01*
X147571000Y-33394000D02*
X147571000Y-35960000D01*
X147531000Y-38040000D02*
X147531000Y-40627000D01*
X147531000Y-33373000D02*
X147531000Y-35960000D01*
X147491000Y-38040000D02*
X147491000Y-40647000D01*
X147491000Y-33353000D02*
X147491000Y-35960000D01*
X147451000Y-38040000D02*
X147451000Y-40666000D01*
X147451000Y-33334000D02*
X147451000Y-35960000D01*
X147411000Y-38040000D02*
X147411000Y-40686000D01*
X147411000Y-33314000D02*
X147411000Y-35960000D01*
X147371000Y-38040000D02*
X147371000Y-40704000D01*
X147371000Y-33296000D02*
X147371000Y-35960000D01*
X147331000Y-38040000D02*
X147331000Y-40722000D01*
X147331000Y-33278000D02*
X147331000Y-35960000D01*
X147291000Y-38040000D02*
X147291000Y-40740000D01*
X147291000Y-33260000D02*
X147291000Y-35960000D01*
X147251000Y-38040000D02*
X147251000Y-40757000D01*
X147251000Y-33243000D02*
X147251000Y-35960000D01*
X147211000Y-38040000D02*
X147211000Y-40774000D01*
X147211000Y-33226000D02*
X147211000Y-35960000D01*
X147171000Y-38040000D02*
X147171000Y-40790000D01*
X147171000Y-33210000D02*
X147171000Y-35960000D01*
X147131000Y-38040000D02*
X147131000Y-40805000D01*
X147131000Y-33195000D02*
X147131000Y-35960000D01*
X147091000Y-38040000D02*
X147091000Y-40821000D01*
X147091000Y-33179000D02*
X147091000Y-35960000D01*
X147051000Y-38040000D02*
X147051000Y-40835000D01*
X147051000Y-33165000D02*
X147051000Y-35960000D01*
X147011000Y-38040000D02*
X147011000Y-40850000D01*
X147011000Y-33150000D02*
X147011000Y-35960000D01*
X146971000Y-38040000D02*
X146971000Y-40863000D01*
X146971000Y-33137000D02*
X146971000Y-35960000D01*
X146931000Y-38040000D02*
X146931000Y-40877000D01*
X146931000Y-33123000D02*
X146931000Y-35960000D01*
X146891000Y-38040000D02*
X146891000Y-40889000D01*
X146891000Y-33111000D02*
X146891000Y-35960000D01*
X146851000Y-38040000D02*
X146851000Y-40902000D01*
X146851000Y-33098000D02*
X146851000Y-35960000D01*
X146811000Y-38040000D02*
X146811000Y-40914000D01*
X146811000Y-33086000D02*
X146811000Y-35960000D01*
X146771000Y-38040000D02*
X146771000Y-40925000D01*
X146771000Y-33075000D02*
X146771000Y-35960000D01*
X146731000Y-38040000D02*
X146731000Y-40936000D01*
X146731000Y-33064000D02*
X146731000Y-35960000D01*
X146691000Y-38040000D02*
X146691000Y-40947000D01*
X146691000Y-33053000D02*
X146691000Y-35960000D01*
X146651000Y-38040000D02*
X146651000Y-40957000D01*
X146651000Y-33043000D02*
X146651000Y-35960000D01*
X146611000Y-38040000D02*
X146611000Y-40967000D01*
X146611000Y-33033000D02*
X146611000Y-35960000D01*
X146571000Y-38040000D02*
X146571000Y-40976000D01*
X146571000Y-33024000D02*
X146571000Y-35960000D01*
X146531000Y-38040000D02*
X146531000Y-40985000D01*
X146531000Y-33015000D02*
X146531000Y-35960000D01*
X146491000Y-38040000D02*
X146491000Y-40994000D01*
X146491000Y-33006000D02*
X146491000Y-35960000D01*
X146451000Y-38040000D02*
X146451000Y-41002000D01*
X146451000Y-32998000D02*
X146451000Y-35960000D01*
X146411000Y-38040000D02*
X146411000Y-41010000D01*
X146411000Y-32990000D02*
X146411000Y-35960000D01*
X146371000Y-38040000D02*
X146371000Y-41017000D01*
X146371000Y-32983000D02*
X146371000Y-35960000D01*
X146330000Y-38040000D02*
X146330000Y-41024000D01*
X146330000Y-32976000D02*
X146330000Y-35960000D01*
X146290000Y-38040000D02*
X146290000Y-41030000D01*
X146290000Y-32970000D02*
X146290000Y-35960000D01*
X146250000Y-38040000D02*
X146250000Y-41037000D01*
X146250000Y-32963000D02*
X146250000Y-35960000D01*
X146210000Y-38040000D02*
X146210000Y-41042000D01*
X146210000Y-32958000D02*
X146210000Y-35960000D01*
X146170000Y-38040000D02*
X146170000Y-41048000D01*
X146170000Y-32952000D02*
X146170000Y-35960000D01*
X146130000Y-38040000D02*
X146130000Y-41052000D01*
X146130000Y-32948000D02*
X146130000Y-35960000D01*
X146090000Y-38040000D02*
X146090000Y-41057000D01*
X146090000Y-32943000D02*
X146090000Y-35960000D01*
X146050000Y-38040000D02*
X146050000Y-41061000D01*
X146050000Y-32939000D02*
X146050000Y-35960000D01*
X146010000Y-38040000D02*
X146010000Y-41065000D01*
X146010000Y-32935000D02*
X146010000Y-35960000D01*
X145970000Y-38040000D02*
X145970000Y-41068000D01*
X145970000Y-32932000D02*
X145970000Y-35960000D01*
X145930000Y-38040000D02*
X145930000Y-41071000D01*
X145930000Y-32929000D02*
X145930000Y-35960000D01*
X145890000Y-38040000D02*
X145890000Y-41074000D01*
X145890000Y-32926000D02*
X145890000Y-35960000D01*
X145850000Y-32924000D02*
X145850000Y-41076000D01*
X145810000Y-32923000D02*
X145810000Y-41077000D01*
X145770000Y-32921000D02*
X145770000Y-41079000D01*
X145730000Y-32920000D02*
X145730000Y-41080000D01*
X145690000Y-32920000D02*
X145690000Y-41080000D01*
X145650000Y-32920000D02*
X145650000Y-41080000D01*
X149770000Y-37000000D02*
G75*
G03X149770000Y-37000000I-4120000J0D01*
G01*
G04 #@! TO.C,C2*
X28040302Y-37085000D02*
X28040302Y-37885000D01*
X27640302Y-37485000D02*
X28440302Y-37485000D01*
X36131000Y-39267000D02*
X36131000Y-40333000D01*
X36091000Y-39032000D02*
X36091000Y-40568000D01*
X36051000Y-38852000D02*
X36051000Y-40748000D01*
X36011000Y-38702000D02*
X36011000Y-40898000D01*
X35971000Y-38571000D02*
X35971000Y-41029000D01*
X35931000Y-38454000D02*
X35931000Y-41146000D01*
X35891000Y-38347000D02*
X35891000Y-41253000D01*
X35851000Y-38248000D02*
X35851000Y-41352000D01*
X35811000Y-38155000D02*
X35811000Y-41445000D01*
X35771000Y-38069000D02*
X35771000Y-41531000D01*
X35731000Y-37987000D02*
X35731000Y-41613000D01*
X35691000Y-37910000D02*
X35691000Y-41690000D01*
X35651000Y-37836000D02*
X35651000Y-41764000D01*
X35611000Y-37766000D02*
X35611000Y-41834000D01*
X35571000Y-37698000D02*
X35571000Y-41902000D01*
X35531000Y-37634000D02*
X35531000Y-41966000D01*
X35491000Y-37572000D02*
X35491000Y-42028000D01*
X35451000Y-37513000D02*
X35451000Y-42087000D01*
X35411000Y-37455000D02*
X35411000Y-42145000D01*
X35371000Y-37400000D02*
X35371000Y-42200000D01*
X35331000Y-37346000D02*
X35331000Y-42254000D01*
X35291000Y-37295000D02*
X35291000Y-42305000D01*
X35251000Y-37244000D02*
X35251000Y-42356000D01*
X35211000Y-37196000D02*
X35211000Y-42404000D01*
X35171000Y-37149000D02*
X35171000Y-42451000D01*
X35131000Y-37103000D02*
X35131000Y-42497000D01*
X35091000Y-37059000D02*
X35091000Y-42541000D01*
X35051000Y-37016000D02*
X35051000Y-42584000D01*
X35011000Y-36974000D02*
X35011000Y-42626000D01*
X34971000Y-36933000D02*
X34971000Y-42667000D01*
X34931000Y-36893000D02*
X34931000Y-42707000D01*
X34891000Y-36855000D02*
X34891000Y-42745000D01*
X34851000Y-36817000D02*
X34851000Y-42783000D01*
X34811000Y-36781000D02*
X34811000Y-42819000D01*
X34771000Y-36745000D02*
X34771000Y-42855000D01*
X34731000Y-36710000D02*
X34731000Y-42890000D01*
X34691000Y-36676000D02*
X34691000Y-42924000D01*
X34651000Y-36644000D02*
X34651000Y-42956000D01*
X34611000Y-36611000D02*
X34611000Y-42989000D01*
X34571000Y-36580000D02*
X34571000Y-43020000D01*
X34531000Y-36550000D02*
X34531000Y-43050000D01*
X34491000Y-36520000D02*
X34491000Y-43080000D01*
X34451000Y-36491000D02*
X34451000Y-43109000D01*
X34411000Y-36462000D02*
X34411000Y-43138000D01*
X34371000Y-36435000D02*
X34371000Y-43165000D01*
X34331000Y-40840000D02*
X34331000Y-43192000D01*
X34331000Y-36408000D02*
X34331000Y-38760000D01*
X34291000Y-40840000D02*
X34291000Y-43218000D01*
X34291000Y-36382000D02*
X34291000Y-38760000D01*
X34251000Y-40840000D02*
X34251000Y-43244000D01*
X34251000Y-36356000D02*
X34251000Y-38760000D01*
X34211000Y-40840000D02*
X34211000Y-43269000D01*
X34211000Y-36331000D02*
X34211000Y-38760000D01*
X34171000Y-40840000D02*
X34171000Y-43293000D01*
X34171000Y-36307000D02*
X34171000Y-38760000D01*
X34131000Y-40840000D02*
X34131000Y-43317000D01*
X34131000Y-36283000D02*
X34131000Y-38760000D01*
X34091000Y-40840000D02*
X34091000Y-43340000D01*
X34091000Y-36260000D02*
X34091000Y-38760000D01*
X34051000Y-40840000D02*
X34051000Y-43362000D01*
X34051000Y-36238000D02*
X34051000Y-38760000D01*
X34011000Y-40840000D02*
X34011000Y-43384000D01*
X34011000Y-36216000D02*
X34011000Y-38760000D01*
X33971000Y-40840000D02*
X33971000Y-43406000D01*
X33971000Y-36194000D02*
X33971000Y-38760000D01*
X33931000Y-40840000D02*
X33931000Y-43427000D01*
X33931000Y-36173000D02*
X33931000Y-38760000D01*
X33891000Y-40840000D02*
X33891000Y-43447000D01*
X33891000Y-36153000D02*
X33891000Y-38760000D01*
X33851000Y-40840000D02*
X33851000Y-43466000D01*
X33851000Y-36134000D02*
X33851000Y-38760000D01*
X33811000Y-40840000D02*
X33811000Y-43486000D01*
X33811000Y-36114000D02*
X33811000Y-38760000D01*
X33771000Y-40840000D02*
X33771000Y-43504000D01*
X33771000Y-36096000D02*
X33771000Y-38760000D01*
X33731000Y-40840000D02*
X33731000Y-43522000D01*
X33731000Y-36078000D02*
X33731000Y-38760000D01*
X33691000Y-40840000D02*
X33691000Y-43540000D01*
X33691000Y-36060000D02*
X33691000Y-38760000D01*
X33651000Y-40840000D02*
X33651000Y-43557000D01*
X33651000Y-36043000D02*
X33651000Y-38760000D01*
X33611000Y-40840000D02*
X33611000Y-43574000D01*
X33611000Y-36026000D02*
X33611000Y-38760000D01*
X33571000Y-40840000D02*
X33571000Y-43590000D01*
X33571000Y-36010000D02*
X33571000Y-38760000D01*
X33531000Y-40840000D02*
X33531000Y-43605000D01*
X33531000Y-35995000D02*
X33531000Y-38760000D01*
X33491000Y-40840000D02*
X33491000Y-43621000D01*
X33491000Y-35979000D02*
X33491000Y-38760000D01*
X33451000Y-40840000D02*
X33451000Y-43635000D01*
X33451000Y-35965000D02*
X33451000Y-38760000D01*
X33411000Y-40840000D02*
X33411000Y-43650000D01*
X33411000Y-35950000D02*
X33411000Y-38760000D01*
X33371000Y-40840000D02*
X33371000Y-43663000D01*
X33371000Y-35937000D02*
X33371000Y-38760000D01*
X33331000Y-40840000D02*
X33331000Y-43677000D01*
X33331000Y-35923000D02*
X33331000Y-38760000D01*
X33291000Y-40840000D02*
X33291000Y-43689000D01*
X33291000Y-35911000D02*
X33291000Y-38760000D01*
X33251000Y-40840000D02*
X33251000Y-43702000D01*
X33251000Y-35898000D02*
X33251000Y-38760000D01*
X33211000Y-40840000D02*
X33211000Y-43714000D01*
X33211000Y-35886000D02*
X33211000Y-38760000D01*
X33171000Y-40840000D02*
X33171000Y-43725000D01*
X33171000Y-35875000D02*
X33171000Y-38760000D01*
X33131000Y-40840000D02*
X33131000Y-43736000D01*
X33131000Y-35864000D02*
X33131000Y-38760000D01*
X33091000Y-40840000D02*
X33091000Y-43747000D01*
X33091000Y-35853000D02*
X33091000Y-38760000D01*
X33051000Y-40840000D02*
X33051000Y-43757000D01*
X33051000Y-35843000D02*
X33051000Y-38760000D01*
X33011000Y-40840000D02*
X33011000Y-43767000D01*
X33011000Y-35833000D02*
X33011000Y-38760000D01*
X32971000Y-40840000D02*
X32971000Y-43776000D01*
X32971000Y-35824000D02*
X32971000Y-38760000D01*
X32931000Y-40840000D02*
X32931000Y-43785000D01*
X32931000Y-35815000D02*
X32931000Y-38760000D01*
X32891000Y-40840000D02*
X32891000Y-43794000D01*
X32891000Y-35806000D02*
X32891000Y-38760000D01*
X32851000Y-40840000D02*
X32851000Y-43802000D01*
X32851000Y-35798000D02*
X32851000Y-38760000D01*
X32811000Y-40840000D02*
X32811000Y-43810000D01*
X32811000Y-35790000D02*
X32811000Y-38760000D01*
X32771000Y-40840000D02*
X32771000Y-43817000D01*
X32771000Y-35783000D02*
X32771000Y-38760000D01*
X32730000Y-40840000D02*
X32730000Y-43824000D01*
X32730000Y-35776000D02*
X32730000Y-38760000D01*
X32690000Y-40840000D02*
X32690000Y-43830000D01*
X32690000Y-35770000D02*
X32690000Y-38760000D01*
X32650000Y-40840000D02*
X32650000Y-43837000D01*
X32650000Y-35763000D02*
X32650000Y-38760000D01*
X32610000Y-40840000D02*
X32610000Y-43842000D01*
X32610000Y-35758000D02*
X32610000Y-38760000D01*
X32570000Y-40840000D02*
X32570000Y-43848000D01*
X32570000Y-35752000D02*
X32570000Y-38760000D01*
X32530000Y-40840000D02*
X32530000Y-43852000D01*
X32530000Y-35748000D02*
X32530000Y-38760000D01*
X32490000Y-40840000D02*
X32490000Y-43857000D01*
X32490000Y-35743000D02*
X32490000Y-38760000D01*
X32450000Y-40840000D02*
X32450000Y-43861000D01*
X32450000Y-35739000D02*
X32450000Y-38760000D01*
X32410000Y-40840000D02*
X32410000Y-43865000D01*
X32410000Y-35735000D02*
X32410000Y-38760000D01*
X32370000Y-40840000D02*
X32370000Y-43868000D01*
X32370000Y-35732000D02*
X32370000Y-38760000D01*
X32330000Y-40840000D02*
X32330000Y-43871000D01*
X32330000Y-35729000D02*
X32330000Y-38760000D01*
X32290000Y-40840000D02*
X32290000Y-43874000D01*
X32290000Y-35726000D02*
X32290000Y-38760000D01*
X32250000Y-35724000D02*
X32250000Y-43876000D01*
X32210000Y-35723000D02*
X32210000Y-43877000D01*
X32170000Y-35721000D02*
X32170000Y-43879000D01*
X32130000Y-35720000D02*
X32130000Y-43880000D01*
X32090000Y-35720000D02*
X32090000Y-43880000D01*
X32050000Y-35720000D02*
X32050000Y-43880000D01*
X36170000Y-39800000D02*
G75*
G03X36170000Y-39800000I-4120000J0D01*
G01*
G04 #@! TO.C,U8*
D12*
X228552380Y-102361904D02*
X229361904Y-102361904D01*
X229457142Y-102314285D01*
X229504761Y-102266666D01*
X229552380Y-102171428D01*
X229552380Y-101980952D01*
X229504761Y-101885714D01*
X229457142Y-101838095D01*
X229361904Y-101790476D01*
X228552380Y-101790476D01*
X228980952Y-101171428D02*
X228933333Y-101266666D01*
X228885714Y-101314285D01*
X228790476Y-101361904D01*
X228742857Y-101361904D01*
X228647619Y-101314285D01*
X228600000Y-101266666D01*
X228552380Y-101171428D01*
X228552380Y-100980952D01*
X228600000Y-100885714D01*
X228647619Y-100838095D01*
X228742857Y-100790476D01*
X228790476Y-100790476D01*
X228885714Y-100838095D01*
X228933333Y-100885714D01*
X228980952Y-100980952D01*
X228980952Y-101171428D01*
X229028571Y-101266666D01*
X229076190Y-101314285D01*
X229171428Y-101361904D01*
X229361904Y-101361904D01*
X229457142Y-101314285D01*
X229504761Y-101266666D01*
X229552380Y-101171428D01*
X229552380Y-100980952D01*
X229504761Y-100885714D01*
X229457142Y-100838095D01*
X229361904Y-100790476D01*
X229171428Y-100790476D01*
X229076190Y-100838095D01*
X229028571Y-100885714D01*
X228980952Y-100980952D01*
G04 #@! TO.C,U1*
X228552380Y-165861904D02*
X229361904Y-165861904D01*
X229457142Y-165814285D01*
X229504761Y-165766666D01*
X229552380Y-165671428D01*
X229552380Y-165480952D01*
X229504761Y-165385714D01*
X229457142Y-165338095D01*
X229361904Y-165290476D01*
X228552380Y-165290476D01*
X229552380Y-164290476D02*
X229552380Y-164861904D01*
X229552380Y-164576190D02*
X228552380Y-164576190D01*
X228695238Y-164671428D01*
X228790476Y-164766666D01*
X228838095Y-164861904D01*
G04 #@! TO.C,U12*
X106632380Y-102838095D02*
X107441904Y-102838095D01*
X107537142Y-102790476D01*
X107584761Y-102742857D01*
X107632380Y-102647619D01*
X107632380Y-102457142D01*
X107584761Y-102361904D01*
X107537142Y-102314285D01*
X107441904Y-102266666D01*
X106632380Y-102266666D01*
X107632380Y-101266666D02*
X107632380Y-101838095D01*
X107632380Y-101552380D02*
X106632380Y-101552380D01*
X106775238Y-101647619D01*
X106870476Y-101742857D01*
X106918095Y-101838095D01*
X106727619Y-100885714D02*
X106680000Y-100838095D01*
X106632380Y-100742857D01*
X106632380Y-100504761D01*
X106680000Y-100409523D01*
X106727619Y-100361904D01*
X106822857Y-100314285D01*
X106918095Y-100314285D01*
X107060952Y-100361904D01*
X107632380Y-100933333D01*
X107632380Y-100314285D01*
G04 #@! TO.C,U11*
X137112380Y-102838095D02*
X137921904Y-102838095D01*
X138017142Y-102790476D01*
X138064761Y-102742857D01*
X138112380Y-102647619D01*
X138112380Y-102457142D01*
X138064761Y-102361904D01*
X138017142Y-102314285D01*
X137921904Y-102266666D01*
X137112380Y-102266666D01*
X138112380Y-101266666D02*
X138112380Y-101838095D01*
X138112380Y-101552380D02*
X137112380Y-101552380D01*
X137255238Y-101647619D01*
X137350476Y-101742857D01*
X137398095Y-101838095D01*
X138112380Y-100314285D02*
X138112380Y-100885714D01*
X138112380Y-100600000D02*
X137112380Y-100600000D01*
X137255238Y-100695238D01*
X137350476Y-100790476D01*
X137398095Y-100885714D01*
G04 #@! TO.C,U14*
X45672380Y-102838095D02*
X46481904Y-102838095D01*
X46577142Y-102790476D01*
X46624761Y-102742857D01*
X46672380Y-102647619D01*
X46672380Y-102457142D01*
X46624761Y-102361904D01*
X46577142Y-102314285D01*
X46481904Y-102266666D01*
X45672380Y-102266666D01*
X46672380Y-101266666D02*
X46672380Y-101838095D01*
X46672380Y-101552380D02*
X45672380Y-101552380D01*
X45815238Y-101647619D01*
X45910476Y-101742857D01*
X45958095Y-101838095D01*
X46005714Y-100409523D02*
X46672380Y-100409523D01*
X45624761Y-100647619D02*
X46339047Y-100885714D01*
X46339047Y-100266666D01*
G04 #@! TO.C,U13*
X76152380Y-102838095D02*
X76961904Y-102838095D01*
X77057142Y-102790476D01*
X77104761Y-102742857D01*
X77152380Y-102647619D01*
X77152380Y-102457142D01*
X77104761Y-102361904D01*
X77057142Y-102314285D01*
X76961904Y-102266666D01*
X76152380Y-102266666D01*
X77152380Y-101266666D02*
X77152380Y-101838095D01*
X77152380Y-101552380D02*
X76152380Y-101552380D01*
X76295238Y-101647619D01*
X76390476Y-101742857D01*
X76438095Y-101838095D01*
X76152380Y-100933333D02*
X76152380Y-100314285D01*
X76533333Y-100647619D01*
X76533333Y-100504761D01*
X76580952Y-100409523D01*
X76628571Y-100361904D01*
X76723809Y-100314285D01*
X76961904Y-100314285D01*
X77057142Y-100361904D01*
X77104761Y-100409523D01*
X77152380Y-100504761D01*
X77152380Y-100790476D01*
X77104761Y-100885714D01*
X77057142Y-100933333D01*
G04 #@! TO.C,U2*
X198072380Y-165861904D02*
X198881904Y-165861904D01*
X198977142Y-165814285D01*
X199024761Y-165766666D01*
X199072380Y-165671428D01*
X199072380Y-165480952D01*
X199024761Y-165385714D01*
X198977142Y-165338095D01*
X198881904Y-165290476D01*
X198072380Y-165290476D01*
X198167619Y-164861904D02*
X198120000Y-164814285D01*
X198072380Y-164719047D01*
X198072380Y-164480952D01*
X198120000Y-164385714D01*
X198167619Y-164338095D01*
X198262857Y-164290476D01*
X198358095Y-164290476D01*
X198500952Y-164338095D01*
X199072380Y-164909523D01*
X199072380Y-164290476D01*
G04 #@! TO.C,U3*
X167592380Y-165861904D02*
X168401904Y-165861904D01*
X168497142Y-165814285D01*
X168544761Y-165766666D01*
X168592380Y-165671428D01*
X168592380Y-165480952D01*
X168544761Y-165385714D01*
X168497142Y-165338095D01*
X168401904Y-165290476D01*
X167592380Y-165290476D01*
X167592380Y-164909523D02*
X167592380Y-164290476D01*
X167973333Y-164623809D01*
X167973333Y-164480952D01*
X168020952Y-164385714D01*
X168068571Y-164338095D01*
X168163809Y-164290476D01*
X168401904Y-164290476D01*
X168497142Y-164338095D01*
X168544761Y-164385714D01*
X168592380Y-164480952D01*
X168592380Y-164766666D01*
X168544761Y-164861904D01*
X168497142Y-164909523D01*
G04 #@! TO.C,U4*
X137112380Y-165861904D02*
X137921904Y-165861904D01*
X138017142Y-165814285D01*
X138064761Y-165766666D01*
X138112380Y-165671428D01*
X138112380Y-165480952D01*
X138064761Y-165385714D01*
X138017142Y-165338095D01*
X137921904Y-165290476D01*
X137112380Y-165290476D01*
X137445714Y-164385714D02*
X138112380Y-164385714D01*
X137064761Y-164623809D02*
X137779047Y-164861904D01*
X137779047Y-164242857D01*
G04 #@! TO.C,U9*
X198072380Y-102361904D02*
X198881904Y-102361904D01*
X198977142Y-102314285D01*
X199024761Y-102266666D01*
X199072380Y-102171428D01*
X199072380Y-101980952D01*
X199024761Y-101885714D01*
X198977142Y-101838095D01*
X198881904Y-101790476D01*
X198072380Y-101790476D01*
X199072380Y-101266666D02*
X199072380Y-101076190D01*
X199024761Y-100980952D01*
X198977142Y-100933333D01*
X198834285Y-100838095D01*
X198643809Y-100790476D01*
X198262857Y-100790476D01*
X198167619Y-100838095D01*
X198120000Y-100885714D01*
X198072380Y-100980952D01*
X198072380Y-101171428D01*
X198120000Y-101266666D01*
X198167619Y-101314285D01*
X198262857Y-101361904D01*
X198500952Y-101361904D01*
X198596190Y-101314285D01*
X198643809Y-101266666D01*
X198691428Y-101171428D01*
X198691428Y-100980952D01*
X198643809Y-100885714D01*
X198596190Y-100838095D01*
X198500952Y-100790476D01*
G04 #@! TO.C,U10*
X167592380Y-102838095D02*
X168401904Y-102838095D01*
X168497142Y-102790476D01*
X168544761Y-102742857D01*
X168592380Y-102647619D01*
X168592380Y-102457142D01*
X168544761Y-102361904D01*
X168497142Y-102314285D01*
X168401904Y-102266666D01*
X167592380Y-102266666D01*
X168592380Y-101266666D02*
X168592380Y-101838095D01*
X168592380Y-101552380D02*
X167592380Y-101552380D01*
X167735238Y-101647619D01*
X167830476Y-101742857D01*
X167878095Y-101838095D01*
X167592380Y-100647619D02*
X167592380Y-100552380D01*
X167640000Y-100457142D01*
X167687619Y-100409523D01*
X167782857Y-100361904D01*
X167973333Y-100314285D01*
X168211428Y-100314285D01*
X168401904Y-100361904D01*
X168497142Y-100409523D01*
X168544761Y-100457142D01*
X168592380Y-100552380D01*
X168592380Y-100647619D01*
X168544761Y-100742857D01*
X168497142Y-100790476D01*
X168401904Y-100838095D01*
X168211428Y-100885714D01*
X167973333Y-100885714D01*
X167782857Y-100838095D01*
X167687619Y-100790476D01*
X167640000Y-100742857D01*
X167592380Y-100647619D01*
G04 #@! TO.C,C1*
X145483333Y-32107142D02*
X145435714Y-32154761D01*
X145292857Y-32202380D01*
X145197619Y-32202380D01*
X145054761Y-32154761D01*
X144959523Y-32059523D01*
X144911904Y-31964285D01*
X144864285Y-31773809D01*
X144864285Y-31630952D01*
X144911904Y-31440476D01*
X144959523Y-31345238D01*
X145054761Y-31250000D01*
X145197619Y-31202380D01*
X145292857Y-31202380D01*
X145435714Y-31250000D01*
X145483333Y-31297619D01*
X146435714Y-32202380D02*
X145864285Y-32202380D01*
X146150000Y-32202380D02*
X146150000Y-31202380D01*
X146054761Y-31345238D01*
X145959523Y-31440476D01*
X145864285Y-31488095D01*
G04 #@! TO.C,C2*
X31883333Y-34907142D02*
X31835714Y-34954761D01*
X31692857Y-35002380D01*
X31597619Y-35002380D01*
X31454761Y-34954761D01*
X31359523Y-34859523D01*
X31311904Y-34764285D01*
X31264285Y-34573809D01*
X31264285Y-34430952D01*
X31311904Y-34240476D01*
X31359523Y-34145238D01*
X31454761Y-34050000D01*
X31597619Y-34002380D01*
X31692857Y-34002380D01*
X31835714Y-34050000D01*
X31883333Y-34097619D01*
X32264285Y-34097619D02*
X32311904Y-34050000D01*
X32407142Y-34002380D01*
X32645238Y-34002380D01*
X32740476Y-34050000D01*
X32788095Y-34097619D01*
X32835714Y-34192857D01*
X32835714Y-34288095D01*
X32788095Y-34430952D01*
X32216666Y-35002380D01*
X32835714Y-35002380D01*
G04 #@! TD*
M02*
