G04 #@! TF.GenerationSoftware,KiCad,Pcbnew,(5.0.0)*
G04 #@! TF.CreationDate,2019-04-22T22:13:15+01:00*
G04 #@! TF.ProjectId,PSU,5053552E6B696361645F706362000000,rev?*
G04 #@! TF.SameCoordinates,Original*
G04 #@! TF.FileFunction,Soldermask,Top*
G04 #@! TF.FilePolarity,Negative*
%FSLAX46Y46*%
G04 Gerber Fmt 4.6, Leading zero omitted, Abs format (unit mm)*
G04 Created by KiCad (PCBNEW (5.0.0)) date 04/22/19 22:13:15*
%MOMM*%
%LPD*%
G01*
G04 APERTURE LIST*
%ADD10C,4.064000*%
%ADD11R,3.810000X2.794000*%
%ADD12R,3.000000X2.000000*%
%ADD13C,2.700000*%
%ADD14C,3.500000*%
%ADD15C,6.000000*%
%ADD16C,4.000000*%
%ADD17R,4.000000X4.000000*%
%ADD18R,1.600000X1.600000*%
%ADD19C,1.600000*%
%ADD20R,1.200000X1.200000*%
%ADD21C,1.200000*%
%ADD22C,3.200000*%
%ADD23R,3.200000X3.200000*%
%ADD24O,2.200000X2.200000*%
%ADD25R,2.200000X2.200000*%
%ADD26R,2.500000X3.500000*%
%ADD27O,2.500000X3.500000*%
%ADD28C,0.100000*%
%ADD29C,1.050000*%
%ADD30R,1.500000X1.050000*%
%ADD31O,1.400000X1.400000*%
%ADD32C,1.400000*%
%ADD33C,2.400000*%
%ADD34O,2.400000X2.400000*%
%ADD35O,1.600000X1.600000*%
%ADD36C,1.524000*%
%ADD37R,2.000000X1.905000*%
%ADD38O,2.000000X1.905000*%
%ADD39R,2.400000X2.400000*%
%ADD40R,2.500000X2.500000*%
%ADD41C,2.500000*%
%ADD42O,1.500000X2.500000*%
G04 APERTURE END LIST*
D10*
G04 #@! TO.C,K1*
X208983000Y-84414800D03*
X195783000Y-84414800D03*
D11*
X208983000Y-78064800D03*
X202383000Y-78064800D03*
X195783000Y-78064800D03*
X208983000Y-71714800D03*
X202383000Y-71714800D03*
X195783000Y-71714800D03*
X208983000Y-67614800D03*
X202383000Y-67614800D03*
X195783000Y-67614800D03*
G04 #@! TD*
D10*
G04 #@! TO.C,K2*
X180904000Y-84364000D03*
X167704000Y-84364000D03*
D11*
X180904000Y-78014000D03*
X174304000Y-78014000D03*
X167704000Y-78014000D03*
X180904000Y-71664000D03*
X174304000Y-71664000D03*
X167704000Y-71664000D03*
X180904000Y-67564000D03*
X174304000Y-67564000D03*
X167704000Y-67564000D03*
G04 #@! TD*
D10*
G04 #@! TO.C,K4*
X155237000Y-84364000D03*
X142037000Y-84364000D03*
D11*
X155237000Y-78014000D03*
X148637000Y-78014000D03*
X142037000Y-78014000D03*
X155237000Y-71664000D03*
X148637000Y-71664000D03*
X142037000Y-71664000D03*
X155237000Y-67564000D03*
X148637000Y-67564000D03*
X142037000Y-67564000D03*
G04 #@! TD*
D10*
G04 #@! TO.C,K3*
X127310000Y-84364000D03*
X114110000Y-84364000D03*
D11*
X127310000Y-78014000D03*
X120710000Y-78014000D03*
X114110000Y-78014000D03*
X127310000Y-71664000D03*
X120710000Y-71664000D03*
X114110000Y-71664000D03*
X127310000Y-67564000D03*
X120710000Y-67564000D03*
X114110000Y-67564000D03*
G04 #@! TD*
D12*
G04 #@! TO.C,HS16*
X48136000Y-145224000D03*
X48136000Y-120224000D03*
G04 #@! TD*
G04 #@! TO.C,HS15*
X47945500Y-13671500D03*
X47945500Y-38671500D03*
G04 #@! TD*
D13*
G04 #@! TO.C,H11*
X21780500Y-133414000D03*
G04 #@! TD*
G04 #@! TO.C,H10*
X216535000Y-157036000D03*
G04 #@! TD*
D14*
G04 #@! TO.C,HS3*
X76708000Y-187592000D03*
X76708000Y-168592000D03*
G04 #@! TD*
G04 #@! TO.C,HS2*
X76771500Y-141682000D03*
X76771500Y-122682000D03*
G04 #@! TD*
G04 #@! TO.C,HS1*
X180912000Y-41352000D03*
X180912000Y-22352000D03*
G04 #@! TD*
D15*
G04 #@! TO.C,HS4*
X129921000Y-107315000D03*
X155321000Y-107315000D03*
G04 #@! TD*
G04 #@! TO.C,HS5*
X155258000Y-132652000D03*
X129858000Y-132652000D03*
G04 #@! TD*
G04 #@! TO.C,HS7*
X155321000Y-183452000D03*
X129921000Y-183452000D03*
G04 #@! TD*
D13*
G04 #@! TO.C,H8*
X232029000Y-17399000D03*
G04 #@! TD*
G04 #@! TO.C,H2*
X108458000Y-17526000D03*
G04 #@! TD*
G04 #@! TO.C,H1*
X23495000Y-17399000D03*
G04 #@! TD*
G04 #@! TO.C,H3*
X58991500Y-108077000D03*
G04 #@! TD*
D16*
G04 #@! TO.C,C1*
X153543000Y-249712000D03*
D17*
X153543000Y-239712000D03*
G04 #@! TD*
G04 #@! TO.C,C2*
X210884000Y-249746000D03*
D16*
X210884000Y-239746000D03*
G04 #@! TD*
D17*
G04 #@! TO.C,C3*
X138557000Y-36449000D03*
D16*
X138557000Y-46449000D03*
G04 #@! TD*
D18*
G04 #@! TO.C,C4*
X107442000Y-175260000D03*
D19*
X107442000Y-178760000D03*
G04 #@! TD*
G04 #@! TO.C,C5*
X106998000Y-133040000D03*
D18*
X106998000Y-129540000D03*
G04 #@! TD*
G04 #@! TO.C,C6*
X216535000Y-50482500D03*
D19*
X216535000Y-53982500D03*
G04 #@! TD*
D20*
G04 #@! TO.C,C7*
X227711000Y-111696000D03*
D21*
X227711000Y-113196000D03*
G04 #@! TD*
G04 #@! TO.C,C8*
X199048000Y-217360000D03*
D20*
X197548000Y-217360000D03*
G04 #@! TD*
G04 #@! TO.C,C9*
X227711000Y-51879500D03*
D21*
X227711000Y-53379500D03*
G04 #@! TD*
D22*
G04 #@! TO.C,D1*
X56515000Y-140398000D03*
X56515000Y-135318000D03*
X56515000Y-130238000D03*
D23*
X56515000Y-125158000D03*
G04 #@! TD*
G04 #@! TO.C,D3*
X56959500Y-18478500D03*
D22*
X56959500Y-23558500D03*
X56959500Y-28638500D03*
X56959500Y-33718500D03*
G04 #@! TD*
D24*
G04 #@! TO.C,D4*
X179578000Y-94805500D03*
D25*
X171958000Y-94805500D03*
G04 #@! TD*
G04 #@! TO.C,D5*
X117030000Y-94551500D03*
D24*
X124650000Y-94551500D03*
G04 #@! TD*
D25*
G04 #@! TO.C,D6*
X199263000Y-94996000D03*
D24*
X206883000Y-94996000D03*
G04 #@! TD*
D26*
G04 #@! TO.C,Q1*
X137160000Y-111760000D03*
D27*
X142635000Y-111760000D03*
X148110000Y-111760000D03*
G04 #@! TD*
G04 #@! TO.C,Q2*
X148110000Y-161036000D03*
X142635000Y-161036000D03*
D26*
X137160000Y-161036000D03*
G04 #@! TD*
D27*
G04 #@! TO.C,Q3*
X148110000Y-187960000D03*
X142635000Y-187960000D03*
D26*
X137160000Y-187960000D03*
G04 #@! TD*
G04 #@! TO.C,Q4*
X137160000Y-137160000D03*
D27*
X142635000Y-137160000D03*
X148110000Y-137160000D03*
G04 #@! TD*
D28*
G04 #@! TO.C,Q5*
G36*
X233495229Y-28305264D02*
X233520711Y-28309044D01*
X233545700Y-28315303D01*
X233569954Y-28323982D01*
X233593242Y-28334996D01*
X233615337Y-28348239D01*
X233636028Y-28363585D01*
X233655116Y-28380884D01*
X233672415Y-28399972D01*
X233687761Y-28420663D01*
X233701004Y-28442758D01*
X233712018Y-28466046D01*
X233720697Y-28490300D01*
X233726956Y-28515289D01*
X233730736Y-28540771D01*
X233732000Y-28566500D01*
X233732000Y-29091500D01*
X233730736Y-29117229D01*
X233726956Y-29142711D01*
X233720697Y-29167700D01*
X233712018Y-29191954D01*
X233701004Y-29215242D01*
X233687761Y-29237337D01*
X233672415Y-29258028D01*
X233655116Y-29277116D01*
X233636028Y-29294415D01*
X233615337Y-29309761D01*
X233593242Y-29323004D01*
X233569954Y-29334018D01*
X233545700Y-29342697D01*
X233520711Y-29348956D01*
X233495229Y-29352736D01*
X233469500Y-29354000D01*
X232494500Y-29354000D01*
X232468771Y-29352736D01*
X232443289Y-29348956D01*
X232418300Y-29342697D01*
X232394046Y-29334018D01*
X232370758Y-29323004D01*
X232348663Y-29309761D01*
X232327972Y-29294415D01*
X232308884Y-29277116D01*
X232291585Y-29258028D01*
X232276239Y-29237337D01*
X232262996Y-29215242D01*
X232251982Y-29191954D01*
X232243303Y-29167700D01*
X232237044Y-29142711D01*
X232233264Y-29117229D01*
X232232000Y-29091500D01*
X232232000Y-28566500D01*
X232233264Y-28540771D01*
X232237044Y-28515289D01*
X232243303Y-28490300D01*
X232251982Y-28466046D01*
X232262996Y-28442758D01*
X232276239Y-28420663D01*
X232291585Y-28399972D01*
X232308884Y-28380884D01*
X232327972Y-28363585D01*
X232348663Y-28348239D01*
X232370758Y-28334996D01*
X232394046Y-28323982D01*
X232418300Y-28315303D01*
X232443289Y-28309044D01*
X232468771Y-28305264D01*
X232494500Y-28304000D01*
X233469500Y-28304000D01*
X233495229Y-28305264D01*
X233495229Y-28305264D01*
G37*
D29*
X232982000Y-28829000D03*
D28*
G36*
X233495229Y-29575264D02*
X233520711Y-29579044D01*
X233545700Y-29585303D01*
X233569954Y-29593982D01*
X233593242Y-29604996D01*
X233615337Y-29618239D01*
X233636028Y-29633585D01*
X233655116Y-29650884D01*
X233672415Y-29669972D01*
X233687761Y-29690663D01*
X233701004Y-29712758D01*
X233712018Y-29736046D01*
X233720697Y-29760300D01*
X233726956Y-29785289D01*
X233730736Y-29810771D01*
X233732000Y-29836500D01*
X233732000Y-30361500D01*
X233730736Y-30387229D01*
X233726956Y-30412711D01*
X233720697Y-30437700D01*
X233712018Y-30461954D01*
X233701004Y-30485242D01*
X233687761Y-30507337D01*
X233672415Y-30528028D01*
X233655116Y-30547116D01*
X233636028Y-30564415D01*
X233615337Y-30579761D01*
X233593242Y-30593004D01*
X233569954Y-30604018D01*
X233545700Y-30612697D01*
X233520711Y-30618956D01*
X233495229Y-30622736D01*
X233469500Y-30624000D01*
X232494500Y-30624000D01*
X232468771Y-30622736D01*
X232443289Y-30618956D01*
X232418300Y-30612697D01*
X232394046Y-30604018D01*
X232370758Y-30593004D01*
X232348663Y-30579761D01*
X232327972Y-30564415D01*
X232308884Y-30547116D01*
X232291585Y-30528028D01*
X232276239Y-30507337D01*
X232262996Y-30485242D01*
X232251982Y-30461954D01*
X232243303Y-30437700D01*
X232237044Y-30412711D01*
X232233264Y-30387229D01*
X232232000Y-30361500D01*
X232232000Y-29836500D01*
X232233264Y-29810771D01*
X232237044Y-29785289D01*
X232243303Y-29760300D01*
X232251982Y-29736046D01*
X232262996Y-29712758D01*
X232276239Y-29690663D01*
X232291585Y-29669972D01*
X232308884Y-29650884D01*
X232327972Y-29633585D01*
X232348663Y-29618239D01*
X232370758Y-29604996D01*
X232394046Y-29593982D01*
X232418300Y-29585303D01*
X232443289Y-29579044D01*
X232468771Y-29575264D01*
X232494500Y-29574000D01*
X233469500Y-29574000D01*
X233495229Y-29575264D01*
X233495229Y-29575264D01*
G37*
D29*
X232982000Y-30099000D03*
D30*
X232982000Y-27559000D03*
G04 #@! TD*
D31*
G04 #@! TO.C,R1*
X167284000Y-55727600D03*
D32*
X174904000Y-55727600D03*
G04 #@! TD*
D33*
G04 #@! TO.C,R2*
X169418000Y-111760000D03*
D34*
X197358000Y-111760000D03*
G04 #@! TD*
G04 #@! TO.C,R3*
X197358000Y-161036000D03*
D33*
X169418000Y-161036000D03*
G04 #@! TD*
G04 #@! TO.C,R4*
X169418000Y-187960000D03*
D34*
X197358000Y-187960000D03*
G04 #@! TD*
G04 #@! TO.C,R5*
X197358000Y-137160000D03*
D33*
X169418000Y-137160000D03*
G04 #@! TD*
D35*
G04 #@! TO.C,R6*
X153416000Y-203200000D03*
D19*
X150876000Y-203200000D03*
G04 #@! TD*
G04 #@! TO.C,R7*
X111658000Y-98602800D03*
D35*
X111658000Y-96062800D03*
G04 #@! TD*
D19*
G04 #@! TO.C,R8*
X166052000Y-36512500D03*
D35*
X163512000Y-36512500D03*
G04 #@! TD*
D36*
G04 #@! TO.C,TR2*
X45853500Y-50966000D03*
X45853500Y-65966000D03*
X45853500Y-81966000D03*
X45853500Y-96966000D03*
X90853500Y-96966000D03*
X90853500Y-86966000D03*
X90853500Y-60966000D03*
X90853500Y-50966000D03*
G04 #@! TD*
D37*
G04 #@! TO.C,U1*
X75057000Y-175450000D03*
D38*
X75057000Y-177990000D03*
X75057000Y-180530000D03*
G04 #@! TD*
G04 #@! TO.C,U2*
X75120500Y-134684000D03*
X75120500Y-132144000D03*
D37*
X75120500Y-129604000D03*
G04 #@! TD*
G04 #@! TO.C,U3*
X179197000Y-29273500D03*
D38*
X179197000Y-31813500D03*
X179197000Y-34353500D03*
G04 #@! TD*
D39*
G04 #@! TO.C,C10*
X227711000Y-92900500D03*
D33*
X227711000Y-97900500D03*
G04 #@! TD*
D40*
G04 #@! TO.C,J1*
X244475000Y-203454000D03*
D41*
X244475000Y-195954000D03*
X244475000Y-188454000D03*
X244475000Y-180954000D03*
X244475000Y-173454000D03*
G04 #@! TD*
D40*
G04 #@! TO.C,J2*
X18351500Y-65976500D03*
D41*
X18351500Y-58476500D03*
X18351500Y-50976500D03*
G04 #@! TD*
G04 #@! TO.C,J3*
X244729000Y-118266000D03*
X244729000Y-125766000D03*
X244729000Y-133266000D03*
X244729000Y-140766000D03*
X244729000Y-148266000D03*
D40*
X244729000Y-155766000D03*
G04 #@! TD*
G04 #@! TO.C,J4*
X244729000Y-62293500D03*
D41*
X244729000Y-54793500D03*
X244729000Y-47293500D03*
X244729000Y-39793500D03*
X244729000Y-32293500D03*
X244729000Y-24793500D03*
G04 #@! TD*
D40*
G04 #@! TO.C,J5*
X244729000Y-105474000D03*
D41*
X244729000Y-97974000D03*
X244729000Y-90474000D03*
X244729000Y-82974000D03*
G04 #@! TD*
D32*
G04 #@! TO.C,R9*
X222631000Y-66865500D03*
D31*
X222631000Y-74485500D03*
G04 #@! TD*
G04 #@! TO.C,R10*
X222631000Y-87185500D03*
D32*
X222631000Y-79565500D03*
G04 #@! TD*
D40*
G04 #@! TO.C,F1*
X18796000Y-152019000D03*
D41*
X18796000Y-159519000D03*
G04 #@! TD*
D40*
G04 #@! TO.C,F2*
X18796000Y-183452000D03*
D41*
X18796000Y-190952000D03*
G04 #@! TD*
G04 #@! TO.C,F3*
X18986500Y-115132000D03*
D40*
X18986500Y-107632000D03*
G04 #@! TD*
G04 #@! TO.C,F4*
X244602000Y-247206000D03*
D41*
X244602000Y-239706000D03*
G04 #@! TD*
G04 #@! TO.C,F5*
X244602000Y-217544000D03*
D40*
X244602000Y-225044000D03*
G04 #@! TD*
D41*
G04 #@! TO.C,F6*
X180714000Y-271082000D03*
D40*
X188214000Y-271082000D03*
G04 #@! TD*
G04 #@! TO.C,F7*
X218313000Y-271272000D03*
D41*
X210813000Y-271272000D03*
G04 #@! TD*
G04 #@! TO.C,F8*
X212845000Y-19621500D03*
D40*
X220345000Y-19621500D03*
G04 #@! TD*
D13*
G04 #@! TO.C,H6*
X239586000Y-266954000D03*
G04 #@! TD*
D15*
G04 #@! TO.C,HS6*
X129984000Y-156591000D03*
X155384000Y-156591000D03*
G04 #@! TD*
D42*
G04 #@! TO.C,TR1*
X33200500Y-207604000D03*
X33200500Y-222604000D03*
X33200500Y-249604000D03*
X33200500Y-264604000D03*
X86700500Y-264604000D03*
X86700500Y-249604000D03*
X86700500Y-222604000D03*
X86700500Y-207604000D03*
D14*
X22450500Y-206104000D03*
X22450500Y-266104000D03*
X97450500Y-266104000D03*
X97450500Y-206104000D03*
G04 #@! TD*
M02*
