G04 #@! TF.GenerationSoftware,KiCad,Pcbnew,(5.0.0)*
G04 #@! TF.CreationDate,2019-04-22T22:13:15+01:00*
G04 #@! TF.ProjectId,PSU,5053552E6B696361645F706362000000,rev?*
G04 #@! TF.SameCoordinates,Original*
G04 #@! TF.FileFunction,Copper,L2,Bot,Signal*
G04 #@! TF.FilePolarity,Positive*
%FSLAX46Y46*%
G04 Gerber Fmt 4.6, Leading zero omitted, Abs format (unit mm)*
G04 Created by KiCad (PCBNEW (5.0.0)) date 04/22/19 22:13:15*
%MOMM*%
%LPD*%
G01*
G04 APERTURE LIST*
G04 #@! TA.AperFunction,ComponentPad*
%ADD10C,4.064000*%
G04 #@! TD*
G04 #@! TA.AperFunction,ComponentPad*
%ADD11R,3.810000X2.794000*%
G04 #@! TD*
G04 #@! TA.AperFunction,ComponentPad*
%ADD12R,3.000000X2.000000*%
G04 #@! TD*
G04 #@! TA.AperFunction,ComponentPad*
%ADD13C,3.500000*%
G04 #@! TD*
G04 #@! TA.AperFunction,ComponentPad*
%ADD14C,6.000000*%
G04 #@! TD*
G04 #@! TA.AperFunction,ComponentPad*
%ADD15C,4.000000*%
G04 #@! TD*
G04 #@! TA.AperFunction,ComponentPad*
%ADD16R,4.000000X4.000000*%
G04 #@! TD*
G04 #@! TA.AperFunction,ComponentPad*
%ADD17R,1.600000X1.600000*%
G04 #@! TD*
G04 #@! TA.AperFunction,ComponentPad*
%ADD18C,1.600000*%
G04 #@! TD*
G04 #@! TA.AperFunction,ComponentPad*
%ADD19R,1.200000X1.200000*%
G04 #@! TD*
G04 #@! TA.AperFunction,ComponentPad*
%ADD20C,1.200000*%
G04 #@! TD*
G04 #@! TA.AperFunction,ComponentPad*
%ADD21C,3.200000*%
G04 #@! TD*
G04 #@! TA.AperFunction,ComponentPad*
%ADD22R,3.200000X3.200000*%
G04 #@! TD*
G04 #@! TA.AperFunction,ComponentPad*
%ADD23O,2.200000X2.200000*%
G04 #@! TD*
G04 #@! TA.AperFunction,ComponentPad*
%ADD24R,2.200000X2.200000*%
G04 #@! TD*
G04 #@! TA.AperFunction,ComponentPad*
%ADD25R,2.500000X3.500000*%
G04 #@! TD*
G04 #@! TA.AperFunction,ComponentPad*
%ADD26O,2.500000X3.500000*%
G04 #@! TD*
G04 #@! TA.AperFunction,Conductor*
%ADD27C,0.100000*%
G04 #@! TD*
G04 #@! TA.AperFunction,ComponentPad*
%ADD28C,1.050000*%
G04 #@! TD*
G04 #@! TA.AperFunction,ComponentPad*
%ADD29R,1.500000X1.050000*%
G04 #@! TD*
G04 #@! TA.AperFunction,ComponentPad*
%ADD30O,1.400000X1.400000*%
G04 #@! TD*
G04 #@! TA.AperFunction,ComponentPad*
%ADD31C,1.400000*%
G04 #@! TD*
G04 #@! TA.AperFunction,ComponentPad*
%ADD32C,2.400000*%
G04 #@! TD*
G04 #@! TA.AperFunction,ComponentPad*
%ADD33O,2.400000X2.400000*%
G04 #@! TD*
G04 #@! TA.AperFunction,ComponentPad*
%ADD34O,1.600000X1.600000*%
G04 #@! TD*
G04 #@! TA.AperFunction,ComponentPad*
%ADD35C,1.524000*%
G04 #@! TD*
G04 #@! TA.AperFunction,ComponentPad*
%ADD36R,2.000000X1.905000*%
G04 #@! TD*
G04 #@! TA.AperFunction,ComponentPad*
%ADD37O,2.000000X1.905000*%
G04 #@! TD*
G04 #@! TA.AperFunction,ComponentPad*
%ADD38R,2.400000X2.400000*%
G04 #@! TD*
G04 #@! TA.AperFunction,ComponentPad*
%ADD39R,2.500000X2.500000*%
G04 #@! TD*
G04 #@! TA.AperFunction,ComponentPad*
%ADD40C,2.500000*%
G04 #@! TD*
G04 #@! TA.AperFunction,ComponentPad*
%ADD41O,1.500000X2.500000*%
G04 #@! TD*
G04 #@! TA.AperFunction,ViaPad*
%ADD42C,1.500000*%
G04 #@! TD*
G04 #@! TA.AperFunction,Conductor*
%ADD43C,1.500000*%
G04 #@! TD*
G04 #@! TA.AperFunction,Conductor*
%ADD44C,1.199800*%
G04 #@! TD*
G04 #@! TA.AperFunction,Conductor*
%ADD45C,1.051800*%
G04 #@! TD*
G04 APERTURE END LIST*
D10*
G04 #@! TO.P,K1,14*
G04 #@! TO.N,SKT2X*
X208983000Y-84414800D03*
G04 #@! TO.P,K1,13*
G04 #@! TO.N,Net-(C10-Pad2)*
X195783000Y-84414800D03*
D11*
G04 #@! TO.P,K1,9*
G04 #@! TO.N,N/C*
X208983000Y-78064800D03*
G04 #@! TO.P,K1,8*
G04 #@! TO.N,Net-(K1-Pad8)*
X202383000Y-78064800D03*
G04 #@! TO.P,K1,7*
G04 #@! TO.N,SKT2W*
X195783000Y-78064800D03*
G04 #@! TO.P,K1,6*
G04 #@! TO.N,N/C*
X208983000Y-71714800D03*
G04 #@! TO.P,K1,5*
G04 #@! TO.N,SKT2U*
X202383000Y-71714800D03*
G04 #@! TO.P,K1,4*
G04 #@! TO.N,Net-(D4-Pad2)*
X195783000Y-71714800D03*
G04 #@! TO.P,K1,3*
G04 #@! TO.N,N/C*
X208983000Y-67614800D03*
G04 #@! TO.P,K1,2*
X202383000Y-67614800D03*
G04 #@! TO.P,K1,1*
X195783000Y-67614800D03*
G04 #@! TD*
D10*
G04 #@! TO.P,K2,14*
G04 #@! TO.N,Net-(D4-Pad2)*
X180904000Y-84364000D03*
G04 #@! TO.P,K2,13*
G04 #@! TO.N,Net-(C10-Pad1)*
X167704000Y-84364000D03*
D11*
G04 #@! TO.P,K2,9*
G04 #@! TO.N,Net-(K1-Pad8)*
X180904000Y-78014000D03*
G04 #@! TO.P,K2,8*
G04 #@! TO.N,SKT2Y*
X174304000Y-78014000D03*
G04 #@! TO.P,K2,7*
G04 #@! TO.N,Net-(C10-Pad1)*
X167704000Y-78014000D03*
G04 #@! TO.P,K2,6*
G04 #@! TO.N,N/C*
X180904000Y-71664000D03*
G04 #@! TO.P,K2,5*
G04 #@! TO.N,Net-(D4-Pad2)*
X174304000Y-71664000D03*
G04 #@! TO.P,K2,4*
G04 #@! TO.N,SKT2V*
X167704000Y-71664000D03*
G04 #@! TO.P,K2,3*
G04 #@! TO.N,SKT2U*
X180904000Y-67564000D03*
G04 #@! TO.P,K2,2*
G04 #@! TO.N,N/C*
X174304000Y-67564000D03*
G04 #@! TO.P,K2,1*
G04 #@! TO.N,Net-(K2-Pad1)*
X167704000Y-67564000D03*
G04 #@! TD*
D10*
G04 #@! TO.P,K4,14*
G04 #@! TO.N,SKT2W*
X155237000Y-84364000D03*
G04 #@! TO.P,K4,13*
G04 #@! TO.N,SKT2V*
X142037000Y-84364000D03*
D11*
G04 #@! TO.P,K4,9*
G04 #@! TO.N,N/C*
X155237000Y-78014000D03*
G04 #@! TO.P,K4,8*
X148637000Y-78014000D03*
G04 #@! TO.P,K4,7*
X142037000Y-78014000D03*
G04 #@! TO.P,K4,6*
X155237000Y-71664000D03*
G04 #@! TO.P,K4,5*
X148637000Y-71664000D03*
G04 #@! TO.P,K4,4*
X142037000Y-71664000D03*
G04 #@! TO.P,K4,3*
X155237000Y-67564000D03*
G04 #@! TO.P,K4,2*
X148637000Y-67564000D03*
G04 #@! TO.P,K4,1*
X142037000Y-67564000D03*
G04 #@! TD*
D10*
G04 #@! TO.P,K3,14*
G04 #@! TO.N,SKT2W*
X127310000Y-84364000D03*
G04 #@! TO.P,K3,13*
G04 #@! TO.N,SKT2V*
X114110000Y-84364000D03*
D11*
G04 #@! TO.P,K3,9*
G04 #@! TO.N,N/C*
X127310000Y-78014000D03*
G04 #@! TO.P,K3,8*
G04 #@! TO.N,Net-(C1-Pad1)*
X120710000Y-78014000D03*
G04 #@! TO.P,K3,7*
G04 #@! TO.N,Net-(C2-Pad2)*
X114110000Y-78014000D03*
G04 #@! TO.P,K3,6*
G04 #@! TO.N,N/C*
X127310000Y-71664000D03*
G04 #@! TO.P,K3,5*
G04 #@! TO.N,Net-(K3-Pad5)*
X120710000Y-71664000D03*
G04 #@! TO.P,K3,4*
G04 #@! TO.N,Net-(K3-Pad4)*
X114110000Y-71664000D03*
G04 #@! TO.P,K3,3*
G04 #@! TO.N,N/C*
X127310000Y-67564000D03*
G04 #@! TO.P,K3,2*
G04 #@! TO.N,Net-(K3-Pad2)*
X120710000Y-67564000D03*
G04 #@! TO.P,K3,1*
G04 #@! TO.N,N/C*
X114110000Y-67564000D03*
G04 #@! TD*
D12*
G04 #@! TO.P,HS16,1*
G04 #@! TO.N,N/C*
X48136000Y-145224000D03*
G04 #@! TO.P,HS16,2*
X48136000Y-120224000D03*
G04 #@! TD*
G04 #@! TO.P,HS15,2*
G04 #@! TO.N,N/C*
X47945500Y-13671500D03*
G04 #@! TO.P,HS15,1*
X47945500Y-38671500D03*
G04 #@! TD*
D13*
G04 #@! TO.P,HS3,2*
G04 #@! TO.N,N/C*
X76708000Y-187592000D03*
G04 #@! TO.P,HS3,1*
X76708000Y-168592000D03*
G04 #@! TD*
G04 #@! TO.P,HS2,2*
G04 #@! TO.N,N/C*
X76771500Y-141682000D03*
G04 #@! TO.P,HS2,1*
X76771500Y-122682000D03*
G04 #@! TD*
G04 #@! TO.P,HS1,2*
G04 #@! TO.N,N/C*
X180912000Y-41352000D03*
G04 #@! TO.P,HS1,1*
X180912000Y-22352000D03*
G04 #@! TD*
D14*
G04 #@! TO.P,HS4,1*
G04 #@! TO.N,N/C*
X129921000Y-107315000D03*
X155321000Y-107315000D03*
G04 #@! TD*
G04 #@! TO.P,HS5,1*
G04 #@! TO.N,N/C*
X155258000Y-132652000D03*
X129858000Y-132652000D03*
G04 #@! TD*
G04 #@! TO.P,HS7,1*
G04 #@! TO.N,N/C*
X155321000Y-183452000D03*
X129921000Y-183452000D03*
G04 #@! TD*
D15*
G04 #@! TO.P,C1,2*
G04 #@! TO.N,0v*
X153543000Y-249712000D03*
D16*
G04 #@! TO.P,C1,1*
G04 #@! TO.N,Net-(C1-Pad1)*
X153543000Y-239712000D03*
G04 #@! TD*
G04 #@! TO.P,C2,1*
G04 #@! TO.N,0v*
X210884000Y-249746000D03*
D15*
G04 #@! TO.P,C2,2*
G04 #@! TO.N,Net-(C2-Pad2)*
X210884000Y-239746000D03*
G04 #@! TD*
D16*
G04 #@! TO.P,C3,1*
G04 #@! TO.N,Net-(C3-Pad1)*
X138557000Y-36449000D03*
D15*
G04 #@! TO.P,C3,2*
G04 #@! TO.N,SKT2W*
X138557000Y-46449000D03*
G04 #@! TD*
D17*
G04 #@! TO.P,C4,1*
G04 #@! TO.N,Net-(C4-Pad1)*
X107442000Y-175260000D03*
D18*
G04 #@! TO.P,C4,2*
G04 #@! TO.N,0v*
X107442000Y-178760000D03*
G04 #@! TD*
G04 #@! TO.P,C5,2*
G04 #@! TO.N,Net-(C5-Pad2)*
X106998000Y-133040000D03*
D17*
G04 #@! TO.P,C5,1*
G04 #@! TO.N,0v*
X106998000Y-129540000D03*
G04 #@! TD*
G04 #@! TO.P,C6,1*
G04 #@! TO.N,Net-(C6-Pad1)*
X216535000Y-50482500D03*
D18*
G04 #@! TO.P,C6,2*
G04 #@! TO.N,SKT2W*
X216535000Y-53982500D03*
G04 #@! TD*
D19*
G04 #@! TO.P,C7,1*
G04 #@! TO.N,SKT2G*
X227711000Y-111696000D03*
D20*
G04 #@! TO.P,C7,2*
G04 #@! TO.N,0v*
X227711000Y-113196000D03*
G04 #@! TD*
G04 #@! TO.P,C8,2*
G04 #@! TO.N,SKT2L*
X199048000Y-217360000D03*
D19*
G04 #@! TO.P,C8,1*
G04 #@! TO.N,0v*
X197548000Y-217360000D03*
G04 #@! TD*
G04 #@! TO.P,C9,1*
G04 #@! TO.N,Net-(C10-Pad1)*
X227711000Y-51879500D03*
D20*
G04 #@! TO.P,C9,2*
G04 #@! TO.N,SKT2W*
X227711000Y-53379500D03*
G04 #@! TD*
D21*
G04 #@! TO.P,D1,4*
G04 #@! TO.N,Net-(D1-Pad4)*
X56515000Y-140398000D03*
G04 #@! TO.P,D1,3*
G04 #@! TO.N,Net-(D1-Pad3)*
X56515000Y-135318000D03*
G04 #@! TO.P,D1,2*
G04 #@! TO.N,Net-(C2-Pad2)*
X56515000Y-130238000D03*
D22*
G04 #@! TO.P,D1,1*
G04 #@! TO.N,Net-(C1-Pad1)*
X56515000Y-125158000D03*
G04 #@! TD*
G04 #@! TO.P,D3,1*
G04 #@! TO.N,Net-(C3-Pad1)*
X56959500Y-18478500D03*
D21*
G04 #@! TO.P,D3,2*
G04 #@! TO.N,SKT2W*
X56959500Y-23558500D03*
G04 #@! TO.P,D3,3*
G04 #@! TO.N,Net-(D3-Pad3)*
X56959500Y-28638500D03*
G04 #@! TO.P,D3,4*
G04 #@! TO.N,Net-(D3-Pad4)*
X56959500Y-33718500D03*
G04 #@! TD*
D23*
G04 #@! TO.P,D4,2*
G04 #@! TO.N,Net-(D4-Pad2)*
X179578000Y-94805500D03*
D24*
G04 #@! TO.P,D4,1*
G04 #@! TO.N,Net-(C10-Pad1)*
X171958000Y-94805500D03*
G04 #@! TD*
G04 #@! TO.P,D5,1*
G04 #@! TO.N,SKT2V*
X117030000Y-94551500D03*
D23*
G04 #@! TO.P,D5,2*
G04 #@! TO.N,SKT2W*
X124650000Y-94551500D03*
G04 #@! TD*
D24*
G04 #@! TO.P,D6,1*
G04 #@! TO.N,Net-(D4-Pad2)*
X199263000Y-94996000D03*
D23*
G04 #@! TO.P,D6,2*
G04 #@! TO.N,SKT2X*
X206883000Y-94996000D03*
G04 #@! TD*
D25*
G04 #@! TO.P,Q1,1*
G04 #@! TO.N,Net-(C4-Pad1)*
X137160000Y-111760000D03*
D26*
G04 #@! TO.P,Q1,2*
G04 #@! TO.N,Net-(F4-Pad1)*
X142635000Y-111760000D03*
G04 #@! TO.P,Q1,3*
G04 #@! TO.N,Net-(Q1-Pad3)*
X148110000Y-111760000D03*
G04 #@! TD*
G04 #@! TO.P,Q2,3*
G04 #@! TO.N,Net-(Q2-Pad3)*
X148110000Y-161036000D03*
G04 #@! TO.P,Q2,2*
G04 #@! TO.N,Net-(F4-Pad1)*
X142635000Y-161036000D03*
D25*
G04 #@! TO.P,Q2,1*
G04 #@! TO.N,Net-(C4-Pad1)*
X137160000Y-161036000D03*
G04 #@! TD*
D26*
G04 #@! TO.P,Q3,3*
G04 #@! TO.N,Net-(Q3-Pad3)*
X148110000Y-187960000D03*
G04 #@! TO.P,Q3,2*
G04 #@! TO.N,Net-(F4-Pad1)*
X142635000Y-187960000D03*
D25*
G04 #@! TO.P,Q3,1*
G04 #@! TO.N,Net-(C4-Pad1)*
X137160000Y-187960000D03*
G04 #@! TD*
G04 #@! TO.P,Q4,1*
G04 #@! TO.N,Net-(C4-Pad1)*
X137160000Y-137160000D03*
D26*
G04 #@! TO.P,Q4,2*
G04 #@! TO.N,Net-(F4-Pad1)*
X142635000Y-137160000D03*
G04 #@! TO.P,Q4,3*
G04 #@! TO.N,Net-(Q4-Pad3)*
X148110000Y-137160000D03*
G04 #@! TD*
D27*
G04 #@! TO.N,Net-(K1-Pad8)*
G04 #@! TO.C,Q5*
G36*
X233495229Y-28305264D02*
X233520711Y-28309044D01*
X233545700Y-28315303D01*
X233569954Y-28323982D01*
X233593242Y-28334996D01*
X233615337Y-28348239D01*
X233636028Y-28363585D01*
X233655116Y-28380884D01*
X233672415Y-28399972D01*
X233687761Y-28420663D01*
X233701004Y-28442758D01*
X233712018Y-28466046D01*
X233720697Y-28490300D01*
X233726956Y-28515289D01*
X233730736Y-28540771D01*
X233732000Y-28566500D01*
X233732000Y-29091500D01*
X233730736Y-29117229D01*
X233726956Y-29142711D01*
X233720697Y-29167700D01*
X233712018Y-29191954D01*
X233701004Y-29215242D01*
X233687761Y-29237337D01*
X233672415Y-29258028D01*
X233655116Y-29277116D01*
X233636028Y-29294415D01*
X233615337Y-29309761D01*
X233593242Y-29323004D01*
X233569954Y-29334018D01*
X233545700Y-29342697D01*
X233520711Y-29348956D01*
X233495229Y-29352736D01*
X233469500Y-29354000D01*
X232494500Y-29354000D01*
X232468771Y-29352736D01*
X232443289Y-29348956D01*
X232418300Y-29342697D01*
X232394046Y-29334018D01*
X232370758Y-29323004D01*
X232348663Y-29309761D01*
X232327972Y-29294415D01*
X232308884Y-29277116D01*
X232291585Y-29258028D01*
X232276239Y-29237337D01*
X232262996Y-29215242D01*
X232251982Y-29191954D01*
X232243303Y-29167700D01*
X232237044Y-29142711D01*
X232233264Y-29117229D01*
X232232000Y-29091500D01*
X232232000Y-28566500D01*
X232233264Y-28540771D01*
X232237044Y-28515289D01*
X232243303Y-28490300D01*
X232251982Y-28466046D01*
X232262996Y-28442758D01*
X232276239Y-28420663D01*
X232291585Y-28399972D01*
X232308884Y-28380884D01*
X232327972Y-28363585D01*
X232348663Y-28348239D01*
X232370758Y-28334996D01*
X232394046Y-28323982D01*
X232418300Y-28315303D01*
X232443289Y-28309044D01*
X232468771Y-28305264D01*
X232494500Y-28304000D01*
X233469500Y-28304000D01*
X233495229Y-28305264D01*
X233495229Y-28305264D01*
G37*
D28*
G04 #@! TD*
G04 #@! TO.P,Q5,2*
G04 #@! TO.N,Net-(K1-Pad8)*
X232982000Y-28829000D03*
D27*
G04 #@! TO.N,SKT2U*
G04 #@! TO.C,Q5*
G36*
X233495229Y-29575264D02*
X233520711Y-29579044D01*
X233545700Y-29585303D01*
X233569954Y-29593982D01*
X233593242Y-29604996D01*
X233615337Y-29618239D01*
X233636028Y-29633585D01*
X233655116Y-29650884D01*
X233672415Y-29669972D01*
X233687761Y-29690663D01*
X233701004Y-29712758D01*
X233712018Y-29736046D01*
X233720697Y-29760300D01*
X233726956Y-29785289D01*
X233730736Y-29810771D01*
X233732000Y-29836500D01*
X233732000Y-30361500D01*
X233730736Y-30387229D01*
X233726956Y-30412711D01*
X233720697Y-30437700D01*
X233712018Y-30461954D01*
X233701004Y-30485242D01*
X233687761Y-30507337D01*
X233672415Y-30528028D01*
X233655116Y-30547116D01*
X233636028Y-30564415D01*
X233615337Y-30579761D01*
X233593242Y-30593004D01*
X233569954Y-30604018D01*
X233545700Y-30612697D01*
X233520711Y-30618956D01*
X233495229Y-30622736D01*
X233469500Y-30624000D01*
X232494500Y-30624000D01*
X232468771Y-30622736D01*
X232443289Y-30618956D01*
X232418300Y-30612697D01*
X232394046Y-30604018D01*
X232370758Y-30593004D01*
X232348663Y-30579761D01*
X232327972Y-30564415D01*
X232308884Y-30547116D01*
X232291585Y-30528028D01*
X232276239Y-30507337D01*
X232262996Y-30485242D01*
X232251982Y-30461954D01*
X232243303Y-30437700D01*
X232237044Y-30412711D01*
X232233264Y-30387229D01*
X232232000Y-30361500D01*
X232232000Y-29836500D01*
X232233264Y-29810771D01*
X232237044Y-29785289D01*
X232243303Y-29760300D01*
X232251982Y-29736046D01*
X232262996Y-29712758D01*
X232276239Y-29690663D01*
X232291585Y-29669972D01*
X232308884Y-29650884D01*
X232327972Y-29633585D01*
X232348663Y-29618239D01*
X232370758Y-29604996D01*
X232394046Y-29593982D01*
X232418300Y-29585303D01*
X232443289Y-29579044D01*
X232468771Y-29575264D01*
X232494500Y-29574000D01*
X233469500Y-29574000D01*
X233495229Y-29575264D01*
X233495229Y-29575264D01*
G37*
D28*
G04 #@! TD*
G04 #@! TO.P,Q5,1*
G04 #@! TO.N,SKT2U*
X232982000Y-30099000D03*
D29*
G04 #@! TO.P,Q5,3*
G04 #@! TO.N,SKT2T*
X232982000Y-27559000D03*
G04 #@! TD*
D30*
G04 #@! TO.P,R1,2*
G04 #@! TO.N,Net-(K3-Pad2)*
X167284000Y-55727600D03*
D31*
G04 #@! TO.P,R1,1*
G04 #@! TO.N,SKT2a_*
X174904000Y-55727600D03*
G04 #@! TD*
D32*
G04 #@! TO.P,R2,1*
G04 #@! TO.N,Net-(Q1-Pad3)*
X169418000Y-111760000D03*
D33*
G04 #@! TO.P,R2,2*
G04 #@! TO.N,Net-(K3-Pad5)*
X197358000Y-111760000D03*
G04 #@! TD*
G04 #@! TO.P,R3,2*
G04 #@! TO.N,Net-(K3-Pad5)*
X197358000Y-161036000D03*
D32*
G04 #@! TO.P,R3,1*
G04 #@! TO.N,Net-(Q2-Pad3)*
X169418000Y-161036000D03*
G04 #@! TD*
G04 #@! TO.P,R4,1*
G04 #@! TO.N,Net-(Q3-Pad3)*
X169418000Y-187960000D03*
D33*
G04 #@! TO.P,R4,2*
G04 #@! TO.N,Net-(K3-Pad5)*
X197358000Y-187960000D03*
G04 #@! TD*
G04 #@! TO.P,R5,2*
G04 #@! TO.N,Net-(K3-Pad5)*
X197358000Y-137160000D03*
D32*
G04 #@! TO.P,R5,1*
G04 #@! TO.N,Net-(Q4-Pad3)*
X169418000Y-137160000D03*
G04 #@! TD*
D34*
G04 #@! TO.P,R6,2*
G04 #@! TO.N,Net-(K3-Pad5)*
X153416000Y-203200000D03*
D18*
G04 #@! TO.P,R6,1*
G04 #@! TO.N,Net-(C4-Pad1)*
X150876000Y-203200000D03*
G04 #@! TD*
G04 #@! TO.P,R7,1*
G04 #@! TO.N,Net-(C5-Pad2)*
X111658000Y-98602800D03*
D34*
G04 #@! TO.P,R7,2*
G04 #@! TO.N,Net-(K3-Pad4)*
X111658000Y-96062800D03*
G04 #@! TD*
D18*
G04 #@! TO.P,R8,1*
G04 #@! TO.N,Net-(C6-Pad1)*
X166052000Y-36512500D03*
D34*
G04 #@! TO.P,R8,2*
G04 #@! TO.N,Net-(C3-Pad1)*
X163512000Y-36512500D03*
G04 #@! TD*
D35*
G04 #@! TO.P,TR2,1*
G04 #@! TO.N,L*
X45853500Y-50966000D03*
G04 #@! TO.P,TR2,2*
G04 #@! TO.N,Net-(TR2-Pad2)*
X45853500Y-65966000D03*
G04 #@! TO.P,TR2,3*
X45853500Y-81966000D03*
G04 #@! TO.P,TR2,4*
G04 #@! TO.N,N*
X45853500Y-96966000D03*
G04 #@! TO.P,TR2,5*
G04 #@! TO.N,Net-(D3-Pad4)*
X90853500Y-96966000D03*
G04 #@! TO.P,TR2,6*
G04 #@! TO.N,Net-(F3-Pad2)*
X90853500Y-86966000D03*
G04 #@! TO.P,TR2,7*
G04 #@! TO.N,Net-(D3-Pad4)*
X90853500Y-60966000D03*
G04 #@! TO.P,TR2,8*
G04 #@! TO.N,Net-(F3-Pad2)*
X90853500Y-50966000D03*
G04 #@! TD*
D36*
G04 #@! TO.P,U1,1*
G04 #@! TO.N,Net-(C4-Pad1)*
X75057000Y-175450000D03*
D37*
G04 #@! TO.P,U1,2*
G04 #@! TO.N,0v*
X75057000Y-177990000D03*
G04 #@! TO.P,U1,3*
G04 #@! TO.N,Net-(F4-Pad2)*
X75057000Y-180530000D03*
G04 #@! TD*
G04 #@! TO.P,U2,3*
G04 #@! TO.N,Net-(F6-Pad2)*
X75120500Y-134684000D03*
G04 #@! TO.P,U2,2*
G04 #@! TO.N,Net-(C5-Pad2)*
X75120500Y-132144000D03*
D36*
G04 #@! TO.P,U2,1*
G04 #@! TO.N,0v*
X75120500Y-129604000D03*
G04 #@! TD*
G04 #@! TO.P,U3,1*
G04 #@! TO.N,Net-(C6-Pad1)*
X179197000Y-29273500D03*
D37*
G04 #@! TO.P,U3,2*
G04 #@! TO.N,SKT2W*
X179197000Y-31813500D03*
G04 #@! TO.P,U3,3*
G04 #@! TO.N,Net-(F8-Pad2)*
X179197000Y-34353500D03*
G04 #@! TD*
D38*
G04 #@! TO.P,C10,1*
G04 #@! TO.N,Net-(C10-Pad1)*
X227711000Y-92900500D03*
D32*
G04 #@! TO.P,C10,2*
G04 #@! TO.N,Net-(C10-Pad2)*
X227711000Y-97900500D03*
G04 #@! TD*
D39*
G04 #@! TO.P,J1,1*
G04 #@! TO.N,0v*
X244475000Y-203454000D03*
D40*
G04 #@! TO.P,J1,2*
X244475000Y-195954000D03*
G04 #@! TO.P,J1,3*
X244475000Y-188454000D03*
G04 #@! TO.P,J1,4*
X244475000Y-180954000D03*
G04 #@! TO.P,J1,5*
X244475000Y-173454000D03*
G04 #@! TD*
D39*
G04 #@! TO.P,J2,1*
G04 #@! TO.N,N/C*
X18351500Y-65976500D03*
D40*
G04 #@! TO.P,J2,2*
G04 #@! TO.N,N*
X18351500Y-58476500D03*
G04 #@! TO.P,J2,3*
G04 #@! TO.N,L*
X18351500Y-50976500D03*
G04 #@! TD*
G04 #@! TO.P,J3,6*
G04 #@! TO.N,0v*
X244729000Y-118266000D03*
G04 #@! TO.P,J3,5*
X244729000Y-125766000D03*
G04 #@! TO.P,J3,4*
G04 #@! TO.N,SKT2L*
X244729000Y-133266000D03*
G04 #@! TO.P,J3,3*
X244729000Y-140766000D03*
G04 #@! TO.P,J3,2*
G04 #@! TO.N,SKT2W*
X244729000Y-148266000D03*
D39*
G04 #@! TO.P,J3,1*
G04 #@! TO.N,SKT2V*
X244729000Y-155766000D03*
G04 #@! TD*
G04 #@! TO.P,J4,1*
G04 #@! TO.N,SKT2W*
X244729000Y-62293500D03*
D40*
G04 #@! TO.P,J4,2*
G04 #@! TO.N,SKT2Y*
X244729000Y-54793500D03*
G04 #@! TO.P,J4,3*
G04 #@! TO.N,SKT2X*
X244729000Y-47293500D03*
G04 #@! TO.P,J4,4*
G04 #@! TO.N,SKT2a_*
X244729000Y-39793500D03*
G04 #@! TO.P,J4,5*
G04 #@! TO.N,SKT2U*
X244729000Y-32293500D03*
G04 #@! TO.P,J4,6*
G04 #@! TO.N,SKT2T*
X244729000Y-24793500D03*
G04 #@! TD*
D39*
G04 #@! TO.P,J5,1*
G04 #@! TO.N,SKT2G*
X244729000Y-105474000D03*
D40*
G04 #@! TO.P,J5,2*
X244729000Y-97974000D03*
G04 #@! TO.P,J5,3*
X244729000Y-90474000D03*
G04 #@! TO.P,J5,4*
X244729000Y-82974000D03*
G04 #@! TD*
D31*
G04 #@! TO.P,R9,1*
G04 #@! TO.N,Net-(K1-Pad8)*
X222631000Y-66865500D03*
D30*
G04 #@! TO.P,R9,2*
G04 #@! TO.N,SKT2G*
X222631000Y-74485500D03*
G04 #@! TD*
G04 #@! TO.P,R10,2*
G04 #@! TO.N,Net-(C10-Pad2)*
X222631000Y-87185500D03*
D31*
G04 #@! TO.P,R10,1*
G04 #@! TO.N,Net-(K2-Pad1)*
X222631000Y-79565500D03*
G04 #@! TD*
D39*
G04 #@! TO.P,F1,1*
G04 #@! TO.N,Net-(D1-Pad3)*
X18796000Y-152019000D03*
D40*
G04 #@! TO.P,F1,2*
G04 #@! TO.N,Net-(F1-Pad2)*
X18796000Y-159519000D03*
G04 #@! TD*
D39*
G04 #@! TO.P,F2,1*
G04 #@! TO.N,Net-(F2-Pad1)*
X18796000Y-183452000D03*
D40*
G04 #@! TO.P,F2,2*
G04 #@! TO.N,Net-(D1-Pad4)*
X18796000Y-190952000D03*
G04 #@! TD*
G04 #@! TO.P,F3,2*
G04 #@! TO.N,Net-(F3-Pad2)*
X18986500Y-115132000D03*
D39*
G04 #@! TO.P,F3,1*
G04 #@! TO.N,Net-(D3-Pad3)*
X18986500Y-107632000D03*
G04 #@! TD*
G04 #@! TO.P,F4,1*
G04 #@! TO.N,Net-(F4-Pad1)*
X244602000Y-247206000D03*
D40*
G04 #@! TO.P,F4,2*
G04 #@! TO.N,Net-(F4-Pad2)*
X244602000Y-239706000D03*
G04 #@! TD*
G04 #@! TO.P,F5,2*
G04 #@! TO.N,Net-(F4-Pad1)*
X244602000Y-217544000D03*
D39*
G04 #@! TO.P,F5,1*
G04 #@! TO.N,SKT2G*
X244602000Y-225044000D03*
G04 #@! TD*
D40*
G04 #@! TO.P,F6,2*
G04 #@! TO.N,Net-(F6-Pad2)*
X180714000Y-271082000D03*
D39*
G04 #@! TO.P,F6,1*
G04 #@! TO.N,Net-(F6-Pad1)*
X188214000Y-271082000D03*
G04 #@! TD*
G04 #@! TO.P,F7,1*
G04 #@! TO.N,SKT2L*
X218313000Y-271272000D03*
D40*
G04 #@! TO.P,F7,2*
G04 #@! TO.N,Net-(F6-Pad1)*
X210813000Y-271272000D03*
G04 #@! TD*
G04 #@! TO.P,F8,2*
G04 #@! TO.N,Net-(F8-Pad2)*
X212845000Y-19621500D03*
D39*
G04 #@! TO.P,F8,1*
G04 #@! TO.N,Net-(C10-Pad1)*
X220345000Y-19621500D03*
G04 #@! TD*
D14*
G04 #@! TO.P,HS6,1*
G04 #@! TO.N,N/C*
X129984000Y-156591000D03*
X155384000Y-156591000D03*
G04 #@! TD*
D41*
G04 #@! TO.P,TR1,1*
G04 #@! TO.N,L*
X33200500Y-207604000D03*
G04 #@! TO.P,TR1,2*
G04 #@! TO.N,Net-(TR1-Pad2)*
X33200500Y-222604000D03*
G04 #@! TO.P,TR1,3*
X33200500Y-249604000D03*
G04 #@! TO.P,TR1,4*
G04 #@! TO.N,N*
X33200500Y-264604000D03*
G04 #@! TO.P,TR1,5*
G04 #@! TO.N,Net-(F2-Pad1)*
X86700500Y-264604000D03*
G04 #@! TO.P,TR1,6*
G04 #@! TO.N,0v*
X86700500Y-249604000D03*
G04 #@! TO.P,TR1,7*
X86700500Y-222604000D03*
G04 #@! TO.P,TR1,8*
G04 #@! TO.N,Net-(F1-Pad2)*
X86700500Y-207604000D03*
D13*
G04 #@! TO.P,TR1,9*
G04 #@! TO.N,N/C*
X22450500Y-206104000D03*
G04 #@! TO.P,TR1,10*
X22450500Y-266104000D03*
G04 #@! TO.P,TR1,11*
X97450500Y-266104000D03*
G04 #@! TO.P,TR1,12*
X97450500Y-206104000D03*
G04 #@! TD*
D42*
G04 #@! TO.N,Net-(K1-Pad8)*
X230101300Y-30652100D03*
G04 #@! TD*
D43*
G04 #@! TO.N,Net-(C1-Pad1)*
X120710000Y-78014000D02*
X117305000Y-78014000D01*
X56515000Y-125158000D02*
X59615000Y-125158000D01*
X59615000Y-125158000D02*
X104411600Y-80361400D01*
X104411600Y-80361400D02*
X116424800Y-80361400D01*
X116424800Y-80361400D02*
X117305000Y-79481200D01*
X117305000Y-79481200D02*
X117305000Y-78014000D01*
G04 #@! TO.N,Net-(C2-Pad2)*
X56515000Y-130238000D02*
X70975300Y-144698300D01*
X70975300Y-144698300D02*
X70975300Y-179230300D01*
X70975300Y-179230300D02*
X76636600Y-184891600D01*
X76636600Y-184891600D02*
X113560100Y-184891600D01*
X113560100Y-184891600D02*
X168414500Y-239746000D01*
X168414500Y-239746000D02*
X210884000Y-239746000D01*
G04 #@! TO.N,Net-(C3-Pad1)*
X56959500Y-18478500D02*
X60059500Y-18478500D01*
X138557000Y-36449000D02*
X78030000Y-36449000D01*
X78030000Y-36449000D02*
X60059500Y-18478500D01*
G04 #@! TO.N,SKT2W*
X227711000Y-53429900D02*
X217087600Y-53429900D01*
X217087600Y-53429900D02*
X216535000Y-53982500D01*
D44*
X227711000Y-53429900D02*
X227711000Y-53379500D01*
D43*
G04 #@! TO.N,Net-(C4-Pad1)*
X124025900Y-171575900D02*
X134410000Y-161191800D01*
X134410000Y-161191800D02*
X134410000Y-161036000D01*
X107442000Y-175260000D02*
X120341800Y-175260000D01*
X120341800Y-175260000D02*
X124025900Y-171575900D01*
X124025900Y-171575900D02*
X137160000Y-184710000D01*
X137160000Y-187960000D02*
X137160000Y-184710000D01*
X137160000Y-161036000D02*
X134410000Y-161036000D01*
X137160000Y-187960000D02*
X137160000Y-191210000D01*
X150876000Y-203200000D02*
X138886000Y-191210000D01*
X138886000Y-191210000D02*
X137160000Y-191210000D01*
X75057000Y-175450000D02*
X77557000Y-175450000D01*
X77557000Y-175450000D02*
X77747000Y-175260000D01*
X77747000Y-175260000D02*
X107442000Y-175260000D01*
D44*
G04 #@! TO.N,SKT2G*
X228057400Y-111349600D02*
X227711000Y-111696000D01*
D43*
X244729000Y-105474000D02*
X233933000Y-105474000D01*
X233933000Y-105474000D02*
X228057400Y-111349600D01*
X222631000Y-74485500D02*
X224831000Y-74485500D01*
X244729000Y-82974000D02*
X233319500Y-82974000D01*
X233319500Y-82974000D02*
X224831000Y-74485500D01*
G04 #@! TO.N,Net-(C10-Pad1)*
X174558000Y-94805500D02*
X178512500Y-98760000D01*
X178512500Y-98760000D02*
X219151500Y-98760000D01*
X219151500Y-98760000D02*
X225011000Y-92900500D01*
X171958000Y-94805500D02*
X174558000Y-94805500D01*
X227711000Y-92900500D02*
X225011000Y-92900500D01*
G04 #@! TO.N,Net-(D1-Pad3)*
X18796000Y-152019000D02*
X21546000Y-152019000D01*
X21546000Y-152019000D02*
X38247000Y-135318000D01*
X38247000Y-135318000D02*
X56515000Y-135318000D01*
G04 #@! TO.N,Net-(D4-Pad2)*
X179578000Y-94805500D02*
X182178000Y-94805500D01*
X199263000Y-94996000D02*
X182368500Y-94996000D01*
X182368500Y-94996000D02*
X182178000Y-94805500D01*
G04 #@! TO.N,SKT2V*
X244729000Y-155766000D02*
X241979000Y-155766000D01*
X241979000Y-155766000D02*
X221222600Y-135009600D01*
X221222600Y-135009600D02*
X196467900Y-135009600D01*
X196467900Y-135009600D02*
X145822300Y-84364000D01*
X145822300Y-84364000D02*
X142037000Y-84364000D01*
X117030000Y-87363300D02*
X117030000Y-87284000D01*
X117030000Y-87284000D02*
X114110000Y-84364000D01*
X117030000Y-94551500D02*
X117030000Y-87363300D01*
X117030000Y-87363300D02*
X139037700Y-87363300D01*
X139037700Y-87363300D02*
X142037000Y-84364000D01*
G04 #@! TO.N,SKT2X*
X206883000Y-94996000D02*
X206883000Y-86514800D01*
X206883000Y-86514800D02*
X208983000Y-84414800D01*
X244729000Y-47293500D02*
X208983000Y-83039500D01*
X208983000Y-83039500D02*
X208983000Y-84414800D01*
G04 #@! TO.N,Net-(F3-Pad2)*
X89130500Y-86966000D02*
X90853500Y-86966000D01*
X18986500Y-115132000D02*
X60964500Y-115132000D01*
X60964500Y-115132000D02*
X89130500Y-86966000D01*
X89130500Y-86966000D02*
X89130500Y-52689000D01*
X89130500Y-52689000D02*
X90853500Y-50966000D01*
G04 #@! TO.N,Net-(F4-Pad1)*
X142635000Y-187960000D02*
X145385000Y-187960000D01*
X244602000Y-217544000D02*
X220508500Y-193450500D01*
X220508500Y-193450500D02*
X149953400Y-193450500D01*
X149953400Y-193450500D02*
X145385000Y-188882100D01*
X145385000Y-188882100D02*
X145385000Y-187960000D01*
G04 #@! TO.N,Net-(F4-Pad2)*
X244602000Y-239706000D02*
X215271000Y-210375000D01*
X215271000Y-210375000D02*
X141448200Y-210375000D01*
X141448200Y-210375000D02*
X111603200Y-180530000D01*
X111603200Y-180530000D02*
X75057000Y-180530000D01*
G04 #@! TO.N,Net-(F6-Pad1)*
X188214000Y-271082000D02*
X210623000Y-271082000D01*
X210623000Y-271082000D02*
X210813000Y-271272000D01*
G04 #@! TO.N,Net-(F8-Pad2)*
X212845000Y-19621500D02*
X198113000Y-34353500D01*
X198113000Y-34353500D02*
X179197000Y-34353500D01*
G04 #@! TO.N,N*
X18351500Y-58476500D02*
X45853500Y-85978500D01*
X45853500Y-85978500D02*
X45853500Y-96966000D01*
G04 #@! TO.N,L*
X33200500Y-207604000D02*
X33200500Y-186152400D01*
X33200500Y-186152400D02*
X16115700Y-169067600D01*
X16115700Y-169067600D02*
X16115700Y-53212300D01*
X16115700Y-53212300D02*
X18351500Y-50976500D01*
X18351500Y-50976500D02*
X45843000Y-50976500D01*
X45843000Y-50976500D02*
X45853500Y-50966000D01*
G04 #@! TO.N,SKT2Y*
X174304000Y-75117000D02*
X183579200Y-75117000D01*
X183579200Y-75117000D02*
X213681300Y-45014900D01*
X213681300Y-45014900D02*
X245595900Y-45014900D01*
X245595900Y-45014900D02*
X246953900Y-46372900D01*
X246953900Y-46372900D02*
X246953900Y-52568600D01*
X246953900Y-52568600D02*
X244729000Y-54793500D01*
X174304000Y-78014000D02*
X174304000Y-75117000D01*
G04 #@! TO.N,SKT2a_*
X244729000Y-39793500D02*
X190838100Y-39793500D01*
X190838100Y-39793500D02*
X174904000Y-55727600D01*
D45*
G04 #@! TO.N,SKT2U*
X233206200Y-30323100D02*
X232982000Y-30099000D01*
X233579800Y-30696800D02*
X233206200Y-30323100D01*
D43*
X233206200Y-30323100D02*
X227475400Y-36053900D01*
X227475400Y-36053900D02*
X192169800Y-36053900D01*
X192169800Y-36053900D02*
X173203600Y-55020100D01*
X173203600Y-55020100D02*
X173203600Y-56966600D01*
X173203600Y-56966600D02*
X180904000Y-64667000D01*
X180904000Y-67564000D02*
X180904000Y-64667000D01*
X244729000Y-32293500D02*
X235176500Y-32293500D01*
X235176500Y-32293500D02*
X233579800Y-30696800D01*
G04 #@! TO.N,Net-(K1-Pad8)*
X231281600Y-28828500D02*
X230101300Y-30008800D01*
X230101300Y-30008800D02*
X230101300Y-30652100D01*
D45*
X231281600Y-28828500D02*
X232981500Y-28828500D01*
X232981500Y-28828500D02*
X232982000Y-28829000D01*
D43*
X202383000Y-78064800D02*
X198978000Y-78064800D01*
X180904000Y-78014000D02*
X184309000Y-78014000D01*
X184309000Y-78014000D02*
X186707200Y-80412200D01*
X186707200Y-80412200D02*
X198097800Y-80412200D01*
X198097800Y-80412200D02*
X198978000Y-79532000D01*
X198978000Y-79532000D02*
X198978000Y-78064800D01*
X202383000Y-78064800D02*
X202383000Y-75167800D01*
X222631000Y-66865500D02*
X214328700Y-75167800D01*
X214328700Y-75167800D02*
X202383000Y-75167800D01*
G04 #@! TO.N,Net-(K3-Pad2)*
X120710000Y-67564000D02*
X120710000Y-64667000D01*
X167284000Y-55727600D02*
X129649400Y-55727600D01*
X129649400Y-55727600D02*
X120710000Y-64667000D01*
G04 #@! TO.N,Net-(K3-Pad5)*
X194658000Y-111760000D02*
X176825200Y-111760000D01*
X176825200Y-111760000D02*
X145426600Y-80361400D01*
X145426600Y-80361400D02*
X139368300Y-80361400D01*
X139368300Y-80361400D02*
X133567900Y-74561000D01*
X133567900Y-74561000D02*
X120710000Y-74561000D01*
X120710000Y-71664000D02*
X120710000Y-74561000D01*
X197358000Y-111760000D02*
X194658000Y-111760000D01*
G04 #@! TO.N,Net-(Q1-Pad3)*
X169418000Y-111760000D02*
X148110000Y-111760000D01*
G04 #@! TO.N,Net-(Q2-Pad3)*
X169418000Y-161036000D02*
X148110000Y-161036000D01*
G04 #@! TO.N,Net-(Q3-Pad3)*
X169418000Y-187960000D02*
X148110000Y-187960000D01*
G04 #@! TO.N,Net-(Q4-Pad3)*
X169418000Y-137160000D02*
X148110000Y-137160000D01*
G04 #@! TO.N,Net-(F1-Pad2)*
X86700500Y-207604000D02*
X86700500Y-204854000D01*
X86700500Y-204854000D02*
X64131000Y-204854000D01*
X64131000Y-204854000D02*
X18796000Y-159519000D01*
G04 #@! TO.N,Net-(K2-Pad1)*
X167704000Y-67564000D02*
X171109000Y-67564000D01*
X222631000Y-79565500D02*
X222631000Y-82177900D01*
X222631000Y-82177900D02*
X207749200Y-97059700D01*
X207749200Y-97059700D02*
X205998600Y-97059700D01*
X205998600Y-97059700D02*
X198519700Y-89580800D01*
X198519700Y-89580800D02*
X181212900Y-89580800D01*
X181212900Y-89580800D02*
X171109000Y-79476900D01*
X171109000Y-79476900D02*
X171109000Y-67564000D01*
G04 #@! TO.N,0v*
X153543000Y-249746000D02*
X153543000Y-249712000D01*
X86700500Y-252354000D02*
X150935000Y-252354000D01*
X150935000Y-252354000D02*
X153543000Y-249746000D01*
X153543000Y-249746000D02*
X207384000Y-249746000D01*
X210884000Y-249746000D02*
X207384000Y-249746000D01*
X210884000Y-249746000D02*
X210884000Y-246246000D01*
D44*
X197497600Y-217410400D02*
X197548000Y-217360000D01*
D43*
X210884000Y-246246000D02*
X213851000Y-243279000D01*
X213851000Y-243279000D02*
X213851000Y-238479200D01*
X213851000Y-238479200D02*
X197497600Y-222125800D01*
X197497600Y-222125800D02*
X197497600Y-217410400D01*
D44*
X228155000Y-113640000D02*
X227711000Y-113196000D01*
D43*
X244729000Y-118266000D02*
X232781000Y-118266000D01*
X232781000Y-118266000D02*
X228155000Y-113640000D01*
X244475000Y-173454000D02*
X246931200Y-170997800D01*
X246931200Y-170997800D02*
X246931200Y-127968200D01*
X246931200Y-127968200D02*
X244729000Y-125766000D01*
X86700500Y-249604000D02*
X86700500Y-252354000D01*
X75057000Y-177990000D02*
X106672000Y-177990000D01*
X106672000Y-177990000D02*
X107442000Y-178760000D01*
X75120500Y-129604000D02*
X77620500Y-129604000D01*
X77620500Y-129604000D02*
X77684500Y-129540000D01*
X77684500Y-129540000D02*
X106998000Y-129540000D01*
G04 #@! TD*
M02*
