G04 #@! TF.GenerationSoftware,KiCad,Pcbnew,(5.0.0)*
G04 #@! TF.CreationDate,2019-08-04T21:28:26+01:00*
G04 #@! TF.ProjectId,PSU,5053552E6B696361645F706362000000,rev?*
G04 #@! TF.SameCoordinates,Original*
G04 #@! TF.FileFunction,Copper,L2,Bot,Signal*
G04 #@! TF.FilePolarity,Positive*
%FSLAX46Y46*%
G04 Gerber Fmt 4.6, Leading zero omitted, Abs format (unit mm)*
G04 Created by KiCad (PCBNEW (5.0.0)) date 08/04/19 21:28:26*
%MOMM*%
%LPD*%
G01*
G04 APERTURE LIST*
G04 #@! TA.AperFunction,ComponentPad*
%ADD10R,3.200000X3.200000*%
G04 #@! TD*
G04 #@! TA.AperFunction,ComponentPad*
%ADD11C,3.200000*%
G04 #@! TD*
G04 #@! TA.AperFunction,ComponentPad*
%ADD12R,3.048000X2.032000*%
G04 #@! TD*
G04 #@! TA.AperFunction,ComponentPad*
%ADD13O,3.810000X2.794000*%
G04 #@! TD*
G04 #@! TA.AperFunction,ComponentPad*
%ADD14C,3.500000*%
G04 #@! TD*
G04 #@! TA.AperFunction,ComponentPad*
%ADD15C,5.700000*%
G04 #@! TD*
G04 #@! TA.AperFunction,ComponentPad*
%ADD16C,4.064000*%
G04 #@! TD*
G04 #@! TA.AperFunction,ComponentPad*
%ADD17R,3.810000X2.794000*%
G04 #@! TD*
G04 #@! TA.AperFunction,ComponentPad*
%ADD18C,6.000000*%
G04 #@! TD*
G04 #@! TA.AperFunction,ComponentPad*
%ADD19C,4.000000*%
G04 #@! TD*
G04 #@! TA.AperFunction,ComponentPad*
%ADD20R,4.000000X4.000000*%
G04 #@! TD*
G04 #@! TA.AperFunction,ComponentPad*
%ADD21R,1.600000X1.600000*%
G04 #@! TD*
G04 #@! TA.AperFunction,ComponentPad*
%ADD22C,1.600000*%
G04 #@! TD*
G04 #@! TA.AperFunction,ComponentPad*
%ADD23R,1.200000X1.200000*%
G04 #@! TD*
G04 #@! TA.AperFunction,ComponentPad*
%ADD24C,1.200000*%
G04 #@! TD*
G04 #@! TA.AperFunction,ComponentPad*
%ADD25O,2.200000X2.200000*%
G04 #@! TD*
G04 #@! TA.AperFunction,ComponentPad*
%ADD26R,2.200000X2.200000*%
G04 #@! TD*
G04 #@! TA.AperFunction,ComponentPad*
%ADD27R,2.500000X3.500000*%
G04 #@! TD*
G04 #@! TA.AperFunction,ComponentPad*
%ADD28O,2.500000X3.500000*%
G04 #@! TD*
G04 #@! TA.AperFunction,Conductor*
%ADD29C,0.100000*%
G04 #@! TD*
G04 #@! TA.AperFunction,ComponentPad*
%ADD30C,1.050000*%
G04 #@! TD*
G04 #@! TA.AperFunction,ComponentPad*
%ADD31R,1.050000X1.500000*%
G04 #@! TD*
G04 #@! TA.AperFunction,ComponentPad*
%ADD32O,1.400000X1.400000*%
G04 #@! TD*
G04 #@! TA.AperFunction,ComponentPad*
%ADD33C,1.400000*%
G04 #@! TD*
G04 #@! TA.AperFunction,ComponentPad*
%ADD34C,2.400000*%
G04 #@! TD*
G04 #@! TA.AperFunction,ComponentPad*
%ADD35O,2.400000X2.400000*%
G04 #@! TD*
G04 #@! TA.AperFunction,ComponentPad*
%ADD36O,1.600000X1.600000*%
G04 #@! TD*
G04 #@! TA.AperFunction,ComponentPad*
%ADD37R,2.000000X1.905000*%
G04 #@! TD*
G04 #@! TA.AperFunction,ComponentPad*
%ADD38O,2.000000X1.905000*%
G04 #@! TD*
G04 #@! TA.AperFunction,ComponentPad*
%ADD39R,2.400000X2.400000*%
G04 #@! TD*
G04 #@! TA.AperFunction,ComponentPad*
%ADD40R,2.500000X2.500000*%
G04 #@! TD*
G04 #@! TA.AperFunction,ComponentPad*
%ADD41C,2.500000*%
G04 #@! TD*
G04 #@! TA.AperFunction,ViaPad*
%ADD42C,1.500000*%
G04 #@! TD*
G04 #@! TA.AperFunction,ViaPad*
%ADD43C,1.000000*%
G04 #@! TD*
G04 #@! TA.AperFunction,ViaPad*
%ADD44C,2.500000*%
G04 #@! TD*
G04 #@! TA.AperFunction,Conductor*
%ADD45C,1.500000*%
G04 #@! TD*
G04 #@! TA.AperFunction,Conductor*
%ADD46C,1.199800*%
G04 #@! TD*
G04 #@! TA.AperFunction,Conductor*
%ADD47C,1.000000*%
G04 #@! TD*
G04 #@! TA.AperFunction,Conductor*
%ADD48C,2.000000*%
G04 #@! TD*
G04 APERTURE END LIST*
D10*
G04 #@! TO.P,D1,1*
G04 #@! TO.N,Net-(C1-Pad1)*
X72618600Y-141566400D03*
D11*
G04 #@! TO.P,D1,4*
G04 #@! TO.N,Net-(D1-Pad4)*
X72618600Y-146646400D03*
G04 #@! TO.P,D1,3*
G04 #@! TO.N,Net-(D1-Pad3)*
X72618600Y-151726400D03*
G04 #@! TO.P,D1,2*
G04 #@! TO.N,Net-(C2-Pad2)*
X72618600Y-156806400D03*
G04 #@! TD*
D10*
G04 #@! TO.P,D3,1*
G04 #@! TO.N,Net-(C3-Pad1)*
X73063100Y-34886900D03*
D11*
G04 #@! TO.P,D3,4*
G04 #@! TO.N,Net-(D3-Pad4)*
X73063100Y-39966900D03*
G04 #@! TO.P,D3,3*
G04 #@! TO.N,Net-(D3-Pad3)*
X73063100Y-45046900D03*
G04 #@! TO.P,D3,2*
G04 #@! TO.N,SKT2W*
X73063100Y-50126900D03*
G04 #@! TD*
D12*
G04 #@! TO.P,HS16,1*
G04 #@! TO.N,N/C*
X64239600Y-161432400D03*
G04 #@! TO.P,HS16,2*
X64239600Y-136832400D03*
G04 #@! TD*
G04 #@! TO.P,HS15,1*
G04 #@! TO.N,N/C*
X64049100Y-54879900D03*
G04 #@! TO.P,HS15,2*
X64049100Y-30279900D03*
G04 #@! TD*
D13*
G04 #@! TO.P,TR1,1*
G04 #@! TO.N,L*
X49304100Y-224012400D03*
G04 #@! TO.P,TR1,2*
G04 #@! TO.N,Net-(TR1-Pad2)*
X49304100Y-239012400D03*
G04 #@! TO.P,TR1,3*
X49304100Y-266012400D03*
G04 #@! TO.P,TR1,4*
G04 #@! TO.N,N*
X49304100Y-281012400D03*
G04 #@! TO.P,TR1,5*
G04 #@! TO.N,Net-(F2-Pad1)*
X102804100Y-281012400D03*
G04 #@! TO.P,TR1,6*
G04 #@! TO.N,0v*
X102804100Y-271012400D03*
G04 #@! TO.P,TR1,7*
X102804100Y-234012400D03*
G04 #@! TO.P,TR1,8*
G04 #@! TO.N,Net-(F1-Pad2)*
X102804100Y-224012400D03*
D14*
G04 #@! TO.P,TR1,9*
G04 #@! TO.N,N/C*
X38554100Y-222512400D03*
G04 #@! TO.P,TR1,10*
X38554100Y-282512400D03*
G04 #@! TO.P,TR1,11*
X113554100Y-282512400D03*
G04 #@! TO.P,TR1,12*
X113554100Y-222512400D03*
G04 #@! TD*
D13*
G04 #@! TO.P,TR2,8*
G04 #@! TO.N,Net-(F3-Pad2)*
X106957100Y-67374400D03*
G04 #@! TO.P,TR2,7*
G04 #@! TO.N,Net-(D3-Pad4)*
X106957100Y-77374400D03*
G04 #@! TO.P,TR2,6*
G04 #@! TO.N,Net-(F3-Pad2)*
X106957100Y-103374400D03*
G04 #@! TO.P,TR2,5*
G04 #@! TO.N,Net-(D3-Pad4)*
X106957100Y-113374400D03*
G04 #@! TO.P,TR2,4*
G04 #@! TO.N,N*
X61957100Y-113374400D03*
G04 #@! TO.P,TR2,3*
G04 #@! TO.N,Net-(TR2-Pad2)*
X61957100Y-98374400D03*
G04 #@! TO.P,TR2,2*
X61957100Y-82374400D03*
G04 #@! TO.P,TR2,1*
G04 #@! TO.N,L*
X61957100Y-67374400D03*
G04 #@! TD*
D15*
G04 #@! TO.P,H11,1*
G04 #@! TO.N,N/C*
X37884100Y-149822400D03*
G04 #@! TD*
G04 #@! TO.P,H10,1*
G04 #@! TO.N,N/C*
X233527600Y-180238400D03*
G04 #@! TD*
G04 #@! TO.P,H8,1*
G04 #@! TO.N,N/C*
X248132600Y-33807400D03*
G04 #@! TD*
G04 #@! TO.P,H2,1*
G04 #@! TO.N,N/C*
X124561600Y-33934400D03*
G04 #@! TD*
G04 #@! TO.P,H1,1*
G04 #@! TO.N,N/C*
X39598600Y-33807400D03*
G04 #@! TD*
G04 #@! TO.P,H3,1*
G04 #@! TO.N,N/C*
X75095100Y-124485400D03*
G04 #@! TD*
G04 #@! TO.P,H6,1*
G04 #@! TO.N,N/C*
X255689600Y-283362400D03*
G04 #@! TD*
D16*
G04 #@! TO.P,K1,14*
G04 #@! TO.N,SKT2X*
X225086600Y-100823200D03*
G04 #@! TO.P,K1,13*
G04 #@! TO.N,Net-(C10-Pad2)*
X211886600Y-100823200D03*
D17*
G04 #@! TO.P,K1,9*
G04 #@! TO.N,N/C*
X225086600Y-94473200D03*
G04 #@! TO.P,K1,8*
G04 #@! TO.N,Net-(K1-Pad8)*
X218486600Y-94473200D03*
G04 #@! TO.P,K1,7*
G04 #@! TO.N,SKT2W*
X211886600Y-94473200D03*
G04 #@! TO.P,K1,6*
G04 #@! TO.N,N/C*
X225086600Y-88123200D03*
G04 #@! TO.P,K1,5*
G04 #@! TO.N,SKT2U*
X218486600Y-88123200D03*
G04 #@! TO.P,K1,4*
G04 #@! TO.N,Net-(D4-Pad2)*
X211886600Y-88123200D03*
G04 #@! TO.P,K1,3*
G04 #@! TO.N,N/C*
X225086600Y-84023200D03*
G04 #@! TO.P,K1,2*
X218486600Y-84023200D03*
G04 #@! TO.P,K1,1*
X211886600Y-84023200D03*
G04 #@! TD*
D16*
G04 #@! TO.P,K2,14*
G04 #@! TO.N,Net-(D4-Pad2)*
X197007600Y-100772400D03*
G04 #@! TO.P,K2,13*
G04 #@! TO.N,Net-(C10-Pad1)*
X183807600Y-100772400D03*
D17*
G04 #@! TO.P,K2,9*
G04 #@! TO.N,Net-(K1-Pad8)*
X197007600Y-94422400D03*
G04 #@! TO.P,K2,8*
G04 #@! TO.N,SKT2Y*
X190407600Y-94422400D03*
G04 #@! TO.P,K2,7*
G04 #@! TO.N,Net-(C10-Pad1)*
X183807600Y-94422400D03*
G04 #@! TO.P,K2,6*
G04 #@! TO.N,N/C*
X197007600Y-88072400D03*
G04 #@! TO.P,K2,5*
G04 #@! TO.N,Net-(D4-Pad2)*
X190407600Y-88072400D03*
G04 #@! TO.P,K2,4*
G04 #@! TO.N,SKT2V*
X183807600Y-88072400D03*
G04 #@! TO.P,K2,3*
G04 #@! TO.N,SKT2U*
X197007600Y-83972400D03*
G04 #@! TO.P,K2,2*
G04 #@! TO.N,N/C*
X190407600Y-83972400D03*
G04 #@! TO.P,K2,1*
G04 #@! TO.N,Net-(K2-Pad1)*
X183807600Y-83972400D03*
G04 #@! TD*
D16*
G04 #@! TO.P,K4,14*
G04 #@! TO.N,SKT2W*
X171340600Y-100772400D03*
G04 #@! TO.P,K4,13*
G04 #@! TO.N,SKT2V*
X158140600Y-100772400D03*
D17*
G04 #@! TO.P,K4,9*
G04 #@! TO.N,N/C*
X171340600Y-94422400D03*
G04 #@! TO.P,K4,8*
X164740600Y-94422400D03*
G04 #@! TO.P,K4,7*
X158140600Y-94422400D03*
G04 #@! TO.P,K4,6*
X171340600Y-88072400D03*
G04 #@! TO.P,K4,5*
X164740600Y-88072400D03*
G04 #@! TO.P,K4,4*
X158140600Y-88072400D03*
G04 #@! TO.P,K4,3*
X171340600Y-83972400D03*
G04 #@! TO.P,K4,2*
X164740600Y-83972400D03*
G04 #@! TO.P,K4,1*
X158140600Y-83972400D03*
G04 #@! TD*
D16*
G04 #@! TO.P,K3,14*
G04 #@! TO.N,SKT2W*
X143413600Y-100772400D03*
G04 #@! TO.P,K3,13*
G04 #@! TO.N,SKT2V*
X130213600Y-100772400D03*
D17*
G04 #@! TO.P,K3,9*
G04 #@! TO.N,N/C*
X143413600Y-94422400D03*
G04 #@! TO.P,K3,8*
G04 #@! TO.N,Net-(C1-Pad1)*
X136813600Y-94422400D03*
G04 #@! TO.P,K3,7*
G04 #@! TO.N,Net-(C2-Pad2)*
X130213600Y-94422400D03*
G04 #@! TO.P,K3,6*
G04 #@! TO.N,N/C*
X143413600Y-88072400D03*
G04 #@! TO.P,K3,5*
G04 #@! TO.N,Net-(K3-Pad5)*
X136813600Y-88072400D03*
G04 #@! TO.P,K3,4*
G04 #@! TO.N,Net-(K3-Pad4)*
X130213600Y-88072400D03*
G04 #@! TO.P,K3,3*
G04 #@! TO.N,N/C*
X143413600Y-83972400D03*
G04 #@! TO.P,K3,2*
G04 #@! TO.N,Net-(K3-Pad2)*
X136813600Y-83972400D03*
G04 #@! TO.P,K3,1*
G04 #@! TO.N,N/C*
X130213600Y-83972400D03*
G04 #@! TD*
D14*
G04 #@! TO.P,HS3,2*
G04 #@! TO.N,N/C*
X91732100Y-203810400D03*
G04 #@! TO.P,HS3,1*
X91732100Y-184810400D03*
G04 #@! TD*
G04 #@! TO.P,HS2,2*
G04 #@! TO.N,N/C*
X91795600Y-158026400D03*
G04 #@! TO.P,HS2,1*
X91795600Y-139026400D03*
G04 #@! TD*
G04 #@! TO.P,HS1,2*
G04 #@! TO.N,N/C*
X195808600Y-57696900D03*
G04 #@! TO.P,HS1,1*
X195808600Y-38696900D03*
G04 #@! TD*
D18*
G04 #@! TO.P,HS4,1*
G04 #@! TO.N,N/C*
X146024600Y-123723400D03*
X171424600Y-123723400D03*
G04 #@! TD*
G04 #@! TO.P,HS5,1*
G04 #@! TO.N,N/C*
X171361600Y-149060400D03*
X145961600Y-149060400D03*
G04 #@! TD*
G04 #@! TO.P,HS7,1*
G04 #@! TO.N,N/C*
X171424600Y-199860400D03*
X146024600Y-199860400D03*
G04 #@! TD*
D19*
G04 #@! TO.P,C1,2*
G04 #@! TO.N,0v*
X169646600Y-266120400D03*
D20*
G04 #@! TO.P,C1,1*
G04 #@! TO.N,Net-(C1-Pad1)*
X169646600Y-256120400D03*
G04 #@! TD*
G04 #@! TO.P,C2,1*
G04 #@! TO.N,0v*
X226987600Y-266154400D03*
D19*
G04 #@! TO.P,C2,2*
G04 #@! TO.N,Net-(C2-Pad2)*
X226987600Y-256154400D03*
G04 #@! TD*
D20*
G04 #@! TO.P,C3,1*
G04 #@! TO.N,Net-(C3-Pad1)*
X154660600Y-52857400D03*
D19*
G04 #@! TO.P,C3,2*
G04 #@! TO.N,SKT2W*
X154660600Y-62857400D03*
G04 #@! TD*
D21*
G04 #@! TO.P,C4,1*
G04 #@! TO.N,Net-(C4-Pad1)*
X123545600Y-191668400D03*
D22*
G04 #@! TO.P,C4,2*
G04 #@! TO.N,0v*
X123545600Y-195168400D03*
G04 #@! TD*
G04 #@! TO.P,C5,2*
G04 #@! TO.N,Net-(C5-Pad2)*
X123101600Y-149448400D03*
D21*
G04 #@! TO.P,C5,1*
G04 #@! TO.N,0v*
X123101600Y-145948400D03*
G04 #@! TD*
G04 #@! TO.P,C6,1*
G04 #@! TO.N,Net-(C6-Pad1)*
X232638600Y-66890900D03*
D22*
G04 #@! TO.P,C6,2*
G04 #@! TO.N,SKT2W*
X232638600Y-70390900D03*
G04 #@! TD*
D23*
G04 #@! TO.P,C7,1*
G04 #@! TO.N,SKT2G*
X243814600Y-128104400D03*
D24*
G04 #@! TO.P,C7,2*
G04 #@! TO.N,0v*
X243814600Y-129604400D03*
G04 #@! TD*
G04 #@! TO.P,C8,2*
G04 #@! TO.N,SKT2L*
X215151600Y-233768400D03*
D23*
G04 #@! TO.P,C8,1*
G04 #@! TO.N,0v*
X213651600Y-233768400D03*
G04 #@! TD*
G04 #@! TO.P,C9,1*
G04 #@! TO.N,Net-(C10-Pad1)*
X243814600Y-68287900D03*
D24*
G04 #@! TO.P,C9,2*
G04 #@! TO.N,SKT2W*
X243814600Y-69787900D03*
G04 #@! TD*
D25*
G04 #@! TO.P,D4,2*
G04 #@! TO.N,Net-(D4-Pad2)*
X195681600Y-111213900D03*
D26*
G04 #@! TO.P,D4,1*
G04 #@! TO.N,Net-(C10-Pad1)*
X188061600Y-111213900D03*
G04 #@! TD*
G04 #@! TO.P,D5,1*
G04 #@! TO.N,SKT2V*
X133133600Y-110959900D03*
D25*
G04 #@! TO.P,D5,2*
G04 #@! TO.N,SKT2W*
X140753600Y-110959900D03*
G04 #@! TD*
D26*
G04 #@! TO.P,D6,1*
G04 #@! TO.N,Net-(D4-Pad2)*
X215366600Y-111404400D03*
D25*
G04 #@! TO.P,D6,2*
G04 #@! TO.N,SKT2X*
X222986600Y-111404400D03*
G04 #@! TD*
D27*
G04 #@! TO.P,Q1,1*
G04 #@! TO.N,Net-(C4-Pad1)*
X153263600Y-128168400D03*
D28*
G04 #@! TO.P,Q1,2*
G04 #@! TO.N,Net-(F4-Pad1)*
X158738600Y-128168400D03*
G04 #@! TO.P,Q1,3*
G04 #@! TO.N,Net-(Q1-Pad3)*
X164213600Y-128168400D03*
G04 #@! TD*
G04 #@! TO.P,Q2,3*
G04 #@! TO.N,Net-(Q2-Pad3)*
X164213600Y-177444400D03*
G04 #@! TO.P,Q2,2*
G04 #@! TO.N,Net-(F4-Pad1)*
X158738600Y-177444400D03*
D27*
G04 #@! TO.P,Q2,1*
G04 #@! TO.N,Net-(C4-Pad1)*
X153263600Y-177444400D03*
G04 #@! TD*
D28*
G04 #@! TO.P,Q3,3*
G04 #@! TO.N,Net-(Q3-Pad3)*
X164213600Y-204368400D03*
G04 #@! TO.P,Q3,2*
G04 #@! TO.N,Net-(F4-Pad1)*
X158738600Y-204368400D03*
D27*
G04 #@! TO.P,Q3,1*
G04 #@! TO.N,Net-(C4-Pad1)*
X153263600Y-204368400D03*
G04 #@! TD*
G04 #@! TO.P,Q4,1*
G04 #@! TO.N,Net-(C4-Pad1)*
X153263600Y-153568400D03*
D28*
G04 #@! TO.P,Q4,2*
G04 #@! TO.N,Net-(F4-Pad1)*
X158738600Y-153568400D03*
G04 #@! TO.P,Q4,3*
G04 #@! TO.N,Net-(Q4-Pad3)*
X164213600Y-153568400D03*
G04 #@! TD*
D29*
G04 #@! TO.N,Net-(K1-Pad8)*
G04 #@! TO.C,Q5*
G36*
X246972829Y-45225264D02*
X246998311Y-45229044D01*
X247023300Y-45235303D01*
X247047554Y-45243982D01*
X247070842Y-45254996D01*
X247092937Y-45268239D01*
X247113628Y-45283585D01*
X247132716Y-45300884D01*
X247150015Y-45319972D01*
X247165361Y-45340663D01*
X247178604Y-45362758D01*
X247189618Y-45386046D01*
X247198297Y-45410300D01*
X247204556Y-45435289D01*
X247208336Y-45460771D01*
X247209600Y-45486500D01*
X247209600Y-46461500D01*
X247208336Y-46487229D01*
X247204556Y-46512711D01*
X247198297Y-46537700D01*
X247189618Y-46561954D01*
X247178604Y-46585242D01*
X247165361Y-46607337D01*
X247150015Y-46628028D01*
X247132716Y-46647116D01*
X247113628Y-46664415D01*
X247092937Y-46679761D01*
X247070842Y-46693004D01*
X247047554Y-46704018D01*
X247023300Y-46712697D01*
X246998311Y-46718956D01*
X246972829Y-46722736D01*
X246947100Y-46724000D01*
X246422100Y-46724000D01*
X246396371Y-46722736D01*
X246370889Y-46718956D01*
X246345900Y-46712697D01*
X246321646Y-46704018D01*
X246298358Y-46693004D01*
X246276263Y-46679761D01*
X246255572Y-46664415D01*
X246236484Y-46647116D01*
X246219185Y-46628028D01*
X246203839Y-46607337D01*
X246190596Y-46585242D01*
X246179582Y-46561954D01*
X246170903Y-46537700D01*
X246164644Y-46512711D01*
X246160864Y-46487229D01*
X246159600Y-46461500D01*
X246159600Y-45486500D01*
X246160864Y-45460771D01*
X246164644Y-45435289D01*
X246170903Y-45410300D01*
X246179582Y-45386046D01*
X246190596Y-45362758D01*
X246203839Y-45340663D01*
X246219185Y-45319972D01*
X246236484Y-45300884D01*
X246255572Y-45283585D01*
X246276263Y-45268239D01*
X246298358Y-45254996D01*
X246321646Y-45243982D01*
X246345900Y-45235303D01*
X246370889Y-45229044D01*
X246396371Y-45225264D01*
X246422100Y-45224000D01*
X246947100Y-45224000D01*
X246972829Y-45225264D01*
X246972829Y-45225264D01*
G37*
D30*
G04 #@! TD*
G04 #@! TO.P,Q5,2*
G04 #@! TO.N,Net-(K1-Pad8)*
X246684600Y-45974000D03*
D29*
G04 #@! TO.N,SKT2U*
G04 #@! TO.C,Q5*
G36*
X245702829Y-45225264D02*
X245728311Y-45229044D01*
X245753300Y-45235303D01*
X245777554Y-45243982D01*
X245800842Y-45254996D01*
X245822937Y-45268239D01*
X245843628Y-45283585D01*
X245862716Y-45300884D01*
X245880015Y-45319972D01*
X245895361Y-45340663D01*
X245908604Y-45362758D01*
X245919618Y-45386046D01*
X245928297Y-45410300D01*
X245934556Y-45435289D01*
X245938336Y-45460771D01*
X245939600Y-45486500D01*
X245939600Y-46461500D01*
X245938336Y-46487229D01*
X245934556Y-46512711D01*
X245928297Y-46537700D01*
X245919618Y-46561954D01*
X245908604Y-46585242D01*
X245895361Y-46607337D01*
X245880015Y-46628028D01*
X245862716Y-46647116D01*
X245843628Y-46664415D01*
X245822937Y-46679761D01*
X245800842Y-46693004D01*
X245777554Y-46704018D01*
X245753300Y-46712697D01*
X245728311Y-46718956D01*
X245702829Y-46722736D01*
X245677100Y-46724000D01*
X245152100Y-46724000D01*
X245126371Y-46722736D01*
X245100889Y-46718956D01*
X245075900Y-46712697D01*
X245051646Y-46704018D01*
X245028358Y-46693004D01*
X245006263Y-46679761D01*
X244985572Y-46664415D01*
X244966484Y-46647116D01*
X244949185Y-46628028D01*
X244933839Y-46607337D01*
X244920596Y-46585242D01*
X244909582Y-46561954D01*
X244900903Y-46537700D01*
X244894644Y-46512711D01*
X244890864Y-46487229D01*
X244889600Y-46461500D01*
X244889600Y-45486500D01*
X244890864Y-45460771D01*
X244894644Y-45435289D01*
X244900903Y-45410300D01*
X244909582Y-45386046D01*
X244920596Y-45362758D01*
X244933839Y-45340663D01*
X244949185Y-45319972D01*
X244966484Y-45300884D01*
X244985572Y-45283585D01*
X245006263Y-45268239D01*
X245028358Y-45254996D01*
X245051646Y-45243982D01*
X245075900Y-45235303D01*
X245100889Y-45229044D01*
X245126371Y-45225264D01*
X245152100Y-45224000D01*
X245677100Y-45224000D01*
X245702829Y-45225264D01*
X245702829Y-45225264D01*
G37*
D30*
G04 #@! TD*
G04 #@! TO.P,Q5,1*
G04 #@! TO.N,SKT2U*
X245414600Y-45974000D03*
D31*
G04 #@! TO.P,Q5,3*
G04 #@! TO.N,SKT2T*
X247954600Y-45974000D03*
G04 #@! TD*
D32*
G04 #@! TO.P,R1,2*
G04 #@! TO.N,Net-(K3-Pad2)*
X183387600Y-72136000D03*
D33*
G04 #@! TO.P,R1,1*
G04 #@! TO.N,SKT2a_*
X191007600Y-72136000D03*
G04 #@! TD*
D34*
G04 #@! TO.P,R2,1*
G04 #@! TO.N,Net-(Q1-Pad3)*
X185521600Y-128168400D03*
D35*
G04 #@! TO.P,R2,2*
G04 #@! TO.N,Net-(K3-Pad5)*
X213461600Y-128168400D03*
G04 #@! TD*
G04 #@! TO.P,R3,2*
G04 #@! TO.N,Net-(K3-Pad5)*
X213461600Y-177444400D03*
D34*
G04 #@! TO.P,R3,1*
G04 #@! TO.N,Net-(Q2-Pad3)*
X185521600Y-177444400D03*
G04 #@! TD*
G04 #@! TO.P,R4,1*
G04 #@! TO.N,Net-(Q3-Pad3)*
X185521600Y-204368400D03*
D35*
G04 #@! TO.P,R4,2*
G04 #@! TO.N,Net-(K3-Pad5)*
X213461600Y-204368400D03*
G04 #@! TD*
G04 #@! TO.P,R5,2*
G04 #@! TO.N,Net-(K3-Pad5)*
X213461600Y-153568400D03*
D34*
G04 #@! TO.P,R5,1*
G04 #@! TO.N,Net-(Q4-Pad3)*
X185521600Y-153568400D03*
G04 #@! TD*
D36*
G04 #@! TO.P,R6,2*
G04 #@! TO.N,Net-(K3-Pad5)*
X169519600Y-219608400D03*
D22*
G04 #@! TO.P,R6,1*
G04 #@! TO.N,Net-(C4-Pad1)*
X166979600Y-219608400D03*
G04 #@! TD*
G04 #@! TO.P,R7,1*
G04 #@! TO.N,Net-(C5-Pad2)*
X127761600Y-115011200D03*
D36*
G04 #@! TO.P,R7,2*
G04 #@! TO.N,Net-(K3-Pad4)*
X127761600Y-112471200D03*
G04 #@! TD*
D22*
G04 #@! TO.P,R8,1*
G04 #@! TO.N,Net-(C6-Pad1)*
X182155600Y-52920900D03*
D36*
G04 #@! TO.P,R8,2*
G04 #@! TO.N,Net-(C3-Pad1)*
X179615600Y-52920900D03*
G04 #@! TD*
D37*
G04 #@! TO.P,U1,1*
G04 #@! TO.N,Net-(C4-Pad1)*
X91160600Y-191858400D03*
D38*
G04 #@! TO.P,U1,2*
G04 #@! TO.N,0v*
X91160600Y-194398400D03*
G04 #@! TO.P,U1,3*
G04 #@! TO.N,Net-(F4-Pad2)*
X91160600Y-196938400D03*
G04 #@! TD*
G04 #@! TO.P,U2,3*
G04 #@! TO.N,Net-(F6-Pad2)*
X91224100Y-151092400D03*
G04 #@! TO.P,U2,2*
G04 #@! TO.N,Net-(C5-Pad2)*
X91224100Y-148552400D03*
D37*
G04 #@! TO.P,U2,1*
G04 #@! TO.N,0v*
X91224100Y-146012400D03*
G04 #@! TD*
G04 #@! TO.P,U3,1*
G04 #@! TO.N,Net-(C6-Pad1)*
X195300600Y-45681900D03*
D38*
G04 #@! TO.P,U3,2*
G04 #@! TO.N,SKT2W*
X195300600Y-48221900D03*
G04 #@! TO.P,U3,3*
G04 #@! TO.N,Net-(F8-Pad2)*
X195300600Y-50761900D03*
G04 #@! TD*
D39*
G04 #@! TO.P,C10,1*
G04 #@! TO.N,Net-(C10-Pad1)*
X248767600Y-85750400D03*
D34*
G04 #@! TO.P,C10,2*
G04 #@! TO.N,Net-(C10-Pad2)*
X248767600Y-90750400D03*
G04 #@! TD*
D40*
G04 #@! TO.P,J1,1*
G04 #@! TO.N,0v*
X131317600Y-265226400D03*
D41*
G04 #@! TO.P,J1,2*
X131317600Y-257726400D03*
G04 #@! TO.P,J1,3*
X131317600Y-250226400D03*
G04 #@! TO.P,J1,4*
X131317600Y-242726400D03*
G04 #@! TO.P,J1,5*
X131317600Y-235226400D03*
G04 #@! TD*
D40*
G04 #@! TO.P,J2,1*
G04 #@! TO.N,N/C*
X34455100Y-82384900D03*
D41*
G04 #@! TO.P,J2,2*
G04 #@! TO.N,N*
X34455100Y-74884900D03*
G04 #@! TO.P,J2,3*
G04 #@! TO.N,L*
X34455100Y-67384900D03*
G04 #@! TD*
G04 #@! TO.P,J3,6*
G04 #@! TO.N,0v*
X260832600Y-134674400D03*
G04 #@! TO.P,J3,5*
X260832600Y-142174400D03*
G04 #@! TO.P,J3,4*
G04 #@! TO.N,SKT2L*
X260832600Y-149674400D03*
G04 #@! TO.P,J3,3*
X260832600Y-157174400D03*
G04 #@! TO.P,J3,2*
G04 #@! TO.N,SKT2W*
X260832600Y-164674400D03*
D40*
G04 #@! TO.P,J3,1*
G04 #@! TO.N,SKT2V*
X260832600Y-172174400D03*
G04 #@! TD*
G04 #@! TO.P,J4,1*
G04 #@! TO.N,SKT2W*
X260832600Y-78701900D03*
D41*
G04 #@! TO.P,J4,2*
G04 #@! TO.N,SKT2Y*
X260832600Y-71201900D03*
G04 #@! TO.P,J4,3*
G04 #@! TO.N,SKT2X*
X260832600Y-63701900D03*
G04 #@! TO.P,J4,4*
G04 #@! TO.N,SKT2a_*
X260832600Y-56201900D03*
G04 #@! TO.P,J4,5*
G04 #@! TO.N,SKT2U*
X260832600Y-48701900D03*
G04 #@! TO.P,J4,6*
G04 #@! TO.N,SKT2T*
X260832600Y-41201900D03*
G04 #@! TD*
D40*
G04 #@! TO.P,J5,1*
G04 #@! TO.N,SKT2G*
X260832600Y-121882400D03*
D41*
G04 #@! TO.P,J5,2*
X260832600Y-114382400D03*
G04 #@! TO.P,J5,3*
X260832600Y-106882400D03*
G04 #@! TO.P,J5,4*
X260832600Y-99382400D03*
G04 #@! TD*
D33*
G04 #@! TO.P,R9,1*
G04 #@! TO.N,Net-(K1-Pad8)*
X239013600Y-76860400D03*
D32*
G04 #@! TO.P,R9,2*
G04 #@! TO.N,SKT2G*
X239013600Y-84480400D03*
G04 #@! TD*
G04 #@! TO.P,R10,2*
G04 #@! TO.N,Net-(C10-Pad2)*
X239013600Y-99364800D03*
D33*
G04 #@! TO.P,R10,1*
G04 #@! TO.N,Net-(K2-Pad1)*
X239013600Y-91744800D03*
G04 #@! TD*
D40*
G04 #@! TO.P,F1,1*
G04 #@! TO.N,Net-(D1-Pad3)*
X34899600Y-168427400D03*
D41*
G04 #@! TO.P,F1,2*
G04 #@! TO.N,Net-(F1-Pad2)*
X34899600Y-175927400D03*
G04 #@! TD*
D40*
G04 #@! TO.P,F2,1*
G04 #@! TO.N,Net-(F2-Pad1)*
X34899600Y-199860400D03*
D41*
G04 #@! TO.P,F2,2*
G04 #@! TO.N,Net-(D1-Pad4)*
X34899600Y-207360400D03*
G04 #@! TD*
G04 #@! TO.P,F3,2*
G04 #@! TO.N,Net-(F3-Pad2)*
X35090100Y-131540400D03*
D40*
G04 #@! TO.P,F3,1*
G04 #@! TO.N,Net-(D3-Pad3)*
X35090100Y-124040400D03*
G04 #@! TD*
G04 #@! TO.P,F4,1*
G04 #@! TO.N,Net-(F4-Pad1)*
X260705600Y-263614400D03*
D41*
G04 #@! TO.P,F4,2*
G04 #@! TO.N,Net-(F4-Pad2)*
X260705600Y-256114400D03*
G04 #@! TD*
D19*
G04 #@! TO.P,F5,2*
G04 #@! TO.N,Net-(F4-Pad1)*
X236289600Y-118211400D03*
D20*
G04 #@! TO.P,F5,1*
G04 #@! TO.N,SKT2G*
X243789600Y-118211400D03*
G04 #@! TD*
D41*
G04 #@! TO.P,F6,2*
G04 #@! TO.N,Net-(F6-Pad2)*
X196817600Y-287490400D03*
D40*
G04 #@! TO.P,F6,1*
G04 #@! TO.N,Net-(F6-Pad1)*
X204317600Y-287490400D03*
G04 #@! TD*
G04 #@! TO.P,F7,1*
G04 #@! TO.N,SKT2L*
X234416600Y-287680400D03*
D41*
G04 #@! TO.P,F7,2*
G04 #@! TO.N,Net-(F6-Pad1)*
X226916600Y-287680400D03*
G04 #@! TD*
G04 #@! TO.P,F8,2*
G04 #@! TO.N,Net-(F8-Pad2)*
X228948600Y-36029900D03*
D40*
G04 #@! TO.P,F8,1*
G04 #@! TO.N,Net-(C10-Pad1)*
X236448600Y-36029900D03*
G04 #@! TD*
D18*
G04 #@! TO.P,HS6,1*
G04 #@! TO.N,N/C*
X146087600Y-172999400D03*
X171487600Y-172999400D03*
G04 #@! TD*
D42*
G04 #@! TO.N,SKT2V*
X153744800Y-103047100D03*
G04 #@! TO.N,Net-(F4-Pad1)*
X222407200Y-198123100D03*
D43*
G04 #@! TO.N,SKT2U*
X204199700Y-88780200D03*
D44*
G04 #@! TO.N,Net-(K3-Pad5)*
X164735400Y-111633000D03*
X150037800Y-91262200D03*
G04 #@! TD*
D45*
G04 #@! TO.N,Net-(C1-Pad1)*
X136813600Y-94422400D02*
X133408600Y-94422400D01*
X133408600Y-94422400D02*
X133408600Y-95910200D01*
X133408600Y-95910200D02*
X132390700Y-96928100D01*
X132390700Y-96928100D02*
X129808500Y-96928100D01*
X129808500Y-96928100D02*
X85170200Y-141566400D01*
X85170200Y-141566400D02*
X72618600Y-141566400D01*
G04 #@! TO.N,Net-(C2-Pad2)*
X226987600Y-256154400D02*
X226987600Y-243411400D01*
X226987600Y-243411400D02*
X212047400Y-228471200D01*
X212047400Y-228471200D02*
X127521100Y-228471200D01*
X127521100Y-228471200D02*
X99169900Y-200120000D01*
X99169900Y-200120000D02*
X91575400Y-200120000D01*
X91575400Y-200120000D02*
X72618600Y-181163200D01*
X72618600Y-181163200D02*
X72618600Y-156806400D01*
G04 #@! TO.N,Net-(C3-Pad1)*
X154660600Y-52857400D02*
X94133600Y-52857400D01*
X94133600Y-52857400D02*
X76163100Y-34886900D01*
X73063100Y-34886900D02*
X76163100Y-34886900D01*
G04 #@! TO.N,SKT2W*
X260832600Y-78701900D02*
X260832600Y-75951900D01*
D46*
X243865000Y-69838300D02*
X243814600Y-69787900D01*
D45*
X260832600Y-75951900D02*
X258631200Y-73750500D01*
X258631200Y-73750500D02*
X258631200Y-70181100D01*
X258631200Y-70181100D02*
X263039100Y-65773200D01*
X263039100Y-65773200D02*
X263039100Y-62775900D01*
X263039100Y-62775900D02*
X261725600Y-61462400D01*
X261725600Y-61462400D02*
X258493100Y-61462400D01*
X258493100Y-61462400D02*
X250117200Y-69838300D01*
X250117200Y-69838300D02*
X243865000Y-69838300D01*
X154660600Y-62857400D02*
X85793600Y-62857400D01*
X85793600Y-62857400D02*
X73063100Y-50126900D01*
D46*
X243370600Y-70231900D02*
X243814600Y-69787900D01*
D45*
X232638600Y-70390900D02*
X243211600Y-70390900D01*
X243211600Y-70390900D02*
X243370600Y-70231900D01*
G04 #@! TO.N,Net-(C4-Pad1)*
X140129500Y-187984300D02*
X150513600Y-177600200D01*
X150513600Y-177600200D02*
X150513600Y-177444400D01*
X123545600Y-191668400D02*
X136445400Y-191668400D01*
X136445400Y-191668400D02*
X140129500Y-187984300D01*
X140129500Y-187984300D02*
X153263600Y-201118400D01*
X153263600Y-204368400D02*
X153263600Y-201118400D01*
X91160600Y-191858400D02*
X93660600Y-191858400D01*
X93660600Y-191858400D02*
X93850600Y-191668400D01*
X93850600Y-191668400D02*
X123545600Y-191668400D01*
X153263600Y-177444400D02*
X150513600Y-177444400D01*
G04 #@! TO.N,Net-(C5-Pad2)*
X91224100Y-148552400D02*
X122617900Y-148552400D01*
X122617900Y-148552400D02*
X123065900Y-149000400D01*
X123065900Y-149000400D02*
X123065900Y-149412700D01*
X123065900Y-149412700D02*
X123101600Y-149448400D01*
G04 #@! TO.N,Net-(C10-Pad1)*
X188061600Y-111213900D02*
X190661600Y-111213900D01*
X248767600Y-85750400D02*
X246067600Y-85750400D01*
X246067600Y-85750400D02*
X246067600Y-87100400D01*
X246067600Y-87100400D02*
X224554100Y-108613900D01*
X224554100Y-108613900D02*
X193261600Y-108613900D01*
X193261600Y-108613900D02*
X190661600Y-111213900D01*
G04 #@! TO.N,Net-(D1-Pad4)*
X34899600Y-207360400D02*
X32699200Y-205160000D01*
X32699200Y-205160000D02*
X32699200Y-166759100D01*
X32699200Y-166759100D02*
X52811900Y-146646400D01*
X52811900Y-146646400D02*
X72618600Y-146646400D01*
G04 #@! TO.N,Net-(D1-Pad3)*
X34899600Y-168427400D02*
X37649600Y-168427400D01*
X37649600Y-168427400D02*
X54350600Y-151726400D01*
X54350600Y-151726400D02*
X72618600Y-151726400D01*
G04 #@! TO.N,Net-(D3-Pad4)*
X106957100Y-77374400D02*
X96673700Y-77374400D01*
X96673700Y-77374400D02*
X70482600Y-51183300D01*
X70482600Y-51183300D02*
X70482600Y-42547400D01*
X70482600Y-42547400D02*
X73063100Y-39966900D01*
G04 #@! TO.N,SKT2V*
X180805600Y-103754800D02*
X180805600Y-107539900D01*
X180805600Y-107539900D02*
X188297900Y-115032200D01*
X188297900Y-115032200D02*
X203432600Y-115032200D01*
X203432600Y-115032200D02*
X258082600Y-169682200D01*
X258082600Y-169682200D02*
X258082600Y-172174400D01*
X180805600Y-103754800D02*
X180805600Y-92704000D01*
X180805600Y-92704000D02*
X182540200Y-90969400D01*
X182540200Y-90969400D02*
X183807600Y-90969400D01*
X158140600Y-100772400D02*
X161123000Y-103754800D01*
X161123000Y-103754800D02*
X180805600Y-103754800D01*
X183807600Y-88072400D02*
X183807600Y-90969400D01*
X260832600Y-172174400D02*
X258082600Y-172174400D01*
X133133600Y-103787200D02*
X133133600Y-103692400D01*
X133133600Y-103692400D02*
X130213600Y-100772400D01*
X133133600Y-110959900D02*
X133133600Y-103787200D01*
X133133600Y-103787200D02*
X153004700Y-103787200D01*
X153004700Y-103787200D02*
X153744800Y-103047100D01*
G04 #@! TO.N,SKT2X*
X260832600Y-63701900D02*
X260832600Y-65077200D01*
X260832600Y-65077200D02*
X225086600Y-100823200D01*
G04 #@! TO.N,Net-(F3-Pad2)*
X106957100Y-103374400D02*
X106957100Y-106271400D01*
X35090100Y-131540400D02*
X81688100Y-131540400D01*
X81688100Y-131540400D02*
X106957100Y-106271400D01*
G04 #@! TO.N,Net-(F4-Pad1)*
X260705600Y-263614400D02*
X260705600Y-260864400D01*
X222407200Y-198123100D02*
X262946400Y-238662300D01*
X262946400Y-238662300D02*
X262946400Y-258623600D01*
X262946400Y-258623600D02*
X260705600Y-260864400D01*
G04 #@! TO.N,Net-(F4-Pad2)*
X260705600Y-256114400D02*
X227117500Y-222526300D01*
X227117500Y-222526300D02*
X143211500Y-222526300D01*
X143211500Y-222526300D02*
X117623600Y-196938400D01*
X117623600Y-196938400D02*
X91160600Y-196938400D01*
G04 #@! TO.N,Net-(F6-Pad1)*
X204317600Y-287490400D02*
X226726600Y-287490400D01*
X226726600Y-287490400D02*
X226916600Y-287680400D01*
G04 #@! TO.N,Net-(F8-Pad2)*
X228948600Y-36029900D02*
X214216600Y-50761900D01*
X214216600Y-50761900D02*
X195300600Y-50761900D01*
G04 #@! TO.N,N*
X34455100Y-74884900D02*
X61957100Y-102386900D01*
X61957100Y-102386900D02*
X61957100Y-113374400D01*
G04 #@! TO.N,L*
X61957100Y-67374400D02*
X58552100Y-67374400D01*
X34455100Y-67384900D02*
X58541600Y-67384900D01*
X58541600Y-67384900D02*
X58552100Y-67374400D01*
G04 #@! TO.N,SKT2Y*
X190407600Y-94422400D02*
X190407600Y-91525400D01*
X260832600Y-71201900D02*
X264745800Y-67288700D01*
X264745800Y-67288700D02*
X264745800Y-62060700D01*
X264745800Y-62060700D02*
X262412900Y-59727800D01*
X262412900Y-59727800D02*
X231201000Y-59727800D01*
X231201000Y-59727800D02*
X199403400Y-91525400D01*
X199403400Y-91525400D02*
X190407600Y-91525400D01*
G04 #@! TO.N,SKT2a_*
X260832600Y-56201900D02*
X206941700Y-56201900D01*
X206941700Y-56201900D02*
X191007600Y-72136000D01*
D47*
G04 #@! TO.N,SKT2U*
X215331600Y-88123200D02*
X215331600Y-89040900D01*
X215331600Y-89040900D02*
X214152000Y-90220500D01*
X214152000Y-90220500D02*
X205640000Y-90220500D01*
X205640000Y-90220500D02*
X204199700Y-88780200D01*
X218486600Y-88123200D02*
X215331600Y-88123200D01*
X245414600Y-46826800D02*
X240029100Y-52212300D01*
X240029100Y-52212300D02*
X208851600Y-52212300D01*
X208851600Y-52212300D02*
X189556400Y-71507500D01*
X189556400Y-71507500D02*
X189556400Y-73874200D01*
X189556400Y-73874200D02*
X197007600Y-81325400D01*
X245414600Y-46826800D02*
X245414600Y-45974000D01*
X260832600Y-48701900D02*
X247289700Y-48701900D01*
X247289700Y-48701900D02*
X245414600Y-46826800D01*
X197007600Y-83972400D02*
X197007600Y-81325400D01*
G04 #@! TO.N,SKT2T*
X247954600Y-45974000D02*
X249729600Y-45974000D01*
X260832600Y-41201900D02*
X254501700Y-41201900D01*
X254501700Y-41201900D02*
X249729600Y-45974000D01*
G04 #@! TO.N,Net-(K1-Pad8)*
X215331600Y-94473200D02*
X215331600Y-95414500D01*
X215331600Y-95414500D02*
X214121600Y-96624500D01*
X214121600Y-96624500D02*
X202364700Y-96624500D01*
X202364700Y-96624500D02*
X200162600Y-94422400D01*
X218486600Y-94473200D02*
X218486600Y-91826200D01*
X239013600Y-76860400D02*
X239013600Y-78559300D01*
X239013600Y-78559300D02*
X225746700Y-91826200D01*
X225746700Y-91826200D02*
X218486600Y-91826200D01*
X218486600Y-94473200D02*
X215331600Y-94473200D01*
X197007600Y-94422400D02*
X200162600Y-94422400D01*
D45*
G04 #@! TO.N,Net-(K3-Pad2)*
X136813600Y-83972400D02*
X136813600Y-81075400D01*
X183387600Y-72136000D02*
X145753000Y-72136000D01*
X145753000Y-72136000D02*
X136813600Y-81075400D01*
D48*
G04 #@! TO.N,Net-(K3-Pad5)*
X213461600Y-177444400D02*
X213461600Y-180144400D01*
X212111600Y-204368400D02*
X212111600Y-181494400D01*
X212111600Y-181494400D02*
X213461600Y-180144400D01*
D45*
X212111600Y-204368400D02*
X210761600Y-204368400D01*
X213461600Y-204368400D02*
X212111600Y-204368400D01*
X169519600Y-219608400D02*
X195521600Y-219608400D01*
X195521600Y-219608400D02*
X210761600Y-204368400D01*
D48*
X213461600Y-153568400D02*
X213461600Y-128168400D01*
X213461600Y-177444400D02*
X213461600Y-153568400D01*
X210761600Y-128168400D02*
X213461600Y-128168400D01*
X200525400Y-117932200D02*
X210761600Y-128168400D01*
X171034600Y-117932200D02*
X200525400Y-117932200D01*
X164735400Y-111633000D02*
X171034600Y-117932200D01*
X149961600Y-91363800D02*
X150164800Y-91160600D01*
D45*
X148397034Y-91160600D02*
X150164800Y-91160600D01*
D48*
X137004800Y-91160600D02*
X148397034Y-91160600D01*
D45*
X136813600Y-90969400D02*
X137004800Y-91160600D01*
D48*
X136813600Y-88072400D02*
X136813600Y-90969400D01*
D45*
G04 #@! TO.N,Net-(Q1-Pad3)*
X185521600Y-128168400D02*
X164213600Y-128168400D01*
G04 #@! TO.N,Net-(Q2-Pad3)*
X185521600Y-177444400D02*
X164213600Y-177444400D01*
G04 #@! TO.N,Net-(Q3-Pad3)*
X185521600Y-204368400D02*
X164213600Y-204368400D01*
G04 #@! TO.N,Net-(Q4-Pad3)*
X185521600Y-153568400D02*
X164213600Y-153568400D01*
G04 #@! TO.N,Net-(C10-Pad2)*
X239013600Y-99364800D02*
X241213600Y-99364800D01*
X248767600Y-90750400D02*
X241213600Y-98304400D01*
X241213600Y-98304400D02*
X241213600Y-99364800D01*
G04 #@! TO.N,Net-(F1-Pad2)*
X34899600Y-175927400D02*
X82984600Y-224012400D01*
X82984600Y-224012400D02*
X102804100Y-224012400D01*
G04 #@! TO.N,Net-(K2-Pad1)*
X183807600Y-83972400D02*
X187212600Y-83972400D01*
X239013600Y-91744800D02*
X226918900Y-103839500D01*
X226918900Y-103839500D02*
X195111100Y-103839500D01*
X195111100Y-103839500D02*
X187212600Y-95941000D01*
X187212600Y-95941000D02*
X187212600Y-83972400D01*
G04 #@! TO.N,0v*
X91224100Y-146012400D02*
X93724100Y-146012400D01*
X93724100Y-146012400D02*
X93788100Y-145948400D01*
X93788100Y-145948400D02*
X123101600Y-145948400D01*
D46*
X244258600Y-130048400D02*
X243814600Y-129604400D01*
D45*
X260832600Y-134674400D02*
X248884600Y-134674400D01*
X248884600Y-134674400D02*
X244258600Y-130048400D01*
X226987600Y-266154400D02*
X226987600Y-262654400D01*
X213305500Y-248972300D02*
X226987600Y-262654400D01*
X213305500Y-234114500D02*
X213305500Y-248972300D01*
X213305500Y-248972300D02*
X186794700Y-248972300D01*
X186794700Y-248972300D02*
X169646600Y-266120400D01*
D46*
X213305500Y-234114500D02*
X213651600Y-233768400D01*
D45*
X131317600Y-265226400D02*
X168752600Y-265226400D01*
X168752600Y-265226400D02*
X169646600Y-266120400D01*
G04 #@! TO.N,Net-(F2-Pad1)*
X102804100Y-281012400D02*
X102804100Y-278115400D01*
X34899600Y-199860400D02*
X34899600Y-202610400D01*
X34899600Y-202610400D02*
X95151500Y-262862300D01*
X95151500Y-262862300D02*
X95151500Y-270462800D01*
X95151500Y-270462800D02*
X102804100Y-278115400D01*
G04 #@! TD*
M02*
