M48
;DRILL file {KiCad (5.0.0)} date 04/22/19 22:13:19
;FORMAT={-:-/ absolute / inch / decimal}
FMAT,2
INCH,TZ
T1C0.0197
T2C0.0236
T3C0.0276
T4C0.0295
T5C0.0315
T6C0.0394
T7C0.0433
T8C0.0472
T9C0.0512
T10C0.0591
T11C0.0630
T12C0.0730
T13C0.0787
T14C0.0984
T15C0.1024
T16C0.1220
%
G90
G05
M72
T2
X8.965Y-4.3975
X8.965Y-4.4565
X7.7775Y-8.5575
X7.8365Y-8.5575
X8.965Y-2.0425
X8.965Y-2.1016
T3
X8.765Y-2.6325
X8.765Y-2.9325
X6.586Y-2.194
X6.886Y-2.194
X8.765Y-3.1325
X8.765Y-3.4325
T4
X9.1725Y-1.085
X9.1725Y-1.135
X9.1725Y-1.185
T5
X1.8053Y-2.0065
X1.8053Y-2.5971
X1.8053Y-3.227
X1.8053Y-3.8176
X3.5769Y-2.0065
X3.5769Y-2.4002
X3.5769Y-3.4239
X3.5769Y-3.8176
X8.525Y-1.9875
X8.525Y-2.1253
X4.23Y-6.9
X4.23Y-7.0378
X5.94Y-8.
X6.04Y-8.
X4.2125Y-5.1
X4.2125Y-5.2378
X6.4375Y-1.4375
X6.5375Y-1.4375
X4.396Y-3.782
X4.396Y-3.882
T6
X9.0591Y-1.2068
T7
X2.9575Y-5.1025
X2.9575Y-5.2025
X2.9575Y-5.3025
X6.77Y-3.7325
X7.07Y-3.7325
X7.845Y-3.74
X8.145Y-3.74
X2.955Y-6.9075
X2.955Y-7.0075
X2.955Y-7.1075
X4.6075Y-3.7225
X4.9075Y-3.7225
X7.055Y-1.1525
X7.055Y-1.2525
X7.055Y-1.3525
T8
X6.67Y-5.4
X7.77Y-5.4
X6.67Y-4.4
X7.77Y-4.4
X6.67Y-6.34
X7.77Y-6.34
X8.965Y-3.6575
X8.965Y-3.8544
X6.67Y-7.4
X7.77Y-7.4
T9
X9.625Y-6.8289
X9.625Y-7.1242
X9.625Y-7.4194
X9.625Y-7.7147
X9.625Y-8.01
X9.63Y-9.4372
X9.63Y-9.7325
X8.2997Y-10.68
X8.595Y-10.68
X0.7475Y-4.2375
X0.7475Y-4.5328
X0.74Y-7.2225
X0.74Y-7.5178
X9.635Y-3.2667
X9.635Y-3.562
X9.635Y-3.8572
X9.635Y-4.1525
X7.1147Y-10.6725
X7.41Y-10.6725
X0.74Y-5.985
X0.74Y-6.2803
X8.3797Y-0.7725
X8.675Y-0.7725
X9.635Y-0.9761
X9.635Y-1.2714
X9.635Y-1.5667
X9.635Y-1.8619
X9.635Y-2.1572
X9.635Y-2.4525
X9.63Y-8.5647
X9.63Y-8.86
X0.7225Y-2.0069
X0.7225Y-2.3022
X0.7225Y-2.5975
X9.635Y-4.6561
X9.635Y-4.9514
X9.635Y-5.2467
X9.635Y-5.542
X9.635Y-5.8372
X9.635Y-6.1325
T10
X5.4Y-6.34
X5.6156Y-6.34
X5.8311Y-6.34
X5.4Y-7.4
X5.6156Y-7.4
X5.8311Y-7.4
X5.4Y-4.4
X5.6156Y-4.4
X5.8311Y-4.4
X5.4Y-5.4
X5.6156Y-5.4
X5.8311Y-5.4
T11
X2.2425Y-0.7275
X2.2425Y-0.9275
X2.2425Y-1.1275
X2.2425Y-1.3275
X2.225Y-4.9275
X2.225Y-5.1275
X2.225Y-5.3275
X2.225Y-5.5275
T12
X5.592Y-2.66
X5.592Y-2.8214
X5.592Y-3.0714
X5.592Y-3.3214
X5.8519Y-2.66
X5.8519Y-2.8214
X5.8519Y-3.0714
X6.1117Y-2.66
X6.1117Y-2.8214
X6.1117Y-3.0714
X6.1117Y-3.3214
X4.4925Y-2.66
X4.4925Y-2.8214
X4.4925Y-3.0714
X4.4925Y-3.3214
X4.7524Y-2.66
X4.7524Y-2.8214
X4.7524Y-3.0714
X5.0122Y-2.66
X5.0122Y-2.8214
X5.0122Y-3.0714
X5.0122Y-3.3214
X7.708Y-2.662
X7.708Y-2.8234
X7.708Y-3.0734
X7.708Y-3.3234
X7.9678Y-2.662
X7.9678Y-2.8234
X7.9678Y-3.0734
X8.2277Y-2.662
X8.2277Y-2.8234
X8.2277Y-3.0734
X8.2277Y-3.3234
X6.6025Y-2.66
X6.6025Y-2.8214
X6.6025Y-3.0714
X6.6025Y-3.3214
X6.8624Y-2.66
X6.8624Y-2.8214
X6.8624Y-3.0714
X7.1222Y-2.66
X7.1222Y-2.8214
X7.1222Y-3.0714
X7.1222Y-3.3214
T13
X8.3025Y-9.4388
X8.3025Y-9.8325
X5.455Y-1.435
X5.455Y-1.8287
X6.045Y-9.4375
X6.045Y-9.8312
T14
X7.1225Y-0.88
X7.1225Y-1.628
X3.0225Y-4.83
X3.0225Y-5.578
X3.02Y-6.6375
X3.02Y-7.3855
T15
X5.1125Y-5.2225
X6.1125Y-5.2225
X5.115Y-7.2225
X6.115Y-7.2225
X5.1175Y-6.165
X6.1175Y-6.165
X5.115Y-4.225
X6.115Y-4.225
T16
X0.8839Y-8.1143
X0.8839Y-10.4765
X3.8366Y-8.1143
X3.8366Y-10.4765
T1
X1.3071Y-8.1635G85X1.3071Y-8.1832
G05
X1.3071Y-8.7541G85X1.3071Y-8.7738
G05
X1.3071Y-9.8171G85X1.3071Y-9.8368
G05
X1.3071Y-10.4076G85X1.3071Y-10.4273
G05
X3.4134Y-8.1635G85X3.4134Y-8.1832
G05
X3.4134Y-8.7541G85X3.4134Y-8.7738
G05
X3.4134Y-9.8171G85X3.4134Y-9.8368
G05
X3.4134Y-10.4076G85X3.4134Y-10.4273
G05
T6
X1.8679Y-0.5382G85X1.9073Y-0.5382
G05
X1.8679Y-1.5225G85X1.9073Y-1.5225
G05
X1.8754Y-4.7332G85X1.9148Y-4.7332
G05
X1.8754Y-5.7175G85X1.9148Y-5.7175
G05
T0
M30
