M48
;DRILL file {KiCad (5.0.0)} date 08/30/19 23:03:04
;FORMAT={-:-/ absolute / inch / decimal}
FMAT,2
INCH,TZ
T1C0.0197
T2C0.0236
T3C0.0276
T4C0.0295
T5C0.0315
T6C0.0394
T7C0.0433
T8C0.0472
T9C0.0500
T10C0.0512
T11C0.0591
T12C0.0630
T13C0.0730
T14C0.0787
T15C0.0800
T16C0.0984
T17C0.1024
T18C0.1220
T19C0.1260
%
G90
G05
M72
T1
X8.0394Y-3.4953
T2
X8.4115Y-9.2035
X8.4705Y-9.2035
X9.599Y-5.0435
X9.599Y-5.1025
X9.599Y-2.6885
X9.599Y-2.7476
T3
X9.41Y-3.612
X9.41Y-3.912
X9.41Y-3.026
X9.41Y-3.326
X7.22Y-2.84
X7.52Y-2.84
T4
X9.662Y-1.81
X9.712Y-1.81
X9.762Y-1.81
T5
X5.03Y-4.428
X5.03Y-4.528
X4.8465Y-5.746
X4.8465Y-5.8838
X4.864Y-7.546
X4.864Y-7.6838
X6.574Y-8.646
X6.674Y-8.646
X9.159Y-2.6335
X9.159Y-2.7713
X7.0715Y-2.0835
X7.1715Y-2.0835
T6
X6.0529Y-4.057
X8.7562Y-7.8001
T7
X3.5915Y-5.7485
X3.5915Y-5.8485
X3.5915Y-5.9485
X3.589Y-7.5535
X3.589Y-7.6535
X3.589Y-7.7535
X7.689Y-1.7985
X7.689Y-1.8985
X7.689Y-1.9985
X5.2415Y-4.3685
X5.5415Y-4.3685
X8.479Y-4.386
X8.779Y-4.386
X7.404Y-4.3785
X7.704Y-4.3785
T8
X9.794Y-3.376
X9.794Y-3.5729
X7.304Y-5.046
X8.404Y-5.046
X7.304Y-6.046
X8.404Y-6.046
X7.304Y-8.046
X8.404Y-8.046
X7.304Y-6.986
X8.404Y-6.986
T10
X1.3815Y-4.8835
X1.3815Y-5.1788
X1.374Y-6.631
X1.374Y-6.9263
X10.264Y-10.0832
X10.264Y-10.3785
X8.9337Y-11.326
X9.229Y-11.326
X10.269Y-3.9127
X10.269Y-4.208
X10.269Y-4.5032
X10.269Y-4.7985
X7.7487Y-11.3185
X8.044Y-11.3185
X10.269Y-5.3021
X10.269Y-5.5974
X10.269Y-5.8927
X10.269Y-6.188
X10.269Y-6.4832
X10.269Y-6.7785
X9.0137Y-1.4185
X9.309Y-1.4185
X9.3027Y-4.654
X9.598Y-4.654
X10.269Y-1.6221
X10.269Y-1.9174
X10.269Y-2.2127
X10.269Y-2.5079
X10.269Y-2.8032
X10.269Y-3.0985
X1.3565Y-2.6529
X1.3565Y-2.9482
X1.3565Y-3.2435
X5.17Y-9.2609
X5.17Y-9.5562
X5.17Y-9.8514
X5.17Y-10.1467
X5.17Y-10.442
X1.374Y-7.8685
X1.374Y-8.1638
T11
X6.034Y-5.046
X6.2496Y-5.046
X6.4651Y-5.046
X6.034Y-6.986
X6.2496Y-6.986
X6.4651Y-6.986
X6.034Y-6.046
X6.2496Y-6.046
X6.4651Y-6.046
X6.034Y-8.046
X6.2496Y-8.046
X6.4651Y-8.046
T12
X2.859Y-5.5735
X2.859Y-5.7735
X2.859Y-5.9735
X2.859Y-6.1735
X2.8765Y-1.3735
X2.8765Y-1.5735
X2.8765Y-1.7735
X2.8765Y-1.9735
T13
X5.1265Y-3.306
X5.1265Y-3.4674
X5.1265Y-3.7174
X5.1265Y-3.9674
X5.3864Y-3.306
X5.3864Y-3.4674
X5.3864Y-3.7174
X5.6462Y-3.306
X5.6462Y-3.4674
X5.6462Y-3.7174
X5.6462Y-3.9674
X8.342Y-3.308
X8.342Y-3.4694
X8.342Y-3.7194
X8.342Y-3.9694
X8.6018Y-3.308
X8.6018Y-3.4694
X8.6018Y-3.7194
X8.8617Y-3.308
X8.8617Y-3.4694
X8.8617Y-3.7194
X8.8617Y-3.9694
X2.4393Y-2.6525
X2.4393Y-3.2431
X2.4393Y-3.873
X2.4393Y-4.4636
X4.2109Y-2.6525
X4.2109Y-3.0462
X4.2109Y-4.0699
X4.2109Y-4.4636
X7.2365Y-3.306
X7.2365Y-3.4674
X7.2365Y-3.7174
X7.2365Y-3.9674
X7.4964Y-3.306
X7.4964Y-3.4674
X7.4964Y-3.7174
X7.7562Y-3.306
X7.7562Y-3.4674
X7.7562Y-3.7174
X7.7562Y-3.9674
X6.226Y-3.306
X6.226Y-3.4674
X6.226Y-3.7174
X6.226Y-3.9674
X6.4859Y-3.306
X6.4859Y-3.4674
X6.4859Y-3.7174
X6.7457Y-3.306
X6.7457Y-3.4674
X6.7457Y-3.7174
X6.7457Y-3.9674
T14
X5.907Y-3.593
X6.4856Y-4.395
X8.9365Y-10.0848
X8.9365Y-10.4785
X6.679Y-10.0835
X6.679Y-10.4772
X6.089Y-2.081
X6.089Y-2.4747
T15
X1.9411Y-8.8194
X1.9411Y-9.4099
X1.9411Y-10.4729
X1.9411Y-11.0635
X4.0474Y-8.8194
X4.0474Y-9.2131
X4.0474Y-10.6698
X4.0474Y-11.0635
T16
X3.614Y-5.4735
X3.614Y-6.2215
X7.709Y-1.5235
X7.709Y-2.2715
X3.6115Y-7.276
X3.6115Y-8.024
T17
X5.749Y-7.8685
X6.749Y-7.8685
X5.749Y-4.871
X6.749Y-4.871
X5.7465Y-5.8685
X6.7465Y-5.8685
X5.7515Y-6.811
X6.7515Y-6.811
T18
X1.5179Y-8.7603
X1.5179Y-11.1225
X4.4706Y-8.7603
X4.4706Y-11.1225
T19
X1.559Y-1.331
X2.9565Y-4.901
X10.0665Y-11.156
X4.904Y-1.336
X1.4915Y-5.8985
X9.769Y-1.331
X9.194Y-7.096
T9
X2.5091Y-5.3871G85X2.5491Y-5.3871
G05
X2.5091Y-6.3556G85X2.5491Y-6.3556
G05
X2.5016Y-1.1921G85X2.5416Y-1.1921
G05
X2.5016Y-2.1606G85X2.5416Y-2.1606
G05
T0
M30
