G04 #@! TF.GenerationSoftware,KiCad,Pcbnew,(5.0.0)*
G04 #@! TF.CreationDate,2019-08-30T17:46:26+01:00*
G04 #@! TF.ProjectId,A-FB,412D46422E6B696361645F7063620000,rev?*
G04 #@! TF.SameCoordinates,Original*
G04 #@! TF.FileFunction,Legend,Top*
G04 #@! TF.FilePolarity,Positive*
%FSLAX46Y46*%
G04 Gerber Fmt 4.6, Leading zero omitted, Abs format (unit mm)*
G04 Created by KiCad (PCBNEW (5.0.0)) date 08/30/19 17:46:26*
%MOMM*%
%LPD*%
G01*
G04 APERTURE LIST*
%ADD10C,0.300000*%
%ADD11C,0.200000*%
%ADD12C,0.150000*%
%ADD13C,0.120000*%
G04 APERTURE END LIST*
D10*
X31357142Y-180892857D02*
X31571428Y-180964285D01*
X31642857Y-181035714D01*
X31714285Y-181178571D01*
X31714285Y-181392857D01*
X31642857Y-181535714D01*
X31571428Y-181607142D01*
X31428571Y-181678571D01*
X30857142Y-181678571D01*
X30857142Y-180178571D01*
X31357142Y-180178571D01*
X31500000Y-180250000D01*
X31571428Y-180321428D01*
X31642857Y-180464285D01*
X31642857Y-180607142D01*
X31571428Y-180750000D01*
X31500000Y-180821428D01*
X31357142Y-180892857D01*
X30857142Y-180892857D01*
X32571428Y-181678571D02*
X32428571Y-181607142D01*
X32357142Y-181535714D01*
X32285714Y-181392857D01*
X32285714Y-180964285D01*
X32357142Y-180821428D01*
X32428571Y-180750000D01*
X32571428Y-180678571D01*
X32785714Y-180678571D01*
X32928571Y-180750000D01*
X33000000Y-180821428D01*
X33071428Y-180964285D01*
X33071428Y-181392857D01*
X33000000Y-181535714D01*
X32928571Y-181607142D01*
X32785714Y-181678571D01*
X32571428Y-181678571D01*
X34357142Y-181678571D02*
X34357142Y-180892857D01*
X34285714Y-180750000D01*
X34142857Y-180678571D01*
X33857142Y-180678571D01*
X33714285Y-180750000D01*
X34357142Y-181607142D02*
X34214285Y-181678571D01*
X33857142Y-181678571D01*
X33714285Y-181607142D01*
X33642857Y-181464285D01*
X33642857Y-181321428D01*
X33714285Y-181178571D01*
X33857142Y-181107142D01*
X34214285Y-181107142D01*
X34357142Y-181035714D01*
X35071428Y-181678571D02*
X35071428Y-180678571D01*
X35071428Y-180964285D02*
X35142857Y-180821428D01*
X35214285Y-180750000D01*
X35357142Y-180678571D01*
X35500000Y-180678571D01*
X36642857Y-181678571D02*
X36642857Y-180178571D01*
X36642857Y-181607142D02*
X36500000Y-181678571D01*
X36214285Y-181678571D01*
X36071428Y-181607142D01*
X36000000Y-181535714D01*
X35928571Y-181392857D01*
X35928571Y-180964285D01*
X36000000Y-180821428D01*
X36071428Y-180750000D01*
X36214285Y-180678571D01*
X36500000Y-180678571D01*
X36642857Y-180750000D01*
X38500000Y-181678571D02*
X38500000Y-180178571D01*
X39071428Y-180178571D01*
X39214285Y-180250000D01*
X39285714Y-180321428D01*
X39357142Y-180464285D01*
X39357142Y-180678571D01*
X39285714Y-180821428D01*
X39214285Y-180892857D01*
X39071428Y-180964285D01*
X38500000Y-180964285D01*
X40214285Y-181678571D02*
X40071428Y-181607142D01*
X40000000Y-181535714D01*
X39928571Y-181392857D01*
X39928571Y-180964285D01*
X40000000Y-180821428D01*
X40071428Y-180750000D01*
X40214285Y-180678571D01*
X40428571Y-180678571D01*
X40571428Y-180750000D01*
X40642857Y-180821428D01*
X40714285Y-180964285D01*
X40714285Y-181392857D01*
X40642857Y-181535714D01*
X40571428Y-181607142D01*
X40428571Y-181678571D01*
X40214285Y-181678571D01*
X41285714Y-181607142D02*
X41428571Y-181678571D01*
X41714285Y-181678571D01*
X41857142Y-181607142D01*
X41928571Y-181464285D01*
X41928571Y-181392857D01*
X41857142Y-181250000D01*
X41714285Y-181178571D01*
X41500000Y-181178571D01*
X41357142Y-181107142D01*
X41285714Y-180964285D01*
X41285714Y-180892857D01*
X41357142Y-180750000D01*
X41500000Y-180678571D01*
X41714285Y-180678571D01*
X41857142Y-180750000D01*
X42571428Y-181678571D02*
X42571428Y-180678571D01*
X42571428Y-180178571D02*
X42500000Y-180250000D01*
X42571428Y-180321428D01*
X42642857Y-180250000D01*
X42571428Y-180178571D01*
X42571428Y-180321428D01*
X43071428Y-180678571D02*
X43642857Y-180678571D01*
X43285714Y-180178571D02*
X43285714Y-181464285D01*
X43357142Y-181607142D01*
X43500000Y-181678571D01*
X43642857Y-181678571D01*
X44142857Y-181678571D02*
X44142857Y-180678571D01*
X44142857Y-180178571D02*
X44071428Y-180250000D01*
X44142857Y-180321428D01*
X44214285Y-180250000D01*
X44142857Y-180178571D01*
X44142857Y-180321428D01*
X45071428Y-181678571D02*
X44928571Y-181607142D01*
X44857142Y-181535714D01*
X44785714Y-181392857D01*
X44785714Y-180964285D01*
X44857142Y-180821428D01*
X44928571Y-180750000D01*
X45071428Y-180678571D01*
X45285714Y-180678571D01*
X45428571Y-180750000D01*
X45500000Y-180821428D01*
X45571428Y-180964285D01*
X45571428Y-181392857D01*
X45500000Y-181535714D01*
X45428571Y-181607142D01*
X45285714Y-181678571D01*
X45071428Y-181678571D01*
X46214285Y-180678571D02*
X46214285Y-181678571D01*
X46214285Y-180821428D02*
X46285714Y-180750000D01*
X46428571Y-180678571D01*
X46642857Y-180678571D01*
X46785714Y-180750000D01*
X46857142Y-180892857D01*
X46857142Y-181678571D01*
X47500000Y-181607142D02*
X47642857Y-181678571D01*
X47928571Y-181678571D01*
X48071428Y-181607142D01*
X48142857Y-181464285D01*
X48142857Y-181392857D01*
X48071428Y-181250000D01*
X47928571Y-181178571D01*
X47714285Y-181178571D01*
X47571428Y-181107142D01*
X47500000Y-180964285D01*
X47500000Y-180892857D01*
X47571428Y-180750000D01*
X47714285Y-180678571D01*
X47928571Y-180678571D01*
X48071428Y-180750000D01*
X50142857Y-180821428D02*
X50000000Y-180750000D01*
X49928571Y-180678571D01*
X49857142Y-180535714D01*
X49857142Y-180464285D01*
X49928571Y-180321428D01*
X50000000Y-180250000D01*
X50142857Y-180178571D01*
X50428571Y-180178571D01*
X50571428Y-180250000D01*
X50642857Y-180321428D01*
X50714285Y-180464285D01*
X50714285Y-180535714D01*
X50642857Y-180678571D01*
X50571428Y-180750000D01*
X50428571Y-180821428D01*
X50142857Y-180821428D01*
X50000000Y-180892857D01*
X49928571Y-180964285D01*
X49857142Y-181107142D01*
X49857142Y-181392857D01*
X49928571Y-181535714D01*
X50000000Y-181607142D01*
X50142857Y-181678571D01*
X50428571Y-181678571D01*
X50571428Y-181607142D01*
X50642857Y-181535714D01*
X50714285Y-181392857D01*
X50714285Y-181107142D01*
X50642857Y-180964285D01*
X50571428Y-180892857D01*
X50428571Y-180821428D01*
X51428571Y-181607142D02*
X51428571Y-181678571D01*
X51357142Y-181821428D01*
X51285714Y-181892857D01*
X53285714Y-181678571D02*
X53571428Y-181678571D01*
X53714285Y-181607142D01*
X53785714Y-181535714D01*
X53928571Y-181321428D01*
X53999999Y-181035714D01*
X53999999Y-180464285D01*
X53928571Y-180321428D01*
X53857142Y-180250000D01*
X53714285Y-180178571D01*
X53428571Y-180178571D01*
X53285714Y-180250000D01*
X53214285Y-180321428D01*
X53142857Y-180464285D01*
X53142857Y-180821428D01*
X53214285Y-180964285D01*
X53285714Y-181035714D01*
X53428571Y-181107142D01*
X53714285Y-181107142D01*
X53857142Y-181035714D01*
X53928571Y-180964285D01*
X53999999Y-180821428D01*
X56428571Y-181678571D02*
X56428571Y-180892857D01*
X56357142Y-180750000D01*
X56214285Y-180678571D01*
X55928571Y-180678571D01*
X55785714Y-180750000D01*
X56428571Y-181607142D02*
X56285714Y-181678571D01*
X55928571Y-181678571D01*
X55785714Y-181607142D01*
X55714285Y-181464285D01*
X55714285Y-181321428D01*
X55785714Y-181178571D01*
X55928571Y-181107142D01*
X56285714Y-181107142D01*
X56428571Y-181035714D01*
X57142857Y-180678571D02*
X57142857Y-181678571D01*
X57142857Y-180821428D02*
X57214285Y-180750000D01*
X57357142Y-180678571D01*
X57571428Y-180678571D01*
X57714285Y-180750000D01*
X57785714Y-180892857D01*
X57785714Y-181678571D01*
X59142857Y-181678571D02*
X59142857Y-180178571D01*
X59142857Y-181607142D02*
X59000000Y-181678571D01*
X58714285Y-181678571D01*
X58571428Y-181607142D01*
X58500000Y-181535714D01*
X58428571Y-181392857D01*
X58428571Y-180964285D01*
X58500000Y-180821428D01*
X58571428Y-180750000D01*
X58714285Y-180678571D01*
X59000000Y-180678571D01*
X59142857Y-180750000D01*
X60857142Y-180178571D02*
X61785714Y-180178571D01*
X61285714Y-180750000D01*
X61500000Y-180750000D01*
X61642857Y-180821428D01*
X61714285Y-180892857D01*
X61785714Y-181035714D01*
X61785714Y-181392857D01*
X61714285Y-181535714D01*
X61642857Y-181607142D01*
X61500000Y-181678571D01*
X61071428Y-181678571D01*
X60928571Y-181607142D01*
X60857142Y-181535714D01*
X63071428Y-180678571D02*
X63071428Y-181678571D01*
X62714285Y-180107142D02*
X62357142Y-181178571D01*
X63285714Y-181178571D01*
X45054761Y-51949047D02*
X45054761Y-49409047D01*
X46022380Y-49409047D01*
X46264285Y-49530000D01*
X46385238Y-49650952D01*
X46506190Y-49892857D01*
X46506190Y-50255714D01*
X46385238Y-50497619D01*
X46264285Y-50618571D01*
X46022380Y-50739523D01*
X45054761Y-50739523D01*
X75474285Y-51949047D02*
X75474285Y-49409047D01*
X76925714Y-51949047D01*
X76925714Y-49409047D01*
X105833333Y-51949047D02*
X105833333Y-49409047D01*
X106680000Y-51223333D01*
X107526666Y-49409047D01*
X107526666Y-51949047D01*
X137946190Y-51949047D02*
X136736666Y-51949047D01*
X136736666Y-49409047D01*
X166974761Y-51949047D02*
X166974761Y-49409047D01*
X168426190Y-51949047D02*
X167337619Y-50497619D01*
X168426190Y-49409047D02*
X166974761Y-50860476D01*
X198482857Y-49409047D02*
X198482857Y-51223333D01*
X198361904Y-51586190D01*
X198120000Y-51828095D01*
X197757142Y-51949047D01*
X197515238Y-51949047D01*
X227874285Y-51949047D02*
X227874285Y-49409047D01*
X227874285Y-50618571D02*
X229325714Y-50618571D01*
X229325714Y-51949047D02*
X229325714Y-49409047D01*
X46385238Y-113030000D02*
X46143333Y-112909047D01*
X45780476Y-112909047D01*
X45417619Y-113030000D01*
X45175714Y-113271904D01*
X45054761Y-113513809D01*
X44933809Y-113997619D01*
X44933809Y-114360476D01*
X45054761Y-114844285D01*
X45175714Y-115086190D01*
X45417619Y-115328095D01*
X45780476Y-115449047D01*
X46022380Y-115449047D01*
X46385238Y-115328095D01*
X46506190Y-115207142D01*
X46506190Y-114360476D01*
X46022380Y-114360476D01*
X76562857Y-114118571D02*
X75716190Y-114118571D01*
X75716190Y-115449047D02*
X75716190Y-112909047D01*
X76925714Y-112909047D01*
X106135714Y-114118571D02*
X106982380Y-114118571D01*
X107345238Y-115449047D02*
X106135714Y-115449047D01*
X106135714Y-112909047D01*
X107345238Y-112909047D01*
X136494761Y-115449047D02*
X136494761Y-112909047D01*
X137099523Y-112909047D01*
X137462380Y-113030000D01*
X137704285Y-113271904D01*
X137825238Y-113513809D01*
X137946190Y-113997619D01*
X137946190Y-114360476D01*
X137825238Y-114844285D01*
X137704285Y-115086190D01*
X137462380Y-115328095D01*
X137099523Y-115449047D01*
X136494761Y-115449047D01*
X168426190Y-115207142D02*
X168305238Y-115328095D01*
X167942380Y-115449047D01*
X167700476Y-115449047D01*
X167337619Y-115328095D01*
X167095714Y-115086190D01*
X166974761Y-114844285D01*
X166853809Y-114360476D01*
X166853809Y-113997619D01*
X166974761Y-113513809D01*
X167095714Y-113271904D01*
X167337619Y-113030000D01*
X167700476Y-112909047D01*
X167942380Y-112909047D01*
X168305238Y-113030000D01*
X168426190Y-113150952D01*
X198301428Y-114118571D02*
X198664285Y-114239523D01*
X198785238Y-114360476D01*
X198906190Y-114602380D01*
X198906190Y-114965238D01*
X198785238Y-115207142D01*
X198664285Y-115328095D01*
X198422380Y-115449047D01*
X197454761Y-115449047D01*
X197454761Y-112909047D01*
X198301428Y-112909047D01*
X198543333Y-113030000D01*
X198664285Y-113150952D01*
X198785238Y-113392857D01*
X198785238Y-113634761D01*
X198664285Y-113876666D01*
X198543333Y-113997619D01*
X198301428Y-114118571D01*
X197454761Y-114118571D01*
X227995238Y-114723333D02*
X229204761Y-114723333D01*
X227753333Y-115449047D02*
X228600000Y-112909047D01*
X229446666Y-115449047D01*
X129510071Y-29356857D02*
X129010071Y-29356857D01*
X129010071Y-30142571D02*
X129010071Y-28642571D01*
X129724357Y-28642571D01*
X130295785Y-30142571D02*
X130295785Y-29142571D01*
X130295785Y-28642571D02*
X130224357Y-28714000D01*
X130295785Y-28785428D01*
X130367214Y-28714000D01*
X130295785Y-28642571D01*
X130295785Y-28785428D01*
X130795785Y-29142571D02*
X131367214Y-29142571D01*
X131010071Y-28642571D02*
X131010071Y-29928285D01*
X131081500Y-30071142D01*
X131224357Y-30142571D01*
X131367214Y-30142571D01*
X133867214Y-29999714D02*
X133795785Y-30071142D01*
X133581500Y-30142571D01*
X133438642Y-30142571D01*
X133224357Y-30071142D01*
X133081500Y-29928285D01*
X133010071Y-29785428D01*
X132938642Y-29499714D01*
X132938642Y-29285428D01*
X133010071Y-28999714D01*
X133081500Y-28856857D01*
X133224357Y-28714000D01*
X133438642Y-28642571D01*
X133581500Y-28642571D01*
X133795785Y-28714000D01*
X133867214Y-28785428D01*
X134724357Y-30142571D02*
X134581500Y-30071142D01*
X134510071Y-29999714D01*
X134438642Y-29856857D01*
X134438642Y-29428285D01*
X134510071Y-29285428D01*
X134581500Y-29214000D01*
X134724357Y-29142571D01*
X134938642Y-29142571D01*
X135081500Y-29214000D01*
X135152928Y-29285428D01*
X135224357Y-29428285D01*
X135224357Y-29856857D01*
X135152928Y-29999714D01*
X135081500Y-30071142D01*
X134938642Y-30142571D01*
X134724357Y-30142571D01*
X135867214Y-29142571D02*
X135867214Y-30142571D01*
X135867214Y-29285428D02*
X135938642Y-29214000D01*
X136081500Y-29142571D01*
X136295785Y-29142571D01*
X136438642Y-29214000D01*
X136510071Y-29356857D01*
X136510071Y-30142571D01*
X137224357Y-29142571D02*
X137224357Y-30142571D01*
X137224357Y-29285428D02*
X137295785Y-29214000D01*
X137438642Y-29142571D01*
X137652928Y-29142571D01*
X137795785Y-29214000D01*
X137867214Y-29356857D01*
X137867214Y-30142571D01*
X139152928Y-30071142D02*
X139010071Y-30142571D01*
X138724357Y-30142571D01*
X138581500Y-30071142D01*
X138510071Y-29928285D01*
X138510071Y-29356857D01*
X138581500Y-29214000D01*
X138724357Y-29142571D01*
X139010071Y-29142571D01*
X139152928Y-29214000D01*
X139224357Y-29356857D01*
X139224357Y-29499714D01*
X138510071Y-29642571D01*
X140510071Y-30071142D02*
X140367214Y-30142571D01*
X140081500Y-30142571D01*
X139938642Y-30071142D01*
X139867214Y-29999714D01*
X139795785Y-29856857D01*
X139795785Y-29428285D01*
X139867214Y-29285428D01*
X139938642Y-29214000D01*
X140081500Y-29142571D01*
X140367214Y-29142571D01*
X140510071Y-29214000D01*
X140938642Y-29142571D02*
X141510071Y-29142571D01*
X141152928Y-28642571D02*
X141152928Y-29928285D01*
X141224357Y-30071142D01*
X141367214Y-30142571D01*
X141510071Y-30142571D01*
X142224357Y-30142571D02*
X142081500Y-30071142D01*
X142010071Y-29999714D01*
X141938642Y-29856857D01*
X141938642Y-29428285D01*
X142010071Y-29285428D01*
X142081500Y-29214000D01*
X142224357Y-29142571D01*
X142438642Y-29142571D01*
X142581500Y-29214000D01*
X142652928Y-29285428D01*
X142724357Y-29428285D01*
X142724357Y-29856857D01*
X142652928Y-29999714D01*
X142581500Y-30071142D01*
X142438642Y-30142571D01*
X142224357Y-30142571D01*
X143367214Y-30142571D02*
X143367214Y-29142571D01*
X143367214Y-29428285D02*
X143438642Y-29285428D01*
X143510071Y-29214000D01*
X143652928Y-29142571D01*
X143795785Y-29142571D01*
X145224357Y-29142571D02*
X145795785Y-29142571D01*
X145438642Y-28642571D02*
X145438642Y-29928285D01*
X145510071Y-30071142D01*
X145652928Y-30142571D01*
X145795785Y-30142571D01*
X146510071Y-30142571D02*
X146367214Y-30071142D01*
X146295785Y-29999714D01*
X146224357Y-29856857D01*
X146224357Y-29428285D01*
X146295785Y-29285428D01*
X146367214Y-29214000D01*
X146510071Y-29142571D01*
X146724357Y-29142571D01*
X146867214Y-29214000D01*
X146938642Y-29285428D01*
X147010071Y-29428285D01*
X147010071Y-29856857D01*
X146938642Y-29999714D01*
X146867214Y-30071142D01*
X146724357Y-30142571D01*
X146510071Y-30142571D01*
X148795785Y-28642571D02*
X148795785Y-29856857D01*
X148867214Y-29999714D01*
X148938642Y-30071142D01*
X149081500Y-30142571D01*
X149367214Y-30142571D01*
X149510071Y-30071142D01*
X149581500Y-29999714D01*
X149652928Y-29856857D01*
X149652928Y-28642571D01*
X150367214Y-29142571D02*
X150367214Y-30142571D01*
X150367214Y-29285428D02*
X150438642Y-29214000D01*
X150581500Y-29142571D01*
X150795785Y-29142571D01*
X150938642Y-29214000D01*
X151010071Y-29356857D01*
X151010071Y-30142571D01*
X152367214Y-30142571D02*
X152367214Y-28642571D01*
X152367214Y-30071142D02*
X152224357Y-30142571D01*
X151938642Y-30142571D01*
X151795785Y-30071142D01*
X151724357Y-29999714D01*
X151652928Y-29856857D01*
X151652928Y-29428285D01*
X151724357Y-29285428D01*
X151795785Y-29214000D01*
X151938642Y-29142571D01*
X152224357Y-29142571D01*
X152367214Y-29214000D01*
X153652928Y-30071142D02*
X153510071Y-30142571D01*
X153224357Y-30142571D01*
X153081500Y-30071142D01*
X153010071Y-29928285D01*
X153010071Y-29356857D01*
X153081500Y-29214000D01*
X153224357Y-29142571D01*
X153510071Y-29142571D01*
X153652928Y-29214000D01*
X153724357Y-29356857D01*
X153724357Y-29499714D01*
X153010071Y-29642571D01*
X154367214Y-30142571D02*
X154367214Y-29142571D01*
X154367214Y-29428285D02*
X154438642Y-29285428D01*
X154510071Y-29214000D01*
X154652928Y-29142571D01*
X154795785Y-29142571D01*
X155224357Y-30071142D02*
X155367214Y-30142571D01*
X155652928Y-30142571D01*
X155795785Y-30071142D01*
X155867214Y-29928285D01*
X155867214Y-29856857D01*
X155795785Y-29714000D01*
X155652928Y-29642571D01*
X155438642Y-29642571D01*
X155295785Y-29571142D01*
X155224357Y-29428285D01*
X155224357Y-29356857D01*
X155295785Y-29214000D01*
X155438642Y-29142571D01*
X155652928Y-29142571D01*
X155795785Y-29214000D01*
X156510071Y-30142571D02*
X156510071Y-29142571D01*
X156510071Y-28642571D02*
X156438642Y-28714000D01*
X156510071Y-28785428D01*
X156581500Y-28714000D01*
X156510071Y-28642571D01*
X156510071Y-28785428D01*
X157867214Y-30142571D02*
X157867214Y-28642571D01*
X157867214Y-30071142D02*
X157724357Y-30142571D01*
X157438642Y-30142571D01*
X157295785Y-30071142D01*
X157224357Y-29999714D01*
X157152928Y-29856857D01*
X157152928Y-29428285D01*
X157224357Y-29285428D01*
X157295785Y-29214000D01*
X157438642Y-29142571D01*
X157724357Y-29142571D01*
X157867214Y-29214000D01*
X159152928Y-30071142D02*
X159010071Y-30142571D01*
X158724357Y-30142571D01*
X158581500Y-30071142D01*
X158510071Y-29928285D01*
X158510071Y-29356857D01*
X158581500Y-29214000D01*
X158724357Y-29142571D01*
X159010071Y-29142571D01*
X159152928Y-29214000D01*
X159224357Y-29356857D01*
X159224357Y-29499714D01*
X158510071Y-29642571D01*
D11*
X32004000Y-26098500D02*
X125984000Y-26098500D01*
X151599900Y-40640000D02*
X151599900Y-45720000D01*
X151599900Y-43180000D02*
X258749800Y-43180000D01*
X132549900Y-40640000D02*
X132549900Y-45720000D01*
X25400000Y-43180000D02*
X132549900Y-43180000D01*
D10*
X204778428Y-180551666D02*
X210826047Y-180551666D01*
X203568904Y-184180238D02*
X207802238Y-171480238D01*
X212035571Y-184180238D01*
X216268904Y-179342142D02*
X225945095Y-179342142D01*
X236226047Y-177527857D02*
X231992714Y-177527857D01*
X231992714Y-184180238D02*
X231992714Y-171480238D01*
X238040333Y-171480238D01*
X247111761Y-177527857D02*
X248926047Y-178132619D01*
X249530809Y-178737380D01*
X250135571Y-179946904D01*
X250135571Y-181761190D01*
X249530809Y-182970714D01*
X248926047Y-183575476D01*
X247716523Y-184180238D01*
X242878428Y-184180238D01*
X242878428Y-171480238D01*
X247111761Y-171480238D01*
X248321285Y-172085000D01*
X248926047Y-172689761D01*
X249530809Y-173899285D01*
X249530809Y-175108809D01*
X248926047Y-176318333D01*
X248321285Y-176923095D01*
X247111761Y-177527857D01*
X242878428Y-177527857D01*
D12*
G04 #@! TO.C,U8*
X245745000Y-106680000D02*
X223520000Y-106680000D01*
X245745000Y-55880000D02*
X245745000Y-106680000D01*
X223520000Y-55880000D02*
X245745000Y-55880000D01*
X223520000Y-106680000D02*
X223520000Y-55880000D01*
G04 #@! TO.C,U12*
X123825000Y-106680000D02*
X101600000Y-106680000D01*
X123825000Y-55880000D02*
X123825000Y-106680000D01*
X101600000Y-55880000D02*
X123825000Y-55880000D01*
X101600000Y-106680000D02*
X101600000Y-55880000D01*
G04 #@! TO.C,U11*
X154305000Y-106680000D02*
X132080000Y-106680000D01*
X154305000Y-55880000D02*
X154305000Y-106680000D01*
X132080000Y-55880000D02*
X154305000Y-55880000D01*
X132080000Y-106680000D02*
X132080000Y-55880000D01*
G04 #@! TO.C,U14*
X62865000Y-106680000D02*
X40640000Y-106680000D01*
X62865000Y-55880000D02*
X62865000Y-106680000D01*
X40640000Y-55880000D02*
X62865000Y-55880000D01*
X40640000Y-106680000D02*
X40640000Y-55880000D01*
G04 #@! TO.C,U13*
X93345000Y-106680000D02*
X71120000Y-106680000D01*
X93345000Y-55880000D02*
X93345000Y-106680000D01*
X71120000Y-55880000D02*
X93345000Y-55880000D01*
X71120000Y-106680000D02*
X71120000Y-55880000D01*
D13*
G04 #@! TO.C,R3*
X109865000Y-84144600D02*
X109865000Y-85984600D01*
X109865000Y-85984600D02*
X113705000Y-85984600D01*
X113705000Y-85984600D02*
X113705000Y-84144600D01*
X113705000Y-84144600D02*
X109865000Y-84144600D01*
X108915000Y-85064600D02*
X109865000Y-85064600D01*
X114655000Y-85064600D02*
X113705000Y-85064600D01*
G04 #@! TO.C,R4*
X109865000Y-79090000D02*
X109865000Y-80930000D01*
X109865000Y-80930000D02*
X113705000Y-80930000D01*
X113705000Y-80930000D02*
X113705000Y-79090000D01*
X113705000Y-79090000D02*
X109865000Y-79090000D01*
X108915000Y-80010000D02*
X109865000Y-80010000D01*
X114655000Y-80010000D02*
X113705000Y-80010000D01*
G04 #@! TO.C,R5*
X109865000Y-74010000D02*
X109865000Y-75850000D01*
X109865000Y-75850000D02*
X113705000Y-75850000D01*
X113705000Y-75850000D02*
X113705000Y-74010000D01*
X113705000Y-74010000D02*
X109865000Y-74010000D01*
X108915000Y-74930000D02*
X109865000Y-74930000D01*
X114655000Y-74930000D02*
X113705000Y-74930000D01*
G04 #@! TO.C,R6*
X68331600Y-90053400D02*
X66491600Y-90053400D01*
X66491600Y-90053400D02*
X66491600Y-93893400D01*
X66491600Y-93893400D02*
X68331600Y-93893400D01*
X68331600Y-93893400D02*
X68331600Y-90053400D01*
X67411600Y-89103400D02*
X67411600Y-90053400D01*
X67411600Y-94843400D02*
X67411600Y-93893400D01*
D12*
G04 #@! TO.C,U2*
X215265000Y-170180000D02*
X193040000Y-170180000D01*
X215265000Y-119380000D02*
X215265000Y-170180000D01*
X193040000Y-119380000D02*
X215265000Y-119380000D01*
X193040000Y-170180000D02*
X193040000Y-119380000D01*
G04 #@! TO.C,U6*
X93345000Y-170180000D02*
X71120000Y-170180000D01*
X93345000Y-119380000D02*
X93345000Y-170180000D01*
X71120000Y-119380000D02*
X93345000Y-119380000D01*
X71120000Y-170180000D02*
X71120000Y-119380000D01*
G04 #@! TO.C,U9*
X215265000Y-106680000D02*
X193040000Y-106680000D01*
X215265000Y-55880000D02*
X215265000Y-106680000D01*
X193040000Y-55880000D02*
X215265000Y-55880000D01*
X193040000Y-106680000D02*
X193040000Y-55880000D01*
G04 #@! TO.C,U10*
X184785000Y-106680000D02*
X162560000Y-106680000D01*
X184785000Y-55880000D02*
X184785000Y-106680000D01*
X162560000Y-55880000D02*
X184785000Y-55880000D01*
X162560000Y-106680000D02*
X162560000Y-55880000D01*
D13*
G04 #@! TO.C,C1*
X238540302Y-30305000D02*
X238540302Y-31105000D01*
X238140302Y-30705000D02*
X238940302Y-30705000D01*
X246631000Y-32487000D02*
X246631000Y-33553000D01*
X246591000Y-32252000D02*
X246591000Y-33788000D01*
X246551000Y-32072000D02*
X246551000Y-33968000D01*
X246511000Y-31922000D02*
X246511000Y-34118000D01*
X246471000Y-31791000D02*
X246471000Y-34249000D01*
X246431000Y-31674000D02*
X246431000Y-34366000D01*
X246391000Y-31567000D02*
X246391000Y-34473000D01*
X246351000Y-31468000D02*
X246351000Y-34572000D01*
X246311000Y-31375000D02*
X246311000Y-34665000D01*
X246271000Y-31289000D02*
X246271000Y-34751000D01*
X246231000Y-31207000D02*
X246231000Y-34833000D01*
X246191000Y-31130000D02*
X246191000Y-34910000D01*
X246151000Y-31056000D02*
X246151000Y-34984000D01*
X246111000Y-30986000D02*
X246111000Y-35054000D01*
X246071000Y-30918000D02*
X246071000Y-35122000D01*
X246031000Y-30854000D02*
X246031000Y-35186000D01*
X245991000Y-30792000D02*
X245991000Y-35248000D01*
X245951000Y-30733000D02*
X245951000Y-35307000D01*
X245911000Y-30675000D02*
X245911000Y-35365000D01*
X245871000Y-30620000D02*
X245871000Y-35420000D01*
X245831000Y-30566000D02*
X245831000Y-35474000D01*
X245791000Y-30515000D02*
X245791000Y-35525000D01*
X245751000Y-30464000D02*
X245751000Y-35576000D01*
X245711000Y-30416000D02*
X245711000Y-35624000D01*
X245671000Y-30369000D02*
X245671000Y-35671000D01*
X245631000Y-30323000D02*
X245631000Y-35717000D01*
X245591000Y-30279000D02*
X245591000Y-35761000D01*
X245551000Y-30236000D02*
X245551000Y-35804000D01*
X245511000Y-30194000D02*
X245511000Y-35846000D01*
X245471000Y-30153000D02*
X245471000Y-35887000D01*
X245431000Y-30113000D02*
X245431000Y-35927000D01*
X245391000Y-30075000D02*
X245391000Y-35965000D01*
X245351000Y-30037000D02*
X245351000Y-36003000D01*
X245311000Y-30001000D02*
X245311000Y-36039000D01*
X245271000Y-29965000D02*
X245271000Y-36075000D01*
X245231000Y-29930000D02*
X245231000Y-36110000D01*
X245191000Y-29896000D02*
X245191000Y-36144000D01*
X245151000Y-29864000D02*
X245151000Y-36176000D01*
X245111000Y-29831000D02*
X245111000Y-36209000D01*
X245071000Y-29800000D02*
X245071000Y-36240000D01*
X245031000Y-29770000D02*
X245031000Y-36270000D01*
X244991000Y-29740000D02*
X244991000Y-36300000D01*
X244951000Y-29711000D02*
X244951000Y-36329000D01*
X244911000Y-29682000D02*
X244911000Y-36358000D01*
X244871000Y-29655000D02*
X244871000Y-36385000D01*
X244831000Y-34060000D02*
X244831000Y-36412000D01*
X244831000Y-29628000D02*
X244831000Y-31980000D01*
X244791000Y-34060000D02*
X244791000Y-36438000D01*
X244791000Y-29602000D02*
X244791000Y-31980000D01*
X244751000Y-34060000D02*
X244751000Y-36464000D01*
X244751000Y-29576000D02*
X244751000Y-31980000D01*
X244711000Y-34060000D02*
X244711000Y-36489000D01*
X244711000Y-29551000D02*
X244711000Y-31980000D01*
X244671000Y-34060000D02*
X244671000Y-36513000D01*
X244671000Y-29527000D02*
X244671000Y-31980000D01*
X244631000Y-34060000D02*
X244631000Y-36537000D01*
X244631000Y-29503000D02*
X244631000Y-31980000D01*
X244591000Y-34060000D02*
X244591000Y-36560000D01*
X244591000Y-29480000D02*
X244591000Y-31980000D01*
X244551000Y-34060000D02*
X244551000Y-36582000D01*
X244551000Y-29458000D02*
X244551000Y-31980000D01*
X244511000Y-34060000D02*
X244511000Y-36604000D01*
X244511000Y-29436000D02*
X244511000Y-31980000D01*
X244471000Y-34060000D02*
X244471000Y-36626000D01*
X244471000Y-29414000D02*
X244471000Y-31980000D01*
X244431000Y-34060000D02*
X244431000Y-36647000D01*
X244431000Y-29393000D02*
X244431000Y-31980000D01*
X244391000Y-34060000D02*
X244391000Y-36667000D01*
X244391000Y-29373000D02*
X244391000Y-31980000D01*
X244351000Y-34060000D02*
X244351000Y-36686000D01*
X244351000Y-29354000D02*
X244351000Y-31980000D01*
X244311000Y-34060000D02*
X244311000Y-36706000D01*
X244311000Y-29334000D02*
X244311000Y-31980000D01*
X244271000Y-34060000D02*
X244271000Y-36724000D01*
X244271000Y-29316000D02*
X244271000Y-31980000D01*
X244231000Y-34060000D02*
X244231000Y-36742000D01*
X244231000Y-29298000D02*
X244231000Y-31980000D01*
X244191000Y-34060000D02*
X244191000Y-36760000D01*
X244191000Y-29280000D02*
X244191000Y-31980000D01*
X244151000Y-34060000D02*
X244151000Y-36777000D01*
X244151000Y-29263000D02*
X244151000Y-31980000D01*
X244111000Y-34060000D02*
X244111000Y-36794000D01*
X244111000Y-29246000D02*
X244111000Y-31980000D01*
X244071000Y-34060000D02*
X244071000Y-36810000D01*
X244071000Y-29230000D02*
X244071000Y-31980000D01*
X244031000Y-34060000D02*
X244031000Y-36825000D01*
X244031000Y-29215000D02*
X244031000Y-31980000D01*
X243991000Y-34060000D02*
X243991000Y-36841000D01*
X243991000Y-29199000D02*
X243991000Y-31980000D01*
X243951000Y-34060000D02*
X243951000Y-36855000D01*
X243951000Y-29185000D02*
X243951000Y-31980000D01*
X243911000Y-34060000D02*
X243911000Y-36870000D01*
X243911000Y-29170000D02*
X243911000Y-31980000D01*
X243871000Y-34060000D02*
X243871000Y-36883000D01*
X243871000Y-29157000D02*
X243871000Y-31980000D01*
X243831000Y-34060000D02*
X243831000Y-36897000D01*
X243831000Y-29143000D02*
X243831000Y-31980000D01*
X243791000Y-34060000D02*
X243791000Y-36909000D01*
X243791000Y-29131000D02*
X243791000Y-31980000D01*
X243751000Y-34060000D02*
X243751000Y-36922000D01*
X243751000Y-29118000D02*
X243751000Y-31980000D01*
X243711000Y-34060000D02*
X243711000Y-36934000D01*
X243711000Y-29106000D02*
X243711000Y-31980000D01*
X243671000Y-34060000D02*
X243671000Y-36945000D01*
X243671000Y-29095000D02*
X243671000Y-31980000D01*
X243631000Y-34060000D02*
X243631000Y-36956000D01*
X243631000Y-29084000D02*
X243631000Y-31980000D01*
X243591000Y-34060000D02*
X243591000Y-36967000D01*
X243591000Y-29073000D02*
X243591000Y-31980000D01*
X243551000Y-34060000D02*
X243551000Y-36977000D01*
X243551000Y-29063000D02*
X243551000Y-31980000D01*
X243511000Y-34060000D02*
X243511000Y-36987000D01*
X243511000Y-29053000D02*
X243511000Y-31980000D01*
X243471000Y-34060000D02*
X243471000Y-36996000D01*
X243471000Y-29044000D02*
X243471000Y-31980000D01*
X243431000Y-34060000D02*
X243431000Y-37005000D01*
X243431000Y-29035000D02*
X243431000Y-31980000D01*
X243391000Y-34060000D02*
X243391000Y-37014000D01*
X243391000Y-29026000D02*
X243391000Y-31980000D01*
X243351000Y-34060000D02*
X243351000Y-37022000D01*
X243351000Y-29018000D02*
X243351000Y-31980000D01*
X243311000Y-34060000D02*
X243311000Y-37030000D01*
X243311000Y-29010000D02*
X243311000Y-31980000D01*
X243271000Y-34060000D02*
X243271000Y-37037000D01*
X243271000Y-29003000D02*
X243271000Y-31980000D01*
X243230000Y-34060000D02*
X243230000Y-37044000D01*
X243230000Y-28996000D02*
X243230000Y-31980000D01*
X243190000Y-34060000D02*
X243190000Y-37050000D01*
X243190000Y-28990000D02*
X243190000Y-31980000D01*
X243150000Y-34060000D02*
X243150000Y-37057000D01*
X243150000Y-28983000D02*
X243150000Y-31980000D01*
X243110000Y-34060000D02*
X243110000Y-37062000D01*
X243110000Y-28978000D02*
X243110000Y-31980000D01*
X243070000Y-34060000D02*
X243070000Y-37068000D01*
X243070000Y-28972000D02*
X243070000Y-31980000D01*
X243030000Y-34060000D02*
X243030000Y-37072000D01*
X243030000Y-28968000D02*
X243030000Y-31980000D01*
X242990000Y-34060000D02*
X242990000Y-37077000D01*
X242990000Y-28963000D02*
X242990000Y-31980000D01*
X242950000Y-34060000D02*
X242950000Y-37081000D01*
X242950000Y-28959000D02*
X242950000Y-31980000D01*
X242910000Y-34060000D02*
X242910000Y-37085000D01*
X242910000Y-28955000D02*
X242910000Y-31980000D01*
X242870000Y-34060000D02*
X242870000Y-37088000D01*
X242870000Y-28952000D02*
X242870000Y-31980000D01*
X242830000Y-34060000D02*
X242830000Y-37091000D01*
X242830000Y-28949000D02*
X242830000Y-31980000D01*
X242790000Y-34060000D02*
X242790000Y-37094000D01*
X242790000Y-28946000D02*
X242790000Y-31980000D01*
X242750000Y-28944000D02*
X242750000Y-37096000D01*
X242710000Y-28943000D02*
X242710000Y-37097000D01*
X242670000Y-28941000D02*
X242670000Y-37099000D01*
X242630000Y-28940000D02*
X242630000Y-37100000D01*
X242590000Y-28940000D02*
X242590000Y-37100000D01*
X242550000Y-28940000D02*
X242550000Y-37100000D01*
X246670000Y-33020000D02*
G75*
G03X246670000Y-33020000I-4120000J0D01*
G01*
G04 #@! TO.C,C2*
X225840302Y-30305000D02*
X225840302Y-31105000D01*
X225440302Y-30705000D02*
X226240302Y-30705000D01*
X233931000Y-32487000D02*
X233931000Y-33553000D01*
X233891000Y-32252000D02*
X233891000Y-33788000D01*
X233851000Y-32072000D02*
X233851000Y-33968000D01*
X233811000Y-31922000D02*
X233811000Y-34118000D01*
X233771000Y-31791000D02*
X233771000Y-34249000D01*
X233731000Y-31674000D02*
X233731000Y-34366000D01*
X233691000Y-31567000D02*
X233691000Y-34473000D01*
X233651000Y-31468000D02*
X233651000Y-34572000D01*
X233611000Y-31375000D02*
X233611000Y-34665000D01*
X233571000Y-31289000D02*
X233571000Y-34751000D01*
X233531000Y-31207000D02*
X233531000Y-34833000D01*
X233491000Y-31130000D02*
X233491000Y-34910000D01*
X233451000Y-31056000D02*
X233451000Y-34984000D01*
X233411000Y-30986000D02*
X233411000Y-35054000D01*
X233371000Y-30918000D02*
X233371000Y-35122000D01*
X233331000Y-30854000D02*
X233331000Y-35186000D01*
X233291000Y-30792000D02*
X233291000Y-35248000D01*
X233251000Y-30733000D02*
X233251000Y-35307000D01*
X233211000Y-30675000D02*
X233211000Y-35365000D01*
X233171000Y-30620000D02*
X233171000Y-35420000D01*
X233131000Y-30566000D02*
X233131000Y-35474000D01*
X233091000Y-30515000D02*
X233091000Y-35525000D01*
X233051000Y-30464000D02*
X233051000Y-35576000D01*
X233011000Y-30416000D02*
X233011000Y-35624000D01*
X232971000Y-30369000D02*
X232971000Y-35671000D01*
X232931000Y-30323000D02*
X232931000Y-35717000D01*
X232891000Y-30279000D02*
X232891000Y-35761000D01*
X232851000Y-30236000D02*
X232851000Y-35804000D01*
X232811000Y-30194000D02*
X232811000Y-35846000D01*
X232771000Y-30153000D02*
X232771000Y-35887000D01*
X232731000Y-30113000D02*
X232731000Y-35927000D01*
X232691000Y-30075000D02*
X232691000Y-35965000D01*
X232651000Y-30037000D02*
X232651000Y-36003000D01*
X232611000Y-30001000D02*
X232611000Y-36039000D01*
X232571000Y-29965000D02*
X232571000Y-36075000D01*
X232531000Y-29930000D02*
X232531000Y-36110000D01*
X232491000Y-29896000D02*
X232491000Y-36144000D01*
X232451000Y-29864000D02*
X232451000Y-36176000D01*
X232411000Y-29831000D02*
X232411000Y-36209000D01*
X232371000Y-29800000D02*
X232371000Y-36240000D01*
X232331000Y-29770000D02*
X232331000Y-36270000D01*
X232291000Y-29740000D02*
X232291000Y-36300000D01*
X232251000Y-29711000D02*
X232251000Y-36329000D01*
X232211000Y-29682000D02*
X232211000Y-36358000D01*
X232171000Y-29655000D02*
X232171000Y-36385000D01*
X232131000Y-34060000D02*
X232131000Y-36412000D01*
X232131000Y-29628000D02*
X232131000Y-31980000D01*
X232091000Y-34060000D02*
X232091000Y-36438000D01*
X232091000Y-29602000D02*
X232091000Y-31980000D01*
X232051000Y-34060000D02*
X232051000Y-36464000D01*
X232051000Y-29576000D02*
X232051000Y-31980000D01*
X232011000Y-34060000D02*
X232011000Y-36489000D01*
X232011000Y-29551000D02*
X232011000Y-31980000D01*
X231971000Y-34060000D02*
X231971000Y-36513000D01*
X231971000Y-29527000D02*
X231971000Y-31980000D01*
X231931000Y-34060000D02*
X231931000Y-36537000D01*
X231931000Y-29503000D02*
X231931000Y-31980000D01*
X231891000Y-34060000D02*
X231891000Y-36560000D01*
X231891000Y-29480000D02*
X231891000Y-31980000D01*
X231851000Y-34060000D02*
X231851000Y-36582000D01*
X231851000Y-29458000D02*
X231851000Y-31980000D01*
X231811000Y-34060000D02*
X231811000Y-36604000D01*
X231811000Y-29436000D02*
X231811000Y-31980000D01*
X231771000Y-34060000D02*
X231771000Y-36626000D01*
X231771000Y-29414000D02*
X231771000Y-31980000D01*
X231731000Y-34060000D02*
X231731000Y-36647000D01*
X231731000Y-29393000D02*
X231731000Y-31980000D01*
X231691000Y-34060000D02*
X231691000Y-36667000D01*
X231691000Y-29373000D02*
X231691000Y-31980000D01*
X231651000Y-34060000D02*
X231651000Y-36686000D01*
X231651000Y-29354000D02*
X231651000Y-31980000D01*
X231611000Y-34060000D02*
X231611000Y-36706000D01*
X231611000Y-29334000D02*
X231611000Y-31980000D01*
X231571000Y-34060000D02*
X231571000Y-36724000D01*
X231571000Y-29316000D02*
X231571000Y-31980000D01*
X231531000Y-34060000D02*
X231531000Y-36742000D01*
X231531000Y-29298000D02*
X231531000Y-31980000D01*
X231491000Y-34060000D02*
X231491000Y-36760000D01*
X231491000Y-29280000D02*
X231491000Y-31980000D01*
X231451000Y-34060000D02*
X231451000Y-36777000D01*
X231451000Y-29263000D02*
X231451000Y-31980000D01*
X231411000Y-34060000D02*
X231411000Y-36794000D01*
X231411000Y-29246000D02*
X231411000Y-31980000D01*
X231371000Y-34060000D02*
X231371000Y-36810000D01*
X231371000Y-29230000D02*
X231371000Y-31980000D01*
X231331000Y-34060000D02*
X231331000Y-36825000D01*
X231331000Y-29215000D02*
X231331000Y-31980000D01*
X231291000Y-34060000D02*
X231291000Y-36841000D01*
X231291000Y-29199000D02*
X231291000Y-31980000D01*
X231251000Y-34060000D02*
X231251000Y-36855000D01*
X231251000Y-29185000D02*
X231251000Y-31980000D01*
X231211000Y-34060000D02*
X231211000Y-36870000D01*
X231211000Y-29170000D02*
X231211000Y-31980000D01*
X231171000Y-34060000D02*
X231171000Y-36883000D01*
X231171000Y-29157000D02*
X231171000Y-31980000D01*
X231131000Y-34060000D02*
X231131000Y-36897000D01*
X231131000Y-29143000D02*
X231131000Y-31980000D01*
X231091000Y-34060000D02*
X231091000Y-36909000D01*
X231091000Y-29131000D02*
X231091000Y-31980000D01*
X231051000Y-34060000D02*
X231051000Y-36922000D01*
X231051000Y-29118000D02*
X231051000Y-31980000D01*
X231011000Y-34060000D02*
X231011000Y-36934000D01*
X231011000Y-29106000D02*
X231011000Y-31980000D01*
X230971000Y-34060000D02*
X230971000Y-36945000D01*
X230971000Y-29095000D02*
X230971000Y-31980000D01*
X230931000Y-34060000D02*
X230931000Y-36956000D01*
X230931000Y-29084000D02*
X230931000Y-31980000D01*
X230891000Y-34060000D02*
X230891000Y-36967000D01*
X230891000Y-29073000D02*
X230891000Y-31980000D01*
X230851000Y-34060000D02*
X230851000Y-36977000D01*
X230851000Y-29063000D02*
X230851000Y-31980000D01*
X230811000Y-34060000D02*
X230811000Y-36987000D01*
X230811000Y-29053000D02*
X230811000Y-31980000D01*
X230771000Y-34060000D02*
X230771000Y-36996000D01*
X230771000Y-29044000D02*
X230771000Y-31980000D01*
X230731000Y-34060000D02*
X230731000Y-37005000D01*
X230731000Y-29035000D02*
X230731000Y-31980000D01*
X230691000Y-34060000D02*
X230691000Y-37014000D01*
X230691000Y-29026000D02*
X230691000Y-31980000D01*
X230651000Y-34060000D02*
X230651000Y-37022000D01*
X230651000Y-29018000D02*
X230651000Y-31980000D01*
X230611000Y-34060000D02*
X230611000Y-37030000D01*
X230611000Y-29010000D02*
X230611000Y-31980000D01*
X230571000Y-34060000D02*
X230571000Y-37037000D01*
X230571000Y-29003000D02*
X230571000Y-31980000D01*
X230530000Y-34060000D02*
X230530000Y-37044000D01*
X230530000Y-28996000D02*
X230530000Y-31980000D01*
X230490000Y-34060000D02*
X230490000Y-37050000D01*
X230490000Y-28990000D02*
X230490000Y-31980000D01*
X230450000Y-34060000D02*
X230450000Y-37057000D01*
X230450000Y-28983000D02*
X230450000Y-31980000D01*
X230410000Y-34060000D02*
X230410000Y-37062000D01*
X230410000Y-28978000D02*
X230410000Y-31980000D01*
X230370000Y-34060000D02*
X230370000Y-37068000D01*
X230370000Y-28972000D02*
X230370000Y-31980000D01*
X230330000Y-34060000D02*
X230330000Y-37072000D01*
X230330000Y-28968000D02*
X230330000Y-31980000D01*
X230290000Y-34060000D02*
X230290000Y-37077000D01*
X230290000Y-28963000D02*
X230290000Y-31980000D01*
X230250000Y-34060000D02*
X230250000Y-37081000D01*
X230250000Y-28959000D02*
X230250000Y-31980000D01*
X230210000Y-34060000D02*
X230210000Y-37085000D01*
X230210000Y-28955000D02*
X230210000Y-31980000D01*
X230170000Y-34060000D02*
X230170000Y-37088000D01*
X230170000Y-28952000D02*
X230170000Y-31980000D01*
X230130000Y-34060000D02*
X230130000Y-37091000D01*
X230130000Y-28949000D02*
X230130000Y-31980000D01*
X230090000Y-34060000D02*
X230090000Y-37094000D01*
X230090000Y-28946000D02*
X230090000Y-31980000D01*
X230050000Y-28944000D02*
X230050000Y-37096000D01*
X230010000Y-28943000D02*
X230010000Y-37097000D01*
X229970000Y-28941000D02*
X229970000Y-37099000D01*
X229930000Y-28940000D02*
X229930000Y-37100000D01*
X229890000Y-28940000D02*
X229890000Y-37100000D01*
X229850000Y-28940000D02*
X229850000Y-37100000D01*
X233970000Y-33020000D02*
G75*
G03X233970000Y-33020000I-4120000J0D01*
G01*
G04 #@! TO.C,R1*
X219019000Y-94096600D02*
X220859000Y-94096600D01*
X220859000Y-94096600D02*
X220859000Y-90256600D01*
X220859000Y-90256600D02*
X219019000Y-90256600D01*
X219019000Y-90256600D02*
X219019000Y-94096600D01*
X219939000Y-95046600D02*
X219939000Y-94096600D01*
X219939000Y-89306600D02*
X219939000Y-90256600D01*
G04 #@! TO.C,R2*
X220370000Y-149606000D02*
X220370000Y-150556000D01*
X220370000Y-155346000D02*
X220370000Y-154396000D01*
X219450000Y-150556000D02*
X219450000Y-154396000D01*
X221290000Y-150556000D02*
X219450000Y-150556000D01*
X221290000Y-154396000D02*
X221290000Y-150556000D01*
X219450000Y-154396000D02*
X221290000Y-154396000D01*
G04 #@! TO.C,U8*
D12*
X228552380Y-102361904D02*
X229361904Y-102361904D01*
X229457142Y-102314285D01*
X229504761Y-102266666D01*
X229552380Y-102171428D01*
X229552380Y-101980952D01*
X229504761Y-101885714D01*
X229457142Y-101838095D01*
X229361904Y-101790476D01*
X228552380Y-101790476D01*
X228980952Y-101171428D02*
X228933333Y-101266666D01*
X228885714Y-101314285D01*
X228790476Y-101361904D01*
X228742857Y-101361904D01*
X228647619Y-101314285D01*
X228600000Y-101266666D01*
X228552380Y-101171428D01*
X228552380Y-100980952D01*
X228600000Y-100885714D01*
X228647619Y-100838095D01*
X228742857Y-100790476D01*
X228790476Y-100790476D01*
X228885714Y-100838095D01*
X228933333Y-100885714D01*
X228980952Y-100980952D01*
X228980952Y-101171428D01*
X229028571Y-101266666D01*
X229076190Y-101314285D01*
X229171428Y-101361904D01*
X229361904Y-101361904D01*
X229457142Y-101314285D01*
X229504761Y-101266666D01*
X229552380Y-101171428D01*
X229552380Y-100980952D01*
X229504761Y-100885714D01*
X229457142Y-100838095D01*
X229361904Y-100790476D01*
X229171428Y-100790476D01*
X229076190Y-100838095D01*
X229028571Y-100885714D01*
X228980952Y-100980952D01*
X242657142Y-99877142D02*
X242657142Y-101305714D01*
X239657142Y-101305714D01*
X242514285Y-99020000D02*
X242657142Y-98591428D01*
X242657142Y-97877142D01*
X242514285Y-97591428D01*
X242371428Y-97448571D01*
X242085714Y-97305714D01*
X241800000Y-97305714D01*
X241514285Y-97448571D01*
X241371428Y-97591428D01*
X241228571Y-97877142D01*
X241085714Y-98448571D01*
X240942857Y-98734285D01*
X240800000Y-98877142D01*
X240514285Y-99020000D01*
X240228571Y-99020000D01*
X239942857Y-98877142D01*
X239800000Y-98734285D01*
X239657142Y-98448571D01*
X239657142Y-97734285D01*
X239800000Y-97305714D01*
X239657142Y-95448571D02*
X239657142Y-95162857D01*
X239800000Y-94877142D01*
X239942857Y-94734285D01*
X240228571Y-94591428D01*
X240800000Y-94448571D01*
X241514285Y-94448571D01*
X242085714Y-94591428D01*
X242371428Y-94734285D01*
X242514285Y-94877142D01*
X242657142Y-95162857D01*
X242657142Y-95448571D01*
X242514285Y-95734285D01*
X242371428Y-95877142D01*
X242085714Y-96020000D01*
X241514285Y-96162857D01*
X240800000Y-96162857D01*
X240228571Y-96020000D01*
X239942857Y-95877142D01*
X239800000Y-95734285D01*
X239657142Y-95448571D01*
X240657142Y-91877142D02*
X242657142Y-91877142D01*
X239514285Y-92591428D02*
X241657142Y-93305714D01*
X241657142Y-91448571D01*
G04 #@! TO.C,U12*
X106632380Y-102838095D02*
X107441904Y-102838095D01*
X107537142Y-102790476D01*
X107584761Y-102742857D01*
X107632380Y-102647619D01*
X107632380Y-102457142D01*
X107584761Y-102361904D01*
X107537142Y-102314285D01*
X107441904Y-102266666D01*
X106632380Y-102266666D01*
X107632380Y-101266666D02*
X107632380Y-101838095D01*
X107632380Y-101552380D02*
X106632380Y-101552380D01*
X106775238Y-101647619D01*
X106870476Y-101742857D01*
X106918095Y-101838095D01*
X106727619Y-100885714D02*
X106680000Y-100838095D01*
X106632380Y-100742857D01*
X106632380Y-100504761D01*
X106680000Y-100409523D01*
X106727619Y-100361904D01*
X106822857Y-100314285D01*
X106918095Y-100314285D01*
X107060952Y-100361904D01*
X107632380Y-100933333D01*
X107632380Y-100314285D01*
X120737142Y-99877142D02*
X120737142Y-101305714D01*
X117737142Y-101305714D01*
X120594285Y-99020000D02*
X120737142Y-98591428D01*
X120737142Y-97877142D01*
X120594285Y-97591428D01*
X120451428Y-97448571D01*
X120165714Y-97305714D01*
X119880000Y-97305714D01*
X119594285Y-97448571D01*
X119451428Y-97591428D01*
X119308571Y-97877142D01*
X119165714Y-98448571D01*
X119022857Y-98734285D01*
X118880000Y-98877142D01*
X118594285Y-99020000D01*
X118308571Y-99020000D01*
X118022857Y-98877142D01*
X117880000Y-98734285D01*
X117737142Y-98448571D01*
X117737142Y-97734285D01*
X117880000Y-97305714D01*
X117737142Y-95448571D02*
X117737142Y-95162857D01*
X117880000Y-94877142D01*
X118022857Y-94734285D01*
X118308571Y-94591428D01*
X118880000Y-94448571D01*
X119594285Y-94448571D01*
X120165714Y-94591428D01*
X120451428Y-94734285D01*
X120594285Y-94877142D01*
X120737142Y-95162857D01*
X120737142Y-95448571D01*
X120594285Y-95734285D01*
X120451428Y-95877142D01*
X120165714Y-96020000D01*
X119594285Y-96162857D01*
X118880000Y-96162857D01*
X118308571Y-96020000D01*
X118022857Y-95877142D01*
X117880000Y-95734285D01*
X117737142Y-95448571D01*
X118737142Y-91877142D02*
X120737142Y-91877142D01*
X117594285Y-92591428D02*
X119737142Y-93305714D01*
X119737142Y-91448571D01*
G04 #@! TO.C,U11*
X137112380Y-102838095D02*
X137921904Y-102838095D01*
X138017142Y-102790476D01*
X138064761Y-102742857D01*
X138112380Y-102647619D01*
X138112380Y-102457142D01*
X138064761Y-102361904D01*
X138017142Y-102314285D01*
X137921904Y-102266666D01*
X137112380Y-102266666D01*
X138112380Y-101266666D02*
X138112380Y-101838095D01*
X138112380Y-101552380D02*
X137112380Y-101552380D01*
X137255238Y-101647619D01*
X137350476Y-101742857D01*
X137398095Y-101838095D01*
X138112380Y-100314285D02*
X138112380Y-100885714D01*
X138112380Y-100600000D02*
X137112380Y-100600000D01*
X137255238Y-100695238D01*
X137350476Y-100790476D01*
X137398095Y-100885714D01*
X151217142Y-99877142D02*
X151217142Y-101305714D01*
X148217142Y-101305714D01*
X151074285Y-99020000D02*
X151217142Y-98591428D01*
X151217142Y-97877142D01*
X151074285Y-97591428D01*
X150931428Y-97448571D01*
X150645714Y-97305714D01*
X150360000Y-97305714D01*
X150074285Y-97448571D01*
X149931428Y-97591428D01*
X149788571Y-97877142D01*
X149645714Y-98448571D01*
X149502857Y-98734285D01*
X149360000Y-98877142D01*
X149074285Y-99020000D01*
X148788571Y-99020000D01*
X148502857Y-98877142D01*
X148360000Y-98734285D01*
X148217142Y-98448571D01*
X148217142Y-97734285D01*
X148360000Y-97305714D01*
X148217142Y-95448571D02*
X148217142Y-95162857D01*
X148360000Y-94877142D01*
X148502857Y-94734285D01*
X148788571Y-94591428D01*
X149360000Y-94448571D01*
X150074285Y-94448571D01*
X150645714Y-94591428D01*
X150931428Y-94734285D01*
X151074285Y-94877142D01*
X151217142Y-95162857D01*
X151217142Y-95448571D01*
X151074285Y-95734285D01*
X150931428Y-95877142D01*
X150645714Y-96020000D01*
X150074285Y-96162857D01*
X149360000Y-96162857D01*
X148788571Y-96020000D01*
X148502857Y-95877142D01*
X148360000Y-95734285D01*
X148217142Y-95448571D01*
X149217142Y-91877142D02*
X151217142Y-91877142D01*
X148074285Y-92591428D02*
X150217142Y-93305714D01*
X150217142Y-91448571D01*
G04 #@! TO.C,U14*
X45672380Y-102838095D02*
X46481904Y-102838095D01*
X46577142Y-102790476D01*
X46624761Y-102742857D01*
X46672380Y-102647619D01*
X46672380Y-102457142D01*
X46624761Y-102361904D01*
X46577142Y-102314285D01*
X46481904Y-102266666D01*
X45672380Y-102266666D01*
X46672380Y-101266666D02*
X46672380Y-101838095D01*
X46672380Y-101552380D02*
X45672380Y-101552380D01*
X45815238Y-101647619D01*
X45910476Y-101742857D01*
X45958095Y-101838095D01*
X46005714Y-100409523D02*
X46672380Y-100409523D01*
X45624761Y-100647619D02*
X46339047Y-100885714D01*
X46339047Y-100266666D01*
X59777142Y-99877142D02*
X59777142Y-101305714D01*
X56777142Y-101305714D01*
X59634285Y-99020000D02*
X59777142Y-98591428D01*
X59777142Y-97877142D01*
X59634285Y-97591428D01*
X59491428Y-97448571D01*
X59205714Y-97305714D01*
X58920000Y-97305714D01*
X58634285Y-97448571D01*
X58491428Y-97591428D01*
X58348571Y-97877142D01*
X58205714Y-98448571D01*
X58062857Y-98734285D01*
X57920000Y-98877142D01*
X57634285Y-99020000D01*
X57348571Y-99020000D01*
X57062857Y-98877142D01*
X56920000Y-98734285D01*
X56777142Y-98448571D01*
X56777142Y-97734285D01*
X56920000Y-97305714D01*
X56777142Y-95448571D02*
X56777142Y-95162857D01*
X56920000Y-94877142D01*
X57062857Y-94734285D01*
X57348571Y-94591428D01*
X57920000Y-94448571D01*
X58634285Y-94448571D01*
X59205714Y-94591428D01*
X59491428Y-94734285D01*
X59634285Y-94877142D01*
X59777142Y-95162857D01*
X59777142Y-95448571D01*
X59634285Y-95734285D01*
X59491428Y-95877142D01*
X59205714Y-96020000D01*
X58634285Y-96162857D01*
X57920000Y-96162857D01*
X57348571Y-96020000D01*
X57062857Y-95877142D01*
X56920000Y-95734285D01*
X56777142Y-95448571D01*
X57777142Y-91877142D02*
X59777142Y-91877142D01*
X56634285Y-92591428D02*
X58777142Y-93305714D01*
X58777142Y-91448571D01*
G04 #@! TO.C,U13*
X76152380Y-102838095D02*
X76961904Y-102838095D01*
X77057142Y-102790476D01*
X77104761Y-102742857D01*
X77152380Y-102647619D01*
X77152380Y-102457142D01*
X77104761Y-102361904D01*
X77057142Y-102314285D01*
X76961904Y-102266666D01*
X76152380Y-102266666D01*
X77152380Y-101266666D02*
X77152380Y-101838095D01*
X77152380Y-101552380D02*
X76152380Y-101552380D01*
X76295238Y-101647619D01*
X76390476Y-101742857D01*
X76438095Y-101838095D01*
X76152380Y-100933333D02*
X76152380Y-100314285D01*
X76533333Y-100647619D01*
X76533333Y-100504761D01*
X76580952Y-100409523D01*
X76628571Y-100361904D01*
X76723809Y-100314285D01*
X76961904Y-100314285D01*
X77057142Y-100361904D01*
X77104761Y-100409523D01*
X77152380Y-100504761D01*
X77152380Y-100790476D01*
X77104761Y-100885714D01*
X77057142Y-100933333D01*
X90257142Y-99877142D02*
X90257142Y-101305714D01*
X87257142Y-101305714D01*
X90114285Y-99020000D02*
X90257142Y-98591428D01*
X90257142Y-97877142D01*
X90114285Y-97591428D01*
X89971428Y-97448571D01*
X89685714Y-97305714D01*
X89400000Y-97305714D01*
X89114285Y-97448571D01*
X88971428Y-97591428D01*
X88828571Y-97877142D01*
X88685714Y-98448571D01*
X88542857Y-98734285D01*
X88400000Y-98877142D01*
X88114285Y-99020000D01*
X87828571Y-99020000D01*
X87542857Y-98877142D01*
X87400000Y-98734285D01*
X87257142Y-98448571D01*
X87257142Y-97734285D01*
X87400000Y-97305714D01*
X87257142Y-95448571D02*
X87257142Y-95162857D01*
X87400000Y-94877142D01*
X87542857Y-94734285D01*
X87828571Y-94591428D01*
X88400000Y-94448571D01*
X89114285Y-94448571D01*
X89685714Y-94591428D01*
X89971428Y-94734285D01*
X90114285Y-94877142D01*
X90257142Y-95162857D01*
X90257142Y-95448571D01*
X90114285Y-95734285D01*
X89971428Y-95877142D01*
X89685714Y-96020000D01*
X89114285Y-96162857D01*
X88400000Y-96162857D01*
X87828571Y-96020000D01*
X87542857Y-95877142D01*
X87400000Y-95734285D01*
X87257142Y-95448571D01*
X88257142Y-91877142D02*
X90257142Y-91877142D01*
X87114285Y-92591428D02*
X89257142Y-93305714D01*
X89257142Y-91448571D01*
G04 #@! TO.C,R3*
X111618333Y-85516980D02*
X111285000Y-85040790D01*
X111046904Y-85516980D02*
X111046904Y-84516980D01*
X111427857Y-84516980D01*
X111523095Y-84564600D01*
X111570714Y-84612219D01*
X111618333Y-84707457D01*
X111618333Y-84850314D01*
X111570714Y-84945552D01*
X111523095Y-84993171D01*
X111427857Y-85040790D01*
X111046904Y-85040790D01*
X111951666Y-84516980D02*
X112570714Y-84516980D01*
X112237380Y-84897933D01*
X112380238Y-84897933D01*
X112475476Y-84945552D01*
X112523095Y-84993171D01*
X112570714Y-85088409D01*
X112570714Y-85326504D01*
X112523095Y-85421742D01*
X112475476Y-85469361D01*
X112380238Y-85516980D01*
X112094523Y-85516980D01*
X111999285Y-85469361D01*
X111951666Y-85421742D01*
X110237380Y-86436980D02*
X110856428Y-86436980D01*
X110523095Y-86817933D01*
X110665952Y-86817933D01*
X110761190Y-86865552D01*
X110808809Y-86913171D01*
X110856428Y-87008409D01*
X110856428Y-87246504D01*
X110808809Y-87341742D01*
X110761190Y-87389361D01*
X110665952Y-87436980D01*
X110380238Y-87436980D01*
X110285000Y-87389361D01*
X110237380Y-87341742D01*
X111285000Y-87341742D02*
X111332619Y-87389361D01*
X111285000Y-87436980D01*
X111237380Y-87389361D01*
X111285000Y-87341742D01*
X111285000Y-87436980D01*
X111808809Y-87436980D02*
X111999285Y-87436980D01*
X112094523Y-87389361D01*
X112142142Y-87341742D01*
X112237380Y-87198885D01*
X112285000Y-87008409D01*
X112285000Y-86627457D01*
X112237380Y-86532219D01*
X112189761Y-86484600D01*
X112094523Y-86436980D01*
X111904047Y-86436980D01*
X111808809Y-86484600D01*
X111761190Y-86532219D01*
X111713571Y-86627457D01*
X111713571Y-86865552D01*
X111761190Y-86960790D01*
X111808809Y-87008409D01*
X111904047Y-87056028D01*
X112094523Y-87056028D01*
X112189761Y-87008409D01*
X112237380Y-86960790D01*
X112285000Y-86865552D01*
X112713571Y-87436980D02*
X112713571Y-86436980D01*
X113285000Y-87436980D02*
X112856428Y-86865552D01*
X113285000Y-86436980D02*
X112713571Y-87008409D01*
G04 #@! TO.C,R4*
X111618333Y-80411580D02*
X111285000Y-79935390D01*
X111046904Y-80411580D02*
X111046904Y-79411580D01*
X111427857Y-79411580D01*
X111523095Y-79459200D01*
X111570714Y-79506819D01*
X111618333Y-79602057D01*
X111618333Y-79744914D01*
X111570714Y-79840152D01*
X111523095Y-79887771D01*
X111427857Y-79935390D01*
X111046904Y-79935390D01*
X112475476Y-79744914D02*
X112475476Y-80411580D01*
X112237380Y-79363961D02*
X111999285Y-80078247D01*
X112618333Y-80078247D01*
X110237380Y-81382380D02*
X110856428Y-81382380D01*
X110523095Y-81763333D01*
X110665952Y-81763333D01*
X110761190Y-81810952D01*
X110808809Y-81858571D01*
X110856428Y-81953809D01*
X110856428Y-82191904D01*
X110808809Y-82287142D01*
X110761190Y-82334761D01*
X110665952Y-82382380D01*
X110380238Y-82382380D01*
X110285000Y-82334761D01*
X110237380Y-82287142D01*
X111285000Y-82287142D02*
X111332619Y-82334761D01*
X111285000Y-82382380D01*
X111237380Y-82334761D01*
X111285000Y-82287142D01*
X111285000Y-82382380D01*
X111808809Y-82382380D02*
X111999285Y-82382380D01*
X112094523Y-82334761D01*
X112142142Y-82287142D01*
X112237380Y-82144285D01*
X112285000Y-81953809D01*
X112285000Y-81572857D01*
X112237380Y-81477619D01*
X112189761Y-81430000D01*
X112094523Y-81382380D01*
X111904047Y-81382380D01*
X111808809Y-81430000D01*
X111761190Y-81477619D01*
X111713571Y-81572857D01*
X111713571Y-81810952D01*
X111761190Y-81906190D01*
X111808809Y-81953809D01*
X111904047Y-82001428D01*
X112094523Y-82001428D01*
X112189761Y-81953809D01*
X112237380Y-81906190D01*
X112285000Y-81810952D01*
X112713571Y-82382380D02*
X112713571Y-81382380D01*
X113285000Y-82382380D02*
X112856428Y-81810952D01*
X113285000Y-81382380D02*
X112713571Y-81953809D01*
G04 #@! TO.C,R5*
X111669133Y-75382380D02*
X111335800Y-74906190D01*
X111097704Y-75382380D02*
X111097704Y-74382380D01*
X111478657Y-74382380D01*
X111573895Y-74430000D01*
X111621514Y-74477619D01*
X111669133Y-74572857D01*
X111669133Y-74715714D01*
X111621514Y-74810952D01*
X111573895Y-74858571D01*
X111478657Y-74906190D01*
X111097704Y-74906190D01*
X112573895Y-74382380D02*
X112097704Y-74382380D01*
X112050085Y-74858571D01*
X112097704Y-74810952D01*
X112192942Y-74763333D01*
X112431038Y-74763333D01*
X112526276Y-74810952D01*
X112573895Y-74858571D01*
X112621514Y-74953809D01*
X112621514Y-75191904D01*
X112573895Y-75287142D01*
X112526276Y-75334761D01*
X112431038Y-75382380D01*
X112192942Y-75382380D01*
X112097704Y-75334761D01*
X112050085Y-75287142D01*
X110237380Y-76302380D02*
X110856428Y-76302380D01*
X110523095Y-76683333D01*
X110665952Y-76683333D01*
X110761190Y-76730952D01*
X110808809Y-76778571D01*
X110856428Y-76873809D01*
X110856428Y-77111904D01*
X110808809Y-77207142D01*
X110761190Y-77254761D01*
X110665952Y-77302380D01*
X110380238Y-77302380D01*
X110285000Y-77254761D01*
X110237380Y-77207142D01*
X111285000Y-77207142D02*
X111332619Y-77254761D01*
X111285000Y-77302380D01*
X111237380Y-77254761D01*
X111285000Y-77207142D01*
X111285000Y-77302380D01*
X111808809Y-77302380D02*
X111999285Y-77302380D01*
X112094523Y-77254761D01*
X112142142Y-77207142D01*
X112237380Y-77064285D01*
X112285000Y-76873809D01*
X112285000Y-76492857D01*
X112237380Y-76397619D01*
X112189761Y-76350000D01*
X112094523Y-76302380D01*
X111904047Y-76302380D01*
X111808809Y-76350000D01*
X111761190Y-76397619D01*
X111713571Y-76492857D01*
X111713571Y-76730952D01*
X111761190Y-76826190D01*
X111808809Y-76873809D01*
X111904047Y-76921428D01*
X112094523Y-76921428D01*
X112189761Y-76873809D01*
X112237380Y-76826190D01*
X112285000Y-76730952D01*
X112713571Y-77302380D02*
X112713571Y-76302380D01*
X113285000Y-77302380D02*
X112856428Y-76730952D01*
X113285000Y-76302380D02*
X112713571Y-76873809D01*
G04 #@! TO.C,R6*
X67965580Y-92190866D02*
X67489390Y-92524200D01*
X67965580Y-92762295D02*
X66965580Y-92762295D01*
X66965580Y-92381342D01*
X67013200Y-92286104D01*
X67060819Y-92238485D01*
X67156057Y-92190866D01*
X67298914Y-92190866D01*
X67394152Y-92238485D01*
X67441771Y-92286104D01*
X67489390Y-92381342D01*
X67489390Y-92762295D01*
X66965580Y-91333723D02*
X66965580Y-91524200D01*
X67013200Y-91619438D01*
X67060819Y-91667057D01*
X67203676Y-91762295D01*
X67394152Y-91809914D01*
X67775104Y-91809914D01*
X67870342Y-91762295D01*
X67917961Y-91714676D01*
X67965580Y-91619438D01*
X67965580Y-91428961D01*
X67917961Y-91333723D01*
X67870342Y-91286104D01*
X67775104Y-91238485D01*
X67537009Y-91238485D01*
X67441771Y-91286104D01*
X67394152Y-91333723D01*
X67346533Y-91428961D01*
X67346533Y-91619438D01*
X67394152Y-91714676D01*
X67441771Y-91762295D01*
X67537009Y-91809914D01*
X64943980Y-93521019D02*
X64943980Y-92901971D01*
X65324933Y-93235304D01*
X65324933Y-93092447D01*
X65372552Y-92997209D01*
X65420171Y-92949590D01*
X65515409Y-92901971D01*
X65753504Y-92901971D01*
X65848742Y-92949590D01*
X65896361Y-92997209D01*
X65943980Y-93092447D01*
X65943980Y-93378161D01*
X65896361Y-93473400D01*
X65848742Y-93521019D01*
X65848742Y-92473400D02*
X65896361Y-92425780D01*
X65943980Y-92473400D01*
X65896361Y-92521019D01*
X65848742Y-92473400D01*
X65943980Y-92473400D01*
X65943980Y-91949590D02*
X65943980Y-91759114D01*
X65896361Y-91663876D01*
X65848742Y-91616257D01*
X65705885Y-91521019D01*
X65515409Y-91473400D01*
X65134457Y-91473400D01*
X65039219Y-91521019D01*
X64991600Y-91568638D01*
X64943980Y-91663876D01*
X64943980Y-91854352D01*
X64991600Y-91949590D01*
X65039219Y-91997209D01*
X65134457Y-92044828D01*
X65372552Y-92044828D01*
X65467790Y-91997209D01*
X65515409Y-91949590D01*
X65563028Y-91854352D01*
X65563028Y-91663876D01*
X65515409Y-91568638D01*
X65467790Y-91521019D01*
X65372552Y-91473400D01*
X65943980Y-91044828D02*
X64943980Y-91044828D01*
X65943980Y-90473400D02*
X65372552Y-90901971D01*
X64943980Y-90473400D02*
X65515409Y-91044828D01*
G04 #@! TO.C,U2*
X198072380Y-165861904D02*
X198881904Y-165861904D01*
X198977142Y-165814285D01*
X199024761Y-165766666D01*
X199072380Y-165671428D01*
X199072380Y-165480952D01*
X199024761Y-165385714D01*
X198977142Y-165338095D01*
X198881904Y-165290476D01*
X198072380Y-165290476D01*
X198167619Y-164861904D02*
X198120000Y-164814285D01*
X198072380Y-164719047D01*
X198072380Y-164480952D01*
X198120000Y-164385714D01*
X198167619Y-164338095D01*
X198262857Y-164290476D01*
X198358095Y-164290476D01*
X198500952Y-164338095D01*
X199072380Y-164909523D01*
X199072380Y-164290476D01*
X212177142Y-163377142D02*
X212177142Y-164805714D01*
X209177142Y-164805714D01*
X212034285Y-162520000D02*
X212177142Y-162091428D01*
X212177142Y-161377142D01*
X212034285Y-161091428D01*
X211891428Y-160948571D01*
X211605714Y-160805714D01*
X211320000Y-160805714D01*
X211034285Y-160948571D01*
X210891428Y-161091428D01*
X210748571Y-161377142D01*
X210605714Y-161948571D01*
X210462857Y-162234285D01*
X210320000Y-162377142D01*
X210034285Y-162520000D01*
X209748571Y-162520000D01*
X209462857Y-162377142D01*
X209320000Y-162234285D01*
X209177142Y-161948571D01*
X209177142Y-161234285D01*
X209320000Y-160805714D01*
X209177142Y-158948571D02*
X209177142Y-158662857D01*
X209320000Y-158377142D01*
X209462857Y-158234285D01*
X209748571Y-158091428D01*
X210320000Y-157948571D01*
X211034285Y-157948571D01*
X211605714Y-158091428D01*
X211891428Y-158234285D01*
X212034285Y-158377142D01*
X212177142Y-158662857D01*
X212177142Y-158948571D01*
X212034285Y-159234285D01*
X211891428Y-159377142D01*
X211605714Y-159520000D01*
X211034285Y-159662857D01*
X210320000Y-159662857D01*
X209748571Y-159520000D01*
X209462857Y-159377142D01*
X209320000Y-159234285D01*
X209177142Y-158948571D01*
X210177142Y-155377142D02*
X212177142Y-155377142D01*
X209034285Y-156091428D02*
X211177142Y-156805714D01*
X211177142Y-154948571D01*
G04 #@! TO.C,U6*
X76152380Y-165861904D02*
X76961904Y-165861904D01*
X77057142Y-165814285D01*
X77104761Y-165766666D01*
X77152380Y-165671428D01*
X77152380Y-165480952D01*
X77104761Y-165385714D01*
X77057142Y-165338095D01*
X76961904Y-165290476D01*
X76152380Y-165290476D01*
X76152380Y-164385714D02*
X76152380Y-164576190D01*
X76200000Y-164671428D01*
X76247619Y-164719047D01*
X76390476Y-164814285D01*
X76580952Y-164861904D01*
X76961904Y-164861904D01*
X77057142Y-164814285D01*
X77104761Y-164766666D01*
X77152380Y-164671428D01*
X77152380Y-164480952D01*
X77104761Y-164385714D01*
X77057142Y-164338095D01*
X76961904Y-164290476D01*
X76723809Y-164290476D01*
X76628571Y-164338095D01*
X76580952Y-164385714D01*
X76533333Y-164480952D01*
X76533333Y-164671428D01*
X76580952Y-164766666D01*
X76628571Y-164814285D01*
X76723809Y-164861904D01*
X90257142Y-163377142D02*
X90257142Y-164805714D01*
X87257142Y-164805714D01*
X90114285Y-162520000D02*
X90257142Y-162091428D01*
X90257142Y-161377142D01*
X90114285Y-161091428D01*
X89971428Y-160948571D01*
X89685714Y-160805714D01*
X89400000Y-160805714D01*
X89114285Y-160948571D01*
X88971428Y-161091428D01*
X88828571Y-161377142D01*
X88685714Y-161948571D01*
X88542857Y-162234285D01*
X88400000Y-162377142D01*
X88114285Y-162520000D01*
X87828571Y-162520000D01*
X87542857Y-162377142D01*
X87400000Y-162234285D01*
X87257142Y-161948571D01*
X87257142Y-161234285D01*
X87400000Y-160805714D01*
X87257142Y-158948571D02*
X87257142Y-158662857D01*
X87400000Y-158377142D01*
X87542857Y-158234285D01*
X87828571Y-158091428D01*
X88400000Y-157948571D01*
X89114285Y-157948571D01*
X89685714Y-158091428D01*
X89971428Y-158234285D01*
X90114285Y-158377142D01*
X90257142Y-158662857D01*
X90257142Y-158948571D01*
X90114285Y-159234285D01*
X89971428Y-159377142D01*
X89685714Y-159520000D01*
X89114285Y-159662857D01*
X88400000Y-159662857D01*
X87828571Y-159520000D01*
X87542857Y-159377142D01*
X87400000Y-159234285D01*
X87257142Y-158948571D01*
X88257142Y-155377142D02*
X90257142Y-155377142D01*
X87114285Y-156091428D02*
X89257142Y-156805714D01*
X89257142Y-154948571D01*
G04 #@! TO.C,U9*
X198072380Y-102361904D02*
X198881904Y-102361904D01*
X198977142Y-102314285D01*
X199024761Y-102266666D01*
X199072380Y-102171428D01*
X199072380Y-101980952D01*
X199024761Y-101885714D01*
X198977142Y-101838095D01*
X198881904Y-101790476D01*
X198072380Y-101790476D01*
X199072380Y-101266666D02*
X199072380Y-101076190D01*
X199024761Y-100980952D01*
X198977142Y-100933333D01*
X198834285Y-100838095D01*
X198643809Y-100790476D01*
X198262857Y-100790476D01*
X198167619Y-100838095D01*
X198120000Y-100885714D01*
X198072380Y-100980952D01*
X198072380Y-101171428D01*
X198120000Y-101266666D01*
X198167619Y-101314285D01*
X198262857Y-101361904D01*
X198500952Y-101361904D01*
X198596190Y-101314285D01*
X198643809Y-101266666D01*
X198691428Y-101171428D01*
X198691428Y-100980952D01*
X198643809Y-100885714D01*
X198596190Y-100838095D01*
X198500952Y-100790476D01*
X212177142Y-99877142D02*
X212177142Y-101305714D01*
X209177142Y-101305714D01*
X212034285Y-99020000D02*
X212177142Y-98591428D01*
X212177142Y-97877142D01*
X212034285Y-97591428D01*
X211891428Y-97448571D01*
X211605714Y-97305714D01*
X211320000Y-97305714D01*
X211034285Y-97448571D01*
X210891428Y-97591428D01*
X210748571Y-97877142D01*
X210605714Y-98448571D01*
X210462857Y-98734285D01*
X210320000Y-98877142D01*
X210034285Y-99020000D01*
X209748571Y-99020000D01*
X209462857Y-98877142D01*
X209320000Y-98734285D01*
X209177142Y-98448571D01*
X209177142Y-97734285D01*
X209320000Y-97305714D01*
X209177142Y-95448571D02*
X209177142Y-95162857D01*
X209320000Y-94877142D01*
X209462857Y-94734285D01*
X209748571Y-94591428D01*
X210320000Y-94448571D01*
X211034285Y-94448571D01*
X211605714Y-94591428D01*
X211891428Y-94734285D01*
X212034285Y-94877142D01*
X212177142Y-95162857D01*
X212177142Y-95448571D01*
X212034285Y-95734285D01*
X211891428Y-95877142D01*
X211605714Y-96020000D01*
X211034285Y-96162857D01*
X210320000Y-96162857D01*
X209748571Y-96020000D01*
X209462857Y-95877142D01*
X209320000Y-95734285D01*
X209177142Y-95448571D01*
X210177142Y-91877142D02*
X212177142Y-91877142D01*
X209034285Y-92591428D02*
X211177142Y-93305714D01*
X211177142Y-91448571D01*
G04 #@! TO.C,U10*
X167592380Y-102838095D02*
X168401904Y-102838095D01*
X168497142Y-102790476D01*
X168544761Y-102742857D01*
X168592380Y-102647619D01*
X168592380Y-102457142D01*
X168544761Y-102361904D01*
X168497142Y-102314285D01*
X168401904Y-102266666D01*
X167592380Y-102266666D01*
X168592380Y-101266666D02*
X168592380Y-101838095D01*
X168592380Y-101552380D02*
X167592380Y-101552380D01*
X167735238Y-101647619D01*
X167830476Y-101742857D01*
X167878095Y-101838095D01*
X167592380Y-100647619D02*
X167592380Y-100552380D01*
X167640000Y-100457142D01*
X167687619Y-100409523D01*
X167782857Y-100361904D01*
X167973333Y-100314285D01*
X168211428Y-100314285D01*
X168401904Y-100361904D01*
X168497142Y-100409523D01*
X168544761Y-100457142D01*
X168592380Y-100552380D01*
X168592380Y-100647619D01*
X168544761Y-100742857D01*
X168497142Y-100790476D01*
X168401904Y-100838095D01*
X168211428Y-100885714D01*
X167973333Y-100885714D01*
X167782857Y-100838095D01*
X167687619Y-100790476D01*
X167640000Y-100742857D01*
X167592380Y-100647619D01*
X181697142Y-99877142D02*
X181697142Y-101305714D01*
X178697142Y-101305714D01*
X181554285Y-99020000D02*
X181697142Y-98591428D01*
X181697142Y-97877142D01*
X181554285Y-97591428D01*
X181411428Y-97448571D01*
X181125714Y-97305714D01*
X180840000Y-97305714D01*
X180554285Y-97448571D01*
X180411428Y-97591428D01*
X180268571Y-97877142D01*
X180125714Y-98448571D01*
X179982857Y-98734285D01*
X179840000Y-98877142D01*
X179554285Y-99020000D01*
X179268571Y-99020000D01*
X178982857Y-98877142D01*
X178840000Y-98734285D01*
X178697142Y-98448571D01*
X178697142Y-97734285D01*
X178840000Y-97305714D01*
X178697142Y-95448571D02*
X178697142Y-95162857D01*
X178840000Y-94877142D01*
X178982857Y-94734285D01*
X179268571Y-94591428D01*
X179840000Y-94448571D01*
X180554285Y-94448571D01*
X181125714Y-94591428D01*
X181411428Y-94734285D01*
X181554285Y-94877142D01*
X181697142Y-95162857D01*
X181697142Y-95448571D01*
X181554285Y-95734285D01*
X181411428Y-95877142D01*
X181125714Y-96020000D01*
X180554285Y-96162857D01*
X179840000Y-96162857D01*
X179268571Y-96020000D01*
X178982857Y-95877142D01*
X178840000Y-95734285D01*
X178697142Y-95448571D01*
X179697142Y-91877142D02*
X181697142Y-91877142D01*
X178554285Y-92591428D02*
X180697142Y-93305714D01*
X180697142Y-91448571D01*
G04 #@! TO.C,C1*
X242383333Y-28127142D02*
X242335714Y-28174761D01*
X242192857Y-28222380D01*
X242097619Y-28222380D01*
X241954761Y-28174761D01*
X241859523Y-28079523D01*
X241811904Y-27984285D01*
X241764285Y-27793809D01*
X241764285Y-27650952D01*
X241811904Y-27460476D01*
X241859523Y-27365238D01*
X241954761Y-27270000D01*
X242097619Y-27222380D01*
X242192857Y-27222380D01*
X242335714Y-27270000D01*
X242383333Y-27317619D01*
X243335714Y-28222380D02*
X242764285Y-28222380D01*
X243050000Y-28222380D02*
X243050000Y-27222380D01*
X242954761Y-27365238D01*
X242859523Y-27460476D01*
X242764285Y-27508095D01*
X241811904Y-37722380D02*
X241621428Y-37722380D01*
X241526190Y-37770000D01*
X241478571Y-37817619D01*
X241383333Y-37960476D01*
X241335714Y-38150952D01*
X241335714Y-38531904D01*
X241383333Y-38627142D01*
X241430952Y-38674761D01*
X241526190Y-38722380D01*
X241716666Y-38722380D01*
X241811904Y-38674761D01*
X241859523Y-38627142D01*
X241907142Y-38531904D01*
X241907142Y-38293809D01*
X241859523Y-38198571D01*
X241811904Y-38150952D01*
X241716666Y-38103333D01*
X241526190Y-38103333D01*
X241430952Y-38150952D01*
X241383333Y-38198571D01*
X241335714Y-38293809D01*
X242764285Y-38055714D02*
X242764285Y-38722380D01*
X242335714Y-38055714D02*
X242335714Y-38579523D01*
X242383333Y-38674761D01*
X242478571Y-38722380D01*
X242621428Y-38722380D01*
X242716666Y-38674761D01*
X242764285Y-38627142D01*
X243383333Y-38150952D02*
X243288095Y-38103333D01*
X243240476Y-38055714D01*
X243192857Y-37960476D01*
X243192857Y-37912857D01*
X243240476Y-37817619D01*
X243288095Y-37770000D01*
X243383333Y-37722380D01*
X243573809Y-37722380D01*
X243669047Y-37770000D01*
X243716666Y-37817619D01*
X243764285Y-37912857D01*
X243764285Y-37960476D01*
X243716666Y-38055714D01*
X243669047Y-38103333D01*
X243573809Y-38150952D01*
X243383333Y-38150952D01*
X243288095Y-38198571D01*
X243240476Y-38246190D01*
X243192857Y-38341428D01*
X243192857Y-38531904D01*
X243240476Y-38627142D01*
X243288095Y-38674761D01*
X243383333Y-38722380D01*
X243573809Y-38722380D01*
X243669047Y-38674761D01*
X243716666Y-38627142D01*
X243764285Y-38531904D01*
X243764285Y-38341428D01*
X243716666Y-38246190D01*
X243669047Y-38198571D01*
X243573809Y-38150952D01*
G04 #@! TO.C,C2*
X229683333Y-28127142D02*
X229635714Y-28174761D01*
X229492857Y-28222380D01*
X229397619Y-28222380D01*
X229254761Y-28174761D01*
X229159523Y-28079523D01*
X229111904Y-27984285D01*
X229064285Y-27793809D01*
X229064285Y-27650952D01*
X229111904Y-27460476D01*
X229159523Y-27365238D01*
X229254761Y-27270000D01*
X229397619Y-27222380D01*
X229492857Y-27222380D01*
X229635714Y-27270000D01*
X229683333Y-27317619D01*
X230064285Y-27317619D02*
X230111904Y-27270000D01*
X230207142Y-27222380D01*
X230445238Y-27222380D01*
X230540476Y-27270000D01*
X230588095Y-27317619D01*
X230635714Y-27412857D01*
X230635714Y-27508095D01*
X230588095Y-27650952D01*
X230016666Y-28222380D01*
X230635714Y-28222380D01*
X229111904Y-37722380D02*
X228921428Y-37722380D01*
X228826190Y-37770000D01*
X228778571Y-37817619D01*
X228683333Y-37960476D01*
X228635714Y-38150952D01*
X228635714Y-38531904D01*
X228683333Y-38627142D01*
X228730952Y-38674761D01*
X228826190Y-38722380D01*
X229016666Y-38722380D01*
X229111904Y-38674761D01*
X229159523Y-38627142D01*
X229207142Y-38531904D01*
X229207142Y-38293809D01*
X229159523Y-38198571D01*
X229111904Y-38150952D01*
X229016666Y-38103333D01*
X228826190Y-38103333D01*
X228730952Y-38150952D01*
X228683333Y-38198571D01*
X228635714Y-38293809D01*
X230064285Y-38055714D02*
X230064285Y-38722380D01*
X229635714Y-38055714D02*
X229635714Y-38579523D01*
X229683333Y-38674761D01*
X229778571Y-38722380D01*
X229921428Y-38722380D01*
X230016666Y-38674761D01*
X230064285Y-38627142D01*
X230683333Y-38150952D02*
X230588095Y-38103333D01*
X230540476Y-38055714D01*
X230492857Y-37960476D01*
X230492857Y-37912857D01*
X230540476Y-37817619D01*
X230588095Y-37770000D01*
X230683333Y-37722380D01*
X230873809Y-37722380D01*
X230969047Y-37770000D01*
X231016666Y-37817619D01*
X231064285Y-37912857D01*
X231064285Y-37960476D01*
X231016666Y-38055714D01*
X230969047Y-38103333D01*
X230873809Y-38150952D01*
X230683333Y-38150952D01*
X230588095Y-38198571D01*
X230540476Y-38246190D01*
X230492857Y-38341428D01*
X230492857Y-38531904D01*
X230540476Y-38627142D01*
X230588095Y-38674761D01*
X230683333Y-38722380D01*
X230873809Y-38722380D01*
X230969047Y-38674761D01*
X231016666Y-38627142D01*
X231064285Y-38531904D01*
X231064285Y-38341428D01*
X231016666Y-38246190D01*
X230969047Y-38198571D01*
X230873809Y-38150952D01*
G04 #@! TO.C,R1*
X218471380Y-92343266D02*
X217995190Y-92676600D01*
X218471380Y-92914695D02*
X217471380Y-92914695D01*
X217471380Y-92533742D01*
X217519000Y-92438504D01*
X217566619Y-92390885D01*
X217661857Y-92343266D01*
X217804714Y-92343266D01*
X217899952Y-92390885D01*
X217947571Y-92438504D01*
X217995190Y-92533742D01*
X217995190Y-92914695D01*
X218471380Y-91390885D02*
X218471380Y-91962314D01*
X218471380Y-91676600D02*
X217471380Y-91676600D01*
X217614238Y-91771838D01*
X217709476Y-91867076D01*
X217757095Y-91962314D01*
X221311380Y-93724219D02*
X221311380Y-93105171D01*
X221692333Y-93438504D01*
X221692333Y-93295647D01*
X221739952Y-93200409D01*
X221787571Y-93152790D01*
X221882809Y-93105171D01*
X222120904Y-93105171D01*
X222216142Y-93152790D01*
X222263761Y-93200409D01*
X222311380Y-93295647D01*
X222311380Y-93581361D01*
X222263761Y-93676600D01*
X222216142Y-93724219D01*
X222216142Y-92676600D02*
X222263761Y-92628980D01*
X222311380Y-92676600D01*
X222263761Y-92724219D01*
X222216142Y-92676600D01*
X222311380Y-92676600D01*
X222311380Y-92152790D02*
X222311380Y-91962314D01*
X222263761Y-91867076D01*
X222216142Y-91819457D01*
X222073285Y-91724219D01*
X221882809Y-91676600D01*
X221501857Y-91676600D01*
X221406619Y-91724219D01*
X221359000Y-91771838D01*
X221311380Y-91867076D01*
X221311380Y-92057552D01*
X221359000Y-92152790D01*
X221406619Y-92200409D01*
X221501857Y-92248028D01*
X221739952Y-92248028D01*
X221835190Y-92200409D01*
X221882809Y-92152790D01*
X221930428Y-92057552D01*
X221930428Y-91867076D01*
X221882809Y-91771838D01*
X221835190Y-91724219D01*
X221739952Y-91676600D01*
X222311380Y-91248028D02*
X221311380Y-91248028D01*
X222311380Y-90676600D02*
X221739952Y-91105171D01*
X221311380Y-90676600D02*
X221882809Y-91248028D01*
G04 #@! TO.C,R2*
X218902380Y-152642666D02*
X218426190Y-152976000D01*
X218902380Y-153214095D02*
X217902380Y-153214095D01*
X217902380Y-152833142D01*
X217950000Y-152737904D01*
X217997619Y-152690285D01*
X218092857Y-152642666D01*
X218235714Y-152642666D01*
X218330952Y-152690285D01*
X218378571Y-152737904D01*
X218426190Y-152833142D01*
X218426190Y-153214095D01*
X217997619Y-152261714D02*
X217950000Y-152214095D01*
X217902380Y-152118857D01*
X217902380Y-151880761D01*
X217950000Y-151785523D01*
X217997619Y-151737904D01*
X218092857Y-151690285D01*
X218188095Y-151690285D01*
X218330952Y-151737904D01*
X218902380Y-152309333D01*
X218902380Y-151690285D01*
X221742380Y-154023619D02*
X221742380Y-153404571D01*
X222123333Y-153737904D01*
X222123333Y-153595047D01*
X222170952Y-153499809D01*
X222218571Y-153452190D01*
X222313809Y-153404571D01*
X222551904Y-153404571D01*
X222647142Y-153452190D01*
X222694761Y-153499809D01*
X222742380Y-153595047D01*
X222742380Y-153880761D01*
X222694761Y-153976000D01*
X222647142Y-154023619D01*
X222647142Y-152976000D02*
X222694761Y-152928380D01*
X222742380Y-152976000D01*
X222694761Y-153023619D01*
X222647142Y-152976000D01*
X222742380Y-152976000D01*
X222742380Y-152452190D02*
X222742380Y-152261714D01*
X222694761Y-152166476D01*
X222647142Y-152118857D01*
X222504285Y-152023619D01*
X222313809Y-151976000D01*
X221932857Y-151976000D01*
X221837619Y-152023619D01*
X221790000Y-152071238D01*
X221742380Y-152166476D01*
X221742380Y-152356952D01*
X221790000Y-152452190D01*
X221837619Y-152499809D01*
X221932857Y-152547428D01*
X222170952Y-152547428D01*
X222266190Y-152499809D01*
X222313809Y-152452190D01*
X222361428Y-152356952D01*
X222361428Y-152166476D01*
X222313809Y-152071238D01*
X222266190Y-152023619D01*
X222170952Y-151976000D01*
X222742380Y-151547428D02*
X221742380Y-151547428D01*
X222742380Y-150976000D02*
X222170952Y-151404571D01*
X221742380Y-150976000D02*
X222313809Y-151547428D01*
G04 #@! TD*
M02*
