G04 #@! TF.GenerationSoftware,KiCad,Pcbnew,(5.1.6)-1*
G04 #@! TF.CreationDate,2020-08-15T15:38:21+01:00*
G04 #@! TF.ProjectId,Sockets,536f636b-6574-4732-9e6b-696361645f70,rev?*
G04 #@! TF.SameCoordinates,Original*
G04 #@! TF.FileFunction,Legend,Top*
G04 #@! TF.FilePolarity,Positive*
%FSLAX46Y46*%
G04 Gerber Fmt 4.6, Leading zero omitted, Abs format (unit mm)*
G04 Created by KiCad (PCBNEW (5.1.6)-1) date 2020-08-15 15:38:21*
%MOMM*%
%LPD*%
G01*
G04 APERTURE LIST*
%ADD10C,0.120000*%
%ADD11C,0.150000*%
G04 APERTURE END LIST*
D10*
X92210000Y-126130000D02*
X92710000Y-127130000D01*
X93210000Y-126130000D02*
X92210000Y-126130000D01*
X92710000Y-127130000D02*
X93210000Y-126130000D01*
X79230000Y-128830000D02*
X79230000Y-127520000D01*
X79230000Y-128830000D02*
X79230000Y-128830000D01*
X65940000Y-128830000D02*
X79230000Y-128830000D01*
X65940000Y-135330000D02*
X65940000Y-128830000D01*
X96620000Y-135330000D02*
X65940000Y-135330000D01*
X96620000Y-128830000D02*
X96620000Y-135330000D01*
X83330000Y-128830000D02*
X96620000Y-128830000D01*
X83330000Y-127520000D02*
X83330000Y-128830000D01*
X64640000Y-127520000D02*
X97920000Y-127520000D01*
X64640000Y-136640000D02*
X64640000Y-127520000D01*
X97920000Y-136640000D02*
X64640000Y-136640000D01*
X97920000Y-127520000D02*
X97920000Y-136640000D01*
X89400000Y-71990000D02*
X88900000Y-70990000D01*
X88400000Y-71990000D02*
X89400000Y-71990000D01*
X88900000Y-70990000D02*
X88400000Y-71990000D01*
X102380000Y-69290000D02*
X102380000Y-70600000D01*
X102380000Y-69290000D02*
X102380000Y-69290000D01*
X115670000Y-69290000D02*
X102380000Y-69290000D01*
X115670000Y-62790000D02*
X115670000Y-69290000D01*
X84990000Y-62790000D02*
X115670000Y-62790000D01*
X84990000Y-69290000D02*
X84990000Y-62790000D01*
X98280000Y-69290000D02*
X84990000Y-69290000D01*
X98280000Y-70600000D02*
X98280000Y-69290000D01*
X116970000Y-70600000D02*
X83690000Y-70600000D01*
X116970000Y-61480000D02*
X116970000Y-70600000D01*
X83690000Y-61480000D02*
X116970000Y-61480000D01*
X83690000Y-70600000D02*
X83690000Y-61480000D01*
X136020000Y-127520000D02*
X136020000Y-136640000D01*
X136020000Y-136640000D02*
X102740000Y-136640000D01*
X102740000Y-136640000D02*
X102740000Y-127520000D01*
X102740000Y-127520000D02*
X136020000Y-127520000D01*
X121430000Y-127520000D02*
X121430000Y-128830000D01*
X121430000Y-128830000D02*
X134720000Y-128830000D01*
X134720000Y-128830000D02*
X134720000Y-135330000D01*
X134720000Y-135330000D02*
X104040000Y-135330000D01*
X104040000Y-135330000D02*
X104040000Y-128830000D01*
X104040000Y-128830000D02*
X117330000Y-128830000D01*
X117330000Y-128830000D02*
X117330000Y-128830000D01*
X117330000Y-128830000D02*
X117330000Y-127520000D01*
X130810000Y-127130000D02*
X131310000Y-126130000D01*
X131310000Y-126130000D02*
X130310000Y-126130000D01*
X130310000Y-126130000D02*
X130810000Y-127130000D01*
X165600000Y-71990000D02*
X165100000Y-70990000D01*
X164600000Y-71990000D02*
X165600000Y-71990000D01*
X165100000Y-70990000D02*
X164600000Y-71990000D01*
X178580000Y-69290000D02*
X178580000Y-70600000D01*
X178580000Y-69290000D02*
X178580000Y-69290000D01*
X191870000Y-69290000D02*
X178580000Y-69290000D01*
X191870000Y-62790000D02*
X191870000Y-69290000D01*
X161190000Y-62790000D02*
X191870000Y-62790000D01*
X161190000Y-69290000D02*
X161190000Y-62790000D01*
X174480000Y-69290000D02*
X161190000Y-69290000D01*
X174480000Y-70600000D02*
X174480000Y-69290000D01*
X193170000Y-70600000D02*
X159890000Y-70600000D01*
X193170000Y-61480000D02*
X193170000Y-70600000D01*
X159890000Y-61480000D02*
X193170000Y-61480000D01*
X159890000Y-70600000D02*
X159890000Y-61480000D01*
X121790000Y-70600000D02*
X121790000Y-61480000D01*
X121790000Y-61480000D02*
X155070000Y-61480000D01*
X155070000Y-61480000D02*
X155070000Y-70600000D01*
X155070000Y-70600000D02*
X121790000Y-70600000D01*
X136380000Y-70600000D02*
X136380000Y-69290000D01*
X136380000Y-69290000D02*
X123090000Y-69290000D01*
X123090000Y-69290000D02*
X123090000Y-62790000D01*
X123090000Y-62790000D02*
X153770000Y-62790000D01*
X153770000Y-62790000D02*
X153770000Y-69290000D01*
X153770000Y-69290000D02*
X140480000Y-69290000D01*
X140480000Y-69290000D02*
X140480000Y-69290000D01*
X140480000Y-69290000D02*
X140480000Y-70600000D01*
X127000000Y-70990000D02*
X126500000Y-71990000D01*
X126500000Y-71990000D02*
X127500000Y-71990000D01*
X127500000Y-71990000D02*
X127000000Y-70990000D01*
X168410000Y-126130000D02*
X168910000Y-127130000D01*
X169410000Y-126130000D02*
X168410000Y-126130000D01*
X168910000Y-127130000D02*
X169410000Y-126130000D01*
X155430000Y-128830000D02*
X155430000Y-127520000D01*
X155430000Y-128830000D02*
X155430000Y-128830000D01*
X142140000Y-128830000D02*
X155430000Y-128830000D01*
X142140000Y-135330000D02*
X142140000Y-128830000D01*
X172820000Y-135330000D02*
X142140000Y-135330000D01*
X172820000Y-128830000D02*
X172820000Y-135330000D01*
X159530000Y-128830000D02*
X172820000Y-128830000D01*
X159530000Y-127520000D02*
X159530000Y-128830000D01*
X140840000Y-127520000D02*
X174120000Y-127520000D01*
X140840000Y-136640000D02*
X140840000Y-127520000D01*
X174120000Y-136640000D02*
X140840000Y-136640000D01*
X174120000Y-127520000D02*
X174120000Y-136640000D01*
X197990000Y-70600000D02*
X197990000Y-61480000D01*
X197990000Y-61480000D02*
X231270000Y-61480000D01*
X231270000Y-61480000D02*
X231270000Y-70600000D01*
X231270000Y-70600000D02*
X197990000Y-70600000D01*
X212580000Y-70600000D02*
X212580000Y-69290000D01*
X212580000Y-69290000D02*
X199290000Y-69290000D01*
X199290000Y-69290000D02*
X199290000Y-62790000D01*
X199290000Y-62790000D02*
X229970000Y-62790000D01*
X229970000Y-62790000D02*
X229970000Y-69290000D01*
X229970000Y-69290000D02*
X216680000Y-69290000D01*
X216680000Y-69290000D02*
X216680000Y-69290000D01*
X216680000Y-69290000D02*
X216680000Y-70600000D01*
X203200000Y-70990000D02*
X202700000Y-71990000D01*
X202700000Y-71990000D02*
X203700000Y-71990000D01*
X203700000Y-71990000D02*
X203200000Y-70990000D01*
X221750000Y-126130000D02*
X222250000Y-127130000D01*
X222750000Y-126130000D02*
X221750000Y-126130000D01*
X222250000Y-127130000D02*
X222750000Y-126130000D01*
X217660000Y-128830000D02*
X217660000Y-127520000D01*
X217660000Y-128830000D02*
X217660000Y-128830000D01*
X213260000Y-128830000D02*
X217660000Y-128830000D01*
X213260000Y-135330000D02*
X213260000Y-128830000D01*
X226160000Y-135330000D02*
X213260000Y-135330000D01*
X226160000Y-128830000D02*
X226160000Y-135330000D01*
X221760000Y-128830000D02*
X226160000Y-128830000D01*
X221760000Y-127520000D02*
X221760000Y-128830000D01*
X211960000Y-127520000D02*
X227460000Y-127520000D01*
X211960000Y-136640000D02*
X211960000Y-127520000D01*
X227460000Y-136640000D02*
X211960000Y-136640000D01*
X227460000Y-127520000D02*
X227460000Y-136640000D01*
D11*
X98262380Y-134865714D02*
X98976666Y-134865714D01*
X99119523Y-134913333D01*
X99214761Y-135008571D01*
X99262380Y-135151428D01*
X99262380Y-135246666D01*
X99214761Y-134437142D02*
X99262380Y-134294285D01*
X99262380Y-134056190D01*
X99214761Y-133960952D01*
X99167142Y-133913333D01*
X99071904Y-133865714D01*
X98976666Y-133865714D01*
X98881428Y-133913333D01*
X98833809Y-133960952D01*
X98786190Y-134056190D01*
X98738571Y-134246666D01*
X98690952Y-134341904D01*
X98643333Y-134389523D01*
X98548095Y-134437142D01*
X98452857Y-134437142D01*
X98357619Y-134389523D01*
X98310000Y-134341904D01*
X98262380Y-134246666D01*
X98262380Y-134008571D01*
X98310000Y-133865714D01*
X99262380Y-133437142D02*
X98262380Y-133437142D01*
X99262380Y-132865714D02*
X98690952Y-133294285D01*
X98262380Y-132865714D02*
X98833809Y-133437142D01*
X98262380Y-132580000D02*
X98262380Y-132008571D01*
X99262380Y-132294285D02*
X98262380Y-132294285D01*
X99262380Y-131151428D02*
X99262380Y-131722857D01*
X99262380Y-131437142D02*
X98262380Y-131437142D01*
X98405238Y-131532380D01*
X98500476Y-131627619D01*
X98548095Y-131722857D01*
X98881428Y-130722857D02*
X98881428Y-129960952D01*
X99262380Y-128960952D02*
X99262380Y-129532380D01*
X99262380Y-129246666D02*
X98262380Y-129246666D01*
X98405238Y-129341904D01*
X98500476Y-129437142D01*
X98548095Y-129532380D01*
X82252380Y-68825714D02*
X82966666Y-68825714D01*
X83109523Y-68873333D01*
X83204761Y-68968571D01*
X83252380Y-69111428D01*
X83252380Y-69206666D01*
X83204761Y-68397142D02*
X83252380Y-68254285D01*
X83252380Y-68016190D01*
X83204761Y-67920952D01*
X83157142Y-67873333D01*
X83061904Y-67825714D01*
X82966666Y-67825714D01*
X82871428Y-67873333D01*
X82823809Y-67920952D01*
X82776190Y-68016190D01*
X82728571Y-68206666D01*
X82680952Y-68301904D01*
X82633333Y-68349523D01*
X82538095Y-68397142D01*
X82442857Y-68397142D01*
X82347619Y-68349523D01*
X82300000Y-68301904D01*
X82252380Y-68206666D01*
X82252380Y-67968571D01*
X82300000Y-67825714D01*
X83252380Y-67397142D02*
X82252380Y-67397142D01*
X83252380Y-66825714D02*
X82680952Y-67254285D01*
X82252380Y-66825714D02*
X82823809Y-67397142D01*
X82252380Y-66540000D02*
X82252380Y-65968571D01*
X83252380Y-66254285D02*
X82252380Y-66254285D01*
X83252380Y-65111428D02*
X83252380Y-65682857D01*
X83252380Y-65397142D02*
X82252380Y-65397142D01*
X82395238Y-65492380D01*
X82490476Y-65587619D01*
X82538095Y-65682857D01*
X82871428Y-64682857D02*
X82871428Y-63920952D01*
X82347619Y-63492380D02*
X82300000Y-63444761D01*
X82252380Y-63349523D01*
X82252380Y-63111428D01*
X82300000Y-63016190D01*
X82347619Y-62968571D01*
X82442857Y-62920952D01*
X82538095Y-62920952D01*
X82680952Y-62968571D01*
X83252380Y-63540000D01*
X83252380Y-62920952D01*
X136362380Y-134865714D02*
X137076666Y-134865714D01*
X137219523Y-134913333D01*
X137314761Y-135008571D01*
X137362380Y-135151428D01*
X137362380Y-135246666D01*
X137314761Y-134437142D02*
X137362380Y-134294285D01*
X137362380Y-134056190D01*
X137314761Y-133960952D01*
X137267142Y-133913333D01*
X137171904Y-133865714D01*
X137076666Y-133865714D01*
X136981428Y-133913333D01*
X136933809Y-133960952D01*
X136886190Y-134056190D01*
X136838571Y-134246666D01*
X136790952Y-134341904D01*
X136743333Y-134389523D01*
X136648095Y-134437142D01*
X136552857Y-134437142D01*
X136457619Y-134389523D01*
X136410000Y-134341904D01*
X136362380Y-134246666D01*
X136362380Y-134008571D01*
X136410000Y-133865714D01*
X137362380Y-133437142D02*
X136362380Y-133437142D01*
X137362380Y-132865714D02*
X136790952Y-133294285D01*
X136362380Y-132865714D02*
X136933809Y-133437142D01*
X136362380Y-132580000D02*
X136362380Y-132008571D01*
X137362380Y-132294285D02*
X136362380Y-132294285D01*
X137362380Y-131151428D02*
X137362380Y-131722857D01*
X137362380Y-131437142D02*
X136362380Y-131437142D01*
X136505238Y-131532380D01*
X136600476Y-131627619D01*
X136648095Y-131722857D01*
X136981428Y-130722857D02*
X136981428Y-129960952D01*
X136362380Y-129580000D02*
X136362380Y-128960952D01*
X136743333Y-129294285D01*
X136743333Y-129151428D01*
X136790952Y-129056190D01*
X136838571Y-129008571D01*
X136933809Y-128960952D01*
X137171904Y-128960952D01*
X137267142Y-129008571D01*
X137314761Y-129056190D01*
X137362380Y-129151428D01*
X137362380Y-129437142D01*
X137314761Y-129532380D01*
X137267142Y-129580000D01*
X158452380Y-68825714D02*
X159166666Y-68825714D01*
X159309523Y-68873333D01*
X159404761Y-68968571D01*
X159452380Y-69111428D01*
X159452380Y-69206666D01*
X159404761Y-68397142D02*
X159452380Y-68254285D01*
X159452380Y-68016190D01*
X159404761Y-67920952D01*
X159357142Y-67873333D01*
X159261904Y-67825714D01*
X159166666Y-67825714D01*
X159071428Y-67873333D01*
X159023809Y-67920952D01*
X158976190Y-68016190D01*
X158928571Y-68206666D01*
X158880952Y-68301904D01*
X158833333Y-68349523D01*
X158738095Y-68397142D01*
X158642857Y-68397142D01*
X158547619Y-68349523D01*
X158500000Y-68301904D01*
X158452380Y-68206666D01*
X158452380Y-67968571D01*
X158500000Y-67825714D01*
X159452380Y-67397142D02*
X158452380Y-67397142D01*
X159452380Y-66825714D02*
X158880952Y-67254285D01*
X158452380Y-66825714D02*
X159023809Y-67397142D01*
X158452380Y-66540000D02*
X158452380Y-65968571D01*
X159452380Y-66254285D02*
X158452380Y-66254285D01*
X158547619Y-65682857D02*
X158500000Y-65635238D01*
X158452380Y-65540000D01*
X158452380Y-65301904D01*
X158500000Y-65206666D01*
X158547619Y-65159047D01*
X158642857Y-65111428D01*
X158738095Y-65111428D01*
X158880952Y-65159047D01*
X159452380Y-65730476D01*
X159452380Y-65111428D01*
X159071428Y-64682857D02*
X159071428Y-63920952D01*
X159452380Y-62920952D02*
X159452380Y-63492380D01*
X159452380Y-63206666D02*
X158452380Y-63206666D01*
X158595238Y-63301904D01*
X158690476Y-63397142D01*
X158738095Y-63492380D01*
X120352380Y-68825714D02*
X121066666Y-68825714D01*
X121209523Y-68873333D01*
X121304761Y-68968571D01*
X121352380Y-69111428D01*
X121352380Y-69206666D01*
X121304761Y-68397142D02*
X121352380Y-68254285D01*
X121352380Y-68016190D01*
X121304761Y-67920952D01*
X121257142Y-67873333D01*
X121161904Y-67825714D01*
X121066666Y-67825714D01*
X120971428Y-67873333D01*
X120923809Y-67920952D01*
X120876190Y-68016190D01*
X120828571Y-68206666D01*
X120780952Y-68301904D01*
X120733333Y-68349523D01*
X120638095Y-68397142D01*
X120542857Y-68397142D01*
X120447619Y-68349523D01*
X120400000Y-68301904D01*
X120352380Y-68206666D01*
X120352380Y-67968571D01*
X120400000Y-67825714D01*
X121352380Y-67397142D02*
X120352380Y-67397142D01*
X121352380Y-66825714D02*
X120780952Y-67254285D01*
X120352380Y-66825714D02*
X120923809Y-67397142D01*
X120352380Y-66540000D02*
X120352380Y-65968571D01*
X121352380Y-66254285D02*
X120352380Y-66254285D01*
X120447619Y-65682857D02*
X120400000Y-65635238D01*
X120352380Y-65540000D01*
X120352380Y-65301904D01*
X120400000Y-65206666D01*
X120447619Y-65159047D01*
X120542857Y-65111428D01*
X120638095Y-65111428D01*
X120780952Y-65159047D01*
X121352380Y-65730476D01*
X121352380Y-65111428D01*
X120971428Y-64682857D02*
X120971428Y-63920952D01*
X120447619Y-63492380D02*
X120400000Y-63444761D01*
X120352380Y-63349523D01*
X120352380Y-63111428D01*
X120400000Y-63016190D01*
X120447619Y-62968571D01*
X120542857Y-62920952D01*
X120638095Y-62920952D01*
X120780952Y-62968571D01*
X121352380Y-63540000D01*
X121352380Y-62920952D01*
X174462380Y-134865714D02*
X175176666Y-134865714D01*
X175319523Y-134913333D01*
X175414761Y-135008571D01*
X175462380Y-135151428D01*
X175462380Y-135246666D01*
X175414761Y-134437142D02*
X175462380Y-134294285D01*
X175462380Y-134056190D01*
X175414761Y-133960952D01*
X175367142Y-133913333D01*
X175271904Y-133865714D01*
X175176666Y-133865714D01*
X175081428Y-133913333D01*
X175033809Y-133960952D01*
X174986190Y-134056190D01*
X174938571Y-134246666D01*
X174890952Y-134341904D01*
X174843333Y-134389523D01*
X174748095Y-134437142D01*
X174652857Y-134437142D01*
X174557619Y-134389523D01*
X174510000Y-134341904D01*
X174462380Y-134246666D01*
X174462380Y-134008571D01*
X174510000Y-133865714D01*
X175462380Y-133437142D02*
X174462380Y-133437142D01*
X175462380Y-132865714D02*
X174890952Y-133294285D01*
X174462380Y-132865714D02*
X175033809Y-133437142D01*
X174462380Y-132580000D02*
X174462380Y-132008571D01*
X175462380Y-132294285D02*
X174462380Y-132294285D01*
X174557619Y-131722857D02*
X174510000Y-131675238D01*
X174462380Y-131580000D01*
X174462380Y-131341904D01*
X174510000Y-131246666D01*
X174557619Y-131199047D01*
X174652857Y-131151428D01*
X174748095Y-131151428D01*
X174890952Y-131199047D01*
X175462380Y-131770476D01*
X175462380Y-131151428D01*
X175081428Y-130722857D02*
X175081428Y-129960952D01*
X174462380Y-129580000D02*
X174462380Y-128960952D01*
X174843333Y-129294285D01*
X174843333Y-129151428D01*
X174890952Y-129056190D01*
X174938571Y-129008571D01*
X175033809Y-128960952D01*
X175271904Y-128960952D01*
X175367142Y-129008571D01*
X175414761Y-129056190D01*
X175462380Y-129151428D01*
X175462380Y-129437142D01*
X175414761Y-129532380D01*
X175367142Y-129580000D01*
X196552380Y-68825714D02*
X197266666Y-68825714D01*
X197409523Y-68873333D01*
X197504761Y-68968571D01*
X197552380Y-69111428D01*
X197552380Y-69206666D01*
X197504761Y-68397142D02*
X197552380Y-68254285D01*
X197552380Y-68016190D01*
X197504761Y-67920952D01*
X197457142Y-67873333D01*
X197361904Y-67825714D01*
X197266666Y-67825714D01*
X197171428Y-67873333D01*
X197123809Y-67920952D01*
X197076190Y-68016190D01*
X197028571Y-68206666D01*
X196980952Y-68301904D01*
X196933333Y-68349523D01*
X196838095Y-68397142D01*
X196742857Y-68397142D01*
X196647619Y-68349523D01*
X196600000Y-68301904D01*
X196552380Y-68206666D01*
X196552380Y-67968571D01*
X196600000Y-67825714D01*
X197552380Y-67397142D02*
X196552380Y-67397142D01*
X197552380Y-66825714D02*
X196980952Y-67254285D01*
X196552380Y-66825714D02*
X197123809Y-67397142D01*
X196552380Y-66540000D02*
X196552380Y-65968571D01*
X197552380Y-66254285D02*
X196552380Y-66254285D01*
X196552380Y-65730476D02*
X196552380Y-65111428D01*
X196933333Y-65444761D01*
X196933333Y-65301904D01*
X196980952Y-65206666D01*
X197028571Y-65159047D01*
X197123809Y-65111428D01*
X197361904Y-65111428D01*
X197457142Y-65159047D01*
X197504761Y-65206666D01*
X197552380Y-65301904D01*
X197552380Y-65587619D01*
X197504761Y-65682857D01*
X197457142Y-65730476D01*
X197171428Y-64682857D02*
X197171428Y-63920952D01*
X197552380Y-62920952D02*
X197552380Y-63492380D01*
X197552380Y-63206666D02*
X196552380Y-63206666D01*
X196695238Y-63301904D01*
X196790476Y-63397142D01*
X196838095Y-63492380D01*
X227802380Y-132413333D02*
X228516666Y-132413333D01*
X228659523Y-132460952D01*
X228754761Y-132556190D01*
X228802380Y-132699047D01*
X228802380Y-132794285D01*
X227802380Y-131746666D02*
X227802380Y-131651428D01*
X227850000Y-131556190D01*
X227897619Y-131508571D01*
X227992857Y-131460952D01*
X228183333Y-131413333D01*
X228421428Y-131413333D01*
X228611904Y-131460952D01*
X228707142Y-131508571D01*
X228754761Y-131556190D01*
X228802380Y-131651428D01*
X228802380Y-131746666D01*
X228754761Y-131841904D01*
X228707142Y-131889523D01*
X228611904Y-131937142D01*
X228421428Y-131984761D01*
X228183333Y-131984761D01*
X227992857Y-131937142D01*
X227897619Y-131889523D01*
X227850000Y-131841904D01*
X227802380Y-131746666D01*
M02*
