M48
; DRILL file {KiCad (5.1.6)-1} date 08/15/20 15:37:57
; FORMAT={-:-/ absolute / inch / decimal}
; #@! TF.CreationDate,2020-08-15T15:37:57+01:00
; #@! TF.GenerationSoftware,Kicad,Pcbnew,(5.1.6)-1
; #@! TF.FileFunction,Plated,1,4,PTH
FMAT,2
INCH
T1C0.0157
T2C0.0300
T3C0.0394
%
G90
G05
T1
X4.3783Y-4.3794
X4.4389Y-4.4142
X5.7382Y-3.1281
T2
X7.3382Y-3.9071
X7.3469Y-4.0382
X7.363Y-3.7728
X7.389Y-4.1669
X7.4201Y-3.65
X7.461Y-4.2799
X7.4752Y-3.9831
X7.4819Y-3.8488
X7.5059Y-3.5461
X7.5122Y-4.1122
X7.5331Y-3.724
X7.5598Y-4.372
X7.589Y-4.2201
X7.6071Y-3.9272
X7.615Y-3.4669
X7.6228Y-3.6228
X7.637Y-4.0591
X7.6461Y-3.798
X7.678Y-4.4134
X7.7012Y-4.3
X7.7272Y-4.1598
X7.739Y-3.8961
X7.7402Y-3.4181
X7.7409Y-3.5579
X7.7429Y-3.7039
X7.7689Y-4.0311
X7.8059Y-4.3909
X7.874Y-3.4
X7.874Y-3.535
X7.874Y-3.6701
X7.874Y-3.8051
X7.874Y-3.937
X7.874Y-4.137
X7.874Y-4.2752
X7.9421Y-4.3909
X7.9791Y-4.0311
X8.0051Y-3.7039
X8.0071Y-3.5579
X8.0079Y-3.4181
X8.0091Y-3.8961
X8.0209Y-4.1598
X8.0469Y-4.3
X8.0701Y-4.437
X8.102Y-3.798
X8.111Y-4.0591
X8.1252Y-3.6228
X8.1331Y-3.4669
X8.1409Y-3.9272
X8.1591Y-4.2201
X8.1882Y-4.372
X8.215Y-3.724
X8.2358Y-4.1122
X8.2421Y-3.5461
X8.2661Y-3.8488
X8.2728Y-3.9831
X8.287Y-4.2799
X8.328Y-3.65
X8.3591Y-4.1669
X8.385Y-3.7728
X8.4012Y-4.0382
X8.4098Y-3.9071
X3.4012Y-3.9071
X3.4098Y-4.0382
X3.426Y-3.7728
X3.452Y-4.1669
X3.4831Y-3.65
X3.524Y-4.2799
X3.5382Y-3.9831
X3.5449Y-3.8488
X3.5689Y-3.5461
X3.5752Y-4.1122
X3.5961Y-3.724
X3.6228Y-4.372
X3.652Y-4.2201
X3.6701Y-3.9272
X3.678Y-3.4669
X3.6858Y-3.6228
X3.7Y-4.0591
X3.7091Y-3.798
X3.7409Y-4.4134
X3.7642Y-4.3
X3.7902Y-4.1598
X3.802Y-3.8961
X3.8031Y-3.4181
X3.8039Y-3.5579
X3.8059Y-3.7039
X3.8319Y-4.0311
X3.8689Y-4.3909
X3.937Y-3.4
X3.937Y-3.535
X3.937Y-3.6701
X3.937Y-3.8051
X3.937Y-3.937
X3.937Y-4.137
X3.937Y-4.2752
X4.0051Y-4.3909
X4.0421Y-4.0311
X4.0681Y-3.7039
X4.0701Y-3.5579
X4.0709Y-3.4181
X4.072Y-3.8961
X4.0839Y-4.1598
X4.1098Y-4.3
X4.1331Y-4.437
X4.165Y-3.798
X4.174Y-4.0591
X4.1882Y-3.6228
X4.1961Y-3.4669
X4.2039Y-3.9272
X4.222Y-4.2201
X4.2512Y-4.372
X4.278Y-3.724
X4.2988Y-4.1122
X4.3051Y-3.5461
X4.3291Y-3.8488
X4.3358Y-3.9831
X4.35Y-4.2799
X4.3909Y-3.65
X4.422Y-4.1669
X4.448Y-3.7728
X4.4642Y-4.0382
X4.4728Y-3.9071
X5.3697Y-3.9071
X5.3783Y-4.0382
X5.3945Y-3.7728
X5.4205Y-4.1669
X5.4516Y-3.65
X5.4925Y-4.2799
X5.5067Y-3.9831
X5.5134Y-3.8488
X5.5374Y-3.5461
X5.5437Y-4.1122
X5.5646Y-3.724
X5.5913Y-4.372
X5.6205Y-4.2201
X5.6386Y-3.9272
X5.6465Y-3.4669
X5.6543Y-3.6228
X5.6685Y-4.0591
X5.6776Y-3.798
X5.7094Y-4.4134
X5.7327Y-4.3
X5.7587Y-4.1598
X5.7705Y-3.8961
X5.7717Y-3.4181
X5.7724Y-3.5579
X5.7744Y-3.7039
X5.8004Y-4.0311
X5.8374Y-4.3909
X5.9055Y-3.4
X5.9055Y-3.535
X5.9055Y-3.6701
X5.9055Y-3.8051
X5.9055Y-3.937
X5.9055Y-4.137
X5.9055Y-4.2752
X5.9736Y-4.3909
X6.0106Y-4.0311
X6.0366Y-3.7039
X6.0386Y-3.5579
X6.0394Y-3.4181
X6.0406Y-3.8961
X6.0524Y-4.1598
X6.0783Y-4.3
X6.1016Y-4.437
X6.1335Y-3.798
X6.1425Y-4.0591
X6.1567Y-3.6228
X6.1646Y-3.4669
X6.1724Y-3.9272
X6.1906Y-4.2201
X6.2197Y-4.372
X6.2465Y-3.724
X6.2673Y-4.1122
X6.2736Y-3.5461
X6.2976Y-3.8488
X6.3043Y-3.9831
X6.3185Y-4.2799
X6.3594Y-3.65
X6.3906Y-4.1669
X6.4165Y-3.7728
X6.4327Y-4.0382
X6.4413Y-3.9071
T3
X3.5Y-2.55
X3.5Y-2.65
X3.6Y-2.55
X3.6Y-2.65
X3.7Y-2.55
X3.7Y-2.65
X3.8Y-2.55
X3.8Y-2.65
X3.9Y-2.55
X3.9Y-2.65
X4.0Y-2.55
X4.0Y-2.65
X4.1Y-2.55
X4.1Y-2.65
X4.2Y-2.55
X4.2Y-2.65
X4.3Y-2.55
X4.3Y-2.65
X4.4Y-2.55
X4.4Y-2.65
X4.25Y-5.15
X4.25Y-5.25
X4.35Y-5.15
X4.35Y-5.25
X4.45Y-5.15
X4.45Y-5.25
X4.55Y-5.15
X4.55Y-5.25
X4.65Y-5.15
X4.65Y-5.25
X4.75Y-5.15
X4.75Y-5.25
X4.85Y-5.15
X4.85Y-5.25
X4.95Y-5.15
X4.95Y-5.25
X5.05Y-5.15
X5.05Y-5.25
X5.15Y-5.15
X5.15Y-5.25
X6.5Y-2.55
X6.5Y-2.65
X6.6Y-2.55
X6.6Y-2.65
X6.7Y-2.55
X6.7Y-2.65
X6.8Y-2.55
X6.8Y-2.65
X6.9Y-2.55
X6.9Y-2.65
X7.0Y-2.55
X7.0Y-2.65
X7.1Y-2.55
X7.1Y-2.65
X7.2Y-2.55
X7.2Y-2.65
X7.3Y-2.55
X7.3Y-2.65
X7.4Y-2.55
X7.4Y-2.65
X8.0Y-2.55
X8.0Y-2.65
X8.1Y-2.55
X8.1Y-2.65
X8.2Y-2.55
X8.2Y-2.65
X8.3Y-2.55
X8.3Y-2.65
X8.4Y-2.55
X8.4Y-2.65
X8.5Y-2.55
X8.5Y-2.65
X8.6Y-2.55
X8.6Y-2.65
X8.7Y-2.55
X8.7Y-2.65
X8.8Y-2.55
X8.8Y-2.65
X8.9Y-2.55
X8.9Y-2.65
X8.55Y-5.15
X8.55Y-5.25
X8.65Y-5.15
X8.65Y-5.25
X8.75Y-5.15
X8.75Y-5.25
X5.75Y-5.15
X5.75Y-5.25
X5.85Y-5.15
X5.85Y-5.25
X5.95Y-5.15
X5.95Y-5.25
X6.05Y-5.15
X6.05Y-5.25
X6.15Y-5.15
X6.15Y-5.25
X6.25Y-5.15
X6.25Y-5.25
X6.35Y-5.15
X6.35Y-5.25
X6.45Y-5.15
X6.45Y-5.25
X6.55Y-5.15
X6.55Y-5.25
X6.65Y-5.15
X6.65Y-5.25
X2.75Y-5.15
X2.75Y-5.25
X2.85Y-5.15
X2.85Y-5.25
X2.95Y-5.15
X2.95Y-5.25
X3.05Y-5.15
X3.05Y-5.25
X3.15Y-5.15
X3.15Y-5.25
X3.25Y-5.15
X3.25Y-5.25
X3.35Y-5.15
X3.35Y-5.25
X3.45Y-5.15
X3.45Y-5.25
X3.55Y-5.15
X3.55Y-5.25
X3.65Y-5.15
X3.65Y-5.25
X5.0Y-2.55
X5.0Y-2.65
X5.1Y-2.55
X5.1Y-2.65
X5.2Y-2.55
X5.2Y-2.65
X5.3Y-2.55
X5.3Y-2.65
X5.4Y-2.55
X5.4Y-2.65
X5.5Y-2.55
X5.5Y-2.65
X5.6Y-2.55
X5.6Y-2.65
X5.7Y-2.55
X5.7Y-2.65
X5.8Y-2.55
X5.8Y-2.65
X5.9Y-2.55
X5.9Y-2.65
T0
M30
