G04 #@! TF.GenerationSoftware,KiCad,Pcbnew,(5.1.6)-1*
G04 #@! TF.CreationDate,2020-08-15T15:38:21+01:00*
G04 #@! TF.ProjectId,Sockets,536f636b-6574-4732-9e6b-696361645f70,rev?*
G04 #@! TF.SameCoordinates,Original*
G04 #@! TF.FileFunction,Copper,L3,Inr*
G04 #@! TF.FilePolarity,Positive*
%FSLAX46Y46*%
G04 Gerber Fmt 4.6, Leading zero omitted, Abs format (unit mm)*
G04 Created by KiCad (PCBNEW (5.1.6)-1) date 2020-08-15 15:38:21*
%MOMM*%
%LPD*%
G01*
G04 APERTURE LIST*
G04 #@! TA.AperFunction,ViaPad*
%ADD10C,1.524000*%
G04 #@! TD*
G04 #@! TA.AperFunction,ViaPad*
%ADD11C,1.700000*%
G04 #@! TD*
G04 #@! TA.AperFunction,ViaPad*
%ADD12C,0.800000*%
G04 #@! TD*
G04 #@! TA.AperFunction,Conductor*
%ADD13C,0.250000*%
G04 #@! TD*
G04 APERTURE END LIST*
D10*
X146670000Y-94080000D03*
X143980000Y-103100000D03*
X144210000Y-96470000D03*
X143220000Y-99750000D03*
X146270000Y-105660000D03*
X150000000Y-105080000D03*
X152670000Y-102390000D03*
X147330000Y-102390000D03*
X146570000Y-98960000D03*
X150000000Y-96650000D03*
X153430000Y-98960000D03*
X142760000Y-107190000D03*
X150000000Y-108590000D03*
X153730000Y-105660000D03*
X139870000Y-101170000D03*
X140040000Y-97760000D03*
X140810000Y-104450000D03*
X145610000Y-109220000D03*
X156020000Y-103100000D03*
X156780000Y-99750000D03*
X155790000Y-96470000D03*
X150000000Y-93220000D03*
X153330000Y-94080000D03*
X159960000Y-97760000D03*
X158660000Y-94590000D03*
X156380000Y-92020000D03*
X150000000Y-89790000D03*
X153380000Y-90370000D03*
X146620000Y-90370000D03*
X143620000Y-92020000D03*
X141340000Y-94590000D03*
X160130000Y-101170000D03*
X143420000Y-88060000D03*
X146600000Y-86820000D03*
X137020000Y-95830000D03*
X140650000Y-90070000D03*
X136390000Y-99240000D03*
X138470000Y-92710000D03*
X136610000Y-102570000D03*
X148270000Y-111530000D03*
X139510000Y-108710000D03*
X142020000Y-111050000D03*
X145020000Y-112100000D03*
X151730000Y-111530000D03*
X154390000Y-109220000D03*
X157240000Y-107190000D03*
X159190000Y-104450000D03*
X137680000Y-105840000D03*
X150000000Y-86360000D03*
X153400000Y-86820000D03*
X156580000Y-88060000D03*
X161530000Y-92710000D03*
X162980000Y-95830000D03*
X159350000Y-90070000D03*
X163610000Y-99240000D03*
X163390000Y-102570000D03*
X162320000Y-105840000D03*
X160490000Y-108710000D03*
X157980000Y-111050000D03*
X154980000Y-112700000D03*
X150000000Y-100000000D03*
X96670000Y-94080000D03*
X93980000Y-103100000D03*
X94210000Y-96470000D03*
X93220000Y-99750000D03*
X96270000Y-105660000D03*
X100000000Y-105080000D03*
X102670000Y-102390000D03*
X97330000Y-102390000D03*
X96570000Y-98960000D03*
X100000000Y-96650000D03*
X103430000Y-98960000D03*
X92760000Y-107190000D03*
X100000000Y-108590000D03*
X103730000Y-105660000D03*
X89870000Y-101170000D03*
X90040000Y-97760000D03*
X90810000Y-104450000D03*
X95610000Y-109220000D03*
X106020000Y-103100000D03*
X106780000Y-99750000D03*
X105790000Y-96470000D03*
X100000000Y-93220000D03*
X103330000Y-94080000D03*
X109960000Y-97760000D03*
X108660000Y-94590000D03*
X106380000Y-92020000D03*
X100000000Y-89790000D03*
X103380000Y-90370000D03*
X96620000Y-90370000D03*
X93620000Y-92020000D03*
X91340000Y-94590000D03*
X110130000Y-101170000D03*
X93420000Y-88060000D03*
X96600000Y-86820000D03*
X87020000Y-95830000D03*
X90650000Y-90070000D03*
X86390000Y-99240000D03*
X88470000Y-92710000D03*
X86610000Y-102570000D03*
X98270000Y-111530000D03*
X89510000Y-108710000D03*
X92020000Y-111050000D03*
X95020000Y-112100000D03*
X101730000Y-111530000D03*
X104390000Y-109220000D03*
X107240000Y-107190000D03*
X109190000Y-104450000D03*
X87680000Y-105840000D03*
X100000000Y-86360000D03*
X103400000Y-86820000D03*
X106580000Y-88060000D03*
X111530000Y-92710000D03*
X112980000Y-95830000D03*
X109350000Y-90070000D03*
X113610000Y-99240000D03*
X113390000Y-102570000D03*
X112320000Y-105840000D03*
X110490000Y-108710000D03*
X107980000Y-111050000D03*
X104980000Y-112700000D03*
X100000000Y-100000000D03*
X196670000Y-94080000D03*
X193980000Y-103100000D03*
X194210000Y-96470000D03*
X193220000Y-99750000D03*
X196270000Y-105660000D03*
X200000000Y-105080000D03*
X202670000Y-102390000D03*
X197330000Y-102390000D03*
X196570000Y-98960000D03*
X200000000Y-96650000D03*
X203430000Y-98960000D03*
X192760000Y-107190000D03*
X200000000Y-108590000D03*
X203730000Y-105660000D03*
X189870000Y-101170000D03*
X190040000Y-97760000D03*
X190810000Y-104450000D03*
X195610000Y-109220000D03*
X206020000Y-103100000D03*
X206780000Y-99750000D03*
X205790000Y-96470000D03*
X200000000Y-93220000D03*
X203330000Y-94080000D03*
X209960000Y-97760000D03*
X208660000Y-94590000D03*
X206380000Y-92020000D03*
X200000000Y-89790000D03*
X203380000Y-90370000D03*
X196620000Y-90370000D03*
X193620000Y-92020000D03*
X191340000Y-94590000D03*
X210130000Y-101170000D03*
X193420000Y-88060000D03*
X196600000Y-86820000D03*
X187020000Y-95830000D03*
X190650000Y-90070000D03*
X186390000Y-99240000D03*
X188470000Y-92710000D03*
X186610000Y-102570000D03*
X198270000Y-111530000D03*
X189510000Y-108710000D03*
X192020000Y-111050000D03*
X195020000Y-112100000D03*
X201730000Y-111530000D03*
X204390000Y-109220000D03*
X207240000Y-107190000D03*
X209190000Y-104450000D03*
X187680000Y-105840000D03*
X200000000Y-86360000D03*
X203400000Y-86820000D03*
X206580000Y-88060000D03*
X211530000Y-92710000D03*
X212980000Y-95830000D03*
X209350000Y-90070000D03*
X213610000Y-99240000D03*
X213390000Y-102570000D03*
X212320000Y-105840000D03*
X210490000Y-108710000D03*
X207980000Y-111050000D03*
X204980000Y-112700000D03*
X200000000Y-100000000D03*
G04 #@! TA.AperFunction,ViaPad*
G36*
G01*
X92110000Y-129960000D02*
X93310000Y-129960000D01*
G75*
G02*
X93560000Y-130210000I0J-250000D01*
G01*
X93560000Y-131410000D01*
G75*
G02*
X93310000Y-131660000I-250000J0D01*
G01*
X92110000Y-131660000D01*
G75*
G02*
X91860000Y-131410000I0J250000D01*
G01*
X91860000Y-130210000D01*
G75*
G02*
X92110000Y-129960000I250000J0D01*
G01*
G37*
G04 #@! TD.AperFunction*
D11*
X90170000Y-130810000D03*
X87630000Y-130810000D03*
X85090000Y-130810000D03*
X82550000Y-130810000D03*
X80010000Y-130810000D03*
X77470000Y-130810000D03*
X74930000Y-130810000D03*
X72390000Y-130810000D03*
X69850000Y-130810000D03*
X92710000Y-133350000D03*
X90170000Y-133350000D03*
X87630000Y-133350000D03*
X85090000Y-133350000D03*
X82550000Y-133350000D03*
X80010000Y-133350000D03*
X77470000Y-133350000D03*
X74930000Y-133350000D03*
X72390000Y-133350000D03*
X69850000Y-133350000D03*
G04 #@! TA.AperFunction,ViaPad*
G36*
G01*
X89500000Y-68160000D02*
X88300000Y-68160000D01*
G75*
G02*
X88050000Y-67910000I0J250000D01*
G01*
X88050000Y-66710000D01*
G75*
G02*
X88300000Y-66460000I250000J0D01*
G01*
X89500000Y-66460000D01*
G75*
G02*
X89750000Y-66710000I0J-250000D01*
G01*
X89750000Y-67910000D01*
G75*
G02*
X89500000Y-68160000I-250000J0D01*
G01*
G37*
G04 #@! TD.AperFunction*
X91440000Y-67310000D03*
X93980000Y-67310000D03*
X96520000Y-67310000D03*
X99060000Y-67310000D03*
X101600000Y-67310000D03*
X104140000Y-67310000D03*
X106680000Y-67310000D03*
X109220000Y-67310000D03*
X111760000Y-67310000D03*
X88900000Y-64770000D03*
X91440000Y-64770000D03*
X93980000Y-64770000D03*
X96520000Y-64770000D03*
X99060000Y-64770000D03*
X101600000Y-64770000D03*
X104140000Y-64770000D03*
X106680000Y-64770000D03*
X109220000Y-64770000D03*
X111760000Y-64770000D03*
X107950000Y-133350000D03*
X110490000Y-133350000D03*
X113030000Y-133350000D03*
X115570000Y-133350000D03*
X118110000Y-133350000D03*
X120650000Y-133350000D03*
X123190000Y-133350000D03*
X125730000Y-133350000D03*
X128270000Y-133350000D03*
X130810000Y-133350000D03*
X107950000Y-130810000D03*
X110490000Y-130810000D03*
X113030000Y-130810000D03*
X115570000Y-130810000D03*
X118110000Y-130810000D03*
X120650000Y-130810000D03*
X123190000Y-130810000D03*
X125730000Y-130810000D03*
X128270000Y-130810000D03*
G04 #@! TA.AperFunction,ViaPad*
G36*
G01*
X130210000Y-129960000D02*
X131410000Y-129960000D01*
G75*
G02*
X131660000Y-130210000I0J-250000D01*
G01*
X131660000Y-131410000D01*
G75*
G02*
X131410000Y-131660000I-250000J0D01*
G01*
X130210000Y-131660000D01*
G75*
G02*
X129960000Y-131410000I0J250000D01*
G01*
X129960000Y-130210000D01*
G75*
G02*
X130210000Y-129960000I250000J0D01*
G01*
G37*
G04 #@! TD.AperFunction*
G04 #@! TA.AperFunction,ViaPad*
G36*
G01*
X165700000Y-68160000D02*
X164500000Y-68160000D01*
G75*
G02*
X164250000Y-67910000I0J250000D01*
G01*
X164250000Y-66710000D01*
G75*
G02*
X164500000Y-66460000I250000J0D01*
G01*
X165700000Y-66460000D01*
G75*
G02*
X165950000Y-66710000I0J-250000D01*
G01*
X165950000Y-67910000D01*
G75*
G02*
X165700000Y-68160000I-250000J0D01*
G01*
G37*
G04 #@! TD.AperFunction*
X167640000Y-67310000D03*
X170180000Y-67310000D03*
X172720000Y-67310000D03*
X175260000Y-67310000D03*
X177800000Y-67310000D03*
X180340000Y-67310000D03*
X182880000Y-67310000D03*
X185420000Y-67310000D03*
X187960000Y-67310000D03*
X165100000Y-64770000D03*
X167640000Y-64770000D03*
X170180000Y-64770000D03*
X172720000Y-64770000D03*
X175260000Y-64770000D03*
X177800000Y-64770000D03*
X180340000Y-64770000D03*
X182880000Y-64770000D03*
X185420000Y-64770000D03*
X187960000Y-64770000D03*
X149860000Y-64770000D03*
X147320000Y-64770000D03*
X144780000Y-64770000D03*
X142240000Y-64770000D03*
X139700000Y-64770000D03*
X137160000Y-64770000D03*
X134620000Y-64770000D03*
X132080000Y-64770000D03*
X129540000Y-64770000D03*
X127000000Y-64770000D03*
X149860000Y-67310000D03*
X147320000Y-67310000D03*
X144780000Y-67310000D03*
X142240000Y-67310000D03*
X139700000Y-67310000D03*
X137160000Y-67310000D03*
X134620000Y-67310000D03*
X132080000Y-67310000D03*
X129540000Y-67310000D03*
G04 #@! TA.AperFunction,ViaPad*
G36*
G01*
X127600000Y-68160000D02*
X126400000Y-68160000D01*
G75*
G02*
X126150000Y-67910000I0J250000D01*
G01*
X126150000Y-66710000D01*
G75*
G02*
X126400000Y-66460000I250000J0D01*
G01*
X127600000Y-66460000D01*
G75*
G02*
X127850000Y-66710000I0J-250000D01*
G01*
X127850000Y-67910000D01*
G75*
G02*
X127600000Y-68160000I-250000J0D01*
G01*
G37*
G04 #@! TD.AperFunction*
G04 #@! TA.AperFunction,ViaPad*
G36*
G01*
X168310000Y-129960000D02*
X169510000Y-129960000D01*
G75*
G02*
X169760000Y-130210000I0J-250000D01*
G01*
X169760000Y-131410000D01*
G75*
G02*
X169510000Y-131660000I-250000J0D01*
G01*
X168310000Y-131660000D01*
G75*
G02*
X168060000Y-131410000I0J250000D01*
G01*
X168060000Y-130210000D01*
G75*
G02*
X168310000Y-129960000I250000J0D01*
G01*
G37*
G04 #@! TD.AperFunction*
X166370000Y-130810000D03*
X163830000Y-130810000D03*
X161290000Y-130810000D03*
X158750000Y-130810000D03*
X156210000Y-130810000D03*
X153670000Y-130810000D03*
X151130000Y-130810000D03*
X148590000Y-130810000D03*
X146050000Y-130810000D03*
X168910000Y-133350000D03*
X166370000Y-133350000D03*
X163830000Y-133350000D03*
X161290000Y-133350000D03*
X158750000Y-133350000D03*
X156210000Y-133350000D03*
X153670000Y-133350000D03*
X151130000Y-133350000D03*
X148590000Y-133350000D03*
X146050000Y-133350000D03*
X226060000Y-64770000D03*
X223520000Y-64770000D03*
X220980000Y-64770000D03*
X218440000Y-64770000D03*
X215900000Y-64770000D03*
X213360000Y-64770000D03*
X210820000Y-64770000D03*
X208280000Y-64770000D03*
X205740000Y-64770000D03*
X203200000Y-64770000D03*
X226060000Y-67310000D03*
X223520000Y-67310000D03*
X220980000Y-67310000D03*
X218440000Y-67310000D03*
X215900000Y-67310000D03*
X213360000Y-67310000D03*
X210820000Y-67310000D03*
X208280000Y-67310000D03*
X205740000Y-67310000D03*
G04 #@! TA.AperFunction,ViaPad*
G36*
G01*
X203800000Y-68160000D02*
X202600000Y-68160000D01*
G75*
G02*
X202350000Y-67910000I0J250000D01*
G01*
X202350000Y-66710000D01*
G75*
G02*
X202600000Y-66460000I250000J0D01*
G01*
X203800000Y-66460000D01*
G75*
G02*
X204050000Y-66710000I0J-250000D01*
G01*
X204050000Y-67910000D01*
G75*
G02*
X203800000Y-68160000I-250000J0D01*
G01*
G37*
G04 #@! TD.AperFunction*
G04 #@! TA.AperFunction,ViaPad*
G36*
G01*
X221650000Y-129960000D02*
X222850000Y-129960000D01*
G75*
G02*
X223100000Y-130210000I0J-250000D01*
G01*
X223100000Y-131410000D01*
G75*
G02*
X222850000Y-131660000I-250000J0D01*
G01*
X221650000Y-131660000D01*
G75*
G02*
X221400000Y-131410000I0J250000D01*
G01*
X221400000Y-130210000D01*
G75*
G02*
X221650000Y-129960000I250000J0D01*
G01*
G37*
G04 #@! TD.AperFunction*
X219710000Y-130810000D03*
X217170000Y-130810000D03*
X222250000Y-133350000D03*
X219710000Y-133350000D03*
X217170000Y-133350000D03*
D12*
X111209700Y-111235800D03*
X112747400Y-112121200D03*
X145749400Y-79452700D03*
D13*
X80010000Y-130810000D02*
X80010000Y-116057400D01*
X80010000Y-116057400D02*
X89419900Y-106647500D01*
X89419900Y-106647500D02*
X89419900Y-104299900D01*
X89419900Y-104299900D02*
X92681200Y-101038600D01*
X92681200Y-101038600D02*
X93471200Y-101038600D01*
X93471200Y-101038600D02*
X95447400Y-99062400D01*
X95447400Y-99062400D02*
X95447400Y-98541900D01*
X95447400Y-98541900D02*
X99204500Y-94784800D01*
X99204500Y-94784800D02*
X100537700Y-94784800D01*
X100537700Y-94784800D02*
X106580000Y-88742500D01*
X106580000Y-88742500D02*
X106580000Y-88060000D01*
X77470000Y-130810000D02*
X77470000Y-117957000D01*
X77470000Y-117957000D02*
X88824000Y-106603000D01*
X88824000Y-106603000D02*
X88824000Y-104231600D01*
X88824000Y-104231600D02*
X91619600Y-101436000D01*
X91619600Y-101436000D02*
X91619600Y-96937800D01*
X91619600Y-96937800D02*
X95488600Y-93068800D01*
X95488600Y-93068800D02*
X95488600Y-89962900D01*
X95488600Y-89962900D02*
X99091500Y-86360000D01*
X99091500Y-86360000D02*
X100000000Y-86360000D01*
X88900000Y-67310000D02*
X88900000Y-90499900D01*
X88900000Y-90499900D02*
X89587500Y-91187400D01*
X89587500Y-91187400D02*
X89587500Y-93130400D01*
X89587500Y-93130400D02*
X88373600Y-94344300D01*
X88373600Y-94344300D02*
X88373600Y-105146400D01*
X88373600Y-105146400D02*
X87680000Y-105840000D01*
X69850000Y-133350000D02*
X71120000Y-132080000D01*
X71120000Y-132080000D02*
X71120000Y-118060000D01*
X71120000Y-118060000D02*
X86610000Y-102570000D01*
X72390000Y-133350000D02*
X73660000Y-132080000D01*
X73660000Y-132080000D02*
X73660000Y-117244200D01*
X73660000Y-117244200D02*
X87702200Y-103202000D01*
X87702200Y-103202000D02*
X87702200Y-96512200D01*
X87702200Y-96512200D02*
X87020000Y-95830000D01*
X91340000Y-94590000D02*
X92249900Y-93680100D01*
X92249900Y-93680100D02*
X92249900Y-83635500D01*
X92249900Y-83635500D02*
X108044600Y-67840800D01*
X108044600Y-67840800D02*
X108044600Y-65945400D01*
X108044600Y-65945400D02*
X109220000Y-64770000D01*
X109220000Y-67310000D02*
X94587900Y-81942100D01*
X94587900Y-81942100D02*
X94587900Y-91052100D01*
X94587900Y-91052100D02*
X93620000Y-92020000D01*
X106680000Y-64770000D02*
X108340200Y-63109800D01*
X108340200Y-63109800D02*
X111821300Y-63109800D01*
X111821300Y-63109800D02*
X112935400Y-64223900D01*
X112935400Y-64223900D02*
X112935400Y-75057000D01*
X112935400Y-75057000D02*
X97622400Y-90370000D01*
X97622400Y-90370000D02*
X96620000Y-90370000D01*
X111209700Y-111235800D02*
X109023300Y-109049400D01*
X109023300Y-109049400D02*
X109023300Y-106910700D01*
X109023300Y-106910700D02*
X107504800Y-105392200D01*
X107504800Y-105392200D02*
X107504800Y-103004400D01*
X107504800Y-103004400D02*
X104702600Y-100202200D01*
X104702600Y-100202200D02*
X104702600Y-95452600D01*
X104702600Y-95452600D02*
X103330000Y-94080000D01*
X95610000Y-109220000D02*
X97530700Y-109220000D01*
X97530700Y-109220000D02*
X117272100Y-128961400D01*
X117272100Y-128961400D02*
X126421400Y-128961400D01*
X126421400Y-128961400D02*
X128270000Y-130810000D01*
X130810000Y-130810000D02*
X118433200Y-118433200D01*
X118433200Y-118433200D02*
X109171700Y-118433200D01*
X109171700Y-118433200D02*
X103752900Y-113014400D01*
X103752900Y-113014400D02*
X103752900Y-110804600D01*
X103752900Y-110804600D02*
X94931700Y-101983400D01*
X94931700Y-101983400D02*
X93276600Y-101983400D01*
X93276600Y-101983400D02*
X90810000Y-104450000D01*
X111760000Y-67310000D02*
X95038200Y-84031800D01*
X95038200Y-84031800D02*
X95038200Y-92761800D01*
X95038200Y-92761800D02*
X90040000Y-97760000D01*
X89870000Y-101170000D02*
X88928700Y-100228700D01*
X88928700Y-100228700D02*
X88928700Y-94689500D01*
X88928700Y-94689500D02*
X91799500Y-91818700D01*
X91799500Y-91818700D02*
X91799500Y-82095900D01*
X91799500Y-82095900D02*
X105410000Y-68485400D01*
X105410000Y-68485400D02*
X105410000Y-66879000D01*
X105410000Y-66879000D02*
X106154400Y-66134600D01*
X106154400Y-66134600D02*
X106994800Y-66134600D01*
X106994800Y-66134600D02*
X107950000Y-65179400D01*
X107950000Y-65179400D02*
X107950000Y-64373500D01*
X107950000Y-64373500D02*
X108729200Y-63594300D01*
X108729200Y-63594300D02*
X110584300Y-63594300D01*
X110584300Y-63594300D02*
X111760000Y-64770000D01*
X103730000Y-105660000D02*
X108032600Y-109962600D01*
X108032600Y-109962600D02*
X108910800Y-109962600D01*
X108910800Y-109962600D02*
X111069400Y-112121200D01*
X111069400Y-112121200D02*
X112747400Y-112121200D01*
X128270000Y-133350000D02*
X129500800Y-132119200D01*
X129500800Y-132119200D02*
X129500800Y-130375100D01*
X129500800Y-130375100D02*
X119496800Y-120371100D01*
X119496800Y-120371100D02*
X110472700Y-120371100D01*
X110472700Y-120371100D02*
X102852200Y-112750600D01*
X102852200Y-112750600D02*
X102852200Y-111104200D01*
X102852200Y-111104200D02*
X100338000Y-108590000D01*
X100338000Y-108590000D02*
X100000000Y-108590000D01*
X130810000Y-133350000D02*
X129591300Y-134568700D01*
X129591300Y-134568700D02*
X127770300Y-134568700D01*
X127770300Y-134568700D02*
X127000000Y-133798400D01*
X127000000Y-133798400D02*
X127000000Y-130403200D01*
X127000000Y-130403200D02*
X126231400Y-129634600D01*
X126231400Y-129634600D02*
X114447100Y-129634600D01*
X114447100Y-129634600D02*
X92760000Y-107947500D01*
X92760000Y-107947500D02*
X92760000Y-107190000D01*
X113030000Y-130810000D02*
X95520000Y-113300000D01*
X95520000Y-113300000D02*
X94655300Y-113300000D01*
X94655300Y-113300000D02*
X93520500Y-112165200D01*
X93520500Y-112165200D02*
X93520500Y-110715400D01*
X93520500Y-110715400D02*
X91656800Y-108851700D01*
X91656800Y-108851700D02*
X91656800Y-106716400D01*
X91656800Y-106716400D02*
X92713200Y-105660000D01*
X92713200Y-105660000D02*
X96270000Y-105660000D01*
X115570000Y-133350000D02*
X114205400Y-131985400D01*
X114205400Y-131985400D02*
X112504400Y-131985400D01*
X112504400Y-131985400D02*
X111760000Y-131241000D01*
X111760000Y-131241000D02*
X111760000Y-130393100D01*
X111760000Y-130393100D02*
X102355900Y-120989000D01*
X102355900Y-120989000D02*
X100347700Y-120989000D01*
X100347700Y-120989000D02*
X90892100Y-111533400D01*
X90892100Y-111533400D02*
X90892100Y-106187900D01*
X90892100Y-106187900D02*
X93980000Y-103100000D01*
X196570000Y-98960000D02*
X196242000Y-98632000D01*
X196242000Y-98632000D02*
X190705900Y-98632000D01*
X190705900Y-98632000D02*
X188967200Y-100370700D01*
X188967200Y-100370700D02*
X181972800Y-100370700D01*
X181972800Y-100370700D02*
X178620500Y-103723000D01*
X178620500Y-103723000D02*
X161600400Y-103723000D01*
X161600400Y-103723000D02*
X161233000Y-103355600D01*
X161233000Y-103355600D02*
X158388300Y-103355600D01*
X158388300Y-103355600D02*
X157517200Y-104226700D01*
X157517200Y-104226700D02*
X152064600Y-104226700D01*
X152064600Y-104226700D02*
X150227900Y-102390000D01*
X150227900Y-102390000D02*
X147330000Y-102390000D01*
X200000000Y-100000000D02*
X197643400Y-97643400D01*
X197643400Y-97643400D02*
X192501900Y-97643400D01*
X192501900Y-97643400D02*
X191531100Y-96672600D01*
X191531100Y-96672600D02*
X188877800Y-96672600D01*
X188877800Y-96672600D02*
X188589100Y-96961300D01*
X188589100Y-96961300D02*
X162586300Y-96961300D01*
X162586300Y-96961300D02*
X160690800Y-98856800D01*
X160690800Y-98856800D02*
X159066800Y-98856800D01*
X159066800Y-98856800D02*
X158020800Y-97810800D01*
X158020800Y-97810800D02*
X147719200Y-97810800D01*
X147719200Y-97810800D02*
X146570000Y-98960000D01*
X142760000Y-107190000D02*
X141933900Y-106363900D01*
X141933900Y-106363900D02*
X140139000Y-106363900D01*
X140139000Y-106363900D02*
X138523300Y-104748200D01*
X138523300Y-104748200D02*
X137247600Y-104748200D01*
X137247600Y-104748200D02*
X134842100Y-102342700D01*
X134842100Y-102342700D02*
X134842100Y-92022700D01*
X134842100Y-92022700D02*
X148590000Y-78274800D01*
X148590000Y-78274800D02*
X148590000Y-66040000D01*
X148590000Y-66040000D02*
X149860000Y-64770000D01*
X139870000Y-101170000D02*
X136747900Y-101170000D01*
X136747900Y-101170000D02*
X135299700Y-99721800D01*
X135299700Y-99721800D02*
X135299700Y-92838900D01*
X135299700Y-92838900D02*
X151035700Y-77102900D01*
X151035700Y-77102900D02*
X151035700Y-64248200D01*
X151035700Y-64248200D02*
X150360800Y-63573300D01*
X150360800Y-63573300D02*
X148516700Y-63573300D01*
X148516700Y-63573300D02*
X147320000Y-64770000D01*
X142240000Y-67310000D02*
X142240000Y-75943300D01*
X142240000Y-75943300D02*
X145749400Y-79452700D01*
X143420000Y-88060000D02*
X149867600Y-88060000D01*
X149867600Y-88060000D02*
X158328500Y-79599100D01*
X158328500Y-79599100D02*
X168050900Y-79599100D01*
X168050900Y-79599100D02*
X180340000Y-67310000D01*
X177800000Y-64770000D02*
X176435400Y-66134600D01*
X176435400Y-66134600D02*
X174734400Y-66134600D01*
X174734400Y-66134600D02*
X173990100Y-66878900D01*
X173990100Y-66878900D02*
X173990100Y-67749000D01*
X173990100Y-67749000D02*
X164900000Y-76839100D01*
X164900000Y-76839100D02*
X156580900Y-76839100D01*
X156580900Y-76839100D02*
X146600000Y-86820000D01*
X137020000Y-95830000D02*
X139689600Y-93160400D01*
X139689600Y-93160400D02*
X145397000Y-93160400D01*
X145397000Y-93160400D02*
X147550400Y-91007000D01*
X147550400Y-91007000D02*
X150568200Y-91007000D01*
X150568200Y-91007000D02*
X153479200Y-88096000D01*
X153479200Y-88096000D02*
X153797800Y-88096000D01*
X153797800Y-88096000D02*
X161284900Y-80608900D01*
X161284900Y-80608900D02*
X171286100Y-80608900D01*
X171286100Y-80608900D02*
X184095300Y-67799700D01*
X184095300Y-67799700D02*
X184095300Y-65985300D01*
X184095300Y-65985300D02*
X182880000Y-64770000D01*
X180340000Y-64770000D02*
X179164600Y-63594600D01*
X179164600Y-63594600D02*
X174771100Y-63594600D01*
X174771100Y-63594600D02*
X173972100Y-64393600D01*
X173972100Y-64393600D02*
X173972100Y-65266500D01*
X173972100Y-65266500D02*
X173293200Y-65945400D01*
X173293200Y-65945400D02*
X172419600Y-65945400D01*
X172419600Y-65945400D02*
X171450100Y-66914900D01*
X171450100Y-66914900D02*
X171450100Y-67757700D01*
X171450100Y-67757700D02*
X170348300Y-68859500D01*
X170348300Y-68859500D02*
X161067200Y-68859500D01*
X161067200Y-68859500D02*
X140650000Y-89276700D01*
X140650000Y-89276700D02*
X140650000Y-90070000D01*
X136390000Y-99240000D02*
X139620400Y-96009600D01*
X139620400Y-96009600D02*
X142547800Y-96009600D01*
X142547800Y-96009600D02*
X144701500Y-93855900D01*
X144701500Y-93855900D02*
X145338400Y-93855900D01*
X145338400Y-93855900D02*
X147550300Y-91644000D01*
X147550300Y-91644000D02*
X150568100Y-91644000D01*
X150568100Y-91644000D02*
X153506500Y-88705600D01*
X153506500Y-88705600D02*
X154143300Y-88705600D01*
X154143300Y-88705600D02*
X161660900Y-81188000D01*
X161660900Y-81188000D02*
X171542000Y-81188000D01*
X171542000Y-81188000D02*
X185420000Y-67310000D01*
X138470000Y-92710000D02*
X140980000Y-92710000D01*
X140980000Y-92710000D02*
X145179600Y-88510400D01*
X145179600Y-88510400D02*
X150129100Y-88510400D01*
X150129100Y-88510400D02*
X158535500Y-80104000D01*
X158535500Y-80104000D02*
X170086000Y-80104000D01*
X170086000Y-80104000D02*
X182880000Y-67310000D01*
X185420000Y-64770000D02*
X186610700Y-65960700D01*
X186610700Y-65960700D02*
X186610700Y-67788400D01*
X186610700Y-67788400D02*
X166460100Y-87939000D01*
X166460100Y-87939000D02*
X158251800Y-87939000D01*
X158251800Y-87939000D02*
X153675500Y-92515300D01*
X153675500Y-92515300D02*
X152596900Y-92515300D01*
X152596900Y-92515300D02*
X149944800Y-95167400D01*
X149944800Y-95167400D02*
X148790000Y-95167400D01*
X148790000Y-95167400D02*
X144704800Y-99252600D01*
X144704800Y-99252600D02*
X144704800Y-99847000D01*
X144704800Y-99847000D02*
X141981800Y-102570000D01*
X141981800Y-102570000D02*
X136610000Y-102570000D01*
X132080000Y-64770000D02*
X133255300Y-65945300D01*
X133255300Y-65945300D02*
X133255300Y-102954900D01*
X133255300Y-102954900D02*
X137923000Y-107622600D01*
X137923000Y-107622600D02*
X141357600Y-107622600D01*
X141357600Y-107622600D02*
X142018700Y-108283700D01*
X142018700Y-108283700D02*
X144922800Y-108283700D01*
X144922800Y-108283700D02*
X146016500Y-107190000D01*
X146016500Y-107190000D02*
X157240000Y-107190000D01*
X137680000Y-105840000D02*
X134376900Y-102536900D01*
X134376900Y-102536900D02*
X134376900Y-91851000D01*
X134376900Y-91851000D02*
X146474700Y-79753200D01*
X146474700Y-79753200D02*
X146474700Y-79152200D01*
X146474700Y-79152200D02*
X146105700Y-78783200D01*
X146105700Y-78783200D02*
X146105700Y-64313500D01*
X146105700Y-64313500D02*
X147316100Y-63103100D01*
X147316100Y-63103100D02*
X185471100Y-63103100D01*
X185471100Y-63103100D02*
X186690000Y-64322000D01*
X186690000Y-64322000D02*
X186690000Y-65403100D01*
X186690000Y-65403100D02*
X187960000Y-66673100D01*
X187960000Y-66673100D02*
X187960000Y-67310000D01*
X177800000Y-67310000D02*
X167820500Y-77289500D01*
X167820500Y-77289500D02*
X159070500Y-77289500D01*
X159070500Y-77289500D02*
X150000000Y-86360000D01*
X208280000Y-64770000D02*
X207010000Y-66040000D01*
X207010000Y-66040000D02*
X207010000Y-85750100D01*
X207010000Y-85750100D02*
X204702600Y-88057500D01*
X204702600Y-88057500D02*
X204702600Y-103077400D01*
X204702600Y-103077400D02*
X200000000Y-107780000D01*
X200000000Y-107780000D02*
X200000000Y-108590000D01*
X210820000Y-67310000D02*
X210820000Y-91392700D01*
X210820000Y-91392700D02*
X210417800Y-91794900D01*
X210417800Y-91794900D02*
X210417800Y-95517100D01*
X210417800Y-95517100D02*
X208400500Y-97534400D01*
X208400500Y-97534400D02*
X208400500Y-102330900D01*
X208400500Y-102330900D02*
X205071400Y-105660000D01*
X205071400Y-105660000D02*
X203730000Y-105660000D01*
X210820000Y-64770000D02*
X209550000Y-66040000D01*
X209550000Y-66040000D02*
X209550000Y-87642600D01*
X209550000Y-87642600D02*
X207567900Y-89624700D01*
X207567900Y-89624700D02*
X207567900Y-96286500D01*
X207567900Y-96286500D02*
X205641700Y-98212700D01*
X205641700Y-98212700D02*
X205641700Y-102721700D01*
X205641700Y-102721700D02*
X206020000Y-103100000D01*
X204980000Y-112700000D02*
X204471100Y-113208900D01*
X204471100Y-113208900D02*
X191366900Y-113208900D01*
X191366900Y-113208900D02*
X190858000Y-112700000D01*
X190858000Y-112700000D02*
X154980000Y-112700000D01*
X104980000Y-112700000D02*
X105193400Y-112913400D01*
X105193400Y-112913400D02*
X112981000Y-112913400D01*
X112981000Y-112913400D02*
X113121200Y-112773200D01*
X113121200Y-112773200D02*
X136452200Y-112773200D01*
X136452200Y-112773200D02*
X136876100Y-113197100D01*
X136876100Y-113197100D02*
X154482900Y-113197100D01*
X154482900Y-113197100D02*
X154980000Y-112700000D01*
M02*
