G04 #@! TF.FileFunction,Copper,L2,Bot,Signal*
%FSLAX46Y46*%
G04 Gerber Fmt 4.6, Leading zero omitted, Abs format (unit mm)*
G04 Created by KiCad (PCBNEW 4.0.5) date 06/14/17 15:34:31*
%MOMM*%
%LPD*%
G01*
G04 APERTURE LIST*
%ADD10C,0.100000*%
%ADD11C,0.300000*%
%ADD12C,2.400000*%
%ADD13R,2.400000X2.400000*%
%ADD14R,1.524000X1.524000*%
%ADD15C,1.524000*%
%ADD16C,5.700000*%
%ADD17R,1.600000X1.600000*%
%ADD18O,1.600000X1.600000*%
%ADD19C,3.810000*%
%ADD20R,1.520000X1.520000*%
%ADD21C,1.520000*%
%ADD22C,1.600000*%
%ADD23C,0.250000*%
%ADD24C,0.750000*%
G04 APERTURE END LIST*
D10*
D11*
X226694285Y-29102857D02*
X226194285Y-29102857D01*
X225979999Y-29888571D02*
X226694285Y-29888571D01*
X226694285Y-28388571D01*
X225979999Y-28388571D01*
X225122856Y-29888571D02*
X225265714Y-29817143D01*
X225337142Y-29674286D01*
X225337142Y-28388571D01*
X224337142Y-29888571D02*
X224480000Y-29817143D01*
X224551428Y-29674286D01*
X224551428Y-28388571D01*
X223765714Y-29888571D02*
X223765714Y-28888571D01*
X223765714Y-28388571D02*
X223837143Y-28460000D01*
X223765714Y-28531429D01*
X223694286Y-28460000D01*
X223765714Y-28388571D01*
X223765714Y-28531429D01*
X222837142Y-29888571D02*
X222980000Y-29817143D01*
X223051428Y-29745714D01*
X223122857Y-29602857D01*
X223122857Y-29174286D01*
X223051428Y-29031429D01*
X222980000Y-28960000D01*
X222837142Y-28888571D01*
X222622857Y-28888571D01*
X222480000Y-28960000D01*
X222408571Y-29031429D01*
X222337142Y-29174286D01*
X222337142Y-29602857D01*
X222408571Y-29745714D01*
X222480000Y-29817143D01*
X222622857Y-29888571D01*
X222837142Y-29888571D01*
X221908571Y-28888571D02*
X221337142Y-28888571D01*
X221694285Y-28388571D02*
X221694285Y-29674286D01*
X221622857Y-29817143D01*
X221479999Y-29888571D01*
X221337142Y-29888571D01*
X221051428Y-28888571D02*
X220479999Y-28888571D01*
X220837142Y-28388571D02*
X220837142Y-29674286D01*
X220765714Y-29817143D01*
X220622856Y-29888571D01*
X220479999Y-29888571D01*
X218765714Y-29888571D02*
X218479999Y-29888571D01*
X218337142Y-29817143D01*
X218265714Y-29745714D01*
X218122856Y-29531429D01*
X218051428Y-29245714D01*
X218051428Y-28674286D01*
X218122856Y-28531429D01*
X218194285Y-28460000D01*
X218337142Y-28388571D01*
X218622856Y-28388571D01*
X218765714Y-28460000D01*
X218837142Y-28531429D01*
X218908571Y-28674286D01*
X218908571Y-29031429D01*
X218837142Y-29174286D01*
X218765714Y-29245714D01*
X218622856Y-29317143D01*
X218337142Y-29317143D01*
X218194285Y-29245714D01*
X218122856Y-29174286D01*
X218051428Y-29031429D01*
X217122857Y-28388571D02*
X216980000Y-28388571D01*
X216837143Y-28460000D01*
X216765714Y-28531429D01*
X216694285Y-28674286D01*
X216622857Y-28960000D01*
X216622857Y-29317143D01*
X216694285Y-29602857D01*
X216765714Y-29745714D01*
X216837143Y-29817143D01*
X216980000Y-29888571D01*
X217122857Y-29888571D01*
X217265714Y-29817143D01*
X217337143Y-29745714D01*
X217408571Y-29602857D01*
X217480000Y-29317143D01*
X217480000Y-28960000D01*
X217408571Y-28674286D01*
X217337143Y-28531429D01*
X217265714Y-28460000D01*
X217122857Y-28388571D01*
X216122857Y-28388571D02*
X215194286Y-28388571D01*
X215694286Y-28960000D01*
X215480000Y-28960000D01*
X215337143Y-29031429D01*
X215265714Y-29102857D01*
X215194286Y-29245714D01*
X215194286Y-29602857D01*
X215265714Y-29745714D01*
X215337143Y-29817143D01*
X215480000Y-29888571D01*
X215908572Y-29888571D01*
X216051429Y-29817143D01*
X216122857Y-29745714D01*
D12*
X263540000Y-44450000D03*
X260040000Y-44450000D03*
X267040000Y-44450000D03*
X270540000Y-44450000D03*
X274040000Y-44450000D03*
X277540000Y-44450000D03*
D13*
X256540000Y-44450000D03*
D12*
X281040000Y-44450000D03*
X284540000Y-44450000D03*
X288040000Y-44450000D03*
X291540000Y-44450000D03*
X295040000Y-44450000D03*
D14*
X58420000Y-97790000D03*
D15*
X58420000Y-100330000D03*
X71120000Y-97790000D03*
X60960000Y-100330000D03*
X73660000Y-97790000D03*
X63500000Y-100330000D03*
X76200000Y-97790000D03*
X66040000Y-100330000D03*
X78740000Y-97790000D03*
X68580000Y-100330000D03*
X81280000Y-97790000D03*
X71120000Y-100330000D03*
X83820000Y-97790000D03*
X73660000Y-100330000D03*
X86360000Y-97790000D03*
X76200000Y-100330000D03*
X88900000Y-97790000D03*
X78740000Y-100330000D03*
X91440000Y-97790000D03*
X81280000Y-100330000D03*
X93980000Y-97790000D03*
X83820000Y-100330000D03*
X96520000Y-97790000D03*
X86360000Y-100330000D03*
X88900000Y-100330000D03*
X99060000Y-97790000D03*
X91440000Y-100330000D03*
X96520000Y-100330000D03*
X99060000Y-100330000D03*
X101600000Y-100330000D03*
X104140000Y-100330000D03*
X101600000Y-97790000D03*
X104140000Y-97790000D03*
X60960000Y-97790000D03*
X63500000Y-97790000D03*
X66040000Y-97790000D03*
X68580000Y-97790000D03*
X106680000Y-97790000D03*
X106680000Y-100330000D03*
X93980000Y-100330000D03*
D16*
X53550000Y-99060000D03*
X111550000Y-99060000D03*
X111550000Y-50060000D03*
X53550000Y-50060000D03*
D17*
X72390000Y-67310000D03*
D18*
X90170000Y-59690000D03*
X74930000Y-67310000D03*
X87630000Y-59690000D03*
X77470000Y-67310000D03*
X85090000Y-59690000D03*
X80010000Y-67310000D03*
X82550000Y-59690000D03*
X82550000Y-67310000D03*
X80010000Y-59690000D03*
X85090000Y-67310000D03*
X77470000Y-59690000D03*
X87630000Y-67310000D03*
X74930000Y-59690000D03*
X90170000Y-67310000D03*
X72390000Y-59690000D03*
D19*
X197360000Y-63500000D03*
X171960000Y-63500000D03*
D20*
X179070000Y-66040000D03*
D21*
X181860000Y-66040000D03*
X184530000Y-66040000D03*
X187330000Y-66040000D03*
X190120000Y-66040000D03*
X180470000Y-63500000D03*
X183260000Y-63500000D03*
X185930000Y-63500000D03*
X188720000Y-63500000D03*
D12*
X55230000Y-39370000D03*
X51730000Y-39370000D03*
X58730000Y-39370000D03*
D13*
X62230000Y-39370000D03*
D12*
X97140000Y-39370000D03*
X93640000Y-39370000D03*
X100640000Y-39370000D03*
D13*
X104140000Y-39370000D03*
D12*
X212740000Y-44450000D03*
X209240000Y-44450000D03*
X216240000Y-44450000D03*
X219740000Y-44450000D03*
X223240000Y-44450000D03*
X226740000Y-44450000D03*
D13*
X205740000Y-44450000D03*
D12*
X230240000Y-44450000D03*
X233740000Y-44450000D03*
X237240000Y-44450000D03*
X240740000Y-44450000D03*
X244240000Y-44450000D03*
D15*
X234950000Y-100330000D03*
X234950000Y-87630000D03*
X104140000Y-53340000D03*
X91440000Y-53340000D03*
X104140000Y-49530000D03*
X91440000Y-49530000D03*
X240030000Y-100330000D03*
X240030000Y-87630000D03*
X128270000Y-34290000D03*
X115570000Y-34290000D03*
X128270000Y-39370000D03*
X115570000Y-39370000D03*
X66040000Y-34290000D03*
X78740000Y-34290000D03*
X66040000Y-39370000D03*
X78740000Y-39370000D03*
D17*
X246380000Y-60960000D03*
D18*
X254000000Y-93980000D03*
X246380000Y-63500000D03*
X254000000Y-91440000D03*
X246380000Y-66040000D03*
X254000000Y-88900000D03*
X246380000Y-68580000D03*
X254000000Y-86360000D03*
X246380000Y-71120000D03*
X254000000Y-83820000D03*
X246380000Y-73660000D03*
X254000000Y-81280000D03*
X246380000Y-76200000D03*
X254000000Y-78740000D03*
X246380000Y-78740000D03*
X254000000Y-76200000D03*
X246380000Y-81280000D03*
X254000000Y-73660000D03*
X246380000Y-83820000D03*
X254000000Y-71120000D03*
X246380000Y-86360000D03*
X254000000Y-68580000D03*
X246380000Y-88900000D03*
X254000000Y-66040000D03*
X246380000Y-91440000D03*
X254000000Y-63500000D03*
X246380000Y-93980000D03*
X254000000Y-60960000D03*
D17*
X68580000Y-110490000D03*
D22*
X68580000Y-112990000D03*
D17*
X147320000Y-55880000D03*
D18*
X154940000Y-73660000D03*
X147320000Y-58420000D03*
X154940000Y-71120000D03*
X147320000Y-60960000D03*
X154940000Y-68580000D03*
X147320000Y-63500000D03*
X154940000Y-66040000D03*
X147320000Y-66040000D03*
X154940000Y-63500000D03*
X147320000Y-68580000D03*
X154940000Y-60960000D03*
X147320000Y-71120000D03*
X154940000Y-58420000D03*
X147320000Y-73660000D03*
X154940000Y-55880000D03*
D22*
X142240000Y-53340000D03*
X142240000Y-58340000D03*
X142240000Y-62230000D03*
X142240000Y-67230000D03*
X153670000Y-49530000D03*
X148670000Y-49530000D03*
X180340000Y-76200000D03*
X180340000Y-71200000D03*
X76280000Y-110490000D03*
X81280000Y-110490000D03*
X82550000Y-39370000D03*
X87550000Y-39370000D03*
X134620000Y-39370000D03*
X139620000Y-39370000D03*
D12*
X55880000Y-113030000D03*
D13*
X55880000Y-109530000D03*
D12*
X294640000Y-99680000D03*
X294640000Y-103180000D03*
X294640000Y-96180000D03*
X294640000Y-92680000D03*
X294640000Y-89180000D03*
X294640000Y-85680000D03*
D13*
X294640000Y-106680000D03*
D12*
X294640000Y-82180000D03*
X294640000Y-78680000D03*
X294640000Y-75180000D03*
X294640000Y-71680000D03*
X294640000Y-68180000D03*
D17*
X270510000Y-104140000D03*
D18*
X237490000Y-111760000D03*
X267970000Y-104140000D03*
X240030000Y-111760000D03*
X265430000Y-104140000D03*
X242570000Y-111760000D03*
X262890000Y-104140000D03*
X245110000Y-111760000D03*
X260350000Y-104140000D03*
X247650000Y-111760000D03*
X257810000Y-104140000D03*
X250190000Y-111760000D03*
X255270000Y-104140000D03*
X252730000Y-111760000D03*
X252730000Y-104140000D03*
X255270000Y-111760000D03*
X250190000Y-104140000D03*
X257810000Y-111760000D03*
X247650000Y-104140000D03*
X260350000Y-111760000D03*
X245110000Y-104140000D03*
X262890000Y-111760000D03*
X242570000Y-104140000D03*
X265430000Y-111760000D03*
X240030000Y-104140000D03*
X267970000Y-111760000D03*
X237490000Y-104140000D03*
X270510000Y-111760000D03*
D23*
X142240000Y-53340000D02*
X143510000Y-53340000D01*
X146050000Y-55880000D02*
X147320000Y-55880000D01*
X143510000Y-53340000D02*
X146050000Y-55880000D01*
X142240000Y-58340000D02*
X143430000Y-58340000D01*
X146050000Y-60960000D02*
X147320000Y-60960000D01*
X143430000Y-58340000D02*
X146050000Y-60960000D01*
X142240000Y-62230000D02*
X146050000Y-62230000D01*
X146050000Y-62230000D02*
X147320000Y-63500000D01*
X142240000Y-67230000D02*
X146130000Y-67230000D01*
X146130000Y-67230000D02*
X147320000Y-66040000D01*
D24*
X291540000Y-51360000D02*
X279400000Y-63500000D01*
X279400000Y-63500000D02*
X254000000Y-88900000D01*
X294640000Y-71680000D02*
X287580000Y-71680000D01*
X287580000Y-71680000D02*
X279400000Y-63500000D01*
X79009990Y-49260010D02*
X72120010Y-49260010D01*
X82550000Y-45720000D02*
X79009990Y-49260010D01*
X72120010Y-49260010D02*
X68580000Y-45720000D01*
X55880000Y-109530000D02*
X53650000Y-109530000D01*
X48260000Y-66040000D02*
X68580000Y-45720000D01*
X48260000Y-104140000D02*
X48260000Y-66040000D01*
X53650000Y-109530000D02*
X48260000Y-104140000D01*
X104140000Y-53340000D02*
X104140000Y-49530000D01*
X104140000Y-45720000D02*
X104140000Y-49530000D01*
X68580000Y-45720000D02*
X62230000Y-39370000D01*
X78740000Y-39370000D02*
X78740000Y-34290000D01*
X82550000Y-39370000D02*
X78740000Y-39370000D01*
X110490000Y-45720000D02*
X104140000Y-45720000D01*
X104140000Y-45720000D02*
X82550000Y-45720000D01*
X82550000Y-45720000D02*
X82550000Y-39370000D01*
X134620000Y-45720000D02*
X110490000Y-45720000D01*
X110490000Y-45720000D02*
X104140000Y-39370000D01*
X128270000Y-39370000D02*
X128270000Y-34290000D01*
X134620000Y-39370000D02*
X128270000Y-39370000D01*
X134620000Y-39370000D02*
X134620000Y-45720000D01*
X291540000Y-44450000D02*
X291540000Y-51360000D01*
X287020000Y-39370000D02*
X291820000Y-44170000D01*
X153670000Y-49530000D02*
X153670000Y-54610000D01*
X153670000Y-54610000D02*
X154940000Y-55880000D01*
X134620000Y-45720000D02*
X156210000Y-45720000D01*
X58420000Y-101600000D02*
X58420000Y-100330000D01*
X68580000Y-110490000D02*
X76280000Y-110490000D01*
X55880000Y-109530000D02*
X67620000Y-109530000D01*
X67620000Y-109530000D02*
X68580000Y-110490000D01*
X55880000Y-104140000D02*
X55880000Y-109530000D01*
X58420000Y-101600000D02*
X55880000Y-104140000D01*
X254000000Y-86360000D02*
X254000000Y-88900000D01*
X254000000Y-91440000D02*
X254000000Y-88900000D01*
X254000000Y-93980000D02*
X254000000Y-91440000D01*
X153670000Y-48260000D02*
X153670000Y-49530000D01*
X234950000Y-39370000D02*
X287020000Y-39370000D01*
D23*
X287020000Y-39370000D02*
X291540000Y-43890000D01*
X291540000Y-43890000D02*
X291540000Y-44450000D01*
D24*
X156210000Y-45720000D02*
X198120000Y-45720000D01*
X235660000Y-39370000D02*
X240740000Y-44450000D01*
X204470000Y-39370000D02*
X234950000Y-39370000D01*
D23*
X234950000Y-39370000D02*
X235660000Y-39370000D01*
D24*
X198120000Y-45720000D02*
X204470000Y-39370000D01*
X153670000Y-48260000D02*
X156210000Y-45720000D01*
D23*
X148670000Y-49530000D02*
X148670000Y-53420000D01*
X148670000Y-53420000D02*
X151130000Y-55880000D01*
X151130000Y-55880000D02*
X151130000Y-58420000D01*
X151130000Y-58420000D02*
X147320000Y-58420000D01*
D24*
X139620000Y-39370000D02*
X142160000Y-36830000D01*
X142160000Y-36830000D02*
X289560000Y-36830000D01*
X289560000Y-36830000D02*
X295040000Y-42310000D01*
X295040000Y-42310000D02*
X295040000Y-44450000D01*
X244240000Y-44450000D02*
X244240000Y-46147056D01*
X244240000Y-46147056D02*
X250190000Y-52097056D01*
X250190000Y-52097056D02*
X250190000Y-80010000D01*
X250190000Y-80010000D02*
X246380000Y-83820000D01*
X247650000Y-104140000D02*
X251460000Y-100330000D01*
X247650000Y-83820000D02*
X246380000Y-83820000D01*
X251460000Y-100330000D02*
X251460000Y-87630000D01*
X251460000Y-87630000D02*
X247650000Y-83820000D01*
X237490000Y-111760000D02*
X239165001Y-110084999D01*
X239165001Y-110084999D02*
X241705001Y-110084999D01*
X241705001Y-110084999D02*
X247650000Y-104140000D01*
X295040000Y-44450000D02*
X295040000Y-67780000D01*
X295040000Y-67780000D02*
X294640000Y-68180000D01*
X55880000Y-113030000D02*
X68540000Y-113030000D01*
X68540000Y-113030000D02*
X68580000Y-112990000D01*
X87550000Y-39370000D02*
X87550000Y-33280000D01*
X87630000Y-33200000D02*
X87630000Y-33360000D01*
X87550000Y-33280000D02*
X87630000Y-33200000D01*
X80940000Y-26670000D02*
X126920000Y-26670000D01*
X126920000Y-26670000D02*
X139620000Y-39370000D01*
X44450000Y-46990000D02*
X44450000Y-33020000D01*
X80940000Y-26670000D02*
X87630000Y-33360000D01*
X87630000Y-33360000D02*
X93640000Y-39370000D01*
X50800000Y-26670000D02*
X80940000Y-26670000D01*
X44450000Y-33020000D02*
X50800000Y-26670000D01*
X44450000Y-109220000D02*
X44450000Y-46990000D01*
X44450000Y-46990000D02*
X44450000Y-46650000D01*
X48260000Y-113030000D02*
X44450000Y-109220000D01*
X55880000Y-113030000D02*
X48260000Y-113030000D01*
X44450000Y-46650000D02*
X51730000Y-39370000D01*
X160020000Y-73660000D02*
X180340000Y-73660000D01*
X180340000Y-73660000D02*
X189230000Y-73660000D01*
X180340000Y-76200000D02*
X180340000Y-73660000D01*
X228600000Y-73660000D02*
X238760000Y-83820000D01*
X238760000Y-83820000D02*
X246380000Y-83820000D01*
X189230000Y-73660000D02*
X228600000Y-73660000D01*
X189230000Y-73660000D02*
X190120000Y-72770000D01*
X190120000Y-72770000D02*
X190120000Y-66040000D01*
X160020000Y-73660000D02*
X160020000Y-58420000D01*
X160020000Y-58420000D02*
X154940000Y-58420000D01*
X68580000Y-112990000D02*
X78780000Y-112990000D01*
X78780000Y-112990000D02*
X81280000Y-110490000D01*
X81280000Y-110490000D02*
X81280000Y-100330000D01*
D23*
X180340000Y-71200000D02*
X183260000Y-68280000D01*
X183260000Y-68280000D02*
X183260000Y-63500000D01*
X66040000Y-34290000D02*
X60310000Y-34290000D01*
X60310000Y-34290000D02*
X55230000Y-39370000D01*
X66040000Y-39370000D02*
X63500000Y-36830000D01*
X58730000Y-37790000D02*
X58730000Y-39370000D01*
X59690000Y-36830000D02*
X58730000Y-37790000D01*
X63500000Y-36830000D02*
X59690000Y-36830000D01*
X115570000Y-34290000D02*
X102220000Y-34290000D01*
X102220000Y-34290000D02*
X97140000Y-39370000D01*
X115570000Y-39370000D02*
X113030000Y-36830000D01*
X100640000Y-37790000D02*
X100640000Y-39370000D01*
X101600000Y-36830000D02*
X100640000Y-37790000D01*
X113030000Y-36830000D02*
X101600000Y-36830000D01*
X254000000Y-66040000D02*
X264160000Y-55880000D01*
X264160000Y-55880000D02*
X264160000Y-45070000D01*
X264160000Y-45070000D02*
X263540000Y-44450000D01*
X254000000Y-63500000D02*
X260350000Y-57150000D01*
X260350000Y-57150000D02*
X260350000Y-44760000D01*
X260350000Y-44760000D02*
X260040000Y-44450000D01*
X254000000Y-68580000D02*
X267040000Y-55540000D01*
X267040000Y-55540000D02*
X267040000Y-44450000D01*
X254000000Y-71120000D02*
X270540000Y-54580000D01*
X270540000Y-54580000D02*
X270540000Y-44450000D01*
X274040000Y-53620000D02*
X274040000Y-44450000D01*
X254000000Y-73660000D02*
X274040000Y-53620000D01*
X254000000Y-76200000D02*
X277540000Y-52660000D01*
X277540000Y-52660000D02*
X277540000Y-44450000D01*
X254000000Y-60960000D02*
X256540000Y-58420000D01*
X256540000Y-58420000D02*
X256540000Y-44450000D01*
X254000000Y-78740000D02*
X281040000Y-51700000D01*
X281040000Y-51700000D02*
X281040000Y-44450000D01*
X246380000Y-73660000D02*
X238760000Y-73660000D01*
X238760000Y-73660000D02*
X212740000Y-47640000D01*
X212740000Y-47640000D02*
X212740000Y-44450000D01*
X246380000Y-76200000D02*
X238760000Y-76200000D01*
X238760000Y-76200000D02*
X209240000Y-46680000D01*
X209240000Y-46680000D02*
X209240000Y-44450000D01*
X246380000Y-71120000D02*
X238760000Y-71120000D01*
X238760000Y-71120000D02*
X216240000Y-48600000D01*
X216240000Y-48600000D02*
X216240000Y-44450000D01*
X246380000Y-68580000D02*
X238760000Y-68580000D01*
X219740000Y-49560000D02*
X219740000Y-44450000D01*
X238760000Y-68580000D02*
X219740000Y-49560000D01*
X246380000Y-66040000D02*
X238760000Y-66040000D01*
X238760000Y-66040000D02*
X223520000Y-50800000D01*
X223520000Y-50800000D02*
X223520000Y-44450000D01*
X223520000Y-44450000D02*
X223240000Y-44450000D01*
X246380000Y-63500000D02*
X238760000Y-63500000D01*
X238760000Y-63500000D02*
X226740000Y-51480000D01*
X226740000Y-51480000D02*
X226740000Y-44450000D01*
X246380000Y-78740000D02*
X238580000Y-78740000D01*
X238580000Y-78740000D02*
X205740000Y-45900000D01*
X205740000Y-45900000D02*
X205740000Y-44450000D01*
X246380000Y-60960000D02*
X238760000Y-60960000D01*
X238760000Y-60960000D02*
X230240000Y-52440000D01*
X230240000Y-52440000D02*
X230240000Y-44450000D01*
X87630000Y-67310000D02*
X93980000Y-60960000D01*
X93980000Y-60960000D02*
X93980000Y-54610000D01*
X93980000Y-54610000D02*
X92710000Y-53340000D01*
X92710000Y-53340000D02*
X91440000Y-53340000D01*
X85090000Y-67310000D02*
X92710000Y-59690000D01*
X90170000Y-50800000D02*
X91440000Y-49530000D01*
X92710000Y-59690000D02*
X92710000Y-57150000D01*
X92710000Y-57150000D02*
X90170000Y-54610000D01*
X90170000Y-54610000D02*
X90170000Y-50800000D01*
X64770000Y-98128762D02*
X65884237Y-99242999D01*
X65884237Y-99242999D02*
X66561761Y-99242999D01*
X70032999Y-101417001D02*
X71120000Y-100330000D01*
X66561761Y-99242999D02*
X67492999Y-100174237D01*
X67492999Y-100174237D02*
X67492999Y-100851761D01*
X67492999Y-100851761D02*
X68058239Y-101417001D01*
X68058239Y-101417001D02*
X70032999Y-101417001D01*
X74930000Y-59690000D02*
X64770000Y-69850000D01*
X64770000Y-69850000D02*
X64770000Y-98128762D01*
X294640000Y-99680000D02*
X277510000Y-99680000D01*
X277510000Y-99680000D02*
X265430000Y-111760000D01*
X294640000Y-103180000D02*
X276550000Y-103180000D01*
X276550000Y-103180000D02*
X267970000Y-111760000D01*
X294640000Y-96180000D02*
X276284998Y-96180000D01*
X276284998Y-96180000D02*
X269095001Y-103369997D01*
X269095001Y-105554999D02*
X262890000Y-111760000D01*
X269095001Y-103369997D02*
X269095001Y-105554999D01*
X294640000Y-92680000D02*
X275224998Y-92680000D01*
X275224998Y-92680000D02*
X264015001Y-103889997D01*
X264015001Y-108094999D02*
X260350000Y-111760000D01*
X264015001Y-103889997D02*
X264015001Y-108094999D01*
X294640000Y-89180000D02*
X273644998Y-89180000D01*
X258935001Y-103889997D02*
X258935001Y-110634999D01*
X273644998Y-89180000D02*
X258935001Y-103889997D01*
X258935001Y-110634999D02*
X257810000Y-111760000D01*
X294640000Y-85680000D02*
X274604998Y-85680000D01*
X274604998Y-85680000D02*
X256395001Y-103889997D01*
X256395001Y-110634999D02*
X255270000Y-111760000D01*
X256395001Y-103889997D02*
X256395001Y-110634999D01*
X294640000Y-106680000D02*
X275590000Y-106680000D01*
X275590000Y-106680000D02*
X270510000Y-111760000D01*
X294640000Y-82180000D02*
X275564998Y-82180000D01*
X253855001Y-110634999D02*
X252730000Y-111760000D01*
X275564998Y-82180000D02*
X253855001Y-103889997D01*
X253855001Y-103889997D02*
X253855001Y-110634999D01*
X104140000Y-100330000D02*
X105592999Y-98877001D01*
X105592999Y-98877001D02*
X107201761Y-98877001D01*
X107201761Y-98877001D02*
X108374999Y-100050239D01*
X108374999Y-100050239D02*
X108374999Y-103294999D01*
X297180000Y-81220000D02*
X294640000Y-78680000D01*
X108374999Y-103294999D02*
X119380000Y-114300000D01*
X119380000Y-114300000D02*
X290005002Y-114300000D01*
X290005002Y-114300000D02*
X297180000Y-107125002D01*
X297180000Y-107125002D02*
X297180000Y-81220000D01*
X294640000Y-75180000D02*
X298450000Y-78990000D01*
X298450000Y-78990000D02*
X298450000Y-107950000D01*
X106680000Y-104140000D02*
X106680000Y-100330000D01*
X298450000Y-107950000D02*
X290830000Y-115570000D01*
X290830000Y-115570000D02*
X118110000Y-115570000D01*
X118110000Y-115570000D02*
X106680000Y-104140000D01*
X248920000Y-92710000D02*
X247650000Y-92710000D01*
X247650000Y-92710000D02*
X246380000Y-91440000D01*
X248920000Y-95250000D02*
X248920000Y-92710000D01*
X240030000Y-104140000D02*
X248920000Y-95250000D01*
X81280000Y-67705002D02*
X81280000Y-63500000D01*
X81280000Y-63500000D02*
X85090000Y-59690000D01*
X234950000Y-87630000D02*
X101204998Y-87630000D01*
X101204998Y-87630000D02*
X81280000Y-67705002D01*
X246380000Y-91440000D02*
X238760000Y-91440000D01*
X238760000Y-91440000D02*
X234950000Y-87630000D01*
X250190000Y-90170000D02*
X247650000Y-90170000D01*
X247650000Y-90170000D02*
X246380000Y-88900000D01*
X250190000Y-96520000D02*
X250190000Y-90170000D01*
X242570000Y-104140000D02*
X250190000Y-96520000D01*
X83820000Y-67705002D02*
X83820000Y-63500000D01*
X83820000Y-63500000D02*
X87630000Y-59690000D01*
X240030000Y-87630000D02*
X238942999Y-86542999D01*
X238942999Y-86542999D02*
X102657997Y-86542999D01*
X102657997Y-86542999D02*
X83820000Y-67705002D01*
X246380000Y-88900000D02*
X241300000Y-88900000D01*
X241300000Y-88900000D02*
X240030000Y-87630000D01*
M02*
