G04 #@! TF.FileFunction,Copper,L1,Top,Signal*
%FSLAX46Y46*%
G04 Gerber Fmt 4.6, Leading zero omitted, Abs format (unit mm)*
G04 Created by KiCad (PCBNEW 4.0.5) date 06/14/17 15:34:31*
%MOMM*%
%LPD*%
G01*
G04 APERTURE LIST*
%ADD10C,0.100000*%
%ADD11C,0.300000*%
%ADD12C,2.400000*%
%ADD13R,2.400000X2.400000*%
%ADD14R,1.524000X1.524000*%
%ADD15C,1.524000*%
%ADD16C,5.700000*%
%ADD17R,1.600000X1.600000*%
%ADD18O,1.600000X1.600000*%
%ADD19C,3.810000*%
%ADD20R,1.520000X1.520000*%
%ADD21C,1.520000*%
%ADD22C,1.600000*%
%ADD23C,0.750000*%
%ADD24C,0.250000*%
G04 APERTURE END LIST*
D10*
D11*
X190818572Y-29102857D02*
X191318572Y-29102857D01*
X191532858Y-29888571D02*
X190818572Y-29888571D01*
X190818572Y-28388571D01*
X191532858Y-28388571D01*
X192390001Y-29888571D02*
X192247143Y-29817143D01*
X192175715Y-29674286D01*
X192175715Y-28388571D01*
X193175715Y-29888571D02*
X193032857Y-29817143D01*
X192961429Y-29674286D01*
X192961429Y-28388571D01*
X193747143Y-29888571D02*
X193747143Y-28888571D01*
X193747143Y-28388571D02*
X193675714Y-28460000D01*
X193747143Y-28531429D01*
X193818571Y-28460000D01*
X193747143Y-28388571D01*
X193747143Y-28531429D01*
X194675715Y-29888571D02*
X194532857Y-29817143D01*
X194461429Y-29745714D01*
X194390000Y-29602857D01*
X194390000Y-29174286D01*
X194461429Y-29031429D01*
X194532857Y-28960000D01*
X194675715Y-28888571D01*
X194890000Y-28888571D01*
X195032857Y-28960000D01*
X195104286Y-29031429D01*
X195175715Y-29174286D01*
X195175715Y-29602857D01*
X195104286Y-29745714D01*
X195032857Y-29817143D01*
X194890000Y-29888571D01*
X194675715Y-29888571D01*
X195604286Y-28888571D02*
X196175715Y-28888571D01*
X195818572Y-28388571D02*
X195818572Y-29674286D01*
X195890000Y-29817143D01*
X196032858Y-29888571D01*
X196175715Y-29888571D01*
X196461429Y-28888571D02*
X197032858Y-28888571D01*
X196675715Y-28388571D02*
X196675715Y-29674286D01*
X196747143Y-29817143D01*
X196890001Y-29888571D01*
X197032858Y-29888571D01*
X198747143Y-29888571D02*
X199032858Y-29888571D01*
X199175715Y-29817143D01*
X199247143Y-29745714D01*
X199390001Y-29531429D01*
X199461429Y-29245714D01*
X199461429Y-28674286D01*
X199390001Y-28531429D01*
X199318572Y-28460000D01*
X199175715Y-28388571D01*
X198890001Y-28388571D01*
X198747143Y-28460000D01*
X198675715Y-28531429D01*
X198604286Y-28674286D01*
X198604286Y-29031429D01*
X198675715Y-29174286D01*
X198747143Y-29245714D01*
X198890001Y-29317143D01*
X199175715Y-29317143D01*
X199318572Y-29245714D01*
X199390001Y-29174286D01*
X199461429Y-29031429D01*
X200390000Y-28388571D02*
X200532857Y-28388571D01*
X200675714Y-28460000D01*
X200747143Y-28531429D01*
X200818572Y-28674286D01*
X200890000Y-28960000D01*
X200890000Y-29317143D01*
X200818572Y-29602857D01*
X200747143Y-29745714D01*
X200675714Y-29817143D01*
X200532857Y-29888571D01*
X200390000Y-29888571D01*
X200247143Y-29817143D01*
X200175714Y-29745714D01*
X200104286Y-29602857D01*
X200032857Y-29317143D01*
X200032857Y-28960000D01*
X200104286Y-28674286D01*
X200175714Y-28531429D01*
X200247143Y-28460000D01*
X200390000Y-28388571D01*
X201390000Y-28388571D02*
X202318571Y-28388571D01*
X201818571Y-28960000D01*
X202032857Y-28960000D01*
X202175714Y-29031429D01*
X202247143Y-29102857D01*
X202318571Y-29245714D01*
X202318571Y-29602857D01*
X202247143Y-29745714D01*
X202175714Y-29817143D01*
X202032857Y-29888571D01*
X201604285Y-29888571D01*
X201461428Y-29817143D01*
X201390000Y-29745714D01*
X204961428Y-29745714D02*
X204889999Y-29817143D01*
X204675713Y-29888571D01*
X204532856Y-29888571D01*
X204318571Y-29817143D01*
X204175713Y-29674286D01*
X204104285Y-29531429D01*
X204032856Y-29245714D01*
X204032856Y-29031429D01*
X204104285Y-28745714D01*
X204175713Y-28602857D01*
X204318571Y-28460000D01*
X204532856Y-28388571D01*
X204675713Y-28388571D01*
X204889999Y-28460000D01*
X204961428Y-28531429D01*
X205604285Y-29888571D02*
X205604285Y-28388571D01*
X206175713Y-28388571D01*
X206318571Y-28460000D01*
X206389999Y-28531429D01*
X206461428Y-28674286D01*
X206461428Y-28888571D01*
X206389999Y-29031429D01*
X206318571Y-29102857D01*
X206175713Y-29174286D01*
X205604285Y-29174286D01*
X207104285Y-28388571D02*
X207104285Y-29602857D01*
X207175713Y-29745714D01*
X207247142Y-29817143D01*
X207389999Y-29888571D01*
X207675713Y-29888571D01*
X207818571Y-29817143D01*
X207889999Y-29745714D01*
X207961428Y-29602857D01*
X207961428Y-28388571D01*
D12*
X263540000Y-44450000D03*
X260040000Y-44450000D03*
X267040000Y-44450000D03*
X270540000Y-44450000D03*
X274040000Y-44450000D03*
X277540000Y-44450000D03*
D13*
X256540000Y-44450000D03*
D12*
X281040000Y-44450000D03*
X284540000Y-44450000D03*
X288040000Y-44450000D03*
X291540000Y-44450000D03*
X295040000Y-44450000D03*
D14*
X58420000Y-97790000D03*
D15*
X58420000Y-100330000D03*
X71120000Y-97790000D03*
X60960000Y-100330000D03*
X73660000Y-97790000D03*
X63500000Y-100330000D03*
X76200000Y-97790000D03*
X66040000Y-100330000D03*
X78740000Y-97790000D03*
X68580000Y-100330000D03*
X81280000Y-97790000D03*
X71120000Y-100330000D03*
X83820000Y-97790000D03*
X73660000Y-100330000D03*
X86360000Y-97790000D03*
X76200000Y-100330000D03*
X88900000Y-97790000D03*
X78740000Y-100330000D03*
X91440000Y-97790000D03*
X81280000Y-100330000D03*
X93980000Y-97790000D03*
X83820000Y-100330000D03*
X96520000Y-97790000D03*
X86360000Y-100330000D03*
X88900000Y-100330000D03*
X99060000Y-97790000D03*
X91440000Y-100330000D03*
X96520000Y-100330000D03*
X99060000Y-100330000D03*
X101600000Y-100330000D03*
X104140000Y-100330000D03*
X101600000Y-97790000D03*
X104140000Y-97790000D03*
X60960000Y-97790000D03*
X63500000Y-97790000D03*
X66040000Y-97790000D03*
X68580000Y-97790000D03*
X106680000Y-97790000D03*
X106680000Y-100330000D03*
X93980000Y-100330000D03*
D16*
X53550000Y-99060000D03*
X111550000Y-99060000D03*
X111550000Y-50060000D03*
X53550000Y-50060000D03*
D17*
X72390000Y-67310000D03*
D18*
X90170000Y-59690000D03*
X74930000Y-67310000D03*
X87630000Y-59690000D03*
X77470000Y-67310000D03*
X85090000Y-59690000D03*
X80010000Y-67310000D03*
X82550000Y-59690000D03*
X82550000Y-67310000D03*
X80010000Y-59690000D03*
X85090000Y-67310000D03*
X77470000Y-59690000D03*
X87630000Y-67310000D03*
X74930000Y-59690000D03*
X90170000Y-67310000D03*
X72390000Y-59690000D03*
D19*
X197360000Y-63500000D03*
X171960000Y-63500000D03*
D20*
X179070000Y-66040000D03*
D21*
X181860000Y-66040000D03*
X184530000Y-66040000D03*
X187330000Y-66040000D03*
X190120000Y-66040000D03*
X180470000Y-63500000D03*
X183260000Y-63500000D03*
X185930000Y-63500000D03*
X188720000Y-63500000D03*
D12*
X55230000Y-39370000D03*
X51730000Y-39370000D03*
X58730000Y-39370000D03*
D13*
X62230000Y-39370000D03*
D12*
X97140000Y-39370000D03*
X93640000Y-39370000D03*
X100640000Y-39370000D03*
D13*
X104140000Y-39370000D03*
D12*
X212740000Y-44450000D03*
X209240000Y-44450000D03*
X216240000Y-44450000D03*
X219740000Y-44450000D03*
X223240000Y-44450000D03*
X226740000Y-44450000D03*
D13*
X205740000Y-44450000D03*
D12*
X230240000Y-44450000D03*
X233740000Y-44450000D03*
X237240000Y-44450000D03*
X240740000Y-44450000D03*
X244240000Y-44450000D03*
D15*
X234950000Y-100330000D03*
X234950000Y-87630000D03*
X104140000Y-53340000D03*
X91440000Y-53340000D03*
X104140000Y-49530000D03*
X91440000Y-49530000D03*
X240030000Y-100330000D03*
X240030000Y-87630000D03*
X128270000Y-34290000D03*
X115570000Y-34290000D03*
X128270000Y-39370000D03*
X115570000Y-39370000D03*
X66040000Y-34290000D03*
X78740000Y-34290000D03*
X66040000Y-39370000D03*
X78740000Y-39370000D03*
D17*
X246380000Y-60960000D03*
D18*
X254000000Y-93980000D03*
X246380000Y-63500000D03*
X254000000Y-91440000D03*
X246380000Y-66040000D03*
X254000000Y-88900000D03*
X246380000Y-68580000D03*
X254000000Y-86360000D03*
X246380000Y-71120000D03*
X254000000Y-83820000D03*
X246380000Y-73660000D03*
X254000000Y-81280000D03*
X246380000Y-76200000D03*
X254000000Y-78740000D03*
X246380000Y-78740000D03*
X254000000Y-76200000D03*
X246380000Y-81280000D03*
X254000000Y-73660000D03*
X246380000Y-83820000D03*
X254000000Y-71120000D03*
X246380000Y-86360000D03*
X254000000Y-68580000D03*
X246380000Y-88900000D03*
X254000000Y-66040000D03*
X246380000Y-91440000D03*
X254000000Y-63500000D03*
X246380000Y-93980000D03*
X254000000Y-60960000D03*
D17*
X68580000Y-110490000D03*
D22*
X68580000Y-112990000D03*
D17*
X147320000Y-55880000D03*
D18*
X154940000Y-73660000D03*
X147320000Y-58420000D03*
X154940000Y-71120000D03*
X147320000Y-60960000D03*
X154940000Y-68580000D03*
X147320000Y-63500000D03*
X154940000Y-66040000D03*
X147320000Y-66040000D03*
X154940000Y-63500000D03*
X147320000Y-68580000D03*
X154940000Y-60960000D03*
X147320000Y-71120000D03*
X154940000Y-58420000D03*
X147320000Y-73660000D03*
X154940000Y-55880000D03*
D22*
X142240000Y-53340000D03*
X142240000Y-58340000D03*
X142240000Y-62230000D03*
X142240000Y-67230000D03*
X153670000Y-49530000D03*
X148670000Y-49530000D03*
X180340000Y-76200000D03*
X180340000Y-71200000D03*
X76280000Y-110490000D03*
X81280000Y-110490000D03*
X82550000Y-39370000D03*
X87550000Y-39370000D03*
X134620000Y-39370000D03*
X139620000Y-39370000D03*
D12*
X55880000Y-113030000D03*
D13*
X55880000Y-109530000D03*
D12*
X294640000Y-99680000D03*
X294640000Y-103180000D03*
X294640000Y-96180000D03*
X294640000Y-92680000D03*
X294640000Y-89180000D03*
X294640000Y-85680000D03*
D13*
X294640000Y-106680000D03*
D12*
X294640000Y-82180000D03*
X294640000Y-78680000D03*
X294640000Y-75180000D03*
X294640000Y-71680000D03*
X294640000Y-68180000D03*
D17*
X270510000Y-104140000D03*
D18*
X237490000Y-111760000D03*
X267970000Y-104140000D03*
X240030000Y-111760000D03*
X265430000Y-104140000D03*
X242570000Y-111760000D03*
X262890000Y-104140000D03*
X245110000Y-111760000D03*
X260350000Y-104140000D03*
X247650000Y-111760000D03*
X257810000Y-104140000D03*
X250190000Y-111760000D03*
X255270000Y-104140000D03*
X252730000Y-111760000D03*
X252730000Y-104140000D03*
X255270000Y-111760000D03*
X250190000Y-104140000D03*
X257810000Y-111760000D03*
X247650000Y-104140000D03*
X260350000Y-111760000D03*
X245110000Y-104140000D03*
X262890000Y-111760000D03*
X242570000Y-104140000D03*
X265430000Y-111760000D03*
X240030000Y-104140000D03*
X267970000Y-111760000D03*
X237490000Y-104140000D03*
X270510000Y-111760000D03*
D23*
X250190000Y-104140000D02*
X250190000Y-106680000D01*
X250190000Y-106680000D02*
X245110000Y-111760000D01*
X242570000Y-111760000D02*
X245110000Y-111760000D01*
X242570000Y-111760000D02*
X240030000Y-111760000D01*
X234950000Y-100330000D02*
X234950000Y-106680000D01*
X234950000Y-106680000D02*
X240030000Y-111760000D01*
X240030000Y-100330000D02*
X248920000Y-100330000D01*
X248920000Y-100330000D02*
X254000000Y-93980000D01*
X234950000Y-100330000D02*
X240030000Y-100330000D01*
X246380000Y-81280000D02*
X248920000Y-81280000D01*
X248920000Y-81280000D02*
X254000000Y-86360000D01*
X58420000Y-100330000D02*
X60960000Y-100330000D01*
D24*
X181454999Y-54454999D02*
X187330000Y-60330000D01*
X187330000Y-60330000D02*
X187330000Y-66040000D01*
X147320000Y-58420000D02*
X151285001Y-54454999D01*
X151285001Y-54454999D02*
X181454999Y-54454999D01*
D23*
X295040000Y-44450000D02*
X289960000Y-49530000D01*
X289960000Y-49530000D02*
X249320000Y-49530000D01*
X249320000Y-49530000D02*
X244240000Y-44450000D01*
X295040000Y-43580000D02*
X295040000Y-44450000D01*
X90170000Y-59690000D02*
X93640000Y-59690000D01*
X93640000Y-39370000D02*
X93640000Y-59690000D01*
X93640000Y-59690000D02*
X93640000Y-64430000D01*
X93640000Y-64430000D02*
X90760000Y-67310000D01*
X90760000Y-67310000D02*
X90170000Y-67310000D01*
D24*
X147320000Y-68580000D02*
X153670000Y-62230000D01*
X153670000Y-62230000D02*
X157480000Y-62230000D01*
X157480000Y-62230000D02*
X158750000Y-60960000D01*
X158750000Y-60960000D02*
X180720000Y-60960000D01*
X180720000Y-60960000D02*
X183260000Y-63500000D01*
X154940000Y-60960000D02*
X157480000Y-60960000D01*
X157480000Y-60960000D02*
X158750000Y-59690000D01*
X158750000Y-59690000D02*
X182880000Y-59690000D01*
X182880000Y-59690000D02*
X184345001Y-61155001D01*
X184345001Y-61155001D02*
X184345001Y-64574999D01*
X184345001Y-64574999D02*
X182880000Y-66040000D01*
X182880000Y-66040000D02*
X181860000Y-66040000D01*
X154940000Y-63500000D02*
X158750000Y-67310000D01*
X183260000Y-67310000D02*
X184530000Y-66040000D01*
X158750000Y-67310000D02*
X183260000Y-67310000D01*
X78370020Y-65670020D02*
X80010000Y-67310000D01*
X76200000Y-62863589D02*
X78370020Y-65033609D01*
X76200000Y-44450000D02*
X76200000Y-62863589D01*
X78370020Y-65033609D02*
X78370020Y-65670020D01*
X66040000Y-34290000D02*
X76200000Y-44450000D01*
X76518205Y-66358205D02*
X77470000Y-67310000D01*
X66040000Y-39370000D02*
X73660000Y-46990000D01*
X73660000Y-61596410D02*
X76518205Y-64454615D01*
X76518205Y-64454615D02*
X76518205Y-66358205D01*
X73660000Y-46990000D02*
X73660000Y-61596410D01*
X77470000Y-59690000D02*
X77470000Y-58420000D01*
X77470000Y-58420000D02*
X88900000Y-46990000D01*
X88900000Y-46990000D02*
X88900000Y-40129002D01*
X88900000Y-40129002D02*
X88975001Y-40054001D01*
X88961295Y-38672293D02*
X92073589Y-35560000D01*
X88975001Y-40054001D02*
X88975001Y-38685999D01*
X88975001Y-38685999D02*
X88961295Y-38672293D01*
X92073589Y-35560000D02*
X95250000Y-35560000D01*
X95250000Y-35560000D02*
X96520000Y-36830000D01*
X96520000Y-36830000D02*
X96520000Y-38750000D01*
X96520000Y-38750000D02*
X97140000Y-39370000D01*
X98100000Y-41910000D02*
X100640000Y-39370000D01*
X95465001Y-38493999D02*
X95465001Y-41910000D01*
X94516001Y-37544999D02*
X95465001Y-38493999D01*
X95465001Y-41910000D02*
X98100000Y-41910000D01*
X92763999Y-37544999D02*
X94516001Y-37544999D01*
X80010000Y-58420000D02*
X90620011Y-47809989D01*
X90620011Y-39688987D02*
X92763999Y-37544999D01*
X80010000Y-59690000D02*
X80010000Y-58420000D01*
X90620011Y-47809989D02*
X90620011Y-39688987D01*
X284540000Y-44450000D02*
X276920000Y-36830000D01*
X276920000Y-36830000D02*
X135050998Y-36830000D01*
X135050998Y-36830000D02*
X132080000Y-39800998D01*
X132080000Y-39800998D02*
X132080000Y-40640000D01*
X132080000Y-40640000D02*
X76961999Y-95758001D01*
X76961999Y-95758001D02*
X76961999Y-97028001D01*
X76961999Y-97028001D02*
X76200000Y-97790000D01*
X288040000Y-44450000D02*
X277880000Y-34290000D01*
X277880000Y-34290000D02*
X135890000Y-34290000D01*
X75438001Y-99568001D02*
X76200000Y-100330000D01*
X135890000Y-34290000D02*
X75112999Y-95067001D01*
X75112999Y-95067001D02*
X75112999Y-99242999D01*
X75112999Y-99242999D02*
X75438001Y-99568001D01*
X233740000Y-44450000D02*
X232497002Y-44450000D01*
X232497002Y-44450000D02*
X230972001Y-42924999D01*
X230972001Y-42924999D02*
X134536239Y-42924999D01*
X134536239Y-42924999D02*
X87630000Y-89831238D01*
X87630000Y-101600000D02*
X86360000Y-102870000D01*
X87630000Y-89831238D02*
X87630000Y-101600000D01*
X86360000Y-102870000D02*
X81767238Y-102870000D01*
X81767238Y-102870000D02*
X79376990Y-100479752D01*
X79376990Y-100479752D02*
X79376990Y-99994638D01*
X79376990Y-99994638D02*
X79226176Y-99843824D01*
X79226176Y-99843824D02*
X78740000Y-100330000D01*
X237240000Y-44450000D02*
X234700000Y-41910000D01*
X234700000Y-41910000D02*
X133011238Y-41910000D01*
X85090000Y-89831238D02*
X85090000Y-99060000D01*
X85090000Y-99060000D02*
X83820000Y-100330000D01*
X133011238Y-41910000D02*
X85090000Y-89831238D01*
X58420000Y-97790000D02*
X58420000Y-73660000D01*
X58420000Y-73660000D02*
X72390000Y-59690000D01*
X71120000Y-97790000D02*
X71120000Y-78740000D01*
X71120000Y-78740000D02*
X82550000Y-67310000D01*
X83675001Y-67850001D02*
X83675001Y-60815001D01*
X73660000Y-77865002D02*
X83675001Y-67850001D01*
X73660000Y-97790000D02*
X73660000Y-77865002D01*
X83675001Y-60815001D02*
X82550000Y-59690000D01*
X152400000Y-71120000D02*
X154940000Y-68580000D01*
X152400000Y-95250000D02*
X152400000Y-71120000D01*
X140970000Y-106680000D02*
X152400000Y-95250000D01*
X69850000Y-106680000D02*
X140970000Y-106680000D01*
X66040000Y-102870000D02*
X69850000Y-106680000D01*
X66040000Y-100330000D02*
X66040000Y-102870000D01*
X68580000Y-100330000D02*
X73660000Y-105410000D01*
X73660000Y-105410000D02*
X140970000Y-105410000D01*
X140970000Y-105410000D02*
X151130000Y-95250000D01*
X151130000Y-95250000D02*
X151130000Y-69850000D01*
X151130000Y-69850000D02*
X154940000Y-66040000D01*
X69850000Y-64770000D02*
X72390000Y-64770000D01*
X60960000Y-97790000D02*
X60960000Y-73660000D01*
X72390000Y-64770000D02*
X74930000Y-67310000D01*
X60960000Y-73660000D02*
X69850000Y-64770000D01*
X63500000Y-97790000D02*
X63500000Y-74930000D01*
X71120000Y-67310000D02*
X72390000Y-67310000D01*
X63500000Y-74930000D02*
X71120000Y-67310000D01*
M02*
