M48
;DRILL file {KiCad 4.0.6} date 08/09/17 12:21:09
;FORMAT={-:-/ absolute / inch / decimal}
FMAT,2
INCH,TZ
T1C0.030
T2C0.031
T3C0.032
T4C0.040
T5C0.040
T6C0.047
T7C0.108
T8C0.120
%
G90
G05
M72
T1
X3.35Y-2.9
X3.45Y-2.9
X3.55Y-2.9
X3.65Y-2.9
T2
X2.55Y-2.3
X2.55Y-2.9
X2.65Y-2.3
X2.65Y-2.9
X2.7Y-4.35
X2.7Y-4.4484
X2.75Y-2.3
X2.75Y-2.9
X2.85Y-2.3
X2.85Y-2.9
X2.95Y-2.3
X2.95Y-2.9
X3.0031Y-4.35
X3.05Y-2.3
X3.05Y-2.9
X3.15Y-2.3
X3.15Y-2.9
X3.2Y-4.35
X3.25Y-1.55
X3.25Y-2.3
X3.25Y-2.9
X3.35Y-2.3
X3.4469Y-1.55
X3.45Y-2.3
X3.55Y-2.3
X3.65Y-2.3
X5.3Y-1.55
X5.4969Y-1.55
X5.6Y-2.1
X5.6Y-2.2969
X5.6Y-2.45
X5.6Y-2.6469
X5.8Y-2.2
X5.8Y-2.3
X5.8Y-2.4
X5.8Y-2.5
X5.8Y-2.6
X5.8Y-2.7
X5.8Y-2.8
X5.8Y-2.9
X5.8531Y-1.95
X6.05Y-1.95
X6.1Y-2.2
X6.1Y-2.3
X6.1Y-2.4
X6.1Y-2.5
X6.1Y-2.6
X6.1Y-2.7
X6.1Y-2.8
X6.1Y-2.9
X7.1Y-2.8031
X7.1Y-3.
X9.35Y-4.1
X9.35Y-4.4
X9.45Y-4.1
X9.45Y-4.4
X9.55Y-4.1
X9.55Y-4.4
X9.65Y-4.1
X9.65Y-4.4
X9.7Y-2.4
X9.7Y-2.5
X9.7Y-2.6
X9.7Y-2.7
X9.7Y-2.8
X9.7Y-2.9
X9.7Y-3.
X9.7Y-3.1
X9.7Y-3.2
X9.7Y-3.3
X9.7Y-3.4
X9.7Y-3.5
X9.7Y-3.6
X9.7Y-3.7
X9.75Y-4.1
X9.75Y-4.4
X9.85Y-4.1
X9.85Y-4.4
X9.95Y-4.1
X9.95Y-4.4
X10.Y-2.4
X10.Y-2.5
X10.Y-2.6
X10.Y-2.7
X10.Y-2.8
X10.Y-2.9
X10.Y-3.
X10.Y-3.1
X10.Y-3.2
X10.Y-3.3
X10.Y-3.4
X10.Y-3.5
X10.Y-3.6
X10.Y-3.7
X10.05Y-4.1
X10.05Y-4.4
X10.15Y-4.1
X10.15Y-4.4
X10.25Y-4.1
X10.25Y-4.4
X10.35Y-4.1
X10.35Y-4.4
X10.45Y-4.1
X10.45Y-4.4
X10.55Y-4.1
X10.55Y-4.4
X10.65Y-4.1
X10.65Y-4.4
T3
X2.6Y-1.35
X2.6Y-1.55
X3.1Y-1.35
X3.1Y-1.55
X4.55Y-1.35
X4.55Y-1.55
X5.05Y-1.35
X5.05Y-1.55
X9.25Y-3.45
X9.25Y-3.95
X9.45Y-3.45
X9.45Y-3.95
T4
X2.3Y-3.85
X2.3Y-3.95
X2.4Y-3.85
X2.4Y-3.95
X2.5Y-3.85
X2.5Y-3.95
X2.6Y-3.85
X2.6Y-3.95
X2.7Y-3.85
X2.7Y-3.95
X2.8Y-3.85
X2.8Y-3.95
X2.9Y-3.85
X2.9Y-3.95
X3.Y-3.85
X3.Y-3.95
X3.1Y-3.85
X3.1Y-3.95
X3.2Y-3.85
X3.2Y-3.95
X3.3Y-3.85
X3.3Y-3.95
X3.4Y-3.85
X3.4Y-3.95
X3.5Y-3.85
X3.5Y-3.95
X3.6Y-3.85
X3.6Y-3.95
X3.7Y-3.85
X3.7Y-3.95
X3.8Y-3.85
X3.8Y-3.95
X3.9Y-3.85
X3.9Y-3.95
X4.Y-3.85
X4.Y-3.95
X4.1Y-3.85
X4.1Y-3.95
X4.2Y-3.85
X4.2Y-3.95
T5
X7.05Y-2.6
X7.1051Y-2.5
X7.1598Y-2.6
X7.215Y-2.5
X7.265Y-2.6
X7.3201Y-2.5
X7.3752Y-2.6
X7.4299Y-2.5
X7.485Y-2.6
T6
X2.0366Y-1.55
X2.1744Y-1.55
X2.2Y-4.3122
X2.2Y-4.45
X2.3122Y-1.55
X2.45Y-1.55
X3.6866Y-1.55
X3.8244Y-1.55
X3.9622Y-1.55
X4.1Y-1.55
X6.7Y-4.15
X6.8378Y-4.15
X6.9756Y-4.15
X7.1134Y-4.15
X8.1Y-1.75
X8.2378Y-1.75
X8.3756Y-1.75
X8.5134Y-1.75
X8.6512Y-1.75
X8.789Y-1.75
X8.9268Y-1.75
X9.0646Y-1.75
X9.2024Y-1.75
X9.3402Y-1.75
X9.478Y-1.75
X9.6157Y-1.75
X10.1Y-1.75
X10.2378Y-1.75
X10.3756Y-1.75
X10.5134Y-1.75
X10.6512Y-1.75
X10.789Y-1.75
X10.9268Y-1.75
X11.0646Y-1.75
X11.2024Y-1.75
X11.3402Y-1.75
X11.478Y-1.75
X11.6Y-2.6843
X11.6Y-2.822
X11.6Y-2.9598
X11.6Y-3.0976
X11.6Y-3.2354
X11.6Y-3.3732
X11.6Y-3.511
X11.6Y-3.6488
X11.6Y-3.7866
X11.6Y-3.9244
X11.6Y-4.0622
X11.6Y-4.2
X11.6157Y-1.75
T7
X2.1083Y-1.9709
X2.1083Y-3.9
X4.3917Y-1.9709
X4.3917Y-3.9
T8
X6.7701Y-2.5
X7.7701Y-2.5
T0
M30
