G04 #@! TF.FileFunction,Copper,L2,Bot,Signal*
%FSLAX46Y46*%
G04 Gerber Fmt 4.6, Leading zero omitted, Abs format (unit mm)*
G04 Created by KiCad (PCBNEW 4.0.5) date 04/16/17 00:06:54*
%MOMM*%
%LPD*%
G01*
G04 APERTURE LIST*
%ADD10C,0.100000*%
%ADD11R,1.600000X1.600000*%
%ADD12O,1.600000X1.600000*%
%ADD13R,3.000000X2.500000*%
%ADD14C,3.500000*%
%ADD15R,2.600000X2.000000*%
%ADD16O,2.600000X2.000000*%
%ADD17C,17.000000*%
%ADD18C,2.500000*%
%ADD19C,1.524000*%
%ADD20C,19.000000*%
%ADD21C,2.000000*%
%ADD22C,0.254000*%
G04 APERTURE END LIST*
D10*
D11*
X91440000Y-93980000D03*
D12*
X71120000Y-101600000D03*
X88900000Y-93980000D03*
X73660000Y-101600000D03*
X86360000Y-93980000D03*
X76200000Y-101600000D03*
X83820000Y-93980000D03*
X78740000Y-101600000D03*
X81280000Y-93980000D03*
X81280000Y-101600000D03*
X78740000Y-93980000D03*
X83820000Y-101600000D03*
X76200000Y-93980000D03*
X86360000Y-101600000D03*
X73660000Y-93980000D03*
X88900000Y-101600000D03*
X71120000Y-93980000D03*
X91440000Y-101600000D03*
D13*
X80010000Y-127780000D03*
D14*
X80010000Y-132080000D03*
X80010000Y-136380000D03*
D13*
X59690000Y-127780000D03*
D14*
X59690000Y-132080000D03*
X59690000Y-136380000D03*
D15*
X26670000Y-110490000D03*
D16*
X26670000Y-107950000D03*
X26670000Y-105410000D03*
X26670000Y-102870000D03*
X26670000Y-100330000D03*
X26670000Y-97790000D03*
X26670000Y-95250000D03*
X26670000Y-92710000D03*
D11*
X308610000Y-77470000D03*
D12*
X316230000Y-110490000D03*
X308610000Y-80010000D03*
X316230000Y-107950000D03*
X308610000Y-82550000D03*
X316230000Y-105410000D03*
X308610000Y-85090000D03*
X316230000Y-102870000D03*
X308610000Y-87630000D03*
X316230000Y-100330000D03*
X308610000Y-90170000D03*
X316230000Y-97790000D03*
X308610000Y-92710000D03*
X316230000Y-95250000D03*
X308610000Y-95250000D03*
X316230000Y-92710000D03*
X308610000Y-97790000D03*
X316230000Y-90170000D03*
X308610000Y-100330000D03*
X316230000Y-87630000D03*
X308610000Y-102870000D03*
X316230000Y-85090000D03*
X308610000Y-105410000D03*
X316230000Y-82550000D03*
X308610000Y-107950000D03*
X316230000Y-80010000D03*
X308610000Y-110490000D03*
X316230000Y-77470000D03*
D11*
X154940000Y-77470000D03*
D12*
X162560000Y-110490000D03*
X154940000Y-80010000D03*
X162560000Y-107950000D03*
X154940000Y-82550000D03*
X162560000Y-105410000D03*
X154940000Y-85090000D03*
X162560000Y-102870000D03*
X154940000Y-87630000D03*
X162560000Y-100330000D03*
X154940000Y-90170000D03*
X162560000Y-97790000D03*
X154940000Y-92710000D03*
X162560000Y-95250000D03*
X154940000Y-95250000D03*
X162560000Y-92710000D03*
X154940000Y-97790000D03*
X162560000Y-90170000D03*
X154940000Y-100330000D03*
X162560000Y-87630000D03*
X154940000Y-102870000D03*
X162560000Y-85090000D03*
X154940000Y-105410000D03*
X162560000Y-82550000D03*
X154940000Y-107950000D03*
X162560000Y-80010000D03*
X154940000Y-110490000D03*
X162560000Y-77470000D03*
D11*
X229870000Y-77470000D03*
D12*
X237490000Y-110490000D03*
X229870000Y-80010000D03*
X237490000Y-107950000D03*
X229870000Y-82550000D03*
X237490000Y-105410000D03*
X229870000Y-85090000D03*
X237490000Y-102870000D03*
X229870000Y-87630000D03*
X237490000Y-100330000D03*
X229870000Y-90170000D03*
X237490000Y-97790000D03*
X229870000Y-92710000D03*
X237490000Y-95250000D03*
X229870000Y-95250000D03*
X237490000Y-92710000D03*
X229870000Y-97790000D03*
X237490000Y-90170000D03*
X229870000Y-100330000D03*
X237490000Y-87630000D03*
X229870000Y-102870000D03*
X237490000Y-85090000D03*
X229870000Y-105410000D03*
X237490000Y-82550000D03*
X229870000Y-107950000D03*
X237490000Y-80010000D03*
X229870000Y-110490000D03*
X237490000Y-77470000D03*
D13*
X130810000Y-52850000D03*
D14*
X130810000Y-57150000D03*
X130810000Y-61450000D03*
D13*
X151130000Y-52850000D03*
D14*
X151130000Y-57150000D03*
X151130000Y-61450000D03*
D13*
X374650000Y-52850000D03*
D14*
X374650000Y-57150000D03*
X374650000Y-61450000D03*
D13*
X354330000Y-52850000D03*
D14*
X354330000Y-57150000D03*
X354330000Y-61450000D03*
D13*
X334010000Y-52850000D03*
D14*
X334010000Y-57150000D03*
X334010000Y-61450000D03*
D13*
X313690000Y-52850000D03*
D14*
X313690000Y-57150000D03*
X313690000Y-61450000D03*
D13*
X293370000Y-52850000D03*
D14*
X293370000Y-57150000D03*
X293370000Y-61450000D03*
D13*
X273050000Y-52850000D03*
D14*
X273050000Y-57150000D03*
X273050000Y-61450000D03*
D13*
X252730000Y-52850000D03*
D14*
X252730000Y-57150000D03*
X252730000Y-61450000D03*
D13*
X232410000Y-52850000D03*
D14*
X232410000Y-57150000D03*
X232410000Y-61450000D03*
D13*
X212090000Y-52850000D03*
D14*
X212090000Y-57150000D03*
X212090000Y-61450000D03*
D13*
X191770000Y-52850000D03*
D14*
X191770000Y-57150000D03*
X191770000Y-61450000D03*
D13*
X171450000Y-52850000D03*
D14*
X171450000Y-57150000D03*
X171450000Y-61450000D03*
D13*
X110490000Y-52850000D03*
D14*
X110490000Y-57150000D03*
X110490000Y-61450000D03*
D13*
X90170000Y-52850000D03*
D14*
X90170000Y-57150000D03*
X90170000Y-61450000D03*
D13*
X69850000Y-52850000D03*
D14*
X69850000Y-57150000D03*
X69850000Y-61450000D03*
D13*
X49530000Y-52850000D03*
D14*
X49530000Y-57150000D03*
X49530000Y-61450000D03*
D13*
X29210000Y-52850000D03*
D14*
X29210000Y-57150000D03*
X29210000Y-61450000D03*
D13*
X39370000Y-127780000D03*
D14*
X39370000Y-132080000D03*
X39370000Y-136380000D03*
D13*
X100330000Y-127780000D03*
D14*
X100330000Y-132080000D03*
X100330000Y-136380000D03*
D13*
X242570000Y-127780000D03*
D14*
X242570000Y-132080000D03*
X242570000Y-136380000D03*
D13*
X262890000Y-127780000D03*
D14*
X262890000Y-132080000D03*
X262890000Y-136380000D03*
D13*
X283210000Y-127780000D03*
D14*
X283210000Y-132080000D03*
X283210000Y-136380000D03*
D17*
X438150000Y-85090000D03*
D18*
X438150000Y-73660000D03*
X445770000Y-77470000D03*
X430530000Y-77470000D03*
X438150000Y-96520000D03*
D17*
X417830000Y-85090000D03*
D18*
X417830000Y-73660000D03*
X425450000Y-77470000D03*
X410210000Y-77470000D03*
X417830000Y-96520000D03*
D17*
X397510000Y-85090000D03*
D18*
X397510000Y-73660000D03*
X405130000Y-77470000D03*
X389890000Y-77470000D03*
X397510000Y-96520000D03*
D17*
X158750000Y-132080000D03*
D18*
X158750000Y-120650000D03*
X166370000Y-124460000D03*
X151130000Y-124460000D03*
X158750000Y-143510000D03*
D17*
X185420000Y-132080000D03*
D18*
X185420000Y-120650000D03*
X193040000Y-124460000D03*
X177800000Y-124460000D03*
X185420000Y-143510000D03*
D17*
X212090000Y-132080000D03*
D18*
X212090000Y-120650000D03*
X219710000Y-124460000D03*
X204470000Y-124460000D03*
X212090000Y-143510000D03*
D17*
X354330000Y-132080000D03*
D18*
X354330000Y-120650000D03*
X361950000Y-124460000D03*
X346710000Y-124460000D03*
X354330000Y-143510000D03*
D17*
X334010000Y-132080000D03*
D18*
X334010000Y-120650000D03*
X341630000Y-124460000D03*
X326390000Y-124460000D03*
X334010000Y-143510000D03*
D17*
X313690000Y-132080000D03*
D18*
X313690000Y-120650000D03*
X321310000Y-124460000D03*
X306070000Y-124460000D03*
X313690000Y-143510000D03*
D19*
X397510000Y-68580000D03*
X397510000Y-55880000D03*
X417830000Y-55880000D03*
X417830000Y-68580000D03*
X438150000Y-55880000D03*
X438150000Y-68580000D03*
X386080000Y-120650000D03*
X373380000Y-120650000D03*
X386080000Y-125730000D03*
X373380000Y-125730000D03*
X386080000Y-130810000D03*
X373380000Y-130810000D03*
X52070000Y-83820000D03*
X52070000Y-96520000D03*
X45720000Y-83820000D03*
X45720000Y-96520000D03*
X39370000Y-83820000D03*
X39370000Y-96520000D03*
X139700000Y-134620000D03*
X127000000Y-134620000D03*
X139700000Y-139700000D03*
X127000000Y-139700000D03*
X139700000Y-144780000D03*
X127000000Y-144780000D03*
D20*
X417830000Y-132080000D03*
D21*
X422910000Y-119380000D03*
X412750000Y-119380000D03*
X406400000Y-138430000D03*
D22*
X52070000Y-96520000D02*
X52070000Y-101600000D01*
X26670000Y-102870000D02*
X33020000Y-102870000D01*
X33020000Y-102870000D02*
X34290000Y-101600000D01*
X59690000Y-101600000D02*
X64770000Y-96520000D01*
X34290000Y-101600000D02*
X52070000Y-101600000D01*
X52070000Y-101600000D02*
X59690000Y-101600000D01*
X64770000Y-96520000D02*
X71120000Y-96520000D01*
X71120000Y-96520000D02*
X73660000Y-93980000D01*
X91440000Y-93980000D02*
X143510000Y-93980000D01*
X143510000Y-93980000D02*
X154940000Y-105410000D01*
X88900000Y-93980000D02*
X88900000Y-95250000D01*
X143510000Y-96520000D02*
X154940000Y-107950000D01*
X88900000Y-95250000D02*
X90170000Y-96520000D01*
X90170000Y-96520000D02*
X143510000Y-96520000D01*
X391160000Y-133350000D02*
X396240000Y-138430000D01*
X396240000Y-138430000D02*
X406400000Y-138430000D01*
X271780000Y-149860000D02*
X273050000Y-151130000D01*
X273050000Y-151130000D02*
X391160000Y-151130000D01*
X391160000Y-151130000D02*
X391160000Y-133350000D01*
X391160000Y-133350000D02*
X388620000Y-130810000D01*
X142240000Y-149860000D02*
X231140000Y-149860000D01*
X388620000Y-120650000D02*
X388620000Y-125730000D01*
X388620000Y-130810000D02*
X388620000Y-125730000D01*
X251460000Y-149860000D02*
X251460000Y-143510000D01*
X251460000Y-143510000D02*
X262890000Y-132080000D01*
X231140000Y-149860000D02*
X251460000Y-149860000D01*
X251460000Y-149860000D02*
X271780000Y-149860000D01*
X231140000Y-143510000D02*
X231140000Y-114300000D01*
X231140000Y-114300000D02*
X237490000Y-107950000D01*
X162560000Y-110490000D02*
X158750000Y-110490000D01*
X120650000Y-124460000D02*
X120650000Y-149860000D01*
X129540000Y-115570000D02*
X120650000Y-124460000D01*
X153670000Y-115570000D02*
X129540000Y-115570000D01*
X158750000Y-110490000D02*
X153670000Y-115570000D01*
X139700000Y-134620000D02*
X142240000Y-134620000D01*
X231140000Y-149860000D02*
X231140000Y-143510000D01*
X87630000Y-149860000D02*
X120650000Y-149860000D01*
X83820000Y-146050000D02*
X87630000Y-149860000D01*
X120650000Y-149860000D02*
X142240000Y-149860000D01*
X142240000Y-144780000D02*
X142240000Y-139700000D01*
X142240000Y-149860000D02*
X142240000Y-144780000D01*
X142240000Y-144780000D02*
X139700000Y-144780000D01*
X142240000Y-139700000D02*
X142240000Y-134620000D01*
X142240000Y-134620000D02*
X142240000Y-133350000D01*
X139700000Y-139700000D02*
X142240000Y-139700000D01*
X142240000Y-133350000D02*
X151130000Y-124460000D01*
X271780000Y-149860000D02*
X271780000Y-143510000D01*
X271780000Y-143510000D02*
X283210000Y-132080000D01*
X417830000Y-55880000D02*
X438150000Y-55880000D01*
X397510000Y-55880000D02*
X417830000Y-55880000D01*
X389890000Y-55880000D02*
X397510000Y-55880000D01*
X261620000Y-132080000D02*
X262890000Y-132080000D01*
X231140000Y-143510000D02*
X242570000Y-132080000D01*
X160020000Y-102870000D02*
X160020000Y-107950000D01*
X154940000Y-100330000D02*
X157480000Y-100330000D01*
X157480000Y-100330000D02*
X160020000Y-102870000D01*
X160020000Y-107950000D02*
X162560000Y-110490000D01*
X77470000Y-88900000D02*
X78740000Y-88900000D01*
X78740000Y-88900000D02*
X81280000Y-91440000D01*
X81280000Y-91440000D02*
X81280000Y-93980000D01*
X83820000Y-91440000D02*
X83820000Y-93980000D01*
X81280000Y-88900000D02*
X83820000Y-91440000D01*
X77470000Y-88900000D02*
X81280000Y-88900000D01*
X71120000Y-88900000D02*
X77470000Y-88900000D01*
X26670000Y-95250000D02*
X30480000Y-95250000D01*
X30480000Y-95250000D02*
X36830000Y-88900000D01*
X36830000Y-88900000D02*
X71120000Y-88900000D01*
X71120000Y-88900000D02*
X71120000Y-93980000D01*
X69850000Y-146050000D02*
X69850000Y-140970000D01*
X69850000Y-140970000D02*
X78740000Y-132080000D01*
X78740000Y-132080000D02*
X80010000Y-132080000D01*
X49530000Y-146050000D02*
X49530000Y-140970000D01*
X49530000Y-140970000D02*
X58420000Y-132080000D01*
X58420000Y-132080000D02*
X59690000Y-132080000D01*
X97790000Y-132080000D02*
X100330000Y-132080000D01*
X83820000Y-146050000D02*
X97790000Y-132080000D01*
X35560000Y-146050000D02*
X49530000Y-146050000D01*
X49530000Y-146050000D02*
X69850000Y-146050000D01*
X69850000Y-146050000D02*
X83820000Y-146050000D01*
X25400000Y-135890000D02*
X35560000Y-146050000D01*
X25400000Y-132080000D02*
X25400000Y-135890000D01*
X410210000Y-60960000D02*
X410210000Y-77470000D01*
X389890000Y-60960000D02*
X389890000Y-77470000D01*
X430530000Y-60960000D02*
X430530000Y-77470000D01*
X410210000Y-60960000D02*
X430530000Y-60960000D01*
X389890000Y-60960000D02*
X410210000Y-60960000D01*
X374650000Y-52850000D02*
X386860000Y-52850000D01*
X389890000Y-55880000D02*
X389890000Y-60960000D01*
X386860000Y-52850000D02*
X389890000Y-55880000D01*
X22860000Y-95250000D02*
X22860000Y-129540000D01*
X25400000Y-132080000D02*
X39370000Y-132080000D01*
X22860000Y-129540000D02*
X25400000Y-132080000D01*
X354330000Y-46990000D02*
X374650000Y-46990000D01*
X374650000Y-46990000D02*
X374650000Y-52070000D01*
X374650000Y-52070000D02*
X374650000Y-52850000D01*
X334010000Y-46990000D02*
X354330000Y-46990000D01*
X354330000Y-46990000D02*
X354330000Y-52850000D01*
X313690000Y-46990000D02*
X334010000Y-46990000D01*
X334010000Y-46990000D02*
X334010000Y-52850000D01*
X293370000Y-46990000D02*
X313690000Y-46990000D01*
X313690000Y-46990000D02*
X313690000Y-52850000D01*
X273050000Y-46990000D02*
X293370000Y-46990000D01*
X293370000Y-46990000D02*
X293370000Y-52850000D01*
X252730000Y-46990000D02*
X273050000Y-46990000D01*
X273050000Y-46990000D02*
X273050000Y-52850000D01*
X232410000Y-46990000D02*
X252730000Y-46990000D01*
X252730000Y-46990000D02*
X252730000Y-52070000D01*
X252730000Y-52070000D02*
X252730000Y-52850000D01*
X212090000Y-46990000D02*
X232410000Y-46990000D01*
X232410000Y-46990000D02*
X232410000Y-52850000D01*
X191770000Y-46990000D02*
X212090000Y-46990000D01*
X212090000Y-46990000D02*
X212090000Y-52850000D01*
X171450000Y-46990000D02*
X191770000Y-46990000D01*
X191770000Y-46990000D02*
X191770000Y-52850000D01*
X151130000Y-46990000D02*
X171450000Y-46990000D01*
X171450000Y-46990000D02*
X171450000Y-52070000D01*
X171450000Y-52070000D02*
X171450000Y-52850000D01*
X130810000Y-46990000D02*
X151130000Y-46990000D01*
X151130000Y-46990000D02*
X151130000Y-52850000D01*
X110490000Y-46990000D02*
X130810000Y-46990000D01*
X130810000Y-46990000D02*
X130810000Y-52850000D01*
X90170000Y-46990000D02*
X110490000Y-46990000D01*
X110490000Y-46990000D02*
X110490000Y-52070000D01*
X110490000Y-52070000D02*
X110490000Y-52850000D01*
X90170000Y-46990000D02*
X90170000Y-52850000D01*
X24130000Y-46990000D02*
X90170000Y-46990000D01*
X26670000Y-95250000D02*
X22860000Y-95250000D01*
X22860000Y-48260000D02*
X24130000Y-46990000D01*
X22860000Y-95250000D02*
X22860000Y-48260000D01*
X388620000Y-130810000D02*
X386080000Y-130810000D01*
X386080000Y-125730000D02*
X388620000Y-125730000D01*
X386080000Y-120650000D02*
X388620000Y-120650000D01*
X39370000Y-83820000D02*
X45720000Y-83820000D01*
X45720000Y-83820000D02*
X52070000Y-83820000D01*
X34290000Y-81280000D02*
X36830000Y-83820000D01*
X36830000Y-83820000D02*
X39370000Y-83820000D01*
X34290000Y-80010000D02*
X34290000Y-81280000D01*
X81280000Y-96520000D02*
X78740000Y-93980000D01*
X86360000Y-96520000D02*
X81280000Y-96520000D01*
X86360000Y-91440000D02*
X147320000Y-91440000D01*
X153670000Y-97790000D02*
X154940000Y-97790000D01*
X147320000Y-91440000D02*
X153670000Y-97790000D01*
X86360000Y-93980000D02*
X86360000Y-96520000D01*
X86360000Y-96520000D02*
X91440000Y-101600000D01*
X74930000Y-80010000D02*
X86360000Y-91440000D01*
X86360000Y-91440000D02*
X86360000Y-93980000D01*
X34290000Y-80010000D02*
X74930000Y-80010000D01*
X26670000Y-92710000D02*
X26670000Y-87630000D01*
X26670000Y-87630000D02*
X34290000Y-80010000D01*
X397510000Y-73660000D02*
X397510000Y-68580000D01*
X417830000Y-73660000D02*
X417830000Y-68580000D01*
X438150000Y-68580000D02*
X438150000Y-73660000D01*
X373380000Y-120650000D02*
X368300000Y-120650000D01*
X306070000Y-119380000D02*
X306070000Y-124460000D01*
X312420000Y-113030000D02*
X306070000Y-119380000D01*
X360680000Y-113030000D02*
X312420000Y-113030000D01*
X368300000Y-120650000D02*
X360680000Y-113030000D01*
X373380000Y-125730000D02*
X369570000Y-125730000D01*
X326390000Y-119380000D02*
X326390000Y-124460000D01*
X331470000Y-114300000D02*
X326390000Y-119380000D01*
X359410000Y-114300000D02*
X331470000Y-114300000D01*
X369570000Y-124460000D02*
X359410000Y-114300000D01*
X369570000Y-125730000D02*
X369570000Y-124460000D01*
X373380000Y-130810000D02*
X370840000Y-130810000D01*
X346710000Y-120650000D02*
X346710000Y-124460000D01*
X351790000Y-115570000D02*
X346710000Y-120650000D01*
X359410000Y-115570000D02*
X351790000Y-115570000D01*
X368300000Y-124460000D02*
X359410000Y-115570000D01*
X368300000Y-128270000D02*
X368300000Y-124460000D01*
X370840000Y-130810000D02*
X368300000Y-128270000D01*
X157480000Y-119380000D02*
X158750000Y-120650000D01*
X127000000Y-134620000D02*
X124460000Y-134620000D01*
X129540000Y-119380000D02*
X157480000Y-119380000D01*
X124460000Y-124460000D02*
X129540000Y-119380000D01*
X124460000Y-134620000D02*
X124460000Y-124460000D01*
X397510000Y-96520000D02*
X396240000Y-97790000D01*
X396240000Y-97790000D02*
X336550000Y-97790000D01*
X336550000Y-97790000D02*
X316230000Y-77470000D01*
X405130000Y-77470000D02*
X406379999Y-78719999D01*
X406379999Y-78719999D02*
X406379999Y-92730001D01*
X406379999Y-92730001D02*
X400050000Y-99060000D01*
X400050000Y-99060000D02*
X335280000Y-99060000D01*
X335280000Y-99060000D02*
X316230000Y-80010000D01*
X417830000Y-96520000D02*
X416062234Y-96520000D01*
X416062234Y-96520000D02*
X412252234Y-100330000D01*
X412252234Y-100330000D02*
X334010000Y-100330000D01*
X334010000Y-100330000D02*
X316230000Y-82550000D01*
X425450000Y-77470000D02*
X427990000Y-80010000D01*
X332740000Y-101600000D02*
X316230000Y-85090000D01*
X427990000Y-80010000D02*
X427990000Y-90170000D01*
X427990000Y-90170000D02*
X416560000Y-101600000D01*
X416560000Y-101600000D02*
X332740000Y-101600000D01*
X438150000Y-96520000D02*
X431800000Y-102870000D01*
X431800000Y-102870000D02*
X331470000Y-102870000D01*
X331470000Y-102870000D02*
X316230000Y-87630000D01*
X445770000Y-77470000D02*
X448310000Y-80010000D01*
X448310000Y-80010000D02*
X448310000Y-91440000D01*
X448310000Y-91440000D02*
X435610000Y-104140000D01*
X435610000Y-104140000D02*
X330200000Y-104140000D01*
X330200000Y-104140000D02*
X316230000Y-90170000D01*
X391160000Y-111760000D02*
X391160000Y-118110000D01*
X389890000Y-110490000D02*
X391160000Y-111760000D01*
X331470000Y-110490000D02*
X389890000Y-110490000D01*
X316230000Y-95250000D02*
X331470000Y-110490000D01*
X392430000Y-119380000D02*
X412750000Y-119380000D01*
X391160000Y-118110000D02*
X392430000Y-119380000D01*
X309425989Y-148135989D02*
X300443960Y-139153960D01*
X300443960Y-139153960D02*
X300443960Y-100847768D01*
X300443960Y-100847768D02*
X301713959Y-99577769D01*
X354330000Y-143510000D02*
X349704011Y-148135989D01*
X301713960Y-91986040D02*
X308610000Y-85090000D01*
X301713959Y-99577769D02*
X301713960Y-91986040D01*
X349704011Y-148135989D02*
X309425989Y-148135989D01*
X361950000Y-124460000D02*
X364490000Y-127000000D01*
X308610000Y-148590000D02*
X299720000Y-139700000D01*
X307340000Y-82550000D02*
X308610000Y-82550000D01*
X364490000Y-127000000D02*
X364490000Y-149860000D01*
X364490000Y-149860000D02*
X348622068Y-149860000D01*
X347352068Y-148590000D02*
X308610000Y-148590000D01*
X348622068Y-149860000D02*
X347352068Y-148590000D01*
X299720000Y-139700000D02*
X299720000Y-90170000D01*
X299720000Y-90170000D02*
X307340000Y-82550000D01*
X303168022Y-95611978D02*
X308610000Y-90170000D01*
X303168022Y-99407842D02*
X303168022Y-95611978D01*
X301351982Y-137521982D02*
X301351982Y-101223882D01*
X311057967Y-147227967D02*
X301351982Y-137521982D01*
X334010000Y-143510000D02*
X330292033Y-147227967D01*
X330292033Y-147227967D02*
X311057967Y-147227967D01*
X301351982Y-101223882D02*
X303168022Y-99407842D01*
X310241978Y-147681978D02*
X300897971Y-138337971D01*
X302714011Y-93525989D02*
X308610000Y-87630000D01*
X300897971Y-101035825D02*
X302714011Y-99219785D01*
X300897971Y-138337971D02*
X300897971Y-101035825D01*
X342879999Y-125709999D02*
X342879999Y-143530001D01*
X341630000Y-124460000D02*
X342879999Y-125709999D01*
X302714011Y-99219785D02*
X302714011Y-93525989D01*
X338728022Y-147681978D02*
X310241978Y-147681978D01*
X342879999Y-143530001D02*
X338728022Y-147681978D01*
X302260000Y-101600000D02*
X308610000Y-95250000D01*
X302260000Y-133847766D02*
X302260000Y-101600000D01*
X311922234Y-143510000D02*
X302260000Y-133847766D01*
X313690000Y-143510000D02*
X311922234Y-143510000D01*
X321310000Y-124460000D02*
X323850000Y-127000000D01*
X323850000Y-127000000D02*
X323850000Y-138430000D01*
X323850000Y-138430000D02*
X316230000Y-146050000D01*
X316230000Y-146050000D02*
X311150000Y-146050000D01*
X301805992Y-101411940D02*
X303622033Y-99595899D01*
X311150000Y-146050000D02*
X301805992Y-136705992D01*
X301805992Y-136705992D02*
X301805992Y-101411940D01*
X303622033Y-99595899D02*
X303622033Y-97697967D01*
X303622033Y-97697967D02*
X308610000Y-92710000D01*
X280670000Y-80010000D02*
X283210000Y-82550000D01*
X283210000Y-82550000D02*
X283210000Y-127780000D01*
X237490000Y-80010000D02*
X280670000Y-80010000D01*
X259080000Y-85090000D02*
X262890000Y-88900000D01*
X262890000Y-88900000D02*
X262890000Y-127780000D01*
X237490000Y-85090000D02*
X259080000Y-85090000D01*
X240030000Y-90170000D02*
X242570000Y-92710000D01*
X242570000Y-92710000D02*
X242570000Y-127780000D01*
X237490000Y-90170000D02*
X240030000Y-90170000D01*
X227330001Y-97789999D02*
X229870000Y-95250000D01*
X222973960Y-149136040D02*
X227330001Y-144779999D01*
X227330001Y-144779999D02*
X227330001Y-97789999D01*
X158750000Y-143510000D02*
X164376041Y-149136041D01*
X164376041Y-149136041D02*
X222973960Y-149136040D01*
X197651853Y-148135989D02*
X197743883Y-148228019D01*
X226875990Y-144591942D02*
X226875990Y-95704010D01*
X215335831Y-148682031D02*
X222785902Y-148682030D01*
X226875990Y-95704010D02*
X229870000Y-92710000D01*
X197743883Y-148228019D02*
X214881817Y-148228019D01*
X222785902Y-148682030D02*
X226875990Y-144591942D01*
X214881817Y-148228019D02*
X215335831Y-148682031D01*
X168910000Y-144780000D02*
X172265989Y-148135989D01*
X172265989Y-148135989D02*
X197651853Y-148135989D01*
X166370000Y-124460000D02*
X168910000Y-127000000D01*
X168910000Y-127000000D02*
X168910000Y-144780000D01*
X308610000Y-77470000D02*
X308610000Y-74930000D01*
X372110000Y-57150000D02*
X374650000Y-57150000D01*
X363220000Y-66040000D02*
X372110000Y-57150000D01*
X363220000Y-74930000D02*
X363220000Y-66040000D01*
X308610000Y-74930000D02*
X363220000Y-74930000D01*
X308610000Y-80010000D02*
X306070000Y-80010000D01*
X306070000Y-73660000D02*
X341630000Y-73660000D01*
X306070000Y-80010000D02*
X306070000Y-73660000D01*
X341630000Y-73660000D02*
X341630000Y-63500000D01*
X341630000Y-63500000D02*
X347980000Y-57150000D01*
X347980000Y-57150000D02*
X354330000Y-57150000D01*
X154940000Y-77470000D02*
X154940000Y-73660000D01*
X154940000Y-73660000D02*
X171450000Y-57150000D01*
X144780000Y-57150000D02*
X151130000Y-57150000D01*
X144780000Y-71120000D02*
X144780000Y-57150000D01*
X153670000Y-80010000D02*
X144780000Y-71120000D01*
X154940000Y-80010000D02*
X153670000Y-80010000D01*
X154940000Y-82550000D02*
X153670000Y-82550000D01*
X153670000Y-82550000D02*
X140970000Y-69850000D01*
X140970000Y-69850000D02*
X140970000Y-57150000D01*
X140970000Y-57150000D02*
X130810000Y-57150000D01*
X154940000Y-85090000D02*
X153670000Y-85090000D01*
X153670000Y-85090000D02*
X137160000Y-68580000D01*
X137160000Y-68580000D02*
X121920000Y-68580000D01*
X121920000Y-68580000D02*
X120650000Y-67310000D01*
X120650000Y-67310000D02*
X120650000Y-57150000D01*
X120650000Y-57150000D02*
X110490000Y-57150000D01*
X154940000Y-87630000D02*
X153670000Y-87630000D01*
X101600000Y-69850000D02*
X100330000Y-68580000D01*
X153670000Y-87630000D02*
X135890000Y-69850000D01*
X135890000Y-69850000D02*
X101600000Y-69850000D01*
X100330000Y-68580000D02*
X100330000Y-57150000D01*
X100330000Y-57150000D02*
X90170000Y-57150000D01*
X154940000Y-90170000D02*
X153670000Y-90170000D01*
X153670000Y-90170000D02*
X134620000Y-71120000D01*
X134620000Y-71120000D02*
X91440000Y-71120000D01*
X91440000Y-71120000D02*
X77470000Y-57150000D01*
X77470000Y-57150000D02*
X69850000Y-57150000D01*
X154940000Y-92710000D02*
X153670000Y-92710000D01*
X153670000Y-92710000D02*
X133350000Y-72390000D01*
X83820000Y-66040000D02*
X60960000Y-66040000D01*
X133350000Y-72390000D02*
X90170000Y-72390000D01*
X90170000Y-72390000D02*
X83820000Y-66040000D01*
X60960000Y-66040000D02*
X59690000Y-64770000D01*
X59690000Y-64770000D02*
X59690000Y-58420000D01*
X59690000Y-58420000D02*
X58420000Y-57150000D01*
X58420000Y-57150000D02*
X49530000Y-57150000D01*
X320040000Y-72390000D02*
X320040000Y-71120000D01*
X320040000Y-71120000D02*
X334010000Y-57150000D01*
X185420000Y-72390000D02*
X320040000Y-72390000D01*
X162560000Y-95250000D02*
X185420000Y-72390000D01*
X154940000Y-95250000D02*
X153670000Y-95250000D01*
X39370000Y-67310000D02*
X39370000Y-57150000D01*
X153670000Y-95250000D02*
X132080000Y-73660000D01*
X132080000Y-73660000D02*
X88900000Y-73660000D01*
X88900000Y-73660000D02*
X82550000Y-67310000D01*
X82550000Y-67310000D02*
X39370000Y-67310000D01*
X39370000Y-57150000D02*
X29210000Y-57150000D01*
X162560000Y-92710000D02*
X184150000Y-71120000D01*
X184150000Y-71120000D02*
X299720000Y-71120000D01*
X299720000Y-71120000D02*
X313690000Y-57150000D01*
X162560000Y-90170000D02*
X182880000Y-69850000D01*
X182880000Y-69850000D02*
X284480000Y-69850000D01*
X284480000Y-69850000D02*
X284480000Y-66040000D01*
X284480000Y-66040000D02*
X293370000Y-57150000D01*
X162560000Y-87630000D02*
X181610000Y-68580000D01*
X181610000Y-68580000D02*
X261620000Y-68580000D01*
X261620000Y-68580000D02*
X273050000Y-57150000D01*
X162560000Y-85090000D02*
X180340000Y-67310000D01*
X180340000Y-67310000D02*
X242570000Y-67310000D01*
X242570000Y-67310000D02*
X252730000Y-57150000D01*
X162560000Y-82550000D02*
X179070000Y-66040000D01*
X179070000Y-66040000D02*
X223520000Y-66040000D01*
X223520000Y-66040000D02*
X232410000Y-57150000D01*
X162560000Y-80010000D02*
X177800000Y-64770000D01*
X177800000Y-64770000D02*
X204470000Y-64770000D01*
X204470000Y-64770000D02*
X212090000Y-57150000D01*
X162560000Y-77470000D02*
X177800000Y-62230000D01*
X177800000Y-62230000D02*
X186690000Y-62230000D01*
X186690000Y-62230000D02*
X191770000Y-57150000D01*
X393700000Y-111760000D02*
X393700000Y-115570000D01*
X389890000Y-107950000D02*
X393700000Y-111760000D01*
X331470000Y-107950000D02*
X389890000Y-107950000D01*
X316230000Y-92710000D02*
X331470000Y-107950000D01*
X420370000Y-116840000D02*
X422910000Y-119380000D01*
X394970000Y-116840000D02*
X420370000Y-116840000D01*
X393700000Y-115570000D02*
X394970000Y-116840000D01*
X292100000Y-80010000D02*
X292100000Y-127490000D01*
X292100000Y-127490000D02*
X283210000Y-136380000D01*
X289560000Y-77470000D02*
X292100000Y-80010000D01*
X237490000Y-77470000D02*
X289560000Y-77470000D01*
X274320000Y-85090000D02*
X274320000Y-124950000D01*
X274320000Y-124950000D02*
X262890000Y-136380000D01*
X271780000Y-82550000D02*
X274320000Y-85090000D01*
X237490000Y-82550000D02*
X271780000Y-82550000D01*
X254000000Y-90170000D02*
X254000000Y-124950000D01*
X254000000Y-124950000D02*
X242570000Y-136380000D01*
X251460000Y-87630000D02*
X254000000Y-90170000D01*
X237490000Y-87630000D02*
X251460000Y-87630000D01*
X127000000Y-139700000D02*
X123190000Y-139700000D01*
X123190000Y-139700000D02*
X123190000Y-124460000D01*
X123190000Y-124460000D02*
X129540000Y-118110000D01*
X129540000Y-118110000D02*
X182880000Y-118110000D01*
X182880000Y-118110000D02*
X185420000Y-120650000D01*
X127000000Y-144780000D02*
X121920000Y-144780000D01*
X208280000Y-116840000D02*
X212090000Y-120650000D01*
X129540000Y-116840000D02*
X208280000Y-116840000D01*
X121920000Y-124460000D02*
X129540000Y-116840000D01*
X121920000Y-144780000D02*
X121920000Y-124460000D01*
X222597844Y-148228020D02*
X226421979Y-144403885D01*
X226421979Y-144403885D02*
X226421980Y-95515952D01*
X197931940Y-147774008D02*
X215069872Y-147774008D01*
X215069872Y-147774008D02*
X215523887Y-148228021D01*
X227834958Y-89665042D02*
X229870000Y-87630000D01*
X226421980Y-95515952D02*
X227834958Y-94102974D01*
X193667932Y-143510000D02*
X197931940Y-147774008D01*
X227834958Y-94102974D02*
X227834958Y-89665042D01*
X185420000Y-143510000D02*
X193667932Y-143510000D01*
X215523887Y-148228021D02*
X222597844Y-148228020D01*
X227380947Y-87579053D02*
X229870000Y-85090000D01*
X227380947Y-93914917D02*
X227380947Y-87579053D01*
X222409786Y-147774010D02*
X225967968Y-144215828D01*
X215711943Y-147774011D02*
X222409786Y-147774010D01*
X215257929Y-147319997D02*
X215711943Y-147774011D01*
X193040000Y-124460000D02*
X194289999Y-125709999D01*
X194289999Y-143489999D02*
X198119997Y-147319997D01*
X194289999Y-125709999D02*
X194289999Y-143489999D01*
X225967970Y-95327894D02*
X227380947Y-93914917D01*
X225967968Y-144215828D02*
X225967970Y-95327894D01*
X198119997Y-147319997D02*
X215257929Y-147319997D01*
X226926936Y-82953064D02*
X229870000Y-80010000D01*
X215900000Y-147320000D02*
X222221728Y-147320000D01*
X226926936Y-93726860D02*
X226926936Y-82953064D01*
X212090000Y-143510000D02*
X215900000Y-147320000D01*
X222221728Y-147320000D02*
X225513958Y-144027770D01*
X225513958Y-144027770D02*
X225513960Y-95139836D01*
X225513960Y-95139836D02*
X226926936Y-93726860D01*
X229870000Y-76416000D02*
X229870000Y-77470000D01*
X224790000Y-119380000D02*
X224790000Y-81496000D01*
X224790000Y-81496000D02*
X229870000Y-76416000D01*
X219710000Y-124460000D02*
X224790000Y-119380000D01*
X100330000Y-127780000D02*
X100330000Y-124460000D01*
X100330000Y-124460000D02*
X86360000Y-110490000D01*
X86360000Y-110490000D02*
X86360000Y-101600000D01*
X100330000Y-136380000D02*
X104140000Y-132570000D01*
X104140000Y-132570000D02*
X104140000Y-125730000D01*
X104140000Y-125730000D02*
X88900000Y-110490000D01*
X88900000Y-110490000D02*
X88900000Y-101600000D01*
X80010000Y-127780000D02*
X80010000Y-102870000D01*
X80010000Y-102870000D02*
X81280000Y-101600000D01*
X80010000Y-136380000D02*
X80010000Y-135890000D01*
X80010000Y-135890000D02*
X83820000Y-132080000D01*
X83820000Y-132080000D02*
X83820000Y-101600000D01*
X59690000Y-120650000D02*
X78740000Y-101600000D01*
X59690000Y-127780000D02*
X59690000Y-120650000D01*
X39370000Y-127780000D02*
X39370000Y-125730000D01*
X39370000Y-125730000D02*
X63500000Y-101600000D01*
X63500000Y-101600000D02*
X71120000Y-101600000D01*
X39370000Y-136380000D02*
X39370000Y-135890000D01*
X39370000Y-135890000D02*
X73660000Y-101600000D01*
M02*
