G04 #@! TF.GenerationSoftware,KiCad,Pcbnew,(5.0.0)*
G04 #@! TF.CreationDate,2019-09-22T13:57:07+01:00*
G04 #@! TF.ProjectId,Backplane3,4261636B706C616E65332E6B69636164,rev?*
G04 #@! TF.SameCoordinates,Original*
G04 #@! TF.FileFunction,Legend,Bot*
G04 #@! TF.FilePolarity,Positive*
%FSLAX46Y46*%
G04 Gerber Fmt 4.6, Leading zero omitted, Abs format (unit mm)*
G04 Created by KiCad (PCBNEW (5.0.0)) date 09/22/19 13:57:07*
%MOMM*%
%LPD*%
G01*
G04 APERTURE LIST*
%ADD10C,0.120000*%
%ADD11C,0.150000*%
G04 APERTURE END LIST*
D10*
G04 #@! TO.C,J28*
X31980000Y-134320000D02*
X32580000Y-134620000D01*
X31980000Y-134920000D02*
X31980000Y-134320000D01*
X32580000Y-134620000D02*
X31980000Y-134920000D01*
D11*
X33855000Y-52750000D02*
X33855000Y-53750000D01*
X36805000Y-52750000D02*
X33855000Y-52750000D01*
X36805000Y-53750000D02*
X36805000Y-52750000D01*
X39805000Y-53750000D02*
X36805000Y-53750000D01*
X36805000Y-136750000D02*
X39805000Y-136750000D01*
X36805000Y-137750000D02*
X36805000Y-136750000D01*
X33855000Y-137750000D02*
X36805000Y-137750000D01*
X33855000Y-136750000D02*
X33855000Y-137750000D01*
X40980000Y-142850000D02*
X32680000Y-142850000D01*
X40980000Y-47650000D02*
X40980000Y-142850000D01*
X32680000Y-47650000D02*
X40980000Y-47650000D01*
X32680000Y-142850000D02*
X32680000Y-47650000D01*
D10*
G04 #@! TO.C,J29*
X62460000Y-134320000D02*
X63060000Y-134620000D01*
X62460000Y-134920000D02*
X62460000Y-134320000D01*
X63060000Y-134620000D02*
X62460000Y-134920000D01*
D11*
X64335000Y-52750000D02*
X64335000Y-53750000D01*
X67285000Y-52750000D02*
X64335000Y-52750000D01*
X67285000Y-53750000D02*
X67285000Y-52750000D01*
X70285000Y-53750000D02*
X67285000Y-53750000D01*
X67285000Y-136750000D02*
X70285000Y-136750000D01*
X67285000Y-137750000D02*
X67285000Y-136750000D01*
X64335000Y-137750000D02*
X67285000Y-137750000D01*
X64335000Y-136750000D02*
X64335000Y-137750000D01*
X71460000Y-142850000D02*
X63160000Y-142850000D01*
X71460000Y-47650000D02*
X71460000Y-142850000D01*
X63160000Y-47650000D02*
X71460000Y-47650000D01*
X63160000Y-142850000D02*
X63160000Y-47650000D01*
D10*
G04 #@! TO.C,J30*
X92940000Y-134320000D02*
X93540000Y-134620000D01*
X92940000Y-134920000D02*
X92940000Y-134320000D01*
X93540000Y-134620000D02*
X92940000Y-134920000D01*
D11*
X94815000Y-52750000D02*
X94815000Y-53750000D01*
X97765000Y-52750000D02*
X94815000Y-52750000D01*
X97765000Y-53750000D02*
X97765000Y-52750000D01*
X100765000Y-53750000D02*
X97765000Y-53750000D01*
X97765000Y-136750000D02*
X100765000Y-136750000D01*
X97765000Y-137750000D02*
X97765000Y-136750000D01*
X94815000Y-137750000D02*
X97765000Y-137750000D01*
X94815000Y-136750000D02*
X94815000Y-137750000D01*
X101940000Y-142850000D02*
X93640000Y-142850000D01*
X101940000Y-47650000D02*
X101940000Y-142850000D01*
X93640000Y-47650000D02*
X101940000Y-47650000D01*
X93640000Y-142850000D02*
X93640000Y-47650000D01*
D10*
G04 #@! TO.C,J31*
X123420000Y-134320000D02*
X124020000Y-134620000D01*
X123420000Y-134920000D02*
X123420000Y-134320000D01*
X124020000Y-134620000D02*
X123420000Y-134920000D01*
D11*
X125295000Y-52750000D02*
X125295000Y-53750000D01*
X128245000Y-52750000D02*
X125295000Y-52750000D01*
X128245000Y-53750000D02*
X128245000Y-52750000D01*
X131245000Y-53750000D02*
X128245000Y-53750000D01*
X128245000Y-136750000D02*
X131245000Y-136750000D01*
X128245000Y-137750000D02*
X128245000Y-136750000D01*
X125295000Y-137750000D02*
X128245000Y-137750000D01*
X125295000Y-136750000D02*
X125295000Y-137750000D01*
X132420000Y-142850000D02*
X124120000Y-142850000D01*
X132420000Y-47650000D02*
X132420000Y-142850000D01*
X124120000Y-47650000D02*
X132420000Y-47650000D01*
X124120000Y-142850000D02*
X124120000Y-47650000D01*
D10*
G04 #@! TO.C,J32*
X153900000Y-134320000D02*
X154500000Y-134620000D01*
X153900000Y-134920000D02*
X153900000Y-134320000D01*
X154500000Y-134620000D02*
X153900000Y-134920000D01*
D11*
X155775000Y-52750000D02*
X155775000Y-53750000D01*
X158725000Y-52750000D02*
X155775000Y-52750000D01*
X158725000Y-53750000D02*
X158725000Y-52750000D01*
X161725000Y-53750000D02*
X158725000Y-53750000D01*
X158725000Y-136750000D02*
X161725000Y-136750000D01*
X158725000Y-137750000D02*
X158725000Y-136750000D01*
X155775000Y-137750000D02*
X158725000Y-137750000D01*
X155775000Y-136750000D02*
X155775000Y-137750000D01*
X162900000Y-142850000D02*
X154600000Y-142850000D01*
X162900000Y-47650000D02*
X162900000Y-142850000D01*
X154600000Y-47650000D02*
X162900000Y-47650000D01*
X154600000Y-142850000D02*
X154600000Y-47650000D01*
G04 #@! TO.C,J28*
X37639523Y-143202380D02*
X37639523Y-143916666D01*
X37687142Y-144059523D01*
X37782380Y-144154761D01*
X37925238Y-144202380D01*
X38020476Y-144202380D01*
X37210952Y-143297619D02*
X37163333Y-143250000D01*
X37068095Y-143202380D01*
X36830000Y-143202380D01*
X36734761Y-143250000D01*
X36687142Y-143297619D01*
X36639523Y-143392857D01*
X36639523Y-143488095D01*
X36687142Y-143630952D01*
X37258571Y-144202380D01*
X36639523Y-144202380D01*
X36068095Y-143630952D02*
X36163333Y-143583333D01*
X36210952Y-143535714D01*
X36258571Y-143440476D01*
X36258571Y-143392857D01*
X36210952Y-143297619D01*
X36163333Y-143250000D01*
X36068095Y-143202380D01*
X35877619Y-143202380D01*
X35782380Y-143250000D01*
X35734761Y-143297619D01*
X35687142Y-143392857D01*
X35687142Y-143440476D01*
X35734761Y-143535714D01*
X35782380Y-143583333D01*
X35877619Y-143630952D01*
X36068095Y-143630952D01*
X36163333Y-143678571D01*
X36210952Y-143726190D01*
X36258571Y-143821428D01*
X36258571Y-144011904D01*
X36210952Y-144107142D01*
X36163333Y-144154761D01*
X36068095Y-144202380D01*
X35877619Y-144202380D01*
X35782380Y-144154761D01*
X35734761Y-144107142D01*
X35687142Y-144011904D01*
X35687142Y-143821428D01*
X35734761Y-143726190D01*
X35782380Y-143678571D01*
X35877619Y-143630952D01*
G04 #@! TO.C,J29*
X68119523Y-143202380D02*
X68119523Y-143916666D01*
X68167142Y-144059523D01*
X68262380Y-144154761D01*
X68405238Y-144202380D01*
X68500476Y-144202380D01*
X67690952Y-143297619D02*
X67643333Y-143250000D01*
X67548095Y-143202380D01*
X67310000Y-143202380D01*
X67214761Y-143250000D01*
X67167142Y-143297619D01*
X67119523Y-143392857D01*
X67119523Y-143488095D01*
X67167142Y-143630952D01*
X67738571Y-144202380D01*
X67119523Y-144202380D01*
X66643333Y-144202380D02*
X66452857Y-144202380D01*
X66357619Y-144154761D01*
X66310000Y-144107142D01*
X66214761Y-143964285D01*
X66167142Y-143773809D01*
X66167142Y-143392857D01*
X66214761Y-143297619D01*
X66262380Y-143250000D01*
X66357619Y-143202380D01*
X66548095Y-143202380D01*
X66643333Y-143250000D01*
X66690952Y-143297619D01*
X66738571Y-143392857D01*
X66738571Y-143630952D01*
X66690952Y-143726190D01*
X66643333Y-143773809D01*
X66548095Y-143821428D01*
X66357619Y-143821428D01*
X66262380Y-143773809D01*
X66214761Y-143726190D01*
X66167142Y-143630952D01*
G04 #@! TO.C,J30*
X98599523Y-143202380D02*
X98599523Y-143916666D01*
X98647142Y-144059523D01*
X98742380Y-144154761D01*
X98885238Y-144202380D01*
X98980476Y-144202380D01*
X98218571Y-143202380D02*
X97599523Y-143202380D01*
X97932857Y-143583333D01*
X97790000Y-143583333D01*
X97694761Y-143630952D01*
X97647142Y-143678571D01*
X97599523Y-143773809D01*
X97599523Y-144011904D01*
X97647142Y-144107142D01*
X97694761Y-144154761D01*
X97790000Y-144202380D01*
X98075714Y-144202380D01*
X98170952Y-144154761D01*
X98218571Y-144107142D01*
X96980476Y-143202380D02*
X96885238Y-143202380D01*
X96790000Y-143250000D01*
X96742380Y-143297619D01*
X96694761Y-143392857D01*
X96647142Y-143583333D01*
X96647142Y-143821428D01*
X96694761Y-144011904D01*
X96742380Y-144107142D01*
X96790000Y-144154761D01*
X96885238Y-144202380D01*
X96980476Y-144202380D01*
X97075714Y-144154761D01*
X97123333Y-144107142D01*
X97170952Y-144011904D01*
X97218571Y-143821428D01*
X97218571Y-143583333D01*
X97170952Y-143392857D01*
X97123333Y-143297619D01*
X97075714Y-143250000D01*
X96980476Y-143202380D01*
G04 #@! TO.C,J31*
X129079523Y-143202380D02*
X129079523Y-143916666D01*
X129127142Y-144059523D01*
X129222380Y-144154761D01*
X129365238Y-144202380D01*
X129460476Y-144202380D01*
X128698571Y-143202380D02*
X128079523Y-143202380D01*
X128412857Y-143583333D01*
X128270000Y-143583333D01*
X128174761Y-143630952D01*
X128127142Y-143678571D01*
X128079523Y-143773809D01*
X128079523Y-144011904D01*
X128127142Y-144107142D01*
X128174761Y-144154761D01*
X128270000Y-144202380D01*
X128555714Y-144202380D01*
X128650952Y-144154761D01*
X128698571Y-144107142D01*
X127127142Y-144202380D02*
X127698571Y-144202380D01*
X127412857Y-144202380D02*
X127412857Y-143202380D01*
X127508095Y-143345238D01*
X127603333Y-143440476D01*
X127698571Y-143488095D01*
G04 #@! TO.C,J32*
X159559523Y-143202380D02*
X159559523Y-143916666D01*
X159607142Y-144059523D01*
X159702380Y-144154761D01*
X159845238Y-144202380D01*
X159940476Y-144202380D01*
X159178571Y-143202380D02*
X158559523Y-143202380D01*
X158892857Y-143583333D01*
X158750000Y-143583333D01*
X158654761Y-143630952D01*
X158607142Y-143678571D01*
X158559523Y-143773809D01*
X158559523Y-144011904D01*
X158607142Y-144107142D01*
X158654761Y-144154761D01*
X158750000Y-144202380D01*
X159035714Y-144202380D01*
X159130952Y-144154761D01*
X159178571Y-144107142D01*
X158178571Y-143297619D02*
X158130952Y-143250000D01*
X158035714Y-143202380D01*
X157797619Y-143202380D01*
X157702380Y-143250000D01*
X157654761Y-143297619D01*
X157607142Y-143392857D01*
X157607142Y-143488095D01*
X157654761Y-143630952D01*
X158226190Y-144202380D01*
X157607142Y-144202380D01*
G04 #@! TD*
M02*
