G04 #@! TF.GenerationSoftware,KiCad,Pcbnew,(5.0.0)*
G04 #@! TF.CreationDate,2019-09-22T13:57:06+01:00*
G04 #@! TF.ProjectId,Backplane3,4261636B706C616E65332E6B69636164,rev?*
G04 #@! TF.SameCoordinates,Original*
G04 #@! TF.FileFunction,Copper,L1,Top,Signal*
G04 #@! TF.FilePolarity,Positive*
%FSLAX46Y46*%
G04 Gerber Fmt 4.6, Leading zero omitted, Abs format (unit mm)*
G04 Created by KiCad (PCBNEW (5.0.0)) date 09/22/19 13:57:06*
%MOMM*%
%LPD*%
G01*
G04 APERTURE LIST*
G04 #@! TA.AperFunction,ComponentPad*
%ADD10R,2.600000X2.600000*%
G04 #@! TD*
G04 #@! TA.AperFunction,ComponentPad*
%ADD11C,2.600000*%
G04 #@! TD*
G04 #@! TA.AperFunction,ComponentPad*
%ADD12C,1.700000*%
G04 #@! TD*
G04 #@! TA.AperFunction,ComponentPad*
%ADD13R,1.700000X1.700000*%
G04 #@! TD*
G04 #@! TA.AperFunction,ViaPad*
%ADD14C,0.800000*%
G04 #@! TD*
G04 #@! TA.AperFunction,Conductor*
%ADD15C,0.500000*%
G04 #@! TD*
G04 #@! TA.AperFunction,Conductor*
%ADD16C,0.250000*%
G04 #@! TD*
G04 #@! TA.AperFunction,NonConductor*
%ADD17C,0.254000*%
G04 #@! TD*
G04 APERTURE END LIST*
D10*
G04 #@! TO.P,J132,1*
G04 #@! TO.N,~P1*
X167640000Y-177800000D03*
D11*
G04 #@! TO.P,J132,2*
G04 #@! TO.N,~P2*
X167640000Y-182880000D03*
G04 #@! TO.P,J132,3*
G04 #@! TO.N,~P3*
X167640000Y-187960000D03*
G04 #@! TO.P,J132,4*
G04 #@! TO.N,~P4*
X167640000Y-193040000D03*
G04 #@! TO.P,J132,5*
G04 #@! TO.N,~VTG*
X167640000Y-198120000D03*
G04 #@! TO.P,J132,6*
G04 #@! TO.N,~RESET~2*
X167640000Y-203200000D03*
G04 #@! TD*
D10*
G04 #@! TO.P,J0,1*
G04 #@! TO.N,GND*
X138500000Y-41250000D03*
D11*
G04 #@! TO.P,J0,2*
G04 #@! TO.N,6v*
X143580000Y-41250000D03*
G04 #@! TO.P,J0,3*
G04 #@! TO.N,Neg6v*
X148660000Y-41250000D03*
G04 #@! TD*
D12*
G04 #@! TO.P,J28,AL*
G04 #@! TO.N,GND*
X38100000Y-55880000D03*
G04 #@! TO.P,J28,32*
X35560000Y-55880000D03*
G04 #@! TO.P,J28,AK*
G04 #@! TO.N,Neg6v*
X38100000Y-58420000D03*
G04 #@! TO.P,J28,31*
X35560000Y-58420000D03*
G04 #@! TO.P,J28,AJ*
G04 #@! TO.N,t4-2*
X38100000Y-60960000D03*
G04 #@! TO.P,J28,30*
G04 #@! TO.N,N/C*
X35560000Y-60960000D03*
G04 #@! TO.P,J28,AH*
G04 #@! TO.N,SBTm*
X38100000Y-63500000D03*
G04 #@! TO.P,J28,29*
G04 #@! TO.N,SBT*
X35560000Y-63500000D03*
G04 #@! TO.P,J28,AF*
G04 #@! TO.N,N/C*
X38100000Y-66040000D03*
G04 #@! TO.P,J28,28*
X35560000Y-66040000D03*
G04 #@! TO.P,J28,AE*
G04 #@! TO.N,RBTm*
X38100000Y-68580000D03*
G04 #@! TO.P,J28,27*
G04 #@! TO.N,RBT*
X35560000Y-68580000D03*
G04 #@! TO.P,J28,AD*
G04 #@! TO.N,SKT4HH*
X38100000Y-71120000D03*
G04 #@! TO.P,J28,26*
G04 #@! TO.N,IP18*
X35560000Y-71120000D03*
G04 #@! TO.P,J28,AC*
G04 #@! TO.N,SKT4GG*
X38100000Y-73660000D03*
G04 #@! TO.P,J28,25*
G04 #@! TO.N,IP17*
X35560000Y-73660000D03*
G04 #@! TO.P,J28,AB*
G04 #@! TO.N,SKT4FF*
X38100000Y-76200000D03*
G04 #@! TO.P,J28,24*
G04 #@! TO.N,IP16*
X35560000Y-76200000D03*
G04 #@! TO.P,J28,AA*
G04 #@! TO.N,N/C*
X38100000Y-78740000D03*
G04 #@! TO.P,J28,23*
X35560000Y-78740000D03*
G04 #@! TO.P,J28,Z*
X38100000Y-81280000D03*
G04 #@! TO.P,J28,22*
X35560000Y-81280000D03*
G04 #@! TO.P,J28,Y*
X38100000Y-83820000D03*
G04 #@! TO.P,J28,21*
X35560000Y-83820000D03*
G04 #@! TO.P,J28,X*
X38100000Y-86360000D03*
G04 #@! TO.P,J28,20*
X35560000Y-86360000D03*
G04 #@! TO.P,J28,W*
G04 #@! TO.N,SKT4EE*
X38100000Y-88900000D03*
G04 #@! TO.P,J28,19*
G04 #@! TO.N,IP15*
X35560000Y-88900000D03*
G04 #@! TO.P,J28,V*
G04 #@! TO.N,SKT4DD*
X38100000Y-91440000D03*
G04 #@! TO.P,J28,18*
G04 #@! TO.N,IP14*
X35560000Y-91440000D03*
G04 #@! TO.P,J28,U*
G04 #@! TO.N,SKT4CC*
X38100000Y-93980000D03*
G04 #@! TO.P,J28,17*
G04 #@! TO.N,IP13*
X35560000Y-93980000D03*
G04 #@! TO.P,J28,T*
G04 #@! TO.N,SKT4BB*
X38100000Y-96520000D03*
G04 #@! TO.P,J28,16*
G04 #@! TO.N,IP12*
X35560000Y-96520000D03*
G04 #@! TO.P,J28,S*
G04 #@! TO.N,SKT4AA*
X38100000Y-99060000D03*
G04 #@! TO.P,J28,15*
G04 #@! TO.N,IP11*
X35560000Y-99060000D03*
G04 #@! TO.P,J28,R*
G04 #@! TO.N,SKT4~z*
X38100000Y-101600000D03*
G04 #@! TO.P,J28,14*
G04 #@! TO.N,IP10*
X35560000Y-101600000D03*
G04 #@! TO.P,J28,P*
G04 #@! TO.N,N/C*
X38100000Y-104140000D03*
G04 #@! TO.P,J28,13*
X35560000Y-104140000D03*
G04 #@! TO.P,J28,N*
X38100000Y-106680000D03*
G04 #@! TO.P,J28,12*
X35560000Y-106680000D03*
G04 #@! TO.P,J28,M*
G04 #@! TO.N,SKT4~y*
X38100000Y-109220000D03*
G04 #@! TO.P,J28,11*
G04 #@! TO.N,IP9*
X35560000Y-109220000D03*
G04 #@! TO.P,J28,L*
G04 #@! TO.N,SKT4~x*
X38100000Y-111760000D03*
G04 #@! TO.P,J28,10*
G04 #@! TO.N,IP8*
X35560000Y-111760000D03*
G04 #@! TO.P,J28,K*
G04 #@! TO.N,SKT4~w*
X38100000Y-114300000D03*
G04 #@! TO.P,J28,9*
G04 #@! TO.N,IP7*
X35560000Y-114300000D03*
G04 #@! TO.P,J28,J*
G04 #@! TO.N,SKT4~v*
X38100000Y-116840000D03*
G04 #@! TO.P,J28,8*
G04 #@! TO.N,IP6*
X35560000Y-116840000D03*
G04 #@! TO.P,J28,H*
G04 #@! TO.N,SKT4~u*
X38100000Y-119380000D03*
G04 #@! TO.P,J28,7*
G04 #@! TO.N,IP5*
X35560000Y-119380000D03*
G04 #@! TO.P,J28,F*
G04 #@! TO.N,SKT4~t*
X38100000Y-121920000D03*
G04 #@! TO.P,J28,6*
G04 #@! TO.N,IP4*
X35560000Y-121920000D03*
G04 #@! TO.P,J28,E*
G04 #@! TO.N,SKT4~s*
X38100000Y-124460000D03*
G04 #@! TO.P,J28,5*
G04 #@! TO.N,IP3*
X35560000Y-124460000D03*
G04 #@! TO.P,J28,D*
G04 #@! TO.N,SKT4~r*
X38100000Y-127000000D03*
G04 #@! TO.P,J28,4*
G04 #@! TO.N,IP2*
X35560000Y-127000000D03*
G04 #@! TO.P,J28,C*
G04 #@! TO.N,SKT4~q*
X38100000Y-129540000D03*
G04 #@! TO.P,J28,3*
G04 #@! TO.N,IP1*
X35560000Y-129540000D03*
G04 #@! TO.P,J28,B*
G04 #@! TO.N,6v*
X38100000Y-132080000D03*
G04 #@! TO.P,J28,2*
X35560000Y-132080000D03*
G04 #@! TO.P,J28,A*
G04 #@! TO.N,GND*
X38100000Y-134620000D03*
D13*
G04 #@! TO.P,J28,1*
X35560000Y-134620000D03*
G04 #@! TD*
D12*
G04 #@! TO.P,J29,AL*
G04 #@! TO.N,GND*
X68580000Y-55880000D03*
G04 #@! TO.P,J29,32*
X66040000Y-55880000D03*
G04 #@! TO.P,J29,AK*
G04 #@! TO.N,Neg6v*
X68580000Y-58420000D03*
G04 #@! TO.P,J29,31*
X66040000Y-58420000D03*
G04 #@! TO.P,J29,AJ*
G04 #@! TO.N,N/C*
X68580000Y-60960000D03*
G04 #@! TO.P,J29,30*
X66040000Y-60960000D03*
G04 #@! TO.P,J29,AH*
G04 #@! TO.N,SKT13E*
X68580000Y-63500000D03*
G04 #@! TO.P,J29,29*
G04 #@! TO.N,INT3*
X66040000Y-63500000D03*
G04 #@! TO.P,J29,AF*
G04 #@! TO.N,SKT13C*
X68580000Y-66040000D03*
G04 #@! TO.P,J29,28*
G04 #@! TO.N,INT2*
X66040000Y-66040000D03*
G04 #@! TO.P,J29,AE*
G04 #@! TO.N,SKT13A*
X68580000Y-68580000D03*
G04 #@! TO.P,J29,27*
G04 #@! TO.N,INT1*
X66040000Y-68580000D03*
G04 #@! TO.P,J29,AD*
G04 #@! TO.N,N/C*
X68580000Y-71120000D03*
G04 #@! TO.P,J29,26*
X66040000Y-71120000D03*
G04 #@! TO.P,J29,AC*
X68580000Y-73660000D03*
G04 #@! TO.P,J29,25*
X66040000Y-73660000D03*
G04 #@! TO.P,J29,AB*
X68580000Y-76200000D03*
G04 #@! TO.P,J29,24*
X66040000Y-76200000D03*
G04 #@! TO.P,J29,AA*
G04 #@! TO.N,SKT14~x*
X68580000Y-78740000D03*
G04 #@! TO.P,J29,23*
G04 #@! TO.N,~WGS~x*
X66040000Y-78740000D03*
G04 #@! TO.P,J29,Z*
G04 #@! TO.N,SKT14~z*
X68580000Y-81280000D03*
G04 #@! TO.P,J29,22*
G04 #@! TO.N,N/C*
X66040000Y-81280000D03*
G04 #@! TO.P,J29,Y*
X68580000Y-83820000D03*
G04 #@! TO.P,J29,21*
G04 #@! TO.N,~RGS~x*
X66040000Y-83820000D03*
G04 #@! TO.P,J29,X*
G04 #@! TO.N,N/C*
X68580000Y-86360000D03*
G04 #@! TO.P,J29,20*
G04 #@! TO.N,W15*
X66040000Y-86360000D03*
G04 #@! TO.P,J29,W*
G04 #@! TO.N,N/C*
X68580000Y-88900000D03*
G04 #@! TO.P,J29,19*
X66040000Y-88900000D03*
G04 #@! TO.P,J29,V*
G04 #@! TO.N,SKT11S*
X68580000Y-91440000D03*
G04 #@! TO.P,J29,18*
G04 #@! TO.N,N/C*
X66040000Y-91440000D03*
G04 #@! TO.P,J29,U*
G04 #@! TO.N,SKT11C*
X68580000Y-93980000D03*
G04 #@! TO.P,J29,17*
G04 #@! TO.N,W4*
X66040000Y-93980000D03*
G04 #@! TO.P,J29,T*
G04 #@! TO.N,SKT11D*
X68580000Y-96520000D03*
G04 #@! TO.P,J29,16*
G04 #@! TO.N,W3*
X66040000Y-96520000D03*
G04 #@! TO.P,J29,S*
G04 #@! TO.N,SKT11E*
X68580000Y-99060000D03*
G04 #@! TO.P,J29,15*
G04 #@! TO.N,W2*
X66040000Y-99060000D03*
G04 #@! TO.P,J29,R*
G04 #@! TO.N,SKT11V*
X68580000Y-101600000D03*
G04 #@! TO.P,J29,14*
G04 #@! TO.N,W18*
X66040000Y-101600000D03*
G04 #@! TO.P,J29,P*
G04 #@! TO.N,SKT11R*
X68580000Y-104140000D03*
G04 #@! TO.P,J29,13*
G04 #@! TO.N,W14*
X66040000Y-104140000D03*
G04 #@! TO.P,J29,N*
G04 #@! TO.N,SKT11T*
X68580000Y-106680000D03*
G04 #@! TO.P,J29,12*
G04 #@! TO.N,W16*
X66040000Y-106680000D03*
G04 #@! TO.P,J29,M*
G04 #@! TO.N,N/C*
X68580000Y-109220000D03*
G04 #@! TO.P,J29,11*
X66040000Y-109220000D03*
G04 #@! TO.P,J29,L*
G04 #@! TO.N,SKT10E*
X68580000Y-111760000D03*
G04 #@! TO.P,J29,10*
G04 #@! TO.N,IP5'*
X66040000Y-111760000D03*
G04 #@! TO.P,J29,K*
G04 #@! TO.N,SKT10H*
X68580000Y-114300000D03*
G04 #@! TO.P,J29,9*
G04 #@! TO.N,IP8'*
X66040000Y-114300000D03*
G04 #@! TO.P,J29,J*
G04 #@! TO.N,SKT10G*
X68580000Y-116840000D03*
G04 #@! TO.P,J29,8*
G04 #@! TO.N,IP7'*
X66040000Y-116840000D03*
G04 #@! TO.P,J29,H*
G04 #@! TO.N,SKT10F*
X68580000Y-119380000D03*
G04 #@! TO.P,J29,7*
G04 #@! TO.N,IP6'*
X66040000Y-119380000D03*
G04 #@! TO.P,J29,F*
G04 #@! TO.N,SKT10D*
X68580000Y-121920000D03*
G04 #@! TO.P,J29,6*
G04 #@! TO.N,IP4'*
X66040000Y-121920000D03*
G04 #@! TO.P,J29,E*
G04 #@! TO.N,SKT10C*
X68580000Y-124460000D03*
G04 #@! TO.P,J29,5*
G04 #@! TO.N,IP3'*
X66040000Y-124460000D03*
G04 #@! TO.P,J29,D*
G04 #@! TO.N,SKT10B*
X68580000Y-127000000D03*
G04 #@! TO.P,J29,4*
G04 #@! TO.N,IP2'*
X66040000Y-127000000D03*
G04 #@! TO.P,J29,C*
G04 #@! TO.N,SKT10A*
X68580000Y-129540000D03*
G04 #@! TO.P,J29,3*
G04 #@! TO.N,IP1'*
X66040000Y-129540000D03*
G04 #@! TO.P,J29,B*
G04 #@! TO.N,6v*
X68580000Y-132080000D03*
G04 #@! TO.P,J29,2*
X66040000Y-132080000D03*
G04 #@! TO.P,J29,A*
G04 #@! TO.N,GND*
X68580000Y-134620000D03*
D13*
G04 #@! TO.P,J29,1*
X66040000Y-134620000D03*
G04 #@! TD*
D12*
G04 #@! TO.P,J30,AL*
G04 #@! TO.N,GND*
X99060000Y-55880000D03*
G04 #@! TO.P,J30,32*
X96520000Y-55880000D03*
G04 #@! TO.P,J30,AK*
G04 #@! TO.N,Neg6v*
X99060000Y-58420000D03*
G04 #@! TO.P,J30,31*
X96520000Y-58420000D03*
G04 #@! TO.P,J30,AJ*
G04 #@! TO.N,N/C*
X99060000Y-60960000D03*
G04 #@! TO.P,J30,30*
X96520000Y-60960000D03*
G04 #@! TO.P,J30,AH*
X99060000Y-63500000D03*
G04 #@! TO.P,J30,29*
G04 #@! TO.N,TRD*
X96520000Y-63500000D03*
G04 #@! TO.P,J30,AF*
G04 #@! TO.N,N/C*
X99060000Y-66040000D03*
G04 #@! TO.P,J30,28*
G04 #@! TO.N,~Z2*
X96520000Y-66040000D03*
G04 #@! TO.P,J30,AE*
G04 #@! TO.N,N/C*
X99060000Y-68580000D03*
G04 #@! TO.P,J30,27*
X96520000Y-68580000D03*
G04 #@! TO.P,J30,AD*
X99060000Y-71120000D03*
G04 #@! TO.P,J30,26*
G04 #@! TO.N,IIS(TR)*
X96520000Y-71120000D03*
G04 #@! TO.P,J30,AC*
G04 #@! TO.N,~P5*
X99060000Y-73660000D03*
G04 #@! TO.P,J30,25*
G04 #@! TO.N,N/C*
X96520000Y-73660000D03*
G04 #@! TO.P,J30,AB*
X99060000Y-76200000D03*
G04 #@! TO.P,J30,24*
G04 #@! TO.N,~P6*
X96520000Y-76200000D03*
G04 #@! TO.P,J30,AA*
G04 #@! TO.N,~P7*
X99060000Y-78740000D03*
G04 #@! TO.P,J30,23*
G04 #@! TO.N,N/C*
X96520000Y-78740000D03*
G04 #@! TO.P,J30,Z*
G04 #@! TO.N,SKT1MM*
X99060000Y-81280000D03*
G04 #@! TO.P,J30,22*
G04 #@! TO.N,~P8*
X96520000Y-81280000D03*
G04 #@! TO.P,J30,Y*
G04 #@! TO.N,~P9*
X99060000Y-83820000D03*
G04 #@! TO.P,J30,21*
G04 #@! TO.N,SKT13J*
X96520000Y-83820000D03*
G04 #@! TO.P,J30,X*
G04 #@! TO.N,~P10*
X99060000Y-86360000D03*
G04 #@! TO.P,J30,20*
G04 #@! TO.N,SKT13G*
X96520000Y-86360000D03*
G04 #@! TO.P,J30,W*
G04 #@! TO.N,~P11*
X99060000Y-88900000D03*
G04 #@! TO.P,J30,19*
G04 #@! TO.N,N/C*
X96520000Y-88900000D03*
G04 #@! TO.P,J30,V*
G04 #@! TO.N,P12*
X99060000Y-91440000D03*
G04 #@! TO.P,J30,18*
G04 #@! TO.N,~P13*
X96520000Y-91440000D03*
G04 #@! TO.P,J30,U*
G04 #@! TO.N,SKT13N*
X99060000Y-93980000D03*
G04 #@! TO.P,J30,17*
G04 #@! TO.N,N/C*
X96520000Y-93980000D03*
G04 #@! TO.P,J30,T*
G04 #@! TO.N,~P12*
X99060000Y-96520000D03*
G04 #@! TO.P,J30,16*
G04 #@! TO.N,N/C*
X96520000Y-96520000D03*
G04 #@! TO.P,J30,S*
X99060000Y-99060000D03*
G04 #@! TO.P,J30,15*
G04 #@! TO.N,SKT10~h*
X96520000Y-99060000D03*
G04 #@! TO.P,J30,R*
G04 #@! TO.N,P13*
X99060000Y-101600000D03*
G04 #@! TO.P,J30,14*
G04 #@! TO.N,SKT10V*
X96520000Y-101600000D03*
G04 #@! TO.P,J30,P*
G04 #@! TO.N,SKT1LL*
X99060000Y-104140000D03*
G04 #@! TO.P,J30,13*
G04 #@! TO.N,SKT13R*
X96520000Y-104140000D03*
G04 #@! TO.P,J30,N*
G04 #@! TO.N,N/C*
X99060000Y-106680000D03*
G04 #@! TO.P,J30,12*
X96520000Y-106680000D03*
G04 #@! TO.P,J30,M*
G04 #@! TO.N,t4-2*
X99060000Y-109220000D03*
G04 #@! TO.P,J30,11*
G04 #@! TO.N,N/C*
X96520000Y-109220000D03*
G04 #@! TO.P,J30,L*
G04 #@! TO.N,SKT1NN*
X99060000Y-111760000D03*
G04 #@! TO.P,J30,10*
G04 #@! TO.N,MARGIN*
X96520000Y-111760000D03*
G04 #@! TO.P,J30,K*
G04 #@! TO.N,N/C*
X99060000Y-114300000D03*
G04 #@! TO.P,J30,9*
G04 #@! TO.N,~RESET~2*
X96520000Y-114300000D03*
G04 #@! TO.P,J30,J*
G04 #@! TO.N,SZ1*
X99060000Y-116840000D03*
G04 #@! TO.P,J30,8*
G04 #@! TO.N,PC1-4=1*
X96520000Y-116840000D03*
G04 #@! TO.P,J30,H*
G04 #@! TO.N,SKT1PP*
X99060000Y-119380000D03*
G04 #@! TO.P,J30,7*
G04 #@! TO.N,PC5-12=0*
X96520000Y-119380000D03*
G04 #@! TO.P,J30,F*
G04 #@! TO.N,TZ1*
X99060000Y-121920000D03*
G04 #@! TO.P,J30,6*
G04 #@! TO.N,RBT*
X96520000Y-121920000D03*
G04 #@! TO.P,J30,E*
G04 #@! TO.N,SKT13L*
X99060000Y-124460000D03*
G04 #@! TO.P,J30,5*
G04 #@! TO.N,N/C*
X96520000Y-124460000D03*
G04 #@! TO.P,J30,D*
G04 #@! TO.N,SKT10W*
X99060000Y-127000000D03*
G04 #@! TO.P,J30,4*
G04 #@! TO.N,SBT*
X96520000Y-127000000D03*
G04 #@! TO.P,J30,C*
G04 #@! TO.N,SKT10~j*
X99060000Y-129540000D03*
G04 #@! TO.P,J30,3*
G04 #@! TO.N,N/C*
X96520000Y-129540000D03*
G04 #@! TO.P,J30,B*
G04 #@! TO.N,6v*
X99060000Y-132080000D03*
G04 #@! TO.P,J30,2*
X96520000Y-132080000D03*
G04 #@! TO.P,J30,A*
G04 #@! TO.N,GND*
X99060000Y-134620000D03*
D13*
G04 #@! TO.P,J30,1*
X96520000Y-134620000D03*
G04 #@! TD*
D12*
G04 #@! TO.P,J31,AL*
G04 #@! TO.N,GND*
X129540000Y-55880000D03*
G04 #@! TO.P,J31,32*
X127000000Y-55880000D03*
G04 #@! TO.P,J31,AK*
G04 #@! TO.N,Neg6v*
X129540000Y-58420000D03*
G04 #@! TO.P,J31,31*
X127000000Y-58420000D03*
G04 #@! TO.P,J31,AJ*
G04 #@! TO.N,N/C*
X129540000Y-60960000D03*
G04 #@! TO.P,J31,30*
X127000000Y-60960000D03*
G04 #@! TO.P,J31,AH*
X129540000Y-63500000D03*
G04 #@! TO.P,J31,29*
X127000000Y-63500000D03*
G04 #@! TO.P,J31,AF*
G04 #@! TO.N,~A8*
X129540000Y-66040000D03*
G04 #@! TO.P,J31,28*
G04 #@! TO.N,SKT10S*
X127000000Y-66040000D03*
G04 #@! TO.P,J31,AE*
G04 #@! TO.N,~A7*
X129540000Y-68580000D03*
G04 #@! TO.P,J31,27*
G04 #@! TO.N,SKT10R*
X127000000Y-68580000D03*
G04 #@! TO.P,J31,AD*
G04 #@! TO.N,~A6*
X129540000Y-71120000D03*
G04 #@! TO.P,J31,26*
G04 #@! TO.N,SKT10P*
X127000000Y-71120000D03*
G04 #@! TO.P,J31,AC*
G04 #@! TO.N,~A5*
X129540000Y-73660000D03*
G04 #@! TO.P,J31,25*
G04 #@! TO.N,SKT10N*
X127000000Y-73660000D03*
G04 #@! TO.P,J31,AB*
G04 #@! TO.N,~A4*
X129540000Y-76200000D03*
G04 #@! TO.P,J31,24*
G04 #@! TO.N,SKT10M*
X127000000Y-76200000D03*
G04 #@! TO.P,J31,AA*
G04 #@! TO.N,~A3*
X129540000Y-78740000D03*
G04 #@! TO.P,J31,23*
G04 #@! TO.N,SKT10L*
X127000000Y-78740000D03*
G04 #@! TO.P,J31,Z*
G04 #@! TO.N,~A2*
X129540000Y-81280000D03*
G04 #@! TO.P,J31,22*
G04 #@! TO.N,SKT10K*
X127000000Y-81280000D03*
G04 #@! TO.P,J31,Y*
G04 #@! TO.N,~A1*
X129540000Y-83820000D03*
G04 #@! TO.P,J31,21*
G04 #@! TO.N,SKT10J*
X127000000Y-83820000D03*
G04 #@! TO.P,J31,X*
G04 #@! TO.N,~A18*
X129540000Y-86360000D03*
G04 #@! TO.P,J31,20*
G04 #@! TO.N,STK4V*
X127000000Y-86360000D03*
G04 #@! TO.P,J31,W*
G04 #@! TO.N,~A17*
X129540000Y-88900000D03*
G04 #@! TO.P,J31,19*
G04 #@! TO.N,SKT4U*
X127000000Y-88900000D03*
G04 #@! TO.P,J31,V*
G04 #@! TO.N,~A16*
X129540000Y-91440000D03*
G04 #@! TO.P,J31,18*
G04 #@! TO.N,SKT4T*
X127000000Y-91440000D03*
G04 #@! TO.P,J31,U*
G04 #@! TO.N,~A15*
X129540000Y-93980000D03*
G04 #@! TO.P,J31,17*
G04 #@! TO.N,SKT4S*
X127000000Y-93980000D03*
G04 #@! TO.P,J31,T*
G04 #@! TO.N,~A14*
X129540000Y-96520000D03*
G04 #@! TO.P,J31,16*
G04 #@! TO.N,SKT4R*
X127000000Y-96520000D03*
G04 #@! TO.P,J31,S*
G04 #@! TO.N,~A13*
X129540000Y-99060000D03*
G04 #@! TO.P,J31,15*
G04 #@! TO.N,SKT4P*
X127000000Y-99060000D03*
G04 #@! TO.P,J31,R*
G04 #@! TO.N,~A12*
X129540000Y-101600000D03*
G04 #@! TO.P,J31,14*
G04 #@! TO.N,SKT4N*
X127000000Y-101600000D03*
G04 #@! TO.P,J31,P*
G04 #@! TO.N,~A11*
X129540000Y-104140000D03*
G04 #@! TO.P,J31,13*
G04 #@! TO.N,SKT4M*
X127000000Y-104140000D03*
G04 #@! TO.P,J31,N*
G04 #@! TO.N,~A10*
X129540000Y-106680000D03*
G04 #@! TO.P,J31,12*
G04 #@! TO.N,SKT4L*
X127000000Y-106680000D03*
G04 #@! TO.P,J31,M*
G04 #@! TO.N,~A9*
X129540000Y-109220000D03*
G04 #@! TO.P,J31,11*
G04 #@! TO.N,SKT4K*
X127000000Y-109220000D03*
G04 #@! TO.P,J31,L*
G04 #@! TO.N,~A8*
X129540000Y-111760000D03*
G04 #@! TO.P,J31,10*
G04 #@! TO.N,SKT4J*
X127000000Y-111760000D03*
G04 #@! TO.P,J31,K*
G04 #@! TO.N,~A7*
X129540000Y-114300000D03*
G04 #@! TO.P,J31,9*
G04 #@! TO.N,SKT4H*
X127000000Y-114300000D03*
G04 #@! TO.P,J31,J*
G04 #@! TO.N,~A6*
X129540000Y-116840000D03*
G04 #@! TO.P,J31,8*
G04 #@! TO.N,SKT4G*
X127000000Y-116840000D03*
G04 #@! TO.P,J31,H*
G04 #@! TO.N,~A5*
X129540000Y-119380000D03*
G04 #@! TO.P,J31,7*
G04 #@! TO.N,SKT4F*
X127000000Y-119380000D03*
G04 #@! TO.P,J31,F*
G04 #@! TO.N,~A4*
X129540000Y-121920000D03*
G04 #@! TO.P,J31,6*
G04 #@! TO.N,SKT4E*
X127000000Y-121920000D03*
G04 #@! TO.P,J31,E*
G04 #@! TO.N,~A3*
X129540000Y-124460000D03*
G04 #@! TO.P,J31,5*
G04 #@! TO.N,SKT4D*
X127000000Y-124460000D03*
G04 #@! TO.P,J31,D*
G04 #@! TO.N,~A2*
X129540000Y-127000000D03*
G04 #@! TO.P,J31,4*
G04 #@! TO.N,SKT4C*
X127000000Y-127000000D03*
G04 #@! TO.P,J31,C*
G04 #@! TO.N,~A1*
X129540000Y-129540000D03*
G04 #@! TO.P,J31,3*
G04 #@! TO.N,SKT4B*
X127000000Y-129540000D03*
G04 #@! TO.P,J31,B*
G04 #@! TO.N,6v*
X129540000Y-132080000D03*
G04 #@! TO.P,J31,2*
X127000000Y-132080000D03*
G04 #@! TO.P,J31,A*
G04 #@! TO.N,GND*
X129540000Y-134620000D03*
D13*
G04 #@! TO.P,J31,1*
X127000000Y-134620000D03*
G04 #@! TD*
D12*
G04 #@! TO.P,J32,AL*
G04 #@! TO.N,GND*
X160020000Y-55880000D03*
G04 #@! TO.P,J32,32*
X157480000Y-55880000D03*
G04 #@! TO.P,J32,AK*
G04 #@! TO.N,Neg6v*
X160020000Y-58420000D03*
G04 #@! TO.P,J32,31*
X157480000Y-58420000D03*
G04 #@! TO.P,J32,AJ*
G04 #@! TO.N,N/C*
X160020000Y-60960000D03*
G04 #@! TO.P,J32,30*
X157480000Y-60960000D03*
G04 #@! TO.P,J32,AH*
X160020000Y-63500000D03*
G04 #@! TO.P,J32,29*
X157480000Y-63500000D03*
G04 #@! TO.P,J32,AF*
X160020000Y-66040000D03*
G04 #@! TO.P,J32,28*
X157480000Y-66040000D03*
G04 #@! TO.P,J32,AE*
X160020000Y-68580000D03*
G04 #@! TO.P,J32,27*
X157480000Y-68580000D03*
G04 #@! TO.P,J32,AD*
X160020000Y-71120000D03*
G04 #@! TO.P,J32,26*
X157480000Y-71120000D03*
G04 #@! TO.P,J32,AC*
X160020000Y-73660000D03*
G04 #@! TO.P,J32,25*
X157480000Y-73660000D03*
G04 #@! TO.P,J32,AB*
X160020000Y-76200000D03*
G04 #@! TO.P,J32,24*
X157480000Y-76200000D03*
G04 #@! TO.P,J32,AA*
X160020000Y-78740000D03*
G04 #@! TO.P,J32,23*
X157480000Y-78740000D03*
G04 #@! TO.P,J32,Z*
X160020000Y-81280000D03*
G04 #@! TO.P,J32,22*
X157480000Y-81280000D03*
G04 #@! TO.P,J32,Y*
X160020000Y-83820000D03*
G04 #@! TO.P,J32,21*
X157480000Y-83820000D03*
G04 #@! TO.P,J32,X*
G04 #@! TO.N,~RESET~2*
X160020000Y-86360000D03*
G04 #@! TO.P,J32,20*
G04 #@! TO.N,SKT4PP*
X157480000Y-86360000D03*
G04 #@! TO.P,J32,W*
G04 #@! TO.N,~P4*
X160020000Y-88900000D03*
G04 #@! TO.P,J32,19*
G04 #@! TO.N,SKT10~b*
X157480000Y-88900000D03*
G04 #@! TO.P,J32,V*
G04 #@! TO.N,~P3*
X160020000Y-91440000D03*
G04 #@! TO.P,J32,18*
G04 #@! TO.N,SKT10U*
X157480000Y-91440000D03*
G04 #@! TO.P,J32,U*
G04 #@! TO.N,~P1*
X160020000Y-93980000D03*
G04 #@! TO.P,J32,17*
G04 #@! TO.N,SKT10X*
X157480000Y-93980000D03*
G04 #@! TO.P,J32,T*
G04 #@! TO.N,~RESET~2*
X160020000Y-96520000D03*
G04 #@! TO.P,J32,16*
G04 #@! TO.N,SKT10~d*
X157480000Y-96520000D03*
G04 #@! TO.P,J32,S*
G04 #@! TO.N,~P2*
X160020000Y-99060000D03*
G04 #@! TO.P,J32,15*
G04 #@! TO.N,SKT10Y*
X157480000Y-99060000D03*
G04 #@! TO.P,J32,R*
G04 #@! TO.N,~VTG*
X160020000Y-101600000D03*
G04 #@! TO.P,J32,14*
G04 #@! TO.N,SKT5~p*
X157480000Y-101600000D03*
G04 #@! TO.P,J32,P*
G04 #@! TO.N,~P11*
X160020000Y-104140000D03*
G04 #@! TO.P,J32,13*
G04 #@! TO.N,SKT4~g*
X157480000Y-104140000D03*
G04 #@! TO.P,J32,N*
G04 #@! TO.N,~P10*
X160020000Y-106680000D03*
G04 #@! TO.P,J32,12*
G04 #@! TO.N,SKT4~f*
X157480000Y-106680000D03*
G04 #@! TO.P,J32,M*
G04 #@! TO.N,~P9*
X160020000Y-109220000D03*
G04 #@! TO.P,J32,11*
G04 #@! TO.N,SKT4~e*
X157480000Y-109220000D03*
G04 #@! TO.P,J32,L*
G04 #@! TO.N,~P8*
X160020000Y-111760000D03*
G04 #@! TO.P,J32,10*
G04 #@! TO.N,SKT4~d*
X157480000Y-111760000D03*
G04 #@! TO.P,J32,K*
G04 #@! TO.N,~P7*
X160020000Y-114300000D03*
G04 #@! TO.P,J32,9*
G04 #@! TO.N,SKT4~c*
X157480000Y-114300000D03*
G04 #@! TO.P,J32,J*
G04 #@! TO.N,~P6*
X160020000Y-116840000D03*
G04 #@! TO.P,J32,8*
G04 #@! TO.N,SKT4~b*
X157480000Y-116840000D03*
G04 #@! TO.P,J32,H*
G04 #@! TO.N,~P5*
X160020000Y-119380000D03*
G04 #@! TO.P,J32,7*
G04 #@! TO.N,SKT4~a*
X157480000Y-119380000D03*
G04 #@! TO.P,J32,F*
G04 #@! TO.N,~P4*
X160020000Y-121920000D03*
G04 #@! TO.P,J32,6*
G04 #@! TO.N,SKT4Z*
X157480000Y-121920000D03*
G04 #@! TO.P,J32,E*
G04 #@! TO.N,~P3*
X160020000Y-124460000D03*
G04 #@! TO.P,J32,5*
G04 #@! TO.N,SKT4Y*
X157480000Y-124460000D03*
G04 #@! TO.P,J32,D*
G04 #@! TO.N,~P2*
X160020000Y-127000000D03*
G04 #@! TO.P,J32,4*
G04 #@! TO.N,SKT4X*
X157480000Y-127000000D03*
G04 #@! TO.P,J32,C*
G04 #@! TO.N,~P1*
X160020000Y-129540000D03*
G04 #@! TO.P,J32,3*
G04 #@! TO.N,SKT4W*
X157480000Y-129540000D03*
G04 #@! TO.P,J32,B*
G04 #@! TO.N,6v*
X160020000Y-132080000D03*
G04 #@! TO.P,J32,2*
X157480000Y-132080000D03*
G04 #@! TO.P,J32,A*
G04 #@! TO.N,GND*
X160020000Y-134620000D03*
D13*
G04 #@! TO.P,J32,1*
X157480000Y-134556000D03*
G04 #@! TD*
D11*
G04 #@! TO.P,J128,16*
G04 #@! TO.N,SKT4FF*
X45720000Y-254000000D03*
G04 #@! TO.P,J128,15*
G04 #@! TO.N,SKT4EE*
X45720000Y-248920000D03*
G04 #@! TO.P,J128,14*
G04 #@! TO.N,SKT4DD*
X45720000Y-243840000D03*
G04 #@! TO.P,J128,13*
G04 #@! TO.N,SKT4CC*
X45720000Y-238760000D03*
G04 #@! TO.P,J128,12*
G04 #@! TO.N,SKT4BB*
X45720000Y-233680000D03*
G04 #@! TO.P,J128,11*
G04 #@! TO.N,SKT4AA*
X45720000Y-228600000D03*
G04 #@! TO.P,J128,10*
G04 #@! TO.N,SKT4~z*
X45720000Y-223520000D03*
G04 #@! TO.P,J128,9*
G04 #@! TO.N,SKT4~y*
X45720000Y-218440000D03*
G04 #@! TO.P,J128,8*
G04 #@! TO.N,SKT4~x*
X45720000Y-213360000D03*
G04 #@! TO.P,J128,7*
G04 #@! TO.N,SKT4~w*
X45720000Y-208280000D03*
G04 #@! TO.P,J128,6*
G04 #@! TO.N,SKT4~v*
X45720000Y-203200000D03*
G04 #@! TO.P,J128,5*
G04 #@! TO.N,SKT4~u*
X45720000Y-198120000D03*
G04 #@! TO.P,J128,4*
G04 #@! TO.N,SKT4~t*
X45720000Y-193040000D03*
G04 #@! TO.P,J128,3*
G04 #@! TO.N,SKT4~s*
X45720000Y-187960000D03*
G04 #@! TO.P,J128,2*
G04 #@! TO.N,SKT4~r*
X45720000Y-182880000D03*
D10*
G04 #@! TO.P,J128,1*
G04 #@! TO.N,SKT4~q*
X45720000Y-177800000D03*
D11*
G04 #@! TO.P,J128,17*
G04 #@! TO.N,SKT4GG*
X45720000Y-259000000D03*
G04 #@! TO.P,J128,18*
G04 #@! TO.N,SKT4HH*
X45720000Y-264000000D03*
G04 #@! TD*
G04 #@! TO.P,J129,20*
G04 #@! TO.N,SKT13E*
X76200000Y-274000000D03*
G04 #@! TO.P,J129,19*
G04 #@! TO.N,SKT13C*
X76200000Y-269000000D03*
G04 #@! TO.P,J129,18*
G04 #@! TO.N,SKT13A*
X76200000Y-264000000D03*
G04 #@! TO.P,J129,17*
G04 #@! TO.N,SKT14~x*
X76200000Y-259000000D03*
D10*
G04 #@! TO.P,J129,1*
G04 #@! TO.N,SKT10A*
X76200000Y-177800000D03*
D11*
G04 #@! TO.P,J129,2*
G04 #@! TO.N,SKT10B*
X76200000Y-182880000D03*
G04 #@! TO.P,J129,3*
G04 #@! TO.N,SKT10C*
X76200000Y-187960000D03*
G04 #@! TO.P,J129,4*
G04 #@! TO.N,SKT10D*
X76200000Y-193040000D03*
G04 #@! TO.P,J129,5*
G04 #@! TO.N,SKT10F*
X76200000Y-198120000D03*
G04 #@! TO.P,J129,6*
G04 #@! TO.N,SKT10G*
X76200000Y-203200000D03*
G04 #@! TO.P,J129,7*
G04 #@! TO.N,SKT10H*
X76200000Y-208280000D03*
G04 #@! TO.P,J129,8*
G04 #@! TO.N,SKT10E*
X76200000Y-213360000D03*
G04 #@! TO.P,J129,9*
G04 #@! TO.N,SKT11T*
X76200000Y-218440000D03*
G04 #@! TO.P,J129,10*
G04 #@! TO.N,SKT11R*
X76200000Y-223520000D03*
G04 #@! TO.P,J129,11*
G04 #@! TO.N,SKT11V*
X76200000Y-228600000D03*
G04 #@! TO.P,J129,12*
G04 #@! TO.N,SKT11E*
X76200000Y-233680000D03*
G04 #@! TO.P,J129,13*
G04 #@! TO.N,SKT11D*
X76200000Y-238760000D03*
G04 #@! TO.P,J129,14*
G04 #@! TO.N,SKT11C*
X76200000Y-243840000D03*
G04 #@! TO.P,J129,15*
G04 #@! TO.N,SKT11S*
X76200000Y-248920000D03*
G04 #@! TO.P,J129,16*
G04 #@! TO.N,SKT14~z*
X76200000Y-254000000D03*
G04 #@! TD*
G04 #@! TO.P,J130,20*
G04 #@! TO.N,SZ1*
X106680000Y-274000000D03*
G04 #@! TO.P,J130,19*
G04 #@! TO.N,TZ1*
X106680000Y-269000000D03*
G04 #@! TO.P,J130,18*
G04 #@! TO.N,IIS(TR)*
X106680000Y-264000000D03*
G04 #@! TO.P,J130,17*
G04 #@! TO.N,~Z2*
X106680000Y-259000000D03*
D10*
G04 #@! TO.P,J130,1*
G04 #@! TO.N,SKT10~j*
X106680000Y-177800000D03*
D11*
G04 #@! TO.P,J130,2*
G04 #@! TO.N,SKT10W*
X106680000Y-182880000D03*
G04 #@! TO.P,J130,3*
G04 #@! TO.N,SKT13L*
X106680000Y-187960000D03*
G04 #@! TO.P,J130,4*
G04 #@! TO.N,SKT1PP*
X106680000Y-193040000D03*
G04 #@! TO.P,J130,5*
G04 #@! TO.N,SKT1NN*
X106680000Y-198120000D03*
G04 #@! TO.P,J130,6*
G04 #@! TO.N,SKT1LL*
X106680000Y-203200000D03*
G04 #@! TO.P,J130,7*
G04 #@! TO.N,SKT13N*
X106680000Y-208280000D03*
G04 #@! TO.P,J130,8*
G04 #@! TO.N,SKT1MM*
X106680000Y-213360000D03*
G04 #@! TO.P,J130,9*
G04 #@! TO.N,SKT13R*
X106680000Y-218440000D03*
G04 #@! TO.P,J130,10*
G04 #@! TO.N,SKT10V*
X106680000Y-223520000D03*
G04 #@! TO.P,J130,11*
G04 #@! TO.N,SKT10~h*
X106680000Y-228600000D03*
G04 #@! TO.P,J130,12*
G04 #@! TO.N,SKT13G*
X106680000Y-233680000D03*
G04 #@! TO.P,J130,13*
G04 #@! TO.N,SKT13J*
X106680000Y-238760000D03*
G04 #@! TO.P,J130,14*
G04 #@! TO.N,PC1-4=1*
X106680000Y-243840000D03*
G04 #@! TO.P,J130,15*
G04 #@! TO.N,PC5-12=0*
X106680000Y-248920000D03*
G04 #@! TO.P,J130,16*
G04 #@! TO.N,TRD*
X106680000Y-254000000D03*
G04 #@! TD*
G04 #@! TO.P,J131,18*
G04 #@! TO.N,~A18*
X137160000Y-264000000D03*
G04 #@! TO.P,J131,17*
G04 #@! TO.N,~A17*
X137160000Y-259000000D03*
D10*
G04 #@! TO.P,J131,1*
G04 #@! TO.N,~A1*
X137160000Y-177800000D03*
D11*
G04 #@! TO.P,J131,2*
G04 #@! TO.N,~A2*
X137160000Y-182880000D03*
G04 #@! TO.P,J131,3*
G04 #@! TO.N,~A3*
X137160000Y-187960000D03*
G04 #@! TO.P,J131,4*
G04 #@! TO.N,~A4*
X137160000Y-193040000D03*
G04 #@! TO.P,J131,5*
G04 #@! TO.N,~A5*
X137160000Y-198120000D03*
G04 #@! TO.P,J131,6*
G04 #@! TO.N,~A6*
X137160000Y-203200000D03*
G04 #@! TO.P,J131,7*
G04 #@! TO.N,~A7*
X137160000Y-208280000D03*
G04 #@! TO.P,J131,8*
G04 #@! TO.N,~A8*
X137160000Y-213360000D03*
G04 #@! TO.P,J131,9*
G04 #@! TO.N,~A9*
X137160000Y-218440000D03*
G04 #@! TO.P,J131,10*
G04 #@! TO.N,~A10*
X137160000Y-223520000D03*
G04 #@! TO.P,J131,11*
G04 #@! TO.N,~A11*
X137160000Y-228600000D03*
G04 #@! TO.P,J131,12*
G04 #@! TO.N,~A12*
X137160000Y-233680000D03*
G04 #@! TO.P,J131,13*
G04 #@! TO.N,~A13*
X137160000Y-238760000D03*
G04 #@! TO.P,J131,14*
G04 #@! TO.N,~A14*
X137160000Y-243840000D03*
G04 #@! TO.P,J131,15*
G04 #@! TO.N,~A15*
X137160000Y-248920000D03*
G04 #@! TO.P,J131,16*
G04 #@! TO.N,~A16*
X137160000Y-254000000D03*
G04 #@! TD*
G04 #@! TO.P,J228,18*
G04 #@! TO.N,IP18*
X30480000Y-264000000D03*
G04 #@! TO.P,J228,17*
G04 #@! TO.N,IP17*
X30480000Y-259000000D03*
D10*
G04 #@! TO.P,J228,1*
G04 #@! TO.N,IP1*
X30480000Y-177800000D03*
D11*
G04 #@! TO.P,J228,2*
G04 #@! TO.N,IP2*
X30480000Y-182880000D03*
G04 #@! TO.P,J228,3*
G04 #@! TO.N,IP3*
X30480000Y-187960000D03*
G04 #@! TO.P,J228,4*
G04 #@! TO.N,IP4*
X30480000Y-193040000D03*
G04 #@! TO.P,J228,5*
G04 #@! TO.N,IP5*
X30480000Y-198120000D03*
G04 #@! TO.P,J228,6*
G04 #@! TO.N,IP6*
X30480000Y-203200000D03*
G04 #@! TO.P,J228,7*
G04 #@! TO.N,IP7*
X30480000Y-208280000D03*
G04 #@! TO.P,J228,8*
G04 #@! TO.N,IP8*
X30480000Y-213360000D03*
G04 #@! TO.P,J228,9*
G04 #@! TO.N,IP9*
X30480000Y-218440000D03*
G04 #@! TO.P,J228,10*
G04 #@! TO.N,IP10*
X30480000Y-223520000D03*
G04 #@! TO.P,J228,11*
G04 #@! TO.N,IP11*
X30480000Y-228600000D03*
G04 #@! TO.P,J228,12*
G04 #@! TO.N,IP12*
X30480000Y-233680000D03*
G04 #@! TO.P,J228,13*
G04 #@! TO.N,IP13*
X30480000Y-238760000D03*
G04 #@! TO.P,J228,14*
G04 #@! TO.N,IP14*
X30480000Y-243840000D03*
G04 #@! TO.P,J228,15*
G04 #@! TO.N,IP15*
X30480000Y-248920000D03*
G04 #@! TO.P,J228,16*
G04 #@! TO.N,IP16*
X30480000Y-254000000D03*
G04 #@! TD*
G04 #@! TO.P,J229,16*
G04 #@! TO.N,~RGS~x*
X60960000Y-254000000D03*
G04 #@! TO.P,J229,15*
G04 #@! TO.N,W15*
X60960000Y-248920000D03*
G04 #@! TO.P,J229,14*
G04 #@! TO.N,W4*
X60960000Y-243840000D03*
G04 #@! TO.P,J229,13*
G04 #@! TO.N,W3*
X60960000Y-238760000D03*
G04 #@! TO.P,J229,12*
G04 #@! TO.N,W2*
X60960000Y-233680000D03*
G04 #@! TO.P,J229,11*
G04 #@! TO.N,W18*
X60960000Y-228600000D03*
G04 #@! TO.P,J229,10*
G04 #@! TO.N,W14*
X60960000Y-223520000D03*
G04 #@! TO.P,J229,9*
G04 #@! TO.N,W16*
X60960000Y-218440000D03*
G04 #@! TO.P,J229,8*
G04 #@! TO.N,IP5'*
X60960000Y-213360000D03*
G04 #@! TO.P,J229,7*
G04 #@! TO.N,IP8'*
X60960000Y-208280000D03*
G04 #@! TO.P,J229,6*
G04 #@! TO.N,IP7'*
X60960000Y-203200000D03*
G04 #@! TO.P,J229,5*
G04 #@! TO.N,IP6'*
X60960000Y-198120000D03*
G04 #@! TO.P,J229,4*
G04 #@! TO.N,IP4'*
X60960000Y-193040000D03*
G04 #@! TO.P,J229,3*
G04 #@! TO.N,IP3'*
X60960000Y-187960000D03*
G04 #@! TO.P,J229,2*
G04 #@! TO.N,IP2'*
X60960000Y-182880000D03*
D10*
G04 #@! TO.P,J229,1*
G04 #@! TO.N,IP1'*
X60960000Y-177800000D03*
D11*
G04 #@! TO.P,J229,17*
G04 #@! TO.N,~WGS~x*
X60960000Y-259000000D03*
G04 #@! TO.P,J229,18*
G04 #@! TO.N,INT1*
X60960000Y-264000000D03*
G04 #@! TO.P,J229,19*
G04 #@! TO.N,INT2*
X60960000Y-269000000D03*
G04 #@! TO.P,J229,20*
G04 #@! TO.N,INT3*
X60960000Y-274000000D03*
G04 #@! TD*
G04 #@! TO.P,J230,16*
G04 #@! TO.N,N/C*
X91440000Y-254000000D03*
G04 #@! TO.P,J230,15*
X91440000Y-248920000D03*
G04 #@! TO.P,J230,14*
X91440000Y-243840000D03*
G04 #@! TO.P,J230,13*
X91440000Y-238760000D03*
G04 #@! TO.P,J230,12*
X91440000Y-233680000D03*
G04 #@! TO.P,J230,11*
G04 #@! TO.N,~P5*
X91440000Y-228600000D03*
G04 #@! TO.P,J230,10*
G04 #@! TO.N,~P6*
X91440000Y-223520000D03*
G04 #@! TO.P,J230,9*
G04 #@! TO.N,~P7*
X91440000Y-218440000D03*
G04 #@! TO.P,J230,8*
G04 #@! TO.N,~P8*
X91440000Y-213360000D03*
G04 #@! TO.P,J230,7*
G04 #@! TO.N,~P9*
X91440000Y-208280000D03*
G04 #@! TO.P,J230,6*
G04 #@! TO.N,~P10*
X91440000Y-203200000D03*
G04 #@! TO.P,J230,5*
G04 #@! TO.N,~P11*
X91440000Y-198120000D03*
G04 #@! TO.P,J230,4*
G04 #@! TO.N,~P12*
X91440000Y-193040000D03*
G04 #@! TO.P,J230,3*
G04 #@! TO.N,~P13*
X91440000Y-187960000D03*
G04 #@! TO.P,J230,2*
G04 #@! TO.N,P12*
X91440000Y-182880000D03*
D10*
G04 #@! TO.P,J230,1*
G04 #@! TO.N,P13*
X91440000Y-177800000D03*
D11*
G04 #@! TO.P,J230,17*
G04 #@! TO.N,N/C*
X91440000Y-259000000D03*
G04 #@! TO.P,J230,18*
X91440000Y-264000000D03*
G04 #@! TO.P,J230,19*
X91440000Y-269000000D03*
G04 #@! TO.P,J230,20*
G04 #@! TO.N,MARGIN*
X91440000Y-274000000D03*
G04 #@! TD*
G04 #@! TO.P,J231,16*
G04 #@! TO.N,SKT4T*
X121920000Y-254000000D03*
G04 #@! TO.P,J231,15*
G04 #@! TO.N,SKT4S*
X121920000Y-248920000D03*
G04 #@! TO.P,J231,14*
G04 #@! TO.N,SKT4R*
X121920000Y-243840000D03*
G04 #@! TO.P,J231,13*
G04 #@! TO.N,SKT4P*
X121920000Y-238760000D03*
G04 #@! TO.P,J231,12*
G04 #@! TO.N,SKT4N*
X121920000Y-233680000D03*
G04 #@! TO.P,J231,11*
G04 #@! TO.N,SKT4M*
X121920000Y-228600000D03*
G04 #@! TO.P,J231,10*
G04 #@! TO.N,SKT4L*
X121920000Y-223520000D03*
G04 #@! TO.P,J231,9*
G04 #@! TO.N,SKT4K*
X121920000Y-218440000D03*
G04 #@! TO.P,J231,8*
G04 #@! TO.N,SKT4J*
X121920000Y-213360000D03*
G04 #@! TO.P,J231,7*
G04 #@! TO.N,SKT4H*
X121920000Y-208280000D03*
G04 #@! TO.P,J231,6*
G04 #@! TO.N,SKT4G*
X121920000Y-203200000D03*
G04 #@! TO.P,J231,5*
G04 #@! TO.N,SKT4F*
X121920000Y-198120000D03*
G04 #@! TO.P,J231,4*
G04 #@! TO.N,SKT4E*
X121920000Y-193040000D03*
G04 #@! TO.P,J231,3*
G04 #@! TO.N,SKT4D*
X121920000Y-187960000D03*
G04 #@! TO.P,J231,2*
G04 #@! TO.N,SKT4C*
X121920000Y-182880000D03*
D10*
G04 #@! TO.P,J231,1*
G04 #@! TO.N,SKT4B*
X121920000Y-177800000D03*
D11*
G04 #@! TO.P,J231,17*
G04 #@! TO.N,SKT4U*
X121920000Y-259000000D03*
G04 #@! TO.P,J231,18*
G04 #@! TO.N,STK4V*
X121920000Y-264000000D03*
G04 #@! TD*
G04 #@! TO.P,J232,16*
G04 #@! TO.N,SKT10U*
X152400000Y-254000000D03*
G04 #@! TO.P,J232,15*
G04 #@! TO.N,SKT10X*
X152400000Y-248920000D03*
G04 #@! TO.P,J232,14*
G04 #@! TO.N,SKT10~d*
X152400000Y-243840000D03*
G04 #@! TO.P,J232,13*
G04 #@! TO.N,SKT10Y*
X152400000Y-238760000D03*
G04 #@! TO.P,J232,12*
G04 #@! TO.N,SKT5~p*
X152400000Y-233680000D03*
G04 #@! TO.P,J232,11*
G04 #@! TO.N,SKT4~g*
X152400000Y-228600000D03*
G04 #@! TO.P,J232,10*
G04 #@! TO.N,SKT4~f*
X152400000Y-223520000D03*
G04 #@! TO.P,J232,9*
G04 #@! TO.N,SKT4~e*
X152400000Y-218440000D03*
G04 #@! TO.P,J232,8*
G04 #@! TO.N,SKT4~d*
X152400000Y-213360000D03*
G04 #@! TO.P,J232,7*
G04 #@! TO.N,SKT4~c*
X152400000Y-208280000D03*
G04 #@! TO.P,J232,6*
G04 #@! TO.N,SKT4~b*
X152400000Y-203200000D03*
G04 #@! TO.P,J232,5*
G04 #@! TO.N,SKT4~a*
X152400000Y-198120000D03*
G04 #@! TO.P,J232,4*
G04 #@! TO.N,SKT4Z*
X152400000Y-193040000D03*
G04 #@! TO.P,J232,3*
G04 #@! TO.N,SKT4Y*
X152400000Y-187960000D03*
G04 #@! TO.P,J232,2*
G04 #@! TO.N,SKT4X*
X152400000Y-182880000D03*
D10*
G04 #@! TO.P,J232,1*
G04 #@! TO.N,SKT4W*
X152400000Y-177800000D03*
D11*
G04 #@! TO.P,J232,17*
G04 #@! TO.N,SKT10~b*
X152400000Y-259000000D03*
G04 #@! TO.P,J232,18*
G04 #@! TO.N,SKT4PP*
X152400000Y-264000000D03*
G04 #@! TD*
G04 #@! TO.P,J328,6*
G04 #@! TO.N,N/C*
X193040000Y-203200000D03*
G04 #@! TO.P,J328,5*
G04 #@! TO.N,t4-2*
X193040000Y-198120000D03*
G04 #@! TO.P,J328,4*
G04 #@! TO.N,SBTm*
X193040000Y-193040000D03*
G04 #@! TO.P,J328,3*
G04 #@! TO.N,RBTm*
X193040000Y-187960000D03*
G04 #@! TO.P,J328,2*
G04 #@! TO.N,N/C*
X193040000Y-182880000D03*
D10*
G04 #@! TO.P,J328,1*
X193040000Y-177800000D03*
G04 #@! TD*
D11*
G04 #@! TO.P,J331,8*
G04 #@! TO.N,SKT10S*
X205740000Y-213360000D03*
G04 #@! TO.P,J331,7*
G04 #@! TO.N,SKT10R*
X205740000Y-208280000D03*
G04 #@! TO.P,J331,6*
G04 #@! TO.N,SKT10P*
X205740000Y-203200000D03*
G04 #@! TO.P,J331,5*
G04 #@! TO.N,SKT10N*
X205740000Y-198120000D03*
G04 #@! TO.P,J331,4*
G04 #@! TO.N,SKT10M*
X205740000Y-193040000D03*
G04 #@! TO.P,J331,3*
G04 #@! TO.N,SKT10L*
X205740000Y-187960000D03*
G04 #@! TO.P,J331,2*
G04 #@! TO.N,SKT10K*
X205740000Y-182880000D03*
D10*
G04 #@! TO.P,J331,1*
G04 #@! TO.N,SKT10J*
X205740000Y-177800000D03*
G04 #@! TD*
D11*
G04 #@! TO.P,J1,3*
G04 #@! TO.N,Neg6v*
X58910000Y-41250000D03*
G04 #@! TO.P,J1,2*
G04 #@! TO.N,6v*
X53830000Y-41250000D03*
D10*
G04 #@! TO.P,J1,1*
G04 #@! TO.N,GND*
X48750000Y-41250000D03*
G04 #@! TD*
D14*
G04 #@! TO.N,GND*
X86101800Y-134620000D03*
G04 #@! TO.N,6v*
X144029600Y-132080000D03*
G04 #@! TO.N,TZ1*
X104880200Y-126888500D03*
G04 #@! TO.N,t4-2*
X99952800Y-136548700D03*
G04 #@! TO.N,SZ1*
X104430400Y-121998200D03*
G04 #@! TO.N,SBTm*
X85371700Y-135820400D03*
G04 #@! TO.N,PC5-12=0*
X95599600Y-198536100D03*
G04 #@! TO.N,PC1-4=1*
X94851300Y-199259500D03*
G04 #@! TO.N,SKT11T*
X72087600Y-214776000D03*
G04 #@! TO.N,SKT10E*
X73591000Y-121195400D03*
G04 #@! TO.N,SKT10H*
X70819600Y-193120700D03*
G04 #@! TO.N,SKT10G*
X74015000Y-122207900D03*
G04 #@! TO.N,SKT10F*
X69954100Y-137095800D03*
G04 #@! TO.N,SKT10D*
X74147600Y-127487600D03*
G04 #@! TO.N,SKT10C*
X76325800Y-131289300D03*
G04 #@! TO.N,SKT10B*
X74768000Y-131292200D03*
G04 #@! TO.N,SKT10A*
X69543500Y-135720400D03*
G04 #@! TO.N,~P5*
X104545800Y-120555300D03*
G04 #@! TO.N,~P6*
X87610000Y-111651900D03*
G04 #@! TO.N,~P7*
X103820500Y-115476800D03*
G04 #@! TO.N,SKT1MM*
X101550900Y-207302500D03*
G04 #@! TO.N,SKT13J*
X109909100Y-98279800D03*
G04 #@! TO.N,SKT13G*
X109459800Y-100359700D03*
G04 #@! TO.N,SKT13N*
X107237100Y-102157100D03*
G04 #@! TO.N,SKT10~h*
X106511800Y-107343400D03*
G04 #@! TO.N,SKT10V*
X108971700Y-112376200D03*
G04 #@! TO.N,SKT1LL*
X100650300Y-193486100D03*
G04 #@! TO.N,SKT13R*
X93182100Y-174917500D03*
G04 #@! TO.N,SKT1NN*
X100153500Y-191492600D03*
G04 #@! TO.N,SKT1PP*
X108022000Y-128342000D03*
G04 #@! TO.N,SKT13L*
X100943400Y-142839700D03*
G04 #@! TO.N,SKT10W*
X99354000Y-174683800D03*
G04 #@! TO.N,SKT10~j*
X97869500Y-136566400D03*
G04 #@! TO.N,~A8*
X139008500Y-111760000D03*
G04 #@! TO.N,SKT10R*
X148061000Y-74181400D03*
G04 #@! TO.N,~A6*
X138179400Y-115522200D03*
G04 #@! TO.N,SKT10P*
X146260800Y-73438200D03*
G04 #@! TO.N,~A5*
X139285100Y-119380000D03*
G04 #@! TO.N,~A4*
X138699600Y-121339200D03*
G04 #@! TO.N,~A3*
X138253200Y-122399600D03*
G04 #@! TO.N,~A2*
X137912000Y-123440300D03*
G04 #@! TO.N,~A1*
X137754400Y-124463200D03*
G04 #@! TO.N,~A13*
X124961900Y-104663400D03*
G04 #@! TO.N,~P1*
X163396200Y-98868500D03*
G04 #@! TO.N,SKT4W*
X156348800Y-163219400D03*
G04 #@! TD*
D15*
G04 #@! TO.N,GND*
X86101800Y-66298200D02*
X86101800Y-134620000D01*
X96520000Y-55880000D02*
X86101800Y-66298200D01*
X68580000Y-55880000D02*
X75683600Y-55880000D01*
X75683600Y-55880000D02*
X86101800Y-66298200D01*
X48750000Y-41250000D02*
X48750000Y-45230000D01*
X48750000Y-45230000D02*
X38100000Y-55880000D01*
G04 #@! TO.N,Neg6v*
X157480000Y-58420000D02*
X148660000Y-49600000D01*
X148660000Y-49600000D02*
X148660000Y-41250000D01*
X58910000Y-57625000D02*
X38895000Y-57625000D01*
X38895000Y-57625000D02*
X38100000Y-58420000D01*
X66040000Y-58420000D02*
X65245000Y-57625000D01*
X65245000Y-57625000D02*
X58910000Y-57625000D01*
X58910000Y-41250000D02*
X58910000Y-57625000D01*
G04 #@! TO.N,6v*
X143580000Y-41250000D02*
X143580000Y-131630400D01*
X143580000Y-131630400D02*
X144029600Y-132080000D01*
D16*
G04 #@! TO.N,INT1*
X66040000Y-68580000D02*
X53893000Y-80727000D01*
X53893000Y-80727000D02*
X53893000Y-256933000D01*
X53893000Y-256933000D02*
X60960000Y-264000000D01*
G04 #@! TO.N,INT2*
X66040000Y-66040000D02*
X53442700Y-78637300D01*
X53442700Y-78637300D02*
X53442700Y-261482700D01*
X53442700Y-261482700D02*
X60960000Y-269000000D01*
G04 #@! TO.N,INT3*
X66040000Y-63500000D02*
X52992400Y-76547600D01*
X52992400Y-76547600D02*
X52992400Y-266032400D01*
X52992400Y-266032400D02*
X60960000Y-274000000D01*
G04 #@! TO.N,TZ1*
X106680000Y-269000000D02*
X103627200Y-265947200D01*
X103627200Y-265947200D02*
X103627200Y-146970700D01*
X103627200Y-146970700D02*
X104880200Y-145717700D01*
X104880200Y-145717700D02*
X104880200Y-126888500D01*
G04 #@! TO.N,t4-2*
X99060000Y-109220000D02*
X97875900Y-110404100D01*
X97875900Y-110404100D02*
X97875900Y-127574100D01*
X97875900Y-127574100D02*
X98477200Y-128175400D01*
X98477200Y-128175400D02*
X99360900Y-128175400D01*
X99360900Y-128175400D02*
X100236900Y-129051400D01*
X100236900Y-129051400D02*
X100236900Y-136264600D01*
X100236900Y-136264600D02*
X99952800Y-136548700D01*
G04 #@! TO.N,SZ1*
X106680000Y-274000000D02*
X103176900Y-270496900D01*
X103176900Y-270496900D02*
X103176900Y-146784100D01*
X103176900Y-146784100D02*
X104370600Y-145590400D01*
X104370600Y-145590400D02*
X104370600Y-127404600D01*
X104370600Y-127404600D02*
X104154900Y-127188900D01*
X104154900Y-127188900D02*
X104154900Y-122273700D01*
X104154900Y-122273700D02*
X104430400Y-121998200D01*
G04 #@! TO.N,SBTm*
X38100000Y-63500000D02*
X39290600Y-62309400D01*
X39290600Y-62309400D02*
X69117900Y-62309400D01*
X69117900Y-62309400D02*
X85371700Y-78563200D01*
X85371700Y-78563200D02*
X85371700Y-135820400D01*
G04 #@! TO.N,PC5-12=0*
X96520000Y-119380000D02*
X95322800Y-120577200D01*
X95322800Y-120577200D02*
X95322800Y-198259300D01*
X95322800Y-198259300D02*
X95599600Y-198536100D01*
G04 #@! TO.N,PC1-4=1*
X96520000Y-116840000D02*
X94851300Y-118508700D01*
X94851300Y-118508700D02*
X94851300Y-199259500D01*
G04 #@! TO.N,SKT4HH*
X45720000Y-264000000D02*
X32317800Y-250597800D01*
X32317800Y-250597800D02*
X32317800Y-233146900D01*
X32317800Y-233146900D02*
X26145700Y-226974800D01*
X26145700Y-226974800D02*
X26145700Y-99187900D01*
X26145700Y-99187900D02*
X35258200Y-90075400D01*
X35258200Y-90075400D02*
X36142400Y-90075400D01*
X36142400Y-90075400D02*
X36830000Y-89387800D01*
X36830000Y-89387800D02*
X36830000Y-72390000D01*
X36830000Y-72390000D02*
X38100000Y-71120000D01*
G04 #@! TO.N,IP18*
X35560000Y-71120000D02*
X24794800Y-81885200D01*
X24794800Y-81885200D02*
X24794800Y-258314800D01*
X24794800Y-258314800D02*
X30480000Y-264000000D01*
G04 #@! TO.N,SKT4GG*
X45720000Y-259000000D02*
X52317900Y-252402100D01*
X52317900Y-252402100D02*
X52317900Y-87877900D01*
X52317900Y-87877900D02*
X38100000Y-73660000D01*
G04 #@! TO.N,IP17*
X35560000Y-73660000D02*
X25245100Y-83974900D01*
X25245100Y-83974900D02*
X25245100Y-253765100D01*
X25245100Y-253765100D02*
X30480000Y-259000000D01*
G04 #@! TO.N,SKT4EE*
X38100000Y-88900000D02*
X51866900Y-102666900D01*
X51866900Y-102666900D02*
X51866900Y-242773100D01*
X51866900Y-242773100D02*
X45720000Y-248920000D01*
G04 #@! TO.N,IP15*
X35560000Y-88900000D02*
X25695400Y-98764600D01*
X25695400Y-98764600D02*
X25695400Y-244135400D01*
X25695400Y-244135400D02*
X30480000Y-248920000D01*
G04 #@! TO.N,SKT4DD*
X38100000Y-91440000D02*
X51416600Y-104756600D01*
X51416600Y-104756600D02*
X51416600Y-238143400D01*
X51416600Y-238143400D02*
X45720000Y-243840000D01*
G04 #@! TO.N,SKT4BB*
X38100000Y-96520000D02*
X50966300Y-109386300D01*
X50966300Y-109386300D02*
X50966300Y-228433700D01*
X50966300Y-228433700D02*
X45720000Y-233680000D01*
G04 #@! TO.N,SKT4AA*
X45720000Y-228600000D02*
X32828400Y-215708400D01*
X32828400Y-215708400D02*
X32828400Y-198089100D01*
X32828400Y-198089100D02*
X28397300Y-193658000D01*
X28397300Y-193658000D02*
X28397300Y-127416300D01*
X28397300Y-127416300D02*
X35258200Y-120555400D01*
X35258200Y-120555400D02*
X36142400Y-120555400D01*
X36142400Y-120555400D02*
X36830000Y-119867800D01*
X36830000Y-119867800D02*
X36830000Y-100330000D01*
X36830000Y-100330000D02*
X38100000Y-99060000D01*
G04 #@! TO.N,IP11*
X35560000Y-99060000D02*
X26596000Y-108024000D01*
X26596000Y-108024000D02*
X26596000Y-224716000D01*
X26596000Y-224716000D02*
X30480000Y-228600000D01*
G04 #@! TO.N,SKT4~z*
X38100000Y-101600000D02*
X50516000Y-114016000D01*
X50516000Y-114016000D02*
X50516000Y-218724000D01*
X50516000Y-218724000D02*
X45720000Y-223520000D01*
G04 #@! TO.N,SKT4~y*
X38100000Y-109220000D02*
X50065700Y-121185700D01*
X50065700Y-121185700D02*
X50065700Y-214094300D01*
X50065700Y-214094300D02*
X45720000Y-218440000D01*
G04 #@! TO.N,IP9*
X35560000Y-109220000D02*
X27046300Y-117733700D01*
X27046300Y-117733700D02*
X27046300Y-215006300D01*
X27046300Y-215006300D02*
X30480000Y-218440000D01*
G04 #@! TO.N,SKT4~x*
X38100000Y-111760000D02*
X49615400Y-123275400D01*
X49615400Y-123275400D02*
X49615400Y-209464600D01*
X49615400Y-209464600D02*
X45720000Y-213360000D01*
G04 #@! TO.N,SKT4~w*
X45720000Y-208280000D02*
X49165100Y-204834900D01*
X49165100Y-204834900D02*
X49165100Y-125365100D01*
X49165100Y-125365100D02*
X38100000Y-114300000D01*
G04 #@! TO.N,IP7*
X35560000Y-114300000D02*
X27496600Y-122363400D01*
X27496600Y-122363400D02*
X27496600Y-205296600D01*
X27496600Y-205296600D02*
X30480000Y-208280000D01*
G04 #@! TO.N,SKT4~v*
X38100000Y-116840000D02*
X48714800Y-127454800D01*
X48714800Y-127454800D02*
X48714800Y-200205200D01*
X48714800Y-200205200D02*
X45720000Y-203200000D01*
G04 #@! TO.N,SKT4~u*
X38100000Y-119380000D02*
X48264500Y-129544500D01*
X48264500Y-129544500D02*
X48264500Y-195575500D01*
X48264500Y-195575500D02*
X45720000Y-198120000D01*
G04 #@! TO.N,IP5*
X35560000Y-119380000D02*
X27946900Y-126993100D01*
X27946900Y-126993100D02*
X27946900Y-195586900D01*
X27946900Y-195586900D02*
X30480000Y-198120000D01*
G04 #@! TO.N,SKT4~t*
X45720000Y-193040000D02*
X42570500Y-189890500D01*
X42570500Y-189890500D02*
X42570500Y-141529700D01*
X42570500Y-141529700D02*
X36900500Y-135859700D01*
X36900500Y-135859700D02*
X36900500Y-123119500D01*
X36900500Y-123119500D02*
X38100000Y-121920000D01*
G04 #@! TO.N,SKT4~s*
X45720000Y-187960000D02*
X47814100Y-185865900D01*
X47814100Y-185865900D02*
X47814100Y-134174100D01*
X47814100Y-134174100D02*
X38100000Y-124460000D01*
G04 #@! TO.N,IP3*
X30480000Y-187960000D02*
X28854600Y-186334600D01*
X28854600Y-186334600D02*
X28854600Y-131165400D01*
X28854600Y-131165400D02*
X35560000Y-124460000D01*
G04 #@! TO.N,SKT4~r*
X45720000Y-182880000D02*
X47345400Y-181254600D01*
X47345400Y-181254600D02*
X47345400Y-136245400D01*
X47345400Y-136245400D02*
X38100000Y-127000000D01*
G04 #@! TO.N,SKT4~q*
X45720000Y-177800000D02*
X45720000Y-137160000D01*
X45720000Y-137160000D02*
X38100000Y-129540000D01*
G04 #@! TO.N,IP1*
X30480000Y-177800000D02*
X30480000Y-134620000D01*
X30480000Y-134620000D02*
X35560000Y-129540000D01*
G04 #@! TO.N,SKT13E*
X76200000Y-274000000D02*
X82811700Y-267388300D01*
X82811700Y-267388300D02*
X82811700Y-77731700D01*
X82811700Y-77731700D02*
X68580000Y-63500000D01*
G04 #@! TO.N,SKT13C*
X68580000Y-66040000D02*
X82360500Y-79820500D01*
X82360500Y-79820500D02*
X82360500Y-262839500D01*
X82360500Y-262839500D02*
X76200000Y-269000000D01*
G04 #@! TO.N,SKT13A*
X76200000Y-264000000D02*
X81910200Y-258289800D01*
X81910200Y-258289800D02*
X81910200Y-81910200D01*
X81910200Y-81910200D02*
X68580000Y-68580000D01*
G04 #@! TO.N,SKT14~x*
X76200000Y-259000000D02*
X81459900Y-253740100D01*
X81459900Y-253740100D02*
X81459900Y-91619900D01*
X81459900Y-91619900D02*
X68580000Y-78740000D01*
G04 #@! TO.N,~WGS~x*
X66040000Y-78740000D02*
X54343300Y-90436700D01*
X54343300Y-90436700D02*
X54343300Y-252383300D01*
X54343300Y-252383300D02*
X60960000Y-259000000D01*
G04 #@! TO.N,SKT14~z*
X76200000Y-254000000D02*
X81009600Y-249190400D01*
X81009600Y-249190400D02*
X81009600Y-93709600D01*
X81009600Y-93709600D02*
X68580000Y-81280000D01*
G04 #@! TO.N,~RGS~x*
X60960000Y-254000000D02*
X60960000Y-251620900D01*
X60960000Y-251620900D02*
X79208400Y-233372500D01*
X79208400Y-233372500D02*
X79208400Y-108022000D01*
X79208400Y-108022000D02*
X68976400Y-97790000D01*
X68976400Y-97790000D02*
X68075600Y-97790000D01*
X68075600Y-97790000D02*
X67310000Y-97024400D01*
X67310000Y-97024400D02*
X67310000Y-85090000D01*
X67310000Y-85090000D02*
X66040000Y-83820000D01*
G04 #@! TO.N,W15*
X66040000Y-86360000D02*
X54793600Y-97606400D01*
X54793600Y-97606400D02*
X54793600Y-242753600D01*
X54793600Y-242753600D02*
X60960000Y-248920000D01*
G04 #@! TO.N,SKT11S*
X76200000Y-248920000D02*
X80559300Y-244560700D01*
X80559300Y-244560700D02*
X80559300Y-103419300D01*
X80559300Y-103419300D02*
X68580000Y-91440000D01*
G04 #@! TO.N,SKT11C*
X76200000Y-243840000D02*
X80109000Y-239931000D01*
X80109000Y-239931000D02*
X80109000Y-105509000D01*
X80109000Y-105509000D02*
X68580000Y-93980000D01*
G04 #@! TO.N,W4*
X66040000Y-93980000D02*
X55243900Y-104776100D01*
X55243900Y-104776100D02*
X55243900Y-238123900D01*
X55243900Y-238123900D02*
X60960000Y-243840000D01*
G04 #@! TO.N,SKT11D*
X76200000Y-238760000D02*
X79658700Y-235301300D01*
X79658700Y-235301300D02*
X79658700Y-107598700D01*
X79658700Y-107598700D02*
X68580000Y-96520000D01*
G04 #@! TO.N,W3*
X66040000Y-96520000D02*
X67404600Y-97884600D01*
X67404600Y-97884600D02*
X67404600Y-102189100D01*
X67404600Y-102189100D02*
X68085500Y-102870000D01*
X68085500Y-102870000D02*
X68976100Y-102870000D01*
X68976100Y-102870000D02*
X72520400Y-106414300D01*
X72520400Y-106414300D02*
X72520400Y-190936700D01*
X72520400Y-190936700D02*
X73420200Y-191836500D01*
X73420200Y-191836500D02*
X73420200Y-203651200D01*
X73420200Y-203651200D02*
X73870400Y-204101400D01*
X73870400Y-204101400D02*
X73870400Y-218811200D01*
X73870400Y-218811200D02*
X77843600Y-222784400D01*
X77843600Y-222784400D02*
X77843600Y-224214000D01*
X77843600Y-224214000D02*
X63297600Y-238760000D01*
X63297600Y-238760000D02*
X60960000Y-238760000D01*
G04 #@! TO.N,SKT11E*
X76200000Y-233680000D02*
X78758100Y-231121900D01*
X78758100Y-231121900D02*
X78758100Y-109238100D01*
X78758100Y-109238100D02*
X68580000Y-99060000D01*
G04 #@! TO.N,W2*
X66040000Y-99060000D02*
X55694200Y-109405800D01*
X55694200Y-109405800D02*
X55694200Y-228414200D01*
X55694200Y-228414200D02*
X60960000Y-233680000D01*
G04 #@! TO.N,SKT11V*
X76200000Y-228600000D02*
X78307700Y-226492300D01*
X78307700Y-226492300D02*
X78307700Y-111327700D01*
X78307700Y-111327700D02*
X68580000Y-101600000D01*
G04 #@! TO.N,W18*
X66040000Y-101600000D02*
X67310000Y-102870000D01*
X67310000Y-102870000D02*
X67310000Y-104536400D01*
X67310000Y-104536400D02*
X68183600Y-105410000D01*
X68183600Y-105410000D02*
X68981900Y-105410000D01*
X68981900Y-105410000D02*
X71619800Y-108047900D01*
X71619800Y-108047900D02*
X71619800Y-191621300D01*
X71619800Y-191621300D02*
X72519500Y-192521000D01*
X72519500Y-192521000D02*
X72519500Y-204024400D01*
X72519500Y-204024400D02*
X72832600Y-204337500D01*
X72832600Y-204337500D02*
X72832600Y-216727400D01*
X72832600Y-216727400D02*
X60960000Y-228600000D01*
G04 #@! TO.N,SKT11R*
X68580000Y-104140000D02*
X72070100Y-107630100D01*
X72070100Y-107630100D02*
X72070100Y-191123400D01*
X72070100Y-191123400D02*
X72969800Y-192023100D01*
X72969800Y-192023100D02*
X72969800Y-203837800D01*
X72969800Y-203837800D02*
X73420000Y-204288000D01*
X73420000Y-204288000D02*
X73420000Y-220740000D01*
X73420000Y-220740000D02*
X76200000Y-223520000D01*
G04 #@! TO.N,W14*
X60960000Y-223520000D02*
X66358500Y-218121500D01*
X66358500Y-218121500D02*
X66358500Y-137344400D01*
X66358500Y-137344400D02*
X67217200Y-136485700D01*
X67217200Y-136485700D02*
X67217200Y-105317200D01*
X67217200Y-105317200D02*
X66040000Y-104140000D01*
G04 #@! TO.N,SKT11T*
X68580000Y-106680000D02*
X71169500Y-109269500D01*
X71169500Y-109269500D02*
X71169500Y-191807900D01*
X71169500Y-191807900D02*
X72069200Y-192707600D01*
X72069200Y-192707600D02*
X72069200Y-214757600D01*
X72069200Y-214757600D02*
X72087600Y-214776000D01*
G04 #@! TO.N,W16*
X66040000Y-106680000D02*
X56144500Y-116575500D01*
X56144500Y-116575500D02*
X56144500Y-213624500D01*
X56144500Y-213624500D02*
X60960000Y-218440000D01*
G04 #@! TO.N,SKT10E*
X73591000Y-121195400D02*
X72970700Y-121815700D01*
X72970700Y-121815700D02*
X72970700Y-190525200D01*
X72970700Y-190525200D02*
X74095500Y-191650000D01*
X74095500Y-191650000D02*
X74095500Y-203464700D01*
X74095500Y-203464700D02*
X74349500Y-203718700D01*
X74349500Y-203718700D02*
X74349500Y-211509500D01*
X74349500Y-211509500D02*
X76200000Y-213360000D01*
G04 #@! TO.N,IP5'*
X60960000Y-213360000D02*
X56594900Y-208994900D01*
X56594900Y-208994900D02*
X56594900Y-121205100D01*
X56594900Y-121205100D02*
X66040000Y-111760000D01*
G04 #@! TO.N,SKT10H*
X68580000Y-114300000D02*
X70719200Y-116439200D01*
X70719200Y-116439200D02*
X70719200Y-193020300D01*
X70719200Y-193020300D02*
X70819600Y-193120700D01*
G04 #@! TO.N,IP8'*
X60960000Y-208280000D02*
X57045500Y-204365500D01*
X57045500Y-204365500D02*
X57045500Y-123294500D01*
X57045500Y-123294500D02*
X66040000Y-114300000D01*
G04 #@! TO.N,SKT10G*
X74015000Y-122207900D02*
X73421000Y-122801900D01*
X73421000Y-122801900D02*
X73421000Y-189802000D01*
X73421000Y-189802000D02*
X74574600Y-190955600D01*
X74574600Y-190955600D02*
X74574600Y-201574600D01*
X74574600Y-201574600D02*
X76200000Y-203200000D01*
G04 #@! TO.N,IP7'*
X60960000Y-203200000D02*
X57495800Y-199735800D01*
X57495800Y-199735800D02*
X57495800Y-125384200D01*
X57495800Y-125384200D02*
X66040000Y-116840000D01*
G04 #@! TO.N,SKT10F*
X68580000Y-119380000D02*
X70268900Y-121068900D01*
X70268900Y-121068900D02*
X70268900Y-136781000D01*
X70268900Y-136781000D02*
X69954100Y-137095800D01*
G04 #@! TO.N,IP6'*
X60960000Y-198120000D02*
X57946100Y-195106100D01*
X57946100Y-195106100D02*
X57946100Y-127473900D01*
X57946100Y-127473900D02*
X66040000Y-119380000D01*
G04 #@! TO.N,SKT10D*
X76200000Y-193040000D02*
X76200000Y-190258500D01*
X76200000Y-190258500D02*
X74037000Y-188095500D01*
X74037000Y-188095500D02*
X74037000Y-127598200D01*
X74037000Y-127598200D02*
X74147600Y-127487600D01*
G04 #@! TO.N,IP4'*
X60960000Y-193040000D02*
X58396500Y-190476500D01*
X58396500Y-190476500D02*
X58396500Y-129563500D01*
X58396500Y-129563500D02*
X66040000Y-121920000D01*
G04 #@! TO.N,SKT10C*
X76200000Y-187960000D02*
X77825400Y-186334600D01*
X77825400Y-186334600D02*
X77825400Y-132788900D01*
X77825400Y-132788900D02*
X76325800Y-131289300D01*
G04 #@! TO.N,IP3'*
X60960000Y-187960000D02*
X58876400Y-185876400D01*
X58876400Y-185876400D02*
X58876400Y-131623600D01*
X58876400Y-131623600D02*
X66040000Y-124460000D01*
G04 #@! TO.N,SKT10B*
X76200000Y-182880000D02*
X74535600Y-181215600D01*
X74535600Y-181215600D02*
X74535600Y-131524600D01*
X74535600Y-131524600D02*
X74768000Y-131292200D01*
G04 #@! TO.N,IP2'*
X60960000Y-182880000D02*
X59334600Y-181254600D01*
X59334600Y-181254600D02*
X59334600Y-133705400D01*
X59334600Y-133705400D02*
X66040000Y-127000000D01*
G04 #@! TO.N,SKT10A*
X68580000Y-129540000D02*
X69758500Y-130718500D01*
X69758500Y-130718500D02*
X69758500Y-135505400D01*
X69758500Y-135505400D02*
X69543500Y-135720400D01*
G04 #@! TO.N,IP1'*
X60960000Y-177800000D02*
X60960000Y-134620000D01*
X60960000Y-134620000D02*
X66040000Y-129540000D01*
G04 #@! TO.N,TRD*
X106680000Y-254000000D02*
X110643900Y-250036100D01*
X110643900Y-250036100D02*
X110643900Y-78484500D01*
X110643900Y-78484500D02*
X99469400Y-67310000D01*
X99469400Y-67310000D02*
X98663600Y-67310000D01*
X98663600Y-67310000D02*
X97790000Y-66436400D01*
X97790000Y-66436400D02*
X97790000Y-64770000D01*
X97790000Y-64770000D02*
X96520000Y-63500000D01*
G04 #@! TO.N,~Z2*
X106680000Y-259000000D02*
X104528400Y-256848400D01*
X104528400Y-256848400D02*
X104528400Y-148617100D01*
X104528400Y-148617100D02*
X106055900Y-147089600D01*
X106055900Y-147089600D02*
X106055900Y-109281400D01*
X106055900Y-109281400D02*
X105786400Y-109011900D01*
X105786400Y-109011900D02*
X105786400Y-76180700D01*
X105786400Y-76180700D02*
X99361100Y-69755400D01*
X99361100Y-69755400D02*
X98570600Y-69755400D01*
X98570600Y-69755400D02*
X97884600Y-69069400D01*
X97884600Y-69069400D02*
X97884600Y-67404600D01*
X97884600Y-67404600D02*
X96520000Y-66040000D01*
G04 #@! TO.N,IIS(TR)*
X96520000Y-71120000D02*
X97790000Y-72390000D01*
X97790000Y-72390000D02*
X99453100Y-72390000D01*
X99453100Y-72390000D02*
X105272400Y-78209300D01*
X105272400Y-78209300D02*
X105272400Y-121032400D01*
X105272400Y-121032400D02*
X105605600Y-121365600D01*
X105605600Y-121365600D02*
X105605600Y-145629200D01*
X105605600Y-145629200D02*
X104078000Y-147156800D01*
X104078000Y-147156800D02*
X104078000Y-261398000D01*
X104078000Y-261398000D02*
X106680000Y-264000000D01*
G04 #@! TO.N,~P5*
X99060000Y-73660000D02*
X104545800Y-79145800D01*
X104545800Y-79145800D02*
X104545800Y-120555300D01*
X104545800Y-120555300D02*
X103704600Y-121396500D01*
X103704600Y-121396500D02*
X103704600Y-127375500D01*
X103704600Y-127375500D02*
X103920300Y-127591200D01*
X103920300Y-127591200D02*
X103920300Y-144766900D01*
X103920300Y-144766900D02*
X102726600Y-145960600D01*
X102726600Y-145960600D02*
X102726600Y-217313400D01*
X102726600Y-217313400D02*
X91440000Y-228600000D01*
G04 #@! TO.N,~P6*
X96520000Y-76200000D02*
X87610000Y-85110000D01*
X87610000Y-85110000D02*
X87610000Y-111651900D01*
X87610000Y-111651900D02*
X87524800Y-111737100D01*
X87524800Y-111737100D02*
X87524800Y-219604800D01*
X87524800Y-219604800D02*
X91440000Y-223520000D01*
G04 #@! TO.N,~P7*
X103820500Y-115476800D02*
X103254300Y-116043000D01*
X103254300Y-116043000D02*
X103254300Y-127562100D01*
X103254300Y-127562100D02*
X103470000Y-127777800D01*
X103470000Y-127777800D02*
X103470000Y-144580300D01*
X103470000Y-144580300D02*
X102276300Y-145774000D01*
X102276300Y-145774000D02*
X102276300Y-207603700D01*
X102276300Y-207603700D02*
X91440000Y-218440000D01*
X99060000Y-78740000D02*
X103820500Y-83500500D01*
X103820500Y-83500500D02*
X103820500Y-115476800D01*
G04 #@! TO.N,SKT1MM*
X99060000Y-81280000D02*
X102804000Y-85024000D01*
X102804000Y-85024000D02*
X102804000Y-127748700D01*
X102804000Y-127748700D02*
X103019700Y-127964400D01*
X103019700Y-127964400D02*
X103019700Y-144393700D01*
X103019700Y-144393700D02*
X101826000Y-145587400D01*
X101826000Y-145587400D02*
X101826000Y-207027400D01*
X101826000Y-207027400D02*
X101550900Y-207302500D01*
G04 #@! TO.N,~P8*
X91440000Y-213360000D02*
X87996900Y-209916900D01*
X87996900Y-209916900D02*
X87996900Y-112290800D01*
X87996900Y-112290800D02*
X88335300Y-111952400D01*
X88335300Y-111952400D02*
X88335300Y-89464700D01*
X88335300Y-89464700D02*
X96520000Y-81280000D01*
G04 #@! TO.N,~P9*
X91440000Y-208280000D02*
X88447300Y-205287300D01*
X88447300Y-205287300D02*
X88447300Y-112477300D01*
X88447300Y-112477300D02*
X88785600Y-112139000D01*
X88785600Y-112139000D02*
X88785600Y-94926000D01*
X88785600Y-94926000D02*
X96176200Y-87535400D01*
X96176200Y-87535400D02*
X97045600Y-87535400D01*
X97045600Y-87535400D02*
X97790000Y-86791000D01*
X97790000Y-86791000D02*
X97790000Y-85090000D01*
X97790000Y-85090000D02*
X99060000Y-83820000D01*
G04 #@! TO.N,SKT13J*
X106680000Y-238760000D02*
X110193500Y-235246500D01*
X110193500Y-235246500D02*
X110193500Y-98564200D01*
X110193500Y-98564200D02*
X109909100Y-98279800D01*
G04 #@! TO.N,~P10*
X99060000Y-86360000D02*
X102353700Y-89653700D01*
X102353700Y-89653700D02*
X102353700Y-127935300D01*
X102353700Y-127935300D02*
X102569400Y-128151000D01*
X102569400Y-128151000D02*
X102569400Y-144207100D01*
X102569400Y-144207100D02*
X101375700Y-145400800D01*
X101375700Y-145400800D02*
X101375700Y-193790800D01*
X101375700Y-193790800D02*
X91966500Y-203200000D01*
X91966500Y-203200000D02*
X91440000Y-203200000D01*
G04 #@! TO.N,SKT13G*
X106680000Y-233680000D02*
X109703000Y-230657000D01*
X109703000Y-230657000D02*
X109703000Y-100602900D01*
X109703000Y-100602900D02*
X109459800Y-100359700D01*
G04 #@! TO.N,~P11*
X91440000Y-198120000D02*
X88903900Y-195583900D01*
X88903900Y-195583900D02*
X88903900Y-112657600D01*
X88903900Y-112657600D02*
X89235900Y-112325600D01*
X89235900Y-112325600D02*
X89235900Y-97034800D01*
X89235900Y-97034800D02*
X96100700Y-90170000D01*
X96100700Y-90170000D02*
X97790000Y-90170000D01*
X97790000Y-90170000D02*
X99060000Y-88900000D01*
G04 #@! TO.N,P12*
X91440000Y-182880000D02*
X89814600Y-181254600D01*
X89814600Y-181254600D02*
X89814600Y-120112900D01*
X89814600Y-120112900D02*
X91214900Y-118712600D01*
X91214900Y-118712600D02*
X91214900Y-100149600D01*
X91214900Y-100149600D02*
X96209100Y-95155400D01*
X96209100Y-95155400D02*
X97045600Y-95155400D01*
X97045600Y-95155400D02*
X97790000Y-94411000D01*
X97790000Y-94411000D02*
X97790000Y-92710000D01*
X97790000Y-92710000D02*
X99060000Y-91440000D01*
G04 #@! TO.N,~P13*
X91440000Y-187960000D02*
X89354300Y-185874300D01*
X89354300Y-185874300D02*
X89354300Y-112844100D01*
X89354300Y-112844100D02*
X89686200Y-112512200D01*
X89686200Y-112512200D02*
X89686200Y-98273800D01*
X89686200Y-98273800D02*
X96520000Y-91440000D01*
G04 #@! TO.N,SKT13N*
X106680000Y-208280000D02*
X108755600Y-206204400D01*
X108755600Y-206204400D02*
X108755600Y-115247600D01*
X108755600Y-115247600D02*
X107237100Y-113729100D01*
X107237100Y-113729100D02*
X107237100Y-102157100D01*
G04 #@! TO.N,~P12*
X91440000Y-193040000D02*
X93925200Y-190554800D01*
X93925200Y-190554800D02*
X93925200Y-107608400D01*
X93925200Y-107608400D02*
X96218200Y-105315400D01*
X96218200Y-105315400D02*
X97045600Y-105315400D01*
X97045600Y-105315400D02*
X97790000Y-104571000D01*
X97790000Y-104571000D02*
X97790000Y-103743600D01*
X97790000Y-103743600D02*
X98663600Y-102870000D01*
X98663600Y-102870000D02*
X99547800Y-102870000D01*
X99547800Y-102870000D02*
X100260200Y-102157600D01*
X100260200Y-102157600D02*
X100260200Y-97720200D01*
X100260200Y-97720200D02*
X99060000Y-96520000D01*
G04 #@! TO.N,SKT10~h*
X106680000Y-228600000D02*
X105020600Y-226940600D01*
X105020600Y-226940600D02*
X105020600Y-148761800D01*
X105020600Y-148761800D02*
X106511800Y-147270600D01*
X106511800Y-147270600D02*
X106511800Y-107343400D01*
G04 #@! TO.N,P13*
X91440000Y-176174700D02*
X91890300Y-175724400D01*
X91890300Y-175724400D02*
X91890300Y-107105100D01*
X91890300Y-107105100D02*
X96125400Y-102870000D01*
X96125400Y-102870000D02*
X97790000Y-102870000D01*
X97790000Y-102870000D02*
X99060000Y-101600000D01*
X91440000Y-177800000D02*
X91440000Y-176174700D01*
G04 #@! TO.N,SKT10V*
X106680000Y-223520000D02*
X109205900Y-220994100D01*
X109205900Y-220994100D02*
X109205900Y-112610400D01*
X109205900Y-112610400D02*
X108971700Y-112376200D01*
G04 #@! TO.N,SKT1LL*
X99060000Y-104140000D02*
X101903400Y-106983400D01*
X101903400Y-106983400D02*
X101903400Y-128121900D01*
X101903400Y-128121900D02*
X102119100Y-128337600D01*
X102119100Y-128337600D02*
X102119100Y-144020500D01*
X102119100Y-144020500D02*
X100925400Y-145214200D01*
X100925400Y-145214200D02*
X100925400Y-193211000D01*
X100925400Y-193211000D02*
X100650300Y-193486100D01*
G04 #@! TO.N,SKT13R*
X96520000Y-104140000D02*
X93182100Y-107477900D01*
X93182100Y-107477900D02*
X93182100Y-174917500D01*
G04 #@! TO.N,SKT1NN*
X99060000Y-111760000D02*
X101453100Y-114153100D01*
X101453100Y-114153100D02*
X101453100Y-128308500D01*
X101453100Y-128308500D02*
X101668800Y-128524200D01*
X101668800Y-128524200D02*
X101668800Y-143808100D01*
X101668800Y-143808100D02*
X100153500Y-145323400D01*
X100153500Y-145323400D02*
X100153500Y-191492600D01*
G04 #@! TO.N,MARGIN*
X91440000Y-274000000D02*
X89777600Y-272337600D01*
X89777600Y-272337600D02*
X89777600Y-227883300D01*
X89777600Y-227883300D02*
X93065400Y-224595500D01*
X93065400Y-224595500D02*
X93065400Y-222676200D01*
X93065400Y-222676200D02*
X89797000Y-219407800D01*
X89797000Y-219407800D02*
X89797000Y-217744200D01*
X89797000Y-217744200D02*
X93065400Y-214475800D01*
X93065400Y-214475800D02*
X93065400Y-207526200D01*
X93065400Y-207526200D02*
X89768500Y-204229300D01*
X89768500Y-204229300D02*
X89768500Y-202530200D01*
X89768500Y-202530200D02*
X94375500Y-197923200D01*
X94375500Y-197923200D02*
X94375500Y-113904500D01*
X94375500Y-113904500D02*
X96520000Y-111760000D01*
G04 #@! TO.N,~RESET~2*
X167640000Y-203200000D02*
X171537900Y-199302100D01*
X171537900Y-199302100D02*
X171537900Y-108037900D01*
X171537900Y-108037900D02*
X160020000Y-96520000D01*
G04 #@! TO.N,SKT1PP*
X106680000Y-193040000D02*
X106680000Y-190258500D01*
X106680000Y-190258500D02*
X106680100Y-190258500D01*
X106680100Y-190258500D02*
X108305300Y-188633300D01*
X108305300Y-188633300D02*
X108305300Y-128625300D01*
X108305300Y-128625300D02*
X108022000Y-128342000D01*
G04 #@! TO.N,SKT13L*
X99060000Y-124460000D02*
X101002800Y-126402800D01*
X101002800Y-126402800D02*
X101002800Y-128495100D01*
X101002800Y-128495100D02*
X101137500Y-128629800D01*
X101137500Y-128629800D02*
X101137500Y-142645600D01*
X101137500Y-142645600D02*
X100943400Y-142839700D01*
G04 #@! TO.N,SKT10W*
X99060000Y-127000000D02*
X99060000Y-127189200D01*
X99060000Y-127189200D02*
X100687200Y-128816400D01*
X100687200Y-128816400D02*
X100687200Y-142070200D01*
X100687200Y-142070200D02*
X99354000Y-143403400D01*
X99354000Y-143403400D02*
X99354000Y-174683800D01*
G04 #@! TO.N,SKT10~j*
X99060000Y-129540000D02*
X97869500Y-130730500D01*
X97869500Y-130730500D02*
X97869500Y-136566400D01*
G04 #@! TO.N,~A8*
X129540000Y-66040000D02*
X139008500Y-75508500D01*
X139008500Y-75508500D02*
X139008500Y-111760000D01*
X137160000Y-213360000D02*
X140596000Y-209924000D01*
X140596000Y-209924000D02*
X140596000Y-137248900D01*
X140596000Y-137248900D02*
X136731600Y-133384500D01*
X136731600Y-133384500D02*
X136731600Y-130198500D01*
X136731600Y-130198500D02*
X133229000Y-126695900D01*
X133229000Y-126695900D02*
X133228900Y-126695900D01*
X133228900Y-126695900D02*
X132683600Y-126150600D01*
X132683600Y-126150600D02*
X132683600Y-124861900D01*
X132683600Y-124861900D02*
X132532100Y-124710400D01*
X132532100Y-124710400D02*
X132532100Y-119817200D01*
X132532100Y-119817200D02*
X131149900Y-118435000D01*
X131149900Y-118435000D02*
X131149900Y-113369900D01*
X131149900Y-113369900D02*
X129540000Y-111760000D01*
G04 #@! TO.N,~A7*
X129540000Y-114300000D02*
X128349400Y-113109400D01*
X128349400Y-113109400D02*
X128349400Y-69770600D01*
X128349400Y-69770600D02*
X129540000Y-68580000D01*
X137160000Y-208280000D02*
X126782400Y-197902400D01*
X126782400Y-197902400D02*
X126782400Y-185366800D01*
X126782400Y-185366800D02*
X120914700Y-179499100D01*
X120914700Y-179499100D02*
X120527100Y-179499100D01*
X120527100Y-179499100D02*
X120294600Y-179266600D01*
X120294600Y-179266600D02*
X120294600Y-134579000D01*
X120294600Y-134579000D02*
X126603600Y-128270000D01*
X126603600Y-128270000D02*
X127392200Y-128270000D01*
X127392200Y-128270000D02*
X128349400Y-127312800D01*
X128349400Y-127312800D02*
X128349400Y-115490600D01*
X128349400Y-115490600D02*
X129540000Y-114300000D01*
G04 #@! TO.N,SKT10R*
X205740000Y-208280000D02*
X172438500Y-174978500D01*
X172438500Y-174978500D02*
X172438500Y-94508200D01*
X172438500Y-94508200D02*
X160480300Y-82550000D01*
X160480300Y-82550000D02*
X156429600Y-82550000D01*
X156429600Y-82550000D02*
X148061000Y-74181400D01*
G04 #@! TO.N,~A6*
X129540000Y-71120000D02*
X138179400Y-79759400D01*
X138179400Y-79759400D02*
X138179400Y-115522200D01*
X129540000Y-116840000D02*
X129540000Y-117462000D01*
X129540000Y-117462000D02*
X132081800Y-120003800D01*
X132081800Y-120003800D02*
X132081800Y-124897000D01*
X132081800Y-124897000D02*
X132233300Y-125048500D01*
X132233300Y-125048500D02*
X132233300Y-126337200D01*
X132233300Y-126337200D02*
X136281200Y-130385100D01*
X136281200Y-130385100D02*
X136281300Y-130385100D01*
X136281300Y-130385100D02*
X136281300Y-133571100D01*
X136281300Y-133571100D02*
X140145700Y-137435500D01*
X140145700Y-137435500D02*
X140145700Y-200214300D01*
X140145700Y-200214300D02*
X137160000Y-203200000D01*
G04 #@! TO.N,SKT10P*
X205740000Y-203200000D02*
X174319600Y-171779600D01*
X174319600Y-171779600D02*
X174319600Y-93864800D01*
X174319600Y-93864800D02*
X160464800Y-80010000D01*
X160464800Y-80010000D02*
X155029800Y-80010000D01*
X155029800Y-80010000D02*
X148458000Y-73438200D01*
X148458000Y-73438200D02*
X146260800Y-73438200D01*
G04 #@! TO.N,~A5*
X129540000Y-73660000D02*
X137454100Y-81574100D01*
X137454100Y-81574100D02*
X137454100Y-115822600D01*
X137454100Y-115822600D02*
X139285100Y-117653600D01*
X139285100Y-117653600D02*
X139285100Y-119380000D01*
X137160000Y-198120000D02*
X139695400Y-195584600D01*
X139695400Y-195584600D02*
X139695400Y-137622100D01*
X139695400Y-137622100D02*
X131783000Y-129709700D01*
X131783000Y-129709700D02*
X131783000Y-125235100D01*
X131783000Y-125235100D02*
X131332700Y-124784800D01*
X131332700Y-124784800D02*
X131332700Y-121172700D01*
X131332700Y-121172700D02*
X129540000Y-119380000D01*
G04 #@! TO.N,~A4*
X129540000Y-76200000D02*
X137003800Y-83663800D01*
X137003800Y-83663800D02*
X137003800Y-116009200D01*
X137003800Y-116009200D02*
X138559800Y-117565200D01*
X138559800Y-117565200D02*
X138559800Y-121199400D01*
X138559800Y-121199400D02*
X138699600Y-121339200D01*
X137160000Y-193040000D02*
X139235800Y-190964200D01*
X139235800Y-190964200D02*
X139235800Y-137818100D01*
X139235800Y-137818100D02*
X131332600Y-129914900D01*
X131332600Y-129914900D02*
X131332600Y-125615700D01*
X131332600Y-125615700D02*
X130882300Y-125165400D01*
X130882300Y-125165400D02*
X130882300Y-123262300D01*
X130882300Y-123262300D02*
X129540000Y-121920000D01*
G04 #@! TO.N,~A3*
X129540000Y-78740000D02*
X136553500Y-85753500D01*
X136553500Y-85753500D02*
X136553500Y-116195800D01*
X136553500Y-116195800D02*
X137970700Y-117613000D01*
X137970700Y-117613000D02*
X137970700Y-122117100D01*
X137970700Y-122117100D02*
X138253200Y-122399600D01*
X129540000Y-124460000D02*
X130730900Y-125650900D01*
X130730900Y-125650900D02*
X130730900Y-129950100D01*
X130730900Y-129950100D02*
X138785400Y-138004600D01*
X138785400Y-138004600D02*
X138785400Y-186334600D01*
X138785400Y-186334600D02*
X137160000Y-187960000D01*
G04 #@! TO.N,~A2*
X129540000Y-81280000D02*
X136103200Y-87843200D01*
X136103200Y-87843200D02*
X136103200Y-116382400D01*
X136103200Y-116382400D02*
X137520400Y-117799600D01*
X137520400Y-117799600D02*
X137520400Y-122692800D01*
X137520400Y-122692800D02*
X137912000Y-123084400D01*
X137912000Y-123084400D02*
X137912000Y-123440300D01*
X137160000Y-182880000D02*
X131945700Y-177665700D01*
X131945700Y-177665700D02*
X131945700Y-140477200D01*
X131945700Y-140477200D02*
X128349400Y-136880900D01*
X128349400Y-136880900D02*
X128349400Y-128190600D01*
X128349400Y-128190600D02*
X129540000Y-127000000D01*
G04 #@! TO.N,~A1*
X129540000Y-83820000D02*
X135652900Y-89932900D01*
X135652900Y-89932900D02*
X135652900Y-116569000D01*
X135652900Y-116569000D02*
X137070100Y-117986200D01*
X137070100Y-117986200D02*
X137070100Y-122879400D01*
X137070100Y-122879400D02*
X137186600Y-122995900D01*
X137186600Y-122995900D02*
X137186600Y-123895400D01*
X137186600Y-123895400D02*
X137754400Y-124463200D01*
X129540000Y-129540000D02*
X137160000Y-137160000D01*
X137160000Y-137160000D02*
X137160000Y-176174700D01*
X137160000Y-177800000D02*
X137160000Y-176174700D01*
G04 #@! TO.N,~A18*
X129540000Y-86360000D02*
X135202600Y-92022600D01*
X135202600Y-92022600D02*
X135202600Y-116755600D01*
X135202600Y-116755600D02*
X136584800Y-118137800D01*
X136584800Y-118137800D02*
X136584800Y-123031000D01*
X136584800Y-123031000D02*
X136736300Y-123182500D01*
X136736300Y-123182500D02*
X136736300Y-124471100D01*
X136736300Y-124471100D02*
X141724300Y-129459100D01*
X141724300Y-129459100D02*
X141724300Y-130809500D01*
X141724300Y-130809500D02*
X144648700Y-133733900D01*
X144648700Y-133733900D02*
X144648700Y-256511300D01*
X144648700Y-256511300D02*
X137160000Y-264000000D01*
G04 #@! TO.N,STK4V*
X127000000Y-86360000D02*
X112181100Y-101178900D01*
X112181100Y-101178900D02*
X112181100Y-254261100D01*
X112181100Y-254261100D02*
X121920000Y-264000000D01*
G04 #@! TO.N,~A17*
X129540000Y-88900000D02*
X134752300Y-94112300D01*
X134752300Y-94112300D02*
X134752300Y-116942200D01*
X134752300Y-116942200D02*
X136134500Y-118324400D01*
X136134500Y-118324400D02*
X136134500Y-123217600D01*
X136134500Y-123217600D02*
X136286000Y-123369100D01*
X136286000Y-123369100D02*
X136286000Y-124657700D01*
X136286000Y-124657700D02*
X141274000Y-129645700D01*
X141274000Y-129645700D02*
X141274000Y-131083600D01*
X141274000Y-131083600D02*
X144198400Y-134008000D01*
X144198400Y-134008000D02*
X144198400Y-251961600D01*
X144198400Y-251961600D02*
X137160000Y-259000000D01*
G04 #@! TO.N,SKT4U*
X127000000Y-88900000D02*
X112631400Y-103268600D01*
X112631400Y-103268600D02*
X112631400Y-249711400D01*
X112631400Y-249711400D02*
X121920000Y-259000000D01*
G04 #@! TO.N,~A16*
X129540000Y-91440000D02*
X134302000Y-96202000D01*
X134302000Y-96202000D02*
X134302000Y-117128800D01*
X134302000Y-117128800D02*
X135684200Y-118511000D01*
X135684200Y-118511000D02*
X135684200Y-123404200D01*
X135684200Y-123404200D02*
X135835700Y-123555700D01*
X135835700Y-123555700D02*
X135835700Y-124844300D01*
X135835700Y-124844300D02*
X140543900Y-129552500D01*
X140543900Y-129552500D02*
X140543900Y-130990400D01*
X140543900Y-130990400D02*
X143748100Y-134194600D01*
X143748100Y-134194600D02*
X143748100Y-247411900D01*
X143748100Y-247411900D02*
X137160000Y-254000000D01*
G04 #@! TO.N,SKT4T*
X127000000Y-91440000D02*
X113081700Y-105358300D01*
X113081700Y-105358300D02*
X113081700Y-245161700D01*
X113081700Y-245161700D02*
X121920000Y-254000000D01*
G04 #@! TO.N,~A15*
X129540000Y-93980000D02*
X133851700Y-98291700D01*
X133851700Y-98291700D02*
X133851700Y-117315400D01*
X133851700Y-117315400D02*
X135233900Y-118697600D01*
X135233900Y-118697600D02*
X135233900Y-123590800D01*
X135233900Y-123590800D02*
X135385400Y-123742300D01*
X135385400Y-123742300D02*
X135385400Y-125030900D01*
X135385400Y-125030900D02*
X139923100Y-129568600D01*
X139923100Y-129568600D02*
X139923100Y-132117600D01*
X139923100Y-132117600D02*
X143297800Y-135492300D01*
X143297800Y-135492300D02*
X143297800Y-242782200D01*
X143297800Y-242782200D02*
X137160000Y-248920000D01*
G04 #@! TO.N,SKT4S*
X127000000Y-93980000D02*
X113532000Y-107448000D01*
X113532000Y-107448000D02*
X113532000Y-240532000D01*
X113532000Y-240532000D02*
X121920000Y-248920000D01*
G04 #@! TO.N,~A14*
X129540000Y-96520000D02*
X133401400Y-100381400D01*
X133401400Y-100381400D02*
X133401400Y-117502000D01*
X133401400Y-117502000D02*
X134783600Y-118884200D01*
X134783600Y-118884200D02*
X134783600Y-123777400D01*
X134783600Y-123777400D02*
X134935100Y-123928900D01*
X134935100Y-123928900D02*
X134935100Y-125217500D01*
X134935100Y-125217500D02*
X139274700Y-129557100D01*
X139274700Y-129557100D02*
X139274700Y-132743100D01*
X139274700Y-132743100D02*
X142847500Y-136315900D01*
X142847500Y-136315900D02*
X142847500Y-238152500D01*
X142847500Y-238152500D02*
X137160000Y-243840000D01*
G04 #@! TO.N,SKT4R*
X127000000Y-96520000D02*
X113982300Y-109537700D01*
X113982300Y-109537700D02*
X113982300Y-235902300D01*
X113982300Y-235902300D02*
X121920000Y-243840000D01*
G04 #@! TO.N,~A13*
X124961900Y-104663400D02*
X115333200Y-114292100D01*
X115333200Y-114292100D02*
X115333200Y-224335600D01*
X115333200Y-224335600D02*
X129757600Y-238760000D01*
X129757600Y-238760000D02*
X137160000Y-238760000D01*
G04 #@! TO.N,SKT4P*
X127000000Y-99060000D02*
X114432600Y-111627400D01*
X114432600Y-111627400D02*
X114432600Y-231272600D01*
X114432600Y-231272600D02*
X121920000Y-238760000D01*
G04 #@! TO.N,~A12*
X129540000Y-101600000D02*
X132951100Y-105011100D01*
X132951100Y-105011100D02*
X132951100Y-117688600D01*
X132951100Y-117688600D02*
X134333300Y-119070800D01*
X134333300Y-119070800D02*
X134333300Y-123964000D01*
X134333300Y-123964000D02*
X134484800Y-124115500D01*
X134484800Y-124115500D02*
X134484800Y-125404100D01*
X134484800Y-125404100D02*
X138532800Y-129452100D01*
X138532800Y-129452100D02*
X138532800Y-132638100D01*
X138532800Y-132638100D02*
X142397200Y-136502500D01*
X142397200Y-136502500D02*
X142397200Y-228442800D01*
X142397200Y-228442800D02*
X137160000Y-233680000D01*
G04 #@! TO.N,SKT4N*
X127000000Y-101600000D02*
X126999600Y-101600000D01*
X126999600Y-101600000D02*
X114882900Y-113716700D01*
X114882900Y-113716700D02*
X114882900Y-226642900D01*
X114882900Y-226642900D02*
X121920000Y-233680000D01*
G04 #@! TO.N,~A11*
X129540000Y-104140000D02*
X132500800Y-107100800D01*
X132500800Y-107100800D02*
X132500800Y-117875200D01*
X132500800Y-117875200D02*
X133883000Y-119257400D01*
X133883000Y-119257400D02*
X133883000Y-124150600D01*
X133883000Y-124150600D02*
X134034500Y-124302100D01*
X134034500Y-124302100D02*
X134034500Y-125590700D01*
X134034500Y-125590700D02*
X138082500Y-129638700D01*
X138082500Y-129638700D02*
X138082500Y-132824700D01*
X138082500Y-132824700D02*
X141946900Y-136689100D01*
X141946900Y-136689100D02*
X141946900Y-223813100D01*
X141946900Y-223813100D02*
X137160000Y-228600000D01*
G04 #@! TO.N,SKT4M*
X121920000Y-228600000D02*
X115783600Y-222463600D01*
X115783600Y-222463600D02*
X115783600Y-115356400D01*
X115783600Y-115356400D02*
X127000000Y-104140000D01*
G04 #@! TO.N,~A10*
X129540000Y-106680000D02*
X132050500Y-109190500D01*
X132050500Y-109190500D02*
X132050500Y-118061800D01*
X132050500Y-118061800D02*
X133432700Y-119444000D01*
X133432700Y-119444000D02*
X133432700Y-124337200D01*
X133432700Y-124337200D02*
X133584200Y-124488700D01*
X133584200Y-124488700D02*
X133584200Y-125777300D01*
X133584200Y-125777300D02*
X137632200Y-129825300D01*
X137632200Y-129825300D02*
X137632200Y-133011300D01*
X137632200Y-133011300D02*
X141496600Y-136875700D01*
X141496600Y-136875700D02*
X141496600Y-219183400D01*
X141496600Y-219183400D02*
X137160000Y-223520000D01*
G04 #@! TO.N,SKT4L*
X121920000Y-223520000D02*
X116235800Y-217835800D01*
X116235800Y-217835800D02*
X116235800Y-117444200D01*
X116235800Y-117444200D02*
X127000000Y-106680000D01*
G04 #@! TO.N,~A9*
X129540000Y-109220000D02*
X131600200Y-111280200D01*
X131600200Y-111280200D02*
X131600200Y-118248400D01*
X131600200Y-118248400D02*
X132982400Y-119630600D01*
X132982400Y-119630600D02*
X132982400Y-124523800D01*
X132982400Y-124523800D02*
X133133900Y-124675300D01*
X133133900Y-124675300D02*
X133133900Y-125964000D01*
X133133900Y-125964000D02*
X133134000Y-125964000D01*
X133134000Y-125964000D02*
X137181900Y-130011900D01*
X137181900Y-130011900D02*
X137181900Y-133197900D01*
X137181900Y-133197900D02*
X141046300Y-137062300D01*
X141046300Y-137062300D02*
X141046300Y-214553700D01*
X141046300Y-214553700D02*
X137160000Y-218440000D01*
G04 #@! TO.N,SKT4K*
X121920000Y-218440000D02*
X116686100Y-213206100D01*
X116686100Y-213206100D02*
X116686100Y-119533900D01*
X116686100Y-119533900D02*
X127000000Y-109220000D01*
G04 #@! TO.N,SKT4J*
X121920000Y-213360000D02*
X117136400Y-208576400D01*
X117136400Y-208576400D02*
X117136400Y-121623600D01*
X117136400Y-121623600D02*
X127000000Y-111760000D01*
G04 #@! TO.N,SKT4H*
X121920000Y-208280000D02*
X117586700Y-203946700D01*
X117586700Y-203946700D02*
X117586700Y-123713300D01*
X117586700Y-123713300D02*
X127000000Y-114300000D01*
G04 #@! TO.N,SKT4G*
X121920000Y-203200000D02*
X118037000Y-199317000D01*
X118037000Y-199317000D02*
X118037000Y-125803000D01*
X118037000Y-125803000D02*
X127000000Y-116840000D01*
G04 #@! TO.N,SKT4F*
X121920000Y-198120000D02*
X118487300Y-194687300D01*
X118487300Y-194687300D02*
X118487300Y-127892700D01*
X118487300Y-127892700D02*
X127000000Y-119380000D01*
G04 #@! TO.N,SKT4E*
X127000000Y-121920000D02*
X118937600Y-129982400D01*
X118937600Y-129982400D02*
X118937600Y-190057600D01*
X118937600Y-190057600D02*
X121920000Y-193040000D01*
G04 #@! TO.N,SKT4D*
X121920000Y-187960000D02*
X119388000Y-185428000D01*
X119388000Y-185428000D02*
X119388000Y-132072000D01*
X119388000Y-132072000D02*
X127000000Y-124460000D01*
G04 #@! TO.N,SKT4C*
X127000000Y-127000000D02*
X119844300Y-134155700D01*
X119844300Y-134155700D02*
X119844300Y-180804300D01*
X119844300Y-180804300D02*
X121920000Y-182880000D01*
G04 #@! TO.N,SKT4B*
X121920000Y-177800000D02*
X121920000Y-134620000D01*
X121920000Y-134620000D02*
X127000000Y-129540000D01*
G04 #@! TO.N,SKT4PP*
X152400000Y-264000000D02*
X171988200Y-244411800D01*
X171988200Y-244411800D02*
X171988200Y-99160500D01*
X171988200Y-99160500D02*
X160457700Y-87630000D01*
X160457700Y-87630000D02*
X158750000Y-87630000D01*
X158750000Y-87630000D02*
X157480000Y-86360000D01*
G04 #@! TO.N,~P4*
X167640000Y-193040000D02*
X170637300Y-190042700D01*
X170637300Y-190042700D02*
X170637300Y-132537300D01*
X170637300Y-132537300D02*
X160020000Y-121920000D01*
X160020000Y-88900000D02*
X158804500Y-90115500D01*
X158804500Y-90115500D02*
X158804500Y-102048700D01*
X158804500Y-102048700D02*
X159625800Y-102870000D01*
X159625800Y-102870000D02*
X160412300Y-102870000D01*
X160412300Y-102870000D02*
X161197700Y-103655400D01*
X161197700Y-103655400D02*
X161197700Y-120742300D01*
X161197700Y-120742300D02*
X160020000Y-121920000D01*
G04 #@! TO.N,SKT10~b*
X157480000Y-88900000D02*
X145334200Y-101045800D01*
X145334200Y-101045800D02*
X145334200Y-251934200D01*
X145334200Y-251934200D02*
X152400000Y-259000000D01*
G04 #@! TO.N,~P3*
X160020000Y-124460000D02*
X169736600Y-134176600D01*
X169736600Y-134176600D02*
X169736600Y-185863400D01*
X169736600Y-185863400D02*
X167640000Y-187960000D01*
G04 #@! TO.N,SKT10U*
X157480000Y-91440000D02*
X145784500Y-103135500D01*
X145784500Y-103135500D02*
X145784500Y-247384500D01*
X145784500Y-247384500D02*
X152400000Y-254000000D01*
G04 #@! TO.N,~P1*
X160020000Y-93980000D02*
X163396200Y-97356200D01*
X163396200Y-97356200D02*
X163396200Y-98868500D01*
X160020000Y-129540000D02*
X167640000Y-137160000D01*
X167640000Y-137160000D02*
X167640000Y-177800000D01*
G04 #@! TO.N,SKT10X*
X157480000Y-93980000D02*
X146234800Y-105225200D01*
X146234800Y-105225200D02*
X146234800Y-242754800D01*
X146234800Y-242754800D02*
X152400000Y-248920000D01*
G04 #@! TO.N,SKT10~d*
X157480000Y-96520000D02*
X146685100Y-107314900D01*
X146685100Y-107314900D02*
X146685100Y-238125100D01*
X146685100Y-238125100D02*
X152400000Y-243840000D01*
G04 #@! TO.N,~P2*
X160020000Y-127000000D02*
X169265400Y-136245400D01*
X169265400Y-136245400D02*
X169265400Y-181254600D01*
X169265400Y-181254600D02*
X167640000Y-182880000D01*
G04 #@! TO.N,SKT10Y*
X157480000Y-99060000D02*
X147135400Y-109404600D01*
X147135400Y-109404600D02*
X147135400Y-233495400D01*
X147135400Y-233495400D02*
X152400000Y-238760000D01*
G04 #@! TO.N,~VTG*
X167640000Y-198120000D02*
X171087600Y-194672400D01*
X171087600Y-194672400D02*
X171087600Y-112667600D01*
X171087600Y-112667600D02*
X160020000Y-101600000D01*
G04 #@! TO.N,SKT5~p*
X157480000Y-101600000D02*
X147585700Y-111494300D01*
X147585700Y-111494300D02*
X147585700Y-228865700D01*
X147585700Y-228865700D02*
X152400000Y-233680000D01*
G04 #@! TO.N,SKT4~g*
X157480000Y-104140000D02*
X148036000Y-113584000D01*
X148036000Y-113584000D02*
X148036000Y-224236000D01*
X148036000Y-224236000D02*
X152400000Y-228600000D01*
G04 #@! TO.N,SKT4~f*
X157480000Y-106680000D02*
X148486300Y-115673700D01*
X148486300Y-115673700D02*
X148486300Y-219606300D01*
X148486300Y-219606300D02*
X152400000Y-223520000D01*
G04 #@! TO.N,SKT4~e*
X157480000Y-109220000D02*
X148936600Y-117763400D01*
X148936600Y-117763400D02*
X148936600Y-214976600D01*
X148936600Y-214976600D02*
X152400000Y-218440000D01*
G04 #@! TO.N,SKT4~d*
X152400000Y-213360000D02*
X165667600Y-200092400D01*
X165667600Y-200092400D02*
X165667600Y-192697400D01*
X165667600Y-192697400D02*
X170187000Y-188178000D01*
X170187000Y-188178000D02*
X170187000Y-132861500D01*
X170187000Y-132861500D02*
X160515500Y-123190000D01*
X160515500Y-123190000D02*
X159618600Y-123190000D01*
X159618600Y-123190000D02*
X158750000Y-122321400D01*
X158750000Y-122321400D02*
X158750000Y-113030000D01*
X158750000Y-113030000D02*
X157480000Y-111760000D01*
G04 #@! TO.N,SKT4~c*
X152400000Y-208280000D02*
X149386900Y-205266900D01*
X149386900Y-205266900D02*
X149386900Y-122393100D01*
X149386900Y-122393100D02*
X157480000Y-114300000D01*
G04 #@! TO.N,SKT4~b*
X152400000Y-203200000D02*
X149861400Y-200661400D01*
X149861400Y-200661400D02*
X149861400Y-124458600D01*
X149861400Y-124458600D02*
X157480000Y-116840000D01*
G04 #@! TO.N,SKT4~a*
X152400000Y-198120000D02*
X150311800Y-196031800D01*
X150311800Y-196031800D02*
X150311800Y-126548200D01*
X150311800Y-126548200D02*
X157480000Y-119380000D01*
G04 #@! TO.N,SKT4Z*
X152400000Y-193040000D02*
X157074100Y-188365900D01*
X157074100Y-188365900D02*
X157074100Y-139043600D01*
X157074100Y-139043600D02*
X158657200Y-137460500D01*
X158657200Y-137460500D02*
X158657200Y-123097200D01*
X158657200Y-123097200D02*
X157480000Y-121920000D01*
G04 #@! TO.N,SKT4Y*
X152400000Y-187960000D02*
X150774600Y-186334600D01*
X150774600Y-186334600D02*
X150774600Y-131165400D01*
X150774600Y-131165400D02*
X157480000Y-124460000D01*
G04 #@! TO.N,SKT4X*
X157480000Y-127000000D02*
X155623500Y-128856500D01*
X155623500Y-128856500D02*
X155623500Y-179656500D01*
X155623500Y-179656500D02*
X152400000Y-182880000D01*
G04 #@! TO.N,SKT4W*
X156348800Y-163219400D02*
X156290400Y-163161000D01*
X156290400Y-163161000D02*
X156290400Y-130729600D01*
X156290400Y-130729600D02*
X157480000Y-129540000D01*
G04 #@! TD*
D17*
G36*
X227623000Y-280123000D02*
X19127000Y-280123000D01*
X19127000Y-167689000D01*
X19747983Y-167689000D01*
X21037689Y-167154786D01*
X22024786Y-166167689D01*
X22510800Y-164994347D01*
X22510801Y-258089845D01*
X22466055Y-258314800D01*
X22643319Y-259205972D01*
X23003999Y-259745766D01*
X23148129Y-259961472D01*
X23338834Y-260088897D01*
X27021000Y-263771064D01*
X27021000Y-264688038D01*
X27547601Y-265959366D01*
X28520634Y-266932399D01*
X29791962Y-267459000D01*
X31168038Y-267459000D01*
X32439366Y-266932399D01*
X33412399Y-265959366D01*
X33939000Y-264688038D01*
X33939000Y-263311962D01*
X33412399Y-262040634D01*
X32871765Y-261500000D01*
X33412399Y-260959366D01*
X33939000Y-259688038D01*
X33939000Y-258311962D01*
X33412399Y-257040634D01*
X32871765Y-256500000D01*
X33412399Y-255959366D01*
X33716101Y-255226164D01*
X42261000Y-263771064D01*
X42261000Y-264688038D01*
X42787601Y-265959366D01*
X43760634Y-266932399D01*
X45031962Y-267459000D01*
X46408038Y-267459000D01*
X47679366Y-266932399D01*
X48652399Y-265959366D01*
X49179000Y-264688038D01*
X49179000Y-263311962D01*
X48652399Y-262040634D01*
X48111765Y-261500000D01*
X48652399Y-260959366D01*
X49179000Y-259688038D01*
X49179000Y-258771063D01*
X50708401Y-257241663D01*
X50708401Y-265807445D01*
X50663655Y-266032400D01*
X50840919Y-266923572D01*
X51161374Y-267403165D01*
X51345729Y-267679072D01*
X51536434Y-267806497D01*
X57501000Y-273771064D01*
X57501000Y-274688038D01*
X58027601Y-275959366D01*
X59000634Y-276932399D01*
X60271962Y-277459000D01*
X61648038Y-277459000D01*
X62919366Y-276932399D01*
X63892399Y-275959366D01*
X64419000Y-274688038D01*
X64419000Y-273311962D01*
X63892399Y-272040634D01*
X63351765Y-271500000D01*
X63892399Y-270959366D01*
X64419000Y-269688038D01*
X64419000Y-268311962D01*
X63892399Y-267040634D01*
X63351765Y-266500000D01*
X63892399Y-265959366D01*
X64419000Y-264688038D01*
X64419000Y-263311962D01*
X63892399Y-262040634D01*
X63351765Y-261500000D01*
X63892399Y-260959366D01*
X64419000Y-259688038D01*
X64419000Y-258311962D01*
X63892399Y-257040634D01*
X63351765Y-256500000D01*
X63892399Y-255959366D01*
X64419000Y-254688038D01*
X64419000Y-253311962D01*
X63892399Y-252040634D01*
X63831364Y-251979599D01*
X72798982Y-243011982D01*
X72741000Y-243151962D01*
X72741000Y-244528038D01*
X73267601Y-245799366D01*
X73848235Y-246380000D01*
X73267601Y-246960634D01*
X72741000Y-248231962D01*
X72741000Y-249608038D01*
X73267601Y-250879366D01*
X73848235Y-251460000D01*
X73267601Y-252040634D01*
X72741000Y-253311962D01*
X72741000Y-254688038D01*
X73267601Y-255959366D01*
X73808235Y-256500000D01*
X73267601Y-257040634D01*
X72741000Y-258311962D01*
X72741000Y-259688038D01*
X73267601Y-260959366D01*
X73808235Y-261500000D01*
X73267601Y-262040634D01*
X72741000Y-263311962D01*
X72741000Y-264688038D01*
X73267601Y-265959366D01*
X73808235Y-266500000D01*
X73267601Y-267040634D01*
X72741000Y-268311962D01*
X72741000Y-269688038D01*
X73267601Y-270959366D01*
X73808235Y-271500000D01*
X73267601Y-272040634D01*
X72741000Y-273311962D01*
X72741000Y-274688038D01*
X73267601Y-275959366D01*
X74240634Y-276932399D01*
X75511962Y-277459000D01*
X76888038Y-277459000D01*
X78159366Y-276932399D01*
X79132399Y-275959366D01*
X79659000Y-274688038D01*
X79659000Y-273771063D01*
X84267667Y-269162397D01*
X84458372Y-269034972D01*
X84963181Y-268279473D01*
X85095700Y-267613254D01*
X85095700Y-267613253D01*
X85140446Y-267388300D01*
X85095700Y-267163346D01*
X85095700Y-138379400D01*
X85240800Y-138379400D01*
X85240801Y-219379845D01*
X85196055Y-219604800D01*
X85373319Y-220495972D01*
X85746498Y-221054472D01*
X85878129Y-221251472D01*
X86068834Y-221378897D01*
X87981000Y-223291064D01*
X87981000Y-224208038D01*
X88507601Y-225479366D01*
X88729536Y-225701301D01*
X88321634Y-226109203D01*
X88130929Y-226236628D01*
X88003503Y-226427334D01*
X88003502Y-226427335D01*
X87626119Y-226992128D01*
X87448855Y-227883300D01*
X87493601Y-228108255D01*
X87493600Y-272112650D01*
X87448855Y-272337600D01*
X87493600Y-272562550D01*
X87493600Y-272562553D01*
X87626119Y-273228772D01*
X87981000Y-273759889D01*
X87981000Y-274688038D01*
X88507601Y-275959366D01*
X89480634Y-276932399D01*
X90751962Y-277459000D01*
X92128038Y-277459000D01*
X93399366Y-276932399D01*
X94372399Y-275959366D01*
X94899000Y-274688038D01*
X94899000Y-273311962D01*
X94372399Y-272040634D01*
X93831765Y-271500000D01*
X94372399Y-270959366D01*
X94899000Y-269688038D01*
X94899000Y-268311962D01*
X94372399Y-267040634D01*
X93831765Y-266500000D01*
X94372399Y-265959366D01*
X94899000Y-264688038D01*
X94899000Y-263311962D01*
X94372399Y-262040634D01*
X93831765Y-261500000D01*
X94372399Y-260959366D01*
X94899000Y-259688038D01*
X94899000Y-258311962D01*
X94372399Y-257040634D01*
X93831765Y-256500000D01*
X94372399Y-255959366D01*
X94899000Y-254688038D01*
X94899000Y-253311962D01*
X94372399Y-252040634D01*
X93791765Y-251460000D01*
X94372399Y-250879366D01*
X94899000Y-249608038D01*
X94899000Y-248231962D01*
X94372399Y-246960634D01*
X93791765Y-246380000D01*
X94372399Y-245799366D01*
X94899000Y-244528038D01*
X94899000Y-243151962D01*
X94372399Y-241880634D01*
X93791765Y-241300000D01*
X94372399Y-240719366D01*
X94899000Y-239448038D01*
X94899000Y-238071962D01*
X94372399Y-236800634D01*
X93791765Y-236220000D01*
X94372399Y-235639366D01*
X94899000Y-234368038D01*
X94899000Y-232991962D01*
X94372399Y-231720634D01*
X93791765Y-231140000D01*
X94372399Y-230559366D01*
X94899000Y-229288038D01*
X94899000Y-228371063D01*
X100892900Y-222377163D01*
X100892900Y-270271950D01*
X100848155Y-270496900D01*
X100892900Y-270721850D01*
X100892900Y-270721853D01*
X101025419Y-271388072D01*
X101530228Y-272143572D01*
X101720936Y-272270999D01*
X103221000Y-273771063D01*
X103221000Y-274688038D01*
X103747601Y-275959366D01*
X104720634Y-276932399D01*
X105991962Y-277459000D01*
X107368038Y-277459000D01*
X108639366Y-276932399D01*
X109612399Y-275959366D01*
X110139000Y-274688038D01*
X110139000Y-273311962D01*
X109612399Y-272040634D01*
X109071765Y-271500000D01*
X109612399Y-270959366D01*
X110139000Y-269688038D01*
X110139000Y-268311962D01*
X109612399Y-267040634D01*
X109071765Y-266500000D01*
X109612399Y-265959366D01*
X110139000Y-264688038D01*
X110139000Y-263311962D01*
X109612399Y-262040634D01*
X109071765Y-261500000D01*
X109612399Y-260959366D01*
X110139000Y-259688038D01*
X110139000Y-258311962D01*
X109612399Y-257040634D01*
X109071765Y-256500000D01*
X109612399Y-255959366D01*
X110002721Y-255017045D01*
X110029619Y-255152272D01*
X110119193Y-255286328D01*
X110534429Y-255907772D01*
X110725134Y-256035197D01*
X118461000Y-263771064D01*
X118461000Y-264688038D01*
X118987601Y-265959366D01*
X119960634Y-266932399D01*
X121231962Y-267459000D01*
X122608038Y-267459000D01*
X123879366Y-266932399D01*
X124852399Y-265959366D01*
X125379000Y-264688038D01*
X125379000Y-263311962D01*
X124852399Y-262040634D01*
X124311765Y-261500000D01*
X124852399Y-260959366D01*
X125379000Y-259688038D01*
X125379000Y-258311962D01*
X124852399Y-257040634D01*
X124311765Y-256500000D01*
X124852399Y-255959366D01*
X125379000Y-254688038D01*
X125379000Y-253311962D01*
X124852399Y-252040634D01*
X124271765Y-251460000D01*
X124852399Y-250879366D01*
X125379000Y-249608038D01*
X125379000Y-248231962D01*
X124852399Y-246960634D01*
X124271765Y-246380000D01*
X124852399Y-245799366D01*
X125379000Y-244528038D01*
X125379000Y-243151962D01*
X124852399Y-241880634D01*
X124271765Y-241300000D01*
X124852399Y-240719366D01*
X125379000Y-239448038D01*
X125379000Y-238071962D01*
X125053379Y-237285843D01*
X127983502Y-240215966D01*
X128110928Y-240406672D01*
X128301634Y-240534098D01*
X128527041Y-240684710D01*
X128866427Y-240911481D01*
X129532646Y-241044000D01*
X129532649Y-241044000D01*
X129757599Y-241088745D01*
X129982549Y-241044000D01*
X134552235Y-241044000D01*
X134808235Y-241300000D01*
X134227601Y-241880634D01*
X133701000Y-243151962D01*
X133701000Y-244528038D01*
X134227601Y-245799366D01*
X134808235Y-246380000D01*
X134227601Y-246960634D01*
X133701000Y-248231962D01*
X133701000Y-249608038D01*
X134227601Y-250879366D01*
X134808235Y-251460000D01*
X134227601Y-252040634D01*
X133701000Y-253311962D01*
X133701000Y-254688038D01*
X134227601Y-255959366D01*
X134768235Y-256500000D01*
X134227601Y-257040634D01*
X133701000Y-258311962D01*
X133701000Y-259688038D01*
X134227601Y-260959366D01*
X134768235Y-261500000D01*
X134227601Y-262040634D01*
X133701000Y-263311962D01*
X133701000Y-264688038D01*
X134227601Y-265959366D01*
X135200634Y-266932399D01*
X136471962Y-267459000D01*
X137848038Y-267459000D01*
X139119366Y-266932399D01*
X140092399Y-265959366D01*
X140619000Y-264688038D01*
X140619000Y-263771063D01*
X146104666Y-258285398D01*
X146295372Y-258157972D01*
X146800181Y-257402473D01*
X146928302Y-256758365D01*
X148941000Y-258771064D01*
X148941000Y-259688038D01*
X149467601Y-260959366D01*
X150008235Y-261500000D01*
X149467601Y-262040634D01*
X148941000Y-263311962D01*
X148941000Y-264688038D01*
X149467601Y-265959366D01*
X150440634Y-266932399D01*
X151711962Y-267459000D01*
X153088038Y-267459000D01*
X154359366Y-266932399D01*
X155332399Y-265959366D01*
X155859000Y-264688038D01*
X155859000Y-263771063D01*
X173444167Y-246185897D01*
X173634872Y-246058472D01*
X173818225Y-245784066D01*
X174139681Y-245302973D01*
X174139681Y-245302972D01*
X174272200Y-244636754D01*
X174272200Y-244636751D01*
X174316945Y-244411801D01*
X174272200Y-244186851D01*
X174272200Y-180042263D01*
X190249086Y-196019149D01*
X190107601Y-196160634D01*
X189581000Y-197431962D01*
X189581000Y-198808038D01*
X190107601Y-200079366D01*
X190688235Y-200660000D01*
X190107601Y-201240634D01*
X189581000Y-202511962D01*
X189581000Y-203888038D01*
X190107601Y-205159366D01*
X191080634Y-206132399D01*
X192351962Y-206659000D01*
X193728038Y-206659000D01*
X194999366Y-206132399D01*
X195972399Y-205159366D01*
X196499000Y-203888038D01*
X196499000Y-202511962D01*
X196327245Y-202097309D01*
X202281000Y-208051064D01*
X202281000Y-208968038D01*
X202807601Y-210239366D01*
X203388235Y-210820000D01*
X202807601Y-211400634D01*
X202281000Y-212671962D01*
X202281000Y-214048038D01*
X202807601Y-215319366D01*
X203780634Y-216292399D01*
X205051962Y-216819000D01*
X206428038Y-216819000D01*
X207699366Y-216292399D01*
X208672399Y-215319366D01*
X209199000Y-214048038D01*
X209199000Y-212671962D01*
X208672399Y-211400634D01*
X208091765Y-210820000D01*
X208672399Y-210239366D01*
X209199000Y-208968038D01*
X209199000Y-207591962D01*
X208672399Y-206320634D01*
X208091765Y-205740000D01*
X208672399Y-205159366D01*
X209199000Y-203888038D01*
X209199000Y-202511962D01*
X208672399Y-201240634D01*
X208091765Y-200660000D01*
X208672399Y-200079366D01*
X209199000Y-198808038D01*
X209199000Y-197431962D01*
X208672399Y-196160634D01*
X208091765Y-195580000D01*
X208672399Y-194999366D01*
X209199000Y-193728038D01*
X209199000Y-192351962D01*
X208672399Y-191080634D01*
X208091765Y-190500000D01*
X208672399Y-189919366D01*
X209199000Y-188648038D01*
X209199000Y-187271962D01*
X208672399Y-186000634D01*
X208091765Y-185420000D01*
X208672399Y-184839366D01*
X209199000Y-183568038D01*
X209199000Y-182191962D01*
X208672399Y-180920634D01*
X208483713Y-180731948D01*
X208596552Y-180656552D01*
X209073733Y-179942400D01*
X209241297Y-179100000D01*
X209241297Y-176500000D01*
X209073733Y-175657600D01*
X208596552Y-174943448D01*
X207882400Y-174466267D01*
X207040000Y-174298703D01*
X204440000Y-174298703D01*
X203597600Y-174466267D01*
X202883448Y-174943448D01*
X202406267Y-175657600D01*
X202238703Y-176500000D01*
X202238703Y-179100000D01*
X202406267Y-179942400D01*
X202883448Y-180656552D01*
X202996287Y-180731948D01*
X202807601Y-180920634D01*
X202281000Y-182191962D01*
X202281000Y-183568038D01*
X202807601Y-184839366D01*
X203388235Y-185420000D01*
X202807601Y-186000634D01*
X202281000Y-187271962D01*
X202281000Y-188648038D01*
X202807601Y-189919366D01*
X203388235Y-190500000D01*
X202807601Y-191080634D01*
X202281000Y-192351962D01*
X202281000Y-193728038D01*
X202807601Y-194999366D01*
X203388235Y-195580000D01*
X202807601Y-196160634D01*
X202550762Y-196780698D01*
X195830914Y-190060851D01*
X195972399Y-189919366D01*
X196499000Y-188648038D01*
X196499000Y-187271962D01*
X195972399Y-186000634D01*
X195391765Y-185420000D01*
X195972399Y-184839366D01*
X196499000Y-183568038D01*
X196499000Y-182191962D01*
X195972399Y-180920634D01*
X195783713Y-180731948D01*
X195896552Y-180656552D01*
X196373733Y-179942400D01*
X196541297Y-179100000D01*
X196541297Y-176500000D01*
X196373733Y-175657600D01*
X195896552Y-174943448D01*
X195182400Y-174466267D01*
X194340000Y-174298703D01*
X191740000Y-174298703D01*
X190897600Y-174466267D01*
X190183448Y-174943448D01*
X189706267Y-175657600D01*
X189538703Y-176500000D01*
X189538703Y-179100000D01*
X189706267Y-179942400D01*
X190183448Y-180656552D01*
X190296287Y-180731948D01*
X190107601Y-180920634D01*
X189581000Y-182191962D01*
X189581000Y-183568038D01*
X189752755Y-183982692D01*
X176603600Y-170833537D01*
X176603600Y-163482017D01*
X218741000Y-163482017D01*
X218741000Y-164877983D01*
X219275214Y-166167689D01*
X220262311Y-167154786D01*
X221552017Y-167689000D01*
X222947983Y-167689000D01*
X224237689Y-167154786D01*
X225224786Y-166167689D01*
X225759000Y-164877983D01*
X225759000Y-163482017D01*
X225224786Y-162192311D01*
X224237689Y-161205214D01*
X222947983Y-160671000D01*
X221552017Y-160671000D01*
X220262311Y-161205214D01*
X219275214Y-162192311D01*
X218741000Y-163482017D01*
X176603600Y-163482017D01*
X176603600Y-152632017D01*
X218741000Y-152632017D01*
X218741000Y-154027983D01*
X219275214Y-155317689D01*
X220262311Y-156304786D01*
X221552017Y-156839000D01*
X222947983Y-156839000D01*
X224237689Y-156304786D01*
X225224786Y-155317689D01*
X225759000Y-154027983D01*
X225759000Y-152632017D01*
X225224786Y-151342311D01*
X224237689Y-150355214D01*
X222947983Y-149821000D01*
X221552017Y-149821000D01*
X220262311Y-150355214D01*
X219275214Y-151342311D01*
X218741000Y-152632017D01*
X176603600Y-152632017D01*
X176603600Y-94089749D01*
X176648345Y-93864799D01*
X176603600Y-93639849D01*
X176603600Y-93639846D01*
X176471081Y-92973627D01*
X176162011Y-92511072D01*
X176093698Y-92408834D01*
X175966272Y-92218128D01*
X175775566Y-92090702D01*
X163027357Y-79342494D01*
X163029000Y-79338527D01*
X163029000Y-78141473D01*
X162750867Y-77470000D01*
X163029000Y-76798527D01*
X163029000Y-75601473D01*
X162750867Y-74930000D01*
X163029000Y-74258527D01*
X163029000Y-73061473D01*
X162750867Y-72389999D01*
X163029000Y-71718527D01*
X163029000Y-70521473D01*
X162750867Y-69850000D01*
X163029000Y-69178527D01*
X163029000Y-67981473D01*
X162750867Y-67310000D01*
X163029000Y-66638527D01*
X163029000Y-65441473D01*
X162750867Y-64769999D01*
X163029000Y-64098527D01*
X163029000Y-62901473D01*
X162750867Y-62230000D01*
X163029000Y-61558527D01*
X163029000Y-60361473D01*
X162750867Y-59690000D01*
X163029000Y-59018527D01*
X163029000Y-57821473D01*
X162750867Y-57150000D01*
X163029000Y-56478527D01*
X163029000Y-55281473D01*
X162570907Y-54175538D01*
X161724462Y-53329093D01*
X161655495Y-53300526D01*
X161736012Y-53267175D01*
X162737175Y-52266012D01*
X163279000Y-50957929D01*
X163279000Y-49542071D01*
X162737175Y-48233988D01*
X161736012Y-47232825D01*
X160427929Y-46691000D01*
X159012071Y-46691000D01*
X157703988Y-47232825D01*
X156702825Y-48233988D01*
X156161000Y-49542071D01*
X156161000Y-50957929D01*
X156702825Y-52266012D01*
X157307813Y-52871000D01*
X156881473Y-52871000D01*
X155789960Y-53323119D01*
X151069000Y-48602161D01*
X151069000Y-43732765D01*
X151592399Y-43209366D01*
X152119000Y-41938038D01*
X152119000Y-40561962D01*
X151592399Y-39290634D01*
X150619366Y-38317601D01*
X149348038Y-37791000D01*
X147971962Y-37791000D01*
X146700634Y-38317601D01*
X146120000Y-38898235D01*
X145539366Y-38317601D01*
X144268038Y-37791000D01*
X142891962Y-37791000D01*
X141620634Y-38317601D01*
X141431948Y-38506287D01*
X141356552Y-38393448D01*
X140642400Y-37916267D01*
X139800000Y-37748703D01*
X137200000Y-37748703D01*
X136357600Y-37916267D01*
X135643448Y-38393448D01*
X135166267Y-39107600D01*
X134998703Y-39950000D01*
X134998703Y-42550000D01*
X135166267Y-43392400D01*
X135643448Y-44106552D01*
X136357600Y-44583733D01*
X137200000Y-44751297D01*
X139800000Y-44751297D01*
X140642400Y-44583733D01*
X141171000Y-44230534D01*
X141171000Y-74672725D01*
X141159981Y-74617327D01*
X140920238Y-74258527D01*
X140782598Y-74052534D01*
X140655172Y-73861828D01*
X140464467Y-73734403D01*
X132549000Y-65818937D01*
X132549000Y-65441473D01*
X132270867Y-64769999D01*
X132549000Y-64098527D01*
X132549000Y-62901473D01*
X132270867Y-62230000D01*
X132549000Y-61558527D01*
X132549000Y-60361473D01*
X132270867Y-59690000D01*
X132549000Y-59018527D01*
X132549000Y-57821473D01*
X132270867Y-57150000D01*
X132549000Y-56478527D01*
X132549000Y-55281473D01*
X132090907Y-54175538D01*
X131244462Y-53329093D01*
X131175495Y-53300526D01*
X131256012Y-53267175D01*
X132257175Y-52266012D01*
X132799000Y-50957929D01*
X132799000Y-49542071D01*
X132257175Y-48233988D01*
X131256012Y-47232825D01*
X129947929Y-46691000D01*
X128532071Y-46691000D01*
X127223988Y-47232825D01*
X126222825Y-48233988D01*
X125681000Y-49542071D01*
X125681000Y-50957929D01*
X126222825Y-52266012D01*
X126827813Y-52871000D01*
X126401473Y-52871000D01*
X125295538Y-53329093D01*
X124449093Y-54175538D01*
X123991000Y-55281473D01*
X123991000Y-56478527D01*
X124269133Y-57150000D01*
X123991000Y-57821473D01*
X123991000Y-59018527D01*
X124269133Y-59690000D01*
X123991000Y-60361473D01*
X123991000Y-61558527D01*
X124269133Y-62230000D01*
X123991000Y-62901473D01*
X123991000Y-64098527D01*
X124269133Y-64769999D01*
X123991000Y-65441473D01*
X123991000Y-66638527D01*
X124269133Y-67310000D01*
X123991000Y-67981473D01*
X123991000Y-69178527D01*
X124269133Y-69850000D01*
X123991000Y-70521473D01*
X123991000Y-71718527D01*
X124269133Y-72389999D01*
X123991000Y-73061473D01*
X123991000Y-74258527D01*
X124269133Y-74930000D01*
X123991000Y-75601473D01*
X123991000Y-76798527D01*
X124269133Y-77470000D01*
X123991000Y-78141473D01*
X123991000Y-79338527D01*
X124269133Y-80010000D01*
X123991000Y-80681473D01*
X123991000Y-81878527D01*
X124269133Y-82550000D01*
X123991000Y-83221473D01*
X123991000Y-84418527D01*
X124269133Y-85089999D01*
X123991000Y-85761473D01*
X123991000Y-86138936D01*
X112927900Y-97202037D01*
X112927900Y-78709448D01*
X112972645Y-78484499D01*
X112927900Y-78259551D01*
X112927900Y-78259546D01*
X112795381Y-77593327D01*
X112290572Y-76837828D01*
X112099866Y-76710402D01*
X102056988Y-66667525D01*
X102069000Y-66638527D01*
X102069000Y-65441473D01*
X101790867Y-64769999D01*
X102069000Y-64098527D01*
X102069000Y-62901473D01*
X101790867Y-62230000D01*
X102069000Y-61558527D01*
X102069000Y-60361473D01*
X101790867Y-59690000D01*
X102069000Y-59018527D01*
X102069000Y-57821473D01*
X101790867Y-57150000D01*
X102069000Y-56478527D01*
X102069000Y-55281473D01*
X101610907Y-54175538D01*
X100764462Y-53329093D01*
X100695495Y-53300526D01*
X100776012Y-53267175D01*
X101777175Y-52266012D01*
X102319000Y-50957929D01*
X102319000Y-49542071D01*
X101777175Y-48233988D01*
X100776012Y-47232825D01*
X99467929Y-46691000D01*
X98052071Y-46691000D01*
X96743988Y-47232825D01*
X95742825Y-48233988D01*
X95201000Y-49542071D01*
X95201000Y-50957929D01*
X95742825Y-52266012D01*
X96347813Y-52871000D01*
X95921473Y-52871000D01*
X94815538Y-53329093D01*
X93969093Y-54175538D01*
X93511000Y-55281473D01*
X93511000Y-55482159D01*
X86101801Y-62891360D01*
X77554794Y-54344355D01*
X77420392Y-54143208D01*
X76623545Y-53610772D01*
X75920865Y-53471000D01*
X75920860Y-53471000D01*
X75683600Y-53423806D01*
X75446340Y-53471000D01*
X70426369Y-53471000D01*
X70284462Y-53329093D01*
X70215495Y-53300526D01*
X70296012Y-53267175D01*
X71297175Y-52266012D01*
X71839000Y-50957929D01*
X71839000Y-49542071D01*
X71297175Y-48233988D01*
X70296012Y-47232825D01*
X68987929Y-46691000D01*
X67572071Y-46691000D01*
X66263988Y-47232825D01*
X65262825Y-48233988D01*
X64721000Y-49542071D01*
X64721000Y-50957929D01*
X65262825Y-52266012D01*
X65867813Y-52871000D01*
X65441473Y-52871000D01*
X64335538Y-53329093D01*
X63489093Y-54175538D01*
X63058120Y-55216000D01*
X61319000Y-55216000D01*
X61319000Y-43732765D01*
X61842399Y-43209366D01*
X62369000Y-41938038D01*
X62369000Y-40561962D01*
X61842399Y-39290634D01*
X60869366Y-38317601D01*
X59598038Y-37791000D01*
X58221962Y-37791000D01*
X56950634Y-38317601D01*
X56370000Y-38898235D01*
X55789366Y-38317601D01*
X54518038Y-37791000D01*
X53141962Y-37791000D01*
X51870634Y-38317601D01*
X51681948Y-38506287D01*
X51606552Y-38393448D01*
X50892400Y-37916267D01*
X50050000Y-37748703D01*
X47450000Y-37748703D01*
X46607600Y-37916267D01*
X45893448Y-38393448D01*
X45416267Y-39107600D01*
X45248703Y-39950000D01*
X45248703Y-42550000D01*
X45416267Y-43392400D01*
X45893448Y-44106552D01*
X46237032Y-44336128D01*
X41262957Y-49310203D01*
X40817175Y-48233988D01*
X39816012Y-47232825D01*
X38507929Y-46691000D01*
X37092071Y-46691000D01*
X35783988Y-47232825D01*
X34782825Y-48233988D01*
X34241000Y-49542071D01*
X34241000Y-50957929D01*
X34782825Y-52266012D01*
X35387813Y-52871000D01*
X34961473Y-52871000D01*
X33855538Y-53329093D01*
X33009093Y-54175538D01*
X32551000Y-55281473D01*
X32551000Y-56478527D01*
X32829133Y-57150000D01*
X32551000Y-57821473D01*
X32551000Y-59018527D01*
X32829133Y-59690000D01*
X32551000Y-60361473D01*
X32551000Y-61558527D01*
X32829133Y-62230000D01*
X32551000Y-62901473D01*
X32551000Y-64098527D01*
X32829133Y-64769999D01*
X32551000Y-65441473D01*
X32551000Y-66638527D01*
X32829133Y-67310000D01*
X32551000Y-67981473D01*
X32551000Y-69178527D01*
X32829133Y-69850000D01*
X32551000Y-70521473D01*
X32551000Y-70898936D01*
X23338836Y-80111100D01*
X23148128Y-80238528D01*
X22643319Y-80994028D01*
X22510800Y-81660247D01*
X22510800Y-81660250D01*
X22466055Y-81885200D01*
X22510800Y-82110150D01*
X22510800Y-152515653D01*
X22024786Y-151342311D01*
X21037689Y-150355214D01*
X19747983Y-149821000D01*
X19127000Y-149821000D01*
X19127000Y-41753331D01*
X19370491Y-37127000D01*
X227623000Y-37127000D01*
X227623000Y-280123000D01*
X227623000Y-280123000D01*
G37*
X227623000Y-280123000D02*
X19127000Y-280123000D01*
X19127000Y-167689000D01*
X19747983Y-167689000D01*
X21037689Y-167154786D01*
X22024786Y-166167689D01*
X22510800Y-164994347D01*
X22510801Y-258089845D01*
X22466055Y-258314800D01*
X22643319Y-259205972D01*
X23003999Y-259745766D01*
X23148129Y-259961472D01*
X23338834Y-260088897D01*
X27021000Y-263771064D01*
X27021000Y-264688038D01*
X27547601Y-265959366D01*
X28520634Y-266932399D01*
X29791962Y-267459000D01*
X31168038Y-267459000D01*
X32439366Y-266932399D01*
X33412399Y-265959366D01*
X33939000Y-264688038D01*
X33939000Y-263311962D01*
X33412399Y-262040634D01*
X32871765Y-261500000D01*
X33412399Y-260959366D01*
X33939000Y-259688038D01*
X33939000Y-258311962D01*
X33412399Y-257040634D01*
X32871765Y-256500000D01*
X33412399Y-255959366D01*
X33716101Y-255226164D01*
X42261000Y-263771064D01*
X42261000Y-264688038D01*
X42787601Y-265959366D01*
X43760634Y-266932399D01*
X45031962Y-267459000D01*
X46408038Y-267459000D01*
X47679366Y-266932399D01*
X48652399Y-265959366D01*
X49179000Y-264688038D01*
X49179000Y-263311962D01*
X48652399Y-262040634D01*
X48111765Y-261500000D01*
X48652399Y-260959366D01*
X49179000Y-259688038D01*
X49179000Y-258771063D01*
X50708401Y-257241663D01*
X50708401Y-265807445D01*
X50663655Y-266032400D01*
X50840919Y-266923572D01*
X51161374Y-267403165D01*
X51345729Y-267679072D01*
X51536434Y-267806497D01*
X57501000Y-273771064D01*
X57501000Y-274688038D01*
X58027601Y-275959366D01*
X59000634Y-276932399D01*
X60271962Y-277459000D01*
X61648038Y-277459000D01*
X62919366Y-276932399D01*
X63892399Y-275959366D01*
X64419000Y-274688038D01*
X64419000Y-273311962D01*
X63892399Y-272040634D01*
X63351765Y-271500000D01*
X63892399Y-270959366D01*
X64419000Y-269688038D01*
X64419000Y-268311962D01*
X63892399Y-267040634D01*
X63351765Y-266500000D01*
X63892399Y-265959366D01*
X64419000Y-264688038D01*
X64419000Y-263311962D01*
X63892399Y-262040634D01*
X63351765Y-261500000D01*
X63892399Y-260959366D01*
X64419000Y-259688038D01*
X64419000Y-258311962D01*
X63892399Y-257040634D01*
X63351765Y-256500000D01*
X63892399Y-255959366D01*
X64419000Y-254688038D01*
X64419000Y-253311962D01*
X63892399Y-252040634D01*
X63831364Y-251979599D01*
X72798982Y-243011982D01*
X72741000Y-243151962D01*
X72741000Y-244528038D01*
X73267601Y-245799366D01*
X73848235Y-246380000D01*
X73267601Y-246960634D01*
X72741000Y-248231962D01*
X72741000Y-249608038D01*
X73267601Y-250879366D01*
X73848235Y-251460000D01*
X73267601Y-252040634D01*
X72741000Y-253311962D01*
X72741000Y-254688038D01*
X73267601Y-255959366D01*
X73808235Y-256500000D01*
X73267601Y-257040634D01*
X72741000Y-258311962D01*
X72741000Y-259688038D01*
X73267601Y-260959366D01*
X73808235Y-261500000D01*
X73267601Y-262040634D01*
X72741000Y-263311962D01*
X72741000Y-264688038D01*
X73267601Y-265959366D01*
X73808235Y-266500000D01*
X73267601Y-267040634D01*
X72741000Y-268311962D01*
X72741000Y-269688038D01*
X73267601Y-270959366D01*
X73808235Y-271500000D01*
X73267601Y-272040634D01*
X72741000Y-273311962D01*
X72741000Y-274688038D01*
X73267601Y-275959366D01*
X74240634Y-276932399D01*
X75511962Y-277459000D01*
X76888038Y-277459000D01*
X78159366Y-276932399D01*
X79132399Y-275959366D01*
X79659000Y-274688038D01*
X79659000Y-273771063D01*
X84267667Y-269162397D01*
X84458372Y-269034972D01*
X84963181Y-268279473D01*
X85095700Y-267613254D01*
X85095700Y-267613253D01*
X85140446Y-267388300D01*
X85095700Y-267163346D01*
X85095700Y-138379400D01*
X85240800Y-138379400D01*
X85240801Y-219379845D01*
X85196055Y-219604800D01*
X85373319Y-220495972D01*
X85746498Y-221054472D01*
X85878129Y-221251472D01*
X86068834Y-221378897D01*
X87981000Y-223291064D01*
X87981000Y-224208038D01*
X88507601Y-225479366D01*
X88729536Y-225701301D01*
X88321634Y-226109203D01*
X88130929Y-226236628D01*
X88003503Y-226427334D01*
X88003502Y-226427335D01*
X87626119Y-226992128D01*
X87448855Y-227883300D01*
X87493601Y-228108255D01*
X87493600Y-272112650D01*
X87448855Y-272337600D01*
X87493600Y-272562550D01*
X87493600Y-272562553D01*
X87626119Y-273228772D01*
X87981000Y-273759889D01*
X87981000Y-274688038D01*
X88507601Y-275959366D01*
X89480634Y-276932399D01*
X90751962Y-277459000D01*
X92128038Y-277459000D01*
X93399366Y-276932399D01*
X94372399Y-275959366D01*
X94899000Y-274688038D01*
X94899000Y-273311962D01*
X94372399Y-272040634D01*
X93831765Y-271500000D01*
X94372399Y-270959366D01*
X94899000Y-269688038D01*
X94899000Y-268311962D01*
X94372399Y-267040634D01*
X93831765Y-266500000D01*
X94372399Y-265959366D01*
X94899000Y-264688038D01*
X94899000Y-263311962D01*
X94372399Y-262040634D01*
X93831765Y-261500000D01*
X94372399Y-260959366D01*
X94899000Y-259688038D01*
X94899000Y-258311962D01*
X94372399Y-257040634D01*
X93831765Y-256500000D01*
X94372399Y-255959366D01*
X94899000Y-254688038D01*
X94899000Y-253311962D01*
X94372399Y-252040634D01*
X93791765Y-251460000D01*
X94372399Y-250879366D01*
X94899000Y-249608038D01*
X94899000Y-248231962D01*
X94372399Y-246960634D01*
X93791765Y-246380000D01*
X94372399Y-245799366D01*
X94899000Y-244528038D01*
X94899000Y-243151962D01*
X94372399Y-241880634D01*
X93791765Y-241300000D01*
X94372399Y-240719366D01*
X94899000Y-239448038D01*
X94899000Y-238071962D01*
X94372399Y-236800634D01*
X93791765Y-236220000D01*
X94372399Y-235639366D01*
X94899000Y-234368038D01*
X94899000Y-232991962D01*
X94372399Y-231720634D01*
X93791765Y-231140000D01*
X94372399Y-230559366D01*
X94899000Y-229288038D01*
X94899000Y-228371063D01*
X100892900Y-222377163D01*
X100892900Y-270271950D01*
X100848155Y-270496900D01*
X100892900Y-270721850D01*
X100892900Y-270721853D01*
X101025419Y-271388072D01*
X101530228Y-272143572D01*
X101720936Y-272270999D01*
X103221000Y-273771063D01*
X103221000Y-274688038D01*
X103747601Y-275959366D01*
X104720634Y-276932399D01*
X105991962Y-277459000D01*
X107368038Y-277459000D01*
X108639366Y-276932399D01*
X109612399Y-275959366D01*
X110139000Y-274688038D01*
X110139000Y-273311962D01*
X109612399Y-272040634D01*
X109071765Y-271500000D01*
X109612399Y-270959366D01*
X110139000Y-269688038D01*
X110139000Y-268311962D01*
X109612399Y-267040634D01*
X109071765Y-266500000D01*
X109612399Y-265959366D01*
X110139000Y-264688038D01*
X110139000Y-263311962D01*
X109612399Y-262040634D01*
X109071765Y-261500000D01*
X109612399Y-260959366D01*
X110139000Y-259688038D01*
X110139000Y-258311962D01*
X109612399Y-257040634D01*
X109071765Y-256500000D01*
X109612399Y-255959366D01*
X110002721Y-255017045D01*
X110029619Y-255152272D01*
X110119193Y-255286328D01*
X110534429Y-255907772D01*
X110725134Y-256035197D01*
X118461000Y-263771064D01*
X118461000Y-264688038D01*
X118987601Y-265959366D01*
X119960634Y-266932399D01*
X121231962Y-267459000D01*
X122608038Y-267459000D01*
X123879366Y-266932399D01*
X124852399Y-265959366D01*
X125379000Y-264688038D01*
X125379000Y-263311962D01*
X124852399Y-262040634D01*
X124311765Y-261500000D01*
X124852399Y-260959366D01*
X125379000Y-259688038D01*
X125379000Y-258311962D01*
X124852399Y-257040634D01*
X124311765Y-256500000D01*
X124852399Y-255959366D01*
X125379000Y-254688038D01*
X125379000Y-253311962D01*
X124852399Y-252040634D01*
X124271765Y-251460000D01*
X124852399Y-250879366D01*
X125379000Y-249608038D01*
X125379000Y-248231962D01*
X124852399Y-246960634D01*
X124271765Y-246380000D01*
X124852399Y-245799366D01*
X125379000Y-244528038D01*
X125379000Y-243151962D01*
X124852399Y-241880634D01*
X124271765Y-241300000D01*
X124852399Y-240719366D01*
X125379000Y-239448038D01*
X125379000Y-238071962D01*
X125053379Y-237285843D01*
X127983502Y-240215966D01*
X128110928Y-240406672D01*
X128301634Y-240534098D01*
X128527041Y-240684710D01*
X128866427Y-240911481D01*
X129532646Y-241044000D01*
X129532649Y-241044000D01*
X129757599Y-241088745D01*
X129982549Y-241044000D01*
X134552235Y-241044000D01*
X134808235Y-241300000D01*
X134227601Y-241880634D01*
X133701000Y-243151962D01*
X133701000Y-244528038D01*
X134227601Y-245799366D01*
X134808235Y-246380000D01*
X134227601Y-246960634D01*
X133701000Y-248231962D01*
X133701000Y-249608038D01*
X134227601Y-250879366D01*
X134808235Y-251460000D01*
X134227601Y-252040634D01*
X133701000Y-253311962D01*
X133701000Y-254688038D01*
X134227601Y-255959366D01*
X134768235Y-256500000D01*
X134227601Y-257040634D01*
X133701000Y-258311962D01*
X133701000Y-259688038D01*
X134227601Y-260959366D01*
X134768235Y-261500000D01*
X134227601Y-262040634D01*
X133701000Y-263311962D01*
X133701000Y-264688038D01*
X134227601Y-265959366D01*
X135200634Y-266932399D01*
X136471962Y-267459000D01*
X137848038Y-267459000D01*
X139119366Y-266932399D01*
X140092399Y-265959366D01*
X140619000Y-264688038D01*
X140619000Y-263771063D01*
X146104666Y-258285398D01*
X146295372Y-258157972D01*
X146800181Y-257402473D01*
X146928302Y-256758365D01*
X148941000Y-258771064D01*
X148941000Y-259688038D01*
X149467601Y-260959366D01*
X150008235Y-261500000D01*
X149467601Y-262040634D01*
X148941000Y-263311962D01*
X148941000Y-264688038D01*
X149467601Y-265959366D01*
X150440634Y-266932399D01*
X151711962Y-267459000D01*
X153088038Y-267459000D01*
X154359366Y-266932399D01*
X155332399Y-265959366D01*
X155859000Y-264688038D01*
X155859000Y-263771063D01*
X173444167Y-246185897D01*
X173634872Y-246058472D01*
X173818225Y-245784066D01*
X174139681Y-245302973D01*
X174139681Y-245302972D01*
X174272200Y-244636754D01*
X174272200Y-244636751D01*
X174316945Y-244411801D01*
X174272200Y-244186851D01*
X174272200Y-180042263D01*
X190249086Y-196019149D01*
X190107601Y-196160634D01*
X189581000Y-197431962D01*
X189581000Y-198808038D01*
X190107601Y-200079366D01*
X190688235Y-200660000D01*
X190107601Y-201240634D01*
X189581000Y-202511962D01*
X189581000Y-203888038D01*
X190107601Y-205159366D01*
X191080634Y-206132399D01*
X192351962Y-206659000D01*
X193728038Y-206659000D01*
X194999366Y-206132399D01*
X195972399Y-205159366D01*
X196499000Y-203888038D01*
X196499000Y-202511962D01*
X196327245Y-202097309D01*
X202281000Y-208051064D01*
X202281000Y-208968038D01*
X202807601Y-210239366D01*
X203388235Y-210820000D01*
X202807601Y-211400634D01*
X202281000Y-212671962D01*
X202281000Y-214048038D01*
X202807601Y-215319366D01*
X203780634Y-216292399D01*
X205051962Y-216819000D01*
X206428038Y-216819000D01*
X207699366Y-216292399D01*
X208672399Y-215319366D01*
X209199000Y-214048038D01*
X209199000Y-212671962D01*
X208672399Y-211400634D01*
X208091765Y-210820000D01*
X208672399Y-210239366D01*
X209199000Y-208968038D01*
X209199000Y-207591962D01*
X208672399Y-206320634D01*
X208091765Y-205740000D01*
X208672399Y-205159366D01*
X209199000Y-203888038D01*
X209199000Y-202511962D01*
X208672399Y-201240634D01*
X208091765Y-200660000D01*
X208672399Y-200079366D01*
X209199000Y-198808038D01*
X209199000Y-197431962D01*
X208672399Y-196160634D01*
X208091765Y-195580000D01*
X208672399Y-194999366D01*
X209199000Y-193728038D01*
X209199000Y-192351962D01*
X208672399Y-191080634D01*
X208091765Y-190500000D01*
X208672399Y-189919366D01*
X209199000Y-188648038D01*
X209199000Y-187271962D01*
X208672399Y-186000634D01*
X208091765Y-185420000D01*
X208672399Y-184839366D01*
X209199000Y-183568038D01*
X209199000Y-182191962D01*
X208672399Y-180920634D01*
X208483713Y-180731948D01*
X208596552Y-180656552D01*
X209073733Y-179942400D01*
X209241297Y-179100000D01*
X209241297Y-176500000D01*
X209073733Y-175657600D01*
X208596552Y-174943448D01*
X207882400Y-174466267D01*
X207040000Y-174298703D01*
X204440000Y-174298703D01*
X203597600Y-174466267D01*
X202883448Y-174943448D01*
X202406267Y-175657600D01*
X202238703Y-176500000D01*
X202238703Y-179100000D01*
X202406267Y-179942400D01*
X202883448Y-180656552D01*
X202996287Y-180731948D01*
X202807601Y-180920634D01*
X202281000Y-182191962D01*
X202281000Y-183568038D01*
X202807601Y-184839366D01*
X203388235Y-185420000D01*
X202807601Y-186000634D01*
X202281000Y-187271962D01*
X202281000Y-188648038D01*
X202807601Y-189919366D01*
X203388235Y-190500000D01*
X202807601Y-191080634D01*
X202281000Y-192351962D01*
X202281000Y-193728038D01*
X202807601Y-194999366D01*
X203388235Y-195580000D01*
X202807601Y-196160634D01*
X202550762Y-196780698D01*
X195830914Y-190060851D01*
X195972399Y-189919366D01*
X196499000Y-188648038D01*
X196499000Y-187271962D01*
X195972399Y-186000634D01*
X195391765Y-185420000D01*
X195972399Y-184839366D01*
X196499000Y-183568038D01*
X196499000Y-182191962D01*
X195972399Y-180920634D01*
X195783713Y-180731948D01*
X195896552Y-180656552D01*
X196373733Y-179942400D01*
X196541297Y-179100000D01*
X196541297Y-176500000D01*
X196373733Y-175657600D01*
X195896552Y-174943448D01*
X195182400Y-174466267D01*
X194340000Y-174298703D01*
X191740000Y-174298703D01*
X190897600Y-174466267D01*
X190183448Y-174943448D01*
X189706267Y-175657600D01*
X189538703Y-176500000D01*
X189538703Y-179100000D01*
X189706267Y-179942400D01*
X190183448Y-180656552D01*
X190296287Y-180731948D01*
X190107601Y-180920634D01*
X189581000Y-182191962D01*
X189581000Y-183568038D01*
X189752755Y-183982692D01*
X176603600Y-170833537D01*
X176603600Y-163482017D01*
X218741000Y-163482017D01*
X218741000Y-164877983D01*
X219275214Y-166167689D01*
X220262311Y-167154786D01*
X221552017Y-167689000D01*
X222947983Y-167689000D01*
X224237689Y-167154786D01*
X225224786Y-166167689D01*
X225759000Y-164877983D01*
X225759000Y-163482017D01*
X225224786Y-162192311D01*
X224237689Y-161205214D01*
X222947983Y-160671000D01*
X221552017Y-160671000D01*
X220262311Y-161205214D01*
X219275214Y-162192311D01*
X218741000Y-163482017D01*
X176603600Y-163482017D01*
X176603600Y-152632017D01*
X218741000Y-152632017D01*
X218741000Y-154027983D01*
X219275214Y-155317689D01*
X220262311Y-156304786D01*
X221552017Y-156839000D01*
X222947983Y-156839000D01*
X224237689Y-156304786D01*
X225224786Y-155317689D01*
X225759000Y-154027983D01*
X225759000Y-152632017D01*
X225224786Y-151342311D01*
X224237689Y-150355214D01*
X222947983Y-149821000D01*
X221552017Y-149821000D01*
X220262311Y-150355214D01*
X219275214Y-151342311D01*
X218741000Y-152632017D01*
X176603600Y-152632017D01*
X176603600Y-94089749D01*
X176648345Y-93864799D01*
X176603600Y-93639849D01*
X176603600Y-93639846D01*
X176471081Y-92973627D01*
X176162011Y-92511072D01*
X176093698Y-92408834D01*
X175966272Y-92218128D01*
X175775566Y-92090702D01*
X163027357Y-79342494D01*
X163029000Y-79338527D01*
X163029000Y-78141473D01*
X162750867Y-77470000D01*
X163029000Y-76798527D01*
X163029000Y-75601473D01*
X162750867Y-74930000D01*
X163029000Y-74258527D01*
X163029000Y-73061473D01*
X162750867Y-72389999D01*
X163029000Y-71718527D01*
X163029000Y-70521473D01*
X162750867Y-69850000D01*
X163029000Y-69178527D01*
X163029000Y-67981473D01*
X162750867Y-67310000D01*
X163029000Y-66638527D01*
X163029000Y-65441473D01*
X162750867Y-64769999D01*
X163029000Y-64098527D01*
X163029000Y-62901473D01*
X162750867Y-62230000D01*
X163029000Y-61558527D01*
X163029000Y-60361473D01*
X162750867Y-59690000D01*
X163029000Y-59018527D01*
X163029000Y-57821473D01*
X162750867Y-57150000D01*
X163029000Y-56478527D01*
X163029000Y-55281473D01*
X162570907Y-54175538D01*
X161724462Y-53329093D01*
X161655495Y-53300526D01*
X161736012Y-53267175D01*
X162737175Y-52266012D01*
X163279000Y-50957929D01*
X163279000Y-49542071D01*
X162737175Y-48233988D01*
X161736012Y-47232825D01*
X160427929Y-46691000D01*
X159012071Y-46691000D01*
X157703988Y-47232825D01*
X156702825Y-48233988D01*
X156161000Y-49542071D01*
X156161000Y-50957929D01*
X156702825Y-52266012D01*
X157307813Y-52871000D01*
X156881473Y-52871000D01*
X155789960Y-53323119D01*
X151069000Y-48602161D01*
X151069000Y-43732765D01*
X151592399Y-43209366D01*
X152119000Y-41938038D01*
X152119000Y-40561962D01*
X151592399Y-39290634D01*
X150619366Y-38317601D01*
X149348038Y-37791000D01*
X147971962Y-37791000D01*
X146700634Y-38317601D01*
X146120000Y-38898235D01*
X145539366Y-38317601D01*
X144268038Y-37791000D01*
X142891962Y-37791000D01*
X141620634Y-38317601D01*
X141431948Y-38506287D01*
X141356552Y-38393448D01*
X140642400Y-37916267D01*
X139800000Y-37748703D01*
X137200000Y-37748703D01*
X136357600Y-37916267D01*
X135643448Y-38393448D01*
X135166267Y-39107600D01*
X134998703Y-39950000D01*
X134998703Y-42550000D01*
X135166267Y-43392400D01*
X135643448Y-44106552D01*
X136357600Y-44583733D01*
X137200000Y-44751297D01*
X139800000Y-44751297D01*
X140642400Y-44583733D01*
X141171000Y-44230534D01*
X141171000Y-74672725D01*
X141159981Y-74617327D01*
X140920238Y-74258527D01*
X140782598Y-74052534D01*
X140655172Y-73861828D01*
X140464467Y-73734403D01*
X132549000Y-65818937D01*
X132549000Y-65441473D01*
X132270867Y-64769999D01*
X132549000Y-64098527D01*
X132549000Y-62901473D01*
X132270867Y-62230000D01*
X132549000Y-61558527D01*
X132549000Y-60361473D01*
X132270867Y-59690000D01*
X132549000Y-59018527D01*
X132549000Y-57821473D01*
X132270867Y-57150000D01*
X132549000Y-56478527D01*
X132549000Y-55281473D01*
X132090907Y-54175538D01*
X131244462Y-53329093D01*
X131175495Y-53300526D01*
X131256012Y-53267175D01*
X132257175Y-52266012D01*
X132799000Y-50957929D01*
X132799000Y-49542071D01*
X132257175Y-48233988D01*
X131256012Y-47232825D01*
X129947929Y-46691000D01*
X128532071Y-46691000D01*
X127223988Y-47232825D01*
X126222825Y-48233988D01*
X125681000Y-49542071D01*
X125681000Y-50957929D01*
X126222825Y-52266012D01*
X126827813Y-52871000D01*
X126401473Y-52871000D01*
X125295538Y-53329093D01*
X124449093Y-54175538D01*
X123991000Y-55281473D01*
X123991000Y-56478527D01*
X124269133Y-57150000D01*
X123991000Y-57821473D01*
X123991000Y-59018527D01*
X124269133Y-59690000D01*
X123991000Y-60361473D01*
X123991000Y-61558527D01*
X124269133Y-62230000D01*
X123991000Y-62901473D01*
X123991000Y-64098527D01*
X124269133Y-64769999D01*
X123991000Y-65441473D01*
X123991000Y-66638527D01*
X124269133Y-67310000D01*
X123991000Y-67981473D01*
X123991000Y-69178527D01*
X124269133Y-69850000D01*
X123991000Y-70521473D01*
X123991000Y-71718527D01*
X124269133Y-72389999D01*
X123991000Y-73061473D01*
X123991000Y-74258527D01*
X124269133Y-74930000D01*
X123991000Y-75601473D01*
X123991000Y-76798527D01*
X124269133Y-77470000D01*
X123991000Y-78141473D01*
X123991000Y-79338527D01*
X124269133Y-80010000D01*
X123991000Y-80681473D01*
X123991000Y-81878527D01*
X124269133Y-82550000D01*
X123991000Y-83221473D01*
X123991000Y-84418527D01*
X124269133Y-85089999D01*
X123991000Y-85761473D01*
X123991000Y-86138936D01*
X112927900Y-97202037D01*
X112927900Y-78709448D01*
X112972645Y-78484499D01*
X112927900Y-78259551D01*
X112927900Y-78259546D01*
X112795381Y-77593327D01*
X112290572Y-76837828D01*
X112099866Y-76710402D01*
X102056988Y-66667525D01*
X102069000Y-66638527D01*
X102069000Y-65441473D01*
X101790867Y-64769999D01*
X102069000Y-64098527D01*
X102069000Y-62901473D01*
X101790867Y-62230000D01*
X102069000Y-61558527D01*
X102069000Y-60361473D01*
X101790867Y-59690000D01*
X102069000Y-59018527D01*
X102069000Y-57821473D01*
X101790867Y-57150000D01*
X102069000Y-56478527D01*
X102069000Y-55281473D01*
X101610907Y-54175538D01*
X100764462Y-53329093D01*
X100695495Y-53300526D01*
X100776012Y-53267175D01*
X101777175Y-52266012D01*
X102319000Y-50957929D01*
X102319000Y-49542071D01*
X101777175Y-48233988D01*
X100776012Y-47232825D01*
X99467929Y-46691000D01*
X98052071Y-46691000D01*
X96743988Y-47232825D01*
X95742825Y-48233988D01*
X95201000Y-49542071D01*
X95201000Y-50957929D01*
X95742825Y-52266012D01*
X96347813Y-52871000D01*
X95921473Y-52871000D01*
X94815538Y-53329093D01*
X93969093Y-54175538D01*
X93511000Y-55281473D01*
X93511000Y-55482159D01*
X86101801Y-62891360D01*
X77554794Y-54344355D01*
X77420392Y-54143208D01*
X76623545Y-53610772D01*
X75920865Y-53471000D01*
X75920860Y-53471000D01*
X75683600Y-53423806D01*
X75446340Y-53471000D01*
X70426369Y-53471000D01*
X70284462Y-53329093D01*
X70215495Y-53300526D01*
X70296012Y-53267175D01*
X71297175Y-52266012D01*
X71839000Y-50957929D01*
X71839000Y-49542071D01*
X71297175Y-48233988D01*
X70296012Y-47232825D01*
X68987929Y-46691000D01*
X67572071Y-46691000D01*
X66263988Y-47232825D01*
X65262825Y-48233988D01*
X64721000Y-49542071D01*
X64721000Y-50957929D01*
X65262825Y-52266012D01*
X65867813Y-52871000D01*
X65441473Y-52871000D01*
X64335538Y-53329093D01*
X63489093Y-54175538D01*
X63058120Y-55216000D01*
X61319000Y-55216000D01*
X61319000Y-43732765D01*
X61842399Y-43209366D01*
X62369000Y-41938038D01*
X62369000Y-40561962D01*
X61842399Y-39290634D01*
X60869366Y-38317601D01*
X59598038Y-37791000D01*
X58221962Y-37791000D01*
X56950634Y-38317601D01*
X56370000Y-38898235D01*
X55789366Y-38317601D01*
X54518038Y-37791000D01*
X53141962Y-37791000D01*
X51870634Y-38317601D01*
X51681948Y-38506287D01*
X51606552Y-38393448D01*
X50892400Y-37916267D01*
X50050000Y-37748703D01*
X47450000Y-37748703D01*
X46607600Y-37916267D01*
X45893448Y-38393448D01*
X45416267Y-39107600D01*
X45248703Y-39950000D01*
X45248703Y-42550000D01*
X45416267Y-43392400D01*
X45893448Y-44106552D01*
X46237032Y-44336128D01*
X41262957Y-49310203D01*
X40817175Y-48233988D01*
X39816012Y-47232825D01*
X38507929Y-46691000D01*
X37092071Y-46691000D01*
X35783988Y-47232825D01*
X34782825Y-48233988D01*
X34241000Y-49542071D01*
X34241000Y-50957929D01*
X34782825Y-52266012D01*
X35387813Y-52871000D01*
X34961473Y-52871000D01*
X33855538Y-53329093D01*
X33009093Y-54175538D01*
X32551000Y-55281473D01*
X32551000Y-56478527D01*
X32829133Y-57150000D01*
X32551000Y-57821473D01*
X32551000Y-59018527D01*
X32829133Y-59690000D01*
X32551000Y-60361473D01*
X32551000Y-61558527D01*
X32829133Y-62230000D01*
X32551000Y-62901473D01*
X32551000Y-64098527D01*
X32829133Y-64769999D01*
X32551000Y-65441473D01*
X32551000Y-66638527D01*
X32829133Y-67310000D01*
X32551000Y-67981473D01*
X32551000Y-69178527D01*
X32829133Y-69850000D01*
X32551000Y-70521473D01*
X32551000Y-70898936D01*
X23338836Y-80111100D01*
X23148128Y-80238528D01*
X22643319Y-80994028D01*
X22510800Y-81660247D01*
X22510800Y-81660250D01*
X22466055Y-81885200D01*
X22510800Y-82110150D01*
X22510800Y-152515653D01*
X22024786Y-151342311D01*
X21037689Y-150355214D01*
X19747983Y-149821000D01*
X19127000Y-149821000D01*
X19127000Y-41753331D01*
X19370491Y-37127000D01*
X227623000Y-37127000D01*
X227623000Y-280123000D01*
G36*
X42261000Y-228371064D02*
X42261000Y-229288038D01*
X42787601Y-230559366D01*
X43368235Y-231140000D01*
X42787601Y-231720634D01*
X42261000Y-232991962D01*
X42261000Y-234368038D01*
X42787601Y-235639366D01*
X43368235Y-236220000D01*
X42787601Y-236800634D01*
X42261000Y-238071962D01*
X42261000Y-239448038D01*
X42787601Y-240719366D01*
X43368235Y-241300000D01*
X42787601Y-241880634D01*
X42261000Y-243151962D01*
X42261000Y-244528038D01*
X42787601Y-245799366D01*
X43368235Y-246380000D01*
X42787601Y-246960634D01*
X42261000Y-248231962D01*
X42261000Y-249608038D01*
X42787601Y-250879366D01*
X43368235Y-251460000D01*
X42787601Y-252040634D01*
X42261000Y-253311962D01*
X42261000Y-254688038D01*
X42787601Y-255959366D01*
X43328235Y-256500000D01*
X42787601Y-257040634D01*
X42554194Y-257604130D01*
X34601800Y-249651737D01*
X34601800Y-233371854D01*
X34646546Y-233146900D01*
X34469281Y-232255728D01*
X34469281Y-232255727D01*
X33964472Y-231500228D01*
X33773766Y-231372802D01*
X33186364Y-230785401D01*
X33412399Y-230559366D01*
X33939000Y-229288038D01*
X33939000Y-227911962D01*
X33412399Y-226640634D01*
X32831765Y-226060000D01*
X33412399Y-225479366D01*
X33939000Y-224208038D01*
X33939000Y-222831962D01*
X33412399Y-221560634D01*
X32831765Y-220980000D01*
X33412399Y-220399366D01*
X33669238Y-219779301D01*
X42261000Y-228371064D01*
X42261000Y-228371064D01*
G37*
X42261000Y-228371064D02*
X42261000Y-229288038D01*
X42787601Y-230559366D01*
X43368235Y-231140000D01*
X42787601Y-231720634D01*
X42261000Y-232991962D01*
X42261000Y-234368038D01*
X42787601Y-235639366D01*
X43368235Y-236220000D01*
X42787601Y-236800634D01*
X42261000Y-238071962D01*
X42261000Y-239448038D01*
X42787601Y-240719366D01*
X43368235Y-241300000D01*
X42787601Y-241880634D01*
X42261000Y-243151962D01*
X42261000Y-244528038D01*
X42787601Y-245799366D01*
X43368235Y-246380000D01*
X42787601Y-246960634D01*
X42261000Y-248231962D01*
X42261000Y-249608038D01*
X42787601Y-250879366D01*
X43368235Y-251460000D01*
X42787601Y-252040634D01*
X42261000Y-253311962D01*
X42261000Y-254688038D01*
X42787601Y-255959366D01*
X43328235Y-256500000D01*
X42787601Y-257040634D01*
X42554194Y-257604130D01*
X34601800Y-249651737D01*
X34601800Y-233371854D01*
X34646546Y-233146900D01*
X34469281Y-232255728D01*
X34469281Y-232255727D01*
X33964472Y-231500228D01*
X33773766Y-231372802D01*
X33186364Y-230785401D01*
X33412399Y-230559366D01*
X33939000Y-229288038D01*
X33939000Y-227911962D01*
X33412399Y-226640634D01*
X32831765Y-226060000D01*
X33412399Y-225479366D01*
X33939000Y-224208038D01*
X33939000Y-222831962D01*
X33412399Y-221560634D01*
X32831765Y-220980000D01*
X33412399Y-220399366D01*
X33669238Y-219779301D01*
X42261000Y-228371064D01*
G36*
X164707601Y-205159366D02*
X165680634Y-206132399D01*
X166951962Y-206659000D01*
X168328038Y-206659000D01*
X169599366Y-206132399D01*
X169704200Y-206027565D01*
X169704200Y-243465736D01*
X155565807Y-257604130D01*
X155332399Y-257040634D01*
X154791765Y-256500000D01*
X155332399Y-255959366D01*
X155859000Y-254688038D01*
X155859000Y-253311962D01*
X155332399Y-252040634D01*
X154751765Y-251460000D01*
X155332399Y-250879366D01*
X155859000Y-249608038D01*
X155859000Y-248231962D01*
X155332399Y-246960634D01*
X154751765Y-246380000D01*
X155332399Y-245799366D01*
X155859000Y-244528038D01*
X155859000Y-243151962D01*
X155332399Y-241880634D01*
X154751765Y-241300000D01*
X155332399Y-240719366D01*
X155859000Y-239448038D01*
X155859000Y-238071962D01*
X155332399Y-236800634D01*
X154751765Y-236220000D01*
X155332399Y-235639366D01*
X155859000Y-234368038D01*
X155859000Y-232991962D01*
X155332399Y-231720634D01*
X154751765Y-231140000D01*
X155332399Y-230559366D01*
X155859000Y-229288038D01*
X155859000Y-227911962D01*
X155332399Y-226640634D01*
X154751765Y-226060000D01*
X155332399Y-225479366D01*
X155859000Y-224208038D01*
X155859000Y-222831962D01*
X155332399Y-221560634D01*
X154751765Y-220980000D01*
X155332399Y-220399366D01*
X155859000Y-219128038D01*
X155859000Y-217751962D01*
X155332399Y-216480634D01*
X154751765Y-215900000D01*
X155332399Y-215319366D01*
X155859000Y-214048038D01*
X155859000Y-213131063D01*
X164450762Y-204539302D01*
X164707601Y-205159366D01*
X164707601Y-205159366D01*
G37*
X164707601Y-205159366D02*
X165680634Y-206132399D01*
X166951962Y-206659000D01*
X168328038Y-206659000D01*
X169599366Y-206132399D01*
X169704200Y-206027565D01*
X169704200Y-243465736D01*
X155565807Y-257604130D01*
X155332399Y-257040634D01*
X154791765Y-256500000D01*
X155332399Y-255959366D01*
X155859000Y-254688038D01*
X155859000Y-253311962D01*
X155332399Y-252040634D01*
X154751765Y-251460000D01*
X155332399Y-250879366D01*
X155859000Y-249608038D01*
X155859000Y-248231962D01*
X155332399Y-246960634D01*
X154751765Y-246380000D01*
X155332399Y-245799366D01*
X155859000Y-244528038D01*
X155859000Y-243151962D01*
X155332399Y-241880634D01*
X154751765Y-241300000D01*
X155332399Y-240719366D01*
X155859000Y-239448038D01*
X155859000Y-238071962D01*
X155332399Y-236800634D01*
X154751765Y-236220000D01*
X155332399Y-235639366D01*
X155859000Y-234368038D01*
X155859000Y-232991962D01*
X155332399Y-231720634D01*
X154751765Y-231140000D01*
X155332399Y-230559366D01*
X155859000Y-229288038D01*
X155859000Y-227911962D01*
X155332399Y-226640634D01*
X154751765Y-226060000D01*
X155332399Y-225479366D01*
X155859000Y-224208038D01*
X155859000Y-222831962D01*
X155332399Y-221560634D01*
X154751765Y-220980000D01*
X155332399Y-220399366D01*
X155859000Y-219128038D01*
X155859000Y-217751962D01*
X155332399Y-216480634D01*
X154751765Y-215900000D01*
X155332399Y-215319366D01*
X155859000Y-214048038D01*
X155859000Y-213131063D01*
X164450762Y-204539302D01*
X164707601Y-205159366D01*
G36*
X50033900Y-251456036D02*
X48885806Y-252604130D01*
X48652399Y-252040634D01*
X48071765Y-251460000D01*
X48652399Y-250879366D01*
X49179000Y-249608038D01*
X49179000Y-248691063D01*
X50033900Y-247836163D01*
X50033900Y-251456036D01*
X50033900Y-251456036D01*
G37*
X50033900Y-251456036D02*
X48885806Y-252604130D01*
X48652399Y-252040634D01*
X48071765Y-251460000D01*
X48652399Y-250879366D01*
X49179000Y-249608038D01*
X49179000Y-248691063D01*
X50033900Y-247836163D01*
X50033900Y-251456036D01*
G36*
X57501000Y-248691064D02*
X57501000Y-249608038D01*
X58027601Y-250879366D01*
X58608235Y-251460000D01*
X58027601Y-252040634D01*
X57794193Y-252604130D01*
X56627300Y-251437237D01*
X56627300Y-247817364D01*
X57501000Y-248691064D01*
X57501000Y-248691064D01*
G37*
X57501000Y-248691064D02*
X57501000Y-249608038D01*
X58027601Y-250879366D01*
X58608235Y-251460000D01*
X58027601Y-252040634D01*
X57794193Y-252604130D01*
X56627300Y-251437237D01*
X56627300Y-247817364D01*
X57501000Y-248691064D01*
G36*
X27547601Y-250879366D02*
X28128235Y-251460000D01*
X27547601Y-252040634D01*
X27529100Y-252085299D01*
X27529100Y-250834701D01*
X27547601Y-250879366D01*
X27547601Y-250879366D01*
G37*
X27547601Y-250879366D02*
X28128235Y-251460000D01*
X27547601Y-252040634D01*
X27529100Y-252085299D01*
X27529100Y-250834701D01*
X27547601Y-250879366D01*
G36*
X72741000Y-232991962D02*
X72741000Y-234368038D01*
X73267601Y-235639366D01*
X73489536Y-235861301D01*
X64133471Y-245217365D01*
X64419000Y-244528038D01*
X64419000Y-243151962D01*
X63892399Y-241880634D01*
X63311765Y-241300000D01*
X63578991Y-241032774D01*
X64188773Y-240911481D01*
X64944272Y-240406672D01*
X65071700Y-240215963D01*
X73055873Y-232231790D01*
X72741000Y-232991962D01*
X72741000Y-232991962D01*
G37*
X72741000Y-232991962D02*
X72741000Y-234368038D01*
X73267601Y-235639366D01*
X73489536Y-235861301D01*
X64133471Y-245217365D01*
X64419000Y-244528038D01*
X64419000Y-243151962D01*
X63892399Y-241880634D01*
X63311765Y-241300000D01*
X63578991Y-241032774D01*
X64188773Y-240911481D01*
X64944272Y-240406672D01*
X65071700Y-240215963D01*
X73055873Y-232231790D01*
X72741000Y-232991962D01*
G36*
X28128235Y-241300000D02*
X27979400Y-241448835D01*
X27979400Y-241151165D01*
X28128235Y-241300000D01*
X28128235Y-241300000D01*
G37*
X28128235Y-241300000D02*
X27979400Y-241448835D01*
X27979400Y-241151165D01*
X28128235Y-241300000D01*
G36*
X58027601Y-235639366D02*
X58608235Y-236220000D01*
X58027601Y-236800634D01*
X57770762Y-237420699D01*
X57527900Y-237177837D01*
X57527900Y-234432980D01*
X58027601Y-235639366D01*
X58027601Y-235639366D01*
G37*
X58027601Y-235639366D02*
X58608235Y-236220000D01*
X58027601Y-236800634D01*
X57770762Y-237420699D01*
X57527900Y-237177837D01*
X57527900Y-234432980D01*
X58027601Y-235639366D01*
G36*
X49132601Y-237197335D02*
X48909238Y-237420698D01*
X48652399Y-236800634D01*
X48071765Y-236220000D01*
X48652399Y-235639366D01*
X49132601Y-234480055D01*
X49132601Y-237197335D01*
X49132601Y-237197335D01*
G37*
X49132601Y-237197335D02*
X48909238Y-237420698D01*
X48652399Y-236800634D01*
X48071765Y-236220000D01*
X48652399Y-235639366D01*
X49132601Y-234480055D01*
X49132601Y-237197335D01*
G36*
X140563501Y-237206435D02*
X140349238Y-237420698D01*
X140092399Y-236800634D01*
X139511765Y-236220000D01*
X140092399Y-235639366D01*
X140563501Y-234502025D01*
X140563501Y-237206435D01*
X140563501Y-237206435D01*
G37*
X140563501Y-237206435D02*
X140349238Y-237420698D01*
X140092399Y-236800634D01*
X139511765Y-236220000D01*
X140092399Y-235639366D01*
X140563501Y-234502025D01*
X140563501Y-237206435D01*
G36*
X125135728Y-199549072D02*
X125326436Y-199676500D01*
X133701000Y-208051064D01*
X133701000Y-208968038D01*
X134227601Y-210239366D01*
X134808235Y-210820000D01*
X134227601Y-211400634D01*
X133701000Y-212671962D01*
X133701000Y-214048038D01*
X134227601Y-215319366D01*
X134808235Y-215900000D01*
X134227601Y-216480634D01*
X133701000Y-217751962D01*
X133701000Y-219128038D01*
X134227601Y-220399366D01*
X134808235Y-220980000D01*
X134227601Y-221560634D01*
X133701000Y-222831962D01*
X133701000Y-224208038D01*
X134227601Y-225479366D01*
X134808235Y-226060000D01*
X134227601Y-226640634D01*
X133701000Y-227911962D01*
X133701000Y-229288038D01*
X134227601Y-230559366D01*
X134808235Y-231140000D01*
X134227601Y-231720634D01*
X133701000Y-232991962D01*
X133701000Y-234368038D01*
X134227601Y-235639366D01*
X134808235Y-236220000D01*
X134552235Y-236476000D01*
X130703664Y-236476000D01*
X124819714Y-230592051D01*
X124852399Y-230559366D01*
X125379000Y-229288038D01*
X125379000Y-227911962D01*
X124852399Y-226640634D01*
X124271765Y-226060000D01*
X124852399Y-225479366D01*
X125379000Y-224208038D01*
X125379000Y-222831962D01*
X124852399Y-221560634D01*
X124271765Y-220980000D01*
X124852399Y-220399366D01*
X125379000Y-219128038D01*
X125379000Y-217751962D01*
X124852399Y-216480634D01*
X124271765Y-215900000D01*
X124852399Y-215319366D01*
X125379000Y-214048038D01*
X125379000Y-212671962D01*
X124852399Y-211400634D01*
X124271765Y-210820000D01*
X124852399Y-210239366D01*
X125379000Y-208968038D01*
X125379000Y-207591962D01*
X124852399Y-206320634D01*
X124271765Y-205740000D01*
X124852399Y-205159366D01*
X125379000Y-203888038D01*
X125379000Y-202511962D01*
X124852399Y-201240634D01*
X124271765Y-200660000D01*
X124852399Y-200079366D01*
X125096421Y-199490245D01*
X125135728Y-199549072D01*
X125135728Y-199549072D01*
G37*
X125135728Y-199549072D02*
X125326436Y-199676500D01*
X133701000Y-208051064D01*
X133701000Y-208968038D01*
X134227601Y-210239366D01*
X134808235Y-210820000D01*
X134227601Y-211400634D01*
X133701000Y-212671962D01*
X133701000Y-214048038D01*
X134227601Y-215319366D01*
X134808235Y-215900000D01*
X134227601Y-216480634D01*
X133701000Y-217751962D01*
X133701000Y-219128038D01*
X134227601Y-220399366D01*
X134808235Y-220980000D01*
X134227601Y-221560634D01*
X133701000Y-222831962D01*
X133701000Y-224208038D01*
X134227601Y-225479366D01*
X134808235Y-226060000D01*
X134227601Y-226640634D01*
X133701000Y-227911962D01*
X133701000Y-229288038D01*
X134227601Y-230559366D01*
X134808235Y-231140000D01*
X134227601Y-231720634D01*
X133701000Y-232991962D01*
X133701000Y-234368038D01*
X134227601Y-235639366D01*
X134808235Y-236220000D01*
X134552235Y-236476000D01*
X130703664Y-236476000D01*
X124819714Y-230592051D01*
X124852399Y-230559366D01*
X125379000Y-229288038D01*
X125379000Y-227911962D01*
X124852399Y-226640634D01*
X124271765Y-226060000D01*
X124852399Y-225479366D01*
X125379000Y-224208038D01*
X125379000Y-222831962D01*
X124852399Y-221560634D01*
X124271765Y-220980000D01*
X124852399Y-220399366D01*
X125379000Y-219128038D01*
X125379000Y-217751962D01*
X124852399Y-216480634D01*
X124271765Y-215900000D01*
X124852399Y-215319366D01*
X125379000Y-214048038D01*
X125379000Y-212671962D01*
X124852399Y-211400634D01*
X124271765Y-210820000D01*
X124852399Y-210239366D01*
X125379000Y-208968038D01*
X125379000Y-207591962D01*
X124852399Y-206320634D01*
X124271765Y-205740000D01*
X124852399Y-205159366D01*
X125379000Y-203888038D01*
X125379000Y-202511962D01*
X124852399Y-201240634D01*
X124271765Y-200660000D01*
X124852399Y-200079366D01*
X125096421Y-199490245D01*
X125135728Y-199549072D01*
G36*
X28128235Y-236220000D02*
X27979400Y-236368835D01*
X27979400Y-236071165D01*
X28128235Y-236220000D01*
X28128235Y-236220000D01*
G37*
X28128235Y-236220000D02*
X27979400Y-236368835D01*
X27979400Y-236071165D01*
X28128235Y-236220000D01*
G36*
X71268519Y-221631172D02*
X71571437Y-222084519D01*
X71773329Y-222386672D01*
X71964034Y-222514097D01*
X72741000Y-223291063D01*
X72741000Y-224208038D01*
X73267601Y-225479366D01*
X73307886Y-225519651D01*
X64390363Y-234437174D01*
X64419000Y-234368038D01*
X64419000Y-232991962D01*
X63892399Y-231720634D01*
X63311765Y-231140000D01*
X63892399Y-230559366D01*
X64419000Y-229288038D01*
X64419000Y-228371063D01*
X71250331Y-221539733D01*
X71268519Y-221631172D01*
X71268519Y-221631172D01*
G37*
X71268519Y-221631172D02*
X71571437Y-222084519D01*
X71773329Y-222386672D01*
X71964034Y-222514097D01*
X72741000Y-223291063D01*
X72741000Y-224208038D01*
X73267601Y-225479366D01*
X73307886Y-225519651D01*
X64390363Y-234437174D01*
X64419000Y-234368038D01*
X64419000Y-232991962D01*
X63892399Y-231720634D01*
X63311765Y-231140000D01*
X63892399Y-230559366D01*
X64419000Y-229288038D01*
X64419000Y-228371063D01*
X71250331Y-221539733D01*
X71268519Y-221631172D01*
G36*
X58027601Y-225479366D02*
X58608235Y-226060000D01*
X58027601Y-226640634D01*
X57978200Y-226759899D01*
X57978200Y-225360101D01*
X58027601Y-225479366D01*
X58027601Y-225479366D01*
G37*
X58027601Y-225479366D02*
X58608235Y-226060000D01*
X58027601Y-226640634D01*
X57978200Y-226759899D01*
X57978200Y-225360101D01*
X58027601Y-225479366D01*
G36*
X48682301Y-226712824D02*
X48652399Y-226640634D01*
X48071765Y-226060000D01*
X48652399Y-225479366D01*
X48682301Y-225407176D01*
X48682301Y-226712824D01*
X48682301Y-226712824D01*
G37*
X48682301Y-226712824D02*
X48652399Y-226640634D01*
X48071765Y-226060000D01*
X48652399Y-225479366D01*
X48682301Y-225407176D01*
X48682301Y-226712824D01*
G36*
X33153448Y-137026552D02*
X33867600Y-137503733D01*
X34710000Y-137671297D01*
X35345516Y-137671297D01*
X34782825Y-138233988D01*
X34241000Y-139542071D01*
X34241000Y-140957929D01*
X34782825Y-142266012D01*
X35783988Y-143267175D01*
X37092071Y-143809000D01*
X38507929Y-143809000D01*
X39816012Y-143267175D01*
X40286501Y-142796686D01*
X40286500Y-189665550D01*
X40241755Y-189890500D01*
X40286500Y-190115450D01*
X40286500Y-190115453D01*
X40419019Y-190781672D01*
X40923828Y-191537172D01*
X41114536Y-191664599D01*
X42261000Y-192811063D01*
X42261000Y-193728038D01*
X42787601Y-194999366D01*
X43368235Y-195580000D01*
X42787601Y-196160634D01*
X42261000Y-197431962D01*
X42261000Y-198808038D01*
X42787601Y-200079366D01*
X43368235Y-200660000D01*
X42787601Y-201240634D01*
X42261000Y-202511962D01*
X42261000Y-203888038D01*
X42787601Y-205159366D01*
X43368235Y-205740000D01*
X42787601Y-206320634D01*
X42261000Y-207591962D01*
X42261000Y-208968038D01*
X42787601Y-210239366D01*
X43368235Y-210820000D01*
X42787601Y-211400634D01*
X42261000Y-212671962D01*
X42261000Y-214048038D01*
X42787601Y-215319366D01*
X43368235Y-215900000D01*
X42787601Y-216480634D01*
X42261000Y-217751962D01*
X42261000Y-219128038D01*
X42787601Y-220399366D01*
X43368235Y-220980000D01*
X42787601Y-221560634D01*
X42530762Y-222180698D01*
X35112400Y-214762337D01*
X35112400Y-198314054D01*
X35157146Y-198089100D01*
X34979881Y-197197927D01*
X34602498Y-196633134D01*
X34475072Y-196442428D01*
X34284366Y-196315002D01*
X33190564Y-195221201D01*
X33412399Y-194999366D01*
X33939000Y-193728038D01*
X33939000Y-192351962D01*
X33412399Y-191080634D01*
X32831765Y-190500000D01*
X33412399Y-189919366D01*
X33939000Y-188648038D01*
X33939000Y-187271962D01*
X33412399Y-186000634D01*
X32831765Y-185420000D01*
X33412399Y-184839366D01*
X33939000Y-183568038D01*
X33939000Y-182191962D01*
X33412399Y-180920634D01*
X33223713Y-180731948D01*
X33336552Y-180656552D01*
X33813733Y-179942400D01*
X33981297Y-179100000D01*
X33981297Y-176500000D01*
X33813733Y-175657600D01*
X33336552Y-174943448D01*
X32764000Y-174560881D01*
X32764000Y-136443702D01*
X33153448Y-137026552D01*
X33153448Y-137026552D01*
G37*
X33153448Y-137026552D02*
X33867600Y-137503733D01*
X34710000Y-137671297D01*
X35345516Y-137671297D01*
X34782825Y-138233988D01*
X34241000Y-139542071D01*
X34241000Y-140957929D01*
X34782825Y-142266012D01*
X35783988Y-143267175D01*
X37092071Y-143809000D01*
X38507929Y-143809000D01*
X39816012Y-143267175D01*
X40286501Y-142796686D01*
X40286500Y-189665550D01*
X40241755Y-189890500D01*
X40286500Y-190115450D01*
X40286500Y-190115453D01*
X40419019Y-190781672D01*
X40923828Y-191537172D01*
X41114536Y-191664599D01*
X42261000Y-192811063D01*
X42261000Y-193728038D01*
X42787601Y-194999366D01*
X43368235Y-195580000D01*
X42787601Y-196160634D01*
X42261000Y-197431962D01*
X42261000Y-198808038D01*
X42787601Y-200079366D01*
X43368235Y-200660000D01*
X42787601Y-201240634D01*
X42261000Y-202511962D01*
X42261000Y-203888038D01*
X42787601Y-205159366D01*
X43368235Y-205740000D01*
X42787601Y-206320634D01*
X42261000Y-207591962D01*
X42261000Y-208968038D01*
X42787601Y-210239366D01*
X43368235Y-210820000D01*
X42787601Y-211400634D01*
X42261000Y-212671962D01*
X42261000Y-214048038D01*
X42787601Y-215319366D01*
X43368235Y-215900000D01*
X42787601Y-216480634D01*
X42261000Y-217751962D01*
X42261000Y-219128038D01*
X42787601Y-220399366D01*
X43368235Y-220980000D01*
X42787601Y-221560634D01*
X42530762Y-222180698D01*
X35112400Y-214762337D01*
X35112400Y-198314054D01*
X35157146Y-198089100D01*
X34979881Y-197197927D01*
X34602498Y-196633134D01*
X34475072Y-196442428D01*
X34284366Y-196315002D01*
X33190564Y-195221201D01*
X33412399Y-194999366D01*
X33939000Y-193728038D01*
X33939000Y-192351962D01*
X33412399Y-191080634D01*
X32831765Y-190500000D01*
X33412399Y-189919366D01*
X33939000Y-188648038D01*
X33939000Y-187271962D01*
X33412399Y-186000634D01*
X32831765Y-185420000D01*
X33412399Y-184839366D01*
X33939000Y-183568038D01*
X33939000Y-182191962D01*
X33412399Y-180920634D01*
X33223713Y-180731948D01*
X33336552Y-180656552D01*
X33813733Y-179942400D01*
X33981297Y-179100000D01*
X33981297Y-176500000D01*
X33813733Y-175657600D01*
X33336552Y-174943448D01*
X32764000Y-174560881D01*
X32764000Y-136443702D01*
X33153448Y-137026552D01*
G36*
X58027601Y-220399366D02*
X58608235Y-220980000D01*
X58027601Y-221560634D01*
X57978200Y-221679899D01*
X57978200Y-220280101D01*
X58027601Y-220399366D01*
X58027601Y-220399366D01*
G37*
X58027601Y-220399366D02*
X58608235Y-220980000D01*
X58027601Y-221560634D01*
X57978200Y-221679899D01*
X57978200Y-220280101D01*
X58027601Y-220399366D01*
G36*
X100442601Y-216367335D02*
X95139988Y-221669949D01*
X95066042Y-221559281D01*
X94839498Y-221220234D01*
X94712072Y-221029528D01*
X94521366Y-220902102D01*
X94195514Y-220576251D01*
X94372399Y-220399366D01*
X94899000Y-219128038D01*
X94899000Y-218211063D01*
X100442601Y-212667463D01*
X100442601Y-216367335D01*
X100442601Y-216367335D01*
G37*
X100442601Y-216367335D02*
X95139988Y-221669949D01*
X95066042Y-221559281D01*
X94839498Y-221220234D01*
X94712072Y-221029528D01*
X94521366Y-220902102D01*
X94195514Y-220576251D01*
X94372399Y-220399366D01*
X94899000Y-219128038D01*
X94899000Y-218211063D01*
X100442601Y-212667463D01*
X100442601Y-216367335D01*
G36*
X68650184Y-194570257D02*
X69370043Y-195290116D01*
X69785200Y-195462080D01*
X69785201Y-213647493D01*
X69528600Y-214266983D01*
X69528600Y-215285017D01*
X69918184Y-216225557D01*
X70011282Y-216318655D01*
X68642500Y-217687436D01*
X68642500Y-194551706D01*
X68650184Y-194570257D01*
X68650184Y-194570257D01*
G37*
X68650184Y-194570257D02*
X69370043Y-195290116D01*
X69785200Y-195462080D01*
X69785201Y-213647493D01*
X69528600Y-214266983D01*
X69528600Y-215285017D01*
X69918184Y-216225557D01*
X70011282Y-216318655D01*
X68642500Y-217687436D01*
X68642500Y-194551706D01*
X68650184Y-194570257D01*
G36*
X64074500Y-216920265D02*
X63892399Y-216480634D01*
X63311765Y-215900000D01*
X63892399Y-215319366D01*
X64074500Y-214879735D01*
X64074500Y-216920265D01*
X64074500Y-216920265D01*
G37*
X64074500Y-216920265D02*
X63892399Y-216480634D01*
X63311765Y-215900000D01*
X63892399Y-215319366D01*
X64074500Y-214879735D01*
X64074500Y-216920265D01*
G36*
X64074500Y-211840265D02*
X63892399Y-211400634D01*
X63311765Y-210820000D01*
X63892399Y-210239366D01*
X64074500Y-209799735D01*
X64074500Y-211840265D01*
X64074500Y-211840265D01*
G37*
X64074500Y-211840265D02*
X63892399Y-211400634D01*
X63311765Y-210820000D01*
X63892399Y-210239366D01*
X64074500Y-209799735D01*
X64074500Y-211840265D01*
G36*
X99542001Y-205692426D02*
X99381484Y-205852943D01*
X98991900Y-206793483D01*
X98991900Y-207658036D01*
X95349400Y-211300536D01*
X95349400Y-207751154D01*
X95394146Y-207526200D01*
X95316502Y-207135854D01*
X95216881Y-206635027D01*
X94898190Y-206158073D01*
X94839498Y-206070234D01*
X94712072Y-205879528D01*
X94521366Y-205752102D01*
X94150514Y-205381251D01*
X94372399Y-205159366D01*
X94899000Y-203888038D01*
X94899000Y-203497563D01*
X99542001Y-198854563D01*
X99542001Y-205692426D01*
X99542001Y-205692426D01*
G37*
X99542001Y-205692426D02*
X99381484Y-205852943D01*
X98991900Y-206793483D01*
X98991900Y-207658036D01*
X95349400Y-211300536D01*
X95349400Y-207751154D01*
X95394146Y-207526200D01*
X95316502Y-207135854D01*
X95216881Y-206635027D01*
X94898190Y-206158073D01*
X94839498Y-206070234D01*
X94712072Y-205879528D01*
X94521366Y-205752102D01*
X94150514Y-205381251D01*
X94372399Y-205159366D01*
X94899000Y-203888038D01*
X94899000Y-203497563D01*
X99542001Y-198854563D01*
X99542001Y-205692426D01*
G36*
X165356000Y-138106064D02*
X165356001Y-174560880D01*
X164783448Y-174943448D01*
X164306267Y-175657600D01*
X164138703Y-176500000D01*
X164138703Y-179100000D01*
X164306267Y-179942400D01*
X164783448Y-180656552D01*
X164896287Y-180731948D01*
X164707601Y-180920634D01*
X164181000Y-182191962D01*
X164181000Y-183568038D01*
X164707601Y-184839366D01*
X165288235Y-185420000D01*
X164707601Y-186000634D01*
X164181000Y-187271962D01*
X164181000Y-188648038D01*
X164707601Y-189919366D01*
X164961586Y-190173351D01*
X164211634Y-190923303D01*
X164020929Y-191050728D01*
X163893503Y-191241434D01*
X163893502Y-191241435D01*
X163516119Y-191806228D01*
X163338855Y-192697400D01*
X163383601Y-192922354D01*
X163383600Y-199146336D01*
X155589238Y-206940699D01*
X155332399Y-206320634D01*
X154751765Y-205740000D01*
X155332399Y-205159366D01*
X155859000Y-203888038D01*
X155859000Y-202511962D01*
X155332399Y-201240634D01*
X154751765Y-200660000D01*
X155332399Y-200079366D01*
X155859000Y-198808038D01*
X155859000Y-197431962D01*
X155332399Y-196160634D01*
X154751765Y-195580000D01*
X155332399Y-194999366D01*
X155859000Y-193728038D01*
X155859000Y-192811063D01*
X158530067Y-190139997D01*
X158720772Y-190012572D01*
X159046911Y-189524472D01*
X159225581Y-189257073D01*
X159315994Y-188802534D01*
X159358100Y-188590854D01*
X159358100Y-188590853D01*
X159402846Y-188365900D01*
X159358100Y-188140946D01*
X159358100Y-143809000D01*
X160427929Y-143809000D01*
X161736012Y-143267175D01*
X162737175Y-142266012D01*
X163279000Y-140957929D01*
X163279000Y-139542071D01*
X162737175Y-138233988D01*
X161736012Y-137232825D01*
X161655495Y-137199474D01*
X161724462Y-137170907D01*
X162570907Y-136324462D01*
X162864823Y-135614886D01*
X165356000Y-138106064D01*
X165356000Y-138106064D01*
G37*
X165356000Y-138106064D02*
X165356001Y-174560880D01*
X164783448Y-174943448D01*
X164306267Y-175657600D01*
X164138703Y-176500000D01*
X164138703Y-179100000D01*
X164306267Y-179942400D01*
X164783448Y-180656552D01*
X164896287Y-180731948D01*
X164707601Y-180920634D01*
X164181000Y-182191962D01*
X164181000Y-183568038D01*
X164707601Y-184839366D01*
X165288235Y-185420000D01*
X164707601Y-186000634D01*
X164181000Y-187271962D01*
X164181000Y-188648038D01*
X164707601Y-189919366D01*
X164961586Y-190173351D01*
X164211634Y-190923303D01*
X164020929Y-191050728D01*
X163893503Y-191241434D01*
X163893502Y-191241435D01*
X163516119Y-191806228D01*
X163338855Y-192697400D01*
X163383601Y-192922354D01*
X163383600Y-199146336D01*
X155589238Y-206940699D01*
X155332399Y-206320634D01*
X154751765Y-205740000D01*
X155332399Y-205159366D01*
X155859000Y-203888038D01*
X155859000Y-202511962D01*
X155332399Y-201240634D01*
X154751765Y-200660000D01*
X155332399Y-200079366D01*
X155859000Y-198808038D01*
X155859000Y-197431962D01*
X155332399Y-196160634D01*
X154751765Y-195580000D01*
X155332399Y-194999366D01*
X155859000Y-193728038D01*
X155859000Y-192811063D01*
X158530067Y-190139997D01*
X158720772Y-190012572D01*
X159046911Y-189524472D01*
X159225581Y-189257073D01*
X159315994Y-188802534D01*
X159358100Y-188590854D01*
X159358100Y-188590853D01*
X159402846Y-188365900D01*
X159358100Y-188140946D01*
X159358100Y-143809000D01*
X160427929Y-143809000D01*
X161736012Y-143267175D01*
X162737175Y-142266012D01*
X163279000Y-140957929D01*
X163279000Y-139542071D01*
X162737175Y-138233988D01*
X161736012Y-137232825D01*
X161655495Y-137199474D01*
X161724462Y-137170907D01*
X162570907Y-136324462D01*
X162864823Y-135614886D01*
X165356000Y-138106064D01*
G36*
X64074500Y-206760265D02*
X63892399Y-206320634D01*
X63311765Y-205740000D01*
X63892399Y-205159366D01*
X64074500Y-204719735D01*
X64074500Y-206760265D01*
X64074500Y-206760265D01*
G37*
X64074500Y-206760265D02*
X63892399Y-206320634D01*
X63311765Y-205740000D01*
X63892399Y-205159366D01*
X64074500Y-204719735D01*
X64074500Y-206760265D01*
G36*
X124593448Y-137026552D02*
X125307600Y-137503733D01*
X126150000Y-137671297D01*
X126177874Y-137671297D01*
X126197919Y-137772072D01*
X126392913Y-138063900D01*
X126222825Y-138233988D01*
X125681000Y-139542071D01*
X125681000Y-140957929D01*
X126222825Y-142266012D01*
X127223988Y-143267175D01*
X128532071Y-143809000D01*
X129661701Y-143809000D01*
X129661700Y-177440750D01*
X129616955Y-177665700D01*
X129661700Y-177890650D01*
X129661700Y-177890653D01*
X129794219Y-178556872D01*
X130299028Y-179312372D01*
X130489736Y-179439799D01*
X133701000Y-182651064D01*
X133701000Y-183568038D01*
X134227601Y-184839366D01*
X134808235Y-185420000D01*
X134227601Y-186000634D01*
X133701000Y-187271962D01*
X133701000Y-188648038D01*
X134227601Y-189919366D01*
X134808235Y-190500000D01*
X134227601Y-191080634D01*
X133701000Y-192351962D01*
X133701000Y-193728038D01*
X134227601Y-194999366D01*
X134808235Y-195580000D01*
X134227601Y-196160634D01*
X133701000Y-197431962D01*
X133701000Y-198808038D01*
X134227601Y-200079366D01*
X134808235Y-200660000D01*
X134227601Y-201240634D01*
X133970762Y-201860698D01*
X129066400Y-196956337D01*
X129066400Y-185591750D01*
X129111145Y-185366800D01*
X129066400Y-185141850D01*
X129066400Y-185141846D01*
X128933881Y-184475627D01*
X128429072Y-183720128D01*
X128238366Y-183592702D01*
X124987103Y-180341440D01*
X125253733Y-179942400D01*
X125421297Y-179100000D01*
X125421297Y-176500000D01*
X125253733Y-175657600D01*
X124776552Y-174943448D01*
X124204000Y-174560881D01*
X124204000Y-136443702D01*
X124593448Y-137026552D01*
X124593448Y-137026552D01*
G37*
X124593448Y-137026552D02*
X125307600Y-137503733D01*
X126150000Y-137671297D01*
X126177874Y-137671297D01*
X126197919Y-137772072D01*
X126392913Y-138063900D01*
X126222825Y-138233988D01*
X125681000Y-139542071D01*
X125681000Y-140957929D01*
X126222825Y-142266012D01*
X127223988Y-143267175D01*
X128532071Y-143809000D01*
X129661701Y-143809000D01*
X129661700Y-177440750D01*
X129616955Y-177665700D01*
X129661700Y-177890650D01*
X129661700Y-177890653D01*
X129794219Y-178556872D01*
X130299028Y-179312372D01*
X130489736Y-179439799D01*
X133701000Y-182651064D01*
X133701000Y-183568038D01*
X134227601Y-184839366D01*
X134808235Y-185420000D01*
X134227601Y-186000634D01*
X133701000Y-187271962D01*
X133701000Y-188648038D01*
X134227601Y-189919366D01*
X134808235Y-190500000D01*
X134227601Y-191080634D01*
X133701000Y-192351962D01*
X133701000Y-193728038D01*
X134227601Y-194999366D01*
X134808235Y-195580000D01*
X134227601Y-196160634D01*
X133701000Y-197431962D01*
X133701000Y-198808038D01*
X134227601Y-200079366D01*
X134808235Y-200660000D01*
X134227601Y-201240634D01*
X133970762Y-201860698D01*
X129066400Y-196956337D01*
X129066400Y-185591750D01*
X129111145Y-185366800D01*
X129066400Y-185141850D01*
X129066400Y-185141846D01*
X128933881Y-184475627D01*
X128429072Y-183720128D01*
X128238366Y-183592702D01*
X124987103Y-180341440D01*
X125253733Y-179942400D01*
X125421297Y-179100000D01*
X125421297Y-176500000D01*
X125253733Y-175657600D01*
X124776552Y-174943448D01*
X124204000Y-174560881D01*
X124204000Y-136443702D01*
X124593448Y-137026552D01*
G36*
X64074500Y-201680265D02*
X63892399Y-201240634D01*
X63311765Y-200660000D01*
X63892399Y-200079366D01*
X64074500Y-199639734D01*
X64074500Y-201680265D01*
X64074500Y-201680265D01*
G37*
X64074500Y-201680265D02*
X63892399Y-201240634D01*
X63311765Y-200660000D01*
X63892399Y-200079366D01*
X64074500Y-199639734D01*
X64074500Y-201680265D01*
G36*
X64074500Y-196600266D02*
X63892399Y-196160634D01*
X63311765Y-195580000D01*
X63892399Y-194999366D01*
X64074500Y-194559734D01*
X64074500Y-196600266D01*
X64074500Y-196600266D01*
G37*
X64074500Y-196600266D02*
X63892399Y-196160634D01*
X63311765Y-195580000D01*
X63892399Y-194999366D01*
X64074500Y-194559734D01*
X64074500Y-196600266D01*
G36*
X124498400Y-195806635D02*
X124271765Y-195580000D01*
X124498400Y-195353365D01*
X124498400Y-195806635D01*
X124498400Y-195806635D01*
G37*
X124498400Y-195806635D02*
X124271765Y-195580000D01*
X124498400Y-195353365D01*
X124498400Y-195806635D01*
G36*
X97984084Y-192942157D02*
X98091300Y-193049373D01*
X98091300Y-193845136D01*
X97606800Y-194329636D01*
X97606800Y-192031312D01*
X97984084Y-192942157D01*
X97984084Y-192942157D01*
G37*
X97984084Y-192942157D02*
X98091300Y-193049373D01*
X98091300Y-193845136D01*
X97606800Y-194329636D01*
X97606800Y-192031312D01*
X97984084Y-192942157D01*
G36*
X64074500Y-191520266D02*
X63892399Y-191080634D01*
X63311765Y-190500000D01*
X63892399Y-189919366D01*
X64074500Y-189479734D01*
X64074500Y-191520266D01*
X64074500Y-191520266D01*
G37*
X64074500Y-191520266D02*
X63892399Y-191080634D01*
X63311765Y-190500000D01*
X63892399Y-189919366D01*
X64074500Y-189479734D01*
X64074500Y-191520266D01*
G36*
X97869501Y-176818274D02*
X97869501Y-190319671D01*
X97606800Y-190953888D01*
X97606800Y-176555573D01*
X97869501Y-176818274D01*
X97869501Y-176818274D01*
G37*
X97869501Y-176818274D02*
X97869501Y-190319671D01*
X97606800Y-190953888D01*
X97606800Y-176555573D01*
X97869501Y-176818274D01*
G36*
X124498401Y-190726636D02*
X124271765Y-190500000D01*
X124498401Y-190273364D01*
X124498401Y-190726636D01*
X124498401Y-190726636D01*
G37*
X124498401Y-190726636D02*
X124271765Y-190500000D01*
X124498401Y-190273364D01*
X124498401Y-190726636D01*
G36*
X64074500Y-186440266D02*
X63892399Y-186000634D01*
X63311765Y-185420000D01*
X63892399Y-184839366D01*
X64074500Y-184399734D01*
X64074500Y-186440266D01*
X64074500Y-186440266D01*
G37*
X64074500Y-186440266D02*
X63892399Y-186000634D01*
X63311765Y-185420000D01*
X63892399Y-184839366D01*
X64074500Y-184399734D01*
X64074500Y-186440266D01*
G36*
X154790100Y-185458335D02*
X154751765Y-185420000D01*
X154790100Y-185381665D01*
X154790100Y-185458335D01*
X154790100Y-185458335D01*
G37*
X154790100Y-185458335D02*
X154751765Y-185420000D01*
X154790100Y-185381665D01*
X154790100Y-185458335D01*
G36*
X64074500Y-181360266D02*
X63892399Y-180920634D01*
X63703713Y-180731948D01*
X63816552Y-180656552D01*
X64074500Y-180270505D01*
X64074500Y-181360266D01*
X64074500Y-181360266D01*
G37*
X64074500Y-181360266D02*
X63892399Y-180920634D01*
X63703713Y-180731948D01*
X63816552Y-180656552D01*
X64074500Y-180270505D01*
X64074500Y-181360266D01*
G36*
X63633448Y-137026552D02*
X64039068Y-137297579D01*
X64029755Y-137344400D01*
X64074501Y-137569355D01*
X64074501Y-175329495D01*
X63816552Y-174943448D01*
X63244000Y-174560881D01*
X63244000Y-136443702D01*
X63633448Y-137026552D01*
X63633448Y-137026552D01*
G37*
X63633448Y-137026552D02*
X64039068Y-137297579D01*
X64029755Y-137344400D01*
X64074501Y-137569355D01*
X64074501Y-175329495D01*
X63816552Y-174943448D01*
X63244000Y-174560881D01*
X63244000Y-136443702D01*
X63633448Y-137026552D01*
G36*
X134876000Y-138106064D02*
X134876001Y-174560880D01*
X134303448Y-174943448D01*
X134229700Y-175053820D01*
X134229700Y-140702149D01*
X134274445Y-140477199D01*
X134229700Y-140252249D01*
X134229700Y-140252246D01*
X134097181Y-139586027D01*
X134091580Y-139577645D01*
X133719798Y-139021234D01*
X133592372Y-138830528D01*
X133401666Y-138703102D01*
X131556966Y-136858403D01*
X132090907Y-136324462D01*
X132384823Y-135614886D01*
X134876000Y-138106064D01*
X134876000Y-138106064D01*
G37*
X134876000Y-138106064D02*
X134876001Y-174560880D01*
X134303448Y-174943448D01*
X134229700Y-175053820D01*
X134229700Y-140702149D01*
X134274445Y-140477199D01*
X134229700Y-140252249D01*
X134229700Y-140252246D01*
X134097181Y-139586027D01*
X134091580Y-139577645D01*
X133719798Y-139021234D01*
X133592372Y-138830528D01*
X133401666Y-138703102D01*
X131556966Y-136858403D01*
X132090907Y-136324462D01*
X132384823Y-135614886D01*
X134876000Y-138106064D01*
G36*
X153339501Y-174298703D02*
X153058600Y-174298703D01*
X153058600Y-132111463D01*
X153339500Y-131830563D01*
X153339501Y-174298703D01*
X153339501Y-174298703D01*
G37*
X153339501Y-174298703D02*
X153058600Y-174298703D01*
X153058600Y-132111463D01*
X153339500Y-131830563D01*
X153339501Y-174298703D01*
G36*
X22510800Y-163365653D02*
X22024786Y-162192311D01*
X21037689Y-161205214D01*
X19747983Y-160671000D01*
X19127000Y-160671000D01*
X19127000Y-156839000D01*
X19747983Y-156839000D01*
X21037689Y-156304786D01*
X22024786Y-155317689D01*
X22510800Y-154144347D01*
X22510800Y-163365653D01*
X22510800Y-163365653D01*
G37*
X22510800Y-163365653D02*
X22024786Y-162192311D01*
X21037689Y-161205214D01*
X19747983Y-160671000D01*
X19127000Y-160671000D01*
X19127000Y-156839000D01*
X19747983Y-156839000D01*
X21037689Y-156304786D01*
X22024786Y-155317689D01*
X22510800Y-154144347D01*
X22510800Y-163365653D01*
G36*
X43436001Y-138106065D02*
X43436001Y-139165137D01*
X40623116Y-136352253D01*
X40650907Y-136324462D01*
X40944823Y-135614886D01*
X43436001Y-138106065D01*
X43436001Y-138106065D01*
G37*
X43436001Y-138106065D02*
X43436001Y-139165137D01*
X40623116Y-136352253D01*
X40650907Y-136324462D01*
X40944823Y-135614886D01*
X43436001Y-138106065D01*
G36*
X168803601Y-113613665D02*
X168803601Y-127473537D01*
X163194713Y-121864650D01*
X163349181Y-121633473D01*
X163481700Y-120967254D01*
X163481700Y-120967251D01*
X163526445Y-120742301D01*
X163481700Y-120517351D01*
X163481700Y-108291763D01*
X168803601Y-113613665D01*
X168803601Y-113613665D01*
G37*
X168803601Y-113613665D02*
X168803601Y-127473537D01*
X163194713Y-121864650D01*
X163349181Y-121633473D01*
X163481700Y-120967254D01*
X163481700Y-120967251D01*
X163526445Y-120742301D01*
X163481700Y-120517351D01*
X163481700Y-108291763D01*
X168803601Y-113613665D01*
G36*
X76023701Y-125744728D02*
X75705000Y-125426027D01*
X75705000Y-124136873D01*
X76023701Y-123818172D01*
X76023701Y-125744728D01*
X76023701Y-125744728D01*
G37*
X76023701Y-125744728D02*
X75705000Y-125426027D01*
X75705000Y-124136873D01*
X76023701Y-123818172D01*
X76023701Y-125744728D01*
G36*
X141171001Y-125675737D02*
X140313400Y-124818137D01*
X140313400Y-124329797D01*
X140471000Y-123949317D01*
X140471000Y-123732348D01*
X140812200Y-122908617D01*
X140812200Y-122845573D01*
X140869016Y-122788757D01*
X141171001Y-122059700D01*
X141171001Y-125675737D01*
X141171001Y-125675737D01*
G37*
X141171001Y-125675737D02*
X140313400Y-124818137D01*
X140313400Y-124329797D01*
X140471000Y-123949317D01*
X140471000Y-123732348D01*
X140812200Y-122908617D01*
X140812200Y-122845573D01*
X140869016Y-122788757D01*
X141171001Y-122059700D01*
X141171001Y-125675737D01*
G36*
X76023701Y-112273765D02*
X76023701Y-120381470D01*
X75760416Y-119745843D01*
X75040557Y-119025984D01*
X74804400Y-118928165D01*
X74804400Y-111054464D01*
X76023701Y-112273765D01*
X76023701Y-112273765D01*
G37*
X76023701Y-112273765D02*
X76023701Y-120381470D01*
X75760416Y-119745843D01*
X75040557Y-119025984D01*
X74804400Y-118928165D01*
X74804400Y-111054464D01*
X76023701Y-112273765D01*
G36*
X141171001Y-116364959D02*
X141059198Y-116197634D01*
X140931772Y-116006928D01*
X140741067Y-115879503D01*
X140738400Y-115876836D01*
X140738400Y-115013183D01*
X140463400Y-114349274D01*
X140463400Y-113924073D01*
X141171001Y-113216472D01*
X141171001Y-116364959D01*
X141171001Y-116364959D01*
G37*
X141171001Y-116364959D02*
X141059198Y-116197634D01*
X140931772Y-116006928D01*
X140741067Y-115879503D01*
X140738400Y-115876836D01*
X140738400Y-115013183D01*
X140463400Y-114349274D01*
X140463400Y-113924073D01*
X141171001Y-113216472D01*
X141171001Y-116364959D01*
G36*
X48232000Y-114962064D02*
X48232000Y-116121936D01*
X41109000Y-108998937D01*
X41109000Y-108621473D01*
X40830867Y-107950000D01*
X40944823Y-107674886D01*
X48232000Y-114962064D01*
X48232000Y-114962064D01*
G37*
X48232000Y-114962064D02*
X48232000Y-116121936D01*
X41109000Y-108998937D01*
X41109000Y-108621473D01*
X40830867Y-107950000D01*
X40944823Y-107674886D01*
X48232000Y-114962064D01*
G36*
X32829133Y-105410000D02*
X32551000Y-106081473D01*
X32551000Y-107278527D01*
X32829133Y-107950000D01*
X32551000Y-108621473D01*
X32551000Y-108998936D01*
X28880000Y-112669937D01*
X28880000Y-108970063D01*
X32715177Y-105134886D01*
X32829133Y-105410000D01*
X32829133Y-105410000D01*
G37*
X32829133Y-105410000D02*
X32551000Y-106081473D01*
X32551000Y-107278527D01*
X32829133Y-107950000D01*
X32551000Y-108621473D01*
X32551000Y-108998936D01*
X28880000Y-112669937D01*
X28880000Y-108970063D01*
X32715177Y-105134886D01*
X32829133Y-105410000D01*
G36*
X63309133Y-105410000D02*
X63031000Y-106081473D01*
X63031000Y-106458936D01*
X57978200Y-111511737D01*
X57978200Y-110351863D01*
X63195177Y-105134886D01*
X63309133Y-105410000D01*
X63309133Y-105410000D01*
G37*
X63309133Y-105410000D02*
X63031000Y-106081473D01*
X63031000Y-106458936D01*
X57978200Y-111511737D01*
X57978200Y-110351863D01*
X63195177Y-105134886D01*
X63309133Y-105410000D01*
G36*
X169704201Y-100106565D02*
X169704201Y-102974137D01*
X165955200Y-99225137D01*
X165955200Y-98359483D01*
X165680200Y-97695574D01*
X165680200Y-97581150D01*
X165724945Y-97356200D01*
X165680200Y-97131250D01*
X165680200Y-97131246D01*
X165547681Y-96465027D01*
X165210051Y-95959728D01*
X165170298Y-95900234D01*
X165042872Y-95709528D01*
X164852167Y-95582103D01*
X163029000Y-93758937D01*
X163029000Y-93431363D01*
X169704201Y-100106565D01*
X169704201Y-100106565D01*
G37*
X169704201Y-100106565D02*
X169704201Y-102974137D01*
X165955200Y-99225137D01*
X165955200Y-98359483D01*
X165680200Y-97695574D01*
X165680200Y-97581150D01*
X165724945Y-97356200D01*
X165680200Y-97131250D01*
X165680200Y-97131246D01*
X165547681Y-96465027D01*
X165210051Y-95959728D01*
X165170298Y-95900234D01*
X165042872Y-95709528D01*
X164852167Y-95582103D01*
X163029000Y-93758937D01*
X163029000Y-93431363D01*
X169704201Y-100106565D01*
G36*
X32551000Y-97118527D02*
X32829133Y-97790000D01*
X32551000Y-98461473D01*
X32551000Y-98838936D01*
X28429700Y-102960237D01*
X28429700Y-100133963D01*
X32551000Y-96012664D01*
X32551000Y-97118527D01*
X32551000Y-97118527D01*
G37*
X32551000Y-97118527D02*
X32829133Y-97790000D01*
X32551000Y-98461473D01*
X32551000Y-98838936D01*
X28429700Y-102960237D01*
X28429700Y-100133963D01*
X32551000Y-96012664D01*
X32551000Y-97118527D01*
G36*
X93511000Y-102198527D02*
X93527346Y-102237990D01*
X93498900Y-102266436D01*
X93498900Y-101095663D01*
X93511000Y-101083563D01*
X93511000Y-102198527D01*
X93511000Y-102198527D01*
G37*
X93511000Y-102198527D02*
X93527346Y-102237990D01*
X93498900Y-102266436D01*
X93498900Y-101095663D01*
X93511000Y-101083563D01*
X93511000Y-102198527D01*
G36*
X63309133Y-92710000D02*
X63031000Y-93381473D01*
X63031000Y-93758936D01*
X57077600Y-99712337D01*
X57077600Y-98552463D01*
X63195177Y-92434886D01*
X63309133Y-92710000D01*
X63309133Y-92710000D01*
G37*
X63309133Y-92710000D02*
X63031000Y-93381473D01*
X63031000Y-93758936D01*
X57077600Y-99712337D01*
X57077600Y-98552463D01*
X63195177Y-92434886D01*
X63309133Y-92710000D01*
G36*
X78725601Y-94655665D02*
X78725601Y-98355537D01*
X71589000Y-91218937D01*
X71589000Y-90841473D01*
X71310867Y-90170000D01*
X71589000Y-89498527D01*
X71589000Y-88301473D01*
X71310867Y-87629999D01*
X71424823Y-87354886D01*
X78725601Y-94655665D01*
X78725601Y-94655665D01*
G37*
X78725601Y-94655665D02*
X78725601Y-98355537D01*
X71589000Y-91218937D01*
X71589000Y-90841473D01*
X71310867Y-90170000D01*
X71589000Y-89498527D01*
X71589000Y-88301473D01*
X71310867Y-87629999D01*
X71424823Y-87354886D01*
X78725601Y-94655665D01*
G36*
X50033901Y-88823965D02*
X50033901Y-97603837D01*
X41109000Y-88678937D01*
X41109000Y-88301473D01*
X40830867Y-87629999D01*
X41109000Y-86958527D01*
X41109000Y-85761473D01*
X40830867Y-85089999D01*
X41109000Y-84418527D01*
X41109000Y-83221473D01*
X40830867Y-82550000D01*
X41109000Y-81878527D01*
X41109000Y-80681473D01*
X40830867Y-80010000D01*
X40944823Y-79734886D01*
X50033901Y-88823965D01*
X50033901Y-88823965D01*
G37*
X50033901Y-88823965D02*
X50033901Y-97603837D01*
X41109000Y-88678937D01*
X41109000Y-88301473D01*
X40830867Y-87629999D01*
X41109000Y-86958527D01*
X41109000Y-85761473D01*
X40830867Y-85089999D01*
X41109000Y-84418527D01*
X41109000Y-83221473D01*
X40830867Y-82550000D01*
X41109000Y-81878527D01*
X41109000Y-80681473D01*
X40830867Y-80010000D01*
X40944823Y-79734886D01*
X50033901Y-88823965D01*
G36*
X146611443Y-76350816D02*
X147275353Y-76625816D01*
X154471000Y-83821464D01*
X154471000Y-84418527D01*
X154749133Y-85089999D01*
X154471000Y-85761473D01*
X154471000Y-86958527D01*
X154749133Y-87629999D01*
X154471000Y-88301473D01*
X154471000Y-88678936D01*
X145989000Y-97160937D01*
X145989000Y-75997200D01*
X146257827Y-75997200D01*
X146611443Y-76350816D01*
X146611443Y-76350816D01*
G37*
X146611443Y-76350816D02*
X147275353Y-76625816D01*
X154471000Y-83821464D01*
X154471000Y-84418527D01*
X154749133Y-85089999D01*
X154471000Y-85761473D01*
X154471000Y-86958527D01*
X154749133Y-87629999D01*
X154471000Y-88301473D01*
X154471000Y-88678936D01*
X145989000Y-97160937D01*
X145989000Y-75997200D01*
X146257827Y-75997200D01*
X146611443Y-76350816D01*
G36*
X108359901Y-79430565D02*
X108359901Y-96210026D01*
X108070400Y-96499527D01*
X108070400Y-79141064D01*
X108359901Y-79430565D01*
X108359901Y-79430565D01*
G37*
X108359901Y-79430565D02*
X108359901Y-96210026D01*
X108070400Y-96499527D01*
X108070400Y-79141064D01*
X108359901Y-79430565D01*
G36*
X32829133Y-80010000D02*
X32551000Y-80681473D01*
X32551000Y-81878527D01*
X32829133Y-82550000D01*
X32551000Y-83221473D01*
X32551000Y-84418527D01*
X32829133Y-85089999D01*
X32551000Y-85761473D01*
X32551000Y-86958527D01*
X32829133Y-87629999D01*
X32551000Y-88301473D01*
X32551000Y-88678936D01*
X27529100Y-93700837D01*
X27529100Y-84920963D01*
X32715177Y-79734886D01*
X32829133Y-80010000D01*
X32829133Y-80010000D01*
G37*
X32829133Y-80010000D02*
X32551000Y-80681473D01*
X32551000Y-81878527D01*
X32829133Y-82550000D01*
X32551000Y-83221473D01*
X32551000Y-84418527D01*
X32829133Y-85089999D01*
X32551000Y-85761473D01*
X32551000Y-86958527D01*
X32829133Y-87629999D01*
X32551000Y-88301473D01*
X32551000Y-88678936D01*
X27529100Y-93700837D01*
X27529100Y-84920963D01*
X32715177Y-79734886D01*
X32829133Y-80010000D01*
G36*
X63309133Y-85089999D02*
X63031000Y-85761473D01*
X63031000Y-86138936D01*
X56627300Y-92542637D01*
X56627300Y-91382763D01*
X63195177Y-84814886D01*
X63309133Y-85089999D01*
X63309133Y-85089999D01*
G37*
X63309133Y-85089999D02*
X63031000Y-85761473D01*
X63031000Y-86138936D01*
X56627300Y-92542637D01*
X56627300Y-91382763D01*
X63195177Y-84814886D01*
X63309133Y-85089999D01*
G36*
X79626201Y-82856265D02*
X79626201Y-86556137D01*
X71589000Y-78518937D01*
X71589000Y-78141473D01*
X71310867Y-77470000D01*
X71589000Y-76798527D01*
X71589000Y-75601473D01*
X71310867Y-74930000D01*
X71424823Y-74654886D01*
X79626201Y-82856265D01*
X79626201Y-82856265D01*
G37*
X79626201Y-82856265D02*
X79626201Y-86556137D01*
X71589000Y-78518937D01*
X71589000Y-78141473D01*
X71310867Y-77470000D01*
X71589000Y-76798527D01*
X71589000Y-75601473D01*
X71310867Y-74930000D01*
X71424823Y-74654886D01*
X79626201Y-82856265D01*
G36*
X63309133Y-74930000D02*
X63031000Y-75601473D01*
X63031000Y-76798527D01*
X63309133Y-77470000D01*
X63031000Y-78141473D01*
X63031000Y-78518936D01*
X56177000Y-85372937D01*
X56177000Y-81673063D01*
X63195177Y-74654886D01*
X63309133Y-74930000D01*
X63309133Y-74930000D01*
G37*
X63309133Y-74930000D02*
X63031000Y-75601473D01*
X63031000Y-76798527D01*
X63309133Y-77470000D01*
X63031000Y-78141473D01*
X63031000Y-78518936D01*
X56177000Y-85372937D01*
X56177000Y-81673063D01*
X63195177Y-74654886D01*
X63309133Y-74930000D01*
G36*
X51536437Y-74773500D02*
X51345728Y-74900928D01*
X50840919Y-75656428D01*
X50708400Y-76322647D01*
X50708400Y-76322650D01*
X50663655Y-76547600D01*
X50708400Y-76772550D01*
X50708400Y-83038336D01*
X41109000Y-73438937D01*
X41109000Y-73061473D01*
X40830867Y-72389999D01*
X41109000Y-71718527D01*
X41109000Y-70521473D01*
X40830867Y-69850000D01*
X41109000Y-69178527D01*
X41109000Y-67981473D01*
X40830867Y-67310000D01*
X41109000Y-66638527D01*
X41109000Y-65441473D01*
X40830867Y-64769999D01*
X40904017Y-64593400D01*
X61716536Y-64593400D01*
X51536437Y-74773500D01*
X51536437Y-74773500D01*
G37*
X51536437Y-74773500D02*
X51345728Y-74900928D01*
X50840919Y-75656428D01*
X50708400Y-76322647D01*
X50708400Y-76322650D01*
X50663655Y-76547600D01*
X50708400Y-76772550D01*
X50708400Y-83038336D01*
X41109000Y-73438937D01*
X41109000Y-73061473D01*
X40830867Y-72389999D01*
X41109000Y-71718527D01*
X41109000Y-70521473D01*
X40830867Y-69850000D01*
X41109000Y-69178527D01*
X41109000Y-67981473D01*
X40830867Y-67310000D01*
X41109000Y-66638527D01*
X41109000Y-65441473D01*
X40830867Y-64769999D01*
X40904017Y-64593400D01*
X61716536Y-64593400D01*
X51536437Y-74773500D01*
G36*
X93789133Y-62230000D02*
X93511000Y-62901473D01*
X93511000Y-64098527D01*
X93789133Y-64769999D01*
X93511000Y-65441473D01*
X93511000Y-66638527D01*
X93789133Y-67310000D01*
X93511000Y-67981473D01*
X93511000Y-69178527D01*
X93789133Y-69850000D01*
X93511000Y-70521473D01*
X93511000Y-71718527D01*
X93789133Y-72389999D01*
X93511000Y-73061473D01*
X93511000Y-74258527D01*
X93789133Y-74930000D01*
X93511000Y-75601473D01*
X93511000Y-75978936D01*
X88510800Y-80979137D01*
X88510800Y-67296039D01*
X93726954Y-62079886D01*
X93789133Y-62230000D01*
X93789133Y-62230000D01*
G37*
X93789133Y-62230000D02*
X93511000Y-62901473D01*
X93511000Y-64098527D01*
X93789133Y-64769999D01*
X93511000Y-65441473D01*
X93511000Y-66638527D01*
X93789133Y-67310000D01*
X93511000Y-67981473D01*
X93511000Y-69178527D01*
X93789133Y-69850000D01*
X93511000Y-70521473D01*
X93511000Y-71718527D01*
X93789133Y-72389999D01*
X93511000Y-73061473D01*
X93511000Y-74258527D01*
X93789133Y-74930000D01*
X93511000Y-75601473D01*
X93511000Y-75978936D01*
X88510800Y-80979137D01*
X88510800Y-67296039D01*
X93726954Y-62079886D01*
X93789133Y-62230000D01*
G36*
X146251001Y-43732766D02*
X146251000Y-49362740D01*
X146203806Y-49600000D01*
X146251000Y-49837260D01*
X146251000Y-49837264D01*
X146390772Y-50539944D01*
X146923208Y-51336792D01*
X147124355Y-51471194D01*
X154471000Y-58817841D01*
X154471000Y-59018527D01*
X154749133Y-59690000D01*
X154471000Y-60361473D01*
X154471000Y-61558527D01*
X154749133Y-62230000D01*
X154471000Y-62901473D01*
X154471000Y-64098527D01*
X154749133Y-64769999D01*
X154471000Y-65441473D01*
X154471000Y-66638527D01*
X154749133Y-67310000D01*
X154471000Y-67981473D01*
X154471000Y-69178527D01*
X154749133Y-69850000D01*
X154471000Y-70521473D01*
X154471000Y-71718527D01*
X154749133Y-72389999D01*
X154471000Y-73061473D01*
X154471000Y-74258527D01*
X154749133Y-74930000D01*
X154471000Y-75601473D01*
X154471000Y-76221136D01*
X150232099Y-71982236D01*
X150104672Y-71791528D01*
X149349173Y-71286719D01*
X148682954Y-71154200D01*
X148682950Y-71154200D01*
X148458000Y-71109455D01*
X148233050Y-71154200D01*
X147433726Y-71154200D01*
X146769817Y-70879200D01*
X145989000Y-70879200D01*
X145989000Y-43732765D01*
X146120000Y-43601765D01*
X146251001Y-43732766D01*
X146251001Y-43732766D01*
G37*
X146251001Y-43732766D02*
X146251000Y-49362740D01*
X146203806Y-49600000D01*
X146251000Y-49837260D01*
X146251000Y-49837264D01*
X146390772Y-50539944D01*
X146923208Y-51336792D01*
X147124355Y-51471194D01*
X154471000Y-58817841D01*
X154471000Y-59018527D01*
X154749133Y-59690000D01*
X154471000Y-60361473D01*
X154471000Y-61558527D01*
X154749133Y-62230000D01*
X154471000Y-62901473D01*
X154471000Y-64098527D01*
X154749133Y-64769999D01*
X154471000Y-65441473D01*
X154471000Y-66638527D01*
X154749133Y-67310000D01*
X154471000Y-67981473D01*
X154471000Y-69178527D01*
X154749133Y-69850000D01*
X154471000Y-70521473D01*
X154471000Y-71718527D01*
X154749133Y-72389999D01*
X154471000Y-73061473D01*
X154471000Y-74258527D01*
X154749133Y-74930000D01*
X154471000Y-75601473D01*
X154471000Y-76221136D01*
X150232099Y-71982236D01*
X150104672Y-71791528D01*
X149349173Y-71286719D01*
X148682954Y-71154200D01*
X148682950Y-71154200D01*
X148458000Y-71109455D01*
X148233050Y-71154200D01*
X147433726Y-71154200D01*
X146769817Y-70879200D01*
X145989000Y-70879200D01*
X145989000Y-43732765D01*
X146120000Y-43601765D01*
X146251001Y-43732766D01*
G36*
X83692800Y-67296041D02*
X83692800Y-73654236D01*
X71589000Y-61550437D01*
X71589000Y-60361473D01*
X71310867Y-59690000D01*
X71589000Y-59018527D01*
X71589000Y-58289000D01*
X74685761Y-58289000D01*
X83692800Y-67296041D01*
X83692800Y-67296041D01*
G37*
X83692800Y-67296041D02*
X83692800Y-73654236D01*
X71589000Y-61550437D01*
X71589000Y-60361473D01*
X71310867Y-59690000D01*
X71589000Y-59018527D01*
X71589000Y-58289000D01*
X74685761Y-58289000D01*
X83692800Y-67296041D01*
G36*
X56501000Y-43732765D02*
X56501001Y-55216000D01*
X42170839Y-55216000D01*
X50285648Y-47101192D01*
X50486792Y-46966792D01*
X51019228Y-46169945D01*
X51159000Y-45467265D01*
X51159000Y-45467261D01*
X51206194Y-45230001D01*
X51159000Y-44992741D01*
X51159000Y-44405597D01*
X51606552Y-44106552D01*
X51681948Y-43993713D01*
X51870634Y-44182399D01*
X53141962Y-44709000D01*
X54518038Y-44709000D01*
X55789366Y-44182399D01*
X56370000Y-43601765D01*
X56501000Y-43732765D01*
X56501000Y-43732765D01*
G37*
X56501000Y-43732765D02*
X56501001Y-55216000D01*
X42170839Y-55216000D01*
X50285648Y-47101192D01*
X50486792Y-46966792D01*
X51019228Y-46169945D01*
X51159000Y-45467265D01*
X51159000Y-45467261D01*
X51206194Y-45230001D01*
X51159000Y-44992741D01*
X51159000Y-44405597D01*
X51606552Y-44106552D01*
X51681948Y-43993713D01*
X51870634Y-44182399D01*
X53141962Y-44709000D01*
X54518038Y-44709000D01*
X55789366Y-44182399D01*
X56370000Y-43601765D01*
X56501000Y-43732765D01*
M02*
