M48
;DRILL file {KiCad (5.0.0)} date 09/22/19 13:57:11
;FORMAT={-:-/ absolute / inch / decimal}
FMAT,2
INCH,TZ
T1C0.0157
T2C0.0394
T3C0.0512
%
G90
G05
M72
T1
X2.7379Y-5.3433
X2.7541Y-5.3975
X2.7882Y-7.6032
X2.8381Y-8.4557
X2.8973Y-4.7715
X2.914Y-4.8113
X2.9192Y-5.0192
X2.9436Y-5.169
X3.005Y-5.1689
X3.3611Y-5.3473
X3.3898Y-5.3
X3.4492Y-4.3957
X3.6686Y-6.8865
X3.7343Y-7.8449
X3.7638Y-7.8164
X3.8531Y-5.3766
X3.9116Y-6.8773
X3.9351Y-5.3759
X3.9431Y-7.5391
X3.9626Y-7.6176
X3.9741Y-5.6236
X3.9981Y-8.1615
X4.0874Y-4.5463
X4.1114Y-4.8031
X4.116Y-4.7463
X4.1291Y-4.9956
X4.1934Y-4.2261
X4.2219Y-4.0219
X4.2528Y-5.0528
X4.2902Y-4.4243
X4.3094Y-3.9512
X4.3271Y-3.8693
X4.9198Y-4.1206
X5.4234Y-4.9001
X5.4296Y-4.8599
X5.4401Y-4.5481
X5.443Y-4.8189
X5.4606Y-4.7771
X5.4728Y-4.4
X5.4837Y-4.7
X5.6705Y-5.2
X5.7583Y-2.8913
X5.8292Y-2.9205
X6.1555Y-6.426
X6.4329Y-3.8925
T2
X6.2Y-2.2
X6.2Y-2.3
X6.2Y-2.4
X6.2Y-2.5
X6.2Y-2.6
X6.2Y-2.7
X6.2Y-2.8
X6.2Y-2.9
X6.2Y-3.
X6.2Y-3.1
X6.2Y-3.2
X6.2Y-3.3
X6.2Y-3.4
X6.2Y-3.5
X6.2Y-3.6
X6.2Y-3.7
X6.2Y-3.8
X6.2Y-3.9
X6.2Y-4.
X6.2Y-4.1
X6.2Y-4.2
X6.2Y-4.3
X6.2Y-4.4
X6.2Y-4.5
X6.2Y-4.6
X6.2Y-4.7
X6.2Y-4.8
X6.2Y-4.9
X6.2Y-5.
X6.2Y-5.1
X6.2Y-5.2
X6.2Y-5.2975
X6.3Y-2.2
X6.3Y-2.3
X6.3Y-2.4
X6.3Y-2.5
X6.3Y-2.6
X6.3Y-2.7
X6.3Y-2.8
X6.3Y-2.9
X6.3Y-3.
X6.3Y-3.1
X6.3Y-3.2
X6.3Y-3.3
X6.3Y-3.4
X6.3Y-3.5
X6.3Y-3.6
X6.3Y-3.7
X6.3Y-3.8
X6.3Y-3.9
X6.3Y-4.
X6.3Y-4.1
X6.3Y-4.2
X6.3Y-4.3
X6.3Y-4.4
X6.3Y-4.5
X6.3Y-4.6
X6.3Y-4.7
X6.3Y-4.8
X6.3Y-4.9
X6.3Y-5.
X6.3Y-5.1
X6.3Y-5.2
X6.3Y-5.3
X5.Y-2.2
X5.Y-2.3
X5.Y-2.4
X5.Y-2.5
X5.Y-2.6
X5.Y-2.7
X5.Y-2.8
X5.Y-2.9
X5.Y-3.
X5.Y-3.1
X5.Y-3.2
X5.Y-3.3
X5.Y-3.4
X5.Y-3.5
X5.Y-3.6
X5.Y-3.7
X5.Y-3.8
X5.Y-3.9
X5.Y-4.
X5.Y-4.1
X5.Y-4.2
X5.Y-4.3
X5.Y-4.4
X5.Y-4.5
X5.Y-4.6
X5.Y-4.7
X5.Y-4.8
X5.Y-4.9
X5.Y-5.
X5.Y-5.1
X5.Y-5.2
X5.Y-5.3
X5.1Y-2.2
X5.1Y-2.3
X5.1Y-2.4
X5.1Y-2.5
X5.1Y-2.6
X5.1Y-2.7
X5.1Y-2.8
X5.1Y-2.9
X5.1Y-3.
X5.1Y-3.1
X5.1Y-3.2
X5.1Y-3.3
X5.1Y-3.4
X5.1Y-3.5
X5.1Y-3.6
X5.1Y-3.7
X5.1Y-3.8
X5.1Y-3.9
X5.1Y-4.
X5.1Y-4.1
X5.1Y-4.2
X5.1Y-4.3
X5.1Y-4.4
X5.1Y-4.5
X5.1Y-4.6
X5.1Y-4.7
X5.1Y-4.8
X5.1Y-4.9
X5.1Y-5.
X5.1Y-5.1
X5.1Y-5.2
X5.1Y-5.3
X3.8Y-2.2
X3.8Y-2.3
X3.8Y-2.4
X3.8Y-2.5
X3.8Y-2.6
X3.8Y-2.7
X3.8Y-2.8
X3.8Y-2.9
X3.8Y-3.
X3.8Y-3.1
X3.8Y-3.2
X3.8Y-3.3
X3.8Y-3.4
X3.8Y-3.5
X3.8Y-3.6
X3.8Y-3.7
X3.8Y-3.8
X3.8Y-3.9
X3.8Y-4.
X3.8Y-4.1
X3.8Y-4.2
X3.8Y-4.3
X3.8Y-4.4
X3.8Y-4.5
X3.8Y-4.6
X3.8Y-4.7
X3.8Y-4.8
X3.8Y-4.9
X3.8Y-5.
X3.8Y-5.1
X3.8Y-5.2
X3.8Y-5.3
X3.9Y-2.2
X3.9Y-2.3
X3.9Y-2.4
X3.9Y-2.5
X3.9Y-2.6
X3.9Y-2.7
X3.9Y-2.8
X3.9Y-2.9
X3.9Y-3.
X3.9Y-3.1
X3.9Y-3.2
X3.9Y-3.3
X3.9Y-3.4
X3.9Y-3.5
X3.9Y-3.6
X3.9Y-3.7
X3.9Y-3.8
X3.9Y-3.9
X3.9Y-4.
X3.9Y-4.1
X3.9Y-4.2
X3.9Y-4.3
X3.9Y-4.4
X3.9Y-4.5
X3.9Y-4.6
X3.9Y-4.7
X3.9Y-4.8
X3.9Y-4.9
X3.9Y-5.
X3.9Y-5.1
X3.9Y-5.2
X3.9Y-5.3
X2.6Y-2.2
X2.6Y-2.3
X2.6Y-2.4
X2.6Y-2.5
X2.6Y-2.6
X2.6Y-2.7
X2.6Y-2.8
X2.6Y-2.9
X2.6Y-3.
X2.6Y-3.1
X2.6Y-3.2
X2.6Y-3.3
X2.6Y-3.4
X2.6Y-3.5
X2.6Y-3.6
X2.6Y-3.7
X2.6Y-3.8
X2.6Y-3.9
X2.6Y-4.
X2.6Y-4.1
X2.6Y-4.2
X2.6Y-4.3
X2.6Y-4.4
X2.6Y-4.5
X2.6Y-4.6
X2.6Y-4.7
X2.6Y-4.8
X2.6Y-4.9
X2.6Y-5.
X2.6Y-5.1
X2.6Y-5.2
X2.6Y-5.3
X2.7Y-2.2
X2.7Y-2.3
X2.7Y-2.4
X2.7Y-2.5
X2.7Y-2.6
X2.7Y-2.7
X2.7Y-2.8
X2.7Y-2.9
X2.7Y-3.
X2.7Y-3.1
X2.7Y-3.2
X2.7Y-3.3
X2.7Y-3.4
X2.7Y-3.5
X2.7Y-3.6
X2.7Y-3.7
X2.7Y-3.8
X2.7Y-3.9
X2.7Y-4.
X2.7Y-4.1
X2.7Y-4.2
X2.7Y-4.3
X2.7Y-4.4
X2.7Y-4.5
X2.7Y-4.6
X2.7Y-4.7
X2.7Y-4.8
X2.7Y-4.9
X2.7Y-5.
X2.7Y-5.1
X2.7Y-5.2
X2.7Y-5.3
X1.4Y-2.2
X1.4Y-2.3
X1.4Y-2.4
X1.4Y-2.5
X1.4Y-2.6
X1.4Y-2.7
X1.4Y-2.8
X1.4Y-2.9
X1.4Y-3.
X1.4Y-3.1
X1.4Y-3.2
X1.4Y-3.3
X1.4Y-3.4
X1.4Y-3.5
X1.4Y-3.6
X1.4Y-3.7
X1.4Y-3.8
X1.4Y-3.9
X1.4Y-4.
X1.4Y-4.1
X1.4Y-4.2
X1.4Y-4.3
X1.4Y-4.4
X1.4Y-4.5
X1.4Y-4.6
X1.4Y-4.7
X1.4Y-4.8
X1.4Y-4.9
X1.4Y-5.
X1.4Y-5.1
X1.4Y-5.2
X1.4Y-5.3
X1.5Y-2.2
X1.5Y-2.3
X1.5Y-2.4
X1.5Y-2.5
X1.5Y-2.6
X1.5Y-2.7
X1.5Y-2.8
X1.5Y-2.9
X1.5Y-3.
X1.5Y-3.1
X1.5Y-3.2
X1.5Y-3.3
X1.5Y-3.4
X1.5Y-3.5
X1.5Y-3.6
X1.5Y-3.7
X1.5Y-3.8
X1.5Y-3.9
X1.5Y-4.
X1.5Y-4.1
X1.5Y-4.2
X1.5Y-4.3
X1.5Y-4.4
X1.5Y-4.5
X1.5Y-4.6
X1.5Y-4.7
X1.5Y-4.8
X1.5Y-4.9
X1.5Y-5.
X1.5Y-5.1
X1.5Y-5.2
X1.5Y-5.3
T3
X3.6Y-7.
X3.6Y-7.2
X3.6Y-7.4
X3.6Y-7.6
X3.6Y-7.8
X3.6Y-8.
X3.6Y-8.2
X3.6Y-8.4
X3.6Y-8.6
X3.6Y-8.8
X3.6Y-9.
X3.6Y-9.2
X3.6Y-9.4
X3.6Y-9.6
X3.6Y-9.8
X3.6Y-10.
X3.6Y-10.1969
X3.6Y-10.3937
X3.6Y-10.5906
X3.6Y-10.7874
X7.6Y-7.
X7.6Y-7.2
X7.6Y-7.4
X7.6Y-7.6
X7.6Y-7.8
X7.6Y-8.
X5.4528Y-1.624
X5.6528Y-1.624
X5.8528Y-1.624
X2.4Y-7.
X2.4Y-7.2
X2.4Y-7.4
X2.4Y-7.6
X2.4Y-7.8
X2.4Y-8.
X2.4Y-8.2
X2.4Y-8.4
X2.4Y-8.6
X2.4Y-8.8
X2.4Y-9.
X2.4Y-9.2
X2.4Y-9.4
X2.4Y-9.6
X2.4Y-9.8
X2.4Y-10.
X2.4Y-10.1969
X2.4Y-10.3937
X2.4Y-10.5906
X2.4Y-10.7874
X4.2Y-7.
X4.2Y-7.2
X4.2Y-7.4
X4.2Y-7.6
X4.2Y-7.8
X4.2Y-8.
X4.2Y-8.2
X4.2Y-8.4
X4.2Y-8.6
X4.2Y-8.8
X4.2Y-9.
X4.2Y-9.2
X4.2Y-9.4
X4.2Y-9.6
X4.2Y-9.8
X4.2Y-10.
X4.2Y-10.1969
X4.2Y-10.3937
X4.2Y-10.5906
X4.2Y-10.7874
X3.Y-7.
X3.Y-7.2
X3.Y-7.4
X3.Y-7.6
X3.Y-7.8
X3.Y-8.
X3.Y-8.2
X3.Y-8.4
X3.Y-8.6
X3.Y-8.8
X3.Y-9.
X3.Y-9.2
X3.Y-9.4
X3.Y-9.6
X3.Y-9.8
X3.Y-10.
X3.Y-10.1969
X3.Y-10.3937
X3.Y-10.5906
X3.Y-10.7874
X4.8Y-7.
X4.8Y-7.2
X4.8Y-7.4
X4.8Y-7.6
X4.8Y-7.8
X4.8Y-8.
X4.8Y-8.2
X4.8Y-8.4
X4.8Y-8.6
X4.8Y-8.8
X4.8Y-9.
X4.8Y-9.2
X4.8Y-9.4
X4.8Y-9.6
X4.8Y-9.8
X4.8Y-10.
X4.8Y-10.1969
X4.8Y-10.3937
X1.9193Y-1.624
X2.1193Y-1.624
X2.3193Y-1.624
X6.6Y-7.
X6.6Y-7.2
X6.6Y-7.4
X6.6Y-7.6
X6.6Y-7.8
X6.6Y-8.
X5.4Y-7.
X5.4Y-7.2
X5.4Y-7.4
X5.4Y-7.6
X5.4Y-7.8
X5.4Y-8.
X5.4Y-8.2
X5.4Y-8.4
X5.4Y-8.6
X5.4Y-8.8
X5.4Y-9.
X5.4Y-9.2
X5.4Y-9.4
X5.4Y-9.6
X5.4Y-9.8
X5.4Y-10.
X5.4Y-10.1969
X5.4Y-10.3937
X8.1Y-7.
X8.1Y-7.2
X8.1Y-7.4
X8.1Y-7.6
X8.1Y-7.8
X8.1Y-8.
X8.1Y-8.2
X8.1Y-8.4
X1.2Y-7.
X1.2Y-7.2
X1.2Y-7.4
X1.2Y-7.6
X1.2Y-7.8
X1.2Y-8.
X1.2Y-8.2
X1.2Y-8.4
X1.2Y-8.6
X1.2Y-8.8
X1.2Y-9.
X1.2Y-9.2
X1.2Y-9.4
X1.2Y-9.6
X1.2Y-9.8
X1.2Y-10.
X1.2Y-10.1969
X1.2Y-10.3937
X1.8Y-7.
X1.8Y-7.2
X1.8Y-7.4
X1.8Y-7.6
X1.8Y-7.8
X1.8Y-8.
X1.8Y-8.2
X1.8Y-8.4
X1.8Y-8.6
X1.8Y-8.8
X1.8Y-9.
X1.8Y-9.2
X1.8Y-9.4
X1.8Y-9.6
X1.8Y-9.8
X1.8Y-10.
X1.8Y-10.1969
X1.8Y-10.3937
X6.Y-7.
X6.Y-7.2
X6.Y-7.4
X6.Y-7.6
X6.Y-7.8
X6.Y-8.
X6.Y-8.2
X6.Y-8.4
X6.Y-8.6
X6.Y-8.8
X6.Y-9.
X6.Y-9.2
X6.Y-9.4
X6.Y-9.6
X6.Y-9.8
X6.Y-10.
X6.Y-10.1969
X6.Y-10.3937
T0
M30
