M48
;DRILL file {KiCad (5.0.0)} date 09/22/19 13:57:11
;FORMAT={-:-/ absolute / inch / decimal}
FMAT,2
INCH,TZ
T1C0.1063
T2C0.1102
%
G90
G05
M72
T1
X0.75Y-1.2138
X2.75Y-1.2138
X1.55Y-11.2866
X8.75Y-6.4638
X0.75Y-6.0366
X2.75Y-11.2866
X3.95Y-1.2138
X5.15Y-1.2138
X0.75Y-11.2866
X8.75Y-6.0366
X8.75Y-1.2138
X3.95Y-11.2866
X7.55Y-11.2866
X1.55Y-1.2138
X8.75Y-11.2866
X7.55Y-1.2138
X6.35Y-11.2866
X0.75Y-6.4638
X6.35Y-1.2138
X5.15Y-11.2866
T2
X5.0882Y-1.9783
X5.0882Y-5.5217
X3.8882Y-1.9783
X3.8882Y-5.5217
X2.6882Y-1.9783
X2.6882Y-5.5217
X1.4882Y-1.9783
X1.4882Y-5.5217
X6.2882Y-1.9783
X6.2882Y-5.5217
T0
M30
