G04 #@! TF.GenerationSoftware,KiCad,Pcbnew,(5.0.0)*
G04 #@! TF.CreationDate,2019-01-17T16:20:53+00:00*
G04 #@! TF.ProjectId,LS02,4C5330322E6B696361645F7063620000,rev?*
G04 #@! TF.SameCoordinates,Original*
G04 #@! TF.FileFunction,Soldermask,Bot*
G04 #@! TF.FilePolarity,Negative*
%FSLAX46Y46*%
G04 Gerber Fmt 4.6, Leading zero omitted, Abs format (unit mm)*
G04 Created by KiCad (PCBNEW (5.0.0)) date 01/17/19 16:20:53*
%MOMM*%
%LPD*%
G01*
G04 APERTURE LIST*
%ADD10R,2.000000X2.000000*%
%ADD11O,2.000000X2.000000*%
%ADD12C,1.800000*%
%ADD13O,1.800000X1.800000*%
%ADD14C,1.700000*%
%ADD15R,1.700000X1.700000*%
%ADD16C,1.924000*%
G04 APERTURE END LIST*
D10*
G04 #@! TO.C,D1*
X111760000Y-52070000D03*
D11*
X111760000Y-44450000D03*
G04 #@! TD*
D10*
G04 #@! TO.C,D2*
X114300000Y-52070000D03*
D11*
X114300000Y-44450000D03*
G04 #@! TD*
D10*
G04 #@! TO.C,D3*
X116840000Y-52070000D03*
D11*
X116840000Y-44450000D03*
G04 #@! TD*
D10*
G04 #@! TO.C,D4*
X130175000Y-52070000D03*
D11*
X130175000Y-44450000D03*
G04 #@! TD*
D10*
G04 #@! TO.C,D5*
X132715000Y-52070000D03*
D11*
X132715000Y-44450000D03*
G04 #@! TD*
D10*
G04 #@! TO.C,D6*
X135255000Y-52070000D03*
D11*
X135255000Y-44450000D03*
G04 #@! TD*
D10*
G04 #@! TO.C,D7*
X106680000Y-53340000D03*
D11*
X106680000Y-45720000D03*
G04 #@! TD*
D10*
G04 #@! TO.C,D8*
X104140000Y-45720000D03*
D11*
X104140000Y-53340000D03*
G04 #@! TD*
D10*
G04 #@! TO.C,D9*
X125095000Y-52070000D03*
D11*
X125095000Y-44450000D03*
G04 #@! TD*
D10*
G04 #@! TO.C,D10*
X122555000Y-44450000D03*
D11*
X122555000Y-52070000D03*
G04 #@! TD*
D12*
G04 #@! TO.C,R1*
X101600000Y-45720000D03*
D13*
X101600000Y-53340000D03*
G04 #@! TD*
D12*
G04 #@! TO.C,R2*
X109220000Y-53340000D03*
D13*
X109220000Y-45720000D03*
G04 #@! TD*
D12*
G04 #@! TO.C,R3*
X120015000Y-44450000D03*
D13*
X120015000Y-52070000D03*
G04 #@! TD*
D12*
G04 #@! TO.C,R4*
X127635000Y-52070000D03*
D13*
X127635000Y-44450000D03*
G04 #@! TD*
D14*
G04 #@! TO.C,VT1*
X104775000Y-41275000D03*
X106045000Y-40005000D03*
D15*
X106045000Y-42545000D03*
G04 #@! TD*
D14*
G04 #@! TO.C,VT2*
X139065000Y-41275000D03*
X140335000Y-40005000D03*
D15*
X140335000Y-42545000D03*
G04 #@! TD*
D16*
G04 #@! TO.C,J1*
X97155000Y-40005000D03*
X97155000Y-42545000D03*
X97155000Y-45085000D03*
X114300000Y-58420000D03*
X116840000Y-58420000D03*
X119380000Y-58420000D03*
X121920000Y-58420000D03*
X124460000Y-58420000D03*
X127000000Y-58420000D03*
X118110000Y-40005000D03*
X120650000Y-40005000D03*
X123190000Y-40005000D03*
G04 #@! TD*
M02*
