G04 #@! TF.GenerationSoftware,KiCad,Pcbnew,(5.0.0)*
G04 #@! TF.CreationDate,2019-03-30T16:49:40+00:00*
G04 #@! TF.ProjectId,LS02,4C5330322E6B696361645F7063620000,rev?*
G04 #@! TF.SameCoordinates,Original*
G04 #@! TF.FileFunction,Legend,Top*
G04 #@! TF.FilePolarity,Positive*
%FSLAX46Y46*%
G04 Gerber Fmt 4.6, Leading zero omitted, Abs format (unit mm)*
G04 Created by KiCad (PCBNEW (5.0.0)) date 03/30/19 16:49:40*
%MOMM*%
%LPD*%
G01*
G04 APERTURE LIST*
%ADD10C,0.300000*%
%ADD11C,0.150000*%
%ADD12C,0.120000*%
G04 APERTURE END LIST*
D10*
X140561428Y-56558571D02*
X139847142Y-56558571D01*
X139847142Y-55058571D01*
X140990000Y-56487142D02*
X141204285Y-56558571D01*
X141561428Y-56558571D01*
X141704285Y-56487142D01*
X141775714Y-56415714D01*
X141847142Y-56272857D01*
X141847142Y-56130000D01*
X141775714Y-55987142D01*
X141704285Y-55915714D01*
X141561428Y-55844285D01*
X141275714Y-55772857D01*
X141132857Y-55701428D01*
X141061428Y-55630000D01*
X140990000Y-55487142D01*
X140990000Y-55344285D01*
X141061428Y-55201428D01*
X141132857Y-55130000D01*
X141275714Y-55058571D01*
X141632857Y-55058571D01*
X141847142Y-55130000D01*
X142775714Y-55058571D02*
X142918571Y-55058571D01*
X143061428Y-55130000D01*
X143132857Y-55201428D01*
X143204285Y-55344285D01*
X143275714Y-55630000D01*
X143275714Y-55987142D01*
X143204285Y-56272857D01*
X143132857Y-56415714D01*
X143061428Y-56487142D01*
X142918571Y-56558571D01*
X142775714Y-56558571D01*
X142632857Y-56487142D01*
X142561428Y-56415714D01*
X142490000Y-56272857D01*
X142418571Y-55987142D01*
X142418571Y-55630000D01*
X142490000Y-55344285D01*
X142561428Y-55201428D01*
X142632857Y-55130000D01*
X142775714Y-55058571D01*
X143847142Y-55201428D02*
X143918571Y-55130000D01*
X144061428Y-55058571D01*
X144418571Y-55058571D01*
X144561428Y-55130000D01*
X144632857Y-55201428D01*
X144704285Y-55344285D01*
X144704285Y-55487142D01*
X144632857Y-55701428D01*
X143775714Y-56558571D01*
X144704285Y-56558571D01*
D11*
G04 #@! TO.C,J1*
X95250000Y-60325000D02*
X95250000Y-38100000D01*
X146050000Y-60325000D02*
X95250000Y-60325000D01*
X146050000Y-38100000D02*
X146050000Y-60325000D01*
X95250000Y-38100000D02*
X146050000Y-38100000D01*
D12*
G04 #@! TO.C,D1*
X110640000Y-50380000D02*
X112880000Y-50380000D01*
X112880000Y-50380000D02*
X112880000Y-46140000D01*
X112880000Y-46140000D02*
X110640000Y-46140000D01*
X110640000Y-46140000D02*
X110640000Y-50380000D01*
X111760000Y-51030000D02*
X111760000Y-50380000D01*
X111760000Y-45490000D02*
X111760000Y-46140000D01*
X110640000Y-49660000D02*
X112880000Y-49660000D01*
X110640000Y-49540000D02*
X112880000Y-49540000D01*
X110640000Y-49780000D02*
X112880000Y-49780000D01*
G04 #@! TO.C,D2*
X113180000Y-50380000D02*
X115420000Y-50380000D01*
X115420000Y-50380000D02*
X115420000Y-46140000D01*
X115420000Y-46140000D02*
X113180000Y-46140000D01*
X113180000Y-46140000D02*
X113180000Y-50380000D01*
X114300000Y-51030000D02*
X114300000Y-50380000D01*
X114300000Y-45490000D02*
X114300000Y-46140000D01*
X113180000Y-49660000D02*
X115420000Y-49660000D01*
X113180000Y-49540000D02*
X115420000Y-49540000D01*
X113180000Y-49780000D02*
X115420000Y-49780000D01*
G04 #@! TO.C,D3*
X115720000Y-50380000D02*
X117960000Y-50380000D01*
X117960000Y-50380000D02*
X117960000Y-46140000D01*
X117960000Y-46140000D02*
X115720000Y-46140000D01*
X115720000Y-46140000D02*
X115720000Y-50380000D01*
X116840000Y-51030000D02*
X116840000Y-50380000D01*
X116840000Y-45490000D02*
X116840000Y-46140000D01*
X115720000Y-49660000D02*
X117960000Y-49660000D01*
X115720000Y-49540000D02*
X117960000Y-49540000D01*
X115720000Y-49780000D02*
X117960000Y-49780000D01*
G04 #@! TO.C,D4*
X129055000Y-50380000D02*
X131295000Y-50380000D01*
X131295000Y-50380000D02*
X131295000Y-46140000D01*
X131295000Y-46140000D02*
X129055000Y-46140000D01*
X129055000Y-46140000D02*
X129055000Y-50380000D01*
X130175000Y-51030000D02*
X130175000Y-50380000D01*
X130175000Y-45490000D02*
X130175000Y-46140000D01*
X129055000Y-49660000D02*
X131295000Y-49660000D01*
X129055000Y-49540000D02*
X131295000Y-49540000D01*
X129055000Y-49780000D02*
X131295000Y-49780000D01*
G04 #@! TO.C,D5*
X131595000Y-50380000D02*
X133835000Y-50380000D01*
X133835000Y-50380000D02*
X133835000Y-46140000D01*
X133835000Y-46140000D02*
X131595000Y-46140000D01*
X131595000Y-46140000D02*
X131595000Y-50380000D01*
X132715000Y-51030000D02*
X132715000Y-50380000D01*
X132715000Y-45490000D02*
X132715000Y-46140000D01*
X131595000Y-49660000D02*
X133835000Y-49660000D01*
X131595000Y-49540000D02*
X133835000Y-49540000D01*
X131595000Y-49780000D02*
X133835000Y-49780000D01*
G04 #@! TO.C,D6*
X134135000Y-50380000D02*
X136375000Y-50380000D01*
X136375000Y-50380000D02*
X136375000Y-46140000D01*
X136375000Y-46140000D02*
X134135000Y-46140000D01*
X134135000Y-46140000D02*
X134135000Y-50380000D01*
X135255000Y-51030000D02*
X135255000Y-50380000D01*
X135255000Y-45490000D02*
X135255000Y-46140000D01*
X134135000Y-49660000D02*
X136375000Y-49660000D01*
X134135000Y-49540000D02*
X136375000Y-49540000D01*
X134135000Y-49780000D02*
X136375000Y-49780000D01*
G04 #@! TO.C,D7*
X105560000Y-51650000D02*
X107800000Y-51650000D01*
X107800000Y-51650000D02*
X107800000Y-47410000D01*
X107800000Y-47410000D02*
X105560000Y-47410000D01*
X105560000Y-47410000D02*
X105560000Y-51650000D01*
X106680000Y-52300000D02*
X106680000Y-51650000D01*
X106680000Y-46760000D02*
X106680000Y-47410000D01*
X105560000Y-50930000D02*
X107800000Y-50930000D01*
X105560000Y-50810000D02*
X107800000Y-50810000D01*
X105560000Y-51050000D02*
X107800000Y-51050000D01*
G04 #@! TO.C,D8*
X105260000Y-47410000D02*
X103020000Y-47410000D01*
X103020000Y-47410000D02*
X103020000Y-51650000D01*
X103020000Y-51650000D02*
X105260000Y-51650000D01*
X105260000Y-51650000D02*
X105260000Y-47410000D01*
X104140000Y-46760000D02*
X104140000Y-47410000D01*
X104140000Y-52300000D02*
X104140000Y-51650000D01*
X105260000Y-48130000D02*
X103020000Y-48130000D01*
X105260000Y-48250000D02*
X103020000Y-48250000D01*
X105260000Y-48010000D02*
X103020000Y-48010000D01*
G04 #@! TO.C,D9*
X123975000Y-50380000D02*
X126215000Y-50380000D01*
X126215000Y-50380000D02*
X126215000Y-46140000D01*
X126215000Y-46140000D02*
X123975000Y-46140000D01*
X123975000Y-46140000D02*
X123975000Y-50380000D01*
X125095000Y-51030000D02*
X125095000Y-50380000D01*
X125095000Y-45490000D02*
X125095000Y-46140000D01*
X123975000Y-49660000D02*
X126215000Y-49660000D01*
X123975000Y-49540000D02*
X126215000Y-49540000D01*
X123975000Y-49780000D02*
X126215000Y-49780000D01*
G04 #@! TO.C,D10*
X123675000Y-46140000D02*
X121435000Y-46140000D01*
X121435000Y-46140000D02*
X121435000Y-50380000D01*
X121435000Y-50380000D02*
X123675000Y-50380000D01*
X123675000Y-50380000D02*
X123675000Y-46140000D01*
X122555000Y-45490000D02*
X122555000Y-46140000D01*
X122555000Y-51030000D02*
X122555000Y-50380000D01*
X123675000Y-46860000D02*
X121435000Y-46860000D01*
X123675000Y-46980000D02*
X121435000Y-46980000D01*
X123675000Y-46740000D02*
X121435000Y-46740000D01*
G04 #@! TO.C,R1*
X102520000Y-47610000D02*
X100680000Y-47610000D01*
X100680000Y-47610000D02*
X100680000Y-51450000D01*
X100680000Y-51450000D02*
X102520000Y-51450000D01*
X102520000Y-51450000D02*
X102520000Y-47610000D01*
X101600000Y-46660000D02*
X101600000Y-47610000D01*
X101600000Y-52400000D02*
X101600000Y-51450000D01*
G04 #@! TO.C,R2*
X108300000Y-51450000D02*
X110140000Y-51450000D01*
X110140000Y-51450000D02*
X110140000Y-47610000D01*
X110140000Y-47610000D02*
X108300000Y-47610000D01*
X108300000Y-47610000D02*
X108300000Y-51450000D01*
X109220000Y-52400000D02*
X109220000Y-51450000D01*
X109220000Y-46660000D02*
X109220000Y-47610000D01*
G04 #@! TO.C,R3*
X120935000Y-46340000D02*
X119095000Y-46340000D01*
X119095000Y-46340000D02*
X119095000Y-50180000D01*
X119095000Y-50180000D02*
X120935000Y-50180000D01*
X120935000Y-50180000D02*
X120935000Y-46340000D01*
X120015000Y-45390000D02*
X120015000Y-46340000D01*
X120015000Y-51130000D02*
X120015000Y-50180000D01*
G04 #@! TO.C,R4*
X126715000Y-50180000D02*
X128555000Y-50180000D01*
X128555000Y-50180000D02*
X128555000Y-46340000D01*
X128555000Y-46340000D02*
X126715000Y-46340000D01*
X126715000Y-46340000D02*
X126715000Y-50180000D01*
X127635000Y-51130000D02*
X127635000Y-50180000D01*
X127635000Y-45390000D02*
X127635000Y-46340000D01*
G04 #@! TO.C,VT1*
X104354878Y-43143611D02*
G75*
G03X104345000Y-39255000I1690122J1948611D01*
G01*
X104345000Y-39255000D02*
X104345000Y-43105000D01*
G04 #@! TO.C,VT2*
X138708378Y-43143611D02*
G75*
G03X138698500Y-39255000I1690122J1948611D01*
G01*
X138698500Y-39255000D02*
X138698500Y-43105000D01*
G04 #@! TO.C,J1*
D11*
X99996666Y-43132380D02*
X99996666Y-43846666D01*
X99949047Y-43989523D01*
X99853809Y-44084761D01*
X99710952Y-44132380D01*
X99615714Y-44132380D01*
X100996666Y-44132380D02*
X100425238Y-44132380D01*
X100710952Y-44132380D02*
X100710952Y-43132380D01*
X100615714Y-43275238D01*
X100520476Y-43370476D01*
X100425238Y-43418095D01*
G04 #@! TO.C,D1*
X112212380Y-48998095D02*
X111212380Y-48998095D01*
X111212380Y-48760000D01*
X111260000Y-48617142D01*
X111355238Y-48521904D01*
X111450476Y-48474285D01*
X111640952Y-48426666D01*
X111783809Y-48426666D01*
X111974285Y-48474285D01*
X112069523Y-48521904D01*
X112164761Y-48617142D01*
X112212380Y-48760000D01*
X112212380Y-48998095D01*
X112212380Y-47474285D02*
X112212380Y-48045714D01*
X112212380Y-47760000D02*
X111212380Y-47760000D01*
X111355238Y-47855238D01*
X111450476Y-47950476D01*
X111498095Y-48045714D01*
G04 #@! TO.C,D2*
X114752380Y-48998095D02*
X113752380Y-48998095D01*
X113752380Y-48760000D01*
X113800000Y-48617142D01*
X113895238Y-48521904D01*
X113990476Y-48474285D01*
X114180952Y-48426666D01*
X114323809Y-48426666D01*
X114514285Y-48474285D01*
X114609523Y-48521904D01*
X114704761Y-48617142D01*
X114752380Y-48760000D01*
X114752380Y-48998095D01*
X113847619Y-48045714D02*
X113800000Y-47998095D01*
X113752380Y-47902857D01*
X113752380Y-47664761D01*
X113800000Y-47569523D01*
X113847619Y-47521904D01*
X113942857Y-47474285D01*
X114038095Y-47474285D01*
X114180952Y-47521904D01*
X114752380Y-48093333D01*
X114752380Y-47474285D01*
G04 #@! TO.C,D3*
X117292380Y-48998095D02*
X116292380Y-48998095D01*
X116292380Y-48760000D01*
X116340000Y-48617142D01*
X116435238Y-48521904D01*
X116530476Y-48474285D01*
X116720952Y-48426666D01*
X116863809Y-48426666D01*
X117054285Y-48474285D01*
X117149523Y-48521904D01*
X117244761Y-48617142D01*
X117292380Y-48760000D01*
X117292380Y-48998095D01*
X116292380Y-48093333D02*
X116292380Y-47474285D01*
X116673333Y-47807619D01*
X116673333Y-47664761D01*
X116720952Y-47569523D01*
X116768571Y-47521904D01*
X116863809Y-47474285D01*
X117101904Y-47474285D01*
X117197142Y-47521904D01*
X117244761Y-47569523D01*
X117292380Y-47664761D01*
X117292380Y-47950476D01*
X117244761Y-48045714D01*
X117197142Y-48093333D01*
G04 #@! TO.C,D4*
X130627380Y-48998095D02*
X129627380Y-48998095D01*
X129627380Y-48760000D01*
X129675000Y-48617142D01*
X129770238Y-48521904D01*
X129865476Y-48474285D01*
X130055952Y-48426666D01*
X130198809Y-48426666D01*
X130389285Y-48474285D01*
X130484523Y-48521904D01*
X130579761Y-48617142D01*
X130627380Y-48760000D01*
X130627380Y-48998095D01*
X129960714Y-47569523D02*
X130627380Y-47569523D01*
X129579761Y-47807619D02*
X130294047Y-48045714D01*
X130294047Y-47426666D01*
G04 #@! TO.C,D5*
X133167380Y-48998095D02*
X132167380Y-48998095D01*
X132167380Y-48760000D01*
X132215000Y-48617142D01*
X132310238Y-48521904D01*
X132405476Y-48474285D01*
X132595952Y-48426666D01*
X132738809Y-48426666D01*
X132929285Y-48474285D01*
X133024523Y-48521904D01*
X133119761Y-48617142D01*
X133167380Y-48760000D01*
X133167380Y-48998095D01*
X132167380Y-47521904D02*
X132167380Y-47998095D01*
X132643571Y-48045714D01*
X132595952Y-47998095D01*
X132548333Y-47902857D01*
X132548333Y-47664761D01*
X132595952Y-47569523D01*
X132643571Y-47521904D01*
X132738809Y-47474285D01*
X132976904Y-47474285D01*
X133072142Y-47521904D01*
X133119761Y-47569523D01*
X133167380Y-47664761D01*
X133167380Y-47902857D01*
X133119761Y-47998095D01*
X133072142Y-48045714D01*
G04 #@! TO.C,D6*
X135707380Y-48998095D02*
X134707380Y-48998095D01*
X134707380Y-48760000D01*
X134755000Y-48617142D01*
X134850238Y-48521904D01*
X134945476Y-48474285D01*
X135135952Y-48426666D01*
X135278809Y-48426666D01*
X135469285Y-48474285D01*
X135564523Y-48521904D01*
X135659761Y-48617142D01*
X135707380Y-48760000D01*
X135707380Y-48998095D01*
X134707380Y-47569523D02*
X134707380Y-47760000D01*
X134755000Y-47855238D01*
X134802619Y-47902857D01*
X134945476Y-47998095D01*
X135135952Y-48045714D01*
X135516904Y-48045714D01*
X135612142Y-47998095D01*
X135659761Y-47950476D01*
X135707380Y-47855238D01*
X135707380Y-47664761D01*
X135659761Y-47569523D01*
X135612142Y-47521904D01*
X135516904Y-47474285D01*
X135278809Y-47474285D01*
X135183571Y-47521904D01*
X135135952Y-47569523D01*
X135088333Y-47664761D01*
X135088333Y-47855238D01*
X135135952Y-47950476D01*
X135183571Y-47998095D01*
X135278809Y-48045714D01*
G04 #@! TO.C,D7*
X107132380Y-50268095D02*
X106132380Y-50268095D01*
X106132380Y-50030000D01*
X106180000Y-49887142D01*
X106275238Y-49791904D01*
X106370476Y-49744285D01*
X106560952Y-49696666D01*
X106703809Y-49696666D01*
X106894285Y-49744285D01*
X106989523Y-49791904D01*
X107084761Y-49887142D01*
X107132380Y-50030000D01*
X107132380Y-50268095D01*
X106132380Y-49363333D02*
X106132380Y-48696666D01*
X107132380Y-49125238D01*
G04 #@! TO.C,D8*
X104592380Y-50268095D02*
X103592380Y-50268095D01*
X103592380Y-50030000D01*
X103640000Y-49887142D01*
X103735238Y-49791904D01*
X103830476Y-49744285D01*
X104020952Y-49696666D01*
X104163809Y-49696666D01*
X104354285Y-49744285D01*
X104449523Y-49791904D01*
X104544761Y-49887142D01*
X104592380Y-50030000D01*
X104592380Y-50268095D01*
X104020952Y-49125238D02*
X103973333Y-49220476D01*
X103925714Y-49268095D01*
X103830476Y-49315714D01*
X103782857Y-49315714D01*
X103687619Y-49268095D01*
X103640000Y-49220476D01*
X103592380Y-49125238D01*
X103592380Y-48934761D01*
X103640000Y-48839523D01*
X103687619Y-48791904D01*
X103782857Y-48744285D01*
X103830476Y-48744285D01*
X103925714Y-48791904D01*
X103973333Y-48839523D01*
X104020952Y-48934761D01*
X104020952Y-49125238D01*
X104068571Y-49220476D01*
X104116190Y-49268095D01*
X104211428Y-49315714D01*
X104401904Y-49315714D01*
X104497142Y-49268095D01*
X104544761Y-49220476D01*
X104592380Y-49125238D01*
X104592380Y-48934761D01*
X104544761Y-48839523D01*
X104497142Y-48791904D01*
X104401904Y-48744285D01*
X104211428Y-48744285D01*
X104116190Y-48791904D01*
X104068571Y-48839523D01*
X104020952Y-48934761D01*
G04 #@! TO.C,D9*
X125547380Y-48998095D02*
X124547380Y-48998095D01*
X124547380Y-48760000D01*
X124595000Y-48617142D01*
X124690238Y-48521904D01*
X124785476Y-48474285D01*
X124975952Y-48426666D01*
X125118809Y-48426666D01*
X125309285Y-48474285D01*
X125404523Y-48521904D01*
X125499761Y-48617142D01*
X125547380Y-48760000D01*
X125547380Y-48998095D01*
X125547380Y-47950476D02*
X125547380Y-47760000D01*
X125499761Y-47664761D01*
X125452142Y-47617142D01*
X125309285Y-47521904D01*
X125118809Y-47474285D01*
X124737857Y-47474285D01*
X124642619Y-47521904D01*
X124595000Y-47569523D01*
X124547380Y-47664761D01*
X124547380Y-47855238D01*
X124595000Y-47950476D01*
X124642619Y-47998095D01*
X124737857Y-48045714D01*
X124975952Y-48045714D01*
X125071190Y-47998095D01*
X125118809Y-47950476D01*
X125166428Y-47855238D01*
X125166428Y-47664761D01*
X125118809Y-47569523D01*
X125071190Y-47521904D01*
X124975952Y-47474285D01*
G04 #@! TO.C,D10*
X123007380Y-50109285D02*
X122007380Y-50109285D01*
X122007380Y-49871190D01*
X122055000Y-49728333D01*
X122150238Y-49633095D01*
X122245476Y-49585476D01*
X122435952Y-49537857D01*
X122578809Y-49537857D01*
X122769285Y-49585476D01*
X122864523Y-49633095D01*
X122959761Y-49728333D01*
X123007380Y-49871190D01*
X123007380Y-50109285D01*
X123007380Y-48585476D02*
X123007380Y-49156904D01*
X123007380Y-48871190D02*
X122007380Y-48871190D01*
X122150238Y-48966428D01*
X122245476Y-49061666D01*
X122293095Y-49156904D01*
X122007380Y-47966428D02*
X122007380Y-47871190D01*
X122055000Y-47775952D01*
X122102619Y-47728333D01*
X122197857Y-47680714D01*
X122388333Y-47633095D01*
X122626428Y-47633095D01*
X122816904Y-47680714D01*
X122912142Y-47728333D01*
X122959761Y-47775952D01*
X123007380Y-47871190D01*
X123007380Y-47966428D01*
X122959761Y-48061666D01*
X122912142Y-48109285D01*
X122816904Y-48156904D01*
X122626428Y-48204523D01*
X122388333Y-48204523D01*
X122197857Y-48156904D01*
X122102619Y-48109285D01*
X122055000Y-48061666D01*
X122007380Y-47966428D01*
G04 #@! TO.C,R1*
X102052380Y-49696666D02*
X101576190Y-50030000D01*
X102052380Y-50268095D02*
X101052380Y-50268095D01*
X101052380Y-49887142D01*
X101100000Y-49791904D01*
X101147619Y-49744285D01*
X101242857Y-49696666D01*
X101385714Y-49696666D01*
X101480952Y-49744285D01*
X101528571Y-49791904D01*
X101576190Y-49887142D01*
X101576190Y-50268095D01*
X102052380Y-48744285D02*
X102052380Y-49315714D01*
X102052380Y-49030000D02*
X101052380Y-49030000D01*
X101195238Y-49125238D01*
X101290476Y-49220476D01*
X101338095Y-49315714D01*
G04 #@! TO.C,R2*
X109672380Y-49696666D02*
X109196190Y-50030000D01*
X109672380Y-50268095D02*
X108672380Y-50268095D01*
X108672380Y-49887142D01*
X108720000Y-49791904D01*
X108767619Y-49744285D01*
X108862857Y-49696666D01*
X109005714Y-49696666D01*
X109100952Y-49744285D01*
X109148571Y-49791904D01*
X109196190Y-49887142D01*
X109196190Y-50268095D01*
X108767619Y-49315714D02*
X108720000Y-49268095D01*
X108672380Y-49172857D01*
X108672380Y-48934761D01*
X108720000Y-48839523D01*
X108767619Y-48791904D01*
X108862857Y-48744285D01*
X108958095Y-48744285D01*
X109100952Y-48791904D01*
X109672380Y-49363333D01*
X109672380Y-48744285D01*
G04 #@! TO.C,R3*
X120467380Y-48426666D02*
X119991190Y-48760000D01*
X120467380Y-48998095D02*
X119467380Y-48998095D01*
X119467380Y-48617142D01*
X119515000Y-48521904D01*
X119562619Y-48474285D01*
X119657857Y-48426666D01*
X119800714Y-48426666D01*
X119895952Y-48474285D01*
X119943571Y-48521904D01*
X119991190Y-48617142D01*
X119991190Y-48998095D01*
X119467380Y-48093333D02*
X119467380Y-47474285D01*
X119848333Y-47807619D01*
X119848333Y-47664761D01*
X119895952Y-47569523D01*
X119943571Y-47521904D01*
X120038809Y-47474285D01*
X120276904Y-47474285D01*
X120372142Y-47521904D01*
X120419761Y-47569523D01*
X120467380Y-47664761D01*
X120467380Y-47950476D01*
X120419761Y-48045714D01*
X120372142Y-48093333D01*
G04 #@! TO.C,R4*
X128087380Y-48426666D02*
X127611190Y-48760000D01*
X128087380Y-48998095D02*
X127087380Y-48998095D01*
X127087380Y-48617142D01*
X127135000Y-48521904D01*
X127182619Y-48474285D01*
X127277857Y-48426666D01*
X127420714Y-48426666D01*
X127515952Y-48474285D01*
X127563571Y-48521904D01*
X127611190Y-48617142D01*
X127611190Y-48998095D01*
X127420714Y-47569523D02*
X128087380Y-47569523D01*
X127039761Y-47807619D02*
X127754047Y-48045714D01*
X127754047Y-47426666D01*
G04 #@! TO.C,VT1*
X109057380Y-42385476D02*
X110057380Y-42052142D01*
X109057380Y-41718809D01*
X109057380Y-41528333D02*
X109057380Y-40956904D01*
X110057380Y-41242619D02*
X109057380Y-41242619D01*
X110057380Y-40099761D02*
X110057380Y-40671190D01*
X110057380Y-40385476D02*
X109057380Y-40385476D01*
X109200238Y-40480714D01*
X109295476Y-40575952D01*
X109343095Y-40671190D01*
G04 #@! TO.C,VT2*
X143410880Y-42385476D02*
X144410880Y-42052142D01*
X143410880Y-41718809D01*
X143410880Y-41528333D02*
X143410880Y-40956904D01*
X144410880Y-41242619D02*
X143410880Y-41242619D01*
X143506119Y-40671190D02*
X143458500Y-40623571D01*
X143410880Y-40528333D01*
X143410880Y-40290238D01*
X143458500Y-40195000D01*
X143506119Y-40147380D01*
X143601357Y-40099761D01*
X143696595Y-40099761D01*
X143839452Y-40147380D01*
X144410880Y-40718809D01*
X144410880Y-40099761D01*
G04 #@! TD*
M02*
