M48
;DRILL file {KiCad (5.0.0)} date 01/17/19 16:20:43
;FORMAT={-:-/ absolute / inch / decimal}
FMAT,2
INCH,TZ
T1C0.0276
T2C0.0295
T3C0.0300
T4C0.0315
%
G90
G05
M72
T1
X4.725Y-1.75
X4.725Y-2.05
X5.025Y-1.75
X5.025Y-2.05
X4.3Y-1.8
X4.3Y-2.1
X4.Y-1.8
X4.Y-2.1
T2
X5.475Y-1.625
X5.525Y-1.575
X5.525Y-1.675
X4.125Y-1.625
X4.175Y-1.575
X4.175Y-1.675
T3
X3.825Y-1.575
X3.825Y-1.675
X3.825Y-1.775
X4.5Y-2.3
X4.6Y-2.3
X4.65Y-1.575
X4.7Y-2.3
X4.75Y-1.575
X4.8Y-2.3
X4.85Y-1.575
X4.9Y-2.3
X5.Y-2.3
T4
X4.2Y-1.8
X4.2Y-2.1
X5.125Y-1.75
X5.125Y-2.05
X5.225Y-1.75
X5.225Y-2.05
X4.825Y-1.75
X4.825Y-2.05
X4.4Y-1.75
X4.4Y-2.05
X4.925Y-1.75
X4.925Y-2.05
X4.6Y-1.75
X4.6Y-2.05
X4.5Y-1.75
X4.5Y-2.05
X4.1Y-1.8
X4.1Y-2.1
X5.325Y-1.75
X5.325Y-2.05
T0
M30
