G04 #@! TF.GenerationSoftware,KiCad,Pcbnew,(5.0.0)*
G04 #@! TF.CreationDate,2019-03-30T17:03:38+00:00*
G04 #@! TF.ProjectId,LS06,4C5330362E6B696361645F7063620000,rev?*
G04 #@! TF.SameCoordinates,Original*
G04 #@! TF.FileFunction,Soldermask,Bot*
G04 #@! TF.FilePolarity,Negative*
%FSLAX46Y46*%
G04 Gerber Fmt 4.6, Leading zero omitted, Abs format (unit mm)*
G04 Created by KiCad (PCBNEW (5.0.0)) date 03/30/19 17:03:38*
%MOMM*%
%LPD*%
G01*
G04 APERTURE LIST*
%ADD10C,2.000000*%
%ADD11R,1.600000X1.600000*%
%ADD12O,1.600000X1.600000*%
%ADD13C,1.400000*%
%ADD14O,1.400000X1.400000*%
%ADD15R,1.500000X1.050000*%
%ADD16C,0.100000*%
%ADD17C,1.050000*%
G04 APERTURE END LIST*
D10*
G04 #@! TO.C,J1*
X145998000Y-61225500D03*
X143458000Y-61225500D03*
X140918000Y-61225500D03*
X149808000Y-79640500D03*
X147268000Y-79640500D03*
X144728000Y-79640500D03*
X142188000Y-79640500D03*
X139648000Y-79640500D03*
X137108000Y-79640500D03*
X119963000Y-66305500D03*
X119963000Y-63765500D03*
X119963000Y-61225500D03*
G04 #@! TD*
D11*
G04 #@! TO.C,D1*
X137096000Y-76454000D03*
D12*
X137096000Y-68834000D03*
G04 #@! TD*
D11*
G04 #@! TO.C,D2*
X139636000Y-76454000D03*
D12*
X139636000Y-68834000D03*
G04 #@! TD*
D11*
G04 #@! TO.C,D3*
X142176000Y-76454000D03*
D12*
X142176000Y-68834000D03*
G04 #@! TD*
D11*
G04 #@! TO.C,D4*
X144716000Y-76454000D03*
D12*
X144716000Y-68834000D03*
G04 #@! TD*
D11*
G04 #@! TO.C,D5*
X147256000Y-76454000D03*
D12*
X147256000Y-68834000D03*
G04 #@! TD*
D11*
G04 #@! TO.C,D6*
X149796000Y-76454000D03*
D12*
X149796000Y-68834000D03*
G04 #@! TD*
D11*
G04 #@! TO.C,D7*
X120650000Y-78359000D03*
D12*
X120650000Y-70739000D03*
G04 #@! TD*
D11*
G04 #@! TO.C,D8*
X123190000Y-70739000D03*
D12*
X123190000Y-78359000D03*
G04 #@! TD*
D11*
G04 #@! TO.C,D9*
X126048000Y-78359000D03*
D12*
X126048000Y-70739000D03*
G04 #@! TD*
D11*
G04 #@! TO.C,D10*
X128588000Y-70739000D03*
D12*
X128588000Y-78359000D03*
G04 #@! TD*
D11*
G04 #@! TO.C,D11*
X131382000Y-78359000D03*
D12*
X131382000Y-70739000D03*
G04 #@! TD*
D11*
G04 #@! TO.C,D12*
X133922000Y-70739000D03*
D12*
X133922000Y-78359000D03*
G04 #@! TD*
D13*
G04 #@! TO.C,R1*
X155512000Y-76835000D03*
D14*
X155512000Y-69215000D03*
G04 #@! TD*
D13*
G04 #@! TO.C,R2*
X159194000Y-76835000D03*
D14*
X159194000Y-69215000D03*
G04 #@! TD*
D13*
G04 #@! TO.C,R3*
X162814000Y-76835000D03*
D14*
X162814000Y-69215000D03*
G04 #@! TD*
D13*
G04 #@! TO.C,R4*
X134684000Y-62166500D03*
D14*
X127064000Y-62166500D03*
G04 #@! TD*
D13*
G04 #@! TO.C,R5*
X134620000Y-65786000D03*
D14*
X127000000Y-65786000D03*
G04 #@! TD*
D15*
G04 #@! TO.C,VT1*
X152400000Y-62547500D03*
D16*
G36*
X152913229Y-64563764D02*
X152938711Y-64567544D01*
X152963700Y-64573803D01*
X152987954Y-64582482D01*
X153011242Y-64593496D01*
X153033337Y-64606739D01*
X153054028Y-64622085D01*
X153073116Y-64639384D01*
X153090415Y-64658472D01*
X153105761Y-64679163D01*
X153119004Y-64701258D01*
X153130018Y-64724546D01*
X153138697Y-64748800D01*
X153144956Y-64773789D01*
X153148736Y-64799271D01*
X153150000Y-64825000D01*
X153150000Y-65350000D01*
X153148736Y-65375729D01*
X153144956Y-65401211D01*
X153138697Y-65426200D01*
X153130018Y-65450454D01*
X153119004Y-65473742D01*
X153105761Y-65495837D01*
X153090415Y-65516528D01*
X153073116Y-65535616D01*
X153054028Y-65552915D01*
X153033337Y-65568261D01*
X153011242Y-65581504D01*
X152987954Y-65592518D01*
X152963700Y-65601197D01*
X152938711Y-65607456D01*
X152913229Y-65611236D01*
X152887500Y-65612500D01*
X151912500Y-65612500D01*
X151886771Y-65611236D01*
X151861289Y-65607456D01*
X151836300Y-65601197D01*
X151812046Y-65592518D01*
X151788758Y-65581504D01*
X151766663Y-65568261D01*
X151745972Y-65552915D01*
X151726884Y-65535616D01*
X151709585Y-65516528D01*
X151694239Y-65495837D01*
X151680996Y-65473742D01*
X151669982Y-65450454D01*
X151661303Y-65426200D01*
X151655044Y-65401211D01*
X151651264Y-65375729D01*
X151650000Y-65350000D01*
X151650000Y-64825000D01*
X151651264Y-64799271D01*
X151655044Y-64773789D01*
X151661303Y-64748800D01*
X151669982Y-64724546D01*
X151680996Y-64701258D01*
X151694239Y-64679163D01*
X151709585Y-64658472D01*
X151726884Y-64639384D01*
X151745972Y-64622085D01*
X151766663Y-64606739D01*
X151788758Y-64593496D01*
X151812046Y-64582482D01*
X151836300Y-64573803D01*
X151861289Y-64567544D01*
X151886771Y-64563764D01*
X151912500Y-64562500D01*
X152887500Y-64562500D01*
X152913229Y-64563764D01*
X152913229Y-64563764D01*
G37*
D17*
X152400000Y-65087500D03*
D16*
G36*
X152913229Y-63293764D02*
X152938711Y-63297544D01*
X152963700Y-63303803D01*
X152987954Y-63312482D01*
X153011242Y-63323496D01*
X153033337Y-63336739D01*
X153054028Y-63352085D01*
X153073116Y-63369384D01*
X153090415Y-63388472D01*
X153105761Y-63409163D01*
X153119004Y-63431258D01*
X153130018Y-63454546D01*
X153138697Y-63478800D01*
X153144956Y-63503789D01*
X153148736Y-63529271D01*
X153150000Y-63555000D01*
X153150000Y-64080000D01*
X153148736Y-64105729D01*
X153144956Y-64131211D01*
X153138697Y-64156200D01*
X153130018Y-64180454D01*
X153119004Y-64203742D01*
X153105761Y-64225837D01*
X153090415Y-64246528D01*
X153073116Y-64265616D01*
X153054028Y-64282915D01*
X153033337Y-64298261D01*
X153011242Y-64311504D01*
X152987954Y-64322518D01*
X152963700Y-64331197D01*
X152938711Y-64337456D01*
X152913229Y-64341236D01*
X152887500Y-64342500D01*
X151912500Y-64342500D01*
X151886771Y-64341236D01*
X151861289Y-64337456D01*
X151836300Y-64331197D01*
X151812046Y-64322518D01*
X151788758Y-64311504D01*
X151766663Y-64298261D01*
X151745972Y-64282915D01*
X151726884Y-64265616D01*
X151709585Y-64246528D01*
X151694239Y-64225837D01*
X151680996Y-64203742D01*
X151669982Y-64180454D01*
X151661303Y-64156200D01*
X151655044Y-64131211D01*
X151651264Y-64105729D01*
X151650000Y-64080000D01*
X151650000Y-63555000D01*
X151651264Y-63529271D01*
X151655044Y-63503789D01*
X151661303Y-63478800D01*
X151669982Y-63454546D01*
X151680996Y-63431258D01*
X151694239Y-63409163D01*
X151709585Y-63388472D01*
X151726884Y-63369384D01*
X151745972Y-63352085D01*
X151766663Y-63336739D01*
X151788758Y-63323496D01*
X151812046Y-63312482D01*
X151836300Y-63303803D01*
X151861289Y-63297544D01*
X151886771Y-63293764D01*
X151912500Y-63292500D01*
X152887500Y-63292500D01*
X152913229Y-63293764D01*
X152913229Y-63293764D01*
G37*
D17*
X152400000Y-63817500D03*
G04 #@! TD*
D15*
G04 #@! TO.C,VT2*
X162242000Y-62484000D03*
D16*
G36*
X162755229Y-64500264D02*
X162780711Y-64504044D01*
X162805700Y-64510303D01*
X162829954Y-64518982D01*
X162853242Y-64529996D01*
X162875337Y-64543239D01*
X162896028Y-64558585D01*
X162915116Y-64575884D01*
X162932415Y-64594972D01*
X162947761Y-64615663D01*
X162961004Y-64637758D01*
X162972018Y-64661046D01*
X162980697Y-64685300D01*
X162986956Y-64710289D01*
X162990736Y-64735771D01*
X162992000Y-64761500D01*
X162992000Y-65286500D01*
X162990736Y-65312229D01*
X162986956Y-65337711D01*
X162980697Y-65362700D01*
X162972018Y-65386954D01*
X162961004Y-65410242D01*
X162947761Y-65432337D01*
X162932415Y-65453028D01*
X162915116Y-65472116D01*
X162896028Y-65489415D01*
X162875337Y-65504761D01*
X162853242Y-65518004D01*
X162829954Y-65529018D01*
X162805700Y-65537697D01*
X162780711Y-65543956D01*
X162755229Y-65547736D01*
X162729500Y-65549000D01*
X161754500Y-65549000D01*
X161728771Y-65547736D01*
X161703289Y-65543956D01*
X161678300Y-65537697D01*
X161654046Y-65529018D01*
X161630758Y-65518004D01*
X161608663Y-65504761D01*
X161587972Y-65489415D01*
X161568884Y-65472116D01*
X161551585Y-65453028D01*
X161536239Y-65432337D01*
X161522996Y-65410242D01*
X161511982Y-65386954D01*
X161503303Y-65362700D01*
X161497044Y-65337711D01*
X161493264Y-65312229D01*
X161492000Y-65286500D01*
X161492000Y-64761500D01*
X161493264Y-64735771D01*
X161497044Y-64710289D01*
X161503303Y-64685300D01*
X161511982Y-64661046D01*
X161522996Y-64637758D01*
X161536239Y-64615663D01*
X161551585Y-64594972D01*
X161568884Y-64575884D01*
X161587972Y-64558585D01*
X161608663Y-64543239D01*
X161630758Y-64529996D01*
X161654046Y-64518982D01*
X161678300Y-64510303D01*
X161703289Y-64504044D01*
X161728771Y-64500264D01*
X161754500Y-64499000D01*
X162729500Y-64499000D01*
X162755229Y-64500264D01*
X162755229Y-64500264D01*
G37*
D17*
X162242000Y-65024000D03*
D16*
G36*
X162755229Y-63230264D02*
X162780711Y-63234044D01*
X162805700Y-63240303D01*
X162829954Y-63248982D01*
X162853242Y-63259996D01*
X162875337Y-63273239D01*
X162896028Y-63288585D01*
X162915116Y-63305884D01*
X162932415Y-63324972D01*
X162947761Y-63345663D01*
X162961004Y-63367758D01*
X162972018Y-63391046D01*
X162980697Y-63415300D01*
X162986956Y-63440289D01*
X162990736Y-63465771D01*
X162992000Y-63491500D01*
X162992000Y-64016500D01*
X162990736Y-64042229D01*
X162986956Y-64067711D01*
X162980697Y-64092700D01*
X162972018Y-64116954D01*
X162961004Y-64140242D01*
X162947761Y-64162337D01*
X162932415Y-64183028D01*
X162915116Y-64202116D01*
X162896028Y-64219415D01*
X162875337Y-64234761D01*
X162853242Y-64248004D01*
X162829954Y-64259018D01*
X162805700Y-64267697D01*
X162780711Y-64273956D01*
X162755229Y-64277736D01*
X162729500Y-64279000D01*
X161754500Y-64279000D01*
X161728771Y-64277736D01*
X161703289Y-64273956D01*
X161678300Y-64267697D01*
X161654046Y-64259018D01*
X161630758Y-64248004D01*
X161608663Y-64234761D01*
X161587972Y-64219415D01*
X161568884Y-64202116D01*
X161551585Y-64183028D01*
X161536239Y-64162337D01*
X161522996Y-64140242D01*
X161511982Y-64116954D01*
X161503303Y-64092700D01*
X161497044Y-64067711D01*
X161493264Y-64042229D01*
X161492000Y-64016500D01*
X161492000Y-63491500D01*
X161493264Y-63465771D01*
X161497044Y-63440289D01*
X161503303Y-63415300D01*
X161511982Y-63391046D01*
X161522996Y-63367758D01*
X161536239Y-63345663D01*
X161551585Y-63324972D01*
X161568884Y-63305884D01*
X161587972Y-63288585D01*
X161608663Y-63273239D01*
X161630758Y-63259996D01*
X161654046Y-63248982D01*
X161678300Y-63240303D01*
X161703289Y-63234044D01*
X161728771Y-63230264D01*
X161754500Y-63229000D01*
X162729500Y-63229000D01*
X162755229Y-63230264D01*
X162755229Y-63230264D01*
G37*
D17*
X162242000Y-63754000D03*
G04 #@! TD*
M02*
