M48
;DRILL file {KiCad (5.0.0)} date 01/17/19 17:54:40
;FORMAT={-:-/ absolute / inch / decimal}
FMAT,2
INCH,TZ
T1C0.0276
T2C0.0295
T3C0.0300
T4C0.0315
%
G90
G05
M72
T1
X6.2675Y-2.725
X6.2675Y-3.025
X5.0025Y-2.4475
X5.3025Y-2.4475
X5.Y-2.59
X5.3Y-2.59
X6.1225Y-2.725
X6.1225Y-3.025
X6.41Y-2.725
X6.41Y-3.025
T2
X5.95Y-2.5125
X6.Y-2.4625
X6.Y-2.5625
X6.3375Y-2.51
X6.3875Y-2.46
X6.3875Y-2.56
T3
X4.723Y-2.4105
X4.723Y-2.5105
X4.723Y-2.6105
X5.398Y-3.1355
X5.498Y-3.1355
X5.548Y-2.4105
X5.598Y-3.1355
X5.648Y-2.4105
X5.698Y-3.1355
X5.748Y-2.4105
X5.798Y-3.1355
X5.898Y-3.1355
T4
X5.4975Y-2.71
X5.4975Y-3.01
X5.0625Y-2.785
X5.0625Y-3.085
X5.5975Y-2.71
X5.5975Y-3.01
X5.6975Y-2.71
X5.6975Y-3.01
X5.2725Y-2.785
X5.2725Y-3.085
X5.3975Y-2.71
X5.3975Y-3.01
X5.7975Y-2.71
X5.7975Y-3.01
X5.1725Y-2.785
X5.1725Y-3.085
X5.8975Y-2.71
X5.8975Y-3.01
X4.85Y-2.785
X4.85Y-3.085
X4.9625Y-2.785
X4.9625Y-3.085
X4.75Y-2.785
X4.75Y-3.085
T0
M30
