M48
;DRILL file {KiCad (5.0.0)} date 09/22/19 14:25:48
;FORMAT={-:-/ absolute / inch / decimal}
FMAT,2
INCH,TZ
T1C0.0157
T2C0.0394
T3C0.0512
%
G90
G05
M72
T1
X0.7424Y-4.3832
X0.9485Y-5.252
X1.0033Y-4.0081
X1.026Y-2.55
X1.046Y-5.6203
X1.1079Y-5.6154
X1.1667Y-8.8333
X1.1707Y-5.3507
X1.1968Y-5.8126
X1.2897Y-7.9103
X1.3542Y-3.8537
X1.6173Y-6.2718
X1.634Y-3.5134
X1.6481Y-4.5299
X1.6487Y-4.1525
X1.7054Y-2.9057
X1.713Y-3.2169
X1.7807Y-5.7447
X1.7867Y-5.3486
X1.8229Y-5.6825
X1.8915Y-3.2715
X1.9427Y-2.4787
X1.9911Y-5.3786
X2.1522Y-5.4089
X2.1641Y-9.539
X2.2348Y-4.8859
X2.3979Y-3.5172
X2.4063Y-4.8859
X2.5046Y-4.496
X2.6346Y-4.2463
X2.7437Y-5.8128
X2.7463Y-5.4557
X2.7588Y-3.9119
X2.7664Y-5.6025
X2.7735Y-4.31
X2.8228Y-4.743
X2.8824Y-5.0626
X2.9537Y-3.2092
X2.9684Y-3.8714
X3.0549Y-3.3209
X3.0887Y-4.0934
X3.1313Y-3.2092
X3.2593Y-5.3782
X3.3547Y-5.7997
X3.3593Y-5.4769
X3.3771Y-6.1214
X3.3805Y-3.644
X3.381Y-4.3466
X3.4301Y-2.7572
X3.4665Y-5.8574
X3.4831Y-4.7402
X3.502Y-5.7952
X3.5212Y-6.3026
X3.5404Y-3.5596
X3.5753Y-5.2314
X3.6618Y-5.0462
X3.6712Y-5.5281
X3.68Y-5.6318
X3.688Y-7.688
X3.6911Y-4.7557
X3.7057Y-5.481
X3.7354Y-5.6611
X3.7403Y-3.0467
X3.8336Y-3.8473
X3.9891Y-5.3346
X3.9928Y-5.0475
X4.0594Y-3.9507
X4.0768Y-4.5752
X4.1001Y-7.6
X4.1206Y-3.05
X4.1908Y-2.85
X4.2069Y-4.6589
X4.2255Y-4.7175
X4.2469Y-2.9469
X4.2833Y-3.338
X4.2955Y-5.3588
X4.31Y-2.1659
X4.3126Y-3.2654
X4.3235Y-4.2133
X4.3332Y-2.2766
X4.3401Y-2.1103
X4.3573Y-3.45
X4.3929Y-5.7572
X4.5254Y-6.6856
X4.5388Y-5.4566
X4.5798Y-6.012
X4.6416Y-2.6011
X4.7044Y-6.936
X4.7045Y-2.6534
X4.7727Y-3.1963
X4.7818Y-3.2823
X4.7907Y-2.1419
X4.7927Y-3.85
X4.794Y-3.9
X4.8006Y-5.6065
X4.8184Y-4.2752
X4.8184Y-5.4803
X4.8265Y-7.6938
X4.842Y-2.1608
X4.843Y-3.0245
X4.8676Y-6.1303
X4.8767Y-5.5091
X4.8932Y-5.4595
X4.9188Y-6.0297
X4.9373Y-4.35
X4.9386Y-5.6304
X4.9641Y-2.5463
X5.0517Y-2.3609
X5.0821Y-5.6049
X5.0906Y-5.3572
X5.161Y-5.4068
X5.164Y-4.6257
X5.1745Y-5.5479
X5.1746Y-7.
X5.1955Y-5.3605
X5.2117Y-3.7666
X5.2342Y-5.4353
X5.2345Y-3.6177
X5.2345Y-5.5154
X5.2804Y-2.8
X5.2899Y-3.8
X5.2986Y-3.1789
X5.3108Y-3.9
X5.312Y-2.0329
X5.3165Y-2.7552
X5.3197Y-7.4
X5.3437Y-1.9104
X5.3464Y-2.677
X5.3758Y-3.7
X5.4124Y-3.3433
X5.4161Y-3.3985
X5.4174Y-2.9272
X5.4309Y-2.0669
X5.4505Y-7.0587
X5.4723Y-8.0314
X5.4869Y-5.7806
X5.5041Y-5.511
X5.5057Y-3.5728
X5.5067Y-5.2471
X5.5083Y-7.7901
X5.538Y-3.5265
X5.7738Y-9.0782
X5.781Y-4.86
X5.7965Y-4.0122
X5.83Y-4.7
X5.8794Y-4.5416
X5.9316Y-4.6825
X5.9755Y-4.5
X6.063Y-4.9469
X6.1162Y-3.4162
X6.1285Y-4.348
X6.402Y-4.6967
X6.4343Y-3.4047
X6.4463Y-3.4913
X6.5317Y-3.4616
X6.6804Y-5.3364
X6.6867Y-5.1469
X6.9276Y-6.1259
X6.965Y-5.4091
X6.9804Y-5.3342
X6.9845Y-3.5905
X6.9981Y-5.4637
X6.9998Y-5.5034
X7.0586Y-5.0473
X7.3219Y-3.6191
X7.6098Y-2.1689
X7.693Y-3.6588
X7.7161Y-2.5601
X7.7493Y-3.6556
X7.7562Y-2.6266
X7.9309Y-2.1619
X8.1637Y-2.9948
X8.1705Y-4.5484
X8.1891Y-3.3472
X8.2802Y-3.8468
X8.3545Y-3.6041
X8.3639Y-3.6637
X8.384Y-3.7492
X8.3866Y-3.9
X8.3873Y-3.4
X8.4294Y-5.6864
X8.4722Y-4.7
X8.5427Y-3.6041
X8.5827Y-2.0126
X8.7545Y-5.3981
X8.7827Y-3.0173
X8.7937Y-2.874
X9.0239Y-2.3525
X9.0552Y-3.5
X9.1172Y-4.5173
X9.2524Y-7.2736
X9.5032Y-4.9234
X10.3051Y-2.3525
X10.4076Y-6.0753
X10.5351Y-3.4463
X10.6248Y-4.5251
X10.8216Y-4.489
X10.8244Y-5.6657
X10.9313Y-5.7629
X10.9965Y-5.5121
X11.1334Y-4.2522
X11.1705Y-5.1469
X11.2137Y-5.6598
X11.2657Y-3.6016
X11.2911Y-5.3392
X11.3219Y-4.5772
X11.4928Y-4.4
X11.4977Y-4.5
X11.6015Y-5.4647
X11.8918Y-2.1618
X12.1648Y-4.1478
X12.1951Y-2.1417
X12.2641Y-3.9499
X12.3409Y-5.8692
X12.3577Y-2.4851
X12.3927Y-5.7292
X12.4566Y-5.5043
X12.5036Y-3.6267
X12.5303Y-5.2954
X12.5516Y-4.2181
X12.6701Y-4.1895
X12.6745Y-2.4179
X12.6763Y-3.9576
X12.706Y-3.8285
X12.7068Y-4.0893
X12.7427Y-2.75
X12.8607Y-6.4322
X12.8909Y-2.0613
X12.9196Y-5.429
X12.9904Y-3.3933
X13.0321Y-4.3829
X13.0558Y-4.0218
X13.0768Y-2.1275
X13.0769Y-5.4843
X13.1601Y-5.9047
X13.1994Y-3.0569
X13.1997Y-5.5269
X13.2103Y-6.0481
X13.2182Y-5.3911
X13.2695Y-5.46
X13.313Y-5.316
X13.3509Y-5.0608
X13.3509Y-4.8406
X13.3643Y-6.4624
X13.6578Y-3.6491
X13.6581Y-4.0895
X13.7517Y-5.452
X13.822Y-5.3637
X13.8291Y-6.7205
X13.8852Y-3.7888
X13.8866Y-3.95
X13.9088Y-5.3097
X14.0926Y-6.4624
X14.2372Y-5.3234
X14.3749Y-4.5756
X14.4341Y-4.55
X14.8225Y-5.3935
X14.9973Y-4.6237
X15.05Y-4.6393
X15.1262Y-4.6679
X15.4212Y-5.5553
X15.6663Y-4.3755
T2
X1.4Y-2.2
X1.4Y-2.3
X1.4Y-2.4
X1.4Y-2.5
X1.4Y-2.6
X1.4Y-2.7
X1.4Y-2.8
X1.4Y-2.9
X1.4Y-3.
X1.4Y-3.1
X1.4Y-3.2
X1.4Y-3.3
X1.4Y-3.4
X1.4Y-3.5
X1.4Y-3.6
X1.4Y-3.7
X1.4Y-3.8
X1.4Y-3.9
X1.4Y-4.
X1.4Y-4.1
X1.4Y-4.2
X1.4Y-4.3
X1.4Y-4.4
X1.4Y-4.5
X1.4Y-4.6
X1.4Y-4.7
X1.4Y-4.8
X1.4Y-4.9
X1.4Y-5.
X1.4Y-5.1
X1.4Y-5.2
X1.4Y-5.3
X1.5Y-2.2
X1.5Y-2.3
X1.5Y-2.4
X1.5Y-2.5
X1.5Y-2.6
X1.5Y-2.7
X1.5Y-2.8
X1.5Y-2.9
X1.5Y-3.
X1.5Y-3.1
X1.5Y-3.2
X1.5Y-3.3
X1.5Y-3.4
X1.5Y-3.5
X1.5Y-3.6
X1.5Y-3.7
X1.5Y-3.8
X1.5Y-3.9
X1.5Y-4.
X1.5Y-4.1
X1.5Y-4.2
X1.5Y-4.3
X1.5Y-4.4
X1.5Y-4.5
X1.5Y-4.6
X1.5Y-4.7
X1.5Y-4.8
X1.5Y-4.9
X1.5Y-5.
X1.5Y-5.1
X1.5Y-5.2
X1.5Y-5.3
X0.8Y-2.2
X0.8Y-2.3
X0.8Y-2.4
X0.8Y-2.5
X0.8Y-2.6
X0.8Y-2.7
X0.8Y-2.8
X0.8Y-2.9
X0.8Y-3.
X0.8Y-3.1
X0.8Y-3.2
X0.8Y-3.3
X0.8Y-3.4
X0.8Y-3.5
X0.8Y-3.6
X0.8Y-3.7
X0.8Y-3.8
X0.8Y-3.9
X0.8Y-4.
X0.8Y-4.1
X0.8Y-4.2
X0.8Y-4.3
X0.8Y-4.4
X0.8Y-4.5
X0.8Y-4.6
X0.8Y-4.7
X0.8Y-4.8
X0.8Y-4.9
X0.8Y-5.
X0.8Y-5.1
X0.8Y-5.2
X0.8Y-5.3
X0.9Y-2.2
X0.9Y-2.3
X0.9Y-2.4
X0.9Y-2.5
X0.9Y-2.6
X0.9Y-2.7
X0.9Y-2.8
X0.9Y-2.9
X0.9Y-3.
X0.9Y-3.1
X0.9Y-3.2
X0.9Y-3.3
X0.9Y-3.4
X0.9Y-3.5
X0.9Y-3.6
X0.9Y-3.7
X0.9Y-3.8
X0.9Y-3.9
X0.9Y-4.
X0.9Y-4.1
X0.9Y-4.2
X0.9Y-4.3
X0.9Y-4.4
X0.9Y-4.5
X0.9Y-4.6
X0.9Y-4.7
X0.9Y-4.8
X0.9Y-4.9
X0.9Y-5.
X0.9Y-5.1
X0.9Y-5.2
X0.9Y-5.3
X14.6Y-2.2
X14.6Y-2.3
X14.6Y-2.4
X14.6Y-2.5
X14.6Y-2.6
X14.6Y-2.7
X14.6Y-2.8
X14.6Y-2.9
X14.6Y-3.
X14.6Y-3.1
X14.6Y-3.2
X14.6Y-3.3
X14.6Y-3.4
X14.6Y-3.5
X14.6Y-3.6
X14.6Y-3.7
X14.6Y-3.8
X14.6Y-3.9
X14.6Y-4.
X14.6Y-4.1
X14.6Y-4.2
X14.6Y-4.3
X14.6Y-4.4
X14.6Y-4.5
X14.6Y-4.6
X14.6Y-4.7
X14.6Y-4.8
X14.6Y-4.9
X14.6Y-5.
X14.6Y-5.1
X14.6Y-5.2
X14.6Y-5.3
X14.7Y-2.2
X14.7Y-2.3
X14.7Y-2.4
X14.7Y-2.5
X14.7Y-2.6
X14.7Y-2.7
X14.7Y-2.8
X14.7Y-2.9
X14.7Y-3.
X14.7Y-3.1
X14.7Y-3.2
X14.7Y-3.3
X14.7Y-3.4
X14.7Y-3.5
X14.7Y-3.6
X14.7Y-3.7
X14.7Y-3.8
X14.7Y-3.9
X14.7Y-4.
X14.7Y-4.1
X14.7Y-4.2
X14.7Y-4.3
X14.7Y-4.4
X14.7Y-4.5
X14.7Y-4.6
X14.7Y-4.7
X14.7Y-4.8
X14.7Y-4.9
X14.7Y-5.
X14.7Y-5.1
X14.7Y-5.2
X14.7Y-5.3
X15.2Y-2.2
X15.2Y-2.3
X15.2Y-2.4
X15.2Y-2.5
X15.2Y-2.6
X15.2Y-2.7
X15.2Y-2.8
X15.2Y-2.9
X15.2Y-3.
X15.2Y-3.1
X15.2Y-3.2
X15.2Y-3.3
X15.2Y-3.4
X15.2Y-3.5
X15.2Y-3.6
X15.2Y-3.7
X15.2Y-3.8
X15.2Y-3.9
X15.2Y-4.
X15.2Y-4.1
X15.2Y-4.2
X15.2Y-4.3
X15.2Y-4.4
X15.2Y-4.5
X15.2Y-4.6
X15.2Y-4.7
X15.2Y-4.8
X15.2Y-4.9
X15.2Y-5.
X15.2Y-5.1
X15.2Y-5.2
X15.2Y-5.3
X15.3Y-2.2
X15.3Y-2.3
X15.3Y-2.4
X15.3Y-2.5
X15.3Y-2.6
X15.3Y-2.7
X15.3Y-2.8
X15.3Y-2.9
X15.3Y-3.
X15.3Y-3.1
X15.3Y-3.2
X15.3Y-3.3
X15.3Y-3.4
X15.3Y-3.5
X15.3Y-3.6
X15.3Y-3.7
X15.3Y-3.8
X15.3Y-3.9
X15.3Y-4.
X15.3Y-4.1
X15.3Y-4.2
X15.3Y-4.3
X15.3Y-4.4
X15.3Y-4.5
X15.3Y-4.6
X15.3Y-4.7
X15.3Y-4.8
X15.3Y-4.9
X15.3Y-5.
X15.3Y-5.1
X15.3Y-5.2
X15.3Y-5.3
X8.Y-2.2
X8.Y-2.3
X8.Y-2.4
X8.Y-2.5
X8.Y-2.6
X8.Y-2.7
X8.Y-2.8
X8.Y-2.9
X8.Y-3.
X8.Y-3.1
X8.Y-3.2
X8.Y-3.3
X8.Y-3.4
X8.Y-3.5
X8.Y-3.6
X8.Y-3.7
X8.Y-3.8
X8.Y-3.9
X8.Y-4.
X8.Y-4.1
X8.Y-4.2
X8.Y-4.3
X8.Y-4.4
X8.Y-4.5
X8.Y-4.6
X8.Y-4.7
X8.Y-4.8
X8.Y-4.9
X8.Y-5.
X8.Y-5.1
X8.Y-5.2
X8.Y-5.3
X8.1Y-2.2
X8.1Y-2.3
X8.1Y-2.4
X8.1Y-2.5
X8.1Y-2.6
X8.1Y-2.7
X8.1Y-2.8
X8.1Y-2.9
X8.1Y-3.
X8.1Y-3.1
X8.1Y-3.2
X8.1Y-3.3
X8.1Y-3.4
X8.1Y-3.5
X8.1Y-3.6
X8.1Y-3.7
X8.1Y-3.8
X8.1Y-3.9
X8.1Y-4.
X8.1Y-4.1
X8.1Y-4.2
X8.1Y-4.3
X8.1Y-4.4
X8.1Y-4.5
X8.1Y-4.6
X8.1Y-4.7
X8.1Y-4.8
X8.1Y-4.9
X8.1Y-5.
X8.1Y-5.1
X8.1Y-5.2
X8.1Y-5.3
X9.2Y-2.2
X9.2Y-2.3
X9.2Y-2.4
X9.2Y-2.5
X9.2Y-2.6
X9.2Y-2.7
X9.2Y-2.8
X9.2Y-2.9
X9.2Y-3.
X9.2Y-3.1
X9.2Y-3.2
X9.2Y-3.3
X9.2Y-3.4
X9.2Y-3.5
X9.2Y-3.6
X9.2Y-3.7
X9.2Y-3.8
X9.2Y-3.9
X9.2Y-4.
X9.2Y-4.1
X9.2Y-4.2
X9.2Y-4.3
X9.2Y-4.4
X9.2Y-4.5
X9.2Y-4.6
X9.2Y-4.7
X9.2Y-4.8
X9.2Y-4.9
X9.2Y-5.
X9.2Y-5.1
X9.2Y-5.2
X9.2Y-5.3
X9.3Y-2.2
X9.3Y-2.3
X9.3Y-2.4
X9.3Y-2.5
X9.3Y-2.6
X9.3Y-2.7
X9.3Y-2.8
X9.3Y-2.9
X9.3Y-3.
X9.3Y-3.1
X9.3Y-3.2
X9.3Y-3.3
X9.3Y-3.4
X9.3Y-3.5
X9.3Y-3.6
X9.3Y-3.7
X9.3Y-3.8
X9.3Y-3.9
X9.3Y-4.
X9.3Y-4.1
X9.3Y-4.2
X9.3Y-4.3
X9.3Y-4.4
X9.3Y-4.5
X9.3Y-4.6
X9.3Y-4.7
X9.3Y-4.8
X9.3Y-4.9
X9.3Y-5.
X9.3Y-5.1
X9.3Y-5.2
X9.3Y-5.3
X3.2Y-2.2
X3.2Y-2.3
X3.2Y-2.4
X3.2Y-2.5
X3.2Y-2.6
X3.2Y-2.7
X3.2Y-2.8
X3.2Y-2.9
X3.2Y-3.
X3.2Y-3.1
X3.2Y-3.2
X3.2Y-3.3
X3.2Y-3.4
X3.2Y-3.5
X3.2Y-3.6
X3.2Y-3.7
X3.2Y-3.8
X3.2Y-3.9
X3.2Y-4.
X3.2Y-4.1
X3.2Y-4.2
X3.2Y-4.3
X3.2Y-4.4
X3.2Y-4.5
X3.2Y-4.6
X3.2Y-4.7
X3.2Y-4.8
X3.2Y-4.9
X3.2Y-5.
X3.2Y-5.1
X3.2Y-5.2
X3.2Y-5.3
X3.3Y-2.2
X3.3Y-2.3
X3.3Y-2.4
X3.3Y-2.5
X3.3Y-2.6
X3.3Y-2.7
X3.3Y-2.8
X3.3Y-2.9
X3.3Y-3.
X3.3Y-3.1
X3.3Y-3.2
X3.3Y-3.3
X3.3Y-3.4
X3.3Y-3.5
X3.3Y-3.6
X3.3Y-3.7
X3.3Y-3.8
X3.3Y-3.9
X3.3Y-4.
X3.3Y-4.1
X3.3Y-4.2
X3.3Y-4.3
X3.3Y-4.4
X3.3Y-4.5
X3.3Y-4.6
X3.3Y-4.7
X3.3Y-4.8
X3.3Y-4.9
X3.3Y-5.
X3.3Y-5.1
X3.3Y-5.2
X3.3Y-5.3
X13.4Y-2.2
X13.4Y-2.3
X13.4Y-2.4
X13.4Y-2.5
X13.4Y-2.6
X13.4Y-2.7
X13.4Y-2.8
X13.4Y-2.9
X13.4Y-3.
X13.4Y-3.1
X13.4Y-3.2
X13.4Y-3.3
X13.4Y-3.4
X13.4Y-3.5
X13.4Y-3.6
X13.4Y-3.7
X13.4Y-3.8
X13.4Y-3.9
X13.4Y-4.
X13.4Y-4.1
X13.4Y-4.2
X13.4Y-4.3
X13.4Y-4.4
X13.4Y-4.5
X13.4Y-4.6
X13.4Y-4.7
X13.4Y-4.8
X13.4Y-4.9
X13.4Y-5.
X13.4Y-5.1
X13.4Y-5.2
X13.4Y-5.3
X13.5Y-2.2
X13.5Y-2.3
X13.5Y-2.4
X13.5Y-2.5
X13.5Y-2.6
X13.5Y-2.7
X13.5Y-2.8
X13.5Y-2.9
X13.5Y-3.
X13.5Y-3.1
X13.5Y-3.2
X13.5Y-3.3
X13.5Y-3.4
X13.5Y-3.5
X13.5Y-3.6
X13.5Y-3.7
X13.5Y-3.8
X13.5Y-3.9
X13.5Y-4.
X13.5Y-4.1
X13.5Y-4.2
X13.5Y-4.3
X13.5Y-4.4
X13.5Y-4.5
X13.5Y-4.6
X13.5Y-4.7
X13.5Y-4.8
X13.5Y-4.9
X13.5Y-5.
X13.5Y-5.1
X13.5Y-5.2
X13.5Y-5.3
X9.8Y-2.2
X9.8Y-2.3
X9.8Y-2.4
X9.8Y-2.5
X9.8Y-2.6
X9.8Y-2.7
X9.8Y-2.8
X9.8Y-2.9
X9.8Y-3.
X9.8Y-3.1
X9.8Y-3.2
X9.8Y-3.3
X9.8Y-3.4
X9.8Y-3.5
X9.8Y-3.6
X9.8Y-3.7
X9.8Y-3.8
X9.8Y-3.9
X9.8Y-4.
X9.8Y-4.1
X9.8Y-4.2
X9.8Y-4.3
X9.8Y-4.4
X9.8Y-4.5
X9.8Y-4.6
X9.8Y-4.7
X9.8Y-4.8
X9.8Y-4.9
X9.8Y-5.
X9.8Y-5.1
X9.8Y-5.2
X9.8Y-5.3
X9.9Y-2.2
X9.9Y-2.3
X9.9Y-2.4
X9.9Y-2.5
X9.9Y-2.6
X9.9Y-2.7
X9.9Y-2.8
X9.9Y-2.9
X9.9Y-3.
X9.9Y-3.1
X9.9Y-3.2
X9.9Y-3.3
X9.9Y-3.4
X9.9Y-3.5
X9.9Y-3.6
X9.9Y-3.7
X9.9Y-3.8
X9.9Y-3.9
X9.9Y-4.
X9.9Y-4.1
X9.9Y-4.2
X9.9Y-4.3
X9.9Y-4.4
X9.9Y-4.5
X9.9Y-4.6
X9.9Y-4.7
X9.9Y-4.8
X9.9Y-4.9
X9.9Y-5.
X9.9Y-5.1
X9.9Y-5.2
X9.9Y-5.3
X5.6Y-2.2
X5.6Y-2.3
X5.6Y-2.4
X5.6Y-2.5
X5.6Y-2.6
X5.6Y-2.7
X5.6Y-2.8
X5.6Y-2.9
X5.6Y-3.
X5.6Y-3.1
X5.6Y-3.2
X5.6Y-3.3
X5.6Y-3.4
X5.6Y-3.5
X5.6Y-3.6
X5.6Y-3.7
X5.6Y-3.8
X5.6Y-3.9
X5.6Y-4.
X5.6Y-4.1
X5.6Y-4.2
X5.6Y-4.3
X5.6Y-4.4
X5.6Y-4.5
X5.6Y-4.6
X5.6Y-4.7
X5.6Y-4.8
X5.6Y-4.9
X5.6Y-5.
X5.6Y-5.1
X5.6Y-5.2
X5.6Y-5.2975
X5.7Y-2.2
X5.7Y-2.3
X5.7Y-2.4
X5.7Y-2.5
X5.7Y-2.6
X5.7Y-2.7
X5.7Y-2.8
X5.7Y-2.9
X5.7Y-3.
X5.7Y-3.1
X5.7Y-3.2
X5.7Y-3.3
X5.7Y-3.4
X5.7Y-3.5
X5.7Y-3.6
X5.7Y-3.7
X5.7Y-3.8
X5.7Y-3.9
X5.7Y-4.
X5.7Y-4.1
X5.7Y-4.2
X5.7Y-4.3
X5.7Y-4.4
X5.7Y-4.5
X5.7Y-4.6
X5.7Y-4.7
X5.7Y-4.8
X5.7Y-4.9
X5.7Y-5.
X5.7Y-5.1
X5.7Y-5.2
X5.7Y-5.3
X10.4Y-2.2
X10.4Y-2.3
X10.4Y-2.4
X10.4Y-2.5
X10.4Y-2.6
X10.4Y-2.7
X10.4Y-2.8
X10.4Y-2.9
X10.4Y-3.
X10.4Y-3.1
X10.4Y-3.2
X10.4Y-3.3
X10.4Y-3.4
X10.4Y-3.5
X10.4Y-3.6
X10.4Y-3.7
X10.4Y-3.8
X10.4Y-3.9
X10.4Y-4.
X10.4Y-4.1
X10.4Y-4.2
X10.4Y-4.3
X10.4Y-4.4
X10.4Y-4.5
X10.4Y-4.6
X10.4Y-4.7
X10.4Y-4.8
X10.4Y-4.9
X10.4Y-5.
X10.4Y-5.1
X10.4Y-5.2
X10.4Y-5.3
X10.5Y-2.2
X10.5Y-2.3
X10.5Y-2.4
X10.5Y-2.5
X10.5Y-2.6
X10.5Y-2.7
X10.5Y-2.8
X10.5Y-2.9
X10.5Y-3.
X10.5Y-3.1
X10.5Y-3.2
X10.5Y-3.3
X10.5Y-3.4
X10.5Y-3.5
X10.5Y-3.6
X10.5Y-3.7
X10.5Y-3.8
X10.5Y-3.9
X10.5Y-4.
X10.5Y-4.1
X10.5Y-4.2
X10.5Y-4.3
X10.5Y-4.4
X10.5Y-4.5
X10.5Y-4.6
X10.5Y-4.7
X10.5Y-4.8
X10.5Y-4.9
X10.5Y-5.
X10.5Y-5.1
X10.5Y-5.2
X10.5Y-5.3
X3.8Y-2.2
X3.8Y-2.3
X3.8Y-2.4
X3.8Y-2.5
X3.8Y-2.6
X3.8Y-2.7
X3.8Y-2.8
X3.8Y-2.9
X3.8Y-3.
X3.8Y-3.1
X3.8Y-3.2
X3.8Y-3.3
X3.8Y-3.4
X3.8Y-3.5
X3.8Y-3.6
X3.8Y-3.7
X3.8Y-3.8
X3.8Y-3.9
X3.8Y-4.
X3.8Y-4.1
X3.8Y-4.2
X3.8Y-4.3
X3.8Y-4.4
X3.8Y-4.5
X3.8Y-4.6
X3.8Y-4.7
X3.8Y-4.8
X3.8Y-4.9
X3.8Y-5.
X3.8Y-5.1
X3.8Y-5.2
X3.8Y-5.3
X3.9Y-2.2
X3.9Y-2.3
X3.9Y-2.4
X3.9Y-2.5
X3.9Y-2.6
X3.9Y-2.7
X3.9Y-2.8
X3.9Y-2.9
X3.9Y-3.
X3.9Y-3.1
X3.9Y-3.2
X3.9Y-3.3
X3.9Y-3.4
X3.9Y-3.5
X3.9Y-3.6
X3.9Y-3.7
X3.9Y-3.8
X3.9Y-3.9
X3.9Y-4.
X3.9Y-4.1
X3.9Y-4.2
X3.9Y-4.3
X3.9Y-4.4
X3.9Y-4.5
X3.9Y-4.6
X3.9Y-4.7
X3.9Y-4.8
X3.9Y-4.9
X3.9Y-5.
X3.9Y-5.1
X3.9Y-5.2
X3.9Y-5.3
X12.2Y-2.2
X12.2Y-2.3
X12.2Y-2.4
X12.2Y-2.5
X12.2Y-2.6
X12.2Y-2.7
X12.2Y-2.8
X12.2Y-2.9
X12.2Y-3.
X12.2Y-3.1
X12.2Y-3.2
X12.2Y-3.3
X12.2Y-3.4
X12.2Y-3.5
X12.2Y-3.6
X12.2Y-3.7
X12.2Y-3.8
X12.2Y-3.9
X12.2Y-4.
X12.2Y-4.1
X12.2Y-4.2
X12.2Y-4.3
X12.2Y-4.4
X12.2Y-4.5
X12.2Y-4.6
X12.2Y-4.7
X12.2Y-4.8
X12.2Y-4.9
X12.2Y-5.
X12.2Y-5.1
X12.2Y-5.2
X12.2Y-5.3
X12.3Y-2.2
X12.3Y-2.3
X12.3Y-2.4
X12.3Y-2.5
X12.3Y-2.6
X12.3Y-2.7
X12.3Y-2.8
X12.3Y-2.9
X12.3Y-3.
X12.3Y-3.1
X12.3Y-3.2
X12.3Y-3.3
X12.3Y-3.4
X12.3Y-3.5
X12.3Y-3.6
X12.3Y-3.7
X12.3Y-3.8
X12.3Y-3.9
X12.3Y-4.
X12.3Y-4.1
X12.3Y-4.2
X12.3Y-4.3
X12.3Y-4.4
X12.3Y-4.5
X12.3Y-4.6
X12.3Y-4.7
X12.3Y-4.8
X12.3Y-4.9
X12.3Y-5.
X12.3Y-5.1
X12.3Y-5.2
X12.3Y-5.3
X12.8Y-2.2
X12.8Y-2.3
X12.8Y-2.4
X12.8Y-2.5
X12.8Y-2.6
X12.8Y-2.7
X12.8Y-2.8
X12.8Y-2.9
X12.8Y-3.
X12.8Y-3.1
X12.8Y-3.2
X12.8Y-3.3
X12.8Y-3.4
X12.8Y-3.5
X12.8Y-3.6
X12.8Y-3.7
X12.8Y-3.8
X12.8Y-3.9
X12.8Y-4.
X12.8Y-4.1
X12.8Y-4.2
X12.8Y-4.3
X12.8Y-4.4
X12.8Y-4.5
X12.8Y-4.6
X12.8Y-4.7
X12.8Y-4.8
X12.8Y-4.9
X12.8Y-5.
X12.8Y-5.1
X12.8Y-5.2
X12.8Y-5.3
X12.9Y-2.2
X12.9Y-2.3
X12.9Y-2.4
X12.9Y-2.5
X12.9Y-2.6
X12.9Y-2.7
X12.9Y-2.8
X12.9Y-2.9
X12.9Y-3.
X12.9Y-3.1
X12.9Y-3.2
X12.9Y-3.3
X12.9Y-3.4
X12.9Y-3.5
X12.9Y-3.6
X12.9Y-3.7
X12.9Y-3.8
X12.9Y-3.9
X12.9Y-4.
X12.9Y-4.1
X12.9Y-4.2
X12.9Y-4.3
X12.9Y-4.4
X12.9Y-4.5
X12.9Y-4.6
X12.9Y-4.7
X12.9Y-4.8
X12.9Y-4.9
X12.9Y-5.
X12.9Y-5.1
X12.9Y-5.2
X12.9Y-5.3
X5.Y-2.2
X5.Y-2.3
X5.Y-2.4
X5.Y-2.5
X5.Y-2.6
X5.Y-2.7
X5.Y-2.8
X5.Y-2.9
X5.Y-3.
X5.Y-3.1
X5.Y-3.2
X5.Y-3.3
X5.Y-3.4
X5.Y-3.5
X5.Y-3.6
X5.Y-3.7
X5.Y-3.8
X5.Y-3.9
X5.Y-4.
X5.Y-4.1
X5.Y-4.2
X5.Y-4.3
X5.Y-4.4
X5.Y-4.5
X5.Y-4.6
X5.Y-4.7
X5.Y-4.8
X5.Y-4.9
X5.Y-5.
X5.Y-5.1
X5.Y-5.2
X5.Y-5.3
X5.1Y-2.2
X5.1Y-2.3
X5.1Y-2.4
X5.1Y-2.5
X5.1Y-2.6
X5.1Y-2.7
X5.1Y-2.8
X5.1Y-2.9
X5.1Y-3.
X5.1Y-3.1
X5.1Y-3.2
X5.1Y-3.3
X5.1Y-3.4
X5.1Y-3.5
X5.1Y-3.6
X5.1Y-3.7
X5.1Y-3.8
X5.1Y-3.9
X5.1Y-4.
X5.1Y-4.1
X5.1Y-4.2
X5.1Y-4.3
X5.1Y-4.4
X5.1Y-4.5
X5.1Y-4.6
X5.1Y-4.7
X5.1Y-4.8
X5.1Y-4.9
X5.1Y-5.
X5.1Y-5.1
X5.1Y-5.2
X5.1Y-5.3
X7.4Y-2.2
X7.4Y-2.3
X7.4Y-2.4
X7.4Y-2.5
X7.4Y-2.6
X7.4Y-2.7
X7.4Y-2.8
X7.4Y-2.9
X7.4Y-3.
X7.4Y-3.1
X7.4Y-3.2
X7.4Y-3.3
X7.4Y-3.4
X7.4Y-3.5
X7.4Y-3.6
X7.4Y-3.7
X7.4Y-3.8
X7.4Y-3.9
X7.4Y-4.
X7.4Y-4.1
X7.4Y-4.2
X7.4Y-4.3
X7.4Y-4.4
X7.4Y-4.5
X7.4Y-4.6
X7.4Y-4.7
X7.4Y-4.8
X7.4Y-4.9
X7.4Y-5.
X7.4Y-5.1
X7.4Y-5.2
X7.4Y-5.3
X7.5Y-2.2
X7.5Y-2.3
X7.5Y-2.4
X7.5Y-2.5
X7.5Y-2.6
X7.5Y-2.7
X7.5Y-2.8
X7.5Y-2.9
X7.5Y-3.
X7.5Y-3.1
X7.5Y-3.2
X7.5Y-3.3
X7.5Y-3.4
X7.5Y-3.5
X7.5Y-3.6
X7.5Y-3.7
X7.5Y-3.8
X7.5Y-3.9
X7.5Y-4.
X7.5Y-4.1
X7.5Y-4.2
X7.5Y-4.3
X7.5Y-4.4
X7.5Y-4.5
X7.5Y-4.6
X7.5Y-4.7
X7.5Y-4.8
X7.5Y-4.9
X7.5Y-5.
X7.5Y-5.1
X7.5Y-5.2
X7.5Y-5.3
X15.8Y-2.2
X15.8Y-2.3
X15.8Y-2.4
X15.8Y-2.5
X15.8Y-2.6
X15.8Y-2.7
X15.8Y-2.8
X15.8Y-2.9
X15.8Y-3.
X15.8Y-3.1
X15.8Y-3.2
X15.8Y-3.3
X15.8Y-3.4
X15.8Y-3.5
X15.8Y-3.6
X15.8Y-3.7
X15.8Y-3.8
X15.8Y-3.9
X15.8Y-4.
X15.8Y-4.1
X15.8Y-4.2
X15.8Y-4.3
X15.8Y-4.4
X15.8Y-4.5
X15.8Y-4.6
X15.8Y-4.7
X15.8Y-4.8
X15.8Y-4.9
X15.8Y-5.
X15.8Y-5.1
X15.8Y-5.2
X15.8Y-5.3
X15.9Y-2.2
X15.9Y-2.3
X15.9Y-2.4
X15.9Y-2.5
X15.9Y-2.6
X15.9Y-2.7
X15.9Y-2.8
X15.9Y-2.9
X15.9Y-3.
X15.9Y-3.1
X15.9Y-3.2
X15.9Y-3.3
X15.9Y-3.4
X15.9Y-3.5
X15.9Y-3.6
X15.9Y-3.7
X15.9Y-3.8
X15.9Y-3.9
X15.9Y-4.
X15.9Y-4.1
X15.9Y-4.2
X15.9Y-4.3
X15.9Y-4.4
X15.9Y-4.5
X15.9Y-4.6
X15.9Y-4.7
X15.9Y-4.8
X15.9Y-4.9
X15.9Y-5.
X15.9Y-5.1
X15.9Y-5.2
X15.9Y-5.3
X4.4Y-2.2
X4.4Y-2.3
X4.4Y-2.4
X4.4Y-2.5
X4.4Y-2.6
X4.4Y-2.7
X4.4Y-2.8
X4.4Y-2.9
X4.4Y-3.
X4.4Y-3.1
X4.4Y-3.2
X4.4Y-3.3
X4.4Y-3.4
X4.4Y-3.5
X4.4Y-3.6
X4.4Y-3.7
X4.4Y-3.8
X4.4Y-3.9
X4.4Y-4.
X4.4Y-4.1
X4.4Y-4.2
X4.4Y-4.3
X4.4Y-4.4
X4.4Y-4.5
X4.4Y-4.6
X4.4Y-4.7
X4.4Y-4.8
X4.4Y-4.9
X4.4Y-5.
X4.4Y-5.1
X4.4Y-5.2
X4.4Y-5.3
X4.5Y-2.2
X4.5Y-2.3
X4.5Y-2.4
X4.5Y-2.5
X4.5Y-2.6
X4.5Y-2.7
X4.5Y-2.8
X4.5Y-2.9
X4.5Y-3.
X4.5Y-3.1
X4.5Y-3.2
X4.5Y-3.3
X4.5Y-3.4
X4.5Y-3.5
X4.5Y-3.6
X4.5Y-3.7
X4.5Y-3.8
X4.5Y-3.9
X4.5Y-4.
X4.5Y-4.1
X4.5Y-4.2
X4.5Y-4.3
X4.5Y-4.4
X4.5Y-4.5
X4.5Y-4.6
X4.5Y-4.7
X4.5Y-4.8
X4.5Y-4.9
X4.5Y-5.
X4.5Y-5.1
X4.5Y-5.2
X4.5Y-5.3
X6.2Y-2.2
X6.2Y-2.3
X6.2Y-2.4
X6.2Y-2.5
X6.2Y-2.6
X6.2Y-2.7
X6.2Y-2.8
X6.2Y-2.9
X6.2Y-3.
X6.2Y-3.1
X6.2Y-3.2
X6.2Y-3.3
X6.2Y-3.4
X6.2Y-3.5
X6.2Y-3.6
X6.2Y-3.7
X6.2Y-3.8
X6.2Y-3.9
X6.2Y-4.
X6.2Y-4.1
X6.2Y-4.2
X6.2Y-4.3
X6.2Y-4.4
X6.2Y-4.5
X6.2Y-4.6
X6.2Y-4.7
X6.2Y-4.8
X6.2Y-4.9
X6.2Y-5.
X6.2Y-5.1
X6.2Y-5.2
X6.2Y-5.3
X6.3Y-2.2
X6.3Y-2.3
X6.3Y-2.4
X6.3Y-2.5
X6.3Y-2.6
X6.3Y-2.7
X6.3Y-2.8
X6.3Y-2.9
X6.3Y-3.
X6.3Y-3.1
X6.3Y-3.2
X6.3Y-3.3
X6.3Y-3.4
X6.3Y-3.5
X6.3Y-3.6
X6.3Y-3.7
X6.3Y-3.8
X6.3Y-3.9
X6.3Y-4.
X6.3Y-4.1
X6.3Y-4.2
X6.3Y-4.3
X6.3Y-4.4
X6.3Y-4.5
X6.3Y-4.6
X6.3Y-4.7
X6.3Y-4.8
X6.3Y-4.9
X6.3Y-5.
X6.3Y-5.1
X6.3Y-5.2
X6.3Y-5.3
X11.6Y-2.2
X11.6Y-2.3
X11.6Y-2.4
X11.6Y-2.5
X11.6Y-2.6
X11.6Y-2.7
X11.6Y-2.8
X11.6Y-2.9
X11.6Y-3.
X11.6Y-3.1
X11.6Y-3.2
X11.6Y-3.3
X11.6Y-3.4
X11.6Y-3.5
X11.6Y-3.6
X11.6Y-3.7
X11.6Y-3.8
X11.6Y-3.9
X11.6Y-4.
X11.6Y-4.1
X11.6Y-4.2
X11.6Y-4.3
X11.6Y-4.4
X11.6Y-4.5
X11.6Y-4.6
X11.6Y-4.7
X11.6Y-4.8
X11.6Y-4.9
X11.6Y-5.
X11.6Y-5.1
X11.6Y-5.2
X11.6Y-5.3
X11.7Y-2.2
X11.7Y-2.3
X11.7Y-2.4
X11.7Y-2.5
X11.7Y-2.6
X11.7Y-2.7
X11.7Y-2.8
X11.7Y-2.9
X11.7Y-3.
X11.7Y-3.1
X11.7Y-3.2
X11.7Y-3.3
X11.7Y-3.4
X11.7Y-3.5
X11.7Y-3.6
X11.7Y-3.7
X11.7Y-3.8
X11.7Y-3.9
X11.7Y-4.
X11.7Y-4.1
X11.7Y-4.2
X11.7Y-4.3
X11.7Y-4.4
X11.7Y-4.5
X11.7Y-4.6
X11.7Y-4.7
X11.7Y-4.8
X11.7Y-4.9
X11.7Y-5.
X11.7Y-5.1
X11.7Y-5.2
X11.7Y-5.3
X6.8Y-2.2
X6.8Y-2.3
X6.8Y-2.4
X6.8Y-2.5
X6.8Y-2.6
X6.8Y-2.7
X6.8Y-2.8
X6.8Y-2.9
X6.8Y-3.
X6.8Y-3.1
X6.8Y-3.2
X6.8Y-3.3
X6.8Y-3.4
X6.8Y-3.5
X6.8Y-3.6
X6.8Y-3.7
X6.8Y-3.8
X6.8Y-3.9
X6.8Y-4.
X6.8Y-4.1
X6.8Y-4.2
X6.8Y-4.3
X6.8Y-4.4
X6.8Y-4.5
X6.8Y-4.6
X6.8Y-4.7
X6.8Y-4.8
X6.8Y-4.9
X6.8Y-5.
X6.8Y-5.1
X6.8Y-5.2
X6.8Y-5.3
X6.9Y-2.2
X6.9Y-2.3
X6.9Y-2.4
X6.9Y-2.5
X6.9Y-2.6
X6.9Y-2.7
X6.9Y-2.8
X6.9Y-2.9
X6.9Y-3.
X6.9Y-3.1
X6.9Y-3.2
X6.9Y-3.3
X6.9Y-3.4
X6.9Y-3.5
X6.9Y-3.6
X6.9Y-3.7
X6.9Y-3.8
X6.9Y-3.9
X6.9Y-4.
X6.9Y-4.1
X6.9Y-4.2
X6.9Y-4.3
X6.9Y-4.4
X6.9Y-4.5
X6.9Y-4.6
X6.9Y-4.7
X6.9Y-4.8
X6.9Y-4.9
X6.9Y-5.
X6.9Y-5.1
X6.9Y-5.2
X6.9Y-5.3
X2.6Y-2.2
X2.6Y-2.3
X2.6Y-2.4
X2.6Y-2.5
X2.6Y-2.6
X2.6Y-2.7
X2.6Y-2.8
X2.6Y-2.9
X2.6Y-3.
X2.6Y-3.1
X2.6Y-3.2
X2.6Y-3.3
X2.6Y-3.4
X2.6Y-3.5
X2.6Y-3.6
X2.6Y-3.7
X2.6Y-3.8
X2.6Y-3.9
X2.6Y-4.
X2.6Y-4.1
X2.6Y-4.2
X2.6Y-4.3
X2.6Y-4.4
X2.6Y-4.5
X2.6Y-4.6
X2.6Y-4.7
X2.6Y-4.8
X2.6Y-4.9
X2.6Y-5.
X2.6Y-5.1
X2.6Y-5.2
X2.6Y-5.3
X2.7Y-2.2
X2.7Y-2.3
X2.7Y-2.4
X2.7Y-2.5
X2.7Y-2.6
X2.7Y-2.7
X2.7Y-2.8
X2.7Y-2.9
X2.7Y-3.
X2.7Y-3.1
X2.7Y-3.2
X2.7Y-3.3
X2.7Y-3.4
X2.7Y-3.5
X2.7Y-3.6
X2.7Y-3.7
X2.7Y-3.8
X2.7Y-3.9
X2.7Y-4.
X2.7Y-4.1
X2.7Y-4.2
X2.7Y-4.3
X2.7Y-4.4
X2.7Y-4.5
X2.7Y-4.6
X2.7Y-4.7
X2.7Y-4.8
X2.7Y-4.9
X2.7Y-5.
X2.7Y-5.1
X2.7Y-5.2
X2.7Y-5.3
X14.Y-2.2
X14.Y-2.3
X14.Y-2.4
X14.Y-2.5
X14.Y-2.6
X14.Y-2.7
X14.Y-2.8
X14.Y-2.9
X14.Y-3.
X14.Y-3.1
X14.Y-3.2
X14.Y-3.3
X14.Y-3.4
X14.Y-3.5
X14.Y-3.6
X14.Y-3.7
X14.Y-3.8
X14.Y-3.9
X14.Y-4.
X14.Y-4.1
X14.Y-4.2
X14.Y-4.3
X14.Y-4.4
X14.Y-4.5
X14.Y-4.6
X14.Y-4.7
X14.Y-4.8
X14.Y-4.9
X14.Y-5.
X14.Y-5.1
X14.Y-5.2
X14.Y-5.3
X14.1Y-2.2
X14.1Y-2.3
X14.1Y-2.4
X14.1Y-2.5
X14.1Y-2.6
X14.1Y-2.7
X14.1Y-2.8
X14.1Y-2.9
X14.1Y-3.
X14.1Y-3.1
X14.1Y-3.2
X14.1Y-3.3
X14.1Y-3.4
X14.1Y-3.5
X14.1Y-3.6
X14.1Y-3.7
X14.1Y-3.8
X14.1Y-3.9
X14.1Y-4.
X14.1Y-4.1
X14.1Y-4.2
X14.1Y-4.3
X14.1Y-4.4
X14.1Y-4.5
X14.1Y-4.6
X14.1Y-4.7
X14.1Y-4.8
X14.1Y-4.9
X14.1Y-5.
X14.1Y-5.1
X14.1Y-5.2
X14.1Y-5.3
X2.Y-2.2
X2.Y-2.3
X2.Y-2.4
X2.Y-2.5
X2.Y-2.6
X2.Y-2.7
X2.Y-2.8
X2.Y-2.9
X2.Y-3.
X2.Y-3.1
X2.Y-3.2
X2.Y-3.3
X2.Y-3.4
X2.Y-3.5
X2.Y-3.6
X2.Y-3.7
X2.Y-3.8
X2.Y-3.9
X2.Y-4.
X2.Y-4.1
X2.Y-4.2
X2.Y-4.3
X2.Y-4.4
X2.Y-4.5
X2.Y-4.6
X2.Y-4.7
X2.Y-4.8
X2.Y-4.9
X2.Y-5.
X2.Y-5.1
X2.Y-5.2
X2.Y-5.3
X2.1Y-2.2
X2.1Y-2.3
X2.1Y-2.4
X2.1Y-2.5
X2.1Y-2.6
X2.1Y-2.7
X2.1Y-2.8
X2.1Y-2.9
X2.1Y-3.
X2.1Y-3.1
X2.1Y-3.2
X2.1Y-3.3
X2.1Y-3.4
X2.1Y-3.5
X2.1Y-3.6
X2.1Y-3.7
X2.1Y-3.8
X2.1Y-3.9
X2.1Y-4.
X2.1Y-4.1
X2.1Y-4.2
X2.1Y-4.3
X2.1Y-4.4
X2.1Y-4.5
X2.1Y-4.6
X2.1Y-4.7
X2.1Y-4.8
X2.1Y-4.9
X2.1Y-5.
X2.1Y-5.1
X2.1Y-5.2
X2.1Y-5.3
X11.Y-2.2
X11.Y-2.3
X11.Y-2.4
X11.Y-2.5
X11.Y-2.6
X11.Y-2.7
X11.Y-2.8
X11.Y-2.9
X11.Y-3.
X11.Y-3.1
X11.Y-3.2
X11.Y-3.3
X11.Y-3.4
X11.Y-3.5
X11.Y-3.6
X11.Y-3.7
X11.Y-3.8
X11.Y-3.9
X11.Y-4.
X11.Y-4.1
X11.Y-4.2
X11.Y-4.3
X11.Y-4.4
X11.Y-4.5
X11.Y-4.6
X11.Y-4.7
X11.Y-4.8
X11.Y-4.9
X11.Y-5.
X11.Y-5.1
X11.Y-5.2
X11.Y-5.3
X11.1Y-2.2
X11.1Y-2.3
X11.1Y-2.4
X11.1Y-2.5
X11.1Y-2.6
X11.1Y-2.7
X11.1Y-2.8
X11.1Y-2.9
X11.1Y-3.
X11.1Y-3.1
X11.1Y-3.2
X11.1Y-3.3
X11.1Y-3.4
X11.1Y-3.5
X11.1Y-3.6
X11.1Y-3.7
X11.1Y-3.8
X11.1Y-3.9
X11.1Y-4.
X11.1Y-4.1
X11.1Y-4.2
X11.1Y-4.3
X11.1Y-4.4
X11.1Y-4.5
X11.1Y-4.6
X11.1Y-4.7
X11.1Y-4.8
X11.1Y-4.9
X11.1Y-5.
X11.1Y-5.1
X11.1Y-5.2
X11.1Y-5.3
X8.6Y-2.2
X8.6Y-2.3
X8.6Y-2.4
X8.6Y-2.5
X8.6Y-2.6
X8.6Y-2.7
X8.6Y-2.8
X8.6Y-2.9
X8.6Y-3.
X8.6Y-3.1
X8.6Y-3.2
X8.6Y-3.3
X8.6Y-3.4
X8.6Y-3.5
X8.6Y-3.6
X8.6Y-3.7
X8.6Y-3.8
X8.6Y-3.9
X8.6Y-4.
X8.6Y-4.1
X8.6Y-4.2
X8.6Y-4.3
X8.6Y-4.4
X8.6Y-4.5
X8.6Y-4.6
X8.6Y-4.7
X8.6Y-4.8
X8.6Y-4.9
X8.6Y-5.
X8.6Y-5.1
X8.6Y-5.2
X8.6Y-5.3
X8.7Y-2.2
X8.7Y-2.3
X8.7Y-2.4
X8.7Y-2.5
X8.7Y-2.6
X8.7Y-2.7
X8.7Y-2.8
X8.7Y-2.9
X8.7Y-3.
X8.7Y-3.1
X8.7Y-3.2
X8.7Y-3.3
X8.7Y-3.4
X8.7Y-3.5
X8.7Y-3.6
X8.7Y-3.7
X8.7Y-3.8
X8.7Y-3.9
X8.7Y-4.
X8.7Y-4.1
X8.7Y-4.2
X8.7Y-4.3
X8.7Y-4.4
X8.7Y-4.5
X8.7Y-4.6
X8.7Y-4.7
X8.7Y-4.8
X8.7Y-4.9
X8.7Y-5.
X8.7Y-5.1
X8.7Y-5.2
X8.7Y-5.3
T3
X5.Y-7.
X5.Y-7.2
X5.Y-7.4
X5.Y-7.6
X5.Y-7.8
X5.Y-8.
X5.Y-8.2
X5.Y-8.4
X5.Y-8.6
X5.Y-8.8
X5.Y-9.
X5.Y-9.2
X5.Y-9.4
X5.Y-9.6
X5.Y-9.8
X5.Y-10.
X2.6Y-9.
X2.6Y-9.2
X2.6Y-9.4
X2.6Y-9.6
X2.6Y-9.8
X2.6Y-10.
X3.2Y-8.75
X3.2Y-8.95
X3.2Y-9.15
X3.2Y-9.35
X3.2Y-9.55
X3.2Y-9.75
X3.2Y-9.95
X3.2Y-10.15
X12.2Y-7.
X12.2Y-7.2
X12.2Y-7.4
X12.2Y-7.6
X12.2Y-7.8
X12.2Y-8.
X12.2Y-8.2
X12.2Y-8.4
X2.Y-7.
X2.Y-7.2
X2.Y-7.4
X2.Y-7.6
X2.Y-7.8
X2.Y-8.
X2.Y-8.2
X2.Y-8.4
X14.6Y-7.
X14.6Y-7.2
X14.6Y-7.4
X14.6Y-7.6
X14.6Y-7.8
X14.6Y-8.
X14.6Y-8.2
X14.6Y-8.4
X4.4Y-7.
X4.4Y-7.2
X4.4Y-7.4
X4.4Y-7.6
X4.4Y-7.8
X4.4Y-8.
X4.4Y-8.2
X4.4Y-8.4
X12.2Y-8.75
X12.2Y-8.95
X12.2Y-9.15
X12.2Y-9.35
X12.2Y-9.55
X12.2Y-9.75
X12.2Y-9.95
X12.2Y-10.15
X15.8Y-7.
X15.8Y-7.2
X15.8Y-7.4
X15.8Y-7.6
X15.8Y-7.8
X15.8Y-8.
X15.8Y-8.2
X15.8Y-8.4
X15.8Y-8.6
X15.8Y-8.8
X15.8Y-9.
X15.8Y-9.2
X15.8Y-9.4
X15.8Y-9.6
X15.8Y-9.8
X15.8Y-10.
X15.9713Y-1.6142
X16.1713Y-1.6142
X16.3713Y-1.6142
X6.2Y-7.
X6.2Y-7.2
X6.2Y-7.4
X3.8Y-7.
X3.8Y-7.2
X3.8Y-7.4
X3.8Y-7.6
X3.8Y-7.8
X3.8Y-8.
X3.8Y-8.2
X3.8Y-8.4
X3.8Y-8.6
X3.8Y-8.8
X2.Y-9.
X2.Y-9.2
X2.Y-9.4
X2.Y-9.6
X2.Y-9.8
X2.Y-10.
X1.4Y-7.
X1.4Y-7.2
X1.4Y-7.4
X1.4Y-7.6
X1.4Y-7.8
X1.4Y-8.
X1.4Y-8.2
X1.4Y-8.4
X1.4Y-8.6
X1.4Y-8.8
X1.4Y-9.
X1.4Y-9.2
X1.4Y-9.4
X1.4Y-9.6
X1.4Y-9.8
X1.4Y-10.
X2.6Y-7.
X2.6Y-7.2
X2.6Y-7.4
X2.6Y-7.6
X2.6Y-7.8
X2.6Y-8.
X2.6Y-8.2
X2.6Y-8.4
X15.2Y-7.
X15.2Y-7.2
X15.2Y-7.4
X15.2Y-7.6
X15.2Y-7.8
X15.2Y-8.
X15.2Y-8.2
X15.2Y-8.4
X13.4Y-7.
X13.4Y-7.2
X13.4Y-7.4
X13.4Y-7.6
X13.4Y-7.8
X13.4Y-8.
X13.4Y-8.2
X13.4Y-8.4
X13.4Y-8.6
X13.4Y-8.8
X13.4Y-9.
X13.4Y-9.2
X13.4Y-9.4
X13.4Y-9.6
X13.4Y-9.8
X13.4Y-10.
X8.1791Y-1.624
X8.3791Y-1.624
X8.5791Y-1.624
X12.8Y-7.
X12.8Y-7.2
X12.8Y-7.4
X12.8Y-7.6
X12.8Y-7.8
X12.8Y-8.
X12.8Y-8.2
X12.8Y-8.4
X14.Y-7.
X14.Y-7.2
X14.Y-7.4
X14.Y-7.6
X14.Y-7.8
X14.Y-8.
X14.Y-8.2
X14.Y-8.4
X1.1516Y-1.6043
X1.3516Y-1.6043
X1.5516Y-1.6043
X6.8Y-7.
X6.8Y-7.2
X6.8Y-7.4
X5.6Y-7.
X5.6Y-7.2
X5.6Y-7.4
X5.6Y-7.6
X5.6Y-7.8
X5.6Y-8.
X5.6Y-8.2
X5.6Y-8.4
X5.6Y-8.6
X5.6Y-8.8
X5.6Y-9.
X5.6Y-9.2
X5.6Y-9.4
X5.6Y-9.6
X5.6Y-9.8
X5.6Y-10.
X0.8Y-7.
X0.8Y-7.2
X0.8Y-7.4
X0.8Y-7.6
X0.8Y-7.8
X0.8Y-8.
X0.8Y-8.2
X0.8Y-8.4
X0.8Y-8.6
X0.8Y-8.8
X0.8Y-9.
X0.8Y-9.2
X0.8Y-9.4
X0.8Y-9.6
X0.8Y-9.8
X0.8Y-10.
X3.2Y-7.
X3.2Y-7.2
X3.2Y-7.4
X3.2Y-7.6
X3.2Y-7.8
X3.2Y-8.
X3.2Y-8.2
X3.2Y-8.4
T0
M30
