G04 #@! TF.GenerationSoftware,KiCad,Pcbnew,(5.0.0)*
G04 #@! TF.CreationDate,2019-09-22T14:25:55+01:00*
G04 #@! TF.ProjectId,Backplane2,4261636B706C616E65322E6B69636164,rev?*
G04 #@! TF.SameCoordinates,Original*
G04 #@! TF.FileFunction,Legend,Bot*
G04 #@! TF.FilePolarity,Positive*
%FSLAX46Y46*%
G04 Gerber Fmt 4.6, Leading zero omitted, Abs format (unit mm)*
G04 Created by KiCad (PCBNEW (5.0.0)) date 09/22/19 14:25:55*
%MOMM*%
%LPD*%
G01*
G04 APERTURE LIST*
%ADD10C,0.120000*%
%ADD11C,0.150000*%
G04 APERTURE END LIST*
D10*
G04 #@! TO.C,J1*
X16740000Y-134320000D02*
X17340000Y-134620000D01*
X16740000Y-134920000D02*
X16740000Y-134320000D01*
X17340000Y-134620000D02*
X16740000Y-134920000D01*
D11*
X18615000Y-52750000D02*
X18615000Y-53750000D01*
X21565000Y-52750000D02*
X18615000Y-52750000D01*
X21565000Y-53750000D02*
X21565000Y-52750000D01*
X24565000Y-53750000D02*
X21565000Y-53750000D01*
X21565000Y-136750000D02*
X24565000Y-136750000D01*
X21565000Y-137750000D02*
X21565000Y-136750000D01*
X18615000Y-137750000D02*
X21565000Y-137750000D01*
X18615000Y-136750000D02*
X18615000Y-137750000D01*
X25740000Y-142850000D02*
X17440000Y-142850000D01*
X25740000Y-47650000D02*
X25740000Y-142850000D01*
X17440000Y-47650000D02*
X25740000Y-47650000D01*
X17440000Y-142850000D02*
X17440000Y-47650000D01*
D10*
G04 #@! TO.C,J2*
X31980000Y-134320000D02*
X32580000Y-134620000D01*
X31980000Y-134920000D02*
X31980000Y-134320000D01*
X32580000Y-134620000D02*
X31980000Y-134920000D01*
D11*
X33855000Y-52750000D02*
X33855000Y-53750000D01*
X36805000Y-52750000D02*
X33855000Y-52750000D01*
X36805000Y-53750000D02*
X36805000Y-52750000D01*
X39805000Y-53750000D02*
X36805000Y-53750000D01*
X36805000Y-136750000D02*
X39805000Y-136750000D01*
X36805000Y-137750000D02*
X36805000Y-136750000D01*
X33855000Y-137750000D02*
X36805000Y-137750000D01*
X33855000Y-136750000D02*
X33855000Y-137750000D01*
X40980000Y-142850000D02*
X32680000Y-142850000D01*
X40980000Y-47650000D02*
X40980000Y-142850000D01*
X32680000Y-47650000D02*
X40980000Y-47650000D01*
X32680000Y-142850000D02*
X32680000Y-47650000D01*
D10*
G04 #@! TO.C,J3*
X47220000Y-134320000D02*
X47820000Y-134620000D01*
X47220000Y-134920000D02*
X47220000Y-134320000D01*
X47820000Y-134620000D02*
X47220000Y-134920000D01*
D11*
X49095000Y-52750000D02*
X49095000Y-53750000D01*
X52045000Y-52750000D02*
X49095000Y-52750000D01*
X52045000Y-53750000D02*
X52045000Y-52750000D01*
X55045000Y-53750000D02*
X52045000Y-53750000D01*
X52045000Y-136750000D02*
X55045000Y-136750000D01*
X52045000Y-137750000D02*
X52045000Y-136750000D01*
X49095000Y-137750000D02*
X52045000Y-137750000D01*
X49095000Y-136750000D02*
X49095000Y-137750000D01*
X56220000Y-142850000D02*
X47920000Y-142850000D01*
X56220000Y-47650000D02*
X56220000Y-142850000D01*
X47920000Y-47650000D02*
X56220000Y-47650000D01*
X47920000Y-142850000D02*
X47920000Y-47650000D01*
D10*
G04 #@! TO.C,J13*
X199620000Y-134320000D02*
X200220000Y-134620000D01*
X199620000Y-134920000D02*
X199620000Y-134320000D01*
X200220000Y-134620000D02*
X199620000Y-134920000D01*
D11*
X201495000Y-52750000D02*
X201495000Y-53750000D01*
X204445000Y-52750000D02*
X201495000Y-52750000D01*
X204445000Y-53750000D02*
X204445000Y-52750000D01*
X207445000Y-53750000D02*
X204445000Y-53750000D01*
X204445000Y-136750000D02*
X207445000Y-136750000D01*
X204445000Y-137750000D02*
X204445000Y-136750000D01*
X201495000Y-137750000D02*
X204445000Y-137750000D01*
X201495000Y-136750000D02*
X201495000Y-137750000D01*
X208620000Y-142850000D02*
X200320000Y-142850000D01*
X208620000Y-47650000D02*
X208620000Y-142850000D01*
X200320000Y-47650000D02*
X208620000Y-47650000D01*
X200320000Y-142850000D02*
X200320000Y-47650000D01*
D10*
G04 #@! TO.C,J4*
X62460000Y-134320000D02*
X63060000Y-134620000D01*
X62460000Y-134920000D02*
X62460000Y-134320000D01*
X63060000Y-134620000D02*
X62460000Y-134920000D01*
D11*
X64335000Y-52750000D02*
X64335000Y-53750000D01*
X67285000Y-52750000D02*
X64335000Y-52750000D01*
X67285000Y-53750000D02*
X67285000Y-52750000D01*
X70285000Y-53750000D02*
X67285000Y-53750000D01*
X67285000Y-136750000D02*
X70285000Y-136750000D01*
X67285000Y-137750000D02*
X67285000Y-136750000D01*
X64335000Y-137750000D02*
X67285000Y-137750000D01*
X64335000Y-136750000D02*
X64335000Y-137750000D01*
X71460000Y-142850000D02*
X63160000Y-142850000D01*
X71460000Y-47650000D02*
X71460000Y-142850000D01*
X63160000Y-47650000D02*
X71460000Y-47650000D01*
X63160000Y-142850000D02*
X63160000Y-47650000D01*
D10*
G04 #@! TO.C,J5*
X77700000Y-134320000D02*
X78300000Y-134620000D01*
X77700000Y-134920000D02*
X77700000Y-134320000D01*
X78300000Y-134620000D02*
X77700000Y-134920000D01*
D11*
X79575000Y-52750000D02*
X79575000Y-53750000D01*
X82525000Y-52750000D02*
X79575000Y-52750000D01*
X82525000Y-53750000D02*
X82525000Y-52750000D01*
X85525000Y-53750000D02*
X82525000Y-53750000D01*
X82525000Y-136750000D02*
X85525000Y-136750000D01*
X82525000Y-137750000D02*
X82525000Y-136750000D01*
X79575000Y-137750000D02*
X82525000Y-137750000D01*
X79575000Y-136750000D02*
X79575000Y-137750000D01*
X86700000Y-142850000D02*
X78400000Y-142850000D01*
X86700000Y-47650000D02*
X86700000Y-142850000D01*
X78400000Y-47650000D02*
X86700000Y-47650000D01*
X78400000Y-142850000D02*
X78400000Y-47650000D01*
D10*
G04 #@! TO.C,J6*
X92940000Y-134320000D02*
X93540000Y-134620000D01*
X92940000Y-134920000D02*
X92940000Y-134320000D01*
X93540000Y-134620000D02*
X92940000Y-134920000D01*
D11*
X94815000Y-52750000D02*
X94815000Y-53750000D01*
X97765000Y-52750000D02*
X94815000Y-52750000D01*
X97765000Y-53750000D02*
X97765000Y-52750000D01*
X100765000Y-53750000D02*
X97765000Y-53750000D01*
X97765000Y-136750000D02*
X100765000Y-136750000D01*
X97765000Y-137750000D02*
X97765000Y-136750000D01*
X94815000Y-137750000D02*
X97765000Y-137750000D01*
X94815000Y-136750000D02*
X94815000Y-137750000D01*
X101940000Y-142850000D02*
X93640000Y-142850000D01*
X101940000Y-47650000D02*
X101940000Y-142850000D01*
X93640000Y-47650000D02*
X101940000Y-47650000D01*
X93640000Y-142850000D02*
X93640000Y-47650000D01*
D10*
G04 #@! TO.C,J7*
X108180000Y-134320000D02*
X108780000Y-134620000D01*
X108180000Y-134920000D02*
X108180000Y-134320000D01*
X108780000Y-134620000D02*
X108180000Y-134920000D01*
D11*
X110055000Y-52750000D02*
X110055000Y-53750000D01*
X113005000Y-52750000D02*
X110055000Y-52750000D01*
X113005000Y-53750000D02*
X113005000Y-52750000D01*
X116005000Y-53750000D02*
X113005000Y-53750000D01*
X113005000Y-136750000D02*
X116005000Y-136750000D01*
X113005000Y-137750000D02*
X113005000Y-136750000D01*
X110055000Y-137750000D02*
X113005000Y-137750000D01*
X110055000Y-136750000D02*
X110055000Y-137750000D01*
X117180000Y-142850000D02*
X108880000Y-142850000D01*
X117180000Y-47650000D02*
X117180000Y-142850000D01*
X108880000Y-47650000D02*
X117180000Y-47650000D01*
X108880000Y-142850000D02*
X108880000Y-47650000D01*
D10*
G04 #@! TO.C,J8*
X123420000Y-134320000D02*
X124020000Y-134620000D01*
X123420000Y-134920000D02*
X123420000Y-134320000D01*
X124020000Y-134620000D02*
X123420000Y-134920000D01*
D11*
X125295000Y-52750000D02*
X125295000Y-53750000D01*
X128245000Y-52750000D02*
X125295000Y-52750000D01*
X128245000Y-53750000D02*
X128245000Y-52750000D01*
X131245000Y-53750000D02*
X128245000Y-53750000D01*
X128245000Y-136750000D02*
X131245000Y-136750000D01*
X128245000Y-137750000D02*
X128245000Y-136750000D01*
X125295000Y-137750000D02*
X128245000Y-137750000D01*
X125295000Y-136750000D02*
X125295000Y-137750000D01*
X132420000Y-142850000D02*
X124120000Y-142850000D01*
X132420000Y-47650000D02*
X132420000Y-142850000D01*
X124120000Y-47650000D02*
X132420000Y-47650000D01*
X124120000Y-142850000D02*
X124120000Y-47650000D01*
D10*
G04 #@! TO.C,J9*
X138660000Y-134320000D02*
X139260000Y-134620000D01*
X138660000Y-134920000D02*
X138660000Y-134320000D01*
X139260000Y-134620000D02*
X138660000Y-134920000D01*
D11*
X140535000Y-52750000D02*
X140535000Y-53750000D01*
X143485000Y-52750000D02*
X140535000Y-52750000D01*
X143485000Y-53750000D02*
X143485000Y-52750000D01*
X146485000Y-53750000D02*
X143485000Y-53750000D01*
X143485000Y-136750000D02*
X146485000Y-136750000D01*
X143485000Y-137750000D02*
X143485000Y-136750000D01*
X140535000Y-137750000D02*
X143485000Y-137750000D01*
X140535000Y-136750000D02*
X140535000Y-137750000D01*
X147660000Y-142850000D02*
X139360000Y-142850000D01*
X147660000Y-47650000D02*
X147660000Y-142850000D01*
X139360000Y-47650000D02*
X147660000Y-47650000D01*
X139360000Y-142850000D02*
X139360000Y-47650000D01*
D10*
G04 #@! TO.C,J10*
X153900000Y-134320000D02*
X154500000Y-134620000D01*
X153900000Y-134920000D02*
X153900000Y-134320000D01*
X154500000Y-134620000D02*
X153900000Y-134920000D01*
D11*
X155775000Y-52750000D02*
X155775000Y-53750000D01*
X158725000Y-52750000D02*
X155775000Y-52750000D01*
X158725000Y-53750000D02*
X158725000Y-52750000D01*
X161725000Y-53750000D02*
X158725000Y-53750000D01*
X158725000Y-136750000D02*
X161725000Y-136750000D01*
X158725000Y-137750000D02*
X158725000Y-136750000D01*
X155775000Y-137750000D02*
X158725000Y-137750000D01*
X155775000Y-136750000D02*
X155775000Y-137750000D01*
X162900000Y-142850000D02*
X154600000Y-142850000D01*
X162900000Y-47650000D02*
X162900000Y-142850000D01*
X154600000Y-47650000D02*
X162900000Y-47650000D01*
X154600000Y-142850000D02*
X154600000Y-47650000D01*
D10*
G04 #@! TO.C,J11*
X169140000Y-134320000D02*
X169740000Y-134620000D01*
X169140000Y-134920000D02*
X169140000Y-134320000D01*
X169740000Y-134620000D02*
X169140000Y-134920000D01*
D11*
X171015000Y-52750000D02*
X171015000Y-53750000D01*
X173965000Y-52750000D02*
X171015000Y-52750000D01*
X173965000Y-53750000D02*
X173965000Y-52750000D01*
X176965000Y-53750000D02*
X173965000Y-53750000D01*
X173965000Y-136750000D02*
X176965000Y-136750000D01*
X173965000Y-137750000D02*
X173965000Y-136750000D01*
X171015000Y-137750000D02*
X173965000Y-137750000D01*
X171015000Y-136750000D02*
X171015000Y-137750000D01*
X178140000Y-142850000D02*
X169840000Y-142850000D01*
X178140000Y-47650000D02*
X178140000Y-142850000D01*
X169840000Y-47650000D02*
X178140000Y-47650000D01*
X169840000Y-142850000D02*
X169840000Y-47650000D01*
D10*
G04 #@! TO.C,J12*
X184380000Y-134320000D02*
X184980000Y-134620000D01*
X184380000Y-134920000D02*
X184380000Y-134320000D01*
X184980000Y-134620000D02*
X184380000Y-134920000D01*
D11*
X186255000Y-52750000D02*
X186255000Y-53750000D01*
X189205000Y-52750000D02*
X186255000Y-52750000D01*
X189205000Y-53750000D02*
X189205000Y-52750000D01*
X192205000Y-53750000D02*
X189205000Y-53750000D01*
X189205000Y-136750000D02*
X192205000Y-136750000D01*
X189205000Y-137750000D02*
X189205000Y-136750000D01*
X186255000Y-137750000D02*
X189205000Y-137750000D01*
X186255000Y-136750000D02*
X186255000Y-137750000D01*
X193380000Y-142850000D02*
X185080000Y-142850000D01*
X193380000Y-47650000D02*
X193380000Y-142850000D01*
X185080000Y-47650000D02*
X193380000Y-47650000D01*
X185080000Y-142850000D02*
X185080000Y-47650000D01*
D10*
G04 #@! TO.C,J15*
X230100000Y-134320000D02*
X230700000Y-134620000D01*
X230100000Y-134920000D02*
X230100000Y-134320000D01*
X230700000Y-134620000D02*
X230100000Y-134920000D01*
D11*
X231975000Y-52750000D02*
X231975000Y-53750000D01*
X234925000Y-52750000D02*
X231975000Y-52750000D01*
X234925000Y-53750000D02*
X234925000Y-52750000D01*
X237925000Y-53750000D02*
X234925000Y-53750000D01*
X234925000Y-136750000D02*
X237925000Y-136750000D01*
X234925000Y-137750000D02*
X234925000Y-136750000D01*
X231975000Y-137750000D02*
X234925000Y-137750000D01*
X231975000Y-136750000D02*
X231975000Y-137750000D01*
X239100000Y-142850000D02*
X230800000Y-142850000D01*
X239100000Y-47650000D02*
X239100000Y-142850000D01*
X230800000Y-47650000D02*
X239100000Y-47650000D01*
X230800000Y-142850000D02*
X230800000Y-47650000D01*
D10*
G04 #@! TO.C,J16*
X245340000Y-134320000D02*
X245940000Y-134620000D01*
X245340000Y-134920000D02*
X245340000Y-134320000D01*
X245940000Y-134620000D02*
X245340000Y-134920000D01*
D11*
X247215000Y-52750000D02*
X247215000Y-53750000D01*
X250165000Y-52750000D02*
X247215000Y-52750000D01*
X250165000Y-53750000D02*
X250165000Y-52750000D01*
X253165000Y-53750000D02*
X250165000Y-53750000D01*
X250165000Y-136750000D02*
X253165000Y-136750000D01*
X250165000Y-137750000D02*
X250165000Y-136750000D01*
X247215000Y-137750000D02*
X250165000Y-137750000D01*
X247215000Y-136750000D02*
X247215000Y-137750000D01*
X254340000Y-142850000D02*
X246040000Y-142850000D01*
X254340000Y-47650000D02*
X254340000Y-142850000D01*
X246040000Y-47650000D02*
X254340000Y-47650000D01*
X246040000Y-142850000D02*
X246040000Y-47650000D01*
D10*
G04 #@! TO.C,J17*
X260580000Y-134320000D02*
X261180000Y-134620000D01*
X260580000Y-134920000D02*
X260580000Y-134320000D01*
X261180000Y-134620000D02*
X260580000Y-134920000D01*
D11*
X262455000Y-52750000D02*
X262455000Y-53750000D01*
X265405000Y-52750000D02*
X262455000Y-52750000D01*
X265405000Y-53750000D02*
X265405000Y-52750000D01*
X268405000Y-53750000D02*
X265405000Y-53750000D01*
X265405000Y-136750000D02*
X268405000Y-136750000D01*
X265405000Y-137750000D02*
X265405000Y-136750000D01*
X262455000Y-137750000D02*
X265405000Y-137750000D01*
X262455000Y-136750000D02*
X262455000Y-137750000D01*
X269580000Y-142850000D02*
X261280000Y-142850000D01*
X269580000Y-47650000D02*
X269580000Y-142850000D01*
X261280000Y-47650000D02*
X269580000Y-47650000D01*
X261280000Y-142850000D02*
X261280000Y-47650000D01*
D10*
G04 #@! TO.C,J18*
X275820000Y-134320000D02*
X276420000Y-134620000D01*
X275820000Y-134920000D02*
X275820000Y-134320000D01*
X276420000Y-134620000D02*
X275820000Y-134920000D01*
D11*
X277695000Y-52750000D02*
X277695000Y-53750000D01*
X280645000Y-52750000D02*
X277695000Y-52750000D01*
X280645000Y-53750000D02*
X280645000Y-52750000D01*
X283645000Y-53750000D02*
X280645000Y-53750000D01*
X280645000Y-136750000D02*
X283645000Y-136750000D01*
X280645000Y-137750000D02*
X280645000Y-136750000D01*
X277695000Y-137750000D02*
X280645000Y-137750000D01*
X277695000Y-136750000D02*
X277695000Y-137750000D01*
X284820000Y-142850000D02*
X276520000Y-142850000D01*
X284820000Y-47650000D02*
X284820000Y-142850000D01*
X276520000Y-47650000D02*
X284820000Y-47650000D01*
X276520000Y-142850000D02*
X276520000Y-47650000D01*
D10*
G04 #@! TO.C,J19*
X291060000Y-134320000D02*
X291660000Y-134620000D01*
X291060000Y-134920000D02*
X291060000Y-134320000D01*
X291660000Y-134620000D02*
X291060000Y-134920000D01*
D11*
X292935000Y-52750000D02*
X292935000Y-53750000D01*
X295885000Y-52750000D02*
X292935000Y-52750000D01*
X295885000Y-53750000D02*
X295885000Y-52750000D01*
X298885000Y-53750000D02*
X295885000Y-53750000D01*
X295885000Y-136750000D02*
X298885000Y-136750000D01*
X295885000Y-137750000D02*
X295885000Y-136750000D01*
X292935000Y-137750000D02*
X295885000Y-137750000D01*
X292935000Y-136750000D02*
X292935000Y-137750000D01*
X300060000Y-142850000D02*
X291760000Y-142850000D01*
X300060000Y-47650000D02*
X300060000Y-142850000D01*
X291760000Y-47650000D02*
X300060000Y-47650000D01*
X291760000Y-142850000D02*
X291760000Y-47650000D01*
D10*
G04 #@! TO.C,J20*
X306300000Y-134320000D02*
X306900000Y-134620000D01*
X306300000Y-134920000D02*
X306300000Y-134320000D01*
X306900000Y-134620000D02*
X306300000Y-134920000D01*
D11*
X308175000Y-52750000D02*
X308175000Y-53750000D01*
X311125000Y-52750000D02*
X308175000Y-52750000D01*
X311125000Y-53750000D02*
X311125000Y-52750000D01*
X314125000Y-53750000D02*
X311125000Y-53750000D01*
X311125000Y-136750000D02*
X314125000Y-136750000D01*
X311125000Y-137750000D02*
X311125000Y-136750000D01*
X308175000Y-137750000D02*
X311125000Y-137750000D01*
X308175000Y-136750000D02*
X308175000Y-137750000D01*
X315300000Y-142850000D02*
X307000000Y-142850000D01*
X315300000Y-47650000D02*
X315300000Y-142850000D01*
X307000000Y-47650000D02*
X315300000Y-47650000D01*
X307000000Y-142850000D02*
X307000000Y-47650000D01*
D10*
G04 #@! TO.C,J21*
X321540000Y-134320000D02*
X322140000Y-134620000D01*
X321540000Y-134920000D02*
X321540000Y-134320000D01*
X322140000Y-134620000D02*
X321540000Y-134920000D01*
D11*
X323415000Y-52750000D02*
X323415000Y-53750000D01*
X326365000Y-52750000D02*
X323415000Y-52750000D01*
X326365000Y-53750000D02*
X326365000Y-52750000D01*
X329365000Y-53750000D02*
X326365000Y-53750000D01*
X326365000Y-136750000D02*
X329365000Y-136750000D01*
X326365000Y-137750000D02*
X326365000Y-136750000D01*
X323415000Y-137750000D02*
X326365000Y-137750000D01*
X323415000Y-136750000D02*
X323415000Y-137750000D01*
X330540000Y-142850000D02*
X322240000Y-142850000D01*
X330540000Y-47650000D02*
X330540000Y-142850000D01*
X322240000Y-47650000D02*
X330540000Y-47650000D01*
X322240000Y-142850000D02*
X322240000Y-47650000D01*
D10*
G04 #@! TO.C,J22*
X336780000Y-134320000D02*
X337380000Y-134620000D01*
X336780000Y-134920000D02*
X336780000Y-134320000D01*
X337380000Y-134620000D02*
X336780000Y-134920000D01*
D11*
X338655000Y-52750000D02*
X338655000Y-53750000D01*
X341605000Y-52750000D02*
X338655000Y-52750000D01*
X341605000Y-53750000D02*
X341605000Y-52750000D01*
X344605000Y-53750000D02*
X341605000Y-53750000D01*
X341605000Y-136750000D02*
X344605000Y-136750000D01*
X341605000Y-137750000D02*
X341605000Y-136750000D01*
X338655000Y-137750000D02*
X341605000Y-137750000D01*
X338655000Y-136750000D02*
X338655000Y-137750000D01*
X345780000Y-142850000D02*
X337480000Y-142850000D01*
X345780000Y-47650000D02*
X345780000Y-142850000D01*
X337480000Y-47650000D02*
X345780000Y-47650000D01*
X337480000Y-142850000D02*
X337480000Y-47650000D01*
D10*
G04 #@! TO.C,J23*
X352020000Y-134320000D02*
X352620000Y-134620000D01*
X352020000Y-134920000D02*
X352020000Y-134320000D01*
X352620000Y-134620000D02*
X352020000Y-134920000D01*
D11*
X353895000Y-52750000D02*
X353895000Y-53750000D01*
X356845000Y-52750000D02*
X353895000Y-52750000D01*
X356845000Y-53750000D02*
X356845000Y-52750000D01*
X359845000Y-53750000D02*
X356845000Y-53750000D01*
X356845000Y-136750000D02*
X359845000Y-136750000D01*
X356845000Y-137750000D02*
X356845000Y-136750000D01*
X353895000Y-137750000D02*
X356845000Y-137750000D01*
X353895000Y-136750000D02*
X353895000Y-137750000D01*
X361020000Y-142850000D02*
X352720000Y-142850000D01*
X361020000Y-47650000D02*
X361020000Y-142850000D01*
X352720000Y-47650000D02*
X361020000Y-47650000D01*
X352720000Y-142850000D02*
X352720000Y-47650000D01*
D10*
G04 #@! TO.C,J24*
X367260000Y-134320000D02*
X367860000Y-134620000D01*
X367260000Y-134920000D02*
X367260000Y-134320000D01*
X367860000Y-134620000D02*
X367260000Y-134920000D01*
D11*
X369135000Y-52750000D02*
X369135000Y-53750000D01*
X372085000Y-52750000D02*
X369135000Y-52750000D01*
X372085000Y-53750000D02*
X372085000Y-52750000D01*
X375085000Y-53750000D02*
X372085000Y-53750000D01*
X372085000Y-136750000D02*
X375085000Y-136750000D01*
X372085000Y-137750000D02*
X372085000Y-136750000D01*
X369135000Y-137750000D02*
X372085000Y-137750000D01*
X369135000Y-136750000D02*
X369135000Y-137750000D01*
X376260000Y-142850000D02*
X367960000Y-142850000D01*
X376260000Y-47650000D02*
X376260000Y-142850000D01*
X367960000Y-47650000D02*
X376260000Y-47650000D01*
X367960000Y-142850000D02*
X367960000Y-47650000D01*
D10*
G04 #@! TO.C,J14*
X214860000Y-134320000D02*
X215460000Y-134620000D01*
X214860000Y-134920000D02*
X214860000Y-134320000D01*
X215460000Y-134620000D02*
X214860000Y-134920000D01*
D11*
X216735000Y-52750000D02*
X216735000Y-53750000D01*
X219685000Y-52750000D02*
X216735000Y-52750000D01*
X219685000Y-53750000D02*
X219685000Y-52750000D01*
X222685000Y-53750000D02*
X219685000Y-53750000D01*
X219685000Y-136750000D02*
X222685000Y-136750000D01*
X219685000Y-137750000D02*
X219685000Y-136750000D01*
X216735000Y-137750000D02*
X219685000Y-137750000D01*
X216735000Y-136750000D02*
X216735000Y-137750000D01*
X223860000Y-142850000D02*
X215560000Y-142850000D01*
X223860000Y-47650000D02*
X223860000Y-142850000D01*
X215560000Y-47650000D02*
X223860000Y-47650000D01*
X215560000Y-142850000D02*
X215560000Y-47650000D01*
G04 #@! TO.C,J25*
X383200000Y-142850000D02*
X383200000Y-47650000D01*
X383200000Y-47650000D02*
X391500000Y-47650000D01*
X391500000Y-47650000D02*
X391500000Y-142850000D01*
X391500000Y-142850000D02*
X383200000Y-142850000D01*
X384375000Y-136750000D02*
X384375000Y-137750000D01*
X384375000Y-137750000D02*
X387325000Y-137750000D01*
X387325000Y-137750000D02*
X387325000Y-136750000D01*
X387325000Y-136750000D02*
X390325000Y-136750000D01*
X390325000Y-53750000D02*
X387325000Y-53750000D01*
X387325000Y-53750000D02*
X387325000Y-52750000D01*
X387325000Y-52750000D02*
X384375000Y-52750000D01*
X384375000Y-52750000D02*
X384375000Y-53750000D01*
D10*
X383100000Y-134620000D02*
X382500000Y-134920000D01*
X382500000Y-134920000D02*
X382500000Y-134320000D01*
X382500000Y-134320000D02*
X383100000Y-134620000D01*
D11*
G04 #@! TO.C,J57*
X398440000Y-142850000D02*
X398440000Y-47650000D01*
X398440000Y-47650000D02*
X406740000Y-47650000D01*
X406740000Y-47650000D02*
X406740000Y-142850000D01*
X406740000Y-142850000D02*
X398440000Y-142850000D01*
X399615000Y-136750000D02*
X399615000Y-137750000D01*
X399615000Y-137750000D02*
X402565000Y-137750000D01*
X402565000Y-137750000D02*
X402565000Y-136750000D01*
X402565000Y-136750000D02*
X405565000Y-136750000D01*
X405565000Y-53750000D02*
X402565000Y-53750000D01*
X402565000Y-53750000D02*
X402565000Y-52750000D01*
X402565000Y-52750000D02*
X399615000Y-52750000D01*
X399615000Y-52750000D02*
X399615000Y-53750000D01*
D10*
X398340000Y-134620000D02*
X397740000Y-134920000D01*
X397740000Y-134920000D02*
X397740000Y-134320000D01*
X397740000Y-134320000D02*
X398340000Y-134620000D01*
G04 #@! TO.C,J1*
D11*
X21923333Y-143202380D02*
X21923333Y-143916666D01*
X21970952Y-144059523D01*
X22066190Y-144154761D01*
X22209047Y-144202380D01*
X22304285Y-144202380D01*
X20923333Y-144202380D02*
X21494761Y-144202380D01*
X21209047Y-144202380D02*
X21209047Y-143202380D01*
X21304285Y-143345238D01*
X21399523Y-143440476D01*
X21494761Y-143488095D01*
G04 #@! TO.C,J2*
X37163333Y-143202380D02*
X37163333Y-143916666D01*
X37210952Y-144059523D01*
X37306190Y-144154761D01*
X37449047Y-144202380D01*
X37544285Y-144202380D01*
X36734761Y-143297619D02*
X36687142Y-143250000D01*
X36591904Y-143202380D01*
X36353809Y-143202380D01*
X36258571Y-143250000D01*
X36210952Y-143297619D01*
X36163333Y-143392857D01*
X36163333Y-143488095D01*
X36210952Y-143630952D01*
X36782380Y-144202380D01*
X36163333Y-144202380D01*
G04 #@! TO.C,J3*
X52403333Y-143202380D02*
X52403333Y-143916666D01*
X52450952Y-144059523D01*
X52546190Y-144154761D01*
X52689047Y-144202380D01*
X52784285Y-144202380D01*
X52022380Y-143202380D02*
X51403333Y-143202380D01*
X51736666Y-143583333D01*
X51593809Y-143583333D01*
X51498571Y-143630952D01*
X51450952Y-143678571D01*
X51403333Y-143773809D01*
X51403333Y-144011904D01*
X51450952Y-144107142D01*
X51498571Y-144154761D01*
X51593809Y-144202380D01*
X51879523Y-144202380D01*
X51974761Y-144154761D01*
X52022380Y-144107142D01*
G04 #@! TO.C,J13*
X205279523Y-143202380D02*
X205279523Y-143916666D01*
X205327142Y-144059523D01*
X205422380Y-144154761D01*
X205565238Y-144202380D01*
X205660476Y-144202380D01*
X204279523Y-144202380D02*
X204850952Y-144202380D01*
X204565238Y-144202380D02*
X204565238Y-143202380D01*
X204660476Y-143345238D01*
X204755714Y-143440476D01*
X204850952Y-143488095D01*
X203946190Y-143202380D02*
X203327142Y-143202380D01*
X203660476Y-143583333D01*
X203517619Y-143583333D01*
X203422380Y-143630952D01*
X203374761Y-143678571D01*
X203327142Y-143773809D01*
X203327142Y-144011904D01*
X203374761Y-144107142D01*
X203422380Y-144154761D01*
X203517619Y-144202380D01*
X203803333Y-144202380D01*
X203898571Y-144154761D01*
X203946190Y-144107142D01*
G04 #@! TO.C,J4*
X67643333Y-143202380D02*
X67643333Y-143916666D01*
X67690952Y-144059523D01*
X67786190Y-144154761D01*
X67929047Y-144202380D01*
X68024285Y-144202380D01*
X66738571Y-143535714D02*
X66738571Y-144202380D01*
X66976666Y-143154761D02*
X67214761Y-143869047D01*
X66595714Y-143869047D01*
G04 #@! TO.C,J5*
X82883333Y-143202380D02*
X82883333Y-143916666D01*
X82930952Y-144059523D01*
X83026190Y-144154761D01*
X83169047Y-144202380D01*
X83264285Y-144202380D01*
X81930952Y-143202380D02*
X82407142Y-143202380D01*
X82454761Y-143678571D01*
X82407142Y-143630952D01*
X82311904Y-143583333D01*
X82073809Y-143583333D01*
X81978571Y-143630952D01*
X81930952Y-143678571D01*
X81883333Y-143773809D01*
X81883333Y-144011904D01*
X81930952Y-144107142D01*
X81978571Y-144154761D01*
X82073809Y-144202380D01*
X82311904Y-144202380D01*
X82407142Y-144154761D01*
X82454761Y-144107142D01*
G04 #@! TO.C,J6*
X98123333Y-143202380D02*
X98123333Y-143916666D01*
X98170952Y-144059523D01*
X98266190Y-144154761D01*
X98409047Y-144202380D01*
X98504285Y-144202380D01*
X97218571Y-143202380D02*
X97409047Y-143202380D01*
X97504285Y-143250000D01*
X97551904Y-143297619D01*
X97647142Y-143440476D01*
X97694761Y-143630952D01*
X97694761Y-144011904D01*
X97647142Y-144107142D01*
X97599523Y-144154761D01*
X97504285Y-144202380D01*
X97313809Y-144202380D01*
X97218571Y-144154761D01*
X97170952Y-144107142D01*
X97123333Y-144011904D01*
X97123333Y-143773809D01*
X97170952Y-143678571D01*
X97218571Y-143630952D01*
X97313809Y-143583333D01*
X97504285Y-143583333D01*
X97599523Y-143630952D01*
X97647142Y-143678571D01*
X97694761Y-143773809D01*
G04 #@! TO.C,J7*
X113363333Y-143202380D02*
X113363333Y-143916666D01*
X113410952Y-144059523D01*
X113506190Y-144154761D01*
X113649047Y-144202380D01*
X113744285Y-144202380D01*
X112982380Y-143202380D02*
X112315714Y-143202380D01*
X112744285Y-144202380D01*
G04 #@! TO.C,J8*
X128603333Y-143202380D02*
X128603333Y-143916666D01*
X128650952Y-144059523D01*
X128746190Y-144154761D01*
X128889047Y-144202380D01*
X128984285Y-144202380D01*
X127984285Y-143630952D02*
X128079523Y-143583333D01*
X128127142Y-143535714D01*
X128174761Y-143440476D01*
X128174761Y-143392857D01*
X128127142Y-143297619D01*
X128079523Y-143250000D01*
X127984285Y-143202380D01*
X127793809Y-143202380D01*
X127698571Y-143250000D01*
X127650952Y-143297619D01*
X127603333Y-143392857D01*
X127603333Y-143440476D01*
X127650952Y-143535714D01*
X127698571Y-143583333D01*
X127793809Y-143630952D01*
X127984285Y-143630952D01*
X128079523Y-143678571D01*
X128127142Y-143726190D01*
X128174761Y-143821428D01*
X128174761Y-144011904D01*
X128127142Y-144107142D01*
X128079523Y-144154761D01*
X127984285Y-144202380D01*
X127793809Y-144202380D01*
X127698571Y-144154761D01*
X127650952Y-144107142D01*
X127603333Y-144011904D01*
X127603333Y-143821428D01*
X127650952Y-143726190D01*
X127698571Y-143678571D01*
X127793809Y-143630952D01*
G04 #@! TO.C,J9*
X143843333Y-143202380D02*
X143843333Y-143916666D01*
X143890952Y-144059523D01*
X143986190Y-144154761D01*
X144129047Y-144202380D01*
X144224285Y-144202380D01*
X143319523Y-144202380D02*
X143129047Y-144202380D01*
X143033809Y-144154761D01*
X142986190Y-144107142D01*
X142890952Y-143964285D01*
X142843333Y-143773809D01*
X142843333Y-143392857D01*
X142890952Y-143297619D01*
X142938571Y-143250000D01*
X143033809Y-143202380D01*
X143224285Y-143202380D01*
X143319523Y-143250000D01*
X143367142Y-143297619D01*
X143414761Y-143392857D01*
X143414761Y-143630952D01*
X143367142Y-143726190D01*
X143319523Y-143773809D01*
X143224285Y-143821428D01*
X143033809Y-143821428D01*
X142938571Y-143773809D01*
X142890952Y-143726190D01*
X142843333Y-143630952D01*
G04 #@! TO.C,J10*
X159559523Y-143202380D02*
X159559523Y-143916666D01*
X159607142Y-144059523D01*
X159702380Y-144154761D01*
X159845238Y-144202380D01*
X159940476Y-144202380D01*
X158559523Y-144202380D02*
X159130952Y-144202380D01*
X158845238Y-144202380D02*
X158845238Y-143202380D01*
X158940476Y-143345238D01*
X159035714Y-143440476D01*
X159130952Y-143488095D01*
X157940476Y-143202380D02*
X157845238Y-143202380D01*
X157750000Y-143250000D01*
X157702380Y-143297619D01*
X157654761Y-143392857D01*
X157607142Y-143583333D01*
X157607142Y-143821428D01*
X157654761Y-144011904D01*
X157702380Y-144107142D01*
X157750000Y-144154761D01*
X157845238Y-144202380D01*
X157940476Y-144202380D01*
X158035714Y-144154761D01*
X158083333Y-144107142D01*
X158130952Y-144011904D01*
X158178571Y-143821428D01*
X158178571Y-143583333D01*
X158130952Y-143392857D01*
X158083333Y-143297619D01*
X158035714Y-143250000D01*
X157940476Y-143202380D01*
G04 #@! TO.C,J11*
X174799523Y-143202380D02*
X174799523Y-143916666D01*
X174847142Y-144059523D01*
X174942380Y-144154761D01*
X175085238Y-144202380D01*
X175180476Y-144202380D01*
X173799523Y-144202380D02*
X174370952Y-144202380D01*
X174085238Y-144202380D02*
X174085238Y-143202380D01*
X174180476Y-143345238D01*
X174275714Y-143440476D01*
X174370952Y-143488095D01*
X172847142Y-144202380D02*
X173418571Y-144202380D01*
X173132857Y-144202380D02*
X173132857Y-143202380D01*
X173228095Y-143345238D01*
X173323333Y-143440476D01*
X173418571Y-143488095D01*
G04 #@! TO.C,J12*
X190039523Y-143202380D02*
X190039523Y-143916666D01*
X190087142Y-144059523D01*
X190182380Y-144154761D01*
X190325238Y-144202380D01*
X190420476Y-144202380D01*
X189039523Y-144202380D02*
X189610952Y-144202380D01*
X189325238Y-144202380D02*
X189325238Y-143202380D01*
X189420476Y-143345238D01*
X189515714Y-143440476D01*
X189610952Y-143488095D01*
X188658571Y-143297619D02*
X188610952Y-143250000D01*
X188515714Y-143202380D01*
X188277619Y-143202380D01*
X188182380Y-143250000D01*
X188134761Y-143297619D01*
X188087142Y-143392857D01*
X188087142Y-143488095D01*
X188134761Y-143630952D01*
X188706190Y-144202380D01*
X188087142Y-144202380D01*
G04 #@! TO.C,J15*
X235759523Y-143202380D02*
X235759523Y-143916666D01*
X235807142Y-144059523D01*
X235902380Y-144154761D01*
X236045238Y-144202380D01*
X236140476Y-144202380D01*
X234759523Y-144202380D02*
X235330952Y-144202380D01*
X235045238Y-144202380D02*
X235045238Y-143202380D01*
X235140476Y-143345238D01*
X235235714Y-143440476D01*
X235330952Y-143488095D01*
X233854761Y-143202380D02*
X234330952Y-143202380D01*
X234378571Y-143678571D01*
X234330952Y-143630952D01*
X234235714Y-143583333D01*
X233997619Y-143583333D01*
X233902380Y-143630952D01*
X233854761Y-143678571D01*
X233807142Y-143773809D01*
X233807142Y-144011904D01*
X233854761Y-144107142D01*
X233902380Y-144154761D01*
X233997619Y-144202380D01*
X234235714Y-144202380D01*
X234330952Y-144154761D01*
X234378571Y-144107142D01*
G04 #@! TO.C,J16*
X250999523Y-143202380D02*
X250999523Y-143916666D01*
X251047142Y-144059523D01*
X251142380Y-144154761D01*
X251285238Y-144202380D01*
X251380476Y-144202380D01*
X249999523Y-144202380D02*
X250570952Y-144202380D01*
X250285238Y-144202380D02*
X250285238Y-143202380D01*
X250380476Y-143345238D01*
X250475714Y-143440476D01*
X250570952Y-143488095D01*
X249142380Y-143202380D02*
X249332857Y-143202380D01*
X249428095Y-143250000D01*
X249475714Y-143297619D01*
X249570952Y-143440476D01*
X249618571Y-143630952D01*
X249618571Y-144011904D01*
X249570952Y-144107142D01*
X249523333Y-144154761D01*
X249428095Y-144202380D01*
X249237619Y-144202380D01*
X249142380Y-144154761D01*
X249094761Y-144107142D01*
X249047142Y-144011904D01*
X249047142Y-143773809D01*
X249094761Y-143678571D01*
X249142380Y-143630952D01*
X249237619Y-143583333D01*
X249428095Y-143583333D01*
X249523333Y-143630952D01*
X249570952Y-143678571D01*
X249618571Y-143773809D01*
G04 #@! TO.C,J17*
X266239523Y-143202380D02*
X266239523Y-143916666D01*
X266287142Y-144059523D01*
X266382380Y-144154761D01*
X266525238Y-144202380D01*
X266620476Y-144202380D01*
X265239523Y-144202380D02*
X265810952Y-144202380D01*
X265525238Y-144202380D02*
X265525238Y-143202380D01*
X265620476Y-143345238D01*
X265715714Y-143440476D01*
X265810952Y-143488095D01*
X264906190Y-143202380D02*
X264239523Y-143202380D01*
X264668095Y-144202380D01*
G04 #@! TO.C,J18*
X281479523Y-143202380D02*
X281479523Y-143916666D01*
X281527142Y-144059523D01*
X281622380Y-144154761D01*
X281765238Y-144202380D01*
X281860476Y-144202380D01*
X280479523Y-144202380D02*
X281050952Y-144202380D01*
X280765238Y-144202380D02*
X280765238Y-143202380D01*
X280860476Y-143345238D01*
X280955714Y-143440476D01*
X281050952Y-143488095D01*
X279908095Y-143630952D02*
X280003333Y-143583333D01*
X280050952Y-143535714D01*
X280098571Y-143440476D01*
X280098571Y-143392857D01*
X280050952Y-143297619D01*
X280003333Y-143250000D01*
X279908095Y-143202380D01*
X279717619Y-143202380D01*
X279622380Y-143250000D01*
X279574761Y-143297619D01*
X279527142Y-143392857D01*
X279527142Y-143440476D01*
X279574761Y-143535714D01*
X279622380Y-143583333D01*
X279717619Y-143630952D01*
X279908095Y-143630952D01*
X280003333Y-143678571D01*
X280050952Y-143726190D01*
X280098571Y-143821428D01*
X280098571Y-144011904D01*
X280050952Y-144107142D01*
X280003333Y-144154761D01*
X279908095Y-144202380D01*
X279717619Y-144202380D01*
X279622380Y-144154761D01*
X279574761Y-144107142D01*
X279527142Y-144011904D01*
X279527142Y-143821428D01*
X279574761Y-143726190D01*
X279622380Y-143678571D01*
X279717619Y-143630952D01*
G04 #@! TO.C,J19*
X296719523Y-143202380D02*
X296719523Y-143916666D01*
X296767142Y-144059523D01*
X296862380Y-144154761D01*
X297005238Y-144202380D01*
X297100476Y-144202380D01*
X295719523Y-144202380D02*
X296290952Y-144202380D01*
X296005238Y-144202380D02*
X296005238Y-143202380D01*
X296100476Y-143345238D01*
X296195714Y-143440476D01*
X296290952Y-143488095D01*
X295243333Y-144202380D02*
X295052857Y-144202380D01*
X294957619Y-144154761D01*
X294910000Y-144107142D01*
X294814761Y-143964285D01*
X294767142Y-143773809D01*
X294767142Y-143392857D01*
X294814761Y-143297619D01*
X294862380Y-143250000D01*
X294957619Y-143202380D01*
X295148095Y-143202380D01*
X295243333Y-143250000D01*
X295290952Y-143297619D01*
X295338571Y-143392857D01*
X295338571Y-143630952D01*
X295290952Y-143726190D01*
X295243333Y-143773809D01*
X295148095Y-143821428D01*
X294957619Y-143821428D01*
X294862380Y-143773809D01*
X294814761Y-143726190D01*
X294767142Y-143630952D01*
G04 #@! TO.C,J20*
X311959523Y-143202380D02*
X311959523Y-143916666D01*
X312007142Y-144059523D01*
X312102380Y-144154761D01*
X312245238Y-144202380D01*
X312340476Y-144202380D01*
X311530952Y-143297619D02*
X311483333Y-143250000D01*
X311388095Y-143202380D01*
X311150000Y-143202380D01*
X311054761Y-143250000D01*
X311007142Y-143297619D01*
X310959523Y-143392857D01*
X310959523Y-143488095D01*
X311007142Y-143630952D01*
X311578571Y-144202380D01*
X310959523Y-144202380D01*
X310340476Y-143202380D02*
X310245238Y-143202380D01*
X310150000Y-143250000D01*
X310102380Y-143297619D01*
X310054761Y-143392857D01*
X310007142Y-143583333D01*
X310007142Y-143821428D01*
X310054761Y-144011904D01*
X310102380Y-144107142D01*
X310150000Y-144154761D01*
X310245238Y-144202380D01*
X310340476Y-144202380D01*
X310435714Y-144154761D01*
X310483333Y-144107142D01*
X310530952Y-144011904D01*
X310578571Y-143821428D01*
X310578571Y-143583333D01*
X310530952Y-143392857D01*
X310483333Y-143297619D01*
X310435714Y-143250000D01*
X310340476Y-143202380D01*
G04 #@! TO.C,J21*
X327199523Y-143202380D02*
X327199523Y-143916666D01*
X327247142Y-144059523D01*
X327342380Y-144154761D01*
X327485238Y-144202380D01*
X327580476Y-144202380D01*
X326770952Y-143297619D02*
X326723333Y-143250000D01*
X326628095Y-143202380D01*
X326390000Y-143202380D01*
X326294761Y-143250000D01*
X326247142Y-143297619D01*
X326199523Y-143392857D01*
X326199523Y-143488095D01*
X326247142Y-143630952D01*
X326818571Y-144202380D01*
X326199523Y-144202380D01*
X325247142Y-144202380D02*
X325818571Y-144202380D01*
X325532857Y-144202380D02*
X325532857Y-143202380D01*
X325628095Y-143345238D01*
X325723333Y-143440476D01*
X325818571Y-143488095D01*
G04 #@! TO.C,J22*
X342439523Y-143202380D02*
X342439523Y-143916666D01*
X342487142Y-144059523D01*
X342582380Y-144154761D01*
X342725238Y-144202380D01*
X342820476Y-144202380D01*
X342010952Y-143297619D02*
X341963333Y-143250000D01*
X341868095Y-143202380D01*
X341630000Y-143202380D01*
X341534761Y-143250000D01*
X341487142Y-143297619D01*
X341439523Y-143392857D01*
X341439523Y-143488095D01*
X341487142Y-143630952D01*
X342058571Y-144202380D01*
X341439523Y-144202380D01*
X341058571Y-143297619D02*
X341010952Y-143250000D01*
X340915714Y-143202380D01*
X340677619Y-143202380D01*
X340582380Y-143250000D01*
X340534761Y-143297619D01*
X340487142Y-143392857D01*
X340487142Y-143488095D01*
X340534761Y-143630952D01*
X341106190Y-144202380D01*
X340487142Y-144202380D01*
G04 #@! TO.C,J23*
X357679523Y-143202380D02*
X357679523Y-143916666D01*
X357727142Y-144059523D01*
X357822380Y-144154761D01*
X357965238Y-144202380D01*
X358060476Y-144202380D01*
X357250952Y-143297619D02*
X357203333Y-143250000D01*
X357108095Y-143202380D01*
X356870000Y-143202380D01*
X356774761Y-143250000D01*
X356727142Y-143297619D01*
X356679523Y-143392857D01*
X356679523Y-143488095D01*
X356727142Y-143630952D01*
X357298571Y-144202380D01*
X356679523Y-144202380D01*
X356346190Y-143202380D02*
X355727142Y-143202380D01*
X356060476Y-143583333D01*
X355917619Y-143583333D01*
X355822380Y-143630952D01*
X355774761Y-143678571D01*
X355727142Y-143773809D01*
X355727142Y-144011904D01*
X355774761Y-144107142D01*
X355822380Y-144154761D01*
X355917619Y-144202380D01*
X356203333Y-144202380D01*
X356298571Y-144154761D01*
X356346190Y-144107142D01*
G04 #@! TO.C,J24*
X372919523Y-143202380D02*
X372919523Y-143916666D01*
X372967142Y-144059523D01*
X373062380Y-144154761D01*
X373205238Y-144202380D01*
X373300476Y-144202380D01*
X372490952Y-143297619D02*
X372443333Y-143250000D01*
X372348095Y-143202380D01*
X372110000Y-143202380D01*
X372014761Y-143250000D01*
X371967142Y-143297619D01*
X371919523Y-143392857D01*
X371919523Y-143488095D01*
X371967142Y-143630952D01*
X372538571Y-144202380D01*
X371919523Y-144202380D01*
X371062380Y-143535714D02*
X371062380Y-144202380D01*
X371300476Y-143154761D02*
X371538571Y-143869047D01*
X370919523Y-143869047D01*
G04 #@! TO.C,J14*
X220519523Y-143202380D02*
X220519523Y-143916666D01*
X220567142Y-144059523D01*
X220662380Y-144154761D01*
X220805238Y-144202380D01*
X220900476Y-144202380D01*
X219519523Y-144202380D02*
X220090952Y-144202380D01*
X219805238Y-144202380D02*
X219805238Y-143202380D01*
X219900476Y-143345238D01*
X219995714Y-143440476D01*
X220090952Y-143488095D01*
X218662380Y-143535714D02*
X218662380Y-144202380D01*
X218900476Y-143154761D02*
X219138571Y-143869047D01*
X218519523Y-143869047D01*
G04 #@! TO.C,J25*
X388159523Y-143202380D02*
X388159523Y-143916666D01*
X388207142Y-144059523D01*
X388302380Y-144154761D01*
X388445238Y-144202380D01*
X388540476Y-144202380D01*
X387730952Y-143297619D02*
X387683333Y-143250000D01*
X387588095Y-143202380D01*
X387350000Y-143202380D01*
X387254761Y-143250000D01*
X387207142Y-143297619D01*
X387159523Y-143392857D01*
X387159523Y-143488095D01*
X387207142Y-143630952D01*
X387778571Y-144202380D01*
X387159523Y-144202380D01*
X386254761Y-143202380D02*
X386730952Y-143202380D01*
X386778571Y-143678571D01*
X386730952Y-143630952D01*
X386635714Y-143583333D01*
X386397619Y-143583333D01*
X386302380Y-143630952D01*
X386254761Y-143678571D01*
X386207142Y-143773809D01*
X386207142Y-144011904D01*
X386254761Y-144107142D01*
X386302380Y-144154761D01*
X386397619Y-144202380D01*
X386635714Y-144202380D01*
X386730952Y-144154761D01*
X386778571Y-144107142D01*
G04 #@! TO.C,J57*
X403399523Y-143202380D02*
X403399523Y-143916666D01*
X403447142Y-144059523D01*
X403542380Y-144154761D01*
X403685238Y-144202380D01*
X403780476Y-144202380D01*
X402447142Y-143202380D02*
X402923333Y-143202380D01*
X402970952Y-143678571D01*
X402923333Y-143630952D01*
X402828095Y-143583333D01*
X402590000Y-143583333D01*
X402494761Y-143630952D01*
X402447142Y-143678571D01*
X402399523Y-143773809D01*
X402399523Y-144011904D01*
X402447142Y-144107142D01*
X402494761Y-144154761D01*
X402590000Y-144202380D01*
X402828095Y-144202380D01*
X402923333Y-144154761D01*
X402970952Y-144107142D01*
X402066190Y-143202380D02*
X401399523Y-143202380D01*
X401828095Y-144202380D01*
G04 #@! TD*
M02*
