M48
;DRILL file {KiCad (5.0.0)} date 11/29/19 15:14:30
;FORMAT={-:-/ absolute / inch / decimal}
FMAT,2
INCH,TZ
T1C0.0276
T2C0.0295
T3C0.0354
T4C0.0394
T5C0.0400
T6C0.0512
T7C0.0591
%
G90
G05
M72
T1
X10.6291Y-6.8819
X10.9291Y-6.8819
X11.378Y-3.1803
X11.378Y-3.4803
X9.448Y-6.8819
X9.748Y-6.8819
X10.2913Y-3.8181
X10.2913Y-4.1181
X11.1732Y-3.8181
X11.1732Y-4.1181
X7.2835Y-3.1803
X7.2835Y-3.4803
X12.0079Y-3.1803
X12.0079Y-3.4803
X8.8575Y-6.8819
X9.1575Y-6.8819
X9.448Y-8.1732
X9.748Y-8.1732
X11.7717Y-3.8181
X11.7717Y-4.1181
X11.2197Y-8.1732
X11.5197Y-8.1732
X8.5433Y-3.1803
X8.5433Y-3.4803
X11.2047Y-5.8031
X11.2047Y-6.1031
X9.2598Y-6.0071
X9.2598Y-6.3071
X9.6535Y-6.0071
X9.6535Y-6.3071
X10.0386Y-6.8819
X10.3386Y-6.8819
X8.8575Y-8.1732
X9.1575Y-8.1732
X9.6535Y-5.7425
X9.6535Y-5.8425
X10.748Y-3.1803
X10.748Y-3.4803
X6.3386Y-3.1803
X6.3386Y-3.4803
X7.685Y-6.0071
X7.685Y-6.3071
X6.8976Y-6.0071
X6.8976Y-6.3071
X11.6929Y-3.1803
X11.6929Y-3.4803
X10.0386Y-8.1732
X10.3386Y-8.1732
X11.2197Y-6.8819
X11.5197Y-6.8819
X10.5906Y-3.8181
X10.5906Y-4.1181
X8.0787Y-5.7425
X8.0787Y-5.8425
X8.8583Y-3.1803
X8.8583Y-3.4803
X9.2598Y-5.7425
X9.2598Y-5.8425
X6.9685Y-3.1803
X6.9685Y-3.4803
X10.6063Y-5.8031
X10.6063Y-6.1031
X8.0787Y-6.0071
X8.0787Y-6.3071
X10.6291Y-8.1732
X10.9291Y-8.1732
X11.4724Y-3.8181
X11.4724Y-4.1181
X10.8819Y-3.8181
X10.8819Y-4.1181
X6.8976Y-5.7425
X6.8976Y-5.8425
X7.685Y-5.7425
X7.685Y-5.8425
X9.1732Y-3.1803
X9.1732Y-3.4803
X8.8661Y-5.7425
X8.8661Y-5.8425
X8.2283Y-3.1803
X8.2283Y-3.4803
X10.8898Y-5.8031
X10.8898Y-6.1031
X8.4724Y-6.0071
X8.4724Y-6.3071
X8.8661Y-6.0071
X8.8661Y-6.3071
X10.1181Y-3.1803
X10.1181Y-3.4803
X9.8031Y-3.1803
X9.8031Y-3.4803
X10.4331Y-3.1803
X10.4331Y-3.4803
X8.4724Y-5.7425
X8.4724Y-5.8425
X6.6535Y-3.1803
X6.6535Y-3.4803
X7.9134Y-3.1803
X7.9134Y-3.4803
X7.2913Y-6.0071
X7.2913Y-6.3071
X9.4882Y-3.1803
X9.4882Y-3.4803
X11.7874Y-5.8031
X11.7874Y-6.1031
X11.063Y-3.1803
X11.063Y-3.4803
X11.4961Y-5.8031
X11.4961Y-6.1031
X7.2913Y-5.7425
X7.2913Y-5.8425
X7.5984Y-3.1803
X7.5984Y-3.4803
X12.3228Y-3.1803
X12.3228Y-3.4803
X10.2992Y-5.8031
X10.2992Y-6.1031
T2
X9.1598Y-5.252
X9.2098Y-5.202
X9.2598Y-5.252
X8.7661Y-5.252
X8.8161Y-5.202
X8.8661Y-5.252
X8.3724Y-5.252
X8.4224Y-5.202
X8.4724Y-5.252
X7.9787Y-5.252
X8.0287Y-5.202
X8.0787Y-5.252
X6.7976Y-5.252
X6.8476Y-5.202
X6.8976Y-5.252
X9.5535Y-5.252
X9.6035Y-5.202
X9.6535Y-5.252
X7.585Y-5.252
X7.635Y-5.202
X7.685Y-5.252
X7.1913Y-5.252
X7.2413Y-5.202
X7.2913Y-5.252
T3
X11.1732Y-4.4748
X11.1732Y-4.5748
X10.8819Y-5.3386
X10.8819Y-5.4386
X10.5906Y-5.3386
X10.5906Y-5.4386
X11.1732Y-5.3386
X11.1732Y-5.4386
X11.7717Y-5.3386
X11.7717Y-5.4386
X11.4724Y-5.3386
X11.4724Y-5.4386
X10.2913Y-4.4748
X10.2913Y-4.5748
X10.5906Y-4.4748
X10.5906Y-4.5748
X11.4724Y-4.4748
X11.4724Y-4.5748
X10.2913Y-5.3386
X10.2913Y-5.4386
X10.8819Y-4.4748
X10.8819Y-4.5748
X11.7717Y-4.4748
X11.7717Y-4.5748
T4
X10.039Y-8.4142
X10.039Y-8.6142
X10.339Y-8.4142
X10.339Y-8.6142
X10.6295Y-7.1307
X10.6295Y-7.3307
X10.9295Y-7.1307
X10.9295Y-7.3307
X9.4484Y-8.4142
X9.4484Y-8.6142
X9.7484Y-8.4142
X9.7484Y-8.6142
X11.2201Y-7.1307
X11.2201Y-7.3307
X11.5201Y-7.1307
X11.5201Y-7.3307
X11.2201Y-8.4142
X11.2201Y-8.6142
X11.5201Y-8.4142
X11.5201Y-8.6142
X10.6295Y-8.4142
X10.6295Y-8.6142
X10.9295Y-8.4142
X10.9295Y-8.6142
X8.8579Y-8.4142
X8.8579Y-8.6142
X9.1579Y-8.4142
X9.1579Y-8.6142
X10.039Y-7.1307
X10.039Y-7.3307
X10.339Y-7.1307
X10.339Y-7.3307
X4.8976Y-5.0236
X4.8976Y-5.1236
X4.8976Y-5.2236
X4.8976Y-5.3236
X4.8976Y-5.4236
X4.8976Y-5.5236
X4.8976Y-5.6236
X4.8976Y-5.7236
X4.8976Y-5.8236
X4.8976Y-5.9236
X4.8976Y-6.0236
X4.8976Y-6.1236
X4.8976Y-6.2236
X4.8976Y-6.3236
X4.8976Y-6.4236
X4.8976Y-6.5236
X4.8976Y-6.6236
X4.8976Y-6.7236
X4.8976Y-6.8236
X4.8976Y-6.9236
X4.8976Y-7.0236
X4.8976Y-7.1236
X4.8976Y-7.2236
X4.8976Y-7.3236
X4.8976Y-7.4236
X4.8976Y-7.5236
X4.8976Y-7.6236
X4.8976Y-7.7236
X4.8976Y-7.8236
X4.8976Y-7.9236
X4.8976Y-8.0236
X4.8976Y-8.1236
X4.9976Y-5.0236
X4.9976Y-5.1236
X4.9976Y-5.2236
X4.9976Y-5.3236
X4.9976Y-5.4236
X4.9976Y-5.5236
X4.9976Y-5.6236
X4.9976Y-5.7236
X4.9976Y-5.8236
X4.9976Y-5.9236
X4.9976Y-6.0236
X4.9976Y-6.1236
X4.9976Y-6.2236
X4.9976Y-6.3236
X4.9976Y-6.4236
X4.9976Y-6.5236
X4.9976Y-6.6236
X4.9976Y-6.7236
X4.9976Y-6.8236
X4.9976Y-6.9236
X4.9976Y-7.0236
X4.9976Y-7.1236
X4.9976Y-7.2236
X4.9976Y-7.3236
X4.9976Y-7.4236
X4.9976Y-7.5236
X4.9976Y-7.6236
X4.9976Y-7.7236
X4.9976Y-7.8236
X4.9976Y-7.9236
X4.9976Y-8.0236
X4.9976Y-8.1236
X8.8579Y-7.1307
X8.8579Y-7.3307
X9.1579Y-7.1307
X9.1579Y-7.3307
X9.4484Y-7.1307
X9.4484Y-7.3307
X9.7484Y-7.1307
X9.7484Y-7.3307
X11.8189Y-4.9079
X11.8189Y-5.0079
X11.9189Y-4.9079
X11.9189Y-5.0079
X12.0189Y-4.9079
X12.0189Y-5.0079
X12.1189Y-4.9079
X12.1189Y-5.0079
X12.2189Y-4.9079
X12.2189Y-5.0079
X12.3189Y-4.9079
X12.3189Y-5.0079
X12.4189Y-4.9079
X12.4189Y-5.0079
X12.5189Y-4.9079
X12.5189Y-5.0079
X12.6189Y-4.9079
X12.6189Y-5.0079
X12.7189Y-4.9079
X12.7189Y-5.0079
T6
X5.785Y-8.3701
X5.785Y-8.5701
X5.785Y-8.7701
X5.785Y-8.9701
X5.785Y-9.1701
X5.785Y-9.3701
X5.785Y-9.5701
X13.0394Y-6.4331
X13.0394Y-6.6299
X13.0394Y-6.8268
X13.0394Y-7.0236
X6.7984Y-1.8189
X6.9984Y-1.8189
X7.1984Y-1.8189
X7.3984Y-1.8189
X7.5984Y-1.8189
X7.5118Y-4.5748
X7.7118Y-4.5748
X7.9118Y-4.5748
X8.1118Y-4.5748
X8.3118Y-4.5748
X8.5118Y-4.5748
X8.7118Y-4.5748
X8.9118Y-4.5748
X5.785Y-6.7953
X5.785Y-6.9953
X5.785Y-7.1953
X5.785Y-7.3953
X5.785Y-7.5953
X5.785Y-7.7953
X5.785Y-7.9953
X4.1102Y-6.7953
X4.1102Y-6.9953
X4.1102Y-7.1953
X4.1102Y-7.3953
X4.1102Y-7.5953
X4.1102Y-7.7953
X4.1102Y-7.9953
X13.0472Y-3.8031
X13.0472Y-4.0031
X13.0472Y-4.2031
X13.0472Y-4.4031
X13.0472Y-4.6031
X13.0472Y-4.7898
X11.5228Y-1.8189
X11.7228Y-1.8189
X11.9228Y-1.8189
X12.1228Y-1.8189
X12.3228Y-1.8189
X9.948Y-1.8189
X10.148Y-1.8189
X10.348Y-1.8189
X10.548Y-1.8189
X10.748Y-1.8189
X4.1102Y-5.2205
X4.1102Y-5.4205
X4.1102Y-5.6205
X4.1102Y-5.8205
X4.1102Y-6.0205
X4.1102Y-6.2205
X4.1102Y-6.4205
X5.785Y-5.2205
X5.785Y-5.4205
X5.785Y-5.6205
X5.785Y-5.8205
X5.785Y-6.0205
X5.785Y-6.2205
X5.785Y-6.4205
X13.0394Y-5.126
X13.0394Y-5.3181
X13.0394Y-5.5181
X13.0394Y-5.7181
X13.0394Y-5.9181
X13.0394Y-6.1181
X13.0472Y-8.6142
X13.0472Y-8.8142
X13.0472Y-9.0142
X13.0472Y-9.2142
X13.0472Y-9.4142
X4.1102Y-3.6457
X4.1102Y-3.8457
X4.1102Y-4.0457
X4.1102Y-4.2457
X4.1102Y-4.4457
X4.1102Y-4.6457
X4.1102Y-4.8457
X5.785Y-3.6457
X5.785Y-3.8457
X5.785Y-4.0457
X5.785Y-4.2457
X5.785Y-4.4457
X5.785Y-4.6457
X5.785Y-4.8457
X4.1102Y-8.3701
X4.1102Y-8.5701
X4.1102Y-8.7701
X4.1102Y-8.9701
X4.1102Y-9.1701
X4.1102Y-9.3701
X4.1102Y-9.5701
X8.3732Y-1.8189
X8.5732Y-1.8189
X8.7732Y-1.8189
X8.9732Y-1.8189
X9.1732Y-1.8189
X4.685Y-1.8189
X4.885Y-1.8189
X5.085Y-1.8189
X13.0472Y-2.8976
X13.0472Y-3.0945
X13.0472Y-3.2913
X13.0472Y-3.4882
X13.0394Y-7.3307
X13.0394Y-7.5307
X13.0394Y-7.7307
X13.0394Y-7.9307
X13.0394Y-8.1307
X6.8898Y-9.3858
X7.0898Y-9.3858
X7.2898Y-9.3858
T7
X10.039Y-8.9142
X10.339Y-8.3142
X10.6295Y-7.6307
X10.9295Y-7.0307
X9.4484Y-8.9142
X9.7484Y-8.3142
X11.2201Y-7.6307
X11.5201Y-7.0307
X11.2201Y-8.9142
X11.5201Y-8.3142
X10.6295Y-8.9142
X10.9295Y-8.3142
X8.8579Y-8.9142
X9.1579Y-8.3142
X10.039Y-7.6307
X10.339Y-7.0307
X8.8579Y-7.6307
X9.1579Y-7.0307
X9.4484Y-7.6307
X9.7484Y-7.0307
T5
X10.0931Y-2.4843G85X10.1431Y-2.4843
G05
X10.0931Y-2.6693G85X10.1431Y-2.6693
G05
X10.0931Y-2.8543G85X10.1431Y-2.8543
G05
X9.1482Y-2.4843G85X9.1982Y-2.4843
G05
X9.1482Y-2.6693G85X9.1982Y-2.6693
G05
X9.1482Y-2.8543G85X9.1982Y-2.8543
G05
X11.9829Y-2.4843G85X12.0329Y-2.4843
G05
X11.9829Y-2.6693G85X12.0329Y-2.6693
G05
X11.9829Y-2.8543G85X12.0329Y-2.8543
G05
X7.2585Y-2.4843G85X7.3085Y-2.4843
G05
X7.2585Y-2.6693G85X7.3085Y-2.6693
G05
X7.2585Y-2.8543G85X7.3085Y-2.8543
G05
X8.8333Y-2.4843G85X8.8833Y-2.4843
G05
X8.8333Y-2.6693G85X8.8833Y-2.6693
G05
X8.8333Y-2.8543G85X8.8833Y-2.8543
G05
X9.7781Y-2.4843G85X9.8281Y-2.4843
G05
X9.7781Y-2.6693G85X9.8281Y-2.6693
G05
X9.7781Y-2.8543G85X9.8281Y-2.8543
G05
X11.353Y-2.4843G85X11.403Y-2.4843
G05
X11.353Y-2.6693G85X11.403Y-2.6693
G05
X11.353Y-2.8543G85X11.403Y-2.8543
G05
X10.4081Y-2.4843G85X10.4581Y-2.4843
G05
X10.4081Y-2.6693G85X10.4581Y-2.6693
G05
X10.4081Y-2.8543G85X10.4581Y-2.8543
G05
X6.9435Y-2.4843G85X6.9935Y-2.4843
G05
X6.9435Y-2.6693G85X6.9935Y-2.6693
G05
X6.9435Y-2.8543G85X6.9935Y-2.8543
G05
X7.5734Y-2.4843G85X7.6234Y-2.4843
G05
X7.5734Y-2.6693G85X7.6234Y-2.6693
G05
X7.5734Y-2.8543G85X7.6234Y-2.8543
G05
X11.6679Y-2.4843G85X11.7179Y-2.4843
G05
X11.6679Y-2.6693G85X11.7179Y-2.6693
G05
X11.6679Y-2.8543G85X11.7179Y-2.8543
G05
X6.6285Y-2.4843G85X6.6785Y-2.4843
G05
X6.6285Y-2.6693G85X6.6785Y-2.6693
G05
X6.6285Y-2.8543G85X6.6785Y-2.8543
G05
X9.4632Y-2.4843G85X9.5132Y-2.4843
G05
X9.4632Y-2.6693G85X9.5132Y-2.6693
G05
X9.4632Y-2.8543G85X9.5132Y-2.8543
G05
X8.2033Y-2.4843G85X8.2533Y-2.4843
G05
X8.2033Y-2.6693G85X8.2533Y-2.6693
G05
X8.2033Y-2.8543G85X8.2533Y-2.8543
G05
X12.2978Y-2.4843G85X12.3478Y-2.4843
G05
X12.2978Y-2.6693G85X12.3478Y-2.6693
G05
X12.2978Y-2.8543G85X12.3478Y-2.8543
G05
X7.8884Y-2.4843G85X7.9384Y-2.4843
G05
X7.8884Y-2.6693G85X7.9384Y-2.6693
G05
X7.8884Y-2.8543G85X7.9384Y-2.8543
G05
X6.3136Y-2.4843G85X6.3636Y-2.4843
G05
X6.3136Y-2.6693G85X6.3636Y-2.6693
G05
X6.3136Y-2.8543G85X6.3636Y-2.8543
G05
X8.5183Y-2.4843G85X8.5683Y-2.4843
G05
X8.5183Y-2.6693G85X8.5683Y-2.6693
G05
X8.5183Y-2.8543G85X8.5683Y-2.8543
G05
X11.038Y-2.4843G85X11.088Y-2.4843
G05
X11.038Y-2.6693G85X11.088Y-2.6693
G05
X11.038Y-2.8543G85X11.088Y-2.8543
G05
X10.723Y-2.4843G85X10.773Y-2.4843
G05
X10.723Y-2.6693G85X10.773Y-2.6693
G05
X10.723Y-2.8543G85X10.773Y-2.8543
G05
T0
M30
