G04 #@! TF.GenerationSoftware,KiCad,Pcbnew,(5.0.0)*
G04 #@! TF.CreationDate,2019-11-29T15:14:27+00:00*
G04 #@! TF.ProjectId,Board Tester,426F617264205465737465722E6B6963,rev?*
G04 #@! TF.SameCoordinates,Original*
G04 #@! TF.FileFunction,Copper,L2,Bot,Signal*
G04 #@! TF.FilePolarity,Positive*
%FSLAX46Y46*%
G04 Gerber Fmt 4.6, Leading zero omitted, Abs format (unit mm)*
G04 Created by KiCad (PCBNEW (5.0.0)) date 11/29/19 15:14:27*
%MOMM*%
%LPD*%
G01*
G04 APERTURE LIST*
G04 #@! TA.AperFunction,ComponentPad*
%ADD10C,2.000000*%
G04 #@! TD*
G04 #@! TA.AperFunction,ComponentPad*
%ADD11C,1.500000*%
G04 #@! TD*
G04 #@! TA.AperFunction,ComponentPad*
%ADD12R,2.600000X2.600000*%
G04 #@! TD*
G04 #@! TA.AperFunction,ComponentPad*
%ADD13C,2.600000*%
G04 #@! TD*
G04 #@! TA.AperFunction,ComponentPad*
%ADD14O,1.700000X1.700000*%
G04 #@! TD*
G04 #@! TA.AperFunction,ComponentPad*
%ADD15R,1.700000X1.700000*%
G04 #@! TD*
G04 #@! TA.AperFunction,ComponentPad*
%ADD16R,1.800000X1.800000*%
G04 #@! TD*
G04 #@! TA.AperFunction,ComponentPad*
%ADD17C,1.800000*%
G04 #@! TD*
G04 #@! TA.AperFunction,ComponentPad*
%ADD18C,1.700000*%
G04 #@! TD*
G04 #@! TA.AperFunction,ComponentPad*
%ADD19C,1.400000*%
G04 #@! TD*
G04 #@! TA.AperFunction,ComponentPad*
%ADD20O,1.400000X1.400000*%
G04 #@! TD*
G04 #@! TA.AperFunction,ComponentPad*
%ADD21R,3.302000X2.032000*%
G04 #@! TD*
G04 #@! TA.AperFunction,ComponentPad*
%ADD22C,1.300000*%
G04 #@! TD*
G04 #@! TA.AperFunction,ComponentPad*
%ADD23R,1.300000X1.300000*%
G04 #@! TD*
G04 #@! TA.AperFunction,Conductor*
%ADD24C,1.000000*%
G04 #@! TD*
G04 APERTURE END LIST*
D10*
G04 #@! TO.P,SW1,2*
G04 #@! TO.N,Net-(J10-Pad5)*
X224990000Y-186200000D03*
X232610000Y-186200000D03*
G04 #@! TO.P,SW1,1*
G04 #@! TO.N,Net-(R1-Pad2)*
X224990000Y-181120000D03*
G04 #@! TO.P,SW1,3*
G04 #@! TO.N,GND*
X232610000Y-181120000D03*
D11*
G04 #@! TO.P,SW1,*
G04 #@! TO.N,*
X224990000Y-193820000D03*
X232610000Y-178580000D03*
G04 #@! TD*
D10*
G04 #@! TO.P,SW2,2*
G04 #@! TO.N,Net-(J10-Pad4)*
X239990000Y-186200000D03*
X247610000Y-186200000D03*
G04 #@! TO.P,SW2,1*
G04 #@! TO.N,Net-(R2-Pad2)*
X239990000Y-181120000D03*
G04 #@! TO.P,SW2,3*
G04 #@! TO.N,GND*
X247610000Y-181120000D03*
D11*
G04 #@! TO.P,SW2,*
G04 #@! TO.N,*
X239990000Y-193820000D03*
X247610000Y-178580000D03*
G04 #@! TD*
D10*
G04 #@! TO.P,SW3,2*
G04 #@! TO.N,Net-(J10-Pad3)*
X254990000Y-186200000D03*
X262610000Y-186200000D03*
G04 #@! TO.P,SW3,1*
G04 #@! TO.N,Net-(R3-Pad2)*
X254990000Y-181120000D03*
G04 #@! TO.P,SW3,3*
G04 #@! TO.N,GND*
X262610000Y-181120000D03*
D11*
G04 #@! TO.P,SW3,*
G04 #@! TO.N,*
X254990000Y-193820000D03*
X262610000Y-178580000D03*
G04 #@! TD*
D10*
G04 #@! TO.P,SW4,2*
G04 #@! TO.N,Net-(J10-Pad2)*
X269990000Y-186200000D03*
X277610000Y-186200000D03*
G04 #@! TO.P,SW4,1*
G04 #@! TO.N,Net-(R4-Pad2)*
X269990000Y-181120000D03*
G04 #@! TO.P,SW4,3*
G04 #@! TO.N,GND*
X277610000Y-181120000D03*
D11*
G04 #@! TO.P,SW4,*
G04 #@! TO.N,*
X269990000Y-193820000D03*
X277610000Y-178580000D03*
G04 #@! TD*
D10*
G04 #@! TO.P,SW5,2*
G04 #@! TO.N,Net-(J10-Pad1)*
X284990000Y-186200000D03*
X292610000Y-186200000D03*
G04 #@! TO.P,SW5,1*
G04 #@! TO.N,Net-(R5-Pad2)*
X284990000Y-181120000D03*
G04 #@! TO.P,SW5,3*
G04 #@! TO.N,GND*
X292610000Y-181120000D03*
D11*
G04 #@! TO.P,SW5,*
G04 #@! TO.N,*
X284990000Y-193820000D03*
X292610000Y-178580000D03*
G04 #@! TD*
D10*
G04 #@! TO.P,SW6,2*
G04 #@! TO.N,Net-(J11-Pad5)*
X224990000Y-218800000D03*
X232610000Y-218800000D03*
G04 #@! TO.P,SW6,1*
G04 #@! TO.N,Net-(R6-Pad2)*
X224990000Y-213720000D03*
G04 #@! TO.P,SW6,3*
G04 #@! TO.N,GND*
X232610000Y-213720000D03*
D11*
G04 #@! TO.P,SW6,*
G04 #@! TO.N,*
X224990000Y-226420000D03*
X232610000Y-211180000D03*
G04 #@! TD*
D10*
G04 #@! TO.P,SW7,2*
G04 #@! TO.N,Net-(J11-Pad4)*
X239990000Y-218800000D03*
X247610000Y-218800000D03*
G04 #@! TO.P,SW7,1*
G04 #@! TO.N,Net-(R7-Pad2)*
X239990000Y-213720000D03*
G04 #@! TO.P,SW7,3*
G04 #@! TO.N,GND*
X247610000Y-213720000D03*
D11*
G04 #@! TO.P,SW7,*
G04 #@! TO.N,*
X239990000Y-226420000D03*
X247610000Y-211180000D03*
G04 #@! TD*
D10*
G04 #@! TO.P,SW8,2*
G04 #@! TO.N,Net-(J11-Pad3)*
X254990000Y-218800000D03*
X262610000Y-218800000D03*
G04 #@! TO.P,SW8,1*
G04 #@! TO.N,Net-(R8-Pad2)*
X254990000Y-213720000D03*
G04 #@! TO.P,SW8,3*
G04 #@! TO.N,GND*
X262610000Y-213720000D03*
D11*
G04 #@! TO.P,SW8,*
G04 #@! TO.N,*
X254990000Y-226420000D03*
X262610000Y-211180000D03*
G04 #@! TD*
D10*
G04 #@! TO.P,SW9,2*
G04 #@! TO.N,Net-(J11-Pad2)*
X269990000Y-218800000D03*
X277610000Y-218800000D03*
G04 #@! TO.P,SW9,1*
G04 #@! TO.N,Net-(R9-Pad2)*
X269990000Y-213720000D03*
G04 #@! TO.P,SW9,3*
G04 #@! TO.N,GND*
X277610000Y-213720000D03*
D11*
G04 #@! TO.P,SW9,*
G04 #@! TO.N,*
X269990000Y-226420000D03*
X277610000Y-211180000D03*
G04 #@! TD*
D10*
G04 #@! TO.P,SW10,2*
G04 #@! TO.N,Net-(J11-Pad1)*
X284990000Y-218800000D03*
X292610000Y-218800000D03*
G04 #@! TO.P,SW10,1*
G04 #@! TO.N,Net-(R10-Pad2)*
X284990000Y-213720000D03*
G04 #@! TO.P,SW10,3*
G04 #@! TO.N,GND*
X292610000Y-213720000D03*
D11*
G04 #@! TO.P,SW10,*
G04 #@! TO.N,*
X284990000Y-226420000D03*
X292610000Y-211180000D03*
G04 #@! TD*
D12*
G04 #@! TO.P,J21,1*
G04 #@! TO.N,Net-(J21-Pad1)*
X190800000Y-116200000D03*
D13*
G04 #@! TO.P,J21,2*
G04 #@! TO.N,Net-(J21-Pad2)*
X195880000Y-116200000D03*
G04 #@! TO.P,J21,3*
G04 #@! TO.N,Net-(J21-Pad3)*
X200960000Y-116200000D03*
G04 #@! TO.P,J21,4*
G04 #@! TO.N,Net-(J21-Pad4)*
X206040000Y-116200000D03*
G04 #@! TO.P,J21,5*
G04 #@! TO.N,Net-(J21-Pad5)*
X211120000Y-116200000D03*
G04 #@! TO.P,J21,6*
G04 #@! TO.N,Net-(J21-Pad6)*
X216200000Y-116200000D03*
G04 #@! TO.P,J21,7*
G04 #@! TO.N,Net-(J21-Pad7)*
X221280000Y-116200000D03*
G04 #@! TO.P,J21,8*
G04 #@! TO.N,Net-(J21-Pad8)*
X226360000Y-116200000D03*
G04 #@! TD*
D14*
G04 #@! TO.P,J18,20*
G04 #@! TO.N,Net-(D7-Pad1)*
X323060000Y-124660000D03*
G04 #@! TO.P,J18,19*
G04 #@! TO.N,Net-(D6-Pad1)*
X323060000Y-127200000D03*
G04 #@! TO.P,J18,18*
G04 #@! TO.N,Net-(D8-Pad1)*
X320520000Y-124660000D03*
G04 #@! TO.P,J18,17*
G04 #@! TO.N,Net-(D5-Pad1)*
X320520000Y-127200000D03*
G04 #@! TO.P,J18,16*
G04 #@! TO.N,Net-(D9-Pad1)*
X317980000Y-124660000D03*
G04 #@! TO.P,J18,15*
G04 #@! TO.N,Net-(D4-Pad1)*
X317980000Y-127200000D03*
G04 #@! TO.P,J18,14*
G04 #@! TO.N,Net-(D10-Pad1)*
X315440000Y-124660000D03*
G04 #@! TO.P,J18,13*
G04 #@! TO.N,Net-(D3-Pad1)*
X315440000Y-127200000D03*
G04 #@! TO.P,J18,12*
G04 #@! TO.N,Net-(D11-Pad1)*
X312900000Y-124660000D03*
G04 #@! TO.P,J18,11*
G04 #@! TO.N,Net-(D2-Pad1)*
X312900000Y-127200000D03*
G04 #@! TO.P,J18,10*
G04 #@! TO.N,Net-(D12-Pad1)*
X310360000Y-124660000D03*
G04 #@! TO.P,J18,9*
G04 #@! TO.N,Net-(D1-Pad1)*
X310360000Y-127200000D03*
G04 #@! TO.P,J18,8*
G04 #@! TO.N,Net-(J18-Pad8)*
X307820000Y-124660000D03*
G04 #@! TO.P,J18,7*
G04 #@! TO.N,Net-(J18-Pad7)*
X307820000Y-127200000D03*
G04 #@! TO.P,J18,6*
G04 #@! TO.N,Net-(J18-Pad6)*
X305280000Y-124660000D03*
G04 #@! TO.P,J18,5*
G04 #@! TO.N,Net-(J18-Pad5)*
X305280000Y-127200000D03*
G04 #@! TO.P,J18,4*
G04 #@! TO.N,Net-(J18-Pad4)*
X302740000Y-124660000D03*
G04 #@! TO.P,J18,3*
G04 #@! TO.N,Net-(J18-Pad3)*
X302740000Y-127200000D03*
G04 #@! TO.P,J18,2*
G04 #@! TO.N,Net-(J18-Pad2)*
X300200000Y-124660000D03*
D15*
G04 #@! TO.P,J18,1*
G04 #@! TO.N,Net-(J18-Pad1)*
X300200000Y-127200000D03*
G04 #@! TD*
D16*
G04 #@! TO.P,D1,1*
G04 #@! TO.N,Net-(D1-Pad1)*
X261400000Y-135600000D03*
D17*
G04 #@! TO.P,D1,2*
G04 #@! TO.N,Net-(D1-Pad2)*
X261400000Y-138140000D03*
G04 #@! TD*
G04 #@! TO.P,D2,2*
G04 #@! TO.N,Net-(D2-Pad2)*
X269000000Y-138140000D03*
D16*
G04 #@! TO.P,D2,1*
G04 #@! TO.N,Net-(D2-Pad1)*
X269000000Y-135600000D03*
G04 #@! TD*
D17*
G04 #@! TO.P,D3,2*
G04 #@! TO.N,Net-(D3-Pad2)*
X276400000Y-138140000D03*
D16*
G04 #@! TO.P,D3,1*
G04 #@! TO.N,Net-(D3-Pad1)*
X276400000Y-135600000D03*
G04 #@! TD*
D17*
G04 #@! TO.P,D4,2*
G04 #@! TO.N,Net-(D4-Pad2)*
X283800000Y-138140000D03*
D16*
G04 #@! TO.P,D4,1*
G04 #@! TO.N,Net-(D4-Pad1)*
X283800000Y-135600000D03*
G04 #@! TD*
G04 #@! TO.P,D5,1*
G04 #@! TO.N,Net-(D5-Pad1)*
X291400000Y-135600000D03*
D17*
G04 #@! TO.P,D5,2*
G04 #@! TO.N,Net-(D5-Pad2)*
X291400000Y-138140000D03*
G04 #@! TD*
D16*
G04 #@! TO.P,D6,1*
G04 #@! TO.N,Net-(D6-Pad1)*
X299000000Y-135600000D03*
D17*
G04 #@! TO.P,D6,2*
G04 #@! TO.N,Net-(D6-Pad2)*
X299000000Y-138140000D03*
G04 #@! TD*
G04 #@! TO.P,D7,2*
G04 #@! TO.N,Net-(D7-Pad2)*
X299000000Y-113660000D03*
D16*
G04 #@! TO.P,D7,1*
G04 #@! TO.N,Net-(D7-Pad1)*
X299000000Y-116200000D03*
G04 #@! TD*
G04 #@! TO.P,D8,1*
G04 #@! TO.N,Net-(D8-Pad1)*
X291400000Y-116200000D03*
D17*
G04 #@! TO.P,D8,2*
G04 #@! TO.N,Net-(D8-Pad2)*
X291400000Y-113660000D03*
G04 #@! TD*
D16*
G04 #@! TO.P,D9,1*
G04 #@! TO.N,Net-(D9-Pad1)*
X283800000Y-116200000D03*
D17*
G04 #@! TO.P,D9,2*
G04 #@! TO.N,Net-(D9-Pad2)*
X283800000Y-113660000D03*
G04 #@! TD*
G04 #@! TO.P,D10,2*
G04 #@! TO.N,Net-(D10-Pad2)*
X276400000Y-113660000D03*
D16*
G04 #@! TO.P,D10,1*
G04 #@! TO.N,Net-(D10-Pad1)*
X276400000Y-116200000D03*
G04 #@! TD*
G04 #@! TO.P,D11,1*
G04 #@! TO.N,Net-(D11-Pad1)*
X269000000Y-116200000D03*
D17*
G04 #@! TO.P,D11,2*
G04 #@! TO.N,Net-(D11-Pad2)*
X269000000Y-113660000D03*
G04 #@! TD*
G04 #@! TO.P,D12,2*
G04 #@! TO.N,Net-(D12-Pad2)*
X261400000Y-113660000D03*
D16*
G04 #@! TO.P,D12,1*
G04 #@! TO.N,Net-(D12-Pad1)*
X261400000Y-116200000D03*
G04 #@! TD*
D13*
G04 #@! TO.P,J0,3*
G04 #@! TO.N,-6v*
X129160000Y-46200000D03*
G04 #@! TO.P,J0,2*
G04 #@! TO.N,GND*
X124080000Y-46200000D03*
D12*
G04 #@! TO.P,J0,1*
G04 #@! TO.N,+6v*
X119000000Y-46200000D03*
G04 #@! TD*
D15*
G04 #@! TO.P,J1,1*
G04 #@! TO.N,GND*
X124400000Y-127600000D03*
D18*
G04 #@! TO.P,J1,A*
X126940000Y-127600000D03*
G04 #@! TO.P,J1,2*
G04 #@! TO.N,+6v*
X124400000Y-130140000D03*
G04 #@! TO.P,J1,B*
X126940000Y-130140000D03*
G04 #@! TO.P,J1,3*
G04 #@! TO.N,Net-(J1-Pad3)*
X124400000Y-132680000D03*
G04 #@! TO.P,J1,C*
G04 #@! TO.N,Net-(J1-PadC)*
X126940000Y-132680000D03*
G04 #@! TO.P,J1,4*
G04 #@! TO.N,Net-(J1-Pad4)*
X124400000Y-135220000D03*
G04 #@! TO.P,J1,D*
G04 #@! TO.N,Net-(J1-PadD)*
X126940000Y-135220000D03*
G04 #@! TO.P,J1,5*
G04 #@! TO.N,Net-(J1-Pad5)*
X124400000Y-137760000D03*
G04 #@! TO.P,J1,E*
G04 #@! TO.N,Net-(J1-PadE)*
X126940000Y-137760000D03*
G04 #@! TO.P,J1,6*
G04 #@! TO.N,Net-(J1-Pad6)*
X124400000Y-140300000D03*
G04 #@! TO.P,J1,F*
G04 #@! TO.N,Net-(J1-PadF)*
X126940000Y-140300000D03*
G04 #@! TO.P,J1,7*
G04 #@! TO.N,Net-(J1-Pad7)*
X124400000Y-142840000D03*
G04 #@! TO.P,J1,H*
G04 #@! TO.N,Net-(J1-PadH)*
X126940000Y-142840000D03*
G04 #@! TO.P,J1,8*
G04 #@! TO.N,Net-(J1-Pad8)*
X124400000Y-145380000D03*
G04 #@! TO.P,J1,J*
G04 #@! TO.N,Net-(J1-PadJ)*
X126940000Y-145380000D03*
G04 #@! TO.P,J1,9*
G04 #@! TO.N,Net-(J1-Pad9)*
X124400000Y-147920000D03*
G04 #@! TO.P,J1,K*
G04 #@! TO.N,Net-(J1-PadK)*
X126940000Y-147920000D03*
G04 #@! TO.P,J1,10*
G04 #@! TO.N,Net-(J1-Pad10)*
X124400000Y-150460000D03*
G04 #@! TO.P,J1,L*
G04 #@! TO.N,Net-(J1-PadL)*
X126940000Y-150460000D03*
G04 #@! TO.P,J1,11*
G04 #@! TO.N,Net-(J1-Pad11)*
X124400000Y-153000000D03*
G04 #@! TO.P,J1,M*
G04 #@! TO.N,Net-(J1-PadM)*
X126940000Y-153000000D03*
G04 #@! TO.P,J1,12*
G04 #@! TO.N,Net-(J1-Pad12)*
X124400000Y-155540000D03*
G04 #@! TO.P,J1,N*
G04 #@! TO.N,Net-(J1-PadN)*
X126940000Y-155540000D03*
G04 #@! TO.P,J1,13*
G04 #@! TO.N,Net-(J1-Pad13)*
X124400000Y-158080000D03*
G04 #@! TO.P,J1,P*
G04 #@! TO.N,Net-(J1-PadP)*
X126940000Y-158080000D03*
G04 #@! TO.P,J1,14*
G04 #@! TO.N,Net-(J1-Pad14)*
X124400000Y-160620000D03*
G04 #@! TO.P,J1,R*
G04 #@! TO.N,Net-(J1-PadR)*
X126940000Y-160620000D03*
G04 #@! TO.P,J1,15*
G04 #@! TO.N,Net-(J1-Pad15)*
X124400000Y-163160000D03*
G04 #@! TO.P,J1,S*
G04 #@! TO.N,Net-(J1-PadS)*
X126940000Y-163160000D03*
G04 #@! TO.P,J1,16*
G04 #@! TO.N,Net-(J1-Pad16)*
X124400000Y-165700000D03*
G04 #@! TO.P,J1,T*
G04 #@! TO.N,Net-(J1-PadT)*
X126940000Y-165700000D03*
G04 #@! TO.P,J1,17*
G04 #@! TO.N,Net-(J1-Pad17)*
X124400000Y-168240000D03*
G04 #@! TO.P,J1,U*
G04 #@! TO.N,Net-(J1-PadU)*
X126940000Y-168240000D03*
G04 #@! TO.P,J1,18*
G04 #@! TO.N,Net-(J1-Pad18)*
X124400000Y-170780000D03*
G04 #@! TO.P,J1,V*
G04 #@! TO.N,Net-(J1-PadV)*
X126940000Y-170780000D03*
G04 #@! TO.P,J1,19*
G04 #@! TO.N,Net-(J1-Pad19)*
X124400000Y-173320000D03*
G04 #@! TO.P,J1,W*
G04 #@! TO.N,Net-(J1-PadW)*
X126940000Y-173320000D03*
G04 #@! TO.P,J1,20*
G04 #@! TO.N,Net-(J1-Pad20)*
X124400000Y-175860000D03*
G04 #@! TO.P,J1,X*
G04 #@! TO.N,Net-(J1-PadX)*
X126940000Y-175860000D03*
G04 #@! TO.P,J1,21*
G04 #@! TO.N,Net-(J1-Pad21)*
X124400000Y-178400000D03*
G04 #@! TO.P,J1,Y*
G04 #@! TO.N,Net-(J1-PadY)*
X126940000Y-178400000D03*
G04 #@! TO.P,J1,22*
G04 #@! TO.N,Net-(J1-Pad22)*
X124400000Y-180940000D03*
G04 #@! TO.P,J1,Z*
G04 #@! TO.N,Net-(J1-PadZ)*
X126940000Y-180940000D03*
G04 #@! TO.P,J1,23*
G04 #@! TO.N,Net-(J1-Pad23)*
X124400000Y-183480000D03*
G04 #@! TO.P,J1,AA*
G04 #@! TO.N,Net-(J1-PadAA)*
X126940000Y-183480000D03*
G04 #@! TO.P,J1,24*
G04 #@! TO.N,Net-(J1-Pad24)*
X124400000Y-186020000D03*
G04 #@! TO.P,J1,AB*
G04 #@! TO.N,Net-(J1-PadAB)*
X126940000Y-186020000D03*
G04 #@! TO.P,J1,25*
G04 #@! TO.N,Net-(J1-Pad25)*
X124400000Y-188560000D03*
G04 #@! TO.P,J1,AC*
G04 #@! TO.N,Net-(J1-PadAC)*
X126940000Y-188560000D03*
G04 #@! TO.P,J1,26*
G04 #@! TO.N,Net-(J1-Pad26)*
X124400000Y-191100000D03*
G04 #@! TO.P,J1,AD*
G04 #@! TO.N,Net-(J1-PadAD)*
X126940000Y-191100000D03*
G04 #@! TO.P,J1,27*
G04 #@! TO.N,Net-(J1-Pad27)*
X124400000Y-193640000D03*
G04 #@! TO.P,J1,AE*
G04 #@! TO.N,Net-(J1-PadAE)*
X126940000Y-193640000D03*
G04 #@! TO.P,J1,28*
G04 #@! TO.N,Net-(J1-Pad28)*
X124400000Y-196180000D03*
G04 #@! TO.P,J1,AF*
G04 #@! TO.N,Net-(J1-PadAF)*
X126940000Y-196180000D03*
G04 #@! TO.P,J1,29*
G04 #@! TO.N,Net-(J1-Pad29)*
X124400000Y-198720000D03*
G04 #@! TO.P,J1,AH*
G04 #@! TO.N,Net-(J1-PadAH)*
X126940000Y-198720000D03*
G04 #@! TO.P,J1,30*
G04 #@! TO.N,Net-(J1-Pad30)*
X124400000Y-201260000D03*
G04 #@! TO.P,J1,AJ*
G04 #@! TO.N,Net-(J1-PadAJ)*
X126940000Y-201260000D03*
G04 #@! TO.P,J1,31*
G04 #@! TO.N,-6v*
X124400000Y-203800000D03*
G04 #@! TO.P,J1,AK*
X126940000Y-203800000D03*
G04 #@! TO.P,J1,32*
G04 #@! TO.N,GND*
X124400000Y-206340000D03*
G04 #@! TO.P,J1,AL*
X126940000Y-206340000D03*
G04 #@! TD*
D12*
G04 #@! TO.P,J2,1*
G04 #@! TO.N,Net-(J1-PadC)*
X146940000Y-92600000D03*
D13*
G04 #@! TO.P,J2,2*
G04 #@! TO.N,Net-(J1-PadD)*
X146940000Y-97680000D03*
G04 #@! TO.P,J2,3*
G04 #@! TO.N,Net-(J1-PadE)*
X146940000Y-102760000D03*
G04 #@! TO.P,J2,4*
G04 #@! TO.N,Net-(J1-PadF)*
X146940000Y-107840000D03*
G04 #@! TO.P,J2,5*
G04 #@! TO.N,Net-(J1-PadH)*
X146940000Y-112920000D03*
G04 #@! TO.P,J2,6*
G04 #@! TO.N,Net-(J1-PadJ)*
X146940000Y-118000000D03*
G04 #@! TO.P,J2,7*
G04 #@! TO.N,Net-(J1-PadK)*
X146940000Y-123080000D03*
G04 #@! TD*
G04 #@! TO.P,J3,7*
G04 #@! TO.N,Net-(J1-PadT)*
X146940000Y-163080000D03*
G04 #@! TO.P,J3,6*
G04 #@! TO.N,Net-(J1-PadS)*
X146940000Y-158000000D03*
G04 #@! TO.P,J3,5*
G04 #@! TO.N,Net-(J1-PadR)*
X146940000Y-152920000D03*
G04 #@! TO.P,J3,4*
G04 #@! TO.N,Net-(J1-PadP)*
X146940000Y-147840000D03*
G04 #@! TO.P,J3,3*
G04 #@! TO.N,Net-(J1-PadN)*
X146940000Y-142760000D03*
G04 #@! TO.P,J3,2*
G04 #@! TO.N,Net-(J1-PadM)*
X146940000Y-137680000D03*
D12*
G04 #@! TO.P,J3,1*
G04 #@! TO.N,Net-(J1-PadL)*
X146940000Y-132600000D03*
G04 #@! TD*
G04 #@! TO.P,J4,1*
G04 #@! TO.N,Net-(J1-PadU)*
X146940000Y-172600000D03*
D13*
G04 #@! TO.P,J4,2*
G04 #@! TO.N,Net-(J1-PadV)*
X146940000Y-177680000D03*
G04 #@! TO.P,J4,3*
G04 #@! TO.N,Net-(J1-PadW)*
X146940000Y-182760000D03*
G04 #@! TO.P,J4,4*
G04 #@! TO.N,Net-(J1-PadX)*
X146940000Y-187840000D03*
G04 #@! TO.P,J4,5*
G04 #@! TO.N,Net-(J1-PadY)*
X146940000Y-192920000D03*
G04 #@! TO.P,J4,6*
G04 #@! TO.N,Net-(J1-PadZ)*
X146940000Y-198000000D03*
G04 #@! TO.P,J4,7*
G04 #@! TO.N,Net-(J1-PadAA)*
X146940000Y-203080000D03*
G04 #@! TD*
G04 #@! TO.P,J5,7*
G04 #@! TO.N,Net-(J1-PadAJ)*
X146940000Y-243080000D03*
G04 #@! TO.P,J5,6*
G04 #@! TO.N,Net-(J1-PadAH)*
X146940000Y-238000000D03*
G04 #@! TO.P,J5,5*
G04 #@! TO.N,Net-(J1-PadAF)*
X146940000Y-232920000D03*
G04 #@! TO.P,J5,4*
G04 #@! TO.N,Net-(J1-PadAE)*
X146940000Y-227840000D03*
G04 #@! TO.P,J5,3*
G04 #@! TO.N,Net-(J1-PadAD)*
X146940000Y-222760000D03*
G04 #@! TO.P,J5,2*
G04 #@! TO.N,Net-(J1-PadAC)*
X146940000Y-217680000D03*
D12*
G04 #@! TO.P,J5,1*
G04 #@! TO.N,Net-(J1-PadAB)*
X146940000Y-212600000D03*
G04 #@! TD*
G04 #@! TO.P,J6,1*
G04 #@! TO.N,Net-(J1-Pad3)*
X104400000Y-92600000D03*
D13*
G04 #@! TO.P,J6,2*
G04 #@! TO.N,Net-(J1-Pad4)*
X104400000Y-97680000D03*
G04 #@! TO.P,J6,3*
G04 #@! TO.N,Net-(J1-Pad5)*
X104400000Y-102760000D03*
G04 #@! TO.P,J6,4*
G04 #@! TO.N,Net-(J1-Pad6)*
X104400000Y-107840000D03*
G04 #@! TO.P,J6,5*
G04 #@! TO.N,Net-(J1-Pad7)*
X104400000Y-112920000D03*
G04 #@! TO.P,J6,6*
G04 #@! TO.N,Net-(J1-Pad8)*
X104400000Y-118000000D03*
G04 #@! TO.P,J6,7*
G04 #@! TO.N,Net-(J1-Pad9)*
X104400000Y-123080000D03*
G04 #@! TD*
D12*
G04 #@! TO.P,J7,1*
G04 #@! TO.N,Net-(J1-Pad10)*
X104400000Y-132600000D03*
D13*
G04 #@! TO.P,J7,2*
G04 #@! TO.N,Net-(J1-Pad11)*
X104400000Y-137680000D03*
G04 #@! TO.P,J7,3*
G04 #@! TO.N,Net-(J1-Pad12)*
X104400000Y-142760000D03*
G04 #@! TO.P,J7,4*
G04 #@! TO.N,Net-(J1-Pad13)*
X104400000Y-147840000D03*
G04 #@! TO.P,J7,5*
G04 #@! TO.N,Net-(J1-Pad14)*
X104400000Y-152920000D03*
G04 #@! TO.P,J7,6*
G04 #@! TO.N,Net-(J1-Pad15)*
X104400000Y-158000000D03*
G04 #@! TO.P,J7,7*
G04 #@! TO.N,Net-(J1-Pad16)*
X104400000Y-163080000D03*
G04 #@! TD*
G04 #@! TO.P,J8,7*
G04 #@! TO.N,Net-(J1-Pad23)*
X104400000Y-203080000D03*
G04 #@! TO.P,J8,6*
G04 #@! TO.N,Net-(J1-Pad22)*
X104400000Y-198000000D03*
G04 #@! TO.P,J8,5*
G04 #@! TO.N,Net-(J1-Pad21)*
X104400000Y-192920000D03*
G04 #@! TO.P,J8,4*
G04 #@! TO.N,Net-(J1-Pad20)*
X104400000Y-187840000D03*
G04 #@! TO.P,J8,3*
G04 #@! TO.N,Net-(J1-Pad19)*
X104400000Y-182760000D03*
G04 #@! TO.P,J8,2*
G04 #@! TO.N,Net-(J1-Pad18)*
X104400000Y-177680000D03*
D12*
G04 #@! TO.P,J8,1*
G04 #@! TO.N,Net-(J1-Pad17)*
X104400000Y-172600000D03*
G04 #@! TD*
D13*
G04 #@! TO.P,J9,7*
G04 #@! TO.N,Net-(J1-Pad30)*
X104400000Y-243080000D03*
G04 #@! TO.P,J9,6*
G04 #@! TO.N,Net-(J1-Pad29)*
X104400000Y-238000000D03*
G04 #@! TO.P,J9,5*
G04 #@! TO.N,Net-(J1-Pad28)*
X104400000Y-232920000D03*
G04 #@! TO.P,J9,4*
G04 #@! TO.N,Net-(J1-Pad27)*
X104400000Y-227840000D03*
G04 #@! TO.P,J9,3*
G04 #@! TO.N,Net-(J1-Pad26)*
X104400000Y-222760000D03*
G04 #@! TO.P,J9,2*
G04 #@! TO.N,Net-(J1-Pad25)*
X104400000Y-217680000D03*
D12*
G04 #@! TO.P,J9,1*
G04 #@! TO.N,Net-(J1-Pad24)*
X104400000Y-212600000D03*
G04 #@! TD*
D19*
G04 #@! TO.P,R1,1*
G04 #@! TO.N,+6v*
X232600000Y-174800000D03*
D20*
G04 #@! TO.P,R1,2*
G04 #@! TO.N,Net-(R1-Pad2)*
X224980000Y-174800000D03*
G04 #@! TD*
G04 #@! TO.P,R2,2*
G04 #@! TO.N,Net-(R2-Pad2)*
X239980000Y-174800000D03*
D19*
G04 #@! TO.P,R2,1*
G04 #@! TO.N,+6v*
X247600000Y-174800000D03*
G04 #@! TD*
G04 #@! TO.P,R3,1*
G04 #@! TO.N,+6v*
X262600000Y-174800000D03*
D20*
G04 #@! TO.P,R3,2*
G04 #@! TO.N,Net-(R3-Pad2)*
X254980000Y-174800000D03*
G04 #@! TD*
G04 #@! TO.P,R4,2*
G04 #@! TO.N,Net-(R4-Pad2)*
X269980000Y-174800000D03*
D19*
G04 #@! TO.P,R4,1*
G04 #@! TO.N,+6v*
X277600000Y-174800000D03*
G04 #@! TD*
G04 #@! TO.P,R5,1*
G04 #@! TO.N,+6v*
X292600000Y-174800000D03*
D20*
G04 #@! TO.P,R5,2*
G04 #@! TO.N,Net-(R5-Pad2)*
X284980000Y-174800000D03*
G04 #@! TD*
G04 #@! TO.P,R6,2*
G04 #@! TO.N,Net-(R6-Pad2)*
X224980000Y-207600000D03*
D19*
G04 #@! TO.P,R6,1*
G04 #@! TO.N,+6v*
X232600000Y-207600000D03*
G04 #@! TD*
G04 #@! TO.P,R7,1*
G04 #@! TO.N,+6v*
X247600000Y-207600000D03*
D20*
G04 #@! TO.P,R7,2*
G04 #@! TO.N,Net-(R7-Pad2)*
X239980000Y-207600000D03*
G04 #@! TD*
G04 #@! TO.P,R8,2*
G04 #@! TO.N,Net-(R8-Pad2)*
X254980000Y-207600000D03*
D19*
G04 #@! TO.P,R8,1*
G04 #@! TO.N,+6v*
X262600000Y-207600000D03*
G04 #@! TD*
G04 #@! TO.P,R9,1*
G04 #@! TO.N,+6v*
X277600000Y-207600000D03*
D20*
G04 #@! TO.P,R9,2*
G04 #@! TO.N,Net-(R9-Pad2)*
X269980000Y-207600000D03*
G04 #@! TD*
G04 #@! TO.P,R10,2*
G04 #@! TO.N,Net-(R10-Pad2)*
X284980000Y-207600000D03*
D19*
G04 #@! TO.P,R10,1*
G04 #@! TO.N,+6v*
X292600000Y-207600000D03*
G04 #@! TD*
D20*
G04 #@! TO.P,R11,2*
G04 #@! TO.N,Net-(R11-Pad2)*
X241000000Y-80780000D03*
D19*
G04 #@! TO.P,R11,1*
G04 #@! TO.N,+6v*
X241000000Y-88400000D03*
G04 #@! TD*
D20*
G04 #@! TO.P,R12,2*
G04 #@! TO.N,Net-(R12-Pad2)*
X281000000Y-80780000D03*
D19*
G04 #@! TO.P,R12,1*
G04 #@! TO.N,+6v*
X281000000Y-88400000D03*
G04 #@! TD*
G04 #@! TO.P,R13,1*
G04 #@! TO.N,+6v*
X249000000Y-88400000D03*
D20*
G04 #@! TO.P,R13,2*
G04 #@! TO.N,Net-(R13-Pad2)*
X249000000Y-80780000D03*
G04 #@! TD*
D19*
G04 #@! TO.P,R14,1*
G04 #@! TO.N,+6v*
X289000000Y-88400000D03*
D20*
G04 #@! TO.P,R14,2*
G04 #@! TO.N,Net-(R14-Pad2)*
X289000000Y-80780000D03*
G04 #@! TD*
G04 #@! TO.P,R15,2*
G04 #@! TO.N,Net-(R15-Pad2)*
X257000000Y-80780000D03*
D19*
G04 #@! TO.P,R15,1*
G04 #@! TO.N,+6v*
X257000000Y-88400000D03*
G04 #@! TD*
D20*
G04 #@! TO.P,R16,2*
G04 #@! TO.N,Net-(R16-Pad2)*
X297000000Y-80780000D03*
D19*
G04 #@! TO.P,R16,1*
G04 #@! TO.N,+6v*
X297000000Y-88400000D03*
G04 #@! TD*
G04 #@! TO.P,R17,1*
G04 #@! TO.N,+6v*
X265000000Y-88400000D03*
D20*
G04 #@! TO.P,R17,2*
G04 #@! TO.N,Net-(R17-Pad2)*
X265000000Y-80780000D03*
G04 #@! TD*
D19*
G04 #@! TO.P,R18,1*
G04 #@! TO.N,+6v*
X305000000Y-88400000D03*
D20*
G04 #@! TO.P,R18,2*
G04 #@! TO.N,Net-(R18-Pad2)*
X305000000Y-80780000D03*
G04 #@! TD*
G04 #@! TO.P,R19,2*
G04 #@! TO.N,Net-(R19-Pad2)*
X273000000Y-80780000D03*
D19*
G04 #@! TO.P,R19,1*
G04 #@! TO.N,+6v*
X273000000Y-88400000D03*
G04 #@! TD*
G04 #@! TO.P,R20,1*
G04 #@! TO.N,+6v*
X313000000Y-88400000D03*
D20*
G04 #@! TO.P,R20,2*
G04 #@! TO.N,Net-(R20-Pad2)*
X313000000Y-80780000D03*
G04 #@! TD*
D19*
G04 #@! TO.P,R21,1*
G04 #@! TO.N,+6v*
X161000000Y-88400000D03*
D20*
G04 #@! TO.P,R21,2*
G04 #@! TO.N,Net-(R21-Pad2)*
X161000000Y-80780000D03*
G04 #@! TD*
D19*
G04 #@! TO.P,R22,1*
G04 #@! TO.N,+6v*
X201000000Y-88400000D03*
D20*
G04 #@! TO.P,R22,2*
G04 #@! TO.N,Net-(R22-Pad2)*
X201000000Y-80780000D03*
G04 #@! TD*
G04 #@! TO.P,R23,2*
G04 #@! TO.N,Net-(R23-Pad2)*
X169000000Y-80780000D03*
D19*
G04 #@! TO.P,R23,1*
G04 #@! TO.N,+6v*
X169000000Y-88400000D03*
G04 #@! TD*
D20*
G04 #@! TO.P,R24,2*
G04 #@! TO.N,Net-(R24-Pad2)*
X209000000Y-80780000D03*
D19*
G04 #@! TO.P,R24,1*
G04 #@! TO.N,+6v*
X209000000Y-88400000D03*
G04 #@! TD*
G04 #@! TO.P,R25,1*
G04 #@! TO.N,+6v*
X177000000Y-88400000D03*
D20*
G04 #@! TO.P,R25,2*
G04 #@! TO.N,Net-(R25-Pad2)*
X177000000Y-80780000D03*
G04 #@! TD*
D19*
G04 #@! TO.P,R26,1*
G04 #@! TO.N,+6v*
X217000000Y-88400000D03*
D20*
G04 #@! TO.P,R26,2*
G04 #@! TO.N,Net-(R26-Pad2)*
X217000000Y-80780000D03*
G04 #@! TD*
G04 #@! TO.P,R27,2*
G04 #@! TO.N,Net-(R27-Pad2)*
X185000000Y-80780000D03*
D19*
G04 #@! TO.P,R27,1*
G04 #@! TO.N,+6v*
X185000000Y-88400000D03*
G04 #@! TD*
D20*
G04 #@! TO.P,R28,2*
G04 #@! TO.N,Net-(R28-Pad2)*
X225000000Y-80780000D03*
D19*
G04 #@! TO.P,R28,1*
G04 #@! TO.N,+6v*
X225000000Y-88400000D03*
G04 #@! TD*
G04 #@! TO.P,R29,1*
G04 #@! TO.N,+6v*
X193000000Y-88400000D03*
D20*
G04 #@! TO.P,R29,2*
G04 #@! TO.N,Net-(R29-Pad2)*
X193000000Y-80780000D03*
G04 #@! TD*
D19*
G04 #@! TO.P,R30,1*
G04 #@! TO.N,+6v*
X233000000Y-88400000D03*
D20*
G04 #@! TO.P,R30,2*
G04 #@! TO.N,Net-(R30-Pad2)*
X233000000Y-80780000D03*
G04 #@! TD*
D19*
G04 #@! TO.P,R31,1*
G04 #@! TO.N,Net-(D1-Pad2)*
X261600000Y-147400000D03*
D20*
G04 #@! TO.P,R31,2*
G04 #@! TO.N,+6v*
X261600000Y-155020000D03*
G04 #@! TD*
G04 #@! TO.P,R32,2*
G04 #@! TO.N,+6v*
X269400000Y-155020000D03*
D19*
G04 #@! TO.P,R32,1*
G04 #@! TO.N,Net-(D2-Pad2)*
X269400000Y-147400000D03*
G04 #@! TD*
G04 #@! TO.P,R33,1*
G04 #@! TO.N,Net-(D3-Pad2)*
X276600000Y-147400000D03*
D20*
G04 #@! TO.P,R33,2*
G04 #@! TO.N,+6v*
X276600000Y-155020000D03*
G04 #@! TD*
G04 #@! TO.P,R34,2*
G04 #@! TO.N,+6v*
X284600000Y-155020000D03*
D19*
G04 #@! TO.P,R34,1*
G04 #@! TO.N,Net-(D4-Pad2)*
X284600000Y-147400000D03*
G04 #@! TD*
G04 #@! TO.P,R35,1*
G04 #@! TO.N,Net-(D5-Pad2)*
X292000000Y-147400000D03*
D20*
G04 #@! TO.P,R35,2*
G04 #@! TO.N,+6v*
X292000000Y-155020000D03*
G04 #@! TD*
G04 #@! TO.P,R36,2*
G04 #@! TO.N,+6v*
X299400000Y-155020000D03*
D19*
G04 #@! TO.P,R36,1*
G04 #@! TO.N,Net-(D6-Pad2)*
X299400000Y-147400000D03*
G04 #@! TD*
G04 #@! TO.P,R37,1*
G04 #@! TO.N,Net-(D7-Pad2)*
X299000000Y-104600000D03*
D20*
G04 #@! TO.P,R37,2*
G04 #@! TO.N,+6v*
X299000000Y-96980000D03*
G04 #@! TD*
G04 #@! TO.P,R38,2*
G04 #@! TO.N,+6v*
X291400000Y-96980000D03*
D19*
G04 #@! TO.P,R38,1*
G04 #@! TO.N,Net-(D8-Pad2)*
X291400000Y-104600000D03*
G04 #@! TD*
G04 #@! TO.P,R39,1*
G04 #@! TO.N,Net-(D9-Pad2)*
X283800000Y-104600000D03*
D20*
G04 #@! TO.P,R39,2*
G04 #@! TO.N,+6v*
X283800000Y-96980000D03*
G04 #@! TD*
G04 #@! TO.P,R40,2*
G04 #@! TO.N,+6v*
X276400000Y-96980000D03*
D19*
G04 #@! TO.P,R40,1*
G04 #@! TO.N,Net-(D10-Pad2)*
X276400000Y-104600000D03*
G04 #@! TD*
D20*
G04 #@! TO.P,R41,2*
G04 #@! TO.N,+6v*
X269000000Y-96980000D03*
D19*
G04 #@! TO.P,R41,1*
G04 #@! TO.N,Net-(D11-Pad2)*
X269000000Y-104600000D03*
G04 #@! TD*
D20*
G04 #@! TO.P,R42,2*
G04 #@! TO.N,+6v*
X261400000Y-96980000D03*
D19*
G04 #@! TO.P,R42,1*
G04 #@! TO.N,Net-(D12-Pad2)*
X261400000Y-104600000D03*
G04 #@! TD*
D21*
G04 #@! TO.P,SW11,3*
G04 #@! TO.N,GND*
X241000000Y-63101000D03*
G04 #@! TO.P,SW11,1*
G04 #@! TO.N,Net-(R11-Pad2)*
X241000000Y-72499000D03*
G04 #@! TO.P,SW11,2*
G04 #@! TO.N,Net-(J12-Pad5)*
X241000000Y-67800000D03*
G04 #@! TD*
G04 #@! TO.P,SW12,2*
G04 #@! TO.N,Net-(J13-Pad5)*
X281000000Y-67800000D03*
G04 #@! TO.P,SW12,1*
G04 #@! TO.N,Net-(R12-Pad2)*
X281000000Y-72499000D03*
G04 #@! TO.P,SW12,3*
G04 #@! TO.N,GND*
X281000000Y-63101000D03*
G04 #@! TD*
G04 #@! TO.P,SW13,2*
G04 #@! TO.N,Net-(J12-Pad4)*
X249000000Y-67800000D03*
G04 #@! TO.P,SW13,1*
G04 #@! TO.N,Net-(R13-Pad2)*
X249000000Y-72499000D03*
G04 #@! TO.P,SW13,3*
G04 #@! TO.N,GND*
X249000000Y-63101000D03*
G04 #@! TD*
G04 #@! TO.P,SW14,3*
G04 #@! TO.N,GND*
X289000000Y-63101000D03*
G04 #@! TO.P,SW14,1*
G04 #@! TO.N,Net-(R14-Pad2)*
X289000000Y-72499000D03*
G04 #@! TO.P,SW14,2*
G04 #@! TO.N,Net-(J13-Pad4)*
X289000000Y-67800000D03*
G04 #@! TD*
G04 #@! TO.P,SW15,3*
G04 #@! TO.N,GND*
X257000000Y-63101000D03*
G04 #@! TO.P,SW15,1*
G04 #@! TO.N,Net-(R15-Pad2)*
X257000000Y-72499000D03*
G04 #@! TO.P,SW15,2*
G04 #@! TO.N,Net-(J12-Pad3)*
X257000000Y-67800000D03*
G04 #@! TD*
G04 #@! TO.P,SW16,3*
G04 #@! TO.N,GND*
X297000000Y-63101000D03*
G04 #@! TO.P,SW16,1*
G04 #@! TO.N,Net-(R16-Pad2)*
X297000000Y-72499000D03*
G04 #@! TO.P,SW16,2*
G04 #@! TO.N,Net-(J13-Pad3)*
X297000000Y-67800000D03*
G04 #@! TD*
G04 #@! TO.P,SW17,2*
G04 #@! TO.N,Net-(J12-Pad2)*
X265000000Y-67800000D03*
G04 #@! TO.P,SW17,1*
G04 #@! TO.N,Net-(R17-Pad2)*
X265000000Y-72499000D03*
G04 #@! TO.P,SW17,3*
G04 #@! TO.N,GND*
X265000000Y-63101000D03*
G04 #@! TD*
G04 #@! TO.P,SW18,2*
G04 #@! TO.N,Net-(J13-Pad2)*
X305000000Y-67800000D03*
G04 #@! TO.P,SW18,1*
G04 #@! TO.N,Net-(R18-Pad2)*
X305000000Y-72499000D03*
G04 #@! TO.P,SW18,3*
G04 #@! TO.N,GND*
X305000000Y-63101000D03*
G04 #@! TD*
G04 #@! TO.P,SW19,3*
G04 #@! TO.N,GND*
X273000000Y-63101000D03*
G04 #@! TO.P,SW19,1*
G04 #@! TO.N,Net-(R19-Pad2)*
X273000000Y-72499000D03*
G04 #@! TO.P,SW19,2*
G04 #@! TO.N,Net-(J12-Pad1)*
X273000000Y-67800000D03*
G04 #@! TD*
G04 #@! TO.P,SW20,2*
G04 #@! TO.N,Net-(J13-Pad1)*
X313000000Y-67800000D03*
G04 #@! TO.P,SW20,1*
G04 #@! TO.N,Net-(R20-Pad2)*
X313000000Y-72499000D03*
G04 #@! TO.P,SW20,3*
G04 #@! TO.N,GND*
X313000000Y-63101000D03*
G04 #@! TD*
G04 #@! TO.P,SW21,2*
G04 #@! TO.N,Net-(J14-Pad5)*
X161000000Y-67800000D03*
G04 #@! TO.P,SW21,1*
G04 #@! TO.N,Net-(R21-Pad2)*
X161000000Y-72499000D03*
G04 #@! TO.P,SW21,3*
G04 #@! TO.N,GND*
X161000000Y-63101000D03*
G04 #@! TD*
G04 #@! TO.P,SW22,3*
G04 #@! TO.N,GND*
X201000000Y-63101000D03*
G04 #@! TO.P,SW22,1*
G04 #@! TO.N,Net-(R22-Pad2)*
X201000000Y-72499000D03*
G04 #@! TO.P,SW22,2*
G04 #@! TO.N,Net-(J15-Pad5)*
X201000000Y-67800000D03*
G04 #@! TD*
G04 #@! TO.P,SW23,3*
G04 #@! TO.N,GND*
X169000000Y-63101000D03*
G04 #@! TO.P,SW23,1*
G04 #@! TO.N,Net-(R23-Pad2)*
X169000000Y-72499000D03*
G04 #@! TO.P,SW23,2*
G04 #@! TO.N,Net-(J14-Pad4)*
X169000000Y-67800000D03*
G04 #@! TD*
G04 #@! TO.P,SW24,2*
G04 #@! TO.N,Net-(J15-Pad4)*
X209000000Y-67800000D03*
G04 #@! TO.P,SW24,1*
G04 #@! TO.N,Net-(R24-Pad2)*
X209000000Y-72499000D03*
G04 #@! TO.P,SW24,3*
G04 #@! TO.N,GND*
X209000000Y-63101000D03*
G04 #@! TD*
G04 #@! TO.P,SW25,2*
G04 #@! TO.N,Net-(J14-Pad3)*
X177000000Y-67800000D03*
G04 #@! TO.P,SW25,1*
G04 #@! TO.N,Net-(R25-Pad2)*
X177000000Y-72499000D03*
G04 #@! TO.P,SW25,3*
G04 #@! TO.N,GND*
X177000000Y-63101000D03*
G04 #@! TD*
G04 #@! TO.P,SW26,3*
G04 #@! TO.N,GND*
X217000000Y-63101000D03*
G04 #@! TO.P,SW26,1*
G04 #@! TO.N,Net-(R26-Pad2)*
X217000000Y-72499000D03*
G04 #@! TO.P,SW26,2*
G04 #@! TO.N,Net-(J15-Pad3)*
X217000000Y-67800000D03*
G04 #@! TD*
G04 #@! TO.P,SW27,2*
G04 #@! TO.N,Net-(J14-Pad2)*
X185000000Y-67800000D03*
G04 #@! TO.P,SW27,1*
G04 #@! TO.N,Net-(R27-Pad2)*
X185000000Y-72499000D03*
G04 #@! TO.P,SW27,3*
G04 #@! TO.N,GND*
X185000000Y-63101000D03*
G04 #@! TD*
G04 #@! TO.P,SW28,2*
G04 #@! TO.N,Net-(J15-Pad2)*
X225000000Y-67800000D03*
G04 #@! TO.P,SW28,1*
G04 #@! TO.N,Net-(R28-Pad2)*
X225000000Y-72499000D03*
G04 #@! TO.P,SW28,3*
G04 #@! TO.N,GND*
X225000000Y-63101000D03*
G04 #@! TD*
G04 #@! TO.P,SW29,3*
G04 #@! TO.N,GND*
X193000000Y-63101000D03*
G04 #@! TO.P,SW29,1*
G04 #@! TO.N,Net-(R29-Pad2)*
X193000000Y-72499000D03*
G04 #@! TO.P,SW29,2*
G04 #@! TO.N,Net-(J14-Pad1)*
X193000000Y-67800000D03*
G04 #@! TD*
G04 #@! TO.P,SW30,3*
G04 #@! TO.N,GND*
X233000000Y-63101000D03*
G04 #@! TO.P,SW30,1*
G04 #@! TO.N,Net-(R30-Pad2)*
X233000000Y-72499000D03*
G04 #@! TO.P,SW30,2*
G04 #@! TO.N,Net-(J15-Pad1)*
X233000000Y-67800000D03*
G04 #@! TD*
D13*
G04 #@! TO.P,J10,5*
G04 #@! TO.N,Net-(J10-Pad5)*
X331200000Y-206520000D03*
G04 #@! TO.P,J10,4*
G04 #@! TO.N,Net-(J10-Pad4)*
X331200000Y-201440000D03*
G04 #@! TO.P,J10,3*
G04 #@! TO.N,Net-(J10-Pad3)*
X331200000Y-196360000D03*
G04 #@! TO.P,J10,2*
G04 #@! TO.N,Net-(J10-Pad2)*
X331200000Y-191280000D03*
D12*
G04 #@! TO.P,J10,1*
G04 #@! TO.N,Net-(J10-Pad1)*
X331200000Y-186200000D03*
G04 #@! TD*
G04 #@! TO.P,J11,1*
G04 #@! TO.N,Net-(J11-Pad1)*
X331400000Y-218800000D03*
D13*
G04 #@! TO.P,J11,2*
G04 #@! TO.N,Net-(J11-Pad2)*
X331400000Y-223880000D03*
G04 #@! TO.P,J11,3*
G04 #@! TO.N,Net-(J11-Pad3)*
X331400000Y-228960000D03*
G04 #@! TO.P,J11,4*
G04 #@! TO.N,Net-(J11-Pad4)*
X331400000Y-234040000D03*
G04 #@! TO.P,J11,5*
G04 #@! TO.N,Net-(J11-Pad5)*
X331400000Y-239120000D03*
G04 #@! TD*
G04 #@! TO.P,J12,5*
G04 #@! TO.N,Net-(J12-Pad5)*
X252680000Y-46200000D03*
G04 #@! TO.P,J12,4*
G04 #@! TO.N,Net-(J12-Pad4)*
X257760000Y-46200000D03*
G04 #@! TO.P,J12,3*
G04 #@! TO.N,Net-(J12-Pad3)*
X262840000Y-46200000D03*
G04 #@! TO.P,J12,2*
G04 #@! TO.N,Net-(J12-Pad2)*
X267920000Y-46200000D03*
D12*
G04 #@! TO.P,J12,1*
G04 #@! TO.N,Net-(J12-Pad1)*
X273000000Y-46200000D03*
G04 #@! TD*
D13*
G04 #@! TO.P,J13,5*
G04 #@! TO.N,Net-(J13-Pad5)*
X292680000Y-46200000D03*
G04 #@! TO.P,J13,4*
G04 #@! TO.N,Net-(J13-Pad4)*
X297760000Y-46200000D03*
G04 #@! TO.P,J13,3*
G04 #@! TO.N,Net-(J13-Pad3)*
X302840000Y-46200000D03*
G04 #@! TO.P,J13,2*
G04 #@! TO.N,Net-(J13-Pad2)*
X307920000Y-46200000D03*
D12*
G04 #@! TO.P,J13,1*
G04 #@! TO.N,Net-(J13-Pad1)*
X313000000Y-46200000D03*
G04 #@! TD*
G04 #@! TO.P,J14,1*
G04 #@! TO.N,Net-(J14-Pad1)*
X193000000Y-46200000D03*
D13*
G04 #@! TO.P,J14,2*
G04 #@! TO.N,Net-(J14-Pad2)*
X187920000Y-46200000D03*
G04 #@! TO.P,J14,3*
G04 #@! TO.N,Net-(J14-Pad3)*
X182840000Y-46200000D03*
G04 #@! TO.P,J14,4*
G04 #@! TO.N,Net-(J14-Pad4)*
X177760000Y-46200000D03*
G04 #@! TO.P,J14,5*
G04 #@! TO.N,Net-(J14-Pad5)*
X172680000Y-46200000D03*
G04 #@! TD*
D12*
G04 #@! TO.P,J15,1*
G04 #@! TO.N,Net-(J15-Pad1)*
X233000000Y-46200000D03*
D13*
G04 #@! TO.P,J15,2*
G04 #@! TO.N,Net-(J15-Pad2)*
X227920000Y-46200000D03*
G04 #@! TO.P,J15,3*
G04 #@! TO.N,Net-(J15-Pad3)*
X222840000Y-46200000D03*
G04 #@! TO.P,J15,4*
G04 #@! TO.N,Net-(J15-Pad4)*
X217760000Y-46200000D03*
G04 #@! TO.P,J15,5*
G04 #@! TO.N,Net-(J15-Pad5)*
X212680000Y-46200000D03*
G04 #@! TD*
G04 #@! TO.P,J16,6*
G04 #@! TO.N,Net-(D6-Pad1)*
X331200000Y-130200000D03*
G04 #@! TO.P,J16,5*
G04 #@! TO.N,Net-(D5-Pad1)*
X331200000Y-135080000D03*
G04 #@! TO.P,J16,4*
G04 #@! TO.N,Net-(D4-Pad1)*
X331200000Y-140160000D03*
G04 #@! TO.P,J16,3*
G04 #@! TO.N,Net-(D3-Pad1)*
X331200000Y-145240000D03*
G04 #@! TO.P,J16,2*
G04 #@! TO.N,Net-(D2-Pad1)*
X331200000Y-150320000D03*
D12*
G04 #@! TO.P,J16,1*
G04 #@! TO.N,Net-(D1-Pad1)*
X331200000Y-155400000D03*
G04 #@! TD*
G04 #@! TO.P,J17,1*
G04 #@! TO.N,Net-(D7-Pad1)*
X331400000Y-121660000D03*
D13*
G04 #@! TO.P,J17,2*
G04 #@! TO.N,Net-(D8-Pad1)*
X331400000Y-116920000D03*
G04 #@! TO.P,J17,3*
G04 #@! TO.N,Net-(D9-Pad1)*
X331400000Y-111840000D03*
G04 #@! TO.P,J17,4*
G04 #@! TO.N,Net-(D10-Pad1)*
X331400000Y-106760000D03*
G04 #@! TO.P,J17,5*
G04 #@! TO.N,Net-(D11-Pad1)*
X331400000Y-101680000D03*
G04 #@! TO.P,J17,6*
G04 #@! TO.N,Net-(D12-Pad1)*
X331400000Y-96600000D03*
G04 #@! TD*
D12*
G04 #@! TO.P,J19,1*
G04 #@! TO.N,Net-(J18-Pad1)*
X331200000Y-178400000D03*
D13*
G04 #@! TO.P,J19,2*
G04 #@! TO.N,Net-(J18-Pad3)*
X331200000Y-173400000D03*
G04 #@! TO.P,J19,3*
G04 #@! TO.N,Net-(J18-Pad5)*
X331200000Y-168400000D03*
G04 #@! TO.P,J19,4*
G04 #@! TO.N,Net-(J18-Pad7)*
X331200000Y-163400000D03*
G04 #@! TD*
D12*
G04 #@! TO.P,J20,1*
G04 #@! TO.N,Net-(J18-Pad8)*
X331400000Y-88600000D03*
D13*
G04 #@! TO.P,J20,2*
G04 #@! TO.N,Net-(J18-Pad6)*
X331400000Y-83600000D03*
G04 #@! TO.P,J20,3*
G04 #@! TO.N,Net-(J18-Pad4)*
X331400000Y-78600000D03*
G04 #@! TO.P,J20,4*
G04 #@! TO.N,Net-(J18-Pad2)*
X331400000Y-73600000D03*
G04 #@! TD*
G04 #@! TO.P,J22,3*
G04 #@! TO.N,+70v*
X185160000Y-238400000D03*
G04 #@! TO.P,J22,2*
G04 #@! TO.N,0v*
X180080000Y-238400000D03*
D12*
G04 #@! TO.P,J22,1*
G04 #@! TO.N,-40v*
X175000000Y-238400000D03*
G04 #@! TD*
D20*
G04 #@! TO.P,NE1,2*
G04 #@! TO.N,Net-(NE1-Pad2)*
X175200000Y-145860000D03*
D19*
G04 #@! TO.P,NE1,1*
G04 #@! TO.N,-40v*
X175200000Y-148400000D03*
G04 #@! TD*
G04 #@! TO.P,NE2,1*
G04 #@! TO.N,-40v*
X185200000Y-148400000D03*
D20*
G04 #@! TO.P,NE2,2*
G04 #@! TO.N,Net-(NE2-Pad2)*
X185200000Y-145860000D03*
G04 #@! TD*
G04 #@! TO.P,NE3,2*
G04 #@! TO.N,Net-(NE3-Pad2)*
X195200000Y-145860000D03*
D19*
G04 #@! TO.P,NE3,1*
G04 #@! TO.N,-40v*
X195200000Y-148400000D03*
G04 #@! TD*
G04 #@! TO.P,NE4,1*
G04 #@! TO.N,-40v*
X205200000Y-148400000D03*
D20*
G04 #@! TO.P,NE4,2*
G04 #@! TO.N,Net-(NE4-Pad2)*
X205200000Y-145860000D03*
G04 #@! TD*
D19*
G04 #@! TO.P,NE5,1*
G04 #@! TO.N,-40v*
X215200000Y-148400000D03*
D20*
G04 #@! TO.P,NE5,2*
G04 #@! TO.N,Net-(NE5-Pad2)*
X215200000Y-145860000D03*
G04 #@! TD*
G04 #@! TO.P,NE6,2*
G04 #@! TO.N,Net-(NE6-Pad2)*
X225200000Y-145860000D03*
D19*
G04 #@! TO.P,NE6,1*
G04 #@! TO.N,-40v*
X225200000Y-148400000D03*
G04 #@! TD*
D20*
G04 #@! TO.P,NE7,2*
G04 #@! TO.N,Net-(NE7-Pad2)*
X235200000Y-145860000D03*
D19*
G04 #@! TO.P,NE7,1*
G04 #@! TO.N,-40v*
X235200000Y-148400000D03*
G04 #@! TD*
G04 #@! TO.P,NE8,1*
G04 #@! TO.N,-40v*
X245200000Y-148400000D03*
D20*
G04 #@! TO.P,NE8,2*
G04 #@! TO.N,Net-(NE8-Pad2)*
X245200000Y-145860000D03*
G04 #@! TD*
D22*
G04 #@! TO.P,Q1,2*
G04 #@! TO.N,Net-(J21-Pad1)*
X173930000Y-132130000D03*
G04 #@! TO.P,Q1,3*
G04 #@! TO.N,Net-(NE1-Pad2)*
X175200000Y-133400000D03*
D23*
G04 #@! TO.P,Q1,1*
G04 #@! TO.N,0v*
X172660000Y-133400000D03*
G04 #@! TD*
D22*
G04 #@! TO.P,Q2,2*
G04 #@! TO.N,Net-(J21-Pad2)*
X183930000Y-132130000D03*
G04 #@! TO.P,Q2,3*
G04 #@! TO.N,Net-(NE2-Pad2)*
X185200000Y-133400000D03*
D23*
G04 #@! TO.P,Q2,1*
G04 #@! TO.N,0v*
X182660000Y-133400000D03*
G04 #@! TD*
G04 #@! TO.P,Q3,1*
G04 #@! TO.N,0v*
X192660000Y-133400000D03*
D22*
G04 #@! TO.P,Q3,3*
G04 #@! TO.N,Net-(NE3-Pad2)*
X195200000Y-133400000D03*
G04 #@! TO.P,Q3,2*
G04 #@! TO.N,Net-(J21-Pad3)*
X193930000Y-132130000D03*
G04 #@! TD*
D23*
G04 #@! TO.P,Q4,1*
G04 #@! TO.N,0v*
X202660000Y-133400000D03*
D22*
G04 #@! TO.P,Q4,3*
G04 #@! TO.N,Net-(NE4-Pad2)*
X205200000Y-133400000D03*
G04 #@! TO.P,Q4,2*
G04 #@! TO.N,Net-(J21-Pad4)*
X203930000Y-132130000D03*
G04 #@! TD*
G04 #@! TO.P,Q5,2*
G04 #@! TO.N,Net-(J21-Pad5)*
X213930000Y-132130000D03*
G04 #@! TO.P,Q5,3*
G04 #@! TO.N,Net-(NE5-Pad2)*
X215200000Y-133400000D03*
D23*
G04 #@! TO.P,Q5,1*
G04 #@! TO.N,0v*
X212660000Y-133400000D03*
G04 #@! TD*
G04 #@! TO.P,Q6,1*
G04 #@! TO.N,0v*
X222660000Y-133400000D03*
D22*
G04 #@! TO.P,Q6,3*
G04 #@! TO.N,Net-(NE6-Pad2)*
X225200000Y-133400000D03*
G04 #@! TO.P,Q6,2*
G04 #@! TO.N,Net-(J21-Pad6)*
X223930000Y-132130000D03*
G04 #@! TD*
G04 #@! TO.P,Q7,2*
G04 #@! TO.N,Net-(J21-Pad7)*
X233930000Y-132130000D03*
G04 #@! TO.P,Q7,3*
G04 #@! TO.N,Net-(NE7-Pad2)*
X235200000Y-133400000D03*
D23*
G04 #@! TO.P,Q7,1*
G04 #@! TO.N,0v*
X232660000Y-133400000D03*
G04 #@! TD*
G04 #@! TO.P,Q8,1*
G04 #@! TO.N,0v*
X242660000Y-133400000D03*
D22*
G04 #@! TO.P,Q8,3*
G04 #@! TO.N,Net-(NE8-Pad2)*
X245200000Y-133400000D03*
G04 #@! TO.P,Q8,2*
G04 #@! TO.N,Net-(J21-Pad8)*
X243930000Y-132130000D03*
G04 #@! TD*
D20*
G04 #@! TO.P,R43,2*
G04 #@! TO.N,Net-(NE1-Pad2)*
X175200000Y-152580000D03*
D19*
G04 #@! TO.P,R43,1*
G04 #@! TO.N,+70v*
X175200000Y-160200000D03*
G04 #@! TD*
D20*
G04 #@! TO.P,R44,2*
G04 #@! TO.N,Net-(NE2-Pad2)*
X185200000Y-152580000D03*
D19*
G04 #@! TO.P,R44,1*
G04 #@! TO.N,+70v*
X185200000Y-160200000D03*
G04 #@! TD*
G04 #@! TO.P,R45,1*
G04 #@! TO.N,+70v*
X195200000Y-160200000D03*
D20*
G04 #@! TO.P,R45,2*
G04 #@! TO.N,Net-(NE3-Pad2)*
X195200000Y-152580000D03*
G04 #@! TD*
D19*
G04 #@! TO.P,R46,1*
G04 #@! TO.N,+70v*
X205200000Y-160200000D03*
D20*
G04 #@! TO.P,R46,2*
G04 #@! TO.N,Net-(NE4-Pad2)*
X205200000Y-152580000D03*
G04 #@! TD*
G04 #@! TO.P,R47,2*
G04 #@! TO.N,Net-(NE5-Pad2)*
X215200000Y-152580000D03*
D19*
G04 #@! TO.P,R47,1*
G04 #@! TO.N,+70v*
X215200000Y-160200000D03*
G04 #@! TD*
G04 #@! TO.P,R48,1*
G04 #@! TO.N,+70v*
X225200000Y-160200000D03*
D20*
G04 #@! TO.P,R48,2*
G04 #@! TO.N,Net-(NE6-Pad2)*
X225200000Y-152580000D03*
G04 #@! TD*
G04 #@! TO.P,R49,2*
G04 #@! TO.N,Net-(NE7-Pad2)*
X235200000Y-152580000D03*
D19*
G04 #@! TO.P,R49,1*
G04 #@! TO.N,+70v*
X235200000Y-160200000D03*
G04 #@! TD*
G04 #@! TO.P,R50,1*
G04 #@! TO.N,+70v*
X245200000Y-160200000D03*
D20*
G04 #@! TO.P,R50,2*
G04 #@! TO.N,Net-(NE8-Pad2)*
X245200000Y-152580000D03*
G04 #@! TD*
D24*
G04 #@! TO.N,Net-(D1-Pad2)*
X261600000Y-137740000D02*
X261600000Y-147400000D01*
G04 #@! TO.N,Net-(D2-Pad2)*
X269400000Y-137740000D02*
X269400000Y-147400000D01*
G04 #@! TO.N,Net-(D3-Pad2)*
X276600000Y-137940000D02*
X276600000Y-147400000D01*
G04 #@! TO.N,Net-(D4-Pad2)*
X284600000Y-138140000D02*
X284600000Y-147400000D01*
G04 #@! TO.N,Net-(D5-Pad2)*
X292000000Y-138140000D02*
X292000000Y-147400000D01*
G04 #@! TO.N,Net-(D6-Pad2)*
X299400000Y-138140000D02*
X299400000Y-147400000D01*
G04 #@! TO.N,Net-(D7-Pad2)*
X299000000Y-114060000D02*
X299000000Y-104600000D01*
G04 #@! TO.N,Net-(D8-Pad2)*
X291400000Y-104600000D02*
X291400000Y-113860000D01*
G04 #@! TO.N,Net-(D9-Pad2)*
X283800000Y-104600000D02*
X283800000Y-113860000D01*
G04 #@! TO.N,Net-(D10-Pad2)*
X276400000Y-104600000D02*
X276400000Y-113660000D01*
G04 #@! TO.N,Net-(D11-Pad2)*
X269000000Y-113660000D02*
X269000000Y-104600000D01*
G04 #@! TO.N,Net-(D12-Pad2)*
X261400000Y-104600000D02*
X261400000Y-113660000D01*
G04 #@! TO.N,GND*
X279490000Y-215600000D02*
X277610000Y-213720000D01*
X292610000Y-213720000D02*
X290730000Y-215600000D01*
X290730000Y-215600000D02*
X279490000Y-215600000D01*
X264490000Y-215600000D02*
X262610000Y-213720000D01*
X277610000Y-213720000D02*
X275730000Y-215600000D01*
X275730000Y-215600000D02*
X264490000Y-215600000D01*
X249490000Y-215600000D02*
X247610000Y-213720000D01*
X262610000Y-213720000D02*
X260730000Y-215600000D01*
X260730000Y-215600000D02*
X249490000Y-215600000D01*
X234490000Y-215600000D02*
X232610000Y-213720000D01*
X247610000Y-213720000D02*
X245730000Y-215600000D01*
X245730000Y-215600000D02*
X234490000Y-215600000D01*
X245730000Y-183000000D02*
X247610000Y-181120000D01*
X232610000Y-181120000D02*
X234490000Y-183000000D01*
X234490000Y-183000000D02*
X245730000Y-183000000D01*
X249490000Y-183000000D02*
X247610000Y-181120000D01*
X259652370Y-183000000D02*
X249490000Y-183000000D01*
X262610000Y-181120000D02*
X261532370Y-181120000D01*
X261532370Y-181120000D02*
X259652370Y-183000000D01*
X264490000Y-183000000D02*
X262610000Y-181120000D01*
X274652370Y-183000000D02*
X264490000Y-183000000D01*
X277610000Y-181120000D02*
X276532370Y-181120000D01*
X276532370Y-181120000D02*
X274652370Y-183000000D01*
X279490000Y-183000000D02*
X277610000Y-181120000D01*
X292610000Y-181120000D02*
X290730000Y-183000000D01*
X290730000Y-183000000D02*
X279490000Y-183000000D01*
G04 #@! TO.N,+6v*
X119000000Y-46400000D02*
X119000000Y-46200000D01*
X161000000Y-88400000D02*
X119000000Y-46400000D01*
X292600000Y-155620000D02*
X292000000Y-155020000D01*
X292600000Y-174800000D02*
X292600000Y-155620000D01*
X290600000Y-172800000D02*
X292600000Y-174800000D01*
X280589949Y-172800000D02*
X290600000Y-172800000D01*
X277600000Y-174800000D02*
X278589949Y-174800000D01*
X278589949Y-174800000D02*
X280589949Y-172800000D01*
X275600000Y-172800000D02*
X277600000Y-174800000D01*
X262600000Y-174800000D02*
X264600000Y-172800000D01*
X264600000Y-172800000D02*
X275600000Y-172800000D01*
X260600000Y-172800000D02*
X262600000Y-174800000D01*
X248610051Y-172800000D02*
X260600000Y-172800000D01*
X247600000Y-174800000D02*
X247600000Y-173810051D01*
X247600000Y-173810051D02*
X248610051Y-172800000D01*
X245600000Y-172800000D02*
X247600000Y-174800000D01*
X232600000Y-174800000D02*
X234600000Y-172800000D01*
X234600000Y-172800000D02*
X245600000Y-172800000D01*
G04 #@! TO.N,Net-(J1-Pad3)*
X106700000Y-92600000D02*
X104400000Y-92600000D01*
X120000000Y-105900000D02*
X106700000Y-92600000D01*
X120000000Y-128034002D02*
X120000000Y-105900000D01*
X123550001Y-131584003D02*
X120000000Y-128034002D01*
X124400000Y-132680000D02*
X123550001Y-131830001D01*
X123550001Y-131830001D02*
X123550001Y-131584003D01*
G04 #@! TO.N,Net-(J1-PadC)*
X144640000Y-92600000D02*
X146940000Y-92600000D01*
X131600000Y-105640000D02*
X144640000Y-92600000D01*
X126940000Y-132680000D02*
X131600000Y-128020000D01*
X131600000Y-128020000D02*
X131600000Y-105640000D01*
G04 #@! TO.N,Net-(J1-Pad4)*
X118400000Y-111680000D02*
X104400000Y-97680000D01*
X124400000Y-135220000D02*
X118400000Y-129220000D01*
X118400000Y-129220000D02*
X118400000Y-111680000D01*
G04 #@! TO.N,Net-(J1-PadD)*
X133600000Y-111020000D02*
X146940000Y-97680000D01*
X126940000Y-135220000D02*
X133600000Y-128560000D01*
X133600000Y-128560000D02*
X133600000Y-111020000D01*
G04 #@! TO.N,Net-(J1-Pad5)*
X116600000Y-114960000D02*
X104400000Y-102760000D01*
X124400000Y-137760000D02*
X116600000Y-129960000D01*
X116600000Y-129960000D02*
X116600000Y-114960000D01*
G04 #@! TO.N,Net-(J1-PadE)*
X135600000Y-114100000D02*
X146940000Y-102760000D01*
X126940000Y-137760000D02*
X135600000Y-129100000D01*
X135600000Y-129100000D02*
X135600000Y-114100000D01*
G04 #@! TO.N,Net-(J1-Pad6)*
X115000000Y-118440000D02*
X104400000Y-107840000D01*
X124400000Y-140300000D02*
X115000000Y-130900000D01*
X115000000Y-130900000D02*
X115000000Y-118440000D01*
G04 #@! TO.N,Net-(J1-PadF)*
X137600000Y-117180000D02*
X146940000Y-107840000D01*
X126940000Y-140300000D02*
X137600000Y-129640000D01*
X137600000Y-129640000D02*
X137600000Y-117180000D01*
G04 #@! TO.N,Net-(J1-Pad7)*
X113000000Y-121520000D02*
X104400000Y-112920000D01*
X124400000Y-142840000D02*
X113000000Y-131440000D01*
X113000000Y-131440000D02*
X113000000Y-121520000D01*
G04 #@! TO.N,Net-(J1-PadH)*
X139600000Y-120260000D02*
X146940000Y-112920000D01*
X126940000Y-142840000D02*
X139600000Y-130180000D01*
X139600000Y-130180000D02*
X139600000Y-120260000D01*
G04 #@! TO.N,Net-(J1-Pad8)*
X111000000Y-124600000D02*
X104400000Y-118000000D01*
X124400000Y-145380000D02*
X111000000Y-131980000D01*
X111000000Y-131980000D02*
X111000000Y-124600000D01*
G04 #@! TO.N,Net-(J1-PadJ)*
X141400000Y-123540000D02*
X146940000Y-118000000D01*
X126940000Y-145380000D02*
X141400000Y-130920000D01*
X141400000Y-130920000D02*
X141400000Y-123540000D01*
G04 #@! TO.N,Net-(J1-Pad9)*
X104400000Y-127920000D02*
X104400000Y-123080000D01*
X124400000Y-147920000D02*
X104400000Y-127920000D01*
G04 #@! TO.N,Net-(J1-PadK)*
X146940000Y-127920000D02*
X146940000Y-123080000D01*
X126940000Y-147920000D02*
X146940000Y-127920000D01*
G04 #@! TO.N,Net-(J1-Pad10)*
X104600000Y-132600000D02*
X104400000Y-132600000D01*
X124400000Y-150460000D02*
X122460000Y-150460000D01*
X122460000Y-150460000D02*
X104600000Y-132600000D01*
G04 #@! TO.N,Net-(J1-PadL)*
X129080000Y-150460000D02*
X146940000Y-132600000D01*
X126940000Y-150460000D02*
X129080000Y-150460000D01*
G04 #@! TO.N,Net-(J1-Pad11)*
X119720000Y-153000000D02*
X104400000Y-137680000D01*
X124400000Y-153000000D02*
X119720000Y-153000000D01*
G04 #@! TO.N,Net-(J1-PadM)*
X131620000Y-153000000D02*
X146940000Y-137680000D01*
X126940000Y-153000000D02*
X131620000Y-153000000D01*
G04 #@! TO.N,Net-(J1-Pad12)*
X117180000Y-155540000D02*
X104400000Y-142760000D01*
X124400000Y-155540000D02*
X117180000Y-155540000D01*
G04 #@! TO.N,Net-(J1-PadN)*
X134160000Y-155540000D02*
X146940000Y-142760000D01*
X126940000Y-155540000D02*
X134160000Y-155540000D01*
G04 #@! TO.N,Net-(J1-Pad13)*
X114640000Y-158080000D02*
X104400000Y-147840000D01*
X124400000Y-158080000D02*
X114640000Y-158080000D01*
G04 #@! TO.N,Net-(J1-PadP)*
X136700000Y-158080000D02*
X146940000Y-147840000D01*
X126940000Y-158080000D02*
X136700000Y-158080000D01*
G04 #@! TO.N,Net-(J1-Pad14)*
X112100000Y-160620000D02*
X104400000Y-152920000D01*
X124400000Y-160620000D02*
X112100000Y-160620000D01*
G04 #@! TO.N,Net-(J1-PadR)*
X139240000Y-160620000D02*
X146940000Y-152920000D01*
X126940000Y-160620000D02*
X139240000Y-160620000D01*
G04 #@! TO.N,Net-(J1-Pad15)*
X109560000Y-163160000D02*
X104400000Y-158000000D01*
X124400000Y-163160000D02*
X109560000Y-163160000D01*
G04 #@! TO.N,Net-(J1-PadS)*
X141780000Y-163160000D02*
X146940000Y-158000000D01*
X126940000Y-163160000D02*
X141780000Y-163160000D01*
G04 #@! TO.N,Net-(J1-Pad16)*
X107020000Y-165700000D02*
X104400000Y-163080000D01*
X124400000Y-165700000D02*
X107020000Y-165700000D01*
G04 #@! TO.N,Net-(J1-PadT)*
X144320000Y-165700000D02*
X146940000Y-163080000D01*
X126940000Y-165700000D02*
X144320000Y-165700000D01*
G04 #@! TO.N,Net-(J1-Pad17)*
X108360000Y-168240000D02*
X124400000Y-168240000D01*
X104400000Y-172600000D02*
X104400000Y-172200000D01*
X104400000Y-172200000D02*
X108360000Y-168240000D01*
G04 #@! TO.N,Net-(J1-PadU)*
X146940000Y-172340000D02*
X146940000Y-172600000D01*
X126940000Y-168240000D02*
X142840000Y-168240000D01*
X142840000Y-168240000D02*
X146940000Y-172340000D01*
G04 #@! TO.N,Net-(J1-Pad18)*
X111300000Y-170780000D02*
X104400000Y-177680000D01*
X124400000Y-170780000D02*
X111300000Y-170780000D01*
G04 #@! TO.N,Net-(J1-PadV)*
X140040000Y-170780000D02*
X146940000Y-177680000D01*
X126940000Y-170780000D02*
X140040000Y-170780000D01*
G04 #@! TO.N,Net-(J1-Pad19)*
X113840000Y-173320000D02*
X104400000Y-182760000D01*
X124400000Y-173320000D02*
X113840000Y-173320000D01*
G04 #@! TO.N,Net-(J1-PadW)*
X137500000Y-173320000D02*
X146940000Y-182760000D01*
X126940000Y-173320000D02*
X137500000Y-173320000D01*
G04 #@! TO.N,Net-(J1-Pad20)*
X116380000Y-175860000D02*
X104400000Y-187840000D01*
X124400000Y-175860000D02*
X116380000Y-175860000D01*
G04 #@! TO.N,Net-(J1-PadX)*
X134960000Y-175860000D02*
X146940000Y-187840000D01*
X126940000Y-175860000D02*
X134960000Y-175860000D01*
G04 #@! TO.N,Net-(J1-Pad21)*
X118920000Y-178400000D02*
X104400000Y-192920000D01*
X124400000Y-178400000D02*
X118920000Y-178400000D01*
G04 #@! TO.N,Net-(J1-PadY)*
X132420000Y-178400000D02*
X146940000Y-192920000D01*
X126940000Y-178400000D02*
X132420000Y-178400000D01*
G04 #@! TO.N,Net-(J1-Pad22)*
X121460000Y-180940000D02*
X104400000Y-198000000D01*
X124400000Y-180940000D02*
X121460000Y-180940000D01*
G04 #@! TO.N,Net-(J1-PadZ)*
X129880000Y-180940000D02*
X146940000Y-198000000D01*
X126940000Y-180940000D02*
X129880000Y-180940000D01*
G04 #@! TO.N,Net-(J1-Pad23)*
X104800000Y-203080000D02*
X104400000Y-203080000D01*
X124400000Y-183480000D02*
X104800000Y-203080000D01*
G04 #@! TO.N,Net-(J1-PadAA)*
X146540000Y-203080000D02*
X146940000Y-203080000D01*
X126940000Y-183480000D02*
X146540000Y-203080000D01*
G04 #@! TO.N,Net-(J1-Pad24)*
X104400000Y-212400000D02*
X104400000Y-212600000D01*
X112000000Y-204800000D02*
X104400000Y-212400000D01*
X112000000Y-198665998D02*
X112000000Y-204800000D01*
X124400000Y-186020000D02*
X124400000Y-186265998D01*
X124400000Y-186265998D02*
X112000000Y-198665998D01*
G04 #@! TO.N,Net-(J1-PadAB)*
X146940000Y-212540000D02*
X146940000Y-212600000D01*
X126940000Y-186140000D02*
X127200000Y-186400000D01*
X126940000Y-186020000D02*
X126940000Y-186140000D01*
X127200000Y-186400000D02*
X127200000Y-186525998D01*
X127200000Y-186525998D02*
X138600000Y-197925998D01*
X138600000Y-197925998D02*
X138600000Y-204200000D01*
X138600000Y-204200000D02*
X146940000Y-212540000D01*
G04 #@! TO.N,Net-(J1-Pad25)*
X113799978Y-199160022D02*
X113799978Y-208280022D01*
X113799978Y-208280022D02*
X104400000Y-217680000D01*
X124400000Y-188560000D02*
X113799978Y-199160022D01*
G04 #@! TO.N,Net-(J1-PadAC)*
X137200000Y-207940000D02*
X146940000Y-217680000D01*
X126940000Y-188560000D02*
X137200000Y-198820000D01*
X137200000Y-198820000D02*
X137200000Y-207940000D01*
G04 #@! TO.N,Net-(J1-Pad26)*
X115200000Y-211960000D02*
X104400000Y-222760000D01*
X124400000Y-191100000D02*
X115200000Y-200300000D01*
X115200000Y-200300000D02*
X115200000Y-211960000D01*
G04 #@! TO.N,Net-(J1-PadAD)*
X135800000Y-211620000D02*
X146940000Y-222760000D01*
X126940000Y-191100000D02*
X135800000Y-199960000D01*
X135800000Y-199960000D02*
X135800000Y-211620000D01*
G04 #@! TO.N,Net-(J1-Pad27)*
X116600000Y-215640000D02*
X104400000Y-227840000D01*
X116600000Y-201685998D02*
X116600000Y-215640000D01*
X124400000Y-193640000D02*
X124400000Y-193885998D01*
X124400000Y-193885998D02*
X116600000Y-201685998D01*
G04 #@! TO.N,Net-(J1-PadAE)*
X134400000Y-215300000D02*
X146940000Y-227840000D01*
X126940000Y-193640000D02*
X134400000Y-201100000D01*
X134400000Y-201100000D02*
X134400000Y-215300000D01*
G04 #@! TO.N,Net-(J1-Pad28)*
X118000000Y-219320000D02*
X104400000Y-232920000D01*
X124400000Y-196180000D02*
X118000000Y-202580000D01*
X118000000Y-202580000D02*
X118000000Y-219320000D01*
G04 #@! TO.N,Net-(J1-PadAF)*
X133000000Y-218980000D02*
X146940000Y-232920000D01*
X126940000Y-196180000D02*
X133000000Y-202240000D01*
X133000000Y-202240000D02*
X133000000Y-218980000D01*
G04 #@! TO.N,Net-(J1-Pad29)*
X119400000Y-223000000D02*
X104400000Y-238000000D01*
X124400000Y-198720000D02*
X119400000Y-203720000D01*
X119400000Y-203720000D02*
X119400000Y-223000000D01*
G04 #@! TO.N,Net-(J1-PadAH)*
X131600000Y-222660000D02*
X146940000Y-238000000D01*
X126940000Y-198720000D02*
X131600000Y-203380000D01*
X131600000Y-203380000D02*
X131600000Y-222660000D01*
G04 #@! TO.N,Net-(J1-Pad30)*
X120800000Y-226680000D02*
X104400000Y-243080000D01*
X124400000Y-201260000D02*
X120800000Y-204860000D01*
X120800000Y-204860000D02*
X120800000Y-226680000D01*
G04 #@! TO.N,Net-(J1-PadAJ)*
X130200000Y-226340000D02*
X146940000Y-243080000D01*
X126940000Y-201260000D02*
X130200000Y-204520000D01*
X130200000Y-204520000D02*
X130200000Y-226340000D01*
G04 #@! TO.N,Net-(R1-Pad2)*
X223789999Y-179919999D02*
X224990000Y-181120000D01*
X223789999Y-175990001D02*
X223789999Y-179919999D01*
X224980000Y-174800000D02*
X223789999Y-175990001D01*
G04 #@! TO.N,Net-(R2-Pad2)*
X238789999Y-179919999D02*
X239990000Y-181120000D01*
X238789999Y-176979950D02*
X238789999Y-179919999D01*
X239980000Y-175789949D02*
X238789999Y-176979950D01*
X239980000Y-174800000D02*
X239980000Y-175789949D01*
G04 #@! TO.N,Net-(R3-Pad2)*
X254280001Y-175499999D02*
X254980000Y-174800000D01*
X253789999Y-175990001D02*
X254280001Y-175499999D01*
X253789999Y-179919999D02*
X253789999Y-175990001D01*
X254990000Y-181120000D02*
X253789999Y-179919999D01*
G04 #@! TO.N,Net-(R4-Pad2)*
X268789999Y-179919999D02*
X269990000Y-181120000D01*
X268789999Y-175990001D02*
X268789999Y-179919999D01*
X269980000Y-174800000D02*
X268789999Y-175990001D01*
G04 #@! TO.N,Net-(R5-Pad2)*
X283789999Y-179919999D02*
X284990000Y-181120000D01*
X283789999Y-176979950D02*
X283789999Y-179919999D01*
X284980000Y-175789949D02*
X283789999Y-176979950D01*
X284980000Y-174800000D02*
X284980000Y-175789949D01*
G04 #@! TO.N,Net-(R6-Pad2)*
X223789999Y-212519999D02*
X224990000Y-213720000D01*
X223789999Y-209779950D02*
X223789999Y-212519999D01*
X224980000Y-208589949D02*
X223789999Y-209779950D01*
X224980000Y-207600000D02*
X224980000Y-208589949D01*
G04 #@! TO.N,Net-(R7-Pad2)*
X238789999Y-212519999D02*
X239990000Y-213720000D01*
X238789999Y-208790001D02*
X238789999Y-212519999D01*
X239980000Y-207600000D02*
X238789999Y-208790001D01*
G04 #@! TO.N,Net-(R8-Pad2)*
X253789999Y-212519999D02*
X254990000Y-213720000D01*
X253789999Y-208790001D02*
X253789999Y-212519999D01*
X254980000Y-207600000D02*
X253789999Y-208790001D01*
G04 #@! TO.N,Net-(R9-Pad2)*
X268789999Y-212519999D02*
X269990000Y-213720000D01*
X268789999Y-208790001D02*
X268789999Y-212519999D01*
X269980000Y-207600000D02*
X268789999Y-208790001D01*
G04 #@! TO.N,Net-(R10-Pad2)*
X283789999Y-212519999D02*
X284990000Y-213720000D01*
X283789999Y-208790001D02*
X283789999Y-212519999D01*
X284980000Y-207600000D02*
X283789999Y-208790001D01*
G04 #@! TO.N,Net-(D1-Pad1)*
X331200000Y-155200000D02*
X331200000Y-155400000D01*
X310360000Y-127200000D02*
X310360000Y-134360000D01*
X310360000Y-134360000D02*
X331200000Y-155200000D01*
G04 #@! TO.N,Net-(D2-Pad1)*
X312900000Y-132020000D02*
X331200000Y-150320000D01*
X312900000Y-127200000D02*
X312900000Y-132020000D01*
G04 #@! TO.N,Net-(D3-Pad1)*
X315440000Y-129480000D02*
X331200000Y-145240000D01*
X315440000Y-127200000D02*
X315440000Y-129480000D01*
G04 #@! TO.N,Net-(D4-Pad1)*
X330940000Y-140160000D02*
X331200000Y-140160000D01*
X317980000Y-127200000D02*
X330940000Y-140160000D01*
G04 #@! TO.N,Net-(D5-Pad1)*
X331080000Y-135080000D02*
X331200000Y-135080000D01*
X327600000Y-131600000D02*
X331080000Y-135080000D01*
X325165998Y-131600000D02*
X327600000Y-131600000D01*
X321509999Y-127944001D02*
X325165998Y-131600000D01*
X320520000Y-127200000D02*
X321509999Y-127200000D01*
X321509999Y-127200000D02*
X321509999Y-127944001D01*
G04 #@! TO.N,Net-(D6-Pad1)*
X328200000Y-127200000D02*
X331200000Y-130200000D01*
X323060000Y-127200000D02*
X328200000Y-127200000D01*
G04 #@! TO.N,Net-(D7-Pad1)*
X331400000Y-122000000D02*
X331400000Y-121660000D01*
X323060000Y-124660000D02*
X328740000Y-124660000D01*
X328740000Y-124660000D02*
X331400000Y-122000000D01*
G04 #@! TO.N,Net-(D8-Pad1)*
X328520000Y-119800000D02*
X331400000Y-116920000D01*
X320520000Y-124660000D02*
X325380000Y-119800000D01*
X325380000Y-119800000D02*
X328520000Y-119800000D01*
G04 #@! TO.N,Net-(D9-Pad1)*
X330800000Y-111840000D02*
X331400000Y-111840000D01*
X317980000Y-124660000D02*
X330800000Y-111840000D01*
G04 #@! TO.N,Net-(D10-Pad1)*
X315440000Y-122720000D02*
X331400000Y-106760000D01*
X315440000Y-124660000D02*
X315440000Y-122720000D01*
G04 #@! TO.N,Net-(D11-Pad1)*
X312900000Y-120180000D02*
X331400000Y-101680000D01*
X312900000Y-124660000D02*
X312900000Y-120180000D01*
G04 #@! TO.N,Net-(D12-Pad1)*
X310360000Y-117640000D02*
X331400000Y-96600000D01*
X310360000Y-124660000D02*
X310360000Y-117640000D01*
G04 #@! TO.N,Net-(J10-Pad5)*
X224990000Y-186200000D02*
X232610000Y-186200000D01*
X329880000Y-205200000D02*
X331200000Y-206520000D01*
X248200000Y-205200000D02*
X329880000Y-205200000D01*
X232610000Y-186200000D02*
X232610000Y-189610000D01*
X232610000Y-189610000D02*
X248200000Y-205200000D01*
G04 #@! TO.N,Net-(J10-Pad4)*
X239990000Y-186200000D02*
X247610000Y-186200000D01*
X259440000Y-201440000D02*
X331200000Y-201440000D01*
X247610000Y-186200000D02*
X247610000Y-189610000D01*
X247610000Y-189610000D02*
X259440000Y-201440000D01*
G04 #@! TO.N,Net-(J10-Pad3)*
X254990000Y-186200000D02*
X262610000Y-186200000D01*
X269560000Y-196360000D02*
X331200000Y-196360000D01*
X262610000Y-186200000D02*
X262610000Y-189410000D01*
X262610000Y-189410000D02*
X269560000Y-196360000D01*
G04 #@! TO.N,Net-(J10-Pad2)*
X269990000Y-186200000D02*
X277610000Y-186200000D01*
X282690000Y-191280000D02*
X331200000Y-191280000D01*
X277610000Y-186200000D02*
X282690000Y-191280000D01*
G04 #@! TO.N,Net-(J10-Pad1)*
X284990000Y-186200000D02*
X292610000Y-186200000D01*
X292610000Y-186200000D02*
X331200000Y-186200000D01*
G04 #@! TO.N,Net-(J11-Pad1)*
X284990000Y-218800000D02*
X292610000Y-218800000D01*
X292610000Y-218800000D02*
X331400000Y-218800000D01*
G04 #@! TO.N,Net-(J11-Pad2)*
X269990000Y-218800000D02*
X277610000Y-218800000D01*
X282690000Y-223880000D02*
X331400000Y-223880000D01*
X277610000Y-218800000D02*
X282690000Y-223880000D01*
G04 #@! TO.N,Net-(J11-Pad3)*
X254990000Y-218800000D02*
X262610000Y-218800000D01*
X269360000Y-228960000D02*
X331400000Y-228960000D01*
X262610000Y-218800000D02*
X262610000Y-222210000D01*
X262610000Y-222210000D02*
X269360000Y-228960000D01*
G04 #@! TO.N,Net-(J11-Pad4)*
X239990000Y-218800000D02*
X247610000Y-218800000D01*
X259440000Y-234040000D02*
X331400000Y-234040000D01*
X247610000Y-218800000D02*
X247610000Y-222210000D01*
X247610000Y-222210000D02*
X259440000Y-234040000D01*
G04 #@! TO.N,Net-(J11-Pad5)*
X224990000Y-218800000D02*
X232610000Y-218800000D01*
X330280000Y-238000000D02*
X331400000Y-239120000D01*
X248600000Y-238000000D02*
X330280000Y-238000000D01*
X232610000Y-218800000D02*
X232610000Y-222010000D01*
X232610000Y-222010000D02*
X248600000Y-238000000D01*
G04 #@! TO.N,Net-(J12-Pad5)*
X241635000Y-67800000D02*
X241000000Y-67800000D01*
X245200000Y-64235000D02*
X241635000Y-67800000D01*
X252680000Y-46200000D02*
X245200000Y-53680000D01*
X245200000Y-53680000D02*
X245200000Y-64235000D01*
G04 #@! TO.N,Net-(J12-Pad4)*
X249635000Y-67800000D02*
X249000000Y-67800000D01*
X253000000Y-64435000D02*
X249635000Y-67800000D01*
X257760000Y-46200000D02*
X253000000Y-50960000D01*
X253000000Y-50960000D02*
X253000000Y-64435000D01*
G04 #@! TO.N,Net-(J12-Pad3)*
X257635000Y-67800000D02*
X257000000Y-67800000D01*
X261000000Y-64435000D02*
X257635000Y-67800000D01*
X262840000Y-46200000D02*
X261000000Y-48040000D01*
X261000000Y-48040000D02*
X261000000Y-64435000D01*
G04 #@! TO.N,Net-(J12-Pad2)*
X265635000Y-67800000D02*
X265000000Y-67800000D01*
X269000000Y-64435000D02*
X265635000Y-67800000D01*
X267920000Y-46200000D02*
X269000000Y-47280000D01*
X269000000Y-47280000D02*
X269000000Y-64435000D01*
G04 #@! TO.N,Net-(J12-Pad1)*
X273635000Y-67800000D02*
X273000000Y-67800000D01*
X277000000Y-64435000D02*
X273635000Y-67800000D01*
X277000000Y-52500000D02*
X277000000Y-64435000D01*
X273000000Y-46200000D02*
X273000000Y-48500000D01*
X273000000Y-48500000D02*
X277000000Y-52500000D01*
G04 #@! TO.N,Net-(J13-Pad5)*
X281635000Y-67800000D02*
X281000000Y-67800000D01*
X285000000Y-64435000D02*
X281635000Y-67800000D01*
X292680000Y-46200000D02*
X285000000Y-53880000D01*
X285000000Y-53880000D02*
X285000000Y-64435000D01*
G04 #@! TO.N,Net-(J13-Pad4)*
X289635000Y-67800000D02*
X289000000Y-67800000D01*
X293000000Y-64435000D02*
X289635000Y-67800000D01*
X297760000Y-46200000D02*
X293000000Y-50960000D01*
X293000000Y-50960000D02*
X293000000Y-64435000D01*
G04 #@! TO.N,Net-(J13-Pad3)*
X296635000Y-67800000D02*
X296000000Y-67800000D01*
X297635000Y-67800000D02*
X297000000Y-67800000D01*
X301000000Y-64435000D02*
X297635000Y-67800000D01*
X302840000Y-46200000D02*
X301000000Y-48040000D01*
X301000000Y-48040000D02*
X301000000Y-64435000D01*
G04 #@! TO.N,Net-(J13-Pad2)*
X304365000Y-67800000D02*
X305000000Y-67800000D01*
X305635000Y-67800000D02*
X305000000Y-67800000D01*
X309000000Y-64435000D02*
X305635000Y-67800000D01*
X307920000Y-46200000D02*
X309000000Y-47280000D01*
X309000000Y-47280000D02*
X309000000Y-64435000D01*
G04 #@! TO.N,Net-(J13-Pad1)*
X313635000Y-67800000D02*
X313000000Y-67800000D01*
X316800000Y-64635000D02*
X313635000Y-67800000D01*
X316800000Y-52300000D02*
X316800000Y-64635000D01*
X313000000Y-46200000D02*
X313000000Y-48500000D01*
X313000000Y-48500000D02*
X316800000Y-52300000D01*
G04 #@! TO.N,Net-(J14-Pad1)*
X193635000Y-67800000D02*
X193000000Y-67800000D01*
X197000000Y-64435000D02*
X193635000Y-67800000D01*
X197000000Y-52500000D02*
X197000000Y-64435000D01*
X193000000Y-46200000D02*
X193000000Y-48500000D01*
X193000000Y-48500000D02*
X197000000Y-52500000D01*
G04 #@! TO.N,Net-(J14-Pad2)*
X185635000Y-67800000D02*
X185000000Y-67800000D01*
X189000000Y-64435000D02*
X185635000Y-67800000D01*
X187920000Y-46200000D02*
X189000000Y-47280000D01*
X189000000Y-47280000D02*
X189000000Y-64435000D01*
G04 #@! TO.N,Net-(J14-Pad3)*
X177635000Y-67800000D02*
X177000000Y-67800000D01*
X180635000Y-64800000D02*
X177635000Y-67800000D01*
X181000000Y-64800000D02*
X180635000Y-64800000D01*
X182840000Y-46200000D02*
X181000000Y-48040000D01*
X181000000Y-48040000D02*
X181000000Y-64800000D01*
G04 #@! TO.N,Net-(J14-Pad4)*
X169635000Y-67800000D02*
X169000000Y-67800000D01*
X173000000Y-64435000D02*
X169635000Y-67800000D01*
X177760000Y-46200000D02*
X173000000Y-50960000D01*
X173000000Y-50960000D02*
X173000000Y-64435000D01*
G04 #@! TO.N,Net-(J14-Pad5)*
X161635000Y-67800000D02*
X161000000Y-67800000D01*
X165000000Y-64435000D02*
X161635000Y-67800000D01*
X172680000Y-46200000D02*
X165000000Y-53880000D01*
X165000000Y-53880000D02*
X165000000Y-64435000D01*
G04 #@! TO.N,Net-(J15-Pad1)*
X233635000Y-67800000D02*
X233000000Y-67800000D01*
X237000000Y-64435000D02*
X233635000Y-67800000D01*
X237000000Y-52500000D02*
X237000000Y-64435000D01*
X233000000Y-46200000D02*
X233000000Y-48500000D01*
X233000000Y-48500000D02*
X237000000Y-52500000D01*
G04 #@! TO.N,Net-(J15-Pad2)*
X225635000Y-67800000D02*
X225000000Y-67800000D01*
X229000000Y-64435000D02*
X225635000Y-67800000D01*
X227920000Y-46200000D02*
X229000000Y-47280000D01*
X229000000Y-47280000D02*
X229000000Y-64435000D01*
G04 #@! TO.N,Net-(J15-Pad3)*
X217635000Y-67800000D02*
X217000000Y-67800000D01*
X221000000Y-64435000D02*
X217635000Y-67800000D01*
X222840000Y-46200000D02*
X221000000Y-48040000D01*
X221000000Y-48040000D02*
X221000000Y-64435000D01*
G04 #@! TO.N,Net-(J15-Pad4)*
X209635000Y-67800000D02*
X209000000Y-67800000D01*
X213000000Y-64435000D02*
X209635000Y-67800000D01*
X217760000Y-46200000D02*
X213000000Y-50960000D01*
X213000000Y-50960000D02*
X213000000Y-64435000D01*
G04 #@! TO.N,Net-(J15-Pad5)*
X201635000Y-67800000D02*
X201000000Y-67800000D01*
X205000000Y-64435000D02*
X201635000Y-67800000D01*
X212680000Y-46200000D02*
X205000000Y-53880000D01*
X205000000Y-53880000D02*
X205000000Y-64435000D01*
G04 #@! TO.N,Net-(J18-Pad1)*
X328900000Y-178400000D02*
X331200000Y-178400000D01*
X303200000Y-152700000D02*
X328900000Y-178400000D01*
X303200000Y-132050000D02*
X303200000Y-152700000D01*
X300200000Y-127200000D02*
X300200000Y-129050000D01*
X300200000Y-129050000D02*
X303200000Y-132050000D01*
G04 #@! TO.N,Net-(J18-Pad2)*
X303200000Y-101800000D02*
X331400000Y-73600000D01*
X300200000Y-124660000D02*
X303200000Y-121660000D01*
X303200000Y-121660000D02*
X303200000Y-101800000D01*
G04 #@! TO.N,Net-(J18-Pad3)*
X305000000Y-147200000D02*
X331200000Y-173400000D01*
X302740000Y-127200000D02*
X305000000Y-129460000D01*
X305000000Y-129460000D02*
X305000000Y-147200000D01*
G04 #@! TO.N,Net-(J18-Pad4)*
X305000000Y-105000000D02*
X331400000Y-78600000D01*
X302740000Y-124660000D02*
X305000000Y-122400000D01*
X305000000Y-122400000D02*
X305000000Y-105000000D01*
G04 #@! TO.N,Net-(J18-Pad5)*
X306600000Y-143800000D02*
X331200000Y-168400000D01*
X306600000Y-128520000D02*
X306600000Y-143800000D01*
X305280000Y-127200000D02*
X306600000Y-128520000D01*
G04 #@! TO.N,Net-(J18-Pad6)*
X306600000Y-108400000D02*
X331400000Y-83600000D01*
X305280000Y-124660000D02*
X306600000Y-123340000D01*
X306600000Y-123340000D02*
X306600000Y-108400000D01*
G04 #@! TO.N,Net-(J18-Pad7)*
X330600000Y-163400000D02*
X331200000Y-163400000D01*
X308400000Y-141200000D02*
X330600000Y-163400000D01*
X307820000Y-127200000D02*
X308400000Y-127780000D01*
X308400000Y-127780000D02*
X308400000Y-141200000D01*
G04 #@! TO.N,Net-(J18-Pad8)*
X308400000Y-111600000D02*
X331400000Y-88600000D01*
X307820000Y-124660000D02*
X308400000Y-124080000D01*
X308400000Y-124080000D02*
X308400000Y-111600000D01*
G04 #@! TO.N,Net-(J21-Pad1)*
X173930000Y-131210762D02*
X173930000Y-132130000D01*
X173930000Y-130770000D02*
X173930000Y-131210762D01*
X188500000Y-116200000D02*
X173930000Y-130770000D01*
X190800000Y-116200000D02*
X188500000Y-116200000D01*
G04 #@! TO.N,Net-(J21-Pad2)*
X195880000Y-120180000D02*
X183930000Y-132130000D01*
X195880000Y-116200000D02*
X195880000Y-120180000D01*
G04 #@! TO.N,Net-(J21-Pad3)*
X200960000Y-125100000D02*
X193930000Y-132130000D01*
X200960000Y-116200000D02*
X200960000Y-125100000D01*
G04 #@! TO.N,Net-(J21-Pad4)*
X206040000Y-116200000D02*
X206040000Y-130020000D01*
X206040000Y-130020000D02*
X203930000Y-132130000D01*
G04 #@! TO.N,Net-(J21-Pad5)*
X211120000Y-129320000D02*
X213930000Y-132130000D01*
X211120000Y-116200000D02*
X211120000Y-129320000D01*
G04 #@! TO.N,Net-(J21-Pad6)*
X223280001Y-131480001D02*
X223930000Y-132130000D01*
X216200000Y-124400000D02*
X223280001Y-131480001D01*
X216200000Y-116200000D02*
X216200000Y-124400000D01*
G04 #@! TO.N,Net-(J21-Pad7)*
X221280000Y-119480000D02*
X233930000Y-132130000D01*
X221280000Y-116200000D02*
X221280000Y-119480000D01*
G04 #@! TO.N,Net-(J21-Pad8)*
X243280001Y-131480001D02*
X243930000Y-132130000D01*
X229299999Y-117499999D02*
X243280001Y-131480001D01*
X227659999Y-117499999D02*
X229299999Y-117499999D01*
X226360000Y-116200000D02*
X227659999Y-117499999D01*
G04 #@! TO.N,+70v*
X185200000Y-238360000D02*
X185160000Y-238400000D01*
X185200000Y-160200000D02*
X185200000Y-238360000D01*
G04 #@! TO.N,0v*
X191010000Y-133400000D02*
X192660000Y-133400000D01*
X189659999Y-134750001D02*
X191010000Y-133400000D01*
X184010001Y-134750001D02*
X189659999Y-134750001D01*
X182660000Y-133400000D02*
X184010001Y-134750001D01*
X181010000Y-133400000D02*
X182660000Y-133400000D01*
X179659999Y-134750001D02*
X181010000Y-133400000D01*
X172660000Y-133400000D02*
X174010001Y-134750001D01*
X201010000Y-133400000D02*
X202660000Y-133400000D01*
X199659999Y-134750001D02*
X201010000Y-133400000D01*
X194010001Y-134750001D02*
X199659999Y-134750001D01*
X192660000Y-133400000D02*
X194010001Y-134750001D01*
X211010000Y-133400000D02*
X212660000Y-133400000D01*
X209659999Y-134750001D02*
X211010000Y-133400000D01*
X204010001Y-134750001D02*
X209659999Y-134750001D01*
X202660000Y-133400000D02*
X204010001Y-134750001D01*
X221010000Y-133400000D02*
X222660000Y-133400000D01*
X219659999Y-134750001D02*
X221010000Y-133400000D01*
X214010001Y-134750001D02*
X219659999Y-134750001D01*
X212660000Y-133400000D02*
X214010001Y-134750001D01*
X231010000Y-133400000D02*
X232660000Y-133400000D01*
X229659999Y-134750001D02*
X231010000Y-133400000D01*
X224010001Y-134750001D02*
X229659999Y-134750001D01*
X222660000Y-133400000D02*
X224010001Y-134750001D01*
X241010000Y-133400000D02*
X242660000Y-133400000D01*
X239659999Y-134750001D02*
X241010000Y-133400000D01*
X234010001Y-134750001D02*
X239659999Y-134750001D01*
X232660000Y-133400000D02*
X234010001Y-134750001D01*
X180080000Y-136630001D02*
X178200000Y-134750001D01*
X180080000Y-238400000D02*
X180080000Y-136630001D01*
X174010001Y-134750001D02*
X178200000Y-134750001D01*
X178200000Y-134750001D02*
X179659999Y-134750001D01*
G04 #@! TO.N,-40v*
X174500001Y-149099999D02*
X175200000Y-148400000D01*
X167800000Y-155800000D02*
X174500001Y-149099999D01*
X167800000Y-228900000D02*
X167800000Y-155800000D01*
X175000000Y-238400000D02*
X175000000Y-236100000D01*
X175000000Y-236100000D02*
X167800000Y-228900000D01*
G04 #@! TO.N,Net-(NE1-Pad2)*
X175899999Y-151880001D02*
X175200000Y-152580000D01*
X176600001Y-151179999D02*
X175899999Y-151880001D01*
X176600001Y-147260001D02*
X176600001Y-151179999D01*
X175200000Y-145860000D02*
X176600001Y-147260001D01*
G04 #@! TO.N,Net-(NE2-Pad2)*
X185899999Y-151880001D02*
X185200000Y-152580000D01*
X186600001Y-151179999D02*
X185899999Y-151880001D01*
X186600001Y-147260001D02*
X186600001Y-151179999D01*
X185200000Y-145860000D02*
X186600001Y-147260001D01*
G04 #@! TO.N,Net-(NE3-Pad2)*
X195899999Y-151880001D02*
X195200000Y-152580000D01*
X196600001Y-151179999D02*
X195899999Y-151880001D01*
X196600001Y-147260001D02*
X196600001Y-151179999D01*
X195200000Y-145860000D02*
X196600001Y-147260001D01*
G04 #@! TO.N,Net-(NE4-Pad2)*
X205899999Y-151880001D02*
X205200000Y-152580000D01*
X206600001Y-151179999D02*
X205899999Y-151880001D01*
X206600001Y-147260001D02*
X206600001Y-151179999D01*
X205200000Y-145860000D02*
X206600001Y-147260001D01*
G04 #@! TO.N,Net-(NE5-Pad2)*
X215899999Y-151880001D02*
X215200000Y-152580000D01*
X216600001Y-151179999D02*
X215899999Y-151880001D01*
X216600001Y-147260001D02*
X216600001Y-151179999D01*
X215200000Y-145860000D02*
X216600001Y-147260001D01*
G04 #@! TO.N,Net-(NE6-Pad2)*
X225899999Y-151880001D02*
X225200000Y-152580000D01*
X226600000Y-151180000D02*
X225899999Y-151880001D01*
X226600000Y-147260000D02*
X226600000Y-151180000D01*
X225200000Y-145860000D02*
X226600000Y-147260000D01*
G04 #@! TO.N,Net-(NE7-Pad2)*
X235899999Y-151880001D02*
X235200000Y-152580000D01*
X236600001Y-151179999D02*
X235899999Y-151880001D01*
X236600001Y-147260001D02*
X236600001Y-151179999D01*
X235200000Y-145860000D02*
X236600001Y-147260001D01*
G04 #@! TO.N,Net-(NE8-Pad2)*
X245899999Y-151880001D02*
X245200000Y-152580000D01*
X246600001Y-151179999D02*
X245899999Y-151880001D01*
X246600001Y-147260001D02*
X246600001Y-151179999D01*
X245200000Y-145860000D02*
X246600001Y-147260001D01*
G04 #@! TD*
M02*
