M48
;DRILL file {KiCad 4.0.7} date 06/17/18 16:08:47
;FORMAT={-:-/ absolute / inch / decimal}
FMAT,2
INCH,TZ
T1C0.031
T2C0.039
T3C0.043
T4C0.047
T5C0.126
T6C0.138
%
G90
G05
M72
T1
X8.1693Y-2.8925
X8.1693Y-3.0894
X8.1693Y-3.3894
X8.1693Y-3.5862
X8.2915Y-3.2874
X8.3169Y-2.9921
X8.4884Y-3.2874
X8.5138Y-2.9921
X8.6415Y-2.8894
X8.6415Y-2.9894
X8.6415Y-3.0894
X8.6415Y-3.1894
X8.6415Y-3.2894
X8.6415Y-3.3894
X8.6415Y-3.4894
X8.6415Y-3.5894
X8.9415Y-2.8894
X8.9415Y-2.9894
X8.9415Y-3.0894
X8.9415Y-3.1894
X8.9415Y-3.2894
X8.9415Y-3.3894
X8.9415Y-3.4894
X8.9415Y-3.5894
X9.1634Y-2.8937
X9.3602Y-2.8937
T2
X9.9638Y-2.5222
X9.9638Y-2.6313
X9.9638Y-2.7404
X9.9638Y-2.8494
X9.9638Y-2.9585
X9.9638Y-3.0675
X9.9638Y-3.1766
X9.9638Y-3.2856
X9.9638Y-3.3947
X9.9638Y-3.5037
X9.9638Y-3.6128
X9.9638Y-3.7219
X10.0756Y-2.4677
X10.0756Y-2.5768
X10.0756Y-2.6858
X10.0756Y-2.7949
X10.0756Y-2.9039
X10.0756Y-3.013
X10.0756Y-3.122
X10.0756Y-3.2311
X10.0756Y-3.3402
X10.0756Y-3.4492
X10.0756Y-3.5583
X10.0756Y-3.6673
X10.0756Y-3.7764
T3
X2.5669Y-1.3425
X2.5669Y-1.4961
X2.6535Y-1.3425
X2.6535Y-1.4961
X2.7402Y-1.3425
X2.7402Y-1.4961
X2.8268Y-1.3425
X2.8268Y-1.4961
X2.9134Y-1.3425
X2.9134Y-1.4961
X3.Y-1.3425
X3.Y-1.4961
X3.0866Y-1.3425
X3.0866Y-1.4961
X3.1732Y-1.3425
X3.1732Y-1.4961
X3.2598Y-1.3425
X3.2598Y-1.4961
X3.3465Y-1.3425
X3.3465Y-1.4961
T4
X8.1299Y-2.5197
X8.9299Y-2.5197
T5
X10.0197Y-2.1949
X10.0197Y-4.0492
T6
X1.1024Y-1.4173
X1.5748Y-4.8819
X4.4488Y-1.4173
X5.5512Y-4.8819
X10.5118Y-3.1496
T0
M30
