M48
; DRILL file {KiCad (5.1.6)-1} date 10/25/20 20:05:10
; FORMAT={-:-/ absolute / inch / decimal}
; #@! TF.CreationDate,2020-10-25T20:05:10+00:00
; #@! TF.GenerationSoftware,Kicad,Pcbnew,(5.1.6)-1
; #@! TF.FileFunction,Plated,1,2,PTH
FMAT,2
INCH
T1C0.0157
T2C0.0394
T3C0.0472
T4C0.0669
T5C0.0709
T6C0.1181
T7C0.2165
%
G90
G05
T1
X6.21Y-3.77
T2
X6.67Y-3.8181
X6.67Y-4.015
X8.575Y-4.415
X8.575Y-4.6119
T3
X6.28Y-4.045
X6.28Y-4.645
X8.11Y-4.145
X8.11Y-4.745
X7.04Y-4.24
X7.04Y-4.5353
T4
X4.49Y-3.43
X4.49Y-3.5859
X5.6591Y-4.475
X5.815Y-4.475
X8.61Y-2.255
X8.61Y-2.4109
X4.49Y-3.8591
X4.49Y-4.015
X8.595Y-2.825
X8.595Y-2.9809
X4.5214Y-4.475
X4.6773Y-4.475
X4.8332Y-4.475
X4.9891Y-4.475
X5.145Y-4.475
X4.475Y-2.1891
X4.475Y-2.345
X7.5291Y-4.475
X7.685Y-4.475
T7
X7.6772Y-3.2677
X5.315Y-3.2677
T5
G00X7.3093Y-3.4883
M15
G01X7.2611Y-3.3719
M16
G05
G00X7.2835Y-3.1728
M15
G01X7.3317Y-3.0564
M16
G05
G00X7.4566Y-2.8999
M15
G01X7.573Y-2.8516
M16
G05
G00X7.4659Y-3.6132
M15
G01X7.5823Y-3.6614
M16
G05
G00X7.8884Y-2.9223
M15
G01X7.772Y-2.8741
M16
G05
G00X7.7813Y-3.6838
M15
G01X7.8977Y-3.6356
M16
G05
G00X8.0226Y-3.479
M15
G01X8.0708Y-3.3626
M16
G05
G00X8.045Y-3.0472
M15
G01X8.0932Y-3.1636
M16
G05
G00X4.9471Y-3.4883
M15
G01X4.8989Y-3.3719
M16
G05
G00X4.9213Y-3.1728
M15
G01X4.9695Y-3.0564
M16
G05
G00X5.0944Y-2.8999
M15
G01X5.2108Y-2.8516
M16
G05
G00X5.1037Y-3.6132
M15
G01X5.2201Y-3.6614
M16
G05
G00X5.5262Y-2.9223
M15
G01X5.4098Y-2.8741
M16
G05
G00X5.4191Y-3.6838
M15
G01X5.5355Y-3.6356
M16
G05
G00X5.6604Y-3.479
M15
G01X5.7086Y-3.3626
M16
G05
G00X5.6828Y-3.0472
M15
G01X5.731Y-3.1636
M16
G05
T6
G00X7.0925Y-2.6831
M15
G01X7.1482Y-2.7388
M16
G05
G00X8.2061Y-3.7967
M15
G01X8.2618Y-3.8523
M16
G05
G00X4.7303Y-2.6831
M15
G01X4.786Y-2.7388
M16
G05
G00X5.8439Y-3.7967
M15
G01X5.8996Y-3.8523
M16
G05
T0
M30
