%TF.GenerationSoftware,KiCad,Pcbnew,(5.1.6)-1*%
%TF.CreationDate,2020-10-25T20:05:07+00:00*%
%TF.ProjectId,QuadNew1 - Copy (2),51756164-4e65-4773-9120-2d20436f7079,rev?*%
%TF.SameCoordinates,Original*%
%TF.FileFunction,Copper,L2,Bot*%
%TF.FilePolarity,Positive*%
%FSLAX46Y46*%
G04 Gerber Fmt 4.6, Leading zero omitted, Abs format (unit mm)*
G04 Created by KiCad (PCBNEW (5.1.6)-1) date 2020-10-25 20:05:07*
%MOMM*%
%LPD*%
G01*
G04 APERTURE LIST*
%TA.AperFunction,ComponentPad*%
%ADD10C,2.400000*%
%TD*%
%TA.AperFunction,ComponentPad*%
%ADD11O,2.400000X2.400000*%
%TD*%
%TA.AperFunction,ComponentPad*%
%ADD12C,2.000000*%
%TD*%
%TA.AperFunction,ComponentPad*%
%ADD13R,2.000000X2.000000*%
%TD*%
%TA.AperFunction,ComponentPad*%
%ADD14C,6.000000*%
%TD*%
%TA.AperFunction,ComponentPad*%
%ADD15C,7.000000*%
%TD*%
%TA.AperFunction,ComponentPad*%
%ADD16O,4.100000X3.160000*%
%TD*%
%TA.AperFunction,ComponentPad*%
%ADD17R,2.400000X2.400000*%
%TD*%
%TA.AperFunction,ComponentPad*%
%ADD18O,3.160000X4.100000*%
%TD*%
%TA.AperFunction,ViaPad*%
%ADD19C,0.800000*%
%TD*%
%TA.AperFunction,Conductor*%
%ADD20C,1.000000*%
%TD*%
%TA.AperFunction,Conductor*%
%ADD21C,2.000000*%
%TD*%
G04 APERTURE END LIST*
D10*
%TO.P,R41,1*%
%TO.N,/PowerSupply/K4*%
X205994000Y-105283000D03*
D11*
%TO.P,R41,2*%
%TO.N,/OPT/W*%
X205994000Y-120523000D03*
%TD*%
D12*
%TO.P,C41,2*%
%TO.N,/OPT/W*%
X217805000Y-117141000D03*
D13*
%TO.P,C41,1*%
%TO.N,/PowerSupply/K4*%
X217805000Y-112141000D03*
%TD*%
%TO.P,C31,1*%
%TO.N,/PowerSupply/K3*%
X169418000Y-101981000D03*
D12*
%TO.P,C31,2*%
%TO.N,/OPT/U*%
X169418000Y-96981000D03*
%TD*%
%TO.P,V3,1*%
%TO.N,N/C*%
%TA.AperFunction,ComponentPad*%
G36*
G01*
X187642507Y-74383382D02*
X187642507Y-74383382D01*
G75*
G02*
X188670779Y-71900912I1755371J727099D01*
G01*
X191627193Y-70676326D01*
G75*
G02*
X194109663Y-71704598I727099J-1755371D01*
G01*
X194109663Y-71704598D01*
G75*
G02*
X193081391Y-74187068I-1755371J-727099D01*
G01*
X190124977Y-75411654D01*
G75*
G02*
X187642507Y-74383382I-727099J1755371D01*
G01*
G37*
%TD.AperFunction*%
%TO.P,V3,2*%
%TO.N,/+6.3v*%
%TA.AperFunction,ComponentPad*%
G36*
G01*
X202121641Y-74952776D02*
X202121641Y-74952776D01*
G75*
G02*
X199639171Y-75981048I-1755371J727099D01*
G01*
X196682757Y-74756462D01*
G75*
G02*
X195654485Y-72273992I727099J1755371D01*
G01*
X195654485Y-72273992D01*
G75*
G02*
X198136955Y-71245720I1755371J-727099D01*
G01*
X201093369Y-72470306D01*
G75*
G02*
X202121641Y-74952776I-727099J-1755371D01*
G01*
G37*
%TD.AperFunction*%
%TO.P,V3,3*%
%TO.N,/OPT/Z*%
%TA.AperFunction,ComponentPad*%
G36*
G01*
X203616618Y-75642507D02*
X203616618Y-75642507D01*
G75*
G02*
X206099088Y-76670779I727099J-1755371D01*
G01*
X207323674Y-79627193D01*
G75*
G02*
X206295402Y-82109663I-1755371J-727099D01*
G01*
X206295402Y-82109663D01*
G75*
G02*
X203812932Y-81081391I-727099J1755371D01*
G01*
X202588346Y-78124977D01*
G75*
G02*
X203616618Y-75642507I1755371J727099D01*
G01*
G37*
%TD.AperFunction*%
%TO.P,V3,4*%
%TO.N,/+330v*%
%TA.AperFunction,ComponentPad*%
G36*
G01*
X203047224Y-90121641D02*
X203047224Y-90121641D01*
G75*
G02*
X202018952Y-87639171I727099J1755371D01*
G01*
X203243538Y-84682757D01*
G75*
G02*
X205726008Y-83654485I1755371J-727099D01*
G01*
X205726008Y-83654485D01*
G75*
G02*
X206754280Y-86136955I-727099J-1755371D01*
G01*
X205529694Y-89093369D01*
G75*
G02*
X203047224Y-90121641I-1755371J727099D01*
G01*
G37*
%TD.AperFunction*%
%TO.P,V3,5*%
%TO.N,/V3*%
%TA.AperFunction,ComponentPad*%
G36*
G01*
X195890337Y-94295402D02*
X195890337Y-94295402D01*
G75*
G02*
X196918609Y-91812932I1755371J727099D01*
G01*
X199875023Y-90588346D01*
G75*
G02*
X202357493Y-91616618I727099J-1755371D01*
G01*
X202357493Y-91616618D01*
G75*
G02*
X201329221Y-94099088I-1755371J-727099D01*
G01*
X198372807Y-95323674D01*
G75*
G02*
X195890337Y-94295402I-727099J1755371D01*
G01*
G37*
%TD.AperFunction*%
%TO.P,V3,6*%
%TO.N,N/C*%
%TA.AperFunction,ComponentPad*%
G36*
G01*
X187878359Y-91047224D02*
X187878359Y-91047224D01*
G75*
G02*
X190360829Y-90018952I1755371J-727099D01*
G01*
X193317243Y-91243538D01*
G75*
G02*
X194345515Y-93726008I-727099J-1755371D01*
G01*
X194345515Y-93726008D01*
G75*
G02*
X191863045Y-94754280I-1755371J727099D01*
G01*
X188906631Y-93529694D01*
G75*
G02*
X187878359Y-91047224I727099J1755371D01*
G01*
G37*
%TD.AperFunction*%
%TO.P,V3,7*%
%TO.N,/-6.3v*%
%TA.AperFunction,ComponentPad*%
G36*
G01*
X186383382Y-90357493D02*
X186383382Y-90357493D01*
G75*
G02*
X183900912Y-89329221I-727099J1755371D01*
G01*
X182676326Y-86372807D01*
G75*
G02*
X183704598Y-83890337I1755371J727099D01*
G01*
X183704598Y-83890337D01*
G75*
G02*
X186187068Y-84918609I727099J-1755371D01*
G01*
X187411654Y-87875023D01*
G75*
G02*
X186383382Y-90357493I-1755371J-727099D01*
G01*
G37*
%TD.AperFunction*%
%TO.P,V3,8*%
%TO.N,/PowerSupply/K3*%
%TA.AperFunction,ComponentPad*%
G36*
G01*
X184273992Y-82345515D02*
X184273992Y-82345515D01*
G75*
G02*
X183245720Y-79863045I727099J1755371D01*
G01*
X184470306Y-76906631D01*
G75*
G02*
X186952776Y-75878359I1755371J-727099D01*
G01*
X186952776Y-75878359D01*
G75*
G02*
X187981048Y-78360829I-727099J-1755371D01*
G01*
X186756462Y-81317243D01*
G75*
G02*
X184273992Y-82345515I-1755371J727099D01*
G01*
G37*
%TD.AperFunction*%
D14*
%TO.P,V3,*%
%TO.N,*%
X195000000Y-83000000D03*
D15*
%TO.P,V3,9*%
%TO.N,N/C*%
X180857864Y-68857864D03*
%TO.P,V3,10*%
X209142136Y-97142136D03*
%TD*%
D10*
%TO.P,R31,1*%
%TO.N,/PowerSupply/K3*%
X159512000Y-117983000D03*
D11*
%TO.P,R31,2*%
%TO.N,/OPT/U*%
X159512000Y-102743000D03*
%TD*%
%TO.P,J7,1*%
%TO.N,/V4*%
%TA.AperFunction,ComponentPad*%
G36*
G01*
X115846000Y-92662000D02*
X112246000Y-92662000D01*
G75*
G02*
X111996000Y-92412000I0J250000D01*
G01*
X111996000Y-89752000D01*
G75*
G02*
X112246000Y-89502000I250000J0D01*
G01*
X115846000Y-89502000D01*
G75*
G02*
X116096000Y-89752000I0J-250000D01*
G01*
X116096000Y-92412000D01*
G75*
G02*
X115846000Y-92662000I-250000J0D01*
G01*
G37*
%TD.AperFunction*%
D16*
%TO.P,J7,2*%
%TO.N,/V3*%
X114046000Y-87122000D03*
%TD*%
D15*
%TO.P,V4,10*%
%TO.N,N/C*%
X149142136Y-97142136D03*
%TO.P,V4,9*%
X120857864Y-68857864D03*
D14*
%TO.P,V4,*%
%TO.N,*%
X135000000Y-83000000D03*
%TO.P,V4,8*%
%TO.N,/PowerSupply/K4*%
%TA.AperFunction,ComponentPad*%
G36*
G01*
X124273992Y-82345515D02*
X124273992Y-82345515D01*
G75*
G02*
X123245720Y-79863045I727099J1755371D01*
G01*
X124470306Y-76906631D01*
G75*
G02*
X126952776Y-75878359I1755371J-727099D01*
G01*
X126952776Y-75878359D01*
G75*
G02*
X127981048Y-78360829I-727099J-1755371D01*
G01*
X126756462Y-81317243D01*
G75*
G02*
X124273992Y-82345515I-1755371J727099D01*
G01*
G37*
%TD.AperFunction*%
%TO.P,V4,7*%
%TO.N,/-6.3v*%
%TA.AperFunction,ComponentPad*%
G36*
G01*
X126383382Y-90357493D02*
X126383382Y-90357493D01*
G75*
G02*
X123900912Y-89329221I-727099J1755371D01*
G01*
X122676326Y-86372807D01*
G75*
G02*
X123704598Y-83890337I1755371J727099D01*
G01*
X123704598Y-83890337D01*
G75*
G02*
X126187068Y-84918609I727099J-1755371D01*
G01*
X127411654Y-87875023D01*
G75*
G02*
X126383382Y-90357493I-1755371J-727099D01*
G01*
G37*
%TD.AperFunction*%
%TO.P,V4,6*%
%TO.N,N/C*%
%TA.AperFunction,ComponentPad*%
G36*
G01*
X127878359Y-91047224D02*
X127878359Y-91047224D01*
G75*
G02*
X130360829Y-90018952I1755371J-727099D01*
G01*
X133317243Y-91243538D01*
G75*
G02*
X134345515Y-93726008I-727099J-1755371D01*
G01*
X134345515Y-93726008D01*
G75*
G02*
X131863045Y-94754280I-1755371J727099D01*
G01*
X128906631Y-93529694D01*
G75*
G02*
X127878359Y-91047224I727099J1755371D01*
G01*
G37*
%TD.AperFunction*%
%TO.P,V4,5*%
%TO.N,/V4*%
%TA.AperFunction,ComponentPad*%
G36*
G01*
X135890337Y-94295402D02*
X135890337Y-94295402D01*
G75*
G02*
X136918609Y-91812932I1755371J727099D01*
G01*
X139875023Y-90588346D01*
G75*
G02*
X142357493Y-91616618I727099J-1755371D01*
G01*
X142357493Y-91616618D01*
G75*
G02*
X141329221Y-94099088I-1755371J-727099D01*
G01*
X138372807Y-95323674D01*
G75*
G02*
X135890337Y-94295402I-727099J1755371D01*
G01*
G37*
%TD.AperFunction*%
%TO.P,V4,4*%
%TO.N,/+330v*%
%TA.AperFunction,ComponentPad*%
G36*
G01*
X143047224Y-90121641D02*
X143047224Y-90121641D01*
G75*
G02*
X142018952Y-87639171I727099J1755371D01*
G01*
X143243538Y-84682757D01*
G75*
G02*
X145726008Y-83654485I1755371J-727099D01*
G01*
X145726008Y-83654485D01*
G75*
G02*
X146754280Y-86136955I-727099J-1755371D01*
G01*
X145529694Y-89093369D01*
G75*
G02*
X143047224Y-90121641I-1755371J727099D01*
G01*
G37*
%TD.AperFunction*%
%TO.P,V4,3*%
%TO.N,/OPT/X*%
%TA.AperFunction,ComponentPad*%
G36*
G01*
X143616618Y-75642507D02*
X143616618Y-75642507D01*
G75*
G02*
X146099088Y-76670779I727099J-1755371D01*
G01*
X147323674Y-79627193D01*
G75*
G02*
X146295402Y-82109663I-1755371J-727099D01*
G01*
X146295402Y-82109663D01*
G75*
G02*
X143812932Y-81081391I-727099J1755371D01*
G01*
X142588346Y-78124977D01*
G75*
G02*
X143616618Y-75642507I1755371J727099D01*
G01*
G37*
%TD.AperFunction*%
%TO.P,V4,2*%
%TO.N,/+6.3v*%
%TA.AperFunction,ComponentPad*%
G36*
G01*
X142121641Y-74952776D02*
X142121641Y-74952776D01*
G75*
G02*
X139639171Y-75981048I-1755371J727099D01*
G01*
X136682757Y-74756462D01*
G75*
G02*
X135654485Y-72273992I727099J1755371D01*
G01*
X135654485Y-72273992D01*
G75*
G02*
X138136955Y-71245720I1755371J-727099D01*
G01*
X141093369Y-72470306D01*
G75*
G02*
X142121641Y-74952776I-727099J-1755371D01*
G01*
G37*
%TD.AperFunction*%
%TO.P,V4,1*%
%TO.N,N/C*%
%TA.AperFunction,ComponentPad*%
G36*
G01*
X127642507Y-74383382D02*
X127642507Y-74383382D01*
G75*
G02*
X128670779Y-71900912I1755371J727099D01*
G01*
X131627193Y-70676326D01*
G75*
G02*
X134109663Y-71704598I727099J-1755371D01*
G01*
X134109663Y-71704598D01*
G75*
G02*
X133081391Y-74187068I-1755371J-727099D01*
G01*
X130124977Y-75411654D01*
G75*
G02*
X127642507Y-74383382I-727099J1755371D01*
G01*
G37*
%TD.AperFunction*%
%TD*%
D10*
%TO.P,C13,2*%
%TO.N,/0v*%
X178816000Y-115196000D03*
D17*
%TO.P,C13,1*%
%TO.N,/+330v*%
X178816000Y-107696000D03*
%TD*%
%TO.P,L1,1*%
%TO.N,/+340v*%
%TA.AperFunction,ComponentPad*%
G36*
G01*
X149281000Y-111865000D02*
X149281000Y-115465000D01*
G75*
G02*
X149031000Y-115715000I-250000J0D01*
G01*
X146371000Y-115715000D01*
G75*
G02*
X146121000Y-115465000I0J250000D01*
G01*
X146121000Y-111865000D01*
G75*
G02*
X146371000Y-111615000I250000J0D01*
G01*
X149031000Y-111615000D01*
G75*
G02*
X149281000Y-111865000I0J-250000D01*
G01*
G37*
%TD.AperFunction*%
D18*
%TO.P,L1,2*%
%TO.N,/+330v*%
X143741000Y-113665000D03*
%TD*%
%TO.P,J11,1*%
%TO.N,/-6.3v*%
%TA.AperFunction,ComponentPad*%
G36*
G01*
X216894000Y-55697000D02*
X220494000Y-55697000D01*
G75*
G02*
X220744000Y-55947000I0J-250000D01*
G01*
X220744000Y-58607000D01*
G75*
G02*
X220494000Y-58857000I-250000J0D01*
G01*
X216894000Y-58857000D01*
G75*
G02*
X216644000Y-58607000I0J250000D01*
G01*
X216644000Y-55947000D01*
G75*
G02*
X216894000Y-55697000I250000J0D01*
G01*
G37*
%TD.AperFunction*%
D16*
%TO.P,J11,2*%
%TO.N,/+6.3v*%
X218694000Y-61237000D03*
%TD*%
%TO.P,J12,1*%
%TO.N,/-6.3v*%
%TA.AperFunction,ComponentPad*%
G36*
G01*
X115465000Y-61143000D02*
X111865000Y-61143000D01*
G75*
G02*
X111615000Y-60893000I0J250000D01*
G01*
X111615000Y-58233000D01*
G75*
G02*
X111865000Y-57983000I250000J0D01*
G01*
X115465000Y-57983000D01*
G75*
G02*
X115715000Y-58233000I0J-250000D01*
G01*
X115715000Y-60893000D01*
G75*
G02*
X115465000Y-61143000I-250000J0D01*
G01*
G37*
%TD.AperFunction*%
%TO.P,J12,2*%
%TO.N,/+6.3v*%
X113665000Y-55603000D03*
%TD*%
%TO.P,J15,2*%
%TO.N,/PowerSupply/K4*%
X218313000Y-75715000D03*
%TO.P,J15,1*%
%TO.N,/PowerSupply/K3*%
%TA.AperFunction,ComponentPad*%
G36*
G01*
X216513000Y-70175000D02*
X220113000Y-70175000D01*
G75*
G02*
X220363000Y-70425000I0J-250000D01*
G01*
X220363000Y-73085000D01*
G75*
G02*
X220113000Y-73335000I-250000J0D01*
G01*
X216513000Y-73335000D01*
G75*
G02*
X216263000Y-73085000I0J250000D01*
G01*
X216263000Y-70425000D01*
G75*
G02*
X216513000Y-70175000I250000J0D01*
G01*
G37*
%TD.AperFunction*%
%TD*%
D18*
%TO.P,J6,2*%
%TO.N,/0v*%
X191239000Y-113665000D03*
%TO.P,J6,1*%
%TO.N,/+340v*%
%TA.AperFunction,ComponentPad*%
G36*
G01*
X196779000Y-111865000D02*
X196779000Y-115465000D01*
G75*
G02*
X196529000Y-115715000I-250000J0D01*
G01*
X193869000Y-115715000D01*
G75*
G02*
X193619000Y-115465000I0J250000D01*
G01*
X193619000Y-111865000D01*
G75*
G02*
X193869000Y-111615000I250000J0D01*
G01*
X196529000Y-111615000D01*
G75*
G02*
X196779000Y-111865000I0J-250000D01*
G01*
G37*
%TD.AperFunction*%
%TD*%
%TO.P,J5,1*%
%TO.N,/OPT/U*%
%TA.AperFunction,ComponentPad*%
G36*
G01*
X132263000Y-111865000D02*
X132263000Y-115465000D01*
G75*
G02*
X132013000Y-115715000I-250000J0D01*
G01*
X129353000Y-115715000D01*
G75*
G02*
X129103000Y-115465000I0J250000D01*
G01*
X129103000Y-111865000D01*
G75*
G02*
X129353000Y-111615000I250000J0D01*
G01*
X132013000Y-111615000D01*
G75*
G02*
X132263000Y-111865000I0J-250000D01*
G01*
G37*
%TD.AperFunction*%
%TO.P,J5,2*%
%TO.N,/OPT/W*%
X126723000Y-113665000D03*
%TO.P,J5,3*%
%TO.N,/OPT/X*%
X122763000Y-113665000D03*
%TO.P,J5,4*%
%TO.N,/+340v*%
X118803000Y-113665000D03*
%TO.P,J5,5*%
%TO.N,/OPT/Z*%
X114843000Y-113665000D03*
%TD*%
%TO.P,J16,1*%
%TO.N,/+330v*%
%TA.AperFunction,ComponentPad*%
G36*
G01*
X115846000Y-103561000D02*
X112246000Y-103561000D01*
G75*
G02*
X111996000Y-103311000I0J250000D01*
G01*
X111996000Y-100651000D01*
G75*
G02*
X112246000Y-100401000I250000J0D01*
G01*
X115846000Y-100401000D01*
G75*
G02*
X116096000Y-100651000I0J-250000D01*
G01*
X116096000Y-103311000D01*
G75*
G02*
X115846000Y-103561000I-250000J0D01*
G01*
G37*
%TD.AperFunction*%
D16*
%TO.P,J16,2*%
%TO.N,/0v*%
X114046000Y-98021000D03*
%TD*%
D19*
%TO.N,/OPT/X*%
X157734000Y-95758000D03*
%TD*%
D20*
%TO.N,/V3*%
X194797925Y-97282000D02*
X199123915Y-92956010D01*
X110995990Y-92929774D02*
X112173216Y-94107000D01*
X186690000Y-97282000D02*
X194797925Y-97282000D01*
X112173216Y-94107000D02*
X118999000Y-94107000D01*
X114046000Y-87122000D02*
X113108216Y-87122000D01*
X113108216Y-87122000D02*
X110995990Y-89234226D01*
X124587000Y-99695000D02*
X139929270Y-99695000D01*
X118999000Y-94107000D02*
X124587000Y-99695000D01*
X110995990Y-89234226D02*
X110995990Y-92929774D01*
X139929270Y-99695000D02*
X146982135Y-92642135D01*
X146982135Y-92642135D02*
X182050135Y-92642135D01*
X182050135Y-92642135D02*
X186690000Y-97282000D01*
%TO.N,/V4*%
X134543925Y-97536000D02*
X139123915Y-92956010D01*
X114046000Y-91082000D02*
X118133000Y-91082000D01*
X124587000Y-97536000D02*
X134543925Y-97536000D01*
X118133000Y-91082000D02*
X124587000Y-97536000D01*
%TO.N,/0v*%
X180347000Y-113665000D02*
X178816000Y-115196000D01*
X191239000Y-113665000D02*
X180347000Y-113665000D01*
%TO.N,/+330v*%
X148772216Y-107696000D02*
X178816000Y-107696000D01*
X143741000Y-112727216D02*
X148772216Y-107696000D01*
%TO.N,/PowerSupply/K3*%
X189738000Y-66548000D02*
X213106000Y-66548000D01*
X185613384Y-79111937D02*
X185613384Y-70672616D01*
X213106000Y-66548000D02*
X218313000Y-71755000D01*
X185613384Y-70672616D02*
X189738000Y-66548000D01*
%TO.N,/OPT/U*%
X163656000Y-102743000D02*
X169418000Y-96981000D01*
X159512000Y-102743000D02*
X163656000Y-102743000D01*
X157480000Y-104775000D02*
X159512000Y-102743000D01*
X130683000Y-113665000D02*
X139573000Y-104775000D01*
X139573000Y-104775000D02*
X157480000Y-104775000D01*
%TO.N,/OPT/W*%
X214423000Y-120523000D02*
X217805000Y-117141000D01*
X205994000Y-120523000D02*
X214423000Y-120523000D01*
X126723000Y-116715000D02*
X126723000Y-113665000D01*
X130531000Y-120523000D02*
X126723000Y-116715000D01*
X205994000Y-120523000D02*
X130531000Y-120523000D01*
%TO.N,/PowerSupply/K4*%
X212852000Y-112141000D02*
X205994000Y-105283000D01*
X217805000Y-112141000D02*
X212852000Y-112141000D01*
D21*
%TO.N,/-6.3v*%
X172339000Y-59563000D02*
X113665000Y-59563000D01*
X172339000Y-74418925D02*
X172339000Y-59563000D01*
X185043990Y-87123915D02*
X172339000Y-74418925D01*
D20*
X125043990Y-87123915D02*
X124588915Y-87123915D01*
D21*
X113665000Y-76200000D02*
X113665000Y-59563000D01*
X124588915Y-87123915D02*
X113665000Y-76200000D01*
X172339000Y-59563000D02*
X174244000Y-57658000D01*
X218313000Y-57658000D02*
X218694000Y-57277000D01*
X174244000Y-57658000D02*
X218313000Y-57658000D01*
D20*
%TO.N,/OPT/X*%
X122763000Y-110615000D02*
X131524000Y-101854000D01*
X122763000Y-113665000D02*
X122763000Y-110615000D01*
X131524000Y-101854000D02*
X152527000Y-101854000D01*
X152527000Y-101854000D02*
X157734000Y-96647000D01*
X157734000Y-96647000D02*
X157734000Y-95758000D01*
%TO.N,/OPT/Z*%
X204956010Y-78876085D02*
X223520000Y-97440075D01*
X215183001Y-122723001D02*
X120851001Y-122723001D01*
X223520000Y-114386002D02*
X215183001Y-122723001D01*
X114843000Y-116715000D02*
X114843000Y-113665000D01*
X120851001Y-122723001D02*
X114843000Y-116715000D01*
X223520000Y-97440075D02*
X223520000Y-114386002D01*
%TO.N,/+340v*%
X150751010Y-110614990D02*
X147701000Y-113665000D01*
X192307675Y-110614990D02*
X150751010Y-110614990D01*
X193819010Y-112126325D02*
X192307675Y-110614990D01*
X193819010Y-112920010D02*
X193819010Y-112126325D01*
X194564000Y-113665000D02*
X193819010Y-112920010D01*
X195199000Y-113665000D02*
X194564000Y-113665000D01*
%TD*%
M02*
