G04 #@! TF.GenerationSoftware,KiCad,Pcbnew,(5.0.0)*
G04 #@! TF.CreationDate,2019-03-30T17:01:12+00:00*
G04 #@! TF.ProjectId,LS05,4C5330352E6B696361645F7063620000,rev?*
G04 #@! TF.SameCoordinates,Original*
G04 #@! TF.FileFunction,Legend,Top*
G04 #@! TF.FilePolarity,Positive*
%FSLAX46Y46*%
G04 Gerber Fmt 4.6, Leading zero omitted, Abs format (unit mm)*
G04 Created by KiCad (PCBNEW (5.0.0)) date 03/30/19 17:01:12*
%MOMM*%
%LPD*%
G01*
G04 APERTURE LIST*
%ADD10C,0.300000*%
%ADD11C,0.120000*%
%ADD12C,0.150000*%
G04 APERTURE END LIST*
D10*
X180756928Y-93833071D02*
X180042642Y-93833071D01*
X180042642Y-92333071D01*
X181185500Y-93761642D02*
X181399785Y-93833071D01*
X181756928Y-93833071D01*
X181899785Y-93761642D01*
X181971214Y-93690214D01*
X182042642Y-93547357D01*
X182042642Y-93404500D01*
X181971214Y-93261642D01*
X181899785Y-93190214D01*
X181756928Y-93118785D01*
X181471214Y-93047357D01*
X181328357Y-92975928D01*
X181256928Y-92904500D01*
X181185500Y-92761642D01*
X181185500Y-92618785D01*
X181256928Y-92475928D01*
X181328357Y-92404500D01*
X181471214Y-92333071D01*
X181828357Y-92333071D01*
X182042642Y-92404500D01*
X182971214Y-92333071D02*
X183114071Y-92333071D01*
X183256928Y-92404500D01*
X183328357Y-92475928D01*
X183399785Y-92618785D01*
X183471214Y-92904500D01*
X183471214Y-93261642D01*
X183399785Y-93547357D01*
X183328357Y-93690214D01*
X183256928Y-93761642D01*
X183114071Y-93833071D01*
X182971214Y-93833071D01*
X182828357Y-93761642D01*
X182756928Y-93690214D01*
X182685500Y-93547357D01*
X182614071Y-93261642D01*
X182614071Y-92904500D01*
X182685500Y-92618785D01*
X182756928Y-92475928D01*
X182828357Y-92404500D01*
X182971214Y-92333071D01*
X184828357Y-92333071D02*
X184114071Y-92333071D01*
X184042642Y-93047357D01*
X184114071Y-92975928D01*
X184256928Y-92904500D01*
X184614071Y-92904500D01*
X184756928Y-92975928D01*
X184828357Y-93047357D01*
X184899785Y-93190214D01*
X184899785Y-93547357D01*
X184828357Y-93690214D01*
X184756928Y-93761642D01*
X184614071Y-93833071D01*
X184256928Y-93833071D01*
X184114071Y-93761642D01*
X184042642Y-93690214D01*
D11*
G04 #@! TO.C,VT3*
X179411878Y-79275111D02*
G75*
G03X179402000Y-75386500I1690122J1948611D01*
G01*
X179402000Y-75386500D02*
X179402000Y-79236500D01*
D12*
G04 #@! TO.C,J1*
X137426000Y-96150500D02*
X137426000Y-73925500D01*
X188226000Y-96150500D02*
X137426000Y-96150500D01*
X188226000Y-73925500D02*
X188226000Y-96150500D01*
X137426000Y-73925500D02*
X188226000Y-73925500D01*
D11*
G04 #@! TO.C,D1*
X155344000Y-88832500D02*
X157584000Y-88832500D01*
X155344000Y-88592500D02*
X157584000Y-88592500D01*
X155344000Y-88712500D02*
X157584000Y-88712500D01*
X156464000Y-84542500D02*
X156464000Y-85192500D01*
X156464000Y-90082500D02*
X156464000Y-89432500D01*
X155344000Y-85192500D02*
X155344000Y-89432500D01*
X157584000Y-85192500D02*
X155344000Y-85192500D01*
X157584000Y-89432500D02*
X157584000Y-85192500D01*
X155344000Y-89432500D02*
X157584000Y-89432500D01*
G04 #@! TO.C,D2*
X157884000Y-89432500D02*
X160124000Y-89432500D01*
X160124000Y-89432500D02*
X160124000Y-85192500D01*
X160124000Y-85192500D02*
X157884000Y-85192500D01*
X157884000Y-85192500D02*
X157884000Y-89432500D01*
X159004000Y-90082500D02*
X159004000Y-89432500D01*
X159004000Y-84542500D02*
X159004000Y-85192500D01*
X157884000Y-88712500D02*
X160124000Y-88712500D01*
X157884000Y-88592500D02*
X160124000Y-88592500D01*
X157884000Y-88832500D02*
X160124000Y-88832500D01*
G04 #@! TO.C,D3*
X160424000Y-88832500D02*
X162664000Y-88832500D01*
X160424000Y-88592500D02*
X162664000Y-88592500D01*
X160424000Y-88712500D02*
X162664000Y-88712500D01*
X161544000Y-84542500D02*
X161544000Y-85192500D01*
X161544000Y-90082500D02*
X161544000Y-89432500D01*
X160424000Y-85192500D02*
X160424000Y-89432500D01*
X162664000Y-85192500D02*
X160424000Y-85192500D01*
X162664000Y-89432500D02*
X162664000Y-85192500D01*
X160424000Y-89432500D02*
X162664000Y-89432500D01*
G04 #@! TO.C,D4*
X162964000Y-89432500D02*
X165204000Y-89432500D01*
X165204000Y-89432500D02*
X165204000Y-85192500D01*
X165204000Y-85192500D02*
X162964000Y-85192500D01*
X162964000Y-85192500D02*
X162964000Y-89432500D01*
X164084000Y-90082500D02*
X164084000Y-89432500D01*
X164084000Y-84542500D02*
X164084000Y-85192500D01*
X162964000Y-88712500D02*
X165204000Y-88712500D01*
X162964000Y-88592500D02*
X165204000Y-88592500D01*
X162964000Y-88832500D02*
X165204000Y-88832500D01*
G04 #@! TO.C,D5*
X165504000Y-88832500D02*
X167744000Y-88832500D01*
X165504000Y-88592500D02*
X167744000Y-88592500D01*
X165504000Y-88712500D02*
X167744000Y-88712500D01*
X166624000Y-84542500D02*
X166624000Y-85192500D01*
X166624000Y-90082500D02*
X166624000Y-89432500D01*
X165504000Y-85192500D02*
X165504000Y-89432500D01*
X167744000Y-85192500D02*
X165504000Y-85192500D01*
X167744000Y-89432500D02*
X167744000Y-85192500D01*
X165504000Y-89432500D02*
X167744000Y-89432500D01*
G04 #@! TO.C,D6*
X168044000Y-89432500D02*
X170284000Y-89432500D01*
X170284000Y-89432500D02*
X170284000Y-85192500D01*
X170284000Y-85192500D02*
X168044000Y-85192500D01*
X168044000Y-85192500D02*
X168044000Y-89432500D01*
X169164000Y-90082500D02*
X169164000Y-89432500D01*
X169164000Y-84542500D02*
X169164000Y-85192500D01*
X168044000Y-88712500D02*
X170284000Y-88712500D01*
X168044000Y-88592500D02*
X170284000Y-88592500D01*
X168044000Y-88832500D02*
X170284000Y-88832500D01*
G04 #@! TO.C,D7*
X138199000Y-90356500D02*
X140439000Y-90356500D01*
X138199000Y-90116500D02*
X140439000Y-90116500D01*
X138199000Y-90236500D02*
X140439000Y-90236500D01*
X139319000Y-86066500D02*
X139319000Y-86716500D01*
X139319000Y-91606500D02*
X139319000Y-90956500D01*
X138199000Y-86716500D02*
X138199000Y-90956500D01*
X140439000Y-86716500D02*
X138199000Y-86716500D01*
X140439000Y-90956500D02*
X140439000Y-86716500D01*
X138199000Y-90956500D02*
X140439000Y-90956500D01*
G04 #@! TO.C,D8*
X142979000Y-86716500D02*
X140739000Y-86716500D01*
X140739000Y-86716500D02*
X140739000Y-90956500D01*
X140739000Y-90956500D02*
X142979000Y-90956500D01*
X142979000Y-90956500D02*
X142979000Y-86716500D01*
X141859000Y-86066500D02*
X141859000Y-86716500D01*
X141859000Y-91606500D02*
X141859000Y-90956500D01*
X142979000Y-87436500D02*
X140739000Y-87436500D01*
X142979000Y-87556500D02*
X140739000Y-87556500D01*
X142979000Y-87316500D02*
X140739000Y-87316500D01*
G04 #@! TO.C,D9*
X143279000Y-90356500D02*
X145519000Y-90356500D01*
X143279000Y-90116500D02*
X145519000Y-90116500D01*
X143279000Y-90236500D02*
X145519000Y-90236500D01*
X144399000Y-86066500D02*
X144399000Y-86716500D01*
X144399000Y-91606500D02*
X144399000Y-90956500D01*
X143279000Y-86716500D02*
X143279000Y-90956500D01*
X145519000Y-86716500D02*
X143279000Y-86716500D01*
X145519000Y-90956500D02*
X145519000Y-86716500D01*
X143279000Y-90956500D02*
X145519000Y-90956500D01*
G04 #@! TO.C,D10*
X148059000Y-86716500D02*
X145819000Y-86716500D01*
X145819000Y-86716500D02*
X145819000Y-90956500D01*
X145819000Y-90956500D02*
X148059000Y-90956500D01*
X148059000Y-90956500D02*
X148059000Y-86716500D01*
X146939000Y-86066500D02*
X146939000Y-86716500D01*
X146939000Y-91606500D02*
X146939000Y-90956500D01*
X148059000Y-87436500D02*
X145819000Y-87436500D01*
X148059000Y-87556500D02*
X145819000Y-87556500D01*
X148059000Y-87316500D02*
X145819000Y-87316500D01*
G04 #@! TO.C,D11*
X148359000Y-90356500D02*
X150599000Y-90356500D01*
X148359000Y-90116500D02*
X150599000Y-90116500D01*
X148359000Y-90236500D02*
X150599000Y-90236500D01*
X149479000Y-86066500D02*
X149479000Y-86716500D01*
X149479000Y-91606500D02*
X149479000Y-90956500D01*
X148359000Y-86716500D02*
X148359000Y-90956500D01*
X150599000Y-86716500D02*
X148359000Y-86716500D01*
X150599000Y-90956500D02*
X150599000Y-86716500D01*
X148359000Y-90956500D02*
X150599000Y-90956500D01*
G04 #@! TO.C,D12*
X153139000Y-86716500D02*
X150899000Y-86716500D01*
X150899000Y-86716500D02*
X150899000Y-90956500D01*
X150899000Y-90956500D02*
X153139000Y-90956500D01*
X153139000Y-90956500D02*
X153139000Y-86716500D01*
X152019000Y-86066500D02*
X152019000Y-86716500D01*
X152019000Y-91606500D02*
X152019000Y-90956500D01*
X153139000Y-87436500D02*
X150899000Y-87436500D01*
X153139000Y-87556500D02*
X150899000Y-87556500D01*
X153139000Y-87316500D02*
X150899000Y-87316500D01*
G04 #@! TO.C,R1*
X172689000Y-87327500D02*
X174529000Y-87327500D01*
X174529000Y-87327500D02*
X174529000Y-83487500D01*
X174529000Y-83487500D02*
X172689000Y-83487500D01*
X172689000Y-83487500D02*
X172689000Y-87327500D01*
X173609000Y-88277500D02*
X173609000Y-87327500D01*
X173609000Y-82537500D02*
X173609000Y-83487500D01*
G04 #@! TO.C,R2*
X176340000Y-82537500D02*
X176340000Y-83487500D01*
X176340000Y-88277500D02*
X176340000Y-87327500D01*
X175420000Y-83487500D02*
X175420000Y-87327500D01*
X177260000Y-83487500D02*
X175420000Y-83487500D01*
X177260000Y-87327500D02*
X177260000Y-83487500D01*
X175420000Y-87327500D02*
X177260000Y-87327500D01*
G04 #@! TO.C,R3*
X179070000Y-82537500D02*
X179070000Y-83487500D01*
X179070000Y-88277500D02*
X179070000Y-87327500D01*
X178150000Y-83487500D02*
X178150000Y-87327500D01*
X179990000Y-83487500D02*
X178150000Y-83487500D01*
X179990000Y-87327500D02*
X179990000Y-83487500D01*
X178150000Y-87327500D02*
X179990000Y-87327500D01*
G04 #@! TO.C,R4*
X164798000Y-81120500D02*
X164798000Y-79280500D01*
X164798000Y-79280500D02*
X160958000Y-79280500D01*
X160958000Y-79280500D02*
X160958000Y-81120500D01*
X160958000Y-81120500D02*
X164798000Y-81120500D01*
X165748000Y-80200500D02*
X164798000Y-80200500D01*
X160008000Y-80200500D02*
X160958000Y-80200500D01*
G04 #@! TO.C,VT3*
D12*
X184114380Y-78516976D02*
X185114380Y-78183642D01*
X184114380Y-77850309D01*
X184114380Y-77659833D02*
X184114380Y-77088404D01*
X185114380Y-77374119D02*
X184114380Y-77374119D01*
X184114380Y-76850309D02*
X184114380Y-76231261D01*
X184495333Y-76564595D01*
X184495333Y-76421738D01*
X184542952Y-76326500D01*
X184590571Y-76278880D01*
X184685809Y-76231261D01*
X184923904Y-76231261D01*
X185019142Y-76278880D01*
X185066761Y-76326500D01*
X185114380Y-76421738D01*
X185114380Y-76707452D01*
X185066761Y-76802690D01*
X185019142Y-76850309D01*
G04 #@! TO.C,J1*
X142172666Y-78957880D02*
X142172666Y-79672166D01*
X142125047Y-79815023D01*
X142029809Y-79910261D01*
X141886952Y-79957880D01*
X141791714Y-79957880D01*
X143172666Y-79957880D02*
X142601238Y-79957880D01*
X142886952Y-79957880D02*
X142886952Y-78957880D01*
X142791714Y-79100738D01*
X142696476Y-79195976D01*
X142601238Y-79243595D01*
G04 #@! TO.C,D1*
X156916380Y-87796595D02*
X155916380Y-87796595D01*
X155916380Y-87558500D01*
X155964000Y-87415642D01*
X156059238Y-87320404D01*
X156154476Y-87272785D01*
X156344952Y-87225166D01*
X156487809Y-87225166D01*
X156678285Y-87272785D01*
X156773523Y-87320404D01*
X156868761Y-87415642D01*
X156916380Y-87558500D01*
X156916380Y-87796595D01*
X156916380Y-86272785D02*
X156916380Y-86844214D01*
X156916380Y-86558500D02*
X155916380Y-86558500D01*
X156059238Y-86653738D01*
X156154476Y-86748976D01*
X156202095Y-86844214D01*
G04 #@! TO.C,D2*
X159456380Y-87860095D02*
X158456380Y-87860095D01*
X158456380Y-87622000D01*
X158504000Y-87479142D01*
X158599238Y-87383904D01*
X158694476Y-87336285D01*
X158884952Y-87288666D01*
X159027809Y-87288666D01*
X159218285Y-87336285D01*
X159313523Y-87383904D01*
X159408761Y-87479142D01*
X159456380Y-87622000D01*
X159456380Y-87860095D01*
X158551619Y-86907714D02*
X158504000Y-86860095D01*
X158456380Y-86764857D01*
X158456380Y-86526761D01*
X158504000Y-86431523D01*
X158551619Y-86383904D01*
X158646857Y-86336285D01*
X158742095Y-86336285D01*
X158884952Y-86383904D01*
X159456380Y-86955333D01*
X159456380Y-86336285D01*
G04 #@! TO.C,D3*
X161932880Y-87860095D02*
X160932880Y-87860095D01*
X160932880Y-87622000D01*
X160980500Y-87479142D01*
X161075738Y-87383904D01*
X161170976Y-87336285D01*
X161361452Y-87288666D01*
X161504309Y-87288666D01*
X161694785Y-87336285D01*
X161790023Y-87383904D01*
X161885261Y-87479142D01*
X161932880Y-87622000D01*
X161932880Y-87860095D01*
X160932880Y-86955333D02*
X160932880Y-86336285D01*
X161313833Y-86669619D01*
X161313833Y-86526761D01*
X161361452Y-86431523D01*
X161409071Y-86383904D01*
X161504309Y-86336285D01*
X161742404Y-86336285D01*
X161837642Y-86383904D01*
X161885261Y-86431523D01*
X161932880Y-86526761D01*
X161932880Y-86812476D01*
X161885261Y-86907714D01*
X161837642Y-86955333D01*
G04 #@! TO.C,D4*
X164536380Y-87860095D02*
X163536380Y-87860095D01*
X163536380Y-87622000D01*
X163584000Y-87479142D01*
X163679238Y-87383904D01*
X163774476Y-87336285D01*
X163964952Y-87288666D01*
X164107809Y-87288666D01*
X164298285Y-87336285D01*
X164393523Y-87383904D01*
X164488761Y-87479142D01*
X164536380Y-87622000D01*
X164536380Y-87860095D01*
X163869714Y-86431523D02*
X164536380Y-86431523D01*
X163488761Y-86669619D02*
X164203047Y-86907714D01*
X164203047Y-86288666D01*
G04 #@! TO.C,D5*
X167076380Y-87860095D02*
X166076380Y-87860095D01*
X166076380Y-87622000D01*
X166124000Y-87479142D01*
X166219238Y-87383904D01*
X166314476Y-87336285D01*
X166504952Y-87288666D01*
X166647809Y-87288666D01*
X166838285Y-87336285D01*
X166933523Y-87383904D01*
X167028761Y-87479142D01*
X167076380Y-87622000D01*
X167076380Y-87860095D01*
X166076380Y-86383904D02*
X166076380Y-86860095D01*
X166552571Y-86907714D01*
X166504952Y-86860095D01*
X166457333Y-86764857D01*
X166457333Y-86526761D01*
X166504952Y-86431523D01*
X166552571Y-86383904D01*
X166647809Y-86336285D01*
X166885904Y-86336285D01*
X166981142Y-86383904D01*
X167028761Y-86431523D01*
X167076380Y-86526761D01*
X167076380Y-86764857D01*
X167028761Y-86860095D01*
X166981142Y-86907714D01*
G04 #@! TO.C,D6*
X169616380Y-87987095D02*
X168616380Y-87987095D01*
X168616380Y-87749000D01*
X168664000Y-87606142D01*
X168759238Y-87510904D01*
X168854476Y-87463285D01*
X169044952Y-87415666D01*
X169187809Y-87415666D01*
X169378285Y-87463285D01*
X169473523Y-87510904D01*
X169568761Y-87606142D01*
X169616380Y-87749000D01*
X169616380Y-87987095D01*
X168616380Y-86558523D02*
X168616380Y-86749000D01*
X168664000Y-86844238D01*
X168711619Y-86891857D01*
X168854476Y-86987095D01*
X169044952Y-87034714D01*
X169425904Y-87034714D01*
X169521142Y-86987095D01*
X169568761Y-86939476D01*
X169616380Y-86844238D01*
X169616380Y-86653761D01*
X169568761Y-86558523D01*
X169521142Y-86510904D01*
X169425904Y-86463285D01*
X169187809Y-86463285D01*
X169092571Y-86510904D01*
X169044952Y-86558523D01*
X168997333Y-86653761D01*
X168997333Y-86844238D01*
X169044952Y-86939476D01*
X169092571Y-86987095D01*
X169187809Y-87034714D01*
G04 #@! TO.C,D7*
X139771380Y-89257095D02*
X138771380Y-89257095D01*
X138771380Y-89019000D01*
X138819000Y-88876142D01*
X138914238Y-88780904D01*
X139009476Y-88733285D01*
X139199952Y-88685666D01*
X139342809Y-88685666D01*
X139533285Y-88733285D01*
X139628523Y-88780904D01*
X139723761Y-88876142D01*
X139771380Y-89019000D01*
X139771380Y-89257095D01*
X138771380Y-88352333D02*
X138771380Y-87685666D01*
X139771380Y-88114238D01*
G04 #@! TO.C,D8*
X142311380Y-89828595D02*
X141311380Y-89828595D01*
X141311380Y-89590500D01*
X141359000Y-89447642D01*
X141454238Y-89352404D01*
X141549476Y-89304785D01*
X141739952Y-89257166D01*
X141882809Y-89257166D01*
X142073285Y-89304785D01*
X142168523Y-89352404D01*
X142263761Y-89447642D01*
X142311380Y-89590500D01*
X142311380Y-89828595D01*
X141739952Y-88685738D02*
X141692333Y-88780976D01*
X141644714Y-88828595D01*
X141549476Y-88876214D01*
X141501857Y-88876214D01*
X141406619Y-88828595D01*
X141359000Y-88780976D01*
X141311380Y-88685738D01*
X141311380Y-88495261D01*
X141359000Y-88400023D01*
X141406619Y-88352404D01*
X141501857Y-88304785D01*
X141549476Y-88304785D01*
X141644714Y-88352404D01*
X141692333Y-88400023D01*
X141739952Y-88495261D01*
X141739952Y-88685738D01*
X141787571Y-88780976D01*
X141835190Y-88828595D01*
X141930428Y-88876214D01*
X142120904Y-88876214D01*
X142216142Y-88828595D01*
X142263761Y-88780976D01*
X142311380Y-88685738D01*
X142311380Y-88495261D01*
X142263761Y-88400023D01*
X142216142Y-88352404D01*
X142120904Y-88304785D01*
X141930428Y-88304785D01*
X141835190Y-88352404D01*
X141787571Y-88400023D01*
X141739952Y-88495261D01*
G04 #@! TO.C,D9*
X144787880Y-89384095D02*
X143787880Y-89384095D01*
X143787880Y-89146000D01*
X143835500Y-89003142D01*
X143930738Y-88907904D01*
X144025976Y-88860285D01*
X144216452Y-88812666D01*
X144359309Y-88812666D01*
X144549785Y-88860285D01*
X144645023Y-88907904D01*
X144740261Y-89003142D01*
X144787880Y-89146000D01*
X144787880Y-89384095D01*
X144787880Y-88336476D02*
X144787880Y-88146000D01*
X144740261Y-88050761D01*
X144692642Y-88003142D01*
X144549785Y-87907904D01*
X144359309Y-87860285D01*
X143978357Y-87860285D01*
X143883119Y-87907904D01*
X143835500Y-87955523D01*
X143787880Y-88050761D01*
X143787880Y-88241238D01*
X143835500Y-88336476D01*
X143883119Y-88384095D01*
X143978357Y-88431714D01*
X144216452Y-88431714D01*
X144311690Y-88384095D01*
X144359309Y-88336476D01*
X144406928Y-88241238D01*
X144406928Y-88050761D01*
X144359309Y-87955523D01*
X144311690Y-87907904D01*
X144216452Y-87860285D01*
G04 #@! TO.C,D10*
X147454880Y-90431785D02*
X146454880Y-90431785D01*
X146454880Y-90193690D01*
X146502500Y-90050833D01*
X146597738Y-89955595D01*
X146692976Y-89907976D01*
X146883452Y-89860357D01*
X147026309Y-89860357D01*
X147216785Y-89907976D01*
X147312023Y-89955595D01*
X147407261Y-90050833D01*
X147454880Y-90193690D01*
X147454880Y-90431785D01*
X147454880Y-88907976D02*
X147454880Y-89479404D01*
X147454880Y-89193690D02*
X146454880Y-89193690D01*
X146597738Y-89288928D01*
X146692976Y-89384166D01*
X146740595Y-89479404D01*
X146454880Y-88288928D02*
X146454880Y-88193690D01*
X146502500Y-88098452D01*
X146550119Y-88050833D01*
X146645357Y-88003214D01*
X146835833Y-87955595D01*
X147073928Y-87955595D01*
X147264404Y-88003214D01*
X147359642Y-88050833D01*
X147407261Y-88098452D01*
X147454880Y-88193690D01*
X147454880Y-88288928D01*
X147407261Y-88384166D01*
X147359642Y-88431785D01*
X147264404Y-88479404D01*
X147073928Y-88527023D01*
X146835833Y-88527023D01*
X146645357Y-88479404D01*
X146550119Y-88431785D01*
X146502500Y-88384166D01*
X146454880Y-88288928D01*
G04 #@! TO.C,D11*
X149867880Y-89669785D02*
X148867880Y-89669785D01*
X148867880Y-89431690D01*
X148915500Y-89288833D01*
X149010738Y-89193595D01*
X149105976Y-89145976D01*
X149296452Y-89098357D01*
X149439309Y-89098357D01*
X149629785Y-89145976D01*
X149725023Y-89193595D01*
X149820261Y-89288833D01*
X149867880Y-89431690D01*
X149867880Y-89669785D01*
X149867880Y-88145976D02*
X149867880Y-88717404D01*
X149867880Y-88431690D02*
X148867880Y-88431690D01*
X149010738Y-88526928D01*
X149105976Y-88622166D01*
X149153595Y-88717404D01*
X149867880Y-87193595D02*
X149867880Y-87765023D01*
X149867880Y-87479309D02*
X148867880Y-87479309D01*
X149010738Y-87574547D01*
X149105976Y-87669785D01*
X149153595Y-87765023D01*
G04 #@! TO.C,D12*
X152534880Y-90495285D02*
X151534880Y-90495285D01*
X151534880Y-90257190D01*
X151582500Y-90114333D01*
X151677738Y-90019095D01*
X151772976Y-89971476D01*
X151963452Y-89923857D01*
X152106309Y-89923857D01*
X152296785Y-89971476D01*
X152392023Y-90019095D01*
X152487261Y-90114333D01*
X152534880Y-90257190D01*
X152534880Y-90495285D01*
X152534880Y-88971476D02*
X152534880Y-89542904D01*
X152534880Y-89257190D02*
X151534880Y-89257190D01*
X151677738Y-89352428D01*
X151772976Y-89447666D01*
X151820595Y-89542904D01*
X151630119Y-88590523D02*
X151582500Y-88542904D01*
X151534880Y-88447666D01*
X151534880Y-88209571D01*
X151582500Y-88114333D01*
X151630119Y-88066714D01*
X151725357Y-88019095D01*
X151820595Y-88019095D01*
X151963452Y-88066714D01*
X152534880Y-88638142D01*
X152534880Y-88019095D01*
G04 #@! TO.C,R1*
X174124880Y-85510666D02*
X173648690Y-85844000D01*
X174124880Y-86082095D02*
X173124880Y-86082095D01*
X173124880Y-85701142D01*
X173172500Y-85605904D01*
X173220119Y-85558285D01*
X173315357Y-85510666D01*
X173458214Y-85510666D01*
X173553452Y-85558285D01*
X173601071Y-85605904D01*
X173648690Y-85701142D01*
X173648690Y-86082095D01*
X174124880Y-84558285D02*
X174124880Y-85129714D01*
X174124880Y-84844000D02*
X173124880Y-84844000D01*
X173267738Y-84939238D01*
X173362976Y-85034476D01*
X173410595Y-85129714D01*
G04 #@! TO.C,R2*
X176855880Y-85637666D02*
X176379690Y-85971000D01*
X176855880Y-86209095D02*
X175855880Y-86209095D01*
X175855880Y-85828142D01*
X175903500Y-85732904D01*
X175951119Y-85685285D01*
X176046357Y-85637666D01*
X176189214Y-85637666D01*
X176284452Y-85685285D01*
X176332071Y-85732904D01*
X176379690Y-85828142D01*
X176379690Y-86209095D01*
X175951119Y-85256714D02*
X175903500Y-85209095D01*
X175855880Y-85113857D01*
X175855880Y-84875761D01*
X175903500Y-84780523D01*
X175951119Y-84732904D01*
X176046357Y-84685285D01*
X176141595Y-84685285D01*
X176284452Y-84732904D01*
X176855880Y-85304333D01*
X176855880Y-84685285D01*
G04 #@! TO.C,R3*
X179458880Y-85637666D02*
X178982690Y-85971000D01*
X179458880Y-86209095D02*
X178458880Y-86209095D01*
X178458880Y-85828142D01*
X178506500Y-85732904D01*
X178554119Y-85685285D01*
X178649357Y-85637666D01*
X178792214Y-85637666D01*
X178887452Y-85685285D01*
X178935071Y-85732904D01*
X178982690Y-85828142D01*
X178982690Y-86209095D01*
X178458880Y-85304333D02*
X178458880Y-84685285D01*
X178839833Y-85018619D01*
X178839833Y-84875761D01*
X178887452Y-84780523D01*
X178935071Y-84732904D01*
X179030309Y-84685285D01*
X179268404Y-84685285D01*
X179363642Y-84732904D01*
X179411261Y-84780523D01*
X179458880Y-84875761D01*
X179458880Y-85161476D01*
X179411261Y-85256714D01*
X179363642Y-85304333D01*
G04 #@! TO.C,R4*
X162647833Y-80843380D02*
X162314500Y-80367190D01*
X162076404Y-80843380D02*
X162076404Y-79843380D01*
X162457357Y-79843380D01*
X162552595Y-79891000D01*
X162600214Y-79938619D01*
X162647833Y-80033857D01*
X162647833Y-80176714D01*
X162600214Y-80271952D01*
X162552595Y-80319571D01*
X162457357Y-80367190D01*
X162076404Y-80367190D01*
X163504976Y-80176714D02*
X163504976Y-80843380D01*
X163266880Y-79795761D02*
X163028785Y-80510047D01*
X163647833Y-80510047D01*
G04 #@! TD*
M02*
