G04 #@! TF.GenerationSoftware,KiCad,Pcbnew,(5.0.0)*
G04 #@! TF.CreationDate,2019-01-17T16:59:51+00:00*
G04 #@! TF.ProjectId,LS05,4C5330352E6B696361645F7063620000,rev?*
G04 #@! TF.SameCoordinates,Original*
G04 #@! TF.FileFunction,Copper,L1,Top,Signal*
G04 #@! TF.FilePolarity,Positive*
%FSLAX46Y46*%
G04 Gerber Fmt 4.6, Leading zero omitted, Abs format (unit mm)*
G04 Created by KiCad (PCBNEW (5.0.0)) date 01/17/19 16:59:51*
%MOMM*%
%LPD*%
G01*
G04 APERTURE LIST*
G04 #@! TA.AperFunction,ComponentPad*
%ADD10O,1.600000X1.600000*%
G04 #@! TD*
G04 #@! TA.AperFunction,ComponentPad*
%ADD11R,1.600000X1.600000*%
G04 #@! TD*
G04 #@! TA.AperFunction,ComponentPad*
%ADD12C,1.524000*%
G04 #@! TD*
G04 #@! TA.AperFunction,ComponentPad*
%ADD13C,1.400000*%
G04 #@! TD*
G04 #@! TA.AperFunction,ComponentPad*
%ADD14O,1.400000X1.400000*%
G04 #@! TD*
G04 #@! TA.AperFunction,ComponentPad*
%ADD15R,1.300000X1.300000*%
G04 #@! TD*
G04 #@! TA.AperFunction,ComponentPad*
%ADD16C,1.300000*%
G04 #@! TD*
G04 #@! TA.AperFunction,Conductor*
%ADD17C,0.250000*%
G04 #@! TD*
G04 APERTURE END LIST*
D10*
G04 #@! TO.P,D1,2*
G04 #@! TO.N,Net-(D1-Pad2)*
X156464000Y-83502500D03*
D11*
G04 #@! TO.P,D1,1*
G04 #@! TO.N,1*
X156464000Y-91122500D03*
G04 #@! TD*
G04 #@! TO.P,D2,1*
G04 #@! TO.N,2*
X159004000Y-91122500D03*
D10*
G04 #@! TO.P,D2,2*
G04 #@! TO.N,Net-(D1-Pad2)*
X159004000Y-83502500D03*
G04 #@! TD*
G04 #@! TO.P,D3,2*
G04 #@! TO.N,Net-(D3-Pad2)*
X161544000Y-83502500D03*
D11*
G04 #@! TO.P,D3,1*
G04 #@! TO.N,3*
X161544000Y-91122500D03*
G04 #@! TD*
G04 #@! TO.P,D4,1*
G04 #@! TO.N,4*
X164084000Y-91122500D03*
D10*
G04 #@! TO.P,D4,2*
G04 #@! TO.N,Net-(D3-Pad2)*
X164084000Y-83502500D03*
G04 #@! TD*
G04 #@! TO.P,D5,2*
G04 #@! TO.N,Net-(D11-Pad2)*
X166624000Y-83502500D03*
D11*
G04 #@! TO.P,D5,1*
G04 #@! TO.N,5*
X166624000Y-91122500D03*
G04 #@! TD*
G04 #@! TO.P,D6,1*
G04 #@! TO.N,6*
X169164000Y-91122500D03*
D10*
G04 #@! TO.P,D6,2*
G04 #@! TO.N,Net-(D11-Pad2)*
X169164000Y-83502500D03*
G04 #@! TD*
G04 #@! TO.P,D7,2*
G04 #@! TO.N,Net-(D1-Pad2)*
X139319000Y-85026500D03*
D11*
G04 #@! TO.P,D7,1*
G04 #@! TO.N,Net-(D7-Pad1)*
X139319000Y-92646500D03*
G04 #@! TD*
G04 #@! TO.P,D8,1*
G04 #@! TO.N,Net-(D10-Pad1)*
X141859000Y-85026500D03*
D10*
G04 #@! TO.P,D8,2*
G04 #@! TO.N,Net-(D7-Pad1)*
X141859000Y-92646500D03*
G04 #@! TD*
G04 #@! TO.P,D9,2*
G04 #@! TO.N,Net-(D3-Pad2)*
X144399000Y-85026500D03*
D11*
G04 #@! TO.P,D9,1*
G04 #@! TO.N,Net-(D10-Pad2)*
X144399000Y-92646500D03*
G04 #@! TD*
G04 #@! TO.P,D10,1*
G04 #@! TO.N,Net-(D10-Pad1)*
X146939000Y-85026500D03*
D10*
G04 #@! TO.P,D10,2*
G04 #@! TO.N,Net-(D10-Pad2)*
X146939000Y-92646500D03*
G04 #@! TD*
G04 #@! TO.P,D11,2*
G04 #@! TO.N,Net-(D11-Pad2)*
X149479000Y-85026500D03*
D11*
G04 #@! TO.P,D11,1*
G04 #@! TO.N,Net-(D11-Pad1)*
X149479000Y-92646500D03*
G04 #@! TD*
G04 #@! TO.P,D12,1*
G04 #@! TO.N,Net-(D10-Pad1)*
X152019000Y-85026500D03*
D10*
G04 #@! TO.P,D12,2*
G04 #@! TO.N,Net-(D11-Pad1)*
X152019000Y-92646500D03*
G04 #@! TD*
D12*
G04 #@! TO.P,J1,21*
G04 #@! TO.N,+6v*
X139331000Y-75830500D03*
G04 #@! TO.P,J1,22*
G04 #@! TO.N,0v*
X139331000Y-78370500D03*
G04 #@! TO.P,J1,23*
G04 #@! TO.N,-6v*
X139331000Y-80910500D03*
G04 #@! TO.P,J1,1*
G04 #@! TO.N,1*
X156476000Y-94245500D03*
G04 #@! TO.P,J1,2*
G04 #@! TO.N,2*
X159016000Y-94245500D03*
G04 #@! TO.P,J1,3*
G04 #@! TO.N,3*
X161556000Y-94245500D03*
G04 #@! TO.P,J1,4*
G04 #@! TO.N,4*
X164096000Y-94245500D03*
G04 #@! TO.P,J1,5*
G04 #@! TO.N,5*
X166636000Y-94245500D03*
G04 #@! TO.P,J1,6*
G04 #@! TO.N,6*
X169176000Y-94245500D03*
G04 #@! TO.P,J1,11*
G04 #@! TO.N,N/C*
X160286000Y-75830500D03*
G04 #@! TO.P,J1,12*
X162826000Y-75830500D03*
G04 #@! TO.P,J1,13*
G04 #@! TO.N,13*
X165366000Y-75830500D03*
G04 #@! TD*
D13*
G04 #@! TO.P,R1,1*
G04 #@! TO.N,+6v*
X173609000Y-89217500D03*
D14*
G04 #@! TO.P,R1,2*
G04 #@! TO.N,Net-(D1-Pad2)*
X173609000Y-81597500D03*
G04 #@! TD*
G04 #@! TO.P,R2,2*
G04 #@! TO.N,Net-(D3-Pad2)*
X176340000Y-81597500D03*
D13*
G04 #@! TO.P,R2,1*
G04 #@! TO.N,+6v*
X176340000Y-89217500D03*
G04 #@! TD*
D14*
G04 #@! TO.P,R3,2*
G04 #@! TO.N,Net-(D11-Pad2)*
X179070000Y-81597500D03*
D13*
G04 #@! TO.P,R3,1*
G04 #@! TO.N,+6v*
X179070000Y-89217500D03*
G04 #@! TD*
G04 #@! TO.P,R4,1*
G04 #@! TO.N,Net-(D10-Pad1)*
X166688000Y-80200500D03*
D14*
G04 #@! TO.P,R4,2*
G04 #@! TO.N,-6v*
X159068000Y-80200500D03*
G04 #@! TD*
D15*
G04 #@! TO.P,VT3,1*
G04 #@! TO.N,0v*
X181102000Y-78676500D03*
D16*
G04 #@! TO.P,VT3,3*
G04 #@! TO.N,13*
X181102000Y-76136500D03*
G04 #@! TO.P,VT3,2*
G04 #@! TO.N,Net-(D10-Pad1)*
X179832000Y-77406500D03*
G04 #@! TD*
D17*
G04 #@! TO.N,Net-(D1-Pad2)*
X159004000Y-83502500D02*
X160129300Y-83502500D01*
X173609000Y-81597500D02*
X161753000Y-81597500D01*
X161753000Y-81597500D02*
X160129300Y-83221200D01*
X160129300Y-83221200D02*
X160129300Y-83502500D01*
X140444300Y-85026500D02*
X140444300Y-84323200D01*
X140444300Y-84323200D02*
X141321300Y-83446200D01*
X141321300Y-83446200D02*
X155282400Y-83446200D01*
X155282400Y-83446200D02*
X155338700Y-83502500D01*
X156464000Y-83502500D02*
X155338700Y-83502500D01*
X139319000Y-85026500D02*
X140444300Y-85026500D01*
X159004000Y-83502500D02*
X156464000Y-83502500D01*
G04 #@! TO.N,Net-(D3-Pad2)*
X164084000Y-83502500D02*
X161544000Y-83502500D01*
G04 #@! TO.N,Net-(D11-Pad2)*
X166624000Y-83502500D02*
X165498700Y-83502500D01*
X165498700Y-83502500D02*
X165498700Y-83783800D01*
X165498700Y-83783800D02*
X164607200Y-84675300D01*
X164607200Y-84675300D02*
X155874600Y-84675300D01*
X155874600Y-84675300D02*
X155100500Y-83901200D01*
X155100500Y-83901200D02*
X151026200Y-83901200D01*
X151026200Y-83901200D02*
X150604300Y-84323100D01*
X150604300Y-84323100D02*
X150604300Y-85026500D01*
X169164000Y-83502500D02*
X166624000Y-83502500D01*
X149479000Y-85026500D02*
X150604300Y-85026500D01*
G04 #@! TO.N,Net-(D7-Pad1)*
X141859000Y-92646500D02*
X139319000Y-92646500D01*
G04 #@! TO.N,Net-(D10-Pad2)*
X146939000Y-92646500D02*
X144399000Y-92646500D01*
G04 #@! TO.N,Net-(D10-Pad1)*
X141859000Y-85026500D02*
X142984300Y-85026500D01*
X146939000Y-85026500D02*
X145813700Y-85026500D01*
X145813700Y-85026500D02*
X145813700Y-84745200D01*
X145813700Y-84745200D02*
X144969700Y-83901200D01*
X144969700Y-83901200D02*
X143828200Y-83901200D01*
X143828200Y-83901200D02*
X142984300Y-84745100D01*
X142984300Y-84745100D02*
X142984300Y-85026500D01*
G04 #@! TO.N,Net-(D11-Pad1)*
X152019000Y-92646500D02*
X149479000Y-92646500D01*
G04 #@! TO.N,+6v*
X176340000Y-89217500D02*
X173609000Y-89217500D01*
X179070000Y-89217500D02*
X176340000Y-89217500D01*
G04 #@! TO.N,0v*
X181102000Y-78676500D02*
X139637000Y-78676500D01*
X139637000Y-78676500D02*
X139331000Y-78370500D01*
G04 #@! TO.N,-6v*
X159068000Y-80200500D02*
X140041000Y-80200500D01*
X140041000Y-80200500D02*
X139331000Y-80910500D01*
G04 #@! TO.N,13*
X181102000Y-76136500D02*
X180796000Y-75830500D01*
X180796000Y-75830500D02*
X165366000Y-75830500D01*
G04 #@! TD*
M02*
