M48
;DRILL file {KiCad (5.0.0)} date 01/17/19 16:55:03
;FORMAT={-:-/ absolute / inch / decimal}
FMAT,2
INCH,TZ
T1C0.0276
T2C0.0295
T3C0.0300
T4C0.0315
%
G90
G05
M72
T1
X7.05Y-3.5125
X6.2625Y-3.1575
X6.835Y-3.2125
X6.835Y-3.5125
X6.9425Y-3.2125
X6.9425Y-3.5125
X7.05Y-3.2125
X6.5625Y-3.1575
T2
X7.08Y-3.0475
X7.13Y-2.9975
X7.13Y-3.0975
T3
X5.4855Y-2.9855
X5.4855Y-3.0855
X5.4855Y-3.1855
X6.1605Y-3.7105
X6.2605Y-3.7105
X6.3105Y-2.9855
X6.3605Y-3.7105
X6.4105Y-2.9855
X6.4605Y-3.7105
X6.5105Y-2.9855
X6.5605Y-3.7105
X6.6605Y-3.7105
T4
X6.56Y-3.2875
X6.56Y-3.5875
X6.66Y-3.2875
X6.66Y-3.5875
X6.26Y-3.2875
X6.26Y-3.5875
X5.985Y-3.3475
X5.985Y-3.6475
X5.885Y-3.3475
X5.885Y-3.6475
X5.585Y-3.3475
X5.585Y-3.6475
X6.36Y-3.2875
X6.36Y-3.5875
X5.785Y-3.3475
X5.785Y-3.6475
X5.485Y-3.3475
X5.485Y-3.6475
X6.46Y-3.2875
X6.46Y-3.5875
X5.685Y-3.3475
X5.685Y-3.6475
X6.16Y-3.2875
X6.16Y-3.5875
T0
M30
