M48
;DRILL file {KiCad (5.0.0)} date 04/22/19 09:26:03
;FORMAT={-:-/ absolute / inch / decimal}
FMAT,2
INCH,TZ
T1C0.1063
T2C0.1102
%
G90
G05
M72
T1
X14.095Y-1.1525
X14.715Y-11.3225
T2
X12.2882Y-1.9783
X12.2882Y-5.5217
X11.6882Y-1.9783
X11.6882Y-5.5217
X7.4882Y-1.9783
X7.4882Y-5.5217
X6.2882Y-1.9783
X6.2882Y-5.5217
X12.8882Y-1.9783
X12.8882Y-5.5217
X3.2882Y-1.9783
X3.2882Y-5.5217
X11.0882Y-1.9783
X11.0882Y-5.5217
X2.6882Y-1.9783
X2.6882Y-5.5217
X13.4882Y-1.9783
X13.4882Y-5.5217
X4.4882Y-1.9783
X4.4882Y-5.5217
X14.6882Y-1.9783
X14.6882Y-5.5217
X5.0882Y-1.9783
X5.0882Y-5.5217
X10.4882Y-1.9783
X10.4882Y-5.5217
X8.0882Y-1.9783
X8.0882Y-5.5217
X3.8882Y-1.9783
X3.8882Y-5.5217
X14.0882Y-1.9783
X14.0882Y-5.5217
X9.8882Y-1.9783
X9.8882Y-5.5217
X5.6882Y-1.9783
X5.6882Y-5.5217
X6.8882Y-1.9783
X6.8882Y-5.5217
X9.2882Y-1.9783
X9.2882Y-5.5217
T0
M30
