G04 #@! TF.GenerationSoftware,KiCad,Pcbnew,(5.0.0)*
G04 #@! TF.CreationDate,2019-04-22T09:25:53+01:00*
G04 #@! TF.ProjectId,Backplane1,4261636B706C616E65312E6B69636164,rev?*
G04 #@! TF.SameCoordinates,Original*
G04 #@! TF.FileFunction,Soldermask,Top*
G04 #@! TF.FilePolarity,Negative*
%FSLAX46Y46*%
G04 Gerber Fmt 4.6, Leading zero omitted, Abs format (unit mm)*
G04 Created by KiCad (PCBNEW (5.0.0)) date 04/22/19 09:25:53*
%MOMM*%
%LPD*%
G01*
G04 APERTURE LIST*
%ADD10C,2.600000*%
%ADD11R,2.600000X2.600000*%
%ADD12C,2.800000*%
%ADD13C,1.700000*%
%ADD14R,1.700000X1.700000*%
%ADD15C,2.700000*%
G04 APERTURE END LIST*
D10*
G04 #@! TO.C,J137*
X66040000Y-205740000D03*
X66040000Y-200660000D03*
X66040000Y-195580000D03*
X66040000Y-190500000D03*
X66040000Y-185420000D03*
X66040000Y-180340000D03*
D11*
X66040000Y-175260000D03*
G04 #@! TD*
D10*
G04 #@! TO.C,J138*
X81280000Y-205740000D03*
X81280000Y-200660000D03*
X81280000Y-195580000D03*
X81280000Y-190500000D03*
X81280000Y-185420000D03*
X81280000Y-180340000D03*
D11*
X81280000Y-175260000D03*
G04 #@! TD*
D10*
G04 #@! TO.C,J139*
X96520000Y-205740000D03*
X96520000Y-200660000D03*
X96520000Y-195580000D03*
X96520000Y-190500000D03*
X96520000Y-185420000D03*
X96520000Y-180340000D03*
D11*
X96520000Y-175260000D03*
G04 #@! TD*
D10*
G04 #@! TO.C,J140*
X111760000Y-205740000D03*
X111760000Y-200660000D03*
X111760000Y-195580000D03*
X111760000Y-190500000D03*
X111760000Y-185420000D03*
X111760000Y-180340000D03*
D11*
X111760000Y-175260000D03*
G04 #@! TD*
D10*
G04 #@! TO.C,J141*
X127000000Y-205740000D03*
X127000000Y-200660000D03*
X127000000Y-195580000D03*
X127000000Y-190500000D03*
X127000000Y-185420000D03*
X127000000Y-180340000D03*
D11*
X127000000Y-175260000D03*
G04 #@! TD*
D10*
G04 #@! TO.C,J154*
X340360000Y-205740000D03*
X340360000Y-200660000D03*
X340360000Y-195580000D03*
X340360000Y-190500000D03*
X340360000Y-185420000D03*
X340360000Y-180340000D03*
D11*
X340360000Y-175260000D03*
G04 #@! TD*
D10*
G04 #@! TO.C,J153*
X325120000Y-205740000D03*
X325120000Y-200660000D03*
X325120000Y-195580000D03*
X325120000Y-190500000D03*
X325120000Y-185420000D03*
X325120000Y-180340000D03*
D11*
X325120000Y-175260000D03*
G04 #@! TD*
D10*
G04 #@! TO.C,J155*
X355600000Y-205740000D03*
X355600000Y-200660000D03*
X355600000Y-195580000D03*
X355600000Y-190500000D03*
X355600000Y-185420000D03*
X355600000Y-180340000D03*
D11*
X355600000Y-175260000D03*
G04 #@! TD*
D12*
G04 #@! TO.C,J46*
X205440000Y-50250000D03*
X205440000Y-140250000D03*
D13*
X205740000Y-55880000D03*
X203200000Y-55880000D03*
X205740000Y-58420000D03*
X203200000Y-58420000D03*
X205740000Y-60960000D03*
X203200000Y-60960000D03*
X205740000Y-63500000D03*
X203200000Y-63500000D03*
X205740000Y-66040000D03*
X203200000Y-66040000D03*
X205740000Y-68580000D03*
X203200000Y-68580000D03*
X205740000Y-71120000D03*
X203200000Y-71120000D03*
X205740000Y-73660000D03*
X203200000Y-73660000D03*
X205740000Y-76200000D03*
X203200000Y-76200000D03*
X205740000Y-78740000D03*
X203200000Y-78740000D03*
X205740000Y-81280000D03*
X203200000Y-81280000D03*
X205740000Y-83820000D03*
X203200000Y-83820000D03*
X205740000Y-86360000D03*
X203200000Y-86360000D03*
X205740000Y-88900000D03*
X203200000Y-88900000D03*
X205740000Y-91440000D03*
X203200000Y-91440000D03*
X205740000Y-93980000D03*
X203200000Y-93980000D03*
X205740000Y-96520000D03*
X203200000Y-96520000D03*
X205740000Y-99060000D03*
X203200000Y-99060000D03*
X205740000Y-101600000D03*
X203200000Y-101600000D03*
X205740000Y-104140000D03*
X203200000Y-104140000D03*
X205740000Y-106680000D03*
X203200000Y-106680000D03*
X205740000Y-109220000D03*
X203200000Y-109220000D03*
X205740000Y-111760000D03*
X203200000Y-111760000D03*
X205740000Y-114300000D03*
X203200000Y-114300000D03*
X205740000Y-116840000D03*
X203200000Y-116840000D03*
X205740000Y-119380000D03*
X203200000Y-119380000D03*
X205740000Y-121920000D03*
X203200000Y-121920000D03*
X205740000Y-124460000D03*
X203200000Y-124460000D03*
X205740000Y-127000000D03*
X203200000Y-127000000D03*
X205740000Y-129540000D03*
X203200000Y-129540000D03*
X205740000Y-132080000D03*
X203200000Y-132080000D03*
X205740000Y-134620000D03*
D14*
X203200000Y-134620000D03*
G04 #@! TD*
D10*
G04 #@! TO.C,J146*
X203200000Y-251460000D03*
X203200000Y-246380000D03*
X203200000Y-241300000D03*
X203200000Y-236220000D03*
X203200000Y-231140000D03*
X203200000Y-226060000D03*
X203200000Y-220980000D03*
X203200000Y-215900000D03*
X203200000Y-210820000D03*
X203200000Y-205740000D03*
X203200000Y-200660000D03*
X203200000Y-195580000D03*
X203200000Y-190500000D03*
X203200000Y-185420000D03*
X203200000Y-180340000D03*
D11*
X203200000Y-175260000D03*
G04 #@! TD*
D10*
G04 #@! TO.C,J147*
X233680000Y-251460000D03*
X233680000Y-246380000D03*
X233680000Y-241300000D03*
X233680000Y-236220000D03*
X233680000Y-231140000D03*
X233680000Y-226060000D03*
X233680000Y-220980000D03*
X233680000Y-215900000D03*
X233680000Y-210820000D03*
X233680000Y-205740000D03*
X233680000Y-200660000D03*
X233680000Y-195580000D03*
X233680000Y-190500000D03*
X233680000Y-185420000D03*
X233680000Y-180340000D03*
D11*
X233680000Y-175260000D03*
G04 #@! TD*
D10*
G04 #@! TO.C,J142*
X142240000Y-205740000D03*
X142240000Y-200660000D03*
X142240000Y-195580000D03*
X142240000Y-190500000D03*
X142240000Y-185420000D03*
X142240000Y-180340000D03*
D11*
X142240000Y-175260000D03*
G04 #@! TD*
D10*
G04 #@! TO.C,J143*
X157480000Y-205740000D03*
X157480000Y-200660000D03*
X157480000Y-195580000D03*
X157480000Y-190500000D03*
X157480000Y-185420000D03*
X157480000Y-180340000D03*
D11*
X157480000Y-175260000D03*
G04 #@! TD*
D10*
G04 #@! TO.C,J144*
X172720000Y-205740000D03*
X172720000Y-200660000D03*
X172720000Y-195580000D03*
X172720000Y-190500000D03*
X172720000Y-185420000D03*
X172720000Y-180340000D03*
D11*
X172720000Y-175260000D03*
G04 #@! TD*
D10*
G04 #@! TO.C,J145*
X187960000Y-205740000D03*
X187960000Y-200660000D03*
X187960000Y-195580000D03*
X187960000Y-190500000D03*
X187960000Y-185420000D03*
X187960000Y-180340000D03*
D11*
X187960000Y-175260000D03*
G04 #@! TD*
D10*
G04 #@! TO.C,J148*
X248920000Y-205740000D03*
X248920000Y-200660000D03*
X248920000Y-195580000D03*
X248920000Y-190500000D03*
X248920000Y-185420000D03*
X248920000Y-180340000D03*
D11*
X248920000Y-175260000D03*
G04 #@! TD*
D10*
G04 #@! TO.C,J149*
X264160000Y-205740000D03*
X264160000Y-200660000D03*
X264160000Y-195580000D03*
X264160000Y-190500000D03*
X264160000Y-185420000D03*
X264160000Y-180340000D03*
D11*
X264160000Y-175260000D03*
G04 #@! TD*
D10*
G04 #@! TO.C,J150*
X279400000Y-205740000D03*
X279400000Y-200660000D03*
X279400000Y-195580000D03*
X279400000Y-190500000D03*
X279400000Y-185420000D03*
X279400000Y-180340000D03*
D11*
X279400000Y-175260000D03*
G04 #@! TD*
D10*
G04 #@! TO.C,J151*
X294640000Y-205740000D03*
X294640000Y-200660000D03*
X294640000Y-195580000D03*
X294640000Y-190500000D03*
X294640000Y-185420000D03*
X294640000Y-180340000D03*
D11*
X294640000Y-175260000D03*
G04 #@! TD*
D10*
G04 #@! TO.C,J152*
X309880000Y-205740000D03*
X309880000Y-200660000D03*
X309880000Y-195580000D03*
X309880000Y-190500000D03*
X309880000Y-185420000D03*
X309880000Y-180340000D03*
D11*
X309880000Y-175260000D03*
G04 #@! TD*
D10*
G04 #@! TO.C,J237*
X66040000Y-223520000D03*
X66040000Y-218440000D03*
D11*
X66040000Y-213360000D03*
G04 #@! TD*
D10*
G04 #@! TO.C,J238*
X81280000Y-223520000D03*
X81280000Y-218440000D03*
D11*
X81280000Y-213360000D03*
G04 #@! TD*
D10*
G04 #@! TO.C,J239*
X96520000Y-223520000D03*
X96520000Y-218440000D03*
D11*
X96520000Y-213360000D03*
G04 #@! TD*
D10*
G04 #@! TO.C,J240*
X111760000Y-223520000D03*
X111760000Y-218440000D03*
D11*
X111760000Y-213360000D03*
G04 #@! TD*
D10*
G04 #@! TO.C,J241*
X127000000Y-223520000D03*
X127000000Y-218440000D03*
D11*
X127000000Y-213360000D03*
G04 #@! TD*
D10*
G04 #@! TO.C,J242*
X142240000Y-223520000D03*
X142240000Y-218440000D03*
D11*
X142240000Y-213360000D03*
G04 #@! TD*
D10*
G04 #@! TO.C,J243*
X157480000Y-223520000D03*
X157480000Y-218440000D03*
D11*
X157480000Y-213360000D03*
G04 #@! TD*
D10*
G04 #@! TO.C,J244*
X172720000Y-223520000D03*
X172720000Y-218440000D03*
D11*
X172720000Y-213360000D03*
G04 #@! TD*
D10*
G04 #@! TO.C,J245*
X187960000Y-223520000D03*
X187960000Y-218440000D03*
D11*
X187960000Y-213360000D03*
G04 #@! TD*
D10*
G04 #@! TO.C,J248*
X248920000Y-223520000D03*
X248920000Y-218440000D03*
D11*
X248920000Y-213360000D03*
G04 #@! TD*
D10*
G04 #@! TO.C,J249*
X264160000Y-223520000D03*
X264160000Y-218440000D03*
D11*
X264160000Y-213360000D03*
G04 #@! TD*
D10*
G04 #@! TO.C,J250*
X279400000Y-223520000D03*
X279400000Y-218440000D03*
D11*
X279400000Y-213360000D03*
G04 #@! TD*
D10*
G04 #@! TO.C,J251*
X294640000Y-223520000D03*
X294640000Y-218440000D03*
D11*
X294640000Y-213360000D03*
G04 #@! TD*
D10*
G04 #@! TO.C,J252*
X309880000Y-223520000D03*
X309880000Y-218440000D03*
D11*
X309880000Y-213360000D03*
G04 #@! TD*
D10*
G04 #@! TO.C,J253*
X325120000Y-223520000D03*
X325120000Y-218440000D03*
D11*
X325120000Y-213360000D03*
G04 #@! TD*
D10*
G04 #@! TO.C,J254*
X340360000Y-223520000D03*
X340360000Y-218440000D03*
D11*
X340360000Y-213360000D03*
G04 #@! TD*
D10*
G04 #@! TO.C,J255*
X355600000Y-223520000D03*
X355600000Y-218440000D03*
D11*
X355600000Y-213360000D03*
G04 #@! TD*
D10*
G04 #@! TO.C,J337*
X66040000Y-266700000D03*
X66040000Y-261620000D03*
X66040000Y-256540000D03*
X66040000Y-251460000D03*
X66040000Y-246380000D03*
X66040000Y-241300000D03*
X66040000Y-236220000D03*
D11*
X66040000Y-231140000D03*
G04 #@! TD*
D10*
G04 #@! TO.C,J338*
X81280000Y-266700000D03*
X81280000Y-261620000D03*
X81280000Y-256540000D03*
X81280000Y-251460000D03*
X81280000Y-246380000D03*
X81280000Y-241300000D03*
X81280000Y-236220000D03*
D11*
X81280000Y-231140000D03*
G04 #@! TD*
D10*
G04 #@! TO.C,J339*
X96520000Y-266700000D03*
X96520000Y-261620000D03*
X96520000Y-256540000D03*
X96520000Y-251460000D03*
X96520000Y-246380000D03*
X96520000Y-241300000D03*
X96520000Y-236220000D03*
D11*
X96520000Y-231140000D03*
G04 #@! TD*
D10*
G04 #@! TO.C,J340*
X111760000Y-266700000D03*
X111760000Y-261620000D03*
X111760000Y-256540000D03*
X111760000Y-251460000D03*
X111760000Y-246380000D03*
X111760000Y-241300000D03*
X111760000Y-236220000D03*
D11*
X111760000Y-231140000D03*
G04 #@! TD*
D10*
G04 #@! TO.C,J341*
X127000000Y-266700000D03*
X127000000Y-261620000D03*
X127000000Y-256540000D03*
X127000000Y-251460000D03*
X127000000Y-246380000D03*
X127000000Y-241300000D03*
X127000000Y-236220000D03*
D11*
X127000000Y-231140000D03*
G04 #@! TD*
D10*
G04 #@! TO.C,J342*
X142240000Y-266700000D03*
X142240000Y-261620000D03*
X142240000Y-256540000D03*
X142240000Y-251460000D03*
X142240000Y-246380000D03*
X142240000Y-241300000D03*
X142240000Y-236220000D03*
D11*
X142240000Y-231140000D03*
G04 #@! TD*
D10*
G04 #@! TO.C,J343*
X157480000Y-266700000D03*
X157480000Y-261620000D03*
X157480000Y-256540000D03*
X157480000Y-251460000D03*
X157480000Y-246380000D03*
X157480000Y-241300000D03*
X157480000Y-236220000D03*
D11*
X157480000Y-231140000D03*
G04 #@! TD*
D10*
G04 #@! TO.C,J344*
X172720000Y-266700000D03*
X172720000Y-261620000D03*
X172720000Y-256540000D03*
X172720000Y-251460000D03*
X172720000Y-246380000D03*
X172720000Y-241300000D03*
X172720000Y-236220000D03*
D11*
X172720000Y-231140000D03*
G04 #@! TD*
D10*
G04 #@! TO.C,J345*
X187960000Y-266700000D03*
X187960000Y-261620000D03*
X187960000Y-256540000D03*
X187960000Y-251460000D03*
X187960000Y-246380000D03*
X187960000Y-241300000D03*
X187960000Y-236220000D03*
D11*
X187960000Y-231140000D03*
G04 #@! TD*
D10*
G04 #@! TO.C,J348*
X248920000Y-266700000D03*
X248920000Y-261620000D03*
X248920000Y-256540000D03*
X248920000Y-251460000D03*
X248920000Y-246380000D03*
X248920000Y-241300000D03*
X248920000Y-236220000D03*
D11*
X248920000Y-231140000D03*
G04 #@! TD*
D10*
G04 #@! TO.C,J349*
X264160000Y-266700000D03*
X264160000Y-261620000D03*
X264160000Y-256540000D03*
X264160000Y-251460000D03*
X264160000Y-246380000D03*
X264160000Y-241300000D03*
X264160000Y-236220000D03*
D11*
X264160000Y-231140000D03*
G04 #@! TD*
D10*
G04 #@! TO.C,J350*
X279400000Y-266700000D03*
X279400000Y-261620000D03*
X279400000Y-256540000D03*
X279400000Y-251460000D03*
X279400000Y-246380000D03*
X279400000Y-241300000D03*
X279400000Y-236220000D03*
D11*
X279400000Y-231140000D03*
G04 #@! TD*
D10*
G04 #@! TO.C,J351*
X294640000Y-266700000D03*
X294640000Y-261620000D03*
X294640000Y-256540000D03*
X294640000Y-251460000D03*
X294640000Y-246380000D03*
X294640000Y-241300000D03*
X294640000Y-236220000D03*
D11*
X294640000Y-231140000D03*
G04 #@! TD*
D10*
G04 #@! TO.C,J352*
X309880000Y-266700000D03*
X309880000Y-261620000D03*
X309880000Y-256540000D03*
X309880000Y-251460000D03*
X309880000Y-246380000D03*
X309880000Y-241300000D03*
X309880000Y-236220000D03*
D11*
X309880000Y-231140000D03*
G04 #@! TD*
D10*
G04 #@! TO.C,J353*
X325120000Y-266700000D03*
X325120000Y-261620000D03*
X325120000Y-256540000D03*
X325120000Y-251460000D03*
X325120000Y-246380000D03*
X325120000Y-241300000D03*
X325120000Y-236220000D03*
D11*
X325120000Y-231140000D03*
G04 #@! TD*
D10*
G04 #@! TO.C,J354*
X340360000Y-266700000D03*
X340360000Y-261620000D03*
X340360000Y-256540000D03*
X340360000Y-251460000D03*
X340360000Y-246380000D03*
X340360000Y-241300000D03*
X340360000Y-236220000D03*
D11*
X340360000Y-231140000D03*
G04 #@! TD*
D10*
G04 #@! TO.C,J355*
X355600000Y-266700000D03*
X355600000Y-261620000D03*
X355600000Y-256540000D03*
X355600000Y-251460000D03*
X355600000Y-246380000D03*
X355600000Y-241300000D03*
X355600000Y-236220000D03*
D11*
X355600000Y-231140000D03*
G04 #@! TD*
D10*
G04 #@! TO.C,J356*
X370840000Y-266700000D03*
X370840000Y-261620000D03*
X370840000Y-256540000D03*
X370840000Y-251460000D03*
X370840000Y-246380000D03*
X370840000Y-241300000D03*
X370840000Y-236220000D03*
D11*
X370840000Y-231140000D03*
G04 #@! TD*
D10*
G04 #@! TO.C,J256*
X370840000Y-223520000D03*
X370840000Y-218440000D03*
D11*
X370840000Y-213360000D03*
G04 #@! TD*
D10*
G04 #@! TO.C,J156*
X370840000Y-205740000D03*
X370840000Y-200660000D03*
X370840000Y-195580000D03*
X370840000Y-190500000D03*
X370840000Y-185420000D03*
X370840000Y-180340000D03*
D11*
X370840000Y-175260000D03*
G04 #@! TD*
D12*
G04 #@! TO.C,J37*
X68280000Y-50250000D03*
X68280000Y-140250000D03*
D13*
X68580000Y-55880000D03*
X66040000Y-55880000D03*
X68580000Y-58420000D03*
X66040000Y-58420000D03*
X68580000Y-60960000D03*
X66040000Y-60960000D03*
X68580000Y-63500000D03*
X66040000Y-63500000D03*
X68580000Y-66040000D03*
X66040000Y-66040000D03*
X68580000Y-68580000D03*
X66040000Y-68580000D03*
X68580000Y-71120000D03*
X66040000Y-71120000D03*
X68580000Y-73660000D03*
X66040000Y-73660000D03*
X68580000Y-76200000D03*
X66040000Y-76200000D03*
X68580000Y-78740000D03*
X66040000Y-78740000D03*
X68580000Y-81280000D03*
X66040000Y-81280000D03*
X68580000Y-83820000D03*
X66040000Y-83820000D03*
X68580000Y-86360000D03*
X66040000Y-86360000D03*
X68580000Y-88900000D03*
X66040000Y-88900000D03*
X68580000Y-91440000D03*
X66040000Y-91440000D03*
X68580000Y-93980000D03*
X66040000Y-93980000D03*
X68580000Y-96520000D03*
X66040000Y-96520000D03*
X68580000Y-99060000D03*
X66040000Y-99060000D03*
X68580000Y-101600000D03*
X66040000Y-101600000D03*
X68580000Y-104140000D03*
X66040000Y-104140000D03*
X68580000Y-106680000D03*
X66040000Y-106680000D03*
X68580000Y-109220000D03*
X66040000Y-109220000D03*
X68580000Y-111760000D03*
X66040000Y-111760000D03*
X68580000Y-114300000D03*
X66040000Y-114300000D03*
X68580000Y-116840000D03*
X66040000Y-116840000D03*
X68580000Y-119380000D03*
X66040000Y-119380000D03*
X68580000Y-121920000D03*
X66040000Y-121920000D03*
X68580000Y-124460000D03*
X66040000Y-124460000D03*
X68580000Y-127000000D03*
X66040000Y-127000000D03*
X68580000Y-129540000D03*
X66040000Y-129540000D03*
X68580000Y-132080000D03*
X66040000Y-132080000D03*
X68580000Y-134620000D03*
D14*
X66040000Y-134620000D03*
G04 #@! TD*
D12*
G04 #@! TO.C,J38*
X83520000Y-50250000D03*
X83520000Y-140250000D03*
D13*
X83820000Y-55880000D03*
X81280000Y-55880000D03*
X83820000Y-58420000D03*
X81280000Y-58420000D03*
X83820000Y-60960000D03*
X81280000Y-60960000D03*
X83820000Y-63500000D03*
X81280000Y-63500000D03*
X83820000Y-66040000D03*
X81280000Y-66040000D03*
X83820000Y-68580000D03*
X81280000Y-68580000D03*
X83820000Y-71120000D03*
X81280000Y-71120000D03*
X83820000Y-73660000D03*
X81280000Y-73660000D03*
X83820000Y-76200000D03*
X81280000Y-76200000D03*
X83820000Y-78740000D03*
X81280000Y-78740000D03*
X83820000Y-81280000D03*
X81280000Y-81280000D03*
X83820000Y-83820000D03*
X81280000Y-83820000D03*
X83820000Y-86360000D03*
X81280000Y-86360000D03*
X83820000Y-88900000D03*
X81280000Y-88900000D03*
X83820000Y-91440000D03*
X81280000Y-91440000D03*
X83820000Y-93980000D03*
X81280000Y-93980000D03*
X83820000Y-96520000D03*
X81280000Y-96520000D03*
X83820000Y-99060000D03*
X81280000Y-99060000D03*
X83820000Y-101600000D03*
X81280000Y-101600000D03*
X83820000Y-104140000D03*
X81280000Y-104140000D03*
X83820000Y-106680000D03*
X81280000Y-106680000D03*
X83820000Y-109220000D03*
X81280000Y-109220000D03*
X83820000Y-111760000D03*
X81280000Y-111760000D03*
X83820000Y-114300000D03*
X81280000Y-114300000D03*
X83820000Y-116840000D03*
X81280000Y-116840000D03*
X83820000Y-119380000D03*
X81280000Y-119380000D03*
X83820000Y-121920000D03*
X81280000Y-121920000D03*
X83820000Y-124460000D03*
X81280000Y-124460000D03*
X83820000Y-127000000D03*
X81280000Y-127000000D03*
X83820000Y-129540000D03*
X81280000Y-129540000D03*
X83820000Y-132080000D03*
X81280000Y-132080000D03*
X83820000Y-134620000D03*
D14*
X81280000Y-134620000D03*
G04 #@! TD*
D12*
G04 #@! TO.C,J39*
X98760000Y-50250000D03*
X98760000Y-140250000D03*
D13*
X99060000Y-55880000D03*
X96520000Y-55880000D03*
X99060000Y-58420000D03*
X96520000Y-58420000D03*
X99060000Y-60960000D03*
X96520000Y-60960000D03*
X99060000Y-63500000D03*
X96520000Y-63500000D03*
X99060000Y-66040000D03*
X96520000Y-66040000D03*
X99060000Y-68580000D03*
X96520000Y-68580000D03*
X99060000Y-71120000D03*
X96520000Y-71120000D03*
X99060000Y-73660000D03*
X96520000Y-73660000D03*
X99060000Y-76200000D03*
X96520000Y-76200000D03*
X99060000Y-78740000D03*
X96520000Y-78740000D03*
X99060000Y-81280000D03*
X96520000Y-81280000D03*
X99060000Y-83820000D03*
X96520000Y-83820000D03*
X99060000Y-86360000D03*
X96520000Y-86360000D03*
X99060000Y-88900000D03*
X96520000Y-88900000D03*
X99060000Y-91440000D03*
X96520000Y-91440000D03*
X99060000Y-93980000D03*
X96520000Y-93980000D03*
X99060000Y-96520000D03*
X96520000Y-96520000D03*
X99060000Y-99060000D03*
X96520000Y-99060000D03*
X99060000Y-101600000D03*
X96520000Y-101600000D03*
X99060000Y-104140000D03*
X96520000Y-104140000D03*
X99060000Y-106680000D03*
X96520000Y-106680000D03*
X99060000Y-109220000D03*
X96520000Y-109220000D03*
X99060000Y-111760000D03*
X96520000Y-111760000D03*
X99060000Y-114300000D03*
X96520000Y-114300000D03*
X99060000Y-116840000D03*
X96520000Y-116840000D03*
X99060000Y-119380000D03*
X96520000Y-119380000D03*
X99060000Y-121920000D03*
X96520000Y-121920000D03*
X99060000Y-124460000D03*
X96520000Y-124460000D03*
X99060000Y-127000000D03*
X96520000Y-127000000D03*
X99060000Y-129540000D03*
X96520000Y-129540000D03*
X99060000Y-132080000D03*
X96520000Y-132080000D03*
X99060000Y-134620000D03*
D14*
X96520000Y-134620000D03*
G04 #@! TD*
D12*
G04 #@! TO.C,J40*
X114000000Y-50250000D03*
X114000000Y-140250000D03*
D13*
X114300000Y-55880000D03*
X111760000Y-55880000D03*
X114300000Y-58420000D03*
X111760000Y-58420000D03*
X114300000Y-60960000D03*
X111760000Y-60960000D03*
X114300000Y-63500000D03*
X111760000Y-63500000D03*
X114300000Y-66040000D03*
X111760000Y-66040000D03*
X114300000Y-68580000D03*
X111760000Y-68580000D03*
X114300000Y-71120000D03*
X111760000Y-71120000D03*
X114300000Y-73660000D03*
X111760000Y-73660000D03*
X114300000Y-76200000D03*
X111760000Y-76200000D03*
X114300000Y-78740000D03*
X111760000Y-78740000D03*
X114300000Y-81280000D03*
X111760000Y-81280000D03*
X114300000Y-83820000D03*
X111760000Y-83820000D03*
X114300000Y-86360000D03*
X111760000Y-86360000D03*
X114300000Y-88900000D03*
X111760000Y-88900000D03*
X114300000Y-91440000D03*
X111760000Y-91440000D03*
X114300000Y-93980000D03*
X111760000Y-93980000D03*
X114300000Y-96520000D03*
X111760000Y-96520000D03*
X114300000Y-99060000D03*
X111760000Y-99060000D03*
X114300000Y-101600000D03*
X111760000Y-101600000D03*
X114300000Y-104140000D03*
X111760000Y-104140000D03*
X114300000Y-106680000D03*
X111760000Y-106680000D03*
X114300000Y-109220000D03*
X111760000Y-109220000D03*
X114300000Y-111760000D03*
X111760000Y-111760000D03*
X114300000Y-114300000D03*
X111760000Y-114300000D03*
X114300000Y-116840000D03*
X111760000Y-116840000D03*
X114300000Y-119380000D03*
X111760000Y-119380000D03*
X114300000Y-121920000D03*
X111760000Y-121920000D03*
X114300000Y-124460000D03*
X111760000Y-124460000D03*
X114300000Y-127000000D03*
X111760000Y-127000000D03*
X114300000Y-129540000D03*
X111760000Y-129540000D03*
X114300000Y-132080000D03*
X111760000Y-132080000D03*
X114300000Y-134620000D03*
D14*
X111760000Y-134620000D03*
G04 #@! TD*
D12*
G04 #@! TO.C,J41*
X129240000Y-50250000D03*
X129240000Y-140250000D03*
D13*
X129540000Y-55880000D03*
X127000000Y-55880000D03*
X129540000Y-58420000D03*
X127000000Y-58420000D03*
X129540000Y-60960000D03*
X127000000Y-60960000D03*
X129540000Y-63500000D03*
X127000000Y-63500000D03*
X129540000Y-66040000D03*
X127000000Y-66040000D03*
X129540000Y-68580000D03*
X127000000Y-68580000D03*
X129540000Y-71120000D03*
X127000000Y-71120000D03*
X129540000Y-73660000D03*
X127000000Y-73660000D03*
X129540000Y-76200000D03*
X127000000Y-76200000D03*
X129540000Y-78740000D03*
X127000000Y-78740000D03*
X129540000Y-81280000D03*
X127000000Y-81280000D03*
X129540000Y-83820000D03*
X127000000Y-83820000D03*
X129540000Y-86360000D03*
X127000000Y-86360000D03*
X129540000Y-88900000D03*
X127000000Y-88900000D03*
X129540000Y-91440000D03*
X127000000Y-91440000D03*
X129540000Y-93980000D03*
X127000000Y-93980000D03*
X129540000Y-96520000D03*
X127000000Y-96520000D03*
X129540000Y-99060000D03*
X127000000Y-99060000D03*
X129540000Y-101600000D03*
X127000000Y-101600000D03*
X129540000Y-104140000D03*
X127000000Y-104140000D03*
X129540000Y-106680000D03*
X127000000Y-106680000D03*
X129540000Y-109220000D03*
X127000000Y-109220000D03*
X129540000Y-111760000D03*
X127000000Y-111760000D03*
X129540000Y-114300000D03*
X127000000Y-114300000D03*
X129540000Y-116840000D03*
X127000000Y-116840000D03*
X129540000Y-119380000D03*
X127000000Y-119380000D03*
X129540000Y-121920000D03*
X127000000Y-121920000D03*
X129540000Y-124460000D03*
X127000000Y-124460000D03*
X129540000Y-127000000D03*
X127000000Y-127000000D03*
X129540000Y-129540000D03*
X127000000Y-129540000D03*
X129540000Y-132080000D03*
X127000000Y-132080000D03*
X129540000Y-134620000D03*
D14*
X127000000Y-134620000D03*
G04 #@! TD*
D12*
G04 #@! TO.C,J42*
X144480000Y-50250000D03*
X144480000Y-140250000D03*
D13*
X144780000Y-55880000D03*
X142240000Y-55880000D03*
X144780000Y-58420000D03*
X142240000Y-58420000D03*
X144780000Y-60960000D03*
X142240000Y-60960000D03*
X144780000Y-63500000D03*
X142240000Y-63500000D03*
X144780000Y-66040000D03*
X142240000Y-66040000D03*
X144780000Y-68580000D03*
X142240000Y-68580000D03*
X144780000Y-71120000D03*
X142240000Y-71120000D03*
X144780000Y-73660000D03*
X142240000Y-73660000D03*
X144780000Y-76200000D03*
X142240000Y-76200000D03*
X144780000Y-78740000D03*
X142240000Y-78740000D03*
X144780000Y-81280000D03*
X142240000Y-81280000D03*
X144780000Y-83820000D03*
X142240000Y-83820000D03*
X144780000Y-86360000D03*
X142240000Y-86360000D03*
X144780000Y-88900000D03*
X142240000Y-88900000D03*
X144780000Y-91440000D03*
X142240000Y-91440000D03*
X144780000Y-93980000D03*
X142240000Y-93980000D03*
X144780000Y-96520000D03*
X142240000Y-96520000D03*
X144780000Y-99060000D03*
X142240000Y-99060000D03*
X144780000Y-101600000D03*
X142240000Y-101600000D03*
X144780000Y-104140000D03*
X142240000Y-104140000D03*
X144780000Y-106680000D03*
X142240000Y-106680000D03*
X144780000Y-109220000D03*
X142240000Y-109220000D03*
X144780000Y-111760000D03*
X142240000Y-111760000D03*
X144780000Y-114300000D03*
X142240000Y-114300000D03*
X144780000Y-116840000D03*
X142240000Y-116840000D03*
X144780000Y-119380000D03*
X142240000Y-119380000D03*
X144780000Y-121920000D03*
X142240000Y-121920000D03*
X144780000Y-124460000D03*
X142240000Y-124460000D03*
X144780000Y-127000000D03*
X142240000Y-127000000D03*
X144780000Y-129540000D03*
X142240000Y-129540000D03*
X144780000Y-132080000D03*
X142240000Y-132080000D03*
X144780000Y-134620000D03*
D14*
X142240000Y-134556000D03*
G04 #@! TD*
D12*
G04 #@! TO.C,J43*
X159720000Y-50250000D03*
X159720000Y-140250000D03*
D13*
X160020000Y-55880000D03*
X157480000Y-55880000D03*
X160020000Y-58420000D03*
X157480000Y-58420000D03*
X160020000Y-60960000D03*
X157480000Y-60960000D03*
X160020000Y-63500000D03*
X157480000Y-63500000D03*
X160020000Y-66040000D03*
X157480000Y-66040000D03*
X160020000Y-68580000D03*
X157480000Y-68580000D03*
X160020000Y-71120000D03*
X157480000Y-71120000D03*
X160020000Y-73660000D03*
X157480000Y-73660000D03*
X160020000Y-76200000D03*
X157480000Y-76200000D03*
X160020000Y-78740000D03*
X157480000Y-78740000D03*
X160020000Y-81280000D03*
X157480000Y-81280000D03*
X160020000Y-83820000D03*
X157480000Y-83820000D03*
X160020000Y-86360000D03*
X157480000Y-86360000D03*
X160020000Y-88900000D03*
X157480000Y-88900000D03*
X160020000Y-91440000D03*
X157480000Y-91440000D03*
X160020000Y-93980000D03*
X157480000Y-93980000D03*
X160020000Y-96520000D03*
X157480000Y-96520000D03*
X160020000Y-99060000D03*
X157480000Y-99060000D03*
X160020000Y-101600000D03*
X157480000Y-101600000D03*
X160020000Y-104140000D03*
X157480000Y-104140000D03*
X160020000Y-106680000D03*
X157480000Y-106680000D03*
X160020000Y-109220000D03*
X157480000Y-109220000D03*
X160020000Y-111760000D03*
X157480000Y-111760000D03*
X160020000Y-114300000D03*
X157480000Y-114300000D03*
X160020000Y-116840000D03*
X157480000Y-116840000D03*
X160020000Y-119380000D03*
X157480000Y-119380000D03*
X160020000Y-121920000D03*
X157480000Y-121920000D03*
X160020000Y-124460000D03*
X157480000Y-124460000D03*
X160020000Y-127000000D03*
X157480000Y-127000000D03*
X160020000Y-129540000D03*
X157480000Y-129540000D03*
X160020000Y-132080000D03*
X157480000Y-132080000D03*
X160020000Y-134620000D03*
D14*
X157480000Y-134620000D03*
G04 #@! TD*
D12*
G04 #@! TO.C,J44*
X174960000Y-50250000D03*
X174960000Y-140250000D03*
D13*
X175260000Y-55880000D03*
X172720000Y-55880000D03*
X175260000Y-58420000D03*
X172720000Y-58420000D03*
X175260000Y-60960000D03*
X172720000Y-60960000D03*
X175260000Y-63500000D03*
X172720000Y-63500000D03*
X175260000Y-66040000D03*
X172720000Y-66040000D03*
X175260000Y-68580000D03*
X172720000Y-68580000D03*
X175260000Y-71120000D03*
X172720000Y-71120000D03*
X175260000Y-73660000D03*
X172720000Y-73660000D03*
X175260000Y-76200000D03*
X172720000Y-76200000D03*
X175260000Y-78740000D03*
X172720000Y-78740000D03*
X175260000Y-81280000D03*
X172720000Y-81280000D03*
X175260000Y-83820000D03*
X172720000Y-83820000D03*
X175260000Y-86360000D03*
X172720000Y-86360000D03*
X175260000Y-88900000D03*
X172720000Y-88900000D03*
X175260000Y-91440000D03*
X172720000Y-91440000D03*
X175260000Y-93980000D03*
X172720000Y-93980000D03*
X175260000Y-96520000D03*
X172720000Y-96520000D03*
X175260000Y-99060000D03*
X172720000Y-99060000D03*
X175260000Y-101600000D03*
X172720000Y-101600000D03*
X175260000Y-104140000D03*
X172720000Y-104140000D03*
X175260000Y-106680000D03*
X172720000Y-106680000D03*
X175260000Y-109220000D03*
X172720000Y-109220000D03*
X175260000Y-111760000D03*
X172720000Y-111760000D03*
X175260000Y-114300000D03*
X172720000Y-114300000D03*
X175260000Y-116840000D03*
X172720000Y-116840000D03*
X175260000Y-119380000D03*
X172720000Y-119380000D03*
X175260000Y-121920000D03*
X172720000Y-121920000D03*
X175260000Y-124460000D03*
X172720000Y-124460000D03*
X175260000Y-127000000D03*
X172720000Y-127000000D03*
X175260000Y-129540000D03*
X172720000Y-129540000D03*
X175260000Y-132080000D03*
X172720000Y-132080000D03*
X175260000Y-134620000D03*
D14*
X172720000Y-134620000D03*
G04 #@! TD*
D12*
G04 #@! TO.C,J45*
X190200000Y-50250000D03*
X190200000Y-140250000D03*
D13*
X190500000Y-55880000D03*
X187960000Y-55880000D03*
X190500000Y-58420000D03*
X187960000Y-58420000D03*
X190500000Y-60960000D03*
X187960000Y-60960000D03*
X190500000Y-63500000D03*
X187960000Y-63500000D03*
X190500000Y-66040000D03*
X187960000Y-66040000D03*
X190500000Y-68580000D03*
X187960000Y-68580000D03*
X190500000Y-71120000D03*
X187960000Y-71120000D03*
X190500000Y-73660000D03*
X187960000Y-73660000D03*
X190500000Y-76200000D03*
X187960000Y-76200000D03*
X190500000Y-78740000D03*
X187960000Y-78740000D03*
X190500000Y-81280000D03*
X187960000Y-81280000D03*
X190500000Y-83820000D03*
X187960000Y-83820000D03*
X190500000Y-86360000D03*
X187960000Y-86360000D03*
X190500000Y-88900000D03*
X187960000Y-88900000D03*
X190500000Y-91440000D03*
X187960000Y-91440000D03*
X190500000Y-93980000D03*
X187960000Y-93980000D03*
X190500000Y-96520000D03*
X187960000Y-96520000D03*
X190500000Y-99060000D03*
X187960000Y-99060000D03*
X190500000Y-101600000D03*
X187960000Y-101600000D03*
X190500000Y-104140000D03*
X187960000Y-104140000D03*
X190500000Y-106680000D03*
X187960000Y-106680000D03*
X190500000Y-109220000D03*
X187960000Y-109220000D03*
X190500000Y-111760000D03*
X187960000Y-111760000D03*
X190500000Y-114300000D03*
X187960000Y-114300000D03*
X190500000Y-116840000D03*
X187960000Y-116840000D03*
X190500000Y-119380000D03*
X187960000Y-119380000D03*
X190500000Y-121920000D03*
X187960000Y-121920000D03*
X190500000Y-124460000D03*
X187960000Y-124460000D03*
X190500000Y-127000000D03*
X187960000Y-127000000D03*
X190500000Y-129540000D03*
X187960000Y-129540000D03*
X190500000Y-132080000D03*
X187960000Y-132080000D03*
X190500000Y-134620000D03*
D14*
X187960000Y-134620000D03*
G04 #@! TD*
D12*
G04 #@! TO.C,J47*
X235920000Y-50250000D03*
X235920000Y-140250000D03*
D13*
X236220000Y-55880000D03*
X233680000Y-55880000D03*
X236220000Y-58420000D03*
X233680000Y-58420000D03*
X236220000Y-60960000D03*
X233680000Y-60960000D03*
X236220000Y-63500000D03*
X233680000Y-63500000D03*
X236220000Y-66040000D03*
X233680000Y-66040000D03*
X236220000Y-68580000D03*
X233680000Y-68580000D03*
X236220000Y-71120000D03*
X233680000Y-71120000D03*
X236220000Y-73660000D03*
X233680000Y-73660000D03*
X236220000Y-76200000D03*
X233680000Y-76200000D03*
X236220000Y-78740000D03*
X233680000Y-78740000D03*
X236220000Y-81280000D03*
X233680000Y-81280000D03*
X236220000Y-83820000D03*
X233680000Y-83820000D03*
X236220000Y-86360000D03*
X233680000Y-86360000D03*
X236220000Y-88900000D03*
X233680000Y-88900000D03*
X236220000Y-91440000D03*
X233680000Y-91440000D03*
X236220000Y-93980000D03*
X233680000Y-93980000D03*
X236220000Y-96520000D03*
X233680000Y-96520000D03*
X236220000Y-99060000D03*
X233680000Y-99060000D03*
X236220000Y-101600000D03*
X233680000Y-101600000D03*
X236220000Y-104140000D03*
X233680000Y-104140000D03*
X236220000Y-106680000D03*
X233680000Y-106680000D03*
X236220000Y-109220000D03*
X233680000Y-109220000D03*
X236220000Y-111760000D03*
X233680000Y-111760000D03*
X236220000Y-114300000D03*
X233680000Y-114300000D03*
X236220000Y-116840000D03*
X233680000Y-116840000D03*
X236220000Y-119380000D03*
X233680000Y-119380000D03*
X236220000Y-121920000D03*
X233680000Y-121920000D03*
X236220000Y-124460000D03*
X233680000Y-124460000D03*
X236220000Y-127000000D03*
X233680000Y-127000000D03*
X236220000Y-129540000D03*
X233680000Y-129540000D03*
X236220000Y-132080000D03*
X233680000Y-132080000D03*
X236220000Y-134620000D03*
D14*
X233680000Y-134620000D03*
G04 #@! TD*
D12*
G04 #@! TO.C,J48*
X251160000Y-50250000D03*
X251160000Y-140250000D03*
D13*
X251460000Y-55880000D03*
X248920000Y-55880000D03*
X251460000Y-58420000D03*
X248920000Y-58420000D03*
X251460000Y-60960000D03*
X248920000Y-60960000D03*
X251460000Y-63500000D03*
X248920000Y-63500000D03*
X251460000Y-66040000D03*
X248920000Y-66040000D03*
X251460000Y-68580000D03*
X248920000Y-68580000D03*
X251460000Y-71120000D03*
X248920000Y-71120000D03*
X251460000Y-73660000D03*
X248920000Y-73660000D03*
X251460000Y-76200000D03*
X248920000Y-76200000D03*
X251460000Y-78740000D03*
X248920000Y-78740000D03*
X251460000Y-81280000D03*
X248920000Y-81280000D03*
X251460000Y-83820000D03*
X248920000Y-83820000D03*
X251460000Y-86360000D03*
X248920000Y-86360000D03*
X251460000Y-88900000D03*
X248920000Y-88900000D03*
X251460000Y-91440000D03*
X248920000Y-91440000D03*
X251460000Y-93980000D03*
X248920000Y-93980000D03*
X251460000Y-96520000D03*
X248920000Y-96520000D03*
X251460000Y-99060000D03*
X248920000Y-99060000D03*
X251460000Y-101600000D03*
X248920000Y-101600000D03*
X251460000Y-104140000D03*
X248920000Y-104140000D03*
X251460000Y-106680000D03*
X248920000Y-106680000D03*
X251460000Y-109220000D03*
X248920000Y-109220000D03*
X251460000Y-111760000D03*
X248920000Y-111760000D03*
X251460000Y-114300000D03*
X248920000Y-114300000D03*
X251460000Y-116840000D03*
X248920000Y-116840000D03*
X251460000Y-119380000D03*
X248920000Y-119380000D03*
X251460000Y-121920000D03*
X248920000Y-121920000D03*
X251460000Y-124460000D03*
X248920000Y-124460000D03*
X251460000Y-127000000D03*
X248920000Y-127000000D03*
X251460000Y-129540000D03*
X248920000Y-129540000D03*
X251460000Y-132080000D03*
X248920000Y-132080000D03*
X251460000Y-134620000D03*
D14*
X248920000Y-134620000D03*
G04 #@! TD*
D12*
G04 #@! TO.C,J49*
X266400000Y-50250000D03*
X266400000Y-140250000D03*
D13*
X266700000Y-55880000D03*
X264160000Y-55880000D03*
X266700000Y-58420000D03*
X264160000Y-58420000D03*
X266700000Y-60960000D03*
X264160000Y-60960000D03*
X266700000Y-63500000D03*
X264160000Y-63500000D03*
X266700000Y-66040000D03*
X264160000Y-66040000D03*
X266700000Y-68580000D03*
X264160000Y-68580000D03*
X266700000Y-71120000D03*
X264160000Y-71120000D03*
X266700000Y-73660000D03*
X264160000Y-73660000D03*
X266700000Y-76200000D03*
X264160000Y-76200000D03*
X266700000Y-78740000D03*
X264160000Y-78740000D03*
X266700000Y-81280000D03*
X264160000Y-81280000D03*
X266700000Y-83820000D03*
X264160000Y-83820000D03*
X266700000Y-86360000D03*
X264160000Y-86360000D03*
X266700000Y-88900000D03*
X264160000Y-88900000D03*
X266700000Y-91440000D03*
X264160000Y-91440000D03*
X266700000Y-93980000D03*
X264160000Y-93980000D03*
X266700000Y-96520000D03*
X264160000Y-96520000D03*
X266700000Y-99060000D03*
X264160000Y-99060000D03*
X266700000Y-101600000D03*
X264160000Y-101600000D03*
X266700000Y-104140000D03*
X264160000Y-104140000D03*
X266700000Y-106680000D03*
X264160000Y-106680000D03*
X266700000Y-109220000D03*
X264160000Y-109220000D03*
X266700000Y-111760000D03*
X264160000Y-111760000D03*
X266700000Y-114300000D03*
X264160000Y-114300000D03*
X266700000Y-116840000D03*
X264160000Y-116840000D03*
X266700000Y-119380000D03*
X264160000Y-119380000D03*
X266700000Y-121920000D03*
X264160000Y-121920000D03*
X266700000Y-124460000D03*
X264160000Y-124460000D03*
X266700000Y-127000000D03*
X264160000Y-127000000D03*
X266700000Y-129540000D03*
X264160000Y-129540000D03*
X266700000Y-132080000D03*
X264160000Y-132080000D03*
X266700000Y-134620000D03*
D14*
X264160000Y-134620000D03*
G04 #@! TD*
D12*
G04 #@! TO.C,J50*
X281640000Y-50250000D03*
X281640000Y-140250000D03*
D13*
X281940000Y-55880000D03*
X279400000Y-55880000D03*
X281940000Y-58420000D03*
X279400000Y-58420000D03*
X281940000Y-60960000D03*
X279400000Y-60960000D03*
X281940000Y-63500000D03*
X279400000Y-63500000D03*
X281940000Y-66040000D03*
X279400000Y-66040000D03*
X281940000Y-68580000D03*
X279400000Y-68580000D03*
X281940000Y-71120000D03*
X279400000Y-71120000D03*
X281940000Y-73660000D03*
X279400000Y-73660000D03*
X281940000Y-76200000D03*
X279400000Y-76200000D03*
X281940000Y-78740000D03*
X279400000Y-78740000D03*
X281940000Y-81280000D03*
X279400000Y-81280000D03*
X281940000Y-83820000D03*
X279400000Y-83820000D03*
X281940000Y-86360000D03*
X279400000Y-86360000D03*
X281940000Y-88900000D03*
X279400000Y-88900000D03*
X281940000Y-91440000D03*
X279400000Y-91440000D03*
X281940000Y-93980000D03*
X279400000Y-93980000D03*
X281940000Y-96520000D03*
X279400000Y-96520000D03*
X281940000Y-99060000D03*
X279400000Y-99060000D03*
X281940000Y-101600000D03*
X279400000Y-101600000D03*
X281940000Y-104140000D03*
X279400000Y-104140000D03*
X281940000Y-106680000D03*
X279400000Y-106680000D03*
X281940000Y-109220000D03*
X279400000Y-109220000D03*
X281940000Y-111760000D03*
X279400000Y-111760000D03*
X281940000Y-114300000D03*
X279400000Y-114300000D03*
X281940000Y-116840000D03*
X279400000Y-116840000D03*
X281940000Y-119380000D03*
X279400000Y-119380000D03*
X281940000Y-121920000D03*
X279400000Y-121920000D03*
X281940000Y-124460000D03*
X279400000Y-124460000D03*
X281940000Y-127000000D03*
X279400000Y-127000000D03*
X281940000Y-129540000D03*
X279400000Y-129540000D03*
X281940000Y-132080000D03*
X279400000Y-132080000D03*
X281940000Y-134620000D03*
D14*
X279400000Y-134620000D03*
G04 #@! TD*
D12*
G04 #@! TO.C,J51*
X296880000Y-50250000D03*
X296880000Y-140250000D03*
D13*
X297180000Y-55880000D03*
X294640000Y-55880000D03*
X297180000Y-58420000D03*
X294640000Y-58420000D03*
X297180000Y-60960000D03*
X294640000Y-60960000D03*
X297180000Y-63500000D03*
X294640000Y-63500000D03*
X297180000Y-66040000D03*
X294640000Y-66040000D03*
X297180000Y-68580000D03*
X294640000Y-68580000D03*
X297180000Y-71120000D03*
X294640000Y-71120000D03*
X297180000Y-73660000D03*
X294640000Y-73660000D03*
X297180000Y-76200000D03*
X294640000Y-76200000D03*
X297180000Y-78740000D03*
X294640000Y-78740000D03*
X297180000Y-81280000D03*
X294640000Y-81280000D03*
X297180000Y-83820000D03*
X294640000Y-83820000D03*
X297180000Y-86360000D03*
X294640000Y-86360000D03*
X297180000Y-88900000D03*
X294640000Y-88900000D03*
X297180000Y-91440000D03*
X294640000Y-91440000D03*
X297180000Y-93980000D03*
X294640000Y-93980000D03*
X297180000Y-96520000D03*
X294640000Y-96520000D03*
X297180000Y-99060000D03*
X294640000Y-99060000D03*
X297180000Y-101600000D03*
X294640000Y-101600000D03*
X297180000Y-104140000D03*
X294640000Y-104140000D03*
X297180000Y-106680000D03*
X294640000Y-106680000D03*
X297180000Y-109220000D03*
X294640000Y-109220000D03*
X297180000Y-111760000D03*
X294640000Y-111760000D03*
X297180000Y-114300000D03*
X294640000Y-114300000D03*
X297180000Y-116840000D03*
X294640000Y-116840000D03*
X297180000Y-119380000D03*
X294640000Y-119380000D03*
X297180000Y-121920000D03*
X294640000Y-121920000D03*
X297180000Y-124460000D03*
X294640000Y-124460000D03*
X297180000Y-127000000D03*
X294640000Y-127000000D03*
X297180000Y-129540000D03*
X294640000Y-129540000D03*
X297180000Y-132080000D03*
X294640000Y-132080000D03*
X297180000Y-134620000D03*
D14*
X294640000Y-134620000D03*
G04 #@! TD*
D12*
G04 #@! TO.C,J52*
X312120000Y-50250000D03*
X312120000Y-140250000D03*
D13*
X312420000Y-55880000D03*
X309880000Y-55880000D03*
X312420000Y-58420000D03*
X309880000Y-58420000D03*
X312420000Y-60960000D03*
X309880000Y-60960000D03*
X312420000Y-63500000D03*
X309880000Y-63500000D03*
X312420000Y-66040000D03*
X309880000Y-66040000D03*
X312420000Y-68580000D03*
X309880000Y-68580000D03*
X312420000Y-71120000D03*
X309880000Y-71120000D03*
X312420000Y-73660000D03*
X309880000Y-73660000D03*
X312420000Y-76200000D03*
X309880000Y-76200000D03*
X312420000Y-78740000D03*
X309880000Y-78740000D03*
X312420000Y-81280000D03*
X309880000Y-81280000D03*
X312420000Y-83820000D03*
X309880000Y-83820000D03*
X312420000Y-86360000D03*
X309880000Y-86360000D03*
X312420000Y-88900000D03*
X309880000Y-88900000D03*
X312420000Y-91440000D03*
X309880000Y-91440000D03*
X312420000Y-93980000D03*
X309880000Y-93980000D03*
X312420000Y-96520000D03*
X309880000Y-96520000D03*
X312420000Y-99060000D03*
X309880000Y-99060000D03*
X312420000Y-101600000D03*
X309880000Y-101600000D03*
X312420000Y-104140000D03*
X309880000Y-104140000D03*
X312420000Y-106680000D03*
X309880000Y-106680000D03*
X312420000Y-109220000D03*
X309880000Y-109220000D03*
X312420000Y-111760000D03*
X309880000Y-111760000D03*
X312420000Y-114300000D03*
X309880000Y-114300000D03*
X312420000Y-116840000D03*
X309880000Y-116840000D03*
X312420000Y-119380000D03*
X309880000Y-119380000D03*
X312420000Y-121920000D03*
X309880000Y-121920000D03*
X312420000Y-124460000D03*
X309880000Y-124460000D03*
X312420000Y-127000000D03*
X309880000Y-127000000D03*
X312420000Y-129540000D03*
X309880000Y-129540000D03*
X312420000Y-132080000D03*
X309880000Y-132080000D03*
X312420000Y-134620000D03*
D14*
X309880000Y-134620000D03*
G04 #@! TD*
D12*
G04 #@! TO.C,J53*
X327360000Y-50250000D03*
X327360000Y-140250000D03*
D13*
X327660000Y-55880000D03*
X325120000Y-55880000D03*
X327660000Y-58420000D03*
X325120000Y-58420000D03*
X327660000Y-60960000D03*
X325120000Y-60960000D03*
X327660000Y-63500000D03*
X325120000Y-63500000D03*
X327660000Y-66040000D03*
X325120000Y-66040000D03*
X327660000Y-68580000D03*
X325120000Y-68580000D03*
X327660000Y-71120000D03*
X325120000Y-71120000D03*
X327660000Y-73660000D03*
X325120000Y-73660000D03*
X327660000Y-76200000D03*
X325120000Y-76200000D03*
X327660000Y-78740000D03*
X325120000Y-78740000D03*
X327660000Y-81280000D03*
X325120000Y-81280000D03*
X327660000Y-83820000D03*
X325120000Y-83820000D03*
X327660000Y-86360000D03*
X325120000Y-86360000D03*
X327660000Y-88900000D03*
X325120000Y-88900000D03*
X327660000Y-91440000D03*
X325120000Y-91440000D03*
X327660000Y-93980000D03*
X325120000Y-93980000D03*
X327660000Y-96520000D03*
X325120000Y-96520000D03*
X327660000Y-99060000D03*
X325120000Y-99060000D03*
X327660000Y-101600000D03*
X325120000Y-101600000D03*
X327660000Y-104140000D03*
X325120000Y-104140000D03*
X327660000Y-106680000D03*
X325120000Y-106680000D03*
X327660000Y-109220000D03*
X325120000Y-109220000D03*
X327660000Y-111760000D03*
X325120000Y-111760000D03*
X327660000Y-114300000D03*
X325120000Y-114300000D03*
X327660000Y-116840000D03*
X325120000Y-116840000D03*
X327660000Y-119380000D03*
X325120000Y-119380000D03*
X327660000Y-121920000D03*
X325120000Y-121920000D03*
X327660000Y-124460000D03*
X325120000Y-124460000D03*
X327660000Y-127000000D03*
X325120000Y-127000000D03*
X327660000Y-129540000D03*
X325120000Y-129540000D03*
X327660000Y-132080000D03*
X325120000Y-132080000D03*
X327660000Y-134620000D03*
D14*
X325120000Y-134620000D03*
G04 #@! TD*
D12*
G04 #@! TO.C,J54*
X342600000Y-50250000D03*
X342600000Y-140250000D03*
D13*
X342900000Y-55880000D03*
X340360000Y-55880000D03*
X342900000Y-58420000D03*
X340360000Y-58420000D03*
X342900000Y-60960000D03*
X340360000Y-60960000D03*
X342900000Y-63500000D03*
X340360000Y-63500000D03*
X342900000Y-66040000D03*
X340360000Y-66040000D03*
X342900000Y-68580000D03*
X340360000Y-68580000D03*
X342900000Y-71120000D03*
X340360000Y-71120000D03*
X342900000Y-73660000D03*
X340360000Y-73660000D03*
X342900000Y-76200000D03*
X340360000Y-76200000D03*
X342900000Y-78740000D03*
X340360000Y-78740000D03*
X342900000Y-81280000D03*
X340360000Y-81280000D03*
X342900000Y-83820000D03*
X340360000Y-83820000D03*
X342900000Y-86360000D03*
X340360000Y-86360000D03*
X342900000Y-88900000D03*
X340360000Y-88900000D03*
X342900000Y-91440000D03*
X340360000Y-91440000D03*
X342900000Y-93980000D03*
X340360000Y-93980000D03*
X342900000Y-96520000D03*
X340360000Y-96520000D03*
X342900000Y-99060000D03*
X340360000Y-99060000D03*
X342900000Y-101600000D03*
X340360000Y-101600000D03*
X342900000Y-104140000D03*
X340360000Y-104140000D03*
X342900000Y-106680000D03*
X340360000Y-106680000D03*
X342900000Y-109220000D03*
X340360000Y-109220000D03*
X342900000Y-111760000D03*
X340360000Y-111760000D03*
X342900000Y-114300000D03*
X340360000Y-114300000D03*
X342900000Y-116840000D03*
X340360000Y-116840000D03*
X342900000Y-119380000D03*
X340360000Y-119380000D03*
X342900000Y-121920000D03*
X340360000Y-121920000D03*
X342900000Y-124460000D03*
X340360000Y-124460000D03*
X342900000Y-127000000D03*
X340360000Y-127000000D03*
X342900000Y-129540000D03*
X340360000Y-129540000D03*
X342900000Y-132080000D03*
X340360000Y-132080000D03*
X342900000Y-134620000D03*
D14*
X340360000Y-134620000D03*
G04 #@! TD*
D12*
G04 #@! TO.C,J55*
X357840000Y-50250000D03*
X357840000Y-140250000D03*
D13*
X358140000Y-55880000D03*
X355600000Y-55880000D03*
X358140000Y-58420000D03*
X355600000Y-58420000D03*
X358140000Y-60960000D03*
X355600000Y-60960000D03*
X358140000Y-63500000D03*
X355600000Y-63500000D03*
X358140000Y-66040000D03*
X355600000Y-66040000D03*
X358140000Y-68580000D03*
X355600000Y-68580000D03*
X358140000Y-71120000D03*
X355600000Y-71120000D03*
X358140000Y-73660000D03*
X355600000Y-73660000D03*
X358140000Y-76200000D03*
X355600000Y-76200000D03*
X358140000Y-78740000D03*
X355600000Y-78740000D03*
X358140000Y-81280000D03*
X355600000Y-81280000D03*
X358140000Y-83820000D03*
X355600000Y-83820000D03*
X358140000Y-86360000D03*
X355600000Y-86360000D03*
X358140000Y-88900000D03*
X355600000Y-88900000D03*
X358140000Y-91440000D03*
X355600000Y-91440000D03*
X358140000Y-93980000D03*
X355600000Y-93980000D03*
X358140000Y-96520000D03*
X355600000Y-96520000D03*
X358140000Y-99060000D03*
X355600000Y-99060000D03*
X358140000Y-101600000D03*
X355600000Y-101600000D03*
X358140000Y-104140000D03*
X355600000Y-104140000D03*
X358140000Y-106680000D03*
X355600000Y-106680000D03*
X358140000Y-109220000D03*
X355600000Y-109220000D03*
X358140000Y-111760000D03*
X355600000Y-111760000D03*
X358140000Y-114300000D03*
X355600000Y-114300000D03*
X358140000Y-116840000D03*
X355600000Y-116840000D03*
X358140000Y-119380000D03*
X355600000Y-119380000D03*
X358140000Y-121920000D03*
X355600000Y-121920000D03*
X358140000Y-124460000D03*
X355600000Y-124460000D03*
X358140000Y-127000000D03*
X355600000Y-127000000D03*
X358140000Y-129540000D03*
X355600000Y-129540000D03*
X358140000Y-132080000D03*
X355600000Y-132080000D03*
X358140000Y-134620000D03*
D14*
X355600000Y-134620000D03*
G04 #@! TD*
D12*
G04 #@! TO.C,J56*
X373080000Y-50250000D03*
X373080000Y-140250000D03*
D13*
X373380000Y-55880000D03*
X370840000Y-55880000D03*
X373380000Y-58420000D03*
X370840000Y-58420000D03*
X373380000Y-60960000D03*
X370840000Y-60960000D03*
X373380000Y-63500000D03*
X370840000Y-63500000D03*
X373380000Y-66040000D03*
X370840000Y-66040000D03*
X373380000Y-68580000D03*
X370840000Y-68580000D03*
X373380000Y-71120000D03*
X370840000Y-71120000D03*
X373380000Y-73660000D03*
X370840000Y-73660000D03*
X373380000Y-76200000D03*
X370840000Y-76200000D03*
X373380000Y-78740000D03*
X370840000Y-78740000D03*
X373380000Y-81280000D03*
X370840000Y-81280000D03*
X373380000Y-83820000D03*
X370840000Y-83820000D03*
X373380000Y-86360000D03*
X370840000Y-86360000D03*
X373380000Y-88900000D03*
X370840000Y-88900000D03*
X373380000Y-91440000D03*
X370840000Y-91440000D03*
X373380000Y-93980000D03*
X370840000Y-93980000D03*
X373380000Y-96520000D03*
X370840000Y-96520000D03*
X373380000Y-99060000D03*
X370840000Y-99060000D03*
X373380000Y-101600000D03*
X370840000Y-101600000D03*
X373380000Y-104140000D03*
X370840000Y-104140000D03*
X373380000Y-106680000D03*
X370840000Y-106680000D03*
X373380000Y-109220000D03*
X370840000Y-109220000D03*
X373380000Y-111760000D03*
X370840000Y-111760000D03*
X373380000Y-114300000D03*
X370840000Y-114300000D03*
X373380000Y-116840000D03*
X370840000Y-116840000D03*
X373380000Y-119380000D03*
X370840000Y-119380000D03*
X373380000Y-121920000D03*
X370840000Y-121920000D03*
X373380000Y-124460000D03*
X370840000Y-124460000D03*
X373380000Y-127000000D03*
X370840000Y-127000000D03*
X373380000Y-129540000D03*
X370840000Y-129540000D03*
X373380000Y-132080000D03*
X370840000Y-132080000D03*
X373380000Y-134620000D03*
D14*
X370840000Y-134620000D03*
G04 #@! TD*
D15*
G04 #@! TO.C,TH21*
X358013000Y-29273500D03*
G04 #@! TD*
G04 #@! TO.C,REF\002A\002A*
X373761000Y-287592000D03*
G04 #@! TD*
M02*
