M48
;DRILL file {KiCad (5.0.0)} date 04/22/19 09:26:03
;FORMAT={-:-/ absolute / inch / decimal}
FMAT,2
INCH,TZ
T1C0.0157
T2C0.0394
T3C0.0512
%
G90
G05
M72
T1
X3.2498Y-3.0418
X4.2023Y-4.1997
X4.7452Y-4.8955
X5.3471Y-4.9109
X5.3861Y-5.6226
X5.55Y-4.5689
X5.9539Y-2.2729
X7.4437Y-4.9513
X7.5352Y-5.371
X7.5538Y-4.1447
X7.7723Y-3.353
X7.8016Y-4.5
X7.8429Y-2.6842
X7.8856Y-5.3423
X7.9218Y-3.3909
X7.923Y-3.2754
X7.9375Y-3.4511
X9.1171Y-3.392
X9.1369Y-5.1477
X9.1413Y-3.3045
X9.1639Y-3.2463
X9.3711Y-4.5215
X9.4198Y-2.7845
X9.4368Y-8.0005
X9.4369Y-7.9099
X9.4804Y-2.9401
X9.4892Y-3.4817
X9.5905Y-5.4036
X9.6832Y-3.7505
X9.7615Y-5.3791
X9.835Y-3.0465
X10.7326Y-5.3463
X10.8Y-5.3497
X10.8122Y-3.4029
X11.3829Y-5.3356
X11.9131Y-5.3415
X12.5362Y-5.3462
X13.1476Y-5.3462
X13.7642Y-5.3462
T2
X12.2Y-2.2
X12.2Y-2.3
X12.2Y-2.4
X12.2Y-2.5
X12.2Y-2.6
X12.2Y-2.7
X12.2Y-2.8
X12.2Y-2.9
X12.2Y-3.
X12.2Y-3.1
X12.2Y-3.2
X12.2Y-3.3
X12.2Y-3.4
X12.2Y-3.5
X12.2Y-3.6
X12.2Y-3.7
X12.2Y-3.8
X12.2Y-3.9
X12.2Y-4.
X12.2Y-4.1
X12.2Y-4.2
X12.2Y-4.3
X12.2Y-4.4
X12.2Y-4.5
X12.2Y-4.6
X12.2Y-4.7
X12.2Y-4.8
X12.2Y-4.9
X12.2Y-5.
X12.2Y-5.1
X12.2Y-5.2
X12.2Y-5.3
X12.3Y-2.2
X12.3Y-2.3
X12.3Y-2.4
X12.3Y-2.5
X12.3Y-2.6
X12.3Y-2.7
X12.3Y-2.8
X12.3Y-2.9
X12.3Y-3.
X12.3Y-3.1
X12.3Y-3.2
X12.3Y-3.3
X12.3Y-3.4
X12.3Y-3.5
X12.3Y-3.6
X12.3Y-3.7
X12.3Y-3.8
X12.3Y-3.9
X12.3Y-4.
X12.3Y-4.1
X12.3Y-4.2
X12.3Y-4.3
X12.3Y-4.4
X12.3Y-4.5
X12.3Y-4.6
X12.3Y-4.7
X12.3Y-4.8
X12.3Y-4.9
X12.3Y-5.
X12.3Y-5.1
X12.3Y-5.2
X12.3Y-5.3
X11.6Y-2.2
X11.6Y-2.3
X11.6Y-2.4
X11.6Y-2.5
X11.6Y-2.6
X11.6Y-2.7
X11.6Y-2.8
X11.6Y-2.9
X11.6Y-3.
X11.6Y-3.1
X11.6Y-3.2
X11.6Y-3.3
X11.6Y-3.4
X11.6Y-3.5
X11.6Y-3.6
X11.6Y-3.7
X11.6Y-3.8
X11.6Y-3.9
X11.6Y-4.
X11.6Y-4.1
X11.6Y-4.2
X11.6Y-4.3
X11.6Y-4.4
X11.6Y-4.5
X11.6Y-4.6
X11.6Y-4.7
X11.6Y-4.8
X11.6Y-4.9
X11.6Y-5.
X11.6Y-5.1
X11.6Y-5.2
X11.6Y-5.3
X11.7Y-2.2
X11.7Y-2.3
X11.7Y-2.4
X11.7Y-2.5
X11.7Y-2.6
X11.7Y-2.7
X11.7Y-2.8
X11.7Y-2.9
X11.7Y-3.
X11.7Y-3.1
X11.7Y-3.2
X11.7Y-3.3
X11.7Y-3.4
X11.7Y-3.5
X11.7Y-3.6
X11.7Y-3.7
X11.7Y-3.8
X11.7Y-3.9
X11.7Y-4.
X11.7Y-4.1
X11.7Y-4.2
X11.7Y-4.3
X11.7Y-4.4
X11.7Y-4.5
X11.7Y-4.6
X11.7Y-4.7
X11.7Y-4.8
X11.7Y-4.9
X11.7Y-5.
X11.7Y-5.1
X11.7Y-5.2
X11.7Y-5.3
X7.4Y-2.2
X7.4Y-2.3
X7.4Y-2.4
X7.4Y-2.5
X7.4Y-2.6
X7.4Y-2.7
X7.4Y-2.8
X7.4Y-2.9
X7.4Y-3.
X7.4Y-3.1
X7.4Y-3.2
X7.4Y-3.3
X7.4Y-3.4
X7.4Y-3.5
X7.4Y-3.6
X7.4Y-3.7
X7.4Y-3.8
X7.4Y-3.9
X7.4Y-4.
X7.4Y-4.1
X7.4Y-4.2
X7.4Y-4.3
X7.4Y-4.4
X7.4Y-4.5
X7.4Y-4.6
X7.4Y-4.7
X7.4Y-4.8
X7.4Y-4.9
X7.4Y-5.
X7.4Y-5.1
X7.4Y-5.2
X7.4Y-5.3
X7.5Y-2.2
X7.5Y-2.3
X7.5Y-2.4
X7.5Y-2.5
X7.5Y-2.6
X7.5Y-2.7
X7.5Y-2.8
X7.5Y-2.9
X7.5Y-3.
X7.5Y-3.1
X7.5Y-3.2
X7.5Y-3.3
X7.5Y-3.4
X7.5Y-3.5
X7.5Y-3.6
X7.5Y-3.7
X7.5Y-3.8
X7.5Y-3.9
X7.5Y-4.
X7.5Y-4.1
X7.5Y-4.2
X7.5Y-4.3
X7.5Y-4.4
X7.5Y-4.5
X7.5Y-4.6
X7.5Y-4.7
X7.5Y-4.8
X7.5Y-4.9
X7.5Y-5.
X7.5Y-5.1
X7.5Y-5.2
X7.5Y-5.3
X6.2Y-2.2
X6.2Y-2.3
X6.2Y-2.4
X6.2Y-2.5
X6.2Y-2.6
X6.2Y-2.7
X6.2Y-2.8
X6.2Y-2.9
X6.2Y-3.
X6.2Y-3.1
X6.2Y-3.2
X6.2Y-3.3
X6.2Y-3.4
X6.2Y-3.5
X6.2Y-3.6
X6.2Y-3.7
X6.2Y-3.8
X6.2Y-3.9
X6.2Y-4.
X6.2Y-4.1
X6.2Y-4.2
X6.2Y-4.3
X6.2Y-4.4
X6.2Y-4.5
X6.2Y-4.6
X6.2Y-4.7
X6.2Y-4.8
X6.2Y-4.9
X6.2Y-5.
X6.2Y-5.1
X6.2Y-5.2
X6.2Y-5.3
X6.3Y-2.2
X6.3Y-2.3
X6.3Y-2.4
X6.3Y-2.5
X6.3Y-2.6
X6.3Y-2.7
X6.3Y-2.8
X6.3Y-2.9
X6.3Y-3.
X6.3Y-3.1
X6.3Y-3.2
X6.3Y-3.3
X6.3Y-3.4
X6.3Y-3.5
X6.3Y-3.6
X6.3Y-3.7
X6.3Y-3.8
X6.3Y-3.9
X6.3Y-4.
X6.3Y-4.1
X6.3Y-4.2
X6.3Y-4.3
X6.3Y-4.4
X6.3Y-4.5
X6.3Y-4.6
X6.3Y-4.7
X6.3Y-4.8
X6.3Y-4.9
X6.3Y-5.
X6.3Y-5.1
X6.3Y-5.2
X6.3Y-5.3
X12.8Y-2.2
X12.8Y-2.3
X12.8Y-2.4
X12.8Y-2.5
X12.8Y-2.6
X12.8Y-2.7
X12.8Y-2.8
X12.8Y-2.9
X12.8Y-3.
X12.8Y-3.1
X12.8Y-3.2
X12.8Y-3.3
X12.8Y-3.4
X12.8Y-3.5
X12.8Y-3.6
X12.8Y-3.7
X12.8Y-3.8
X12.8Y-3.9
X12.8Y-4.
X12.8Y-4.1
X12.8Y-4.2
X12.8Y-4.3
X12.8Y-4.4
X12.8Y-4.5
X12.8Y-4.6
X12.8Y-4.7
X12.8Y-4.8
X12.8Y-4.9
X12.8Y-5.
X12.8Y-5.1
X12.8Y-5.2
X12.8Y-5.3
X12.9Y-2.2
X12.9Y-2.3
X12.9Y-2.4
X12.9Y-2.5
X12.9Y-2.6
X12.9Y-2.7
X12.9Y-2.8
X12.9Y-2.9
X12.9Y-3.
X12.9Y-3.1
X12.9Y-3.2
X12.9Y-3.3
X12.9Y-3.4
X12.9Y-3.5
X12.9Y-3.6
X12.9Y-3.7
X12.9Y-3.8
X12.9Y-3.9
X12.9Y-4.
X12.9Y-4.1
X12.9Y-4.2
X12.9Y-4.3
X12.9Y-4.4
X12.9Y-4.5
X12.9Y-4.6
X12.9Y-4.7
X12.9Y-4.8
X12.9Y-4.9
X12.9Y-5.
X12.9Y-5.1
X12.9Y-5.2
X12.9Y-5.3
X3.2Y-2.2
X3.2Y-2.3
X3.2Y-2.4
X3.2Y-2.5
X3.2Y-2.6
X3.2Y-2.7
X3.2Y-2.8
X3.2Y-2.9
X3.2Y-3.
X3.2Y-3.1
X3.2Y-3.2
X3.2Y-3.3
X3.2Y-3.4
X3.2Y-3.5
X3.2Y-3.6
X3.2Y-3.7
X3.2Y-3.8
X3.2Y-3.9
X3.2Y-4.
X3.2Y-4.1
X3.2Y-4.2
X3.2Y-4.3
X3.2Y-4.4
X3.2Y-4.5
X3.2Y-4.6
X3.2Y-4.7
X3.2Y-4.8
X3.2Y-4.9
X3.2Y-5.
X3.2Y-5.1
X3.2Y-5.2
X3.2Y-5.3
X3.3Y-2.2
X3.3Y-2.3
X3.3Y-2.4
X3.3Y-2.5
X3.3Y-2.6
X3.3Y-2.7
X3.3Y-2.8
X3.3Y-2.9
X3.3Y-3.
X3.3Y-3.1
X3.3Y-3.2
X3.3Y-3.3
X3.3Y-3.4
X3.3Y-3.5
X3.3Y-3.6
X3.3Y-3.7
X3.3Y-3.8
X3.3Y-3.9
X3.3Y-4.
X3.3Y-4.1
X3.3Y-4.2
X3.3Y-4.3
X3.3Y-4.4
X3.3Y-4.5
X3.3Y-4.6
X3.3Y-4.7
X3.3Y-4.8
X3.3Y-4.9
X3.3Y-5.
X3.3Y-5.1
X3.3Y-5.2
X3.3Y-5.3
X11.Y-2.2
X11.Y-2.3
X11.Y-2.4
X11.Y-2.5
X11.Y-2.6
X11.Y-2.7
X11.Y-2.8
X11.Y-2.9
X11.Y-3.
X11.Y-3.1
X11.Y-3.2
X11.Y-3.3
X11.Y-3.4
X11.Y-3.5
X11.Y-3.6
X11.Y-3.7
X11.Y-3.8
X11.Y-3.9
X11.Y-4.
X11.Y-4.1
X11.Y-4.2
X11.Y-4.3
X11.Y-4.4
X11.Y-4.5
X11.Y-4.6
X11.Y-4.7
X11.Y-4.8
X11.Y-4.9
X11.Y-5.
X11.Y-5.1
X11.Y-5.2
X11.Y-5.3
X11.1Y-2.2
X11.1Y-2.3
X11.1Y-2.4
X11.1Y-2.5
X11.1Y-2.6
X11.1Y-2.7
X11.1Y-2.8
X11.1Y-2.9
X11.1Y-3.
X11.1Y-3.1
X11.1Y-3.2
X11.1Y-3.3
X11.1Y-3.4
X11.1Y-3.5
X11.1Y-3.6
X11.1Y-3.7
X11.1Y-3.8
X11.1Y-3.9
X11.1Y-4.
X11.1Y-4.1
X11.1Y-4.2
X11.1Y-4.3
X11.1Y-4.4
X11.1Y-4.5
X11.1Y-4.6
X11.1Y-4.7
X11.1Y-4.8
X11.1Y-4.9
X11.1Y-5.
X11.1Y-5.1
X11.1Y-5.2
X11.1Y-5.3
X2.6Y-2.2
X2.6Y-2.3
X2.6Y-2.4
X2.6Y-2.5
X2.6Y-2.6
X2.6Y-2.7
X2.6Y-2.8
X2.6Y-2.9
X2.6Y-3.
X2.6Y-3.1
X2.6Y-3.2
X2.6Y-3.3
X2.6Y-3.4
X2.6Y-3.5
X2.6Y-3.6
X2.6Y-3.7
X2.6Y-3.8
X2.6Y-3.9
X2.6Y-4.
X2.6Y-4.1
X2.6Y-4.2
X2.6Y-4.3
X2.6Y-4.4
X2.6Y-4.5
X2.6Y-4.6
X2.6Y-4.7
X2.6Y-4.8
X2.6Y-4.9
X2.6Y-5.
X2.6Y-5.1
X2.6Y-5.2
X2.6Y-5.3
X2.7Y-2.2
X2.7Y-2.3
X2.7Y-2.4
X2.7Y-2.5
X2.7Y-2.6
X2.7Y-2.7
X2.7Y-2.8
X2.7Y-2.9
X2.7Y-3.
X2.7Y-3.1
X2.7Y-3.2
X2.7Y-3.3
X2.7Y-3.4
X2.7Y-3.5
X2.7Y-3.6
X2.7Y-3.7
X2.7Y-3.8
X2.7Y-3.9
X2.7Y-4.
X2.7Y-4.1
X2.7Y-4.2
X2.7Y-4.3
X2.7Y-4.4
X2.7Y-4.5
X2.7Y-4.6
X2.7Y-4.7
X2.7Y-4.8
X2.7Y-4.9
X2.7Y-5.
X2.7Y-5.1
X2.7Y-5.2
X2.7Y-5.3
X13.4Y-2.2
X13.4Y-2.3
X13.4Y-2.4
X13.4Y-2.5
X13.4Y-2.6
X13.4Y-2.7
X13.4Y-2.8
X13.4Y-2.9
X13.4Y-3.
X13.4Y-3.1
X13.4Y-3.2
X13.4Y-3.3
X13.4Y-3.4
X13.4Y-3.5
X13.4Y-3.6
X13.4Y-3.7
X13.4Y-3.8
X13.4Y-3.9
X13.4Y-4.
X13.4Y-4.1
X13.4Y-4.2
X13.4Y-4.3
X13.4Y-4.4
X13.4Y-4.5
X13.4Y-4.6
X13.4Y-4.7
X13.4Y-4.8
X13.4Y-4.9
X13.4Y-5.
X13.4Y-5.1
X13.4Y-5.2
X13.4Y-5.3
X13.5Y-2.2
X13.5Y-2.3
X13.5Y-2.4
X13.5Y-2.5
X13.5Y-2.6
X13.5Y-2.7
X13.5Y-2.8
X13.5Y-2.9
X13.5Y-3.
X13.5Y-3.1
X13.5Y-3.2
X13.5Y-3.3
X13.5Y-3.4
X13.5Y-3.5
X13.5Y-3.6
X13.5Y-3.7
X13.5Y-3.8
X13.5Y-3.9
X13.5Y-4.
X13.5Y-4.1
X13.5Y-4.2
X13.5Y-4.3
X13.5Y-4.4
X13.5Y-4.5
X13.5Y-4.6
X13.5Y-4.7
X13.5Y-4.8
X13.5Y-4.9
X13.5Y-5.
X13.5Y-5.1
X13.5Y-5.2
X13.5Y-5.3
X4.4Y-2.2
X4.4Y-2.3
X4.4Y-2.4
X4.4Y-2.5
X4.4Y-2.6
X4.4Y-2.7
X4.4Y-2.8
X4.4Y-2.9
X4.4Y-3.
X4.4Y-3.1
X4.4Y-3.2
X4.4Y-3.3
X4.4Y-3.4
X4.4Y-3.5
X4.4Y-3.6
X4.4Y-3.7
X4.4Y-3.8
X4.4Y-3.9
X4.4Y-4.
X4.4Y-4.1
X4.4Y-4.2
X4.4Y-4.3
X4.4Y-4.4
X4.4Y-4.5
X4.4Y-4.6
X4.4Y-4.7
X4.4Y-4.8
X4.4Y-4.9
X4.4Y-5.
X4.4Y-5.1
X4.4Y-5.2
X4.4Y-5.3
X4.5Y-2.2
X4.5Y-2.3
X4.5Y-2.4
X4.5Y-2.5
X4.5Y-2.6
X4.5Y-2.7
X4.5Y-2.8
X4.5Y-2.9
X4.5Y-3.
X4.5Y-3.1
X4.5Y-3.2
X4.5Y-3.3
X4.5Y-3.4
X4.5Y-3.5
X4.5Y-3.6
X4.5Y-3.7
X4.5Y-3.8
X4.5Y-3.9
X4.5Y-4.
X4.5Y-4.1
X4.5Y-4.2
X4.5Y-4.3
X4.5Y-4.4
X4.5Y-4.5
X4.5Y-4.6
X4.5Y-4.7
X4.5Y-4.8
X4.5Y-4.9
X4.5Y-5.
X4.5Y-5.1
X4.5Y-5.2
X4.5Y-5.3
X14.6Y-2.2
X14.6Y-2.3
X14.6Y-2.4
X14.6Y-2.5
X14.6Y-2.6
X14.6Y-2.7
X14.6Y-2.8
X14.6Y-2.9
X14.6Y-3.
X14.6Y-3.1
X14.6Y-3.2
X14.6Y-3.3
X14.6Y-3.4
X14.6Y-3.5
X14.6Y-3.6
X14.6Y-3.7
X14.6Y-3.8
X14.6Y-3.9
X14.6Y-4.
X14.6Y-4.1
X14.6Y-4.2
X14.6Y-4.3
X14.6Y-4.4
X14.6Y-4.5
X14.6Y-4.6
X14.6Y-4.7
X14.6Y-4.8
X14.6Y-4.9
X14.6Y-5.
X14.6Y-5.1
X14.6Y-5.2
X14.6Y-5.3
X14.7Y-2.2
X14.7Y-2.3
X14.7Y-2.4
X14.7Y-2.5
X14.7Y-2.6
X14.7Y-2.7
X14.7Y-2.8
X14.7Y-2.9
X14.7Y-3.
X14.7Y-3.1
X14.7Y-3.2
X14.7Y-3.3
X14.7Y-3.4
X14.7Y-3.5
X14.7Y-3.6
X14.7Y-3.7
X14.7Y-3.8
X14.7Y-3.9
X14.7Y-4.
X14.7Y-4.1
X14.7Y-4.2
X14.7Y-4.3
X14.7Y-4.4
X14.7Y-4.5
X14.7Y-4.6
X14.7Y-4.7
X14.7Y-4.8
X14.7Y-4.9
X14.7Y-5.
X14.7Y-5.1
X14.7Y-5.2
X14.7Y-5.3
X5.Y-2.2
X5.Y-2.3
X5.Y-2.4
X5.Y-2.5
X5.Y-2.6
X5.Y-2.7
X5.Y-2.8
X5.Y-2.9
X5.Y-3.
X5.Y-3.1
X5.Y-3.2
X5.Y-3.3
X5.Y-3.4
X5.Y-3.5
X5.Y-3.6
X5.Y-3.7
X5.Y-3.8
X5.Y-3.9
X5.Y-4.
X5.Y-4.1
X5.Y-4.2
X5.Y-4.3
X5.Y-4.4
X5.Y-4.5
X5.Y-4.6
X5.Y-4.7
X5.Y-4.8
X5.Y-4.9
X5.Y-5.
X5.Y-5.1
X5.Y-5.2
X5.Y-5.3
X5.1Y-2.2
X5.1Y-2.3
X5.1Y-2.4
X5.1Y-2.5
X5.1Y-2.6
X5.1Y-2.7
X5.1Y-2.8
X5.1Y-2.9
X5.1Y-3.
X5.1Y-3.1
X5.1Y-3.2
X5.1Y-3.3
X5.1Y-3.4
X5.1Y-3.5
X5.1Y-3.6
X5.1Y-3.7
X5.1Y-3.8
X5.1Y-3.9
X5.1Y-4.
X5.1Y-4.1
X5.1Y-4.2
X5.1Y-4.3
X5.1Y-4.4
X5.1Y-4.5
X5.1Y-4.6
X5.1Y-4.7
X5.1Y-4.8
X5.1Y-4.9
X5.1Y-5.
X5.1Y-5.1
X5.1Y-5.2
X5.1Y-5.3
X10.4Y-2.2
X10.4Y-2.3
X10.4Y-2.4
X10.4Y-2.5
X10.4Y-2.6
X10.4Y-2.7
X10.4Y-2.8
X10.4Y-2.9
X10.4Y-3.
X10.4Y-3.1
X10.4Y-3.2
X10.4Y-3.3
X10.4Y-3.4
X10.4Y-3.5
X10.4Y-3.6
X10.4Y-3.7
X10.4Y-3.8
X10.4Y-3.9
X10.4Y-4.
X10.4Y-4.1
X10.4Y-4.2
X10.4Y-4.3
X10.4Y-4.4
X10.4Y-4.5
X10.4Y-4.6
X10.4Y-4.7
X10.4Y-4.8
X10.4Y-4.9
X10.4Y-5.
X10.4Y-5.1
X10.4Y-5.2
X10.4Y-5.3
X10.5Y-2.2
X10.5Y-2.3
X10.5Y-2.4
X10.5Y-2.5
X10.5Y-2.6
X10.5Y-2.7
X10.5Y-2.8
X10.5Y-2.9
X10.5Y-3.
X10.5Y-3.1
X10.5Y-3.2
X10.5Y-3.3
X10.5Y-3.4
X10.5Y-3.5
X10.5Y-3.6
X10.5Y-3.7
X10.5Y-3.8
X10.5Y-3.9
X10.5Y-4.
X10.5Y-4.1
X10.5Y-4.2
X10.5Y-4.3
X10.5Y-4.4
X10.5Y-4.5
X10.5Y-4.6
X10.5Y-4.7
X10.5Y-4.8
X10.5Y-4.9
X10.5Y-5.
X10.5Y-5.1
X10.5Y-5.2
X10.5Y-5.3
X8.Y-2.2
X8.Y-2.3
X8.Y-2.4
X8.Y-2.5
X8.Y-2.6
X8.Y-2.7
X8.Y-2.8
X8.Y-2.9
X8.Y-3.
X8.Y-3.1
X8.Y-3.2
X8.Y-3.3
X8.Y-3.4
X8.Y-3.5
X8.Y-3.6
X8.Y-3.7
X8.Y-3.8
X8.Y-3.9
X8.Y-4.
X8.Y-4.1
X8.Y-4.2
X8.Y-4.3
X8.Y-4.4
X8.Y-4.5
X8.Y-4.6
X8.Y-4.7
X8.Y-4.8
X8.Y-4.9
X8.Y-5.
X8.Y-5.1
X8.Y-5.2
X8.Y-5.3
X8.1Y-2.2
X8.1Y-2.3
X8.1Y-2.4
X8.1Y-2.5
X8.1Y-2.6
X8.1Y-2.7
X8.1Y-2.8
X8.1Y-2.9
X8.1Y-3.
X8.1Y-3.1
X8.1Y-3.2
X8.1Y-3.3
X8.1Y-3.4
X8.1Y-3.5
X8.1Y-3.6
X8.1Y-3.7
X8.1Y-3.8
X8.1Y-3.9
X8.1Y-4.
X8.1Y-4.1
X8.1Y-4.2
X8.1Y-4.3
X8.1Y-4.4
X8.1Y-4.5
X8.1Y-4.6
X8.1Y-4.7
X8.1Y-4.8
X8.1Y-4.9
X8.1Y-5.
X8.1Y-5.1
X8.1Y-5.2
X8.1Y-5.3
X3.8Y-2.2
X3.8Y-2.3
X3.8Y-2.4
X3.8Y-2.5
X3.8Y-2.6
X3.8Y-2.7
X3.8Y-2.8
X3.8Y-2.9
X3.8Y-3.
X3.8Y-3.1
X3.8Y-3.2
X3.8Y-3.3
X3.8Y-3.4
X3.8Y-3.5
X3.8Y-3.6
X3.8Y-3.7
X3.8Y-3.8
X3.8Y-3.9
X3.8Y-4.
X3.8Y-4.1
X3.8Y-4.2
X3.8Y-4.3
X3.8Y-4.4
X3.8Y-4.5
X3.8Y-4.6
X3.8Y-4.7
X3.8Y-4.8
X3.8Y-4.9
X3.8Y-5.
X3.8Y-5.1
X3.8Y-5.2
X3.8Y-5.3
X3.9Y-2.2
X3.9Y-2.3
X3.9Y-2.4
X3.9Y-2.5
X3.9Y-2.6
X3.9Y-2.7
X3.9Y-2.8
X3.9Y-2.9
X3.9Y-3.
X3.9Y-3.1
X3.9Y-3.2
X3.9Y-3.3
X3.9Y-3.4
X3.9Y-3.5
X3.9Y-3.6
X3.9Y-3.7
X3.9Y-3.8
X3.9Y-3.9
X3.9Y-4.
X3.9Y-4.1
X3.9Y-4.2
X3.9Y-4.3
X3.9Y-4.4
X3.9Y-4.5
X3.9Y-4.6
X3.9Y-4.7
X3.9Y-4.8
X3.9Y-4.9
X3.9Y-5.
X3.9Y-5.1
X3.9Y-5.2
X3.9Y-5.3
X14.Y-2.2
X14.Y-2.3
X14.Y-2.4
X14.Y-2.5
X14.Y-2.6
X14.Y-2.7
X14.Y-2.8
X14.Y-2.9
X14.Y-3.
X14.Y-3.1
X14.Y-3.2
X14.Y-3.3
X14.Y-3.4
X14.Y-3.5
X14.Y-3.6
X14.Y-3.7
X14.Y-3.8
X14.Y-3.9
X14.Y-4.
X14.Y-4.1
X14.Y-4.2
X14.Y-4.3
X14.Y-4.4
X14.Y-4.5
X14.Y-4.6
X14.Y-4.7
X14.Y-4.8
X14.Y-4.9
X14.Y-5.
X14.Y-5.1
X14.Y-5.2
X14.Y-5.3
X14.1Y-2.2
X14.1Y-2.3
X14.1Y-2.4
X14.1Y-2.5
X14.1Y-2.6
X14.1Y-2.7
X14.1Y-2.8
X14.1Y-2.9
X14.1Y-3.
X14.1Y-3.1
X14.1Y-3.2
X14.1Y-3.3
X14.1Y-3.4
X14.1Y-3.5
X14.1Y-3.6
X14.1Y-3.7
X14.1Y-3.8
X14.1Y-3.9
X14.1Y-4.
X14.1Y-4.1
X14.1Y-4.2
X14.1Y-4.3
X14.1Y-4.4
X14.1Y-4.5
X14.1Y-4.6
X14.1Y-4.7
X14.1Y-4.8
X14.1Y-4.9
X14.1Y-5.
X14.1Y-5.1
X14.1Y-5.2
X14.1Y-5.3
X9.8Y-2.2
X9.8Y-2.3
X9.8Y-2.4
X9.8Y-2.5
X9.8Y-2.6
X9.8Y-2.7
X9.8Y-2.8
X9.8Y-2.9
X9.8Y-3.
X9.8Y-3.1
X9.8Y-3.2
X9.8Y-3.3
X9.8Y-3.4
X9.8Y-3.5
X9.8Y-3.6
X9.8Y-3.7
X9.8Y-3.8
X9.8Y-3.9
X9.8Y-4.
X9.8Y-4.1
X9.8Y-4.2
X9.8Y-4.3
X9.8Y-4.4
X9.8Y-4.5
X9.8Y-4.6
X9.8Y-4.7
X9.8Y-4.8
X9.8Y-4.9
X9.8Y-5.
X9.8Y-5.1
X9.8Y-5.2
X9.8Y-5.3
X9.9Y-2.2
X9.9Y-2.3
X9.9Y-2.4
X9.9Y-2.5
X9.9Y-2.6
X9.9Y-2.7
X9.9Y-2.8
X9.9Y-2.9
X9.9Y-3.
X9.9Y-3.1
X9.9Y-3.2
X9.9Y-3.3
X9.9Y-3.4
X9.9Y-3.5
X9.9Y-3.6
X9.9Y-3.7
X9.9Y-3.8
X9.9Y-3.9
X9.9Y-4.
X9.9Y-4.1
X9.9Y-4.2
X9.9Y-4.3
X9.9Y-4.4
X9.9Y-4.5
X9.9Y-4.6
X9.9Y-4.7
X9.9Y-4.8
X9.9Y-4.9
X9.9Y-5.
X9.9Y-5.1
X9.9Y-5.2
X9.9Y-5.3
X5.6Y-2.2
X5.6Y-2.3
X5.6Y-2.4
X5.6Y-2.5
X5.6Y-2.6
X5.6Y-2.7
X5.6Y-2.8
X5.6Y-2.9
X5.6Y-3.
X5.6Y-3.1
X5.6Y-3.2
X5.6Y-3.3
X5.6Y-3.4
X5.6Y-3.5
X5.6Y-3.6
X5.6Y-3.7
X5.6Y-3.8
X5.6Y-3.9
X5.6Y-4.
X5.6Y-4.1
X5.6Y-4.2
X5.6Y-4.3
X5.6Y-4.4
X5.6Y-4.5
X5.6Y-4.6
X5.6Y-4.7
X5.6Y-4.8
X5.6Y-4.9
X5.6Y-5.
X5.6Y-5.1
X5.6Y-5.2
X5.6Y-5.2975
X5.7Y-2.2
X5.7Y-2.3
X5.7Y-2.4
X5.7Y-2.5
X5.7Y-2.6
X5.7Y-2.7
X5.7Y-2.8
X5.7Y-2.9
X5.7Y-3.
X5.7Y-3.1
X5.7Y-3.2
X5.7Y-3.3
X5.7Y-3.4
X5.7Y-3.5
X5.7Y-3.6
X5.7Y-3.7
X5.7Y-3.8
X5.7Y-3.9
X5.7Y-4.
X5.7Y-4.1
X5.7Y-4.2
X5.7Y-4.3
X5.7Y-4.4
X5.7Y-4.5
X5.7Y-4.6
X5.7Y-4.7
X5.7Y-4.8
X5.7Y-4.9
X5.7Y-5.
X5.7Y-5.1
X5.7Y-5.2
X5.7Y-5.3
X6.8Y-2.2
X6.8Y-2.3
X6.8Y-2.4
X6.8Y-2.5
X6.8Y-2.6
X6.8Y-2.7
X6.8Y-2.8
X6.8Y-2.9
X6.8Y-3.
X6.8Y-3.1
X6.8Y-3.2
X6.8Y-3.3
X6.8Y-3.4
X6.8Y-3.5
X6.8Y-3.6
X6.8Y-3.7
X6.8Y-3.8
X6.8Y-3.9
X6.8Y-4.
X6.8Y-4.1
X6.8Y-4.2
X6.8Y-4.3
X6.8Y-4.4
X6.8Y-4.5
X6.8Y-4.6
X6.8Y-4.7
X6.8Y-4.8
X6.8Y-4.9
X6.8Y-5.
X6.8Y-5.1
X6.8Y-5.2
X6.8Y-5.3
X6.9Y-2.2
X6.9Y-2.3
X6.9Y-2.4
X6.9Y-2.5
X6.9Y-2.6
X6.9Y-2.7
X6.9Y-2.8
X6.9Y-2.9
X6.9Y-3.
X6.9Y-3.1
X6.9Y-3.2
X6.9Y-3.3
X6.9Y-3.4
X6.9Y-3.5
X6.9Y-3.6
X6.9Y-3.7
X6.9Y-3.8
X6.9Y-3.9
X6.9Y-4.
X6.9Y-4.1
X6.9Y-4.2
X6.9Y-4.3
X6.9Y-4.4
X6.9Y-4.5
X6.9Y-4.6
X6.9Y-4.7
X6.9Y-4.8
X6.9Y-4.9
X6.9Y-5.
X6.9Y-5.1
X6.9Y-5.2
X6.9Y-5.3
X9.2Y-2.2
X9.2Y-2.3
X9.2Y-2.4
X9.2Y-2.5
X9.2Y-2.6
X9.2Y-2.7
X9.2Y-2.8
X9.2Y-2.9
X9.2Y-3.
X9.2Y-3.1
X9.2Y-3.2
X9.2Y-3.3
X9.2Y-3.4
X9.2Y-3.5
X9.2Y-3.6
X9.2Y-3.7
X9.2Y-3.8
X9.2Y-3.9
X9.2Y-4.
X9.2Y-4.1
X9.2Y-4.2
X9.2Y-4.3
X9.2Y-4.4
X9.2Y-4.5
X9.2Y-4.6
X9.2Y-4.7
X9.2Y-4.8
X9.2Y-4.9
X9.2Y-5.
X9.2Y-5.1
X9.2Y-5.2
X9.2Y-5.3
X9.3Y-2.2
X9.3Y-2.3
X9.3Y-2.4
X9.3Y-2.5
X9.3Y-2.6
X9.3Y-2.7
X9.3Y-2.8
X9.3Y-2.9
X9.3Y-3.
X9.3Y-3.1
X9.3Y-3.2
X9.3Y-3.3
X9.3Y-3.4
X9.3Y-3.5
X9.3Y-3.6
X9.3Y-3.7
X9.3Y-3.8
X9.3Y-3.9
X9.3Y-4.
X9.3Y-4.1
X9.3Y-4.2
X9.3Y-4.3
X9.3Y-4.4
X9.3Y-4.5
X9.3Y-4.6
X9.3Y-4.7
X9.3Y-4.8
X9.3Y-4.9
X9.3Y-5.
X9.3Y-5.1
X9.3Y-5.2
X9.3Y-5.3
T3
X5.6Y-9.1
X5.6Y-9.3
X5.6Y-9.5
X5.6Y-9.7
X5.6Y-9.9
X5.6Y-10.1
X5.6Y-10.3
X5.6Y-10.5
X10.4Y-9.1
X10.4Y-9.3
X10.4Y-9.5
X10.4Y-9.7
X10.4Y-9.9
X10.4Y-10.1
X10.4Y-10.3
X10.4Y-10.5
X11.Y-8.4
X11.Y-8.6
X11.Y-8.8
X12.2Y-6.9
X12.2Y-7.1
X12.2Y-7.3
X12.2Y-7.5
X12.2Y-7.7
X12.2Y-7.9
X12.2Y-8.1
X6.2Y-6.9
X6.2Y-7.1
X6.2Y-7.3
X6.2Y-7.5
X6.2Y-7.7
X6.2Y-7.9
X6.2Y-8.1
X2.6Y-6.9
X2.6Y-7.1
X2.6Y-7.3
X2.6Y-7.5
X2.6Y-7.7
X2.6Y-7.9
X2.6Y-8.1
X12.8Y-8.4
X12.8Y-8.6
X12.8Y-8.8
X11.Y-9.1
X11.Y-9.3
X11.Y-9.5
X11.Y-9.7
X11.Y-9.9
X11.Y-10.1
X11.Y-10.3
X11.Y-10.5
X6.8Y-9.1
X6.8Y-9.3
X6.8Y-9.5
X6.8Y-9.7
X6.8Y-9.9
X6.8Y-10.1
X6.8Y-10.3
X6.8Y-10.5
X10.4Y-8.4
X10.4Y-8.6
X10.4Y-8.8
X9.8Y-8.4
X9.8Y-8.6
X9.8Y-8.8
X9.2Y-6.9
X9.2Y-7.1
X9.2Y-7.3
X9.2Y-7.5
X9.2Y-7.7
X9.2Y-7.9
X9.2Y-8.1
X9.2Y-8.3
X9.2Y-8.5
X9.2Y-8.7
X9.2Y-8.9
X9.2Y-9.1
X9.2Y-9.3
X9.2Y-9.5
X9.2Y-9.7
X9.2Y-9.9
X12.8Y-9.1
X12.8Y-9.3
X12.8Y-9.5
X12.8Y-9.7
X12.8Y-9.9
X12.8Y-10.1
X12.8Y-10.3
X12.8Y-10.5
X2.6Y-9.1
X2.6Y-9.3
X2.6Y-9.5
X2.6Y-9.7
X2.6Y-9.9
X2.6Y-10.1
X2.6Y-10.3
X2.6Y-10.5
X9.8Y-9.1
X9.8Y-9.3
X9.8Y-9.5
X9.8Y-9.7
X9.8Y-9.9
X9.8Y-10.1
X9.8Y-10.3
X9.8Y-10.5
X6.2Y-9.1
X6.2Y-9.3
X6.2Y-9.5
X6.2Y-9.7
X6.2Y-9.9
X6.2Y-10.1
X6.2Y-10.3
X6.2Y-10.5
X11.6Y-6.9
X11.6Y-7.1
X11.6Y-7.3
X11.6Y-7.5
X11.6Y-7.7
X11.6Y-7.9
X11.6Y-8.1
X3.8Y-8.4
X3.8Y-8.6
X3.8Y-8.8
X8.Y-6.9
X8.Y-7.1
X8.Y-7.3
X8.Y-7.5
X8.Y-7.7
X8.Y-7.9
X8.Y-8.1
X8.Y-8.3
X8.Y-8.5
X8.Y-8.7
X8.Y-8.9
X8.Y-9.1
X8.Y-9.3
X8.Y-9.5
X8.Y-9.7
X8.Y-9.9
X14.Y-9.1
X14.Y-9.3
X14.Y-9.5
X14.Y-9.7
X14.Y-9.9
X14.Y-10.1
X14.Y-10.3
X14.Y-10.5
X12.2Y-8.4
X12.2Y-8.6
X12.2Y-8.8
X3.2Y-9.1
X3.2Y-9.3
X3.2Y-9.5
X3.2Y-9.7
X3.2Y-9.9
X3.2Y-10.1
X3.2Y-10.3
X3.2Y-10.5
X3.8Y-9.1
X3.8Y-9.3
X3.8Y-9.5
X3.8Y-9.7
X3.8Y-9.9
X3.8Y-10.1
X3.8Y-10.3
X3.8Y-10.5
X7.4Y-6.9
X7.4Y-7.1
X7.4Y-7.3
X7.4Y-7.5
X7.4Y-7.7
X7.4Y-7.9
X7.4Y-8.1
X7.4Y-8.4
X7.4Y-8.6
X7.4Y-8.8
X3.2Y-8.4
X3.2Y-8.6
X3.2Y-8.8
X12.8Y-6.9
X12.8Y-7.1
X12.8Y-7.3
X12.8Y-7.5
X12.8Y-7.7
X12.8Y-7.9
X12.8Y-8.1
X13.4Y-9.1
X13.4Y-9.3
X13.4Y-9.5
X13.4Y-9.7
X13.4Y-9.9
X13.4Y-10.1
X13.4Y-10.3
X13.4Y-10.5
X11.6Y-9.1
X11.6Y-9.3
X11.6Y-9.5
X11.6Y-9.7
X11.6Y-9.9
X11.6Y-10.1
X11.6Y-10.3
X11.6Y-10.5
X4.4Y-9.1
X4.4Y-9.3
X4.4Y-9.5
X4.4Y-9.7
X4.4Y-9.9
X4.4Y-10.1
X4.4Y-10.3
X4.4Y-10.5
X13.4Y-8.4
X13.4Y-8.6
X13.4Y-8.8
X6.8Y-8.4
X6.8Y-8.6
X6.8Y-8.8
X5.6Y-8.4
X5.6Y-8.6
X5.6Y-8.8
X3.8Y-6.9
X3.8Y-7.1
X3.8Y-7.3
X3.8Y-7.5
X3.8Y-7.7
X3.8Y-7.9
X3.8Y-8.1
X2.6Y-8.4
X2.6Y-8.6
X2.6Y-8.8
X6.8Y-6.9
X6.8Y-7.1
X6.8Y-7.3
X6.8Y-7.5
X6.8Y-7.7
X6.8Y-7.9
X6.8Y-8.1
X14.6Y-9.1
X14.6Y-9.3
X14.6Y-9.5
X14.6Y-9.7
X14.6Y-9.9
X14.6Y-10.1
X14.6Y-10.3
X14.6Y-10.5
X13.4Y-6.9
X13.4Y-7.1
X13.4Y-7.3
X13.4Y-7.5
X13.4Y-7.7
X13.4Y-7.9
X13.4Y-8.1
X14.6Y-8.4
X14.6Y-8.6
X14.6Y-8.8
X12.2Y-9.1
X12.2Y-9.3
X12.2Y-9.5
X12.2Y-9.7
X12.2Y-9.9
X12.2Y-10.1
X12.2Y-10.3
X12.2Y-10.5
X7.4Y-9.1
X7.4Y-9.3
X7.4Y-9.5
X7.4Y-9.7
X7.4Y-9.9
X7.4Y-10.1
X7.4Y-10.3
X7.4Y-10.5
X11.6Y-8.4
X11.6Y-8.6
X11.6Y-8.8
X6.2Y-8.4
X6.2Y-8.6
X6.2Y-8.8
X11.Y-6.9
X11.Y-7.1
X11.Y-7.3
X11.Y-7.5
X11.Y-7.7
X11.Y-7.9
X11.Y-8.1
X3.2Y-6.9
X3.2Y-7.1
X3.2Y-7.3
X3.2Y-7.5
X3.2Y-7.7
X3.2Y-7.9
X3.2Y-8.1
X10.4Y-6.9
X10.4Y-7.1
X10.4Y-7.3
X10.4Y-7.5
X10.4Y-7.7
X10.4Y-7.9
X10.4Y-8.1
X5.6Y-6.9
X5.6Y-7.1
X5.6Y-7.3
X5.6Y-7.5
X5.6Y-7.7
X5.6Y-7.9
X5.6Y-8.1
X14.6Y-6.9
X14.6Y-7.1
X14.6Y-7.3
X14.6Y-7.5
X14.6Y-7.7
X14.6Y-7.9
X14.6Y-8.1
X5.Y-6.9
X5.Y-7.1
X5.Y-7.3
X5.Y-7.5
X5.Y-7.7
X5.Y-7.9
X5.Y-8.1
X14.Y-8.4
X14.Y-8.6
X14.Y-8.8
X5.Y-9.1
X5.Y-9.3
X5.Y-9.5
X5.Y-9.7
X5.Y-9.9
X5.Y-10.1
X5.Y-10.3
X5.Y-10.5
X4.4Y-8.4
X4.4Y-8.6
X4.4Y-8.8
X5.Y-8.4
X5.Y-8.6
X5.Y-8.8
X9.8Y-6.9
X9.8Y-7.1
X9.8Y-7.3
X9.8Y-7.5
X9.8Y-7.7
X9.8Y-7.9
X9.8Y-8.1
X14.Y-6.9
X14.Y-7.1
X14.Y-7.3
X14.Y-7.5
X14.Y-7.7
X14.Y-7.9
X14.Y-8.1
X4.4Y-6.9
X4.4Y-7.1
X4.4Y-7.3
X4.4Y-7.5
X4.4Y-7.7
X4.4Y-7.9
X4.4Y-8.1
T0
M30
