G04 #@! TF.FileFunction,Copper,L2,Bot,Signal*
%FSLAX46Y46*%
G04 Gerber Fmt 4.6, Leading zero omitted, Abs format (unit mm)*
G04 Created by KiCad (PCBNEW 4.0.7) date 07/23/18 15:59:09*
%MOMM*%
%LPD*%
G01*
G04 APERTURE LIST*
%ADD10C,0.100000*%
%ADD11C,17.000000*%
%ADD12C,2.500000*%
%ADD13R,1.350000X1.350000*%
%ADD14C,1.350000*%
%ADD15C,1.524000*%
%ADD16R,1.600000X1.600000*%
%ADD17O,1.600000X1.600000*%
%ADD18C,3.000000*%
%ADD19C,0.600000*%
%ADD20C,0.250000*%
G04 APERTURE END LIST*
D10*
D11*
X128300000Y-58800000D03*
D12*
X128300000Y-47370000D03*
X135920000Y-51180000D03*
X120680000Y-51180000D03*
X128300000Y-70230000D03*
D11*
X203300000Y-58800000D03*
D12*
X203300000Y-47370000D03*
X210920000Y-51180000D03*
X195680000Y-51180000D03*
X203300000Y-70230000D03*
D11*
X73300000Y-58800000D03*
D12*
X73300000Y-47370000D03*
X80920000Y-51180000D03*
X65680000Y-51180000D03*
X73300000Y-70230000D03*
D13*
X264050000Y-37300000D03*
D14*
X266050000Y-37300000D03*
X268050000Y-37300000D03*
X270050000Y-37300000D03*
X272050000Y-37300000D03*
X274050000Y-37300000D03*
D15*
X183350000Y-30550000D03*
X183350000Y-43250000D03*
X61800000Y-116550000D03*
X49100000Y-116550000D03*
X65650000Y-30250000D03*
X65650000Y-42950000D03*
X53300000Y-30450000D03*
X53300000Y-43150000D03*
X33350000Y-30550000D03*
X33350000Y-43250000D03*
X111150000Y-116300000D03*
X98450000Y-116300000D03*
X157450000Y-81550000D03*
X170150000Y-81550000D03*
X170250000Y-116550000D03*
X157550000Y-116550000D03*
X120550000Y-30450000D03*
X120550000Y-43150000D03*
X195680000Y-43150000D03*
X195680000Y-30450000D03*
X111100000Y-81900000D03*
X98400000Y-81900000D03*
X61600000Y-82100000D03*
X48900000Y-82100000D03*
X258650000Y-55550000D03*
X245950000Y-55550000D03*
X258650000Y-50050000D03*
X245950000Y-50050000D03*
X258650000Y-44800000D03*
X245950000Y-44800000D03*
D11*
X73300000Y-93300000D03*
D12*
X73300000Y-81870000D03*
X80920000Y-85680000D03*
X65680000Y-85680000D03*
X73300000Y-104730000D03*
D11*
X73300000Y-127800000D03*
D12*
X73300000Y-116370000D03*
X80920000Y-120180000D03*
X65680000Y-120180000D03*
X73300000Y-139230000D03*
D11*
X33300000Y-58800000D03*
D12*
X33300000Y-47370000D03*
X40920000Y-51180000D03*
X25680000Y-51180000D03*
X33300000Y-70230000D03*
D11*
X53300000Y-58800000D03*
D12*
X53300000Y-47370000D03*
X60920000Y-51180000D03*
X45680000Y-51180000D03*
X53300000Y-70230000D03*
D11*
X128300000Y-93300000D03*
D12*
X128300000Y-81870000D03*
X135920000Y-85680000D03*
X120680000Y-85680000D03*
X128300000Y-104730000D03*
D11*
X128300000Y-127800000D03*
D12*
X128300000Y-116370000D03*
X135920000Y-120180000D03*
X120680000Y-120180000D03*
X128300000Y-139230000D03*
D11*
X183300000Y-93300000D03*
D12*
X183300000Y-81870000D03*
X190920000Y-85680000D03*
X175680000Y-85680000D03*
X183300000Y-104730000D03*
D11*
X183300000Y-127800000D03*
D12*
X183300000Y-116370000D03*
X190920000Y-120180000D03*
X175680000Y-120180000D03*
X183300000Y-139230000D03*
D11*
X183300000Y-58800000D03*
D12*
X183300000Y-47370000D03*
X190920000Y-51180000D03*
X175680000Y-51180000D03*
X183300000Y-70230000D03*
D16*
X231050000Y-74550000D03*
D17*
X264070000Y-66930000D03*
X233590000Y-74550000D03*
X261530000Y-66930000D03*
X236130000Y-74550000D03*
X258990000Y-66930000D03*
X238670000Y-74550000D03*
X256450000Y-66930000D03*
X241210000Y-74550000D03*
X253910000Y-66930000D03*
X243750000Y-74550000D03*
X251370000Y-66930000D03*
X246290000Y-74550000D03*
X248830000Y-66930000D03*
X248830000Y-74550000D03*
X246290000Y-66930000D03*
X251370000Y-74550000D03*
X243750000Y-66930000D03*
X253910000Y-74550000D03*
X241210000Y-66930000D03*
X256450000Y-74550000D03*
X238670000Y-66930000D03*
X258990000Y-74550000D03*
X236130000Y-66930000D03*
X261530000Y-74550000D03*
X233590000Y-66930000D03*
X264070000Y-74550000D03*
X231050000Y-66930000D03*
D16*
X231050000Y-120300000D03*
D17*
X264070000Y-112680000D03*
X233590000Y-120300000D03*
X261530000Y-112680000D03*
X236130000Y-120300000D03*
X258990000Y-112680000D03*
X238670000Y-120300000D03*
X256450000Y-112680000D03*
X241210000Y-120300000D03*
X253910000Y-112680000D03*
X243750000Y-120300000D03*
X251370000Y-112680000D03*
X246290000Y-120300000D03*
X248830000Y-112680000D03*
X248830000Y-120300000D03*
X246290000Y-112680000D03*
X251370000Y-120300000D03*
X243750000Y-112680000D03*
X253910000Y-120300000D03*
X241210000Y-112680000D03*
X256450000Y-120300000D03*
X238670000Y-112680000D03*
X258990000Y-120300000D03*
X236130000Y-112680000D03*
X261530000Y-120300000D03*
X233590000Y-112680000D03*
X264070000Y-120300000D03*
X231050000Y-112680000D03*
D15*
X100800000Y-49650000D03*
X103340000Y-49650000D03*
X105880000Y-49650000D03*
X98260000Y-49650000D03*
X95720000Y-49650000D03*
X100800000Y-67950000D03*
X103340000Y-67950000D03*
X105880000Y-67950000D03*
X98260000Y-67950000D03*
X95720000Y-67950000D03*
D18*
X108800000Y-57700000D03*
X92800000Y-57700000D03*
D15*
X155800000Y-49650000D03*
X158340000Y-49650000D03*
X160880000Y-49650000D03*
X153260000Y-49650000D03*
X150720000Y-49650000D03*
X155800000Y-67950000D03*
X158340000Y-67950000D03*
X160880000Y-67950000D03*
X153260000Y-67950000D03*
X150720000Y-67950000D03*
D18*
X163800000Y-57700000D03*
X147800000Y-57700000D03*
D19*
X222750000Y-79200000D03*
D20*
X195680000Y-51180000D02*
X195680000Y-43150000D01*
X65680000Y-51180000D02*
X65680000Y-43150000D01*
X120550000Y-43150000D02*
X120550000Y-51050000D01*
X120550000Y-51050000D02*
X120680000Y-51180000D01*
X253910000Y-66930000D02*
X251370000Y-66930000D01*
X251370000Y-112680000D02*
X250050000Y-111360000D01*
X250050000Y-111360000D02*
X250050000Y-68250000D01*
X250050000Y-68250000D02*
X251370000Y-66930000D01*
X253910000Y-112680000D02*
X251370000Y-112680000D01*
X245950000Y-55550000D02*
X245950000Y-61510000D01*
X245950000Y-61510000D02*
X251370000Y-66930000D01*
X266050000Y-37300000D02*
X266050000Y-52250000D01*
X266050000Y-52250000D02*
X251370000Y-66930000D01*
X48950000Y-81800000D02*
X52830000Y-85680000D01*
X52830000Y-85680000D02*
X65680000Y-85680000D01*
X98350000Y-82050000D02*
X98350000Y-83127630D01*
X98350000Y-83127630D02*
X100902370Y-85680000D01*
X100902370Y-85680000D02*
X120680000Y-85680000D01*
X98450000Y-116300000D02*
X102330000Y-120180000D01*
X102330000Y-120180000D02*
X120680000Y-120180000D01*
X49100000Y-116550000D02*
X49100000Y-117627630D01*
X49100000Y-117627630D02*
X51652370Y-120180000D01*
X51652370Y-120180000D02*
X65680000Y-120180000D01*
X157550000Y-116550000D02*
X161180000Y-120180000D01*
X161180000Y-120180000D02*
X175680000Y-120180000D01*
X98350000Y-82050000D02*
X102122509Y-78277491D01*
X102122509Y-78277491D02*
X154177491Y-78277491D01*
X154177491Y-78277491D02*
X157450000Y-81550000D01*
X157450000Y-81550000D02*
X157450000Y-116450000D01*
X98350000Y-82050000D02*
X98350000Y-116200000D01*
X48950000Y-81800000D02*
X52550000Y-78200000D01*
X52550000Y-78200000D02*
X94500000Y-78200000D01*
X94500000Y-78200000D02*
X98350000Y-82050000D01*
X48950000Y-81800000D02*
X48950000Y-116400000D01*
X258990000Y-112680000D02*
X258990000Y-115220000D01*
X258990000Y-115220000D02*
X253910000Y-120300000D01*
X258990000Y-112680000D02*
X259789999Y-111880001D01*
X259789999Y-111880001D02*
X260730001Y-111880001D01*
X260730001Y-111880001D02*
X261530000Y-112680000D01*
X253910000Y-74550000D02*
X253910000Y-107600000D01*
X253910000Y-107600000D02*
X258990000Y-112680000D01*
X157450000Y-81550000D02*
X161580000Y-85680000D01*
X161580000Y-85680000D02*
X175680000Y-85680000D01*
X22060000Y-71810000D02*
X32050000Y-81800000D01*
X32050000Y-81800000D02*
X48950000Y-81800000D01*
X22060000Y-54800000D02*
X22060000Y-71810000D01*
X160880000Y-67950000D02*
X160880000Y-65980000D01*
X160880000Y-65980000D02*
X175680000Y-51180000D01*
X160880000Y-67950000D02*
X160900000Y-67950000D01*
X105880000Y-67950000D02*
X105880000Y-67720000D01*
X105880000Y-67720000D02*
X114300000Y-59300000D01*
X114300000Y-59300000D02*
X114300000Y-30450000D01*
X183300000Y-30450000D02*
X195680000Y-30450000D01*
X195680000Y-30450000D02*
X197530000Y-30550000D01*
X263050000Y-30550000D02*
X268050000Y-37300000D01*
X197530000Y-30550000D02*
X263050000Y-30550000D01*
X175680000Y-51180000D02*
X175680000Y-38070000D01*
X175680000Y-38070000D02*
X183300000Y-30450000D01*
X120680000Y-30450000D02*
X183300000Y-30450000D01*
X65680000Y-30450000D02*
X114300000Y-30450000D01*
X114300000Y-30450000D02*
X120680000Y-30450000D01*
X53300000Y-30450000D02*
X65680000Y-30450000D01*
X45680000Y-51180000D02*
X45680000Y-38070000D01*
X45680000Y-38070000D02*
X53300000Y-30450000D01*
X33300000Y-30450000D02*
X53300000Y-30450000D01*
X25680000Y-38070000D02*
X33300000Y-30450000D01*
X157450000Y-116450000D02*
X157550000Y-116550000D01*
X98350000Y-116200000D02*
X98450000Y-116300000D01*
X48950000Y-116400000D02*
X49100000Y-116550000D01*
X25680000Y-51180000D02*
X22060000Y-54800000D01*
X25680000Y-51180000D02*
X25680000Y-38070000D01*
X128300000Y-139230000D02*
X134336591Y-145266591D01*
X134336591Y-145266591D02*
X226403409Y-145266591D01*
X226403409Y-145266591D02*
X251370000Y-120300000D01*
X256450000Y-66930000D02*
X251370000Y-72010000D01*
X251370000Y-72010000D02*
X251370000Y-74550000D01*
X251370000Y-74550000D02*
X251370000Y-107600000D01*
X251370000Y-107600000D02*
X256450000Y-112680000D01*
X251370000Y-117760000D02*
X251370000Y-120300000D01*
X256450000Y-112680000D02*
X251370000Y-117760000D01*
X270050000Y-37300000D02*
X270050000Y-53330000D01*
X270050000Y-53330000D02*
X256450000Y-66930000D01*
X258990000Y-74550000D02*
X258990000Y-91990000D01*
X271050000Y-108240000D02*
X258990000Y-120300000D01*
X271050000Y-104050000D02*
X271050000Y-108240000D01*
X258990000Y-91990000D02*
X271050000Y-104050000D01*
X272050000Y-37300000D02*
X272050000Y-61490000D01*
X272050000Y-61490000D02*
X258990000Y-74550000D01*
X261530000Y-74550000D02*
X261530000Y-91280000D01*
X273550000Y-108280000D02*
X261530000Y-120300000D01*
X273550000Y-103300000D02*
X273550000Y-108280000D01*
X261530000Y-91280000D02*
X273550000Y-103300000D01*
X274050000Y-37300000D02*
X274050000Y-62030000D01*
X274050000Y-62030000D02*
X261530000Y-74550000D01*
X183300000Y-43150000D02*
X183300000Y-47370000D01*
X53300000Y-43150000D02*
X53300000Y-47370000D01*
X33300000Y-43150000D02*
X33300000Y-47370000D01*
X170150000Y-81550000D02*
X182980000Y-81550000D01*
X182980000Y-81550000D02*
X183300000Y-81870000D01*
X135920000Y-120180000D02*
X157540000Y-141800000D01*
X157540000Y-141800000D02*
X219710000Y-141800000D01*
X219710000Y-141800000D02*
X241210000Y-120300000D01*
X190920000Y-120180000D02*
X230930000Y-120180000D01*
X230930000Y-120180000D02*
X231050000Y-120300000D01*
X183300000Y-139230000D02*
X214660000Y-139230000D01*
X214660000Y-139230000D02*
X233590000Y-120300000D01*
X103340000Y-67950000D02*
X109219433Y-73829433D01*
X109219433Y-73829433D02*
X132166494Y-73829433D01*
X132166494Y-73829433D02*
X132250000Y-73912939D01*
X132250000Y-73912939D02*
X155074177Y-73912939D01*
X155074177Y-73912939D02*
X159289113Y-78127875D01*
X199037875Y-78127875D02*
X233590000Y-112680000D01*
X159289113Y-78127875D02*
X199037875Y-78127875D01*
X98260000Y-67950000D02*
X106390796Y-76080796D01*
X106390796Y-76080796D02*
X154573294Y-76080796D01*
X157749796Y-79257298D02*
X197627298Y-79257298D01*
X154573294Y-76080796D02*
X157749796Y-79257298D01*
X197627298Y-79257298D02*
X231050000Y-112680000D01*
X158340000Y-67950000D02*
X165976673Y-75586673D01*
X165976673Y-75586673D02*
X201576673Y-75586673D01*
X201576673Y-75586673D02*
X238670000Y-112680000D01*
X153260000Y-67950000D02*
X162237863Y-76927863D01*
X162237863Y-76927863D02*
X200377863Y-76927863D01*
X200377863Y-76927863D02*
X236130000Y-112680000D01*
X170250000Y-116550000D02*
X183120000Y-116550000D01*
X183120000Y-116550000D02*
X183300000Y-116370000D01*
X73300000Y-116370000D02*
X61980000Y-116370000D01*
X61980000Y-116370000D02*
X61800000Y-116550000D01*
X111150000Y-116300000D02*
X128230000Y-116300000D01*
X128230000Y-116300000D02*
X128300000Y-116370000D01*
X111050000Y-82050000D02*
X128120000Y-82050000D01*
X128120000Y-82050000D02*
X128300000Y-81870000D01*
X73300000Y-81870000D02*
X61720000Y-81870000D01*
X61720000Y-81870000D02*
X61650000Y-81800000D01*
X222750000Y-79200000D02*
X222760812Y-79200000D01*
X222760812Y-79200000D02*
X243750000Y-100189188D01*
X243750000Y-100189188D02*
X243750000Y-112680000D01*
M02*
