G04 #@! TF.FileFunction,Legend,Top*
%FSLAX46Y46*%
G04 Gerber Fmt 4.6, Leading zero omitted, Abs format (unit mm)*
G04 Created by KiCad (PCBNEW 4.0.7) date 07/23/18 15:59:09*
%MOMM*%
%LPD*%
G01*
G04 APERTURE LIST*
%ADD10C,0.100000*%
%ADD11C,0.150000*%
%ADD12C,0.120000*%
%ADD13C,0.152400*%
G04 APERTURE END LIST*
D10*
D11*
X119300000Y-49800000D02*
X137300000Y-49800000D01*
X137300000Y-49800000D02*
X137300000Y-67800000D01*
X137300000Y-67800000D02*
X119300000Y-67800000D01*
X119300000Y-67800000D02*
X119300000Y-49800000D01*
X194300000Y-49800000D02*
X212300000Y-49800000D01*
X212300000Y-49800000D02*
X212300000Y-67800000D01*
X212300000Y-67800000D02*
X194300000Y-67800000D01*
X194300000Y-67800000D02*
X194300000Y-49800000D01*
X64300000Y-49800000D02*
X82300000Y-49800000D01*
X82300000Y-49800000D02*
X82300000Y-67800000D01*
X82300000Y-67800000D02*
X64300000Y-67800000D01*
X64300000Y-67800000D02*
X64300000Y-49800000D01*
X260900000Y-35200000D02*
X260900000Y-39400000D01*
X260900000Y-39400000D02*
X277200000Y-39400000D01*
X277200000Y-39400000D02*
X277200000Y-35200000D01*
X277200000Y-35200000D02*
X260900000Y-35200000D01*
X275650000Y-37300000D02*
X275650000Y-38050000D01*
X275650000Y-38050000D02*
X275050000Y-38650000D01*
X275050000Y-38650000D02*
X269050000Y-38650000D01*
X262450000Y-37300000D02*
X262450000Y-38050000D01*
X262450000Y-38050000D02*
X263050000Y-38650000D01*
X263050000Y-38650000D02*
X269050000Y-38650000D01*
X264050000Y-39800000D02*
X263750000Y-40400000D01*
X263750000Y-40400000D02*
X264350000Y-40400000D01*
X264350000Y-40400000D02*
X264050000Y-39800000D01*
X183350000Y-30550000D02*
X183350000Y-31566000D01*
X183350000Y-43250000D02*
X183350000Y-42234000D01*
X184620000Y-42234000D02*
X182080000Y-42234000D01*
X182080000Y-42234000D02*
X182080000Y-31566000D01*
X182080000Y-31566000D02*
X184620000Y-31566000D01*
X184620000Y-31566000D02*
X184620000Y-42234000D01*
X184112000Y-31566000D02*
X184620000Y-32074000D01*
X61800000Y-116550000D02*
X60784000Y-116550000D01*
X49100000Y-116550000D02*
X50116000Y-116550000D01*
X50116000Y-117820000D02*
X50116000Y-115280000D01*
X50116000Y-115280000D02*
X60784000Y-115280000D01*
X60784000Y-115280000D02*
X60784000Y-117820000D01*
X60784000Y-117820000D02*
X50116000Y-117820000D01*
X60784000Y-117312000D02*
X60276000Y-117820000D01*
X65650000Y-30250000D02*
X65650000Y-31266000D01*
X65650000Y-42950000D02*
X65650000Y-41934000D01*
X66920000Y-41934000D02*
X64380000Y-41934000D01*
X64380000Y-41934000D02*
X64380000Y-31266000D01*
X64380000Y-31266000D02*
X66920000Y-31266000D01*
X66920000Y-31266000D02*
X66920000Y-41934000D01*
X66412000Y-31266000D02*
X66920000Y-31774000D01*
X53300000Y-30450000D02*
X53300000Y-31466000D01*
X53300000Y-43150000D02*
X53300000Y-42134000D01*
X54570000Y-42134000D02*
X52030000Y-42134000D01*
X52030000Y-42134000D02*
X52030000Y-31466000D01*
X52030000Y-31466000D02*
X54570000Y-31466000D01*
X54570000Y-31466000D02*
X54570000Y-42134000D01*
X54062000Y-31466000D02*
X54570000Y-31974000D01*
X33350000Y-30550000D02*
X33350000Y-31566000D01*
X33350000Y-43250000D02*
X33350000Y-42234000D01*
X34620000Y-42234000D02*
X32080000Y-42234000D01*
X32080000Y-42234000D02*
X32080000Y-31566000D01*
X32080000Y-31566000D02*
X34620000Y-31566000D01*
X34620000Y-31566000D02*
X34620000Y-42234000D01*
X34112000Y-31566000D02*
X34620000Y-32074000D01*
X111150000Y-116300000D02*
X110134000Y-116300000D01*
X98450000Y-116300000D02*
X99466000Y-116300000D01*
X99466000Y-117570000D02*
X99466000Y-115030000D01*
X99466000Y-115030000D02*
X110134000Y-115030000D01*
X110134000Y-115030000D02*
X110134000Y-117570000D01*
X110134000Y-117570000D02*
X99466000Y-117570000D01*
X110134000Y-117062000D02*
X109626000Y-117570000D01*
X157450000Y-81550000D02*
X158466000Y-81550000D01*
X170150000Y-81550000D02*
X169134000Y-81550000D01*
X169134000Y-80280000D02*
X169134000Y-82820000D01*
X169134000Y-82820000D02*
X158466000Y-82820000D01*
X158466000Y-82820000D02*
X158466000Y-80280000D01*
X158466000Y-80280000D02*
X169134000Y-80280000D01*
X158466000Y-80788000D02*
X158974000Y-80280000D01*
X170250000Y-116550000D02*
X169234000Y-116550000D01*
X157550000Y-116550000D02*
X158566000Y-116550000D01*
X158566000Y-117820000D02*
X158566000Y-115280000D01*
X158566000Y-115280000D02*
X169234000Y-115280000D01*
X169234000Y-115280000D02*
X169234000Y-117820000D01*
X169234000Y-117820000D02*
X158566000Y-117820000D01*
X169234000Y-117312000D02*
X168726000Y-117820000D01*
X120550000Y-30450000D02*
X120550000Y-31466000D01*
X120550000Y-43150000D02*
X120550000Y-42134000D01*
X121820000Y-42134000D02*
X119280000Y-42134000D01*
X119280000Y-42134000D02*
X119280000Y-31466000D01*
X119280000Y-31466000D02*
X121820000Y-31466000D01*
X121820000Y-31466000D02*
X121820000Y-42134000D01*
X121312000Y-31466000D02*
X121820000Y-31974000D01*
X195680000Y-43150000D02*
X195680000Y-42134000D01*
X195680000Y-30450000D02*
X195680000Y-31466000D01*
X194410000Y-31466000D02*
X196950000Y-31466000D01*
X196950000Y-31466000D02*
X196950000Y-42134000D01*
X196950000Y-42134000D02*
X194410000Y-42134000D01*
X194410000Y-42134000D02*
X194410000Y-31466000D01*
X194918000Y-42134000D02*
X194410000Y-41626000D01*
X111100000Y-81900000D02*
X110084000Y-81900000D01*
X98400000Y-81900000D02*
X99416000Y-81900000D01*
X99416000Y-83170000D02*
X99416000Y-80630000D01*
X99416000Y-80630000D02*
X110084000Y-80630000D01*
X110084000Y-80630000D02*
X110084000Y-83170000D01*
X110084000Y-83170000D02*
X99416000Y-83170000D01*
X110084000Y-82662000D02*
X109576000Y-83170000D01*
X61600000Y-82100000D02*
X60584000Y-82100000D01*
X48900000Y-82100000D02*
X49916000Y-82100000D01*
X49916000Y-83370000D02*
X49916000Y-80830000D01*
X49916000Y-80830000D02*
X60584000Y-80830000D01*
X60584000Y-80830000D02*
X60584000Y-83370000D01*
X60584000Y-83370000D02*
X49916000Y-83370000D01*
X60584000Y-82862000D02*
X60076000Y-83370000D01*
X258650000Y-55550000D02*
X257634000Y-55550000D01*
X245950000Y-55550000D02*
X246966000Y-55550000D01*
X246966000Y-56820000D02*
X246966000Y-54280000D01*
X246966000Y-54280000D02*
X257634000Y-54280000D01*
X257634000Y-54280000D02*
X257634000Y-56820000D01*
X257634000Y-56820000D02*
X246966000Y-56820000D01*
X257634000Y-56312000D02*
X257126000Y-56820000D01*
X258650000Y-50050000D02*
X257634000Y-50050000D01*
X245950000Y-50050000D02*
X246966000Y-50050000D01*
X246966000Y-51320000D02*
X246966000Y-48780000D01*
X246966000Y-48780000D02*
X257634000Y-48780000D01*
X257634000Y-48780000D02*
X257634000Y-51320000D01*
X257634000Y-51320000D02*
X246966000Y-51320000D01*
X257634000Y-50812000D02*
X257126000Y-51320000D01*
X258650000Y-44800000D02*
X257634000Y-44800000D01*
X245950000Y-44800000D02*
X246966000Y-44800000D01*
X246966000Y-46070000D02*
X246966000Y-43530000D01*
X246966000Y-43530000D02*
X257634000Y-43530000D01*
X257634000Y-43530000D02*
X257634000Y-46070000D01*
X257634000Y-46070000D02*
X246966000Y-46070000D01*
X257634000Y-45562000D02*
X257126000Y-46070000D01*
X64300000Y-84300000D02*
X82300000Y-84300000D01*
X82300000Y-84300000D02*
X82300000Y-102300000D01*
X82300000Y-102300000D02*
X64300000Y-102300000D01*
X64300000Y-102300000D02*
X64300000Y-84300000D01*
X64300000Y-118800000D02*
X82300000Y-118800000D01*
X82300000Y-118800000D02*
X82300000Y-136800000D01*
X82300000Y-136800000D02*
X64300000Y-136800000D01*
X64300000Y-136800000D02*
X64300000Y-118800000D01*
X24300000Y-49800000D02*
X42300000Y-49800000D01*
X42300000Y-49800000D02*
X42300000Y-67800000D01*
X42300000Y-67800000D02*
X24300000Y-67800000D01*
X24300000Y-67800000D02*
X24300000Y-49800000D01*
X44300000Y-49800000D02*
X62300000Y-49800000D01*
X62300000Y-49800000D02*
X62300000Y-67800000D01*
X62300000Y-67800000D02*
X44300000Y-67800000D01*
X44300000Y-67800000D02*
X44300000Y-49800000D01*
X119300000Y-84300000D02*
X137300000Y-84300000D01*
X137300000Y-84300000D02*
X137300000Y-102300000D01*
X137300000Y-102300000D02*
X119300000Y-102300000D01*
X119300000Y-102300000D02*
X119300000Y-84300000D01*
X119300000Y-118800000D02*
X137300000Y-118800000D01*
X137300000Y-118800000D02*
X137300000Y-136800000D01*
X137300000Y-136800000D02*
X119300000Y-136800000D01*
X119300000Y-136800000D02*
X119300000Y-118800000D01*
X174300000Y-84300000D02*
X192300000Y-84300000D01*
X192300000Y-84300000D02*
X192300000Y-102300000D01*
X192300000Y-102300000D02*
X174300000Y-102300000D01*
X174300000Y-102300000D02*
X174300000Y-84300000D01*
X174300000Y-118800000D02*
X192300000Y-118800000D01*
X192300000Y-118800000D02*
X192300000Y-136800000D01*
X192300000Y-136800000D02*
X174300000Y-136800000D01*
X174300000Y-136800000D02*
X174300000Y-118800000D01*
X174300000Y-49800000D02*
X192300000Y-49800000D01*
X192300000Y-49800000D02*
X192300000Y-67800000D01*
X192300000Y-67800000D02*
X174300000Y-67800000D01*
X174300000Y-67800000D02*
X174300000Y-49800000D01*
D12*
X229660000Y-69740000D02*
G75*
G02X229660000Y-71740000I0J-1000000D01*
G01*
X229660000Y-71740000D02*
X229660000Y-73510000D01*
X229660000Y-73510000D02*
X265460000Y-73510000D01*
X265460000Y-73510000D02*
X265460000Y-67970000D01*
X265460000Y-67970000D02*
X229660000Y-67970000D01*
X229660000Y-67970000D02*
X229660000Y-69740000D01*
X229660000Y-75940000D02*
X265460000Y-75940000D01*
X265460000Y-75940000D02*
X265460000Y-65540000D01*
X265460000Y-65540000D02*
X229660000Y-65540000D01*
X229660000Y-65540000D02*
X229660000Y-75940000D01*
X229660000Y-115490000D02*
G75*
G02X229660000Y-117490000I0J-1000000D01*
G01*
X229660000Y-117490000D02*
X229660000Y-119260000D01*
X229660000Y-119260000D02*
X265460000Y-119260000D01*
X265460000Y-119260000D02*
X265460000Y-113720000D01*
X265460000Y-113720000D02*
X229660000Y-113720000D01*
X229660000Y-113720000D02*
X229660000Y-115490000D01*
X229660000Y-121690000D02*
X265460000Y-121690000D01*
X265460000Y-121690000D02*
X265460000Y-111290000D01*
X265460000Y-111290000D02*
X229660000Y-111290000D01*
X229660000Y-111290000D02*
X229660000Y-121690000D01*
D11*
X127085714Y-59752381D02*
X127085714Y-58752381D01*
X127323809Y-58752381D01*
X127466667Y-58800000D01*
X127561905Y-58895238D01*
X127609524Y-58990476D01*
X127657143Y-59180952D01*
X127657143Y-59323810D01*
X127609524Y-59514286D01*
X127561905Y-59609524D01*
X127466667Y-59704762D01*
X127323809Y-59752381D01*
X127085714Y-59752381D01*
X128609524Y-59752381D02*
X128038095Y-59752381D01*
X128323809Y-59752381D02*
X128323809Y-58752381D01*
X128228571Y-58895238D01*
X128133333Y-58990476D01*
X128038095Y-59038095D01*
X128990476Y-58847619D02*
X129038095Y-58800000D01*
X129133333Y-58752381D01*
X129371429Y-58752381D01*
X129466667Y-58800000D01*
X129514286Y-58847619D01*
X129561905Y-58942857D01*
X129561905Y-59038095D01*
X129514286Y-59180952D01*
X128942857Y-59752381D01*
X129561905Y-59752381D01*
X202085714Y-59752381D02*
X202085714Y-58752381D01*
X202323809Y-58752381D01*
X202466667Y-58800000D01*
X202561905Y-58895238D01*
X202609524Y-58990476D01*
X202657143Y-59180952D01*
X202657143Y-59323810D01*
X202609524Y-59514286D01*
X202561905Y-59609524D01*
X202466667Y-59704762D01*
X202323809Y-59752381D01*
X202085714Y-59752381D01*
X203609524Y-59752381D02*
X203038095Y-59752381D01*
X203323809Y-59752381D02*
X203323809Y-58752381D01*
X203228571Y-58895238D01*
X203133333Y-58990476D01*
X203038095Y-59038095D01*
X204228571Y-58752381D02*
X204323810Y-58752381D01*
X204419048Y-58800000D01*
X204466667Y-58847619D01*
X204514286Y-58942857D01*
X204561905Y-59133333D01*
X204561905Y-59371429D01*
X204514286Y-59561905D01*
X204466667Y-59657143D01*
X204419048Y-59704762D01*
X204323810Y-59752381D01*
X204228571Y-59752381D01*
X204133333Y-59704762D01*
X204085714Y-59657143D01*
X204038095Y-59561905D01*
X203990476Y-59371429D01*
X203990476Y-59133333D01*
X204038095Y-58942857D01*
X204085714Y-58847619D01*
X204133333Y-58800000D01*
X204228571Y-58752381D01*
X72085714Y-59752381D02*
X72085714Y-58752381D01*
X72323809Y-58752381D01*
X72466667Y-58800000D01*
X72561905Y-58895238D01*
X72609524Y-58990476D01*
X72657143Y-59180952D01*
X72657143Y-59323810D01*
X72609524Y-59514286D01*
X72561905Y-59609524D01*
X72466667Y-59704762D01*
X72323809Y-59752381D01*
X72085714Y-59752381D01*
X73609524Y-59752381D02*
X73038095Y-59752381D01*
X73323809Y-59752381D02*
X73323809Y-58752381D01*
X73228571Y-58895238D01*
X73133333Y-58990476D01*
X73038095Y-59038095D01*
X74561905Y-59752381D02*
X73990476Y-59752381D01*
X74276190Y-59752381D02*
X74276190Y-58752381D01*
X74180952Y-58895238D01*
X74085714Y-58990476D01*
X73990476Y-59038095D01*
X268716667Y-33252381D02*
X268716667Y-33966667D01*
X268669047Y-34109524D01*
X268573809Y-34204762D01*
X268430952Y-34252381D01*
X268335714Y-34252381D01*
X269716667Y-34252381D02*
X269145238Y-34252381D01*
X269430952Y-34252381D02*
X269430952Y-33252381D01*
X269335714Y-33395238D01*
X269240476Y-33490476D01*
X269145238Y-33538095D01*
X186002381Y-37416666D02*
X185526190Y-37750000D01*
X186002381Y-37988095D02*
X185002381Y-37988095D01*
X185002381Y-37607142D01*
X185050000Y-37511904D01*
X185097619Y-37464285D01*
X185192857Y-37416666D01*
X185335714Y-37416666D01*
X185430952Y-37464285D01*
X185478571Y-37511904D01*
X185526190Y-37607142D01*
X185526190Y-37988095D01*
X186002381Y-36464285D02*
X186002381Y-37035714D01*
X186002381Y-36750000D02*
X185002381Y-36750000D01*
X185145238Y-36845238D01*
X185240476Y-36940476D01*
X185288095Y-37035714D01*
X55283334Y-117002381D02*
X54950000Y-116526190D01*
X54711905Y-117002381D02*
X54711905Y-116002381D01*
X55092858Y-116002381D01*
X55188096Y-116050000D01*
X55235715Y-116097619D01*
X55283334Y-116192857D01*
X55283334Y-116335714D01*
X55235715Y-116430952D01*
X55188096Y-116478571D01*
X55092858Y-116526190D01*
X54711905Y-116526190D01*
X55664286Y-116097619D02*
X55711905Y-116050000D01*
X55807143Y-116002381D01*
X56045239Y-116002381D01*
X56140477Y-116050000D01*
X56188096Y-116097619D01*
X56235715Y-116192857D01*
X56235715Y-116288095D01*
X56188096Y-116430952D01*
X55616667Y-117002381D01*
X56235715Y-117002381D01*
X69452381Y-36566666D02*
X68976190Y-36900000D01*
X69452381Y-37138095D02*
X68452381Y-37138095D01*
X68452381Y-36757142D01*
X68500000Y-36661904D01*
X68547619Y-36614285D01*
X68642857Y-36566666D01*
X68785714Y-36566666D01*
X68880952Y-36614285D01*
X68928571Y-36661904D01*
X68976190Y-36757142D01*
X68976190Y-37138095D01*
X68452381Y-36233333D02*
X68452381Y-35614285D01*
X68833333Y-35947619D01*
X68833333Y-35804761D01*
X68880952Y-35709523D01*
X68928571Y-35661904D01*
X69023810Y-35614285D01*
X69261905Y-35614285D01*
X69357143Y-35661904D01*
X69404762Y-35709523D01*
X69452381Y-35804761D01*
X69452381Y-36090476D01*
X69404762Y-36185714D01*
X69357143Y-36233333D01*
X56702381Y-37166666D02*
X56226190Y-37500000D01*
X56702381Y-37738095D02*
X55702381Y-37738095D01*
X55702381Y-37357142D01*
X55750000Y-37261904D01*
X55797619Y-37214285D01*
X55892857Y-37166666D01*
X56035714Y-37166666D01*
X56130952Y-37214285D01*
X56178571Y-37261904D01*
X56226190Y-37357142D01*
X56226190Y-37738095D01*
X56035714Y-36309523D02*
X56702381Y-36309523D01*
X55654762Y-36547619D02*
X56369048Y-36785714D01*
X56369048Y-36166666D01*
X36052381Y-37116666D02*
X35576190Y-37450000D01*
X36052381Y-37688095D02*
X35052381Y-37688095D01*
X35052381Y-37307142D01*
X35100000Y-37211904D01*
X35147619Y-37164285D01*
X35242857Y-37116666D01*
X35385714Y-37116666D01*
X35480952Y-37164285D01*
X35528571Y-37211904D01*
X35576190Y-37307142D01*
X35576190Y-37688095D01*
X35052381Y-36211904D02*
X35052381Y-36688095D01*
X35528571Y-36735714D01*
X35480952Y-36688095D01*
X35433333Y-36592857D01*
X35433333Y-36354761D01*
X35480952Y-36259523D01*
X35528571Y-36211904D01*
X35623810Y-36164285D01*
X35861905Y-36164285D01*
X35957143Y-36211904D01*
X36004762Y-36259523D01*
X36052381Y-36354761D01*
X36052381Y-36592857D01*
X36004762Y-36688095D01*
X35957143Y-36735714D01*
X104633334Y-116752381D02*
X104300000Y-116276190D01*
X104061905Y-116752381D02*
X104061905Y-115752381D01*
X104442858Y-115752381D01*
X104538096Y-115800000D01*
X104585715Y-115847619D01*
X104633334Y-115942857D01*
X104633334Y-116085714D01*
X104585715Y-116180952D01*
X104538096Y-116228571D01*
X104442858Y-116276190D01*
X104061905Y-116276190D01*
X105490477Y-115752381D02*
X105300000Y-115752381D01*
X105204762Y-115800000D01*
X105157143Y-115847619D01*
X105061905Y-115990476D01*
X105014286Y-116180952D01*
X105014286Y-116561905D01*
X105061905Y-116657143D01*
X105109524Y-116704762D01*
X105204762Y-116752381D01*
X105395239Y-116752381D01*
X105490477Y-116704762D01*
X105538096Y-116657143D01*
X105585715Y-116561905D01*
X105585715Y-116323810D01*
X105538096Y-116228571D01*
X105490477Y-116180952D01*
X105395239Y-116133333D01*
X105204762Y-116133333D01*
X105109524Y-116180952D01*
X105061905Y-116228571D01*
X105014286Y-116323810D01*
X163683334Y-84352381D02*
X163350000Y-83876190D01*
X163111905Y-84352381D02*
X163111905Y-83352381D01*
X163492858Y-83352381D01*
X163588096Y-83400000D01*
X163635715Y-83447619D01*
X163683334Y-83542857D01*
X163683334Y-83685714D01*
X163635715Y-83780952D01*
X163588096Y-83828571D01*
X163492858Y-83876190D01*
X163111905Y-83876190D01*
X164016667Y-83352381D02*
X164683334Y-83352381D01*
X164254762Y-84352381D01*
X163783334Y-114452381D02*
X163450000Y-113976190D01*
X163211905Y-114452381D02*
X163211905Y-113452381D01*
X163592858Y-113452381D01*
X163688096Y-113500000D01*
X163735715Y-113547619D01*
X163783334Y-113642857D01*
X163783334Y-113785714D01*
X163735715Y-113880952D01*
X163688096Y-113928571D01*
X163592858Y-113976190D01*
X163211905Y-113976190D01*
X164354762Y-113880952D02*
X164259524Y-113833333D01*
X164211905Y-113785714D01*
X164164286Y-113690476D01*
X164164286Y-113642857D01*
X164211905Y-113547619D01*
X164259524Y-113500000D01*
X164354762Y-113452381D01*
X164545239Y-113452381D01*
X164640477Y-113500000D01*
X164688096Y-113547619D01*
X164735715Y-113642857D01*
X164735715Y-113690476D01*
X164688096Y-113785714D01*
X164640477Y-113833333D01*
X164545239Y-113880952D01*
X164354762Y-113880952D01*
X164259524Y-113928571D01*
X164211905Y-113976190D01*
X164164286Y-114071429D01*
X164164286Y-114261905D01*
X164211905Y-114357143D01*
X164259524Y-114404762D01*
X164354762Y-114452381D01*
X164545239Y-114452381D01*
X164640477Y-114404762D01*
X164688096Y-114357143D01*
X164735715Y-114261905D01*
X164735715Y-114071429D01*
X164688096Y-113976190D01*
X164640477Y-113928571D01*
X164545239Y-113880952D01*
X124052381Y-36766666D02*
X123576190Y-37100000D01*
X124052381Y-37338095D02*
X123052381Y-37338095D01*
X123052381Y-36957142D01*
X123100000Y-36861904D01*
X123147619Y-36814285D01*
X123242857Y-36766666D01*
X123385714Y-36766666D01*
X123480952Y-36814285D01*
X123528571Y-36861904D01*
X123576190Y-36957142D01*
X123576190Y-37338095D01*
X124052381Y-36290476D02*
X124052381Y-36100000D01*
X124004762Y-36004761D01*
X123957143Y-35957142D01*
X123814286Y-35861904D01*
X123623810Y-35814285D01*
X123242857Y-35814285D01*
X123147619Y-35861904D01*
X123100000Y-35909523D01*
X123052381Y-36004761D01*
X123052381Y-36195238D01*
X123100000Y-36290476D01*
X123147619Y-36338095D01*
X123242857Y-36385714D01*
X123480952Y-36385714D01*
X123576190Y-36338095D01*
X123623810Y-36290476D01*
X123671429Y-36195238D01*
X123671429Y-36004761D01*
X123623810Y-35909523D01*
X123576190Y-35861904D01*
X123480952Y-35814285D01*
X199002381Y-37642857D02*
X198526190Y-37976191D01*
X199002381Y-38214286D02*
X198002381Y-38214286D01*
X198002381Y-37833333D01*
X198050000Y-37738095D01*
X198097619Y-37690476D01*
X198192857Y-37642857D01*
X198335714Y-37642857D01*
X198430952Y-37690476D01*
X198478571Y-37738095D01*
X198526190Y-37833333D01*
X198526190Y-38214286D01*
X199002381Y-36690476D02*
X199002381Y-37261905D01*
X199002381Y-36976191D02*
X198002381Y-36976191D01*
X198145238Y-37071429D01*
X198240476Y-37166667D01*
X198288095Y-37261905D01*
X198002381Y-36071429D02*
X198002381Y-35976190D01*
X198050000Y-35880952D01*
X198097619Y-35833333D01*
X198192857Y-35785714D01*
X198383333Y-35738095D01*
X198621429Y-35738095D01*
X198811905Y-35785714D01*
X198907143Y-35833333D01*
X198954762Y-35880952D01*
X199002381Y-35976190D01*
X199002381Y-36071429D01*
X198954762Y-36166667D01*
X198907143Y-36214286D01*
X198811905Y-36261905D01*
X198621429Y-36309524D01*
X198383333Y-36309524D01*
X198192857Y-36261905D01*
X198097619Y-36214286D01*
X198050000Y-36166667D01*
X198002381Y-36071429D01*
X104207143Y-78882381D02*
X103873809Y-78406190D01*
X103635714Y-78882381D02*
X103635714Y-77882381D01*
X104016667Y-77882381D01*
X104111905Y-77930000D01*
X104159524Y-77977619D01*
X104207143Y-78072857D01*
X104207143Y-78215714D01*
X104159524Y-78310952D01*
X104111905Y-78358571D01*
X104016667Y-78406190D01*
X103635714Y-78406190D01*
X105159524Y-78882381D02*
X104588095Y-78882381D01*
X104873809Y-78882381D02*
X104873809Y-77882381D01*
X104778571Y-78025238D01*
X104683333Y-78120476D01*
X104588095Y-78168095D01*
X106111905Y-78882381D02*
X105540476Y-78882381D01*
X105826190Y-78882381D02*
X105826190Y-77882381D01*
X105730952Y-78025238D01*
X105635714Y-78120476D01*
X105540476Y-78168095D01*
X54607143Y-79882381D02*
X54273809Y-79406190D01*
X54035714Y-79882381D02*
X54035714Y-78882381D01*
X54416667Y-78882381D01*
X54511905Y-78930000D01*
X54559524Y-78977619D01*
X54607143Y-79072857D01*
X54607143Y-79215714D01*
X54559524Y-79310952D01*
X54511905Y-79358571D01*
X54416667Y-79406190D01*
X54035714Y-79406190D01*
X55559524Y-79882381D02*
X54988095Y-79882381D01*
X55273809Y-79882381D02*
X55273809Y-78882381D01*
X55178571Y-79025238D01*
X55083333Y-79120476D01*
X54988095Y-79168095D01*
X55940476Y-78977619D02*
X55988095Y-78930000D01*
X56083333Y-78882381D01*
X56321429Y-78882381D01*
X56416667Y-78930000D01*
X56464286Y-78977619D01*
X56511905Y-79072857D01*
X56511905Y-79168095D01*
X56464286Y-79310952D01*
X55892857Y-79882381D01*
X56511905Y-79882381D01*
X251657143Y-58502381D02*
X251323809Y-58026190D01*
X251085714Y-58502381D02*
X251085714Y-57502381D01*
X251466667Y-57502381D01*
X251561905Y-57550000D01*
X251609524Y-57597619D01*
X251657143Y-57692857D01*
X251657143Y-57835714D01*
X251609524Y-57930952D01*
X251561905Y-57978571D01*
X251466667Y-58026190D01*
X251085714Y-58026190D01*
X252609524Y-58502381D02*
X252038095Y-58502381D01*
X252323809Y-58502381D02*
X252323809Y-57502381D01*
X252228571Y-57645238D01*
X252133333Y-57740476D01*
X252038095Y-57788095D01*
X252942857Y-57502381D02*
X253561905Y-57502381D01*
X253228571Y-57883333D01*
X253371429Y-57883333D01*
X253466667Y-57930952D01*
X253514286Y-57978571D01*
X253561905Y-58073810D01*
X253561905Y-58311905D01*
X253514286Y-58407143D01*
X253466667Y-58454762D01*
X253371429Y-58502381D01*
X253085714Y-58502381D01*
X252990476Y-58454762D01*
X252942857Y-58407143D01*
X251907143Y-53252381D02*
X251573809Y-52776190D01*
X251335714Y-53252381D02*
X251335714Y-52252381D01*
X251716667Y-52252381D01*
X251811905Y-52300000D01*
X251859524Y-52347619D01*
X251907143Y-52442857D01*
X251907143Y-52585714D01*
X251859524Y-52680952D01*
X251811905Y-52728571D01*
X251716667Y-52776190D01*
X251335714Y-52776190D01*
X252859524Y-53252381D02*
X252288095Y-53252381D01*
X252573809Y-53252381D02*
X252573809Y-52252381D01*
X252478571Y-52395238D01*
X252383333Y-52490476D01*
X252288095Y-52538095D01*
X253716667Y-52585714D02*
X253716667Y-53252381D01*
X253478571Y-52204762D02*
X253240476Y-52919048D01*
X253859524Y-52919048D01*
X251907143Y-47502381D02*
X251573809Y-47026190D01*
X251335714Y-47502381D02*
X251335714Y-46502381D01*
X251716667Y-46502381D01*
X251811905Y-46550000D01*
X251859524Y-46597619D01*
X251907143Y-46692857D01*
X251907143Y-46835714D01*
X251859524Y-46930952D01*
X251811905Y-46978571D01*
X251716667Y-47026190D01*
X251335714Y-47026190D01*
X252859524Y-47502381D02*
X252288095Y-47502381D01*
X252573809Y-47502381D02*
X252573809Y-46502381D01*
X252478571Y-46645238D01*
X252383333Y-46740476D01*
X252288095Y-46788095D01*
X253764286Y-46502381D02*
X253288095Y-46502381D01*
X253240476Y-46978571D01*
X253288095Y-46930952D01*
X253383333Y-46883333D01*
X253621429Y-46883333D01*
X253716667Y-46930952D01*
X253764286Y-46978571D01*
X253811905Y-47073810D01*
X253811905Y-47311905D01*
X253764286Y-47407143D01*
X253716667Y-47454762D01*
X253621429Y-47502381D01*
X253383333Y-47502381D01*
X253288095Y-47454762D01*
X253240476Y-47407143D01*
X71966667Y-94204762D02*
X72109524Y-94252381D01*
X72347620Y-94252381D01*
X72442858Y-94204762D01*
X72490477Y-94157143D01*
X72538096Y-94061905D01*
X72538096Y-93966667D01*
X72490477Y-93871429D01*
X72442858Y-93823810D01*
X72347620Y-93776190D01*
X72157143Y-93728571D01*
X72061905Y-93680952D01*
X72014286Y-93633333D01*
X71966667Y-93538095D01*
X71966667Y-93442857D01*
X72014286Y-93347619D01*
X72061905Y-93300000D01*
X72157143Y-93252381D01*
X72395239Y-93252381D01*
X72538096Y-93300000D01*
X72871429Y-93252381D02*
X73109524Y-94252381D01*
X73300001Y-93538095D01*
X73490477Y-94252381D01*
X73728572Y-93252381D01*
X74633334Y-94252381D02*
X74061905Y-94252381D01*
X74347619Y-94252381D02*
X74347619Y-93252381D01*
X74252381Y-93395238D01*
X74157143Y-93490476D01*
X74061905Y-93538095D01*
X71966667Y-128704762D02*
X72109524Y-128752381D01*
X72347620Y-128752381D01*
X72442858Y-128704762D01*
X72490477Y-128657143D01*
X72538096Y-128561905D01*
X72538096Y-128466667D01*
X72490477Y-128371429D01*
X72442858Y-128323810D01*
X72347620Y-128276190D01*
X72157143Y-128228571D01*
X72061905Y-128180952D01*
X72014286Y-128133333D01*
X71966667Y-128038095D01*
X71966667Y-127942857D01*
X72014286Y-127847619D01*
X72061905Y-127800000D01*
X72157143Y-127752381D01*
X72395239Y-127752381D01*
X72538096Y-127800000D01*
X72871429Y-127752381D02*
X73109524Y-128752381D01*
X73300001Y-128038095D01*
X73490477Y-128752381D01*
X73728572Y-127752381D01*
X74061905Y-127847619D02*
X74109524Y-127800000D01*
X74204762Y-127752381D01*
X74442858Y-127752381D01*
X74538096Y-127800000D01*
X74585715Y-127847619D01*
X74633334Y-127942857D01*
X74633334Y-128038095D01*
X74585715Y-128180952D01*
X74014286Y-128752381D01*
X74633334Y-128752381D01*
X31966667Y-59704762D02*
X32109524Y-59752381D01*
X32347620Y-59752381D01*
X32442858Y-59704762D01*
X32490477Y-59657143D01*
X32538096Y-59561905D01*
X32538096Y-59466667D01*
X32490477Y-59371429D01*
X32442858Y-59323810D01*
X32347620Y-59276190D01*
X32157143Y-59228571D01*
X32061905Y-59180952D01*
X32014286Y-59133333D01*
X31966667Y-59038095D01*
X31966667Y-58942857D01*
X32014286Y-58847619D01*
X32061905Y-58800000D01*
X32157143Y-58752381D01*
X32395239Y-58752381D01*
X32538096Y-58800000D01*
X32871429Y-58752381D02*
X33109524Y-59752381D01*
X33300001Y-59038095D01*
X33490477Y-59752381D01*
X33728572Y-58752381D01*
X34014286Y-58752381D02*
X34633334Y-58752381D01*
X34300000Y-59133333D01*
X34442858Y-59133333D01*
X34538096Y-59180952D01*
X34585715Y-59228571D01*
X34633334Y-59323810D01*
X34633334Y-59561905D01*
X34585715Y-59657143D01*
X34538096Y-59704762D01*
X34442858Y-59752381D01*
X34157143Y-59752381D01*
X34061905Y-59704762D01*
X34014286Y-59657143D01*
X51966667Y-59704762D02*
X52109524Y-59752381D01*
X52347620Y-59752381D01*
X52442858Y-59704762D01*
X52490477Y-59657143D01*
X52538096Y-59561905D01*
X52538096Y-59466667D01*
X52490477Y-59371429D01*
X52442858Y-59323810D01*
X52347620Y-59276190D01*
X52157143Y-59228571D01*
X52061905Y-59180952D01*
X52014286Y-59133333D01*
X51966667Y-59038095D01*
X51966667Y-58942857D01*
X52014286Y-58847619D01*
X52061905Y-58800000D01*
X52157143Y-58752381D01*
X52395239Y-58752381D01*
X52538096Y-58800000D01*
X52871429Y-58752381D02*
X53109524Y-59752381D01*
X53300001Y-59038095D01*
X53490477Y-59752381D01*
X53728572Y-58752381D01*
X54538096Y-59085714D02*
X54538096Y-59752381D01*
X54300000Y-58704762D02*
X54061905Y-59419048D01*
X54680953Y-59419048D01*
X126966667Y-94204762D02*
X127109524Y-94252381D01*
X127347620Y-94252381D01*
X127442858Y-94204762D01*
X127490477Y-94157143D01*
X127538096Y-94061905D01*
X127538096Y-93966667D01*
X127490477Y-93871429D01*
X127442858Y-93823810D01*
X127347620Y-93776190D01*
X127157143Y-93728571D01*
X127061905Y-93680952D01*
X127014286Y-93633333D01*
X126966667Y-93538095D01*
X126966667Y-93442857D01*
X127014286Y-93347619D01*
X127061905Y-93300000D01*
X127157143Y-93252381D01*
X127395239Y-93252381D01*
X127538096Y-93300000D01*
X127871429Y-93252381D02*
X128109524Y-94252381D01*
X128300001Y-93538095D01*
X128490477Y-94252381D01*
X128728572Y-93252381D01*
X129585715Y-93252381D02*
X129109524Y-93252381D01*
X129061905Y-93728571D01*
X129109524Y-93680952D01*
X129204762Y-93633333D01*
X129442858Y-93633333D01*
X129538096Y-93680952D01*
X129585715Y-93728571D01*
X129633334Y-93823810D01*
X129633334Y-94061905D01*
X129585715Y-94157143D01*
X129538096Y-94204762D01*
X129442858Y-94252381D01*
X129204762Y-94252381D01*
X129109524Y-94204762D01*
X129061905Y-94157143D01*
X126966667Y-128704762D02*
X127109524Y-128752381D01*
X127347620Y-128752381D01*
X127442858Y-128704762D01*
X127490477Y-128657143D01*
X127538096Y-128561905D01*
X127538096Y-128466667D01*
X127490477Y-128371429D01*
X127442858Y-128323810D01*
X127347620Y-128276190D01*
X127157143Y-128228571D01*
X127061905Y-128180952D01*
X127014286Y-128133333D01*
X126966667Y-128038095D01*
X126966667Y-127942857D01*
X127014286Y-127847619D01*
X127061905Y-127800000D01*
X127157143Y-127752381D01*
X127395239Y-127752381D01*
X127538096Y-127800000D01*
X127871429Y-127752381D02*
X128109524Y-128752381D01*
X128300001Y-128038095D01*
X128490477Y-128752381D01*
X128728572Y-127752381D01*
X129538096Y-127752381D02*
X129347619Y-127752381D01*
X129252381Y-127800000D01*
X129204762Y-127847619D01*
X129109524Y-127990476D01*
X129061905Y-128180952D01*
X129061905Y-128561905D01*
X129109524Y-128657143D01*
X129157143Y-128704762D01*
X129252381Y-128752381D01*
X129442858Y-128752381D01*
X129538096Y-128704762D01*
X129585715Y-128657143D01*
X129633334Y-128561905D01*
X129633334Y-128323810D01*
X129585715Y-128228571D01*
X129538096Y-128180952D01*
X129442858Y-128133333D01*
X129252381Y-128133333D01*
X129157143Y-128180952D01*
X129109524Y-128228571D01*
X129061905Y-128323810D01*
X181966667Y-94204762D02*
X182109524Y-94252381D01*
X182347620Y-94252381D01*
X182442858Y-94204762D01*
X182490477Y-94157143D01*
X182538096Y-94061905D01*
X182538096Y-93966667D01*
X182490477Y-93871429D01*
X182442858Y-93823810D01*
X182347620Y-93776190D01*
X182157143Y-93728571D01*
X182061905Y-93680952D01*
X182014286Y-93633333D01*
X181966667Y-93538095D01*
X181966667Y-93442857D01*
X182014286Y-93347619D01*
X182061905Y-93300000D01*
X182157143Y-93252381D01*
X182395239Y-93252381D01*
X182538096Y-93300000D01*
X182871429Y-93252381D02*
X183109524Y-94252381D01*
X183300001Y-93538095D01*
X183490477Y-94252381D01*
X183728572Y-93252381D01*
X184014286Y-93252381D02*
X184680953Y-93252381D01*
X184252381Y-94252381D01*
X181966667Y-128704762D02*
X182109524Y-128752381D01*
X182347620Y-128752381D01*
X182442858Y-128704762D01*
X182490477Y-128657143D01*
X182538096Y-128561905D01*
X182538096Y-128466667D01*
X182490477Y-128371429D01*
X182442858Y-128323810D01*
X182347620Y-128276190D01*
X182157143Y-128228571D01*
X182061905Y-128180952D01*
X182014286Y-128133333D01*
X181966667Y-128038095D01*
X181966667Y-127942857D01*
X182014286Y-127847619D01*
X182061905Y-127800000D01*
X182157143Y-127752381D01*
X182395239Y-127752381D01*
X182538096Y-127800000D01*
X182871429Y-127752381D02*
X183109524Y-128752381D01*
X183300001Y-128038095D01*
X183490477Y-128752381D01*
X183728572Y-127752381D01*
X184252381Y-128180952D02*
X184157143Y-128133333D01*
X184109524Y-128085714D01*
X184061905Y-127990476D01*
X184061905Y-127942857D01*
X184109524Y-127847619D01*
X184157143Y-127800000D01*
X184252381Y-127752381D01*
X184442858Y-127752381D01*
X184538096Y-127800000D01*
X184585715Y-127847619D01*
X184633334Y-127942857D01*
X184633334Y-127990476D01*
X184585715Y-128085714D01*
X184538096Y-128133333D01*
X184442858Y-128180952D01*
X184252381Y-128180952D01*
X184157143Y-128228571D01*
X184109524Y-128276190D01*
X184061905Y-128371429D01*
X184061905Y-128561905D01*
X184109524Y-128657143D01*
X184157143Y-128704762D01*
X184252381Y-128752381D01*
X184442858Y-128752381D01*
X184538096Y-128704762D01*
X184585715Y-128657143D01*
X184633334Y-128561905D01*
X184633334Y-128371429D01*
X184585715Y-128276190D01*
X184538096Y-128228571D01*
X184442858Y-128180952D01*
X181966667Y-59704762D02*
X182109524Y-59752381D01*
X182347620Y-59752381D01*
X182442858Y-59704762D01*
X182490477Y-59657143D01*
X182538096Y-59561905D01*
X182538096Y-59466667D01*
X182490477Y-59371429D01*
X182442858Y-59323810D01*
X182347620Y-59276190D01*
X182157143Y-59228571D01*
X182061905Y-59180952D01*
X182014286Y-59133333D01*
X181966667Y-59038095D01*
X181966667Y-58942857D01*
X182014286Y-58847619D01*
X182061905Y-58800000D01*
X182157143Y-58752381D01*
X182395239Y-58752381D01*
X182538096Y-58800000D01*
X182871429Y-58752381D02*
X183109524Y-59752381D01*
X183300001Y-59038095D01*
X183490477Y-59752381D01*
X183728572Y-58752381D01*
X184157143Y-59752381D02*
X184347619Y-59752381D01*
X184442858Y-59704762D01*
X184490477Y-59657143D01*
X184585715Y-59514286D01*
X184633334Y-59323810D01*
X184633334Y-58942857D01*
X184585715Y-58847619D01*
X184538096Y-58800000D01*
X184442858Y-58752381D01*
X184252381Y-58752381D01*
X184157143Y-58800000D01*
X184109524Y-58847619D01*
X184061905Y-58942857D01*
X184061905Y-59180952D01*
X184109524Y-59276190D01*
X184157143Y-59323810D01*
X184252381Y-59371429D01*
X184442858Y-59371429D01*
X184538096Y-59323810D01*
X184585715Y-59276190D01*
X184633334Y-59180952D01*
D13*
X267045429Y-71901143D02*
X268279143Y-71901143D01*
X268424286Y-71828571D01*
X268496857Y-71756000D01*
X268569429Y-71610857D01*
X268569429Y-71320571D01*
X268496857Y-71175429D01*
X268424286Y-71102857D01*
X268279143Y-71030286D01*
X267045429Y-71030286D01*
X268569429Y-69506286D02*
X268569429Y-70377143D01*
X268569429Y-69941715D02*
X267045429Y-69941715D01*
X267263143Y-70086858D01*
X267408286Y-70232000D01*
X267480857Y-70377143D01*
X267045429Y-117651143D02*
X268279143Y-117651143D01*
X268424286Y-117578571D01*
X268496857Y-117506000D01*
X268569429Y-117360857D01*
X268569429Y-117070571D01*
X268496857Y-116925429D01*
X268424286Y-116852857D01*
X268279143Y-116780286D01*
X267045429Y-116780286D01*
X267190571Y-116127143D02*
X267118000Y-116054572D01*
X267045429Y-115909429D01*
X267045429Y-115546572D01*
X267118000Y-115401429D01*
X267190571Y-115328858D01*
X267335714Y-115256286D01*
X267480857Y-115256286D01*
X267698571Y-115328858D01*
X268569429Y-116199715D01*
X268569429Y-115256286D01*
D11*
X98990476Y-59854762D02*
X99133333Y-59902381D01*
X99371429Y-59902381D01*
X99466667Y-59854762D01*
X99514286Y-59807143D01*
X99561905Y-59711905D01*
X99561905Y-59616667D01*
X99514286Y-59521429D01*
X99466667Y-59473810D01*
X99371429Y-59426190D01*
X99180952Y-59378571D01*
X99085714Y-59330952D01*
X99038095Y-59283333D01*
X98990476Y-59188095D01*
X98990476Y-59092857D01*
X99038095Y-58997619D01*
X99085714Y-58950000D01*
X99180952Y-58902381D01*
X99419048Y-58902381D01*
X99561905Y-58950000D01*
X99895238Y-58902381D02*
X100133333Y-59902381D01*
X100323810Y-59188095D01*
X100514286Y-59902381D01*
X100752381Y-58902381D01*
X101657143Y-59902381D02*
X101085714Y-59902381D01*
X101371428Y-59902381D02*
X101371428Y-58902381D01*
X101276190Y-59045238D01*
X101180952Y-59140476D01*
X101085714Y-59188095D01*
X102276190Y-58902381D02*
X102371429Y-58902381D01*
X102466667Y-58950000D01*
X102514286Y-58997619D01*
X102561905Y-59092857D01*
X102609524Y-59283333D01*
X102609524Y-59521429D01*
X102561905Y-59711905D01*
X102514286Y-59807143D01*
X102466667Y-59854762D01*
X102371429Y-59902381D01*
X102276190Y-59902381D01*
X102180952Y-59854762D01*
X102133333Y-59807143D01*
X102085714Y-59711905D01*
X102038095Y-59521429D01*
X102038095Y-59283333D01*
X102085714Y-59092857D01*
X102133333Y-58997619D01*
X102180952Y-58950000D01*
X102276190Y-58902381D01*
X154240476Y-60604762D02*
X154383333Y-60652381D01*
X154621429Y-60652381D01*
X154716667Y-60604762D01*
X154764286Y-60557143D01*
X154811905Y-60461905D01*
X154811905Y-60366667D01*
X154764286Y-60271429D01*
X154716667Y-60223810D01*
X154621429Y-60176190D01*
X154430952Y-60128571D01*
X154335714Y-60080952D01*
X154288095Y-60033333D01*
X154240476Y-59938095D01*
X154240476Y-59842857D01*
X154288095Y-59747619D01*
X154335714Y-59700000D01*
X154430952Y-59652381D01*
X154669048Y-59652381D01*
X154811905Y-59700000D01*
X155145238Y-59652381D02*
X155383333Y-60652381D01*
X155573810Y-59938095D01*
X155764286Y-60652381D01*
X156002381Y-59652381D01*
X156907143Y-60652381D02*
X156335714Y-60652381D01*
X156621428Y-60652381D02*
X156621428Y-59652381D01*
X156526190Y-59795238D01*
X156430952Y-59890476D01*
X156335714Y-59938095D01*
X157859524Y-60652381D02*
X157288095Y-60652381D01*
X157573809Y-60652381D02*
X157573809Y-59652381D01*
X157478571Y-59795238D01*
X157383333Y-59890476D01*
X157288095Y-59938095D01*
M02*
