G04 #@! TF.FileFunction,Copper,L1,Top,Signal*
%FSLAX46Y46*%
G04 Gerber Fmt 4.6, Leading zero omitted, Abs format (unit mm)*
G04 Created by KiCad (PCBNEW 4.0.7) date 08/09/18 13:01:09*
%MOMM*%
%LPD*%
G01*
G04 APERTURE LIST*
%ADD10C,0.100000*%
%ADD11R,1.600000X1.600000*%
%ADD12O,1.600000X1.600000*%
%ADD13R,1.350000X1.350000*%
%ADD14C,1.350000*%
%ADD15C,1.524000*%
%ADD16C,17.000000*%
%ADD17C,2.500000*%
%ADD18C,3.000000*%
%ADD19C,0.250000*%
G04 APERTURE END LIST*
D10*
D11*
X104270000Y-88500000D03*
D12*
X96650000Y-121520000D03*
X104270000Y-91040000D03*
X96650000Y-118980000D03*
X104270000Y-93580000D03*
X96650000Y-116440000D03*
X104270000Y-96120000D03*
X96650000Y-113900000D03*
X104270000Y-98660000D03*
X96650000Y-111360000D03*
X104270000Y-101200000D03*
X96650000Y-108820000D03*
X104270000Y-103740000D03*
X96650000Y-106280000D03*
X104270000Y-106280000D03*
X96650000Y-103740000D03*
X104270000Y-108820000D03*
X96650000Y-101200000D03*
X104270000Y-111360000D03*
X96650000Y-98660000D03*
X104270000Y-113900000D03*
X96650000Y-96120000D03*
X104270000Y-116440000D03*
X96650000Y-93580000D03*
X104270000Y-118980000D03*
X96650000Y-91040000D03*
X104270000Y-121520000D03*
X96650000Y-88500000D03*
D13*
X23023358Y-96439158D03*
D14*
X23023358Y-94439158D03*
X23023358Y-92439158D03*
X23023358Y-90439158D03*
X23023358Y-88439158D03*
X23023358Y-86439158D03*
D15*
X35573358Y-131539158D03*
X35573358Y-144239158D03*
X30073358Y-131539158D03*
X30073358Y-144239158D03*
X24823358Y-131539158D03*
X24823358Y-144239158D03*
D16*
X73300000Y-93300000D03*
D17*
X73300000Y-81870000D03*
X80920000Y-85680000D03*
X65680000Y-85680000D03*
X73300000Y-104730000D03*
D16*
X73300000Y-127800000D03*
D17*
X73300000Y-116370000D03*
X80920000Y-120180000D03*
X65680000Y-120180000D03*
X73300000Y-139230000D03*
D16*
X33300000Y-58800000D03*
D17*
X33300000Y-47370000D03*
X40920000Y-51180000D03*
X25680000Y-51180000D03*
X33300000Y-70230000D03*
D16*
X53300000Y-58800000D03*
D17*
X53300000Y-47370000D03*
X60920000Y-51180000D03*
X45680000Y-51180000D03*
X53300000Y-70230000D03*
D16*
X128300000Y-93300000D03*
D17*
X128300000Y-81870000D03*
X135920000Y-85680000D03*
X120680000Y-85680000D03*
X128300000Y-104730000D03*
D16*
X128300000Y-127800000D03*
D17*
X128300000Y-116370000D03*
X135920000Y-120180000D03*
X120680000Y-120180000D03*
X128300000Y-139230000D03*
D16*
X183300000Y-93300000D03*
D17*
X183300000Y-81870000D03*
X190920000Y-85680000D03*
X175680000Y-85680000D03*
X183300000Y-104730000D03*
D16*
X183300000Y-127800000D03*
D17*
X183300000Y-116370000D03*
X190920000Y-120180000D03*
X175680000Y-120180000D03*
X183300000Y-139230000D03*
D16*
X183300000Y-58800000D03*
D17*
X183300000Y-47370000D03*
X190920000Y-51180000D03*
X175680000Y-51180000D03*
X183300000Y-70230000D03*
D15*
X100800000Y-49650000D03*
X103340000Y-49650000D03*
X105880000Y-49650000D03*
X98260000Y-49650000D03*
X95720000Y-49650000D03*
X100800000Y-67950000D03*
X103340000Y-67950000D03*
X105880000Y-67950000D03*
X98260000Y-67950000D03*
X95720000Y-67950000D03*
D18*
X108800000Y-57700000D03*
X92800000Y-57700000D03*
D15*
X155800000Y-49650000D03*
X158340000Y-49650000D03*
X160880000Y-49650000D03*
X153260000Y-49650000D03*
X150720000Y-49650000D03*
X155800000Y-67950000D03*
X158340000Y-67950000D03*
X160880000Y-67950000D03*
X153260000Y-67950000D03*
X150720000Y-67950000D03*
D18*
X163800000Y-57700000D03*
X147800000Y-57700000D03*
D16*
X203300000Y-58800000D03*
D17*
X203300000Y-47370000D03*
X203300000Y-70230000D03*
D16*
X73300000Y-58800000D03*
D17*
X73300000Y-47370000D03*
X73300000Y-70230000D03*
D16*
X128300000Y-58800000D03*
D17*
X128300000Y-47370000D03*
X128300000Y-70230000D03*
D11*
X158870000Y-87780000D03*
D12*
X151250000Y-120800000D03*
X158870000Y-90320000D03*
X151250000Y-118260000D03*
X158870000Y-92860000D03*
X151250000Y-115720000D03*
X158870000Y-95400000D03*
X151250000Y-113180000D03*
X158870000Y-97940000D03*
X151250000Y-110640000D03*
X158870000Y-100480000D03*
X151250000Y-108100000D03*
X158870000Y-103020000D03*
X151250000Y-105560000D03*
X158870000Y-105560000D03*
X151250000Y-103020000D03*
X158870000Y-108100000D03*
X151250000Y-100480000D03*
X158870000Y-110640000D03*
X151250000Y-97940000D03*
X158870000Y-113180000D03*
X151250000Y-95400000D03*
X158870000Y-115720000D03*
X151250000Y-92860000D03*
X158870000Y-118260000D03*
X151250000Y-90320000D03*
X158870000Y-120800000D03*
X151250000Y-87780000D03*
D19*
X151250000Y-110640000D02*
X150118630Y-110640000D01*
X150118630Y-110640000D02*
X147008916Y-107530286D01*
X147008916Y-107530286D02*
X100479714Y-107530286D01*
X100479714Y-107530286D02*
X96650000Y-111360000D01*
X23023358Y-94439158D02*
X20778693Y-96683823D01*
X20778693Y-96683823D02*
X20778693Y-131444036D01*
X20778693Y-131444036D02*
X27481880Y-138147223D01*
X27481880Y-138147223D02*
X33416994Y-138147223D01*
X33416994Y-138147223D02*
X35573358Y-140303587D01*
X35573358Y-140303587D02*
X35573358Y-144239158D01*
X105880000Y-67950000D02*
X114380000Y-67950000D01*
X114380000Y-67950000D02*
X128300000Y-81870000D01*
X160880000Y-67950000D02*
X168134757Y-67950000D01*
X168134757Y-67950000D02*
X175680000Y-75495243D01*
X175680000Y-75495243D02*
X175680000Y-85680000D01*
X158870000Y-110640000D02*
X168410000Y-120180000D01*
X168410000Y-120180000D02*
X175680000Y-120180000D01*
X164050000Y-99077766D02*
X164050000Y-105460000D01*
X164050000Y-105460000D02*
X158870000Y-110640000D01*
X175680000Y-85680000D02*
X175680000Y-87447766D01*
X175680000Y-87447766D02*
X164050000Y-99077766D01*
X104270000Y-108820000D02*
X146890000Y-108820000D01*
X146890000Y-108820000D02*
X151250000Y-113180000D01*
X35573358Y-131539158D02*
X46350177Y-142315977D01*
X46350177Y-142315977D02*
X92086083Y-142315977D01*
X96662373Y-137739687D02*
X96662373Y-121532373D01*
X92086083Y-142315977D02*
X96662373Y-137739687D01*
X96662373Y-121532373D02*
X96650000Y-121520000D01*
X96650000Y-113900000D02*
X93459621Y-117090379D01*
X93459621Y-117090379D02*
X93459621Y-118329621D01*
X93459621Y-118329621D02*
X96650000Y-121520000D01*
X30073358Y-131539158D02*
X30073358Y-97489158D01*
X30073358Y-97489158D02*
X23023358Y-90439158D01*
X24810334Y-131552182D02*
X24823358Y-131539158D01*
X30073358Y-131539158D02*
X35573358Y-131539158D01*
X24823358Y-131539158D02*
X30073358Y-131539158D01*
X104270000Y-116440000D02*
X101050000Y-119660000D01*
X101050000Y-119660000D02*
X101050000Y-128051777D01*
X101050000Y-128051777D02*
X114572450Y-141574227D01*
X114572450Y-141574227D02*
X142514000Y-141574227D01*
X142514000Y-141574227D02*
X142514000Y-124731842D01*
X142514000Y-124731842D02*
X149858158Y-124731842D01*
X149858158Y-124731842D02*
X158870000Y-115720000D01*
X30073358Y-144239158D02*
X27499053Y-144239158D01*
X27499053Y-144239158D02*
X19556758Y-136296863D01*
X19556758Y-136296863D02*
X19556758Y-91905758D01*
X19556758Y-91905758D02*
X23023358Y-88439158D01*
X24823358Y-144239158D02*
X20935515Y-144239158D01*
X20935515Y-144239158D02*
X18404648Y-141708291D01*
X18404648Y-141708291D02*
X18404648Y-91057868D01*
X18404648Y-91057868D02*
X23023358Y-86439158D01*
M02*
