M48
;DRILL file {KiCad 4.0.7} date 07/23/18 15:59:13
;FORMAT={-:-/ absolute / inch / decimal}
FMAT,2
INCH,TZ
T1C0.016
T2C0.031
T3C0.032
T4C0.035
T5C0.079
%
G90
G05
M72
T1
X8.7697Y-3.1181
T2
X1.011Y-2.015
X1.311Y-1.865
X1.311Y-2.765
X1.611Y-2.015
X1.7984Y-2.015
X2.0984Y-1.865
X2.0984Y-2.765
X2.3984Y-2.015
X2.5858Y-2.015
X2.5858Y-3.3732
X2.5858Y-4.7315
X2.8858Y-1.865
X2.8858Y-2.765
X2.8858Y-3.2232
X2.8858Y-4.1232
X2.8858Y-4.5815
X2.8858Y-5.4815
X3.1858Y-2.015
X3.1858Y-3.3732
X3.1858Y-4.7315
X4.7512Y-2.015
X4.7512Y-3.3732
X4.7512Y-4.7315
X5.0512Y-1.865
X5.0512Y-2.765
X5.0512Y-3.2232
X5.0512Y-4.1232
X5.0512Y-4.5815
X5.0512Y-5.4815
X5.3512Y-2.015
X5.3512Y-3.3732
X5.3512Y-4.7315
X6.9165Y-2.015
X6.9165Y-3.3732
X6.9165Y-4.7315
X7.2165Y-1.865
X7.2165Y-2.765
X7.2165Y-3.2232
X7.2165Y-4.1232
X7.2165Y-4.5815
X7.2165Y-5.4815
X7.5165Y-2.015
X7.5165Y-3.3732
X7.5165Y-4.7315
X7.7039Y-2.015
X8.0039Y-1.865
X8.0039Y-2.765
X8.3039Y-2.015
X9.0965Y-2.635
X9.0965Y-2.935
X9.0965Y-4.4362
X9.0965Y-4.7362
X9.1965Y-2.635
X9.1965Y-2.935
X9.1965Y-4.4362
X9.1965Y-4.7362
X9.2965Y-2.635
X9.2965Y-2.935
X9.2965Y-4.4362
X9.2965Y-4.7362
X9.3965Y-2.635
X9.3965Y-2.935
X9.3965Y-4.4362
X9.3965Y-4.7362
X9.4965Y-2.635
X9.4965Y-2.935
X9.4965Y-4.4362
X9.4965Y-4.7362
X9.5965Y-2.635
X9.5965Y-2.935
X9.5965Y-4.4362
X9.5965Y-4.7362
X9.6965Y-2.635
X9.6965Y-2.935
X9.6965Y-4.4362
X9.6965Y-4.7362
X9.7965Y-2.635
X9.7965Y-2.935
X9.7965Y-4.4362
X9.7965Y-4.7362
X9.8965Y-2.635
X9.8965Y-2.935
X9.8965Y-4.4362
X9.8965Y-4.7362
X9.9965Y-2.635
X9.9965Y-2.935
X9.9965Y-4.4362
X9.9965Y-4.7362
X10.0965Y-2.635
X10.0965Y-2.935
X10.0965Y-4.4362
X10.0965Y-4.7362
X10.1965Y-2.635
X10.1965Y-2.935
X10.1965Y-4.4362
X10.1965Y-4.7362
X10.2965Y-2.635
X10.2965Y-2.935
X10.2965Y-4.4362
X10.2965Y-4.7362
X10.3957Y-1.4685
X10.3965Y-2.635
X10.3965Y-2.935
X10.3965Y-4.4362
X10.3965Y-4.7362
X10.4744Y-1.4685
X10.5531Y-1.4685
X10.6319Y-1.4685
X10.7106Y-1.4685
X10.7894Y-1.4685
T3
X1.313Y-1.2028
X1.313Y-1.7028
X1.9252Y-3.2323
X1.9331Y-4.5886
X2.0984Y-1.1988
X2.0984Y-1.6988
X2.4252Y-3.2323
X2.4331Y-4.5886
X2.5846Y-1.1909
X2.5846Y-1.6909
X3.874Y-3.2244
X3.876Y-4.5787
X4.374Y-3.2244
X4.376Y-4.5787
X4.7461Y-1.1988
X4.7461Y-1.6988
X6.1988Y-3.2106
X6.2028Y-4.5886
X6.6988Y-3.2106
X6.7028Y-4.5886
X7.2185Y-1.2028
X7.2185Y-1.7028
X7.7039Y-1.1988
X7.7039Y-1.6988
X9.6831Y-1.7638
X9.6831Y-1.9705
X9.6831Y-2.187
X10.1831Y-1.7638
X10.1831Y-1.9705
X10.1831Y-2.187
T4
X3.7685Y-1.9547
X3.7685Y-2.6752
X3.8685Y-1.9547
X3.8685Y-2.6752
X3.9685Y-1.9547
X3.9685Y-2.6752
X4.0685Y-1.9547
X4.0685Y-2.6752
X4.1685Y-1.9547
X4.1685Y-2.6752
X5.9339Y-1.9547
X5.9339Y-2.6752
X6.0339Y-1.9547
X6.0339Y-2.6752
X6.1339Y-1.9547
X6.1339Y-2.6752
X6.2339Y-1.9547
X6.2339Y-2.6752
X6.3339Y-1.9547
X6.3339Y-2.6752
T5
X3.6535Y-2.2717
X4.2835Y-2.2717
X5.8189Y-2.2717
X6.4488Y-2.2717
T0
M30
