M48
;DRILL file {KiCad 4.0.7} date 08/09/18 13:01:14
;FORMAT={-:-/ absolute / inch / decimal}
FMAT,2
INCH,TZ
T1C0.031
T2C0.032
T3C0.035
T4C0.079
%
G90
G05
M72
T1
X0.9064Y-3.4031
X0.9064Y-3.4819
X0.9064Y-3.5606
X0.9064Y-3.6393
X0.9064Y-3.7181
X0.9064Y-3.7968
X1.011Y-2.015
X1.311Y-1.865
X1.311Y-2.765
X1.611Y-2.015
X1.7984Y-2.015
X2.0984Y-1.865
X2.0984Y-2.765
X2.3984Y-2.015
X2.5858Y-3.3732
X2.5858Y-4.7315
X2.8858Y-1.865
X2.8858Y-2.765
X2.8858Y-3.2232
X2.8858Y-4.1232
X2.8858Y-4.5815
X2.8858Y-5.4815
X3.1858Y-3.3732
X3.1858Y-4.7315
X3.8051Y-3.4843
X3.8051Y-3.5843
X3.8051Y-3.6843
X3.8051Y-3.7843
X3.8051Y-3.8843
X3.8051Y-3.9843
X3.8051Y-4.0843
X3.8051Y-4.1843
X3.8051Y-4.2843
X3.8051Y-4.3843
X3.8051Y-4.4843
X3.8051Y-4.5843
X3.8051Y-4.6843
X3.8051Y-4.7843
X4.1051Y-3.4843
X4.1051Y-3.5843
X4.1051Y-3.6843
X4.1051Y-3.7843
X4.1051Y-3.8843
X4.1051Y-3.9843
X4.1051Y-4.0843
X4.1051Y-4.1843
X4.1051Y-4.2843
X4.1051Y-4.3843
X4.1051Y-4.4843
X4.1051Y-4.5843
X4.1051Y-4.6843
X4.1051Y-4.7843
X4.7512Y-3.3732
X4.7512Y-4.7315
X5.0512Y-1.865
X5.0512Y-2.765
X5.0512Y-3.2232
X5.0512Y-4.1232
X5.0512Y-4.5815
X5.0512Y-5.4815
X5.3512Y-3.3732
X5.3512Y-4.7315
X5.9547Y-3.4559
X5.9547Y-3.5559
X5.9547Y-3.6559
X5.9547Y-3.7559
X5.9547Y-3.8559
X5.9547Y-3.9559
X5.9547Y-4.0559
X5.9547Y-4.1559
X5.9547Y-4.2559
X5.9547Y-4.3559
X5.9547Y-4.4559
X5.9547Y-4.5559
X5.9547Y-4.6559
X5.9547Y-4.7559
X6.2547Y-3.4559
X6.2547Y-3.5559
X6.2547Y-3.6559
X6.2547Y-3.7559
X6.2547Y-3.8559
X6.2547Y-3.9559
X6.2547Y-4.0559
X6.2547Y-4.1559
X6.2547Y-4.2559
X6.2547Y-4.3559
X6.2547Y-4.4559
X6.2547Y-4.5559
X6.2547Y-4.6559
X6.2547Y-4.7559
X6.9165Y-2.015
X6.9165Y-3.3732
X6.9165Y-4.7315
X7.2165Y-1.865
X7.2165Y-2.765
X7.2165Y-3.2232
X7.2165Y-4.1232
X7.2165Y-4.5815
X7.2165Y-5.4815
X7.5165Y-2.015
X7.5165Y-3.3732
X7.5165Y-4.7315
X8.0039Y-1.865
X8.0039Y-2.765
T2
X0.9773Y-5.1787
X0.9773Y-5.6787
X1.184Y-5.1787
X1.184Y-5.6787
X1.4005Y-5.1787
X1.4005Y-5.6787
T3
X3.7685Y-1.9547
X3.7685Y-2.6752
X3.8685Y-1.9547
X3.8685Y-2.6752
X3.9685Y-1.9547
X3.9685Y-2.6752
X4.0685Y-1.9547
X4.0685Y-2.6752
X4.1685Y-1.9547
X4.1685Y-2.6752
X5.9339Y-1.9547
X5.9339Y-2.6752
X6.0339Y-1.9547
X6.0339Y-2.6752
X6.1339Y-1.9547
X6.1339Y-2.6752
X6.2339Y-1.9547
X6.2339Y-2.6752
X6.3339Y-1.9547
X6.3339Y-2.6752
T4
X3.6535Y-2.2717
X4.2835Y-2.2717
X5.8189Y-2.2717
X6.4488Y-2.2717
T0
M30
