G04 #@! TF.GenerationSoftware,KiCad,Pcbnew,(5.0.0)*
G04 #@! TF.CreationDate,2019-11-29T15:53:21+00:00*
G04 #@! TF.ProjectId,Sound Board,536F756E6420426F6172642E6B696361,rev?*
G04 #@! TF.SameCoordinates,Original*
G04 #@! TF.FileFunction,Legend,Top*
G04 #@! TF.FilePolarity,Positive*
%FSLAX46Y46*%
G04 Gerber Fmt 4.6, Leading zero omitted, Abs format (unit mm)*
G04 Created by KiCad (PCBNEW (5.0.0)) date 11/29/19 15:53:21*
%MOMM*%
%LPD*%
G01*
G04 APERTURE LIST*
%ADD10C,0.120000*%
%ADD11C,0.150000*%
%ADD12C,0.127000*%
G04 APERTURE END LIST*
D10*
G04 #@! TO.C,D1*
X118790000Y-100280000D02*
X118790000Y-102520000D01*
X119030000Y-100280000D02*
X119030000Y-102520000D01*
X118910000Y-100280000D02*
X118910000Y-102520000D01*
X123080000Y-101400000D02*
X122430000Y-101400000D01*
X117540000Y-101400000D02*
X118190000Y-101400000D01*
X122430000Y-100280000D02*
X118190000Y-100280000D01*
X122430000Y-102520000D02*
X122430000Y-100280000D01*
X118190000Y-102520000D02*
X122430000Y-102520000D01*
X118190000Y-100280000D02*
X118190000Y-102520000D01*
G04 #@! TO.C,D2*
X118190000Y-103880000D02*
X118190000Y-106120000D01*
X118190000Y-106120000D02*
X122430000Y-106120000D01*
X122430000Y-106120000D02*
X122430000Y-103880000D01*
X122430000Y-103880000D02*
X118190000Y-103880000D01*
X117540000Y-105000000D02*
X118190000Y-105000000D01*
X123080000Y-105000000D02*
X122430000Y-105000000D01*
X118910000Y-103880000D02*
X118910000Y-106120000D01*
X119030000Y-103880000D02*
X119030000Y-106120000D01*
X118790000Y-103880000D02*
X118790000Y-106120000D01*
G04 #@! TO.C,D3*
X121810000Y-109720000D02*
X121810000Y-107480000D01*
X121570000Y-109720000D02*
X121570000Y-107480000D01*
X121690000Y-109720000D02*
X121690000Y-107480000D01*
X117520000Y-108600000D02*
X118170000Y-108600000D01*
X123060000Y-108600000D02*
X122410000Y-108600000D01*
X118170000Y-109720000D02*
X122410000Y-109720000D01*
X118170000Y-107480000D02*
X118170000Y-109720000D01*
X122410000Y-107480000D02*
X118170000Y-107480000D01*
X122410000Y-109720000D02*
X122410000Y-107480000D01*
G04 #@! TO.C,J1*
X102270000Y-103270000D02*
X103600000Y-103270000D01*
X102270000Y-104600000D02*
X102270000Y-103270000D01*
X102270000Y-105870000D02*
X104930000Y-105870000D01*
X104930000Y-105870000D02*
X104930000Y-108470000D01*
X102270000Y-105870000D02*
X102270000Y-108470000D01*
X102270000Y-108470000D02*
X104930000Y-108470000D01*
G04 #@! TO.C,LS1*
X167330000Y-95330000D02*
X164670000Y-95330000D01*
X167330000Y-97930000D02*
X167330000Y-95330000D01*
X164670000Y-97930000D02*
X164670000Y-95330000D01*
X167330000Y-97930000D02*
X164670000Y-97930000D01*
X167330000Y-99200000D02*
X167330000Y-100530000D01*
X167330000Y-100530000D02*
X166000000Y-100530000D01*
G04 #@! TO.C,R10*
X118390000Y-96080000D02*
X118390000Y-97920000D01*
X118390000Y-97920000D02*
X122230000Y-97920000D01*
X122230000Y-97920000D02*
X122230000Y-96080000D01*
X122230000Y-96080000D02*
X118390000Y-96080000D01*
X117440000Y-97000000D02*
X118390000Y-97000000D01*
X123180000Y-97000000D02*
X122230000Y-97000000D01*
G04 #@! TO.C,R11*
X130780000Y-115000000D02*
X129830000Y-115000000D01*
X125040000Y-115000000D02*
X125990000Y-115000000D01*
X129830000Y-114080000D02*
X125990000Y-114080000D01*
X129830000Y-115920000D02*
X129830000Y-114080000D01*
X125990000Y-115920000D02*
X129830000Y-115920000D01*
X125990000Y-114080000D02*
X125990000Y-115920000D01*
G04 #@! TO.C,R12*
X140000000Y-96720000D02*
X140000000Y-97670000D01*
X140000000Y-102460000D02*
X140000000Y-101510000D01*
X139080000Y-97670000D02*
X139080000Y-101510000D01*
X140920000Y-97670000D02*
X139080000Y-97670000D01*
X140920000Y-101510000D02*
X140920000Y-97670000D01*
X139080000Y-101510000D02*
X140920000Y-101510000D01*
G04 #@! TO.C,R13*
X146520000Y-105290000D02*
X144680000Y-105290000D01*
X144680000Y-105290000D02*
X144680000Y-109130000D01*
X144680000Y-109130000D02*
X146520000Y-109130000D01*
X146520000Y-109130000D02*
X146520000Y-105290000D01*
X145600000Y-104340000D02*
X145600000Y-105290000D01*
X145600000Y-110080000D02*
X145600000Y-109130000D01*
G04 #@! TO.C,R14*
X136520000Y-115000000D02*
X137470000Y-115000000D01*
X142260000Y-115000000D02*
X141310000Y-115000000D01*
X137470000Y-115920000D02*
X141310000Y-115920000D01*
X137470000Y-114080000D02*
X137470000Y-115920000D01*
X141310000Y-114080000D02*
X137470000Y-114080000D01*
X141310000Y-115920000D02*
X141310000Y-114080000D01*
G04 #@! TO.C,R15*
X135720000Y-90090000D02*
X133880000Y-90090000D01*
X133880000Y-90090000D02*
X133880000Y-93930000D01*
X133880000Y-93930000D02*
X135720000Y-93930000D01*
X135720000Y-93930000D02*
X135720000Y-90090000D01*
X134800000Y-89140000D02*
X134800000Y-90090000D01*
X134800000Y-94880000D02*
X134800000Y-93930000D01*
G04 #@! TO.C,R16*
X142590000Y-91180000D02*
X142590000Y-93020000D01*
X142590000Y-93020000D02*
X146430000Y-93020000D01*
X146430000Y-93020000D02*
X146430000Y-91180000D01*
X146430000Y-91180000D02*
X142590000Y-91180000D01*
X141640000Y-92100000D02*
X142590000Y-92100000D01*
X147380000Y-92100000D02*
X146430000Y-92100000D01*
G04 #@! TO.C,R17*
X121520000Y-85700000D02*
X122470000Y-85700000D01*
X127260000Y-85700000D02*
X126310000Y-85700000D01*
X122470000Y-86620000D02*
X126310000Y-86620000D01*
X122470000Y-84780000D02*
X122470000Y-86620000D01*
X126310000Y-84780000D02*
X122470000Y-84780000D01*
X126310000Y-86620000D02*
X126310000Y-84780000D01*
G04 #@! TO.C,R18*
X151800000Y-108320000D02*
X151800000Y-109270000D01*
X151800000Y-114060000D02*
X151800000Y-113110000D01*
X150880000Y-109270000D02*
X150880000Y-113110000D01*
X152720000Y-109270000D02*
X150880000Y-109270000D01*
X152720000Y-113110000D02*
X152720000Y-109270000D01*
X150880000Y-113110000D02*
X152720000Y-113110000D01*
G04 #@! TO.C,VT3*
X129700000Y-106550000D02*
X129700000Y-110400000D01*
X129709878Y-110438611D02*
G75*
G03X129700000Y-106550000I1690122J1948611D01*
G01*
G04 #@! TO.C,VT4*
X133700000Y-102550000D02*
X133700000Y-98700000D01*
X133690122Y-98661389D02*
G75*
G03X133700000Y-102550000I-1690122J-1948611D01*
G01*
G04 #@! TO.C,VT5*
X150090122Y-97361389D02*
G75*
G03X150100000Y-101250000I-1690122J-1948611D01*
G01*
X150100000Y-101250000D02*
X150100000Y-97400000D01*
G04 #@! TO.C,VT6*
X160290122Y-110861389D02*
G75*
G03X160300000Y-114750000I-1690122J-1948611D01*
G01*
X160300000Y-114750000D02*
X160300000Y-110900000D01*
G04 #@! TO.C,C1*
X138230000Y-112320000D02*
X138230000Y-105080000D01*
X142970000Y-112320000D02*
X142970000Y-105080000D01*
X138230000Y-112320000D02*
X142970000Y-112320000D01*
X138230000Y-105080000D02*
X142970000Y-105080000D01*
G04 #@! TO.C,C2*
X126330000Y-89280000D02*
X131070000Y-89280000D01*
X126330000Y-96520000D02*
X131070000Y-96520000D01*
X131070000Y-96520000D02*
X131070000Y-89280000D01*
X126330000Y-96520000D02*
X126330000Y-89280000D01*
G04 #@! TO.C,C3*
X161020000Y-105950000D02*
G75*
G03X161020000Y-105950000I-2620000J0D01*
G01*
X155820000Y-105950000D02*
X160980000Y-105950000D01*
X155820000Y-105910000D02*
X160980000Y-105910000D01*
X155821000Y-105870000D02*
X160979000Y-105870000D01*
X155822000Y-105830000D02*
X160978000Y-105830000D01*
X155824000Y-105790000D02*
X160976000Y-105790000D01*
X155827000Y-105750000D02*
X160973000Y-105750000D01*
X155831000Y-105710000D02*
X157360000Y-105710000D01*
X159440000Y-105710000D02*
X160969000Y-105710000D01*
X155835000Y-105670000D02*
X157360000Y-105670000D01*
X159440000Y-105670000D02*
X160965000Y-105670000D01*
X155839000Y-105630000D02*
X157360000Y-105630000D01*
X159440000Y-105630000D02*
X160961000Y-105630000D01*
X155844000Y-105590000D02*
X157360000Y-105590000D01*
X159440000Y-105590000D02*
X160956000Y-105590000D01*
X155850000Y-105550000D02*
X157360000Y-105550000D01*
X159440000Y-105550000D02*
X160950000Y-105550000D01*
X155857000Y-105510000D02*
X157360000Y-105510000D01*
X159440000Y-105510000D02*
X160943000Y-105510000D01*
X155864000Y-105470000D02*
X157360000Y-105470000D01*
X159440000Y-105470000D02*
X160936000Y-105470000D01*
X155872000Y-105430000D02*
X157360000Y-105430000D01*
X159440000Y-105430000D02*
X160928000Y-105430000D01*
X155880000Y-105390000D02*
X157360000Y-105390000D01*
X159440000Y-105390000D02*
X160920000Y-105390000D01*
X155889000Y-105350000D02*
X157360000Y-105350000D01*
X159440000Y-105350000D02*
X160911000Y-105350000D01*
X155899000Y-105310000D02*
X157360000Y-105310000D01*
X159440000Y-105310000D02*
X160901000Y-105310000D01*
X155909000Y-105270000D02*
X157360000Y-105270000D01*
X159440000Y-105270000D02*
X160891000Y-105270000D01*
X155920000Y-105229000D02*
X157360000Y-105229000D01*
X159440000Y-105229000D02*
X160880000Y-105229000D01*
X155932000Y-105189000D02*
X157360000Y-105189000D01*
X159440000Y-105189000D02*
X160868000Y-105189000D01*
X155945000Y-105149000D02*
X157360000Y-105149000D01*
X159440000Y-105149000D02*
X160855000Y-105149000D01*
X155958000Y-105109000D02*
X157360000Y-105109000D01*
X159440000Y-105109000D02*
X160842000Y-105109000D01*
X155972000Y-105069000D02*
X157360000Y-105069000D01*
X159440000Y-105069000D02*
X160828000Y-105069000D01*
X155986000Y-105029000D02*
X157360000Y-105029000D01*
X159440000Y-105029000D02*
X160814000Y-105029000D01*
X156002000Y-104989000D02*
X157360000Y-104989000D01*
X159440000Y-104989000D02*
X160798000Y-104989000D01*
X156018000Y-104949000D02*
X157360000Y-104949000D01*
X159440000Y-104949000D02*
X160782000Y-104949000D01*
X156035000Y-104909000D02*
X157360000Y-104909000D01*
X159440000Y-104909000D02*
X160765000Y-104909000D01*
X156052000Y-104869000D02*
X157360000Y-104869000D01*
X159440000Y-104869000D02*
X160748000Y-104869000D01*
X156071000Y-104829000D02*
X157360000Y-104829000D01*
X159440000Y-104829000D02*
X160729000Y-104829000D01*
X156090000Y-104789000D02*
X157360000Y-104789000D01*
X159440000Y-104789000D02*
X160710000Y-104789000D01*
X156110000Y-104749000D02*
X157360000Y-104749000D01*
X159440000Y-104749000D02*
X160690000Y-104749000D01*
X156132000Y-104709000D02*
X157360000Y-104709000D01*
X159440000Y-104709000D02*
X160668000Y-104709000D01*
X156153000Y-104669000D02*
X157360000Y-104669000D01*
X159440000Y-104669000D02*
X160647000Y-104669000D01*
X156176000Y-104629000D02*
X157360000Y-104629000D01*
X159440000Y-104629000D02*
X160624000Y-104629000D01*
X156200000Y-104589000D02*
X157360000Y-104589000D01*
X159440000Y-104589000D02*
X160600000Y-104589000D01*
X156225000Y-104549000D02*
X157360000Y-104549000D01*
X159440000Y-104549000D02*
X160575000Y-104549000D01*
X156251000Y-104509000D02*
X157360000Y-104509000D01*
X159440000Y-104509000D02*
X160549000Y-104509000D01*
X156278000Y-104469000D02*
X157360000Y-104469000D01*
X159440000Y-104469000D02*
X160522000Y-104469000D01*
X156305000Y-104429000D02*
X157360000Y-104429000D01*
X159440000Y-104429000D02*
X160495000Y-104429000D01*
X156335000Y-104389000D02*
X157360000Y-104389000D01*
X159440000Y-104389000D02*
X160465000Y-104389000D01*
X156365000Y-104349000D02*
X157360000Y-104349000D01*
X159440000Y-104349000D02*
X160435000Y-104349000D01*
X156396000Y-104309000D02*
X157360000Y-104309000D01*
X159440000Y-104309000D02*
X160404000Y-104309000D01*
X156429000Y-104269000D02*
X157360000Y-104269000D01*
X159440000Y-104269000D02*
X160371000Y-104269000D01*
X156463000Y-104229000D02*
X157360000Y-104229000D01*
X159440000Y-104229000D02*
X160337000Y-104229000D01*
X156499000Y-104189000D02*
X157360000Y-104189000D01*
X159440000Y-104189000D02*
X160301000Y-104189000D01*
X156536000Y-104149000D02*
X157360000Y-104149000D01*
X159440000Y-104149000D02*
X160264000Y-104149000D01*
X156574000Y-104109000D02*
X157360000Y-104109000D01*
X159440000Y-104109000D02*
X160226000Y-104109000D01*
X156615000Y-104069000D02*
X157360000Y-104069000D01*
X159440000Y-104069000D02*
X160185000Y-104069000D01*
X156657000Y-104029000D02*
X157360000Y-104029000D01*
X159440000Y-104029000D02*
X160143000Y-104029000D01*
X156701000Y-103989000D02*
X157360000Y-103989000D01*
X159440000Y-103989000D02*
X160099000Y-103989000D01*
X156747000Y-103949000D02*
X157360000Y-103949000D01*
X159440000Y-103949000D02*
X160053000Y-103949000D01*
X156795000Y-103909000D02*
X157360000Y-103909000D01*
X159440000Y-103909000D02*
X160005000Y-103909000D01*
X156846000Y-103869000D02*
X157360000Y-103869000D01*
X159440000Y-103869000D02*
X159954000Y-103869000D01*
X156900000Y-103829000D02*
X157360000Y-103829000D01*
X159440000Y-103829000D02*
X159900000Y-103829000D01*
X156957000Y-103789000D02*
X157360000Y-103789000D01*
X159440000Y-103789000D02*
X159843000Y-103789000D01*
X157017000Y-103749000D02*
X157360000Y-103749000D01*
X159440000Y-103749000D02*
X159783000Y-103749000D01*
X157081000Y-103709000D02*
X157360000Y-103709000D01*
X159440000Y-103709000D02*
X159719000Y-103709000D01*
X157149000Y-103669000D02*
X157360000Y-103669000D01*
X159440000Y-103669000D02*
X159651000Y-103669000D01*
X157222000Y-103629000D02*
X159578000Y-103629000D01*
X157302000Y-103589000D02*
X159498000Y-103589000D01*
X157389000Y-103549000D02*
X159411000Y-103549000D01*
X157485000Y-103509000D02*
X159315000Y-103509000D01*
X157595000Y-103469000D02*
X159205000Y-103469000D01*
X157723000Y-103429000D02*
X159077000Y-103429000D01*
X157882000Y-103389000D02*
X158918000Y-103389000D01*
X158116000Y-103349000D02*
X158684000Y-103349000D01*
X156925000Y-108754775D02*
X156925000Y-108254775D01*
X156675000Y-108504775D02*
X157175000Y-108504775D01*
G04 #@! TO.C,C4*
X114130000Y-94320000D02*
X114130000Y-87080000D01*
X118870000Y-94320000D02*
X118870000Y-87080000D01*
X114130000Y-94320000D02*
X118870000Y-94320000D01*
X114130000Y-87080000D02*
X118870000Y-87080000D01*
G04 #@! TO.C,J2*
X102270000Y-89870000D02*
X103600000Y-89870000D01*
X102270000Y-91200000D02*
X102270000Y-89870000D01*
X102270000Y-92470000D02*
X104930000Y-92470000D01*
X104930000Y-92470000D02*
X104930000Y-97610000D01*
X102270000Y-92470000D02*
X102270000Y-97610000D01*
X102270000Y-97610000D02*
X104930000Y-97610000D01*
G04 #@! TO.C,RV1*
X164670000Y-110510000D02*
X167330000Y-110510000D01*
X164670000Y-105370000D02*
X164670000Y-110510000D01*
X167330000Y-105370000D02*
X167330000Y-110510000D01*
X164670000Y-105370000D02*
X167330000Y-105370000D01*
X164670000Y-104100000D02*
X164670000Y-102770000D01*
X164670000Y-102770000D02*
X166000000Y-102770000D01*
G04 #@! TO.C,C6*
X108675000Y-97304775D02*
X109175000Y-97304775D01*
X108925000Y-97554775D02*
X108925000Y-97054775D01*
X110116000Y-92149000D02*
X110684000Y-92149000D01*
X109882000Y-92189000D02*
X110918000Y-92189000D01*
X109723000Y-92229000D02*
X111077000Y-92229000D01*
X109595000Y-92269000D02*
X111205000Y-92269000D01*
X109485000Y-92309000D02*
X111315000Y-92309000D01*
X109389000Y-92349000D02*
X111411000Y-92349000D01*
X109302000Y-92389000D02*
X111498000Y-92389000D01*
X109222000Y-92429000D02*
X111578000Y-92429000D01*
X111440000Y-92469000D02*
X111651000Y-92469000D01*
X109149000Y-92469000D02*
X109360000Y-92469000D01*
X111440000Y-92509000D02*
X111719000Y-92509000D01*
X109081000Y-92509000D02*
X109360000Y-92509000D01*
X111440000Y-92549000D02*
X111783000Y-92549000D01*
X109017000Y-92549000D02*
X109360000Y-92549000D01*
X111440000Y-92589000D02*
X111843000Y-92589000D01*
X108957000Y-92589000D02*
X109360000Y-92589000D01*
X111440000Y-92629000D02*
X111900000Y-92629000D01*
X108900000Y-92629000D02*
X109360000Y-92629000D01*
X111440000Y-92669000D02*
X111954000Y-92669000D01*
X108846000Y-92669000D02*
X109360000Y-92669000D01*
X111440000Y-92709000D02*
X112005000Y-92709000D01*
X108795000Y-92709000D02*
X109360000Y-92709000D01*
X111440000Y-92749000D02*
X112053000Y-92749000D01*
X108747000Y-92749000D02*
X109360000Y-92749000D01*
X111440000Y-92789000D02*
X112099000Y-92789000D01*
X108701000Y-92789000D02*
X109360000Y-92789000D01*
X111440000Y-92829000D02*
X112143000Y-92829000D01*
X108657000Y-92829000D02*
X109360000Y-92829000D01*
X111440000Y-92869000D02*
X112185000Y-92869000D01*
X108615000Y-92869000D02*
X109360000Y-92869000D01*
X111440000Y-92909000D02*
X112226000Y-92909000D01*
X108574000Y-92909000D02*
X109360000Y-92909000D01*
X111440000Y-92949000D02*
X112264000Y-92949000D01*
X108536000Y-92949000D02*
X109360000Y-92949000D01*
X111440000Y-92989000D02*
X112301000Y-92989000D01*
X108499000Y-92989000D02*
X109360000Y-92989000D01*
X111440000Y-93029000D02*
X112337000Y-93029000D01*
X108463000Y-93029000D02*
X109360000Y-93029000D01*
X111440000Y-93069000D02*
X112371000Y-93069000D01*
X108429000Y-93069000D02*
X109360000Y-93069000D01*
X111440000Y-93109000D02*
X112404000Y-93109000D01*
X108396000Y-93109000D02*
X109360000Y-93109000D01*
X111440000Y-93149000D02*
X112435000Y-93149000D01*
X108365000Y-93149000D02*
X109360000Y-93149000D01*
X111440000Y-93189000D02*
X112465000Y-93189000D01*
X108335000Y-93189000D02*
X109360000Y-93189000D01*
X111440000Y-93229000D02*
X112495000Y-93229000D01*
X108305000Y-93229000D02*
X109360000Y-93229000D01*
X111440000Y-93269000D02*
X112522000Y-93269000D01*
X108278000Y-93269000D02*
X109360000Y-93269000D01*
X111440000Y-93309000D02*
X112549000Y-93309000D01*
X108251000Y-93309000D02*
X109360000Y-93309000D01*
X111440000Y-93349000D02*
X112575000Y-93349000D01*
X108225000Y-93349000D02*
X109360000Y-93349000D01*
X111440000Y-93389000D02*
X112600000Y-93389000D01*
X108200000Y-93389000D02*
X109360000Y-93389000D01*
X111440000Y-93429000D02*
X112624000Y-93429000D01*
X108176000Y-93429000D02*
X109360000Y-93429000D01*
X111440000Y-93469000D02*
X112647000Y-93469000D01*
X108153000Y-93469000D02*
X109360000Y-93469000D01*
X111440000Y-93509000D02*
X112668000Y-93509000D01*
X108132000Y-93509000D02*
X109360000Y-93509000D01*
X111440000Y-93549000D02*
X112690000Y-93549000D01*
X108110000Y-93549000D02*
X109360000Y-93549000D01*
X111440000Y-93589000D02*
X112710000Y-93589000D01*
X108090000Y-93589000D02*
X109360000Y-93589000D01*
X111440000Y-93629000D02*
X112729000Y-93629000D01*
X108071000Y-93629000D02*
X109360000Y-93629000D01*
X111440000Y-93669000D02*
X112748000Y-93669000D01*
X108052000Y-93669000D02*
X109360000Y-93669000D01*
X111440000Y-93709000D02*
X112765000Y-93709000D01*
X108035000Y-93709000D02*
X109360000Y-93709000D01*
X111440000Y-93749000D02*
X112782000Y-93749000D01*
X108018000Y-93749000D02*
X109360000Y-93749000D01*
X111440000Y-93789000D02*
X112798000Y-93789000D01*
X108002000Y-93789000D02*
X109360000Y-93789000D01*
X111440000Y-93829000D02*
X112814000Y-93829000D01*
X107986000Y-93829000D02*
X109360000Y-93829000D01*
X111440000Y-93869000D02*
X112828000Y-93869000D01*
X107972000Y-93869000D02*
X109360000Y-93869000D01*
X111440000Y-93909000D02*
X112842000Y-93909000D01*
X107958000Y-93909000D02*
X109360000Y-93909000D01*
X111440000Y-93949000D02*
X112855000Y-93949000D01*
X107945000Y-93949000D02*
X109360000Y-93949000D01*
X111440000Y-93989000D02*
X112868000Y-93989000D01*
X107932000Y-93989000D02*
X109360000Y-93989000D01*
X111440000Y-94029000D02*
X112880000Y-94029000D01*
X107920000Y-94029000D02*
X109360000Y-94029000D01*
X111440000Y-94070000D02*
X112891000Y-94070000D01*
X107909000Y-94070000D02*
X109360000Y-94070000D01*
X111440000Y-94110000D02*
X112901000Y-94110000D01*
X107899000Y-94110000D02*
X109360000Y-94110000D01*
X111440000Y-94150000D02*
X112911000Y-94150000D01*
X107889000Y-94150000D02*
X109360000Y-94150000D01*
X111440000Y-94190000D02*
X112920000Y-94190000D01*
X107880000Y-94190000D02*
X109360000Y-94190000D01*
X111440000Y-94230000D02*
X112928000Y-94230000D01*
X107872000Y-94230000D02*
X109360000Y-94230000D01*
X111440000Y-94270000D02*
X112936000Y-94270000D01*
X107864000Y-94270000D02*
X109360000Y-94270000D01*
X111440000Y-94310000D02*
X112943000Y-94310000D01*
X107857000Y-94310000D02*
X109360000Y-94310000D01*
X111440000Y-94350000D02*
X112950000Y-94350000D01*
X107850000Y-94350000D02*
X109360000Y-94350000D01*
X111440000Y-94390000D02*
X112956000Y-94390000D01*
X107844000Y-94390000D02*
X109360000Y-94390000D01*
X111440000Y-94430000D02*
X112961000Y-94430000D01*
X107839000Y-94430000D02*
X109360000Y-94430000D01*
X111440000Y-94470000D02*
X112965000Y-94470000D01*
X107835000Y-94470000D02*
X109360000Y-94470000D01*
X111440000Y-94510000D02*
X112969000Y-94510000D01*
X107831000Y-94510000D02*
X109360000Y-94510000D01*
X107827000Y-94550000D02*
X112973000Y-94550000D01*
X107824000Y-94590000D02*
X112976000Y-94590000D01*
X107822000Y-94630000D02*
X112978000Y-94630000D01*
X107821000Y-94670000D02*
X112979000Y-94670000D01*
X107820000Y-94710000D02*
X112980000Y-94710000D01*
X107820000Y-94750000D02*
X112980000Y-94750000D01*
X113020000Y-94750000D02*
G75*
G03X113020000Y-94750000I-2620000J0D01*
G01*
G04 #@! TO.C,C7*
X113020000Y-86950000D02*
G75*
G03X113020000Y-86950000I-2620000J0D01*
G01*
X107820000Y-86950000D02*
X112980000Y-86950000D01*
X107820000Y-86910000D02*
X112980000Y-86910000D01*
X107821000Y-86870000D02*
X112979000Y-86870000D01*
X107822000Y-86830000D02*
X112978000Y-86830000D01*
X107824000Y-86790000D02*
X112976000Y-86790000D01*
X107827000Y-86750000D02*
X112973000Y-86750000D01*
X107831000Y-86710000D02*
X109360000Y-86710000D01*
X111440000Y-86710000D02*
X112969000Y-86710000D01*
X107835000Y-86670000D02*
X109360000Y-86670000D01*
X111440000Y-86670000D02*
X112965000Y-86670000D01*
X107839000Y-86630000D02*
X109360000Y-86630000D01*
X111440000Y-86630000D02*
X112961000Y-86630000D01*
X107844000Y-86590000D02*
X109360000Y-86590000D01*
X111440000Y-86590000D02*
X112956000Y-86590000D01*
X107850000Y-86550000D02*
X109360000Y-86550000D01*
X111440000Y-86550000D02*
X112950000Y-86550000D01*
X107857000Y-86510000D02*
X109360000Y-86510000D01*
X111440000Y-86510000D02*
X112943000Y-86510000D01*
X107864000Y-86470000D02*
X109360000Y-86470000D01*
X111440000Y-86470000D02*
X112936000Y-86470000D01*
X107872000Y-86430000D02*
X109360000Y-86430000D01*
X111440000Y-86430000D02*
X112928000Y-86430000D01*
X107880000Y-86390000D02*
X109360000Y-86390000D01*
X111440000Y-86390000D02*
X112920000Y-86390000D01*
X107889000Y-86350000D02*
X109360000Y-86350000D01*
X111440000Y-86350000D02*
X112911000Y-86350000D01*
X107899000Y-86310000D02*
X109360000Y-86310000D01*
X111440000Y-86310000D02*
X112901000Y-86310000D01*
X107909000Y-86270000D02*
X109360000Y-86270000D01*
X111440000Y-86270000D02*
X112891000Y-86270000D01*
X107920000Y-86229000D02*
X109360000Y-86229000D01*
X111440000Y-86229000D02*
X112880000Y-86229000D01*
X107932000Y-86189000D02*
X109360000Y-86189000D01*
X111440000Y-86189000D02*
X112868000Y-86189000D01*
X107945000Y-86149000D02*
X109360000Y-86149000D01*
X111440000Y-86149000D02*
X112855000Y-86149000D01*
X107958000Y-86109000D02*
X109360000Y-86109000D01*
X111440000Y-86109000D02*
X112842000Y-86109000D01*
X107972000Y-86069000D02*
X109360000Y-86069000D01*
X111440000Y-86069000D02*
X112828000Y-86069000D01*
X107986000Y-86029000D02*
X109360000Y-86029000D01*
X111440000Y-86029000D02*
X112814000Y-86029000D01*
X108002000Y-85989000D02*
X109360000Y-85989000D01*
X111440000Y-85989000D02*
X112798000Y-85989000D01*
X108018000Y-85949000D02*
X109360000Y-85949000D01*
X111440000Y-85949000D02*
X112782000Y-85949000D01*
X108035000Y-85909000D02*
X109360000Y-85909000D01*
X111440000Y-85909000D02*
X112765000Y-85909000D01*
X108052000Y-85869000D02*
X109360000Y-85869000D01*
X111440000Y-85869000D02*
X112748000Y-85869000D01*
X108071000Y-85829000D02*
X109360000Y-85829000D01*
X111440000Y-85829000D02*
X112729000Y-85829000D01*
X108090000Y-85789000D02*
X109360000Y-85789000D01*
X111440000Y-85789000D02*
X112710000Y-85789000D01*
X108110000Y-85749000D02*
X109360000Y-85749000D01*
X111440000Y-85749000D02*
X112690000Y-85749000D01*
X108132000Y-85709000D02*
X109360000Y-85709000D01*
X111440000Y-85709000D02*
X112668000Y-85709000D01*
X108153000Y-85669000D02*
X109360000Y-85669000D01*
X111440000Y-85669000D02*
X112647000Y-85669000D01*
X108176000Y-85629000D02*
X109360000Y-85629000D01*
X111440000Y-85629000D02*
X112624000Y-85629000D01*
X108200000Y-85589000D02*
X109360000Y-85589000D01*
X111440000Y-85589000D02*
X112600000Y-85589000D01*
X108225000Y-85549000D02*
X109360000Y-85549000D01*
X111440000Y-85549000D02*
X112575000Y-85549000D01*
X108251000Y-85509000D02*
X109360000Y-85509000D01*
X111440000Y-85509000D02*
X112549000Y-85509000D01*
X108278000Y-85469000D02*
X109360000Y-85469000D01*
X111440000Y-85469000D02*
X112522000Y-85469000D01*
X108305000Y-85429000D02*
X109360000Y-85429000D01*
X111440000Y-85429000D02*
X112495000Y-85429000D01*
X108335000Y-85389000D02*
X109360000Y-85389000D01*
X111440000Y-85389000D02*
X112465000Y-85389000D01*
X108365000Y-85349000D02*
X109360000Y-85349000D01*
X111440000Y-85349000D02*
X112435000Y-85349000D01*
X108396000Y-85309000D02*
X109360000Y-85309000D01*
X111440000Y-85309000D02*
X112404000Y-85309000D01*
X108429000Y-85269000D02*
X109360000Y-85269000D01*
X111440000Y-85269000D02*
X112371000Y-85269000D01*
X108463000Y-85229000D02*
X109360000Y-85229000D01*
X111440000Y-85229000D02*
X112337000Y-85229000D01*
X108499000Y-85189000D02*
X109360000Y-85189000D01*
X111440000Y-85189000D02*
X112301000Y-85189000D01*
X108536000Y-85149000D02*
X109360000Y-85149000D01*
X111440000Y-85149000D02*
X112264000Y-85149000D01*
X108574000Y-85109000D02*
X109360000Y-85109000D01*
X111440000Y-85109000D02*
X112226000Y-85109000D01*
X108615000Y-85069000D02*
X109360000Y-85069000D01*
X111440000Y-85069000D02*
X112185000Y-85069000D01*
X108657000Y-85029000D02*
X109360000Y-85029000D01*
X111440000Y-85029000D02*
X112143000Y-85029000D01*
X108701000Y-84989000D02*
X109360000Y-84989000D01*
X111440000Y-84989000D02*
X112099000Y-84989000D01*
X108747000Y-84949000D02*
X109360000Y-84949000D01*
X111440000Y-84949000D02*
X112053000Y-84949000D01*
X108795000Y-84909000D02*
X109360000Y-84909000D01*
X111440000Y-84909000D02*
X112005000Y-84909000D01*
X108846000Y-84869000D02*
X109360000Y-84869000D01*
X111440000Y-84869000D02*
X111954000Y-84869000D01*
X108900000Y-84829000D02*
X109360000Y-84829000D01*
X111440000Y-84829000D02*
X111900000Y-84829000D01*
X108957000Y-84789000D02*
X109360000Y-84789000D01*
X111440000Y-84789000D02*
X111843000Y-84789000D01*
X109017000Y-84749000D02*
X109360000Y-84749000D01*
X111440000Y-84749000D02*
X111783000Y-84749000D01*
X109081000Y-84709000D02*
X109360000Y-84709000D01*
X111440000Y-84709000D02*
X111719000Y-84709000D01*
X109149000Y-84669000D02*
X109360000Y-84669000D01*
X111440000Y-84669000D02*
X111651000Y-84669000D01*
X109222000Y-84629000D02*
X111578000Y-84629000D01*
X109302000Y-84589000D02*
X111498000Y-84589000D01*
X109389000Y-84549000D02*
X111411000Y-84549000D01*
X109485000Y-84509000D02*
X111315000Y-84509000D01*
X109595000Y-84469000D02*
X111205000Y-84469000D01*
X109723000Y-84429000D02*
X111077000Y-84429000D01*
X109882000Y-84389000D02*
X110918000Y-84389000D01*
X110116000Y-84349000D02*
X110684000Y-84349000D01*
X108925000Y-89754775D02*
X108925000Y-89254775D01*
X108675000Y-89504775D02*
X109175000Y-89504775D01*
G04 #@! TO.C,H1*
D11*
X160038095Y-85452380D02*
X160038095Y-84452380D01*
X160038095Y-84928571D02*
X160609523Y-84928571D01*
X160609523Y-85452380D02*
X160609523Y-84452380D01*
X161609523Y-85452380D02*
X161038095Y-85452380D01*
X161323809Y-85452380D02*
X161323809Y-84452380D01*
X161228571Y-84595238D01*
X161133333Y-84690476D01*
X161038095Y-84738095D01*
G04 #@! TO.C,H2*
X102338095Y-85452380D02*
X102338095Y-84452380D01*
X102338095Y-84928571D02*
X102909523Y-84928571D01*
X102909523Y-85452380D02*
X102909523Y-84452380D01*
X103338095Y-84547619D02*
X103385714Y-84500000D01*
X103480952Y-84452380D01*
X103719047Y-84452380D01*
X103814285Y-84500000D01*
X103861904Y-84547619D01*
X103909523Y-84642857D01*
X103909523Y-84738095D01*
X103861904Y-84880952D01*
X103290476Y-85452380D01*
X103909523Y-85452380D01*
G04 #@! TO.C,H3*
X102338095Y-115452380D02*
X102338095Y-114452380D01*
X102338095Y-114928571D02*
X102909523Y-114928571D01*
X102909523Y-115452380D02*
X102909523Y-114452380D01*
X103290476Y-114452380D02*
X103909523Y-114452380D01*
X103576190Y-114833333D01*
X103719047Y-114833333D01*
X103814285Y-114880952D01*
X103861904Y-114928571D01*
X103909523Y-115023809D01*
X103909523Y-115261904D01*
X103861904Y-115357142D01*
X103814285Y-115404761D01*
X103719047Y-115452380D01*
X103433333Y-115452380D01*
X103338095Y-115404761D01*
X103290476Y-115357142D01*
G04 #@! TO.C,H4*
X160338095Y-117452380D02*
X160338095Y-116452380D01*
X160338095Y-116928571D02*
X160909523Y-116928571D01*
X160909523Y-117452380D02*
X160909523Y-116452380D01*
X161814285Y-116785714D02*
X161814285Y-117452380D01*
X161576190Y-116404761D02*
X161338095Y-117119047D01*
X161957142Y-117119047D01*
G04 #@! TO.C,D1*
X119571904Y-99732380D02*
X119571904Y-98732380D01*
X119810000Y-98732380D01*
X119952857Y-98780000D01*
X120048095Y-98875238D01*
X120095714Y-98970476D01*
X120143333Y-99160952D01*
X120143333Y-99303809D01*
X120095714Y-99494285D01*
X120048095Y-99589523D01*
X119952857Y-99684761D01*
X119810000Y-99732380D01*
X119571904Y-99732380D01*
X121095714Y-99732380D02*
X120524285Y-99732380D01*
X120810000Y-99732380D02*
X120810000Y-98732380D01*
X120714761Y-98875238D01*
X120619523Y-98970476D01*
X120524285Y-99018095D01*
G04 #@! TO.C,D2*
X119571904Y-103332380D02*
X119571904Y-102332380D01*
X119810000Y-102332380D01*
X119952857Y-102380000D01*
X120048095Y-102475238D01*
X120095714Y-102570476D01*
X120143333Y-102760952D01*
X120143333Y-102903809D01*
X120095714Y-103094285D01*
X120048095Y-103189523D01*
X119952857Y-103284761D01*
X119810000Y-103332380D01*
X119571904Y-103332380D01*
X120524285Y-102427619D02*
X120571904Y-102380000D01*
X120667142Y-102332380D01*
X120905238Y-102332380D01*
X121000476Y-102380000D01*
X121048095Y-102427619D01*
X121095714Y-102522857D01*
X121095714Y-102618095D01*
X121048095Y-102760952D01*
X120476666Y-103332380D01*
X121095714Y-103332380D01*
G04 #@! TO.C,D3*
X119551904Y-111172380D02*
X119551904Y-110172380D01*
X119790000Y-110172380D01*
X119932857Y-110220000D01*
X120028095Y-110315238D01*
X120075714Y-110410476D01*
X120123333Y-110600952D01*
X120123333Y-110743809D01*
X120075714Y-110934285D01*
X120028095Y-111029523D01*
X119932857Y-111124761D01*
X119790000Y-111172380D01*
X119551904Y-111172380D01*
X120456666Y-110172380D02*
X121075714Y-110172380D01*
X120742380Y-110553333D01*
X120885238Y-110553333D01*
X120980476Y-110600952D01*
X121028095Y-110648571D01*
X121075714Y-110743809D01*
X121075714Y-110981904D01*
X121028095Y-111077142D01*
X120980476Y-111124761D01*
X120885238Y-111172380D01*
X120599523Y-111172380D01*
X120504285Y-111124761D01*
X120456666Y-111077142D01*
G04 #@! TO.C,J1*
X103266666Y-101722380D02*
X103266666Y-102436666D01*
X103219047Y-102579523D01*
X103123809Y-102674761D01*
X102980952Y-102722380D01*
X102885714Y-102722380D01*
X104266666Y-102722380D02*
X103695238Y-102722380D01*
X103980952Y-102722380D02*
X103980952Y-101722380D01*
X103885714Y-101865238D01*
X103790476Y-101960476D01*
X103695238Y-102008095D01*
G04 #@! TO.C,LS1*
X165357142Y-101982380D02*
X164880952Y-101982380D01*
X164880952Y-100982380D01*
X165642857Y-101934761D02*
X165785714Y-101982380D01*
X166023809Y-101982380D01*
X166119047Y-101934761D01*
X166166666Y-101887142D01*
X166214285Y-101791904D01*
X166214285Y-101696666D01*
X166166666Y-101601428D01*
X166119047Y-101553809D01*
X166023809Y-101506190D01*
X165833333Y-101458571D01*
X165738095Y-101410952D01*
X165690476Y-101363333D01*
X165642857Y-101268095D01*
X165642857Y-101172857D01*
X165690476Y-101077619D01*
X165738095Y-101030000D01*
X165833333Y-100982380D01*
X166071428Y-100982380D01*
X166214285Y-101030000D01*
X167166666Y-101982380D02*
X166595238Y-101982380D01*
X166880952Y-101982380D02*
X166880952Y-100982380D01*
X166785714Y-101125238D01*
X166690476Y-101220476D01*
X166595238Y-101268095D01*
G04 #@! TO.C,R10*
D12*
X119239571Y-96655285D02*
X119275857Y-96619000D01*
X119348428Y-96582714D01*
X119529857Y-96582714D01*
X119602428Y-96619000D01*
X119638714Y-96655285D01*
X119675000Y-96727857D01*
X119675000Y-96800428D01*
X119638714Y-96909285D01*
X119203285Y-97344714D01*
X119675000Y-97344714D01*
X120001571Y-97272142D02*
X120037857Y-97308428D01*
X120001571Y-97344714D01*
X119965285Y-97308428D01*
X120001571Y-97272142D01*
X120001571Y-97344714D01*
X120328142Y-96655285D02*
X120364428Y-96619000D01*
X120437000Y-96582714D01*
X120618428Y-96582714D01*
X120691000Y-96619000D01*
X120727285Y-96655285D01*
X120763571Y-96727857D01*
X120763571Y-96800428D01*
X120727285Y-96909285D01*
X120291857Y-97344714D01*
X120763571Y-97344714D01*
X121090142Y-97344714D02*
X121090142Y-96582714D01*
X121162714Y-97054428D02*
X121380428Y-97344714D01*
X121380428Y-96836714D02*
X121090142Y-97127000D01*
G04 #@! TO.C,R11*
X127021000Y-114655285D02*
X127057285Y-114619000D01*
X127129857Y-114582714D01*
X127311285Y-114582714D01*
X127383857Y-114619000D01*
X127420142Y-114655285D01*
X127456428Y-114727857D01*
X127456428Y-114800428D01*
X127420142Y-114909285D01*
X126984714Y-115344714D01*
X127456428Y-115344714D01*
X127746714Y-114655285D02*
X127783000Y-114619000D01*
X127855571Y-114582714D01*
X128037000Y-114582714D01*
X128109571Y-114619000D01*
X128145857Y-114655285D01*
X128182142Y-114727857D01*
X128182142Y-114800428D01*
X128145857Y-114909285D01*
X127710428Y-115344714D01*
X128182142Y-115344714D01*
X128508714Y-115344714D02*
X128508714Y-114582714D01*
X128581285Y-115054428D02*
X128799000Y-115344714D01*
X128799000Y-114836714D02*
X128508714Y-115127000D01*
G04 #@! TO.C,R12*
X139836714Y-100297571D02*
X140344714Y-100297571D01*
X139546428Y-100479000D02*
X140090714Y-100660428D01*
X140090714Y-100188714D01*
X140272142Y-99898428D02*
X140308428Y-99862142D01*
X140344714Y-99898428D01*
X140308428Y-99934714D01*
X140272142Y-99898428D01*
X140344714Y-99898428D01*
X139582714Y-99608142D02*
X139582714Y-99100142D01*
X140344714Y-99426714D01*
X140344714Y-98809857D02*
X139582714Y-98809857D01*
X140054428Y-98737285D02*
X140344714Y-98519571D01*
X139836714Y-98519571D02*
X140127000Y-98809857D01*
G04 #@! TO.C,R13*
X145182714Y-108316714D02*
X145182714Y-107845000D01*
X145473000Y-108099000D01*
X145473000Y-107990142D01*
X145509285Y-107917571D01*
X145545571Y-107881285D01*
X145618142Y-107845000D01*
X145799571Y-107845000D01*
X145872142Y-107881285D01*
X145908428Y-107917571D01*
X145944714Y-107990142D01*
X145944714Y-108207857D01*
X145908428Y-108280428D01*
X145872142Y-108316714D01*
X145872142Y-107518428D02*
X145908428Y-107482142D01*
X145944714Y-107518428D01*
X145908428Y-107554714D01*
X145872142Y-107518428D01*
X145944714Y-107518428D01*
X145944714Y-107119285D02*
X145944714Y-106974142D01*
X145908428Y-106901571D01*
X145872142Y-106865285D01*
X145763285Y-106792714D01*
X145618142Y-106756428D01*
X145327857Y-106756428D01*
X145255285Y-106792714D01*
X145219000Y-106829000D01*
X145182714Y-106901571D01*
X145182714Y-107046714D01*
X145219000Y-107119285D01*
X145255285Y-107155571D01*
X145327857Y-107191857D01*
X145509285Y-107191857D01*
X145581857Y-107155571D01*
X145618142Y-107119285D01*
X145654428Y-107046714D01*
X145654428Y-106901571D01*
X145618142Y-106829000D01*
X145581857Y-106792714D01*
X145509285Y-106756428D01*
X145944714Y-106429857D02*
X145182714Y-106429857D01*
X145654428Y-106357285D02*
X145944714Y-106139571D01*
X145436714Y-106139571D02*
X145727000Y-106429857D01*
G04 #@! TO.C,R14*
X138863857Y-114582714D02*
X138718714Y-114582714D01*
X138646142Y-114619000D01*
X138609857Y-114655285D01*
X138537285Y-114764142D01*
X138501000Y-114909285D01*
X138501000Y-115199571D01*
X138537285Y-115272142D01*
X138573571Y-115308428D01*
X138646142Y-115344714D01*
X138791285Y-115344714D01*
X138863857Y-115308428D01*
X138900142Y-115272142D01*
X138936428Y-115199571D01*
X138936428Y-115018142D01*
X138900142Y-114945571D01*
X138863857Y-114909285D01*
X138791285Y-114873000D01*
X138646142Y-114873000D01*
X138573571Y-114909285D01*
X138537285Y-114945571D01*
X138501000Y-115018142D01*
X139371857Y-114909285D02*
X139299285Y-114873000D01*
X139263000Y-114836714D01*
X139226714Y-114764142D01*
X139226714Y-114727857D01*
X139263000Y-114655285D01*
X139299285Y-114619000D01*
X139371857Y-114582714D01*
X139517000Y-114582714D01*
X139589571Y-114619000D01*
X139625857Y-114655285D01*
X139662142Y-114727857D01*
X139662142Y-114764142D01*
X139625857Y-114836714D01*
X139589571Y-114873000D01*
X139517000Y-114909285D01*
X139371857Y-114909285D01*
X139299285Y-114945571D01*
X139263000Y-114981857D01*
X139226714Y-115054428D01*
X139226714Y-115199571D01*
X139263000Y-115272142D01*
X139299285Y-115308428D01*
X139371857Y-115344714D01*
X139517000Y-115344714D01*
X139589571Y-115308428D01*
X139625857Y-115272142D01*
X139662142Y-115199571D01*
X139662142Y-115054428D01*
X139625857Y-114981857D01*
X139589571Y-114945571D01*
X139517000Y-114909285D01*
X139988714Y-115344714D02*
X139988714Y-114582714D01*
X140061285Y-115054428D02*
X140279000Y-115344714D01*
X140279000Y-114836714D02*
X139988714Y-115127000D01*
G04 #@! TO.C,R15*
X134455285Y-93080428D02*
X134419000Y-93044142D01*
X134382714Y-92971571D01*
X134382714Y-92790142D01*
X134419000Y-92717571D01*
X134455285Y-92681285D01*
X134527857Y-92645000D01*
X134600428Y-92645000D01*
X134709285Y-92681285D01*
X135144714Y-93116714D01*
X135144714Y-92645000D01*
X135072142Y-92318428D02*
X135108428Y-92282142D01*
X135144714Y-92318428D01*
X135108428Y-92354714D01*
X135072142Y-92318428D01*
X135144714Y-92318428D01*
X134382714Y-92028142D02*
X134382714Y-91520142D01*
X135144714Y-91846714D01*
X135144714Y-91229857D02*
X134382714Y-91229857D01*
X134854428Y-91157285D02*
X135144714Y-90939571D01*
X134636714Y-90939571D02*
X134927000Y-91229857D01*
G04 #@! TO.C,R16*
X143566571Y-91755285D02*
X143602857Y-91719000D01*
X143675428Y-91682714D01*
X143856857Y-91682714D01*
X143929428Y-91719000D01*
X143965714Y-91755285D01*
X144002000Y-91827857D01*
X144002000Y-91900428D01*
X143965714Y-92009285D01*
X143530285Y-92444714D01*
X144002000Y-92444714D01*
X144292285Y-91755285D02*
X144328571Y-91719000D01*
X144401142Y-91682714D01*
X144582571Y-91682714D01*
X144655142Y-91719000D01*
X144691428Y-91755285D01*
X144727714Y-91827857D01*
X144727714Y-91900428D01*
X144691428Y-92009285D01*
X144256000Y-92444714D01*
X144727714Y-92444714D01*
X145199428Y-91682714D02*
X145272000Y-91682714D01*
X145344571Y-91719000D01*
X145380857Y-91755285D01*
X145417142Y-91827857D01*
X145453428Y-91973000D01*
X145453428Y-92154428D01*
X145417142Y-92299571D01*
X145380857Y-92372142D01*
X145344571Y-92408428D01*
X145272000Y-92444714D01*
X145199428Y-92444714D01*
X145126857Y-92408428D01*
X145090571Y-92372142D01*
X145054285Y-92299571D01*
X145018000Y-92154428D01*
X145018000Y-91973000D01*
X145054285Y-91827857D01*
X145090571Y-91755285D01*
X145126857Y-91719000D01*
X145199428Y-91682714D01*
G04 #@! TO.C,R17*
X123446571Y-85355285D02*
X123482857Y-85319000D01*
X123555428Y-85282714D01*
X123736857Y-85282714D01*
X123809428Y-85319000D01*
X123845714Y-85355285D01*
X123882000Y-85427857D01*
X123882000Y-85500428D01*
X123845714Y-85609285D01*
X123410285Y-86044714D01*
X123882000Y-86044714D01*
X124172285Y-85355285D02*
X124208571Y-85319000D01*
X124281142Y-85282714D01*
X124462571Y-85282714D01*
X124535142Y-85319000D01*
X124571428Y-85355285D01*
X124607714Y-85427857D01*
X124607714Y-85500428D01*
X124571428Y-85609285D01*
X124136000Y-86044714D01*
X124607714Y-86044714D01*
X125079428Y-85282714D02*
X125152000Y-85282714D01*
X125224571Y-85319000D01*
X125260857Y-85355285D01*
X125297142Y-85427857D01*
X125333428Y-85573000D01*
X125333428Y-85754428D01*
X125297142Y-85899571D01*
X125260857Y-85972142D01*
X125224571Y-86008428D01*
X125152000Y-86044714D01*
X125079428Y-86044714D01*
X125006857Y-86008428D01*
X124970571Y-85972142D01*
X124934285Y-85899571D01*
X124898000Y-85754428D01*
X124898000Y-85573000D01*
X124934285Y-85427857D01*
X124970571Y-85355285D01*
X125006857Y-85319000D01*
X125079428Y-85282714D01*
G04 #@! TO.C,R18*
X152144714Y-111698000D02*
X152144714Y-112133428D01*
X152144714Y-111915714D02*
X151382714Y-111915714D01*
X151491571Y-111988285D01*
X151564142Y-112060857D01*
X151600428Y-112133428D01*
X151382714Y-111226285D02*
X151382714Y-111153714D01*
X151419000Y-111081142D01*
X151455285Y-111044857D01*
X151527857Y-111008571D01*
X151673000Y-110972285D01*
X151854428Y-110972285D01*
X151999571Y-111008571D01*
X152072142Y-111044857D01*
X152108428Y-111081142D01*
X152144714Y-111153714D01*
X152144714Y-111226285D01*
X152108428Y-111298857D01*
X152072142Y-111335142D01*
X151999571Y-111371428D01*
X151854428Y-111407714D01*
X151673000Y-111407714D01*
X151527857Y-111371428D01*
X151455285Y-111335142D01*
X151419000Y-111298857D01*
X151382714Y-111226285D01*
X151382714Y-110500571D02*
X151382714Y-110428000D01*
X151419000Y-110355428D01*
X151455285Y-110319142D01*
X151527857Y-110282857D01*
X151673000Y-110246571D01*
X151854428Y-110246571D01*
X151999571Y-110282857D01*
X152072142Y-110319142D01*
X152108428Y-110355428D01*
X152144714Y-110428000D01*
X152144714Y-110500571D01*
X152108428Y-110573142D01*
X152072142Y-110609428D01*
X151999571Y-110645714D01*
X151854428Y-110682000D01*
X151673000Y-110682000D01*
X151527857Y-110645714D01*
X151455285Y-110609428D01*
X151419000Y-110573142D01*
X151382714Y-110500571D01*
G04 #@! TO.C,VT3*
D11*
X134412380Y-109680476D02*
X135412380Y-109347142D01*
X134412380Y-109013809D01*
X134412380Y-108823333D02*
X134412380Y-108251904D01*
X135412380Y-108537619D02*
X134412380Y-108537619D01*
X134412380Y-108013809D02*
X134412380Y-107394761D01*
X134793333Y-107728095D01*
X134793333Y-107585238D01*
X134840952Y-107490000D01*
X134888571Y-107442380D01*
X134983809Y-107394761D01*
X135221904Y-107394761D01*
X135317142Y-107442380D01*
X135364761Y-107490000D01*
X135412380Y-107585238D01*
X135412380Y-107870952D01*
X135364761Y-107966190D01*
X135317142Y-108013809D01*
G04 #@! TO.C,VT4*
X127892380Y-101800476D02*
X128892380Y-101467142D01*
X127892380Y-101133809D01*
X127892380Y-100943333D02*
X127892380Y-100371904D01*
X128892380Y-100657619D02*
X127892380Y-100657619D01*
X128225714Y-99610000D02*
X128892380Y-99610000D01*
X127844761Y-99848095D02*
X128559047Y-100086190D01*
X128559047Y-99467142D01*
G04 #@! TO.C,VT5*
X144292380Y-100500476D02*
X145292380Y-100167142D01*
X144292380Y-99833809D01*
X144292380Y-99643333D02*
X144292380Y-99071904D01*
X145292380Y-99357619D02*
X144292380Y-99357619D01*
X144292380Y-98262380D02*
X144292380Y-98738571D01*
X144768571Y-98786190D01*
X144720952Y-98738571D01*
X144673333Y-98643333D01*
X144673333Y-98405238D01*
X144720952Y-98310000D01*
X144768571Y-98262380D01*
X144863809Y-98214761D01*
X145101904Y-98214761D01*
X145197142Y-98262380D01*
X145244761Y-98310000D01*
X145292380Y-98405238D01*
X145292380Y-98643333D01*
X145244761Y-98738571D01*
X145197142Y-98786190D01*
G04 #@! TO.C,VT6*
X154492380Y-114000476D02*
X155492380Y-113667142D01*
X154492380Y-113333809D01*
X154492380Y-113143333D02*
X154492380Y-112571904D01*
X155492380Y-112857619D02*
X154492380Y-112857619D01*
X154492380Y-111810000D02*
X154492380Y-112000476D01*
X154540000Y-112095714D01*
X154587619Y-112143333D01*
X154730476Y-112238571D01*
X154920952Y-112286190D01*
X155301904Y-112286190D01*
X155397142Y-112238571D01*
X155444761Y-112190952D01*
X155492380Y-112095714D01*
X155492380Y-111905238D01*
X155444761Y-111810000D01*
X155397142Y-111762380D01*
X155301904Y-111714761D01*
X155063809Y-111714761D01*
X154968571Y-111762380D01*
X154920952Y-111810000D01*
X154873333Y-111905238D01*
X154873333Y-112095714D01*
X154920952Y-112190952D01*
X154968571Y-112238571D01*
X155063809Y-112286190D01*
G04 #@! TO.C,C1*
X137457142Y-108866666D02*
X137504761Y-108914285D01*
X137552380Y-109057142D01*
X137552380Y-109152380D01*
X137504761Y-109295238D01*
X137409523Y-109390476D01*
X137314285Y-109438095D01*
X137123809Y-109485714D01*
X136980952Y-109485714D01*
X136790476Y-109438095D01*
X136695238Y-109390476D01*
X136600000Y-109295238D01*
X136552380Y-109152380D01*
X136552380Y-109057142D01*
X136600000Y-108914285D01*
X136647619Y-108866666D01*
X137552380Y-107914285D02*
X137552380Y-108485714D01*
X137552380Y-108200000D02*
X136552380Y-108200000D01*
X136695238Y-108295238D01*
X136790476Y-108390476D01*
X136838095Y-108485714D01*
G04 #@! TO.C,C2*
X125557142Y-93066666D02*
X125604761Y-93114285D01*
X125652380Y-93257142D01*
X125652380Y-93352380D01*
X125604761Y-93495238D01*
X125509523Y-93590476D01*
X125414285Y-93638095D01*
X125223809Y-93685714D01*
X125080952Y-93685714D01*
X124890476Y-93638095D01*
X124795238Y-93590476D01*
X124700000Y-93495238D01*
X124652380Y-93352380D01*
X124652380Y-93257142D01*
X124700000Y-93114285D01*
X124747619Y-93066666D01*
X124747619Y-92685714D02*
X124700000Y-92638095D01*
X124652380Y-92542857D01*
X124652380Y-92304761D01*
X124700000Y-92209523D01*
X124747619Y-92161904D01*
X124842857Y-92114285D01*
X124938095Y-92114285D01*
X125080952Y-92161904D01*
X125652380Y-92733333D01*
X125652380Y-92114285D01*
G04 #@! TO.C,C3*
X155007142Y-106116666D02*
X155054761Y-106164285D01*
X155102380Y-106307142D01*
X155102380Y-106402380D01*
X155054761Y-106545238D01*
X154959523Y-106640476D01*
X154864285Y-106688095D01*
X154673809Y-106735714D01*
X154530952Y-106735714D01*
X154340476Y-106688095D01*
X154245238Y-106640476D01*
X154150000Y-106545238D01*
X154102380Y-106402380D01*
X154102380Y-106307142D01*
X154150000Y-106164285D01*
X154197619Y-106116666D01*
X154102380Y-105783333D02*
X154102380Y-105164285D01*
X154483333Y-105497619D01*
X154483333Y-105354761D01*
X154530952Y-105259523D01*
X154578571Y-105211904D01*
X154673809Y-105164285D01*
X154911904Y-105164285D01*
X155007142Y-105211904D01*
X155054761Y-105259523D01*
X155102380Y-105354761D01*
X155102380Y-105640476D01*
X155054761Y-105735714D01*
X155007142Y-105783333D01*
G04 #@! TO.C,C4*
X113357142Y-90866666D02*
X113404761Y-90914285D01*
X113452380Y-91057142D01*
X113452380Y-91152380D01*
X113404761Y-91295238D01*
X113309523Y-91390476D01*
X113214285Y-91438095D01*
X113023809Y-91485714D01*
X112880952Y-91485714D01*
X112690476Y-91438095D01*
X112595238Y-91390476D01*
X112500000Y-91295238D01*
X112452380Y-91152380D01*
X112452380Y-91057142D01*
X112500000Y-90914285D01*
X112547619Y-90866666D01*
X112785714Y-90009523D02*
X113452380Y-90009523D01*
X112404761Y-90247619D02*
X113119047Y-90485714D01*
X113119047Y-89866666D01*
G04 #@! TO.C,J2*
X103266666Y-88322380D02*
X103266666Y-89036666D01*
X103219047Y-89179523D01*
X103123809Y-89274761D01*
X102980952Y-89322380D01*
X102885714Y-89322380D01*
X103695238Y-88417619D02*
X103742857Y-88370000D01*
X103838095Y-88322380D01*
X104076190Y-88322380D01*
X104171428Y-88370000D01*
X104219047Y-88417619D01*
X104266666Y-88512857D01*
X104266666Y-88608095D01*
X104219047Y-88750952D01*
X103647619Y-89322380D01*
X104266666Y-89322380D01*
G04 #@! TO.C,RV1*
X165404761Y-102222380D02*
X165071428Y-101746190D01*
X164833333Y-102222380D02*
X164833333Y-101222380D01*
X165214285Y-101222380D01*
X165309523Y-101270000D01*
X165357142Y-101317619D01*
X165404761Y-101412857D01*
X165404761Y-101555714D01*
X165357142Y-101650952D01*
X165309523Y-101698571D01*
X165214285Y-101746190D01*
X164833333Y-101746190D01*
X165690476Y-101222380D02*
X166023809Y-102222380D01*
X166357142Y-101222380D01*
X167214285Y-102222380D02*
X166642857Y-102222380D01*
X166928571Y-102222380D02*
X166928571Y-101222380D01*
X166833333Y-101365238D01*
X166738095Y-101460476D01*
X166642857Y-101508095D01*
G04 #@! TO.C,C6*
X107007142Y-94916666D02*
X107054761Y-94964285D01*
X107102380Y-95107142D01*
X107102380Y-95202380D01*
X107054761Y-95345238D01*
X106959523Y-95440476D01*
X106864285Y-95488095D01*
X106673809Y-95535714D01*
X106530952Y-95535714D01*
X106340476Y-95488095D01*
X106245238Y-95440476D01*
X106150000Y-95345238D01*
X106102380Y-95202380D01*
X106102380Y-95107142D01*
X106150000Y-94964285D01*
X106197619Y-94916666D01*
X106102380Y-94059523D02*
X106102380Y-94250000D01*
X106150000Y-94345238D01*
X106197619Y-94392857D01*
X106340476Y-94488095D01*
X106530952Y-94535714D01*
X106911904Y-94535714D01*
X107007142Y-94488095D01*
X107054761Y-94440476D01*
X107102380Y-94345238D01*
X107102380Y-94154761D01*
X107054761Y-94059523D01*
X107007142Y-94011904D01*
X106911904Y-93964285D01*
X106673809Y-93964285D01*
X106578571Y-94011904D01*
X106530952Y-94059523D01*
X106483333Y-94154761D01*
X106483333Y-94345238D01*
X106530952Y-94440476D01*
X106578571Y-94488095D01*
X106673809Y-94535714D01*
G04 #@! TO.C,C7*
X107007142Y-87116666D02*
X107054761Y-87164285D01*
X107102380Y-87307142D01*
X107102380Y-87402380D01*
X107054761Y-87545238D01*
X106959523Y-87640476D01*
X106864285Y-87688095D01*
X106673809Y-87735714D01*
X106530952Y-87735714D01*
X106340476Y-87688095D01*
X106245238Y-87640476D01*
X106150000Y-87545238D01*
X106102380Y-87402380D01*
X106102380Y-87307142D01*
X106150000Y-87164285D01*
X106197619Y-87116666D01*
X106102380Y-86783333D02*
X106102380Y-86116666D01*
X107102380Y-86545238D01*
G04 #@! TD*
M02*
