G04 #@! TF.GenerationSoftware,KiCad,Pcbnew,(5.0.0)*
G04 #@! TF.CreationDate,2019-11-09T01:46:13+00:00*
G04 #@! TF.ProjectId,A-FT,412D46542E6B696361645F7063620000,rev?*
G04 #@! TF.SameCoordinates,Original*
G04 #@! TF.FileFunction,Copper,L1,Top,Signal*
G04 #@! TF.FilePolarity,Positive*
%FSLAX46Y46*%
G04 Gerber Fmt 4.6, Leading zero omitted, Abs format (unit mm)*
G04 Created by KiCad (PCBNEW (5.0.0)) date 11/09/19 01:46:13*
%MOMM*%
%LPD*%
G01*
G04 APERTURE LIST*
G04 #@! TA.AperFunction,ComponentPad*
%ADD10C,2.000000*%
G04 #@! TD*
G04 #@! TA.AperFunction,ComponentPad*
%ADD11C,1.400000*%
G04 #@! TD*
G04 #@! TA.AperFunction,ComponentPad*
%ADD12O,1.400000X1.400000*%
G04 #@! TD*
G04 #@! TA.AperFunction,ComponentPad*
%ADD13C,1.600000*%
G04 #@! TD*
G04 #@! TA.AperFunction,ComponentPad*
%ADD14R,1.600000X1.600000*%
G04 #@! TD*
G04 #@! TA.AperFunction,ComponentPad*
%ADD15C,1.700000*%
G04 #@! TD*
G04 #@! TA.AperFunction,ComponentPad*
%ADD16R,1.700000X1.700000*%
G04 #@! TD*
G04 #@! TA.AperFunction,ViaPad*
%ADD17C,0.800000*%
G04 #@! TD*
G04 #@! TA.AperFunction,Conductor*
%ADD18C,0.250000*%
G04 #@! TD*
G04 #@! TA.AperFunction,Conductor*
%ADD19C,0.500000*%
G04 #@! TD*
G04 APERTURE END LIST*
D10*
G04 #@! TO.P,U8,13*
G04 #@! TO.N,ENG*
X225425000Y-78740000D03*
G04 #@! TO.P,U8,12*
G04 #@! TO.N,ONG*
X225425000Y-81280000D03*
G04 #@! TO.P,U8,11*
G04 #@! TO.N,Net-(U7-Pad2)*
X225425000Y-83820000D03*
G04 #@! TO.P,U8,6*
G04 #@! TO.N,~TEST~k*
X243840000Y-74930000D03*
G04 #@! TO.P,U8,5*
G04 #@! TO.N,N/C*
X243840000Y-77470000D03*
G04 #@! TO.P,U8,4*
G04 #@! TO.N,~TEST~k*
X243840000Y-80010000D03*
G04 #@! TO.P,U8,3*
G04 #@! TO.N,N/C*
X243840000Y-82550000D03*
G04 #@! TO.P,U8,2*
G04 #@! TO.N,~ENGk~*
X243840000Y-85090000D03*
G04 #@! TO.P,U8,1*
G04 #@! TO.N,N/C*
X243840000Y-87630000D03*
G04 #@! TO.P,U8,23*
G04 #@! TO.N,Neg6v*
X230505000Y-104775000D03*
G04 #@! TO.P,U8,22*
G04 #@! TO.N,GND*
X227965000Y-104775000D03*
G04 #@! TO.P,U8,21*
G04 #@! TO.N,6v*
X225425000Y-104775000D03*
G04 #@! TD*
G04 #@! TO.P,U1,13*
G04 #@! TO.N,CS*
X225425000Y-142240000D03*
G04 #@! TO.P,U1,12*
G04 #@! TO.N,Net-(U1-Pad12)*
X225425000Y-144780000D03*
G04 #@! TO.P,U1,11*
G04 #@! TO.N,Net-(U1-Pad11)*
X225425000Y-147320000D03*
G04 #@! TO.P,U1,6*
G04 #@! TO.N,~CSk~*
X243840000Y-138430000D03*
G04 #@! TO.P,U1,5*
G04 #@! TO.N,~CS~*
X243840000Y-140970000D03*
G04 #@! TO.P,U1,4*
G04 #@! TO.N,~WTM~a*
X243840000Y-143510000D03*
G04 #@! TO.P,U1,3*
G04 #@! TO.N,Net-(U1-Pad3)*
X243840000Y-146050000D03*
G04 #@! TO.P,U1,2*
G04 #@! TO.N,N/C*
X243840000Y-148590000D03*
G04 #@! TO.P,U1,1*
G04 #@! TO.N,Net-(U1-Pad1)*
X243840000Y-151130000D03*
G04 #@! TO.P,U1,23*
G04 #@! TO.N,Neg6v*
X230505000Y-168275000D03*
G04 #@! TO.P,U1,22*
G04 #@! TO.N,GND*
X227965000Y-168275000D03*
G04 #@! TO.P,U1,21*
G04 #@! TO.N,6v*
X225425000Y-168275000D03*
G04 #@! TD*
G04 #@! TO.P,U12,13*
G04 #@! TO.N,Net-(U12-Pad13)*
X103505000Y-78740000D03*
G04 #@! TO.P,U12,12*
G04 #@! TO.N,Net-(U1-Pad3)*
X103505000Y-81280000D03*
G04 #@! TO.P,U12,11*
G04 #@! TO.N,Net-(U1-Pad1)*
X103505000Y-83820000D03*
G04 #@! TO.P,U12,6*
G04 #@! TO.N,~OS~k*
X121920000Y-74930000D03*
G04 #@! TO.P,U12,5*
G04 #@! TO.N,N/C*
X121920000Y-77470000D03*
G04 #@! TO.P,U12,4*
G04 #@! TO.N,NG17k*
X121920000Y-80010000D03*
G04 #@! TO.P,U12,3*
G04 #@! TO.N,N/C*
X121920000Y-82550000D03*
G04 #@! TO.P,U12,2*
G04 #@! TO.N,~NG17~k*
X121920000Y-85090000D03*
G04 #@! TO.P,U12,1*
G04 #@! TO.N,N/C*
X121920000Y-87630000D03*
G04 #@! TO.P,U12,23*
G04 #@! TO.N,Neg6v*
X108585000Y-104775000D03*
G04 #@! TO.P,U12,22*
G04 #@! TO.N,GND*
X106045000Y-104775000D03*
G04 #@! TO.P,U12,21*
G04 #@! TO.N,6v*
X103505000Y-104775000D03*
G04 #@! TD*
G04 #@! TO.P,U11,13*
G04 #@! TO.N,JUMP*
X133985000Y-78740000D03*
G04 #@! TO.P,U11,12*
X133985000Y-81280000D03*
G04 #@! TO.P,U11,11*
G04 #@! TO.N,~JUMP~*
X133985000Y-83820000D03*
G04 #@! TO.P,U11,6*
G04 #@! TO.N,Net-(U11-Pad6)*
X152400000Y-74930000D03*
G04 #@! TO.P,U11,5*
G04 #@! TO.N,~JUMP~*
X152400000Y-77470000D03*
G04 #@! TO.P,U11,4*
X152400000Y-80010000D03*
G04 #@! TO.P,U11,3*
G04 #@! TO.N,Net-(U10-Pad11)*
X152400000Y-82550000D03*
G04 #@! TO.P,U11,2*
G04 #@! TO.N,Net-(U10-Pad12)*
X152400000Y-85090000D03*
G04 #@! TO.P,U11,1*
G04 #@! TO.N,JUMP*
X152400000Y-87630000D03*
G04 #@! TO.P,U11,23*
G04 #@! TO.N,Neg6v*
X139065000Y-104775000D03*
G04 #@! TO.P,U11,22*
G04 #@! TO.N,GND*
X136525000Y-104775000D03*
G04 #@! TO.P,U11,21*
G04 #@! TO.N,6v*
X133985000Y-104775000D03*
G04 #@! TD*
G04 #@! TO.P,U14,13*
G04 #@! TO.N,ENG*
X42545000Y-78740000D03*
G04 #@! TO.P,U14,12*
G04 #@! TO.N,~ONG~*
X42545000Y-81280000D03*
G04 #@! TO.P,U14,11*
G04 #@! TO.N,ONG*
X42545000Y-83820000D03*
G04 #@! TO.P,U14,6*
G04 #@! TO.N,~ENG~*
X60960000Y-74930000D03*
G04 #@! TO.P,U14,5*
G04 #@! TO.N,Net-(U14-Pad5)*
X60960000Y-77470000D03*
G04 #@! TO.P,U14,4*
G04 #@! TO.N,Net-(U14-Pad4)*
X60960000Y-80010000D03*
G04 #@! TO.P,U14,3*
G04 #@! TO.N,ONG*
X60960000Y-82550000D03*
G04 #@! TO.P,U14,2*
G04 #@! TO.N,~ONG~*
X60960000Y-85090000D03*
G04 #@! TO.P,U14,1*
G04 #@! TO.N,Net-(U14-Pad1)*
X60960000Y-87630000D03*
G04 #@! TO.P,U14,23*
G04 #@! TO.N,Neg6v*
X47625000Y-104775000D03*
G04 #@! TO.P,U14,22*
G04 #@! TO.N,GND*
X45085000Y-104775000D03*
G04 #@! TO.P,U14,21*
G04 #@! TO.N,6v*
X42545000Y-104775000D03*
G04 #@! TD*
G04 #@! TO.P,U13,13*
G04 #@! TO.N,~OS~*
X73025000Y-78740000D03*
G04 #@! TO.P,U13,12*
G04 #@! TO.N,W17*
X73025000Y-81280000D03*
G04 #@! TO.P,U13,11*
G04 #@! TO.N,Net-(U13-Pad11)*
X73025000Y-83820000D03*
G04 #@! TO.P,U13,6*
G04 #@! TO.N,N/C*
X91440000Y-74930000D03*
G04 #@! TO.P,U13,5*
G04 #@! TO.N,Net-(U12-Pad13)*
X91440000Y-77470000D03*
G04 #@! TO.P,U13,4*
G04 #@! TO.N,Net-(U13-Pad11)*
X91440000Y-80010000D03*
G04 #@! TO.P,U13,3*
G04 #@! TO.N,Net-(U1-Pad11)*
X91440000Y-82550000D03*
G04 #@! TO.P,U13,2*
G04 #@! TO.N,Net-(U1-Pad12)*
X91440000Y-85090000D03*
G04 #@! TO.P,U13,1*
G04 #@! TO.N,W17*
X91440000Y-87630000D03*
G04 #@! TO.P,U13,23*
G04 #@! TO.N,Neg6v*
X78105000Y-104775000D03*
G04 #@! TO.P,U13,22*
G04 #@! TO.N,GND*
X75565000Y-104775000D03*
G04 #@! TO.P,U13,21*
G04 #@! TO.N,6v*
X73025000Y-104775000D03*
G04 #@! TD*
D11*
G04 #@! TO.P,R3,1*
G04 #@! TO.N,{ACTIVE3}*
X97800000Y-128200000D03*
D12*
G04 #@! TO.P,R3,2*
G04 #@! TO.N,Net-(R3-Pad2)*
X97800000Y-135820000D03*
G04 #@! TD*
D11*
G04 #@! TO.P,R4,1*
G04 #@! TO.N,6v*
X219200000Y-158000000D03*
D12*
G04 #@! TO.P,R4,2*
G04 #@! TO.N,~CINSk~*
X219200000Y-165620000D03*
G04 #@! TD*
D11*
G04 #@! TO.P,R5,1*
G04 #@! TO.N,6v*
X219400000Y-129200000D03*
D12*
G04 #@! TO.P,R5,2*
G04 #@! TO.N,CINSk*
X219400000Y-136820000D03*
G04 #@! TD*
D11*
G04 #@! TO.P,R6,1*
G04 #@! TO.N,6v*
X97800000Y-112000000D03*
D12*
G04 #@! TO.P,R6,2*
G04 #@! TO.N,Net-(R1-Pad2)*
X97800000Y-119620000D03*
G04 #@! TD*
D11*
G04 #@! TO.P,R7,1*
G04 #@! TO.N,6v*
X98000000Y-161600000D03*
D12*
G04 #@! TO.P,R7,2*
G04 #@! TO.N,Net-(R2-Pad2)*
X98000000Y-153980000D03*
G04 #@! TD*
D11*
G04 #@! TO.P,R8,1*
G04 #@! TO.N,6v*
X98000000Y-149000000D03*
D12*
G04 #@! TO.P,R8,2*
G04 #@! TO.N,Net-(R3-Pad2)*
X98000000Y-141380000D03*
G04 #@! TD*
D11*
G04 #@! TO.P,R9,1*
G04 #@! TO.N,6v*
X251200000Y-122000000D03*
D12*
G04 #@! TO.P,R9,2*
G04 #@! TO.N,~CSk~*
X251200000Y-129620000D03*
G04 #@! TD*
D11*
G04 #@! TO.P,R10,1*
G04 #@! TO.N,6v*
X219400000Y-153400000D03*
D12*
G04 #@! TO.P,R10,2*
G04 #@! TO.N,~SMNk~*
X219400000Y-145780000D03*
G04 #@! TD*
D10*
G04 #@! TO.P,U2,13*
G04 #@! TO.N,~CS~*
X194945000Y-142240000D03*
G04 #@! TO.P,U2,12*
G04 #@! TO.N,Net-(U2-Pad1)*
X194945000Y-144780000D03*
G04 #@! TO.P,U2,11*
G04 #@! TO.N,CIN*
X194945000Y-147320000D03*
G04 #@! TO.P,U2,6*
G04 #@! TO.N,~SMNk~*
X213360000Y-138430000D03*
G04 #@! TO.P,U2,5*
G04 #@! TO.N,CS*
X213360000Y-140970000D03*
G04 #@! TO.P,U2,4*
G04 #@! TO.N,CINSk*
X213360000Y-143510000D03*
G04 #@! TO.P,U2,3*
G04 #@! TO.N,CIN*
X213360000Y-146050000D03*
G04 #@! TO.P,U2,2*
G04 #@! TO.N,~CINSk~*
X213360000Y-148590000D03*
G04 #@! TO.P,U2,1*
G04 #@! TO.N,Net-(U2-Pad1)*
X213360000Y-151130000D03*
G04 #@! TO.P,U2,23*
G04 #@! TO.N,Neg6v*
X200025000Y-168275000D03*
G04 #@! TO.P,U2,22*
G04 #@! TO.N,GND*
X197485000Y-168275000D03*
G04 #@! TO.P,U2,21*
G04 #@! TO.N,6v*
X194945000Y-168275000D03*
G04 #@! TD*
G04 #@! TO.P,U3,13*
G04 #@! TO.N,Net-(U3-Pad13)*
X164465000Y-142240000D03*
G04 #@! TO.P,U3,12*
G04 #@! TO.N,N/C*
X164465000Y-144780000D03*
G04 #@! TO.P,U3,11*
X164465000Y-147320000D03*
G04 #@! TO.P,U3,6*
X182880000Y-138430000D03*
G04 #@! TO.P,U3,5*
X182880000Y-140970000D03*
G04 #@! TO.P,U3,4*
G04 #@! TO.N,2.4v*
X182880000Y-143510000D03*
G04 #@! TO.P,U3,3*
G04 #@! TO.N,N/C*
X182880000Y-146050000D03*
G04 #@! TO.P,U3,2*
G04 #@! TO.N,~JIA~*
X182880000Y-148590000D03*
G04 #@! TO.P,U3,1*
G04 #@! TO.N,N/C*
X182880000Y-151130000D03*
G04 #@! TO.P,U3,23*
G04 #@! TO.N,Neg6v*
X169545000Y-168275000D03*
G04 #@! TO.P,U3,22*
G04 #@! TO.N,GND*
X167005000Y-168275000D03*
G04 #@! TO.P,U3,21*
G04 #@! TO.N,6v*
X164465000Y-168275000D03*
G04 #@! TD*
G04 #@! TO.P,U4,13*
G04 #@! TO.N,Net-(U1-Pad11)*
X133985000Y-142240000D03*
G04 #@! TO.P,U4,12*
G04 #@! TO.N,~JUMP~*
X133985000Y-144780000D03*
G04 #@! TO.P,U4,11*
G04 #@! TO.N,Net-(U11-Pad6)*
X133985000Y-147320000D03*
G04 #@! TO.P,U4,6*
X152400000Y-138430000D03*
G04 #@! TO.P,U4,5*
X152400000Y-140970000D03*
G04 #@! TO.P,U4,4*
G04 #@! TO.N,N/C*
X152400000Y-143510000D03*
G04 #@! TO.P,U4,3*
X152400000Y-146050000D03*
G04 #@! TO.P,U4,2*
G04 #@! TO.N,Net-(U3-Pad13)*
X152400000Y-148590000D03*
G04 #@! TO.P,U4,1*
G04 #@! TO.N,Net-(U10-Pad13)*
X152400000Y-151130000D03*
G04 #@! TO.P,U4,23*
G04 #@! TO.N,Neg6v*
X139065000Y-168275000D03*
G04 #@! TO.P,U4,22*
G04 #@! TO.N,GND*
X136525000Y-168275000D03*
G04 #@! TO.P,U4,21*
G04 #@! TO.N,6v*
X133985000Y-168275000D03*
G04 #@! TD*
G04 #@! TO.P,U5,13*
G04 #@! TO.N,Net-(R3-Pad2)*
X103505000Y-142240000D03*
G04 #@! TO.P,U5,12*
G04 #@! TO.N,Net-(R2-Pad2)*
X103505000Y-144780000D03*
G04 #@! TO.P,U5,11*
G04 #@! TO.N,Net-(R1-Pad2)*
X103505000Y-147320000D03*
G04 #@! TO.P,U5,6*
G04 #@! TO.N,E2*
X121920000Y-138430000D03*
G04 #@! TO.P,U5,5*
G04 #@! TO.N,~E1~*
X121920000Y-140970000D03*
G04 #@! TO.P,U5,4*
G04 #@! TO.N,~E2~*
X121920000Y-143510000D03*
G04 #@! TO.P,U5,3*
G04 #@! TO.N,E1*
X121920000Y-146050000D03*
G04 #@! TO.P,U5,2*
G04 #@! TO.N,~E2~*
X121920000Y-148590000D03*
G04 #@! TO.P,U5,1*
G04 #@! TO.N,~E1~*
X121920000Y-151130000D03*
G04 #@! TO.P,U5,23*
G04 #@! TO.N,Neg6v*
X108585000Y-168275000D03*
G04 #@! TO.P,U5,22*
G04 #@! TO.N,GND*
X106045000Y-168275000D03*
G04 #@! TO.P,U5,21*
G04 #@! TO.N,6v*
X103505000Y-168275000D03*
G04 #@! TD*
G04 #@! TO.P,U6,13*
G04 #@! TO.N,Net-(U6-Pad13)*
X73025000Y-142240000D03*
G04 #@! TO.P,U6,12*
G04 #@! TO.N,TCS*
X73025000Y-144780000D03*
G04 #@! TO.P,U6,11*
G04 #@! TO.N,~RESET~*
X73025000Y-147320000D03*
G04 #@! TO.P,U6,6*
G04 #@! TO.N,~STOP~k*
X91440000Y-138430000D03*
G04 #@! TO.P,U6,5*
G04 #@! TO.N,N/C*
X91440000Y-140970000D03*
G04 #@! TO.P,U6,4*
G04 #@! TO.N,~TCS~k*
X91440000Y-143510000D03*
G04 #@! TO.P,U6,3*
G04 #@! TO.N,N/C*
X91440000Y-146050000D03*
G04 #@! TO.P,U6,2*
G04 #@! TO.N,RESETk*
X91440000Y-148590000D03*
G04 #@! TO.P,U6,1*
G04 #@! TO.N,N/C*
X91440000Y-151130000D03*
G04 #@! TO.P,U6,23*
G04 #@! TO.N,Neg6v*
X78105000Y-168275000D03*
G04 #@! TO.P,U6,22*
G04 #@! TO.N,GND*
X75565000Y-168275000D03*
G04 #@! TO.P,U6,21*
G04 #@! TO.N,6v*
X73025000Y-168275000D03*
G04 #@! TD*
G04 #@! TO.P,U7,13*
G04 #@! TO.N,~STOP~*
X42545000Y-142240000D03*
G04 #@! TO.P,U7,12*
G04 #@! TO.N,RESET*
X42545000Y-144780000D03*
G04 #@! TO.P,U7,11*
G04 #@! TO.N,~ENG~*
X42545000Y-147320000D03*
G04 #@! TO.P,U7,6*
G04 #@! TO.N,~RESTART~K*
X60960000Y-138430000D03*
G04 #@! TO.P,U7,5*
G04 #@! TO.N,Net-(U6-Pad13)*
X60960000Y-140970000D03*
G04 #@! TO.P,U7,4*
G04 #@! TO.N,N/C*
X60960000Y-143510000D03*
G04 #@! TO.P,U7,3*
G04 #@! TO.N,~RESET~1*
X60960000Y-146050000D03*
G04 #@! TO.P,U7,2*
G04 #@! TO.N,Net-(U7-Pad2)*
X60960000Y-148590000D03*
G04 #@! TO.P,U7,1*
G04 #@! TO.N,ENG*
X60960000Y-151130000D03*
G04 #@! TO.P,U7,23*
G04 #@! TO.N,Neg6v*
X47625000Y-168275000D03*
G04 #@! TO.P,U7,22*
G04 #@! TO.N,GND*
X45085000Y-168275000D03*
G04 #@! TO.P,U7,21*
G04 #@! TO.N,6v*
X42545000Y-168275000D03*
G04 #@! TD*
G04 #@! TO.P,U9,13*
G04 #@! TO.N,Net-(U14-Pad5)*
X194945000Y-78740000D03*
G04 #@! TO.P,U9,12*
G04 #@! TO.N,Net-(U14-Pad4)*
X194945000Y-81280000D03*
G04 #@! TO.P,U9,11*
G04 #@! TO.N,Net-(U14-Pad1)*
X194945000Y-83820000D03*
G04 #@! TO.P,U9,6*
G04 #@! TO.N,ENGk*
X213360000Y-74930000D03*
G04 #@! TO.P,U9,5*
G04 #@! TO.N,N/C*
X213360000Y-77470000D03*
G04 #@! TO.P,U9,4*
G04 #@! TO.N,~ONGk~*
X213360000Y-80010000D03*
G04 #@! TO.P,U9,3*
G04 #@! TO.N,N/C*
X213360000Y-82550000D03*
G04 #@! TO.P,U9,2*
G04 #@! TO.N,ONGk*
X213360000Y-85090000D03*
G04 #@! TO.P,U9,1*
G04 #@! TO.N,N/C*
X213360000Y-87630000D03*
G04 #@! TO.P,U9,23*
G04 #@! TO.N,Neg6v*
X200025000Y-104775000D03*
G04 #@! TO.P,U9,22*
G04 #@! TO.N,GND*
X197485000Y-104775000D03*
G04 #@! TO.P,U9,21*
G04 #@! TO.N,6v*
X194945000Y-104775000D03*
G04 #@! TD*
G04 #@! TO.P,U10,13*
G04 #@! TO.N,Net-(U10-Pad13)*
X164465000Y-78740000D03*
G04 #@! TO.P,U10,12*
G04 #@! TO.N,Net-(U10-Pad12)*
X164465000Y-81280000D03*
G04 #@! TO.P,U10,11*
G04 #@! TO.N,Net-(U10-Pad11)*
X164465000Y-83820000D03*
G04 #@! TO.P,U10,6*
G04 #@! TO.N,AUTOk*
X182880000Y-74930000D03*
G04 #@! TO.P,U10,5*
G04 #@! TO.N,N/C*
X182880000Y-77470000D03*
G04 #@! TO.P,U10,4*
G04 #@! TO.N,~JUMP~k*
X182880000Y-80010000D03*
G04 #@! TO.P,U10,3*
G04 #@! TO.N,N/C*
X182880000Y-82550000D03*
G04 #@! TO.P,U10,2*
G04 #@! TO.N,JUMPk*
X182880000Y-85090000D03*
G04 #@! TO.P,U10,1*
G04 #@! TO.N,N/C*
X182880000Y-87630000D03*
G04 #@! TO.P,U10,23*
G04 #@! TO.N,Neg6v*
X169545000Y-104775000D03*
G04 #@! TO.P,U10,22*
G04 #@! TO.N,GND*
X167005000Y-104775000D03*
G04 #@! TO.P,U10,21*
G04 #@! TO.N,6v*
X164465000Y-104775000D03*
G04 #@! TD*
D13*
G04 #@! TO.P,C1,2*
G04 #@! TO.N,GND*
X146900000Y-37000000D03*
D14*
G04 #@! TO.P,C1,1*
G04 #@! TO.N,6v*
X144400000Y-37000000D03*
G04 #@! TD*
D13*
G04 #@! TO.P,C2,2*
G04 #@! TO.N,Neg6v*
X33300000Y-39800000D03*
D14*
G04 #@! TO.P,C2,1*
G04 #@! TO.N,GND*
X30800000Y-39800000D03*
G04 #@! TD*
D15*
G04 #@! TO.P,J1,AL*
G04 #@! TO.N,GND*
X39605000Y-33401000D03*
G04 #@! TO.P,J1,32*
X39605000Y-30861000D03*
G04 #@! TO.P,J1,AK*
G04 #@! TO.N,Neg6v*
X42145000Y-33401000D03*
G04 #@! TO.P,J1,31*
X42145000Y-30861000D03*
G04 #@! TO.P,J1,AJ*
G04 #@! TO.N,2.4v*
X44685000Y-33401000D03*
G04 #@! TO.P,J1,30*
X44685000Y-30861000D03*
G04 #@! TO.P,J1,AH*
G04 #@! TO.N,N/C*
X47225000Y-33401000D03*
G04 #@! TO.P,J1,29*
X47225000Y-30861000D03*
G04 #@! TO.P,J1,AF*
X49765000Y-33401000D03*
G04 #@! TO.P,J1,28*
X49765000Y-30861000D03*
G04 #@! TO.P,J1,AE*
G04 #@! TO.N,RESET*
X52305000Y-33401000D03*
G04 #@! TO.P,J1,27*
G04 #@! TO.N,~RESET~1*
X52305000Y-30861000D03*
G04 #@! TO.P,J1,AD*
G04 #@! TO.N,~RESET~*
X54845000Y-33401000D03*
G04 #@! TO.P,J1,26*
G04 #@! TO.N,TCS*
X54845000Y-30861000D03*
G04 #@! TO.P,J1,AC*
G04 #@! TO.N,~STOP~*
X57385000Y-33401000D03*
G04 #@! TO.P,J1,25*
G04 #@! TO.N,~STOP~k*
X57385000Y-30861000D03*
G04 #@! TO.P,J1,AB*
G04 #@! TO.N,~TCS~k*
X59925000Y-33401000D03*
G04 #@! TO.P,J1,24*
G04 #@! TO.N,RESETk*
X59925000Y-30861000D03*
G04 #@! TO.P,J1,AA*
G04 #@! TO.N,N/C*
X62465000Y-33401000D03*
G04 #@! TO.P,J1,23*
G04 #@! TO.N,E1*
X62465000Y-30861000D03*
G04 #@! TO.P,J1,Z*
G04 #@! TO.N,N/C*
X65005000Y-33401000D03*
G04 #@! TO.P,J1,22*
G04 #@! TO.N,E2*
X65005000Y-30861000D03*
G04 #@! TO.P,J1,Y*
G04 #@! TO.N,{ACTIVE1}*
X67545000Y-33401000D03*
G04 #@! TO.P,J1,21*
G04 #@! TO.N,~E2~*
X67545000Y-30861000D03*
G04 #@! TO.P,J1,X*
G04 #@! TO.N,N/C*
X70085000Y-33401000D03*
G04 #@! TO.P,J1,20*
G04 #@! TO.N,~E1~*
X70085000Y-30861000D03*
G04 #@! TO.P,J1,W*
G04 #@! TO.N,W17*
X72625000Y-33401000D03*
G04 #@! TO.P,J1,19*
G04 #@! TO.N,~OS~k*
X72625000Y-30861000D03*
G04 #@! TO.P,J1,V*
G04 #@! TO.N,{ACTIVE2}*
X75165000Y-33401000D03*
G04 #@! TO.P,J1,18*
G04 #@! TO.N,NG17k*
X75165000Y-30861000D03*
G04 #@! TO.P,J1,U*
G04 #@! TO.N,N/C*
X77705000Y-33401000D03*
G04 #@! TO.P,J1,17*
G04 #@! TO.N,~NG17~k*
X77705000Y-30861000D03*
G04 #@! TO.P,J1,T*
G04 #@! TO.N,~OS~*
X80245000Y-33401000D03*
G04 #@! TO.P,J1,16*
G04 #@! TO.N,JUMP*
X80245000Y-30861000D03*
G04 #@! TO.P,J1,S*
G04 #@! TO.N,{ACTIVE3}*
X82785000Y-33401000D03*
G04 #@! TO.P,J1,15*
G04 #@! TO.N,~JUMP~*
X82785000Y-30861000D03*
G04 #@! TO.P,J1,R*
G04 #@! TO.N,~JIA~*
X85325000Y-33401000D03*
G04 #@! TO.P,J1,14*
G04 #@! TO.N,CS*
X85325000Y-30861000D03*
G04 #@! TO.P,J1,P*
G04 #@! TO.N,N/C*
X87865000Y-33401000D03*
G04 #@! TO.P,J1,13*
G04 #@! TO.N,CIN*
X87865000Y-30861000D03*
G04 #@! TO.P,J1,N*
G04 #@! TO.N,~WTM~a*
X90405000Y-33401000D03*
G04 #@! TO.P,J1,12*
G04 #@! TO.N,~CS~*
X90405000Y-30861000D03*
G04 #@! TO.P,J1,M*
G04 #@! TO.N,JUMPk*
X92945000Y-33401000D03*
G04 #@! TO.P,J1,11*
G04 #@! TO.N,~JUMP~k*
X92945000Y-30861000D03*
G04 #@! TO.P,J1,L*
G04 #@! TO.N,AUTOk*
X95485000Y-33401000D03*
G04 #@! TO.P,J1,10*
G04 #@! TO.N,ONG*
X95485000Y-30861000D03*
G04 #@! TO.P,J1,K*
G04 #@! TO.N,~ONG~*
X98025000Y-33401000D03*
G04 #@! TO.P,J1,9*
G04 #@! TO.N,ENG*
X98025000Y-30861000D03*
G04 #@! TO.P,J1,J*
G04 #@! TO.N,CINSk*
X100565000Y-33401000D03*
G04 #@! TO.P,J1,8*
G04 #@! TO.N,~CINSk~*
X100565000Y-30861000D03*
G04 #@! TO.P,J1,H*
G04 #@! TO.N,~CSk~*
X103105000Y-33401000D03*
G04 #@! TO.P,J1,7*
G04 #@! TO.N,ONGk*
X103105000Y-30861000D03*
G04 #@! TO.P,J1,F*
G04 #@! TO.N,~ONGk~*
X105645000Y-33401000D03*
G04 #@! TO.P,J1,6*
G04 #@! TO.N,ENGk*
X105645000Y-30861000D03*
G04 #@! TO.P,J1,E*
G04 #@! TO.N,~ENG~*
X108185000Y-33401000D03*
G04 #@! TO.P,J1,5*
G04 #@! TO.N,~TEST~k*
X108185000Y-30861000D03*
G04 #@! TO.P,J1,D*
G04 #@! TO.N,~SMNk~*
X110725000Y-33401000D03*
G04 #@! TO.P,J1,4*
G04 #@! TO.N,~ENGk~*
X110725000Y-30861000D03*
G04 #@! TO.P,J1,C*
G04 #@! TO.N,N/C*
X113265000Y-33401000D03*
G04 #@! TO.P,J1,3*
G04 #@! TO.N,~RESTART~K*
X113265000Y-30861000D03*
G04 #@! TO.P,J1,B*
G04 #@! TO.N,6v*
X115805000Y-33401000D03*
G04 #@! TO.P,J1,2*
X115805000Y-30861000D03*
G04 #@! TO.P,J1,A*
G04 #@! TO.N,GND*
X118345000Y-33401000D03*
D16*
G04 #@! TO.P,J1,1*
X118345000Y-30861000D03*
G04 #@! TD*
D12*
G04 #@! TO.P,R1,2*
G04 #@! TO.N,Net-(R1-Pad2)*
X68200000Y-53420000D03*
D11*
G04 #@! TO.P,R1,1*
G04 #@! TO.N,{ACTIVE1}*
X68200000Y-45800000D03*
G04 #@! TD*
G04 #@! TO.P,R2,1*
G04 #@! TO.N,{ACTIVE2}*
X76000000Y-45600000D03*
D12*
G04 #@! TO.P,R2,2*
G04 #@! TO.N,Net-(R2-Pad2)*
X76000000Y-53220000D03*
G04 #@! TD*
D17*
G04 #@! TO.N,Net-(U1-Pad12)*
X168880700Y-89651200D03*
G04 #@! TO.N,E1*
X89839200Y-113969200D03*
G04 #@! TO.N,~E2~*
X90839500Y-113942700D03*
G04 #@! TO.N,~E1~*
X91761000Y-111238800D03*
G04 #@! TO.N,{ACTIVE3}*
X82785000Y-54937500D03*
G04 #@! TO.N,CS*
X161062800Y-81710900D03*
G04 #@! TO.N,~WTM~a*
X173743800Y-86481100D03*
G04 #@! TO.N,ENG*
X42425300Y-106651000D03*
G04 #@! TO.N,~ENG~*
X61375000Y-46710800D03*
G04 #@! TO.N,~RESTART~K*
X61766100Y-45276500D03*
G04 #@! TO.N,Net-(R1-Pad2)*
X82477200Y-68697700D03*
G04 #@! TO.N,Net-(U1-Pad3)*
X170724700Y-88443600D03*
G04 #@! TO.N,Net-(U1-Pad1)*
X170024700Y-89183100D03*
G04 #@! TO.N,Net-(U10-Pad13)*
X156785800Y-82611500D03*
G04 #@! TD*
D18*
G04 #@! TO.N,Net-(U1-Pad12)*
X91440000Y-85090000D02*
X96207500Y-89857500D01*
X96207500Y-89857500D02*
X168674400Y-89857500D01*
X168674400Y-89857500D02*
X168880700Y-89651200D01*
D19*
G04 #@! TO.N,6v*
X103505000Y-167105000D02*
X103505000Y-168275000D01*
X98000000Y-161600000D02*
X103505000Y-167105000D01*
X133985000Y-168275000D02*
X132531100Y-166821100D01*
X132531100Y-166821100D02*
X103788900Y-166821100D01*
X103788900Y-166821100D02*
X103505000Y-167105000D01*
X164465000Y-104775000D02*
X165921800Y-106231800D01*
X165921800Y-106231800D02*
X193488200Y-106231800D01*
X193488200Y-106231800D02*
X194945000Y-104775000D01*
X164465000Y-104775000D02*
X162314100Y-106925900D01*
X162314100Y-106925900D02*
X136135900Y-106925900D01*
X136135900Y-106925900D02*
X133985000Y-104775000D01*
X88974500Y-110361000D02*
X88974500Y-120615200D01*
X88974500Y-120615200D02*
X94727200Y-126367900D01*
X94727200Y-126367900D02*
X94727200Y-145727200D01*
X94727200Y-145727200D02*
X98000000Y-149000000D01*
X73025000Y-104775000D02*
X78611000Y-110361000D01*
X78611000Y-110361000D02*
X88974500Y-110361000D01*
X97800000Y-112000000D02*
X96161000Y-110361000D01*
X96161000Y-110361000D02*
X88974500Y-110361000D01*
X225425000Y-122000000D02*
X225425000Y-104775000D01*
X133985000Y-104775000D02*
X126760000Y-112000000D01*
X126760000Y-112000000D02*
X97800000Y-112000000D01*
X42545000Y-104775000D02*
X43995300Y-106225300D01*
X43995300Y-106225300D02*
X71574700Y-106225300D01*
X71574700Y-106225300D02*
X73025000Y-104775000D01*
X219400000Y-129200000D02*
X225425000Y-123175000D01*
X225425000Y-123175000D02*
X225425000Y-122000000D01*
X251200000Y-122000000D02*
X225425000Y-122000000D01*
X219400000Y-153400000D02*
X219400000Y-157800000D01*
X219400000Y-157800000D02*
X219200000Y-158000000D01*
X144400000Y-37000000D02*
X143149700Y-37000000D01*
X143149700Y-37000000D02*
X119404000Y-37000000D01*
X119404000Y-37000000D02*
X115805000Y-33401000D01*
X73025000Y-168275000D02*
X71556400Y-169743600D01*
X71556400Y-169743600D02*
X44013600Y-169743600D01*
X44013600Y-169743600D02*
X42545000Y-168275000D01*
X219200000Y-158000000D02*
X205220000Y-158000000D01*
X205220000Y-158000000D02*
X194945000Y-168275000D01*
G04 #@! TO.N,Neg6v*
X169545000Y-104775000D02*
X167388600Y-102618600D01*
X167388600Y-102618600D02*
X141221400Y-102618600D01*
X141221400Y-102618600D02*
X139065000Y-104775000D01*
X200025000Y-104775000D02*
X198574600Y-103324600D01*
X198574600Y-103324600D02*
X170995400Y-103324600D01*
X170995400Y-103324600D02*
X169545000Y-104775000D01*
X108585000Y-104775000D02*
X110035300Y-103324700D01*
X110035300Y-103324700D02*
X137614700Y-103324700D01*
X137614700Y-103324700D02*
X139065000Y-104775000D01*
X139065000Y-168275000D02*
X140516000Y-169726000D01*
X140516000Y-169726000D02*
X168094000Y-169726000D01*
X168094000Y-169726000D02*
X169545000Y-168275000D01*
X169545000Y-168275000D02*
X170996000Y-169726000D01*
X170996000Y-169726000D02*
X198574000Y-169726000D01*
X198574000Y-169726000D02*
X200025000Y-168275000D01*
X108585000Y-168275000D02*
X110047600Y-169737600D01*
X110047600Y-169737600D02*
X137602400Y-169737600D01*
X137602400Y-169737600D02*
X139065000Y-168275000D01*
X78105000Y-104775000D02*
X79555500Y-106225500D01*
X79555500Y-106225500D02*
X107134500Y-106225500D01*
X107134500Y-106225500D02*
X108585000Y-104775000D01*
X200025000Y-168275000D02*
X201479600Y-169729600D01*
X201479600Y-169729600D02*
X229050400Y-169729600D01*
X229050400Y-169729600D02*
X230505000Y-168275000D01*
G04 #@! TO.N,GND*
X46543200Y-103316800D02*
X45085000Y-104775000D01*
X75565000Y-104775000D02*
X74106800Y-103316800D01*
X74106800Y-103316800D02*
X46543200Y-103316800D01*
X30800000Y-39800000D02*
X30800000Y-87573600D01*
X30800000Y-87573600D02*
X46543200Y-103316800D01*
X75565000Y-104775000D02*
X77015400Y-103324600D01*
X77015400Y-103324600D02*
X104594600Y-103324600D01*
X104594600Y-103324600D02*
X106045000Y-104775000D01*
X167005000Y-104775000D02*
X165554600Y-103324600D01*
X165554600Y-103324600D02*
X146007400Y-103324600D01*
X146007400Y-103324600D02*
X143106500Y-106225500D01*
X143106500Y-106225500D02*
X137975500Y-106225500D01*
X137975500Y-106225500D02*
X136525000Y-104775000D01*
X136525000Y-168275000D02*
X137977300Y-166822700D01*
X137977300Y-166822700D02*
X165552700Y-166822700D01*
X165552700Y-166822700D02*
X167005000Y-168275000D01*
X45085000Y-168275000D02*
X46535400Y-166824600D01*
X46535400Y-166824600D02*
X74114600Y-166824600D01*
X74114600Y-166824600D02*
X75565000Y-168275000D01*
X197485000Y-168275000D02*
X198935300Y-166824700D01*
X198935300Y-166824700D02*
X226514700Y-166824700D01*
X226514700Y-166824700D02*
X227965000Y-168275000D01*
D18*
G04 #@! TO.N,Net-(U3-Pad13)*
X152400000Y-148590000D02*
X158115000Y-148590000D01*
X158115000Y-148590000D02*
X164465000Y-142240000D01*
G04 #@! TO.N,E1*
X89839200Y-113969200D02*
X121920000Y-146050000D01*
G04 #@! TO.N,~E2~*
X90839500Y-113942700D02*
X90839500Y-114126600D01*
X90839500Y-114126600D02*
X120222900Y-143510000D01*
X120222900Y-143510000D02*
X121920000Y-143510000D01*
G04 #@! TO.N,~E1~*
X91761000Y-111238800D02*
X121492200Y-140970000D01*
X121492200Y-140970000D02*
X121920000Y-140970000D01*
X121920000Y-140970000D02*
X123262500Y-142312500D01*
X123262500Y-142312500D02*
X123262500Y-149787500D01*
X123262500Y-149787500D02*
X121920000Y-151130000D01*
G04 #@! TO.N,W17*
X91440000Y-87630000D02*
X74955700Y-87630000D01*
X74955700Y-87630000D02*
X71672700Y-84347000D01*
X71672700Y-84347000D02*
X71672700Y-82632300D01*
X71672700Y-82632300D02*
X73025000Y-81280000D01*
G04 #@! TO.N,~OS~*
X80245000Y-33401000D02*
X80245000Y-65240000D01*
X80245000Y-65240000D02*
X83241900Y-68236900D01*
X83241900Y-68236900D02*
X83241900Y-68959000D01*
X83241900Y-68959000D02*
X73460900Y-78740000D01*
X73460900Y-78740000D02*
X73025000Y-78740000D01*
G04 #@! TO.N,JUMP*
X80245000Y-30861000D02*
X81420400Y-32036400D01*
X81420400Y-32036400D02*
X83089800Y-32036400D01*
X83089800Y-32036400D02*
X84055000Y-33001600D01*
X84055000Y-33001600D02*
X84055000Y-33829400D01*
X84055000Y-33829400D02*
X128965600Y-78740000D01*
X128965600Y-78740000D02*
X133985000Y-78740000D01*
G04 #@! TO.N,{ACTIVE3}*
X82785000Y-33401000D02*
X82785000Y-54937500D01*
G04 #@! TO.N,~JUMP~*
X133985000Y-83820000D02*
X137795000Y-80010000D01*
X137795000Y-80010000D02*
X152400000Y-80010000D01*
G04 #@! TO.N,CS*
X85325000Y-30861000D02*
X86595000Y-32131000D01*
X86595000Y-32131000D02*
X86595000Y-33812300D01*
X86595000Y-33812300D02*
X126054500Y-73271800D01*
X126054500Y-73271800D02*
X152623700Y-73271800D01*
X152623700Y-73271800D02*
X161062800Y-81710900D01*
X213360000Y-140970000D02*
X224155000Y-140970000D01*
X224155000Y-140970000D02*
X225425000Y-142240000D01*
G04 #@! TO.N,CIN*
X194945000Y-147320000D02*
X212090000Y-147320000D01*
X212090000Y-147320000D02*
X213360000Y-146050000D01*
G04 #@! TO.N,~WTM~a*
X173743800Y-86481100D02*
X173743800Y-86142400D01*
X173743800Y-86142400D02*
X160408700Y-72807300D01*
X160408700Y-72807300D02*
X129811300Y-72807300D01*
X129811300Y-72807300D02*
X90405000Y-33401000D01*
G04 #@! TO.N,~CS~*
X194945000Y-142240000D02*
X201390600Y-135794400D01*
X201390600Y-135794400D02*
X238664400Y-135794400D01*
X238664400Y-135794400D02*
X243840000Y-140970000D01*
G04 #@! TO.N,JUMPk*
X92945000Y-33401000D02*
X131900900Y-72356900D01*
X131900900Y-72356900D02*
X170146900Y-72356900D01*
X170146900Y-72356900D02*
X182880000Y-85090000D01*
G04 #@! TO.N,~JUMP~k*
X92945000Y-30861000D02*
X94215000Y-32131000D01*
X94215000Y-32131000D02*
X94215000Y-33809200D01*
X94215000Y-33809200D02*
X132312400Y-71906600D01*
X132312400Y-71906600D02*
X174776600Y-71906600D01*
X174776600Y-71906600D02*
X182880000Y-80010000D01*
G04 #@! TO.N,AUTOk*
X95485000Y-33401000D02*
X133090000Y-71006000D01*
X133090000Y-71006000D02*
X178956000Y-71006000D01*
X178956000Y-71006000D02*
X182880000Y-74930000D01*
G04 #@! TO.N,ONG*
X59623600Y-81213600D02*
X60960000Y-82550000D01*
X95485000Y-30861000D02*
X94292400Y-29668400D01*
X94292400Y-29668400D02*
X79767600Y-29668400D01*
X79767600Y-29668400D02*
X78975000Y-30461000D01*
X78975000Y-30461000D02*
X78975000Y-40067100D01*
X78975000Y-40067100D02*
X59623600Y-59418500D01*
X59623600Y-59418500D02*
X59623600Y-81213600D01*
X42545000Y-83820000D02*
X45151400Y-81213600D01*
X45151400Y-81213600D02*
X59623600Y-81213600D01*
G04 #@! TO.N,~ONG~*
X42545000Y-81280000D02*
X44425200Y-79399800D01*
X44425200Y-79399800D02*
X44425200Y-71952000D01*
X44425200Y-71952000D02*
X76435000Y-39942200D01*
X76435000Y-39942200D02*
X76435000Y-30461000D01*
X76435000Y-30461000D02*
X77730800Y-29165200D01*
X77730800Y-29165200D02*
X95483500Y-29165200D01*
X95483500Y-29165200D02*
X96755000Y-30436700D01*
X96755000Y-30436700D02*
X96755000Y-32131000D01*
X96755000Y-32131000D02*
X98025000Y-33401000D01*
X42545000Y-81280000D02*
X41181000Y-82644000D01*
X41181000Y-82644000D02*
X41181000Y-84387200D01*
X41181000Y-84387200D02*
X41947000Y-85153200D01*
X41947000Y-85153200D02*
X60896800Y-85153200D01*
X60896800Y-85153200D02*
X60960000Y-85090000D01*
G04 #@! TO.N,ENG*
X225425000Y-78740000D02*
X215200100Y-88964900D01*
X215200100Y-88964900D02*
X209124400Y-88964900D01*
X209124400Y-88964900D02*
X190712200Y-70552700D01*
X190712200Y-70552700D02*
X136041100Y-70552700D01*
X136041100Y-70552700D02*
X99295000Y-33806600D01*
X99295000Y-33806600D02*
X99295000Y-32131000D01*
X99295000Y-32131000D02*
X98025000Y-30861000D01*
X42545000Y-78740000D02*
X42545000Y-66569100D01*
X42545000Y-66569100D02*
X73895000Y-35219100D01*
X73895000Y-35219100D02*
X73895000Y-30400800D01*
X73895000Y-30400800D02*
X75580900Y-28714900D01*
X75580900Y-28714900D02*
X95878900Y-28714900D01*
X95878900Y-28714900D02*
X98025000Y-30861000D01*
X42425300Y-106651000D02*
X42425300Y-132595300D01*
X42425300Y-132595300D02*
X60960000Y-151130000D01*
G04 #@! TO.N,CINSk*
X213360000Y-143510000D02*
X212009300Y-142159300D01*
X212009300Y-142159300D02*
X212009300Y-137897300D01*
X212009300Y-137897300D02*
X213086600Y-136820000D01*
X213086600Y-136820000D02*
X219400000Y-136820000D01*
G04 #@! TO.N,~CSk~*
X251200000Y-129620000D02*
X251200000Y-130645300D01*
X251200000Y-130645300D02*
X243840000Y-138005300D01*
X243840000Y-138005300D02*
X243840000Y-138430000D01*
G04 #@! TO.N,ONGk*
X213360000Y-85090000D02*
X198147300Y-69877300D01*
X198147300Y-69877300D02*
X140455600Y-69877300D01*
X140455600Y-69877300D02*
X104375000Y-33796700D01*
X104375000Y-33796700D02*
X104375000Y-32131000D01*
X104375000Y-32131000D02*
X103105000Y-30861000D01*
G04 #@! TO.N,~ONGk~*
X105645000Y-33401000D02*
X118143600Y-45899600D01*
X118143600Y-45899600D02*
X179249600Y-45899600D01*
X179249600Y-45899600D02*
X213360000Y-80010000D01*
G04 #@! TO.N,ENGk*
X105645000Y-30861000D02*
X106915000Y-32131000D01*
X106915000Y-32131000D02*
X106915000Y-33796200D01*
X106915000Y-33796200D02*
X118568000Y-45449200D01*
X118568000Y-45449200D02*
X183879200Y-45449200D01*
X183879200Y-45449200D02*
X213360000Y-74930000D01*
G04 #@! TO.N,~ENG~*
X108185000Y-33401000D02*
X108185000Y-32764100D01*
X108185000Y-32764100D02*
X106915000Y-31494100D01*
X106915000Y-31494100D02*
X106915000Y-30427600D01*
X106915000Y-30427600D02*
X104700900Y-28213500D01*
X104700900Y-28213500D02*
X73561900Y-28213500D01*
X73561900Y-28213500D02*
X71355000Y-30420400D01*
X71355000Y-30420400D02*
X71355000Y-36730800D01*
X71355000Y-36730800D02*
X61375000Y-46710800D01*
G04 #@! TO.N,~TEST~k*
X108185000Y-30861000D02*
X109455000Y-32131000D01*
X109455000Y-32131000D02*
X109455000Y-33812300D01*
X109455000Y-33812300D02*
X115486400Y-39843700D01*
X115486400Y-39843700D02*
X192617400Y-39843700D01*
X192617400Y-39843700D02*
X241742700Y-88969000D01*
X241742700Y-88969000D02*
X244375600Y-88969000D01*
X244375600Y-88969000D02*
X245168300Y-88176300D01*
X245168300Y-88176300D02*
X245168300Y-81338300D01*
X245168300Y-81338300D02*
X243840000Y-80010000D01*
X243840000Y-80010000D02*
X242509600Y-78679600D01*
X242509600Y-78679600D02*
X242509600Y-76260400D01*
X242509600Y-76260400D02*
X243840000Y-74930000D01*
G04 #@! TO.N,~ENGk~*
X110725000Y-30861000D02*
X112052600Y-32188600D01*
X112052600Y-32188600D02*
X190938600Y-32188600D01*
X190938600Y-32188600D02*
X243840000Y-85090000D01*
G04 #@! TO.N,~RESTART~K*
X113265000Y-30861000D02*
X110167100Y-27763100D01*
X110167100Y-27763100D02*
X71458900Y-27763100D01*
X71458900Y-27763100D02*
X68815000Y-30407000D01*
X68815000Y-30407000D02*
X68815000Y-38227600D01*
X68815000Y-38227600D02*
X61766100Y-45276500D01*
G04 #@! TO.N,Net-(R1-Pad2)*
X68200000Y-54445300D02*
X68224800Y-54445300D01*
X68224800Y-54445300D02*
X82477200Y-68697700D01*
X68200000Y-53420000D02*
X68200000Y-54445300D01*
G04 #@! TO.N,Net-(R2-Pad2)*
X98000000Y-153980000D02*
X98000000Y-152954700D01*
X103505000Y-144780000D02*
X99025300Y-149259700D01*
X99025300Y-149259700D02*
X99025300Y-151929400D01*
X99025300Y-151929400D02*
X98000000Y-152954700D01*
G04 #@! TO.N,Net-(R3-Pad2)*
X98000000Y-141380000D02*
X98000000Y-140354700D01*
X98000000Y-140354700D02*
X97800000Y-140154700D01*
X97800000Y-140154700D02*
X97800000Y-135820000D01*
G04 #@! TO.N,Net-(U1-Pad11)*
X133985000Y-142240000D02*
X139150200Y-137074800D01*
X139150200Y-137074800D02*
X164738600Y-137074800D01*
X164738600Y-137074800D02*
X180129000Y-152465200D01*
X180129000Y-152465200D02*
X217550100Y-152465200D01*
X217550100Y-152465200D02*
X222695300Y-147320000D01*
X222695300Y-147320000D02*
X225425000Y-147320000D01*
G04 #@! TO.N,Net-(U1-Pad3)*
X103505000Y-81280000D02*
X111181700Y-88956700D01*
X111181700Y-88956700D02*
X166921600Y-88956700D01*
X166921600Y-88956700D02*
X167434700Y-88443600D01*
X167434700Y-88443600D02*
X170724700Y-88443600D01*
G04 #@! TO.N,Net-(U1-Pad1)*
X103505000Y-83820000D02*
X109092100Y-89407100D01*
X109092100Y-89407100D02*
X168099100Y-89407100D01*
X168099100Y-89407100D02*
X168580300Y-88925900D01*
X168580300Y-88925900D02*
X169767500Y-88925900D01*
X169767500Y-88925900D02*
X170024700Y-89183100D01*
G04 #@! TO.N,Net-(U11-Pad6)*
X152400000Y-140970000D02*
X140335000Y-140970000D01*
X140335000Y-140970000D02*
X133985000Y-147320000D01*
G04 #@! TO.N,Net-(U10-Pad13)*
X164465000Y-78740000D02*
X164465000Y-79342900D01*
X164465000Y-79342900D02*
X161196400Y-82611500D01*
X161196400Y-82611500D02*
X156785800Y-82611500D01*
G04 #@! TO.N,Net-(U6-Pad13)*
X60960000Y-140970000D02*
X71755000Y-140970000D01*
X71755000Y-140970000D02*
X73025000Y-142240000D01*
G04 #@! TO.N,Net-(U7-Pad2)*
X60960000Y-148590000D02*
X67393800Y-155023800D01*
X67393800Y-155023800D02*
X119902200Y-155023800D01*
X119902200Y-155023800D02*
X131541300Y-143384700D01*
X131541300Y-143384700D02*
X131541300Y-142793100D01*
X131541300Y-142793100D02*
X166926600Y-107407800D01*
X166926600Y-107407800D02*
X201837200Y-107407800D01*
X201837200Y-107407800D02*
X225425000Y-83820000D01*
G04 #@! TO.N,Net-(U14-Pad5)*
X194945000Y-78740000D02*
X183305600Y-90379400D01*
X183305600Y-90379400D02*
X73869400Y-90379400D01*
X73869400Y-90379400D02*
X60960000Y-77470000D01*
G04 #@! TO.N,Net-(U14-Pad4)*
X60960000Y-80010000D02*
X71779800Y-90829800D01*
X71779800Y-90829800D02*
X185395200Y-90829800D01*
X185395200Y-90829800D02*
X194945000Y-81280000D01*
G04 #@! TO.N,Net-(U14-Pad1)*
X60960000Y-87630000D02*
X64615300Y-91285300D01*
X64615300Y-91285300D02*
X187479700Y-91285300D01*
X187479700Y-91285300D02*
X194945000Y-83820000D01*
G04 #@! TO.N,Net-(U10-Pad12)*
X164465000Y-81280000D02*
X165793400Y-82608400D01*
X165793400Y-82608400D02*
X165793400Y-84369300D01*
X165793400Y-84369300D02*
X164996800Y-85165900D01*
X164996800Y-85165900D02*
X152475900Y-85165900D01*
X152475900Y-85165900D02*
X152400000Y-85090000D01*
G04 #@! TO.N,Net-(U10-Pad11)*
X164465000Y-83820000D02*
X153670000Y-83820000D01*
X153670000Y-83820000D02*
X152400000Y-82550000D01*
G04 #@! TO.N,Net-(U12-Pad13)*
X91440000Y-77470000D02*
X102235000Y-77470000D01*
X102235000Y-77470000D02*
X103505000Y-78740000D01*
G04 #@! TO.N,Net-(U13-Pad11)*
X91440000Y-80010000D02*
X76835000Y-80010000D01*
X76835000Y-80010000D02*
X73025000Y-83820000D01*
G04 #@! TD*
M02*
