M48
;DRILL file {KiCad (5.0.0)} date 11/09/19 01:46:09
;FORMAT={-:-/ absolute / inch / decimal}
FMAT,2
INCH,TZ
T1C0.0157
T2C0.0276
T3C0.0315
T4C0.0394
T5C0.0433
%
G90
G05
M72
T1
X1.6703Y-4.1989
X2.4163Y-1.839
X2.4317Y-1.7825
X3.2471Y-2.7046
X3.2593Y-2.1629
X3.537Y-4.487
X3.5764Y-4.4859
X3.6126Y-4.3795
X6.1727Y-3.2524
X6.3411Y-3.217
X6.6488Y-3.5296
X6.6939Y-3.5111
X6.7214Y-3.482
X6.8403Y-3.4048
T2
X3.8504Y-4.4094
X3.8504Y-4.7094
X2.685Y-1.8031
X2.685Y-2.1031
X8.6378Y-5.0866
X8.6378Y-5.3866
X8.6378Y-5.7394
X8.6378Y-6.0394
X3.8583Y-6.0622
X3.8583Y-6.3622
X2.9921Y-1.7953
X2.9921Y-2.0953
X3.8583Y-5.5661
X3.8583Y-5.8661
X8.6299Y-6.2205
X8.6299Y-6.5205
X9.8898Y-4.8031
X9.8898Y-5.1031
X3.8504Y-5.0472
X3.8504Y-5.3472
T3
X5.685Y-1.4567
X5.7835Y-1.4567
X1.2126Y-1.5669
X1.311Y-1.5669
T4
X1.5593Y-1.215
X1.5593Y-1.315
X1.6593Y-1.215
X1.6593Y-1.315
X1.7593Y-1.215
X1.7593Y-1.315
X1.8593Y-1.215
X1.8593Y-1.315
X1.9593Y-1.215
X1.9593Y-1.315
X2.0593Y-1.215
X2.0593Y-1.315
X2.1593Y-1.215
X2.1593Y-1.315
X2.2593Y-1.215
X2.2593Y-1.315
X2.3593Y-1.215
X2.3593Y-1.315
X2.4593Y-1.215
X2.4593Y-1.315
X2.5593Y-1.215
X2.5593Y-1.315
X2.6593Y-1.215
X2.6593Y-1.315
X2.7593Y-1.215
X2.7593Y-1.315
X2.8593Y-1.215
X2.8593Y-1.315
X2.9593Y-1.215
X2.9593Y-1.315
X3.0593Y-1.215
X3.0593Y-1.315
X3.1593Y-1.215
X3.1593Y-1.315
X3.2593Y-1.215
X3.2593Y-1.315
X3.3593Y-1.215
X3.3593Y-1.315
X3.4593Y-1.215
X3.4593Y-1.315
X3.5593Y-1.215
X3.5593Y-1.315
X3.6593Y-1.215
X3.6593Y-1.315
X3.7593Y-1.215
X3.7593Y-1.315
X3.8593Y-1.215
X3.8593Y-1.315
X3.9593Y-1.215
X3.9593Y-1.315
X4.0593Y-1.215
X4.0593Y-1.315
X4.1593Y-1.215
X4.1593Y-1.315
X4.2593Y-1.215
X4.2593Y-1.315
X4.3593Y-1.215
X4.3593Y-1.315
X4.4593Y-1.215
X4.4593Y-1.315
X4.5593Y-1.215
X4.5593Y-1.315
X4.6593Y-1.215
X4.6593Y-1.315
T5
X6.475Y-5.6
X6.475Y-5.7
X6.475Y-5.8
X6.475Y-6.625
X6.575Y-6.625
X6.675Y-6.625
X7.2Y-5.45
X7.2Y-5.55
X7.2Y-5.65
X7.2Y-5.75
X7.2Y-5.85
X7.2Y-5.95
X7.675Y-3.1
X7.675Y-3.2
X7.675Y-3.3
X7.675Y-4.125
X7.775Y-4.125
X7.875Y-4.125
X8.4Y-2.95
X8.4Y-3.05
X8.4Y-3.15
X8.4Y-3.25
X8.4Y-3.35
X8.4Y-3.45
X1.675Y-5.6
X1.675Y-5.7
X1.675Y-5.8
X1.675Y-6.625
X1.775Y-6.625
X1.875Y-6.625
X2.4Y-5.45
X2.4Y-5.55
X2.4Y-5.65
X2.4Y-5.75
X2.4Y-5.85
X2.4Y-5.95
X4.075Y-5.6
X4.075Y-5.7
X4.075Y-5.8
X4.075Y-6.625
X4.175Y-6.625
X4.275Y-6.625
X4.8Y-5.45
X4.8Y-5.55
X4.8Y-5.65
X4.8Y-5.75
X4.8Y-5.85
X4.8Y-5.95
X5.275Y-5.6
X5.275Y-5.7
X5.275Y-5.8
X5.275Y-6.625
X5.375Y-6.625
X5.475Y-6.625
X6.Y-5.45
X6.Y-5.55
X6.Y-5.65
X6.Y-5.75
X6.Y-5.85
X6.Y-5.95
X2.875Y-3.1
X2.875Y-3.2
X2.875Y-3.3
X2.875Y-4.125
X2.975Y-4.125
X3.075Y-4.125
X3.6Y-2.95
X3.6Y-3.05
X3.6Y-3.15
X3.6Y-3.25
X3.6Y-3.35
X3.6Y-3.45
X8.875Y-5.6
X8.875Y-5.7
X8.875Y-5.8
X8.875Y-6.625
X8.975Y-6.625
X9.075Y-6.625
X9.6Y-5.45
X9.6Y-5.55
X9.6Y-5.65
X9.6Y-5.75
X9.6Y-5.85
X9.6Y-5.95
X7.675Y-5.6
X7.675Y-5.7
X7.675Y-5.8
X7.675Y-6.625
X7.775Y-6.625
X7.875Y-6.625
X8.4Y-5.45
X8.4Y-5.55
X8.4Y-5.65
X8.4Y-5.75
X8.4Y-5.85
X8.4Y-5.95
X6.475Y-3.1
X6.475Y-3.2
X6.475Y-3.3
X6.475Y-4.125
X6.575Y-4.125
X6.675Y-4.125
X7.2Y-2.95
X7.2Y-3.05
X7.2Y-3.15
X7.2Y-3.25
X7.2Y-3.35
X7.2Y-3.45
X1.675Y-3.1
X1.675Y-3.2
X1.675Y-3.3
X1.675Y-4.125
X1.775Y-4.125
X1.875Y-4.125
X2.4Y-2.95
X2.4Y-3.05
X2.4Y-3.15
X2.4Y-3.25
X2.4Y-3.35
X2.4Y-3.45
X8.875Y-3.1
X8.875Y-3.2
X8.875Y-3.3
X8.875Y-4.125
X8.975Y-4.125
X9.075Y-4.125
X9.6Y-2.95
X9.6Y-3.05
X9.6Y-3.15
X9.6Y-3.25
X9.6Y-3.35
X9.6Y-3.45
X4.075Y-3.1
X4.075Y-3.2
X4.075Y-3.3
X4.075Y-4.125
X4.175Y-4.125
X4.275Y-4.125
X4.8Y-2.95
X4.8Y-3.05
X4.8Y-3.15
X4.8Y-3.25
X4.8Y-3.35
X4.8Y-3.45
X2.875Y-5.6
X2.875Y-5.7
X2.875Y-5.8
X2.875Y-6.625
X2.975Y-6.625
X3.075Y-6.625
X3.6Y-5.45
X3.6Y-5.55
X3.6Y-5.65
X3.6Y-5.75
X3.6Y-5.85
X3.6Y-5.95
X5.275Y-3.1
X5.275Y-3.2
X5.275Y-3.3
X5.275Y-4.125
X5.375Y-4.125
X5.475Y-4.125
X6.Y-2.95
X6.Y-3.05
X6.Y-3.15
X6.Y-3.25
X6.Y-3.35
X6.Y-3.45
T0
M30
