G04 #@! TF.GenerationSoftware,KiCad,Pcbnew,(5.0.0)*
G04 #@! TF.CreationDate,2019-09-22T13:40:32+01:00*
G04 #@! TF.ProjectId,Displayv2,446973706C617976322E6B696361645F,rev?*
G04 #@! TF.SameCoordinates,Original*
G04 #@! TF.FileFunction,Legend,Bot*
G04 #@! TF.FilePolarity,Positive*
%FSLAX46Y46*%
G04 Gerber Fmt 4.6, Leading zero omitted, Abs format (unit mm)*
G04 Created by KiCad (PCBNEW (5.0.0)) date 09/22/19 13:40:32*
%MOMM*%
%LPD*%
G01*
G04 APERTURE LIST*
%ADD10C,0.300000*%
G04 APERTURE END LIST*
D10*
X164769285Y-102178571D02*
X164769285Y-103250000D01*
X164840714Y-103464285D01*
X164983571Y-103607142D01*
X165197857Y-103678571D01*
X165340714Y-103678571D01*
X163269285Y-103678571D02*
X164126428Y-103678571D01*
X163697857Y-103678571D02*
X163697857Y-102178571D01*
X163840714Y-102392857D01*
X163983571Y-102535714D01*
X164126428Y-102607142D01*
X161983571Y-102678571D02*
X161983571Y-103678571D01*
X162340714Y-102107142D02*
X162697857Y-103178571D01*
X161769285Y-103178571D01*
X149769285Y-102178571D02*
X149769285Y-103250000D01*
X149840714Y-103464285D01*
X149983571Y-103607142D01*
X150197857Y-103678571D01*
X150340714Y-103678571D01*
X148269285Y-103678571D02*
X149126428Y-103678571D01*
X148697857Y-103678571D02*
X148697857Y-102178571D01*
X148840714Y-102392857D01*
X148983571Y-102535714D01*
X149126428Y-102607142D01*
X146912142Y-102178571D02*
X147626428Y-102178571D01*
X147697857Y-102892857D01*
X147626428Y-102821428D01*
X147483571Y-102750000D01*
X147126428Y-102750000D01*
X146983571Y-102821428D01*
X146912142Y-102892857D01*
X146840714Y-103035714D01*
X146840714Y-103392857D01*
X146912142Y-103535714D01*
X146983571Y-103607142D01*
X147126428Y-103678571D01*
X147483571Y-103678571D01*
X147626428Y-103607142D01*
X147697857Y-103535714D01*
X135019285Y-102178571D02*
X135019285Y-103250000D01*
X135090714Y-103464285D01*
X135233571Y-103607142D01*
X135447857Y-103678571D01*
X135590714Y-103678571D01*
X133519285Y-103678571D02*
X134376428Y-103678571D01*
X133947857Y-103678571D02*
X133947857Y-102178571D01*
X134090714Y-102392857D01*
X134233571Y-102535714D01*
X134376428Y-102607142D01*
X132233571Y-102178571D02*
X132519285Y-102178571D01*
X132662142Y-102250000D01*
X132733571Y-102321428D01*
X132876428Y-102535714D01*
X132947857Y-102821428D01*
X132947857Y-103392857D01*
X132876428Y-103535714D01*
X132805000Y-103607142D01*
X132662142Y-103678571D01*
X132376428Y-103678571D01*
X132233571Y-103607142D01*
X132162142Y-103535714D01*
X132090714Y-103392857D01*
X132090714Y-103035714D01*
X132162142Y-102892857D01*
X132233571Y-102821428D01*
X132376428Y-102750000D01*
X132662142Y-102750000D01*
X132805000Y-102821428D01*
X132876428Y-102892857D01*
X132947857Y-103035714D01*
X179769285Y-102178571D02*
X179769285Y-103250000D01*
X179840714Y-103464285D01*
X179983571Y-103607142D01*
X180197857Y-103678571D01*
X180340714Y-103678571D01*
X178269285Y-103678571D02*
X179126428Y-103678571D01*
X178697857Y-103678571D02*
X178697857Y-102178571D01*
X178840714Y-102392857D01*
X178983571Y-102535714D01*
X179126428Y-102607142D01*
X177769285Y-102178571D02*
X176840714Y-102178571D01*
X177340714Y-102750000D01*
X177126428Y-102750000D01*
X176983571Y-102821428D01*
X176912142Y-102892857D01*
X176840714Y-103035714D01*
X176840714Y-103392857D01*
X176912142Y-103535714D01*
X176983571Y-103607142D01*
X177126428Y-103678571D01*
X177555000Y-103678571D01*
X177697857Y-103607142D01*
X177769285Y-103535714D01*
X194769285Y-102178571D02*
X194769285Y-103250000D01*
X194840714Y-103464285D01*
X194983571Y-103607142D01*
X195197857Y-103678571D01*
X195340714Y-103678571D01*
X193269285Y-103678571D02*
X194126428Y-103678571D01*
X193697857Y-103678571D02*
X193697857Y-102178571D01*
X193840714Y-102392857D01*
X193983571Y-102535714D01*
X194126428Y-102607142D01*
X192697857Y-102321428D02*
X192626428Y-102250000D01*
X192483571Y-102178571D01*
X192126428Y-102178571D01*
X191983571Y-102250000D01*
X191912142Y-102321428D01*
X191840714Y-102464285D01*
X191840714Y-102607142D01*
X191912142Y-102821428D01*
X192769285Y-103678571D01*
X191840714Y-103678571D01*
X209769285Y-102178571D02*
X209769285Y-103250000D01*
X209840714Y-103464285D01*
X209983571Y-103607142D01*
X210197857Y-103678571D01*
X210340714Y-103678571D01*
X208269285Y-103678571D02*
X209126428Y-103678571D01*
X208697857Y-103678571D02*
X208697857Y-102178571D01*
X208840714Y-102392857D01*
X208983571Y-102535714D01*
X209126428Y-102607142D01*
X206840714Y-103678571D02*
X207697857Y-103678571D01*
X207269285Y-103678571D02*
X207269285Y-102178571D01*
X207412142Y-102392857D01*
X207555000Y-102535714D01*
X207697857Y-102607142D01*
X224769285Y-102178571D02*
X224769285Y-103250000D01*
X224840714Y-103464285D01*
X224983571Y-103607142D01*
X225197857Y-103678571D01*
X225340714Y-103678571D01*
X223269285Y-103678571D02*
X224126428Y-103678571D01*
X223697857Y-103678571D02*
X223697857Y-102178571D01*
X223840714Y-102392857D01*
X223983571Y-102535714D01*
X224126428Y-102607142D01*
X222340714Y-102178571D02*
X222197857Y-102178571D01*
X222055000Y-102250000D01*
X221983571Y-102321428D01*
X221912142Y-102464285D01*
X221840714Y-102750000D01*
X221840714Y-103107142D01*
X221912142Y-103392857D01*
X221983571Y-103535714D01*
X222055000Y-103607142D01*
X222197857Y-103678571D01*
X222340714Y-103678571D01*
X222483571Y-103607142D01*
X222555000Y-103535714D01*
X222626428Y-103392857D01*
X222697857Y-103107142D01*
X222697857Y-102750000D01*
X222626428Y-102464285D01*
X222555000Y-102321428D01*
X222483571Y-102250000D01*
X222340714Y-102178571D01*
X239769285Y-102178571D02*
X239769285Y-103250000D01*
X239840714Y-103464285D01*
X239983571Y-103607142D01*
X240197857Y-103678571D01*
X240340714Y-103678571D01*
X238983571Y-103678571D02*
X238697857Y-103678571D01*
X238555000Y-103607142D01*
X238483571Y-103535714D01*
X238340714Y-103321428D01*
X238269285Y-103035714D01*
X238269285Y-102464285D01*
X238340714Y-102321428D01*
X238412142Y-102250000D01*
X238555000Y-102178571D01*
X238840714Y-102178571D01*
X238983571Y-102250000D01*
X239055000Y-102321428D01*
X239126428Y-102464285D01*
X239126428Y-102821428D01*
X239055000Y-102964285D01*
X238983571Y-103035714D01*
X238840714Y-103107142D01*
X238555000Y-103107142D01*
X238412142Y-103035714D01*
X238340714Y-102964285D01*
X238269285Y-102821428D01*
X254769285Y-102178571D02*
X254769285Y-103250000D01*
X254840714Y-103464285D01*
X254983571Y-103607142D01*
X255197857Y-103678571D01*
X255340714Y-103678571D01*
X253840714Y-102821428D02*
X253983571Y-102750000D01*
X254055000Y-102678571D01*
X254126428Y-102535714D01*
X254126428Y-102464285D01*
X254055000Y-102321428D01*
X253983571Y-102250000D01*
X253840714Y-102178571D01*
X253555000Y-102178571D01*
X253412142Y-102250000D01*
X253340714Y-102321428D01*
X253269285Y-102464285D01*
X253269285Y-102535714D01*
X253340714Y-102678571D01*
X253412142Y-102750000D01*
X253555000Y-102821428D01*
X253840714Y-102821428D01*
X253983571Y-102892857D01*
X254055000Y-102964285D01*
X254126428Y-103107142D01*
X254126428Y-103392857D01*
X254055000Y-103535714D01*
X253983571Y-103607142D01*
X253840714Y-103678571D01*
X253555000Y-103678571D01*
X253412142Y-103607142D01*
X253340714Y-103535714D01*
X253269285Y-103392857D01*
X253269285Y-103107142D01*
X253340714Y-102964285D01*
X253412142Y-102892857D01*
X253555000Y-102821428D01*
X269769285Y-102178571D02*
X269769285Y-103250000D01*
X269840714Y-103464285D01*
X269983571Y-103607142D01*
X270197857Y-103678571D01*
X270340714Y-103678571D01*
X269197857Y-102178571D02*
X268197857Y-102178571D01*
X268840714Y-103678571D01*
X284769285Y-102178571D02*
X284769285Y-103250000D01*
X284840714Y-103464285D01*
X284983571Y-103607142D01*
X285197857Y-103678571D01*
X285340714Y-103678571D01*
X283412142Y-102178571D02*
X283697857Y-102178571D01*
X283840714Y-102250000D01*
X283912142Y-102321428D01*
X284055000Y-102535714D01*
X284126428Y-102821428D01*
X284126428Y-103392857D01*
X284055000Y-103535714D01*
X283983571Y-103607142D01*
X283840714Y-103678571D01*
X283555000Y-103678571D01*
X283412142Y-103607142D01*
X283340714Y-103535714D01*
X283269285Y-103392857D01*
X283269285Y-103035714D01*
X283340714Y-102892857D01*
X283412142Y-102821428D01*
X283555000Y-102750000D01*
X283840714Y-102750000D01*
X283983571Y-102821428D01*
X284055000Y-102892857D01*
X284126428Y-103035714D01*
X299269285Y-102178571D02*
X299269285Y-103250000D01*
X299340714Y-103464285D01*
X299483571Y-103607142D01*
X299697857Y-103678571D01*
X299840714Y-103678571D01*
X297840714Y-102178571D02*
X298555000Y-102178571D01*
X298626428Y-102892857D01*
X298555000Y-102821428D01*
X298412142Y-102750000D01*
X298055000Y-102750000D01*
X297912142Y-102821428D01*
X297840714Y-102892857D01*
X297769285Y-103035714D01*
X297769285Y-103392857D01*
X297840714Y-103535714D01*
X297912142Y-103607142D01*
X298055000Y-103678571D01*
X298412142Y-103678571D01*
X298555000Y-103607142D01*
X298626428Y-103535714D01*
X315019285Y-102178571D02*
X315019285Y-103250000D01*
X315090714Y-103464285D01*
X315233571Y-103607142D01*
X315447857Y-103678571D01*
X315590714Y-103678571D01*
X313662142Y-102678571D02*
X313662142Y-103678571D01*
X314019285Y-102107142D02*
X314376428Y-103178571D01*
X313447857Y-103178571D01*
X329769285Y-102178571D02*
X329769285Y-103250000D01*
X329840714Y-103464285D01*
X329983571Y-103607142D01*
X330197857Y-103678571D01*
X330340714Y-103678571D01*
X329197857Y-102178571D02*
X328269285Y-102178571D01*
X328769285Y-102750000D01*
X328555000Y-102750000D01*
X328412142Y-102821428D01*
X328340714Y-102892857D01*
X328269285Y-103035714D01*
X328269285Y-103392857D01*
X328340714Y-103535714D01*
X328412142Y-103607142D01*
X328555000Y-103678571D01*
X328983571Y-103678571D01*
X329126428Y-103607142D01*
X329197857Y-103535714D01*
X344769285Y-102178571D02*
X344769285Y-103250000D01*
X344840714Y-103464285D01*
X344983571Y-103607142D01*
X345197857Y-103678571D01*
X345340714Y-103678571D01*
X344126428Y-102321428D02*
X344055000Y-102250000D01*
X343912142Y-102178571D01*
X343555000Y-102178571D01*
X343412142Y-102250000D01*
X343340714Y-102321428D01*
X343269285Y-102464285D01*
X343269285Y-102607142D01*
X343340714Y-102821428D01*
X344197857Y-103678571D01*
X343269285Y-103678571D01*
X195197857Y-89678571D02*
X195197857Y-88178571D01*
X194697857Y-89250000D01*
X194197857Y-88178571D01*
X194197857Y-89678571D01*
X192697857Y-89678571D02*
X193555000Y-89678571D01*
X193126428Y-89678571D02*
X193126428Y-88178571D01*
X193269285Y-88392857D01*
X193412142Y-88535714D01*
X193555000Y-88607142D01*
X192126428Y-88321428D02*
X192055000Y-88250000D01*
X191912142Y-88178571D01*
X191555000Y-88178571D01*
X191412142Y-88250000D01*
X191340714Y-88321428D01*
X191269285Y-88464285D01*
X191269285Y-88607142D01*
X191340714Y-88821428D01*
X192197857Y-89678571D01*
X191269285Y-89678571D01*
X180197857Y-89678571D02*
X180197857Y-88178571D01*
X179697857Y-89250000D01*
X179197857Y-88178571D01*
X179197857Y-89678571D01*
X177697857Y-89678571D02*
X178555000Y-89678571D01*
X178126428Y-89678571D02*
X178126428Y-88178571D01*
X178269285Y-88392857D01*
X178412142Y-88535714D01*
X178555000Y-88607142D01*
X177197857Y-88178571D02*
X176269285Y-88178571D01*
X176769285Y-88750000D01*
X176555000Y-88750000D01*
X176412142Y-88821428D01*
X176340714Y-88892857D01*
X176269285Y-89035714D01*
X176269285Y-89392857D01*
X176340714Y-89535714D01*
X176412142Y-89607142D01*
X176555000Y-89678571D01*
X176983571Y-89678571D01*
X177126428Y-89607142D01*
X177197857Y-89535714D01*
X165197857Y-89678571D02*
X165197857Y-88178571D01*
X164697857Y-89250000D01*
X164197857Y-88178571D01*
X164197857Y-89678571D01*
X162697857Y-89678571D02*
X163555000Y-89678571D01*
X163126428Y-89678571D02*
X163126428Y-88178571D01*
X163269285Y-88392857D01*
X163412142Y-88535714D01*
X163555000Y-88607142D01*
X161412142Y-88678571D02*
X161412142Y-89678571D01*
X161769285Y-88107142D02*
X162126428Y-89178571D01*
X161197857Y-89178571D01*
X150197857Y-89678571D02*
X150197857Y-88178571D01*
X149697857Y-89250000D01*
X149197857Y-88178571D01*
X149197857Y-89678571D01*
X147697857Y-89678571D02*
X148555000Y-89678571D01*
X148126428Y-89678571D02*
X148126428Y-88178571D01*
X148269285Y-88392857D01*
X148412142Y-88535714D01*
X148555000Y-88607142D01*
X146340714Y-88178571D02*
X147055000Y-88178571D01*
X147126428Y-88892857D01*
X147055000Y-88821428D01*
X146912142Y-88750000D01*
X146555000Y-88750000D01*
X146412142Y-88821428D01*
X146340714Y-88892857D01*
X146269285Y-89035714D01*
X146269285Y-89392857D01*
X146340714Y-89535714D01*
X146412142Y-89607142D01*
X146555000Y-89678571D01*
X146912142Y-89678571D01*
X147055000Y-89607142D01*
X147126428Y-89535714D01*
X135197857Y-89678571D02*
X135197857Y-88178571D01*
X134697857Y-89250000D01*
X134197857Y-88178571D01*
X134197857Y-89678571D01*
X132697857Y-89678571D02*
X133555000Y-89678571D01*
X133126428Y-89678571D02*
X133126428Y-88178571D01*
X133269285Y-88392857D01*
X133412142Y-88535714D01*
X133555000Y-88607142D01*
X131412142Y-88178571D02*
X131697857Y-88178571D01*
X131840714Y-88250000D01*
X131912142Y-88321428D01*
X132055000Y-88535714D01*
X132126428Y-88821428D01*
X132126428Y-89392857D01*
X132055000Y-89535714D01*
X131983571Y-89607142D01*
X131840714Y-89678571D01*
X131555000Y-89678571D01*
X131412142Y-89607142D01*
X131340714Y-89535714D01*
X131269285Y-89392857D01*
X131269285Y-89035714D01*
X131340714Y-88892857D01*
X131412142Y-88821428D01*
X131555000Y-88750000D01*
X131840714Y-88750000D01*
X131983571Y-88821428D01*
X132055000Y-88892857D01*
X132126428Y-89035714D01*
X119947857Y-89678571D02*
X119947857Y-88178571D01*
X119447857Y-89250000D01*
X118947857Y-88178571D01*
X118947857Y-89678571D01*
X117447857Y-89678571D02*
X118305000Y-89678571D01*
X117876428Y-89678571D02*
X117876428Y-88178571D01*
X118019285Y-88392857D01*
X118162142Y-88535714D01*
X118305000Y-88607142D01*
X116947857Y-88178571D02*
X115947857Y-88178571D01*
X116590714Y-89678571D01*
X104697857Y-89678571D02*
X104697857Y-88178571D01*
X104197857Y-89250000D01*
X103697857Y-88178571D01*
X103697857Y-89678571D01*
X102197857Y-89678571D02*
X103055000Y-89678571D01*
X102626428Y-89678571D02*
X102626428Y-88178571D01*
X102769285Y-88392857D01*
X102912142Y-88535714D01*
X103055000Y-88607142D01*
X101340714Y-88821428D02*
X101483571Y-88750000D01*
X101555000Y-88678571D01*
X101626428Y-88535714D01*
X101626428Y-88464285D01*
X101555000Y-88321428D01*
X101483571Y-88250000D01*
X101340714Y-88178571D01*
X101055000Y-88178571D01*
X100912142Y-88250000D01*
X100840714Y-88321428D01*
X100769285Y-88464285D01*
X100769285Y-88535714D01*
X100840714Y-88678571D01*
X100912142Y-88750000D01*
X101055000Y-88821428D01*
X101340714Y-88821428D01*
X101483571Y-88892857D01*
X101555000Y-88964285D01*
X101626428Y-89107142D01*
X101626428Y-89392857D01*
X101555000Y-89535714D01*
X101483571Y-89607142D01*
X101340714Y-89678571D01*
X101055000Y-89678571D01*
X100912142Y-89607142D01*
X100840714Y-89535714D01*
X100769285Y-89392857D01*
X100769285Y-89107142D01*
X100840714Y-88964285D01*
X100912142Y-88892857D01*
X101055000Y-88821428D01*
X209947857Y-89678571D02*
X209947857Y-88178571D01*
X209447857Y-89250000D01*
X208947857Y-88178571D01*
X208947857Y-89678571D01*
X207447857Y-89678571D02*
X208305000Y-89678571D01*
X207876428Y-89678571D02*
X207876428Y-88178571D01*
X208019285Y-88392857D01*
X208162142Y-88535714D01*
X208305000Y-88607142D01*
X206019285Y-89678571D02*
X206876428Y-89678571D01*
X206447857Y-89678571D02*
X206447857Y-88178571D01*
X206590714Y-88392857D01*
X206733571Y-88535714D01*
X206876428Y-88607142D01*
X225197857Y-89678571D02*
X225197857Y-88178571D01*
X224697857Y-89250000D01*
X224197857Y-88178571D01*
X224197857Y-89678571D01*
X222697857Y-89678571D02*
X223555000Y-89678571D01*
X223126428Y-89678571D02*
X223126428Y-88178571D01*
X223269285Y-88392857D01*
X223412142Y-88535714D01*
X223555000Y-88607142D01*
X221769285Y-88178571D02*
X221626428Y-88178571D01*
X221483571Y-88250000D01*
X221412142Y-88321428D01*
X221340714Y-88464285D01*
X221269285Y-88750000D01*
X221269285Y-89107142D01*
X221340714Y-89392857D01*
X221412142Y-89535714D01*
X221483571Y-89607142D01*
X221626428Y-89678571D01*
X221769285Y-89678571D01*
X221912142Y-89607142D01*
X221983571Y-89535714D01*
X222055000Y-89392857D01*
X222126428Y-89107142D01*
X222126428Y-88750000D01*
X222055000Y-88464285D01*
X221983571Y-88321428D01*
X221912142Y-88250000D01*
X221769285Y-88178571D01*
X239947857Y-89678571D02*
X239947857Y-88178571D01*
X239447857Y-89250000D01*
X238947857Y-88178571D01*
X238947857Y-89678571D01*
X238162142Y-89678571D02*
X237876428Y-89678571D01*
X237733571Y-89607142D01*
X237662142Y-89535714D01*
X237519285Y-89321428D01*
X237447857Y-89035714D01*
X237447857Y-88464285D01*
X237519285Y-88321428D01*
X237590714Y-88250000D01*
X237733571Y-88178571D01*
X238019285Y-88178571D01*
X238162142Y-88250000D01*
X238233571Y-88321428D01*
X238305000Y-88464285D01*
X238305000Y-88821428D01*
X238233571Y-88964285D01*
X238162142Y-89035714D01*
X238019285Y-89107142D01*
X237733571Y-89107142D01*
X237590714Y-89035714D01*
X237519285Y-88964285D01*
X237447857Y-88821428D01*
X255447857Y-89678571D02*
X255447857Y-88178571D01*
X254947857Y-89250000D01*
X254447857Y-88178571D01*
X254447857Y-89678571D01*
X253519285Y-88821428D02*
X253662142Y-88750000D01*
X253733571Y-88678571D01*
X253805000Y-88535714D01*
X253805000Y-88464285D01*
X253733571Y-88321428D01*
X253662142Y-88250000D01*
X253519285Y-88178571D01*
X253233571Y-88178571D01*
X253090714Y-88250000D01*
X253019285Y-88321428D01*
X252947857Y-88464285D01*
X252947857Y-88535714D01*
X253019285Y-88678571D01*
X253090714Y-88750000D01*
X253233571Y-88821428D01*
X253519285Y-88821428D01*
X253662142Y-88892857D01*
X253733571Y-88964285D01*
X253805000Y-89107142D01*
X253805000Y-89392857D01*
X253733571Y-89535714D01*
X253662142Y-89607142D01*
X253519285Y-89678571D01*
X253233571Y-89678571D01*
X253090714Y-89607142D01*
X253019285Y-89535714D01*
X252947857Y-89392857D01*
X252947857Y-89107142D01*
X253019285Y-88964285D01*
X253090714Y-88892857D01*
X253233571Y-88821428D01*
X270197857Y-89678571D02*
X270197857Y-88178571D01*
X269697857Y-89250000D01*
X269197857Y-88178571D01*
X269197857Y-89678571D01*
X268626428Y-88178571D02*
X267626428Y-88178571D01*
X268269285Y-89678571D01*
X285197857Y-89678571D02*
X285197857Y-88178571D01*
X284697857Y-89250000D01*
X284197857Y-88178571D01*
X284197857Y-89678571D01*
X282840714Y-88178571D02*
X283126428Y-88178571D01*
X283269285Y-88250000D01*
X283340714Y-88321428D01*
X283483571Y-88535714D01*
X283555000Y-88821428D01*
X283555000Y-89392857D01*
X283483571Y-89535714D01*
X283412142Y-89607142D01*
X283269285Y-89678571D01*
X282983571Y-89678571D01*
X282840714Y-89607142D01*
X282769285Y-89535714D01*
X282697857Y-89392857D01*
X282697857Y-89035714D01*
X282769285Y-88892857D01*
X282840714Y-88821428D01*
X282983571Y-88750000D01*
X283269285Y-88750000D01*
X283412142Y-88821428D01*
X283483571Y-88892857D01*
X283555000Y-89035714D01*
X299947857Y-89678571D02*
X299947857Y-88178571D01*
X299447857Y-89250000D01*
X298947857Y-88178571D01*
X298947857Y-89678571D01*
X297519285Y-88178571D02*
X298233571Y-88178571D01*
X298305000Y-88892857D01*
X298233571Y-88821428D01*
X298090714Y-88750000D01*
X297733571Y-88750000D01*
X297590714Y-88821428D01*
X297519285Y-88892857D01*
X297447857Y-89035714D01*
X297447857Y-89392857D01*
X297519285Y-89535714D01*
X297590714Y-89607142D01*
X297733571Y-89678571D01*
X298090714Y-89678571D01*
X298233571Y-89607142D01*
X298305000Y-89535714D01*
X314947857Y-89678571D02*
X314947857Y-88178571D01*
X314447857Y-89250000D01*
X313947857Y-88178571D01*
X313947857Y-89678571D01*
X312590714Y-88678571D02*
X312590714Y-89678571D01*
X312947857Y-88107142D02*
X313305000Y-89178571D01*
X312376428Y-89178571D01*
X329947857Y-89678571D02*
X329947857Y-88178571D01*
X329447857Y-89250000D01*
X328947857Y-88178571D01*
X328947857Y-89678571D01*
X328376428Y-88178571D02*
X327447857Y-88178571D01*
X327947857Y-88750000D01*
X327733571Y-88750000D01*
X327590714Y-88821428D01*
X327519285Y-88892857D01*
X327447857Y-89035714D01*
X327447857Y-89392857D01*
X327519285Y-89535714D01*
X327590714Y-89607142D01*
X327733571Y-89678571D01*
X328162142Y-89678571D01*
X328305000Y-89607142D01*
X328376428Y-89535714D01*
X344947857Y-89678571D02*
X344947857Y-88178571D01*
X344447857Y-89250000D01*
X343947857Y-88178571D01*
X343947857Y-89678571D01*
X343305000Y-88321428D02*
X343233571Y-88250000D01*
X343090714Y-88178571D01*
X342733571Y-88178571D01*
X342590714Y-88250000D01*
X342519285Y-88321428D01*
X342447857Y-88464285D01*
X342447857Y-88607142D01*
X342519285Y-88821428D01*
X343376428Y-89678571D01*
X342447857Y-89678571D01*
X104162142Y-74250000D02*
X104305000Y-74178571D01*
X104519285Y-74178571D01*
X104733571Y-74250000D01*
X104876428Y-74392857D01*
X104947857Y-74535714D01*
X105019285Y-74821428D01*
X105019285Y-75035714D01*
X104947857Y-75321428D01*
X104876428Y-75464285D01*
X104733571Y-75607142D01*
X104519285Y-75678571D01*
X104376428Y-75678571D01*
X104162142Y-75607142D01*
X104090714Y-75535714D01*
X104090714Y-75035714D01*
X104376428Y-75035714D01*
X102662142Y-75678571D02*
X103519285Y-75678571D01*
X103090714Y-75678571D02*
X103090714Y-74178571D01*
X103233571Y-74392857D01*
X103376428Y-74535714D01*
X103519285Y-74607142D01*
X101805000Y-74821428D02*
X101947857Y-74750000D01*
X102019285Y-74678571D01*
X102090714Y-74535714D01*
X102090714Y-74464285D01*
X102019285Y-74321428D01*
X101947857Y-74250000D01*
X101805000Y-74178571D01*
X101519285Y-74178571D01*
X101376428Y-74250000D01*
X101305000Y-74321428D01*
X101233571Y-74464285D01*
X101233571Y-74535714D01*
X101305000Y-74678571D01*
X101376428Y-74750000D01*
X101519285Y-74821428D01*
X101805000Y-74821428D01*
X101947857Y-74892857D01*
X102019285Y-74964285D01*
X102090714Y-75107142D01*
X102090714Y-75392857D01*
X102019285Y-75535714D01*
X101947857Y-75607142D01*
X101805000Y-75678571D01*
X101519285Y-75678571D01*
X101376428Y-75607142D01*
X101305000Y-75535714D01*
X101233571Y-75392857D01*
X101233571Y-75107142D01*
X101305000Y-74964285D01*
X101376428Y-74892857D01*
X101519285Y-74821428D01*
X119662142Y-74250000D02*
X119805000Y-74178571D01*
X120019285Y-74178571D01*
X120233571Y-74250000D01*
X120376428Y-74392857D01*
X120447857Y-74535714D01*
X120519285Y-74821428D01*
X120519285Y-75035714D01*
X120447857Y-75321428D01*
X120376428Y-75464285D01*
X120233571Y-75607142D01*
X120019285Y-75678571D01*
X119876428Y-75678571D01*
X119662142Y-75607142D01*
X119590714Y-75535714D01*
X119590714Y-75035714D01*
X119876428Y-75035714D01*
X118162142Y-75678571D02*
X119019285Y-75678571D01*
X118590714Y-75678571D02*
X118590714Y-74178571D01*
X118733571Y-74392857D01*
X118876428Y-74535714D01*
X119019285Y-74607142D01*
X117662142Y-74178571D02*
X116662142Y-74178571D01*
X117305000Y-75678571D01*
X134412142Y-74250000D02*
X134555000Y-74178571D01*
X134769285Y-74178571D01*
X134983571Y-74250000D01*
X135126428Y-74392857D01*
X135197857Y-74535714D01*
X135269285Y-74821428D01*
X135269285Y-75035714D01*
X135197857Y-75321428D01*
X135126428Y-75464285D01*
X134983571Y-75607142D01*
X134769285Y-75678571D01*
X134626428Y-75678571D01*
X134412142Y-75607142D01*
X134340714Y-75535714D01*
X134340714Y-75035714D01*
X134626428Y-75035714D01*
X132912142Y-75678571D02*
X133769285Y-75678571D01*
X133340714Y-75678571D02*
X133340714Y-74178571D01*
X133483571Y-74392857D01*
X133626428Y-74535714D01*
X133769285Y-74607142D01*
X131626428Y-74178571D02*
X131912142Y-74178571D01*
X132055000Y-74250000D01*
X132126428Y-74321428D01*
X132269285Y-74535714D01*
X132340714Y-74821428D01*
X132340714Y-75392857D01*
X132269285Y-75535714D01*
X132197857Y-75607142D01*
X132055000Y-75678571D01*
X131769285Y-75678571D01*
X131626428Y-75607142D01*
X131555000Y-75535714D01*
X131483571Y-75392857D01*
X131483571Y-75035714D01*
X131555000Y-74892857D01*
X131626428Y-74821428D01*
X131769285Y-74750000D01*
X132055000Y-74750000D01*
X132197857Y-74821428D01*
X132269285Y-74892857D01*
X132340714Y-75035714D01*
X149662142Y-74250000D02*
X149805000Y-74178571D01*
X150019285Y-74178571D01*
X150233571Y-74250000D01*
X150376428Y-74392857D01*
X150447857Y-74535714D01*
X150519285Y-74821428D01*
X150519285Y-75035714D01*
X150447857Y-75321428D01*
X150376428Y-75464285D01*
X150233571Y-75607142D01*
X150019285Y-75678571D01*
X149876428Y-75678571D01*
X149662142Y-75607142D01*
X149590714Y-75535714D01*
X149590714Y-75035714D01*
X149876428Y-75035714D01*
X148162142Y-75678571D02*
X149019285Y-75678571D01*
X148590714Y-75678571D02*
X148590714Y-74178571D01*
X148733571Y-74392857D01*
X148876428Y-74535714D01*
X149019285Y-74607142D01*
X146805000Y-74178571D02*
X147519285Y-74178571D01*
X147590714Y-74892857D01*
X147519285Y-74821428D01*
X147376428Y-74750000D01*
X147019285Y-74750000D01*
X146876428Y-74821428D01*
X146805000Y-74892857D01*
X146733571Y-75035714D01*
X146733571Y-75392857D01*
X146805000Y-75535714D01*
X146876428Y-75607142D01*
X147019285Y-75678571D01*
X147376428Y-75678571D01*
X147519285Y-75607142D01*
X147590714Y-75535714D01*
X164662142Y-74250000D02*
X164805000Y-74178571D01*
X165019285Y-74178571D01*
X165233571Y-74250000D01*
X165376428Y-74392857D01*
X165447857Y-74535714D01*
X165519285Y-74821428D01*
X165519285Y-75035714D01*
X165447857Y-75321428D01*
X165376428Y-75464285D01*
X165233571Y-75607142D01*
X165019285Y-75678571D01*
X164876428Y-75678571D01*
X164662142Y-75607142D01*
X164590714Y-75535714D01*
X164590714Y-75035714D01*
X164876428Y-75035714D01*
X163162142Y-75678571D02*
X164019285Y-75678571D01*
X163590714Y-75678571D02*
X163590714Y-74178571D01*
X163733571Y-74392857D01*
X163876428Y-74535714D01*
X164019285Y-74607142D01*
X161876428Y-74678571D02*
X161876428Y-75678571D01*
X162233571Y-74107142D02*
X162590714Y-75178571D01*
X161662142Y-75178571D01*
X179162142Y-74250000D02*
X179305000Y-74178571D01*
X179519285Y-74178571D01*
X179733571Y-74250000D01*
X179876428Y-74392857D01*
X179947857Y-74535714D01*
X180019285Y-74821428D01*
X180019285Y-75035714D01*
X179947857Y-75321428D01*
X179876428Y-75464285D01*
X179733571Y-75607142D01*
X179519285Y-75678571D01*
X179376428Y-75678571D01*
X179162142Y-75607142D01*
X179090714Y-75535714D01*
X179090714Y-75035714D01*
X179376428Y-75035714D01*
X177662142Y-75678571D02*
X178519285Y-75678571D01*
X178090714Y-75678571D02*
X178090714Y-74178571D01*
X178233571Y-74392857D01*
X178376428Y-74535714D01*
X178519285Y-74607142D01*
X177162142Y-74178571D02*
X176233571Y-74178571D01*
X176733571Y-74750000D01*
X176519285Y-74750000D01*
X176376428Y-74821428D01*
X176305000Y-74892857D01*
X176233571Y-75035714D01*
X176233571Y-75392857D01*
X176305000Y-75535714D01*
X176376428Y-75607142D01*
X176519285Y-75678571D01*
X176947857Y-75678571D01*
X177090714Y-75607142D01*
X177162142Y-75535714D01*
X194412142Y-74250000D02*
X194555000Y-74178571D01*
X194769285Y-74178571D01*
X194983571Y-74250000D01*
X195126428Y-74392857D01*
X195197857Y-74535714D01*
X195269285Y-74821428D01*
X195269285Y-75035714D01*
X195197857Y-75321428D01*
X195126428Y-75464285D01*
X194983571Y-75607142D01*
X194769285Y-75678571D01*
X194626428Y-75678571D01*
X194412142Y-75607142D01*
X194340714Y-75535714D01*
X194340714Y-75035714D01*
X194626428Y-75035714D01*
X192912142Y-75678571D02*
X193769285Y-75678571D01*
X193340714Y-75678571D02*
X193340714Y-74178571D01*
X193483571Y-74392857D01*
X193626428Y-74535714D01*
X193769285Y-74607142D01*
X192340714Y-74321428D02*
X192269285Y-74250000D01*
X192126428Y-74178571D01*
X191769285Y-74178571D01*
X191626428Y-74250000D01*
X191555000Y-74321428D01*
X191483571Y-74464285D01*
X191483571Y-74607142D01*
X191555000Y-74821428D01*
X192412142Y-75678571D01*
X191483571Y-75678571D01*
X209412142Y-74250000D02*
X209555000Y-74178571D01*
X209769285Y-74178571D01*
X209983571Y-74250000D01*
X210126428Y-74392857D01*
X210197857Y-74535714D01*
X210269285Y-74821428D01*
X210269285Y-75035714D01*
X210197857Y-75321428D01*
X210126428Y-75464285D01*
X209983571Y-75607142D01*
X209769285Y-75678571D01*
X209626428Y-75678571D01*
X209412142Y-75607142D01*
X209340714Y-75535714D01*
X209340714Y-75035714D01*
X209626428Y-75035714D01*
X207912142Y-75678571D02*
X208769285Y-75678571D01*
X208340714Y-75678571D02*
X208340714Y-74178571D01*
X208483571Y-74392857D01*
X208626428Y-74535714D01*
X208769285Y-74607142D01*
X206483571Y-75678571D02*
X207340714Y-75678571D01*
X206912142Y-75678571D02*
X206912142Y-74178571D01*
X207055000Y-74392857D01*
X207197857Y-74535714D01*
X207340714Y-74607142D01*
X224412142Y-74250000D02*
X224555000Y-74178571D01*
X224769285Y-74178571D01*
X224983571Y-74250000D01*
X225126428Y-74392857D01*
X225197857Y-74535714D01*
X225269285Y-74821428D01*
X225269285Y-75035714D01*
X225197857Y-75321428D01*
X225126428Y-75464285D01*
X224983571Y-75607142D01*
X224769285Y-75678571D01*
X224626428Y-75678571D01*
X224412142Y-75607142D01*
X224340714Y-75535714D01*
X224340714Y-75035714D01*
X224626428Y-75035714D01*
X222912142Y-75678571D02*
X223769285Y-75678571D01*
X223340714Y-75678571D02*
X223340714Y-74178571D01*
X223483571Y-74392857D01*
X223626428Y-74535714D01*
X223769285Y-74607142D01*
X221983571Y-74178571D02*
X221840714Y-74178571D01*
X221697857Y-74250000D01*
X221626428Y-74321428D01*
X221555000Y-74464285D01*
X221483571Y-74750000D01*
X221483571Y-75107142D01*
X221555000Y-75392857D01*
X221626428Y-75535714D01*
X221697857Y-75607142D01*
X221840714Y-75678571D01*
X221983571Y-75678571D01*
X222126428Y-75607142D01*
X222197857Y-75535714D01*
X222269285Y-75392857D01*
X222340714Y-75107142D01*
X222340714Y-74750000D01*
X222269285Y-74464285D01*
X222197857Y-74321428D01*
X222126428Y-74250000D01*
X221983571Y-74178571D01*
X210447857Y-173678571D02*
X210447857Y-172178571D01*
X209876428Y-172178571D01*
X209733571Y-172250000D01*
X209662142Y-172321428D01*
X209590714Y-172464285D01*
X209590714Y-172678571D01*
X209662142Y-172821428D01*
X209733571Y-172892857D01*
X209876428Y-172964285D01*
X210447857Y-172964285D01*
X208162142Y-173678571D02*
X209019285Y-173678571D01*
X208590714Y-173678571D02*
X208590714Y-172178571D01*
X208733571Y-172392857D01*
X208876428Y-172535714D01*
X209019285Y-172607142D01*
X206733571Y-173678571D02*
X207590714Y-173678571D01*
X207162142Y-173678571D02*
X207162142Y-172178571D01*
X207305000Y-172392857D01*
X207447857Y-172535714D01*
X207590714Y-172607142D01*
X225197857Y-173678571D02*
X225197857Y-172178571D01*
X224626428Y-172178571D01*
X224483571Y-172250000D01*
X224412142Y-172321428D01*
X224340714Y-172464285D01*
X224340714Y-172678571D01*
X224412142Y-172821428D01*
X224483571Y-172892857D01*
X224626428Y-172964285D01*
X225197857Y-172964285D01*
X222912142Y-173678571D02*
X223769285Y-173678571D01*
X223340714Y-173678571D02*
X223340714Y-172178571D01*
X223483571Y-172392857D01*
X223626428Y-172535714D01*
X223769285Y-172607142D01*
X221983571Y-172178571D02*
X221840714Y-172178571D01*
X221697857Y-172250000D01*
X221626428Y-172321428D01*
X221555000Y-172464285D01*
X221483571Y-172750000D01*
X221483571Y-173107142D01*
X221555000Y-173392857D01*
X221626428Y-173535714D01*
X221697857Y-173607142D01*
X221840714Y-173678571D01*
X221983571Y-173678571D01*
X222126428Y-173607142D01*
X222197857Y-173535714D01*
X222269285Y-173392857D01*
X222340714Y-173107142D01*
X222340714Y-172750000D01*
X222269285Y-172464285D01*
X222197857Y-172321428D01*
X222126428Y-172250000D01*
X221983571Y-172178571D01*
X240197857Y-173678571D02*
X240197857Y-172178571D01*
X239626428Y-172178571D01*
X239483571Y-172250000D01*
X239412142Y-172321428D01*
X239340714Y-172464285D01*
X239340714Y-172678571D01*
X239412142Y-172821428D01*
X239483571Y-172892857D01*
X239626428Y-172964285D01*
X240197857Y-172964285D01*
X238626428Y-173678571D02*
X238340714Y-173678571D01*
X238197857Y-173607142D01*
X238126428Y-173535714D01*
X237983571Y-173321428D01*
X237912142Y-173035714D01*
X237912142Y-172464285D01*
X237983571Y-172321428D01*
X238055000Y-172250000D01*
X238197857Y-172178571D01*
X238483571Y-172178571D01*
X238626428Y-172250000D01*
X238697857Y-172321428D01*
X238769285Y-172464285D01*
X238769285Y-172821428D01*
X238697857Y-172964285D01*
X238626428Y-173035714D01*
X238483571Y-173107142D01*
X238197857Y-173107142D01*
X238055000Y-173035714D01*
X237983571Y-172964285D01*
X237912142Y-172821428D01*
X255197857Y-173678571D02*
X255197857Y-172178571D01*
X254626428Y-172178571D01*
X254483571Y-172250000D01*
X254412142Y-172321428D01*
X254340714Y-172464285D01*
X254340714Y-172678571D01*
X254412142Y-172821428D01*
X254483571Y-172892857D01*
X254626428Y-172964285D01*
X255197857Y-172964285D01*
X253483571Y-172821428D02*
X253626428Y-172750000D01*
X253697857Y-172678571D01*
X253769285Y-172535714D01*
X253769285Y-172464285D01*
X253697857Y-172321428D01*
X253626428Y-172250000D01*
X253483571Y-172178571D01*
X253197857Y-172178571D01*
X253055000Y-172250000D01*
X252983571Y-172321428D01*
X252912142Y-172464285D01*
X252912142Y-172535714D01*
X252983571Y-172678571D01*
X253055000Y-172750000D01*
X253197857Y-172821428D01*
X253483571Y-172821428D01*
X253626428Y-172892857D01*
X253697857Y-172964285D01*
X253769285Y-173107142D01*
X253769285Y-173392857D01*
X253697857Y-173535714D01*
X253626428Y-173607142D01*
X253483571Y-173678571D01*
X253197857Y-173678571D01*
X253055000Y-173607142D01*
X252983571Y-173535714D01*
X252912142Y-173392857D01*
X252912142Y-173107142D01*
X252983571Y-172964285D01*
X253055000Y-172892857D01*
X253197857Y-172821428D01*
X270447857Y-173678571D02*
X270447857Y-172178571D01*
X269876428Y-172178571D01*
X269733571Y-172250000D01*
X269662142Y-172321428D01*
X269590714Y-172464285D01*
X269590714Y-172678571D01*
X269662142Y-172821428D01*
X269733571Y-172892857D01*
X269876428Y-172964285D01*
X270447857Y-172964285D01*
X269090714Y-172178571D02*
X268090714Y-172178571D01*
X268733571Y-173678571D01*
X285197857Y-173678571D02*
X285197857Y-172178571D01*
X284626428Y-172178571D01*
X284483571Y-172250000D01*
X284412142Y-172321428D01*
X284340714Y-172464285D01*
X284340714Y-172678571D01*
X284412142Y-172821428D01*
X284483571Y-172892857D01*
X284626428Y-172964285D01*
X285197857Y-172964285D01*
X283055000Y-172178571D02*
X283340714Y-172178571D01*
X283483571Y-172250000D01*
X283555000Y-172321428D01*
X283697857Y-172535714D01*
X283769285Y-172821428D01*
X283769285Y-173392857D01*
X283697857Y-173535714D01*
X283626428Y-173607142D01*
X283483571Y-173678571D01*
X283197857Y-173678571D01*
X283055000Y-173607142D01*
X282983571Y-173535714D01*
X282912142Y-173392857D01*
X282912142Y-173035714D01*
X282983571Y-172892857D01*
X283055000Y-172821428D01*
X283197857Y-172750000D01*
X283483571Y-172750000D01*
X283626428Y-172821428D01*
X283697857Y-172892857D01*
X283769285Y-173035714D01*
X300197857Y-173678571D02*
X300197857Y-172178571D01*
X299626428Y-172178571D01*
X299483571Y-172250000D01*
X299412142Y-172321428D01*
X299340714Y-172464285D01*
X299340714Y-172678571D01*
X299412142Y-172821428D01*
X299483571Y-172892857D01*
X299626428Y-172964285D01*
X300197857Y-172964285D01*
X297983571Y-172178571D02*
X298697857Y-172178571D01*
X298769285Y-172892857D01*
X298697857Y-172821428D01*
X298555000Y-172750000D01*
X298197857Y-172750000D01*
X298055000Y-172821428D01*
X297983571Y-172892857D01*
X297912142Y-173035714D01*
X297912142Y-173392857D01*
X297983571Y-173535714D01*
X298055000Y-173607142D01*
X298197857Y-173678571D01*
X298555000Y-173678571D01*
X298697857Y-173607142D01*
X298769285Y-173535714D01*
X315447857Y-173678571D02*
X315447857Y-172178571D01*
X314876428Y-172178571D01*
X314733571Y-172250000D01*
X314662142Y-172321428D01*
X314590714Y-172464285D01*
X314590714Y-172678571D01*
X314662142Y-172821428D01*
X314733571Y-172892857D01*
X314876428Y-172964285D01*
X315447857Y-172964285D01*
X313305000Y-172678571D02*
X313305000Y-173678571D01*
X313662142Y-172107142D02*
X314019285Y-173178571D01*
X313090714Y-173178571D01*
X330447857Y-173678571D02*
X330447857Y-172178571D01*
X329876428Y-172178571D01*
X329733571Y-172250000D01*
X329662142Y-172321428D01*
X329590714Y-172464285D01*
X329590714Y-172678571D01*
X329662142Y-172821428D01*
X329733571Y-172892857D01*
X329876428Y-172964285D01*
X330447857Y-172964285D01*
X329090714Y-172178571D02*
X328162142Y-172178571D01*
X328662142Y-172750000D01*
X328447857Y-172750000D01*
X328305000Y-172821428D01*
X328233571Y-172892857D01*
X328162142Y-173035714D01*
X328162142Y-173392857D01*
X328233571Y-173535714D01*
X328305000Y-173607142D01*
X328447857Y-173678571D01*
X328876428Y-173678571D01*
X329019285Y-173607142D01*
X329090714Y-173535714D01*
X345197857Y-173678571D02*
X345197857Y-172178571D01*
X344626428Y-172178571D01*
X344483571Y-172250000D01*
X344412142Y-172321428D01*
X344340714Y-172464285D01*
X344340714Y-172678571D01*
X344412142Y-172821428D01*
X344483571Y-172892857D01*
X344626428Y-172964285D01*
X345197857Y-172964285D01*
X343769285Y-172321428D02*
X343697857Y-172250000D01*
X343555000Y-172178571D01*
X343197857Y-172178571D01*
X343055000Y-172250000D01*
X342983571Y-172321428D01*
X342912142Y-172464285D01*
X342912142Y-172607142D01*
X342983571Y-172821428D01*
X343840714Y-173678571D01*
X342912142Y-173678571D01*
X360197857Y-173678571D02*
X360197857Y-172178571D01*
X359626428Y-172178571D01*
X359483571Y-172250000D01*
X359412142Y-172321428D01*
X359340714Y-172464285D01*
X359340714Y-172678571D01*
X359412142Y-172821428D01*
X359483571Y-172892857D01*
X359626428Y-172964285D01*
X360197857Y-172964285D01*
X357912142Y-173678571D02*
X358769285Y-173678571D01*
X358340714Y-173678571D02*
X358340714Y-172178571D01*
X358483571Y-172392857D01*
X358626428Y-172535714D01*
X358769285Y-172607142D01*
X194947857Y-159678571D02*
X194947857Y-158178571D01*
X194376428Y-158178571D01*
X194233571Y-158250000D01*
X194162142Y-158321428D01*
X194090714Y-158464285D01*
X194090714Y-158678571D01*
X194162142Y-158821428D01*
X194233571Y-158892857D01*
X194376428Y-158964285D01*
X194947857Y-158964285D01*
X192590714Y-159535714D02*
X192662142Y-159607142D01*
X192876428Y-159678571D01*
X193019285Y-159678571D01*
X193233571Y-159607142D01*
X193376428Y-159464285D01*
X193447857Y-159321428D01*
X193519285Y-159035714D01*
X193519285Y-158821428D01*
X193447857Y-158535714D01*
X193376428Y-158392857D01*
X193233571Y-158250000D01*
X193019285Y-158178571D01*
X192876428Y-158178571D01*
X192662142Y-158250000D01*
X192590714Y-158321428D01*
X191162142Y-159678571D02*
X192019285Y-159678571D01*
X191590714Y-159678571D02*
X191590714Y-158178571D01*
X191733571Y-158392857D01*
X191876428Y-158535714D01*
X192019285Y-158607142D01*
X190590714Y-158321428D02*
X190519285Y-158250000D01*
X190376428Y-158178571D01*
X190019285Y-158178571D01*
X189876428Y-158250000D01*
X189805000Y-158321428D01*
X189733571Y-158464285D01*
X189733571Y-158607142D01*
X189805000Y-158821428D01*
X190662142Y-159678571D01*
X189733571Y-159678571D01*
X210197857Y-159678571D02*
X210197857Y-158178571D01*
X209626428Y-158178571D01*
X209483571Y-158250000D01*
X209412142Y-158321428D01*
X209340714Y-158464285D01*
X209340714Y-158678571D01*
X209412142Y-158821428D01*
X209483571Y-158892857D01*
X209626428Y-158964285D01*
X210197857Y-158964285D01*
X207840714Y-159535714D02*
X207912142Y-159607142D01*
X208126428Y-159678571D01*
X208269285Y-159678571D01*
X208483571Y-159607142D01*
X208626428Y-159464285D01*
X208697857Y-159321428D01*
X208769285Y-159035714D01*
X208769285Y-158821428D01*
X208697857Y-158535714D01*
X208626428Y-158392857D01*
X208483571Y-158250000D01*
X208269285Y-158178571D01*
X208126428Y-158178571D01*
X207912142Y-158250000D01*
X207840714Y-158321428D01*
X206412142Y-159678571D02*
X207269285Y-159678571D01*
X206840714Y-159678571D02*
X206840714Y-158178571D01*
X206983571Y-158392857D01*
X207126428Y-158535714D01*
X207269285Y-158607142D01*
X204983571Y-159678571D02*
X205840714Y-159678571D01*
X205412142Y-159678571D02*
X205412142Y-158178571D01*
X205555000Y-158392857D01*
X205697857Y-158535714D01*
X205840714Y-158607142D01*
X225447857Y-159678571D02*
X225447857Y-158178571D01*
X224876428Y-158178571D01*
X224733571Y-158250000D01*
X224662142Y-158321428D01*
X224590714Y-158464285D01*
X224590714Y-158678571D01*
X224662142Y-158821428D01*
X224733571Y-158892857D01*
X224876428Y-158964285D01*
X225447857Y-158964285D01*
X223090714Y-159535714D02*
X223162142Y-159607142D01*
X223376428Y-159678571D01*
X223519285Y-159678571D01*
X223733571Y-159607142D01*
X223876428Y-159464285D01*
X223947857Y-159321428D01*
X224019285Y-159035714D01*
X224019285Y-158821428D01*
X223947857Y-158535714D01*
X223876428Y-158392857D01*
X223733571Y-158250000D01*
X223519285Y-158178571D01*
X223376428Y-158178571D01*
X223162142Y-158250000D01*
X223090714Y-158321428D01*
X221662142Y-159678571D02*
X222519285Y-159678571D01*
X222090714Y-159678571D02*
X222090714Y-158178571D01*
X222233571Y-158392857D01*
X222376428Y-158535714D01*
X222519285Y-158607142D01*
X220733571Y-158178571D02*
X220590714Y-158178571D01*
X220447857Y-158250000D01*
X220376428Y-158321428D01*
X220305000Y-158464285D01*
X220233571Y-158750000D01*
X220233571Y-159107142D01*
X220305000Y-159392857D01*
X220376428Y-159535714D01*
X220447857Y-159607142D01*
X220590714Y-159678571D01*
X220733571Y-159678571D01*
X220876428Y-159607142D01*
X220947857Y-159535714D01*
X221019285Y-159392857D01*
X221090714Y-159107142D01*
X221090714Y-158750000D01*
X221019285Y-158464285D01*
X220947857Y-158321428D01*
X220876428Y-158250000D01*
X220733571Y-158178571D01*
X240197857Y-159678571D02*
X240197857Y-158178571D01*
X239626428Y-158178571D01*
X239483571Y-158250000D01*
X239412142Y-158321428D01*
X239340714Y-158464285D01*
X239340714Y-158678571D01*
X239412142Y-158821428D01*
X239483571Y-158892857D01*
X239626428Y-158964285D01*
X240197857Y-158964285D01*
X237840714Y-159535714D02*
X237912142Y-159607142D01*
X238126428Y-159678571D01*
X238269285Y-159678571D01*
X238483571Y-159607142D01*
X238626428Y-159464285D01*
X238697857Y-159321428D01*
X238769285Y-159035714D01*
X238769285Y-158821428D01*
X238697857Y-158535714D01*
X238626428Y-158392857D01*
X238483571Y-158250000D01*
X238269285Y-158178571D01*
X238126428Y-158178571D01*
X237912142Y-158250000D01*
X237840714Y-158321428D01*
X237126428Y-159678571D02*
X236840714Y-159678571D01*
X236697857Y-159607142D01*
X236626428Y-159535714D01*
X236483571Y-159321428D01*
X236412142Y-159035714D01*
X236412142Y-158464285D01*
X236483571Y-158321428D01*
X236555000Y-158250000D01*
X236697857Y-158178571D01*
X236983571Y-158178571D01*
X237126428Y-158250000D01*
X237197857Y-158321428D01*
X237269285Y-158464285D01*
X237269285Y-158821428D01*
X237197857Y-158964285D01*
X237126428Y-159035714D01*
X236983571Y-159107142D01*
X236697857Y-159107142D01*
X236555000Y-159035714D01*
X236483571Y-158964285D01*
X236412142Y-158821428D01*
X255197857Y-159678571D02*
X255197857Y-158178571D01*
X254626428Y-158178571D01*
X254483571Y-158250000D01*
X254412142Y-158321428D01*
X254340714Y-158464285D01*
X254340714Y-158678571D01*
X254412142Y-158821428D01*
X254483571Y-158892857D01*
X254626428Y-158964285D01*
X255197857Y-158964285D01*
X252840714Y-159535714D02*
X252912142Y-159607142D01*
X253126428Y-159678571D01*
X253269285Y-159678571D01*
X253483571Y-159607142D01*
X253626428Y-159464285D01*
X253697857Y-159321428D01*
X253769285Y-159035714D01*
X253769285Y-158821428D01*
X253697857Y-158535714D01*
X253626428Y-158392857D01*
X253483571Y-158250000D01*
X253269285Y-158178571D01*
X253126428Y-158178571D01*
X252912142Y-158250000D01*
X252840714Y-158321428D01*
X251983571Y-158821428D02*
X252126428Y-158750000D01*
X252197857Y-158678571D01*
X252269285Y-158535714D01*
X252269285Y-158464285D01*
X252197857Y-158321428D01*
X252126428Y-158250000D01*
X251983571Y-158178571D01*
X251697857Y-158178571D01*
X251555000Y-158250000D01*
X251483571Y-158321428D01*
X251412142Y-158464285D01*
X251412142Y-158535714D01*
X251483571Y-158678571D01*
X251555000Y-158750000D01*
X251697857Y-158821428D01*
X251983571Y-158821428D01*
X252126428Y-158892857D01*
X252197857Y-158964285D01*
X252269285Y-159107142D01*
X252269285Y-159392857D01*
X252197857Y-159535714D01*
X252126428Y-159607142D01*
X251983571Y-159678571D01*
X251697857Y-159678571D01*
X251555000Y-159607142D01*
X251483571Y-159535714D01*
X251412142Y-159392857D01*
X251412142Y-159107142D01*
X251483571Y-158964285D01*
X251555000Y-158892857D01*
X251697857Y-158821428D01*
X270197857Y-159678571D02*
X270197857Y-158178571D01*
X269626428Y-158178571D01*
X269483571Y-158250000D01*
X269412142Y-158321428D01*
X269340714Y-158464285D01*
X269340714Y-158678571D01*
X269412142Y-158821428D01*
X269483571Y-158892857D01*
X269626428Y-158964285D01*
X270197857Y-158964285D01*
X267840714Y-159535714D02*
X267912142Y-159607142D01*
X268126428Y-159678571D01*
X268269285Y-159678571D01*
X268483571Y-159607142D01*
X268626428Y-159464285D01*
X268697857Y-159321428D01*
X268769285Y-159035714D01*
X268769285Y-158821428D01*
X268697857Y-158535714D01*
X268626428Y-158392857D01*
X268483571Y-158250000D01*
X268269285Y-158178571D01*
X268126428Y-158178571D01*
X267912142Y-158250000D01*
X267840714Y-158321428D01*
X267340714Y-158178571D02*
X266340714Y-158178571D01*
X266983571Y-159678571D01*
X285447857Y-159678571D02*
X285447857Y-158178571D01*
X284876428Y-158178571D01*
X284733571Y-158250000D01*
X284662142Y-158321428D01*
X284590714Y-158464285D01*
X284590714Y-158678571D01*
X284662142Y-158821428D01*
X284733571Y-158892857D01*
X284876428Y-158964285D01*
X285447857Y-158964285D01*
X283090714Y-159535714D02*
X283162142Y-159607142D01*
X283376428Y-159678571D01*
X283519285Y-159678571D01*
X283733571Y-159607142D01*
X283876428Y-159464285D01*
X283947857Y-159321428D01*
X284019285Y-159035714D01*
X284019285Y-158821428D01*
X283947857Y-158535714D01*
X283876428Y-158392857D01*
X283733571Y-158250000D01*
X283519285Y-158178571D01*
X283376428Y-158178571D01*
X283162142Y-158250000D01*
X283090714Y-158321428D01*
X281805000Y-158178571D02*
X282090714Y-158178571D01*
X282233571Y-158250000D01*
X282305000Y-158321428D01*
X282447857Y-158535714D01*
X282519285Y-158821428D01*
X282519285Y-159392857D01*
X282447857Y-159535714D01*
X282376428Y-159607142D01*
X282233571Y-159678571D01*
X281947857Y-159678571D01*
X281805000Y-159607142D01*
X281733571Y-159535714D01*
X281662142Y-159392857D01*
X281662142Y-159035714D01*
X281733571Y-158892857D01*
X281805000Y-158821428D01*
X281947857Y-158750000D01*
X282233571Y-158750000D01*
X282376428Y-158821428D01*
X282447857Y-158892857D01*
X282519285Y-159035714D01*
X300197857Y-159678571D02*
X300197857Y-158178571D01*
X299626428Y-158178571D01*
X299483571Y-158250000D01*
X299412142Y-158321428D01*
X299340714Y-158464285D01*
X299340714Y-158678571D01*
X299412142Y-158821428D01*
X299483571Y-158892857D01*
X299626428Y-158964285D01*
X300197857Y-158964285D01*
X297840714Y-159535714D02*
X297912142Y-159607142D01*
X298126428Y-159678571D01*
X298269285Y-159678571D01*
X298483571Y-159607142D01*
X298626428Y-159464285D01*
X298697857Y-159321428D01*
X298769285Y-159035714D01*
X298769285Y-158821428D01*
X298697857Y-158535714D01*
X298626428Y-158392857D01*
X298483571Y-158250000D01*
X298269285Y-158178571D01*
X298126428Y-158178571D01*
X297912142Y-158250000D01*
X297840714Y-158321428D01*
X296483571Y-158178571D02*
X297197857Y-158178571D01*
X297269285Y-158892857D01*
X297197857Y-158821428D01*
X297055000Y-158750000D01*
X296697857Y-158750000D01*
X296555000Y-158821428D01*
X296483571Y-158892857D01*
X296412142Y-159035714D01*
X296412142Y-159392857D01*
X296483571Y-159535714D01*
X296555000Y-159607142D01*
X296697857Y-159678571D01*
X297055000Y-159678571D01*
X297197857Y-159607142D01*
X297269285Y-159535714D01*
X315197857Y-159678571D02*
X315197857Y-158178571D01*
X314626428Y-158178571D01*
X314483571Y-158250000D01*
X314412142Y-158321428D01*
X314340714Y-158464285D01*
X314340714Y-158678571D01*
X314412142Y-158821428D01*
X314483571Y-158892857D01*
X314626428Y-158964285D01*
X315197857Y-158964285D01*
X312840714Y-159535714D02*
X312912142Y-159607142D01*
X313126428Y-159678571D01*
X313269285Y-159678571D01*
X313483571Y-159607142D01*
X313626428Y-159464285D01*
X313697857Y-159321428D01*
X313769285Y-159035714D01*
X313769285Y-158821428D01*
X313697857Y-158535714D01*
X313626428Y-158392857D01*
X313483571Y-158250000D01*
X313269285Y-158178571D01*
X313126428Y-158178571D01*
X312912142Y-158250000D01*
X312840714Y-158321428D01*
X311555000Y-158678571D02*
X311555000Y-159678571D01*
X311912142Y-158107142D02*
X312269285Y-159178571D01*
X311340714Y-159178571D01*
X330197857Y-159678571D02*
X330197857Y-158178571D01*
X329626428Y-158178571D01*
X329483571Y-158250000D01*
X329412142Y-158321428D01*
X329340714Y-158464285D01*
X329340714Y-158678571D01*
X329412142Y-158821428D01*
X329483571Y-158892857D01*
X329626428Y-158964285D01*
X330197857Y-158964285D01*
X327840714Y-159535714D02*
X327912142Y-159607142D01*
X328126428Y-159678571D01*
X328269285Y-159678571D01*
X328483571Y-159607142D01*
X328626428Y-159464285D01*
X328697857Y-159321428D01*
X328769285Y-159035714D01*
X328769285Y-158821428D01*
X328697857Y-158535714D01*
X328626428Y-158392857D01*
X328483571Y-158250000D01*
X328269285Y-158178571D01*
X328126428Y-158178571D01*
X327912142Y-158250000D01*
X327840714Y-158321428D01*
X327340714Y-158178571D02*
X326412142Y-158178571D01*
X326912142Y-158750000D01*
X326697857Y-158750000D01*
X326555000Y-158821428D01*
X326483571Y-158892857D01*
X326412142Y-159035714D01*
X326412142Y-159392857D01*
X326483571Y-159535714D01*
X326555000Y-159607142D01*
X326697857Y-159678571D01*
X327126428Y-159678571D01*
X327269285Y-159607142D01*
X327340714Y-159535714D01*
X345197857Y-159678571D02*
X345197857Y-158178571D01*
X344626428Y-158178571D01*
X344483571Y-158250000D01*
X344412142Y-158321428D01*
X344340714Y-158464285D01*
X344340714Y-158678571D01*
X344412142Y-158821428D01*
X344483571Y-158892857D01*
X344626428Y-158964285D01*
X345197857Y-158964285D01*
X342840714Y-159535714D02*
X342912142Y-159607142D01*
X343126428Y-159678571D01*
X343269285Y-159678571D01*
X343483571Y-159607142D01*
X343626428Y-159464285D01*
X343697857Y-159321428D01*
X343769285Y-159035714D01*
X343769285Y-158821428D01*
X343697857Y-158535714D01*
X343626428Y-158392857D01*
X343483571Y-158250000D01*
X343269285Y-158178571D01*
X343126428Y-158178571D01*
X342912142Y-158250000D01*
X342840714Y-158321428D01*
X342269285Y-158321428D02*
X342197857Y-158250000D01*
X342055000Y-158178571D01*
X341697857Y-158178571D01*
X341555000Y-158250000D01*
X341483571Y-158321428D01*
X341412142Y-158464285D01*
X341412142Y-158607142D01*
X341483571Y-158821428D01*
X342340714Y-159678571D01*
X341412142Y-159678571D01*
X360197857Y-159678571D02*
X360197857Y-158178571D01*
X359626428Y-158178571D01*
X359483571Y-158250000D01*
X359412142Y-158321428D01*
X359340714Y-158464285D01*
X359340714Y-158678571D01*
X359412142Y-158821428D01*
X359483571Y-158892857D01*
X359626428Y-158964285D01*
X360197857Y-158964285D01*
X357840714Y-159535714D02*
X357912142Y-159607142D01*
X358126428Y-159678571D01*
X358269285Y-159678571D01*
X358483571Y-159607142D01*
X358626428Y-159464285D01*
X358697857Y-159321428D01*
X358769285Y-159035714D01*
X358769285Y-158821428D01*
X358697857Y-158535714D01*
X358626428Y-158392857D01*
X358483571Y-158250000D01*
X358269285Y-158178571D01*
X358126428Y-158178571D01*
X357912142Y-158250000D01*
X357840714Y-158321428D01*
X356412142Y-159678571D02*
X357269285Y-159678571D01*
X356840714Y-159678571D02*
X356840714Y-158178571D01*
X356983571Y-158392857D01*
X357126428Y-158535714D01*
X357269285Y-158607142D01*
X179912142Y-172178571D02*
X179626428Y-172178571D01*
X179483571Y-172250000D01*
X179340714Y-172392857D01*
X179269285Y-172678571D01*
X179269285Y-173178571D01*
X179340714Y-173464285D01*
X179483571Y-173607142D01*
X179626428Y-173678571D01*
X179912142Y-173678571D01*
X180055000Y-173607142D01*
X180197857Y-173464285D01*
X180269285Y-173178571D01*
X180269285Y-172678571D01*
X180197857Y-172392857D01*
X180055000Y-172250000D01*
X179912142Y-172178571D01*
X178626428Y-173678571D02*
X178626428Y-172178571D01*
X178055000Y-172178571D01*
X177912142Y-172250000D01*
X177840714Y-172321428D01*
X177769285Y-172464285D01*
X177769285Y-172678571D01*
X177840714Y-172821428D01*
X177912142Y-172892857D01*
X178055000Y-172964285D01*
X178626428Y-172964285D01*
X165197857Y-173678571D02*
X165197857Y-172178571D01*
X164483571Y-173678571D02*
X164483571Y-172178571D01*
X163912142Y-172178571D01*
X163769285Y-172250000D01*
X163697857Y-172321428D01*
X163626428Y-172464285D01*
X163626428Y-172678571D01*
X163697857Y-172821428D01*
X163769285Y-172892857D01*
X163912142Y-172964285D01*
X164483571Y-172964285D01*
X135412142Y-172178571D02*
X134555000Y-172178571D01*
X134983571Y-173678571D02*
X134983571Y-172178571D01*
X134055000Y-173678571D02*
X134055000Y-172178571D01*
X133483571Y-172178571D01*
X133340714Y-172250000D01*
X133269285Y-172321428D01*
X133197857Y-172464285D01*
X133197857Y-172678571D01*
X133269285Y-172821428D01*
X133340714Y-172892857D01*
X133483571Y-172964285D01*
X134055000Y-172964285D01*
X120412142Y-172178571D02*
X119555000Y-172178571D01*
X119983571Y-173678571D02*
X119983571Y-172178571D01*
X118197857Y-173678571D02*
X118697857Y-172964285D01*
X119055000Y-173678571D02*
X119055000Y-172178571D01*
X118483571Y-172178571D01*
X118340714Y-172250000D01*
X118269285Y-172321428D01*
X118197857Y-172464285D01*
X118197857Y-172678571D01*
X118269285Y-172821428D01*
X118340714Y-172892857D01*
X118483571Y-172964285D01*
X119055000Y-172964285D01*
X90197857Y-158403571D02*
X90197857Y-156903571D01*
X89340714Y-158403571D01*
X89340714Y-156903571D01*
X88340714Y-156903571D02*
X88055000Y-156903571D01*
X87912142Y-156975000D01*
X87769285Y-157117857D01*
X87697857Y-157403571D01*
X87697857Y-157903571D01*
X87769285Y-158189285D01*
X87912142Y-158332142D01*
X88055000Y-158403571D01*
X88340714Y-158403571D01*
X88483571Y-158332142D01*
X88626428Y-158189285D01*
X88697857Y-157903571D01*
X88697857Y-157403571D01*
X88626428Y-157117857D01*
X88483571Y-156975000D01*
X88340714Y-156903571D01*
X87269285Y-156903571D02*
X86412142Y-156903571D01*
X86840714Y-158403571D02*
X86840714Y-156903571D01*
X89340714Y-160953571D02*
X89840714Y-160239285D01*
X90197857Y-160953571D02*
X90197857Y-159453571D01*
X89626428Y-159453571D01*
X89483571Y-159525000D01*
X89412142Y-159596428D01*
X89340714Y-159739285D01*
X89340714Y-159953571D01*
X89412142Y-160096428D01*
X89483571Y-160167857D01*
X89626428Y-160239285D01*
X90197857Y-160239285D01*
X88697857Y-160167857D02*
X88197857Y-160167857D01*
X87983571Y-160953571D02*
X88697857Y-160953571D01*
X88697857Y-159453571D01*
X87983571Y-159453571D01*
X87412142Y-160525000D02*
X86697857Y-160525000D01*
X87555000Y-160953571D02*
X87055000Y-159453571D01*
X86555000Y-160953571D01*
X86055000Y-160953571D02*
X86055000Y-159453571D01*
X85697857Y-159453571D01*
X85483571Y-159525000D01*
X85340714Y-159667857D01*
X85269285Y-159810714D01*
X85197857Y-160096428D01*
X85197857Y-160310714D01*
X85269285Y-160596428D01*
X85340714Y-160739285D01*
X85483571Y-160882142D01*
X85697857Y-160953571D01*
X86055000Y-160953571D01*
X84269285Y-160239285D02*
X84269285Y-160953571D01*
X84769285Y-159453571D02*
X84269285Y-160239285D01*
X83769285Y-159453571D01*
X90412142Y-142903571D02*
X89555000Y-142903571D01*
X89983571Y-144403571D02*
X89983571Y-142903571D01*
X89055000Y-143617857D02*
X88555000Y-143617857D01*
X88340714Y-144403571D02*
X89055000Y-144403571D01*
X89055000Y-142903571D01*
X88340714Y-142903571D01*
X87697857Y-144403571D02*
X87697857Y-142903571D01*
X87197857Y-143975000D01*
X86697857Y-142903571D01*
X86697857Y-144403571D01*
X85983571Y-144403571D02*
X85983571Y-142903571D01*
X85412142Y-142903571D01*
X85269285Y-142975000D01*
X85197857Y-143046428D01*
X85126428Y-143189285D01*
X85126428Y-143403571D01*
X85197857Y-143546428D01*
X85269285Y-143617857D01*
X85412142Y-143689285D01*
X85983571Y-143689285D01*
X89483571Y-146953571D02*
X90197857Y-146953571D01*
X90197857Y-145453571D01*
X88697857Y-145453571D02*
X88412142Y-145453571D01*
X88269285Y-145525000D01*
X88126428Y-145667857D01*
X88055000Y-145953571D01*
X88055000Y-146453571D01*
X88126428Y-146739285D01*
X88269285Y-146882142D01*
X88412142Y-146953571D01*
X88697857Y-146953571D01*
X88840714Y-146882142D01*
X88983571Y-146739285D01*
X89055000Y-146453571D01*
X89055000Y-145953571D01*
X88983571Y-145667857D01*
X88840714Y-145525000D01*
X88697857Y-145453571D01*
X87555000Y-145453571D02*
X87197857Y-146953571D01*
X86912142Y-145882142D01*
X86626428Y-146953571D01*
X86269285Y-145453571D01*
X89340714Y-117678571D02*
X89840714Y-116964285D01*
X90197857Y-117678571D02*
X90197857Y-116178571D01*
X89626428Y-116178571D01*
X89483571Y-116250000D01*
X89412142Y-116321428D01*
X89340714Y-116464285D01*
X89340714Y-116678571D01*
X89412142Y-116821428D01*
X89483571Y-116892857D01*
X89626428Y-116964285D01*
X90197857Y-116964285D01*
X88697857Y-116892857D02*
X88197857Y-116892857D01*
X87983571Y-117678571D02*
X88697857Y-117678571D01*
X88697857Y-116178571D01*
X87983571Y-116178571D01*
X87412142Y-117607142D02*
X87197857Y-117678571D01*
X86840714Y-117678571D01*
X86697857Y-117607142D01*
X86626428Y-117535714D01*
X86555000Y-117392857D01*
X86555000Y-117250000D01*
X86626428Y-117107142D01*
X86697857Y-117035714D01*
X86840714Y-116964285D01*
X87126428Y-116892857D01*
X87269285Y-116821428D01*
X87340714Y-116750000D01*
X87412142Y-116607142D01*
X87412142Y-116464285D01*
X87340714Y-116321428D01*
X87269285Y-116250000D01*
X87126428Y-116178571D01*
X86769285Y-116178571D01*
X86555000Y-116250000D01*
X85912142Y-116892857D02*
X85412142Y-116892857D01*
X85197857Y-117678571D02*
X85912142Y-117678571D01*
X85912142Y-116178571D01*
X85197857Y-116178571D01*
X84769285Y-116178571D02*
X83912142Y-116178571D01*
X84340714Y-117678571D02*
X84340714Y-116178571D01*
X90269285Y-103607142D02*
X90055000Y-103678571D01*
X89697857Y-103678571D01*
X89555000Y-103607142D01*
X89483571Y-103535714D01*
X89412142Y-103392857D01*
X89412142Y-103250000D01*
X89483571Y-103107142D01*
X89555000Y-103035714D01*
X89697857Y-102964285D01*
X89983571Y-102892857D01*
X90126428Y-102821428D01*
X90197857Y-102750000D01*
X90269285Y-102607142D01*
X90269285Y-102464285D01*
X90197857Y-102321428D01*
X90126428Y-102250000D01*
X89983571Y-102178571D01*
X89626428Y-102178571D01*
X89412142Y-102250000D01*
X88983571Y-102178571D02*
X88126428Y-102178571D01*
X88555000Y-103678571D02*
X88555000Y-102178571D01*
X87340714Y-102178571D02*
X87055000Y-102178571D01*
X86912142Y-102250000D01*
X86769285Y-102392857D01*
X86697857Y-102678571D01*
X86697857Y-103178571D01*
X86769285Y-103464285D01*
X86912142Y-103607142D01*
X87055000Y-103678571D01*
X87340714Y-103678571D01*
X87483571Y-103607142D01*
X87626428Y-103464285D01*
X87697857Y-103178571D01*
X87697857Y-102678571D01*
X87626428Y-102392857D01*
X87483571Y-102250000D01*
X87340714Y-102178571D01*
X86055000Y-103678571D02*
X86055000Y-102178571D01*
X85483571Y-102178571D01*
X85340714Y-102250000D01*
X85269285Y-102321428D01*
X85197857Y-102464285D01*
X85197857Y-102678571D01*
X85269285Y-102821428D01*
X85340714Y-102892857D01*
X85483571Y-102964285D01*
X86055000Y-102964285D01*
X120197857Y-131678571D02*
X120197857Y-130178571D01*
X118840714Y-130678571D02*
X118840714Y-131678571D01*
X119197857Y-130107142D02*
X119555000Y-131178571D01*
X118626428Y-131178571D01*
X135447857Y-131678571D02*
X135447857Y-130178571D01*
X134876428Y-130178571D02*
X133947857Y-130178571D01*
X134447857Y-130750000D01*
X134233571Y-130750000D01*
X134090714Y-130821428D01*
X134019285Y-130892857D01*
X133947857Y-131035714D01*
X133947857Y-131392857D01*
X134019285Y-131535714D01*
X134090714Y-131607142D01*
X134233571Y-131678571D01*
X134662142Y-131678571D01*
X134805000Y-131607142D01*
X134876428Y-131535714D01*
X150197857Y-131678571D02*
X150197857Y-130178571D01*
X149555000Y-130321428D02*
X149483571Y-130250000D01*
X149340714Y-130178571D01*
X148983571Y-130178571D01*
X148840714Y-130250000D01*
X148769285Y-130321428D01*
X148697857Y-130464285D01*
X148697857Y-130607142D01*
X148769285Y-130821428D01*
X149626428Y-131678571D01*
X148697857Y-131678571D01*
X165197857Y-131678571D02*
X165197857Y-130178571D01*
X163697857Y-131678571D02*
X164555000Y-131678571D01*
X164126428Y-131678571D02*
X164126428Y-130178571D01*
X164269285Y-130392857D01*
X164412142Y-130535714D01*
X164555000Y-130607142D01*
X194590714Y-131535714D02*
X194662142Y-131607142D01*
X194876428Y-131678571D01*
X195019285Y-131678571D01*
X195233571Y-131607142D01*
X195376428Y-131464285D01*
X195447857Y-131321428D01*
X195519285Y-131035714D01*
X195519285Y-130821428D01*
X195447857Y-130535714D01*
X195376428Y-130392857D01*
X195233571Y-130250000D01*
X195019285Y-130178571D01*
X194876428Y-130178571D01*
X194662142Y-130250000D01*
X194590714Y-130321428D01*
X209697857Y-130892857D02*
X210197857Y-130892857D01*
X210197857Y-131678571D02*
X210197857Y-130178571D01*
X209483571Y-130178571D01*
X240447857Y-144403571D02*
X240447857Y-142903571D01*
X239590714Y-144403571D01*
X239590714Y-142903571D01*
X238876428Y-143617857D02*
X238376428Y-143617857D01*
X238162142Y-144403571D02*
X238876428Y-144403571D01*
X238876428Y-142903571D01*
X238162142Y-142903571D01*
X237662142Y-142903571D02*
X236662142Y-144403571D01*
X236662142Y-142903571D02*
X237662142Y-144403571D01*
X236305000Y-142903571D02*
X235447857Y-142903571D01*
X235876428Y-144403571D02*
X235876428Y-142903571D01*
X240590714Y-145453571D02*
X239662142Y-145453571D01*
X240162142Y-146025000D01*
X239947857Y-146025000D01*
X239805000Y-146096428D01*
X239733571Y-146167857D01*
X239662142Y-146310714D01*
X239662142Y-146667857D01*
X239733571Y-146810714D01*
X239805000Y-146882142D01*
X239947857Y-146953571D01*
X240376428Y-146953571D01*
X240519285Y-146882142D01*
X240590714Y-146810714D01*
X254947857Y-144403571D02*
X254947857Y-142903571D01*
X254090714Y-144403571D01*
X254090714Y-142903571D01*
X253376428Y-143617857D02*
X252876428Y-143617857D01*
X252662142Y-144403571D02*
X253376428Y-144403571D01*
X253376428Y-142903571D01*
X252662142Y-142903571D01*
X252162142Y-142903571D02*
X251162142Y-144403571D01*
X251162142Y-142903571D02*
X252162142Y-144403571D01*
X250805000Y-142903571D02*
X249947857Y-142903571D01*
X250376428Y-144403571D02*
X250376428Y-142903571D01*
X255019285Y-145596428D02*
X254947857Y-145525000D01*
X254805000Y-145453571D01*
X254447857Y-145453571D01*
X254305000Y-145525000D01*
X254233571Y-145596428D01*
X254162142Y-145739285D01*
X254162142Y-145882142D01*
X254233571Y-146096428D01*
X255090714Y-146953571D01*
X254162142Y-146953571D01*
X270197857Y-144403571D02*
X270197857Y-142903571D01*
X269340714Y-144403571D01*
X269340714Y-142903571D01*
X268626428Y-143617857D02*
X268126428Y-143617857D01*
X267912142Y-144403571D02*
X268626428Y-144403571D01*
X268626428Y-142903571D01*
X267912142Y-142903571D01*
X267412142Y-142903571D02*
X266412142Y-144403571D01*
X266412142Y-142903571D02*
X267412142Y-144403571D01*
X266055000Y-142903571D02*
X265197857Y-142903571D01*
X265626428Y-144403571D02*
X265626428Y-142903571D01*
X269412142Y-146953571D02*
X270269285Y-146953571D01*
X269840714Y-146953571D02*
X269840714Y-145453571D01*
X269983571Y-145667857D01*
X270126428Y-145810714D01*
X270269285Y-145882142D01*
X240662142Y-128903571D02*
X239805000Y-128903571D01*
X240233571Y-130403571D02*
X240233571Y-128903571D01*
X239305000Y-130403571D02*
X239305000Y-128903571D01*
X239305000Y-129617857D02*
X238447857Y-129617857D01*
X238447857Y-130403571D02*
X238447857Y-128903571D01*
X237733571Y-130403571D02*
X237733571Y-128903571D01*
X237090714Y-130332142D02*
X236876428Y-130403571D01*
X236519285Y-130403571D01*
X236376428Y-130332142D01*
X236305000Y-130260714D01*
X236233571Y-130117857D01*
X236233571Y-129975000D01*
X236305000Y-129832142D01*
X236376428Y-129760714D01*
X236519285Y-129689285D01*
X236805000Y-129617857D01*
X236947857Y-129546428D01*
X237019285Y-129475000D01*
X237090714Y-129332142D01*
X237090714Y-129189285D01*
X237019285Y-129046428D01*
X236947857Y-128975000D01*
X236805000Y-128903571D01*
X236447857Y-128903571D01*
X236233571Y-128975000D01*
X240590714Y-131453571D02*
X239662142Y-131453571D01*
X240162142Y-132025000D01*
X239947857Y-132025000D01*
X239805000Y-132096428D01*
X239733571Y-132167857D01*
X239662142Y-132310714D01*
X239662142Y-132667857D01*
X239733571Y-132810714D01*
X239805000Y-132882142D01*
X239947857Y-132953571D01*
X240376428Y-132953571D01*
X240519285Y-132882142D01*
X240590714Y-132810714D01*
X255412142Y-128903571D02*
X254555000Y-128903571D01*
X254983571Y-130403571D02*
X254983571Y-128903571D01*
X254055000Y-130403571D02*
X254055000Y-128903571D01*
X254055000Y-129617857D02*
X253197857Y-129617857D01*
X253197857Y-130403571D02*
X253197857Y-128903571D01*
X252483571Y-130403571D02*
X252483571Y-128903571D01*
X251840714Y-130332142D02*
X251626428Y-130403571D01*
X251269285Y-130403571D01*
X251126428Y-130332142D01*
X251055000Y-130260714D01*
X250983571Y-130117857D01*
X250983571Y-129975000D01*
X251055000Y-129832142D01*
X251126428Y-129760714D01*
X251269285Y-129689285D01*
X251555000Y-129617857D01*
X251697857Y-129546428D01*
X251769285Y-129475000D01*
X251840714Y-129332142D01*
X251840714Y-129189285D01*
X251769285Y-129046428D01*
X251697857Y-128975000D01*
X251555000Y-128903571D01*
X251197857Y-128903571D01*
X250983571Y-128975000D01*
X255269285Y-131596428D02*
X255197857Y-131525000D01*
X255055000Y-131453571D01*
X254697857Y-131453571D01*
X254555000Y-131525000D01*
X254483571Y-131596428D01*
X254412142Y-131739285D01*
X254412142Y-131882142D01*
X254483571Y-132096428D01*
X255340714Y-132953571D01*
X254412142Y-132953571D01*
X270412142Y-128903571D02*
X269555000Y-128903571D01*
X269983571Y-130403571D02*
X269983571Y-128903571D01*
X269055000Y-130403571D02*
X269055000Y-128903571D01*
X269055000Y-129617857D02*
X268197857Y-129617857D01*
X268197857Y-130403571D02*
X268197857Y-128903571D01*
X267483571Y-130403571D02*
X267483571Y-128903571D01*
X266840714Y-130332142D02*
X266626428Y-130403571D01*
X266269285Y-130403571D01*
X266126428Y-130332142D01*
X266055000Y-130260714D01*
X265983571Y-130117857D01*
X265983571Y-129975000D01*
X266055000Y-129832142D01*
X266126428Y-129760714D01*
X266269285Y-129689285D01*
X266555000Y-129617857D01*
X266697857Y-129546428D01*
X266769285Y-129475000D01*
X266840714Y-129332142D01*
X266840714Y-129189285D01*
X266769285Y-129046428D01*
X266697857Y-128975000D01*
X266555000Y-128903571D01*
X266197857Y-128903571D01*
X265983571Y-128975000D01*
X269412142Y-132953571D02*
X270269285Y-132953571D01*
X269840714Y-132953571D02*
X269840714Y-131453571D01*
X269983571Y-131667857D01*
X270126428Y-131810714D01*
X270269285Y-131882142D01*
X313840714Y-130260714D02*
X313912142Y-130332142D01*
X314126428Y-130403571D01*
X314269285Y-130403571D01*
X314483571Y-130332142D01*
X314626428Y-130189285D01*
X314697857Y-130046428D01*
X314769285Y-129760714D01*
X314769285Y-129546428D01*
X314697857Y-129260714D01*
X314626428Y-129117857D01*
X314483571Y-128975000D01*
X314269285Y-128903571D01*
X314126428Y-128903571D01*
X313912142Y-128975000D01*
X313840714Y-129046428D01*
X312912142Y-128903571D02*
X312626428Y-128903571D01*
X312483571Y-128975000D01*
X312340714Y-129117857D01*
X312269285Y-129403571D01*
X312269285Y-129903571D01*
X312340714Y-130189285D01*
X312483571Y-130332142D01*
X312626428Y-130403571D01*
X312912142Y-130403571D01*
X313055000Y-130332142D01*
X313197857Y-130189285D01*
X313269285Y-129903571D01*
X313269285Y-129403571D01*
X313197857Y-129117857D01*
X313055000Y-128975000D01*
X312912142Y-128903571D01*
X311626428Y-130403571D02*
X311626428Y-128903571D01*
X310769285Y-130403571D01*
X310769285Y-128903571D01*
X310055000Y-130403571D02*
X310055000Y-128903571D01*
X309697857Y-128903571D01*
X309483571Y-128975000D01*
X309340714Y-129117857D01*
X309269285Y-129260714D01*
X309197857Y-129546428D01*
X309197857Y-129760714D01*
X309269285Y-130046428D01*
X309340714Y-130189285D01*
X309483571Y-130332142D01*
X309697857Y-130403571D01*
X310055000Y-130403571D01*
X314769285Y-132525000D02*
X314055000Y-132525000D01*
X314912142Y-132953571D02*
X314412142Y-131453571D01*
X313912142Y-132953571D01*
X330340714Y-130260714D02*
X330412142Y-130332142D01*
X330626428Y-130403571D01*
X330769285Y-130403571D01*
X330983571Y-130332142D01*
X331126428Y-130189285D01*
X331197857Y-130046428D01*
X331269285Y-129760714D01*
X331269285Y-129546428D01*
X331197857Y-129260714D01*
X331126428Y-129117857D01*
X330983571Y-128975000D01*
X330769285Y-128903571D01*
X330626428Y-128903571D01*
X330412142Y-128975000D01*
X330340714Y-129046428D01*
X329412142Y-128903571D02*
X329126428Y-128903571D01*
X328983571Y-128975000D01*
X328840714Y-129117857D01*
X328769285Y-129403571D01*
X328769285Y-129903571D01*
X328840714Y-130189285D01*
X328983571Y-130332142D01*
X329126428Y-130403571D01*
X329412142Y-130403571D01*
X329555000Y-130332142D01*
X329697857Y-130189285D01*
X329769285Y-129903571D01*
X329769285Y-129403571D01*
X329697857Y-129117857D01*
X329555000Y-128975000D01*
X329412142Y-128903571D01*
X328126428Y-130403571D02*
X328126428Y-128903571D01*
X327269285Y-130403571D01*
X327269285Y-128903571D01*
X326555000Y-130403571D02*
X326555000Y-128903571D01*
X326197857Y-128903571D01*
X325983571Y-128975000D01*
X325840714Y-129117857D01*
X325769285Y-129260714D01*
X325697857Y-129546428D01*
X325697857Y-129760714D01*
X325769285Y-130046428D01*
X325840714Y-130189285D01*
X325983571Y-130332142D01*
X326197857Y-130403571D01*
X326555000Y-130403571D01*
X330697857Y-132167857D02*
X330483571Y-132239285D01*
X330412142Y-132310714D01*
X330340714Y-132453571D01*
X330340714Y-132667857D01*
X330412142Y-132810714D01*
X330483571Y-132882142D01*
X330626428Y-132953571D01*
X331197857Y-132953571D01*
X331197857Y-131453571D01*
X330697857Y-131453571D01*
X330555000Y-131525000D01*
X330483571Y-131596428D01*
X330412142Y-131739285D01*
X330412142Y-131882142D01*
X330483571Y-132025000D01*
X330555000Y-132096428D01*
X330697857Y-132167857D01*
X331197857Y-132167857D01*
X344590714Y-130260714D02*
X344662142Y-130332142D01*
X344876428Y-130403571D01*
X345019285Y-130403571D01*
X345233571Y-130332142D01*
X345376428Y-130189285D01*
X345447857Y-130046428D01*
X345519285Y-129760714D01*
X345519285Y-129546428D01*
X345447857Y-129260714D01*
X345376428Y-129117857D01*
X345233571Y-128975000D01*
X345019285Y-128903571D01*
X344876428Y-128903571D01*
X344662142Y-128975000D01*
X344590714Y-129046428D01*
X343662142Y-128903571D02*
X343376428Y-128903571D01*
X343233571Y-128975000D01*
X343090714Y-129117857D01*
X343019285Y-129403571D01*
X343019285Y-129903571D01*
X343090714Y-130189285D01*
X343233571Y-130332142D01*
X343376428Y-130403571D01*
X343662142Y-130403571D01*
X343805000Y-130332142D01*
X343947857Y-130189285D01*
X344019285Y-129903571D01*
X344019285Y-129403571D01*
X343947857Y-129117857D01*
X343805000Y-128975000D01*
X343662142Y-128903571D01*
X342376428Y-130403571D02*
X342376428Y-128903571D01*
X341519285Y-130403571D01*
X341519285Y-128903571D01*
X340805000Y-130403571D02*
X340805000Y-128903571D01*
X340447857Y-128903571D01*
X340233571Y-128975000D01*
X340090714Y-129117857D01*
X340019285Y-129260714D01*
X339947857Y-129546428D01*
X339947857Y-129760714D01*
X340019285Y-130046428D01*
X340090714Y-130189285D01*
X340233571Y-130332142D01*
X340447857Y-130403571D01*
X340805000Y-130403571D01*
X345447857Y-132953571D02*
X345447857Y-131453571D01*
X345090714Y-131453571D01*
X344876428Y-131525000D01*
X344733571Y-131667857D01*
X344662142Y-131810714D01*
X344590714Y-132096428D01*
X344590714Y-132310714D01*
X344662142Y-132596428D01*
X344733571Y-132739285D01*
X344876428Y-132882142D01*
X345090714Y-132953571D01*
X345447857Y-132953571D01*
X360269285Y-102178571D02*
X360269285Y-103250000D01*
X360340714Y-103464285D01*
X360483571Y-103607142D01*
X360697857Y-103678571D01*
X360840714Y-103678571D01*
X358769285Y-103678571D02*
X359626428Y-103678571D01*
X359197857Y-103678571D02*
X359197857Y-102178571D01*
X359340714Y-102392857D01*
X359483571Y-102535714D01*
X359626428Y-102607142D01*
X360697857Y-89678571D02*
X360697857Y-88178571D01*
X360197857Y-89250000D01*
X359697857Y-88178571D01*
X359697857Y-89678571D01*
X358197857Y-89678571D02*
X359055000Y-89678571D01*
X358626428Y-89678571D02*
X358626428Y-88178571D01*
X358769285Y-88392857D01*
X358912142Y-88535714D01*
X359055000Y-88607142D01*
X239162142Y-74250000D02*
X239305000Y-74178571D01*
X239519285Y-74178571D01*
X239733571Y-74250000D01*
X239876428Y-74392857D01*
X239947857Y-74535714D01*
X240019285Y-74821428D01*
X240019285Y-75035714D01*
X239947857Y-75321428D01*
X239876428Y-75464285D01*
X239733571Y-75607142D01*
X239519285Y-75678571D01*
X239376428Y-75678571D01*
X239162142Y-75607142D01*
X239090714Y-75535714D01*
X239090714Y-75035714D01*
X239376428Y-75035714D01*
X238376428Y-75678571D02*
X238090714Y-75678571D01*
X237947857Y-75607142D01*
X237876428Y-75535714D01*
X237733571Y-75321428D01*
X237662142Y-75035714D01*
X237662142Y-74464285D01*
X237733571Y-74321428D01*
X237805000Y-74250000D01*
X237947857Y-74178571D01*
X238233571Y-74178571D01*
X238376428Y-74250000D01*
X238447857Y-74321428D01*
X238519285Y-74464285D01*
X238519285Y-74821428D01*
X238447857Y-74964285D01*
X238376428Y-75035714D01*
X238233571Y-75107142D01*
X237947857Y-75107142D01*
X237805000Y-75035714D01*
X237733571Y-74964285D01*
X237662142Y-74821428D01*
X254662142Y-74250000D02*
X254805000Y-74178571D01*
X255019285Y-74178571D01*
X255233571Y-74250000D01*
X255376428Y-74392857D01*
X255447857Y-74535714D01*
X255519285Y-74821428D01*
X255519285Y-75035714D01*
X255447857Y-75321428D01*
X255376428Y-75464285D01*
X255233571Y-75607142D01*
X255019285Y-75678571D01*
X254876428Y-75678571D01*
X254662142Y-75607142D01*
X254590714Y-75535714D01*
X254590714Y-75035714D01*
X254876428Y-75035714D01*
X253733571Y-74821428D02*
X253876428Y-74750000D01*
X253947857Y-74678571D01*
X254019285Y-74535714D01*
X254019285Y-74464285D01*
X253947857Y-74321428D01*
X253876428Y-74250000D01*
X253733571Y-74178571D01*
X253447857Y-74178571D01*
X253305000Y-74250000D01*
X253233571Y-74321428D01*
X253162142Y-74464285D01*
X253162142Y-74535714D01*
X253233571Y-74678571D01*
X253305000Y-74750000D01*
X253447857Y-74821428D01*
X253733571Y-74821428D01*
X253876428Y-74892857D01*
X253947857Y-74964285D01*
X254019285Y-75107142D01*
X254019285Y-75392857D01*
X253947857Y-75535714D01*
X253876428Y-75607142D01*
X253733571Y-75678571D01*
X253447857Y-75678571D01*
X253305000Y-75607142D01*
X253233571Y-75535714D01*
X253162142Y-75392857D01*
X253162142Y-75107142D01*
X253233571Y-74964285D01*
X253305000Y-74892857D01*
X253447857Y-74821428D01*
X269412142Y-74250000D02*
X269555000Y-74178571D01*
X269769285Y-74178571D01*
X269983571Y-74250000D01*
X270126428Y-74392857D01*
X270197857Y-74535714D01*
X270269285Y-74821428D01*
X270269285Y-75035714D01*
X270197857Y-75321428D01*
X270126428Y-75464285D01*
X269983571Y-75607142D01*
X269769285Y-75678571D01*
X269626428Y-75678571D01*
X269412142Y-75607142D01*
X269340714Y-75535714D01*
X269340714Y-75035714D01*
X269626428Y-75035714D01*
X268840714Y-74178571D02*
X267840714Y-74178571D01*
X268483571Y-75678571D01*
X284412142Y-74250000D02*
X284555000Y-74178571D01*
X284769285Y-74178571D01*
X284983571Y-74250000D01*
X285126428Y-74392857D01*
X285197857Y-74535714D01*
X285269285Y-74821428D01*
X285269285Y-75035714D01*
X285197857Y-75321428D01*
X285126428Y-75464285D01*
X284983571Y-75607142D01*
X284769285Y-75678571D01*
X284626428Y-75678571D01*
X284412142Y-75607142D01*
X284340714Y-75535714D01*
X284340714Y-75035714D01*
X284626428Y-75035714D01*
X283055000Y-74178571D02*
X283340714Y-74178571D01*
X283483571Y-74250000D01*
X283555000Y-74321428D01*
X283697857Y-74535714D01*
X283769285Y-74821428D01*
X283769285Y-75392857D01*
X283697857Y-75535714D01*
X283626428Y-75607142D01*
X283483571Y-75678571D01*
X283197857Y-75678571D01*
X283055000Y-75607142D01*
X282983571Y-75535714D01*
X282912142Y-75392857D01*
X282912142Y-75035714D01*
X282983571Y-74892857D01*
X283055000Y-74821428D01*
X283197857Y-74750000D01*
X283483571Y-74750000D01*
X283626428Y-74821428D01*
X283697857Y-74892857D01*
X283769285Y-75035714D01*
X299162142Y-74250000D02*
X299305000Y-74178571D01*
X299519285Y-74178571D01*
X299733571Y-74250000D01*
X299876428Y-74392857D01*
X299947857Y-74535714D01*
X300019285Y-74821428D01*
X300019285Y-75035714D01*
X299947857Y-75321428D01*
X299876428Y-75464285D01*
X299733571Y-75607142D01*
X299519285Y-75678571D01*
X299376428Y-75678571D01*
X299162142Y-75607142D01*
X299090714Y-75535714D01*
X299090714Y-75035714D01*
X299376428Y-75035714D01*
X297733571Y-74178571D02*
X298447857Y-74178571D01*
X298519285Y-74892857D01*
X298447857Y-74821428D01*
X298305000Y-74750000D01*
X297947857Y-74750000D01*
X297805000Y-74821428D01*
X297733571Y-74892857D01*
X297662142Y-75035714D01*
X297662142Y-75392857D01*
X297733571Y-75535714D01*
X297805000Y-75607142D01*
X297947857Y-75678571D01*
X298305000Y-75678571D01*
X298447857Y-75607142D01*
X298519285Y-75535714D01*
X314412142Y-74250000D02*
X314555000Y-74178571D01*
X314769285Y-74178571D01*
X314983571Y-74250000D01*
X315126428Y-74392857D01*
X315197857Y-74535714D01*
X315269285Y-74821428D01*
X315269285Y-75035714D01*
X315197857Y-75321428D01*
X315126428Y-75464285D01*
X314983571Y-75607142D01*
X314769285Y-75678571D01*
X314626428Y-75678571D01*
X314412142Y-75607142D01*
X314340714Y-75535714D01*
X314340714Y-75035714D01*
X314626428Y-75035714D01*
X313055000Y-74678571D02*
X313055000Y-75678571D01*
X313412142Y-74107142D02*
X313769285Y-75178571D01*
X312840714Y-75178571D01*
X329412142Y-74250000D02*
X329555000Y-74178571D01*
X329769285Y-74178571D01*
X329983571Y-74250000D01*
X330126428Y-74392857D01*
X330197857Y-74535714D01*
X330269285Y-74821428D01*
X330269285Y-75035714D01*
X330197857Y-75321428D01*
X330126428Y-75464285D01*
X329983571Y-75607142D01*
X329769285Y-75678571D01*
X329626428Y-75678571D01*
X329412142Y-75607142D01*
X329340714Y-75535714D01*
X329340714Y-75035714D01*
X329626428Y-75035714D01*
X328840714Y-74178571D02*
X327912142Y-74178571D01*
X328412142Y-74750000D01*
X328197857Y-74750000D01*
X328055000Y-74821428D01*
X327983571Y-74892857D01*
X327912142Y-75035714D01*
X327912142Y-75392857D01*
X327983571Y-75535714D01*
X328055000Y-75607142D01*
X328197857Y-75678571D01*
X328626428Y-75678571D01*
X328769285Y-75607142D01*
X328840714Y-75535714D01*
X344662142Y-74250000D02*
X344805000Y-74178571D01*
X345019285Y-74178571D01*
X345233571Y-74250000D01*
X345376428Y-74392857D01*
X345447857Y-74535714D01*
X345519285Y-74821428D01*
X345519285Y-75035714D01*
X345447857Y-75321428D01*
X345376428Y-75464285D01*
X345233571Y-75607142D01*
X345019285Y-75678571D01*
X344876428Y-75678571D01*
X344662142Y-75607142D01*
X344590714Y-75535714D01*
X344590714Y-75035714D01*
X344876428Y-75035714D01*
X344019285Y-74321428D02*
X343947857Y-74250000D01*
X343805000Y-74178571D01*
X343447857Y-74178571D01*
X343305000Y-74250000D01*
X343233571Y-74321428D01*
X343162142Y-74464285D01*
X343162142Y-74607142D01*
X343233571Y-74821428D01*
X344090714Y-75678571D01*
X343162142Y-75678571D01*
X359912142Y-74250000D02*
X360055000Y-74178571D01*
X360269285Y-74178571D01*
X360483571Y-74250000D01*
X360626428Y-74392857D01*
X360697857Y-74535714D01*
X360769285Y-74821428D01*
X360769285Y-75035714D01*
X360697857Y-75321428D01*
X360626428Y-75464285D01*
X360483571Y-75607142D01*
X360269285Y-75678571D01*
X360126428Y-75678571D01*
X359912142Y-75607142D01*
X359840714Y-75535714D01*
X359840714Y-75035714D01*
X360126428Y-75035714D01*
X358412142Y-75678571D02*
X359269285Y-75678571D01*
X358840714Y-75678571D02*
X358840714Y-74178571D01*
X358983571Y-74392857D01*
X359126428Y-74535714D01*
X359269285Y-74607142D01*
X75162142Y-74714285D02*
X75162142Y-75428571D01*
X75662142Y-73928571D02*
X75162142Y-74714285D01*
X74662142Y-73928571D01*
X75590714Y-60178571D02*
X74590714Y-61678571D01*
X74590714Y-60178571D02*
X75590714Y-61678571D01*
X104197857Y-61821428D02*
X104340714Y-61750000D01*
X104483571Y-61607142D01*
X104697857Y-61392857D01*
X104840714Y-61321428D01*
X104983571Y-61321428D01*
X104912142Y-61678571D02*
X105055000Y-61607142D01*
X105197857Y-61464285D01*
X105269285Y-61178571D01*
X105269285Y-60678571D01*
X105197857Y-60392857D01*
X105055000Y-60250000D01*
X104912142Y-60178571D01*
X104626428Y-60178571D01*
X104483571Y-60250000D01*
X104340714Y-60392857D01*
X104269285Y-60678571D01*
X104269285Y-61178571D01*
X104340714Y-61464285D01*
X104483571Y-61607142D01*
X104626428Y-61678571D01*
X104912142Y-61678571D01*
X102840714Y-61678571D02*
X103697857Y-61678571D01*
X103269285Y-61678571D02*
X103269285Y-60178571D01*
X103412142Y-60392857D01*
X103555000Y-60535714D01*
X103697857Y-60607142D01*
X101983571Y-60821428D02*
X102126428Y-60750000D01*
X102197857Y-60678571D01*
X102269285Y-60535714D01*
X102269285Y-60464285D01*
X102197857Y-60321428D01*
X102126428Y-60250000D01*
X101983571Y-60178571D01*
X101697857Y-60178571D01*
X101555000Y-60250000D01*
X101483571Y-60321428D01*
X101412142Y-60464285D01*
X101412142Y-60535714D01*
X101483571Y-60678571D01*
X101555000Y-60750000D01*
X101697857Y-60821428D01*
X101983571Y-60821428D01*
X102126428Y-60892857D01*
X102197857Y-60964285D01*
X102269285Y-61107142D01*
X102269285Y-61392857D01*
X102197857Y-61535714D01*
X102126428Y-61607142D01*
X101983571Y-61678571D01*
X101697857Y-61678571D01*
X101555000Y-61607142D01*
X101483571Y-61535714D01*
X101412142Y-61392857D01*
X101412142Y-61107142D01*
X101483571Y-60964285D01*
X101555000Y-60892857D01*
X101697857Y-60821428D01*
X119697857Y-61821428D02*
X119840714Y-61750000D01*
X119983571Y-61607142D01*
X120197857Y-61392857D01*
X120340714Y-61321428D01*
X120483571Y-61321428D01*
X120412142Y-61678571D02*
X120555000Y-61607142D01*
X120697857Y-61464285D01*
X120769285Y-61178571D01*
X120769285Y-60678571D01*
X120697857Y-60392857D01*
X120555000Y-60250000D01*
X120412142Y-60178571D01*
X120126428Y-60178571D01*
X119983571Y-60250000D01*
X119840714Y-60392857D01*
X119769285Y-60678571D01*
X119769285Y-61178571D01*
X119840714Y-61464285D01*
X119983571Y-61607142D01*
X120126428Y-61678571D01*
X120412142Y-61678571D01*
X118340714Y-61678571D02*
X119197857Y-61678571D01*
X118769285Y-61678571D02*
X118769285Y-60178571D01*
X118912142Y-60392857D01*
X119055000Y-60535714D01*
X119197857Y-60607142D01*
X117840714Y-60178571D02*
X116840714Y-60178571D01*
X117483571Y-61678571D01*
X134197857Y-61821428D02*
X134340714Y-61750000D01*
X134483571Y-61607142D01*
X134697857Y-61392857D01*
X134840714Y-61321428D01*
X134983571Y-61321428D01*
X134912142Y-61678571D02*
X135055000Y-61607142D01*
X135197857Y-61464285D01*
X135269285Y-61178571D01*
X135269285Y-60678571D01*
X135197857Y-60392857D01*
X135055000Y-60250000D01*
X134912142Y-60178571D01*
X134626428Y-60178571D01*
X134483571Y-60250000D01*
X134340714Y-60392857D01*
X134269285Y-60678571D01*
X134269285Y-61178571D01*
X134340714Y-61464285D01*
X134483571Y-61607142D01*
X134626428Y-61678571D01*
X134912142Y-61678571D01*
X132840714Y-61678571D02*
X133697857Y-61678571D01*
X133269285Y-61678571D02*
X133269285Y-60178571D01*
X133412142Y-60392857D01*
X133555000Y-60535714D01*
X133697857Y-60607142D01*
X131555000Y-60178571D02*
X131840714Y-60178571D01*
X131983571Y-60250000D01*
X132055000Y-60321428D01*
X132197857Y-60535714D01*
X132269285Y-60821428D01*
X132269285Y-61392857D01*
X132197857Y-61535714D01*
X132126428Y-61607142D01*
X131983571Y-61678571D01*
X131697857Y-61678571D01*
X131555000Y-61607142D01*
X131483571Y-61535714D01*
X131412142Y-61392857D01*
X131412142Y-61035714D01*
X131483571Y-60892857D01*
X131555000Y-60821428D01*
X131697857Y-60750000D01*
X131983571Y-60750000D01*
X132126428Y-60821428D01*
X132197857Y-60892857D01*
X132269285Y-61035714D01*
X149197857Y-61821428D02*
X149340714Y-61750000D01*
X149483571Y-61607142D01*
X149697857Y-61392857D01*
X149840714Y-61321428D01*
X149983571Y-61321428D01*
X149912142Y-61678571D02*
X150055000Y-61607142D01*
X150197857Y-61464285D01*
X150269285Y-61178571D01*
X150269285Y-60678571D01*
X150197857Y-60392857D01*
X150055000Y-60250000D01*
X149912142Y-60178571D01*
X149626428Y-60178571D01*
X149483571Y-60250000D01*
X149340714Y-60392857D01*
X149269285Y-60678571D01*
X149269285Y-61178571D01*
X149340714Y-61464285D01*
X149483571Y-61607142D01*
X149626428Y-61678571D01*
X149912142Y-61678571D01*
X147840714Y-61678571D02*
X148697857Y-61678571D01*
X148269285Y-61678571D02*
X148269285Y-60178571D01*
X148412142Y-60392857D01*
X148555000Y-60535714D01*
X148697857Y-60607142D01*
X146483571Y-60178571D02*
X147197857Y-60178571D01*
X147269285Y-60892857D01*
X147197857Y-60821428D01*
X147055000Y-60750000D01*
X146697857Y-60750000D01*
X146555000Y-60821428D01*
X146483571Y-60892857D01*
X146412142Y-61035714D01*
X146412142Y-61392857D01*
X146483571Y-61535714D01*
X146555000Y-61607142D01*
X146697857Y-61678571D01*
X147055000Y-61678571D01*
X147197857Y-61607142D01*
X147269285Y-61535714D01*
X164197857Y-61821428D02*
X164340714Y-61750000D01*
X164483571Y-61607142D01*
X164697857Y-61392857D01*
X164840714Y-61321428D01*
X164983571Y-61321428D01*
X164912142Y-61678571D02*
X165055000Y-61607142D01*
X165197857Y-61464285D01*
X165269285Y-61178571D01*
X165269285Y-60678571D01*
X165197857Y-60392857D01*
X165055000Y-60250000D01*
X164912142Y-60178571D01*
X164626428Y-60178571D01*
X164483571Y-60250000D01*
X164340714Y-60392857D01*
X164269285Y-60678571D01*
X164269285Y-61178571D01*
X164340714Y-61464285D01*
X164483571Y-61607142D01*
X164626428Y-61678571D01*
X164912142Y-61678571D01*
X162840714Y-61678571D02*
X163697857Y-61678571D01*
X163269285Y-61678571D02*
X163269285Y-60178571D01*
X163412142Y-60392857D01*
X163555000Y-60535714D01*
X163697857Y-60607142D01*
X161555000Y-60678571D02*
X161555000Y-61678571D01*
X161912142Y-60107142D02*
X162269285Y-61178571D01*
X161340714Y-61178571D01*
X179197857Y-61821428D02*
X179340714Y-61750000D01*
X179483571Y-61607142D01*
X179697857Y-61392857D01*
X179840714Y-61321428D01*
X179983571Y-61321428D01*
X179912142Y-61678571D02*
X180055000Y-61607142D01*
X180197857Y-61464285D01*
X180269285Y-61178571D01*
X180269285Y-60678571D01*
X180197857Y-60392857D01*
X180055000Y-60250000D01*
X179912142Y-60178571D01*
X179626428Y-60178571D01*
X179483571Y-60250000D01*
X179340714Y-60392857D01*
X179269285Y-60678571D01*
X179269285Y-61178571D01*
X179340714Y-61464285D01*
X179483571Y-61607142D01*
X179626428Y-61678571D01*
X179912142Y-61678571D01*
X177840714Y-61678571D02*
X178697857Y-61678571D01*
X178269285Y-61678571D02*
X178269285Y-60178571D01*
X178412142Y-60392857D01*
X178555000Y-60535714D01*
X178697857Y-60607142D01*
X177340714Y-60178571D02*
X176412142Y-60178571D01*
X176912142Y-60750000D01*
X176697857Y-60750000D01*
X176555000Y-60821428D01*
X176483571Y-60892857D01*
X176412142Y-61035714D01*
X176412142Y-61392857D01*
X176483571Y-61535714D01*
X176555000Y-61607142D01*
X176697857Y-61678571D01*
X177126428Y-61678571D01*
X177269285Y-61607142D01*
X177340714Y-61535714D01*
X194197857Y-61821428D02*
X194340714Y-61750000D01*
X194483571Y-61607142D01*
X194697857Y-61392857D01*
X194840714Y-61321428D01*
X194983571Y-61321428D01*
X194912142Y-61678571D02*
X195055000Y-61607142D01*
X195197857Y-61464285D01*
X195269285Y-61178571D01*
X195269285Y-60678571D01*
X195197857Y-60392857D01*
X195055000Y-60250000D01*
X194912142Y-60178571D01*
X194626428Y-60178571D01*
X194483571Y-60250000D01*
X194340714Y-60392857D01*
X194269285Y-60678571D01*
X194269285Y-61178571D01*
X194340714Y-61464285D01*
X194483571Y-61607142D01*
X194626428Y-61678571D01*
X194912142Y-61678571D01*
X192840714Y-61678571D02*
X193697857Y-61678571D01*
X193269285Y-61678571D02*
X193269285Y-60178571D01*
X193412142Y-60392857D01*
X193555000Y-60535714D01*
X193697857Y-60607142D01*
X192269285Y-60321428D02*
X192197857Y-60250000D01*
X192055000Y-60178571D01*
X191697857Y-60178571D01*
X191555000Y-60250000D01*
X191483571Y-60321428D01*
X191412142Y-60464285D01*
X191412142Y-60607142D01*
X191483571Y-60821428D01*
X192340714Y-61678571D01*
X191412142Y-61678571D01*
X209197857Y-61821428D02*
X209340714Y-61750000D01*
X209483571Y-61607142D01*
X209697857Y-61392857D01*
X209840714Y-61321428D01*
X209983571Y-61321428D01*
X209912142Y-61678571D02*
X210055000Y-61607142D01*
X210197857Y-61464285D01*
X210269285Y-61178571D01*
X210269285Y-60678571D01*
X210197857Y-60392857D01*
X210055000Y-60250000D01*
X209912142Y-60178571D01*
X209626428Y-60178571D01*
X209483571Y-60250000D01*
X209340714Y-60392857D01*
X209269285Y-60678571D01*
X209269285Y-61178571D01*
X209340714Y-61464285D01*
X209483571Y-61607142D01*
X209626428Y-61678571D01*
X209912142Y-61678571D01*
X207840714Y-61678571D02*
X208697857Y-61678571D01*
X208269285Y-61678571D02*
X208269285Y-60178571D01*
X208412142Y-60392857D01*
X208555000Y-60535714D01*
X208697857Y-60607142D01*
X206412142Y-61678571D02*
X207269285Y-61678571D01*
X206840714Y-61678571D02*
X206840714Y-60178571D01*
X206983571Y-60392857D01*
X207126428Y-60535714D01*
X207269285Y-60607142D01*
X224197857Y-61821428D02*
X224340714Y-61750000D01*
X224483571Y-61607142D01*
X224697857Y-61392857D01*
X224840714Y-61321428D01*
X224983571Y-61321428D01*
X224912142Y-61678571D02*
X225055000Y-61607142D01*
X225197857Y-61464285D01*
X225269285Y-61178571D01*
X225269285Y-60678571D01*
X225197857Y-60392857D01*
X225055000Y-60250000D01*
X224912142Y-60178571D01*
X224626428Y-60178571D01*
X224483571Y-60250000D01*
X224340714Y-60392857D01*
X224269285Y-60678571D01*
X224269285Y-61178571D01*
X224340714Y-61464285D01*
X224483571Y-61607142D01*
X224626428Y-61678571D01*
X224912142Y-61678571D01*
X222840714Y-61678571D02*
X223697857Y-61678571D01*
X223269285Y-61678571D02*
X223269285Y-60178571D01*
X223412142Y-60392857D01*
X223555000Y-60535714D01*
X223697857Y-60607142D01*
X221912142Y-60178571D02*
X221769285Y-60178571D01*
X221626428Y-60250000D01*
X221555000Y-60321428D01*
X221483571Y-60464285D01*
X221412142Y-60750000D01*
X221412142Y-61107142D01*
X221483571Y-61392857D01*
X221555000Y-61535714D01*
X221626428Y-61607142D01*
X221769285Y-61678571D01*
X221912142Y-61678571D01*
X222055000Y-61607142D01*
X222126428Y-61535714D01*
X222197857Y-61392857D01*
X222269285Y-61107142D01*
X222269285Y-60750000D01*
X222197857Y-60464285D01*
X222126428Y-60321428D01*
X222055000Y-60250000D01*
X221912142Y-60178571D01*
X239197857Y-61821428D02*
X239340714Y-61750000D01*
X239483571Y-61607142D01*
X239697857Y-61392857D01*
X239840714Y-61321428D01*
X239983571Y-61321428D01*
X239912142Y-61678571D02*
X240055000Y-61607142D01*
X240197857Y-61464285D01*
X240269285Y-61178571D01*
X240269285Y-60678571D01*
X240197857Y-60392857D01*
X240055000Y-60250000D01*
X239912142Y-60178571D01*
X239626428Y-60178571D01*
X239483571Y-60250000D01*
X239340714Y-60392857D01*
X239269285Y-60678571D01*
X239269285Y-61178571D01*
X239340714Y-61464285D01*
X239483571Y-61607142D01*
X239626428Y-61678571D01*
X239912142Y-61678571D01*
X238555000Y-61678571D02*
X238269285Y-61678571D01*
X238126428Y-61607142D01*
X238055000Y-61535714D01*
X237912142Y-61321428D01*
X237840714Y-61035714D01*
X237840714Y-60464285D01*
X237912142Y-60321428D01*
X237983571Y-60250000D01*
X238126428Y-60178571D01*
X238412142Y-60178571D01*
X238555000Y-60250000D01*
X238626428Y-60321428D01*
X238697857Y-60464285D01*
X238697857Y-60821428D01*
X238626428Y-60964285D01*
X238555000Y-61035714D01*
X238412142Y-61107142D01*
X238126428Y-61107142D01*
X237983571Y-61035714D01*
X237912142Y-60964285D01*
X237840714Y-60821428D01*
X254447857Y-61821428D02*
X254590714Y-61750000D01*
X254733571Y-61607142D01*
X254947857Y-61392857D01*
X255090714Y-61321428D01*
X255233571Y-61321428D01*
X255162142Y-61678571D02*
X255305000Y-61607142D01*
X255447857Y-61464285D01*
X255519285Y-61178571D01*
X255519285Y-60678571D01*
X255447857Y-60392857D01*
X255305000Y-60250000D01*
X255162142Y-60178571D01*
X254876428Y-60178571D01*
X254733571Y-60250000D01*
X254590714Y-60392857D01*
X254519285Y-60678571D01*
X254519285Y-61178571D01*
X254590714Y-61464285D01*
X254733571Y-61607142D01*
X254876428Y-61678571D01*
X255162142Y-61678571D01*
X253662142Y-60821428D02*
X253805000Y-60750000D01*
X253876428Y-60678571D01*
X253947857Y-60535714D01*
X253947857Y-60464285D01*
X253876428Y-60321428D01*
X253805000Y-60250000D01*
X253662142Y-60178571D01*
X253376428Y-60178571D01*
X253233571Y-60250000D01*
X253162142Y-60321428D01*
X253090714Y-60464285D01*
X253090714Y-60535714D01*
X253162142Y-60678571D01*
X253233571Y-60750000D01*
X253376428Y-60821428D01*
X253662142Y-60821428D01*
X253805000Y-60892857D01*
X253876428Y-60964285D01*
X253947857Y-61107142D01*
X253947857Y-61392857D01*
X253876428Y-61535714D01*
X253805000Y-61607142D01*
X253662142Y-61678571D01*
X253376428Y-61678571D01*
X253233571Y-61607142D01*
X253162142Y-61535714D01*
X253090714Y-61392857D01*
X253090714Y-61107142D01*
X253162142Y-60964285D01*
X253233571Y-60892857D01*
X253376428Y-60821428D01*
X269197857Y-61821428D02*
X269340714Y-61750000D01*
X269483571Y-61607142D01*
X269697857Y-61392857D01*
X269840714Y-61321428D01*
X269983571Y-61321428D01*
X269912142Y-61678571D02*
X270055000Y-61607142D01*
X270197857Y-61464285D01*
X270269285Y-61178571D01*
X270269285Y-60678571D01*
X270197857Y-60392857D01*
X270055000Y-60250000D01*
X269912142Y-60178571D01*
X269626428Y-60178571D01*
X269483571Y-60250000D01*
X269340714Y-60392857D01*
X269269285Y-60678571D01*
X269269285Y-61178571D01*
X269340714Y-61464285D01*
X269483571Y-61607142D01*
X269626428Y-61678571D01*
X269912142Y-61678571D01*
X268769285Y-60178571D02*
X267769285Y-60178571D01*
X268412142Y-61678571D01*
X284447857Y-61821428D02*
X284590714Y-61750000D01*
X284733571Y-61607142D01*
X284947857Y-61392857D01*
X285090714Y-61321428D01*
X285233571Y-61321428D01*
X285162142Y-61678571D02*
X285305000Y-61607142D01*
X285447857Y-61464285D01*
X285519285Y-61178571D01*
X285519285Y-60678571D01*
X285447857Y-60392857D01*
X285305000Y-60250000D01*
X285162142Y-60178571D01*
X284876428Y-60178571D01*
X284733571Y-60250000D01*
X284590714Y-60392857D01*
X284519285Y-60678571D01*
X284519285Y-61178571D01*
X284590714Y-61464285D01*
X284733571Y-61607142D01*
X284876428Y-61678571D01*
X285162142Y-61678571D01*
X283233571Y-60178571D02*
X283519285Y-60178571D01*
X283662142Y-60250000D01*
X283733571Y-60321428D01*
X283876428Y-60535714D01*
X283947857Y-60821428D01*
X283947857Y-61392857D01*
X283876428Y-61535714D01*
X283805000Y-61607142D01*
X283662142Y-61678571D01*
X283376428Y-61678571D01*
X283233571Y-61607142D01*
X283162142Y-61535714D01*
X283090714Y-61392857D01*
X283090714Y-61035714D01*
X283162142Y-60892857D01*
X283233571Y-60821428D01*
X283376428Y-60750000D01*
X283662142Y-60750000D01*
X283805000Y-60821428D01*
X283876428Y-60892857D01*
X283947857Y-61035714D01*
X299197857Y-61821428D02*
X299340714Y-61750000D01*
X299483571Y-61607142D01*
X299697857Y-61392857D01*
X299840714Y-61321428D01*
X299983571Y-61321428D01*
X299912142Y-61678571D02*
X300055000Y-61607142D01*
X300197857Y-61464285D01*
X300269285Y-61178571D01*
X300269285Y-60678571D01*
X300197857Y-60392857D01*
X300055000Y-60250000D01*
X299912142Y-60178571D01*
X299626428Y-60178571D01*
X299483571Y-60250000D01*
X299340714Y-60392857D01*
X299269285Y-60678571D01*
X299269285Y-61178571D01*
X299340714Y-61464285D01*
X299483571Y-61607142D01*
X299626428Y-61678571D01*
X299912142Y-61678571D01*
X297912142Y-60178571D02*
X298626428Y-60178571D01*
X298697857Y-60892857D01*
X298626428Y-60821428D01*
X298483571Y-60750000D01*
X298126428Y-60750000D01*
X297983571Y-60821428D01*
X297912142Y-60892857D01*
X297840714Y-61035714D01*
X297840714Y-61392857D01*
X297912142Y-61535714D01*
X297983571Y-61607142D01*
X298126428Y-61678571D01*
X298483571Y-61678571D01*
X298626428Y-61607142D01*
X298697857Y-61535714D01*
X314197857Y-61821428D02*
X314340714Y-61750000D01*
X314483571Y-61607142D01*
X314697857Y-61392857D01*
X314840714Y-61321428D01*
X314983571Y-61321428D01*
X314912142Y-61678571D02*
X315055000Y-61607142D01*
X315197857Y-61464285D01*
X315269285Y-61178571D01*
X315269285Y-60678571D01*
X315197857Y-60392857D01*
X315055000Y-60250000D01*
X314912142Y-60178571D01*
X314626428Y-60178571D01*
X314483571Y-60250000D01*
X314340714Y-60392857D01*
X314269285Y-60678571D01*
X314269285Y-61178571D01*
X314340714Y-61464285D01*
X314483571Y-61607142D01*
X314626428Y-61678571D01*
X314912142Y-61678571D01*
X312983571Y-60678571D02*
X312983571Y-61678571D01*
X313340714Y-60107142D02*
X313697857Y-61178571D01*
X312769285Y-61178571D01*
X329197857Y-61821428D02*
X329340714Y-61750000D01*
X329483571Y-61607142D01*
X329697857Y-61392857D01*
X329840714Y-61321428D01*
X329983571Y-61321428D01*
X329912142Y-61678571D02*
X330055000Y-61607142D01*
X330197857Y-61464285D01*
X330269285Y-61178571D01*
X330269285Y-60678571D01*
X330197857Y-60392857D01*
X330055000Y-60250000D01*
X329912142Y-60178571D01*
X329626428Y-60178571D01*
X329483571Y-60250000D01*
X329340714Y-60392857D01*
X329269285Y-60678571D01*
X329269285Y-61178571D01*
X329340714Y-61464285D01*
X329483571Y-61607142D01*
X329626428Y-61678571D01*
X329912142Y-61678571D01*
X328769285Y-60178571D02*
X327840714Y-60178571D01*
X328340714Y-60750000D01*
X328126428Y-60750000D01*
X327983571Y-60821428D01*
X327912142Y-60892857D01*
X327840714Y-61035714D01*
X327840714Y-61392857D01*
X327912142Y-61535714D01*
X327983571Y-61607142D01*
X328126428Y-61678571D01*
X328555000Y-61678571D01*
X328697857Y-61607142D01*
X328769285Y-61535714D01*
X344447857Y-61821428D02*
X344590714Y-61750000D01*
X344733571Y-61607142D01*
X344947857Y-61392857D01*
X345090714Y-61321428D01*
X345233571Y-61321428D01*
X345162142Y-61678571D02*
X345305000Y-61607142D01*
X345447857Y-61464285D01*
X345519285Y-61178571D01*
X345519285Y-60678571D01*
X345447857Y-60392857D01*
X345305000Y-60250000D01*
X345162142Y-60178571D01*
X344876428Y-60178571D01*
X344733571Y-60250000D01*
X344590714Y-60392857D01*
X344519285Y-60678571D01*
X344519285Y-61178571D01*
X344590714Y-61464285D01*
X344733571Y-61607142D01*
X344876428Y-61678571D01*
X345162142Y-61678571D01*
X343947857Y-60321428D02*
X343876428Y-60250000D01*
X343733571Y-60178571D01*
X343376428Y-60178571D01*
X343233571Y-60250000D01*
X343162142Y-60321428D01*
X343090714Y-60464285D01*
X343090714Y-60607142D01*
X343162142Y-60821428D01*
X344019285Y-61678571D01*
X343090714Y-61678571D01*
X359697857Y-61821428D02*
X359840714Y-61750000D01*
X359983571Y-61607142D01*
X360197857Y-61392857D01*
X360340714Y-61321428D01*
X360483571Y-61321428D01*
X360412142Y-61678571D02*
X360555000Y-61607142D01*
X360697857Y-61464285D01*
X360769285Y-61178571D01*
X360769285Y-60678571D01*
X360697857Y-60392857D01*
X360555000Y-60250000D01*
X360412142Y-60178571D01*
X360126428Y-60178571D01*
X359983571Y-60250000D01*
X359840714Y-60392857D01*
X359769285Y-60678571D01*
X359769285Y-61178571D01*
X359840714Y-61464285D01*
X359983571Y-61607142D01*
X360126428Y-61678571D01*
X360412142Y-61678571D01*
X358340714Y-61678571D02*
X359197857Y-61678571D01*
X358769285Y-61678571D02*
X358769285Y-60178571D01*
X358912142Y-60392857D01*
X359055000Y-60535714D01*
X359197857Y-60607142D01*
X315269285Y-47250000D02*
X314555000Y-47250000D01*
X315412142Y-47678571D02*
X314912142Y-46178571D01*
X314412142Y-47678571D01*
X313269285Y-46678571D02*
X313269285Y-47678571D01*
X313626428Y-46107142D02*
X313983571Y-47178571D01*
X313055000Y-47178571D01*
X105269285Y-47250000D02*
X104555000Y-47250000D01*
X105412142Y-47678571D02*
X104912142Y-46178571D01*
X104412142Y-47678571D01*
X103126428Y-47678571D02*
X103983571Y-47678571D01*
X103555000Y-47678571D02*
X103555000Y-46178571D01*
X103697857Y-46392857D01*
X103840714Y-46535714D01*
X103983571Y-46607142D01*
X102269285Y-46821428D02*
X102412142Y-46750000D01*
X102483571Y-46678571D01*
X102555000Y-46535714D01*
X102555000Y-46464285D01*
X102483571Y-46321428D01*
X102412142Y-46250000D01*
X102269285Y-46178571D01*
X101983571Y-46178571D01*
X101840714Y-46250000D01*
X101769285Y-46321428D01*
X101697857Y-46464285D01*
X101697857Y-46535714D01*
X101769285Y-46678571D01*
X101840714Y-46750000D01*
X101983571Y-46821428D01*
X102269285Y-46821428D01*
X102412142Y-46892857D01*
X102483571Y-46964285D01*
X102555000Y-47107142D01*
X102555000Y-47392857D01*
X102483571Y-47535714D01*
X102412142Y-47607142D01*
X102269285Y-47678571D01*
X101983571Y-47678571D01*
X101840714Y-47607142D01*
X101769285Y-47535714D01*
X101697857Y-47392857D01*
X101697857Y-47107142D01*
X101769285Y-46964285D01*
X101840714Y-46892857D01*
X101983571Y-46821428D01*
X120519285Y-47250000D02*
X119805000Y-47250000D01*
X120662142Y-47678571D02*
X120162142Y-46178571D01*
X119662142Y-47678571D01*
X118376428Y-47678571D02*
X119233571Y-47678571D01*
X118805000Y-47678571D02*
X118805000Y-46178571D01*
X118947857Y-46392857D01*
X119090714Y-46535714D01*
X119233571Y-46607142D01*
X117876428Y-46178571D02*
X116876428Y-46178571D01*
X117519285Y-47678571D01*
X135269285Y-47250000D02*
X134555000Y-47250000D01*
X135412142Y-47678571D02*
X134912142Y-46178571D01*
X134412142Y-47678571D01*
X133126428Y-47678571D02*
X133983571Y-47678571D01*
X133555000Y-47678571D02*
X133555000Y-46178571D01*
X133697857Y-46392857D01*
X133840714Y-46535714D01*
X133983571Y-46607142D01*
X131840714Y-46178571D02*
X132126428Y-46178571D01*
X132269285Y-46250000D01*
X132340714Y-46321428D01*
X132483571Y-46535714D01*
X132555000Y-46821428D01*
X132555000Y-47392857D01*
X132483571Y-47535714D01*
X132412142Y-47607142D01*
X132269285Y-47678571D01*
X131983571Y-47678571D01*
X131840714Y-47607142D01*
X131769285Y-47535714D01*
X131697857Y-47392857D01*
X131697857Y-47035714D01*
X131769285Y-46892857D01*
X131840714Y-46821428D01*
X131983571Y-46750000D01*
X132269285Y-46750000D01*
X132412142Y-46821428D01*
X132483571Y-46892857D01*
X132555000Y-47035714D01*
X150269285Y-47250000D02*
X149555000Y-47250000D01*
X150412142Y-47678571D02*
X149912142Y-46178571D01*
X149412142Y-47678571D01*
X148126428Y-47678571D02*
X148983571Y-47678571D01*
X148555000Y-47678571D02*
X148555000Y-46178571D01*
X148697857Y-46392857D01*
X148840714Y-46535714D01*
X148983571Y-46607142D01*
X146769285Y-46178571D02*
X147483571Y-46178571D01*
X147555000Y-46892857D01*
X147483571Y-46821428D01*
X147340714Y-46750000D01*
X146983571Y-46750000D01*
X146840714Y-46821428D01*
X146769285Y-46892857D01*
X146697857Y-47035714D01*
X146697857Y-47392857D01*
X146769285Y-47535714D01*
X146840714Y-47607142D01*
X146983571Y-47678571D01*
X147340714Y-47678571D01*
X147483571Y-47607142D01*
X147555000Y-47535714D01*
X165269285Y-47250000D02*
X164555000Y-47250000D01*
X165412142Y-47678571D02*
X164912142Y-46178571D01*
X164412142Y-47678571D01*
X163126428Y-47678571D02*
X163983571Y-47678571D01*
X163555000Y-47678571D02*
X163555000Y-46178571D01*
X163697857Y-46392857D01*
X163840714Y-46535714D01*
X163983571Y-46607142D01*
X161840714Y-46678571D02*
X161840714Y-47678571D01*
X162197857Y-46107142D02*
X162555000Y-47178571D01*
X161626428Y-47178571D01*
X180269285Y-47250000D02*
X179555000Y-47250000D01*
X180412142Y-47678571D02*
X179912142Y-46178571D01*
X179412142Y-47678571D01*
X178126428Y-47678571D02*
X178983571Y-47678571D01*
X178555000Y-47678571D02*
X178555000Y-46178571D01*
X178697857Y-46392857D01*
X178840714Y-46535714D01*
X178983571Y-46607142D01*
X177626428Y-46178571D02*
X176697857Y-46178571D01*
X177197857Y-46750000D01*
X176983571Y-46750000D01*
X176840714Y-46821428D01*
X176769285Y-46892857D01*
X176697857Y-47035714D01*
X176697857Y-47392857D01*
X176769285Y-47535714D01*
X176840714Y-47607142D01*
X176983571Y-47678571D01*
X177412142Y-47678571D01*
X177555000Y-47607142D01*
X177626428Y-47535714D01*
X195269285Y-47250000D02*
X194555000Y-47250000D01*
X195412142Y-47678571D02*
X194912142Y-46178571D01*
X194412142Y-47678571D01*
X193126428Y-47678571D02*
X193983571Y-47678571D01*
X193555000Y-47678571D02*
X193555000Y-46178571D01*
X193697857Y-46392857D01*
X193840714Y-46535714D01*
X193983571Y-46607142D01*
X192555000Y-46321428D02*
X192483571Y-46250000D01*
X192340714Y-46178571D01*
X191983571Y-46178571D01*
X191840714Y-46250000D01*
X191769285Y-46321428D01*
X191697857Y-46464285D01*
X191697857Y-46607142D01*
X191769285Y-46821428D01*
X192626428Y-47678571D01*
X191697857Y-47678571D01*
X210269285Y-47250000D02*
X209555000Y-47250000D01*
X210412142Y-47678571D02*
X209912142Y-46178571D01*
X209412142Y-47678571D01*
X208126428Y-47678571D02*
X208983571Y-47678571D01*
X208555000Y-47678571D02*
X208555000Y-46178571D01*
X208697857Y-46392857D01*
X208840714Y-46535714D01*
X208983571Y-46607142D01*
X206697857Y-47678571D02*
X207555000Y-47678571D01*
X207126428Y-47678571D02*
X207126428Y-46178571D01*
X207269285Y-46392857D01*
X207412142Y-46535714D01*
X207555000Y-46607142D01*
X225269285Y-47250000D02*
X224555000Y-47250000D01*
X225412142Y-47678571D02*
X224912142Y-46178571D01*
X224412142Y-47678571D01*
X223126428Y-47678571D02*
X223983571Y-47678571D01*
X223555000Y-47678571D02*
X223555000Y-46178571D01*
X223697857Y-46392857D01*
X223840714Y-46535714D01*
X223983571Y-46607142D01*
X222197857Y-46178571D02*
X222055000Y-46178571D01*
X221912142Y-46250000D01*
X221840714Y-46321428D01*
X221769285Y-46464285D01*
X221697857Y-46750000D01*
X221697857Y-47107142D01*
X221769285Y-47392857D01*
X221840714Y-47535714D01*
X221912142Y-47607142D01*
X222055000Y-47678571D01*
X222197857Y-47678571D01*
X222340714Y-47607142D01*
X222412142Y-47535714D01*
X222483571Y-47392857D01*
X222555000Y-47107142D01*
X222555000Y-46750000D01*
X222483571Y-46464285D01*
X222412142Y-46321428D01*
X222340714Y-46250000D01*
X222197857Y-46178571D01*
X240269285Y-47250000D02*
X239555000Y-47250000D01*
X240412142Y-47678571D02*
X239912142Y-46178571D01*
X239412142Y-47678571D01*
X238840714Y-47678571D02*
X238555000Y-47678571D01*
X238412142Y-47607142D01*
X238340714Y-47535714D01*
X238197857Y-47321428D01*
X238126428Y-47035714D01*
X238126428Y-46464285D01*
X238197857Y-46321428D01*
X238269285Y-46250000D01*
X238412142Y-46178571D01*
X238697857Y-46178571D01*
X238840714Y-46250000D01*
X238912142Y-46321428D01*
X238983571Y-46464285D01*
X238983571Y-46821428D01*
X238912142Y-46964285D01*
X238840714Y-47035714D01*
X238697857Y-47107142D01*
X238412142Y-47107142D01*
X238269285Y-47035714D01*
X238197857Y-46964285D01*
X238126428Y-46821428D01*
X255519285Y-47250000D02*
X254805000Y-47250000D01*
X255662142Y-47678571D02*
X255162142Y-46178571D01*
X254662142Y-47678571D01*
X253947857Y-46821428D02*
X254090714Y-46750000D01*
X254162142Y-46678571D01*
X254233571Y-46535714D01*
X254233571Y-46464285D01*
X254162142Y-46321428D01*
X254090714Y-46250000D01*
X253947857Y-46178571D01*
X253662142Y-46178571D01*
X253519285Y-46250000D01*
X253447857Y-46321428D01*
X253376428Y-46464285D01*
X253376428Y-46535714D01*
X253447857Y-46678571D01*
X253519285Y-46750000D01*
X253662142Y-46821428D01*
X253947857Y-46821428D01*
X254090714Y-46892857D01*
X254162142Y-46964285D01*
X254233571Y-47107142D01*
X254233571Y-47392857D01*
X254162142Y-47535714D01*
X254090714Y-47607142D01*
X253947857Y-47678571D01*
X253662142Y-47678571D01*
X253519285Y-47607142D01*
X253447857Y-47535714D01*
X253376428Y-47392857D01*
X253376428Y-47107142D01*
X253447857Y-46964285D01*
X253519285Y-46892857D01*
X253662142Y-46821428D01*
X270269285Y-47250000D02*
X269555000Y-47250000D01*
X270412142Y-47678571D02*
X269912142Y-46178571D01*
X269412142Y-47678571D01*
X269055000Y-46178571D02*
X268055000Y-46178571D01*
X268697857Y-47678571D01*
X285519285Y-47250000D02*
X284805000Y-47250000D01*
X285662142Y-47678571D02*
X285162142Y-46178571D01*
X284662142Y-47678571D01*
X283519285Y-46178571D02*
X283805000Y-46178571D01*
X283947857Y-46250000D01*
X284019285Y-46321428D01*
X284162142Y-46535714D01*
X284233571Y-46821428D01*
X284233571Y-47392857D01*
X284162142Y-47535714D01*
X284090714Y-47607142D01*
X283947857Y-47678571D01*
X283662142Y-47678571D01*
X283519285Y-47607142D01*
X283447857Y-47535714D01*
X283376428Y-47392857D01*
X283376428Y-47035714D01*
X283447857Y-46892857D01*
X283519285Y-46821428D01*
X283662142Y-46750000D01*
X283947857Y-46750000D01*
X284090714Y-46821428D01*
X284162142Y-46892857D01*
X284233571Y-47035714D01*
X300269285Y-47250000D02*
X299555000Y-47250000D01*
X300412142Y-47678571D02*
X299912142Y-46178571D01*
X299412142Y-47678571D01*
X298197857Y-46178571D02*
X298912142Y-46178571D01*
X298983571Y-46892857D01*
X298912142Y-46821428D01*
X298769285Y-46750000D01*
X298412142Y-46750000D01*
X298269285Y-46821428D01*
X298197857Y-46892857D01*
X298126428Y-47035714D01*
X298126428Y-47392857D01*
X298197857Y-47535714D01*
X298269285Y-47607142D01*
X298412142Y-47678571D01*
X298769285Y-47678571D01*
X298912142Y-47607142D01*
X298983571Y-47535714D01*
X330269285Y-47250000D02*
X329555000Y-47250000D01*
X330412142Y-47678571D02*
X329912142Y-46178571D01*
X329412142Y-47678571D01*
X329055000Y-46178571D02*
X328126428Y-46178571D01*
X328626428Y-46750000D01*
X328412142Y-46750000D01*
X328269285Y-46821428D01*
X328197857Y-46892857D01*
X328126428Y-47035714D01*
X328126428Y-47392857D01*
X328197857Y-47535714D01*
X328269285Y-47607142D01*
X328412142Y-47678571D01*
X328840714Y-47678571D01*
X328983571Y-47607142D01*
X329055000Y-47535714D01*
X345269285Y-47250000D02*
X344555000Y-47250000D01*
X345412142Y-47678571D02*
X344912142Y-46178571D01*
X344412142Y-47678571D01*
X343983571Y-46321428D02*
X343912142Y-46250000D01*
X343769285Y-46178571D01*
X343412142Y-46178571D01*
X343269285Y-46250000D01*
X343197857Y-46321428D01*
X343126428Y-46464285D01*
X343126428Y-46607142D01*
X343197857Y-46821428D01*
X344055000Y-47678571D01*
X343126428Y-47678571D01*
X360769285Y-47250000D02*
X360055000Y-47250000D01*
X360912142Y-47678571D02*
X360412142Y-46178571D01*
X359912142Y-47678571D01*
X358626428Y-47678571D02*
X359483571Y-47678571D01*
X359055000Y-47678571D02*
X359055000Y-46178571D01*
X359197857Y-46392857D01*
X359340714Y-46535714D01*
X359483571Y-46607142D01*
M02*
