M48
;DRILL file {KiCad (5.0.0)} date 09/22/19 13:40:36
;FORMAT={-:-/ absolute / inch / decimal}
FMAT,2
INCH,TZ
T1C0.0276
T2C0.0315
T3C0.0512
T4C0.1063
%
G90
G05
M72
T1
X3.2776Y-2.7953
X3.5776Y-2.7953
X9.2551Y-3.6795
X9.3551Y-3.6795
X4.5307Y-1.4748
X4.6307Y-1.4748
X8.6646Y-3.6795
X8.7646Y-3.6795
X10.4362Y-6.4354
X10.5362Y-6.4354
X12.2079Y-3.1283
X12.3079Y-3.1283
X12.2079Y-5.8843
X12.3079Y-5.8843
X13.9795Y-1.4748
X14.0795Y-1.4748
X8.074Y-5.8843
X8.174Y-5.8843
X12.1358Y-2.7953
X12.4358Y-2.7953
X5.6398Y-5.
X5.9398Y-5.
X7.4835Y-1.4748
X7.5835Y-1.4748
X8.074Y-4.7819
X8.174Y-4.7819
X9.1831Y-3.8976
X9.4831Y-3.8976
X6.2303Y-3.8976
X6.5303Y-3.8976
X9.8457Y-1.4748
X9.9457Y-1.4748
X11.0268Y-5.3331
X11.1268Y-5.3331
X12.7984Y-2.5772
X12.8984Y-2.5772
X8.5925Y-3.8976
X8.8925Y-3.8976
X7.4835Y-2.026
X7.5835Y-2.026
X9.2551Y-6.4354
X9.3551Y-6.4354
X6.8209Y-1.6929
X7.1209Y-1.6929
X11.6173Y-2.5772
X11.7173Y-2.5772
X10.9547Y-6.1024
X11.2547Y-6.1024
X9.2551Y-2.026
X9.3551Y-2.026
X6.3024Y-4.7819
X6.4024Y-4.7819
X10.9449Y-3.3465
X11.2449Y-3.3465
X9.8457Y-2.5772
X9.9457Y-2.5772
X10.3642Y-6.1024
X10.6642Y-6.1024
X6.8209Y-6.6535
X7.1209Y-6.6535
X5.7118Y-1.4748
X5.8118Y-1.4748
X4.4587Y-1.6929
X4.7587Y-1.6929
X12.7264Y-6.1024
X13.0264Y-6.1024
X13.3169Y-6.6535
X13.6169Y-6.6535
X5.7118Y-2.5772
X5.8118Y-2.5772
X10.3642Y-6.6535
X10.6642Y-6.6535
X9.1831Y-1.6929
X9.4831Y-1.6929
X3.2776Y-2.2441
X3.5776Y-2.2441
X13.9075Y-2.2441
X14.2075Y-2.2441
X6.8209Y-2.2441
X7.1209Y-2.2441
X14.498Y-2.2441
X14.798Y-2.2441
X11.0268Y-3.6795
X11.1268Y-3.6795
X11.6173Y-6.4354
X11.7173Y-6.4354
X6.8929Y-3.6795
X6.9929Y-3.6795
X14.5701Y-6.4354
X14.6701Y-6.4354
X10.4362Y-3.1283
X10.5362Y-3.1283
X12.7984Y-5.8843
X12.8984Y-5.8843
X9.7736Y-2.7953
X10.0736Y-2.7953
X13.3169Y-5.
X13.6169Y-5.
X8.6646Y-3.1283
X8.7646Y-3.1283
X5.7118Y-4.7819
X5.8118Y-4.7819
X10.3642Y-2.7953
X10.6642Y-2.7953
X12.7264Y-5.
X13.0264Y-5.
X11.0268Y-1.4748
X11.1268Y-1.4748
X12.7984Y-3.6795
X12.8984Y-3.6795
X13.9075Y-5.
X14.2075Y-5.
X3.8681Y-3.8976
X4.1681Y-3.8976
X3.3496Y-2.5772
X3.4496Y-2.5772
X14.5701Y-3.6795
X14.6701Y-3.6795
X8.002Y-3.8976
X8.302Y-3.8976
X9.2551Y-1.4748
X9.3551Y-1.4748
X3.9402Y-5.8843
X4.0402Y-5.8843
X7.4114Y-3.3465
X7.7114Y-3.3465
X9.7736Y-5.5512
X10.0736Y-5.5512
X6.8929Y-1.4748
X6.9929Y-1.4748
X12.2079Y-3.6795
X12.3079Y-3.6795
X6.8209Y-3.3465
X7.1209Y-3.3465
X11.0268Y-2.5772
X11.1268Y-2.5772
X5.6398Y-6.6535
X5.9398Y-6.6535
X12.7264Y-6.6535
X13.0264Y-6.6535
X6.3024Y-2.026
X6.4024Y-2.026
X10.3543Y-3.3465
X10.6543Y-3.3465
X8.5925Y-6.1024
X8.8925Y-6.1024
X13.9075Y-6.6535
X14.2075Y-6.6535
X14.5701Y-1.4748
X14.6701Y-1.4748
X8.074Y-2.5772
X8.174Y-2.5772
X7.4114Y-6.6535
X7.7114Y-6.6535
X10.9547Y-1.6929
X11.2547Y-1.6929
X12.7264Y-1.6929
X13.0264Y-1.6929
X12.7264Y-2.2441
X13.0264Y-2.2441
X8.5925Y-2.2441
X8.8925Y-2.2441
X9.8457Y-3.6795
X9.9457Y-3.6795
X12.7984Y-6.4354
X12.8984Y-6.4354
X3.9402Y-3.6795
X4.0402Y-3.6795
X8.6646Y-6.4354
X8.7646Y-6.4354
X9.8457Y-3.1283
X9.9457Y-3.1283
X13.389Y-5.8843
X13.489Y-5.8843
X13.3169Y-2.7953
X13.6169Y-2.7953
X8.002Y-5.
X8.302Y-5.
X8.074Y-3.1283
X8.174Y-3.1283
X3.9402Y-5.3331
X4.0402Y-5.3331
X9.1831Y-2.7953
X9.4831Y-2.7953
X10.3642Y-5.
X10.6642Y-5.
X8.074Y-1.4748
X8.174Y-1.4748
X11.6173Y-3.6795
X11.7173Y-3.6795
X8.5925Y-2.7953
X8.8925Y-2.7953
X9.7736Y-3.8976
X10.0736Y-3.8976
X5.6398Y-3.8976
X5.9398Y-3.8976
X8.6646Y-1.4748
X8.7646Y-1.4748
X12.7984Y-4.7819
X12.8984Y-4.7819
X10.9547Y-3.8976
X11.2547Y-3.8976
X6.8929Y-2.5772
X6.9929Y-2.5772
X5.1213Y-6.4354
X5.2213Y-6.4354
X5.6398Y-1.6929
X5.9398Y-1.6929
X12.2079Y-2.5772
X12.3079Y-2.5772
X9.7736Y-6.1024
X10.0736Y-6.1024
X6.8929Y-2.026
X6.9929Y-2.026
X9.1732Y-3.3465
X9.4732Y-3.3465
X13.389Y-2.5772
X13.489Y-2.5772
X12.1358Y-6.6535
X12.4358Y-6.6535
X11.5453Y-2.7953
X11.8453Y-2.7953
X9.8457Y-2.026
X9.9457Y-2.026
X5.6398Y-3.3465
X5.9398Y-3.3465
X11.5453Y-6.6535
X11.8453Y-6.6535
X8.074Y-2.026
X8.174Y-2.026
X9.7736Y-1.6929
X10.0736Y-1.6929
X7.4114Y-1.6929
X7.7114Y-1.6929
X12.1358Y-2.2441
X12.4358Y-2.2441
X5.6398Y-2.7953
X5.9398Y-2.7953
X8.074Y-3.6795
X8.174Y-3.6795
X10.4362Y-3.6795
X10.5362Y-3.6795
X12.2079Y-6.4354
X12.3079Y-6.4354
X14.5701Y-3.1283
X14.6701Y-3.1283
X7.4835Y-6.4354
X7.5835Y-6.4354
X9.2551Y-3.1283
X9.3551Y-3.1283
X13.9795Y-5.8843
X14.0795Y-5.8843
X8.002Y-2.7953
X8.302Y-2.7953
X5.0492Y-5.
X5.3492Y-5.
X12.7984Y-1.4748
X12.8984Y-1.4748
X9.8457Y-5.3331
X9.9457Y-5.3331
X6.2303Y-5.
X6.5303Y-5.
X7.4114Y-3.8976
X7.7114Y-3.8976
X12.2079Y-1.4748
X12.3079Y-1.4748
X10.4362Y-4.7819
X10.5362Y-4.7819
X3.8681Y-4.4488
X4.1681Y-4.4488
X12.126Y-3.3465
X12.426Y-3.3465
X3.3496Y-2.026
X3.4496Y-2.026
X3.9402Y-4.2307
X4.0402Y-4.2307
X13.9075Y-3.8976
X14.2075Y-3.8976
X11.6173Y-1.4748
X11.7173Y-1.4748
X11.6173Y-5.8843
X11.7173Y-5.8843
X4.4587Y-3.3465
X4.7587Y-3.3465
X9.1831Y-6.1024
X9.4831Y-6.1024
X13.9795Y-2.026
X14.0795Y-2.026
X6.2303Y-1.6929
X6.5303Y-1.6929
X13.9795Y-2.5772
X14.0795Y-2.5772
X12.1358Y-6.1024
X12.4358Y-6.1024
X7.4835Y-2.5772
X7.5835Y-2.5772
X10.9547Y-6.6535
X11.2547Y-6.6535
X4.5307Y-2.026
X4.6307Y-2.026
X10.3642Y-1.6929
X10.6642Y-1.6929
X11.5453Y-1.6929
X11.8453Y-1.6929
X14.498Y-1.6929
X14.798Y-1.6929
X11.5453Y-2.2441
X11.8453Y-2.2441
X8.002Y-2.2441
X8.302Y-2.2441
X13.389Y-3.6795
X13.489Y-3.6795
X5.7118Y-3.6795
X5.8118Y-3.6795
X11.0268Y-6.4354
X11.1268Y-6.4354
X13.9795Y-3.1283
X14.0795Y-3.1283
X11.0268Y-5.8843
X11.1268Y-5.8843
X4.5307Y-3.1283
X4.6307Y-3.1283
X10.4362Y-5.8843
X10.5362Y-5.8843
X7.4114Y-2.7953
X7.7114Y-2.7953
X8.5925Y-5.
X8.8925Y-5.
X5.1213Y-3.1283
X5.2213Y-3.1283
X13.9795Y-4.7819
X14.0795Y-4.7819
X14.498Y-2.7953
X14.798Y-2.7953
X12.7264Y-3.8976
X13.0264Y-3.8976
X10.3642Y-3.8976
X10.6642Y-3.8976
X10.4362Y-1.4748
X10.5362Y-1.4748
X5.1213Y-4.7819
X5.2213Y-4.7819
X13.9075Y-2.7953
X14.2075Y-2.7953
X9.7736Y-5.
X10.0736Y-5.
X13.3169Y-3.8976
X13.6169Y-3.8976
X4.5307Y-2.5772
X4.6307Y-2.5772
X9.8457Y-6.4354
X9.9457Y-6.4354
X11.5453Y-3.8976
X11.8453Y-3.8976
X11.6173Y-2.026
X11.7173Y-2.026
X9.8457Y-5.8843
X9.9457Y-5.8843
X9.7638Y-3.3465
X10.0638Y-3.3465
X10.3642Y-5.5512
X10.6642Y-5.5512
X6.3024Y-3.1283
X6.4024Y-3.1283
X8.5925Y-3.3465
X8.8925Y-3.3465
X3.8681Y-6.1024
X4.1681Y-6.1024
X9.1831Y-6.6535
X9.4831Y-6.6535
X8.6646Y-2.026
X8.7646Y-2.026
X8.5925Y-6.6535
X8.8925Y-6.6535
X13.389Y-2.026
X13.489Y-2.026
X8.5925Y-1.6929
X8.8925Y-1.6929
X13.9075Y-1.6929
X14.2075Y-1.6929
X5.0492Y-2.2441
X5.3492Y-2.2441
X13.3169Y-2.2441
X13.6169Y-2.2441
X10.9547Y-2.2441
X11.2547Y-2.2441
X5.0492Y-2.7953
X5.3492Y-2.7953
X6.3024Y-3.6795
X6.4024Y-3.6795
X12.7984Y-3.1283
X12.8984Y-3.1283
X13.389Y-6.4354
X13.489Y-6.4354
X11.6173Y-3.1283
X11.7173Y-3.1283
X14.5701Y-5.8843
X14.6701Y-5.8843
X7.4835Y-3.1283
X7.5835Y-3.1283
X9.2551Y-5.8843
X9.3551Y-5.8843
X6.2303Y-2.7953
X6.5303Y-2.7953
X3.8681Y-5.5512
X4.1681Y-5.5512
X5.1213Y-1.4748
X5.2213Y-1.4748
X8.6646Y-4.7819
X8.7646Y-4.7819
X10.9547Y-2.7953
X11.2547Y-2.7953
X12.1358Y-3.8976
X12.4358Y-3.8976
X13.3071Y-3.3465
X13.6071Y-3.3465
X5.7118Y-2.026
X5.8118Y-2.026
X9.8457Y-4.7819
X9.9457Y-4.7819
X8.6646Y-2.5772
X8.7646Y-2.5772
X11.5354Y-3.3465
X11.8354Y-3.3465
X12.2079Y-2.026
X12.3079Y-2.026
X6.8929Y-6.4354
X6.9929Y-6.4354
X14.4882Y-3.3465
X14.7882Y-3.3465
X11.5453Y-6.1024
X11.8453Y-6.1024
X5.1213Y-2.026
X5.2213Y-2.026
X11.0268Y-4.7819
X11.1268Y-4.7819
X5.0492Y-1.6929
X5.3492Y-1.6929
X10.9547Y-5.5512
X11.2547Y-5.5512
X6.3024Y-2.5772
X6.4024Y-2.5772
X6.2303Y-3.3465
X6.5303Y-3.3465
X14.5701Y-2.5772
X14.6701Y-2.5772
X8.002Y-6.1024
X8.302Y-6.1024
X5.0492Y-6.6535
X5.3492Y-6.6535
X11.0268Y-2.026
X11.1268Y-2.026
X9.7736Y-6.6535
X10.0736Y-6.6535
X5.1213Y-2.5772
X5.2213Y-2.5772
X4.4587Y-2.2441
X4.7587Y-2.2441
X8.002Y-1.6929
X8.302Y-1.6929
X6.2303Y-2.2441
X6.5303Y-2.2441
X9.7736Y-2.2441
X10.0736Y-2.2441
X10.3642Y-2.2441
X10.6642Y-2.2441
X4.4587Y-2.7953
X4.7587Y-2.7953
X7.4835Y-3.6795
X7.5835Y-3.6795
X11.0268Y-3.1283
X11.1268Y-3.1283
X5.7118Y-6.4354
X5.8118Y-6.4354
X13.389Y-3.1283
X13.489Y-3.1283
X10.4362Y-5.3331
X10.5362Y-5.3331
X6.8929Y-3.1283
X6.9929Y-3.1283
X8.6646Y-5.8843
X8.7646Y-5.8843
X6.8209Y-2.7953
X7.1209Y-2.7953
X6.8209Y-5.
X7.1209Y-5.
X6.3024Y-1.4748
X6.4024Y-1.4748
X6.8929Y-4.7819
X6.9929Y-4.7819
X12.7264Y-2.7953
X13.0264Y-2.7953
X10.9547Y-5.
X11.2547Y-5.
X14.498Y-3.8976
X14.798Y-3.8976
X13.389Y-1.4748
X13.489Y-1.4748
X13.9795Y-3.6795
X14.0795Y-3.6795
X9.2551Y-2.5772
X9.3551Y-2.5772
X6.8209Y-3.8976
X7.1209Y-3.8976
X14.5701Y-2.026
X14.6701Y-2.026
X13.9795Y-6.4354
X14.0795Y-6.4354
X12.7165Y-3.3465
X13.0165Y-3.3465
X10.4362Y-2.5772
X10.5362Y-2.5772
X13.8976Y-3.3465
X14.1976Y-3.3465
X14.498Y-6.1024
X14.798Y-6.1024
X10.4362Y-2.026
X10.5362Y-2.026
X13.389Y-4.7819
X13.489Y-4.7819
X5.0492Y-3.3465
X5.3492Y-3.3465
X13.9075Y-6.1024
X14.2075Y-6.1024
X5.7118Y-3.1283
X5.8118Y-3.1283
X8.002Y-3.3465
X8.302Y-3.3465
X13.3169Y-6.1024
X13.6169Y-6.1024
X14.498Y-6.6535
X14.798Y-6.6535
X12.7984Y-2.026
X12.8984Y-2.026
X13.3169Y-1.6929
X13.6169Y-1.6929
X5.6398Y-2.2441
X5.9398Y-2.2441
X12.1358Y-1.6929
X12.4358Y-1.6929
X7.4114Y-2.2441
X7.7114Y-2.2441
X9.1831Y-2.2441
X9.4831Y-2.2441
T2
X13.1791Y-2.5953
X13.1791Y-2.6953
X13.1791Y-2.7953
X9.0551Y-3.1465
X9.0551Y-3.2465
X9.0551Y-3.3465
X14.3701Y-2.0441
X14.3701Y-2.1441
X14.3701Y-2.2441
X10.8268Y-3.1465
X10.8268Y-3.2465
X10.8268Y-3.3465
X6.6929Y-4.8
X6.6929Y-4.9
X6.6929Y-5.
X14.3701Y-6.4535
X14.3701Y-6.5535
X14.3701Y-6.6535
X3.1496Y-2.0441
X3.1496Y-2.1441
X3.1496Y-2.2441
X12.5984Y-3.6976
X12.5984Y-3.7976
X12.5984Y-3.8976
X8.4646Y-5.9024
X8.4646Y-6.0024
X8.4646Y-6.1024
X13.7795Y-1.4929
X13.7795Y-1.5929
X13.7795Y-1.6929
X7.874Y-3.1465
X7.874Y-3.2465
X7.874Y-3.3465
X12.5984Y-4.8
X12.5984Y-4.9
X12.5984Y-5.
X7.874Y-2.0441
X7.874Y-2.1441
X7.874Y-2.2441
X5.5118Y-4.8
X5.5118Y-4.9
X5.5118Y-5.
X5.5118Y-2.0441
X5.5118Y-2.1441
X5.5118Y-2.2441
X11.4173Y-6.4535
X11.4173Y-6.5535
X11.4173Y-6.6535
X6.1024Y-1.5028
X6.1024Y-1.6028
X6.1024Y-1.7028
X10.2362Y-6.4535
X10.2362Y-6.5535
X10.2362Y-6.6535
X14.3602Y-2.5953
X14.3602Y-2.6953
X14.3602Y-2.7953
X11.4075Y-2.5953
X11.4075Y-2.6953
X11.4075Y-2.7953
X8.4547Y-2.5953
X8.4547Y-2.6953
X8.4547Y-2.7953
X9.6457Y-3.1465
X9.6457Y-3.2465
X9.6457Y-3.3465
X8.4646Y-3.6976
X8.4646Y-3.7976
X8.4646Y-3.8976
X13.7795Y-3.1465
X13.7795Y-3.2465
X13.7795Y-3.3465
X10.2362Y-5.3512
X10.2362Y-5.4512
X10.2362Y-5.5512
X12.5984Y-1.4889
X12.5984Y-1.5889
X12.5984Y-1.6889
X6.1024Y-4.8
X6.1024Y-4.9
X6.1024Y-5.
X8.4646Y-6.4535
X8.4646Y-6.5535
X8.4646Y-6.6535
X8.4646Y-2.0441
X8.4646Y-2.1441
X8.4646Y-2.2441
X8.4646Y-4.8
X8.4646Y-4.9
X8.4646Y-5.
X13.189Y-6.4535
X13.189Y-6.5535
X13.189Y-6.6535
X4.9213Y-3.1465
X4.9213Y-3.2465
X4.9213Y-3.3465
X5.5118Y-6.4535
X5.5118Y-6.5535
X5.5118Y-6.6535
X14.3701Y-1.4929
X14.3701Y-1.5929
X14.3701Y-1.6929
X14.3701Y-5.9024
X14.3701Y-6.0024
X14.3701Y-6.1024
X10.2362Y-1.4929
X10.2362Y-1.5929
X10.2362Y-1.6929
X12.5984Y-2.0441
X12.5984Y-2.1441
X12.5984Y-2.2441
X5.502Y-2.5953
X5.502Y-2.6953
X5.502Y-2.7953
X13.7795Y-3.6976
X13.7795Y-3.7976
X13.7795Y-3.8976
X6.0925Y-2.5953
X6.0925Y-2.6953
X6.0925Y-2.7953
X12.5984Y-3.1465
X12.5984Y-3.2465
X12.5984Y-3.3465
X5.5118Y-3.6976
X5.5118Y-3.7976
X5.5118Y-3.8976
X11.4173Y-5.9024
X11.4173Y-6.0024
X11.4173Y-6.1024
X11.4173Y-1.4929
X11.4173Y-1.5929
X11.4173Y-1.6929
X14.3701Y-3.6976
X14.3701Y-3.7976
X14.3701Y-3.8976
X10.8268Y-5.3512
X10.8268Y-5.4512
X10.8268Y-5.5512
X4.3307Y-2.0441
X4.3307Y-2.1441
X4.3307Y-2.2441
X6.6929Y-3.1465
X6.6929Y-3.2465
X6.6929Y-3.3465
X9.6457Y-4.8
X9.6457Y-4.9
X9.6457Y-5.
X7.2835Y-2.0441
X7.2835Y-2.1441
X7.2835Y-2.2441
X10.8268Y-4.8
X10.8268Y-4.9
X10.8268Y-5.
X8.4646Y-3.1465
X8.4646Y-3.2465
X8.4646Y-3.3465
X6.6929Y-6.4535
X6.6929Y-6.5535
X6.6929Y-6.6535
X4.9213Y-2.0441
X4.9213Y-2.1441
X4.9213Y-2.2441
X4.3307Y-1.5028
X4.3307Y-1.6028
X4.3307Y-1.7028
X10.8268Y-6.4535
X10.8268Y-6.5535
X10.8268Y-6.6535
X7.8642Y-2.5953
X7.8642Y-2.6953
X7.8642Y-2.7953
X12.0079Y-2.0441
X12.0079Y-2.1441
X12.0079Y-2.2441
X12.5886Y-2.5953
X12.5886Y-2.6953
X12.5886Y-2.7953
X10.2362Y-3.1465
X10.2362Y-3.2465
X10.2362Y-3.3465
X9.0453Y-2.5953
X9.0453Y-2.6953
X9.0453Y-2.7953
X6.1024Y-3.6976
X6.1024Y-3.7976
X6.1024Y-3.8976
X3.7402Y-3.6976
X3.7402Y-3.7976
X3.7402Y-3.8976
X9.0551Y-5.9024
X9.0551Y-6.0024
X9.0551Y-6.1024
X9.6457Y-1.4929
X9.6457Y-1.5929
X9.6457Y-1.6929
X3.7402Y-4.2488
X3.7402Y-4.3488
X3.7402Y-4.4488
X3.7402Y-5.9024
X3.7402Y-6.0024
X3.7402Y-6.1024
X5.5118Y-1.5028
X5.5118Y-1.6028
X5.5118Y-1.7028
X10.2362Y-3.6976
X10.2362Y-3.7976
X10.2362Y-3.8976
X9.0551Y-6.4535
X9.0551Y-6.5535
X9.0551Y-6.6535
X6.1024Y-2.0441
X6.1024Y-2.1441
X6.1024Y-2.2441
X10.2362Y-4.8
X10.2362Y-4.9
X10.2362Y-5.
X7.2835Y-1.4929
X7.2835Y-1.5929
X7.2835Y-1.6929
X12.0079Y-5.9024
X12.0079Y-6.0024
X12.0079Y-6.1024
X11.4173Y-2.0441
X11.4173Y-2.1441
X11.4173Y-2.2441
X13.7795Y-2.0441
X13.7795Y-2.1441
X13.7795Y-2.2441
X6.6831Y-2.5953
X6.6831Y-2.6953
X6.6831Y-2.7953
X11.998Y-2.5953
X11.998Y-2.6953
X11.998Y-2.7953
X10.8169Y-2.5953
X10.8169Y-2.6953
X10.8169Y-2.7953
X6.1024Y-3.1465
X6.1024Y-3.2465
X6.1024Y-3.3465
X9.6358Y-2.5953
X9.6358Y-2.6953
X9.6358Y-2.7953
X13.189Y-3.1465
X13.189Y-3.2465
X13.189Y-3.3465
X4.3209Y-2.5953
X4.3209Y-2.6953
X4.3209Y-2.7953
X11.4173Y-3.6976
X11.4173Y-3.7976
X11.4173Y-3.8976
X10.8268Y-3.6976
X10.8268Y-3.7976
X10.8268Y-3.8976
X12.5984Y-6.4535
X12.5984Y-6.5535
X12.5984Y-6.6535
X7.874Y-1.4929
X7.874Y-1.5929
X7.874Y-1.6929
X9.6457Y-3.6976
X9.6457Y-3.7976
X9.6457Y-3.8976
X10.8268Y-5.9024
X10.8268Y-6.0024
X10.8268Y-6.1024
X10.2362Y-2.0441
X10.2362Y-2.1441
X10.2362Y-2.2441
X13.189Y-3.6976
X13.189Y-3.7976
X13.189Y-3.8976
X13.189Y-4.8
X13.189Y-4.9
X13.189Y-5.
X4.3307Y-3.1465
X4.3307Y-3.2465
X4.3307Y-3.3465
X3.7402Y-5.3512
X3.7402Y-5.4512
X3.7402Y-5.5512
X9.0551Y-1.4929
X9.0551Y-1.5929
X9.0551Y-1.6929
X10.2362Y-5.9024
X10.2362Y-6.0024
X10.2362Y-6.1024
X10.8268Y-2.0441
X10.8268Y-2.1441
X10.8268Y-2.2441
X4.9114Y-2.5953
X4.9114Y-2.6953
X4.9114Y-2.7953
X13.189Y-2.0441
X13.189Y-2.1441
X13.189Y-2.2441
X7.874Y-4.8
X7.874Y-4.9
X7.874Y-5.
X3.1496Y-2.5953
X3.1496Y-2.6953
X3.1496Y-2.7953
X11.4173Y-3.1465
X11.4173Y-3.2465
X11.4173Y-3.3465
X9.0551Y-3.6976
X9.0551Y-3.7976
X9.0551Y-3.8976
X5.5118Y-3.1465
X5.5118Y-3.2465
X5.5118Y-3.3465
X14.3701Y-3.1465
X14.3701Y-3.2465
X14.3701Y-3.3465
X13.189Y-5.9024
X13.189Y-6.0024
X13.189Y-6.1024
X7.2835Y-3.1465
X7.2835Y-3.2465
X7.2835Y-3.3465
X6.6929Y-3.6976
X6.6929Y-3.7976
X6.6929Y-3.8976
X13.7795Y-6.4535
X13.7795Y-6.5535
X13.7795Y-6.6535
X9.6457Y-2.0441
X9.6457Y-2.1441
X9.6457Y-2.2441
X4.9213Y-6.4535
X4.9213Y-6.5535
X4.9213Y-6.6535
X4.9213Y-1.5028
X4.9213Y-1.6028
X4.9213Y-1.7028
X13.7795Y-5.9024
X13.7795Y-6.0024
X13.7795Y-6.1024
X13.189Y-1.4929
X13.189Y-1.5929
X13.189Y-1.6929
X9.6457Y-5.9024
X9.6457Y-6.0024
X9.6457Y-6.1024
X6.6929Y-2.0441
X6.6929Y-2.1441
X6.6929Y-2.2441
X10.2264Y-2.5953
X10.2264Y-2.6953
X10.2264Y-2.7953
X13.7697Y-2.5953
X13.7697Y-2.6953
X13.7697Y-2.7953
X13.7795Y-4.8
X13.7795Y-4.9
X13.7795Y-5.
X7.2736Y-2.5953
X7.2736Y-2.6953
X7.2736Y-2.7953
X7.2835Y-3.6976
X7.2835Y-3.7976
X7.2835Y-3.8976
X12.0079Y-3.1465
X12.0079Y-3.2465
X12.0079Y-3.3465
X12.0079Y-6.4535
X12.0079Y-6.5535
X12.0079Y-6.6535
X8.4646Y-1.4929
X8.4646Y-1.5929
X8.4646Y-1.6929
X7.874Y-3.6976
X7.874Y-3.7976
X7.874Y-3.8976
X7.874Y-5.9024
X7.874Y-6.0024
X7.874Y-6.1024
X6.6929Y-1.4929
X6.6929Y-1.5929
X6.6929Y-1.6929
X12.0079Y-3.6976
X12.0079Y-3.7976
X12.0079Y-3.8976
X12.5984Y-5.9024
X12.5984Y-6.0024
X12.5984Y-6.1024
X9.0551Y-2.0441
X9.0551Y-2.1441
X9.0551Y-2.2441
X4.9213Y-4.8
X4.9213Y-4.9
X4.9213Y-5.
X12.0079Y-1.4929
X12.0079Y-1.5929
X12.0079Y-1.6929
X9.6457Y-5.3512
X9.6457Y-5.4512
X9.6457Y-5.5512
X10.8268Y-1.4929
X10.8268Y-1.5929
X10.8268Y-1.6929
X7.2835Y-6.4535
X7.2835Y-6.5535
X7.2835Y-6.6535
X9.6457Y-6.4535
X9.6457Y-6.5535
X9.6457Y-6.6535
T3
X9.0551Y-2.3997
X9.6457Y-2.3997
X10.2362Y-2.3997
X10.8268Y-2.3997
X11.4173Y-2.3997
X12.0079Y-2.3997
X12.5984Y-2.3997
X13.189Y-2.3997
X13.7795Y-2.3997
X14.3701Y-2.3997
X3.1496Y-5.1575
X3.7402Y-5.1575
X4.3307Y-5.1575
X4.9213Y-5.1575
X5.5118Y-5.1575
X6.1024Y-5.1575
X6.6929Y-5.1575
X7.2835Y-5.1575
X7.874Y-5.1575
X8.4646Y-5.1575
X9.0551Y-6.811
X9.6457Y-6.811
X10.2362Y-6.811
X10.8268Y-6.811
X11.4173Y-6.811
X12.0079Y-6.811
X12.5984Y-6.811
X13.189Y-6.811
X13.7795Y-6.811
X14.3701Y-6.811
X3.1496Y-2.3997
X3.7402Y-2.3997
X4.3307Y-2.3997
X4.9213Y-2.3997
X5.5118Y-2.3997
X6.1024Y-2.3997
X6.6929Y-2.3997
X7.2835Y-2.3997
X7.874Y-2.3997
X8.4646Y-2.3997
X9.0551Y-5.7087
X9.6457Y-5.7087
X10.2362Y-5.7087
X10.8268Y-5.7087
X11.4173Y-5.7087
X12.0079Y-5.7087
X12.5984Y-5.7087
X13.189Y-5.7087
X13.7795Y-5.7087
X14.3701Y-5.7087
X3.1496Y-3.5039
X3.7402Y-3.5039
X4.3307Y-3.5039
X4.9213Y-3.5039
X5.5118Y-3.5039
X6.1024Y-3.5039
X6.6929Y-3.5039
X7.2835Y-3.5039
X7.874Y-3.5039
X8.4646Y-3.5039
X9.0551Y-2.9528
X9.6457Y-2.9528
X10.2362Y-2.9528
X10.8268Y-2.9528
X11.4173Y-2.9528
X12.0079Y-2.9528
X12.5984Y-2.9528
X13.189Y-2.9528
X13.7795Y-2.9528
X14.3701Y-2.9528
X9.0551Y-1.8504
X9.6457Y-1.8504
X10.2362Y-1.8504
X10.8268Y-1.8504
X11.4173Y-1.8504
X12.0079Y-1.8504
X12.5984Y-1.8504
X13.189Y-1.8504
X13.7795Y-1.8504
X14.3701Y-1.8504
X3.1496Y-6.2598
X3.7402Y-6.2598
X4.3307Y-6.2598
X4.9213Y-6.2598
X5.5118Y-6.2598
X6.1024Y-6.2598
X6.6929Y-6.2598
X7.2835Y-6.2598
X7.874Y-6.2598
X8.4646Y-6.2598
X2.5Y-3.0512
X2.5Y-3.2512
X2.5Y-3.4512
X3.1496Y-2.9528
X3.7402Y-2.9528
X4.3307Y-2.9528
X4.9213Y-2.9528
X5.5118Y-2.9528
X6.1024Y-2.9528
X6.6929Y-2.9528
X7.2835Y-2.9528
X7.874Y-2.9528
X8.4646Y-2.9528
X3.1496Y-4.6063
X3.7402Y-4.6063
X4.3307Y-4.6063
X4.9213Y-4.6063
X5.5118Y-4.6063
X6.1024Y-4.6063
X6.6929Y-4.6063
X7.2835Y-4.6063
X7.874Y-4.6063
X8.4646Y-4.6063
X2.5Y-4.7146
X2.5Y-4.9146
X2.5Y-5.1146
X3.1496Y-4.0551
X3.7402Y-4.0551
X4.3307Y-4.0551
X4.9213Y-4.0551
X5.5118Y-4.0551
X6.1024Y-4.0551
X6.6929Y-4.0551
X7.2835Y-4.0551
X7.874Y-4.0551
X8.4646Y-4.0551
X9.0551Y-3.5039
X9.6457Y-3.5039
X10.2362Y-3.5039
X10.8268Y-3.5039
X11.4173Y-3.5039
X12.0079Y-3.5039
X12.5984Y-3.5039
X13.189Y-3.5039
X13.7795Y-3.5039
X14.3701Y-3.5039
X3.1496Y-5.7087
X3.7402Y-5.7087
X4.3307Y-5.7087
X4.9213Y-5.7087
X5.5118Y-5.7087
X6.1024Y-5.7087
X6.6929Y-5.7087
X7.2835Y-5.7087
X7.874Y-5.7087
X8.4646Y-5.7087
X2.5Y-5.8071
X2.5Y-6.0071
X2.5Y-6.2071
X2.4902Y-1.9685
X2.4902Y-2.1685
X2.4902Y-2.3685
X9.0551Y-4.0551
X9.6457Y-4.0551
X10.2362Y-4.0551
X10.8268Y-4.0551
X11.4173Y-4.0551
X12.0079Y-4.0551
X12.5984Y-4.0551
X13.189Y-4.0551
X13.7795Y-4.0551
X14.3701Y-4.0551
X9.0551Y-6.2598
X9.6457Y-6.2598
X10.2362Y-6.2598
X10.8268Y-6.2598
X11.4173Y-6.2598
X12.0079Y-6.2598
X12.5984Y-6.2598
X13.189Y-6.2598
X13.7795Y-6.2598
X14.3701Y-6.2598
X3.1496Y-1.8504
X3.7402Y-1.8504
X4.3307Y-1.8504
X4.9213Y-1.8504
X5.5118Y-1.8504
X6.1024Y-1.8504
X6.6929Y-1.8504
X7.2835Y-1.8504
X7.874Y-1.8504
X8.4646Y-1.8504
X9.0551Y-5.1575
X9.6457Y-5.1575
X10.2362Y-5.1575
X10.8268Y-5.1575
X11.4173Y-5.1575
X12.0079Y-5.1575
X12.5984Y-5.1575
X13.189Y-5.1575
X13.7795Y-5.1575
X14.3701Y-5.1575
X3.1496Y-6.811
X3.7402Y-6.811
X4.3307Y-6.811
X4.9213Y-6.811
X5.5118Y-6.811
X6.1024Y-6.811
X6.6929Y-6.811
X7.2835Y-6.811
X7.874Y-6.811
X8.4646Y-6.811
T4
X14.9606Y-6.8898
X2.3622Y-1.378
X2.3622Y-6.8898
X14.9606Y-1.378
X8.8583Y-4.4094
T0
M30
