G04 #@! TF.GenerationSoftware,KiCad,Pcbnew,(5.0.0)*
G04 #@! TF.CreationDate,2019-09-22T13:40:32+01:00*
G04 #@! TF.ProjectId,Displayv2,446973706C617976322E6B696361645F,rev?*
G04 #@! TF.SameCoordinates,Original*
G04 #@! TF.FileFunction,Soldermask,Bot*
G04 #@! TF.FilePolarity,Negative*
%FSLAX46Y46*%
G04 Gerber Fmt 4.6, Leading zero omitted, Abs format (unit mm)*
G04 Created by KiCad (PCBNEW (5.0.0)) date 09/22/19 13:40:32*
%MOMM*%
%LPD*%
G01*
G04 APERTURE LIST*
%ADD10O,1.400000X1.400000*%
%ADD11C,1.400000*%
%ADD12C,1.500000*%
%ADD13R,1.500000X1.500000*%
%ADD14R,2.600000X2.600000*%
%ADD15C,2.600000*%
%ADD16C,4.500000*%
G04 APERTURE END LIST*
D10*
G04 #@! TO.C,R56*
X300870000Y-71000000D03*
D11*
X293250000Y-71000000D03*
G04 #@! TD*
G04 #@! TO.C,R194*
X263250000Y-169000000D03*
D10*
X270870000Y-169000000D03*
G04 #@! TD*
D11*
G04 #@! TO.C,R201*
X368250000Y-169000000D03*
D10*
X375870000Y-169000000D03*
G04 #@! TD*
D11*
G04 #@! TO.C,R195*
X278250000Y-169000000D03*
D10*
X285870000Y-169000000D03*
G04 #@! TD*
D11*
G04 #@! TO.C,R185*
X128250000Y-169000000D03*
D10*
X135870000Y-169000000D03*
G04 #@! TD*
D11*
G04 #@! TO.C,R189*
X188250000Y-169000000D03*
D10*
X195870000Y-169000000D03*
G04 #@! TD*
D11*
G04 #@! TO.C,R192*
X233250000Y-169000000D03*
D10*
X240870000Y-169000000D03*
G04 #@! TD*
D11*
G04 #@! TO.C,R200*
X353250000Y-169000000D03*
D10*
X360870000Y-169000000D03*
G04 #@! TD*
D11*
G04 #@! TO.C,R193*
X248250000Y-169000000D03*
D10*
X255870000Y-169000000D03*
G04 #@! TD*
D11*
G04 #@! TO.C,R198*
X323250000Y-169000000D03*
D10*
X330870000Y-169000000D03*
G04 #@! TD*
D11*
G04 #@! TO.C,R191*
X218250000Y-169000000D03*
D10*
X225870000Y-169000000D03*
G04 #@! TD*
D11*
G04 #@! TO.C,R196*
X293250000Y-169000000D03*
D10*
X300870000Y-169000000D03*
G04 #@! TD*
D11*
G04 #@! TO.C,R199*
X338250000Y-169000000D03*
D10*
X345870000Y-169000000D03*
G04 #@! TD*
D11*
G04 #@! TO.C,R188*
X173250000Y-169000000D03*
D10*
X180870000Y-169000000D03*
G04 #@! TD*
D11*
G04 #@! TO.C,R197*
X308250000Y-169000000D03*
D10*
X315870000Y-169000000D03*
G04 #@! TD*
D11*
G04 #@! TO.C,R186*
X143250000Y-169000000D03*
D10*
X150870000Y-169000000D03*
G04 #@! TD*
D11*
G04 #@! TO.C,R181*
X368250000Y-155000000D03*
D10*
X375870000Y-155000000D03*
G04 #@! TD*
D11*
G04 #@! TO.C,R175*
X278250000Y-155000000D03*
D10*
X285870000Y-155000000D03*
G04 #@! TD*
D11*
G04 #@! TO.C,R174*
X263250000Y-155000000D03*
D10*
X270870000Y-155000000D03*
G04 #@! TD*
D11*
G04 #@! TO.C,R179*
X338250000Y-155000000D03*
D10*
X345870000Y-155000000D03*
G04 #@! TD*
D11*
G04 #@! TO.C,R180*
X353250000Y-155000000D03*
D10*
X360870000Y-155000000D03*
G04 #@! TD*
D11*
G04 #@! TO.C,R173*
X248250000Y-155000000D03*
D10*
X255870000Y-155000000D03*
G04 #@! TD*
D11*
G04 #@! TO.C,R176*
X293250000Y-155000000D03*
D10*
X300870000Y-155000000D03*
G04 #@! TD*
D11*
G04 #@! TO.C,R171*
X218250000Y-155000000D03*
D10*
X225870000Y-155000000D03*
G04 #@! TD*
D11*
G04 #@! TO.C,R178*
X323250000Y-155000000D03*
D10*
X330870000Y-155000000D03*
G04 #@! TD*
D11*
G04 #@! TO.C,R172*
X233250000Y-155000000D03*
D10*
X240870000Y-155000000D03*
G04 #@! TD*
D11*
G04 #@! TO.C,R163*
X98250000Y-155000000D03*
D10*
X105870000Y-155000000D03*
G04 #@! TD*
D11*
G04 #@! TO.C,R170*
X203250000Y-155000000D03*
D10*
X210870000Y-155000000D03*
G04 #@! TD*
D11*
G04 #@! TO.C,R177*
X308250000Y-155000000D03*
D10*
X315870000Y-155000000D03*
G04 #@! TD*
D11*
G04 #@! TO.C,R155*
X278250000Y-141000000D03*
D10*
X285870000Y-141000000D03*
G04 #@! TD*
D11*
G04 #@! TO.C,R154*
X263250000Y-141000000D03*
D10*
X270870000Y-141000000D03*
G04 #@! TD*
D11*
G04 #@! TO.C,R153*
X248250000Y-141000000D03*
D10*
X255870000Y-141000000D03*
G04 #@! TD*
D11*
G04 #@! TO.C,R143*
X98250000Y-141000000D03*
D10*
X105870000Y-141000000D03*
G04 #@! TD*
D11*
G04 #@! TO.C,R135*
X278250000Y-127000000D03*
D10*
X285870000Y-127000000D03*
G04 #@! TD*
D11*
G04 #@! TO.C,R139*
X338250000Y-127000000D03*
D10*
X345870000Y-127000000D03*
G04 #@! TD*
D11*
G04 #@! TO.C,R134*
X263250000Y-127000000D03*
D10*
X270870000Y-127000000D03*
G04 #@! TD*
D11*
G04 #@! TO.C,R140*
X353250000Y-127000000D03*
D10*
X360870000Y-127000000D03*
G04 #@! TD*
D11*
G04 #@! TO.C,R133*
X248250000Y-127000000D03*
D10*
X255870000Y-127000000D03*
G04 #@! TD*
D11*
G04 #@! TO.C,R138*
X323250000Y-127000000D03*
D10*
X330870000Y-127000000D03*
G04 #@! TD*
D11*
G04 #@! TO.C,R131*
X218250000Y-127000000D03*
D10*
X225870000Y-127000000D03*
G04 #@! TD*
D11*
G04 #@! TO.C,R126*
X143250000Y-127000000D03*
D10*
X150870000Y-127000000D03*
G04 #@! TD*
D11*
G04 #@! TO.C,R128*
X173250000Y-127000000D03*
D10*
X180870000Y-127000000D03*
G04 #@! TD*
D11*
G04 #@! TO.C,R125*
X128250000Y-127000000D03*
D10*
X135870000Y-127000000D03*
G04 #@! TD*
D11*
G04 #@! TO.C,R127*
X158250000Y-127000000D03*
D10*
X165870000Y-127000000D03*
G04 #@! TD*
D11*
G04 #@! TO.C,R130*
X203250000Y-127000000D03*
D10*
X210870000Y-127000000D03*
G04 #@! TD*
D11*
G04 #@! TO.C,R103*
X98250000Y-113000000D03*
D10*
X105870000Y-113000000D03*
G04 #@! TD*
D11*
G04 #@! TO.C,R93*
X248250000Y-99000000D03*
D10*
X255870000Y-99000000D03*
G04 #@! TD*
D11*
G04 #@! TO.C,R92*
X233250000Y-99000000D03*
D10*
X240870000Y-99000000D03*
G04 #@! TD*
D11*
G04 #@! TO.C,R97*
X308250000Y-99000000D03*
D10*
X315870000Y-99000000D03*
G04 #@! TD*
D11*
G04 #@! TO.C,R98*
X323250000Y-99000000D03*
D10*
X330870000Y-99000000D03*
G04 #@! TD*
D11*
G04 #@! TO.C,R99*
X338250000Y-99000000D03*
D10*
X345870000Y-99000000D03*
G04 #@! TD*
D11*
G04 #@! TO.C,R96*
X293250000Y-99000000D03*
D10*
X300870000Y-99000000D03*
G04 #@! TD*
D11*
G04 #@! TO.C,R101*
X368250000Y-99000000D03*
D10*
X375870000Y-99000000D03*
G04 #@! TD*
D11*
G04 #@! TO.C,R100*
X353250000Y-99000000D03*
D10*
X360870000Y-99000000D03*
G04 #@! TD*
D11*
G04 #@! TO.C,R94*
X263250000Y-99000000D03*
D10*
X270870000Y-99000000D03*
G04 #@! TD*
D11*
G04 #@! TO.C,R95*
X278250000Y-99000000D03*
D10*
X285870000Y-99000000D03*
G04 #@! TD*
D11*
G04 #@! TO.C,R86*
X143250000Y-99000000D03*
D10*
X150870000Y-99000000D03*
G04 #@! TD*
D11*
G04 #@! TO.C,R88*
X173250000Y-99000000D03*
D10*
X180870000Y-99000000D03*
G04 #@! TD*
D11*
G04 #@! TO.C,R91*
X218250000Y-99000000D03*
D10*
X225870000Y-99000000D03*
G04 #@! TD*
D11*
G04 #@! TO.C,R89*
X188250000Y-99000000D03*
D10*
X195870000Y-99000000D03*
G04 #@! TD*
D11*
G04 #@! TO.C,R90*
X203250000Y-99000000D03*
D10*
X210870000Y-99000000D03*
G04 #@! TD*
D11*
G04 #@! TO.C,R83*
X98250000Y-99000000D03*
D10*
X105870000Y-99000000D03*
G04 #@! TD*
D11*
G04 #@! TO.C,R87*
X158250000Y-99000000D03*
D10*
X165870000Y-99000000D03*
G04 #@! TD*
D11*
G04 #@! TO.C,R79*
X338000000Y-85000000D03*
D10*
X345620000Y-85000000D03*
G04 #@! TD*
D11*
G04 #@! TO.C,R77*
X308000000Y-85000000D03*
D10*
X315620000Y-85000000D03*
G04 #@! TD*
D11*
G04 #@! TO.C,R80*
X353000000Y-85000000D03*
D10*
X360620000Y-85000000D03*
G04 #@! TD*
D11*
G04 #@! TO.C,R81*
X368000000Y-85000000D03*
D10*
X375620000Y-85000000D03*
G04 #@! TD*
D11*
G04 #@! TO.C,R76*
X293000000Y-85000000D03*
D10*
X300620000Y-85000000D03*
G04 #@! TD*
D11*
G04 #@! TO.C,R78*
X323000000Y-85000000D03*
D10*
X330620000Y-85000000D03*
G04 #@! TD*
D11*
G04 #@! TO.C,R73*
X248000000Y-85000000D03*
D10*
X255620000Y-85000000D03*
G04 #@! TD*
D11*
G04 #@! TO.C,R72*
X233000000Y-85000000D03*
D10*
X240620000Y-85000000D03*
G04 #@! TD*
D11*
G04 #@! TO.C,R75*
X278000000Y-85000000D03*
D10*
X285620000Y-85000000D03*
G04 #@! TD*
D11*
G04 #@! TO.C,R74*
X263000000Y-85000000D03*
D10*
X270620000Y-85000000D03*
G04 #@! TD*
D11*
G04 #@! TO.C,R68*
X173250000Y-85000000D03*
D10*
X180870000Y-85000000D03*
G04 #@! TD*
D11*
G04 #@! TO.C,R64*
X113250000Y-85000000D03*
D10*
X120870000Y-85000000D03*
G04 #@! TD*
D11*
G04 #@! TO.C,R66*
X143250000Y-85000000D03*
D10*
X150870000Y-85000000D03*
G04 #@! TD*
D11*
G04 #@! TO.C,R65*
X128250000Y-85000000D03*
D10*
X135870000Y-85000000D03*
G04 #@! TD*
D11*
G04 #@! TO.C,R70*
X203250000Y-85000000D03*
D10*
X210870000Y-85000000D03*
G04 #@! TD*
D11*
G04 #@! TO.C,R69*
X188250000Y-85000000D03*
D10*
X195870000Y-85000000D03*
G04 #@! TD*
D11*
G04 #@! TO.C,R67*
X158250000Y-85000000D03*
D10*
X165870000Y-85000000D03*
G04 #@! TD*
D11*
G04 #@! TO.C,R71*
X218250000Y-85000000D03*
D10*
X225870000Y-85000000D03*
G04 #@! TD*
D11*
G04 #@! TO.C,R4*
X113250000Y-43000000D03*
D10*
X120870000Y-43000000D03*
G04 #@! TD*
D11*
G04 #@! TO.C,R5*
X128250000Y-43000000D03*
D10*
X135870000Y-43000000D03*
G04 #@! TD*
D11*
G04 #@! TO.C,R6*
X143250000Y-43000000D03*
D10*
X150870000Y-43000000D03*
G04 #@! TD*
D11*
G04 #@! TO.C,R7*
X158250000Y-43000000D03*
D10*
X165870000Y-43000000D03*
G04 #@! TD*
D11*
G04 #@! TO.C,R8*
X173250000Y-43000000D03*
D10*
X180870000Y-43000000D03*
G04 #@! TD*
D11*
G04 #@! TO.C,R9*
X188250000Y-43000000D03*
D10*
X195870000Y-43000000D03*
G04 #@! TD*
D11*
G04 #@! TO.C,R10*
X203250000Y-43000000D03*
D10*
X210870000Y-43000000D03*
G04 #@! TD*
D11*
G04 #@! TO.C,R11*
X218250000Y-43000000D03*
D10*
X225870000Y-43000000D03*
G04 #@! TD*
D11*
G04 #@! TO.C,R12*
X233250000Y-43000000D03*
D10*
X240870000Y-43000000D03*
G04 #@! TD*
D11*
G04 #@! TO.C,R13*
X248250000Y-43000000D03*
D10*
X255870000Y-43000000D03*
G04 #@! TD*
D11*
G04 #@! TO.C,R14*
X263250000Y-43000000D03*
D10*
X270870000Y-43000000D03*
G04 #@! TD*
D11*
G04 #@! TO.C,R15*
X278250000Y-43000000D03*
D10*
X285870000Y-43000000D03*
G04 #@! TD*
D11*
G04 #@! TO.C,R16*
X293250000Y-43000000D03*
D10*
X300870000Y-43000000D03*
G04 #@! TD*
D11*
G04 #@! TO.C,R17*
X308250000Y-43000000D03*
D10*
X315870000Y-43000000D03*
G04 #@! TD*
D11*
G04 #@! TO.C,R18*
X323250000Y-43000000D03*
D10*
X330870000Y-43000000D03*
G04 #@! TD*
D11*
G04 #@! TO.C,R19*
X338250000Y-43000000D03*
D10*
X345870000Y-43000000D03*
G04 #@! TD*
D11*
G04 #@! TO.C,R20*
X353250000Y-43000000D03*
D10*
X360870000Y-43000000D03*
G04 #@! TD*
D11*
G04 #@! TO.C,R21*
X368250000Y-43000000D03*
D10*
X375870000Y-43000000D03*
G04 #@! TD*
D11*
G04 #@! TO.C,R22*
X83250000Y-57000000D03*
D10*
X90870000Y-57000000D03*
G04 #@! TD*
D11*
G04 #@! TO.C,R24*
X113250000Y-57000000D03*
D10*
X120870000Y-57000000D03*
G04 #@! TD*
D11*
G04 #@! TO.C,R25*
X128250000Y-57000000D03*
D10*
X135870000Y-57000000D03*
G04 #@! TD*
D11*
G04 #@! TO.C,R26*
X143250000Y-57000000D03*
D10*
X150870000Y-57000000D03*
G04 #@! TD*
D11*
G04 #@! TO.C,R27*
X158250000Y-57000000D03*
D10*
X165870000Y-57000000D03*
G04 #@! TD*
D11*
G04 #@! TO.C,R28*
X173250000Y-57000000D03*
D10*
X180870000Y-57000000D03*
G04 #@! TD*
D11*
G04 #@! TO.C,R29*
X188250000Y-57000000D03*
D10*
X195870000Y-57000000D03*
G04 #@! TD*
D11*
G04 #@! TO.C,R30*
X203250000Y-57000000D03*
D10*
X210870000Y-57000000D03*
G04 #@! TD*
D11*
G04 #@! TO.C,R31*
X218250000Y-57000000D03*
D10*
X225870000Y-57000000D03*
G04 #@! TD*
D11*
G04 #@! TO.C,R32*
X233250000Y-57000000D03*
D10*
X240870000Y-57000000D03*
G04 #@! TD*
D11*
G04 #@! TO.C,R33*
X248250000Y-57000000D03*
D10*
X255870000Y-57000000D03*
G04 #@! TD*
D11*
G04 #@! TO.C,R34*
X263250000Y-57000000D03*
D10*
X270870000Y-57000000D03*
G04 #@! TD*
D11*
G04 #@! TO.C,R35*
X278250000Y-57000000D03*
D10*
X285870000Y-57000000D03*
G04 #@! TD*
D11*
G04 #@! TO.C,R36*
X293250000Y-57000000D03*
D10*
X300870000Y-57000000D03*
G04 #@! TD*
D11*
G04 #@! TO.C,R37*
X308250000Y-57000000D03*
D10*
X315870000Y-57000000D03*
G04 #@! TD*
D11*
G04 #@! TO.C,R38*
X323250000Y-57000000D03*
D10*
X330870000Y-57000000D03*
G04 #@! TD*
D11*
G04 #@! TO.C,R39*
X338250000Y-57000000D03*
D10*
X345870000Y-57000000D03*
G04 #@! TD*
D11*
G04 #@! TO.C,R40*
X353250000Y-57000000D03*
D10*
X360870000Y-57000000D03*
G04 #@! TD*
D11*
G04 #@! TO.C,R41*
X368250000Y-57000000D03*
D10*
X375870000Y-57000000D03*
G04 #@! TD*
D11*
G04 #@! TO.C,R42*
X83250000Y-71000000D03*
D10*
X90870000Y-71000000D03*
G04 #@! TD*
D11*
G04 #@! TO.C,R44*
X113250000Y-71000000D03*
D10*
X120870000Y-71000000D03*
G04 #@! TD*
D11*
G04 #@! TO.C,R45*
X128250000Y-71000000D03*
D10*
X135870000Y-71000000D03*
G04 #@! TD*
D11*
G04 #@! TO.C,R46*
X143250000Y-71000000D03*
D10*
X150870000Y-71000000D03*
G04 #@! TD*
D11*
G04 #@! TO.C,R47*
X158250000Y-71000000D03*
D10*
X165870000Y-71000000D03*
G04 #@! TD*
D11*
G04 #@! TO.C,R48*
X173250000Y-71000000D03*
D10*
X180870000Y-71000000D03*
G04 #@! TD*
D11*
G04 #@! TO.C,R49*
X188250000Y-71000000D03*
D10*
X195870000Y-71000000D03*
G04 #@! TD*
D11*
G04 #@! TO.C,R50*
X203250000Y-71000000D03*
D10*
X210870000Y-71000000D03*
G04 #@! TD*
D11*
G04 #@! TO.C,R51*
X218250000Y-71000000D03*
D10*
X225870000Y-71000000D03*
G04 #@! TD*
D11*
G04 #@! TO.C,R52*
X233250000Y-71000000D03*
D10*
X240870000Y-71000000D03*
G04 #@! TD*
D11*
G04 #@! TO.C,R53*
X248250000Y-71000000D03*
D10*
X255870000Y-71000000D03*
G04 #@! TD*
D11*
G04 #@! TO.C,R54*
X263250000Y-71000000D03*
D10*
X270870000Y-71000000D03*
G04 #@! TD*
D11*
G04 #@! TO.C,R55*
X278250000Y-71000000D03*
D10*
X285870000Y-71000000D03*
G04 #@! TD*
D11*
G04 #@! TO.C,R57*
X308250000Y-71000000D03*
D10*
X315870000Y-71000000D03*
G04 #@! TD*
D11*
G04 #@! TO.C,R58*
X323250000Y-71000000D03*
D10*
X330870000Y-71000000D03*
G04 #@! TD*
D11*
G04 #@! TO.C,R59*
X338250000Y-71000000D03*
D10*
X345870000Y-71000000D03*
G04 #@! TD*
D11*
G04 #@! TO.C,R60*
X353250000Y-71000000D03*
D10*
X360870000Y-71000000D03*
G04 #@! TD*
D11*
G04 #@! TO.C,R61*
X368250000Y-71000000D03*
D10*
X375870000Y-71000000D03*
G04 #@! TD*
D12*
G04 #@! TO.C,Q3*
X110000000Y-40710000D03*
X110000000Y-38170000D03*
D13*
X110000000Y-43250000D03*
G04 #@! TD*
D12*
G04 #@! TO.C,Q194*
X275000000Y-166460000D03*
X275000000Y-163920000D03*
D13*
X275000000Y-169000000D03*
G04 #@! TD*
D12*
G04 #@! TO.C,Q193*
X260000000Y-166460000D03*
X260000000Y-163920000D03*
D13*
X260000000Y-169000000D03*
G04 #@! TD*
D12*
G04 #@! TO.C,Q192*
X245000000Y-166460000D03*
X245000000Y-163920000D03*
D13*
X245000000Y-169000000D03*
G04 #@! TD*
D12*
G04 #@! TO.C,Q191*
X230000000Y-166460000D03*
X230000000Y-163920000D03*
D13*
X230000000Y-169000000D03*
G04 #@! TD*
D12*
G04 #@! TO.C,Q197*
X320000000Y-166460000D03*
X320000000Y-163920000D03*
D13*
X320000000Y-169000000D03*
G04 #@! TD*
D12*
G04 #@! TO.C,Q187*
X170000000Y-166460000D03*
X170000000Y-163920000D03*
D13*
X170000000Y-169000000D03*
G04 #@! TD*
D12*
G04 #@! TO.C,Q198*
X335000000Y-166460000D03*
X335000000Y-163920000D03*
D13*
X335000000Y-169000000D03*
G04 #@! TD*
D12*
G04 #@! TO.C,Q200*
X365000000Y-166460000D03*
X365000000Y-163920000D03*
D13*
X365000000Y-169000000D03*
G04 #@! TD*
D12*
G04 #@! TO.C,Q188*
X185000000Y-166460000D03*
X185000000Y-163920000D03*
D13*
X185000000Y-169000000D03*
G04 #@! TD*
D12*
G04 #@! TO.C,Q195*
X290000000Y-166460000D03*
X290000000Y-163920000D03*
D13*
X290000000Y-169000000D03*
G04 #@! TD*
D12*
G04 #@! TO.C,Q184*
X125000000Y-166460000D03*
X125000000Y-163920000D03*
D13*
X125000000Y-169000000D03*
G04 #@! TD*
D12*
G04 #@! TO.C,Q196*
X305000000Y-166460000D03*
X305000000Y-163920000D03*
D13*
X305000000Y-169000000D03*
G04 #@! TD*
D12*
G04 #@! TO.C,Q185*
X140000000Y-166460000D03*
X140000000Y-163920000D03*
D13*
X140000000Y-169000000D03*
G04 #@! TD*
D12*
G04 #@! TO.C,Q190*
X215000000Y-166460000D03*
X215000000Y-163920000D03*
D13*
X215000000Y-169000000D03*
G04 #@! TD*
D12*
G04 #@! TO.C,Q199*
X350000000Y-166460000D03*
X350000000Y-163920000D03*
D13*
X350000000Y-169000000D03*
G04 #@! TD*
D12*
G04 #@! TO.C,Q171*
X230000000Y-152460000D03*
X230000000Y-149920000D03*
D13*
X230000000Y-155000000D03*
G04 #@! TD*
D12*
G04 #@! TO.C,Q172*
X245000000Y-152460000D03*
X245000000Y-149920000D03*
D13*
X245000000Y-155000000D03*
G04 #@! TD*
D12*
G04 #@! TO.C,Q174*
X275000000Y-152460000D03*
X275000000Y-149920000D03*
D13*
X275000000Y-155000000D03*
G04 #@! TD*
D12*
G04 #@! TO.C,Q173*
X260000000Y-152460000D03*
X260000000Y-149920000D03*
D13*
X260000000Y-155000000D03*
G04 #@! TD*
D12*
G04 #@! TO.C,Q176*
X305000000Y-152460000D03*
X305000000Y-149920000D03*
D13*
X305000000Y-155000000D03*
G04 #@! TD*
D12*
G04 #@! TO.C,Q175*
X290000000Y-152460000D03*
X290000000Y-149920000D03*
D13*
X290000000Y-155000000D03*
G04 #@! TD*
D12*
G04 #@! TO.C,Q170*
X215000000Y-152460000D03*
X215000000Y-149920000D03*
D13*
X215000000Y-155000000D03*
G04 #@! TD*
D12*
G04 #@! TO.C,Q179*
X350000000Y-152460000D03*
X350000000Y-149920000D03*
D13*
X350000000Y-155000000D03*
G04 #@! TD*
D12*
G04 #@! TO.C,Q162*
X95000000Y-152460000D03*
X95000000Y-149920000D03*
D13*
X95000000Y-155000000D03*
G04 #@! TD*
D12*
G04 #@! TO.C,Q169*
X200000000Y-152460000D03*
X200000000Y-149920000D03*
D13*
X200000000Y-155000000D03*
G04 #@! TD*
D12*
G04 #@! TO.C,Q180*
X365000000Y-152460000D03*
X365000000Y-149920000D03*
D13*
X365000000Y-155000000D03*
G04 #@! TD*
D12*
G04 #@! TO.C,Q178*
X335000000Y-152460000D03*
X335000000Y-149920000D03*
D13*
X335000000Y-155000000D03*
G04 #@! TD*
D12*
G04 #@! TO.C,Q177*
X320000000Y-152460000D03*
X320000000Y-149920000D03*
D13*
X320000000Y-155000000D03*
G04 #@! TD*
D12*
G04 #@! TO.C,Q153*
X260000000Y-138460000D03*
X260000000Y-135920000D03*
D13*
X260000000Y-141000000D03*
G04 #@! TD*
D12*
G04 #@! TO.C,Q154*
X275000000Y-138460000D03*
X275000000Y-135920000D03*
D13*
X275000000Y-141000000D03*
G04 #@! TD*
D12*
G04 #@! TO.C,Q152*
X245000000Y-138460000D03*
X245000000Y-135920000D03*
D13*
X245000000Y-141000000D03*
G04 #@! TD*
D12*
G04 #@! TO.C,Q142*
X95000000Y-138460000D03*
X95000000Y-135920000D03*
D13*
X95000000Y-141000000D03*
G04 #@! TD*
D12*
G04 #@! TO.C,Q133*
X260000000Y-124460000D03*
X260000000Y-121920000D03*
D13*
X260000000Y-127000000D03*
G04 #@! TD*
D12*
G04 #@! TO.C,Q134*
X275000000Y-124460000D03*
X275000000Y-121920000D03*
D13*
X275000000Y-127000000D03*
G04 #@! TD*
D12*
G04 #@! TO.C,Q132*
X245000000Y-124460000D03*
X245000000Y-121920000D03*
D13*
X245000000Y-127000000D03*
G04 #@! TD*
D12*
G04 #@! TO.C,Q125*
X140000000Y-124460000D03*
X140000000Y-121920000D03*
D13*
X140000000Y-127000000D03*
G04 #@! TD*
D12*
G04 #@! TO.C,Q124*
X125000000Y-124460000D03*
X125000000Y-121920000D03*
D13*
X125000000Y-127000000D03*
G04 #@! TD*
D12*
G04 #@! TO.C,Q138*
X335000000Y-124460000D03*
X335000000Y-121920000D03*
D13*
X335000000Y-127000000D03*
G04 #@! TD*
D12*
G04 #@! TO.C,Q137*
X320000000Y-124460000D03*
X320000000Y-121920000D03*
D13*
X320000000Y-127000000D03*
G04 #@! TD*
D12*
G04 #@! TO.C,Q139*
X350000000Y-124460000D03*
X350000000Y-121920000D03*
D13*
X350000000Y-127000000D03*
G04 #@! TD*
D12*
G04 #@! TO.C,Q126*
X155000000Y-124460000D03*
X155000000Y-121920000D03*
D13*
X155000000Y-127000000D03*
G04 #@! TD*
D12*
G04 #@! TO.C,Q127*
X170000000Y-124460000D03*
X170000000Y-121920000D03*
D13*
X170000000Y-127000000D03*
G04 #@! TD*
D12*
G04 #@! TO.C,Q130*
X215000000Y-124460000D03*
X215000000Y-121920000D03*
D13*
X215000000Y-127000000D03*
G04 #@! TD*
D12*
G04 #@! TO.C,Q129*
X200000000Y-124460000D03*
X200000000Y-121920000D03*
D13*
X200000000Y-127000000D03*
G04 #@! TD*
D12*
G04 #@! TO.C,Q102*
X95000000Y-110460000D03*
X95000000Y-107920000D03*
D13*
X95000000Y-113000000D03*
G04 #@! TD*
D12*
G04 #@! TO.C,Q100*
X365000000Y-96460000D03*
X365000000Y-93920000D03*
D13*
X365000000Y-99000000D03*
G04 #@! TD*
D12*
G04 #@! TO.C,Q98*
X335000000Y-96460000D03*
X335000000Y-93920000D03*
D13*
X335000000Y-99000000D03*
G04 #@! TD*
D12*
G04 #@! TO.C,Q99*
X350000000Y-96460000D03*
X350000000Y-93920000D03*
D13*
X350000000Y-99000000D03*
G04 #@! TD*
D12*
G04 #@! TO.C,Q97*
X320000000Y-96460000D03*
X320000000Y-93920000D03*
D13*
X320000000Y-99000000D03*
G04 #@! TD*
D12*
G04 #@! TO.C,Q95*
X290000000Y-96460000D03*
X290000000Y-93920000D03*
D13*
X290000000Y-99000000D03*
G04 #@! TD*
D12*
G04 #@! TO.C,Q94*
X275000000Y-96460000D03*
X275000000Y-93920000D03*
D13*
X275000000Y-99000000D03*
G04 #@! TD*
D12*
G04 #@! TO.C,Q93*
X260000000Y-96460000D03*
X260000000Y-93920000D03*
D13*
X260000000Y-99000000D03*
G04 #@! TD*
D12*
G04 #@! TO.C,Q96*
X305000000Y-96460000D03*
X305000000Y-93920000D03*
D13*
X305000000Y-99000000D03*
G04 #@! TD*
D12*
G04 #@! TO.C,Q91*
X230000000Y-96460000D03*
X230000000Y-93920000D03*
D13*
X230000000Y-99000000D03*
G04 #@! TD*
D12*
G04 #@! TO.C,Q92*
X245000000Y-96460000D03*
X245000000Y-93920000D03*
D13*
X245000000Y-99000000D03*
G04 #@! TD*
D12*
G04 #@! TO.C,Q86*
X155000000Y-96460000D03*
X155000000Y-93920000D03*
D13*
X155000000Y-99000000D03*
G04 #@! TD*
D12*
G04 #@! TO.C,Q89*
X200000000Y-96460000D03*
X200000000Y-93920000D03*
D13*
X200000000Y-99000000D03*
G04 #@! TD*
D12*
G04 #@! TO.C,Q87*
X170000000Y-96460000D03*
X170000000Y-93920000D03*
D13*
X170000000Y-99000000D03*
G04 #@! TD*
D12*
G04 #@! TO.C,Q82*
X95000000Y-96460000D03*
X95000000Y-93920000D03*
D13*
X95000000Y-99000000D03*
G04 #@! TD*
D12*
G04 #@! TO.C,Q88*
X185000000Y-96460000D03*
X185000000Y-93920000D03*
D13*
X185000000Y-99000000D03*
G04 #@! TD*
D12*
G04 #@! TO.C,Q90*
X215000000Y-96460000D03*
X215000000Y-93920000D03*
D13*
X215000000Y-99000000D03*
G04 #@! TD*
D12*
G04 #@! TO.C,Q85*
X140000000Y-96460000D03*
X140000000Y-93920000D03*
D13*
X140000000Y-99000000D03*
G04 #@! TD*
D12*
G04 #@! TO.C,Q75*
X290000000Y-82460000D03*
X290000000Y-79920000D03*
D13*
X290000000Y-85000000D03*
G04 #@! TD*
D12*
G04 #@! TO.C,Q77*
X320000000Y-82460000D03*
X320000000Y-79920000D03*
D13*
X320000000Y-85000000D03*
G04 #@! TD*
D12*
G04 #@! TO.C,Q80*
X365000000Y-82460000D03*
X365000000Y-79920000D03*
D13*
X365000000Y-85000000D03*
G04 #@! TD*
D12*
G04 #@! TO.C,Q79*
X350000000Y-82460000D03*
X350000000Y-79920000D03*
D13*
X350000000Y-85000000D03*
G04 #@! TD*
D12*
G04 #@! TO.C,Q78*
X335000000Y-82460000D03*
X335000000Y-79920000D03*
D13*
X335000000Y-85000000D03*
G04 #@! TD*
D12*
G04 #@! TO.C,Q76*
X305000000Y-82460000D03*
X305000000Y-79920000D03*
D13*
X305000000Y-85000000D03*
G04 #@! TD*
D12*
G04 #@! TO.C,Q74*
X275000000Y-82460000D03*
X275000000Y-79920000D03*
D13*
X275000000Y-85000000D03*
G04 #@! TD*
D12*
G04 #@! TO.C,Q73*
X260000000Y-82460000D03*
X260000000Y-79920000D03*
D13*
X260000000Y-85000000D03*
G04 #@! TD*
D12*
G04 #@! TO.C,Q72*
X245000000Y-82460000D03*
X245000000Y-79920000D03*
D13*
X245000000Y-85000000D03*
G04 #@! TD*
D12*
G04 #@! TO.C,Q71*
X230000000Y-82460000D03*
X230000000Y-79920000D03*
D13*
X230000000Y-85000000D03*
G04 #@! TD*
D12*
G04 #@! TO.C,Q66*
X155000000Y-82460000D03*
X155000000Y-79920000D03*
D13*
X155000000Y-85000000D03*
G04 #@! TD*
D12*
G04 #@! TO.C,Q67*
X170000000Y-82460000D03*
X170000000Y-79920000D03*
D13*
X170000000Y-85000000D03*
G04 #@! TD*
D12*
G04 #@! TO.C,Q69*
X200000000Y-82460000D03*
X200000000Y-79920000D03*
D13*
X200000000Y-85000000D03*
G04 #@! TD*
D12*
G04 #@! TO.C,Q70*
X215000000Y-82460000D03*
X215000000Y-79920000D03*
D13*
X215000000Y-85000000D03*
G04 #@! TD*
D12*
G04 #@! TO.C,Q64*
X125000000Y-82460000D03*
X125000000Y-79920000D03*
D13*
X125000000Y-85000000D03*
G04 #@! TD*
D12*
G04 #@! TO.C,Q63*
X110000000Y-82460000D03*
X110000000Y-79920000D03*
D13*
X110000000Y-85000000D03*
G04 #@! TD*
D12*
G04 #@! TO.C,Q68*
X185000000Y-82460000D03*
X185000000Y-79920000D03*
D13*
X185000000Y-85000000D03*
G04 #@! TD*
D12*
G04 #@! TO.C,Q65*
X140000000Y-82460000D03*
X140000000Y-79920000D03*
D13*
X140000000Y-85000000D03*
G04 #@! TD*
D12*
G04 #@! TO.C,Q4*
X125000000Y-40710000D03*
X125000000Y-38170000D03*
D13*
X125000000Y-43250000D03*
G04 #@! TD*
D12*
G04 #@! TO.C,Q5*
X140000000Y-40710000D03*
X140000000Y-38170000D03*
D13*
X140000000Y-43250000D03*
G04 #@! TD*
D12*
G04 #@! TO.C,Q6*
X155000000Y-40710000D03*
X155000000Y-38170000D03*
D13*
X155000000Y-43250000D03*
G04 #@! TD*
D12*
G04 #@! TO.C,Q7*
X170000000Y-40460000D03*
X170000000Y-37920000D03*
D13*
X170000000Y-43000000D03*
G04 #@! TD*
D12*
G04 #@! TO.C,Q8*
X185000000Y-40460000D03*
X185000000Y-37920000D03*
D13*
X185000000Y-43000000D03*
G04 #@! TD*
D12*
G04 #@! TO.C,Q9*
X200000000Y-40460000D03*
X200000000Y-37920000D03*
D13*
X200000000Y-43000000D03*
G04 #@! TD*
D12*
G04 #@! TO.C,Q10*
X215000000Y-40460000D03*
X215000000Y-37920000D03*
D13*
X215000000Y-43000000D03*
G04 #@! TD*
D12*
G04 #@! TO.C,Q11*
X230000000Y-40460000D03*
X230000000Y-37920000D03*
D13*
X230000000Y-43000000D03*
G04 #@! TD*
D12*
G04 #@! TO.C,Q12*
X245000000Y-40460000D03*
X245000000Y-37920000D03*
D13*
X245000000Y-43000000D03*
G04 #@! TD*
D12*
G04 #@! TO.C,Q13*
X260000000Y-40460000D03*
X260000000Y-37920000D03*
D13*
X260000000Y-43000000D03*
G04 #@! TD*
D12*
G04 #@! TO.C,Q14*
X275000000Y-40460000D03*
X275000000Y-37920000D03*
D13*
X275000000Y-43000000D03*
G04 #@! TD*
D12*
G04 #@! TO.C,Q15*
X290000000Y-40460000D03*
X290000000Y-37920000D03*
D13*
X290000000Y-43000000D03*
G04 #@! TD*
D12*
G04 #@! TO.C,Q16*
X305000000Y-40460000D03*
X305000000Y-37920000D03*
D13*
X305000000Y-43000000D03*
G04 #@! TD*
D12*
G04 #@! TO.C,Q17*
X320000000Y-40358400D03*
X320000000Y-37818400D03*
D13*
X320000000Y-42898400D03*
G04 #@! TD*
D12*
G04 #@! TO.C,Q18*
X335000000Y-40460000D03*
X335000000Y-37920000D03*
D13*
X335000000Y-43000000D03*
G04 #@! TD*
D12*
G04 #@! TO.C,Q19*
X350000000Y-40460000D03*
X350000000Y-37920000D03*
D13*
X350000000Y-43000000D03*
G04 #@! TD*
D12*
G04 #@! TO.C,Q20*
X365000000Y-40460000D03*
X365000000Y-37920000D03*
D13*
X365000000Y-43000000D03*
G04 #@! TD*
D12*
G04 #@! TO.C,Q21*
X80000000Y-54460000D03*
X80000000Y-51920000D03*
D13*
X80000000Y-57000000D03*
G04 #@! TD*
D12*
G04 #@! TO.C,Q23*
X110000000Y-54460000D03*
X110000000Y-51920000D03*
D13*
X110000000Y-57000000D03*
G04 #@! TD*
D12*
G04 #@! TO.C,Q24*
X125000000Y-54460000D03*
X125000000Y-51920000D03*
D13*
X125000000Y-57000000D03*
G04 #@! TD*
D12*
G04 #@! TO.C,Q25*
X140000000Y-54460000D03*
X140000000Y-51920000D03*
D13*
X140000000Y-57000000D03*
G04 #@! TD*
D12*
G04 #@! TO.C,Q26*
X155000000Y-54460000D03*
X155000000Y-51920000D03*
D13*
X155000000Y-57000000D03*
G04 #@! TD*
D12*
G04 #@! TO.C,Q27*
X170000000Y-54460000D03*
X170000000Y-51920000D03*
D13*
X170000000Y-57000000D03*
G04 #@! TD*
D12*
G04 #@! TO.C,Q28*
X185000000Y-54460000D03*
X185000000Y-51920000D03*
D13*
X185000000Y-57000000D03*
G04 #@! TD*
D12*
G04 #@! TO.C,Q29*
X200000000Y-54460000D03*
X200000000Y-51920000D03*
D13*
X200000000Y-57000000D03*
G04 #@! TD*
D12*
G04 #@! TO.C,Q30*
X215000000Y-54460000D03*
X215000000Y-51920000D03*
D13*
X215000000Y-57000000D03*
G04 #@! TD*
D12*
G04 #@! TO.C,Q31*
X230000000Y-54460000D03*
X230000000Y-51920000D03*
D13*
X230000000Y-57000000D03*
G04 #@! TD*
D12*
G04 #@! TO.C,Q32*
X245000000Y-54460000D03*
X245000000Y-51920000D03*
D13*
X245000000Y-57000000D03*
G04 #@! TD*
D12*
G04 #@! TO.C,Q33*
X260000000Y-54460000D03*
X260000000Y-51920000D03*
D13*
X260000000Y-57000000D03*
G04 #@! TD*
D12*
G04 #@! TO.C,Q34*
X275000000Y-54460000D03*
X275000000Y-51920000D03*
D13*
X275000000Y-57000000D03*
G04 #@! TD*
D12*
G04 #@! TO.C,Q35*
X290000000Y-54460000D03*
X290000000Y-51920000D03*
D13*
X290000000Y-57000000D03*
G04 #@! TD*
D12*
G04 #@! TO.C,Q36*
X305000000Y-54460000D03*
X305000000Y-51920000D03*
D13*
X305000000Y-57000000D03*
G04 #@! TD*
D12*
G04 #@! TO.C,Q37*
X320000000Y-54460000D03*
X320000000Y-51920000D03*
D13*
X320000000Y-57000000D03*
G04 #@! TD*
D12*
G04 #@! TO.C,Q38*
X335000000Y-54460000D03*
X335000000Y-51920000D03*
D13*
X335000000Y-57000000D03*
G04 #@! TD*
D12*
G04 #@! TO.C,Q39*
X350000000Y-54460000D03*
X350000000Y-51920000D03*
D13*
X350000000Y-57000000D03*
G04 #@! TD*
D12*
G04 #@! TO.C,Q40*
X365000000Y-54460000D03*
X365000000Y-51920000D03*
D13*
X365000000Y-57000000D03*
G04 #@! TD*
D12*
G04 #@! TO.C,Q41*
X80000000Y-68460000D03*
X80000000Y-65920000D03*
D13*
X80000000Y-71000000D03*
G04 #@! TD*
D12*
G04 #@! TO.C,Q43*
X109750000Y-68460000D03*
X109750000Y-65920000D03*
D13*
X109750000Y-71000000D03*
G04 #@! TD*
D12*
G04 #@! TO.C,Q44*
X124750000Y-68460000D03*
X124750000Y-65920000D03*
D13*
X124750000Y-71000000D03*
G04 #@! TD*
D12*
G04 #@! TO.C,Q45*
X139750000Y-68460000D03*
X139750000Y-65920000D03*
D13*
X139750000Y-71000000D03*
G04 #@! TD*
D12*
G04 #@! TO.C,Q46*
X154750000Y-68460000D03*
X154750000Y-65920000D03*
D13*
X154750000Y-71000000D03*
G04 #@! TD*
D12*
G04 #@! TO.C,Q47*
X169750000Y-68460000D03*
X169750000Y-65920000D03*
D13*
X169750000Y-71000000D03*
G04 #@! TD*
D12*
G04 #@! TO.C,Q48*
X184750000Y-68460000D03*
X184750000Y-65920000D03*
D13*
X184750000Y-71000000D03*
G04 #@! TD*
D12*
G04 #@! TO.C,Q49*
X199750000Y-68460000D03*
X199750000Y-65920000D03*
D13*
X199750000Y-71000000D03*
G04 #@! TD*
D12*
G04 #@! TO.C,Q50*
X214750000Y-68460000D03*
X214750000Y-65920000D03*
D13*
X214750000Y-71000000D03*
G04 #@! TD*
D12*
G04 #@! TO.C,Q51*
X229750000Y-68460000D03*
X229750000Y-65920000D03*
D13*
X229750000Y-71000000D03*
G04 #@! TD*
D12*
G04 #@! TO.C,Q52*
X244750000Y-68460000D03*
X244750000Y-65920000D03*
D13*
X244750000Y-71000000D03*
G04 #@! TD*
D12*
G04 #@! TO.C,Q53*
X259750000Y-68460000D03*
X259750000Y-65920000D03*
D13*
X259750000Y-71000000D03*
G04 #@! TD*
D12*
G04 #@! TO.C,Q54*
X274750000Y-68460000D03*
X274750000Y-65920000D03*
D13*
X274750000Y-71000000D03*
G04 #@! TD*
D12*
G04 #@! TO.C,Q55*
X289750000Y-68460000D03*
X289750000Y-65920000D03*
D13*
X289750000Y-71000000D03*
G04 #@! TD*
D12*
G04 #@! TO.C,Q56*
X304750000Y-68460000D03*
X304750000Y-65920000D03*
D13*
X304750000Y-71000000D03*
G04 #@! TD*
D12*
G04 #@! TO.C,Q57*
X319750000Y-68460000D03*
X319750000Y-65920000D03*
D13*
X319750000Y-71000000D03*
G04 #@! TD*
D12*
G04 #@! TO.C,Q58*
X334750000Y-68460000D03*
X334750000Y-65920000D03*
D13*
X334750000Y-71000000D03*
G04 #@! TD*
D12*
G04 #@! TO.C,Q59*
X349750000Y-68460000D03*
X349750000Y-65920000D03*
D13*
X349750000Y-71000000D03*
G04 #@! TD*
D12*
G04 #@! TO.C,Q60*
X364750000Y-68460000D03*
X364750000Y-65920000D03*
D13*
X364750000Y-71000000D03*
G04 #@! TD*
D11*
G04 #@! TO.C,NE60*
X372620000Y-65460000D03*
D10*
X370080000Y-65460000D03*
G04 #@! TD*
D11*
G04 #@! TO.C,NE59*
X357620000Y-65460000D03*
D10*
X355080000Y-65460000D03*
G04 #@! TD*
D11*
G04 #@! TO.C,NE58*
X342620000Y-65460000D03*
D10*
X340080000Y-65460000D03*
G04 #@! TD*
D11*
G04 #@! TO.C,NE57*
X327620000Y-65460000D03*
D10*
X325080000Y-65460000D03*
G04 #@! TD*
D11*
G04 #@! TO.C,NE56*
X312620000Y-65460000D03*
D10*
X310080000Y-65460000D03*
G04 #@! TD*
D11*
G04 #@! TO.C,NE55*
X297620000Y-65460000D03*
D10*
X295080000Y-65460000D03*
G04 #@! TD*
D11*
G04 #@! TO.C,NE54*
X282620000Y-65460000D03*
D10*
X280080000Y-65460000D03*
G04 #@! TD*
D11*
G04 #@! TO.C,NE53*
X267620000Y-65460000D03*
D10*
X265080000Y-65460000D03*
G04 #@! TD*
D11*
G04 #@! TO.C,NE52*
X252620000Y-65460000D03*
D10*
X250080000Y-65460000D03*
G04 #@! TD*
D11*
G04 #@! TO.C,NE51*
X237620000Y-65460000D03*
D10*
X235080000Y-65460000D03*
G04 #@! TD*
D11*
G04 #@! TO.C,NE50*
X222620000Y-65460000D03*
D10*
X220080000Y-65460000D03*
G04 #@! TD*
D11*
G04 #@! TO.C,NE49*
X207620000Y-65460000D03*
D10*
X205080000Y-65460000D03*
G04 #@! TD*
D11*
G04 #@! TO.C,NE48*
X192620000Y-65460000D03*
D10*
X190080000Y-65460000D03*
G04 #@! TD*
D11*
G04 #@! TO.C,NE47*
X177620000Y-65460000D03*
D10*
X175080000Y-65460000D03*
G04 #@! TD*
D11*
G04 #@! TO.C,NE46*
X162620000Y-65460000D03*
D10*
X160080000Y-65460000D03*
G04 #@! TD*
D11*
G04 #@! TO.C,NE45*
X147620000Y-65460000D03*
D10*
X145080000Y-65460000D03*
G04 #@! TD*
D11*
G04 #@! TO.C,NE44*
X132620000Y-65460000D03*
D10*
X130080000Y-65460000D03*
G04 #@! TD*
D11*
G04 #@! TO.C,NE43*
X117620000Y-65460000D03*
D10*
X115080000Y-65460000D03*
G04 #@! TD*
D11*
G04 #@! TO.C,NE41*
X87620000Y-65460000D03*
D10*
X85080000Y-65460000D03*
G04 #@! TD*
D11*
G04 #@! TO.C,NE40*
X372620000Y-51460000D03*
D10*
X370080000Y-51460000D03*
G04 #@! TD*
D11*
G04 #@! TO.C,NE39*
X357620000Y-51460000D03*
D10*
X355080000Y-51460000D03*
G04 #@! TD*
D11*
G04 #@! TO.C,NE38*
X342620000Y-51460000D03*
D10*
X340080000Y-51460000D03*
G04 #@! TD*
D11*
G04 #@! TO.C,NE37*
X327620000Y-51460000D03*
D10*
X325080000Y-51460000D03*
G04 #@! TD*
D11*
G04 #@! TO.C,NE36*
X312620000Y-51460000D03*
D10*
X310080000Y-51460000D03*
G04 #@! TD*
D11*
G04 #@! TO.C,NE35*
X297620000Y-51460000D03*
D10*
X295080000Y-51460000D03*
G04 #@! TD*
D11*
G04 #@! TO.C,NE34*
X282620000Y-51460000D03*
D10*
X280080000Y-51460000D03*
G04 #@! TD*
D11*
G04 #@! TO.C,NE33*
X267620000Y-51460000D03*
D10*
X265080000Y-51460000D03*
G04 #@! TD*
D11*
G04 #@! TO.C,NE32*
X252620000Y-51460000D03*
D10*
X250080000Y-51460000D03*
G04 #@! TD*
D11*
G04 #@! TO.C,NE31*
X237620000Y-51460000D03*
D10*
X235080000Y-51460000D03*
G04 #@! TD*
D11*
G04 #@! TO.C,NE30*
X222620000Y-51460000D03*
D10*
X220080000Y-51460000D03*
G04 #@! TD*
D11*
G04 #@! TO.C,NE29*
X207620000Y-51460000D03*
D10*
X205080000Y-51460000D03*
G04 #@! TD*
D11*
G04 #@! TO.C,NE28*
X192620000Y-51460000D03*
D10*
X190080000Y-51460000D03*
G04 #@! TD*
D11*
G04 #@! TO.C,NE27*
X177620000Y-51460000D03*
D10*
X175080000Y-51460000D03*
G04 #@! TD*
D11*
G04 #@! TO.C,NE26*
X162620000Y-51460000D03*
D10*
X160080000Y-51460000D03*
G04 #@! TD*
D11*
G04 #@! TO.C,NE25*
X147620000Y-51460000D03*
D10*
X145080000Y-51460000D03*
G04 #@! TD*
D11*
G04 #@! TO.C,NE24*
X132620000Y-51460000D03*
D10*
X130080000Y-51460000D03*
G04 #@! TD*
D11*
G04 #@! TO.C,NE23*
X117620000Y-51460000D03*
D10*
X115080000Y-51460000D03*
G04 #@! TD*
D11*
G04 #@! TO.C,NE21*
X87620000Y-51460000D03*
D10*
X85080000Y-51460000D03*
G04 #@! TD*
D11*
G04 #@! TO.C,NE20*
X372620000Y-37460000D03*
D10*
X370080000Y-37460000D03*
G04 #@! TD*
D11*
G04 #@! TO.C,NE19*
X357620000Y-37460000D03*
D10*
X355080000Y-37460000D03*
G04 #@! TD*
D11*
G04 #@! TO.C,NE18*
X342620000Y-37460000D03*
D10*
X340080000Y-37460000D03*
G04 #@! TD*
D11*
G04 #@! TO.C,NE17*
X327620000Y-37460000D03*
D10*
X325080000Y-37460000D03*
G04 #@! TD*
D11*
G04 #@! TO.C,NE16*
X312620000Y-37460000D03*
D10*
X310080000Y-37460000D03*
G04 #@! TD*
D11*
G04 #@! TO.C,NE15*
X297620000Y-37460000D03*
D10*
X295080000Y-37460000D03*
G04 #@! TD*
D11*
G04 #@! TO.C,NE14*
X282620000Y-37460000D03*
D10*
X280080000Y-37460000D03*
G04 #@! TD*
D11*
G04 #@! TO.C,NE13*
X267620000Y-37460000D03*
D10*
X265080000Y-37460000D03*
G04 #@! TD*
D11*
G04 #@! TO.C,NE12*
X252620000Y-37460000D03*
D10*
X250080000Y-37460000D03*
G04 #@! TD*
D11*
G04 #@! TO.C,NE11*
X237620000Y-37460000D03*
D10*
X235080000Y-37460000D03*
G04 #@! TD*
D11*
G04 #@! TO.C,NE10*
X222620000Y-37460000D03*
D10*
X220080000Y-37460000D03*
G04 #@! TD*
D11*
G04 #@! TO.C,NE9*
X207620000Y-37460000D03*
D10*
X205080000Y-37460000D03*
G04 #@! TD*
D11*
G04 #@! TO.C,NE8*
X192620000Y-37460000D03*
D10*
X190080000Y-37460000D03*
G04 #@! TD*
D11*
G04 #@! TO.C,NE7*
X177620000Y-37460000D03*
D10*
X175080000Y-37460000D03*
G04 #@! TD*
D11*
G04 #@! TO.C,NE6*
X162620000Y-37460000D03*
D10*
X160080000Y-37460000D03*
G04 #@! TD*
D11*
G04 #@! TO.C,NE5*
X147620000Y-37460000D03*
D10*
X145080000Y-37460000D03*
G04 #@! TD*
D11*
G04 #@! TO.C,NE4*
X132620000Y-37460000D03*
D10*
X130080000Y-37460000D03*
G04 #@! TD*
D11*
G04 #@! TO.C,NE64*
X132620000Y-79460000D03*
D10*
X130080000Y-79460000D03*
G04 #@! TD*
D11*
G04 #@! TO.C,NE69*
X207620000Y-79460000D03*
D10*
X205080000Y-79460000D03*
G04 #@! TD*
D11*
G04 #@! TO.C,NE70*
X222620000Y-79460000D03*
D10*
X220080000Y-79460000D03*
G04 #@! TD*
D11*
G04 #@! TO.C,NE67*
X177620000Y-79460000D03*
D10*
X175080000Y-79460000D03*
G04 #@! TD*
D11*
G04 #@! TO.C,NE65*
X147620000Y-79460000D03*
D10*
X145080000Y-79460000D03*
G04 #@! TD*
D11*
G04 #@! TO.C,NE63*
X117620000Y-79460000D03*
D10*
X115080000Y-79460000D03*
G04 #@! TD*
D11*
G04 #@! TO.C,NE68*
X192620000Y-79460000D03*
D10*
X190080000Y-79460000D03*
G04 #@! TD*
D11*
G04 #@! TO.C,NE66*
X162620000Y-79460000D03*
D10*
X160080000Y-79460000D03*
G04 #@! TD*
D11*
G04 #@! TO.C,NE71*
X237620000Y-79460000D03*
D10*
X235080000Y-79460000D03*
G04 #@! TD*
D11*
G04 #@! TO.C,NE72*
X252620000Y-79460000D03*
D10*
X250080000Y-79460000D03*
G04 #@! TD*
D11*
G04 #@! TO.C,NE73*
X267620000Y-79460000D03*
D10*
X265080000Y-79460000D03*
G04 #@! TD*
D11*
G04 #@! TO.C,NE74*
X282620000Y-79460000D03*
D10*
X280080000Y-79460000D03*
G04 #@! TD*
D11*
G04 #@! TO.C,NE76*
X312620000Y-79460000D03*
D10*
X310080000Y-79460000D03*
G04 #@! TD*
D11*
G04 #@! TO.C,NE77*
X327620000Y-79460000D03*
D10*
X325080000Y-79460000D03*
G04 #@! TD*
D11*
G04 #@! TO.C,NE78*
X342620000Y-79460000D03*
D10*
X340080000Y-79460000D03*
G04 #@! TD*
D11*
G04 #@! TO.C,NE75*
X297620000Y-79460000D03*
D10*
X295080000Y-79460000D03*
G04 #@! TD*
D11*
G04 #@! TO.C,NE79*
X357620000Y-79460000D03*
D10*
X355080000Y-79460000D03*
G04 #@! TD*
D11*
G04 #@! TO.C,NE80*
X372620000Y-79460000D03*
D10*
X370080000Y-79460000D03*
G04 #@! TD*
D11*
G04 #@! TO.C,NE82*
X102620000Y-93460000D03*
D10*
X100080000Y-93460000D03*
G04 #@! TD*
D11*
G04 #@! TO.C,NE87*
X177620000Y-93460000D03*
D10*
X175080000Y-93460000D03*
G04 #@! TD*
D11*
G04 #@! TO.C,NE90*
X222620000Y-93460000D03*
D10*
X220080000Y-93460000D03*
G04 #@! TD*
D11*
G04 #@! TO.C,NE85*
X147620000Y-93460000D03*
D10*
X145080000Y-93460000D03*
G04 #@! TD*
D11*
G04 #@! TO.C,NE89*
X207620000Y-93460000D03*
D10*
X205080000Y-93460000D03*
G04 #@! TD*
D11*
G04 #@! TO.C,NE88*
X192620000Y-93460000D03*
D10*
X190080000Y-93460000D03*
G04 #@! TD*
D11*
G04 #@! TO.C,NE86*
X162620000Y-93460000D03*
D10*
X160080000Y-93460000D03*
G04 #@! TD*
D11*
G04 #@! TO.C,NE93*
X267620000Y-93460000D03*
D10*
X265080000Y-93460000D03*
G04 #@! TD*
D11*
G04 #@! TO.C,NE92*
X252620000Y-93460000D03*
D10*
X250080000Y-93460000D03*
G04 #@! TD*
D11*
G04 #@! TO.C,NE94*
X282620000Y-93460000D03*
D10*
X280080000Y-93460000D03*
G04 #@! TD*
D11*
G04 #@! TO.C,NE98*
X342620000Y-93460000D03*
D10*
X340080000Y-93460000D03*
G04 #@! TD*
D11*
G04 #@! TO.C,NE91*
X237620000Y-93460000D03*
D10*
X235080000Y-93460000D03*
G04 #@! TD*
D11*
G04 #@! TO.C,NE95*
X297620000Y-93460000D03*
D10*
X295080000Y-93460000D03*
G04 #@! TD*
D11*
G04 #@! TO.C,NE97*
X327620000Y-93460000D03*
D10*
X325080000Y-93460000D03*
G04 #@! TD*
D11*
G04 #@! TO.C,NE99*
X357620000Y-93460000D03*
D10*
X355080000Y-93460000D03*
G04 #@! TD*
D11*
G04 #@! TO.C,NE96*
X312620000Y-93460000D03*
D10*
X310080000Y-93460000D03*
G04 #@! TD*
D11*
G04 #@! TO.C,NE100*
X372620000Y-93460000D03*
D10*
X370080000Y-93460000D03*
G04 #@! TD*
D11*
G04 #@! TO.C,NE102*
X102620000Y-107460000D03*
D10*
X100080000Y-107460000D03*
G04 #@! TD*
D11*
G04 #@! TO.C,NE134*
X282620000Y-121460000D03*
D10*
X280080000Y-121460000D03*
G04 #@! TD*
D11*
G04 #@! TO.C,NE132*
X252620000Y-121460000D03*
D10*
X250080000Y-121460000D03*
G04 #@! TD*
D11*
G04 #@! TO.C,NE124*
X132620000Y-121460000D03*
D10*
X130080000Y-121460000D03*
G04 #@! TD*
D11*
G04 #@! TO.C,NE129*
X207620000Y-121460000D03*
D10*
X205080000Y-121460000D03*
G04 #@! TD*
D11*
G04 #@! TO.C,NE127*
X177620000Y-121460000D03*
D10*
X175080000Y-121460000D03*
G04 #@! TD*
D11*
G04 #@! TO.C,NE125*
X147620000Y-121460000D03*
D10*
X145080000Y-121460000D03*
G04 #@! TD*
D11*
G04 #@! TO.C,NE130*
X222620000Y-121460000D03*
D10*
X220080000Y-121460000D03*
G04 #@! TD*
D11*
G04 #@! TO.C,NE133*
X267620000Y-121460000D03*
D10*
X265080000Y-121460000D03*
G04 #@! TD*
D11*
G04 #@! TO.C,NE139*
X357620000Y-121460000D03*
D10*
X355080000Y-121460000D03*
G04 #@! TD*
D11*
G04 #@! TO.C,NE126*
X162620000Y-121460000D03*
D10*
X160080000Y-121460000D03*
G04 #@! TD*
D11*
G04 #@! TO.C,NE138*
X342620000Y-121460000D03*
D10*
X340080000Y-121460000D03*
G04 #@! TD*
D11*
G04 #@! TO.C,NE137*
X327620000Y-121460000D03*
D10*
X325080000Y-121460000D03*
G04 #@! TD*
D11*
G04 #@! TO.C,NE154*
X282620000Y-135460000D03*
D10*
X280080000Y-135460000D03*
G04 #@! TD*
D11*
G04 #@! TO.C,NE152*
X252620000Y-135460000D03*
D10*
X250080000Y-135460000D03*
G04 #@! TD*
D11*
G04 #@! TO.C,NE142*
X102620000Y-135460000D03*
D10*
X100080000Y-135460000D03*
G04 #@! TD*
D11*
G04 #@! TO.C,NE153*
X267620000Y-135460000D03*
D10*
X265080000Y-135460000D03*
G04 #@! TD*
D11*
G04 #@! TO.C,NE162*
X102620000Y-149460000D03*
D10*
X100080000Y-149460000D03*
G04 #@! TD*
D11*
G04 #@! TO.C,NE180*
X372620000Y-149460000D03*
D10*
X370080000Y-149460000D03*
G04 #@! TD*
D11*
G04 #@! TO.C,NE169*
X207620000Y-149460000D03*
D10*
X205080000Y-149460000D03*
G04 #@! TD*
D11*
G04 #@! TO.C,NE170*
X222620000Y-149460000D03*
D10*
X220080000Y-149460000D03*
G04 #@! TD*
D11*
G04 #@! TO.C,NE171*
X237620000Y-149460000D03*
D10*
X235080000Y-149460000D03*
G04 #@! TD*
D11*
G04 #@! TO.C,NE173*
X267620000Y-149460000D03*
D10*
X265080000Y-149460000D03*
G04 #@! TD*
D11*
G04 #@! TO.C,NE179*
X357620000Y-149460000D03*
D10*
X355080000Y-149460000D03*
G04 #@! TD*
D11*
G04 #@! TO.C,NE178*
X342620000Y-149460000D03*
D10*
X340080000Y-149460000D03*
G04 #@! TD*
D11*
G04 #@! TO.C,NE177*
X327620000Y-149460000D03*
D10*
X325080000Y-149460000D03*
G04 #@! TD*
D11*
G04 #@! TO.C,NE176*
X312620000Y-149460000D03*
D10*
X310080000Y-149460000D03*
G04 #@! TD*
D11*
G04 #@! TO.C,NE174*
X282620000Y-149460000D03*
D10*
X280080000Y-149460000D03*
G04 #@! TD*
D11*
G04 #@! TO.C,NE175*
X297620000Y-149460000D03*
D10*
X295080000Y-149460000D03*
G04 #@! TD*
D11*
G04 #@! TO.C,NE172*
X252620000Y-149460000D03*
D10*
X250080000Y-149460000D03*
G04 #@! TD*
D11*
G04 #@! TO.C,NE188*
X192620000Y-163460000D03*
D10*
X190080000Y-163460000D03*
G04 #@! TD*
D11*
G04 #@! TO.C,NE190*
X222620000Y-163460000D03*
D10*
X220080000Y-163460000D03*
G04 #@! TD*
D11*
G04 #@! TO.C,NE184*
X132620000Y-163460000D03*
D10*
X130080000Y-163460000D03*
G04 #@! TD*
D11*
G04 #@! TO.C,NE200*
X372620000Y-163460000D03*
D10*
X370080000Y-163460000D03*
G04 #@! TD*
D11*
G04 #@! TO.C,NE193*
X267620000Y-163460000D03*
D10*
X265080000Y-163460000D03*
G04 #@! TD*
D11*
G04 #@! TO.C,NE191*
X237620000Y-163460000D03*
D10*
X235080000Y-163460000D03*
G04 #@! TD*
D11*
G04 #@! TO.C,NE185*
X147620000Y-163460000D03*
D10*
X145080000Y-163460000D03*
G04 #@! TD*
D11*
G04 #@! TO.C,NE199*
X357620000Y-163460000D03*
D10*
X355080000Y-163460000D03*
G04 #@! TD*
D11*
G04 #@! TO.C,NE198*
X342620000Y-163460000D03*
D10*
X340080000Y-163460000D03*
G04 #@! TD*
D11*
G04 #@! TO.C,NE187*
X177620000Y-163460000D03*
D10*
X175080000Y-163460000D03*
G04 #@! TD*
D11*
G04 #@! TO.C,NE194*
X282620000Y-163460000D03*
D10*
X280080000Y-163460000D03*
G04 #@! TD*
D11*
G04 #@! TO.C,NE192*
X252620000Y-163460000D03*
D10*
X250080000Y-163460000D03*
G04 #@! TD*
D11*
G04 #@! TO.C,NE196*
X312620000Y-163460000D03*
D10*
X310080000Y-163460000D03*
G04 #@! TD*
D11*
G04 #@! TO.C,NE197*
X327620000Y-163460000D03*
D10*
X325080000Y-163460000D03*
G04 #@! TD*
D11*
G04 #@! TO.C,NE195*
X297620000Y-163460000D03*
D10*
X295080000Y-163460000D03*
G04 #@! TD*
D11*
G04 #@! TO.C,NE3*
X117620000Y-37460000D03*
D10*
X115080000Y-37460000D03*
G04 #@! TD*
D14*
G04 #@! TO.C,J994*
X63500000Y-147500000D03*
D15*
X63500000Y-152580000D03*
X63500000Y-157660000D03*
G04 #@! TD*
G04 #@! TO.C,J993*
X63500000Y-129910000D03*
X63500000Y-124830000D03*
D14*
X63500000Y-119750000D03*
G04 #@! TD*
G04 #@! TO.C,J992*
X63500000Y-77500000D03*
D15*
X63500000Y-82580000D03*
X63500000Y-87660000D03*
G04 #@! TD*
G04 #@! TO.C,J12*
X215000000Y-117000000D03*
X200000000Y-117000000D03*
X185000000Y-117000000D03*
X170000000Y-117000000D03*
X155000000Y-117000000D03*
X140000000Y-117000000D03*
X125000000Y-117000000D03*
X110000000Y-117000000D03*
X95000000Y-117000000D03*
D14*
X80000000Y-117000000D03*
G04 #@! TD*
D15*
G04 #@! TO.C,J8*
X215000000Y-89000000D03*
X200000000Y-89000000D03*
X185000000Y-89000000D03*
X170000000Y-89000000D03*
X155000000Y-89000000D03*
X140000000Y-89000000D03*
X125000000Y-89000000D03*
X110000000Y-89000000D03*
X95000000Y-89000000D03*
D14*
X80000000Y-89000000D03*
G04 #@! TD*
D15*
G04 #@! TO.C,J21*
X365000000Y-173000000D03*
X350000000Y-173000000D03*
X335000000Y-173000000D03*
X320000000Y-173000000D03*
X305000000Y-173000000D03*
X290000000Y-173000000D03*
X275000000Y-173000000D03*
X260000000Y-173000000D03*
X245000000Y-173000000D03*
D14*
X230000000Y-173000000D03*
G04 #@! TD*
G04 #@! TO.C,J20*
X80000000Y-173000000D03*
D15*
X95000000Y-173000000D03*
X110000000Y-173000000D03*
X125000000Y-173000000D03*
X140000000Y-173000000D03*
X155000000Y-173000000D03*
X170000000Y-173000000D03*
X185000000Y-173000000D03*
X200000000Y-173000000D03*
X215000000Y-173000000D03*
G04 #@! TD*
D14*
G04 #@! TO.C,J19*
X230000000Y-159000000D03*
D15*
X245000000Y-159000000D03*
X260000000Y-159000000D03*
X275000000Y-159000000D03*
X290000000Y-159000000D03*
X305000000Y-159000000D03*
X320000000Y-159000000D03*
X335000000Y-159000000D03*
X350000000Y-159000000D03*
X365000000Y-159000000D03*
G04 #@! TD*
G04 #@! TO.C,J18*
X215000000Y-159000000D03*
X200000000Y-159000000D03*
X185000000Y-159000000D03*
X170000000Y-159000000D03*
X155000000Y-159000000D03*
X140000000Y-159000000D03*
X125000000Y-159000000D03*
X110000000Y-159000000D03*
X95000000Y-159000000D03*
D14*
X80000000Y-159000000D03*
G04 #@! TD*
G04 #@! TO.C,J16*
X80000000Y-145000000D03*
D15*
X95000000Y-145000000D03*
X110000000Y-145000000D03*
X125000000Y-145000000D03*
X140000000Y-145000000D03*
X155000000Y-145000000D03*
X170000000Y-145000000D03*
X185000000Y-145000000D03*
X200000000Y-145000000D03*
X215000000Y-145000000D03*
G04 #@! TD*
G04 #@! TO.C,J17*
X365000000Y-145000000D03*
X350000000Y-145000000D03*
X335000000Y-145000000D03*
X320000000Y-145000000D03*
X305000000Y-145000000D03*
X290000000Y-145000000D03*
X275000000Y-145000000D03*
X260000000Y-145000000D03*
X245000000Y-145000000D03*
D14*
X230000000Y-145000000D03*
G04 #@! TD*
G04 #@! TO.C,J14*
X80000000Y-131000000D03*
D15*
X95000000Y-131000000D03*
X110000000Y-131000000D03*
X125000000Y-131000000D03*
X140000000Y-131000000D03*
X155000000Y-131000000D03*
X170000000Y-131000000D03*
X185000000Y-131000000D03*
X200000000Y-131000000D03*
X215000000Y-131000000D03*
G04 #@! TD*
G04 #@! TO.C,J15*
X365000000Y-131000000D03*
X350000000Y-131000000D03*
X335000000Y-131000000D03*
X320000000Y-131000000D03*
X305000000Y-131000000D03*
X290000000Y-131000000D03*
X275000000Y-131000000D03*
X260000000Y-131000000D03*
X245000000Y-131000000D03*
D14*
X230000000Y-131000000D03*
G04 #@! TD*
D15*
G04 #@! TO.C,J11*
X365000000Y-103000000D03*
X350000000Y-103000000D03*
X335000000Y-103000000D03*
X320000000Y-103000000D03*
X305000000Y-103000000D03*
X290000000Y-103000000D03*
X275000000Y-103000000D03*
X260000000Y-103000000D03*
X245000000Y-103000000D03*
D14*
X230000000Y-103000000D03*
G04 #@! TD*
G04 #@! TO.C,J10*
X80000000Y-103000000D03*
D15*
X95000000Y-103000000D03*
X110000000Y-103000000D03*
X125000000Y-103000000D03*
X140000000Y-103000000D03*
X155000000Y-103000000D03*
X170000000Y-103000000D03*
X185000000Y-103000000D03*
X200000000Y-103000000D03*
X215000000Y-103000000D03*
G04 #@! TD*
D14*
G04 #@! TO.C,J9*
X230000000Y-89000000D03*
D15*
X245000000Y-89000000D03*
X260000000Y-89000000D03*
X275000000Y-89000000D03*
X290000000Y-89000000D03*
X305000000Y-89000000D03*
X320000000Y-89000000D03*
X335000000Y-89000000D03*
X350000000Y-89000000D03*
X365000000Y-89000000D03*
G04 #@! TD*
G04 #@! TO.C,J3*
X365000000Y-47000000D03*
X350000000Y-47000000D03*
X335000000Y-47000000D03*
X320000000Y-47000000D03*
X305000000Y-47000000D03*
X290000000Y-47000000D03*
X275000000Y-47000000D03*
X260000000Y-47000000D03*
X245000000Y-47000000D03*
D14*
X230000000Y-47000000D03*
G04 #@! TD*
D15*
G04 #@! TO.C,J5*
X365000000Y-60951600D03*
X350000000Y-60951600D03*
X335000000Y-60951600D03*
X320000000Y-60951600D03*
X305000000Y-60951600D03*
X290000000Y-60951600D03*
X275000000Y-60951600D03*
X260000000Y-60951600D03*
X245000000Y-60951600D03*
D14*
X230000000Y-60951600D03*
G04 #@! TD*
D15*
G04 #@! TO.C,J4*
X215000000Y-60951600D03*
X200000000Y-60951600D03*
X185000000Y-60951600D03*
X170000000Y-60951600D03*
X155000000Y-60951600D03*
X140000000Y-60951600D03*
X125000000Y-60951600D03*
X110000000Y-60951600D03*
X95000000Y-60951600D03*
D14*
X80000000Y-60951600D03*
G04 #@! TD*
D15*
G04 #@! TO.C,J2*
X215000000Y-47000000D03*
X200000000Y-47000000D03*
X185000000Y-47000000D03*
X170000000Y-47000000D03*
X155000000Y-47000000D03*
X140000000Y-47000000D03*
X125000000Y-47000000D03*
X110000000Y-47000000D03*
X95000000Y-47000000D03*
D14*
X80000000Y-47000000D03*
G04 #@! TD*
D15*
G04 #@! TO.C,J991*
X63250000Y-60160000D03*
X63250000Y-55080000D03*
D14*
X63250000Y-50000000D03*
G04 #@! TD*
G04 #@! TO.C,J6*
X80000000Y-75000000D03*
D15*
X95000000Y-75000000D03*
X110000000Y-75000000D03*
X125000000Y-75000000D03*
X140000000Y-75000000D03*
X155000000Y-75000000D03*
X170000000Y-75000000D03*
X185000000Y-75000000D03*
X200000000Y-75000000D03*
X215000000Y-75000000D03*
G04 #@! TD*
G04 #@! TO.C,J7*
X365000000Y-75000000D03*
X350000000Y-75000000D03*
X335000000Y-75000000D03*
X320000000Y-75000000D03*
X305000000Y-75000000D03*
X290000000Y-75000000D03*
X275000000Y-75000000D03*
X260000000Y-75000000D03*
X245000000Y-75000000D03*
D14*
X230000000Y-75000000D03*
G04 #@! TD*
D16*
G04 #@! TO.C,M3*
X60000000Y-175000000D03*
G04 #@! TD*
G04 #@! TO.C,M3*
X380000000Y-175000000D03*
G04 #@! TD*
G04 #@! TO.C,M1*
X60000000Y-35000000D03*
G04 #@! TD*
G04 #@! TO.C,M2*
X380000000Y-35000000D03*
G04 #@! TD*
G04 #@! TO.C,M5*
X225000000Y-112000000D03*
G04 #@! TD*
M02*
