M48
;DRILL file {KiCad (5.0.0)} date 07/24/19 14:48:53
;FORMAT={-:-/ absolute / inch / decimal}
FMAT,2
INCH,TZ
T1C0.0276
T2C0.0295
T3C0.0512
T4C0.1260
%
G90
G05
M72
T1
X13.7795Y-6.1024
X14.0795Y-6.1024
X10.3862Y-3.6795
X10.4862Y-3.6795
X8.4646Y-2.2441
X8.7646Y-2.2441
X10.2362Y-2.2441
X10.5362Y-2.2441
X6.6929Y-5.
X6.9929Y-5.
X6.6929Y-2.2441
X6.9929Y-2.2441
X12.0079Y-3.8976
X12.3079Y-3.8976
X8.024Y-4.7819
X8.124Y-4.7819
X5.6618Y-1.4748
X5.7618Y-1.4748
X7.2835Y-3.3465
X7.5835Y-3.3465
X5.5118Y-3.3465
X5.8118Y-3.3465
X11.5673Y-2.026
X11.6673Y-2.026
X8.6146Y-1.4748
X8.7146Y-1.4748
X6.8429Y-2.026
X6.9429Y-2.026
X11.5673Y-6.4354
X11.6673Y-6.4354
X10.3862Y-2.026
X10.4862Y-2.026
X8.4646Y-6.6535
X8.7646Y-6.6535
X6.2524Y-3.1283
X6.3524Y-3.1283
X12.7484Y-2.026
X12.8484Y-2.026
X11.5673Y-5.8843
X11.6673Y-5.8843
X12.7484Y-3.1283
X12.8484Y-3.1283
X13.339Y-2.5772
X13.439Y-2.5772
X10.9768Y-5.8843
X11.0768Y-5.8843
X13.339Y-5.8843
X13.439Y-5.8843
X9.6457Y-2.7953
X9.9457Y-2.7953
X10.8268Y-3.8976
X11.1268Y-3.8976
X5.6618Y-6.4354
X5.7618Y-6.4354
X13.9295Y-5.8843
X14.0295Y-5.8843
X4.3307Y-2.7953
X4.6307Y-2.7953
X12.1579Y-3.6795
X12.2579Y-3.6795
X10.9768Y-3.6795
X11.0768Y-3.6795
X12.0079Y-6.6535
X12.3079Y-6.6535
X12.0079Y-6.1024
X12.3079Y-6.1024
X14.5201Y-2.026
X14.6201Y-2.026
X5.5118Y-5.
X5.8118Y-5.
X8.024Y-3.6795
X8.124Y-3.6795
X3.7402Y-5.5512
X4.0402Y-5.5512
X3.8902Y-3.6795
X3.9902Y-3.6795
X3.8902Y-5.8843
X3.9902Y-5.8843
X10.2362Y-3.3465
X10.5362Y-3.3465
X12.5984Y-1.6929
X12.8984Y-1.6929
X6.6929Y-3.8976
X6.9929Y-3.8976
X3.2996Y-2.5772
X3.3996Y-2.5772
X14.3701Y-2.2441
X14.6701Y-2.2441
X14.5201Y-3.6795
X14.6201Y-3.6795
X10.8268Y-1.6929
X11.1268Y-1.6929
X5.0713Y-4.7819
X5.1713Y-4.7819
X6.6929Y-1.6929
X6.9929Y-1.6929
X5.5118Y-1.6929
X5.8118Y-1.6929
X9.2051Y-2.026
X9.3051Y-2.026
X6.6929Y-3.3465
X6.9929Y-3.3465
X10.3862Y-1.4748
X10.4862Y-1.4748
X10.3862Y-6.4354
X10.4862Y-6.4354
X8.024Y-3.1283
X8.124Y-3.1283
X11.5673Y-1.4748
X11.6673Y-1.4748
X12.1579Y-6.4354
X12.2579Y-6.4354
X7.2835Y-1.6929
X7.5835Y-1.6929
X12.5984Y-2.7953
X12.8984Y-2.7953
X9.6457Y-6.6535
X9.9457Y-6.6535
X13.339Y-2.026
X13.439Y-2.026
X8.6146Y-2.5772
X8.7146Y-2.5772
X9.0551Y-2.7953
X9.3551Y-2.7953
X8.6146Y-4.7819
X8.7146Y-4.7819
X13.189Y-6.6535
X13.489Y-6.6535
X10.3862Y-5.3331
X10.4862Y-5.3331
X3.1496Y-2.7953
X3.4496Y-2.7953
X9.6457Y-5.
X9.9457Y-5.
X10.8268Y-3.3465
X11.1268Y-3.3465
X12.5984Y-6.6535
X12.8984Y-6.6535
X12.7484Y-5.8843
X12.8484Y-5.8843
X11.4173Y-1.6929
X11.7173Y-1.6929
X12.5984Y-5.
X12.8984Y-5.
X5.5118Y-3.8976
X5.8118Y-3.8976
X10.2362Y-6.1024
X10.5362Y-6.1024
X13.189Y-3.3465
X13.489Y-3.3465
X9.2051Y-2.5772
X9.3051Y-2.5772
X3.8902Y-5.3331
X3.9902Y-5.3331
X13.7795Y-1.6929
X14.0795Y-1.6929
X7.874Y-3.8976
X8.174Y-3.8976
X9.6457Y-1.6929
X9.9457Y-1.6929
X5.5118Y-2.2441
X5.8118Y-2.2441
X7.874Y-5.
X8.174Y-5.
X3.7402Y-6.1024
X4.0402Y-6.1024
X4.4807Y-2.5772
X4.5807Y-2.5772
X10.2362Y-5.
X10.5362Y-5.
X5.6618Y-3.1283
X5.7618Y-3.1283
X6.8429Y-1.4748
X6.9429Y-1.4748
X13.339Y-1.4748
X13.439Y-1.4748
X12.1579Y-2.026
X12.2579Y-2.026
X4.4807Y-3.1283
X4.5807Y-3.1283
X9.2051Y-1.4748
X9.3051Y-1.4748
X7.2835Y-6.6535
X7.5835Y-6.6535
X8.6146Y-3.1283
X8.7146Y-3.1283
X12.7484Y-1.4748
X12.8484Y-1.4748
X14.3701Y-2.7953
X14.6701Y-2.7953
X9.7957Y-5.8843
X9.8957Y-5.8843
X12.1579Y-3.1283
X12.2579Y-3.1283
X13.9295Y-6.4354
X14.0295Y-6.4354
X10.9768Y-2.026
X11.0768Y-2.026
X8.4646Y-2.7953
X8.7646Y-2.7953
X10.9768Y-6.4354
X11.0768Y-6.4354
X9.6457Y-6.1024
X9.9457Y-6.1024
X12.1579Y-2.5772
X12.2579Y-2.5772
X3.7402Y-4.4488
X4.0402Y-4.4488
X9.2051Y-6.4354
X9.3051Y-6.4354
X6.2524Y-4.7819
X6.3524Y-4.7819
X13.9295Y-2.5772
X14.0295Y-2.5772
X10.3862Y-4.7819
X10.4862Y-4.7819
X6.8429Y-3.6795
X6.9429Y-3.6795
X9.2051Y-5.8843
X9.3051Y-5.8843
X12.0079Y-2.2441
X12.3079Y-2.2441
X8.6146Y-3.6795
X8.7146Y-3.6795
X12.5984Y-6.1024
X12.8984Y-6.1024
X6.1024Y-3.8976
X6.4024Y-3.8976
X7.874Y-2.2441
X8.174Y-2.2441
X11.5673Y-3.6795
X11.6673Y-3.6795
X10.2362Y-1.6929
X10.5362Y-1.6929
X12.7484Y-3.6795
X12.8484Y-3.6795
X9.0551Y-1.6929
X9.3551Y-1.6929
X13.7795Y-2.2441
X14.0795Y-2.2441
X5.6618Y-4.7819
X5.7618Y-4.7819
X7.2835Y-2.2441
X7.5835Y-2.2441
X13.189Y-5.
X13.489Y-5.
X7.4335Y-1.4748
X7.5335Y-1.4748
X4.9213Y-1.6929
X5.2213Y-1.6929
X10.9768Y-3.1283
X11.0768Y-3.1283
X6.2524Y-1.4748
X6.3524Y-1.4748
X13.9295Y-1.4748
X14.0295Y-1.4748
X8.4646Y-3.3465
X8.7646Y-3.3465
X9.7957Y-3.1283
X9.8957Y-3.1283
X14.3701Y-6.6535
X14.6701Y-6.6535
X5.0713Y-3.1283
X5.1713Y-3.1283
X6.2524Y-2.026
X6.3524Y-2.026
X10.8268Y-2.7953
X11.1268Y-2.7953
X6.6929Y-6.6535
X6.9929Y-6.6535
X8.4646Y-1.6929
X8.7646Y-1.6929
X14.5201Y-6.4354
X14.6201Y-6.4354
X9.2051Y-3.1283
X9.3051Y-3.1283
X11.4173Y-2.7953
X11.7173Y-2.7953
X10.8268Y-6.6535
X11.1268Y-6.6535
X7.2835Y-2.7953
X7.5835Y-2.7953
X7.4335Y-3.6795
X7.5335Y-3.6795
X10.2362Y-6.6535
X10.5362Y-6.6535
X10.2362Y-5.5512
X10.5362Y-5.5512
X9.7957Y-2.5772
X9.8957Y-2.5772
X12.5984Y-3.8976
X12.8984Y-3.8976
X6.2524Y-3.6795
X6.3524Y-3.6795
X11.4173Y-6.1024
X11.7173Y-6.1024
X4.9213Y-2.2441
X5.2213Y-2.2441
X8.4646Y-5.
X8.7646Y-5.
X13.339Y-4.7819
X13.439Y-4.7819
X9.7957Y-3.6795
X9.8957Y-3.6795
X9.0551Y-2.2441
X9.3551Y-2.2441
X12.0079Y-3.3465
X12.3079Y-3.3465
X12.5984Y-2.2441
X12.8984Y-2.2441
X7.2835Y-3.8976
X7.5835Y-3.8976
X6.8429Y-2.5772
X6.9429Y-2.5772
X4.9213Y-5.
X5.2213Y-5.
X14.3701Y-1.6929
X14.6701Y-1.6929
X6.1024Y-5.
X6.4024Y-5.
X12.0079Y-1.6929
X12.3079Y-1.6929
X10.9768Y-4.7819
X11.0768Y-4.7819
X9.0551Y-6.1024
X9.3551Y-6.1024
X8.024Y-1.4748
X8.124Y-1.4748
X4.3307Y-1.6929
X4.6307Y-1.6929
X14.5201Y-1.4748
X14.6201Y-1.4748
X10.9768Y-1.4748
X11.0768Y-1.4748
X5.0713Y-2.026
X5.1713Y-2.026
X5.0713Y-1.4748
X5.1713Y-1.4748
X8.6146Y-2.026
X8.7146Y-2.026
X7.4335Y-6.4354
X7.5335Y-6.4354
X9.7957Y-1.4748
X9.8957Y-1.4748
X13.339Y-3.1283
X13.439Y-3.1283
X13.7795Y-2.7953
X14.0795Y-2.7953
X13.339Y-6.4354
X13.439Y-6.4354
X7.874Y-1.6929
X8.174Y-1.6929
X11.5673Y-2.5772
X11.6673Y-2.5772
X13.7795Y-6.6535
X14.0795Y-6.6535
X5.5118Y-2.7953
X5.8118Y-2.7953
X4.4807Y-1.4748
X4.5807Y-1.4748
X9.6457Y-5.5512
X9.9457Y-5.5512
X7.874Y-2.7953
X8.174Y-2.7953
X10.2362Y-3.8976
X10.5362Y-3.8976
X13.9295Y-3.1283
X14.0295Y-3.1283
X11.4173Y-6.6535
X11.7173Y-6.6535
X9.7957Y-5.3331
X9.8957Y-5.3331
X5.0713Y-2.5772
X5.1713Y-2.5772
X6.8429Y-4.7819
X6.9429Y-4.7819
X13.9295Y-3.6795
X14.0295Y-3.6795
X12.1579Y-5.8843
X12.2579Y-5.8843
X4.3307Y-2.2441
X4.6307Y-2.2441
X11.4173Y-3.3465
X11.7173Y-3.3465
X12.7484Y-4.7819
X12.8484Y-4.7819
X14.5201Y-3.1283
X14.6201Y-3.1283
X3.1496Y-2.2441
X3.4496Y-2.2441
X8.4646Y-6.1024
X8.7646Y-6.1024
X5.6618Y-3.6795
X5.7618Y-3.6795
X5.6618Y-2.5772
X5.7618Y-2.5772
X10.3862Y-2.5772
X10.4862Y-2.5772
X13.7795Y-3.8976
X14.0795Y-3.8976
X6.2524Y-2.5772
X6.3524Y-2.5772
X11.4173Y-2.2441
X11.7173Y-2.2441
X11.4173Y-3.8976
X11.7173Y-3.8976
X6.1024Y-1.6929
X6.4024Y-1.6929
X4.4807Y-2.026
X4.5807Y-2.026
X7.874Y-3.3465
X8.174Y-3.3465
X8.024Y-2.026
X8.124Y-2.026
X4.3307Y-3.3465
X4.6307Y-3.3465
X9.7957Y-2.026
X9.8957Y-2.026
X5.5118Y-6.6535
X5.8118Y-6.6535
X6.1024Y-3.3465
X6.4024Y-3.3465
X13.189Y-2.7953
X13.489Y-2.7953
X12.7484Y-6.4354
X12.8484Y-6.4354
X9.7957Y-6.4354
X9.8957Y-6.4354
X13.9295Y-2.026
X14.0295Y-2.026
X10.9768Y-2.5772
X11.0768Y-2.5772
X8.6146Y-6.4354
X8.7146Y-6.4354
X7.874Y-6.1024
X8.174Y-6.1024
X6.1024Y-2.7953
X6.4024Y-2.7953
X13.7795Y-5.
X14.0795Y-5.
X9.0551Y-6.6535
X9.3551Y-6.6535
X14.5201Y-5.8843
X14.6201Y-5.8843
X6.6929Y-2.7953
X6.9929Y-2.7953
X9.7957Y-4.7819
X9.8957Y-4.7819
X9.6457Y-3.3465
X9.9457Y-3.3465
X6.8429Y-6.4354
X6.9429Y-6.4354
X8.6146Y-5.8843
X8.7146Y-5.8843
X13.189Y-2.2441
X13.489Y-2.2441
X9.0551Y-3.8976
X9.3551Y-3.8976
X9.0551Y-3.3465
X9.3551Y-3.3465
X10.9768Y-5.3331
X11.0768Y-5.3331
X8.024Y-2.5772
X8.124Y-2.5772
X14.3701Y-3.3465
X14.6701Y-3.3465
X13.339Y-3.6795
X13.439Y-3.6795
X12.7484Y-2.5772
X12.8484Y-2.5772
X8.4646Y-3.8976
X8.7646Y-3.8976
X9.6457Y-2.2441
X9.9457Y-2.2441
X10.8268Y-2.2441
X11.1268Y-2.2441
X3.8902Y-4.2307
X3.9902Y-4.2307
X14.3701Y-3.8976
X14.6701Y-3.8976
X13.189Y-3.8976
X13.489Y-3.8976
X4.9213Y-3.3465
X5.2213Y-3.3465
X12.1579Y-1.4748
X12.2579Y-1.4748
X5.6618Y-2.026
X5.7618Y-2.026
X7.4335Y-2.026
X7.5335Y-2.026
X6.8429Y-3.1283
X6.9429Y-3.1283
X3.2996Y-2.026
X3.3996Y-2.026
X5.0713Y-6.4354
X5.1713Y-6.4354
X7.4335Y-3.1283
X7.5335Y-3.1283
X10.3862Y-3.1283
X10.4862Y-3.1283
X12.0079Y-2.7953
X12.3079Y-2.7953
X10.8268Y-6.1024
X11.1268Y-6.1024
X11.5673Y-3.1283
X11.6673Y-3.1283
X14.5201Y-2.5772
X14.6201Y-2.5772
X4.9213Y-6.6535
X5.2213Y-6.6535
X10.3862Y-5.8843
X10.4862Y-5.8843
X10.2362Y-2.7953
X10.5362Y-2.7953
X13.9295Y-4.7819
X14.0295Y-4.7819
X14.3701Y-6.1024
X14.6701Y-6.1024
X10.8268Y-5.5512
X11.1268Y-5.5512
X4.9213Y-2.7953
X5.2213Y-2.7953
X12.5984Y-3.3465
X12.8984Y-3.3465
X13.189Y-6.1024
X13.489Y-6.1024
X6.1024Y-2.2441
X6.4024Y-2.2441
X9.6457Y-3.8976
X9.9457Y-3.8976
X3.7402Y-3.8976
X4.0402Y-3.8976
X10.8268Y-5.
X11.1268Y-5.
X7.4335Y-2.5772
X7.5335Y-2.5772
X13.7795Y-3.3465
X14.0795Y-3.3465
X8.024Y-5.8843
X8.124Y-5.8843
X9.2051Y-3.6795
X9.3051Y-3.6795
X13.189Y-1.6929
X13.489Y-1.6929
T2
X10.2362Y-1.4748
X10.2362Y-1.5248
X10.2362Y-1.5748
X6.6929Y-4.7819
X6.6929Y-4.8319
X6.6929Y-4.8819
X10.2362Y-4.7819
X10.2362Y-4.8319
X10.2362Y-4.8819
X9.0551Y-2.5772
X9.0551Y-2.6272
X9.0551Y-2.6772
X9.6457Y-3.1283
X9.6457Y-3.1783
X9.6457Y-3.2283
X12.0079Y-3.1283
X12.0079Y-3.1783
X12.0079Y-3.2283
X8.4646Y-2.5772
X8.4646Y-2.6272
X8.4646Y-2.6772
X10.2362Y-5.3331
X10.2362Y-5.3831
X10.2362Y-5.4331
X6.1024Y-1.4748
X6.1024Y-1.5248
X6.1024Y-1.5748
X9.6457Y-6.4354
X9.6457Y-6.4854
X9.6457Y-6.5354
X14.3701Y-3.1283
X14.3701Y-3.1783
X14.3701Y-3.2283
X8.4646Y-3.6795
X8.4646Y-3.7295
X8.4646Y-3.7795
X13.7795Y-2.026
X13.7795Y-2.076
X13.7795Y-2.126
X10.8268Y-2.026
X10.8268Y-2.076
X10.8268Y-2.126
X3.7402Y-4.2307
X3.7402Y-4.2807
X3.7402Y-4.3307
X4.9213Y-2.026
X4.9213Y-2.076
X4.9213Y-2.126
X3.1496Y-2.5772
X3.1496Y-2.6272
X3.1496Y-2.6772
X5.5118Y-4.7819
X5.5118Y-4.8319
X5.5118Y-4.8819
X9.6457Y-1.4748
X9.6457Y-1.5248
X9.6457Y-1.5748
X9.6457Y-4.7819
X9.6457Y-4.8319
X9.6457Y-4.8819
X7.874Y-1.4748
X7.874Y-1.5248
X7.874Y-1.5748
X10.2362Y-5.8843
X10.2362Y-5.9343
X10.2362Y-5.9843
X10.8268Y-5.3331
X10.8268Y-5.3831
X10.8268Y-5.4331
X10.2362Y-2.5772
X10.2362Y-2.6272
X10.2362Y-2.6772
X4.3307Y-1.4748
X4.3307Y-1.5248
X4.3307Y-1.5748
X7.874Y-2.5772
X7.874Y-2.6272
X7.874Y-2.6772
X12.0079Y-2.5772
X12.0079Y-2.6272
X12.0079Y-2.6772
X9.6457Y-5.8843
X9.6457Y-5.9343
X9.6457Y-5.9843
X4.3307Y-3.1283
X4.3307Y-3.1783
X4.3307Y-3.2283
X9.6457Y-3.6795
X9.6457Y-3.7295
X9.6457Y-3.7795
X14.3701Y-6.4354
X14.3701Y-6.4854
X14.3701Y-6.5354
X10.2362Y-3.6795
X10.2362Y-3.7295
X10.2362Y-3.7795
X12.0079Y-2.026
X12.0079Y-2.076
X12.0079Y-2.126
X14.3701Y-3.6795
X14.3701Y-3.7295
X14.3701Y-3.7795
X7.2835Y-2.026
X7.2835Y-2.076
X7.2835Y-2.126
X12.5984Y-5.8843
X12.5984Y-5.9343
X12.5984Y-5.9843
X5.5118Y-2.026
X5.5118Y-2.076
X5.5118Y-2.126
X12.5984Y-4.7819
X12.5984Y-4.8319
X12.5984Y-4.8819
X7.2835Y-1.4748
X7.2835Y-1.5248
X7.2835Y-1.5748
X13.7795Y-3.6795
X13.7795Y-3.7295
X13.7795Y-3.7795
X10.8268Y-1.4748
X10.8268Y-1.5248
X10.8268Y-1.5748
X7.874Y-5.8843
X7.874Y-5.9343
X7.874Y-5.9843
X13.7795Y-2.5772
X13.7795Y-2.6272
X13.7795Y-2.6772
X13.189Y-3.1283
X13.189Y-3.1783
X13.189Y-3.2283
X6.6929Y-2.5772
X6.6929Y-2.6272
X6.6929Y-2.6772
X5.5118Y-2.5772
X5.5118Y-2.6272
X5.5118Y-2.6772
X6.1024Y-3.1283
X6.1024Y-3.1783
X6.1024Y-3.2283
X3.7402Y-3.6795
X3.7402Y-3.7295
X3.7402Y-3.7795
X11.4173Y-3.1283
X11.4173Y-3.1783
X11.4173Y-3.2283
X6.1024Y-2.026
X6.1024Y-2.076
X6.1024Y-2.126
X4.3307Y-2.5772
X4.3307Y-2.6272
X4.3307Y-2.6772
X13.7795Y-4.7819
X13.7795Y-4.8319
X13.7795Y-4.8819
X3.1496Y-2.026
X3.1496Y-2.076
X3.1496Y-2.126
X10.8268Y-4.7819
X10.8268Y-4.8319
X10.8268Y-4.8819
X14.3701Y-1.4748
X14.3701Y-1.5248
X14.3701Y-1.5748
X11.4173Y-6.4354
X11.4173Y-6.4854
X11.4173Y-6.5354
X13.189Y-4.7819
X13.189Y-4.8319
X13.189Y-4.8819
X12.5984Y-1.4708
X12.5984Y-1.5208
X12.5984Y-1.5708
X13.7795Y-5.8843
X13.7795Y-5.9343
X13.7795Y-5.9843
X13.7795Y-6.4354
X13.7795Y-6.4854
X13.7795Y-6.5354
X4.9213Y-1.4748
X4.9213Y-1.5248
X4.9213Y-1.5748
X5.5118Y-3.1283
X5.5118Y-3.1783
X5.5118Y-3.2283
X7.2835Y-2.5772
X7.2835Y-2.6272
X7.2835Y-2.6772
X10.8268Y-6.4354
X10.8268Y-6.4854
X10.8268Y-6.5354
X13.7795Y-3.1283
X13.7795Y-3.1783
X13.7795Y-3.2283
X10.8268Y-3.1283
X10.8268Y-3.1783
X10.8268Y-3.2283
X4.9213Y-6.4354
X4.9213Y-6.4854
X4.9213Y-6.5354
X9.0551Y-3.6795
X9.0551Y-3.7295
X9.0551Y-3.7795
X9.0551Y-6.4354
X9.0551Y-6.4854
X9.0551Y-6.5354
X10.2362Y-2.026
X10.2362Y-2.076
X10.2362Y-2.126
X13.189Y-2.026
X13.189Y-2.076
X13.189Y-2.126
X11.4173Y-5.8843
X11.4173Y-5.9343
X11.4173Y-5.9843
X14.3701Y-2.026
X14.3701Y-2.076
X14.3701Y-2.126
X8.4646Y-6.4354
X8.4646Y-6.4854
X8.4646Y-6.5354
X13.189Y-1.4748
X13.189Y-1.5248
X13.189Y-1.5748
X9.6457Y-5.3331
X9.6457Y-5.3831
X9.6457Y-5.4331
X8.4646Y-1.4748
X8.4646Y-1.5248
X8.4646Y-1.5748
X9.0551Y-5.8843
X9.0551Y-5.9343
X9.0551Y-5.9843
X3.7402Y-5.8843
X3.7402Y-5.9343
X3.7402Y-5.9843
X10.8268Y-2.5772
X10.8268Y-2.6272
X10.8268Y-2.6772
X11.4173Y-2.5772
X11.4173Y-2.6272
X11.4173Y-2.6772
X9.0551Y-3.1283
X9.0551Y-3.1783
X9.0551Y-3.2283
X14.3701Y-2.5772
X14.3701Y-2.6272
X14.3701Y-2.6772
X10.2362Y-3.1283
X10.2362Y-3.1783
X10.2362Y-3.2283
X12.5984Y-3.6795
X12.5984Y-3.7295
X12.5984Y-3.7795
X12.5984Y-2.5772
X12.5984Y-2.6272
X12.5984Y-2.6772
X7.2835Y-6.4354
X7.2835Y-6.4854
X7.2835Y-6.5354
X11.4173Y-3.6795
X11.4173Y-3.7295
X11.4173Y-3.7795
X6.6929Y-6.4354
X6.6929Y-6.4854
X6.6929Y-6.5354
X6.6929Y-3.6795
X6.6929Y-3.7295
X6.6929Y-3.7795
X11.4173Y-2.026
X11.4173Y-2.076
X11.4173Y-2.126
X6.6929Y-2.026
X6.6929Y-2.076
X6.6929Y-2.126
X8.4646Y-2.026
X8.4646Y-2.076
X8.4646Y-2.126
X4.9213Y-4.7819
X4.9213Y-4.8319
X4.9213Y-4.8819
X6.6929Y-1.4748
X6.6929Y-1.5248
X6.6929Y-1.5748
X5.5118Y-6.4354
X5.5118Y-6.4854
X5.5118Y-6.5354
X12.0079Y-5.8843
X12.0079Y-5.9343
X12.0079Y-5.9843
X6.1024Y-4.7819
X6.1024Y-4.8319
X6.1024Y-4.8819
X6.1024Y-2.5772
X6.1024Y-2.6272
X6.1024Y-2.6772
X7.874Y-3.1283
X7.874Y-3.1783
X7.874Y-3.2283
X8.4646Y-3.1283
X8.4646Y-3.1783
X8.4646Y-3.2283
X10.8268Y-5.8843
X10.8268Y-5.9343
X10.8268Y-5.9843
X4.9213Y-3.1283
X4.9213Y-3.1783
X4.9213Y-3.2283
X13.189Y-6.4354
X13.189Y-6.4854
X13.189Y-6.5354
X10.8268Y-3.6795
X10.8268Y-3.7295
X10.8268Y-3.7795
X10.2362Y-6.4354
X10.2362Y-6.4854
X10.2362Y-6.5354
X5.5118Y-3.6795
X5.5118Y-3.7295
X5.5118Y-3.7795
X12.5984Y-6.4354
X12.5984Y-6.4854
X12.5984Y-6.5354
X12.5984Y-3.1283
X12.5984Y-3.1783
X12.5984Y-3.2283
X9.0551Y-2.026
X9.0551Y-2.076
X9.0551Y-2.126
X12.5984Y-2.026
X12.5984Y-2.076
X12.5984Y-2.126
X3.7402Y-5.3331
X3.7402Y-5.3831
X3.7402Y-5.4331
X9.6457Y-2.026
X9.6457Y-2.076
X9.6457Y-2.126
X7.874Y-4.7819
X7.874Y-4.8319
X7.874Y-4.8819
X11.4173Y-1.4748
X11.4173Y-1.5248
X11.4173Y-1.5748
X14.3701Y-5.8843
X14.3701Y-5.9343
X14.3701Y-5.9843
X4.3307Y-2.026
X4.3307Y-2.076
X4.3307Y-2.126
X8.4646Y-5.8843
X8.4646Y-5.9343
X8.4646Y-5.9843
X13.189Y-5.8843
X13.189Y-5.9343
X13.189Y-5.9843
X7.874Y-3.6795
X7.874Y-3.7295
X7.874Y-3.7795
X7.2835Y-3.1283
X7.2835Y-3.1783
X7.2835Y-3.2283
X13.189Y-2.5772
X13.189Y-2.6272
X13.189Y-2.6772
X5.5118Y-1.4748
X5.5118Y-1.5248
X5.5118Y-1.5748
X6.6929Y-3.1283
X6.6929Y-3.1783
X6.6929Y-3.2283
X12.0079Y-6.4354
X12.0079Y-6.4854
X12.0079Y-6.5354
X7.2835Y-3.6795
X7.2835Y-3.7295
X7.2835Y-3.7795
X9.6457Y-2.5772
X9.6457Y-2.6272
X9.6457Y-2.6772
X12.0079Y-3.6795
X12.0079Y-3.7295
X12.0079Y-3.7795
X6.1024Y-3.6795
X6.1024Y-3.7295
X6.1024Y-3.7795
X12.0079Y-1.4748
X12.0079Y-1.5248
X12.0079Y-1.5748
X4.9213Y-2.5772
X4.9213Y-2.6272
X4.9213Y-2.6772
X8.4646Y-4.7819
X8.4646Y-4.8319
X8.4646Y-4.8819
X9.0551Y-1.4748
X9.0551Y-1.5248
X9.0551Y-1.5748
X7.874Y-2.026
X7.874Y-2.076
X7.874Y-2.126
X13.189Y-3.6795
X13.189Y-3.7295
X13.189Y-3.7795
X13.7795Y-1.4748
X13.7795Y-1.5248
X13.7795Y-1.5748
T3
X3.1496Y-2.3997
X3.7402Y-2.3997
X4.3307Y-2.3997
X4.9213Y-2.3997
X5.5118Y-2.3997
X6.1024Y-2.3997
X6.6929Y-2.3997
X7.2835Y-2.3997
X7.874Y-2.3997
X8.4646Y-2.3997
X3.1496Y-5.1575
X3.7402Y-5.1575
X4.3307Y-5.1575
X4.9213Y-5.1575
X5.5118Y-5.1575
X6.1024Y-5.1575
X6.6929Y-5.1575
X7.2835Y-5.1575
X7.874Y-5.1575
X8.4646Y-5.1575
X9.0551Y-2.3997
X9.6457Y-2.3997
X10.2362Y-2.3997
X10.8268Y-2.3997
X11.4173Y-2.3997
X12.0079Y-2.3997
X12.5984Y-2.3997
X13.189Y-2.3997
X13.7795Y-2.3997
X14.3701Y-2.3997
X2.6405Y-1.766
X2.6405Y-1.966
X2.6405Y-2.166
X9.0551Y-3.5039
X9.6457Y-3.5039
X10.2362Y-3.5039
X10.8268Y-3.5039
X11.4173Y-3.5039
X12.0079Y-3.5039
X12.5984Y-3.5039
X13.189Y-3.5039
X13.7795Y-3.5039
X14.3701Y-3.5039
X9.0551Y-5.1575
X9.6457Y-5.1575
X10.2362Y-5.1575
X10.8268Y-5.1575
X11.4173Y-5.1575
X12.0079Y-5.1575
X12.5984Y-5.1575
X13.189Y-5.1575
X13.7795Y-5.1575
X14.3701Y-5.1575
X9.0551Y-5.7087
X9.6457Y-5.7087
X10.2362Y-5.7087
X10.8268Y-5.7087
X11.4173Y-5.7087
X12.0079Y-5.7087
X12.5984Y-5.7087
X13.189Y-5.7087
X13.7795Y-5.7087
X14.3701Y-5.7087
X3.1496Y-6.811
X3.7402Y-6.811
X4.3307Y-6.811
X4.9213Y-6.811
X5.5118Y-6.811
X6.1024Y-6.811
X6.6929Y-6.811
X7.2835Y-6.811
X7.874Y-6.811
X8.4646Y-6.811
X3.1496Y-4.6063
X3.7402Y-4.6063
X4.3307Y-4.6063
X4.9213Y-4.6063
X5.5118Y-4.6063
X6.1024Y-4.6063
X6.6929Y-4.6063
X7.2835Y-4.6063
X7.874Y-4.6063
X8.4646Y-4.6063
X3.1496Y-6.2598
X3.7402Y-6.2598
X4.3307Y-6.2598
X4.9213Y-6.2598
X5.5118Y-6.2598
X6.1024Y-6.2598
X6.6929Y-6.2598
X7.2835Y-6.2598
X7.874Y-6.2598
X8.4646Y-6.2598
X9.0551Y-6.811
X9.6457Y-6.811
X10.2362Y-6.811
X10.8268Y-6.811
X11.4173Y-6.811
X12.0079Y-6.811
X12.5984Y-6.811
X13.189Y-6.811
X13.7795Y-6.811
X14.3701Y-6.811
X9.0551Y-1.8504
X9.6457Y-1.8504
X10.2362Y-1.8504
X10.8268Y-1.8504
X11.4173Y-1.8504
X12.0079Y-1.8504
X12.5984Y-1.8504
X13.189Y-1.8504
X13.7795Y-1.8504
X14.3701Y-1.8504
X3.1496Y-3.5039
X3.7402Y-3.5039
X4.3307Y-3.5039
X4.9213Y-3.5039
X5.5118Y-3.5039
X6.1024Y-3.5039
X6.6929Y-3.5039
X7.2835Y-3.5039
X7.874Y-3.5039
X8.4646Y-3.5039
X9.0551Y-4.0551
X9.6457Y-4.0551
X10.2362Y-4.0551
X10.8268Y-4.0551
X11.4173Y-4.0551
X12.0079Y-4.0551
X12.5984Y-4.0551
X13.189Y-4.0551
X13.7795Y-4.0551
X14.3701Y-4.0551
X9.0551Y-2.9528
X9.6457Y-2.9528
X10.2362Y-2.9528
X10.8268Y-2.9528
X11.4173Y-2.9528
X12.0079Y-2.9528
X12.5984Y-2.9528
X13.189Y-2.9528
X13.7795Y-2.9528
X14.3701Y-2.9528
X3.1496Y-4.0551
X3.7402Y-4.0551
X4.3307Y-4.0551
X4.9213Y-4.0551
X5.5118Y-4.0551
X6.1024Y-4.0551
X6.6929Y-4.0551
X7.2835Y-4.0551
X7.874Y-4.0551
X8.4646Y-4.0551
X9.0551Y-6.2598
X9.6457Y-6.2598
X10.2362Y-6.2598
X10.8268Y-6.2598
X11.4173Y-6.2598
X12.0079Y-6.2598
X12.5984Y-6.2598
X13.189Y-6.2598
X13.7795Y-6.2598
X14.3701Y-6.2598
X3.1496Y-2.9528
X3.7402Y-2.9528
X4.3307Y-2.9528
X4.9213Y-2.9528
X5.5118Y-2.9528
X6.1024Y-2.9528
X6.6929Y-2.9528
X7.2835Y-2.9528
X7.874Y-2.9528
X8.4646Y-2.9528
X3.1496Y-5.7087
X3.7402Y-5.7087
X4.3307Y-5.7087
X4.9213Y-5.7087
X5.5118Y-5.7087
X6.1024Y-5.7087
X6.6929Y-5.7087
X7.2835Y-5.7087
X7.874Y-5.7087
X8.4646Y-5.7087
X3.1496Y-1.8504
X3.7402Y-1.8504
X4.3307Y-1.8504
X4.9213Y-1.8504
X5.5118Y-1.8504
X6.1024Y-1.8504
X6.6929Y-1.8504
X7.2835Y-1.8504
X7.874Y-1.8504
X8.4646Y-1.8504
T4
X14.9606Y-1.378
X2.3622Y-1.378
X8.8583Y-4.4094
X2.3622Y-6.8898
X14.9606Y-6.8898
T0
M30
