G04 #@! TF.GenerationSoftware,KiCad,Pcbnew,(5.0.0)*
G04 #@! TF.CreationDate,2019-07-24T14:48:48+01:00*
G04 #@! TF.ProjectId,noname,6E6F6E616D652E6B696361645F706362,rev?*
G04 #@! TF.SameCoordinates,Original*
G04 #@! TF.FileFunction,Other,User*
%FSLAX46Y46*%
G04 Gerber Fmt 4.6, Leading zero omitted, Abs format (unit mm)*
G04 Created by KiCad (PCBNEW (5.0.0)) date 07/24/19 14:48:48*
%MOMM*%
%LPD*%
G01*
G04 APERTURE LIST*
%ADD10C,0.500000*%
%ADD11C,0.050000*%
G04 APERTURE END LIST*
D10*
G04 #@! TO.C,J12*
X77500000Y-114500000D02*
X77500000Y-119500000D01*
X77500000Y-119500000D02*
X217500000Y-119500000D01*
X217500000Y-114500000D02*
X217500000Y-119500000D01*
X77500000Y-114500000D02*
X217500000Y-114500000D01*
G04 #@! TO.C,J8*
X77500000Y-86500000D02*
X77500000Y-91500000D01*
X77500000Y-91500000D02*
X217500000Y-91500000D01*
X217500000Y-86500000D02*
X217500000Y-91500000D01*
X77500000Y-86500000D02*
X217500000Y-86500000D01*
G04 #@! TO.C,J14*
X77500000Y-128500000D02*
X77500000Y-133500000D01*
X77500000Y-133500000D02*
X217500000Y-133500000D01*
X217500000Y-128500000D02*
X217500000Y-133500000D01*
X77500000Y-128500000D02*
X217500000Y-128500000D01*
G04 #@! TO.C,J15*
X227500000Y-128500000D02*
X227500000Y-133500000D01*
X227500000Y-133500000D02*
X367500000Y-133500000D01*
X367500000Y-128500000D02*
X367500000Y-133500000D01*
X227500000Y-128500000D02*
X367500000Y-128500000D01*
G04 #@! TO.C,J10*
X77500000Y-100500000D02*
X77500000Y-105500000D01*
X77500000Y-105500000D02*
X217500000Y-105500000D01*
X217500000Y-100500000D02*
X217500000Y-105500000D01*
X77500000Y-100500000D02*
X217500000Y-100500000D01*
G04 #@! TO.C,J11*
X227500000Y-100500000D02*
X227500000Y-105500000D01*
X227500000Y-105500000D02*
X367500000Y-105500000D01*
X367500000Y-100500000D02*
X367500000Y-105500000D01*
X227500000Y-100500000D02*
X367500000Y-100500000D01*
G04 #@! TO.C,J19*
X227500000Y-156500000D02*
X227500000Y-161500000D01*
X227500000Y-161500000D02*
X367500000Y-161500000D01*
X367500000Y-156500000D02*
X367500000Y-161500000D01*
X227500000Y-156500000D02*
X367500000Y-156500000D01*
G04 #@! TO.C,J2*
X77500000Y-44500000D02*
X77500000Y-49500000D01*
X77500000Y-49500000D02*
X217500000Y-49500000D01*
X217500000Y-44500000D02*
X217500000Y-49500000D01*
X77500000Y-44500000D02*
X217500000Y-44500000D01*
G04 #@! TO.C,J4*
X77500000Y-58451600D02*
X77500000Y-63451600D01*
X77500000Y-63451600D02*
X217500000Y-63451600D01*
X217500000Y-58451600D02*
X217500000Y-63451600D01*
X77500000Y-58451600D02*
X217500000Y-58451600D01*
G04 #@! TO.C,J5*
X227500000Y-58451600D02*
X227500000Y-63451600D01*
X227500000Y-63451600D02*
X367500000Y-63451600D01*
X367500000Y-58451600D02*
X367500000Y-63451600D01*
X227500000Y-58451600D02*
X367500000Y-58451600D01*
G04 #@! TO.C,J3*
X227500000Y-44500000D02*
X227500000Y-49500000D01*
X227500000Y-49500000D02*
X367500000Y-49500000D01*
X367500000Y-44500000D02*
X367500000Y-49500000D01*
X227500000Y-44500000D02*
X367500000Y-44500000D01*
G04 #@! TO.C,J9*
X227500000Y-86500000D02*
X227500000Y-91500000D01*
X227500000Y-91500000D02*
X367500000Y-91500000D01*
X367500000Y-86500000D02*
X367500000Y-91500000D01*
X227500000Y-86500000D02*
X367500000Y-86500000D01*
G04 #@! TO.C,J6*
X77500000Y-72500000D02*
X77500000Y-77500000D01*
X77500000Y-77500000D02*
X217500000Y-77500000D01*
X217500000Y-72500000D02*
X217500000Y-77500000D01*
X77500000Y-72500000D02*
X217500000Y-72500000D01*
G04 #@! TO.C,J7*
X227500000Y-72500000D02*
X227500000Y-77500000D01*
X227500000Y-77500000D02*
X367500000Y-77500000D01*
X367500000Y-72500000D02*
X367500000Y-77500000D01*
X227500000Y-72500000D02*
X367500000Y-72500000D01*
G04 #@! TO.C,J18*
X77500000Y-156500000D02*
X77500000Y-161500000D01*
X77500000Y-161500000D02*
X217500000Y-161500000D01*
X217500000Y-156500000D02*
X217500000Y-161500000D01*
X77500000Y-156500000D02*
X217500000Y-156500000D01*
G04 #@! TO.C,J17*
X227500000Y-142500000D02*
X227500000Y-147500000D01*
X227500000Y-147500000D02*
X367500000Y-147500000D01*
X367500000Y-142500000D02*
X367500000Y-147500000D01*
X227500000Y-142500000D02*
X367500000Y-142500000D01*
G04 #@! TO.C,J16*
X77500000Y-142500000D02*
X77500000Y-147500000D01*
X77500000Y-147500000D02*
X217500000Y-147500000D01*
X217500000Y-142500000D02*
X217500000Y-147500000D01*
X77500000Y-142500000D02*
X217500000Y-142500000D01*
G04 #@! TO.C,J21*
X227500000Y-170500000D02*
X227500000Y-175500000D01*
X227500000Y-175500000D02*
X367500000Y-175500000D01*
X367500000Y-170500000D02*
X367500000Y-175500000D01*
X227500000Y-170500000D02*
X367500000Y-170500000D01*
G04 #@! TO.C,J20*
X77500000Y-170500000D02*
X77500000Y-175500000D01*
X77500000Y-175500000D02*
X217500000Y-175500000D01*
X217500000Y-170500000D02*
X217500000Y-175500000D01*
X77500000Y-170500000D02*
X217500000Y-170500000D01*
D11*
G04 #@! TO.C,J1*
X73468800Y-58066400D02*
X73468800Y-41816400D01*
X61268800Y-58066400D02*
X73468800Y-58066400D01*
X61268800Y-41816400D02*
X61268800Y-58066400D01*
X73468800Y-41816400D02*
X61268800Y-41816400D01*
G04 #@! TO.C,Q184*
X126850000Y-162050000D02*
X126850000Y-167550000D01*
X126850000Y-162050000D02*
X122250000Y-162050000D01*
X122250000Y-167550000D02*
X126850000Y-167550000D01*
X122250000Y-167550000D02*
X122250000Y-162050000D01*
G04 #@! TO.C,Q192*
X246850000Y-162050000D02*
X246850000Y-167550000D01*
X246850000Y-162050000D02*
X242250000Y-162050000D01*
X242250000Y-167550000D02*
X246850000Y-167550000D01*
X242250000Y-167550000D02*
X242250000Y-162050000D01*
G04 #@! TO.C,Q191*
X231850000Y-162050000D02*
X231850000Y-167550000D01*
X231850000Y-162050000D02*
X227250000Y-162050000D01*
X227250000Y-167550000D02*
X231850000Y-167550000D01*
X227250000Y-167550000D02*
X227250000Y-162050000D01*
G04 #@! TO.C,Q200*
X366850000Y-162050000D02*
X366850000Y-167550000D01*
X366850000Y-162050000D02*
X362250000Y-162050000D01*
X362250000Y-167550000D02*
X366850000Y-167550000D01*
X362250000Y-167550000D02*
X362250000Y-162050000D01*
G04 #@! TO.C,Q196*
X306850000Y-162050000D02*
X306850000Y-167550000D01*
X306850000Y-162050000D02*
X302250000Y-162050000D01*
X302250000Y-167550000D02*
X306850000Y-167550000D01*
X302250000Y-167550000D02*
X302250000Y-162050000D01*
G04 #@! TO.C,Q198*
X336850000Y-162050000D02*
X336850000Y-167550000D01*
X336850000Y-162050000D02*
X332250000Y-162050000D01*
X332250000Y-167550000D02*
X336850000Y-167550000D01*
X332250000Y-167550000D02*
X332250000Y-162050000D01*
G04 #@! TO.C,Q194*
X276850000Y-162050000D02*
X276850000Y-167550000D01*
X276850000Y-162050000D02*
X272250000Y-162050000D01*
X272250000Y-167550000D02*
X276850000Y-167550000D01*
X272250000Y-167550000D02*
X272250000Y-162050000D01*
G04 #@! TO.C,Q197*
X321850000Y-162050000D02*
X321850000Y-167550000D01*
X321850000Y-162050000D02*
X317250000Y-162050000D01*
X317250000Y-167550000D02*
X321850000Y-167550000D01*
X317250000Y-167550000D02*
X317250000Y-162050000D01*
G04 #@! TO.C,Q187*
X171850000Y-162050000D02*
X171850000Y-167550000D01*
X171850000Y-162050000D02*
X167250000Y-162050000D01*
X167250000Y-167550000D02*
X171850000Y-167550000D01*
X167250000Y-167550000D02*
X167250000Y-162050000D01*
G04 #@! TO.C,Q193*
X261850000Y-162050000D02*
X261850000Y-167550000D01*
X261850000Y-162050000D02*
X257250000Y-162050000D01*
X257250000Y-167550000D02*
X261850000Y-167550000D01*
X257250000Y-167550000D02*
X257250000Y-162050000D01*
G04 #@! TO.C,Q188*
X186850000Y-162050000D02*
X186850000Y-167550000D01*
X186850000Y-162050000D02*
X182250000Y-162050000D01*
X182250000Y-167550000D02*
X186850000Y-167550000D01*
X182250000Y-167550000D02*
X182250000Y-162050000D01*
G04 #@! TO.C,Q195*
X291850000Y-162050000D02*
X291850000Y-167550000D01*
X291850000Y-162050000D02*
X287250000Y-162050000D01*
X287250000Y-167550000D02*
X291850000Y-167550000D01*
X287250000Y-167550000D02*
X287250000Y-162050000D01*
G04 #@! TO.C,NE129*
X207400000Y-122510000D02*
X207400000Y-120410000D01*
X207400000Y-120410000D02*
X202860000Y-120410000D01*
X202860000Y-120410000D02*
X202860000Y-122510000D01*
X202860000Y-122510000D02*
X207400000Y-122510000D01*
G04 #@! TO.C,R125*
X123950000Y-125750000D02*
X123950000Y-128250000D01*
X123950000Y-128250000D02*
X133670000Y-128250000D01*
X133670000Y-128250000D02*
X133670000Y-125750000D01*
X133670000Y-125750000D02*
X123950000Y-125750000D01*
G04 #@! TO.C,NE134*
X277860000Y-122510000D02*
X282400000Y-122510000D01*
X277860000Y-120410000D02*
X277860000Y-122510000D01*
X282400000Y-120410000D02*
X277860000Y-120410000D01*
X282400000Y-122510000D02*
X282400000Y-120410000D01*
G04 #@! TO.C,R134*
X258950000Y-125750000D02*
X258950000Y-128250000D01*
X258950000Y-128250000D02*
X268670000Y-128250000D01*
X268670000Y-128250000D02*
X268670000Y-125750000D01*
X268670000Y-125750000D02*
X258950000Y-125750000D01*
G04 #@! TO.C,NE125*
X142860000Y-122510000D02*
X147400000Y-122510000D01*
X142860000Y-120410000D02*
X142860000Y-122510000D01*
X147400000Y-120410000D02*
X142860000Y-120410000D01*
X147400000Y-122510000D02*
X147400000Y-120410000D01*
G04 #@! TO.C,R127*
X163670000Y-125750000D02*
X153950000Y-125750000D01*
X163670000Y-128250000D02*
X163670000Y-125750000D01*
X153950000Y-128250000D02*
X163670000Y-128250000D01*
X153950000Y-125750000D02*
X153950000Y-128250000D01*
G04 #@! TO.C,NE102*
X97860000Y-108510000D02*
X102400000Y-108510000D01*
X97860000Y-106410000D02*
X97860000Y-108510000D01*
X102400000Y-106410000D02*
X97860000Y-106410000D01*
X102400000Y-108510000D02*
X102400000Y-106410000D01*
G04 #@! TO.C,R99*
X343670000Y-97750000D02*
X333950000Y-97750000D01*
X343670000Y-100250000D02*
X343670000Y-97750000D01*
X333950000Y-100250000D02*
X343670000Y-100250000D01*
X333950000Y-97750000D02*
X333950000Y-100250000D01*
G04 #@! TO.C,R96*
X298670000Y-97750000D02*
X288950000Y-97750000D01*
X298670000Y-100250000D02*
X298670000Y-97750000D01*
X288950000Y-100250000D02*
X298670000Y-100250000D01*
X288950000Y-97750000D02*
X288950000Y-100250000D01*
G04 #@! TO.C,R139*
X343670000Y-125750000D02*
X333950000Y-125750000D01*
X343670000Y-128250000D02*
X343670000Y-125750000D01*
X333950000Y-128250000D02*
X343670000Y-128250000D01*
X333950000Y-125750000D02*
X333950000Y-128250000D01*
G04 #@! TO.C,R130*
X198950000Y-125750000D02*
X198950000Y-128250000D01*
X198950000Y-128250000D02*
X208670000Y-128250000D01*
X208670000Y-128250000D02*
X208670000Y-125750000D01*
X208670000Y-125750000D02*
X198950000Y-125750000D01*
G04 #@! TO.C,R97*
X313670000Y-97750000D02*
X303950000Y-97750000D01*
X313670000Y-100250000D02*
X313670000Y-97750000D01*
X303950000Y-100250000D02*
X313670000Y-100250000D01*
X303950000Y-97750000D02*
X303950000Y-100250000D01*
G04 #@! TO.C,NE124*
X132400000Y-122510000D02*
X132400000Y-120410000D01*
X132400000Y-120410000D02*
X127860000Y-120410000D01*
X127860000Y-120410000D02*
X127860000Y-122510000D01*
X127860000Y-122510000D02*
X132400000Y-122510000D01*
G04 #@! TO.C,R101*
X373670000Y-97750000D02*
X363950000Y-97750000D01*
X373670000Y-100250000D02*
X373670000Y-97750000D01*
X363950000Y-100250000D02*
X373670000Y-100250000D01*
X363950000Y-97750000D02*
X363950000Y-100250000D01*
G04 #@! TO.C,NE100*
X367860000Y-94510000D02*
X372400000Y-94510000D01*
X367860000Y-92410000D02*
X367860000Y-94510000D01*
X372400000Y-92410000D02*
X367860000Y-92410000D01*
X372400000Y-94510000D02*
X372400000Y-92410000D01*
G04 #@! TO.C,R128*
X168950000Y-125750000D02*
X168950000Y-128250000D01*
X168950000Y-128250000D02*
X178670000Y-128250000D01*
X178670000Y-128250000D02*
X178670000Y-125750000D01*
X178670000Y-125750000D02*
X168950000Y-125750000D01*
G04 #@! TO.C,R100*
X348950000Y-97750000D02*
X348950000Y-100250000D01*
X348950000Y-100250000D02*
X358670000Y-100250000D01*
X358670000Y-100250000D02*
X358670000Y-97750000D01*
X358670000Y-97750000D02*
X348950000Y-97750000D01*
G04 #@! TO.C,NE96*
X307860000Y-94510000D02*
X312400000Y-94510000D01*
X307860000Y-92410000D02*
X307860000Y-94510000D01*
X312400000Y-92410000D02*
X307860000Y-92410000D01*
X312400000Y-94510000D02*
X312400000Y-92410000D01*
G04 #@! TO.C,NE130*
X217860000Y-122510000D02*
X222400000Y-122510000D01*
X217860000Y-120410000D02*
X217860000Y-122510000D01*
X222400000Y-120410000D02*
X217860000Y-120410000D01*
X222400000Y-122510000D02*
X222400000Y-120410000D01*
G04 #@! TO.C,R94*
X258950000Y-97750000D02*
X258950000Y-100250000D01*
X258950000Y-100250000D02*
X268670000Y-100250000D01*
X268670000Y-100250000D02*
X268670000Y-97750000D01*
X268670000Y-97750000D02*
X258950000Y-97750000D01*
G04 #@! TO.C,R95*
X283670000Y-97750000D02*
X273950000Y-97750000D01*
X283670000Y-100250000D02*
X283670000Y-97750000D01*
X273950000Y-100250000D02*
X283670000Y-100250000D01*
X273950000Y-97750000D02*
X273950000Y-100250000D01*
G04 #@! TO.C,NE139*
X357400000Y-122510000D02*
X357400000Y-120410000D01*
X357400000Y-120410000D02*
X352860000Y-120410000D01*
X352860000Y-120410000D02*
X352860000Y-122510000D01*
X352860000Y-122510000D02*
X357400000Y-122510000D01*
G04 #@! TO.C,R140*
X348950000Y-125750000D02*
X348950000Y-128250000D01*
X348950000Y-128250000D02*
X358670000Y-128250000D01*
X358670000Y-128250000D02*
X358670000Y-125750000D01*
X358670000Y-125750000D02*
X348950000Y-125750000D01*
G04 #@! TO.C,R138*
X328670000Y-125750000D02*
X318950000Y-125750000D01*
X328670000Y-128250000D02*
X328670000Y-125750000D01*
X318950000Y-128250000D02*
X328670000Y-128250000D01*
X318950000Y-125750000D02*
X318950000Y-128250000D01*
G04 #@! TO.C,NE127*
X172860000Y-122510000D02*
X177400000Y-122510000D01*
X172860000Y-120410000D02*
X172860000Y-122510000D01*
X177400000Y-120410000D02*
X172860000Y-120410000D01*
X177400000Y-122510000D02*
X177400000Y-120410000D01*
G04 #@! TO.C,R126*
X138950000Y-125750000D02*
X138950000Y-128250000D01*
X138950000Y-128250000D02*
X148670000Y-128250000D01*
X148670000Y-128250000D02*
X148670000Y-125750000D01*
X148670000Y-125750000D02*
X138950000Y-125750000D01*
G04 #@! TO.C,R103*
X103670000Y-111750000D02*
X93950000Y-111750000D01*
X103670000Y-114250000D02*
X103670000Y-111750000D01*
X93950000Y-114250000D02*
X103670000Y-114250000D01*
X93950000Y-111750000D02*
X93950000Y-114250000D01*
G04 #@! TO.C,R93*
X243950000Y-97750000D02*
X243950000Y-100250000D01*
X243950000Y-100250000D02*
X253670000Y-100250000D01*
X253670000Y-100250000D02*
X253670000Y-97750000D01*
X253670000Y-97750000D02*
X243950000Y-97750000D01*
G04 #@! TO.C,NE132*
X247860000Y-122510000D02*
X252400000Y-122510000D01*
X247860000Y-120410000D02*
X247860000Y-122510000D01*
X252400000Y-120410000D02*
X247860000Y-120410000D01*
X252400000Y-122510000D02*
X252400000Y-120410000D01*
G04 #@! TO.C,R92*
X228950000Y-97750000D02*
X228950000Y-100250000D01*
X228950000Y-100250000D02*
X238670000Y-100250000D01*
X238670000Y-100250000D02*
X238670000Y-97750000D01*
X238670000Y-97750000D02*
X228950000Y-97750000D01*
G04 #@! TO.C,R98*
X328670000Y-97750000D02*
X318950000Y-97750000D01*
X328670000Y-100250000D02*
X328670000Y-97750000D01*
X318950000Y-100250000D02*
X328670000Y-100250000D01*
X318950000Y-97750000D02*
X318950000Y-100250000D01*
G04 #@! TO.C,NE133*
X267400000Y-122510000D02*
X267400000Y-120410000D01*
X267400000Y-120410000D02*
X262860000Y-120410000D01*
X262860000Y-120410000D02*
X262860000Y-122510000D01*
X262860000Y-122510000D02*
X267400000Y-122510000D01*
G04 #@! TO.C,R133*
X243950000Y-125750000D02*
X243950000Y-128250000D01*
X243950000Y-128250000D02*
X253670000Y-128250000D01*
X253670000Y-128250000D02*
X253670000Y-125750000D01*
X253670000Y-125750000D02*
X243950000Y-125750000D01*
G04 #@! TO.C,R131*
X223670000Y-125750000D02*
X213950000Y-125750000D01*
X223670000Y-128250000D02*
X223670000Y-125750000D01*
X213950000Y-128250000D02*
X223670000Y-128250000D01*
X213950000Y-125750000D02*
X213950000Y-128250000D01*
G04 #@! TO.C,NE86*
X162400000Y-94510000D02*
X162400000Y-92410000D01*
X162400000Y-92410000D02*
X157860000Y-92410000D01*
X157860000Y-92410000D02*
X157860000Y-94510000D01*
X157860000Y-94510000D02*
X162400000Y-94510000D01*
G04 #@! TO.C,NE89*
X207400000Y-94510000D02*
X207400000Y-92410000D01*
X207400000Y-92410000D02*
X202860000Y-92410000D01*
X202860000Y-92410000D02*
X202860000Y-94510000D01*
X202860000Y-94510000D02*
X207400000Y-94510000D01*
G04 #@! TO.C,NE87*
X172860000Y-94510000D02*
X177400000Y-94510000D01*
X172860000Y-92410000D02*
X172860000Y-94510000D01*
X177400000Y-92410000D02*
X172860000Y-92410000D01*
X177400000Y-94510000D02*
X177400000Y-92410000D01*
G04 #@! TO.C,R78*
X318950000Y-83750000D02*
X318950000Y-86250000D01*
X318950000Y-86250000D02*
X328670000Y-86250000D01*
X328670000Y-86250000D02*
X328670000Y-83750000D01*
X328670000Y-83750000D02*
X318950000Y-83750000D01*
G04 #@! TO.C,R83*
X93950000Y-97750000D02*
X93950000Y-100250000D01*
X93950000Y-100250000D02*
X103670000Y-100250000D01*
X103670000Y-100250000D02*
X103670000Y-97750000D01*
X103670000Y-97750000D02*
X93950000Y-97750000D01*
G04 #@! TO.C,R72*
X238670000Y-83750000D02*
X228950000Y-83750000D01*
X238670000Y-86250000D02*
X238670000Y-83750000D01*
X228950000Y-86250000D02*
X238670000Y-86250000D01*
X228950000Y-83750000D02*
X228950000Y-86250000D01*
G04 #@! TO.C,NE90*
X217860000Y-94510000D02*
X222400000Y-94510000D01*
X217860000Y-92410000D02*
X217860000Y-94510000D01*
X222400000Y-92410000D02*
X217860000Y-92410000D01*
X222400000Y-94510000D02*
X222400000Y-92410000D01*
G04 #@! TO.C,R81*
X363950000Y-83750000D02*
X363950000Y-86250000D01*
X363950000Y-86250000D02*
X373670000Y-86250000D01*
X373670000Y-86250000D02*
X373670000Y-83750000D01*
X373670000Y-83750000D02*
X363950000Y-83750000D01*
G04 #@! TO.C,R76*
X288950000Y-83750000D02*
X288950000Y-86250000D01*
X288950000Y-86250000D02*
X298670000Y-86250000D01*
X298670000Y-86250000D02*
X298670000Y-83750000D01*
X298670000Y-83750000D02*
X288950000Y-83750000D01*
G04 #@! TO.C,NE79*
X352860000Y-80510000D02*
X357400000Y-80510000D01*
X352860000Y-78410000D02*
X352860000Y-80510000D01*
X357400000Y-78410000D02*
X352860000Y-78410000D01*
X357400000Y-80510000D02*
X357400000Y-78410000D01*
G04 #@! TO.C,R73*
X253670000Y-83750000D02*
X243950000Y-83750000D01*
X253670000Y-86250000D02*
X253670000Y-83750000D01*
X243950000Y-86250000D02*
X253670000Y-86250000D01*
X243950000Y-83750000D02*
X243950000Y-86250000D01*
G04 #@! TO.C,NE88*
X192400000Y-94510000D02*
X192400000Y-92410000D01*
X192400000Y-92410000D02*
X187860000Y-92410000D01*
X187860000Y-92410000D02*
X187860000Y-94510000D01*
X187860000Y-94510000D02*
X192400000Y-94510000D01*
G04 #@! TO.C,R86*
X138950000Y-97750000D02*
X138950000Y-100250000D01*
X138950000Y-100250000D02*
X148670000Y-100250000D01*
X148670000Y-100250000D02*
X148670000Y-97750000D01*
X148670000Y-97750000D02*
X138950000Y-97750000D01*
G04 #@! TO.C,R80*
X358670000Y-83750000D02*
X348950000Y-83750000D01*
X358670000Y-86250000D02*
X358670000Y-83750000D01*
X348950000Y-86250000D02*
X358670000Y-86250000D01*
X348950000Y-83750000D02*
X348950000Y-86250000D01*
G04 #@! TO.C,NE99*
X357400000Y-94510000D02*
X357400000Y-92410000D01*
X357400000Y-92410000D02*
X352860000Y-92410000D01*
X352860000Y-92410000D02*
X352860000Y-94510000D01*
X352860000Y-94510000D02*
X357400000Y-94510000D01*
G04 #@! TO.C,R75*
X273950000Y-83750000D02*
X273950000Y-86250000D01*
X273950000Y-86250000D02*
X283670000Y-86250000D01*
X283670000Y-86250000D02*
X283670000Y-83750000D01*
X283670000Y-83750000D02*
X273950000Y-83750000D01*
G04 #@! TO.C,NE94*
X277860000Y-94510000D02*
X282400000Y-94510000D01*
X277860000Y-92410000D02*
X277860000Y-94510000D01*
X282400000Y-92410000D02*
X277860000Y-92410000D01*
X282400000Y-94510000D02*
X282400000Y-92410000D01*
G04 #@! TO.C,NE82*
X102400000Y-94510000D02*
X102400000Y-92410000D01*
X102400000Y-92410000D02*
X97860000Y-92410000D01*
X97860000Y-92410000D02*
X97860000Y-94510000D01*
X97860000Y-94510000D02*
X102400000Y-94510000D01*
G04 #@! TO.C,R88*
X168950000Y-97750000D02*
X168950000Y-100250000D01*
X168950000Y-100250000D02*
X178670000Y-100250000D01*
X178670000Y-100250000D02*
X178670000Y-97750000D01*
X178670000Y-97750000D02*
X168950000Y-97750000D01*
G04 #@! TO.C,R89*
X183950000Y-97750000D02*
X183950000Y-100250000D01*
X183950000Y-100250000D02*
X193670000Y-100250000D01*
X193670000Y-100250000D02*
X193670000Y-97750000D01*
X193670000Y-97750000D02*
X183950000Y-97750000D01*
G04 #@! TO.C,R87*
X163670000Y-97750000D02*
X153950000Y-97750000D01*
X163670000Y-100250000D02*
X163670000Y-97750000D01*
X153950000Y-100250000D02*
X163670000Y-100250000D01*
X153950000Y-97750000D02*
X153950000Y-100250000D01*
G04 #@! TO.C,R74*
X268670000Y-83750000D02*
X258950000Y-83750000D01*
X268670000Y-86250000D02*
X268670000Y-83750000D01*
X258950000Y-86250000D02*
X268670000Y-86250000D01*
X258950000Y-83750000D02*
X258950000Y-86250000D01*
G04 #@! TO.C,NE95*
X297400000Y-94510000D02*
X297400000Y-92410000D01*
X297400000Y-92410000D02*
X292860000Y-92410000D01*
X292860000Y-92410000D02*
X292860000Y-94510000D01*
X292860000Y-94510000D02*
X297400000Y-94510000D01*
G04 #@! TO.C,R91*
X223670000Y-97750000D02*
X213950000Y-97750000D01*
X223670000Y-100250000D02*
X223670000Y-97750000D01*
X213950000Y-100250000D02*
X223670000Y-100250000D01*
X213950000Y-97750000D02*
X213950000Y-100250000D01*
G04 #@! TO.C,NE97*
X327400000Y-94510000D02*
X327400000Y-92410000D01*
X327400000Y-92410000D02*
X322860000Y-92410000D01*
X322860000Y-92410000D02*
X322860000Y-94510000D01*
X322860000Y-94510000D02*
X327400000Y-94510000D01*
G04 #@! TO.C,NE91*
X237400000Y-94510000D02*
X237400000Y-92410000D01*
X237400000Y-92410000D02*
X232860000Y-92410000D01*
X232860000Y-92410000D02*
X232860000Y-94510000D01*
X232860000Y-94510000D02*
X237400000Y-94510000D01*
G04 #@! TO.C,NE92*
X247860000Y-94510000D02*
X252400000Y-94510000D01*
X247860000Y-92410000D02*
X247860000Y-94510000D01*
X252400000Y-92410000D02*
X247860000Y-92410000D01*
X252400000Y-94510000D02*
X252400000Y-92410000D01*
G04 #@! TO.C,R90*
X198950000Y-97750000D02*
X198950000Y-100250000D01*
X198950000Y-100250000D02*
X208670000Y-100250000D01*
X208670000Y-100250000D02*
X208670000Y-97750000D01*
X208670000Y-97750000D02*
X198950000Y-97750000D01*
G04 #@! TO.C,NE93*
X267400000Y-94510000D02*
X267400000Y-92410000D01*
X267400000Y-92410000D02*
X262860000Y-92410000D01*
X262860000Y-92410000D02*
X262860000Y-94510000D01*
X262860000Y-94510000D02*
X267400000Y-94510000D01*
G04 #@! TO.C,NE85*
X142860000Y-94510000D02*
X147400000Y-94510000D01*
X142860000Y-92410000D02*
X142860000Y-94510000D01*
X147400000Y-92410000D02*
X142860000Y-92410000D01*
X147400000Y-94510000D02*
X147400000Y-92410000D01*
G04 #@! TO.C,R79*
X333950000Y-83750000D02*
X333950000Y-86250000D01*
X333950000Y-86250000D02*
X343670000Y-86250000D01*
X343670000Y-86250000D02*
X343670000Y-83750000D01*
X343670000Y-83750000D02*
X333950000Y-83750000D01*
G04 #@! TO.C,R77*
X303950000Y-83750000D02*
X303950000Y-86250000D01*
X303950000Y-86250000D02*
X313670000Y-86250000D01*
X313670000Y-86250000D02*
X313670000Y-83750000D01*
X313670000Y-83750000D02*
X303950000Y-83750000D01*
G04 #@! TO.C,NE98*
X337860000Y-94510000D02*
X342400000Y-94510000D01*
X337860000Y-92410000D02*
X337860000Y-94510000D01*
X342400000Y-92410000D02*
X337860000Y-92410000D01*
X342400000Y-94510000D02*
X342400000Y-92410000D01*
G04 #@! TO.C,NE80*
X372400000Y-80510000D02*
X372400000Y-78410000D01*
X372400000Y-78410000D02*
X367860000Y-78410000D01*
X367860000Y-78410000D02*
X367860000Y-80510000D01*
X367860000Y-80510000D02*
X372400000Y-80510000D01*
G04 #@! TO.C,Q20*
X366850000Y-36050000D02*
X366850000Y-41550000D01*
X366850000Y-36050000D02*
X362250000Y-36050000D01*
X362250000Y-41550000D02*
X366850000Y-41550000D01*
X362250000Y-41550000D02*
X362250000Y-36050000D01*
G04 #@! TO.C,Q18*
X336850000Y-36050000D02*
X336850000Y-41550000D01*
X336850000Y-36050000D02*
X332250000Y-36050000D01*
X332250000Y-41550000D02*
X336850000Y-41550000D01*
X332250000Y-41550000D02*
X332250000Y-36050000D01*
G04 #@! TO.C,Q21*
X81850000Y-50050000D02*
X81850000Y-55550000D01*
X81850000Y-50050000D02*
X77250000Y-50050000D01*
X77250000Y-55550000D02*
X81850000Y-55550000D01*
X77250000Y-55550000D02*
X77250000Y-50050000D01*
G04 #@! TO.C,Q12*
X246850000Y-36050000D02*
X246850000Y-41550000D01*
X246850000Y-36050000D02*
X242250000Y-36050000D01*
X242250000Y-41550000D02*
X246850000Y-41550000D01*
X242250000Y-41550000D02*
X242250000Y-36050000D01*
G04 #@! TO.C,Q8*
X186850000Y-36050000D02*
X186850000Y-41550000D01*
X186850000Y-36050000D02*
X182250000Y-36050000D01*
X182250000Y-41550000D02*
X186850000Y-41550000D01*
X182250000Y-41550000D02*
X182250000Y-36050000D01*
G04 #@! TO.C,Q23*
X111850000Y-50050000D02*
X111850000Y-55550000D01*
X111850000Y-50050000D02*
X107250000Y-50050000D01*
X107250000Y-55550000D02*
X111850000Y-55550000D01*
X107250000Y-55550000D02*
X107250000Y-50050000D01*
G04 #@! TO.C,Q24*
X126850000Y-50050000D02*
X126850000Y-55550000D01*
X126850000Y-50050000D02*
X122250000Y-50050000D01*
X122250000Y-55550000D02*
X126850000Y-55550000D01*
X122250000Y-55550000D02*
X122250000Y-50050000D01*
G04 #@! TO.C,Q14*
X276850000Y-36050000D02*
X276850000Y-41550000D01*
X276850000Y-36050000D02*
X272250000Y-36050000D01*
X272250000Y-41550000D02*
X276850000Y-41550000D01*
X272250000Y-41550000D02*
X272250000Y-36050000D01*
G04 #@! TO.C,Q25*
X141850000Y-50050000D02*
X141850000Y-55550000D01*
X141850000Y-50050000D02*
X137250000Y-50050000D01*
X137250000Y-55550000D02*
X141850000Y-55550000D01*
X137250000Y-55550000D02*
X137250000Y-50050000D01*
G04 #@! TO.C,Q13*
X261850000Y-36050000D02*
X261850000Y-41550000D01*
X261850000Y-36050000D02*
X257250000Y-36050000D01*
X257250000Y-41550000D02*
X261850000Y-41550000D01*
X257250000Y-41550000D02*
X257250000Y-36050000D01*
G04 #@! TO.C,Q19*
X351850000Y-36050000D02*
X351850000Y-41550000D01*
X351850000Y-36050000D02*
X347250000Y-36050000D01*
X347250000Y-41550000D02*
X351850000Y-41550000D01*
X347250000Y-41550000D02*
X347250000Y-36050000D01*
G04 #@! TO.C,Q9*
X201850000Y-36050000D02*
X201850000Y-41550000D01*
X201850000Y-36050000D02*
X197250000Y-36050000D01*
X197250000Y-41550000D02*
X201850000Y-41550000D01*
X197250000Y-41550000D02*
X197250000Y-36050000D01*
G04 #@! TO.C,Q15*
X291850000Y-36050000D02*
X291850000Y-41550000D01*
X291850000Y-36050000D02*
X287250000Y-36050000D01*
X287250000Y-41550000D02*
X291850000Y-41550000D01*
X287250000Y-41550000D02*
X287250000Y-36050000D01*
G04 #@! TO.C,Q10*
X216850000Y-36050000D02*
X216850000Y-41550000D01*
X216850000Y-36050000D02*
X212250000Y-36050000D01*
X212250000Y-41550000D02*
X216850000Y-41550000D01*
X212250000Y-41550000D02*
X212250000Y-36050000D01*
G04 #@! TO.C,Q11*
X231850000Y-36050000D02*
X231850000Y-41550000D01*
X231850000Y-36050000D02*
X227250000Y-36050000D01*
X227250000Y-41550000D02*
X231850000Y-41550000D01*
X227250000Y-41550000D02*
X227250000Y-36050000D01*
G04 #@! TO.C,Q7*
X171850000Y-36050000D02*
X171850000Y-41550000D01*
X171850000Y-36050000D02*
X167250000Y-36050000D01*
X167250000Y-41550000D02*
X171850000Y-41550000D01*
X167250000Y-41550000D02*
X167250000Y-36050000D01*
G04 #@! TO.C,Q17*
X321850000Y-35948400D02*
X321850000Y-41448400D01*
X321850000Y-35948400D02*
X317250000Y-35948400D01*
X317250000Y-41448400D02*
X321850000Y-41448400D01*
X317250000Y-41448400D02*
X317250000Y-35948400D01*
G04 #@! TO.C,Q16*
X306850000Y-36050000D02*
X306850000Y-41550000D01*
X306850000Y-36050000D02*
X302250000Y-36050000D01*
X302250000Y-41550000D02*
X306850000Y-41550000D01*
X302250000Y-41550000D02*
X302250000Y-36050000D01*
G04 #@! TO.C,Q29*
X201850000Y-50050000D02*
X201850000Y-55550000D01*
X201850000Y-50050000D02*
X197250000Y-50050000D01*
X197250000Y-55550000D02*
X201850000Y-55550000D01*
X197250000Y-55550000D02*
X197250000Y-50050000D01*
G04 #@! TO.C,Q28*
X186850000Y-50050000D02*
X186850000Y-55550000D01*
X186850000Y-50050000D02*
X182250000Y-50050000D01*
X182250000Y-55550000D02*
X186850000Y-55550000D01*
X182250000Y-55550000D02*
X182250000Y-50050000D01*
G04 #@! TO.C,Q31*
X231850000Y-50050000D02*
X231850000Y-55550000D01*
X231850000Y-50050000D02*
X227250000Y-50050000D01*
X227250000Y-55550000D02*
X231850000Y-55550000D01*
X227250000Y-55550000D02*
X227250000Y-50050000D01*
G04 #@! TO.C,Q35*
X291850000Y-50050000D02*
X291850000Y-55550000D01*
X291850000Y-50050000D02*
X287250000Y-50050000D01*
X287250000Y-55550000D02*
X291850000Y-55550000D01*
X287250000Y-55550000D02*
X287250000Y-50050000D01*
G04 #@! TO.C,Q38*
X336850000Y-50050000D02*
X336850000Y-55550000D01*
X336850000Y-50050000D02*
X332250000Y-50050000D01*
X332250000Y-55550000D02*
X336850000Y-55550000D01*
X332250000Y-55550000D02*
X332250000Y-50050000D01*
G04 #@! TO.C,Q39*
X351850000Y-50050000D02*
X351850000Y-55550000D01*
X351850000Y-50050000D02*
X347250000Y-50050000D01*
X347250000Y-55550000D02*
X351850000Y-55550000D01*
X347250000Y-55550000D02*
X347250000Y-50050000D01*
G04 #@! TO.C,Q40*
X366850000Y-50050000D02*
X366850000Y-55550000D01*
X366850000Y-50050000D02*
X362250000Y-50050000D01*
X362250000Y-55550000D02*
X366850000Y-55550000D01*
X362250000Y-55550000D02*
X362250000Y-50050000D01*
G04 #@! TO.C,Q41*
X81850000Y-64050000D02*
X81850000Y-69550000D01*
X81850000Y-64050000D02*
X77250000Y-64050000D01*
X77250000Y-69550000D02*
X81850000Y-69550000D01*
X77250000Y-69550000D02*
X77250000Y-64050000D01*
G04 #@! TO.C,Q43*
X111850000Y-64050000D02*
X111850000Y-69550000D01*
X111850000Y-64050000D02*
X107250000Y-64050000D01*
X107250000Y-69550000D02*
X111850000Y-69550000D01*
X107250000Y-69550000D02*
X107250000Y-64050000D01*
G04 #@! TO.C,Q32*
X246850000Y-50050000D02*
X246850000Y-55550000D01*
X246850000Y-50050000D02*
X242250000Y-50050000D01*
X242250000Y-55550000D02*
X246850000Y-55550000D01*
X242250000Y-55550000D02*
X242250000Y-50050000D01*
G04 #@! TO.C,Q30*
X216850000Y-50050000D02*
X216850000Y-55550000D01*
X216850000Y-50050000D02*
X212250000Y-50050000D01*
X212250000Y-55550000D02*
X216850000Y-55550000D01*
X212250000Y-55550000D02*
X212250000Y-50050000D01*
G04 #@! TO.C,Q34*
X276850000Y-50050000D02*
X276850000Y-55550000D01*
X276850000Y-50050000D02*
X272250000Y-50050000D01*
X272250000Y-55550000D02*
X276850000Y-55550000D01*
X272250000Y-55550000D02*
X272250000Y-50050000D01*
G04 #@! TO.C,Q44*
X126850000Y-64050000D02*
X126850000Y-69550000D01*
X126850000Y-64050000D02*
X122250000Y-64050000D01*
X122250000Y-69550000D02*
X126850000Y-69550000D01*
X122250000Y-69550000D02*
X122250000Y-64050000D01*
G04 #@! TO.C,Q37*
X321850000Y-50050000D02*
X321850000Y-55550000D01*
X321850000Y-50050000D02*
X317250000Y-50050000D01*
X317250000Y-55550000D02*
X321850000Y-55550000D01*
X317250000Y-55550000D02*
X317250000Y-50050000D01*
G04 #@! TO.C,Q27*
X171850000Y-50050000D02*
X171850000Y-55550000D01*
X171850000Y-50050000D02*
X167250000Y-50050000D01*
X167250000Y-55550000D02*
X171850000Y-55550000D01*
X167250000Y-55550000D02*
X167250000Y-50050000D01*
G04 #@! TO.C,Q26*
X156850000Y-50050000D02*
X156850000Y-55550000D01*
X156850000Y-50050000D02*
X152250000Y-50050000D01*
X152250000Y-55550000D02*
X156850000Y-55550000D01*
X152250000Y-55550000D02*
X152250000Y-50050000D01*
G04 #@! TO.C,Q36*
X306850000Y-50050000D02*
X306850000Y-55550000D01*
X306850000Y-50050000D02*
X302250000Y-50050000D01*
X302250000Y-55550000D02*
X306850000Y-55550000D01*
X302250000Y-55550000D02*
X302250000Y-50050000D01*
G04 #@! TO.C,Q33*
X261850000Y-50050000D02*
X261850000Y-55550000D01*
X261850000Y-50050000D02*
X257250000Y-50050000D01*
X257250000Y-55550000D02*
X261850000Y-55550000D01*
X257250000Y-55550000D02*
X257250000Y-50050000D01*
G04 #@! TO.C,Q93*
X261850000Y-92050000D02*
X261850000Y-97550000D01*
X261850000Y-92050000D02*
X257250000Y-92050000D01*
X257250000Y-97550000D02*
X261850000Y-97550000D01*
X257250000Y-97550000D02*
X257250000Y-92050000D01*
G04 #@! TO.C,Q85*
X141850000Y-92050000D02*
X141850000Y-97550000D01*
X141850000Y-92050000D02*
X137250000Y-92050000D01*
X137250000Y-97550000D02*
X141850000Y-97550000D01*
X137250000Y-97550000D02*
X137250000Y-92050000D01*
G04 #@! TO.C,Q97*
X321850000Y-92050000D02*
X321850000Y-97550000D01*
X321850000Y-92050000D02*
X317250000Y-92050000D01*
X317250000Y-97550000D02*
X321850000Y-97550000D01*
X317250000Y-97550000D02*
X317250000Y-92050000D01*
G04 #@! TO.C,Q75*
X291850000Y-78050000D02*
X291850000Y-83550000D01*
X291850000Y-78050000D02*
X287250000Y-78050000D01*
X287250000Y-83550000D02*
X291850000Y-83550000D01*
X287250000Y-83550000D02*
X287250000Y-78050000D01*
G04 #@! TO.C,Q88*
X186850000Y-92050000D02*
X186850000Y-97550000D01*
X186850000Y-92050000D02*
X182250000Y-92050000D01*
X182250000Y-97550000D02*
X186850000Y-97550000D01*
X182250000Y-97550000D02*
X182250000Y-92050000D01*
G04 #@! TO.C,Q95*
X291850000Y-92050000D02*
X291850000Y-97550000D01*
X291850000Y-92050000D02*
X287250000Y-92050000D01*
X287250000Y-97550000D02*
X291850000Y-97550000D01*
X287250000Y-97550000D02*
X287250000Y-92050000D01*
G04 #@! TO.C,Q96*
X306850000Y-92050000D02*
X306850000Y-97550000D01*
X306850000Y-92050000D02*
X302250000Y-92050000D01*
X302250000Y-97550000D02*
X306850000Y-97550000D01*
X302250000Y-97550000D02*
X302250000Y-92050000D01*
G04 #@! TO.C,Q91*
X231850000Y-92050000D02*
X231850000Y-97550000D01*
X231850000Y-92050000D02*
X227250000Y-92050000D01*
X227250000Y-97550000D02*
X231850000Y-97550000D01*
X227250000Y-97550000D02*
X227250000Y-92050000D01*
G04 #@! TO.C,Q77*
X321850000Y-78050000D02*
X321850000Y-83550000D01*
X321850000Y-78050000D02*
X317250000Y-78050000D01*
X317250000Y-83550000D02*
X321850000Y-83550000D01*
X317250000Y-83550000D02*
X317250000Y-78050000D01*
G04 #@! TO.C,Q82*
X96850000Y-92050000D02*
X96850000Y-97550000D01*
X96850000Y-92050000D02*
X92250000Y-92050000D01*
X92250000Y-97550000D02*
X96850000Y-97550000D01*
X92250000Y-97550000D02*
X92250000Y-92050000D01*
G04 #@! TO.C,Q92*
X246850000Y-92050000D02*
X246850000Y-97550000D01*
X246850000Y-92050000D02*
X242250000Y-92050000D01*
X242250000Y-97550000D02*
X246850000Y-97550000D01*
X242250000Y-97550000D02*
X242250000Y-92050000D01*
G04 #@! TO.C,Q80*
X366850000Y-78050000D02*
X366850000Y-83550000D01*
X366850000Y-78050000D02*
X362250000Y-78050000D01*
X362250000Y-83550000D02*
X366850000Y-83550000D01*
X362250000Y-83550000D02*
X362250000Y-78050000D01*
G04 #@! TO.C,Q90*
X216850000Y-92050000D02*
X216850000Y-97550000D01*
X216850000Y-92050000D02*
X212250000Y-92050000D01*
X212250000Y-97550000D02*
X216850000Y-97550000D01*
X212250000Y-97550000D02*
X212250000Y-92050000D01*
G04 #@! TO.C,Q94*
X276850000Y-92050000D02*
X276850000Y-97550000D01*
X276850000Y-92050000D02*
X272250000Y-92050000D01*
X272250000Y-97550000D02*
X276850000Y-97550000D01*
X272250000Y-97550000D02*
X272250000Y-92050000D01*
G04 #@! TO.C,Q79*
X351850000Y-78050000D02*
X351850000Y-83550000D01*
X351850000Y-78050000D02*
X347250000Y-78050000D01*
X347250000Y-83550000D02*
X351850000Y-83550000D01*
X347250000Y-83550000D02*
X347250000Y-78050000D01*
G04 #@! TO.C,Q86*
X156850000Y-92050000D02*
X156850000Y-97550000D01*
X156850000Y-92050000D02*
X152250000Y-92050000D01*
X152250000Y-97550000D02*
X156850000Y-97550000D01*
X152250000Y-97550000D02*
X152250000Y-92050000D01*
G04 #@! TO.C,Q87*
X171850000Y-92050000D02*
X171850000Y-97550000D01*
X171850000Y-92050000D02*
X167250000Y-92050000D01*
X167250000Y-97550000D02*
X171850000Y-97550000D01*
X167250000Y-97550000D02*
X167250000Y-92050000D01*
G04 #@! TO.C,Q89*
X201850000Y-92050000D02*
X201850000Y-97550000D01*
X201850000Y-92050000D02*
X197250000Y-92050000D01*
X197250000Y-97550000D02*
X201850000Y-97550000D01*
X197250000Y-97550000D02*
X197250000Y-92050000D01*
G04 #@! TO.C,Q64*
X126850000Y-78050000D02*
X126850000Y-83550000D01*
X126850000Y-78050000D02*
X122250000Y-78050000D01*
X122250000Y-83550000D02*
X126850000Y-83550000D01*
X122250000Y-83550000D02*
X122250000Y-78050000D01*
G04 #@! TO.C,Q63*
X111850000Y-78050000D02*
X111850000Y-83550000D01*
X111850000Y-78050000D02*
X107250000Y-78050000D01*
X107250000Y-83550000D02*
X111850000Y-83550000D01*
X107250000Y-83550000D02*
X107250000Y-78050000D01*
G04 #@! TO.C,Q3*
X111850000Y-36050000D02*
X111850000Y-41550000D01*
X111850000Y-36050000D02*
X107250000Y-36050000D01*
X107250000Y-41550000D02*
X111850000Y-41550000D01*
X107250000Y-41550000D02*
X107250000Y-36050000D01*
G04 #@! TO.C,Q68*
X186850000Y-78050000D02*
X186850000Y-83550000D01*
X186850000Y-78050000D02*
X182250000Y-78050000D01*
X182250000Y-83550000D02*
X186850000Y-83550000D01*
X182250000Y-83550000D02*
X182250000Y-78050000D01*
G04 #@! TO.C,Q5*
X141850000Y-36050000D02*
X141850000Y-41550000D01*
X141850000Y-36050000D02*
X137250000Y-36050000D01*
X137250000Y-41550000D02*
X141850000Y-41550000D01*
X137250000Y-41550000D02*
X137250000Y-36050000D01*
G04 #@! TO.C,Q71*
X231850000Y-78050000D02*
X231850000Y-83550000D01*
X231850000Y-78050000D02*
X227250000Y-78050000D01*
X227250000Y-83550000D02*
X231850000Y-83550000D01*
X227250000Y-83550000D02*
X227250000Y-78050000D01*
G04 #@! TO.C,Q4*
X126850000Y-36050000D02*
X126850000Y-41550000D01*
X126850000Y-36050000D02*
X122250000Y-36050000D01*
X122250000Y-41550000D02*
X126850000Y-41550000D01*
X122250000Y-41550000D02*
X122250000Y-36050000D01*
G04 #@! TO.C,Q6*
X156850000Y-36050000D02*
X156850000Y-41550000D01*
X156850000Y-36050000D02*
X152250000Y-36050000D01*
X152250000Y-41550000D02*
X156850000Y-41550000D01*
X152250000Y-41550000D02*
X152250000Y-36050000D01*
G04 #@! TO.C,Q74*
X276850000Y-78050000D02*
X276850000Y-83550000D01*
X276850000Y-78050000D02*
X272250000Y-78050000D01*
X272250000Y-83550000D02*
X276850000Y-83550000D01*
X272250000Y-83550000D02*
X272250000Y-78050000D01*
G04 #@! TO.C,Q66*
X156850000Y-78050000D02*
X156850000Y-83550000D01*
X156850000Y-78050000D02*
X152250000Y-78050000D01*
X152250000Y-83550000D02*
X156850000Y-83550000D01*
X152250000Y-83550000D02*
X152250000Y-78050000D01*
G04 #@! TO.C,Q67*
X171850000Y-78050000D02*
X171850000Y-83550000D01*
X171850000Y-78050000D02*
X167250000Y-78050000D01*
X167250000Y-83550000D02*
X171850000Y-83550000D01*
X167250000Y-83550000D02*
X167250000Y-78050000D01*
G04 #@! TO.C,Q73*
X261850000Y-78050000D02*
X261850000Y-83550000D01*
X261850000Y-78050000D02*
X257250000Y-78050000D01*
X257250000Y-83550000D02*
X261850000Y-83550000D01*
X257250000Y-83550000D02*
X257250000Y-78050000D01*
G04 #@! TO.C,Q69*
X201850000Y-78050000D02*
X201850000Y-83550000D01*
X201850000Y-78050000D02*
X197250000Y-78050000D01*
X197250000Y-83550000D02*
X201850000Y-83550000D01*
X197250000Y-83550000D02*
X197250000Y-78050000D01*
G04 #@! TO.C,Q76*
X306850000Y-78050000D02*
X306850000Y-83550000D01*
X306850000Y-78050000D02*
X302250000Y-78050000D01*
X302250000Y-83550000D02*
X306850000Y-83550000D01*
X302250000Y-83550000D02*
X302250000Y-78050000D01*
G04 #@! TO.C,Q65*
X141850000Y-78050000D02*
X141850000Y-83550000D01*
X141850000Y-78050000D02*
X137250000Y-78050000D01*
X137250000Y-83550000D02*
X141850000Y-83550000D01*
X137250000Y-83550000D02*
X137250000Y-78050000D01*
G04 #@! TO.C,Q78*
X336850000Y-78050000D02*
X336850000Y-83550000D01*
X336850000Y-78050000D02*
X332250000Y-78050000D01*
X332250000Y-83550000D02*
X336850000Y-83550000D01*
X332250000Y-83550000D02*
X332250000Y-78050000D01*
G04 #@! TO.C,Q72*
X246850000Y-78050000D02*
X246850000Y-83550000D01*
X246850000Y-78050000D02*
X242250000Y-78050000D01*
X242250000Y-83550000D02*
X246850000Y-83550000D01*
X242250000Y-83550000D02*
X242250000Y-78050000D01*
G04 #@! TO.C,Q70*
X216850000Y-78050000D02*
X216850000Y-83550000D01*
X216850000Y-78050000D02*
X212250000Y-78050000D01*
X212250000Y-83550000D02*
X216850000Y-83550000D01*
X212250000Y-83550000D02*
X212250000Y-78050000D01*
G04 #@! TO.C,Q56*
X306850000Y-64050000D02*
X306850000Y-69550000D01*
X306850000Y-64050000D02*
X302250000Y-64050000D01*
X302250000Y-69550000D02*
X306850000Y-69550000D01*
X302250000Y-69550000D02*
X302250000Y-64050000D01*
G04 #@! TO.C,Q55*
X291850000Y-64050000D02*
X291850000Y-69550000D01*
X291850000Y-64050000D02*
X287250000Y-64050000D01*
X287250000Y-69550000D02*
X291850000Y-69550000D01*
X287250000Y-69550000D02*
X287250000Y-64050000D01*
G04 #@! TO.C,Q59*
X351850000Y-64050000D02*
X351850000Y-69550000D01*
X351850000Y-64050000D02*
X347250000Y-64050000D01*
X347250000Y-69550000D02*
X351850000Y-69550000D01*
X347250000Y-69550000D02*
X347250000Y-64050000D01*
G04 #@! TO.C,Q60*
X366850000Y-64050000D02*
X366850000Y-69550000D01*
X366850000Y-64050000D02*
X362250000Y-64050000D01*
X362250000Y-69550000D02*
X366850000Y-69550000D01*
X362250000Y-69550000D02*
X362250000Y-64050000D01*
G04 #@! TO.C,NE195*
X297400000Y-164510000D02*
X297400000Y-162410000D01*
X297400000Y-162410000D02*
X292860000Y-162410000D01*
X292860000Y-162410000D02*
X292860000Y-164510000D01*
X292860000Y-164510000D02*
X297400000Y-164510000D01*
G04 #@! TO.C,NE197*
X327400000Y-164510000D02*
X327400000Y-162410000D01*
X327400000Y-162410000D02*
X322860000Y-162410000D01*
X322860000Y-162410000D02*
X322860000Y-164510000D01*
X322860000Y-164510000D02*
X327400000Y-164510000D01*
G04 #@! TO.C,Q45*
X141850000Y-64050000D02*
X141850000Y-69550000D01*
X141850000Y-64050000D02*
X137250000Y-64050000D01*
X137250000Y-69550000D02*
X141850000Y-69550000D01*
X137250000Y-69550000D02*
X137250000Y-64050000D01*
G04 #@! TO.C,Q46*
X156850000Y-64050000D02*
X156850000Y-69550000D01*
X156850000Y-64050000D02*
X152250000Y-64050000D01*
X152250000Y-69550000D02*
X156850000Y-69550000D01*
X152250000Y-69550000D02*
X152250000Y-64050000D01*
G04 #@! TO.C,Q50*
X216850000Y-64050000D02*
X216850000Y-69550000D01*
X216850000Y-64050000D02*
X212250000Y-64050000D01*
X212250000Y-69550000D02*
X216850000Y-69550000D01*
X212250000Y-69550000D02*
X212250000Y-64050000D01*
G04 #@! TO.C,Q48*
X186850000Y-64050000D02*
X186850000Y-69550000D01*
X186850000Y-64050000D02*
X182250000Y-64050000D01*
X182250000Y-69550000D02*
X186850000Y-69550000D01*
X182250000Y-69550000D02*
X182250000Y-64050000D01*
G04 #@! TO.C,Q53*
X261850000Y-64050000D02*
X261850000Y-69550000D01*
X261850000Y-64050000D02*
X257250000Y-64050000D01*
X257250000Y-69550000D02*
X261850000Y-69550000D01*
X257250000Y-69550000D02*
X257250000Y-64050000D01*
G04 #@! TO.C,Q47*
X171850000Y-64050000D02*
X171850000Y-69550000D01*
X171850000Y-64050000D02*
X167250000Y-64050000D01*
X167250000Y-69550000D02*
X171850000Y-69550000D01*
X167250000Y-69550000D02*
X167250000Y-64050000D01*
G04 #@! TO.C,Q49*
X201850000Y-64050000D02*
X201850000Y-69550000D01*
X201850000Y-64050000D02*
X197250000Y-64050000D01*
X197250000Y-69550000D02*
X201850000Y-69550000D01*
X197250000Y-69550000D02*
X197250000Y-64050000D01*
G04 #@! TO.C,Q51*
X231850000Y-64050000D02*
X231850000Y-69550000D01*
X231850000Y-64050000D02*
X227250000Y-64050000D01*
X227250000Y-69550000D02*
X231850000Y-69550000D01*
X227250000Y-69550000D02*
X227250000Y-64050000D01*
G04 #@! TO.C,Q54*
X276850000Y-64050000D02*
X276850000Y-69550000D01*
X276850000Y-64050000D02*
X272250000Y-64050000D01*
X272250000Y-69550000D02*
X276850000Y-69550000D01*
X272250000Y-69550000D02*
X272250000Y-64050000D01*
G04 #@! TO.C,Q57*
X321850000Y-64050000D02*
X321850000Y-69550000D01*
X321850000Y-64050000D02*
X317250000Y-64050000D01*
X317250000Y-69550000D02*
X321850000Y-69550000D01*
X317250000Y-69550000D02*
X317250000Y-64050000D01*
G04 #@! TO.C,Q58*
X336850000Y-64050000D02*
X336850000Y-69550000D01*
X336850000Y-64050000D02*
X332250000Y-64050000D01*
X332250000Y-69550000D02*
X336850000Y-69550000D01*
X332250000Y-69550000D02*
X332250000Y-64050000D01*
G04 #@! TO.C,Q52*
X246850000Y-64050000D02*
X246850000Y-69550000D01*
X246850000Y-64050000D02*
X242250000Y-64050000D01*
X242250000Y-69550000D02*
X246850000Y-69550000D01*
X242250000Y-69550000D02*
X242250000Y-64050000D01*
G04 #@! TO.C,R188*
X168950000Y-167750000D02*
X168950000Y-170250000D01*
X168950000Y-170250000D02*
X178670000Y-170250000D01*
X178670000Y-170250000D02*
X178670000Y-167750000D01*
X178670000Y-167750000D02*
X168950000Y-167750000D01*
G04 #@! TO.C,NE199*
X357400000Y-164510000D02*
X357400000Y-162410000D01*
X357400000Y-162410000D02*
X352860000Y-162410000D01*
X352860000Y-162410000D02*
X352860000Y-164510000D01*
X352860000Y-164510000D02*
X357400000Y-164510000D01*
G04 #@! TO.C,NE184*
X132400000Y-164510000D02*
X132400000Y-162410000D01*
X132400000Y-162410000D02*
X127860000Y-162410000D01*
X127860000Y-162410000D02*
X127860000Y-164510000D01*
X127860000Y-164510000D02*
X132400000Y-164510000D01*
G04 #@! TO.C,R195*
X283670000Y-167750000D02*
X273950000Y-167750000D01*
X283670000Y-170250000D02*
X283670000Y-167750000D01*
X273950000Y-170250000D02*
X283670000Y-170250000D01*
X273950000Y-167750000D02*
X273950000Y-170250000D01*
G04 #@! TO.C,R191*
X223670000Y-167750000D02*
X213950000Y-167750000D01*
X223670000Y-170250000D02*
X223670000Y-167750000D01*
X213950000Y-170250000D02*
X223670000Y-170250000D01*
X213950000Y-167750000D02*
X213950000Y-170250000D01*
G04 #@! TO.C,NE190*
X217860000Y-164510000D02*
X222400000Y-164510000D01*
X217860000Y-162410000D02*
X217860000Y-164510000D01*
X222400000Y-162410000D02*
X217860000Y-162410000D01*
X222400000Y-164510000D02*
X222400000Y-162410000D01*
G04 #@! TO.C,NE194*
X277860000Y-164510000D02*
X282400000Y-164510000D01*
X277860000Y-162410000D02*
X277860000Y-164510000D01*
X282400000Y-162410000D02*
X277860000Y-162410000D01*
X282400000Y-164510000D02*
X282400000Y-162410000D01*
G04 #@! TO.C,R197*
X313670000Y-167750000D02*
X303950000Y-167750000D01*
X313670000Y-170250000D02*
X313670000Y-167750000D01*
X303950000Y-170250000D02*
X313670000Y-170250000D01*
X303950000Y-167750000D02*
X303950000Y-170250000D01*
G04 #@! TO.C,R186*
X138950000Y-167750000D02*
X138950000Y-170250000D01*
X138950000Y-170250000D02*
X148670000Y-170250000D01*
X148670000Y-170250000D02*
X148670000Y-167750000D01*
X148670000Y-167750000D02*
X138950000Y-167750000D01*
G04 #@! TO.C,NE200*
X367860000Y-164510000D02*
X372400000Y-164510000D01*
X367860000Y-162410000D02*
X367860000Y-164510000D01*
X372400000Y-162410000D02*
X367860000Y-162410000D01*
X372400000Y-164510000D02*
X372400000Y-162410000D01*
G04 #@! TO.C,R185*
X123950000Y-167750000D02*
X123950000Y-170250000D01*
X123950000Y-170250000D02*
X133670000Y-170250000D01*
X133670000Y-170250000D02*
X133670000Y-167750000D01*
X133670000Y-167750000D02*
X123950000Y-167750000D01*
G04 #@! TO.C,R200*
X348950000Y-167750000D02*
X348950000Y-170250000D01*
X348950000Y-170250000D02*
X358670000Y-170250000D01*
X358670000Y-170250000D02*
X358670000Y-167750000D01*
X358670000Y-167750000D02*
X348950000Y-167750000D01*
G04 #@! TO.C,R193*
X243950000Y-167750000D02*
X243950000Y-170250000D01*
X243950000Y-170250000D02*
X253670000Y-170250000D01*
X253670000Y-170250000D02*
X253670000Y-167750000D01*
X253670000Y-167750000D02*
X243950000Y-167750000D01*
G04 #@! TO.C,NE188*
X192400000Y-164510000D02*
X192400000Y-162410000D01*
X192400000Y-162410000D02*
X187860000Y-162410000D01*
X187860000Y-162410000D02*
X187860000Y-164510000D01*
X187860000Y-164510000D02*
X192400000Y-164510000D01*
G04 #@! TO.C,NE172*
X252400000Y-150510000D02*
X252400000Y-148410000D01*
X252400000Y-148410000D02*
X247860000Y-148410000D01*
X247860000Y-148410000D02*
X247860000Y-150510000D01*
X247860000Y-150510000D02*
X252400000Y-150510000D01*
G04 #@! TO.C,NE175*
X292860000Y-150510000D02*
X297400000Y-150510000D01*
X292860000Y-148410000D02*
X292860000Y-150510000D01*
X297400000Y-148410000D02*
X292860000Y-148410000D01*
X297400000Y-150510000D02*
X297400000Y-148410000D01*
G04 #@! TO.C,NE174*
X282400000Y-150510000D02*
X282400000Y-148410000D01*
X282400000Y-148410000D02*
X277860000Y-148410000D01*
X277860000Y-148410000D02*
X277860000Y-150510000D01*
X277860000Y-150510000D02*
X282400000Y-150510000D01*
G04 #@! TO.C,R201*
X373670000Y-167750000D02*
X363950000Y-167750000D01*
X373670000Y-170250000D02*
X373670000Y-167750000D01*
X363950000Y-170250000D02*
X373670000Y-170250000D01*
X363950000Y-167750000D02*
X363950000Y-170250000D01*
G04 #@! TO.C,R192*
X228950000Y-167750000D02*
X228950000Y-170250000D01*
X228950000Y-170250000D02*
X238670000Y-170250000D01*
X238670000Y-170250000D02*
X238670000Y-167750000D01*
X238670000Y-167750000D02*
X228950000Y-167750000D01*
G04 #@! TO.C,R181*
X363950000Y-153750000D02*
X363950000Y-156250000D01*
X363950000Y-156250000D02*
X373670000Y-156250000D01*
X373670000Y-156250000D02*
X373670000Y-153750000D01*
X373670000Y-153750000D02*
X363950000Y-153750000D01*
G04 #@! TO.C,R175*
X273950000Y-153750000D02*
X273950000Y-156250000D01*
X273950000Y-156250000D02*
X283670000Y-156250000D01*
X283670000Y-156250000D02*
X283670000Y-153750000D01*
X283670000Y-153750000D02*
X273950000Y-153750000D01*
G04 #@! TO.C,NE192*
X247860000Y-164510000D02*
X252400000Y-164510000D01*
X247860000Y-162410000D02*
X247860000Y-164510000D01*
X252400000Y-162410000D02*
X247860000Y-162410000D01*
X252400000Y-164510000D02*
X252400000Y-162410000D01*
G04 #@! TO.C,NE196*
X307860000Y-164510000D02*
X312400000Y-164510000D01*
X307860000Y-162410000D02*
X307860000Y-164510000D01*
X312400000Y-162410000D02*
X307860000Y-162410000D01*
X312400000Y-164510000D02*
X312400000Y-162410000D01*
G04 #@! TO.C,R189*
X183950000Y-167750000D02*
X183950000Y-170250000D01*
X183950000Y-170250000D02*
X193670000Y-170250000D01*
X193670000Y-170250000D02*
X193670000Y-167750000D01*
X193670000Y-167750000D02*
X183950000Y-167750000D01*
G04 #@! TO.C,NE198*
X337860000Y-164510000D02*
X342400000Y-164510000D01*
X337860000Y-162410000D02*
X337860000Y-164510000D01*
X342400000Y-162410000D02*
X337860000Y-162410000D01*
X342400000Y-164510000D02*
X342400000Y-162410000D01*
G04 #@! TO.C,NE193*
X267400000Y-164510000D02*
X267400000Y-162410000D01*
X267400000Y-162410000D02*
X262860000Y-162410000D01*
X262860000Y-162410000D02*
X262860000Y-164510000D01*
X262860000Y-164510000D02*
X267400000Y-164510000D01*
G04 #@! TO.C,R198*
X328670000Y-167750000D02*
X318950000Y-167750000D01*
X328670000Y-170250000D02*
X328670000Y-167750000D01*
X318950000Y-170250000D02*
X328670000Y-170250000D01*
X318950000Y-167750000D02*
X318950000Y-170250000D01*
G04 #@! TO.C,NE187*
X172860000Y-164510000D02*
X177400000Y-164510000D01*
X172860000Y-162410000D02*
X172860000Y-164510000D01*
X177400000Y-162410000D02*
X172860000Y-162410000D01*
X177400000Y-164510000D02*
X177400000Y-162410000D01*
G04 #@! TO.C,R194*
X258950000Y-167750000D02*
X258950000Y-170250000D01*
X258950000Y-170250000D02*
X268670000Y-170250000D01*
X268670000Y-170250000D02*
X268670000Y-167750000D01*
X268670000Y-167750000D02*
X258950000Y-167750000D01*
G04 #@! TO.C,R196*
X298670000Y-167750000D02*
X288950000Y-167750000D01*
X298670000Y-170250000D02*
X298670000Y-167750000D01*
X288950000Y-170250000D02*
X298670000Y-170250000D01*
X288950000Y-167750000D02*
X288950000Y-170250000D01*
G04 #@! TO.C,NE191*
X237400000Y-164510000D02*
X237400000Y-162410000D01*
X237400000Y-162410000D02*
X232860000Y-162410000D01*
X232860000Y-162410000D02*
X232860000Y-164510000D01*
X232860000Y-164510000D02*
X237400000Y-164510000D01*
G04 #@! TO.C,R199*
X343670000Y-167750000D02*
X333950000Y-167750000D01*
X343670000Y-170250000D02*
X343670000Y-167750000D01*
X333950000Y-170250000D02*
X343670000Y-170250000D01*
X333950000Y-167750000D02*
X333950000Y-170250000D01*
G04 #@! TO.C,NE185*
X142860000Y-164510000D02*
X147400000Y-164510000D01*
X142860000Y-162410000D02*
X142860000Y-164510000D01*
X147400000Y-162410000D02*
X142860000Y-162410000D01*
X147400000Y-164510000D02*
X147400000Y-162410000D01*
G04 #@! TO.C,NE3*
X112860000Y-38510000D02*
X117400000Y-38510000D01*
X112860000Y-36410000D02*
X112860000Y-38510000D01*
X117400000Y-36410000D02*
X112860000Y-36410000D01*
X117400000Y-38510000D02*
X117400000Y-36410000D01*
G04 #@! TO.C,NE4*
X132400000Y-38510000D02*
X132400000Y-36410000D01*
X132400000Y-36410000D02*
X127860000Y-36410000D01*
X127860000Y-36410000D02*
X127860000Y-38510000D01*
X127860000Y-38510000D02*
X132400000Y-38510000D01*
G04 #@! TO.C,R69*
X193670000Y-83750000D02*
X183950000Y-83750000D01*
X193670000Y-86250000D02*
X193670000Y-83750000D01*
X183950000Y-86250000D02*
X193670000Y-86250000D01*
X183950000Y-83750000D02*
X183950000Y-86250000D01*
G04 #@! TO.C,NE8*
X187860000Y-38510000D02*
X192400000Y-38510000D01*
X187860000Y-36410000D02*
X187860000Y-38510000D01*
X192400000Y-36410000D02*
X187860000Y-36410000D01*
X192400000Y-38510000D02*
X192400000Y-36410000D01*
G04 #@! TO.C,NE12*
X247860000Y-38510000D02*
X252400000Y-38510000D01*
X247860000Y-36410000D02*
X247860000Y-38510000D01*
X252400000Y-36410000D02*
X247860000Y-36410000D01*
X252400000Y-38510000D02*
X252400000Y-36410000D01*
G04 #@! TO.C,NE14*
X277860000Y-38510000D02*
X282400000Y-38510000D01*
X277860000Y-36410000D02*
X277860000Y-38510000D01*
X282400000Y-36410000D02*
X277860000Y-36410000D01*
X282400000Y-38510000D02*
X282400000Y-36410000D01*
G04 #@! TO.C,NE16*
X307860000Y-38510000D02*
X312400000Y-38510000D01*
X307860000Y-36410000D02*
X307860000Y-38510000D01*
X312400000Y-36410000D02*
X307860000Y-36410000D01*
X312400000Y-38510000D02*
X312400000Y-36410000D01*
G04 #@! TO.C,NE18*
X337860000Y-38510000D02*
X342400000Y-38510000D01*
X337860000Y-36410000D02*
X337860000Y-38510000D01*
X342400000Y-36410000D02*
X337860000Y-36410000D01*
X342400000Y-38510000D02*
X342400000Y-36410000D01*
G04 #@! TO.C,R66*
X148670000Y-83750000D02*
X138950000Y-83750000D01*
X148670000Y-86250000D02*
X148670000Y-83750000D01*
X138950000Y-86250000D02*
X148670000Y-86250000D01*
X138950000Y-83750000D02*
X138950000Y-86250000D01*
G04 #@! TO.C,NE65*
X147400000Y-80510000D02*
X147400000Y-78410000D01*
X147400000Y-78410000D02*
X142860000Y-78410000D01*
X142860000Y-78410000D02*
X142860000Y-80510000D01*
X142860000Y-80510000D02*
X147400000Y-80510000D01*
G04 #@! TO.C,NE64*
X127860000Y-80510000D02*
X132400000Y-80510000D01*
X127860000Y-78410000D02*
X127860000Y-80510000D01*
X132400000Y-78410000D02*
X127860000Y-78410000D01*
X132400000Y-80510000D02*
X132400000Y-78410000D01*
G04 #@! TO.C,NE68*
X187860000Y-80510000D02*
X192400000Y-80510000D01*
X187860000Y-78410000D02*
X187860000Y-80510000D01*
X192400000Y-78410000D02*
X187860000Y-78410000D01*
X192400000Y-80510000D02*
X192400000Y-78410000D01*
G04 #@! TO.C,R65*
X133670000Y-83750000D02*
X123950000Y-83750000D01*
X133670000Y-86250000D02*
X133670000Y-83750000D01*
X123950000Y-86250000D02*
X133670000Y-86250000D01*
X123950000Y-83750000D02*
X123950000Y-86250000D01*
G04 #@! TO.C,R67*
X153950000Y-83750000D02*
X153950000Y-86250000D01*
X153950000Y-86250000D02*
X163670000Y-86250000D01*
X163670000Y-86250000D02*
X163670000Y-83750000D01*
X163670000Y-83750000D02*
X153950000Y-83750000D01*
G04 #@! TO.C,NE67*
X177400000Y-80510000D02*
X177400000Y-78410000D01*
X177400000Y-78410000D02*
X172860000Y-78410000D01*
X172860000Y-78410000D02*
X172860000Y-80510000D01*
X172860000Y-80510000D02*
X177400000Y-80510000D01*
G04 #@! TO.C,NE70*
X222400000Y-80510000D02*
X222400000Y-78410000D01*
X222400000Y-78410000D02*
X217860000Y-78410000D01*
X217860000Y-78410000D02*
X217860000Y-80510000D01*
X217860000Y-80510000D02*
X222400000Y-80510000D01*
G04 #@! TO.C,NE63*
X117400000Y-80510000D02*
X117400000Y-78410000D01*
X117400000Y-78410000D02*
X112860000Y-78410000D01*
X112860000Y-78410000D02*
X112860000Y-80510000D01*
X112860000Y-80510000D02*
X117400000Y-80510000D01*
G04 #@! TO.C,NE69*
X202860000Y-80510000D02*
X207400000Y-80510000D01*
X202860000Y-78410000D02*
X202860000Y-80510000D01*
X207400000Y-78410000D02*
X202860000Y-78410000D01*
X207400000Y-80510000D02*
X207400000Y-78410000D01*
G04 #@! TO.C,R64*
X108950000Y-83750000D02*
X108950000Y-86250000D01*
X108950000Y-86250000D02*
X118670000Y-86250000D01*
X118670000Y-86250000D02*
X118670000Y-83750000D01*
X118670000Y-83750000D02*
X108950000Y-83750000D01*
G04 #@! TO.C,R71*
X213950000Y-83750000D02*
X213950000Y-86250000D01*
X213950000Y-86250000D02*
X223670000Y-86250000D01*
X223670000Y-86250000D02*
X223670000Y-83750000D01*
X223670000Y-83750000D02*
X213950000Y-83750000D01*
G04 #@! TO.C,R68*
X178670000Y-83750000D02*
X168950000Y-83750000D01*
X178670000Y-86250000D02*
X178670000Y-83750000D01*
X168950000Y-86250000D02*
X178670000Y-86250000D01*
X168950000Y-83750000D02*
X168950000Y-86250000D01*
G04 #@! TO.C,NE6*
X157860000Y-38510000D02*
X162400000Y-38510000D01*
X157860000Y-36410000D02*
X157860000Y-38510000D01*
X162400000Y-36410000D02*
X157860000Y-36410000D01*
X162400000Y-38510000D02*
X162400000Y-36410000D01*
G04 #@! TO.C,NE7*
X172860000Y-38510000D02*
X177400000Y-38510000D01*
X172860000Y-36410000D02*
X172860000Y-38510000D01*
X177400000Y-36410000D02*
X172860000Y-36410000D01*
X177400000Y-38510000D02*
X177400000Y-36410000D01*
G04 #@! TO.C,NE10*
X217860000Y-38510000D02*
X222400000Y-38510000D01*
X217860000Y-36410000D02*
X217860000Y-38510000D01*
X222400000Y-36410000D02*
X217860000Y-36410000D01*
X222400000Y-38510000D02*
X222400000Y-36410000D01*
G04 #@! TO.C,R70*
X208670000Y-83750000D02*
X198950000Y-83750000D01*
X208670000Y-86250000D02*
X208670000Y-83750000D01*
X198950000Y-86250000D02*
X208670000Y-86250000D01*
X198950000Y-83750000D02*
X198950000Y-86250000D01*
G04 #@! TO.C,R4*
X108950000Y-41750000D02*
X108950000Y-44250000D01*
X108950000Y-44250000D02*
X118670000Y-44250000D01*
X118670000Y-44250000D02*
X118670000Y-41750000D01*
X118670000Y-41750000D02*
X108950000Y-41750000D01*
G04 #@! TO.C,R5*
X133670000Y-41750000D02*
X123950000Y-41750000D01*
X133670000Y-44250000D02*
X133670000Y-41750000D01*
X123950000Y-44250000D02*
X133670000Y-44250000D01*
X123950000Y-41750000D02*
X123950000Y-44250000D01*
G04 #@! TO.C,NE66*
X157860000Y-80510000D02*
X162400000Y-80510000D01*
X157860000Y-78410000D02*
X157860000Y-80510000D01*
X162400000Y-78410000D02*
X157860000Y-78410000D01*
X162400000Y-80510000D02*
X162400000Y-78410000D01*
G04 #@! TO.C,R6*
X148670000Y-41750000D02*
X138950000Y-41750000D01*
X148670000Y-44250000D02*
X148670000Y-41750000D01*
X138950000Y-44250000D02*
X148670000Y-44250000D01*
X138950000Y-41750000D02*
X138950000Y-44250000D01*
G04 #@! TO.C,R7*
X163670000Y-41750000D02*
X153950000Y-41750000D01*
X163670000Y-44250000D02*
X163670000Y-41750000D01*
X153950000Y-44250000D02*
X163670000Y-44250000D01*
X153950000Y-41750000D02*
X153950000Y-44250000D01*
G04 #@! TO.C,NE5*
X147400000Y-38510000D02*
X147400000Y-36410000D01*
X147400000Y-36410000D02*
X142860000Y-36410000D01*
X142860000Y-36410000D02*
X142860000Y-38510000D01*
X142860000Y-38510000D02*
X147400000Y-38510000D01*
G04 #@! TO.C,NE9*
X202860000Y-38510000D02*
X207400000Y-38510000D01*
X202860000Y-36410000D02*
X202860000Y-38510000D01*
X207400000Y-36410000D02*
X202860000Y-36410000D01*
X207400000Y-38510000D02*
X207400000Y-36410000D01*
G04 #@! TO.C,R8*
X178670000Y-41750000D02*
X168950000Y-41750000D01*
X178670000Y-44250000D02*
X178670000Y-41750000D01*
X168950000Y-44250000D02*
X178670000Y-44250000D01*
X168950000Y-41750000D02*
X168950000Y-44250000D01*
G04 #@! TO.C,R9*
X193670000Y-41750000D02*
X183950000Y-41750000D01*
X193670000Y-44250000D02*
X193670000Y-41750000D01*
X183950000Y-44250000D02*
X193670000Y-44250000D01*
X183950000Y-41750000D02*
X183950000Y-44250000D01*
G04 #@! TO.C,R10*
X198950000Y-41750000D02*
X198950000Y-44250000D01*
X198950000Y-44250000D02*
X208670000Y-44250000D01*
X208670000Y-44250000D02*
X208670000Y-41750000D01*
X208670000Y-41750000D02*
X198950000Y-41750000D01*
G04 #@! TO.C,R11*
X213950000Y-41750000D02*
X213950000Y-44250000D01*
X213950000Y-44250000D02*
X223670000Y-44250000D01*
X223670000Y-44250000D02*
X223670000Y-41750000D01*
X223670000Y-41750000D02*
X213950000Y-41750000D01*
G04 #@! TO.C,NE11*
X232860000Y-38510000D02*
X237400000Y-38510000D01*
X232860000Y-36410000D02*
X232860000Y-38510000D01*
X237400000Y-36410000D02*
X232860000Y-36410000D01*
X237400000Y-38510000D02*
X237400000Y-36410000D01*
G04 #@! TO.C,NE13*
X267400000Y-38510000D02*
X267400000Y-36410000D01*
X267400000Y-36410000D02*
X262860000Y-36410000D01*
X262860000Y-36410000D02*
X262860000Y-38510000D01*
X262860000Y-38510000D02*
X267400000Y-38510000D01*
G04 #@! TO.C,NE15*
X292860000Y-38510000D02*
X297400000Y-38510000D01*
X292860000Y-36410000D02*
X292860000Y-38510000D01*
X297400000Y-36410000D02*
X292860000Y-36410000D01*
X297400000Y-38510000D02*
X297400000Y-36410000D01*
G04 #@! TO.C,NE17*
X322860000Y-38510000D02*
X327400000Y-38510000D01*
X322860000Y-36410000D02*
X322860000Y-38510000D01*
X327400000Y-36410000D02*
X322860000Y-36410000D01*
X327400000Y-38510000D02*
X327400000Y-36410000D01*
G04 #@! TO.C,NE19*
X357400000Y-38510000D02*
X357400000Y-36410000D01*
X357400000Y-36410000D02*
X352860000Y-36410000D01*
X352860000Y-36410000D02*
X352860000Y-38510000D01*
X352860000Y-38510000D02*
X357400000Y-38510000D01*
G04 #@! TO.C,NE23*
X117400000Y-52510000D02*
X117400000Y-50410000D01*
X117400000Y-50410000D02*
X112860000Y-50410000D01*
X112860000Y-50410000D02*
X112860000Y-52510000D01*
X112860000Y-52510000D02*
X117400000Y-52510000D01*
G04 #@! TO.C,NE24*
X132400000Y-52510000D02*
X132400000Y-50410000D01*
X132400000Y-50410000D02*
X127860000Y-50410000D01*
X127860000Y-50410000D02*
X127860000Y-52510000D01*
X127860000Y-52510000D02*
X132400000Y-52510000D01*
G04 #@! TO.C,NE27*
X177400000Y-52510000D02*
X177400000Y-50410000D01*
X177400000Y-50410000D02*
X172860000Y-50410000D01*
X172860000Y-50410000D02*
X172860000Y-52510000D01*
X172860000Y-52510000D02*
X177400000Y-52510000D01*
G04 #@! TO.C,NE28*
X187860000Y-52510000D02*
X192400000Y-52510000D01*
X187860000Y-50410000D02*
X187860000Y-52510000D01*
X192400000Y-50410000D02*
X187860000Y-50410000D01*
X192400000Y-52510000D02*
X192400000Y-50410000D01*
G04 #@! TO.C,NE29*
X207400000Y-52510000D02*
X207400000Y-50410000D01*
X207400000Y-50410000D02*
X202860000Y-50410000D01*
X202860000Y-50410000D02*
X202860000Y-52510000D01*
X202860000Y-52510000D02*
X207400000Y-52510000D01*
G04 #@! TO.C,NE31*
X232860000Y-52510000D02*
X237400000Y-52510000D01*
X232860000Y-50410000D02*
X232860000Y-52510000D01*
X237400000Y-50410000D02*
X232860000Y-50410000D01*
X237400000Y-52510000D02*
X237400000Y-50410000D01*
G04 #@! TO.C,NE32*
X252400000Y-52510000D02*
X252400000Y-50410000D01*
X252400000Y-50410000D02*
X247860000Y-50410000D01*
X247860000Y-50410000D02*
X247860000Y-52510000D01*
X247860000Y-52510000D02*
X252400000Y-52510000D01*
G04 #@! TO.C,NE33*
X262860000Y-52510000D02*
X267400000Y-52510000D01*
X262860000Y-50410000D02*
X262860000Y-52510000D01*
X267400000Y-50410000D02*
X262860000Y-50410000D01*
X267400000Y-52510000D02*
X267400000Y-50410000D01*
G04 #@! TO.C,NE34*
X282400000Y-52510000D02*
X282400000Y-50410000D01*
X282400000Y-50410000D02*
X277860000Y-50410000D01*
X277860000Y-50410000D02*
X277860000Y-52510000D01*
X277860000Y-52510000D02*
X282400000Y-52510000D01*
G04 #@! TO.C,NE36*
X307860000Y-52510000D02*
X312400000Y-52510000D01*
X307860000Y-50410000D02*
X307860000Y-52510000D01*
X312400000Y-50410000D02*
X307860000Y-50410000D01*
X312400000Y-52510000D02*
X312400000Y-50410000D01*
G04 #@! TO.C,NE38*
X342400000Y-52510000D02*
X342400000Y-50410000D01*
X342400000Y-50410000D02*
X337860000Y-50410000D01*
X337860000Y-50410000D02*
X337860000Y-52510000D01*
X337860000Y-52510000D02*
X342400000Y-52510000D01*
G04 #@! TO.C,NE39*
X352860000Y-52510000D02*
X357400000Y-52510000D01*
X352860000Y-50410000D02*
X352860000Y-52510000D01*
X357400000Y-50410000D02*
X352860000Y-50410000D01*
X357400000Y-52510000D02*
X357400000Y-50410000D01*
G04 #@! TO.C,NE35*
X292860000Y-52510000D02*
X297400000Y-52510000D01*
X292860000Y-50410000D02*
X292860000Y-52510000D01*
X297400000Y-50410000D02*
X292860000Y-50410000D01*
X297400000Y-52510000D02*
X297400000Y-50410000D01*
G04 #@! TO.C,NE21*
X87400000Y-52510000D02*
X87400000Y-50410000D01*
X87400000Y-50410000D02*
X82860000Y-50410000D01*
X82860000Y-50410000D02*
X82860000Y-52510000D01*
X82860000Y-52510000D02*
X87400000Y-52510000D01*
G04 #@! TO.C,NE26*
X162400000Y-52510000D02*
X162400000Y-50410000D01*
X162400000Y-50410000D02*
X157860000Y-50410000D01*
X157860000Y-50410000D02*
X157860000Y-52510000D01*
X157860000Y-52510000D02*
X162400000Y-52510000D01*
G04 #@! TO.C,NE25*
X147400000Y-52510000D02*
X147400000Y-50410000D01*
X147400000Y-50410000D02*
X142860000Y-50410000D01*
X142860000Y-50410000D02*
X142860000Y-52510000D01*
X142860000Y-52510000D02*
X147400000Y-52510000D01*
G04 #@! TO.C,NE30*
X217860000Y-52510000D02*
X222400000Y-52510000D01*
X217860000Y-50410000D02*
X217860000Y-52510000D01*
X222400000Y-50410000D02*
X217860000Y-50410000D01*
X222400000Y-52510000D02*
X222400000Y-50410000D01*
G04 #@! TO.C,NE20*
X372400000Y-38510000D02*
X372400000Y-36410000D01*
X372400000Y-36410000D02*
X367860000Y-36410000D01*
X367860000Y-36410000D02*
X367860000Y-38510000D01*
X367860000Y-38510000D02*
X372400000Y-38510000D01*
G04 #@! TO.C,NE37*
X327400000Y-52510000D02*
X327400000Y-50410000D01*
X327400000Y-50410000D02*
X322860000Y-50410000D01*
X322860000Y-50410000D02*
X322860000Y-52510000D01*
X322860000Y-52510000D02*
X327400000Y-52510000D01*
G04 #@! TO.C,NE74*
X282400000Y-80510000D02*
X282400000Y-78410000D01*
X282400000Y-78410000D02*
X277860000Y-78410000D01*
X277860000Y-78410000D02*
X277860000Y-80510000D01*
X277860000Y-80510000D02*
X282400000Y-80510000D01*
G04 #@! TO.C,NE77*
X322860000Y-80510000D02*
X327400000Y-80510000D01*
X322860000Y-78410000D02*
X322860000Y-80510000D01*
X327400000Y-78410000D02*
X322860000Y-78410000D01*
X327400000Y-80510000D02*
X327400000Y-78410000D01*
G04 #@! TO.C,NE78*
X342400000Y-80510000D02*
X342400000Y-78410000D01*
X342400000Y-78410000D02*
X337860000Y-78410000D01*
X337860000Y-78410000D02*
X337860000Y-80510000D01*
X337860000Y-80510000D02*
X342400000Y-80510000D01*
G04 #@! TO.C,NE73*
X262860000Y-80510000D02*
X267400000Y-80510000D01*
X262860000Y-78410000D02*
X262860000Y-80510000D01*
X267400000Y-78410000D02*
X262860000Y-78410000D01*
X267400000Y-80510000D02*
X267400000Y-78410000D01*
G04 #@! TO.C,NE72*
X252400000Y-80510000D02*
X252400000Y-78410000D01*
X252400000Y-78410000D02*
X247860000Y-78410000D01*
X247860000Y-78410000D02*
X247860000Y-80510000D01*
X247860000Y-80510000D02*
X252400000Y-80510000D01*
G04 #@! TO.C,NE71*
X232860000Y-80510000D02*
X237400000Y-80510000D01*
X232860000Y-78410000D02*
X232860000Y-80510000D01*
X237400000Y-78410000D02*
X232860000Y-78410000D01*
X237400000Y-80510000D02*
X237400000Y-78410000D01*
G04 #@! TO.C,NE75*
X292860000Y-80510000D02*
X297400000Y-80510000D01*
X292860000Y-78410000D02*
X292860000Y-80510000D01*
X297400000Y-78410000D02*
X292860000Y-78410000D01*
X297400000Y-80510000D02*
X297400000Y-78410000D01*
G04 #@! TO.C,NE76*
X312400000Y-80510000D02*
X312400000Y-78410000D01*
X312400000Y-78410000D02*
X307860000Y-78410000D01*
X307860000Y-78410000D02*
X307860000Y-80510000D01*
X307860000Y-80510000D02*
X312400000Y-80510000D01*
G04 #@! TO.C,R14*
X268670000Y-41750000D02*
X258950000Y-41750000D01*
X268670000Y-44250000D02*
X268670000Y-41750000D01*
X258950000Y-44250000D02*
X268670000Y-44250000D01*
X258950000Y-41750000D02*
X258950000Y-44250000D01*
G04 #@! TO.C,R40*
X358670000Y-55750000D02*
X348950000Y-55750000D01*
X358670000Y-58250000D02*
X358670000Y-55750000D01*
X348950000Y-58250000D02*
X358670000Y-58250000D01*
X348950000Y-55750000D02*
X348950000Y-58250000D01*
G04 #@! TO.C,R22*
X88670000Y-55750000D02*
X78950000Y-55750000D01*
X88670000Y-58250000D02*
X88670000Y-55750000D01*
X78950000Y-58250000D02*
X88670000Y-58250000D01*
X78950000Y-55750000D02*
X78950000Y-58250000D01*
G04 #@! TO.C,R33*
X243950000Y-55750000D02*
X243950000Y-58250000D01*
X243950000Y-58250000D02*
X253670000Y-58250000D01*
X253670000Y-58250000D02*
X253670000Y-55750000D01*
X253670000Y-55750000D02*
X243950000Y-55750000D01*
G04 #@! TO.C,NE43*
X112860000Y-66510000D02*
X117400000Y-66510000D01*
X112860000Y-64410000D02*
X112860000Y-66510000D01*
X117400000Y-64410000D02*
X112860000Y-64410000D01*
X117400000Y-66510000D02*
X117400000Y-64410000D01*
G04 #@! TO.C,R21*
X373670000Y-41750000D02*
X363950000Y-41750000D01*
X373670000Y-44250000D02*
X373670000Y-41750000D01*
X363950000Y-44250000D02*
X373670000Y-44250000D01*
X363950000Y-41750000D02*
X363950000Y-44250000D01*
G04 #@! TO.C,R18*
X318950000Y-41750000D02*
X318950000Y-44250000D01*
X318950000Y-44250000D02*
X328670000Y-44250000D01*
X328670000Y-44250000D02*
X328670000Y-41750000D01*
X328670000Y-41750000D02*
X318950000Y-41750000D01*
G04 #@! TO.C,NE49*
X207400000Y-66510000D02*
X207400000Y-64410000D01*
X207400000Y-64410000D02*
X202860000Y-64410000D01*
X202860000Y-64410000D02*
X202860000Y-66510000D01*
X202860000Y-66510000D02*
X207400000Y-66510000D01*
G04 #@! TO.C,NE51*
X237400000Y-66510000D02*
X237400000Y-64410000D01*
X237400000Y-64410000D02*
X232860000Y-64410000D01*
X232860000Y-64410000D02*
X232860000Y-66510000D01*
X232860000Y-66510000D02*
X237400000Y-66510000D01*
G04 #@! TO.C,NE53*
X267400000Y-66510000D02*
X267400000Y-64410000D01*
X267400000Y-64410000D02*
X262860000Y-64410000D01*
X262860000Y-64410000D02*
X262860000Y-66510000D01*
X262860000Y-66510000D02*
X267400000Y-66510000D01*
G04 #@! TO.C,NE47*
X172860000Y-66510000D02*
X177400000Y-66510000D01*
X172860000Y-64410000D02*
X172860000Y-66510000D01*
X177400000Y-64410000D02*
X172860000Y-64410000D01*
X177400000Y-66510000D02*
X177400000Y-64410000D01*
G04 #@! TO.C,NE48*
X192400000Y-66510000D02*
X192400000Y-64410000D01*
X192400000Y-64410000D02*
X187860000Y-64410000D01*
X187860000Y-64410000D02*
X187860000Y-66510000D01*
X187860000Y-66510000D02*
X192400000Y-66510000D01*
G04 #@! TO.C,NE57*
X327400000Y-66510000D02*
X327400000Y-64410000D01*
X327400000Y-64410000D02*
X322860000Y-64410000D01*
X322860000Y-64410000D02*
X322860000Y-66510000D01*
X322860000Y-66510000D02*
X327400000Y-66510000D01*
G04 #@! TO.C,R34*
X258950000Y-55750000D02*
X258950000Y-58250000D01*
X258950000Y-58250000D02*
X268670000Y-58250000D01*
X268670000Y-58250000D02*
X268670000Y-55750000D01*
X268670000Y-55750000D02*
X258950000Y-55750000D01*
G04 #@! TO.C,R13*
X243950000Y-41750000D02*
X243950000Y-44250000D01*
X243950000Y-44250000D02*
X253670000Y-44250000D01*
X253670000Y-44250000D02*
X253670000Y-41750000D01*
X253670000Y-41750000D02*
X243950000Y-41750000D01*
G04 #@! TO.C,R20*
X358670000Y-41750000D02*
X348950000Y-41750000D01*
X358670000Y-44250000D02*
X358670000Y-41750000D01*
X348950000Y-44250000D02*
X358670000Y-44250000D01*
X348950000Y-41750000D02*
X348950000Y-44250000D01*
G04 #@! TO.C,R24*
X118670000Y-55750000D02*
X108950000Y-55750000D01*
X118670000Y-58250000D02*
X118670000Y-55750000D01*
X108950000Y-58250000D02*
X118670000Y-58250000D01*
X108950000Y-55750000D02*
X108950000Y-58250000D01*
G04 #@! TO.C,R17*
X303950000Y-41750000D02*
X303950000Y-44250000D01*
X303950000Y-44250000D02*
X313670000Y-44250000D01*
X313670000Y-44250000D02*
X313670000Y-41750000D01*
X313670000Y-41750000D02*
X303950000Y-41750000D01*
G04 #@! TO.C,R31*
X213950000Y-55750000D02*
X213950000Y-58250000D01*
X213950000Y-58250000D02*
X223670000Y-58250000D01*
X223670000Y-58250000D02*
X223670000Y-55750000D01*
X223670000Y-55750000D02*
X213950000Y-55750000D01*
G04 #@! TO.C,R19*
X343670000Y-41750000D02*
X333950000Y-41750000D01*
X343670000Y-44250000D02*
X343670000Y-41750000D01*
X333950000Y-44250000D02*
X343670000Y-44250000D01*
X333950000Y-41750000D02*
X333950000Y-44250000D01*
G04 #@! TO.C,R32*
X228950000Y-55750000D02*
X228950000Y-58250000D01*
X228950000Y-58250000D02*
X238670000Y-58250000D01*
X238670000Y-58250000D02*
X238670000Y-55750000D01*
X238670000Y-55750000D02*
X228950000Y-55750000D01*
G04 #@! TO.C,R35*
X273950000Y-55750000D02*
X273950000Y-58250000D01*
X273950000Y-58250000D02*
X283670000Y-58250000D01*
X283670000Y-58250000D02*
X283670000Y-55750000D01*
X283670000Y-55750000D02*
X273950000Y-55750000D01*
G04 #@! TO.C,R30*
X208670000Y-55750000D02*
X198950000Y-55750000D01*
X208670000Y-58250000D02*
X208670000Y-55750000D01*
X198950000Y-58250000D02*
X208670000Y-58250000D01*
X198950000Y-55750000D02*
X198950000Y-58250000D01*
G04 #@! TO.C,R29*
X183950000Y-55750000D02*
X183950000Y-58250000D01*
X183950000Y-58250000D02*
X193670000Y-58250000D01*
X193670000Y-58250000D02*
X193670000Y-55750000D01*
X193670000Y-55750000D02*
X183950000Y-55750000D01*
G04 #@! TO.C,R36*
X288950000Y-55750000D02*
X288950000Y-58250000D01*
X288950000Y-58250000D02*
X298670000Y-58250000D01*
X298670000Y-58250000D02*
X298670000Y-55750000D01*
X298670000Y-55750000D02*
X288950000Y-55750000D01*
G04 #@! TO.C,R25*
X123950000Y-55750000D02*
X123950000Y-58250000D01*
X123950000Y-58250000D02*
X133670000Y-58250000D01*
X133670000Y-58250000D02*
X133670000Y-55750000D01*
X133670000Y-55750000D02*
X123950000Y-55750000D01*
G04 #@! TO.C,R37*
X303950000Y-55750000D02*
X303950000Y-58250000D01*
X303950000Y-58250000D02*
X313670000Y-58250000D01*
X313670000Y-58250000D02*
X313670000Y-55750000D01*
X313670000Y-55750000D02*
X303950000Y-55750000D01*
G04 #@! TO.C,R16*
X288950000Y-41750000D02*
X288950000Y-44250000D01*
X288950000Y-44250000D02*
X298670000Y-44250000D01*
X298670000Y-44250000D02*
X298670000Y-41750000D01*
X298670000Y-41750000D02*
X288950000Y-41750000D01*
G04 #@! TO.C,R38*
X328670000Y-55750000D02*
X318950000Y-55750000D01*
X328670000Y-58250000D02*
X328670000Y-55750000D01*
X318950000Y-58250000D02*
X328670000Y-58250000D01*
X318950000Y-55750000D02*
X318950000Y-58250000D01*
G04 #@! TO.C,NE40*
X367860000Y-52510000D02*
X372400000Y-52510000D01*
X367860000Y-50410000D02*
X367860000Y-52510000D01*
X372400000Y-50410000D02*
X367860000Y-50410000D01*
X372400000Y-52510000D02*
X372400000Y-50410000D01*
G04 #@! TO.C,R15*
X273950000Y-41750000D02*
X273950000Y-44250000D01*
X273950000Y-44250000D02*
X283670000Y-44250000D01*
X283670000Y-44250000D02*
X283670000Y-41750000D01*
X283670000Y-41750000D02*
X273950000Y-41750000D01*
G04 #@! TO.C,R26*
X148670000Y-55750000D02*
X138950000Y-55750000D01*
X148670000Y-58250000D02*
X148670000Y-55750000D01*
X138950000Y-58250000D02*
X148670000Y-58250000D01*
X138950000Y-55750000D02*
X138950000Y-58250000D01*
G04 #@! TO.C,R12*
X228950000Y-41750000D02*
X228950000Y-44250000D01*
X228950000Y-44250000D02*
X238670000Y-44250000D01*
X238670000Y-44250000D02*
X238670000Y-41750000D01*
X238670000Y-41750000D02*
X228950000Y-41750000D01*
G04 #@! TO.C,R27*
X163670000Y-55750000D02*
X153950000Y-55750000D01*
X163670000Y-58250000D02*
X163670000Y-55750000D01*
X153950000Y-58250000D02*
X163670000Y-58250000D01*
X153950000Y-55750000D02*
X153950000Y-58250000D01*
G04 #@! TO.C,R28*
X178670000Y-55750000D02*
X168950000Y-55750000D01*
X178670000Y-58250000D02*
X178670000Y-55750000D01*
X168950000Y-58250000D02*
X178670000Y-58250000D01*
X168950000Y-55750000D02*
X168950000Y-58250000D01*
G04 #@! TO.C,R39*
X343670000Y-55750000D02*
X333950000Y-55750000D01*
X343670000Y-58250000D02*
X343670000Y-55750000D01*
X333950000Y-58250000D02*
X343670000Y-58250000D01*
X333950000Y-55750000D02*
X333950000Y-58250000D01*
G04 #@! TO.C,R41*
X373670000Y-55750000D02*
X363950000Y-55750000D01*
X373670000Y-58250000D02*
X373670000Y-55750000D01*
X363950000Y-58250000D02*
X373670000Y-58250000D01*
X363950000Y-55750000D02*
X363950000Y-58250000D01*
G04 #@! TO.C,NE41*
X82860000Y-66510000D02*
X87400000Y-66510000D01*
X82860000Y-64410000D02*
X82860000Y-66510000D01*
X87400000Y-64410000D02*
X82860000Y-64410000D01*
X87400000Y-66510000D02*
X87400000Y-64410000D01*
G04 #@! TO.C,NE44*
X132400000Y-66510000D02*
X132400000Y-64410000D01*
X132400000Y-64410000D02*
X127860000Y-64410000D01*
X127860000Y-64410000D02*
X127860000Y-66510000D01*
X127860000Y-66510000D02*
X132400000Y-66510000D01*
G04 #@! TO.C,NE45*
X142860000Y-66510000D02*
X147400000Y-66510000D01*
X142860000Y-64410000D02*
X142860000Y-66510000D01*
X147400000Y-64410000D02*
X142860000Y-64410000D01*
X147400000Y-66510000D02*
X147400000Y-64410000D01*
G04 #@! TO.C,NE46*
X162400000Y-66510000D02*
X162400000Y-64410000D01*
X162400000Y-64410000D02*
X157860000Y-64410000D01*
X157860000Y-64410000D02*
X157860000Y-66510000D01*
X157860000Y-66510000D02*
X162400000Y-66510000D01*
G04 #@! TO.C,NE50*
X217860000Y-66510000D02*
X222400000Y-66510000D01*
X217860000Y-64410000D02*
X217860000Y-66510000D01*
X222400000Y-64410000D02*
X217860000Y-64410000D01*
X222400000Y-66510000D02*
X222400000Y-64410000D01*
G04 #@! TO.C,NE52*
X247860000Y-66510000D02*
X252400000Y-66510000D01*
X247860000Y-64410000D02*
X247860000Y-66510000D01*
X252400000Y-64410000D02*
X247860000Y-64410000D01*
X252400000Y-66510000D02*
X252400000Y-64410000D01*
G04 #@! TO.C,NE54*
X277860000Y-66510000D02*
X282400000Y-66510000D01*
X277860000Y-64410000D02*
X277860000Y-66510000D01*
X282400000Y-64410000D02*
X277860000Y-64410000D01*
X282400000Y-66510000D02*
X282400000Y-64410000D01*
G04 #@! TO.C,NE55*
X297400000Y-66510000D02*
X297400000Y-64410000D01*
X297400000Y-64410000D02*
X292860000Y-64410000D01*
X292860000Y-64410000D02*
X292860000Y-66510000D01*
X292860000Y-66510000D02*
X297400000Y-66510000D01*
G04 #@! TO.C,NE56*
X307860000Y-66510000D02*
X312400000Y-66510000D01*
X307860000Y-64410000D02*
X307860000Y-66510000D01*
X312400000Y-64410000D02*
X307860000Y-64410000D01*
X312400000Y-66510000D02*
X312400000Y-64410000D01*
G04 #@! TO.C,NE59*
X357400000Y-66510000D02*
X357400000Y-64410000D01*
X357400000Y-64410000D02*
X352860000Y-64410000D01*
X352860000Y-64410000D02*
X352860000Y-66510000D01*
X352860000Y-66510000D02*
X357400000Y-66510000D01*
G04 #@! TO.C,NE60*
X367860000Y-66510000D02*
X372400000Y-66510000D01*
X367860000Y-64410000D02*
X367860000Y-66510000D01*
X372400000Y-64410000D02*
X367860000Y-64410000D01*
X372400000Y-66510000D02*
X372400000Y-64410000D01*
G04 #@! TO.C,R46*
X138950000Y-69750000D02*
X138950000Y-72250000D01*
X138950000Y-72250000D02*
X148670000Y-72250000D01*
X148670000Y-72250000D02*
X148670000Y-69750000D01*
X148670000Y-69750000D02*
X138950000Y-69750000D01*
G04 #@! TO.C,NE58*
X337860000Y-66510000D02*
X342400000Y-66510000D01*
X337860000Y-64410000D02*
X337860000Y-66510000D01*
X342400000Y-64410000D02*
X337860000Y-64410000D01*
X342400000Y-66510000D02*
X342400000Y-64410000D01*
G04 #@! TO.C,R42*
X88670000Y-69750000D02*
X78950000Y-69750000D01*
X88670000Y-72250000D02*
X88670000Y-69750000D01*
X78950000Y-72250000D02*
X88670000Y-72250000D01*
X78950000Y-69750000D02*
X78950000Y-72250000D01*
G04 #@! TO.C,R44*
X118670000Y-69750000D02*
X108950000Y-69750000D01*
X118670000Y-72250000D02*
X118670000Y-69750000D01*
X108950000Y-72250000D02*
X118670000Y-72250000D01*
X108950000Y-69750000D02*
X108950000Y-72250000D01*
G04 #@! TO.C,R45*
X123950000Y-69750000D02*
X123950000Y-72250000D01*
X123950000Y-72250000D02*
X133670000Y-72250000D01*
X133670000Y-72250000D02*
X133670000Y-69750000D01*
X133670000Y-69750000D02*
X123950000Y-69750000D01*
G04 #@! TO.C,R48*
X168950000Y-69750000D02*
X168950000Y-72250000D01*
X168950000Y-72250000D02*
X178670000Y-72250000D01*
X178670000Y-72250000D02*
X178670000Y-69750000D01*
X178670000Y-69750000D02*
X168950000Y-69750000D01*
G04 #@! TO.C,R49*
X183950000Y-69750000D02*
X183950000Y-72250000D01*
X183950000Y-72250000D02*
X193670000Y-72250000D01*
X193670000Y-72250000D02*
X193670000Y-69750000D01*
X193670000Y-69750000D02*
X183950000Y-69750000D01*
G04 #@! TO.C,R50*
X198950000Y-69750000D02*
X198950000Y-72250000D01*
X198950000Y-72250000D02*
X208670000Y-72250000D01*
X208670000Y-72250000D02*
X208670000Y-69750000D01*
X208670000Y-69750000D02*
X198950000Y-69750000D01*
G04 #@! TO.C,R51*
X223670000Y-69750000D02*
X213950000Y-69750000D01*
X223670000Y-72250000D02*
X223670000Y-69750000D01*
X213950000Y-72250000D02*
X223670000Y-72250000D01*
X213950000Y-69750000D02*
X213950000Y-72250000D01*
G04 #@! TO.C,R52*
X228950000Y-69750000D02*
X228950000Y-72250000D01*
X228950000Y-72250000D02*
X238670000Y-72250000D01*
X238670000Y-72250000D02*
X238670000Y-69750000D01*
X238670000Y-69750000D02*
X228950000Y-69750000D01*
G04 #@! TO.C,R53*
X243950000Y-69750000D02*
X243950000Y-72250000D01*
X243950000Y-72250000D02*
X253670000Y-72250000D01*
X253670000Y-72250000D02*
X253670000Y-69750000D01*
X253670000Y-69750000D02*
X243950000Y-69750000D01*
G04 #@! TO.C,R54*
X258950000Y-69750000D02*
X258950000Y-72250000D01*
X258950000Y-72250000D02*
X268670000Y-72250000D01*
X268670000Y-72250000D02*
X268670000Y-69750000D01*
X268670000Y-69750000D02*
X258950000Y-69750000D01*
G04 #@! TO.C,R47*
X163670000Y-69750000D02*
X153950000Y-69750000D01*
X163670000Y-72250000D02*
X163670000Y-69750000D01*
X153950000Y-72250000D02*
X163670000Y-72250000D01*
X153950000Y-69750000D02*
X153950000Y-72250000D01*
G04 #@! TO.C,R56*
X298670000Y-69750000D02*
X288950000Y-69750000D01*
X298670000Y-72250000D02*
X298670000Y-69750000D01*
X288950000Y-72250000D02*
X298670000Y-72250000D01*
X288950000Y-69750000D02*
X288950000Y-72250000D01*
G04 #@! TO.C,R57*
X313670000Y-69750000D02*
X303950000Y-69750000D01*
X313670000Y-72250000D02*
X313670000Y-69750000D01*
X303950000Y-72250000D02*
X313670000Y-72250000D01*
X303950000Y-69750000D02*
X303950000Y-72250000D01*
G04 #@! TO.C,R59*
X343670000Y-69750000D02*
X333950000Y-69750000D01*
X343670000Y-72250000D02*
X343670000Y-69750000D01*
X333950000Y-72250000D02*
X343670000Y-72250000D01*
X333950000Y-69750000D02*
X333950000Y-72250000D01*
G04 #@! TO.C,R60*
X348950000Y-69750000D02*
X348950000Y-72250000D01*
X348950000Y-72250000D02*
X358670000Y-72250000D01*
X358670000Y-72250000D02*
X358670000Y-69750000D01*
X358670000Y-69750000D02*
X348950000Y-69750000D01*
G04 #@! TO.C,R55*
X283670000Y-69750000D02*
X273950000Y-69750000D01*
X283670000Y-72250000D02*
X283670000Y-69750000D01*
X273950000Y-72250000D02*
X283670000Y-72250000D01*
X273950000Y-69750000D02*
X273950000Y-72250000D01*
G04 #@! TO.C,R58*
X328670000Y-69750000D02*
X318950000Y-69750000D01*
X328670000Y-72250000D02*
X328670000Y-69750000D01*
X318950000Y-72250000D02*
X328670000Y-72250000D01*
X318950000Y-69750000D02*
X318950000Y-72250000D01*
G04 #@! TO.C,R61*
X373670000Y-69750000D02*
X363950000Y-69750000D01*
X373670000Y-72250000D02*
X373670000Y-69750000D01*
X363950000Y-72250000D02*
X373670000Y-72250000D01*
X363950000Y-69750000D02*
X363950000Y-72250000D01*
G04 #@! TO.C,Q153*
X261850000Y-134050000D02*
X261850000Y-139550000D01*
X261850000Y-134050000D02*
X257250000Y-134050000D01*
X257250000Y-139550000D02*
X261850000Y-139550000D01*
X257250000Y-139550000D02*
X257250000Y-134050000D01*
G04 #@! TO.C,Q172*
X246850000Y-148050000D02*
X246850000Y-153550000D01*
X246850000Y-148050000D02*
X242250000Y-148050000D01*
X242250000Y-153550000D02*
X246850000Y-153550000D01*
X242250000Y-153550000D02*
X242250000Y-148050000D01*
G04 #@! TO.C,Q174*
X276850000Y-148050000D02*
X276850000Y-153550000D01*
X276850000Y-148050000D02*
X272250000Y-148050000D01*
X272250000Y-153550000D02*
X276850000Y-153550000D01*
X272250000Y-153550000D02*
X272250000Y-148050000D01*
G04 #@! TO.C,Q154*
X276850000Y-134050000D02*
X276850000Y-139550000D01*
X276850000Y-134050000D02*
X272250000Y-134050000D01*
X272250000Y-139550000D02*
X276850000Y-139550000D01*
X272250000Y-139550000D02*
X272250000Y-134050000D01*
G04 #@! TO.C,Q175*
X291850000Y-148050000D02*
X291850000Y-153550000D01*
X291850000Y-148050000D02*
X287250000Y-148050000D01*
X287250000Y-153550000D02*
X291850000Y-153550000D01*
X287250000Y-153550000D02*
X287250000Y-148050000D01*
G04 #@! TO.C,Q199*
X351850000Y-162050000D02*
X351850000Y-167550000D01*
X351850000Y-162050000D02*
X347250000Y-162050000D01*
X347250000Y-167550000D02*
X351850000Y-167550000D01*
X347250000Y-167550000D02*
X347250000Y-162050000D01*
G04 #@! TO.C,Q179*
X351850000Y-148050000D02*
X351850000Y-153550000D01*
X351850000Y-148050000D02*
X347250000Y-148050000D01*
X347250000Y-153550000D02*
X351850000Y-153550000D01*
X347250000Y-153550000D02*
X347250000Y-148050000D01*
G04 #@! TO.C,Q185*
X141850000Y-162050000D02*
X141850000Y-167550000D01*
X141850000Y-162050000D02*
X137250000Y-162050000D01*
X137250000Y-167550000D02*
X141850000Y-167550000D01*
X137250000Y-167550000D02*
X137250000Y-162050000D01*
G04 #@! TO.C,Q171*
X231850000Y-148050000D02*
X231850000Y-153550000D01*
X231850000Y-148050000D02*
X227250000Y-148050000D01*
X227250000Y-153550000D02*
X231850000Y-153550000D01*
X227250000Y-153550000D02*
X227250000Y-148050000D01*
G04 #@! TO.C,Q162*
X96850000Y-148050000D02*
X96850000Y-153550000D01*
X96850000Y-148050000D02*
X92250000Y-148050000D01*
X92250000Y-153550000D02*
X96850000Y-153550000D01*
X92250000Y-153550000D02*
X92250000Y-148050000D01*
G04 #@! TO.C,Q180*
X366850000Y-148050000D02*
X366850000Y-153550000D01*
X366850000Y-148050000D02*
X362250000Y-148050000D01*
X362250000Y-153550000D02*
X366850000Y-153550000D01*
X362250000Y-153550000D02*
X362250000Y-148050000D01*
G04 #@! TO.C,Q178*
X336850000Y-148050000D02*
X336850000Y-153550000D01*
X336850000Y-148050000D02*
X332250000Y-148050000D01*
X332250000Y-153550000D02*
X336850000Y-153550000D01*
X332250000Y-153550000D02*
X332250000Y-148050000D01*
G04 #@! TO.C,Q190*
X216850000Y-162050000D02*
X216850000Y-167550000D01*
X216850000Y-162050000D02*
X212250000Y-162050000D01*
X212250000Y-167550000D02*
X216850000Y-167550000D01*
X212250000Y-167550000D02*
X212250000Y-162050000D01*
G04 #@! TO.C,Q169*
X201850000Y-148050000D02*
X201850000Y-153550000D01*
X201850000Y-148050000D02*
X197250000Y-148050000D01*
X197250000Y-153550000D02*
X201850000Y-153550000D01*
X197250000Y-153550000D02*
X197250000Y-148050000D01*
G04 #@! TO.C,Q173*
X261850000Y-148050000D02*
X261850000Y-153550000D01*
X261850000Y-148050000D02*
X257250000Y-148050000D01*
X257250000Y-153550000D02*
X261850000Y-153550000D01*
X257250000Y-153550000D02*
X257250000Y-148050000D01*
G04 #@! TO.C,Q176*
X306850000Y-148050000D02*
X306850000Y-153550000D01*
X306850000Y-148050000D02*
X302250000Y-148050000D01*
X302250000Y-153550000D02*
X306850000Y-153550000D01*
X302250000Y-153550000D02*
X302250000Y-148050000D01*
G04 #@! TO.C,Q170*
X216850000Y-148050000D02*
X216850000Y-153550000D01*
X216850000Y-148050000D02*
X212250000Y-148050000D01*
X212250000Y-153550000D02*
X216850000Y-153550000D01*
X212250000Y-153550000D02*
X212250000Y-148050000D01*
G04 #@! TO.C,Q177*
X321850000Y-148050000D02*
X321850000Y-153550000D01*
X321850000Y-148050000D02*
X317250000Y-148050000D01*
X317250000Y-153550000D02*
X321850000Y-153550000D01*
X317250000Y-153550000D02*
X317250000Y-148050000D01*
G04 #@! TO.C,Q124*
X126850000Y-120050000D02*
X126850000Y-125550000D01*
X126850000Y-120050000D02*
X122250000Y-120050000D01*
X122250000Y-125550000D02*
X126850000Y-125550000D01*
X122250000Y-125550000D02*
X122250000Y-120050000D01*
G04 #@! TO.C,Q100*
X366850000Y-92050000D02*
X366850000Y-97550000D01*
X366850000Y-92050000D02*
X362250000Y-92050000D01*
X362250000Y-97550000D02*
X366850000Y-97550000D01*
X362250000Y-97550000D02*
X362250000Y-92050000D01*
G04 #@! TO.C,Q98*
X336850000Y-92050000D02*
X336850000Y-97550000D01*
X336850000Y-92050000D02*
X332250000Y-92050000D01*
X332250000Y-97550000D02*
X336850000Y-97550000D01*
X332250000Y-97550000D02*
X332250000Y-92050000D01*
G04 #@! TO.C,Q99*
X351850000Y-92050000D02*
X351850000Y-97550000D01*
X351850000Y-92050000D02*
X347250000Y-92050000D01*
X347250000Y-97550000D02*
X351850000Y-97550000D01*
X347250000Y-97550000D02*
X347250000Y-92050000D01*
G04 #@! TO.C,Q139*
X351850000Y-120050000D02*
X351850000Y-125550000D01*
X351850000Y-120050000D02*
X347250000Y-120050000D01*
X347250000Y-125550000D02*
X351850000Y-125550000D01*
X347250000Y-125550000D02*
X347250000Y-120050000D01*
G04 #@! TO.C,Q133*
X261850000Y-120050000D02*
X261850000Y-125550000D01*
X261850000Y-120050000D02*
X257250000Y-120050000D01*
X257250000Y-125550000D02*
X261850000Y-125550000D01*
X257250000Y-125550000D02*
X257250000Y-120050000D01*
G04 #@! TO.C,Q125*
X141850000Y-120050000D02*
X141850000Y-125550000D01*
X141850000Y-120050000D02*
X137250000Y-120050000D01*
X137250000Y-125550000D02*
X141850000Y-125550000D01*
X137250000Y-125550000D02*
X137250000Y-120050000D01*
G04 #@! TO.C,Q127*
X171850000Y-120050000D02*
X171850000Y-125550000D01*
X171850000Y-120050000D02*
X167250000Y-120050000D01*
X167250000Y-125550000D02*
X171850000Y-125550000D01*
X167250000Y-125550000D02*
X167250000Y-120050000D01*
G04 #@! TO.C,Q134*
X276850000Y-120050000D02*
X276850000Y-125550000D01*
X276850000Y-120050000D02*
X272250000Y-120050000D01*
X272250000Y-125550000D02*
X276850000Y-125550000D01*
X272250000Y-125550000D02*
X272250000Y-120050000D01*
G04 #@! TO.C,Q129*
X201850000Y-120050000D02*
X201850000Y-125550000D01*
X201850000Y-120050000D02*
X197250000Y-120050000D01*
X197250000Y-125550000D02*
X201850000Y-125550000D01*
X197250000Y-125550000D02*
X197250000Y-120050000D01*
G04 #@! TO.C,Q102*
X96850000Y-106050000D02*
X96850000Y-111550000D01*
X96850000Y-106050000D02*
X92250000Y-106050000D01*
X92250000Y-111550000D02*
X96850000Y-111550000D01*
X92250000Y-111550000D02*
X92250000Y-106050000D01*
G04 #@! TO.C,Q130*
X216850000Y-120050000D02*
X216850000Y-125550000D01*
X216850000Y-120050000D02*
X212250000Y-120050000D01*
X212250000Y-125550000D02*
X216850000Y-125550000D01*
X212250000Y-125550000D02*
X212250000Y-120050000D01*
G04 #@! TO.C,Q138*
X336850000Y-120050000D02*
X336850000Y-125550000D01*
X336850000Y-120050000D02*
X332250000Y-120050000D01*
X332250000Y-125550000D02*
X336850000Y-125550000D01*
X332250000Y-125550000D02*
X332250000Y-120050000D01*
G04 #@! TO.C,Q137*
X321850000Y-120050000D02*
X321850000Y-125550000D01*
X321850000Y-120050000D02*
X317250000Y-120050000D01*
X317250000Y-125550000D02*
X321850000Y-125550000D01*
X317250000Y-125550000D02*
X317250000Y-120050000D01*
G04 #@! TO.C,Q132*
X246850000Y-120050000D02*
X246850000Y-125550000D01*
X246850000Y-120050000D02*
X242250000Y-120050000D01*
X242250000Y-125550000D02*
X246850000Y-125550000D01*
X242250000Y-125550000D02*
X242250000Y-120050000D01*
G04 #@! TO.C,Q142*
X96850000Y-134050000D02*
X96850000Y-139550000D01*
X96850000Y-134050000D02*
X92250000Y-134050000D01*
X92250000Y-139550000D02*
X96850000Y-139550000D01*
X92250000Y-139550000D02*
X92250000Y-134050000D01*
G04 #@! TO.C,Q152*
X246850000Y-134050000D02*
X246850000Y-139550000D01*
X246850000Y-134050000D02*
X242250000Y-134050000D01*
X242250000Y-139550000D02*
X246850000Y-139550000D01*
X242250000Y-139550000D02*
X242250000Y-134050000D01*
G04 #@! TO.C,Q126*
X156850000Y-120050000D02*
X156850000Y-125550000D01*
X156850000Y-120050000D02*
X152250000Y-120050000D01*
X152250000Y-125550000D02*
X156850000Y-125550000D01*
X152250000Y-125550000D02*
X152250000Y-120050000D01*
G04 #@! TO.C,R163*
X103670000Y-153750000D02*
X93950000Y-153750000D01*
X103670000Y-156250000D02*
X103670000Y-153750000D01*
X93950000Y-156250000D02*
X103670000Y-156250000D01*
X93950000Y-153750000D02*
X93950000Y-156250000D01*
G04 #@! TO.C,R180*
X358670000Y-153750000D02*
X348950000Y-153750000D01*
X358670000Y-156250000D02*
X358670000Y-153750000D01*
X348950000Y-156250000D02*
X358670000Y-156250000D01*
X348950000Y-153750000D02*
X348950000Y-156250000D01*
G04 #@! TO.C,R171*
X213950000Y-153750000D02*
X213950000Y-156250000D01*
X213950000Y-156250000D02*
X223670000Y-156250000D01*
X223670000Y-156250000D02*
X223670000Y-153750000D01*
X223670000Y-153750000D02*
X213950000Y-153750000D01*
G04 #@! TO.C,R172*
X238670000Y-153750000D02*
X228950000Y-153750000D01*
X238670000Y-156250000D02*
X238670000Y-153750000D01*
X228950000Y-156250000D02*
X238670000Y-156250000D01*
X228950000Y-153750000D02*
X228950000Y-156250000D01*
G04 #@! TO.C,R177*
X303950000Y-153750000D02*
X303950000Y-156250000D01*
X303950000Y-156250000D02*
X313670000Y-156250000D01*
X313670000Y-156250000D02*
X313670000Y-153750000D01*
X313670000Y-153750000D02*
X303950000Y-153750000D01*
G04 #@! TO.C,NE153*
X267400000Y-136510000D02*
X267400000Y-134410000D01*
X267400000Y-134410000D02*
X262860000Y-134410000D01*
X262860000Y-134410000D02*
X262860000Y-136510000D01*
X262860000Y-136510000D02*
X267400000Y-136510000D01*
G04 #@! TO.C,NE142*
X102400000Y-136510000D02*
X102400000Y-134410000D01*
X102400000Y-134410000D02*
X97860000Y-134410000D01*
X97860000Y-134410000D02*
X97860000Y-136510000D01*
X97860000Y-136510000D02*
X102400000Y-136510000D01*
G04 #@! TO.C,NE169*
X202860000Y-150510000D02*
X207400000Y-150510000D01*
X202860000Y-148410000D02*
X202860000Y-150510000D01*
X207400000Y-148410000D02*
X202860000Y-148410000D01*
X207400000Y-150510000D02*
X207400000Y-148410000D01*
G04 #@! TO.C,R154*
X258950000Y-139750000D02*
X258950000Y-142250000D01*
X258950000Y-142250000D02*
X268670000Y-142250000D01*
X268670000Y-142250000D02*
X268670000Y-139750000D01*
X268670000Y-139750000D02*
X258950000Y-139750000D01*
G04 #@! TO.C,NE162*
X97860000Y-150510000D02*
X102400000Y-150510000D01*
X97860000Y-148410000D02*
X97860000Y-150510000D01*
X102400000Y-148410000D02*
X97860000Y-148410000D01*
X102400000Y-150510000D02*
X102400000Y-148410000D01*
G04 #@! TO.C,NE137*
X327400000Y-122510000D02*
X327400000Y-120410000D01*
X327400000Y-120410000D02*
X322860000Y-120410000D01*
X322860000Y-120410000D02*
X322860000Y-122510000D01*
X322860000Y-122510000D02*
X327400000Y-122510000D01*
G04 #@! TO.C,NE126*
X162400000Y-122510000D02*
X162400000Y-120410000D01*
X162400000Y-120410000D02*
X157860000Y-120410000D01*
X157860000Y-120410000D02*
X157860000Y-122510000D01*
X157860000Y-122510000D02*
X162400000Y-122510000D01*
G04 #@! TO.C,NE152*
X247860000Y-136510000D02*
X252400000Y-136510000D01*
X247860000Y-134410000D02*
X247860000Y-136510000D01*
X252400000Y-134410000D02*
X247860000Y-134410000D01*
X252400000Y-136510000D02*
X252400000Y-134410000D01*
G04 #@! TO.C,NE138*
X337860000Y-122510000D02*
X342400000Y-122510000D01*
X337860000Y-120410000D02*
X337860000Y-122510000D01*
X342400000Y-120410000D02*
X337860000Y-120410000D01*
X342400000Y-122510000D02*
X342400000Y-120410000D01*
G04 #@! TO.C,NE179*
X352860000Y-150510000D02*
X357400000Y-150510000D01*
X352860000Y-148410000D02*
X352860000Y-150510000D01*
X357400000Y-148410000D02*
X352860000Y-148410000D01*
X357400000Y-150510000D02*
X357400000Y-148410000D01*
G04 #@! TO.C,R178*
X318950000Y-153750000D02*
X318950000Y-156250000D01*
X318950000Y-156250000D02*
X328670000Y-156250000D01*
X328670000Y-156250000D02*
X328670000Y-153750000D01*
X328670000Y-153750000D02*
X318950000Y-153750000D01*
G04 #@! TO.C,R174*
X268670000Y-153750000D02*
X258950000Y-153750000D01*
X268670000Y-156250000D02*
X268670000Y-153750000D01*
X258950000Y-156250000D02*
X268670000Y-156250000D01*
X258950000Y-153750000D02*
X258950000Y-156250000D01*
G04 #@! TO.C,NE177*
X322860000Y-150510000D02*
X327400000Y-150510000D01*
X322860000Y-148410000D02*
X322860000Y-150510000D01*
X327400000Y-148410000D02*
X322860000Y-148410000D01*
X327400000Y-150510000D02*
X327400000Y-148410000D01*
G04 #@! TO.C,NE180*
X372400000Y-150510000D02*
X372400000Y-148410000D01*
X372400000Y-148410000D02*
X367860000Y-148410000D01*
X367860000Y-148410000D02*
X367860000Y-150510000D01*
X367860000Y-150510000D02*
X372400000Y-150510000D01*
G04 #@! TO.C,R153*
X243950000Y-139750000D02*
X243950000Y-142250000D01*
X243950000Y-142250000D02*
X253670000Y-142250000D01*
X253670000Y-142250000D02*
X253670000Y-139750000D01*
X253670000Y-139750000D02*
X243950000Y-139750000D01*
G04 #@! TO.C,R143*
X93950000Y-139750000D02*
X93950000Y-142250000D01*
X93950000Y-142250000D02*
X103670000Y-142250000D01*
X103670000Y-142250000D02*
X103670000Y-139750000D01*
X103670000Y-139750000D02*
X93950000Y-139750000D01*
G04 #@! TO.C,R135*
X283670000Y-125750000D02*
X273950000Y-125750000D01*
X283670000Y-128250000D02*
X283670000Y-125750000D01*
X273950000Y-128250000D02*
X283670000Y-128250000D01*
X273950000Y-125750000D02*
X273950000Y-128250000D01*
G04 #@! TO.C,NE154*
X277860000Y-136510000D02*
X282400000Y-136510000D01*
X277860000Y-134410000D02*
X277860000Y-136510000D01*
X282400000Y-134410000D02*
X277860000Y-134410000D01*
X282400000Y-136510000D02*
X282400000Y-134410000D01*
G04 #@! TO.C,R155*
X283670000Y-139750000D02*
X273950000Y-139750000D01*
X283670000Y-142250000D02*
X283670000Y-139750000D01*
X273950000Y-142250000D02*
X283670000Y-142250000D01*
X273950000Y-139750000D02*
X273950000Y-142250000D01*
G04 #@! TO.C,NE176*
X312400000Y-150510000D02*
X312400000Y-148410000D01*
X312400000Y-148410000D02*
X307860000Y-148410000D01*
X307860000Y-148410000D02*
X307860000Y-150510000D01*
X307860000Y-150510000D02*
X312400000Y-150510000D01*
G04 #@! TO.C,R176*
X288950000Y-153750000D02*
X288950000Y-156250000D01*
X288950000Y-156250000D02*
X298670000Y-156250000D01*
X298670000Y-156250000D02*
X298670000Y-153750000D01*
X298670000Y-153750000D02*
X288950000Y-153750000D01*
G04 #@! TO.C,NE171*
X232860000Y-150510000D02*
X237400000Y-150510000D01*
X232860000Y-148410000D02*
X232860000Y-150510000D01*
X237400000Y-148410000D02*
X232860000Y-148410000D01*
X237400000Y-150510000D02*
X237400000Y-148410000D01*
G04 #@! TO.C,R179*
X333950000Y-153750000D02*
X333950000Y-156250000D01*
X333950000Y-156250000D02*
X343670000Y-156250000D01*
X343670000Y-156250000D02*
X343670000Y-153750000D01*
X343670000Y-153750000D02*
X333950000Y-153750000D01*
G04 #@! TO.C,NE170*
X222400000Y-150510000D02*
X222400000Y-148410000D01*
X222400000Y-148410000D02*
X217860000Y-148410000D01*
X217860000Y-148410000D02*
X217860000Y-150510000D01*
X217860000Y-150510000D02*
X222400000Y-150510000D01*
G04 #@! TO.C,NE173*
X262860000Y-150510000D02*
X267400000Y-150510000D01*
X262860000Y-148410000D02*
X262860000Y-150510000D01*
X267400000Y-148410000D02*
X262860000Y-148410000D01*
X267400000Y-150510000D02*
X267400000Y-148410000D01*
G04 #@! TO.C,R170*
X208670000Y-153750000D02*
X198950000Y-153750000D01*
X208670000Y-156250000D02*
X208670000Y-153750000D01*
X198950000Y-156250000D02*
X208670000Y-156250000D01*
X198950000Y-153750000D02*
X198950000Y-156250000D01*
G04 #@! TO.C,R173*
X253670000Y-153750000D02*
X243950000Y-153750000D01*
X253670000Y-156250000D02*
X253670000Y-153750000D01*
X243950000Y-156250000D02*
X253670000Y-156250000D01*
X243950000Y-153750000D02*
X243950000Y-156250000D01*
G04 #@! TO.C,NE178*
X342400000Y-150510000D02*
X342400000Y-148410000D01*
X342400000Y-148410000D02*
X337860000Y-148410000D01*
X337860000Y-148410000D02*
X337860000Y-150510000D01*
X337860000Y-150510000D02*
X342400000Y-150510000D01*
G04 #@! TO.C,M2*
X383100000Y-35000000D02*
G75*
G03X383100000Y-35000000I-3100000J0D01*
G01*
G04 #@! TO.C,M1*
X63100000Y-35000000D02*
G75*
G03X63100000Y-35000000I-3100000J0D01*
G01*
G04 #@! TO.C,M5*
X228100000Y-112000000D02*
G75*
G03X228100000Y-112000000I-3100000J0D01*
G01*
G04 #@! TO.C,M4*
X383100000Y-175000000D02*
G75*
G03X383100000Y-175000000I-3100000J0D01*
G01*
G04 #@! TO.C,M3*
X63100000Y-175000000D02*
G75*
G03X63100000Y-175000000I-3100000J0D01*
G01*
G04 #@! TD*
M02*
