M48
;DRILL file {KiCad 4.0.5} date 04/16/17 00:06:41
;FORMAT={-:-/ absolute / inch / decimal}
FMAT,2
INCH,TZ
T1C0.031
T2C0.032
T3C0.035
T4C0.047
%
G90
G05
M72
T1
X2.8Y-3.7
X2.8Y-4.
X2.9Y-3.7
X2.9Y-4.
X3.Y-3.7
X3.Y-4.
X3.1Y-3.7
X3.1Y-4.
X3.2Y-3.7
X3.2Y-4.
X3.3Y-3.7
X3.3Y-4.
X3.4Y-3.7
X3.4Y-4.
X3.5Y-3.7
X3.5Y-4.
X3.6Y-3.7
X3.6Y-4.
X5.95Y-4.9
X6.1Y-3.05
X6.1Y-3.15
X6.1Y-3.25
X6.1Y-3.35
X6.1Y-3.45
X6.1Y-3.55
X6.1Y-3.65
X6.1Y-3.75
X6.1Y-3.85
X6.1Y-3.95
X6.1Y-4.05
X6.1Y-4.15
X6.1Y-4.25
X6.1Y-4.35
X6.25Y-4.75
X6.25Y-5.65
X6.4Y-3.05
X6.4Y-3.15
X6.4Y-3.25
X6.4Y-3.35
X6.4Y-3.45
X6.4Y-3.55
X6.4Y-3.65
X6.4Y-3.75
X6.4Y-3.85
X6.4Y-3.95
X6.4Y-4.05
X6.4Y-4.15
X6.4Y-4.25
X6.4Y-4.35
X6.55Y-4.9
X7.Y-4.9
X7.3Y-4.75
X7.3Y-5.65
X7.6Y-4.9
X8.05Y-4.9
X8.35Y-4.75
X8.35Y-5.65
X8.65Y-4.9
X9.05Y-3.05
X9.05Y-3.15
X9.05Y-3.25
X9.05Y-3.35
X9.05Y-3.45
X9.05Y-3.55
X9.05Y-3.65
X9.05Y-3.75
X9.05Y-3.85
X9.05Y-3.95
X9.05Y-4.05
X9.05Y-4.15
X9.05Y-4.25
X9.05Y-4.35
X9.35Y-3.05
X9.35Y-3.15
X9.35Y-3.25
X9.35Y-3.35
X9.35Y-3.45
X9.35Y-3.55
X9.35Y-3.65
X9.35Y-3.75
X9.35Y-3.85
X9.35Y-3.95
X9.35Y-4.05
X9.35Y-4.15
X9.35Y-4.25
X9.35Y-4.35
X12.05Y-4.9
X12.15Y-3.05
X12.15Y-3.15
X12.15Y-3.25
X12.15Y-3.35
X12.15Y-3.45
X12.15Y-3.55
X12.15Y-3.65
X12.15Y-3.75
X12.15Y-3.85
X12.15Y-3.95
X12.15Y-4.05
X12.15Y-4.15
X12.15Y-4.25
X12.15Y-4.35
X12.35Y-4.75
X12.35Y-5.65
X12.45Y-3.05
X12.45Y-3.15
X12.45Y-3.25
X12.45Y-3.35
X12.45Y-3.45
X12.45Y-3.55
X12.45Y-3.65
X12.45Y-3.75
X12.45Y-3.85
X12.45Y-3.95
X12.45Y-4.05
X12.45Y-4.15
X12.45Y-4.25
X12.45Y-4.35
X12.65Y-4.9
X12.85Y-4.9
X13.15Y-4.75
X13.15Y-5.65
X13.45Y-4.9
X13.65Y-4.9
X13.95Y-4.75
X13.95Y-5.65
X14.25Y-4.9
X15.35Y-3.05
X15.65Y-2.9
X15.65Y-3.8
X15.95Y-3.05
X16.Y-5.45
X16.15Y-3.05
X16.25Y-4.7
X16.45Y-2.9
X16.45Y-3.8
X16.65Y-4.7
X16.75Y-3.05
X16.95Y-3.05
X17.25Y-2.9
X17.25Y-3.8
X17.55Y-3.05
T2
X1.55Y-3.3
X1.55Y-3.8
X1.8Y-3.3
X1.8Y-3.8
X2.05Y-3.3
X2.05Y-3.8
X5.Y-5.3
X5.Y-5.5
X5.Y-5.7
X5.5Y-5.3
X5.5Y-5.5
X5.5Y-5.7
X14.7Y-4.75
X14.7Y-4.95
X14.7Y-5.15
X15.2Y-4.75
X15.2Y-4.95
X15.2Y-5.15
X15.65Y-2.2
X15.65Y-2.7
X16.45Y-2.2
X16.45Y-2.7
X17.25Y-2.2
X17.25Y-2.7
T4
X1.05Y-3.65
X1.05Y-3.75
X1.05Y-3.85
X1.05Y-3.95
X1.05Y-4.05
X1.05Y-4.15
X1.05Y-4.25
X1.05Y-4.35
T3
X1.1776Y-2.0807G85X1.1224Y-2.0807
G05
X1.1776Y-2.25G85X1.1224Y-2.25
G05
X1.1776Y-2.4193G85X1.1224Y-2.4193
G05
X1.5776Y-5.0307G85X1.5224Y-5.0307
G05
X1.5776Y-5.2G85X1.5224Y-5.2
G05
X1.5776Y-5.3693G85X1.5224Y-5.3693
G05
X1.9776Y-2.0807G85X1.9224Y-2.0807
G05
X1.9776Y-2.25G85X1.9224Y-2.25
G05
X1.9776Y-2.4193G85X1.9224Y-2.4193
G05
X2.3776Y-5.0307G85X2.3224Y-5.0307
G05
X2.3776Y-5.2G85X2.3224Y-5.2
G05
X2.3776Y-5.3693G85X2.3224Y-5.3693
G05
X2.7776Y-2.0807G85X2.7224Y-2.0807
G05
X2.7776Y-2.25G85X2.7224Y-2.25
G05
X2.7776Y-2.4193G85X2.7224Y-2.4193
G05
X3.1776Y-5.0307G85X3.1224Y-5.0307
G05
X3.1776Y-5.2G85X3.1224Y-5.2
G05
X3.1776Y-5.3693G85X3.1224Y-5.3693
G05
X3.5776Y-2.0807G85X3.5224Y-2.0807
G05
X3.5776Y-2.25G85X3.5224Y-2.25
G05
X3.5776Y-2.4193G85X3.5224Y-2.4193
G05
X3.9776Y-5.0307G85X3.9224Y-5.0307
G05
X3.9776Y-5.2G85X3.9224Y-5.2
G05
X3.9776Y-5.3693G85X3.9224Y-5.3693
G05
X4.3776Y-2.0807G85X4.3224Y-2.0807
G05
X4.3776Y-2.25G85X4.3224Y-2.25
G05
X4.3776Y-2.4193G85X4.3224Y-2.4193
G05
X5.1776Y-2.0807G85X5.1224Y-2.0807
G05
X5.1776Y-2.25G85X5.1224Y-2.25
G05
X5.1776Y-2.4193G85X5.1224Y-2.4193
G05
X5.9776Y-2.0807G85X5.9224Y-2.0807
G05
X5.9776Y-2.25G85X5.9224Y-2.25
G05
X5.9776Y-2.4193G85X5.9224Y-2.4193
G05
X6.7776Y-2.0807G85X6.7224Y-2.0807
G05
X6.7776Y-2.25G85X6.7224Y-2.25
G05
X6.7776Y-2.4193G85X6.7224Y-2.4193
G05
X7.5776Y-2.0807G85X7.5224Y-2.0807
G05
X7.5776Y-2.25G85X7.5224Y-2.25
G05
X7.5776Y-2.4193G85X7.5224Y-2.4193
G05
X8.3776Y-2.0807G85X8.3224Y-2.0807
G05
X8.3776Y-2.25G85X8.3224Y-2.25
G05
X8.3776Y-2.4193G85X8.3224Y-2.4193
G05
X9.1776Y-2.0807G85X9.1224Y-2.0807
G05
X9.1776Y-2.25G85X9.1224Y-2.25
G05
X9.1776Y-2.4193G85X9.1224Y-2.4193
G05
X9.5776Y-5.0307G85X9.5224Y-5.0307
G05
X9.5776Y-5.2G85X9.5224Y-5.2
G05
X9.5776Y-5.3693G85X9.5224Y-5.3693
G05
X9.9776Y-2.0807G85X9.9224Y-2.0807
G05
X9.9776Y-2.25G85X9.9224Y-2.25
G05
X9.9776Y-2.4193G85X9.9224Y-2.4193
G05
X10.3776Y-5.0307G85X10.3224Y-5.0307
G05
X10.3776Y-5.2G85X10.3224Y-5.2
G05
X10.3776Y-5.3693G85X10.3224Y-5.3693
G05
X10.7776Y-2.0807G85X10.7224Y-2.0807
G05
X10.7776Y-2.25G85X10.7224Y-2.25
G05
X10.7776Y-2.4193G85X10.7224Y-2.4193
G05
X11.1776Y-5.0307G85X11.1224Y-5.0307
G05
X11.1776Y-5.2G85X11.1224Y-5.2
G05
X11.1776Y-5.3693G85X11.1224Y-5.3693
G05
X11.5776Y-2.0807G85X11.5224Y-2.0807
G05
X11.5776Y-2.25G85X11.5224Y-2.25
G05
X11.5776Y-2.4193G85X11.5224Y-2.4193
G05
X12.3776Y-2.0807G85X12.3224Y-2.0807
G05
X12.3776Y-2.25G85X12.3224Y-2.25
G05
X12.3776Y-2.4193G85X12.3224Y-2.4193
G05
X13.1776Y-2.0807G85X13.1224Y-2.0807
G05
X13.1776Y-2.25G85X13.1224Y-2.25
G05
X13.1776Y-2.4193G85X13.1224Y-2.4193
G05
X13.9776Y-2.0807G85X13.9224Y-2.0807
G05
X13.9776Y-2.25G85X13.9224Y-2.25
G05
X13.9776Y-2.4193G85X13.9224Y-2.4193
G05
X14.7776Y-2.0807G85X14.7224Y-2.0807
G05
X14.7776Y-2.25G85X14.7224Y-2.25
G05
X14.7776Y-2.4193G85X14.7224Y-2.4193
G05
T0
M30
