G04 #@! TF.FileFunction,Legend,Bot*
%FSLAX46Y46*%
G04 Gerber Fmt 4.6, Leading zero omitted, Abs format (unit mm)*
G04 Created by KiCad (PCBNEW 4.0.5) date 04/16/17 00:06:54*
%MOMM*%
%LPD*%
G01*
G04 APERTURE LIST*
%ADD10C,0.100000*%
%ADD11C,0.300000*%
G04 APERTURE END LIST*
D10*
D11*
X253364285Y-88792857D02*
X252864285Y-88792857D01*
X252649999Y-89578571D02*
X253364285Y-89578571D01*
X253364285Y-88078571D01*
X252649999Y-88078571D01*
X251792856Y-89578571D02*
X251935714Y-89507143D01*
X252007142Y-89364286D01*
X252007142Y-88078571D01*
X251007142Y-89578571D02*
X251150000Y-89507143D01*
X251221428Y-89364286D01*
X251221428Y-88078571D01*
X250435714Y-89578571D02*
X250435714Y-88578571D01*
X250435714Y-88078571D02*
X250507143Y-88150000D01*
X250435714Y-88221429D01*
X250364286Y-88150000D01*
X250435714Y-88078571D01*
X250435714Y-88221429D01*
X249507142Y-89578571D02*
X249650000Y-89507143D01*
X249721428Y-89435714D01*
X249792857Y-89292857D01*
X249792857Y-88864286D01*
X249721428Y-88721429D01*
X249650000Y-88650000D01*
X249507142Y-88578571D01*
X249292857Y-88578571D01*
X249150000Y-88650000D01*
X249078571Y-88721429D01*
X249007142Y-88864286D01*
X249007142Y-89292857D01*
X249078571Y-89435714D01*
X249150000Y-89507143D01*
X249292857Y-89578571D01*
X249507142Y-89578571D01*
X248578571Y-88578571D02*
X248007142Y-88578571D01*
X248364285Y-88078571D02*
X248364285Y-89364286D01*
X248292857Y-89507143D01*
X248149999Y-89578571D01*
X248007142Y-89578571D01*
X247721428Y-88578571D02*
X247149999Y-88578571D01*
X247507142Y-88078571D02*
X247507142Y-89364286D01*
X247435714Y-89507143D01*
X247292856Y-89578571D01*
X247149999Y-89578571D01*
X245435714Y-89578571D02*
X245149999Y-89578571D01*
X245007142Y-89507143D01*
X244935714Y-89435714D01*
X244792856Y-89221429D01*
X244721428Y-88935714D01*
X244721428Y-88364286D01*
X244792856Y-88221429D01*
X244864285Y-88150000D01*
X245007142Y-88078571D01*
X245292856Y-88078571D01*
X245435714Y-88150000D01*
X245507142Y-88221429D01*
X245578571Y-88364286D01*
X245578571Y-88721429D01*
X245507142Y-88864286D01*
X245435714Y-88935714D01*
X245292856Y-89007143D01*
X245007142Y-89007143D01*
X244864285Y-88935714D01*
X244792856Y-88864286D01*
X244721428Y-88721429D01*
X243792857Y-88078571D02*
X243650000Y-88078571D01*
X243507143Y-88150000D01*
X243435714Y-88221429D01*
X243364285Y-88364286D01*
X243292857Y-88650000D01*
X243292857Y-89007143D01*
X243364285Y-89292857D01*
X243435714Y-89435714D01*
X243507143Y-89507143D01*
X243650000Y-89578571D01*
X243792857Y-89578571D01*
X243935714Y-89507143D01*
X244007143Y-89435714D01*
X244078571Y-89292857D01*
X244150000Y-89007143D01*
X244150000Y-88650000D01*
X244078571Y-88364286D01*
X244007143Y-88221429D01*
X243935714Y-88150000D01*
X243792857Y-88078571D01*
X242792857Y-88078571D02*
X241864286Y-88078571D01*
X242364286Y-88650000D01*
X242150000Y-88650000D01*
X242007143Y-88721429D01*
X241935714Y-88792857D01*
X241864286Y-88935714D01*
X241864286Y-89292857D01*
X241935714Y-89435714D01*
X242007143Y-89507143D01*
X242150000Y-89578571D01*
X242578572Y-89578571D01*
X242721429Y-89507143D01*
X242792857Y-89435714D01*
M02*
