G04 #@! TF.FileFunction,Legend,Top*
%FSLAX46Y46*%
G04 Gerber Fmt 4.6, Leading zero omitted, Abs format (unit mm)*
G04 Created by KiCad (PCBNEW 4.0.5) date 04/16/17 00:06:54*
%MOMM*%
%LPD*%
G01*
G04 APERTURE LIST*
%ADD10C,0.100000*%
%ADD11C,0.200000*%
%ADD12C,0.300000*%
%ADD13C,0.120000*%
%ADD14C,0.150000*%
%ADD15C,0.152400*%
G04 APERTURE END LIST*
D10*
D11*
X254000000Y-73660000D02*
X378460000Y-73660000D01*
X127000000Y-73660000D02*
X251460000Y-73660000D01*
X81280000Y-73660000D02*
X114300000Y-73660000D01*
D12*
X29391429Y-73478571D02*
X29754286Y-73599524D01*
X29875238Y-73720476D01*
X29996190Y-73962381D01*
X29996190Y-74325238D01*
X29875238Y-74567143D01*
X29754286Y-74688095D01*
X29512381Y-74809048D01*
X28544762Y-74809048D01*
X28544762Y-72269048D01*
X29391429Y-72269048D01*
X29633333Y-72390000D01*
X29754286Y-72510952D01*
X29875238Y-72752857D01*
X29875238Y-72994762D01*
X29754286Y-73236667D01*
X29633333Y-73357619D01*
X29391429Y-73478571D01*
X28544762Y-73478571D01*
X252004286Y-73539048D02*
X252004286Y-70999048D01*
X253455714Y-73539048D01*
X253455714Y-70999048D01*
D11*
X378460000Y-73660000D02*
X378460000Y-69850000D01*
X127000000Y-69850000D02*
X127000000Y-73660000D01*
D12*
X80372858Y-73478571D02*
X79526191Y-73478571D01*
X79526191Y-74809048D02*
X79526191Y-72269048D01*
X80735715Y-72269048D01*
D11*
X114300000Y-73660000D02*
X114300000Y-69850000D01*
X45720000Y-73660000D02*
X78740000Y-73660000D01*
X45720000Y-69850000D02*
X45720000Y-73660000D01*
D13*
X92830000Y-98790000D02*
G75*
G02X92830000Y-96790000I0J1000000D01*
G01*
X92830000Y-96790000D02*
X92830000Y-95020000D01*
X92830000Y-95020000D02*
X69730000Y-95020000D01*
X69730000Y-95020000D02*
X69730000Y-100560000D01*
X69730000Y-100560000D02*
X92830000Y-100560000D01*
X92830000Y-100560000D02*
X92830000Y-98790000D01*
X92830000Y-92590000D02*
X69730000Y-92590000D01*
X69730000Y-92590000D02*
X69730000Y-102990000D01*
X69730000Y-102990000D02*
X92830000Y-102990000D01*
X92830000Y-102990000D02*
X92830000Y-92590000D01*
D14*
X89910000Y-132080000D02*
G75*
G03X89910000Y-132080000I-9900000J0D01*
G01*
X76110000Y-125580000D02*
X83910000Y-125580000D01*
X83910000Y-125580000D02*
X83910000Y-138580000D01*
X83910000Y-138580000D02*
X76110000Y-138580000D01*
X76110000Y-138580000D02*
X76110000Y-125580000D01*
X69590000Y-132080000D02*
G75*
G03X69590000Y-132080000I-9900000J0D01*
G01*
X55790000Y-125580000D02*
X63590000Y-125580000D01*
X63590000Y-125580000D02*
X63590000Y-138580000D01*
X63590000Y-138580000D02*
X55790000Y-138580000D01*
X55790000Y-138580000D02*
X55790000Y-125580000D01*
D13*
X23650000Y-111860000D02*
X29650000Y-111860000D01*
X29650000Y-111860000D02*
X29650000Y-91340000D01*
X29650000Y-91340000D02*
X23650000Y-91340000D01*
X23650000Y-91340000D02*
X23650000Y-111860000D01*
X29650000Y-110490000D02*
X28650000Y-110490000D01*
X28650000Y-110490000D02*
X28650000Y-105410000D01*
X28650000Y-105410000D02*
X29650000Y-105410000D01*
X28650000Y-110490000D02*
X28220000Y-110240000D01*
X28220000Y-110240000D02*
X28220000Y-105410000D01*
X28220000Y-105410000D02*
X28650000Y-105410000D01*
X29650000Y-110240000D02*
X28650000Y-110240000D01*
X29650000Y-92710000D02*
X28650000Y-92710000D01*
X28650000Y-92710000D02*
X28650000Y-97790000D01*
X28650000Y-97790000D02*
X29650000Y-97790000D01*
X28650000Y-92710000D02*
X28220000Y-92960000D01*
X28220000Y-92960000D02*
X28220000Y-97790000D01*
X28220000Y-97790000D02*
X28650000Y-97790000D01*
X29650000Y-92960000D02*
X28650000Y-92960000D01*
X23650000Y-111290000D02*
X24270000Y-111290000D01*
X24270000Y-111290000D02*
X24270000Y-109690000D01*
X24270000Y-109690000D02*
X23650000Y-109690000D01*
X23650000Y-108750000D02*
X24270000Y-108750000D01*
X24270000Y-108750000D02*
X24270000Y-107150000D01*
X24270000Y-107150000D02*
X23650000Y-107150000D01*
X23650000Y-106210000D02*
X24270000Y-106210000D01*
X24270000Y-106210000D02*
X24270000Y-104610000D01*
X24270000Y-104610000D02*
X23650000Y-104610000D01*
X23650000Y-103670000D02*
X24270000Y-103670000D01*
X24270000Y-103670000D02*
X24270000Y-102070000D01*
X24270000Y-102070000D02*
X23650000Y-102070000D01*
X23650000Y-101130000D02*
X24270000Y-101130000D01*
X24270000Y-101130000D02*
X24270000Y-99530000D01*
X24270000Y-99530000D02*
X23650000Y-99530000D01*
X23650000Y-98590000D02*
X24270000Y-98590000D01*
X24270000Y-98590000D02*
X24270000Y-96990000D01*
X24270000Y-96990000D02*
X23650000Y-96990000D01*
X23650000Y-96050000D02*
X24270000Y-96050000D01*
X24270000Y-96050000D02*
X24270000Y-94450000D01*
X24270000Y-94450000D02*
X23650000Y-94450000D01*
X23650000Y-93510000D02*
X24270000Y-93510000D01*
X24270000Y-93510000D02*
X24270000Y-91910000D01*
X24270000Y-91910000D02*
X23650000Y-91910000D01*
X313420000Y-76080000D02*
G75*
G02X311420000Y-76080000I-1000000J0D01*
G01*
X311420000Y-76080000D02*
X309650000Y-76080000D01*
X309650000Y-76080000D02*
X309650000Y-111880000D01*
X309650000Y-111880000D02*
X315190000Y-111880000D01*
X315190000Y-111880000D02*
X315190000Y-76080000D01*
X315190000Y-76080000D02*
X313420000Y-76080000D01*
X307220000Y-76080000D02*
X307220000Y-111880000D01*
X307220000Y-111880000D02*
X317620000Y-111880000D01*
X317620000Y-111880000D02*
X317620000Y-76080000D01*
X317620000Y-76080000D02*
X307220000Y-76080000D01*
X159750000Y-76080000D02*
G75*
G02X157750000Y-76080000I-1000000J0D01*
G01*
X157750000Y-76080000D02*
X155980000Y-76080000D01*
X155980000Y-76080000D02*
X155980000Y-111880000D01*
X155980000Y-111880000D02*
X161520000Y-111880000D01*
X161520000Y-111880000D02*
X161520000Y-76080000D01*
X161520000Y-76080000D02*
X159750000Y-76080000D01*
X153550000Y-76080000D02*
X153550000Y-111880000D01*
X153550000Y-111880000D02*
X163950000Y-111880000D01*
X163950000Y-111880000D02*
X163950000Y-76080000D01*
X163950000Y-76080000D02*
X153550000Y-76080000D01*
X234680000Y-76080000D02*
G75*
G02X232680000Y-76080000I-1000000J0D01*
G01*
X232680000Y-76080000D02*
X230910000Y-76080000D01*
X230910000Y-76080000D02*
X230910000Y-111880000D01*
X230910000Y-111880000D02*
X236450000Y-111880000D01*
X236450000Y-111880000D02*
X236450000Y-76080000D01*
X236450000Y-76080000D02*
X234680000Y-76080000D01*
X228480000Y-76080000D02*
X228480000Y-111880000D01*
X228480000Y-111880000D02*
X238880000Y-111880000D01*
X238880000Y-111880000D02*
X238880000Y-76080000D01*
X238880000Y-76080000D02*
X228480000Y-76080000D01*
D14*
X140710000Y-57150000D02*
G75*
G03X140710000Y-57150000I-9900000J0D01*
G01*
X126910000Y-50650000D02*
X134710000Y-50650000D01*
X134710000Y-50650000D02*
X134710000Y-63650000D01*
X134710000Y-63650000D02*
X126910000Y-63650000D01*
X126910000Y-63650000D02*
X126910000Y-50650000D01*
X161030000Y-57150000D02*
G75*
G03X161030000Y-57150000I-9900000J0D01*
G01*
X147230000Y-50650000D02*
X155030000Y-50650000D01*
X155030000Y-50650000D02*
X155030000Y-63650000D01*
X155030000Y-63650000D02*
X147230000Y-63650000D01*
X147230000Y-63650000D02*
X147230000Y-50650000D01*
X384550000Y-57150000D02*
G75*
G03X384550000Y-57150000I-9900000J0D01*
G01*
X370750000Y-50650000D02*
X378550000Y-50650000D01*
X378550000Y-50650000D02*
X378550000Y-63650000D01*
X378550000Y-63650000D02*
X370750000Y-63650000D01*
X370750000Y-63650000D02*
X370750000Y-50650000D01*
X364230000Y-57150000D02*
G75*
G03X364230000Y-57150000I-9900000J0D01*
G01*
X350430000Y-50650000D02*
X358230000Y-50650000D01*
X358230000Y-50650000D02*
X358230000Y-63650000D01*
X358230000Y-63650000D02*
X350430000Y-63650000D01*
X350430000Y-63650000D02*
X350430000Y-50650000D01*
X343910000Y-57150000D02*
G75*
G03X343910000Y-57150000I-9900000J0D01*
G01*
X330110000Y-50650000D02*
X337910000Y-50650000D01*
X337910000Y-50650000D02*
X337910000Y-63650000D01*
X337910000Y-63650000D02*
X330110000Y-63650000D01*
X330110000Y-63650000D02*
X330110000Y-50650000D01*
X323590000Y-57150000D02*
G75*
G03X323590000Y-57150000I-9900000J0D01*
G01*
X309790000Y-50650000D02*
X317590000Y-50650000D01*
X317590000Y-50650000D02*
X317590000Y-63650000D01*
X317590000Y-63650000D02*
X309790000Y-63650000D01*
X309790000Y-63650000D02*
X309790000Y-50650000D01*
X303270000Y-57150000D02*
G75*
G03X303270000Y-57150000I-9900000J0D01*
G01*
X289470000Y-50650000D02*
X297270000Y-50650000D01*
X297270000Y-50650000D02*
X297270000Y-63650000D01*
X297270000Y-63650000D02*
X289470000Y-63650000D01*
X289470000Y-63650000D02*
X289470000Y-50650000D01*
X282950000Y-57150000D02*
G75*
G03X282950000Y-57150000I-9900000J0D01*
G01*
X269150000Y-50650000D02*
X276950000Y-50650000D01*
X276950000Y-50650000D02*
X276950000Y-63650000D01*
X276950000Y-63650000D02*
X269150000Y-63650000D01*
X269150000Y-63650000D02*
X269150000Y-50650000D01*
X262630000Y-57150000D02*
G75*
G03X262630000Y-57150000I-9900000J0D01*
G01*
X248830000Y-50650000D02*
X256630000Y-50650000D01*
X256630000Y-50650000D02*
X256630000Y-63650000D01*
X256630000Y-63650000D02*
X248830000Y-63650000D01*
X248830000Y-63650000D02*
X248830000Y-50650000D01*
X242310000Y-57150000D02*
G75*
G03X242310000Y-57150000I-9900000J0D01*
G01*
X228510000Y-50650000D02*
X236310000Y-50650000D01*
X236310000Y-50650000D02*
X236310000Y-63650000D01*
X236310000Y-63650000D02*
X228510000Y-63650000D01*
X228510000Y-63650000D02*
X228510000Y-50650000D01*
X221990000Y-57150000D02*
G75*
G03X221990000Y-57150000I-9900000J0D01*
G01*
X208190000Y-50650000D02*
X215990000Y-50650000D01*
X215990000Y-50650000D02*
X215990000Y-63650000D01*
X215990000Y-63650000D02*
X208190000Y-63650000D01*
X208190000Y-63650000D02*
X208190000Y-50650000D01*
X201670000Y-57150000D02*
G75*
G03X201670000Y-57150000I-9900000J0D01*
G01*
X187870000Y-50650000D02*
X195670000Y-50650000D01*
X195670000Y-50650000D02*
X195670000Y-63650000D01*
X195670000Y-63650000D02*
X187870000Y-63650000D01*
X187870000Y-63650000D02*
X187870000Y-50650000D01*
X181350000Y-57150000D02*
G75*
G03X181350000Y-57150000I-9900000J0D01*
G01*
X167550000Y-50650000D02*
X175350000Y-50650000D01*
X175350000Y-50650000D02*
X175350000Y-63650000D01*
X175350000Y-63650000D02*
X167550000Y-63650000D01*
X167550000Y-63650000D02*
X167550000Y-50650000D01*
X120390000Y-57150000D02*
G75*
G03X120390000Y-57150000I-9900000J0D01*
G01*
X106590000Y-50650000D02*
X114390000Y-50650000D01*
X114390000Y-50650000D02*
X114390000Y-63650000D01*
X114390000Y-63650000D02*
X106590000Y-63650000D01*
X106590000Y-63650000D02*
X106590000Y-50650000D01*
X100070000Y-57150000D02*
G75*
G03X100070000Y-57150000I-9900000J0D01*
G01*
X86270000Y-50650000D02*
X94070000Y-50650000D01*
X94070000Y-50650000D02*
X94070000Y-63650000D01*
X94070000Y-63650000D02*
X86270000Y-63650000D01*
X86270000Y-63650000D02*
X86270000Y-50650000D01*
X79750000Y-57150000D02*
G75*
G03X79750000Y-57150000I-9900000J0D01*
G01*
X65950000Y-50650000D02*
X73750000Y-50650000D01*
X73750000Y-50650000D02*
X73750000Y-63650000D01*
X73750000Y-63650000D02*
X65950000Y-63650000D01*
X65950000Y-63650000D02*
X65950000Y-50650000D01*
X59430000Y-57150000D02*
G75*
G03X59430000Y-57150000I-9900000J0D01*
G01*
X45630000Y-50650000D02*
X53430000Y-50650000D01*
X53430000Y-50650000D02*
X53430000Y-63650000D01*
X53430000Y-63650000D02*
X45630000Y-63650000D01*
X45630000Y-63650000D02*
X45630000Y-50650000D01*
X39110000Y-57150000D02*
G75*
G03X39110000Y-57150000I-9900000J0D01*
G01*
X25310000Y-50650000D02*
X33110000Y-50650000D01*
X33110000Y-50650000D02*
X33110000Y-63650000D01*
X33110000Y-63650000D02*
X25310000Y-63650000D01*
X25310000Y-63650000D02*
X25310000Y-50650000D01*
X49270000Y-132080000D02*
G75*
G03X49270000Y-132080000I-9900000J0D01*
G01*
X35470000Y-125580000D02*
X43270000Y-125580000D01*
X43270000Y-125580000D02*
X43270000Y-138580000D01*
X43270000Y-138580000D02*
X35470000Y-138580000D01*
X35470000Y-138580000D02*
X35470000Y-125580000D01*
X110230000Y-132080000D02*
G75*
G03X110230000Y-132080000I-9900000J0D01*
G01*
X96430000Y-125580000D02*
X104230000Y-125580000D01*
X104230000Y-125580000D02*
X104230000Y-138580000D01*
X104230000Y-138580000D02*
X96430000Y-138580000D01*
X96430000Y-138580000D02*
X96430000Y-125580000D01*
X252470000Y-132080000D02*
G75*
G03X252470000Y-132080000I-9900000J0D01*
G01*
X238670000Y-125580000D02*
X246470000Y-125580000D01*
X246470000Y-125580000D02*
X246470000Y-138580000D01*
X246470000Y-138580000D02*
X238670000Y-138580000D01*
X238670000Y-138580000D02*
X238670000Y-125580000D01*
X272790000Y-132080000D02*
G75*
G03X272790000Y-132080000I-9900000J0D01*
G01*
X258990000Y-125580000D02*
X266790000Y-125580000D01*
X266790000Y-125580000D02*
X266790000Y-138580000D01*
X266790000Y-138580000D02*
X258990000Y-138580000D01*
X258990000Y-138580000D02*
X258990000Y-125580000D01*
X293110000Y-132080000D02*
G75*
G03X293110000Y-132080000I-9900000J0D01*
G01*
X279310000Y-125580000D02*
X287110000Y-125580000D01*
X287110000Y-125580000D02*
X287110000Y-138580000D01*
X287110000Y-138580000D02*
X279310000Y-138580000D01*
X279310000Y-138580000D02*
X279310000Y-125580000D01*
X429150000Y-76090000D02*
X447150000Y-76090000D01*
X447150000Y-76090000D02*
X447150000Y-94090000D01*
X447150000Y-94090000D02*
X429150000Y-94090000D01*
X429150000Y-94090000D02*
X429150000Y-76090000D01*
X408830000Y-76090000D02*
X426830000Y-76090000D01*
X426830000Y-76090000D02*
X426830000Y-94090000D01*
X426830000Y-94090000D02*
X408830000Y-94090000D01*
X408830000Y-94090000D02*
X408830000Y-76090000D01*
X388510000Y-76090000D02*
X406510000Y-76090000D01*
X406510000Y-76090000D02*
X406510000Y-94090000D01*
X406510000Y-94090000D02*
X388510000Y-94090000D01*
X388510000Y-94090000D02*
X388510000Y-76090000D01*
X146750000Y-123080000D02*
X170750000Y-123080000D01*
X170750000Y-123080000D02*
X170750000Y-141080000D01*
X170750000Y-141080000D02*
X146750000Y-141080000D01*
X146750000Y-141080000D02*
X146750000Y-123080000D01*
X173420000Y-123080000D02*
X197420000Y-123080000D01*
X197420000Y-123080000D02*
X197420000Y-141080000D01*
X197420000Y-141080000D02*
X173420000Y-141080000D01*
X173420000Y-141080000D02*
X173420000Y-123080000D01*
X200090000Y-123080000D02*
X224090000Y-123080000D01*
X224090000Y-123080000D02*
X224090000Y-141080000D01*
X224090000Y-141080000D02*
X200090000Y-141080000D01*
X200090000Y-141080000D02*
X200090000Y-123080000D01*
X345330000Y-123080000D02*
X363330000Y-123080000D01*
X363330000Y-123080000D02*
X363330000Y-141080000D01*
X363330000Y-141080000D02*
X345330000Y-141080000D01*
X345330000Y-141080000D02*
X345330000Y-123080000D01*
X325010000Y-123080000D02*
X343010000Y-123080000D01*
X343010000Y-123080000D02*
X343010000Y-141080000D01*
X343010000Y-141080000D02*
X325010000Y-141080000D01*
X325010000Y-141080000D02*
X325010000Y-123080000D01*
X304690000Y-123080000D02*
X322690000Y-123080000D01*
X322690000Y-123080000D02*
X322690000Y-141080000D01*
X322690000Y-141080000D02*
X304690000Y-141080000D01*
X304690000Y-141080000D02*
X304690000Y-123080000D01*
X397510000Y-68580000D02*
X397510000Y-67564000D01*
X397510000Y-55880000D02*
X397510000Y-56896000D01*
X396240000Y-56896000D02*
X398780000Y-56896000D01*
X398780000Y-56896000D02*
X398780000Y-67564000D01*
X398780000Y-67564000D02*
X396240000Y-67564000D01*
X396240000Y-67564000D02*
X396240000Y-56896000D01*
X396748000Y-67564000D02*
X396240000Y-67056000D01*
X417830000Y-55880000D02*
X417830000Y-56896000D01*
X417830000Y-68580000D02*
X417830000Y-67564000D01*
X419100000Y-67564000D02*
X416560000Y-67564000D01*
X416560000Y-67564000D02*
X416560000Y-56896000D01*
X416560000Y-56896000D02*
X419100000Y-56896000D01*
X419100000Y-56896000D02*
X419100000Y-67564000D01*
X418592000Y-56896000D02*
X419100000Y-57404000D01*
X438150000Y-55880000D02*
X438150000Y-56896000D01*
X438150000Y-68580000D02*
X438150000Y-67564000D01*
X439420000Y-67564000D02*
X436880000Y-67564000D01*
X436880000Y-67564000D02*
X436880000Y-56896000D01*
X436880000Y-56896000D02*
X439420000Y-56896000D01*
X439420000Y-56896000D02*
X439420000Y-67564000D01*
X438912000Y-56896000D02*
X439420000Y-57404000D01*
X386080000Y-120650000D02*
X385064000Y-120650000D01*
X373380000Y-120650000D02*
X374396000Y-120650000D01*
X374396000Y-121920000D02*
X374396000Y-119380000D01*
X374396000Y-119380000D02*
X385064000Y-119380000D01*
X385064000Y-119380000D02*
X385064000Y-121920000D01*
X385064000Y-121920000D02*
X374396000Y-121920000D01*
X385064000Y-121412000D02*
X384556000Y-121920000D01*
X386080000Y-125730000D02*
X385064000Y-125730000D01*
X373380000Y-125730000D02*
X374396000Y-125730000D01*
X374396000Y-127000000D02*
X374396000Y-124460000D01*
X374396000Y-124460000D02*
X385064000Y-124460000D01*
X385064000Y-124460000D02*
X385064000Y-127000000D01*
X385064000Y-127000000D02*
X374396000Y-127000000D01*
X385064000Y-126492000D02*
X384556000Y-127000000D01*
X386080000Y-130810000D02*
X385064000Y-130810000D01*
X373380000Y-130810000D02*
X374396000Y-130810000D01*
X374396000Y-132080000D02*
X374396000Y-129540000D01*
X374396000Y-129540000D02*
X385064000Y-129540000D01*
X385064000Y-129540000D02*
X385064000Y-132080000D01*
X385064000Y-132080000D02*
X374396000Y-132080000D01*
X385064000Y-131572000D02*
X384556000Y-132080000D01*
X52070000Y-83820000D02*
X52070000Y-84836000D01*
X52070000Y-96520000D02*
X52070000Y-95504000D01*
X53340000Y-95504000D02*
X50800000Y-95504000D01*
X50800000Y-95504000D02*
X50800000Y-84836000D01*
X50800000Y-84836000D02*
X53340000Y-84836000D01*
X53340000Y-84836000D02*
X53340000Y-95504000D01*
X52832000Y-84836000D02*
X53340000Y-85344000D01*
X45720000Y-83820000D02*
X45720000Y-84836000D01*
X45720000Y-96520000D02*
X45720000Y-95504000D01*
X46990000Y-95504000D02*
X44450000Y-95504000D01*
X44450000Y-95504000D02*
X44450000Y-84836000D01*
X44450000Y-84836000D02*
X46990000Y-84836000D01*
X46990000Y-84836000D02*
X46990000Y-95504000D01*
X46482000Y-84836000D02*
X46990000Y-85344000D01*
X39370000Y-83820000D02*
X39370000Y-84836000D01*
X39370000Y-96520000D02*
X39370000Y-95504000D01*
X40640000Y-95504000D02*
X38100000Y-95504000D01*
X38100000Y-95504000D02*
X38100000Y-84836000D01*
X38100000Y-84836000D02*
X40640000Y-84836000D01*
X40640000Y-84836000D02*
X40640000Y-95504000D01*
X40132000Y-84836000D02*
X40640000Y-85344000D01*
X139700000Y-134620000D02*
X138684000Y-134620000D01*
X127000000Y-134620000D02*
X128016000Y-134620000D01*
X128016000Y-135890000D02*
X128016000Y-133350000D01*
X128016000Y-133350000D02*
X138684000Y-133350000D01*
X138684000Y-133350000D02*
X138684000Y-135890000D01*
X138684000Y-135890000D02*
X128016000Y-135890000D01*
X138684000Y-135382000D02*
X138176000Y-135890000D01*
X139700000Y-139700000D02*
X138684000Y-139700000D01*
X127000000Y-139700000D02*
X128016000Y-139700000D01*
X128016000Y-140970000D02*
X128016000Y-138430000D01*
X128016000Y-138430000D02*
X138684000Y-138430000D01*
X138684000Y-138430000D02*
X138684000Y-140970000D01*
X138684000Y-140970000D02*
X128016000Y-140970000D01*
X138684000Y-140462000D02*
X138176000Y-140970000D01*
X139700000Y-144780000D02*
X138684000Y-144780000D01*
X127000000Y-144780000D02*
X128016000Y-144780000D01*
X128016000Y-146050000D02*
X128016000Y-143510000D01*
X128016000Y-143510000D02*
X138684000Y-143510000D01*
X138684000Y-143510000D02*
X138684000Y-146050000D01*
X138684000Y-146050000D02*
X128016000Y-146050000D01*
X138684000Y-145542000D02*
X138176000Y-146050000D01*
D15*
X95358857Y-94415429D02*
X95358857Y-95649143D01*
X95431429Y-95794286D01*
X95504000Y-95866857D01*
X95649143Y-95939429D01*
X95939429Y-95939429D01*
X96084571Y-95866857D01*
X96157143Y-95794286D01*
X96229714Y-95649143D01*
X96229714Y-94415429D01*
X97608571Y-94923429D02*
X97608571Y-95939429D01*
X97245714Y-94342857D02*
X96882857Y-95431429D01*
X97826285Y-95431429D01*
D14*
X85494762Y-133889524D02*
X85542381Y-133746667D01*
X85542381Y-133508571D01*
X85494762Y-133413333D01*
X85447143Y-133365714D01*
X85351905Y-133318095D01*
X85256667Y-133318095D01*
X85161429Y-133365714D01*
X85113810Y-133413333D01*
X85066190Y-133508571D01*
X85018571Y-133699048D01*
X84970952Y-133794286D01*
X84923333Y-133841905D01*
X84828095Y-133889524D01*
X84732857Y-133889524D01*
X84637619Y-133841905D01*
X84590000Y-133794286D01*
X84542381Y-133699048D01*
X84542381Y-133460952D01*
X84590000Y-133318095D01*
X84542381Y-132984762D02*
X85542381Y-132746667D01*
X84828095Y-132556190D01*
X85542381Y-132365714D01*
X84542381Y-132127619D01*
X85542381Y-131222857D02*
X85542381Y-131794286D01*
X85542381Y-131508572D02*
X84542381Y-131508572D01*
X84685238Y-131603810D01*
X84780476Y-131699048D01*
X84828095Y-131794286D01*
X84542381Y-130318095D02*
X84542381Y-130794286D01*
X85018571Y-130841905D01*
X84970952Y-130794286D01*
X84923333Y-130699048D01*
X84923333Y-130460952D01*
X84970952Y-130365714D01*
X85018571Y-130318095D01*
X85113810Y-130270476D01*
X85351905Y-130270476D01*
X85447143Y-130318095D01*
X85494762Y-130365714D01*
X85542381Y-130460952D01*
X85542381Y-130699048D01*
X85494762Y-130794286D01*
X85447143Y-130841905D01*
X65174762Y-133889524D02*
X65222381Y-133746667D01*
X65222381Y-133508571D01*
X65174762Y-133413333D01*
X65127143Y-133365714D01*
X65031905Y-133318095D01*
X64936667Y-133318095D01*
X64841429Y-133365714D01*
X64793810Y-133413333D01*
X64746190Y-133508571D01*
X64698571Y-133699048D01*
X64650952Y-133794286D01*
X64603333Y-133841905D01*
X64508095Y-133889524D01*
X64412857Y-133889524D01*
X64317619Y-133841905D01*
X64270000Y-133794286D01*
X64222381Y-133699048D01*
X64222381Y-133460952D01*
X64270000Y-133318095D01*
X64222381Y-132984762D02*
X65222381Y-132746667D01*
X64508095Y-132556190D01*
X65222381Y-132365714D01*
X64222381Y-132127619D01*
X65222381Y-131222857D02*
X65222381Y-131794286D01*
X65222381Y-131508572D02*
X64222381Y-131508572D01*
X64365238Y-131603810D01*
X64460476Y-131699048D01*
X64508095Y-131794286D01*
X64222381Y-130365714D02*
X64222381Y-130556191D01*
X64270000Y-130651429D01*
X64317619Y-130699048D01*
X64460476Y-130794286D01*
X64650952Y-130841905D01*
X65031905Y-130841905D01*
X65127143Y-130794286D01*
X65174762Y-130746667D01*
X65222381Y-130651429D01*
X65222381Y-130460952D01*
X65174762Y-130365714D01*
X65127143Y-130318095D01*
X65031905Y-130270476D01*
X64793810Y-130270476D01*
X64698571Y-130318095D01*
X64650952Y-130365714D01*
X64603333Y-130460952D01*
X64603333Y-130651429D01*
X64650952Y-130746667D01*
X64698571Y-130794286D01*
X64793810Y-130841905D01*
D15*
X22859429Y-110614857D02*
X21335429Y-110614857D01*
X21335429Y-110034285D01*
X21408000Y-109889143D01*
X21480571Y-109816571D01*
X21625714Y-109744000D01*
X21843429Y-109744000D01*
X21988571Y-109816571D01*
X22061143Y-109889143D01*
X22133714Y-110034285D01*
X22133714Y-110614857D01*
X22859429Y-108292571D02*
X22859429Y-109163428D01*
X22859429Y-108728000D02*
X21335429Y-108728000D01*
X21553143Y-108873143D01*
X21698286Y-109018285D01*
X21770857Y-109163428D01*
X311258857Y-113465429D02*
X311258857Y-114699143D01*
X311331429Y-114844286D01*
X311404000Y-114916857D01*
X311549143Y-114989429D01*
X311839429Y-114989429D01*
X311984571Y-114916857D01*
X312057143Y-114844286D01*
X312129714Y-114699143D01*
X312129714Y-113465429D01*
X313653714Y-114989429D02*
X312782857Y-114989429D01*
X313218285Y-114989429D02*
X313218285Y-113465429D01*
X313073142Y-113683143D01*
X312928000Y-113828286D01*
X312782857Y-113900857D01*
X157588857Y-113465429D02*
X157588857Y-114699143D01*
X157661429Y-114844286D01*
X157734000Y-114916857D01*
X157879143Y-114989429D01*
X158169429Y-114989429D01*
X158314571Y-114916857D01*
X158387143Y-114844286D01*
X158459714Y-114699143D01*
X158459714Y-113465429D01*
X159112857Y-113610571D02*
X159185428Y-113538000D01*
X159330571Y-113465429D01*
X159693428Y-113465429D01*
X159838571Y-113538000D01*
X159911142Y-113610571D01*
X159983714Y-113755714D01*
X159983714Y-113900857D01*
X159911142Y-114118571D01*
X159040285Y-114989429D01*
X159983714Y-114989429D01*
X232518857Y-113465429D02*
X232518857Y-114699143D01*
X232591429Y-114844286D01*
X232664000Y-114916857D01*
X232809143Y-114989429D01*
X233099429Y-114989429D01*
X233244571Y-114916857D01*
X233317143Y-114844286D01*
X233389714Y-114699143D01*
X233389714Y-113465429D01*
X233970285Y-113465429D02*
X234913714Y-113465429D01*
X234405714Y-114046000D01*
X234623428Y-114046000D01*
X234768571Y-114118571D01*
X234841142Y-114191143D01*
X234913714Y-114336286D01*
X234913714Y-114699143D01*
X234841142Y-114844286D01*
X234768571Y-114916857D01*
X234623428Y-114989429D01*
X234188000Y-114989429D01*
X234042857Y-114916857D01*
X233970285Y-114844286D01*
X135055429Y-60016572D02*
X136579429Y-59653715D01*
X135490857Y-59363429D01*
X136579429Y-59073143D01*
X135055429Y-58710286D01*
X135128000Y-57331429D02*
X135055429Y-57476572D01*
X135055429Y-57694286D01*
X135128000Y-57912001D01*
X135273143Y-58057143D01*
X135418286Y-58129715D01*
X135708571Y-58202286D01*
X135926286Y-58202286D01*
X136216571Y-58129715D01*
X136361714Y-58057143D01*
X136506857Y-57912001D01*
X136579429Y-57694286D01*
X136579429Y-57549143D01*
X136506857Y-57331429D01*
X136434286Y-57258858D01*
X135926286Y-57258858D01*
X135926286Y-57549143D01*
X136579429Y-55807429D02*
X136579429Y-56678286D01*
X136579429Y-56242858D02*
X135055429Y-56242858D01*
X135273143Y-56388001D01*
X135418286Y-56533143D01*
X135490857Y-56678286D01*
X135055429Y-55299429D02*
X135055429Y-54356000D01*
X135636000Y-54864000D01*
X135636000Y-54646286D01*
X135708571Y-54501143D01*
X135781143Y-54428572D01*
X135926286Y-54356000D01*
X136289143Y-54356000D01*
X136434286Y-54428572D01*
X136506857Y-54501143D01*
X136579429Y-54646286D01*
X136579429Y-55081714D01*
X136506857Y-55226857D01*
X136434286Y-55299429D01*
X155375429Y-60016572D02*
X156899429Y-59653715D01*
X155810857Y-59363429D01*
X156899429Y-59073143D01*
X155375429Y-58710286D01*
X155448000Y-57331429D02*
X155375429Y-57476572D01*
X155375429Y-57694286D01*
X155448000Y-57912001D01*
X155593143Y-58057143D01*
X155738286Y-58129715D01*
X156028571Y-58202286D01*
X156246286Y-58202286D01*
X156536571Y-58129715D01*
X156681714Y-58057143D01*
X156826857Y-57912001D01*
X156899429Y-57694286D01*
X156899429Y-57549143D01*
X156826857Y-57331429D01*
X156754286Y-57258858D01*
X156246286Y-57258858D01*
X156246286Y-57549143D01*
X156899429Y-55807429D02*
X156899429Y-56678286D01*
X156899429Y-56242858D02*
X155375429Y-56242858D01*
X155593143Y-56388001D01*
X155738286Y-56533143D01*
X155810857Y-56678286D01*
X155520571Y-55226857D02*
X155448000Y-55154286D01*
X155375429Y-55009143D01*
X155375429Y-54646286D01*
X155448000Y-54501143D01*
X155520571Y-54428572D01*
X155665714Y-54356000D01*
X155810857Y-54356000D01*
X156028571Y-54428572D01*
X156899429Y-55299429D01*
X156899429Y-54356000D01*
X378895429Y-59290857D02*
X380419429Y-58928000D01*
X379330857Y-58637714D01*
X380419429Y-58347428D01*
X378895429Y-57984571D01*
X378968000Y-56605714D02*
X378895429Y-56750857D01*
X378895429Y-56968571D01*
X378968000Y-57186286D01*
X379113143Y-57331428D01*
X379258286Y-57404000D01*
X379548571Y-57476571D01*
X379766286Y-57476571D01*
X380056571Y-57404000D01*
X380201714Y-57331428D01*
X380346857Y-57186286D01*
X380419429Y-56968571D01*
X380419429Y-56823428D01*
X380346857Y-56605714D01*
X380274286Y-56533143D01*
X379766286Y-56533143D01*
X379766286Y-56823428D01*
X380419429Y-55081714D02*
X380419429Y-55952571D01*
X380419429Y-55517143D02*
X378895429Y-55517143D01*
X379113143Y-55662286D01*
X379258286Y-55807428D01*
X379330857Y-55952571D01*
X358575429Y-59290857D02*
X360099429Y-58928000D01*
X359010857Y-58637714D01*
X360099429Y-58347428D01*
X358575429Y-57984571D01*
X358648000Y-56605714D02*
X358575429Y-56750857D01*
X358575429Y-56968571D01*
X358648000Y-57186286D01*
X358793143Y-57331428D01*
X358938286Y-57404000D01*
X359228571Y-57476571D01*
X359446286Y-57476571D01*
X359736571Y-57404000D01*
X359881714Y-57331428D01*
X360026857Y-57186286D01*
X360099429Y-56968571D01*
X360099429Y-56823428D01*
X360026857Y-56605714D01*
X359954286Y-56533143D01*
X359446286Y-56533143D01*
X359446286Y-56823428D01*
X358720571Y-55952571D02*
X358648000Y-55880000D01*
X358575429Y-55734857D01*
X358575429Y-55372000D01*
X358648000Y-55226857D01*
X358720571Y-55154286D01*
X358865714Y-55081714D01*
X359010857Y-55081714D01*
X359228571Y-55154286D01*
X360099429Y-56025143D01*
X360099429Y-55081714D01*
X338255429Y-59290857D02*
X339779429Y-58928000D01*
X338690857Y-58637714D01*
X339779429Y-58347428D01*
X338255429Y-57984571D01*
X338328000Y-56605714D02*
X338255429Y-56750857D01*
X338255429Y-56968571D01*
X338328000Y-57186286D01*
X338473143Y-57331428D01*
X338618286Y-57404000D01*
X338908571Y-57476571D01*
X339126286Y-57476571D01*
X339416571Y-57404000D01*
X339561714Y-57331428D01*
X339706857Y-57186286D01*
X339779429Y-56968571D01*
X339779429Y-56823428D01*
X339706857Y-56605714D01*
X339634286Y-56533143D01*
X339126286Y-56533143D01*
X339126286Y-56823428D01*
X338255429Y-56025143D02*
X338255429Y-55081714D01*
X338836000Y-55589714D01*
X338836000Y-55372000D01*
X338908571Y-55226857D01*
X338981143Y-55154286D01*
X339126286Y-55081714D01*
X339489143Y-55081714D01*
X339634286Y-55154286D01*
X339706857Y-55226857D01*
X339779429Y-55372000D01*
X339779429Y-55807428D01*
X339706857Y-55952571D01*
X339634286Y-56025143D01*
X317935429Y-59290857D02*
X319459429Y-58928000D01*
X318370857Y-58637714D01*
X319459429Y-58347428D01*
X317935429Y-57984571D01*
X318008000Y-56605714D02*
X317935429Y-56750857D01*
X317935429Y-56968571D01*
X318008000Y-57186286D01*
X318153143Y-57331428D01*
X318298286Y-57404000D01*
X318588571Y-57476571D01*
X318806286Y-57476571D01*
X319096571Y-57404000D01*
X319241714Y-57331428D01*
X319386857Y-57186286D01*
X319459429Y-56968571D01*
X319459429Y-56823428D01*
X319386857Y-56605714D01*
X319314286Y-56533143D01*
X318806286Y-56533143D01*
X318806286Y-56823428D01*
X318443429Y-55226857D02*
X319459429Y-55226857D01*
X317862857Y-55589714D02*
X318951429Y-55952571D01*
X318951429Y-55009143D01*
X297615429Y-59290857D02*
X299139429Y-58928000D01*
X298050857Y-58637714D01*
X299139429Y-58347428D01*
X297615429Y-57984571D01*
X297688000Y-56605714D02*
X297615429Y-56750857D01*
X297615429Y-56968571D01*
X297688000Y-57186286D01*
X297833143Y-57331428D01*
X297978286Y-57404000D01*
X298268571Y-57476571D01*
X298486286Y-57476571D01*
X298776571Y-57404000D01*
X298921714Y-57331428D01*
X299066857Y-57186286D01*
X299139429Y-56968571D01*
X299139429Y-56823428D01*
X299066857Y-56605714D01*
X298994286Y-56533143D01*
X298486286Y-56533143D01*
X298486286Y-56823428D01*
X297615429Y-55154286D02*
X297615429Y-55880000D01*
X298341143Y-55952571D01*
X298268571Y-55880000D01*
X298196000Y-55734857D01*
X298196000Y-55372000D01*
X298268571Y-55226857D01*
X298341143Y-55154286D01*
X298486286Y-55081714D01*
X298849143Y-55081714D01*
X298994286Y-55154286D01*
X299066857Y-55226857D01*
X299139429Y-55372000D01*
X299139429Y-55734857D01*
X299066857Y-55880000D01*
X298994286Y-55952571D01*
X277295429Y-59290857D02*
X278819429Y-58928000D01*
X277730857Y-58637714D01*
X278819429Y-58347428D01*
X277295429Y-57984571D01*
X277368000Y-56605714D02*
X277295429Y-56750857D01*
X277295429Y-56968571D01*
X277368000Y-57186286D01*
X277513143Y-57331428D01*
X277658286Y-57404000D01*
X277948571Y-57476571D01*
X278166286Y-57476571D01*
X278456571Y-57404000D01*
X278601714Y-57331428D01*
X278746857Y-57186286D01*
X278819429Y-56968571D01*
X278819429Y-56823428D01*
X278746857Y-56605714D01*
X278674286Y-56533143D01*
X278166286Y-56533143D01*
X278166286Y-56823428D01*
X277295429Y-55226857D02*
X277295429Y-55517143D01*
X277368000Y-55662286D01*
X277440571Y-55734857D01*
X277658286Y-55880000D01*
X277948571Y-55952571D01*
X278529143Y-55952571D01*
X278674286Y-55880000D01*
X278746857Y-55807428D01*
X278819429Y-55662286D01*
X278819429Y-55372000D01*
X278746857Y-55226857D01*
X278674286Y-55154286D01*
X278529143Y-55081714D01*
X278166286Y-55081714D01*
X278021143Y-55154286D01*
X277948571Y-55226857D01*
X277876000Y-55372000D01*
X277876000Y-55662286D01*
X277948571Y-55807428D01*
X278021143Y-55880000D01*
X278166286Y-55952571D01*
X256975429Y-59290857D02*
X258499429Y-58928000D01*
X257410857Y-58637714D01*
X258499429Y-58347428D01*
X256975429Y-57984571D01*
X257048000Y-56605714D02*
X256975429Y-56750857D01*
X256975429Y-56968571D01*
X257048000Y-57186286D01*
X257193143Y-57331428D01*
X257338286Y-57404000D01*
X257628571Y-57476571D01*
X257846286Y-57476571D01*
X258136571Y-57404000D01*
X258281714Y-57331428D01*
X258426857Y-57186286D01*
X258499429Y-56968571D01*
X258499429Y-56823428D01*
X258426857Y-56605714D01*
X258354286Y-56533143D01*
X257846286Y-56533143D01*
X257846286Y-56823428D01*
X256975429Y-56025143D02*
X256975429Y-55009143D01*
X258499429Y-55662286D01*
X236655429Y-59290857D02*
X238179429Y-58928000D01*
X237090857Y-58637714D01*
X238179429Y-58347428D01*
X236655429Y-57984571D01*
X236728000Y-56605714D02*
X236655429Y-56750857D01*
X236655429Y-56968571D01*
X236728000Y-57186286D01*
X236873143Y-57331428D01*
X237018286Y-57404000D01*
X237308571Y-57476571D01*
X237526286Y-57476571D01*
X237816571Y-57404000D01*
X237961714Y-57331428D01*
X238106857Y-57186286D01*
X238179429Y-56968571D01*
X238179429Y-56823428D01*
X238106857Y-56605714D01*
X238034286Y-56533143D01*
X237526286Y-56533143D01*
X237526286Y-56823428D01*
X237308571Y-55662286D02*
X237236000Y-55807428D01*
X237163429Y-55880000D01*
X237018286Y-55952571D01*
X236945714Y-55952571D01*
X236800571Y-55880000D01*
X236728000Y-55807428D01*
X236655429Y-55662286D01*
X236655429Y-55372000D01*
X236728000Y-55226857D01*
X236800571Y-55154286D01*
X236945714Y-55081714D01*
X237018286Y-55081714D01*
X237163429Y-55154286D01*
X237236000Y-55226857D01*
X237308571Y-55372000D01*
X237308571Y-55662286D01*
X237381143Y-55807428D01*
X237453714Y-55880000D01*
X237598857Y-55952571D01*
X237889143Y-55952571D01*
X238034286Y-55880000D01*
X238106857Y-55807428D01*
X238179429Y-55662286D01*
X238179429Y-55372000D01*
X238106857Y-55226857D01*
X238034286Y-55154286D01*
X237889143Y-55081714D01*
X237598857Y-55081714D01*
X237453714Y-55154286D01*
X237381143Y-55226857D01*
X237308571Y-55372000D01*
X216335429Y-59290857D02*
X217859429Y-58928000D01*
X216770857Y-58637714D01*
X217859429Y-58347428D01*
X216335429Y-57984571D01*
X216408000Y-56605714D02*
X216335429Y-56750857D01*
X216335429Y-56968571D01*
X216408000Y-57186286D01*
X216553143Y-57331428D01*
X216698286Y-57404000D01*
X216988571Y-57476571D01*
X217206286Y-57476571D01*
X217496571Y-57404000D01*
X217641714Y-57331428D01*
X217786857Y-57186286D01*
X217859429Y-56968571D01*
X217859429Y-56823428D01*
X217786857Y-56605714D01*
X217714286Y-56533143D01*
X217206286Y-56533143D01*
X217206286Y-56823428D01*
X217859429Y-55807428D02*
X217859429Y-55517143D01*
X217786857Y-55372000D01*
X217714286Y-55299428D01*
X217496571Y-55154286D01*
X217206286Y-55081714D01*
X216625714Y-55081714D01*
X216480571Y-55154286D01*
X216408000Y-55226857D01*
X216335429Y-55372000D01*
X216335429Y-55662286D01*
X216408000Y-55807428D01*
X216480571Y-55880000D01*
X216625714Y-55952571D01*
X216988571Y-55952571D01*
X217133714Y-55880000D01*
X217206286Y-55807428D01*
X217278857Y-55662286D01*
X217278857Y-55372000D01*
X217206286Y-55226857D01*
X217133714Y-55154286D01*
X216988571Y-55081714D01*
X196015429Y-60016572D02*
X197539429Y-59653715D01*
X196450857Y-59363429D01*
X197539429Y-59073143D01*
X196015429Y-58710286D01*
X196088000Y-57331429D02*
X196015429Y-57476572D01*
X196015429Y-57694286D01*
X196088000Y-57912001D01*
X196233143Y-58057143D01*
X196378286Y-58129715D01*
X196668571Y-58202286D01*
X196886286Y-58202286D01*
X197176571Y-58129715D01*
X197321714Y-58057143D01*
X197466857Y-57912001D01*
X197539429Y-57694286D01*
X197539429Y-57549143D01*
X197466857Y-57331429D01*
X197394286Y-57258858D01*
X196886286Y-57258858D01*
X196886286Y-57549143D01*
X197539429Y-55807429D02*
X197539429Y-56678286D01*
X197539429Y-56242858D02*
X196015429Y-56242858D01*
X196233143Y-56388001D01*
X196378286Y-56533143D01*
X196450857Y-56678286D01*
X196015429Y-54864000D02*
X196015429Y-54718857D01*
X196088000Y-54573714D01*
X196160571Y-54501143D01*
X196305714Y-54428572D01*
X196596000Y-54356000D01*
X196958857Y-54356000D01*
X197249143Y-54428572D01*
X197394286Y-54501143D01*
X197466857Y-54573714D01*
X197539429Y-54718857D01*
X197539429Y-54864000D01*
X197466857Y-55009143D01*
X197394286Y-55081714D01*
X197249143Y-55154286D01*
X196958857Y-55226857D01*
X196596000Y-55226857D01*
X196305714Y-55154286D01*
X196160571Y-55081714D01*
X196088000Y-55009143D01*
X196015429Y-54864000D01*
X175695429Y-60016572D02*
X177219429Y-59653715D01*
X176130857Y-59363429D01*
X177219429Y-59073143D01*
X175695429Y-58710286D01*
X175768000Y-57331429D02*
X175695429Y-57476572D01*
X175695429Y-57694286D01*
X175768000Y-57912001D01*
X175913143Y-58057143D01*
X176058286Y-58129715D01*
X176348571Y-58202286D01*
X176566286Y-58202286D01*
X176856571Y-58129715D01*
X177001714Y-58057143D01*
X177146857Y-57912001D01*
X177219429Y-57694286D01*
X177219429Y-57549143D01*
X177146857Y-57331429D01*
X177074286Y-57258858D01*
X176566286Y-57258858D01*
X176566286Y-57549143D01*
X177219429Y-55807429D02*
X177219429Y-56678286D01*
X177219429Y-56242858D02*
X175695429Y-56242858D01*
X175913143Y-56388001D01*
X176058286Y-56533143D01*
X176130857Y-56678286D01*
X177219429Y-54356000D02*
X177219429Y-55226857D01*
X177219429Y-54791429D02*
X175695429Y-54791429D01*
X175913143Y-54936572D01*
X176058286Y-55081714D01*
X176130857Y-55226857D01*
X114735429Y-60016572D02*
X116259429Y-59653715D01*
X115170857Y-59363429D01*
X116259429Y-59073143D01*
X114735429Y-58710286D01*
X114808000Y-57331429D02*
X114735429Y-57476572D01*
X114735429Y-57694286D01*
X114808000Y-57912001D01*
X114953143Y-58057143D01*
X115098286Y-58129715D01*
X115388571Y-58202286D01*
X115606286Y-58202286D01*
X115896571Y-58129715D01*
X116041714Y-58057143D01*
X116186857Y-57912001D01*
X116259429Y-57694286D01*
X116259429Y-57549143D01*
X116186857Y-57331429D01*
X116114286Y-57258858D01*
X115606286Y-57258858D01*
X115606286Y-57549143D01*
X116259429Y-55807429D02*
X116259429Y-56678286D01*
X116259429Y-56242858D02*
X114735429Y-56242858D01*
X114953143Y-56388001D01*
X115098286Y-56533143D01*
X115170857Y-56678286D01*
X115243429Y-54501143D02*
X116259429Y-54501143D01*
X114662857Y-54864000D02*
X115751429Y-55226857D01*
X115751429Y-54283429D01*
X94415429Y-60016572D02*
X95939429Y-59653715D01*
X94850857Y-59363429D01*
X95939429Y-59073143D01*
X94415429Y-58710286D01*
X94488000Y-57331429D02*
X94415429Y-57476572D01*
X94415429Y-57694286D01*
X94488000Y-57912001D01*
X94633143Y-58057143D01*
X94778286Y-58129715D01*
X95068571Y-58202286D01*
X95286286Y-58202286D01*
X95576571Y-58129715D01*
X95721714Y-58057143D01*
X95866857Y-57912001D01*
X95939429Y-57694286D01*
X95939429Y-57549143D01*
X95866857Y-57331429D01*
X95794286Y-57258858D01*
X95286286Y-57258858D01*
X95286286Y-57549143D01*
X95939429Y-55807429D02*
X95939429Y-56678286D01*
X95939429Y-56242858D02*
X94415429Y-56242858D01*
X94633143Y-56388001D01*
X94778286Y-56533143D01*
X94850857Y-56678286D01*
X94415429Y-54428572D02*
X94415429Y-55154286D01*
X95141143Y-55226857D01*
X95068571Y-55154286D01*
X94996000Y-55009143D01*
X94996000Y-54646286D01*
X95068571Y-54501143D01*
X95141143Y-54428572D01*
X95286286Y-54356000D01*
X95649143Y-54356000D01*
X95794286Y-54428572D01*
X95866857Y-54501143D01*
X95939429Y-54646286D01*
X95939429Y-55009143D01*
X95866857Y-55154286D01*
X95794286Y-55226857D01*
X74095429Y-60016572D02*
X75619429Y-59653715D01*
X74530857Y-59363429D01*
X75619429Y-59073143D01*
X74095429Y-58710286D01*
X74168000Y-57331429D02*
X74095429Y-57476572D01*
X74095429Y-57694286D01*
X74168000Y-57912001D01*
X74313143Y-58057143D01*
X74458286Y-58129715D01*
X74748571Y-58202286D01*
X74966286Y-58202286D01*
X75256571Y-58129715D01*
X75401714Y-58057143D01*
X75546857Y-57912001D01*
X75619429Y-57694286D01*
X75619429Y-57549143D01*
X75546857Y-57331429D01*
X75474286Y-57258858D01*
X74966286Y-57258858D01*
X74966286Y-57549143D01*
X75619429Y-55807429D02*
X75619429Y-56678286D01*
X75619429Y-56242858D02*
X74095429Y-56242858D01*
X74313143Y-56388001D01*
X74458286Y-56533143D01*
X74530857Y-56678286D01*
X74095429Y-54501143D02*
X74095429Y-54791429D01*
X74168000Y-54936572D01*
X74240571Y-55009143D01*
X74458286Y-55154286D01*
X74748571Y-55226857D01*
X75329143Y-55226857D01*
X75474286Y-55154286D01*
X75546857Y-55081714D01*
X75619429Y-54936572D01*
X75619429Y-54646286D01*
X75546857Y-54501143D01*
X75474286Y-54428572D01*
X75329143Y-54356000D01*
X74966286Y-54356000D01*
X74821143Y-54428572D01*
X74748571Y-54501143D01*
X74676000Y-54646286D01*
X74676000Y-54936572D01*
X74748571Y-55081714D01*
X74821143Y-55154286D01*
X74966286Y-55226857D01*
X53775429Y-60016572D02*
X55299429Y-59653715D01*
X54210857Y-59363429D01*
X55299429Y-59073143D01*
X53775429Y-58710286D01*
X53848000Y-57331429D02*
X53775429Y-57476572D01*
X53775429Y-57694286D01*
X53848000Y-57912001D01*
X53993143Y-58057143D01*
X54138286Y-58129715D01*
X54428571Y-58202286D01*
X54646286Y-58202286D01*
X54936571Y-58129715D01*
X55081714Y-58057143D01*
X55226857Y-57912001D01*
X55299429Y-57694286D01*
X55299429Y-57549143D01*
X55226857Y-57331429D01*
X55154286Y-57258858D01*
X54646286Y-57258858D01*
X54646286Y-57549143D01*
X55299429Y-55807429D02*
X55299429Y-56678286D01*
X55299429Y-56242858D02*
X53775429Y-56242858D01*
X53993143Y-56388001D01*
X54138286Y-56533143D01*
X54210857Y-56678286D01*
X53775429Y-55299429D02*
X53775429Y-54283429D01*
X55299429Y-54936572D01*
X33455429Y-60016572D02*
X34979429Y-59653715D01*
X33890857Y-59363429D01*
X34979429Y-59073143D01*
X33455429Y-58710286D01*
X33528000Y-57331429D02*
X33455429Y-57476572D01*
X33455429Y-57694286D01*
X33528000Y-57912001D01*
X33673143Y-58057143D01*
X33818286Y-58129715D01*
X34108571Y-58202286D01*
X34326286Y-58202286D01*
X34616571Y-58129715D01*
X34761714Y-58057143D01*
X34906857Y-57912001D01*
X34979429Y-57694286D01*
X34979429Y-57549143D01*
X34906857Y-57331429D01*
X34834286Y-57258858D01*
X34326286Y-57258858D01*
X34326286Y-57549143D01*
X34979429Y-55807429D02*
X34979429Y-56678286D01*
X34979429Y-56242858D02*
X33455429Y-56242858D01*
X33673143Y-56388001D01*
X33818286Y-56533143D01*
X33890857Y-56678286D01*
X34108571Y-54936572D02*
X34036000Y-55081714D01*
X33963429Y-55154286D01*
X33818286Y-55226857D01*
X33745714Y-55226857D01*
X33600571Y-55154286D01*
X33528000Y-55081714D01*
X33455429Y-54936572D01*
X33455429Y-54646286D01*
X33528000Y-54501143D01*
X33600571Y-54428572D01*
X33745714Y-54356000D01*
X33818286Y-54356000D01*
X33963429Y-54428572D01*
X34036000Y-54501143D01*
X34108571Y-54646286D01*
X34108571Y-54936572D01*
X34181143Y-55081714D01*
X34253714Y-55154286D01*
X34398857Y-55226857D01*
X34689143Y-55226857D01*
X34834286Y-55154286D01*
X34906857Y-55081714D01*
X34979429Y-54936572D01*
X34979429Y-54646286D01*
X34906857Y-54501143D01*
X34834286Y-54428572D01*
X34689143Y-54356000D01*
X34398857Y-54356000D01*
X34253714Y-54428572D01*
X34181143Y-54501143D01*
X34108571Y-54646286D01*
D14*
X44854762Y-133889524D02*
X44902381Y-133746667D01*
X44902381Y-133508571D01*
X44854762Y-133413333D01*
X44807143Y-133365714D01*
X44711905Y-133318095D01*
X44616667Y-133318095D01*
X44521429Y-133365714D01*
X44473810Y-133413333D01*
X44426190Y-133508571D01*
X44378571Y-133699048D01*
X44330952Y-133794286D01*
X44283333Y-133841905D01*
X44188095Y-133889524D01*
X44092857Y-133889524D01*
X43997619Y-133841905D01*
X43950000Y-133794286D01*
X43902381Y-133699048D01*
X43902381Y-133460952D01*
X43950000Y-133318095D01*
X43902381Y-132984762D02*
X44902381Y-132746667D01*
X44188095Y-132556190D01*
X44902381Y-132365714D01*
X43902381Y-132127619D01*
X44902381Y-131222857D02*
X44902381Y-131794286D01*
X44902381Y-131508572D02*
X43902381Y-131508572D01*
X44045238Y-131603810D01*
X44140476Y-131699048D01*
X44188095Y-131794286D01*
X43902381Y-130889524D02*
X43902381Y-130222857D01*
X44902381Y-130651429D01*
X103274762Y-133889524D02*
X103322381Y-133746667D01*
X103322381Y-133508571D01*
X103274762Y-133413333D01*
X103227143Y-133365714D01*
X103131905Y-133318095D01*
X103036667Y-133318095D01*
X102941429Y-133365714D01*
X102893810Y-133413333D01*
X102846190Y-133508571D01*
X102798571Y-133699048D01*
X102750952Y-133794286D01*
X102703333Y-133841905D01*
X102608095Y-133889524D01*
X102512857Y-133889524D01*
X102417619Y-133841905D01*
X102370000Y-133794286D01*
X102322381Y-133699048D01*
X102322381Y-133460952D01*
X102370000Y-133318095D01*
X102322381Y-132984762D02*
X103322381Y-132746667D01*
X102608095Y-132556190D01*
X103322381Y-132365714D01*
X102322381Y-132127619D01*
X103322381Y-131222857D02*
X103322381Y-131794286D01*
X103322381Y-131508572D02*
X102322381Y-131508572D01*
X102465238Y-131603810D01*
X102560476Y-131699048D01*
X102608095Y-131794286D01*
X102655714Y-130365714D02*
X103322381Y-130365714D01*
X102274762Y-130603810D02*
X102989048Y-130841905D01*
X102989048Y-130222857D01*
X245514762Y-133889524D02*
X245562381Y-133746667D01*
X245562381Y-133508571D01*
X245514762Y-133413333D01*
X245467143Y-133365714D01*
X245371905Y-133318095D01*
X245276667Y-133318095D01*
X245181429Y-133365714D01*
X245133810Y-133413333D01*
X245086190Y-133508571D01*
X245038571Y-133699048D01*
X244990952Y-133794286D01*
X244943333Y-133841905D01*
X244848095Y-133889524D01*
X244752857Y-133889524D01*
X244657619Y-133841905D01*
X244610000Y-133794286D01*
X244562381Y-133699048D01*
X244562381Y-133460952D01*
X244610000Y-133318095D01*
X244562381Y-132984762D02*
X245562381Y-132746667D01*
X244848095Y-132556190D01*
X245562381Y-132365714D01*
X244562381Y-132127619D01*
X245562381Y-131222857D02*
X245562381Y-131794286D01*
X245562381Y-131508572D02*
X244562381Y-131508572D01*
X244705238Y-131603810D01*
X244800476Y-131699048D01*
X244848095Y-131794286D01*
X244562381Y-130603810D02*
X244562381Y-130508571D01*
X244610000Y-130413333D01*
X244657619Y-130365714D01*
X244752857Y-130318095D01*
X244943333Y-130270476D01*
X245181429Y-130270476D01*
X245371905Y-130318095D01*
X245467143Y-130365714D01*
X245514762Y-130413333D01*
X245562381Y-130508571D01*
X245562381Y-130603810D01*
X245514762Y-130699048D01*
X245467143Y-130746667D01*
X245371905Y-130794286D01*
X245181429Y-130841905D01*
X244943333Y-130841905D01*
X244752857Y-130794286D01*
X244657619Y-130746667D01*
X244610000Y-130699048D01*
X244562381Y-130603810D01*
X265834762Y-133413333D02*
X265882381Y-133270476D01*
X265882381Y-133032380D01*
X265834762Y-132937142D01*
X265787143Y-132889523D01*
X265691905Y-132841904D01*
X265596667Y-132841904D01*
X265501429Y-132889523D01*
X265453810Y-132937142D01*
X265406190Y-133032380D01*
X265358571Y-133222857D01*
X265310952Y-133318095D01*
X265263333Y-133365714D01*
X265168095Y-133413333D01*
X265072857Y-133413333D01*
X264977619Y-133365714D01*
X264930000Y-133318095D01*
X264882381Y-133222857D01*
X264882381Y-132984761D01*
X264930000Y-132841904D01*
X264882381Y-132508571D02*
X265882381Y-132270476D01*
X265168095Y-132079999D01*
X265882381Y-131889523D01*
X264882381Y-131651428D01*
X265882381Y-131222857D02*
X265882381Y-131032381D01*
X265834762Y-130937142D01*
X265787143Y-130889523D01*
X265644286Y-130794285D01*
X265453810Y-130746666D01*
X265072857Y-130746666D01*
X264977619Y-130794285D01*
X264930000Y-130841904D01*
X264882381Y-130937142D01*
X264882381Y-131127619D01*
X264930000Y-131222857D01*
X264977619Y-131270476D01*
X265072857Y-131318095D01*
X265310952Y-131318095D01*
X265406190Y-131270476D01*
X265453810Y-131222857D01*
X265501429Y-131127619D01*
X265501429Y-130937142D01*
X265453810Y-130841904D01*
X265406190Y-130794285D01*
X265310952Y-130746666D01*
X286154762Y-133413333D02*
X286202381Y-133270476D01*
X286202381Y-133032380D01*
X286154762Y-132937142D01*
X286107143Y-132889523D01*
X286011905Y-132841904D01*
X285916667Y-132841904D01*
X285821429Y-132889523D01*
X285773810Y-132937142D01*
X285726190Y-133032380D01*
X285678571Y-133222857D01*
X285630952Y-133318095D01*
X285583333Y-133365714D01*
X285488095Y-133413333D01*
X285392857Y-133413333D01*
X285297619Y-133365714D01*
X285250000Y-133318095D01*
X285202381Y-133222857D01*
X285202381Y-132984761D01*
X285250000Y-132841904D01*
X285202381Y-132508571D02*
X286202381Y-132270476D01*
X285488095Y-132079999D01*
X286202381Y-131889523D01*
X285202381Y-131651428D01*
X285630952Y-131127619D02*
X285583333Y-131222857D01*
X285535714Y-131270476D01*
X285440476Y-131318095D01*
X285392857Y-131318095D01*
X285297619Y-131270476D01*
X285250000Y-131222857D01*
X285202381Y-131127619D01*
X285202381Y-130937142D01*
X285250000Y-130841904D01*
X285297619Y-130794285D01*
X285392857Y-130746666D01*
X285440476Y-130746666D01*
X285535714Y-130794285D01*
X285583333Y-130841904D01*
X285630952Y-130937142D01*
X285630952Y-131127619D01*
X285678571Y-131222857D01*
X285726190Y-131270476D01*
X285821429Y-131318095D01*
X286011905Y-131318095D01*
X286107143Y-131270476D01*
X286154762Y-131222857D01*
X286202381Y-131127619D01*
X286202381Y-130937142D01*
X286154762Y-130841904D01*
X286107143Y-130794285D01*
X286011905Y-130746666D01*
X285821429Y-130746666D01*
X285726190Y-130794285D01*
X285678571Y-130841904D01*
X285630952Y-130937142D01*
X436816667Y-85994762D02*
X436959524Y-86042381D01*
X437197620Y-86042381D01*
X437292858Y-85994762D01*
X437340477Y-85947143D01*
X437388096Y-85851905D01*
X437388096Y-85756667D01*
X437340477Y-85661429D01*
X437292858Y-85613810D01*
X437197620Y-85566190D01*
X437007143Y-85518571D01*
X436911905Y-85470952D01*
X436864286Y-85423333D01*
X436816667Y-85328095D01*
X436816667Y-85232857D01*
X436864286Y-85137619D01*
X436911905Y-85090000D01*
X437007143Y-85042381D01*
X437245239Y-85042381D01*
X437388096Y-85090000D01*
X437721429Y-85042381D02*
X437959524Y-86042381D01*
X438150001Y-85328095D01*
X438340477Y-86042381D01*
X438578572Y-85042381D01*
X438864286Y-85042381D02*
X439483334Y-85042381D01*
X439150000Y-85423333D01*
X439292858Y-85423333D01*
X439388096Y-85470952D01*
X439435715Y-85518571D01*
X439483334Y-85613810D01*
X439483334Y-85851905D01*
X439435715Y-85947143D01*
X439388096Y-85994762D01*
X439292858Y-86042381D01*
X439007143Y-86042381D01*
X438911905Y-85994762D01*
X438864286Y-85947143D01*
X416496667Y-85994762D02*
X416639524Y-86042381D01*
X416877620Y-86042381D01*
X416972858Y-85994762D01*
X417020477Y-85947143D01*
X417068096Y-85851905D01*
X417068096Y-85756667D01*
X417020477Y-85661429D01*
X416972858Y-85613810D01*
X416877620Y-85566190D01*
X416687143Y-85518571D01*
X416591905Y-85470952D01*
X416544286Y-85423333D01*
X416496667Y-85328095D01*
X416496667Y-85232857D01*
X416544286Y-85137619D01*
X416591905Y-85090000D01*
X416687143Y-85042381D01*
X416925239Y-85042381D01*
X417068096Y-85090000D01*
X417401429Y-85042381D02*
X417639524Y-86042381D01*
X417830001Y-85328095D01*
X418020477Y-86042381D01*
X418258572Y-85042381D01*
X418591905Y-85137619D02*
X418639524Y-85090000D01*
X418734762Y-85042381D01*
X418972858Y-85042381D01*
X419068096Y-85090000D01*
X419115715Y-85137619D01*
X419163334Y-85232857D01*
X419163334Y-85328095D01*
X419115715Y-85470952D01*
X418544286Y-86042381D01*
X419163334Y-86042381D01*
X396176667Y-85994762D02*
X396319524Y-86042381D01*
X396557620Y-86042381D01*
X396652858Y-85994762D01*
X396700477Y-85947143D01*
X396748096Y-85851905D01*
X396748096Y-85756667D01*
X396700477Y-85661429D01*
X396652858Y-85613810D01*
X396557620Y-85566190D01*
X396367143Y-85518571D01*
X396271905Y-85470952D01*
X396224286Y-85423333D01*
X396176667Y-85328095D01*
X396176667Y-85232857D01*
X396224286Y-85137619D01*
X396271905Y-85090000D01*
X396367143Y-85042381D01*
X396605239Y-85042381D01*
X396748096Y-85090000D01*
X397081429Y-85042381D02*
X397319524Y-86042381D01*
X397510001Y-85328095D01*
X397700477Y-86042381D01*
X397938572Y-85042381D01*
X398843334Y-86042381D02*
X398271905Y-86042381D01*
X398557619Y-86042381D02*
X398557619Y-85042381D01*
X398462381Y-85185238D01*
X398367143Y-85280476D01*
X398271905Y-85328095D01*
X156940476Y-132984762D02*
X157083333Y-133032381D01*
X157321429Y-133032381D01*
X157416667Y-132984762D01*
X157464286Y-132937143D01*
X157511905Y-132841905D01*
X157511905Y-132746667D01*
X157464286Y-132651429D01*
X157416667Y-132603810D01*
X157321429Y-132556190D01*
X157130952Y-132508571D01*
X157035714Y-132460952D01*
X156988095Y-132413333D01*
X156940476Y-132318095D01*
X156940476Y-132222857D01*
X156988095Y-132127619D01*
X157035714Y-132080000D01*
X157130952Y-132032381D01*
X157369048Y-132032381D01*
X157511905Y-132080000D01*
X157845238Y-132032381D02*
X158083333Y-133032381D01*
X158273810Y-132318095D01*
X158464286Y-133032381D01*
X158702381Y-132032381D01*
X159607143Y-133032381D02*
X159035714Y-133032381D01*
X159321428Y-133032381D02*
X159321428Y-132032381D01*
X159226190Y-132175238D01*
X159130952Y-132270476D01*
X159035714Y-132318095D01*
X160559524Y-133032381D02*
X159988095Y-133032381D01*
X160273809Y-133032381D02*
X160273809Y-132032381D01*
X160178571Y-132175238D01*
X160083333Y-132270476D01*
X159988095Y-132318095D01*
X183610476Y-132984762D02*
X183753333Y-133032381D01*
X183991429Y-133032381D01*
X184086667Y-132984762D01*
X184134286Y-132937143D01*
X184181905Y-132841905D01*
X184181905Y-132746667D01*
X184134286Y-132651429D01*
X184086667Y-132603810D01*
X183991429Y-132556190D01*
X183800952Y-132508571D01*
X183705714Y-132460952D01*
X183658095Y-132413333D01*
X183610476Y-132318095D01*
X183610476Y-132222857D01*
X183658095Y-132127619D01*
X183705714Y-132080000D01*
X183800952Y-132032381D01*
X184039048Y-132032381D01*
X184181905Y-132080000D01*
X184515238Y-132032381D02*
X184753333Y-133032381D01*
X184943810Y-132318095D01*
X185134286Y-133032381D01*
X185372381Y-132032381D01*
X186277143Y-133032381D02*
X185705714Y-133032381D01*
X185991428Y-133032381D02*
X185991428Y-132032381D01*
X185896190Y-132175238D01*
X185800952Y-132270476D01*
X185705714Y-132318095D01*
X186658095Y-132127619D02*
X186705714Y-132080000D01*
X186800952Y-132032381D01*
X187039048Y-132032381D01*
X187134286Y-132080000D01*
X187181905Y-132127619D01*
X187229524Y-132222857D01*
X187229524Y-132318095D01*
X187181905Y-132460952D01*
X186610476Y-133032381D01*
X187229524Y-133032381D01*
X210280476Y-132984762D02*
X210423333Y-133032381D01*
X210661429Y-133032381D01*
X210756667Y-132984762D01*
X210804286Y-132937143D01*
X210851905Y-132841905D01*
X210851905Y-132746667D01*
X210804286Y-132651429D01*
X210756667Y-132603810D01*
X210661429Y-132556190D01*
X210470952Y-132508571D01*
X210375714Y-132460952D01*
X210328095Y-132413333D01*
X210280476Y-132318095D01*
X210280476Y-132222857D01*
X210328095Y-132127619D01*
X210375714Y-132080000D01*
X210470952Y-132032381D01*
X210709048Y-132032381D01*
X210851905Y-132080000D01*
X211185238Y-132032381D02*
X211423333Y-133032381D01*
X211613810Y-132318095D01*
X211804286Y-133032381D01*
X212042381Y-132032381D01*
X212947143Y-133032381D02*
X212375714Y-133032381D01*
X212661428Y-133032381D02*
X212661428Y-132032381D01*
X212566190Y-132175238D01*
X212470952Y-132270476D01*
X212375714Y-132318095D01*
X213280476Y-132032381D02*
X213899524Y-132032381D01*
X213566190Y-132413333D01*
X213709048Y-132413333D01*
X213804286Y-132460952D01*
X213851905Y-132508571D01*
X213899524Y-132603810D01*
X213899524Y-132841905D01*
X213851905Y-132937143D01*
X213804286Y-132984762D01*
X213709048Y-133032381D01*
X213423333Y-133032381D01*
X213328095Y-132984762D01*
X213280476Y-132937143D01*
X352996667Y-132984762D02*
X353139524Y-133032381D01*
X353377620Y-133032381D01*
X353472858Y-132984762D01*
X353520477Y-132937143D01*
X353568096Y-132841905D01*
X353568096Y-132746667D01*
X353520477Y-132651429D01*
X353472858Y-132603810D01*
X353377620Y-132556190D01*
X353187143Y-132508571D01*
X353091905Y-132460952D01*
X353044286Y-132413333D01*
X352996667Y-132318095D01*
X352996667Y-132222857D01*
X353044286Y-132127619D01*
X353091905Y-132080000D01*
X353187143Y-132032381D01*
X353425239Y-132032381D01*
X353568096Y-132080000D01*
X353901429Y-132032381D02*
X354139524Y-133032381D01*
X354330001Y-132318095D01*
X354520477Y-133032381D01*
X354758572Y-132032381D01*
X355615715Y-132032381D02*
X355139524Y-132032381D01*
X355091905Y-132508571D01*
X355139524Y-132460952D01*
X355234762Y-132413333D01*
X355472858Y-132413333D01*
X355568096Y-132460952D01*
X355615715Y-132508571D01*
X355663334Y-132603810D01*
X355663334Y-132841905D01*
X355615715Y-132937143D01*
X355568096Y-132984762D01*
X355472858Y-133032381D01*
X355234762Y-133032381D01*
X355139524Y-132984762D01*
X355091905Y-132937143D01*
X332676667Y-132984762D02*
X332819524Y-133032381D01*
X333057620Y-133032381D01*
X333152858Y-132984762D01*
X333200477Y-132937143D01*
X333248096Y-132841905D01*
X333248096Y-132746667D01*
X333200477Y-132651429D01*
X333152858Y-132603810D01*
X333057620Y-132556190D01*
X332867143Y-132508571D01*
X332771905Y-132460952D01*
X332724286Y-132413333D01*
X332676667Y-132318095D01*
X332676667Y-132222857D01*
X332724286Y-132127619D01*
X332771905Y-132080000D01*
X332867143Y-132032381D01*
X333105239Y-132032381D01*
X333248096Y-132080000D01*
X333581429Y-132032381D02*
X333819524Y-133032381D01*
X334010001Y-132318095D01*
X334200477Y-133032381D01*
X334438572Y-132032381D01*
X335248096Y-132032381D02*
X335057619Y-132032381D01*
X334962381Y-132080000D01*
X334914762Y-132127619D01*
X334819524Y-132270476D01*
X334771905Y-132460952D01*
X334771905Y-132841905D01*
X334819524Y-132937143D01*
X334867143Y-132984762D01*
X334962381Y-133032381D01*
X335152858Y-133032381D01*
X335248096Y-132984762D01*
X335295715Y-132937143D01*
X335343334Y-132841905D01*
X335343334Y-132603810D01*
X335295715Y-132508571D01*
X335248096Y-132460952D01*
X335152858Y-132413333D01*
X334962381Y-132413333D01*
X334867143Y-132460952D01*
X334819524Y-132508571D01*
X334771905Y-132603810D01*
X312356667Y-132984762D02*
X312499524Y-133032381D01*
X312737620Y-133032381D01*
X312832858Y-132984762D01*
X312880477Y-132937143D01*
X312928096Y-132841905D01*
X312928096Y-132746667D01*
X312880477Y-132651429D01*
X312832858Y-132603810D01*
X312737620Y-132556190D01*
X312547143Y-132508571D01*
X312451905Y-132460952D01*
X312404286Y-132413333D01*
X312356667Y-132318095D01*
X312356667Y-132222857D01*
X312404286Y-132127619D01*
X312451905Y-132080000D01*
X312547143Y-132032381D01*
X312785239Y-132032381D01*
X312928096Y-132080000D01*
X313261429Y-132032381D02*
X313499524Y-133032381D01*
X313690001Y-132318095D01*
X313880477Y-133032381D01*
X314118572Y-132032381D01*
X314404286Y-132032381D02*
X315070953Y-132032381D01*
X314642381Y-133032381D01*
X397962381Y-62396666D02*
X397486190Y-62730000D01*
X397962381Y-62968095D02*
X396962381Y-62968095D01*
X396962381Y-62587142D01*
X397010000Y-62491904D01*
X397057619Y-62444285D01*
X397152857Y-62396666D01*
X397295714Y-62396666D01*
X397390952Y-62444285D01*
X397438571Y-62491904D01*
X397486190Y-62587142D01*
X397486190Y-62968095D01*
X397962381Y-61444285D02*
X397962381Y-62015714D01*
X397962381Y-61730000D02*
X396962381Y-61730000D01*
X397105238Y-61825238D01*
X397200476Y-61920476D01*
X397248095Y-62015714D01*
X418282381Y-62396666D02*
X417806190Y-62730000D01*
X418282381Y-62968095D02*
X417282381Y-62968095D01*
X417282381Y-62587142D01*
X417330000Y-62491904D01*
X417377619Y-62444285D01*
X417472857Y-62396666D01*
X417615714Y-62396666D01*
X417710952Y-62444285D01*
X417758571Y-62491904D01*
X417806190Y-62587142D01*
X417806190Y-62968095D01*
X417377619Y-62015714D02*
X417330000Y-61968095D01*
X417282381Y-61872857D01*
X417282381Y-61634761D01*
X417330000Y-61539523D01*
X417377619Y-61491904D01*
X417472857Y-61444285D01*
X417568095Y-61444285D01*
X417710952Y-61491904D01*
X418282381Y-62063333D01*
X418282381Y-61444285D01*
X438602381Y-62396666D02*
X438126190Y-62730000D01*
X438602381Y-62968095D02*
X437602381Y-62968095D01*
X437602381Y-62587142D01*
X437650000Y-62491904D01*
X437697619Y-62444285D01*
X437792857Y-62396666D01*
X437935714Y-62396666D01*
X438030952Y-62444285D01*
X438078571Y-62491904D01*
X438126190Y-62587142D01*
X438126190Y-62968095D01*
X437602381Y-62063333D02*
X437602381Y-61444285D01*
X437983333Y-61777619D01*
X437983333Y-61634761D01*
X438030952Y-61539523D01*
X438078571Y-61491904D01*
X438173810Y-61444285D01*
X438411905Y-61444285D01*
X438507143Y-61491904D01*
X438554762Y-61539523D01*
X438602381Y-61634761D01*
X438602381Y-61920476D01*
X438554762Y-62015714D01*
X438507143Y-62063333D01*
X379563334Y-121102381D02*
X379230000Y-120626190D01*
X378991905Y-121102381D02*
X378991905Y-120102381D01*
X379372858Y-120102381D01*
X379468096Y-120150000D01*
X379515715Y-120197619D01*
X379563334Y-120292857D01*
X379563334Y-120435714D01*
X379515715Y-120530952D01*
X379468096Y-120578571D01*
X379372858Y-120626190D01*
X378991905Y-120626190D01*
X380420477Y-120435714D02*
X380420477Y-121102381D01*
X380182381Y-120054762D02*
X379944286Y-120769048D01*
X380563334Y-120769048D01*
X379563334Y-126182381D02*
X379230000Y-125706190D01*
X378991905Y-126182381D02*
X378991905Y-125182381D01*
X379372858Y-125182381D01*
X379468096Y-125230000D01*
X379515715Y-125277619D01*
X379563334Y-125372857D01*
X379563334Y-125515714D01*
X379515715Y-125610952D01*
X379468096Y-125658571D01*
X379372858Y-125706190D01*
X378991905Y-125706190D01*
X380468096Y-125182381D02*
X379991905Y-125182381D01*
X379944286Y-125658571D01*
X379991905Y-125610952D01*
X380087143Y-125563333D01*
X380325239Y-125563333D01*
X380420477Y-125610952D01*
X380468096Y-125658571D01*
X380515715Y-125753810D01*
X380515715Y-125991905D01*
X380468096Y-126087143D01*
X380420477Y-126134762D01*
X380325239Y-126182381D01*
X380087143Y-126182381D01*
X379991905Y-126134762D01*
X379944286Y-126087143D01*
X379563334Y-131262381D02*
X379230000Y-130786190D01*
X378991905Y-131262381D02*
X378991905Y-130262381D01*
X379372858Y-130262381D01*
X379468096Y-130310000D01*
X379515715Y-130357619D01*
X379563334Y-130452857D01*
X379563334Y-130595714D01*
X379515715Y-130690952D01*
X379468096Y-130738571D01*
X379372858Y-130786190D01*
X378991905Y-130786190D01*
X380420477Y-130262381D02*
X380230000Y-130262381D01*
X380134762Y-130310000D01*
X380087143Y-130357619D01*
X379991905Y-130500476D01*
X379944286Y-130690952D01*
X379944286Y-131071905D01*
X379991905Y-131167143D01*
X380039524Y-131214762D01*
X380134762Y-131262381D01*
X380325239Y-131262381D01*
X380420477Y-131214762D01*
X380468096Y-131167143D01*
X380515715Y-131071905D01*
X380515715Y-130833810D01*
X380468096Y-130738571D01*
X380420477Y-130690952D01*
X380325239Y-130643333D01*
X380134762Y-130643333D01*
X380039524Y-130690952D01*
X379991905Y-130738571D01*
X379944286Y-130833810D01*
X52522381Y-90336666D02*
X52046190Y-90670000D01*
X52522381Y-90908095D02*
X51522381Y-90908095D01*
X51522381Y-90527142D01*
X51570000Y-90431904D01*
X51617619Y-90384285D01*
X51712857Y-90336666D01*
X51855714Y-90336666D01*
X51950952Y-90384285D01*
X51998571Y-90431904D01*
X52046190Y-90527142D01*
X52046190Y-90908095D01*
X51522381Y-90003333D02*
X51522381Y-89336666D01*
X52522381Y-89765238D01*
X46172381Y-90336666D02*
X45696190Y-90670000D01*
X46172381Y-90908095D02*
X45172381Y-90908095D01*
X45172381Y-90527142D01*
X45220000Y-90431904D01*
X45267619Y-90384285D01*
X45362857Y-90336666D01*
X45505714Y-90336666D01*
X45600952Y-90384285D01*
X45648571Y-90431904D01*
X45696190Y-90527142D01*
X45696190Y-90908095D01*
X45600952Y-89765238D02*
X45553333Y-89860476D01*
X45505714Y-89908095D01*
X45410476Y-89955714D01*
X45362857Y-89955714D01*
X45267619Y-89908095D01*
X45220000Y-89860476D01*
X45172381Y-89765238D01*
X45172381Y-89574761D01*
X45220000Y-89479523D01*
X45267619Y-89431904D01*
X45362857Y-89384285D01*
X45410476Y-89384285D01*
X45505714Y-89431904D01*
X45553333Y-89479523D01*
X45600952Y-89574761D01*
X45600952Y-89765238D01*
X45648571Y-89860476D01*
X45696190Y-89908095D01*
X45791429Y-89955714D01*
X45981905Y-89955714D01*
X46077143Y-89908095D01*
X46124762Y-89860476D01*
X46172381Y-89765238D01*
X46172381Y-89574761D01*
X46124762Y-89479523D01*
X46077143Y-89431904D01*
X45981905Y-89384285D01*
X45791429Y-89384285D01*
X45696190Y-89431904D01*
X45648571Y-89479523D01*
X45600952Y-89574761D01*
X39822381Y-90336666D02*
X39346190Y-90670000D01*
X39822381Y-90908095D02*
X38822381Y-90908095D01*
X38822381Y-90527142D01*
X38870000Y-90431904D01*
X38917619Y-90384285D01*
X39012857Y-90336666D01*
X39155714Y-90336666D01*
X39250952Y-90384285D01*
X39298571Y-90431904D01*
X39346190Y-90527142D01*
X39346190Y-90908095D01*
X39822381Y-89860476D02*
X39822381Y-89670000D01*
X39774762Y-89574761D01*
X39727143Y-89527142D01*
X39584286Y-89431904D01*
X39393810Y-89384285D01*
X39012857Y-89384285D01*
X38917619Y-89431904D01*
X38870000Y-89479523D01*
X38822381Y-89574761D01*
X38822381Y-89765238D01*
X38870000Y-89860476D01*
X38917619Y-89908095D01*
X39012857Y-89955714D01*
X39250952Y-89955714D01*
X39346190Y-89908095D01*
X39393810Y-89860476D01*
X39441429Y-89765238D01*
X39441429Y-89574761D01*
X39393810Y-89479523D01*
X39346190Y-89431904D01*
X39250952Y-89384285D01*
X132707143Y-135072381D02*
X132373809Y-134596190D01*
X132135714Y-135072381D02*
X132135714Y-134072381D01*
X132516667Y-134072381D01*
X132611905Y-134120000D01*
X132659524Y-134167619D01*
X132707143Y-134262857D01*
X132707143Y-134405714D01*
X132659524Y-134500952D01*
X132611905Y-134548571D01*
X132516667Y-134596190D01*
X132135714Y-134596190D01*
X133659524Y-135072381D02*
X133088095Y-135072381D01*
X133373809Y-135072381D02*
X133373809Y-134072381D01*
X133278571Y-134215238D01*
X133183333Y-134310476D01*
X133088095Y-134358095D01*
X134278571Y-134072381D02*
X134373810Y-134072381D01*
X134469048Y-134120000D01*
X134516667Y-134167619D01*
X134564286Y-134262857D01*
X134611905Y-134453333D01*
X134611905Y-134691429D01*
X134564286Y-134881905D01*
X134516667Y-134977143D01*
X134469048Y-135024762D01*
X134373810Y-135072381D01*
X134278571Y-135072381D01*
X134183333Y-135024762D01*
X134135714Y-134977143D01*
X134088095Y-134881905D01*
X134040476Y-134691429D01*
X134040476Y-134453333D01*
X134088095Y-134262857D01*
X134135714Y-134167619D01*
X134183333Y-134120000D01*
X134278571Y-134072381D01*
X132707143Y-140152381D02*
X132373809Y-139676190D01*
X132135714Y-140152381D02*
X132135714Y-139152381D01*
X132516667Y-139152381D01*
X132611905Y-139200000D01*
X132659524Y-139247619D01*
X132707143Y-139342857D01*
X132707143Y-139485714D01*
X132659524Y-139580952D01*
X132611905Y-139628571D01*
X132516667Y-139676190D01*
X132135714Y-139676190D01*
X133659524Y-140152381D02*
X133088095Y-140152381D01*
X133373809Y-140152381D02*
X133373809Y-139152381D01*
X133278571Y-139295238D01*
X133183333Y-139390476D01*
X133088095Y-139438095D01*
X134611905Y-140152381D02*
X134040476Y-140152381D01*
X134326190Y-140152381D02*
X134326190Y-139152381D01*
X134230952Y-139295238D01*
X134135714Y-139390476D01*
X134040476Y-139438095D01*
X132707143Y-145232381D02*
X132373809Y-144756190D01*
X132135714Y-145232381D02*
X132135714Y-144232381D01*
X132516667Y-144232381D01*
X132611905Y-144280000D01*
X132659524Y-144327619D01*
X132707143Y-144422857D01*
X132707143Y-144565714D01*
X132659524Y-144660952D01*
X132611905Y-144708571D01*
X132516667Y-144756190D01*
X132135714Y-144756190D01*
X133659524Y-145232381D02*
X133088095Y-145232381D01*
X133373809Y-145232381D02*
X133373809Y-144232381D01*
X133278571Y-144375238D01*
X133183333Y-144470476D01*
X133088095Y-144518095D01*
X134040476Y-144327619D02*
X134088095Y-144280000D01*
X134183333Y-144232381D01*
X134421429Y-144232381D01*
X134516667Y-144280000D01*
X134564286Y-144327619D01*
X134611905Y-144422857D01*
X134611905Y-144518095D01*
X134564286Y-144660952D01*
X133992857Y-145232381D01*
X134611905Y-145232381D01*
X416496667Y-132984762D02*
X416639524Y-133032381D01*
X416877620Y-133032381D01*
X416972858Y-132984762D01*
X417020477Y-132937143D01*
X417068096Y-132841905D01*
X417068096Y-132746667D01*
X417020477Y-132651429D01*
X416972858Y-132603810D01*
X416877620Y-132556190D01*
X416687143Y-132508571D01*
X416591905Y-132460952D01*
X416544286Y-132413333D01*
X416496667Y-132318095D01*
X416496667Y-132222857D01*
X416544286Y-132127619D01*
X416591905Y-132080000D01*
X416687143Y-132032381D01*
X416925239Y-132032381D01*
X417068096Y-132080000D01*
X417401429Y-132032381D02*
X417639524Y-133032381D01*
X417830001Y-132318095D01*
X418020477Y-133032381D01*
X418258572Y-132032381D01*
X419068096Y-132365714D02*
X419068096Y-133032381D01*
X418830000Y-131984762D02*
X418591905Y-132699048D01*
X419210953Y-132699048D01*
M02*
