G04 #@! TF.GenerationSoftware,KiCad,Pcbnew,(5.0.0)*
G04 #@! TF.CreationDate,2019-04-13T23:19:49+01:00*
G04 #@! TF.ProjectId,LS Tester,4C53205465737465722E6B696361645F,rev?*
G04 #@! TF.SameCoordinates,Original*
G04 #@! TF.FileFunction,Copper,L2,Bot,Signal*
G04 #@! TF.FilePolarity,Positive*
%FSLAX46Y46*%
G04 Gerber Fmt 4.6, Leading zero omitted, Abs format (unit mm)*
G04 Created by KiCad (PCBNEW (5.0.0)) date 04/13/19 23:19:49*
%MOMM*%
%LPD*%
G01*
G04 APERTURE LIST*
G04 #@! TA.AperFunction,ComponentPad*
%ADD10C,1.300000*%
G04 #@! TD*
G04 #@! TA.AperFunction,ComponentPad*
%ADD11O,3.048000X1.727200*%
G04 #@! TD*
G04 #@! TA.AperFunction,ComponentPad*
%ADD12C,1.800000*%
G04 #@! TD*
G04 #@! TA.AperFunction,ComponentPad*
%ADD13R,1.800000X1.800000*%
G04 #@! TD*
G04 #@! TA.AperFunction,ComponentPad*
%ADD14C,2.000000*%
G04 #@! TD*
G04 #@! TA.AperFunction,ComponentPad*
%ADD15C,1.400000*%
G04 #@! TD*
G04 #@! TA.AperFunction,ComponentPad*
%ADD16O,1.400000X1.400000*%
G04 #@! TD*
G04 #@! TA.AperFunction,ComponentPad*
%ADD17C,3.810000*%
G04 #@! TD*
G04 #@! TA.AperFunction,ComponentPad*
%ADD18R,2.600000X2.600000*%
G04 #@! TD*
G04 #@! TA.AperFunction,ComponentPad*
%ADD19C,2.600000*%
G04 #@! TD*
G04 #@! TA.AperFunction,ViaPad*
%ADD20C,0.800000*%
G04 #@! TD*
G04 #@! TA.AperFunction,Conductor*
%ADD21C,0.250000*%
G04 #@! TD*
G04 APERTURE END LIST*
D10*
G04 #@! TO.P,SW1,4*
G04 #@! TO.N,N/C*
X127000000Y-124460000D03*
G04 #@! TO.P,SW1,3*
X119380000Y-139700000D03*
D11*
G04 #@! TO.P,SW1,1*
G04 #@! TO.N,Net-(SW1-Pad1)*
X119380000Y-137160000D03*
G04 #@! TO.P,SW1,0*
G04 #@! TO.N,1*
X119380000Y-132080000D03*
G04 #@! TO.P,SW1,2*
G04 #@! TO.N,N/C*
X127000000Y-137160000D03*
G04 #@! TO.P,SW1,0*
G04 #@! TO.N,1*
X127000000Y-132080000D03*
G04 #@! TD*
D10*
G04 #@! TO.P,SW2,4*
G04 #@! TO.N,N/C*
X165100000Y-124460000D03*
G04 #@! TO.P,SW2,3*
X157480000Y-139700000D03*
D11*
G04 #@! TO.P,SW2,1*
G04 #@! TO.N,Net-(SW2-Pad1)*
X157480000Y-137160000D03*
G04 #@! TO.P,SW2,0*
G04 #@! TO.N,2*
X157480000Y-132080000D03*
G04 #@! TO.P,SW2,2*
G04 #@! TO.N,N/C*
X165100000Y-137160000D03*
G04 #@! TO.P,SW2,0*
G04 #@! TO.N,2*
X165100000Y-132080000D03*
G04 #@! TD*
D10*
G04 #@! TO.P,SW3,4*
G04 #@! TO.N,N/C*
X146050000Y-124460000D03*
G04 #@! TO.P,SW3,3*
X138430000Y-139700000D03*
D11*
G04 #@! TO.P,SW3,1*
G04 #@! TO.N,Net-(SW3-Pad1)*
X138430000Y-137160000D03*
G04 #@! TO.P,SW3,0*
G04 #@! TO.N,3*
X138430000Y-132080000D03*
G04 #@! TO.P,SW3,2*
G04 #@! TO.N,N/C*
X146050000Y-137160000D03*
G04 #@! TO.P,SW3,0*
G04 #@! TO.N,3*
X146050000Y-132080000D03*
G04 #@! TD*
D10*
G04 #@! TO.P,SW4,4*
G04 #@! TO.N,N/C*
X184150000Y-124460000D03*
G04 #@! TO.P,SW4,3*
X176530000Y-139700000D03*
D11*
G04 #@! TO.P,SW4,1*
G04 #@! TO.N,Net-(SW10-Pad5)*
X176530000Y-137160000D03*
G04 #@! TO.P,SW4,0*
G04 #@! TO.N,4*
X176530000Y-132080000D03*
G04 #@! TO.P,SW4,2*
G04 #@! TO.N,N/C*
X184150000Y-137160000D03*
G04 #@! TO.P,SW4,0*
G04 #@! TO.N,4*
X184150000Y-132080000D03*
G04 #@! TD*
D10*
G04 #@! TO.P,SW5,4*
G04 #@! TO.N,N/C*
X203200000Y-124460000D03*
G04 #@! TO.P,SW5,3*
X195580000Y-139700000D03*
D11*
G04 #@! TO.P,SW5,1*
G04 #@! TO.N,Net-(SW11-Pad5)*
X195580000Y-137160000D03*
G04 #@! TO.P,SW5,0*
G04 #@! TO.N,5*
X195580000Y-132080000D03*
G04 #@! TO.P,SW5,2*
G04 #@! TO.N,N/C*
X203200000Y-137160000D03*
G04 #@! TO.P,SW5,0*
G04 #@! TO.N,5*
X203200000Y-132080000D03*
G04 #@! TD*
D10*
G04 #@! TO.P,SW6,4*
G04 #@! TO.N,N/C*
X222250000Y-124460000D03*
G04 #@! TO.P,SW6,3*
X214630000Y-139700000D03*
D11*
G04 #@! TO.P,SW6,1*
G04 #@! TO.N,Net-(SW12-Pad5)*
X214630000Y-137160000D03*
G04 #@! TO.P,SW6,0*
G04 #@! TO.N,6*
X214630000Y-132080000D03*
G04 #@! TO.P,SW6,2*
G04 #@! TO.N,N/C*
X222250000Y-137160000D03*
G04 #@! TO.P,SW6,0*
G04 #@! TO.N,6*
X222250000Y-132080000D03*
G04 #@! TD*
D12*
G04 #@! TO.P,D11,2*
G04 #@! TO.N,13*
X133032000Y-64579500D03*
D13*
G04 #@! TO.P,D11,1*
G04 #@! TO.N,0v*
X133032000Y-62039500D03*
G04 #@! TD*
D12*
G04 #@! TO.P,D12,2*
G04 #@! TO.N,12*
X140398000Y-64643000D03*
D13*
G04 #@! TO.P,D12,1*
G04 #@! TO.N,0v*
X140398000Y-62103000D03*
G04 #@! TD*
D12*
G04 #@! TO.P,D13,2*
G04 #@! TO.N,11*
X147701000Y-64643000D03*
D13*
G04 #@! TO.P,D13,1*
G04 #@! TO.N,0v*
X147701000Y-62103000D03*
G04 #@! TD*
D14*
G04 #@! TO.P,J1,13*
G04 #@! TO.N,13*
X189420000Y-94678500D03*
G04 #@! TO.P,J1,12*
G04 #@! TO.N,12*
X191960000Y-94678500D03*
G04 #@! TO.P,J1,11*
G04 #@! TO.N,11*
X194500000Y-94678500D03*
G04 #@! TO.P,J1,6*
G04 #@! TO.N,6*
X185610000Y-76263500D03*
G04 #@! TO.P,J1,5*
G04 #@! TO.N,5*
X188150000Y-76263500D03*
G04 #@! TO.P,J1,4*
G04 #@! TO.N,4*
X190690000Y-76263500D03*
G04 #@! TO.P,J1,3*
G04 #@! TO.N,3*
X193230000Y-76263500D03*
G04 #@! TO.P,J1,2*
G04 #@! TO.N,2*
X195770000Y-76263500D03*
G04 #@! TO.P,J1,1*
G04 #@! TO.N,1*
X198310000Y-76263500D03*
G04 #@! TO.P,J1,23*
G04 #@! TO.N,Net-(J1-Pad23)*
X215455000Y-89598500D03*
G04 #@! TO.P,J1,22*
G04 #@! TO.N,0v*
X215455000Y-92138500D03*
G04 #@! TO.P,J1,21*
G04 #@! TO.N,+6v*
X215455000Y-94678500D03*
G04 #@! TD*
D15*
G04 #@! TO.P,R1,1*
G04 #@! TO.N,1*
X133667000Y-87567000D03*
D16*
G04 #@! TO.P,R1,2*
G04 #@! TO.N,Net-(R1-Pad2)*
X133667000Y-79947000D03*
G04 #@! TD*
D15*
G04 #@! TO.P,R2,1*
G04 #@! TO.N,2*
X136843000Y-87567000D03*
D16*
G04 #@! TO.P,R2,2*
G04 #@! TO.N,Net-(R2-Pad2)*
X136843000Y-79947000D03*
G04 #@! TD*
D15*
G04 #@! TO.P,R3,1*
G04 #@! TO.N,3*
X140081000Y-87567000D03*
D16*
G04 #@! TO.P,R3,2*
G04 #@! TO.N,Net-(R3-Pad2)*
X140081000Y-79947000D03*
G04 #@! TD*
D15*
G04 #@! TO.P,R4,1*
G04 #@! TO.N,4*
X143319000Y-87567000D03*
D16*
G04 #@! TO.P,R4,2*
G04 #@! TO.N,Net-(R4-Pad2)*
X143319000Y-79947000D03*
G04 #@! TD*
D15*
G04 #@! TO.P,R5,1*
G04 #@! TO.N,5*
X146558000Y-87567000D03*
D16*
G04 #@! TO.P,R5,2*
G04 #@! TO.N,Net-(R5-Pad2)*
X146558000Y-79947000D03*
G04 #@! TD*
D15*
G04 #@! TO.P,R6,1*
G04 #@! TO.N,6*
X149797000Y-87567000D03*
D16*
G04 #@! TO.P,R6,2*
G04 #@! TO.N,Net-(R6-Pad2)*
X149797000Y-79947000D03*
G04 #@! TD*
D15*
G04 #@! TO.P,R11,1*
G04 #@! TO.N,+6v*
X156464000Y-62230000D03*
D16*
G04 #@! TO.P,R11,2*
G04 #@! TO.N,11*
X156464000Y-69850000D03*
G04 #@! TD*
D15*
G04 #@! TO.P,R12,1*
G04 #@! TO.N,+6v*
X159004000Y-62230000D03*
D16*
G04 #@! TO.P,R12,2*
G04 #@! TO.N,12*
X159004000Y-69850000D03*
G04 #@! TD*
D15*
G04 #@! TO.P,R13,1*
G04 #@! TO.N,+6v*
X161544000Y-62230000D03*
D16*
G04 #@! TO.P,R13,2*
G04 #@! TO.N,13*
X161544000Y-69850000D03*
G04 #@! TD*
D17*
G04 #@! TO.P,SW7,6*
G04 #@! TO.N,0v*
X125476000Y-118618000D03*
G04 #@! TO.P,SW7,3*
G04 #@! TO.N,+6v*
X120650000Y-118618000D03*
G04 #@! TO.P,SW7,1*
G04 #@! TO.N,0v*
X120650000Y-109220000D03*
G04 #@! TO.P,SW7,4*
G04 #@! TO.N,+6v*
X125476000Y-109220000D03*
G04 #@! TO.P,SW7,2*
G04 #@! TO.N,Net-(R1-Pad2)*
X120650000Y-113919000D03*
G04 #@! TO.P,SW7,5*
G04 #@! TO.N,Net-(SW1-Pad1)*
X125476000Y-113919000D03*
G04 #@! TD*
G04 #@! TO.P,SW8,6*
G04 #@! TO.N,0v*
X144526000Y-118618000D03*
G04 #@! TO.P,SW8,3*
G04 #@! TO.N,+6v*
X139700000Y-118618000D03*
G04 #@! TO.P,SW8,1*
G04 #@! TO.N,0v*
X139700000Y-109220000D03*
G04 #@! TO.P,SW8,4*
G04 #@! TO.N,+6v*
X144526000Y-109220000D03*
G04 #@! TO.P,SW8,2*
G04 #@! TO.N,Net-(R2-Pad2)*
X139700000Y-113919000D03*
G04 #@! TO.P,SW8,5*
G04 #@! TO.N,Net-(SW2-Pad1)*
X144526000Y-113919000D03*
G04 #@! TD*
G04 #@! TO.P,SW9,6*
G04 #@! TO.N,0v*
X163576000Y-118618000D03*
G04 #@! TO.P,SW9,3*
G04 #@! TO.N,+6v*
X158750000Y-118618000D03*
G04 #@! TO.P,SW9,1*
G04 #@! TO.N,0v*
X158750000Y-109220000D03*
G04 #@! TO.P,SW9,4*
G04 #@! TO.N,+6v*
X163576000Y-109220000D03*
G04 #@! TO.P,SW9,2*
G04 #@! TO.N,Net-(R3-Pad2)*
X158750000Y-113919000D03*
G04 #@! TO.P,SW9,5*
G04 #@! TO.N,Net-(SW3-Pad1)*
X163576000Y-113919000D03*
G04 #@! TD*
G04 #@! TO.P,SW10,6*
G04 #@! TO.N,0v*
X182626000Y-118618000D03*
G04 #@! TO.P,SW10,3*
G04 #@! TO.N,+6v*
X177800000Y-118618000D03*
G04 #@! TO.P,SW10,1*
G04 #@! TO.N,0v*
X177800000Y-109220000D03*
G04 #@! TO.P,SW10,4*
G04 #@! TO.N,+6v*
X182626000Y-109220000D03*
G04 #@! TO.P,SW10,2*
G04 #@! TO.N,Net-(R4-Pad2)*
X177800000Y-113919000D03*
G04 #@! TO.P,SW10,5*
G04 #@! TO.N,Net-(SW10-Pad5)*
X182626000Y-113919000D03*
G04 #@! TD*
G04 #@! TO.P,SW11,6*
G04 #@! TO.N,0v*
X201676000Y-118618000D03*
G04 #@! TO.P,SW11,3*
G04 #@! TO.N,+6v*
X196850000Y-118618000D03*
G04 #@! TO.P,SW11,1*
G04 #@! TO.N,0v*
X196850000Y-109220000D03*
G04 #@! TO.P,SW11,4*
G04 #@! TO.N,+6v*
X201676000Y-109220000D03*
G04 #@! TO.P,SW11,2*
G04 #@! TO.N,Net-(R5-Pad2)*
X196850000Y-113919000D03*
G04 #@! TO.P,SW11,5*
G04 #@! TO.N,Net-(SW11-Pad5)*
X201676000Y-113919000D03*
G04 #@! TD*
G04 #@! TO.P,SW12,6*
G04 #@! TO.N,0v*
X220726000Y-118618000D03*
G04 #@! TO.P,SW12,3*
G04 #@! TO.N,+6v*
X215900000Y-118618000D03*
G04 #@! TO.P,SW12,1*
G04 #@! TO.N,0v*
X215900000Y-109220000D03*
G04 #@! TO.P,SW12,4*
G04 #@! TO.N,+6v*
X220726000Y-109220000D03*
G04 #@! TO.P,SW12,2*
G04 #@! TO.N,Net-(R6-Pad2)*
X215900000Y-113919000D03*
G04 #@! TO.P,SW12,5*
G04 #@! TO.N,Net-(SW12-Pad5)*
X220726000Y-113919000D03*
G04 #@! TD*
D18*
G04 #@! TO.P,J2,1*
G04 #@! TO.N,+6v*
X107886000Y-64135000D03*
D19*
G04 #@! TO.P,J2,2*
G04 #@! TO.N,0v*
X112966000Y-64135000D03*
G04 #@! TO.P,J2,3*
G04 #@! TO.N,Net-(J1-Pad23)*
X118046000Y-64135000D03*
G04 #@! TD*
G04 #@! TO.P,J3,3*
G04 #@! TO.N,13*
X184277000Y-65405000D03*
G04 #@! TO.P,J3,2*
G04 #@! TO.N,12*
X189357000Y-65405000D03*
D18*
G04 #@! TO.P,J3,1*
G04 #@! TO.N,11*
X194437000Y-65405000D03*
G04 #@! TD*
G04 #@! TO.P,J4,1*
G04 #@! TO.N,1*
X111824000Y-76327000D03*
D19*
G04 #@! TO.P,J4,2*
G04 #@! TO.N,2*
X111824000Y-81407000D03*
G04 #@! TO.P,J4,3*
G04 #@! TO.N,3*
X111824000Y-86487000D03*
G04 #@! TO.P,J4,4*
G04 #@! TO.N,4*
X111824000Y-91567000D03*
G04 #@! TO.P,J4,5*
G04 #@! TO.N,5*
X111824000Y-96647000D03*
G04 #@! TO.P,J4,6*
G04 #@! TO.N,6*
X111824000Y-101727000D03*
G04 #@! TD*
D20*
G04 #@! TO.N,Net-(R6-Pad2)*
X156231600Y-81921400D03*
G04 #@! TD*
D21*
G04 #@! TO.N,+6v*
X215900000Y-118618000D02*
X218313000Y-116205000D01*
X218313000Y-116205000D02*
X218313000Y-111633000D01*
X218313000Y-111633000D02*
X220726000Y-109220000D01*
X163576000Y-109220000D02*
X161322400Y-111473600D01*
X161322400Y-111473600D02*
X161322400Y-116045600D01*
X161322400Y-116045600D02*
X158750000Y-118618000D01*
X201676000Y-109220000D02*
X199263000Y-111633000D01*
X199263000Y-111633000D02*
X199263000Y-115332700D01*
X199263000Y-115332700D02*
X196850000Y-117745700D01*
X196850000Y-117745700D02*
X196850000Y-118618000D01*
X145585800Y-64999200D02*
X139050500Y-71534500D01*
X139050500Y-71534500D02*
X139050500Y-103744500D01*
X139050500Y-103744500D02*
X144526000Y-109220000D01*
X156464000Y-62230000D02*
X155365600Y-63328400D01*
X155365600Y-63328400D02*
X147256600Y-63328400D01*
X147256600Y-63328400D02*
X145585800Y-64999200D01*
X109511300Y-64135000D02*
X112832200Y-60814100D01*
X112832200Y-60814100D02*
X141400600Y-60814100D01*
X141400600Y-60814100D02*
X145585800Y-64999200D01*
X107886000Y-64135000D02*
X109511300Y-64135000D01*
X125476000Y-109220000D02*
X123063000Y-111633000D01*
X123063000Y-111633000D02*
X123063000Y-115255700D01*
X123063000Y-115255700D02*
X120650000Y-117668700D01*
X120650000Y-117668700D02*
X120650000Y-118618000D01*
X144526000Y-109220000D02*
X142113000Y-111633000D01*
X142113000Y-111633000D02*
X142113000Y-116205000D01*
X142113000Y-116205000D02*
X139700000Y-118618000D01*
X182626000Y-109220000D02*
X180213000Y-111633000D01*
X180213000Y-111633000D02*
X180213000Y-115332700D01*
X180213000Y-115332700D02*
X177800000Y-117745700D01*
X177800000Y-117745700D02*
X177800000Y-118618000D01*
G04 #@! TO.N,0v*
X133032000Y-62039500D02*
X134257300Y-62039500D01*
X138600100Y-64441400D02*
X139713200Y-63328300D01*
X139713200Y-63328300D02*
X140398000Y-63328300D01*
X134257300Y-62039500D02*
X136659200Y-64441400D01*
X136659200Y-64441400D02*
X138600100Y-64441400D01*
X139700000Y-109220000D02*
X138600100Y-108120100D01*
X138600100Y-108120100D02*
X138600100Y-64441400D01*
X215900000Y-109220000D02*
X216796000Y-108324000D01*
X216796000Y-108324000D02*
X216796000Y-93479500D01*
X216796000Y-93479500D02*
X215455000Y-92138500D01*
X140398000Y-62103000D02*
X140398000Y-63328300D01*
G04 #@! TO.N,1*
X111824000Y-76327000D02*
X111824000Y-77952300D01*
X127569900Y-92072900D02*
X129161100Y-92072900D01*
X129161100Y-92072900D02*
X133667000Y-87567000D01*
X111824000Y-77952300D02*
X113449300Y-77952300D01*
X113449300Y-77952300D02*
X127569900Y-92072900D01*
X127569900Y-92072900D02*
X118396800Y-101246000D01*
X118396800Y-101246000D02*
X118396800Y-131096800D01*
X118396800Y-131096800D02*
X119380000Y-132080000D01*
G04 #@! TO.N,2*
X157480000Y-132080000D02*
X155630700Y-132080000D01*
X136843000Y-87567000D02*
X136843000Y-125233500D01*
X136843000Y-125233500D02*
X144883600Y-133274100D01*
X144883600Y-133274100D02*
X154436600Y-133274100D01*
X154436600Y-133274100D02*
X155630700Y-132080000D01*
G04 #@! TO.N,3*
X140081000Y-87567000D02*
X140081000Y-99678700D01*
X140081000Y-99678700D02*
X147063800Y-106661500D01*
X147063800Y-106661500D02*
X147063800Y-131066200D01*
X147063800Y-131066200D02*
X146050000Y-132080000D01*
G04 #@! TO.N,4*
X176530000Y-132080000D02*
X174680700Y-132080000D01*
X143319000Y-87567000D02*
X162009700Y-106257700D01*
X162009700Y-106257700D02*
X163833100Y-106257700D01*
X163833100Y-106257700D02*
X174680700Y-117105300D01*
X174680700Y-117105300D02*
X174680700Y-132080000D01*
G04 #@! TO.N,5*
X203200000Y-132080000D02*
X204178100Y-131101900D01*
X204178100Y-131101900D02*
X204178100Y-92291600D01*
X204178100Y-92291600D02*
X188150000Y-76263500D01*
G04 #@! TO.N,11*
X156464000Y-69850000D02*
X152908000Y-69850000D01*
X152908000Y-69850000D02*
X147701000Y-64643000D01*
X194437000Y-65405000D02*
X194437000Y-67030300D01*
X194437000Y-67030300D02*
X192913300Y-67030300D01*
X192913300Y-67030300D02*
X184277100Y-75666500D01*
X184277100Y-75666500D02*
X184277100Y-84455600D01*
X184277100Y-84455600D02*
X194500000Y-94678500D01*
G04 #@! TO.N,12*
X191960000Y-94678500D02*
X183826700Y-86545200D01*
X183826700Y-86545200D02*
X183826700Y-70935300D01*
X183826700Y-70935300D02*
X189357000Y-65405000D01*
G04 #@! TO.N,13*
X183366100Y-69850000D02*
X183366100Y-88624600D01*
X183366100Y-88624600D02*
X189420000Y-94678500D01*
X184277000Y-65405000D02*
X183366100Y-66315900D01*
X183366100Y-66315900D02*
X183366100Y-69850000D01*
X183366100Y-69850000D02*
X162569300Y-69850000D01*
X161544000Y-69850000D02*
X162569300Y-69850000D01*
G04 #@! TO.N,Net-(R1-Pad2)*
X133667000Y-79947000D02*
X133667000Y-80972300D01*
X133667000Y-80972300D02*
X134725600Y-82030900D01*
X134725600Y-82030900D02*
X134725600Y-94570200D01*
X134725600Y-94570200D02*
X123063000Y-106232800D01*
X123063000Y-106232800D02*
X123063000Y-110586000D01*
X123063000Y-110586000D02*
X120650000Y-112999000D01*
X120650000Y-112999000D02*
X120650000Y-113919000D01*
G04 #@! TO.N,Net-(R2-Pad2)*
X136843000Y-79947000D02*
X136843000Y-80972300D01*
X139700000Y-113919000D02*
X137433800Y-111652800D01*
X137433800Y-111652800D02*
X137433800Y-88764100D01*
X137433800Y-88764100D02*
X137868300Y-88329600D01*
X137868300Y-88329600D02*
X137868300Y-81997600D01*
X137868300Y-81997600D02*
X136843000Y-80972300D01*
G04 #@! TO.N,Net-(R3-Pad2)*
X140081000Y-79947000D02*
X140081000Y-80972300D01*
X158750000Y-113919000D02*
X141106300Y-96275300D01*
X141106300Y-96275300D02*
X141106300Y-81997600D01*
X141106300Y-81997600D02*
X140081000Y-80972300D01*
G04 #@! TO.N,Net-(R4-Pad2)*
X143319000Y-79947000D02*
X144344300Y-79947000D01*
X177800000Y-113919000D02*
X144344300Y-80463300D01*
X144344300Y-80463300D02*
X144344300Y-79947000D01*
G04 #@! TO.N,Net-(R5-Pad2)*
X147583300Y-79947000D02*
X150601100Y-82964800D01*
X150601100Y-82964800D02*
X165895800Y-82964800D01*
X165895800Y-82964800D02*
X196850000Y-113919000D01*
X146558000Y-79947000D02*
X147583300Y-79947000D01*
G04 #@! TO.N,Net-(R6-Pad2)*
X149797000Y-79947000D02*
X150822300Y-79947000D01*
X156231600Y-81921400D02*
X152796700Y-81921400D01*
X152796700Y-81921400D02*
X150822300Y-79947000D01*
G04 #@! TO.N,Net-(SW1-Pad1)*
X119380000Y-137160000D02*
X121229300Y-137160000D01*
X125476000Y-113919000D02*
X123190000Y-116205000D01*
X123190000Y-116205000D02*
X123190000Y-135199300D01*
X123190000Y-135199300D02*
X121229300Y-137160000D01*
G04 #@! TO.N,Net-(SW10-Pad5)*
X176530000Y-137160000D02*
X178379300Y-137160000D01*
X182626000Y-113919000D02*
X180340000Y-116205000D01*
X180340000Y-116205000D02*
X180340000Y-135199300D01*
X180340000Y-135199300D02*
X178379300Y-137160000D01*
G04 #@! TO.N,Net-(SW11-Pad5)*
X195580000Y-137160000D02*
X197429300Y-137160000D01*
X201676000Y-113919000D02*
X199390000Y-116205000D01*
X199390000Y-116205000D02*
X199390000Y-135199300D01*
X199390000Y-135199300D02*
X197429300Y-137160000D01*
G04 #@! TO.N,Net-(SW12-Pad5)*
X214630000Y-137160000D02*
X216479300Y-137160000D01*
X220726000Y-113919000D02*
X222968100Y-116161100D01*
X222968100Y-116161100D02*
X222968100Y-120692700D01*
X222968100Y-120692700D02*
X216479300Y-127181500D01*
X216479300Y-127181500D02*
X216479300Y-137160000D01*
G04 #@! TO.N,Net-(SW3-Pad1)*
X138430000Y-137160000D02*
X140279300Y-137160000D01*
X163576000Y-113919000D02*
X165810600Y-116153600D01*
X165810600Y-116153600D02*
X165810600Y-120700200D01*
X165810600Y-120700200D02*
X160448300Y-126062500D01*
X160448300Y-126062500D02*
X160448300Y-131521800D01*
X160448300Y-131521800D02*
X156659400Y-135310700D01*
X156659400Y-135310700D02*
X142128600Y-135310700D01*
X142128600Y-135310700D02*
X140279300Y-137160000D01*
G04 #@! TD*
M02*
