M48
;DRILL file {KiCad (5.0.0)} date 04/13/19 23:19:52
;FORMAT={-:-/ absolute / inch / decimal}
FMAT,2
INCH,TZ
T1C0.0157
T2C0.0276
T3C0.0354
T4C0.0394
T5C0.0433
T6C0.0512
T7C0.0730
%
G90
G05
M72
T1
X6.1509Y-3.2253
T2
X6.16Y-2.45
X6.16Y-2.75
X5.6425Y-3.1475
X5.6425Y-3.4475
X5.8975Y-3.1475
X5.8975Y-3.4475
X5.3875Y-3.1475
X5.3875Y-3.4475
X5.2625Y-3.1475
X5.2625Y-3.4475
X6.36Y-2.45
X6.36Y-2.75
X5.515Y-3.1475
X5.515Y-3.4475
X5.77Y-3.1475
X5.77Y-3.4475
X6.26Y-2.45
X6.26Y-2.75
T3
X5.2375Y-2.4425
X5.2375Y-2.5425
X5.5275Y-2.445
X5.5275Y-2.545
X5.815Y-2.445
X5.815Y-2.545
T4
X5.45Y-5.2
X5.45Y-5.4
X5.45Y-5.5
X5.75Y-4.9
X5.75Y-5.2
X5.75Y-5.4
X8.45Y-5.2
X8.45Y-5.4
X8.45Y-5.5
X8.75Y-4.9
X8.75Y-5.2
X8.75Y-5.4
X6.95Y-5.2
X6.95Y-5.4
X6.95Y-5.5
X7.25Y-4.9
X7.25Y-5.2
X7.25Y-5.4
X4.7Y-5.2
X4.7Y-5.4
X4.7Y-5.5
X5.Y-4.9
X5.Y-5.2
X5.Y-5.4
X6.2Y-5.2
X6.2Y-5.4
X6.2Y-5.5
X6.5Y-4.9
X6.5Y-5.2
X6.5Y-5.4
X7.7Y-5.2
X7.7Y-5.4
X7.7Y-5.5
X8.Y-4.9
X8.Y-5.2
X8.Y-5.4
T5
X7.3075Y-3.0025
X7.4075Y-3.0025
X7.4575Y-3.7275
X7.5075Y-3.0025
X7.5575Y-3.7275
X7.6075Y-3.0025
X7.6575Y-3.7275
X7.7075Y-3.0025
X7.8075Y-3.0025
X8.4825Y-3.5275
X8.4825Y-3.6275
X8.4825Y-3.7275
T6
X4.4025Y-3.005
X4.4025Y-3.205
X4.4025Y-3.405
X4.4025Y-3.605
X4.4025Y-3.805
X4.4025Y-4.005
X4.2475Y-2.525
X4.4475Y-2.525
X4.6475Y-2.525
X7.255Y-2.575
X7.455Y-2.575
X7.655Y-2.575
T7
X7.Y-4.3
X7.Y-4.485
X7.Y-4.67
X7.19Y-4.3
X7.19Y-4.485
X7.19Y-4.67
X8.5Y-4.3
X8.5Y-4.485
X8.5Y-4.67
X8.69Y-4.3
X8.69Y-4.485
X8.69Y-4.67
X5.5Y-4.3
X5.5Y-4.485
X5.5Y-4.67
X5.69Y-4.3
X5.69Y-4.485
X5.69Y-4.67
X4.75Y-4.3
X4.75Y-4.485
X4.75Y-4.67
X4.94Y-4.3
X4.94Y-4.485
X4.94Y-4.67
X7.75Y-4.3
X7.75Y-4.485
X7.75Y-4.67
X7.94Y-4.3
X7.94Y-4.485
X7.94Y-4.67
X6.25Y-4.3
X6.25Y-4.485
X6.25Y-4.67
X6.44Y-4.3
X6.44Y-4.485
X6.44Y-4.67
T0
M30
