M48
;DRILL file {KiCad 4.0.6} date 08/19/17 22:28:38
;FORMAT={-:-/ absolute / inch / decimal}
FMAT,2
INCH,TZ
T1C0.031
T2C0.035
T3C0.039
T4C0.043
T5C0.138
%
G90
G05
M72
T1
X0.725Y-1.475
X0.725Y-1.775
X0.725Y-2.375
X0.725Y-2.675
X0.725Y-3.275
X0.725Y-3.575
X0.725Y-4.175
X0.725Y-4.475
X0.825Y-1.475
X0.825Y-1.775
X0.825Y-2.375
X0.825Y-2.675
X0.825Y-3.275
X0.825Y-3.575
X0.825Y-4.175
X0.825Y-4.475
X0.925Y-1.475
X0.925Y-1.775
X0.925Y-2.375
X0.925Y-2.675
X0.925Y-3.275
X0.925Y-3.575
X0.925Y-4.175
X0.925Y-4.475
X1.025Y-1.475
X1.025Y-1.775
X1.025Y-2.375
X1.025Y-2.675
X1.025Y-3.275
X1.025Y-3.575
X1.025Y-4.175
X1.025Y-4.475
X1.125Y-1.475
X1.125Y-1.775
X1.125Y-2.375
X1.125Y-2.675
X1.125Y-3.275
X1.125Y-3.575
X1.125Y-4.175
X1.125Y-4.475
X1.225Y-1.475
X1.225Y-1.775
X1.225Y-2.375
X1.225Y-2.675
X1.225Y-3.275
X1.225Y-3.575
X1.225Y-4.175
X1.225Y-4.475
X1.325Y-1.475
X1.325Y-1.775
X1.325Y-2.375
X1.325Y-2.675
X1.325Y-3.275
X1.325Y-3.575
X1.325Y-4.175
X1.325Y-4.475
X1.425Y-1.475
X1.425Y-1.775
X1.425Y-2.375
X1.425Y-2.675
X1.425Y-3.275
X1.425Y-3.575
X1.425Y-4.175
X1.425Y-4.475
X1.525Y-1.475
X1.525Y-1.775
X1.525Y-2.375
X1.525Y-2.675
X1.525Y-3.275
X1.525Y-3.575
X1.525Y-4.175
X1.525Y-4.475
X1.625Y-1.475
X1.625Y-1.775
X1.625Y-2.375
X1.625Y-2.675
X1.625Y-3.275
X1.625Y-3.575
X1.625Y-4.175
X1.625Y-4.475
X1.725Y-1.475
X1.725Y-1.775
X1.725Y-2.375
X1.725Y-2.675
X1.725Y-3.275
X1.725Y-3.575
X1.725Y-4.175
X1.725Y-4.475
X1.825Y-1.475
X1.825Y-1.775
X1.825Y-2.375
X1.825Y-2.675
X1.825Y-3.275
X1.825Y-3.575
X1.825Y-4.175
X1.825Y-4.475
X1.925Y-1.475
X1.925Y-1.775
X1.925Y-2.375
X1.925Y-2.675
X1.925Y-3.275
X1.925Y-3.575
X1.925Y-4.175
X1.925Y-4.475
X2.025Y-1.475
X2.025Y-1.775
X2.025Y-2.375
X2.025Y-2.675
X2.025Y-3.275
X2.025Y-3.575
X2.025Y-4.175
X2.025Y-4.475
X8.65Y-2.5
X8.65Y-2.6
X8.65Y-2.7
X8.65Y-2.8
X8.65Y-2.9
X8.65Y-3.
X8.65Y-3.1
X8.65Y-3.2
X8.65Y-3.3
X8.65Y-3.4
X8.65Y-3.5
X8.65Y-3.6
X8.65Y-3.7
X8.65Y-3.8
X8.95Y-2.5
X8.95Y-2.6
X8.95Y-2.7
X8.95Y-2.8
X8.95Y-2.9
X8.95Y-3.
X8.95Y-3.1
X8.95Y-3.2
X8.95Y-3.3
X8.95Y-3.4
X8.95Y-3.5
X8.95Y-3.6
X8.95Y-3.7
X8.95Y-3.8
T2
X2.975Y-1.475
X2.975Y-1.575
X2.975Y-2.375
X2.975Y-2.475
X2.975Y-3.275
X2.975Y-3.375
X2.975Y-4.175
X2.975Y-4.275
X2.975Y-5.075
X2.975Y-5.175
X3.275Y-1.475
X3.275Y-1.575
X3.275Y-2.375
X3.275Y-2.475
X3.275Y-3.275
X3.275Y-3.375
X3.275Y-4.175
X3.275Y-4.275
X3.275Y-5.075
X3.275Y-5.175
X3.575Y-1.475
X3.575Y-1.575
X3.575Y-2.375
X3.575Y-2.475
X3.575Y-3.275
X3.575Y-3.375
X3.575Y-4.175
X3.575Y-4.275
X3.575Y-5.075
X3.575Y-5.175
X3.875Y-1.475
X3.875Y-1.575
X3.875Y-2.375
X3.875Y-2.475
X3.875Y-3.275
X3.875Y-3.375
X3.875Y-4.175
X3.875Y-4.275
X3.875Y-5.075
X3.875Y-5.175
X4.175Y-1.475
X4.175Y-1.575
X4.175Y-2.375
X4.175Y-2.475
X4.175Y-3.275
X4.175Y-3.375
X4.175Y-4.175
X4.175Y-4.275
X4.475Y-1.475
X4.475Y-1.575
X4.475Y-2.375
X4.475Y-2.475
X4.475Y-3.275
X4.475Y-3.375
X4.475Y-4.175
X4.475Y-4.275
X4.775Y-1.475
X4.775Y-1.575
X4.775Y-2.375
X4.775Y-2.475
X4.775Y-3.275
X4.775Y-3.375
X4.775Y-4.175
X4.775Y-4.275
X5.075Y-1.475
X5.075Y-1.575
X5.075Y-2.375
X5.075Y-2.475
X5.075Y-3.275
X5.075Y-3.375
X5.075Y-4.175
X5.075Y-4.275
X5.375Y-1.475
X5.375Y-1.575
X5.375Y-2.375
X5.375Y-2.475
X5.375Y-3.275
X5.375Y-3.375
X5.375Y-4.175
X5.375Y-4.275
X5.675Y-1.475
X5.675Y-1.575
X5.675Y-2.375
X5.675Y-2.475
X5.675Y-3.275
X5.675Y-3.375
X5.675Y-4.175
X5.675Y-4.275
X5.975Y-1.475
X5.975Y-1.575
X5.975Y-2.375
X5.975Y-2.475
X5.975Y-3.275
X5.975Y-3.375
X5.975Y-4.175
X5.975Y-4.275
X6.275Y-1.475
X6.275Y-1.575
X6.275Y-2.375
X6.275Y-2.475
X6.275Y-3.275
X6.275Y-3.375
X6.275Y-4.175
X6.275Y-4.275
X6.575Y-1.475
X6.575Y-1.575
X6.575Y-2.375
X6.575Y-2.475
X6.575Y-3.275
X6.575Y-3.375
X6.575Y-4.175
X6.575Y-4.275
X6.875Y-1.475
X6.875Y-1.575
X6.875Y-2.375
X6.875Y-2.475
X6.875Y-3.275
X6.875Y-3.375
X6.875Y-4.175
X6.875Y-4.275
X7.175Y-1.475
X7.175Y-1.575
X7.175Y-2.375
X7.175Y-2.475
X7.175Y-3.275
X7.175Y-3.375
X7.175Y-4.175
X7.175Y-4.275
X7.475Y-1.475
X7.475Y-1.575
X7.475Y-2.375
X7.475Y-2.475
X7.475Y-3.275
X7.475Y-3.375
X7.475Y-4.175
X7.475Y-4.275
X7.775Y-1.475
X7.775Y-1.575
X7.775Y-2.375
X7.775Y-2.475
X7.775Y-3.275
X7.775Y-3.375
X7.775Y-4.175
X7.775Y-4.275
X7.775Y-4.675
X7.775Y-4.775
X7.775Y-5.025
X7.775Y-5.125
X8.075Y-1.475
X8.075Y-1.575
X8.075Y-2.375
X8.075Y-2.475
X8.075Y-3.275
X8.075Y-3.375
X8.075Y-4.175
X8.075Y-4.275
X8.55Y-4.675
X8.55Y-4.775
X8.55Y-5.025
X8.55Y-5.125
T3
X2.025Y-1.025
X2.125Y-1.025
X2.225Y-1.025
X2.325Y-1.025
T4
X3.675Y-1.225
X3.675Y-2.125
X3.675Y-3.025
X3.675Y-3.925
X3.775Y-1.225
X3.775Y-2.125
X3.775Y-3.025
X3.775Y-3.925
X3.875Y-1.225
X3.875Y-2.125
X3.875Y-3.025
X3.875Y-3.925
X3.975Y-1.225
X3.975Y-2.125
X3.975Y-3.025
X3.975Y-3.925
X4.075Y-1.225
X4.075Y-2.125
X4.075Y-3.025
X4.075Y-3.925
X4.175Y-1.225
X4.175Y-2.125
X4.175Y-3.025
X4.175Y-3.925
X4.275Y-1.225
X4.275Y-2.125
X4.275Y-3.025
X4.275Y-3.925
X4.375Y-1.225
X4.375Y-2.125
X4.375Y-3.025
X4.375Y-3.925
X4.475Y-1.225
X4.475Y-2.125
X4.475Y-3.025
X4.475Y-3.925
X4.9Y-4.975
X5.Y-4.975
X5.1Y-4.975
X5.2Y-4.975
X5.3Y-4.975
X5.4Y-4.975
X5.5Y-4.975
X5.6Y-4.975
X5.7Y-4.975
X6.075Y-1.225
X6.075Y-2.125
X6.075Y-3.025
X6.075Y-3.925
X6.175Y-1.225
X6.175Y-2.125
X6.175Y-3.025
X6.175Y-3.925
X6.275Y-1.225
X6.275Y-2.125
X6.275Y-3.025
X6.275Y-3.925
X6.375Y-1.225
X6.375Y-2.125
X6.375Y-3.025
X6.375Y-3.925
X6.475Y-1.225
X6.475Y-2.125
X6.475Y-3.025
X6.475Y-3.925
X6.575Y-1.225
X6.575Y-2.125
X6.575Y-3.025
X6.575Y-3.925
X6.675Y-1.225
X6.675Y-2.125
X6.675Y-3.025
X6.675Y-3.925
X6.775Y-1.225
X6.775Y-2.125
X6.775Y-3.025
X6.775Y-3.925
X6.875Y-1.225
X6.875Y-2.125
X6.875Y-3.025
X6.875Y-3.925
X8.8Y-1.375
X8.8Y-1.475
X8.8Y-1.575
X8.8Y-1.675
X8.8Y-1.775
X8.8Y-1.875
X8.8Y-1.975
X8.8Y-2.075
X8.8Y-2.175
T5
X1.075Y-0.925
X1.075Y-5.375
X10.075Y-0.925
X10.075Y-5.375
T0
M30
