G04 #@! TF.GenerationSoftware,KiCad,Pcbnew,(5.0.0)*
G04 #@! TF.CreationDate,2019-03-30T16:52:00+00:00*
G04 #@! TF.ProjectId,LS03,4C5330332E6B696361645F7063620000,rev?*
G04 #@! TF.SameCoordinates,Original*
G04 #@! TF.FileFunction,Legend,Top*
G04 #@! TF.FilePolarity,Positive*
%FSLAX46Y46*%
G04 Gerber Fmt 4.6, Leading zero omitted, Abs format (unit mm)*
G04 Created by KiCad (PCBNEW (5.0.0)) date 03/30/19 16:52:00*
%MOMM*%
%LPD*%
G01*
G04 APERTURE LIST*
%ADD10C,0.300000*%
%ADD11C,0.150000*%
%ADD12C,0.120000*%
G04 APERTURE END LIST*
D10*
X161770428Y-41064571D02*
X161056142Y-41064571D01*
X161056142Y-39564571D01*
X162199000Y-40993142D02*
X162413285Y-41064571D01*
X162770428Y-41064571D01*
X162913285Y-40993142D01*
X162984714Y-40921714D01*
X163056142Y-40778857D01*
X163056142Y-40636000D01*
X162984714Y-40493142D01*
X162913285Y-40421714D01*
X162770428Y-40350285D01*
X162484714Y-40278857D01*
X162341857Y-40207428D01*
X162270428Y-40136000D01*
X162199000Y-39993142D01*
X162199000Y-39850285D01*
X162270428Y-39707428D01*
X162341857Y-39636000D01*
X162484714Y-39564571D01*
X162841857Y-39564571D01*
X163056142Y-39636000D01*
X163984714Y-39564571D02*
X164127571Y-39564571D01*
X164270428Y-39636000D01*
X164341857Y-39707428D01*
X164413285Y-39850285D01*
X164484714Y-40136000D01*
X164484714Y-40493142D01*
X164413285Y-40778857D01*
X164341857Y-40921714D01*
X164270428Y-40993142D01*
X164127571Y-41064571D01*
X163984714Y-41064571D01*
X163841857Y-40993142D01*
X163770428Y-40921714D01*
X163699000Y-40778857D01*
X163627571Y-40493142D01*
X163627571Y-40136000D01*
X163699000Y-39850285D01*
X163770428Y-39707428D01*
X163841857Y-39636000D01*
X163984714Y-39564571D01*
X164984714Y-39564571D02*
X165913285Y-39564571D01*
X165413285Y-40136000D01*
X165627571Y-40136000D01*
X165770428Y-40207428D01*
X165841857Y-40278857D01*
X165913285Y-40421714D01*
X165913285Y-40778857D01*
X165841857Y-40921714D01*
X165770428Y-40993142D01*
X165627571Y-41064571D01*
X165199000Y-41064571D01*
X165056142Y-40993142D01*
X164984714Y-40921714D01*
D11*
G04 #@! TO.C,J1*
X129552000Y-59066500D02*
X129552000Y-36841500D01*
X180352000Y-59066500D02*
X129552000Y-59066500D01*
X180352000Y-36841500D02*
X180352000Y-59066500D01*
X129552000Y-36841500D02*
X180352000Y-36841500D01*
D12*
G04 #@! TO.C,D1*
X138707000Y-54253500D02*
X140947000Y-54253500D01*
X140947000Y-54253500D02*
X140947000Y-50013500D01*
X140947000Y-50013500D02*
X138707000Y-50013500D01*
X138707000Y-50013500D02*
X138707000Y-54253500D01*
X139827000Y-54903500D02*
X139827000Y-54253500D01*
X139827000Y-49363500D02*
X139827000Y-50013500D01*
X138707000Y-53533500D02*
X140947000Y-53533500D01*
X138707000Y-53413500D02*
X140947000Y-53413500D01*
X138707000Y-53653500D02*
X140947000Y-53653500D01*
G04 #@! TO.C,D2*
X152169000Y-51840500D02*
X154409000Y-51840500D01*
X154409000Y-51840500D02*
X154409000Y-47600500D01*
X154409000Y-47600500D02*
X152169000Y-47600500D01*
X152169000Y-47600500D02*
X152169000Y-51840500D01*
X153289000Y-52490500D02*
X153289000Y-51840500D01*
X153289000Y-46950500D02*
X153289000Y-47600500D01*
X152169000Y-51120500D02*
X154409000Y-51120500D01*
X152169000Y-51000500D02*
X154409000Y-51000500D01*
X152169000Y-51240500D02*
X154409000Y-51240500D01*
G04 #@! TO.C,D3*
X154709000Y-51840500D02*
X156949000Y-51840500D01*
X156949000Y-51840500D02*
X156949000Y-47600500D01*
X156949000Y-47600500D02*
X154709000Y-47600500D01*
X154709000Y-47600500D02*
X154709000Y-51840500D01*
X155829000Y-52490500D02*
X155829000Y-51840500D01*
X155829000Y-46950500D02*
X155829000Y-47600500D01*
X154709000Y-51120500D02*
X156949000Y-51120500D01*
X154709000Y-51000500D02*
X156949000Y-51000500D01*
X154709000Y-51240500D02*
X156949000Y-51240500D01*
G04 #@! TO.C,D4*
X157249000Y-51840500D02*
X159489000Y-51840500D01*
X159489000Y-51840500D02*
X159489000Y-47600500D01*
X159489000Y-47600500D02*
X157249000Y-47600500D01*
X157249000Y-47600500D02*
X157249000Y-51840500D01*
X158369000Y-52490500D02*
X158369000Y-51840500D01*
X158369000Y-46950500D02*
X158369000Y-47600500D01*
X157249000Y-51120500D02*
X159489000Y-51120500D01*
X157249000Y-51000500D02*
X159489000Y-51000500D01*
X157249000Y-51240500D02*
X159489000Y-51240500D01*
G04 #@! TO.C,D5*
X159789000Y-51840500D02*
X162029000Y-51840500D01*
X162029000Y-51840500D02*
X162029000Y-47600500D01*
X162029000Y-47600500D02*
X159789000Y-47600500D01*
X159789000Y-47600500D02*
X159789000Y-51840500D01*
X160909000Y-52490500D02*
X160909000Y-51840500D01*
X160909000Y-46950500D02*
X160909000Y-47600500D01*
X159789000Y-51120500D02*
X162029000Y-51120500D01*
X159789000Y-51000500D02*
X162029000Y-51000500D01*
X159789000Y-51240500D02*
X162029000Y-51240500D01*
G04 #@! TO.C,D6*
X173188000Y-54253500D02*
X175428000Y-54253500D01*
X175428000Y-54253500D02*
X175428000Y-50013500D01*
X175428000Y-50013500D02*
X173188000Y-50013500D01*
X173188000Y-50013500D02*
X173188000Y-54253500D01*
X174308000Y-54903500D02*
X174308000Y-54253500D01*
X174308000Y-49363500D02*
X174308000Y-50013500D01*
X173188000Y-53533500D02*
X175428000Y-53533500D01*
X173188000Y-53413500D02*
X175428000Y-53413500D01*
X173188000Y-53653500D02*
X175428000Y-53653500D01*
G04 #@! TO.C,D7*
X136167000Y-54253500D02*
X138407000Y-54253500D01*
X138407000Y-54253500D02*
X138407000Y-50013500D01*
X138407000Y-50013500D02*
X136167000Y-50013500D01*
X136167000Y-50013500D02*
X136167000Y-54253500D01*
X137287000Y-54903500D02*
X137287000Y-54253500D01*
X137287000Y-49363500D02*
X137287000Y-50013500D01*
X136167000Y-53533500D02*
X138407000Y-53533500D01*
X136167000Y-53413500D02*
X138407000Y-53413500D01*
X136167000Y-53653500D02*
X138407000Y-53653500D01*
G04 #@! TO.C,D8*
X135867000Y-50013500D02*
X133627000Y-50013500D01*
X133627000Y-50013500D02*
X133627000Y-54253500D01*
X133627000Y-54253500D02*
X135867000Y-54253500D01*
X135867000Y-54253500D02*
X135867000Y-50013500D01*
X134747000Y-49363500D02*
X134747000Y-50013500D01*
X134747000Y-54903500D02*
X134747000Y-54253500D01*
X135867000Y-50733500D02*
X133627000Y-50733500D01*
X135867000Y-50853500D02*
X133627000Y-50853500D01*
X135867000Y-50613500D02*
X133627000Y-50613500D01*
G04 #@! TO.C,D9*
X149629000Y-51840500D02*
X151869000Y-51840500D01*
X151869000Y-51840500D02*
X151869000Y-47600500D01*
X151869000Y-47600500D02*
X149629000Y-47600500D01*
X149629000Y-47600500D02*
X149629000Y-51840500D01*
X150749000Y-52490500D02*
X150749000Y-51840500D01*
X150749000Y-46950500D02*
X150749000Y-47600500D01*
X149629000Y-51120500D02*
X151869000Y-51120500D01*
X149629000Y-51000500D02*
X151869000Y-51000500D01*
X149629000Y-51240500D02*
X151869000Y-51240500D01*
G04 #@! TO.C,D10*
X149329000Y-47600500D02*
X147089000Y-47600500D01*
X147089000Y-47600500D02*
X147089000Y-51840500D01*
X147089000Y-51840500D02*
X149329000Y-51840500D01*
X149329000Y-51840500D02*
X149329000Y-47600500D01*
X148209000Y-46950500D02*
X148209000Y-47600500D01*
X148209000Y-52490500D02*
X148209000Y-51840500D01*
X149329000Y-48320500D02*
X147089000Y-48320500D01*
X149329000Y-48440500D02*
X147089000Y-48440500D01*
X149329000Y-48200500D02*
X147089000Y-48200500D01*
G04 #@! TO.C,D11*
X170648000Y-54253500D02*
X172888000Y-54253500D01*
X172888000Y-54253500D02*
X172888000Y-50013500D01*
X172888000Y-50013500D02*
X170648000Y-50013500D01*
X170648000Y-50013500D02*
X170648000Y-54253500D01*
X171768000Y-54903500D02*
X171768000Y-54253500D01*
X171768000Y-49363500D02*
X171768000Y-50013500D01*
X170648000Y-53533500D02*
X172888000Y-53533500D01*
X170648000Y-53413500D02*
X172888000Y-53413500D01*
X170648000Y-53653500D02*
X172888000Y-53653500D01*
G04 #@! TO.C,D12*
X170348000Y-50013500D02*
X168108000Y-50013500D01*
X168108000Y-50013500D02*
X168108000Y-54253500D01*
X168108000Y-54253500D02*
X170348000Y-54253500D01*
X170348000Y-54253500D02*
X170348000Y-50013500D01*
X169228000Y-49363500D02*
X169228000Y-50013500D01*
X169228000Y-54903500D02*
X169228000Y-54253500D01*
X170348000Y-50733500D02*
X168108000Y-50733500D01*
X170348000Y-50853500D02*
X168108000Y-50853500D01*
X170348000Y-50613500D02*
X168108000Y-50613500D01*
G04 #@! TO.C,R1*
X133127000Y-50213500D02*
X131287000Y-50213500D01*
X131287000Y-50213500D02*
X131287000Y-54053500D01*
X131287000Y-54053500D02*
X133127000Y-54053500D01*
X133127000Y-54053500D02*
X133127000Y-50213500D01*
X132207000Y-49263500D02*
X132207000Y-50213500D01*
X132207000Y-55003500D02*
X132207000Y-54053500D01*
G04 #@! TO.C,R2*
X141447000Y-54053500D02*
X143287000Y-54053500D01*
X143287000Y-54053500D02*
X143287000Y-50213500D01*
X143287000Y-50213500D02*
X141447000Y-50213500D01*
X141447000Y-50213500D02*
X141447000Y-54053500D01*
X142367000Y-55003500D02*
X142367000Y-54053500D01*
X142367000Y-49263500D02*
X142367000Y-50213500D01*
G04 #@! TO.C,R3*
X146589000Y-47800500D02*
X144749000Y-47800500D01*
X144749000Y-47800500D02*
X144749000Y-51640500D01*
X144749000Y-51640500D02*
X146589000Y-51640500D01*
X146589000Y-51640500D02*
X146589000Y-47800500D01*
X145669000Y-46850500D02*
X145669000Y-47800500D01*
X145669000Y-52590500D02*
X145669000Y-51640500D01*
G04 #@! TO.C,R4*
X162529000Y-51640500D02*
X164369000Y-51640500D01*
X164369000Y-51640500D02*
X164369000Y-47800500D01*
X164369000Y-47800500D02*
X162529000Y-47800500D01*
X162529000Y-47800500D02*
X162529000Y-51640500D01*
X163449000Y-52590500D02*
X163449000Y-51640500D01*
X163449000Y-46850500D02*
X163449000Y-47800500D01*
G04 #@! TO.C,R5*
X167608000Y-50213500D02*
X165768000Y-50213500D01*
X165768000Y-50213500D02*
X165768000Y-54053500D01*
X165768000Y-54053500D02*
X167608000Y-54053500D01*
X167608000Y-54053500D02*
X167608000Y-50213500D01*
X166688000Y-49263500D02*
X166688000Y-50213500D01*
X166688000Y-55003500D02*
X166688000Y-54053500D01*
G04 #@! TO.C,R6*
X175928000Y-54053500D02*
X177768000Y-54053500D01*
X177768000Y-54053500D02*
X177768000Y-50213500D01*
X177768000Y-50213500D02*
X175928000Y-50213500D01*
X175928000Y-50213500D02*
X175928000Y-54053500D01*
X176848000Y-55003500D02*
X176848000Y-54053500D01*
X176848000Y-49263500D02*
X176848000Y-50213500D01*
G04 #@! TO.C,VT1*
X137945878Y-42572111D02*
G75*
G03X137936000Y-38683500I1690122J1948611D01*
G01*
X137936000Y-38683500D02*
X137936000Y-42533500D01*
G04 #@! TO.C,VT2*
X145756878Y-42572111D02*
G75*
G03X145747000Y-38683500I1690122J1948611D01*
G01*
X145747000Y-38683500D02*
X145747000Y-42533500D01*
G04 #@! TO.C,VT3*
X171918878Y-42572111D02*
G75*
G03X171909000Y-38683500I1690122J1948611D01*
G01*
X171909000Y-38683500D02*
X171909000Y-42533500D01*
G04 #@! TO.C,J1*
D11*
X134298666Y-41873880D02*
X134298666Y-42588166D01*
X134251047Y-42731023D01*
X134155809Y-42826261D01*
X134012952Y-42873880D01*
X133917714Y-42873880D01*
X135298666Y-42873880D02*
X134727238Y-42873880D01*
X135012952Y-42873880D02*
X135012952Y-41873880D01*
X134917714Y-42016738D01*
X134822476Y-42111976D01*
X134727238Y-42159595D01*
G04 #@! TO.C,D1*
X140152380Y-52681095D02*
X139152380Y-52681095D01*
X139152380Y-52443000D01*
X139200000Y-52300142D01*
X139295238Y-52204904D01*
X139390476Y-52157285D01*
X139580952Y-52109666D01*
X139723809Y-52109666D01*
X139914285Y-52157285D01*
X140009523Y-52204904D01*
X140104761Y-52300142D01*
X140152380Y-52443000D01*
X140152380Y-52681095D01*
X140152380Y-51157285D02*
X140152380Y-51728714D01*
X140152380Y-51443000D02*
X139152380Y-51443000D01*
X139295238Y-51538238D01*
X139390476Y-51633476D01*
X139438095Y-51728714D01*
G04 #@! TO.C,D2*
X153614380Y-50331595D02*
X152614380Y-50331595D01*
X152614380Y-50093500D01*
X152662000Y-49950642D01*
X152757238Y-49855404D01*
X152852476Y-49807785D01*
X153042952Y-49760166D01*
X153185809Y-49760166D01*
X153376285Y-49807785D01*
X153471523Y-49855404D01*
X153566761Y-49950642D01*
X153614380Y-50093500D01*
X153614380Y-50331595D01*
X152709619Y-49379214D02*
X152662000Y-49331595D01*
X152614380Y-49236357D01*
X152614380Y-48998261D01*
X152662000Y-48903023D01*
X152709619Y-48855404D01*
X152804857Y-48807785D01*
X152900095Y-48807785D01*
X153042952Y-48855404D01*
X153614380Y-49426833D01*
X153614380Y-48807785D01*
G04 #@! TO.C,D3*
X156154380Y-50395095D02*
X155154380Y-50395095D01*
X155154380Y-50157000D01*
X155202000Y-50014142D01*
X155297238Y-49918904D01*
X155392476Y-49871285D01*
X155582952Y-49823666D01*
X155725809Y-49823666D01*
X155916285Y-49871285D01*
X156011523Y-49918904D01*
X156106761Y-50014142D01*
X156154380Y-50157000D01*
X156154380Y-50395095D01*
X155154380Y-49490333D02*
X155154380Y-48871285D01*
X155535333Y-49204619D01*
X155535333Y-49061761D01*
X155582952Y-48966523D01*
X155630571Y-48918904D01*
X155725809Y-48871285D01*
X155963904Y-48871285D01*
X156059142Y-48918904D01*
X156106761Y-48966523D01*
X156154380Y-49061761D01*
X156154380Y-49347476D01*
X156106761Y-49442714D01*
X156059142Y-49490333D01*
G04 #@! TO.C,D4*
X158915379Y-50263596D02*
X157915379Y-50263596D01*
X157915379Y-50025501D01*
X157962999Y-49882643D01*
X158058237Y-49787405D01*
X158153475Y-49739786D01*
X158343951Y-49692167D01*
X158486808Y-49692167D01*
X158677284Y-49739786D01*
X158772522Y-49787405D01*
X158867760Y-49882643D01*
X158915379Y-50025501D01*
X158915379Y-50263596D01*
X158248713Y-48835024D02*
X158915379Y-48835024D01*
X157867760Y-49073120D02*
X158582046Y-49311215D01*
X158582046Y-48692167D01*
G04 #@! TO.C,D5*
X161488380Y-50395095D02*
X160488380Y-50395095D01*
X160488380Y-50157000D01*
X160536000Y-50014142D01*
X160631238Y-49918904D01*
X160726476Y-49871285D01*
X160916952Y-49823666D01*
X161059809Y-49823666D01*
X161250285Y-49871285D01*
X161345523Y-49918904D01*
X161440761Y-50014142D01*
X161488380Y-50157000D01*
X161488380Y-50395095D01*
X160488380Y-48918904D02*
X160488380Y-49395095D01*
X160964571Y-49442714D01*
X160916952Y-49395095D01*
X160869333Y-49299857D01*
X160869333Y-49061761D01*
X160916952Y-48966523D01*
X160964571Y-48918904D01*
X161059809Y-48871285D01*
X161297904Y-48871285D01*
X161393142Y-48918904D01*
X161440761Y-48966523D01*
X161488380Y-49061761D01*
X161488380Y-49299857D01*
X161440761Y-49395095D01*
X161393142Y-49442714D01*
G04 #@! TO.C,D6*
X174854379Y-52785596D02*
X173854379Y-52785596D01*
X173854379Y-52547501D01*
X173901999Y-52404643D01*
X173997237Y-52309405D01*
X174092475Y-52261786D01*
X174282951Y-52214167D01*
X174425808Y-52214167D01*
X174616284Y-52261786D01*
X174711522Y-52309405D01*
X174806760Y-52404643D01*
X174854379Y-52547501D01*
X174854379Y-52785596D01*
X173854379Y-51357024D02*
X173854379Y-51547501D01*
X173901999Y-51642739D01*
X173949618Y-51690358D01*
X174092475Y-51785596D01*
X174282951Y-51833215D01*
X174663903Y-51833215D01*
X174759141Y-51785596D01*
X174806760Y-51737977D01*
X174854379Y-51642739D01*
X174854379Y-51452262D01*
X174806760Y-51357024D01*
X174759141Y-51309405D01*
X174663903Y-51261786D01*
X174425808Y-51261786D01*
X174330570Y-51309405D01*
X174282951Y-51357024D01*
X174235332Y-51452262D01*
X174235332Y-51642739D01*
X174282951Y-51737977D01*
X174330570Y-51785596D01*
X174425808Y-51833215D01*
G04 #@! TO.C,D7*
X137739380Y-52744595D02*
X136739380Y-52744595D01*
X136739380Y-52506500D01*
X136787000Y-52363642D01*
X136882238Y-52268404D01*
X136977476Y-52220785D01*
X137167952Y-52173166D01*
X137310809Y-52173166D01*
X137501285Y-52220785D01*
X137596523Y-52268404D01*
X137691761Y-52363642D01*
X137739380Y-52506500D01*
X137739380Y-52744595D01*
X136739380Y-51839833D02*
X136739380Y-51173166D01*
X137739380Y-51601738D01*
G04 #@! TO.C,D8*
X135262880Y-53252595D02*
X134262880Y-53252595D01*
X134262880Y-53014500D01*
X134310500Y-52871642D01*
X134405738Y-52776404D01*
X134500976Y-52728785D01*
X134691452Y-52681166D01*
X134834309Y-52681166D01*
X135024785Y-52728785D01*
X135120023Y-52776404D01*
X135215261Y-52871642D01*
X135262880Y-53014500D01*
X135262880Y-53252595D01*
X134691452Y-52109738D02*
X134643833Y-52204976D01*
X134596214Y-52252595D01*
X134500976Y-52300214D01*
X134453357Y-52300214D01*
X134358119Y-52252595D01*
X134310500Y-52204976D01*
X134262880Y-52109738D01*
X134262880Y-51919261D01*
X134310500Y-51824023D01*
X134358119Y-51776404D01*
X134453357Y-51728785D01*
X134500976Y-51728785D01*
X134596214Y-51776404D01*
X134643833Y-51824023D01*
X134691452Y-51919261D01*
X134691452Y-52109738D01*
X134739071Y-52204976D01*
X134786690Y-52252595D01*
X134881928Y-52300214D01*
X135072404Y-52300214D01*
X135167642Y-52252595D01*
X135215261Y-52204976D01*
X135262880Y-52109738D01*
X135262880Y-51919261D01*
X135215261Y-51824023D01*
X135167642Y-51776404D01*
X135072404Y-51728785D01*
X134881928Y-51728785D01*
X134786690Y-51776404D01*
X134739071Y-51824023D01*
X134691452Y-51919261D01*
G04 #@! TO.C,D9*
X151158379Y-50436096D02*
X150158379Y-50436096D01*
X150158379Y-50198001D01*
X150205999Y-50055143D01*
X150301237Y-49959905D01*
X150396475Y-49912286D01*
X150586951Y-49864667D01*
X150729808Y-49864667D01*
X150920284Y-49912286D01*
X151015522Y-49959905D01*
X151110760Y-50055143D01*
X151158379Y-50198001D01*
X151158379Y-50436096D01*
X151158379Y-49388477D02*
X151158379Y-49198001D01*
X151110760Y-49102762D01*
X151063141Y-49055143D01*
X150920284Y-48959905D01*
X150729808Y-48912286D01*
X150348856Y-48912286D01*
X150253618Y-48959905D01*
X150205999Y-49007524D01*
X150158379Y-49102762D01*
X150158379Y-49293239D01*
X150205999Y-49388477D01*
X150253618Y-49436096D01*
X150348856Y-49483715D01*
X150586951Y-49483715D01*
X150682189Y-49436096D01*
X150729808Y-49388477D01*
X150777427Y-49293239D01*
X150777427Y-49102762D01*
X150729808Y-49007524D01*
X150682189Y-48959905D01*
X150586951Y-48912286D01*
G04 #@! TO.C,D10*
X148650881Y-51256784D02*
X147650881Y-51256784D01*
X147650881Y-51018689D01*
X147698501Y-50875832D01*
X147793739Y-50780594D01*
X147888977Y-50732975D01*
X148079453Y-50685356D01*
X148222310Y-50685356D01*
X148412786Y-50732975D01*
X148508024Y-50780594D01*
X148603262Y-50875832D01*
X148650881Y-51018689D01*
X148650881Y-51256784D01*
X148650881Y-49732975D02*
X148650881Y-50304403D01*
X148650881Y-50018689D02*
X147650881Y-50018689D01*
X147793739Y-50113927D01*
X147888977Y-50209165D01*
X147936596Y-50304403D01*
X147650881Y-49113927D02*
X147650881Y-49018689D01*
X147698501Y-48923451D01*
X147746120Y-48875832D01*
X147841358Y-48828213D01*
X148031834Y-48780594D01*
X148269929Y-48780594D01*
X148460405Y-48828213D01*
X148555643Y-48875832D01*
X148603262Y-48923451D01*
X148650881Y-49018689D01*
X148650881Y-49113927D01*
X148603262Y-49209165D01*
X148555643Y-49256784D01*
X148460405Y-49304403D01*
X148269929Y-49352022D01*
X148031834Y-49352022D01*
X147841358Y-49304403D01*
X147746120Y-49256784D01*
X147698501Y-49209165D01*
X147650881Y-49113927D01*
G04 #@! TO.C,D11*
X172294379Y-53080286D02*
X171294379Y-53080286D01*
X171294379Y-52842191D01*
X171341999Y-52699334D01*
X171437237Y-52604096D01*
X171532475Y-52556477D01*
X171722951Y-52508858D01*
X171865808Y-52508858D01*
X172056284Y-52556477D01*
X172151522Y-52604096D01*
X172246760Y-52699334D01*
X172294379Y-52842191D01*
X172294379Y-53080286D01*
X172294379Y-51556477D02*
X172294379Y-52127905D01*
X172294379Y-51842191D02*
X171294379Y-51842191D01*
X171437237Y-51937429D01*
X171532475Y-52032667D01*
X171580094Y-52127905D01*
X172294379Y-50604096D02*
X172294379Y-51175524D01*
X172294379Y-50889810D02*
X171294379Y-50889810D01*
X171437237Y-50985048D01*
X171532475Y-51080286D01*
X171580094Y-51175524D01*
G04 #@! TO.C,D12*
X169606381Y-53751284D02*
X168606381Y-53751284D01*
X168606381Y-53513189D01*
X168654001Y-53370332D01*
X168749239Y-53275094D01*
X168844477Y-53227475D01*
X169034953Y-53179856D01*
X169177810Y-53179856D01*
X169368286Y-53227475D01*
X169463524Y-53275094D01*
X169558762Y-53370332D01*
X169606381Y-53513189D01*
X169606381Y-53751284D01*
X169606381Y-52227475D02*
X169606381Y-52798903D01*
X169606381Y-52513189D02*
X168606381Y-52513189D01*
X168749239Y-52608427D01*
X168844477Y-52703665D01*
X168892096Y-52798903D01*
X168701620Y-51846522D02*
X168654001Y-51798903D01*
X168606381Y-51703665D01*
X168606381Y-51465570D01*
X168654001Y-51370332D01*
X168701620Y-51322713D01*
X168796858Y-51275094D01*
X168892096Y-51275094D01*
X169034953Y-51322713D01*
X169606381Y-51894141D01*
X169606381Y-51275094D01*
G04 #@! TO.C,R1*
X132722880Y-52173166D02*
X132246690Y-52506500D01*
X132722880Y-52744595D02*
X131722880Y-52744595D01*
X131722880Y-52363642D01*
X131770500Y-52268404D01*
X131818119Y-52220785D01*
X131913357Y-52173166D01*
X132056214Y-52173166D01*
X132151452Y-52220785D01*
X132199071Y-52268404D01*
X132246690Y-52363642D01*
X132246690Y-52744595D01*
X132722880Y-51220785D02*
X132722880Y-51792214D01*
X132722880Y-51506500D02*
X131722880Y-51506500D01*
X131865738Y-51601738D01*
X131960976Y-51696976D01*
X132008595Y-51792214D01*
G04 #@! TO.C,R2*
X142755880Y-52173166D02*
X142279690Y-52506500D01*
X142755880Y-52744595D02*
X141755880Y-52744595D01*
X141755880Y-52363642D01*
X141803500Y-52268404D01*
X141851119Y-52220785D01*
X141946357Y-52173166D01*
X142089214Y-52173166D01*
X142184452Y-52220785D01*
X142232071Y-52268404D01*
X142279690Y-52363642D01*
X142279690Y-52744595D01*
X141851119Y-51792214D02*
X141803500Y-51744595D01*
X141755880Y-51649357D01*
X141755880Y-51411261D01*
X141803500Y-51316023D01*
X141851119Y-51268404D01*
X141946357Y-51220785D01*
X142041595Y-51220785D01*
X142184452Y-51268404D01*
X142755880Y-51839833D01*
X142755880Y-51220785D01*
G04 #@! TO.C,R3*
X146164381Y-49791665D02*
X145688191Y-50124999D01*
X146164381Y-50363094D02*
X145164381Y-50363094D01*
X145164381Y-49982141D01*
X145212001Y-49886903D01*
X145259620Y-49839284D01*
X145354858Y-49791665D01*
X145497715Y-49791665D01*
X145592953Y-49839284D01*
X145640572Y-49886903D01*
X145688191Y-49982141D01*
X145688191Y-50363094D01*
X145164381Y-49458332D02*
X145164381Y-48839284D01*
X145545334Y-49172618D01*
X145545334Y-49029760D01*
X145592953Y-48934522D01*
X145640572Y-48886903D01*
X145735810Y-48839284D01*
X145973905Y-48839284D01*
X146069143Y-48886903D01*
X146116762Y-48934522D01*
X146164381Y-49029760D01*
X146164381Y-49315475D01*
X146116762Y-49410713D01*
X146069143Y-49458332D01*
G04 #@! TO.C,R4*
X163911879Y-49982667D02*
X163435689Y-50316001D01*
X163911879Y-50554096D02*
X162911879Y-50554096D01*
X162911879Y-50173143D01*
X162959499Y-50077905D01*
X163007118Y-50030286D01*
X163102356Y-49982667D01*
X163245213Y-49982667D01*
X163340451Y-50030286D01*
X163388070Y-50077905D01*
X163435689Y-50173143D01*
X163435689Y-50554096D01*
X163245213Y-49125524D02*
X163911879Y-49125524D01*
X162864260Y-49363620D02*
X163578546Y-49601715D01*
X163578546Y-48982667D01*
G04 #@! TO.C,R5*
X167203880Y-51919166D02*
X166727690Y-52252500D01*
X167203880Y-52490595D02*
X166203880Y-52490595D01*
X166203880Y-52109642D01*
X166251500Y-52014404D01*
X166299119Y-51966785D01*
X166394357Y-51919166D01*
X166537214Y-51919166D01*
X166632452Y-51966785D01*
X166680071Y-52014404D01*
X166727690Y-52109642D01*
X166727690Y-52490595D01*
X166203880Y-51014404D02*
X166203880Y-51490595D01*
X166680071Y-51538214D01*
X166632452Y-51490595D01*
X166584833Y-51395357D01*
X166584833Y-51157261D01*
X166632452Y-51062023D01*
X166680071Y-51014404D01*
X166775309Y-50966785D01*
X167013404Y-50966785D01*
X167108642Y-51014404D01*
X167156261Y-51062023D01*
X167203880Y-51157261D01*
X167203880Y-51395357D01*
X167156261Y-51490595D01*
X167108642Y-51538214D01*
G04 #@! TO.C,R6*
X177300380Y-52173166D02*
X176824190Y-52506500D01*
X177300380Y-52744595D02*
X176300380Y-52744595D01*
X176300380Y-52363642D01*
X176348000Y-52268404D01*
X176395619Y-52220785D01*
X176490857Y-52173166D01*
X176633714Y-52173166D01*
X176728952Y-52220785D01*
X176776571Y-52268404D01*
X176824190Y-52363642D01*
X176824190Y-52744595D01*
X176300380Y-51316023D02*
X176300380Y-51506500D01*
X176348000Y-51601738D01*
X176395619Y-51649357D01*
X176538476Y-51744595D01*
X176728952Y-51792214D01*
X177109904Y-51792214D01*
X177205142Y-51744595D01*
X177252761Y-51696976D01*
X177300380Y-51601738D01*
X177300380Y-51411261D01*
X177252761Y-51316023D01*
X177205142Y-51268404D01*
X177109904Y-51220785D01*
X176871809Y-51220785D01*
X176776571Y-51268404D01*
X176728952Y-51316023D01*
X176681333Y-51411261D01*
X176681333Y-51601738D01*
X176728952Y-51696976D01*
X176776571Y-51744595D01*
X176871809Y-51792214D01*
G04 #@! TO.C,VT1*
X142648380Y-41813976D02*
X143648380Y-41480642D01*
X142648380Y-41147309D01*
X142648380Y-40956833D02*
X142648380Y-40385404D01*
X143648380Y-40671119D02*
X142648380Y-40671119D01*
X143648380Y-39528261D02*
X143648380Y-40099690D01*
X143648380Y-39813976D02*
X142648380Y-39813976D01*
X142791238Y-39909214D01*
X142886476Y-40004452D01*
X142934095Y-40099690D01*
G04 #@! TO.C,VT2*
X150459380Y-41813976D02*
X151459380Y-41480642D01*
X150459380Y-41147309D01*
X150459380Y-40956833D02*
X150459380Y-40385404D01*
X151459380Y-40671119D02*
X150459380Y-40671119D01*
X150554619Y-40099690D02*
X150507000Y-40052071D01*
X150459380Y-39956833D01*
X150459380Y-39718738D01*
X150507000Y-39623500D01*
X150554619Y-39575880D01*
X150649857Y-39528261D01*
X150745095Y-39528261D01*
X150887952Y-39575880D01*
X151459380Y-40147309D01*
X151459380Y-39528261D01*
G04 #@! TO.C,VT3*
X176621380Y-41813976D02*
X177621380Y-41480642D01*
X176621380Y-41147309D01*
X176621380Y-40956833D02*
X176621380Y-40385404D01*
X177621380Y-40671119D02*
X176621380Y-40671119D01*
X176621380Y-40147309D02*
X176621380Y-39528261D01*
X177002333Y-39861595D01*
X177002333Y-39718738D01*
X177049952Y-39623500D01*
X177097571Y-39575880D01*
X177192809Y-39528261D01*
X177430904Y-39528261D01*
X177526142Y-39575880D01*
X177573761Y-39623500D01*
X177621380Y-39718738D01*
X177621380Y-40004452D01*
X177573761Y-40099690D01*
X177526142Y-40147309D01*
G04 #@! TD*
M02*
