M48
;DRILL file {KiCad (5.0.0)} date 01/17/19 16:22:00
;FORMAT={-:-/ absolute / inch / decimal}
FMAT,2
INCH,TZ
T1C0.0276
T2C0.0295
T3C0.0300
T4C0.0315
%
G90
G05
M72
T1
X6.5625Y-1.9025
X6.5625Y-2.2025
X6.9625Y-1.9025
X6.9625Y-2.2025
X5.735Y-1.8075
X5.735Y-2.1075
X5.205Y-1.9025
X5.205Y-2.2025
X5.605Y-1.9025
X5.605Y-2.2025
X6.435Y-1.8075
X6.435Y-2.1075
T2
X5.755Y-1.6025
X5.805Y-1.5525
X5.805Y-1.6525
X5.4475Y-1.6025
X5.4975Y-1.5525
X5.4975Y-1.6525
X6.785Y-1.6025
X6.835Y-1.5525
X6.835Y-1.6525
T3
X5.1755Y-1.5255
X5.1755Y-1.6255
X5.1755Y-1.7255
X5.8505Y-2.2505
X5.9505Y-2.2505
X6.0005Y-1.5255
X6.0505Y-2.2505
X6.1005Y-1.5255
X6.1505Y-2.2505
X6.2005Y-1.5255
X6.2505Y-2.2505
X6.3505Y-2.2505
T4
X5.305Y-1.9025
X5.305Y-2.2025
X6.7625Y-1.9025
X6.7625Y-2.2025
X5.835Y-1.8075
X5.835Y-2.1075
X6.235Y-1.8075
X6.235Y-2.1075
X6.335Y-1.8075
X6.335Y-2.1075
X6.6625Y-1.9025
X6.6625Y-2.2025
X5.935Y-1.8075
X5.935Y-2.1075
X6.8625Y-1.9025
X6.8625Y-2.2025
X6.035Y-1.8075
X6.035Y-2.1075
X5.505Y-1.9025
X5.505Y-2.2025
X5.405Y-1.9025
X5.405Y-2.2025
X6.135Y-1.8075
X6.135Y-2.1075
T0
M30
