G04 #@! TF.FileFunction,Copper,L1,Top,Signal*
%FSLAX46Y46*%
G04 Gerber Fmt 4.6, Leading zero omitted, Abs format (unit mm)*
G04 Created by KiCad (PCBNEW 4.0.7) date 06/16/18 15:25:26*
%MOMM*%
%LPD*%
G01*
G04 APERTURE LIST*
%ADD10C,0.100000*%
%ADD11C,0.500000*%
%ADD12R,1.524000X1.524000*%
%ADD13C,1.524000*%
%ADD14C,5.700000*%
%ADD15C,1.600000*%
%ADD16R,1.600000X1.600000*%
%ADD17O,1.600000X1.600000*%
%ADD18R,1.350000X1.350000*%
%ADD19C,1.350000*%
%ADD20C,1.250000*%
%ADD21C,0.600000*%
%ADD22C,1.000000*%
%ADD23C,0.750000*%
%ADD24C,0.250000*%
G04 APERTURE END LIST*
D10*
D11*
X135131905Y-26074286D02*
X136465238Y-26074286D01*
X137036667Y-28169524D02*
X135131905Y-28169524D01*
X135131905Y-24169524D01*
X137036667Y-24169524D01*
X139322382Y-28169524D02*
X138941429Y-27979048D01*
X138750953Y-27598095D01*
X138750953Y-24169524D01*
X141417620Y-28169524D02*
X141036667Y-27979048D01*
X140846191Y-27598095D01*
X140846191Y-24169524D01*
X142941429Y-28169524D02*
X142941429Y-25502857D01*
X142941429Y-24169524D02*
X142750953Y-24360000D01*
X142941429Y-24550476D01*
X143131905Y-24360000D01*
X142941429Y-24169524D01*
X142941429Y-24550476D01*
X145417620Y-28169524D02*
X145036667Y-27979048D01*
X144846191Y-27788571D01*
X144655715Y-27407619D01*
X144655715Y-26264762D01*
X144846191Y-25883810D01*
X145036667Y-25693333D01*
X145417620Y-25502857D01*
X145989048Y-25502857D01*
X146370000Y-25693333D01*
X146560477Y-25883810D01*
X146750953Y-26264762D01*
X146750953Y-27407619D01*
X146560477Y-27788571D01*
X146370000Y-27979048D01*
X145989048Y-28169524D01*
X145417620Y-28169524D01*
X147893810Y-25502857D02*
X149417620Y-25502857D01*
X148465239Y-24169524D02*
X148465239Y-27598095D01*
X148655715Y-27979048D01*
X149036668Y-28169524D01*
X149417620Y-28169524D01*
X150179524Y-25502857D02*
X151703334Y-25502857D01*
X150750953Y-24169524D02*
X150750953Y-27598095D01*
X150941429Y-27979048D01*
X151322382Y-28169524D01*
X151703334Y-28169524D01*
X156274762Y-28169524D02*
X157036667Y-28169524D01*
X157417619Y-27979048D01*
X157608095Y-27788571D01*
X157989048Y-27217143D01*
X158179524Y-26455238D01*
X158179524Y-24931429D01*
X157989048Y-24550476D01*
X157798572Y-24360000D01*
X157417619Y-24169524D01*
X156655715Y-24169524D01*
X156274762Y-24360000D01*
X156084286Y-24550476D01*
X155893810Y-24931429D01*
X155893810Y-25883810D01*
X156084286Y-26264762D01*
X156274762Y-26455238D01*
X156655715Y-26645714D01*
X157417619Y-26645714D01*
X157798572Y-26455238D01*
X157989048Y-26264762D01*
X158179524Y-25883810D01*
X160655715Y-24169524D02*
X161036667Y-24169524D01*
X161417619Y-24360000D01*
X161608096Y-24550476D01*
X161798572Y-24931429D01*
X161989048Y-25693333D01*
X161989048Y-26645714D01*
X161798572Y-27407619D01*
X161608096Y-27788571D01*
X161417619Y-27979048D01*
X161036667Y-28169524D01*
X160655715Y-28169524D01*
X160274762Y-27979048D01*
X160084286Y-27788571D01*
X159893810Y-27407619D01*
X159703334Y-26645714D01*
X159703334Y-25693333D01*
X159893810Y-24931429D01*
X160084286Y-24550476D01*
X160274762Y-24360000D01*
X160655715Y-24169524D01*
X163322382Y-24169524D02*
X165798572Y-24169524D01*
X164465239Y-25693333D01*
X165036667Y-25693333D01*
X165417620Y-25883810D01*
X165608096Y-26074286D01*
X165798572Y-26455238D01*
X165798572Y-27407619D01*
X165608096Y-27788571D01*
X165417620Y-27979048D01*
X165036667Y-28169524D01*
X163893810Y-28169524D01*
X163512858Y-27979048D01*
X163322382Y-27788571D01*
X147512857Y-34288571D02*
X147322381Y-34479048D01*
X146750952Y-34669524D01*
X146370000Y-34669524D01*
X145798572Y-34479048D01*
X145417619Y-34098095D01*
X145227143Y-33717143D01*
X145036667Y-32955238D01*
X145036667Y-32383810D01*
X145227143Y-31621905D01*
X145417619Y-31240952D01*
X145798572Y-30860000D01*
X146370000Y-30669524D01*
X146750952Y-30669524D01*
X147322381Y-30860000D01*
X147512857Y-31050476D01*
X149227143Y-34669524D02*
X149227143Y-30669524D01*
X150750952Y-30669524D01*
X151131905Y-30860000D01*
X151322381Y-31050476D01*
X151512857Y-31431429D01*
X151512857Y-32002857D01*
X151322381Y-32383810D01*
X151131905Y-32574286D01*
X150750952Y-32764762D01*
X149227143Y-32764762D01*
X153227143Y-30669524D02*
X153227143Y-33907619D01*
X153417619Y-34288571D01*
X153608095Y-34479048D01*
X153989048Y-34669524D01*
X154750952Y-34669524D01*
X155131905Y-34479048D01*
X155322381Y-34288571D01*
X155512857Y-33907619D01*
X155512857Y-30669524D01*
D12*
X58420000Y-97790000D03*
D13*
X58420000Y-100330000D03*
X71120000Y-97790000D03*
X60960000Y-100330000D03*
X73660000Y-97790000D03*
X63500000Y-100330000D03*
X76200000Y-97790000D03*
X66040000Y-100330000D03*
X78740000Y-97790000D03*
X68580000Y-100330000D03*
X81280000Y-97790000D03*
X71120000Y-100330000D03*
X83820000Y-97790000D03*
X73660000Y-100330000D03*
X86360000Y-97790000D03*
X76200000Y-100330000D03*
X88900000Y-97790000D03*
X78740000Y-100330000D03*
X91440000Y-97790000D03*
X81280000Y-100330000D03*
X93980000Y-97790000D03*
X83820000Y-100330000D03*
X96520000Y-97790000D03*
X86360000Y-100330000D03*
X88900000Y-100330000D03*
X99060000Y-97790000D03*
X91440000Y-100330000D03*
X96520000Y-100330000D03*
X99060000Y-100330000D03*
X101600000Y-100330000D03*
X104140000Y-100330000D03*
X101600000Y-97790000D03*
X104140000Y-97790000D03*
X60960000Y-97790000D03*
X63500000Y-97790000D03*
X66040000Y-97790000D03*
X68580000Y-97790000D03*
X106680000Y-97790000D03*
X106680000Y-100330000D03*
X93980000Y-100330000D03*
D14*
X53550000Y-99060000D03*
X111550000Y-99060000D03*
X111550000Y-50060000D03*
X53550000Y-50060000D03*
D15*
X142240000Y-53340000D03*
X142240000Y-58340000D03*
X142240000Y-62230000D03*
X142240000Y-67230000D03*
X153670000Y-49530000D03*
X148670000Y-49530000D03*
X142240000Y-76835000D03*
X142240000Y-71835000D03*
X76280000Y-110490000D03*
X81280000Y-110490000D03*
X82550000Y-39370000D03*
X87550000Y-39370000D03*
X134620000Y-39370000D03*
X139620000Y-39370000D03*
D16*
X68580000Y-110490000D03*
D15*
X68580000Y-112990000D03*
X183870000Y-46610000D03*
X178870000Y-46610000D03*
X181370000Y-102860000D03*
D17*
X181370000Y-92700000D03*
D15*
X174870000Y-102860000D03*
D17*
X174870000Y-92700000D03*
D15*
X128270000Y-34290000D03*
D17*
X118110000Y-34290000D03*
D15*
X128270000Y-38100000D03*
D17*
X118110000Y-38100000D03*
D15*
X66710000Y-34360000D03*
D17*
X76870000Y-34360000D03*
D15*
X66675000Y-39370000D03*
D17*
X76835000Y-39370000D03*
D15*
X158750000Y-55880000D03*
D17*
X158750000Y-45720000D03*
D15*
X198620000Y-41860000D03*
D17*
X188460000Y-41860000D03*
D15*
X184120000Y-41860000D03*
D17*
X173960000Y-41860000D03*
D16*
X64770000Y-73660000D03*
D17*
X92710000Y-58420000D03*
X67310000Y-73660000D03*
X82550000Y-58420000D03*
X69850000Y-73660000D03*
X80010000Y-58420000D03*
X72390000Y-73660000D03*
X77470000Y-58420000D03*
X74930000Y-73660000D03*
X74930000Y-58420000D03*
X77470000Y-73660000D03*
X90170000Y-58420000D03*
X80010000Y-73660000D03*
X87630000Y-58420000D03*
X82550000Y-73660000D03*
X85090000Y-58420000D03*
D13*
X85090000Y-73660000D03*
X87630000Y-73660000D03*
X90170000Y-73660000D03*
X92710000Y-73660000D03*
D17*
X72390000Y-58420000D03*
X69850000Y-58420000D03*
X67310000Y-58420000D03*
X64770000Y-58420000D03*
D16*
X189000000Y-64590000D03*
D17*
X196620000Y-97610000D03*
X189000000Y-67130000D03*
X196620000Y-95070000D03*
X189000000Y-69670000D03*
X196620000Y-92530000D03*
X189000000Y-72210000D03*
X196620000Y-89990000D03*
X189000000Y-74750000D03*
X196620000Y-87450000D03*
X189000000Y-77290000D03*
X196620000Y-84910000D03*
X189000000Y-79830000D03*
X196620000Y-82370000D03*
X189000000Y-82370000D03*
X196620000Y-79830000D03*
X189000000Y-84910000D03*
X196620000Y-77290000D03*
X189000000Y-87450000D03*
X196620000Y-74750000D03*
X189000000Y-89990000D03*
X196620000Y-72210000D03*
X189000000Y-92530000D03*
X196620000Y-69670000D03*
X189000000Y-95070000D03*
X196620000Y-67130000D03*
X189000000Y-97610000D03*
X196620000Y-64590000D03*
D16*
X147320000Y-55880000D03*
D17*
X154940000Y-73660000D03*
X147320000Y-58420000D03*
X154940000Y-71120000D03*
X147320000Y-60960000D03*
X154940000Y-68580000D03*
X147320000Y-63500000D03*
X154940000Y-66040000D03*
X147320000Y-66040000D03*
X154940000Y-63500000D03*
X147320000Y-68580000D03*
X154940000Y-60960000D03*
X147320000Y-71120000D03*
X154940000Y-58420000D03*
X147320000Y-73660000D03*
X154940000Y-55880000D03*
D16*
X213000000Y-64630000D03*
D17*
X220620000Y-97650000D03*
X213000000Y-67170000D03*
X220620000Y-95110000D03*
X213000000Y-69710000D03*
X220620000Y-92570000D03*
X213000000Y-72250000D03*
X220620000Y-90030000D03*
X213000000Y-74790000D03*
X220620000Y-87490000D03*
X213000000Y-77330000D03*
X220620000Y-84950000D03*
X213000000Y-79870000D03*
X220620000Y-82410000D03*
X213000000Y-82410000D03*
X220620000Y-79870000D03*
X213000000Y-84950000D03*
X220620000Y-77330000D03*
X213000000Y-87490000D03*
X220620000Y-74790000D03*
X213000000Y-90030000D03*
X220620000Y-72250000D03*
X213000000Y-92570000D03*
X220620000Y-69710000D03*
X213000000Y-95110000D03*
X220620000Y-67170000D03*
X213000000Y-97650000D03*
X220620000Y-64630000D03*
D18*
X59370000Y-32985000D03*
D19*
X57370000Y-32985000D03*
X55370000Y-32985000D03*
X53370000Y-32985000D03*
X51370000Y-32985000D03*
D20*
X61620000Y-35360000D03*
X61620000Y-30610000D03*
X49120000Y-35360000D03*
X49120000Y-30610000D03*
D18*
X108370000Y-33110000D03*
D19*
X106370000Y-33110000D03*
X104370000Y-33110000D03*
X102370000Y-33110000D03*
X100370000Y-33110000D03*
D20*
X110620000Y-35485000D03*
X110620000Y-30735000D03*
X98120000Y-35485000D03*
X98120000Y-30735000D03*
D18*
X237120000Y-33735000D03*
D19*
X239120000Y-33735000D03*
X241120000Y-33735000D03*
X243120000Y-33735000D03*
X245120000Y-33735000D03*
X247120000Y-33735000D03*
X237120000Y-31735000D03*
X239120000Y-31735000D03*
X241120000Y-31735000D03*
X243120000Y-31735000D03*
X245120000Y-31735000D03*
X247120000Y-31735000D03*
D20*
X234870000Y-30360000D03*
X234870000Y-35110000D03*
X249370000Y-30360000D03*
X249370000Y-35110000D03*
D18*
X209370000Y-33985000D03*
D19*
X211370000Y-33985000D03*
X213370000Y-33985000D03*
X215370000Y-33985000D03*
X217370000Y-33985000D03*
X219370000Y-33985000D03*
X209370000Y-31985000D03*
X211370000Y-31985000D03*
X213370000Y-31985000D03*
X215370000Y-31985000D03*
X217370000Y-31985000D03*
X219370000Y-31985000D03*
D20*
X207120000Y-30610000D03*
X207120000Y-35360000D03*
X221620000Y-30610000D03*
X221620000Y-35360000D03*
D18*
X263870000Y-33735000D03*
D19*
X265870000Y-33735000D03*
X267870000Y-33735000D03*
X269870000Y-33735000D03*
X271870000Y-33735000D03*
X273870000Y-33735000D03*
X263870000Y-31735000D03*
X265870000Y-31735000D03*
X267870000Y-31735000D03*
X269870000Y-31735000D03*
X271870000Y-31735000D03*
X273870000Y-31735000D03*
D20*
X261620000Y-30360000D03*
X261620000Y-35110000D03*
X276120000Y-30360000D03*
X276120000Y-35110000D03*
D18*
X150120000Y-103860000D03*
D19*
X150120000Y-101860000D03*
X150120000Y-99860000D03*
X150120000Y-97860000D03*
X150120000Y-95860000D03*
X150120000Y-93860000D03*
D20*
X147745000Y-106110000D03*
X152495000Y-106110000D03*
X147745000Y-91610000D03*
X152495000Y-91610000D03*
D18*
X195120000Y-33485000D03*
D19*
X193120000Y-33485000D03*
X191120000Y-33485000D03*
X189120000Y-33485000D03*
X187120000Y-33485000D03*
D20*
X197370000Y-35860000D03*
X197370000Y-31110000D03*
X184870000Y-35860000D03*
X184870000Y-31110000D03*
D18*
X172870000Y-33235000D03*
D19*
X170870000Y-33235000D03*
X168870000Y-33235000D03*
D20*
X175120000Y-35610000D03*
X175120000Y-30860000D03*
X166620000Y-35610000D03*
X166620000Y-30860000D03*
D18*
X56245000Y-110610000D03*
D19*
X56245000Y-112610000D03*
D20*
X58620000Y-108360000D03*
X53870000Y-108360000D03*
X58620000Y-114860000D03*
X53870000Y-114860000D03*
D21*
X215870000Y-76125002D03*
X87120000Y-110485010D03*
X162120000Y-81360000D03*
X162120000Y-75110000D03*
X165120000Y-82110000D03*
X165120000Y-75110000D03*
X279370000Y-38860000D03*
D22*
X170370000Y-28109976D03*
X177620000Y-29109996D03*
D21*
X50120000Y-90110000D03*
X94344657Y-94542063D03*
X94465424Y-89902717D03*
X100370000Y-45110000D03*
X99870000Y-74610000D03*
X101370000Y-111860004D03*
X98120000Y-103860000D03*
D23*
X189000000Y-87450000D02*
X194944999Y-93394999D01*
X194944999Y-93394999D02*
X194944999Y-98414001D01*
X194944999Y-98414001D02*
X195815999Y-99285001D01*
X195815999Y-99285001D02*
X201204999Y-99285001D01*
X201204999Y-99285001D02*
X213000000Y-87490000D01*
D24*
X118110000Y-34290000D02*
X118110000Y-35421370D01*
X119120000Y-53610000D02*
X72390000Y-53610000D01*
X118110000Y-35421370D02*
X119235001Y-36546371D01*
X119235001Y-36546371D02*
X119235001Y-53494999D01*
X119235001Y-53494999D02*
X119120000Y-53610000D01*
X72390000Y-53610000D02*
X72390000Y-58420000D01*
X104370000Y-32610000D02*
X104370000Y-29110000D01*
X104370000Y-29110000D02*
X118120000Y-29110000D01*
X118120000Y-29110000D02*
X118110000Y-29120000D01*
X118110000Y-29120000D02*
X118110000Y-34290000D01*
X69850000Y-58420000D02*
X69850000Y-46360000D01*
X69850000Y-46360000D02*
X116044999Y-46360000D01*
X116044999Y-46360000D02*
X116044999Y-36034999D01*
X116044999Y-36034999D02*
X116044999Y-38034999D01*
X116044999Y-38034999D02*
X116110000Y-38100000D01*
X116110000Y-38100000D02*
X118110000Y-38100000D01*
X106370000Y-32610000D02*
X106370000Y-29860000D01*
X106370000Y-29860000D02*
X106620000Y-29610000D01*
X106620000Y-29610000D02*
X116044999Y-29610000D01*
X116044999Y-29610000D02*
X116044999Y-36034999D01*
X215870000Y-76125002D02*
X215870000Y-103110000D01*
X215870000Y-103110000D02*
X214119999Y-104860001D01*
X89987001Y-96742999D02*
X89987001Y-98311761D01*
X214119999Y-104860001D02*
X122049003Y-104860001D01*
X122049003Y-104860001D02*
X109499013Y-92310011D01*
X109499013Y-92310011D02*
X94419989Y-92310011D01*
X89987001Y-98311761D02*
X89421761Y-98877001D01*
X94419989Y-92310011D02*
X89987001Y-96742999D01*
X89421761Y-98877001D02*
X77287001Y-98877001D01*
X77287001Y-98877001D02*
X76200000Y-97790000D01*
X245120000Y-31735000D02*
X250245000Y-26610000D01*
X280120000Y-26610000D02*
X280120000Y-41610000D01*
X250245000Y-26610000D02*
X280120000Y-26610000D01*
X280120000Y-41610000D02*
X211870000Y-109860000D01*
X211870000Y-109860000D02*
X85730000Y-109860000D01*
X85730000Y-109860000D02*
X76200000Y-100330000D01*
X189000000Y-77290000D02*
X186870000Y-75160000D01*
X186870000Y-75160000D02*
X186870000Y-59860000D01*
X186870000Y-59860000D02*
X205370000Y-41360000D01*
X205370000Y-41360000D02*
X211370000Y-41360000D01*
X211370000Y-41360000D02*
X211370000Y-33985000D01*
X213370000Y-33985000D02*
X213370000Y-41860000D01*
X213370000Y-41860000D02*
X205620000Y-41860000D01*
X205620000Y-41860000D02*
X187374011Y-60105989D01*
X187374011Y-60105989D02*
X187374011Y-70584011D01*
X187374011Y-70584011D02*
X189000000Y-72210000D01*
X189000000Y-67130000D02*
X187870000Y-66000000D01*
X187870000Y-66000000D02*
X187870000Y-60360000D01*
X187870000Y-60360000D02*
X205870000Y-42360000D01*
X215370000Y-42360000D02*
X215370000Y-33985000D01*
X205870000Y-42360000D02*
X215370000Y-42360000D01*
X209370000Y-40860000D02*
X209370000Y-33985000D01*
X189000000Y-82370000D02*
X186370000Y-79740000D01*
X186370000Y-79740000D02*
X186370000Y-59610000D01*
X186370000Y-59610000D02*
X205120000Y-40860000D01*
X205120000Y-40860000D02*
X209370000Y-40860000D01*
X217370000Y-33985000D02*
X217370000Y-102360000D01*
X217370000Y-102360000D02*
X212120000Y-107610000D01*
X212120000Y-107610000D02*
X115400998Y-107610000D01*
X90058171Y-98877001D02*
X90058171Y-100780591D01*
X115400998Y-107610000D02*
X108374999Y-100584001D01*
X91961761Y-98877001D02*
X90058171Y-98877001D01*
X108374999Y-100584001D02*
X108374999Y-95387821D01*
X108374999Y-95387821D02*
X105747200Y-92760022D01*
X105747200Y-92760022D02*
X94719978Y-92760022D01*
X90058171Y-100780591D02*
X89121761Y-101717001D01*
X94719978Y-92760022D02*
X92527001Y-94952999D01*
X92527001Y-98311761D02*
X91961761Y-98877001D01*
X80127001Y-101717001D02*
X78740000Y-100330000D01*
X92527001Y-94952999D02*
X92527001Y-98311761D01*
X89121761Y-101717001D02*
X80127001Y-101717001D01*
X79376990Y-100479752D02*
X79376990Y-99994638D01*
X79376990Y-99994638D02*
X79226176Y-99843824D01*
X79226176Y-99843824D02*
X78740000Y-100330000D01*
X217370000Y-31985000D02*
X223245000Y-26110000D01*
X223245000Y-26110000D02*
X280870000Y-26110000D01*
X280870000Y-26110000D02*
X280870000Y-41860000D01*
X280870000Y-41860000D02*
X211870000Y-110860000D01*
X211870000Y-110860000D02*
X87494990Y-110860000D01*
X87494990Y-110860000D02*
X87120000Y-110485010D01*
X67492999Y-98877001D02*
X66040000Y-100330000D01*
X67492999Y-91360000D02*
X67492999Y-98877001D01*
X67693010Y-91159989D02*
X67492999Y-91360000D01*
X162120000Y-81360000D02*
X151733590Y-81360000D01*
X151733590Y-81360000D02*
X141933601Y-91159989D01*
X141933601Y-91159989D02*
X67693010Y-91159989D01*
X162090000Y-68580000D02*
X162120000Y-68610000D01*
X162120000Y-68610000D02*
X162120000Y-75110000D01*
X154940000Y-68580000D02*
X162090000Y-68580000D01*
X70120000Y-91610000D02*
X70032999Y-91697001D01*
X70032999Y-91697001D02*
X70032999Y-98877001D01*
X70032999Y-98877001D02*
X68580000Y-100330000D01*
X142120000Y-91610000D02*
X70120000Y-91610000D01*
X151620000Y-82110000D02*
X142120000Y-91610000D01*
X165120000Y-82110000D02*
X151620000Y-82110000D01*
X165120000Y-66110000D02*
X165120000Y-75110000D01*
X156141370Y-66110000D02*
X165120000Y-66110000D01*
X154940000Y-66040000D02*
X156071370Y-66040000D01*
X156071370Y-66040000D02*
X156141370Y-66110000D01*
X60960000Y-97790000D02*
X60960000Y-82550000D01*
X60960000Y-82550000D02*
X69850000Y-73660000D01*
X62738001Y-83311999D02*
X72390000Y-73660000D01*
X62738001Y-97028001D02*
X62738001Y-83311999D01*
X63500000Y-97790000D02*
X62738001Y-97028001D01*
X104140000Y-100330000D02*
X112920000Y-109110000D01*
X112920000Y-109110000D02*
X211905413Y-109110000D01*
X211905413Y-109110000D02*
X279370000Y-41645413D01*
X279370000Y-41645413D02*
X279370000Y-38860000D01*
X271870000Y-31735000D02*
X276495000Y-27110000D01*
X276495000Y-27110000D02*
X278620000Y-27110000D01*
X278620000Y-27110000D02*
X278620000Y-41759002D01*
X278620000Y-41759002D02*
X212019002Y-108360000D01*
X212019002Y-108360000D02*
X114710000Y-108360000D01*
X114710000Y-108360000D02*
X106680000Y-100330000D01*
X181370000Y-92700000D02*
X181370000Y-91568630D01*
X181370000Y-91568630D02*
X168161370Y-78360000D01*
X168161370Y-78360000D02*
X110620000Y-78360000D01*
X93620000Y-61360000D02*
X79620000Y-61360000D01*
X110620000Y-78360000D02*
X93620000Y-61360000D01*
X79620000Y-61360000D02*
X77470000Y-59210000D01*
X77470000Y-59210000D02*
X77470000Y-58420000D01*
X174870000Y-92700000D02*
X174870000Y-85860000D01*
X174870000Y-85860000D02*
X167870000Y-78860000D01*
X78620000Y-62110000D02*
X74930000Y-58420000D01*
X167870000Y-78860000D02*
X110120000Y-78860000D01*
X110120000Y-78860000D02*
X93370000Y-62110000D01*
X93370000Y-62110000D02*
X78620000Y-62110000D01*
D23*
X177620000Y-29109996D02*
X176620004Y-28110000D01*
X176620004Y-28110000D02*
X170370024Y-28110000D01*
X170370024Y-28110000D02*
X170370000Y-28109976D01*
X250899987Y-38859989D02*
X269699605Y-38859989D01*
X269699605Y-38859989D02*
X273870000Y-34689594D01*
X247120000Y-35080002D02*
X250899987Y-38859989D01*
X273870000Y-34689594D02*
X273870000Y-33735000D01*
X247120000Y-33735000D02*
X247120000Y-35080002D01*
X219370000Y-35330002D02*
X223399998Y-39360000D01*
X223399998Y-39360000D02*
X242449594Y-39360000D01*
X242449594Y-39360000D02*
X247120000Y-34689594D01*
X247120000Y-34689594D02*
X247120000Y-33735000D01*
X220620000Y-90030000D02*
X221751370Y-90030000D01*
X221751370Y-90030000D02*
X223370000Y-88411370D01*
X223370000Y-88411370D02*
X223370000Y-39330002D01*
X223370000Y-39330002D02*
X219370000Y-35330002D01*
X219370000Y-33985000D02*
X219370000Y-35330002D01*
X58420000Y-100330000D02*
X60960000Y-100330000D01*
D24*
X84240000Y-60110000D02*
X82550000Y-58420000D01*
X146171424Y-64409989D02*
X141721402Y-64409989D01*
X168203598Y-31784990D02*
X146194999Y-53793589D01*
X146194999Y-64386414D02*
X146171424Y-64409989D01*
X137421413Y-60110000D02*
X84240000Y-60110000D01*
X146194999Y-53793589D02*
X146194999Y-64386414D01*
X173960000Y-41860000D02*
X173960000Y-34620002D01*
X173894992Y-31784990D02*
X168203598Y-31784990D01*
X141721402Y-64409989D02*
X137421413Y-60110000D01*
X174170001Y-32059999D02*
X173894992Y-31784990D01*
X174170001Y-34410001D02*
X174170001Y-32059999D01*
X173960000Y-34620002D02*
X174170001Y-34410001D01*
X173960000Y-41860000D02*
X177210000Y-38610000D01*
X185995000Y-38610000D02*
X191120000Y-33485000D01*
X177210000Y-38610000D02*
X185995000Y-38610000D01*
X167729002Y-64860000D02*
X141535002Y-64860000D01*
X137285002Y-60610000D02*
X82200000Y-60610000D01*
X188460000Y-41860000D02*
X188460000Y-44129002D01*
X188460000Y-44129002D02*
X167729002Y-64860000D01*
X141535002Y-64860000D02*
X137285002Y-60610000D01*
X82200000Y-60610000D02*
X80010000Y-58420000D01*
X188460000Y-41860000D02*
X193120000Y-37200000D01*
X193120000Y-37200000D02*
X193120000Y-33485000D01*
X154940000Y-60960000D02*
X156071370Y-60960000D01*
X156071370Y-60960000D02*
X167869999Y-49161371D01*
X167869999Y-49161371D02*
X167869999Y-32754999D01*
X167869999Y-32754999D02*
X168389999Y-32234999D01*
X168389999Y-32234999D02*
X169869999Y-32234999D01*
X169869999Y-32234999D02*
X170870000Y-33235000D01*
X168870000Y-33235000D02*
X168870000Y-49570000D01*
X168870000Y-49570000D02*
X154940000Y-63500000D01*
X46370000Y-86360000D02*
X50120000Y-90110000D01*
X51370000Y-32985000D02*
X48245000Y-32985000D01*
X46370000Y-34860000D02*
X46370000Y-86360000D01*
X48245000Y-32985000D02*
X46370000Y-34860000D01*
X65870000Y-97960000D02*
X66040000Y-97790000D01*
X93980000Y-97790000D02*
X93870000Y-97680000D01*
X93870000Y-95016720D02*
X94344657Y-94542063D01*
X93870000Y-97680000D02*
X93870000Y-95016720D01*
X99870000Y-84498141D02*
X94465424Y-89902717D01*
X99870000Y-74610000D02*
X99870000Y-84498141D01*
X100370000Y-33110000D02*
X100370000Y-45110000D01*
X187120000Y-33485000D02*
X194995000Y-25610000D01*
X194995000Y-25610000D02*
X281620000Y-25610000D01*
X281620000Y-25610000D02*
X281620000Y-42110000D01*
X281620000Y-42110000D02*
X211869996Y-111860004D01*
X211869996Y-111860004D02*
X101370000Y-111860004D01*
X98120000Y-103860000D02*
X97820001Y-103560001D01*
X97820001Y-103560001D02*
X97820001Y-99090001D01*
X97820001Y-99090001D02*
X96520000Y-97790000D01*
X96690000Y-97790000D02*
X96520000Y-97790000D01*
X64870000Y-29610000D02*
X64870000Y-39360000D01*
X64870000Y-39360000D02*
X64870000Y-58320000D01*
X66675000Y-39370000D02*
X64880000Y-39370000D01*
X64880000Y-39370000D02*
X64870000Y-39360000D01*
X64870000Y-58320000D02*
X64770000Y-58420000D01*
X57370000Y-32985000D02*
X57370000Y-29610000D01*
X57370000Y-29610000D02*
X64870000Y-29610000D01*
X66675000Y-39360000D02*
X66675000Y-39370000D01*
X66040000Y-39370000D02*
X66630000Y-39370000D01*
X67310000Y-43170000D02*
X67310000Y-58420000D01*
X68120000Y-35770000D02*
X68120000Y-42360000D01*
X68120000Y-42360000D02*
X67310000Y-43170000D01*
X66710000Y-34360000D02*
X68120000Y-35770000D01*
X55370000Y-32985000D02*
X55370000Y-29110000D01*
X55370000Y-29110000D02*
X66710000Y-29110000D01*
X66710000Y-29110000D02*
X66710000Y-34360000D01*
X66040000Y-34290000D02*
X66620000Y-34870000D01*
M02*
