G04 #@! TF.FileFunction,Copper,L1,Top,Signal*
%FSLAX46Y46*%
G04 Gerber Fmt 4.6, Leading zero omitted, Abs format (unit mm)*
G04 Created by KiCad (PCBNEW 4.0.6) date 08/09/17 12:25:43*
%MOMM*%
%LPD*%
G01*
G04 APERTURE LIST*
%ADD10C,0.100000*%
%ADD11C,0.300000*%
%ADD12C,2.400000*%
%ADD13R,2.400000X2.400000*%
%ADD14C,3.810000*%
%ADD15R,1.520000X1.520000*%
%ADD16C,1.520000*%
%ADD17C,1.524000*%
%ADD18R,1.600000X1.600000*%
%ADD19O,1.600000X1.600000*%
%ADD20C,1.600000*%
%ADD21R,1.524000X1.524000*%
%ADD22C,5.700000*%
%ADD23C,0.250000*%
%ADD24C,0.750000*%
G04 APERTURE END LIST*
D10*
D11*
X151132857Y-28924286D02*
X152466190Y-28924286D01*
X153037619Y-31019524D02*
X151132857Y-31019524D01*
X151132857Y-27019524D01*
X153037619Y-27019524D01*
X155323334Y-31019524D02*
X154942381Y-30829048D01*
X154751905Y-30448095D01*
X154751905Y-27019524D01*
X157418572Y-31019524D02*
X157037619Y-30829048D01*
X156847143Y-30448095D01*
X156847143Y-27019524D01*
X158942381Y-31019524D02*
X158942381Y-28352857D01*
X158942381Y-27019524D02*
X158751905Y-27210000D01*
X158942381Y-27400476D01*
X159132857Y-27210000D01*
X158942381Y-27019524D01*
X158942381Y-27400476D01*
X161418572Y-31019524D02*
X161037619Y-30829048D01*
X160847143Y-30638571D01*
X160656667Y-30257619D01*
X160656667Y-29114762D01*
X160847143Y-28733810D01*
X161037619Y-28543333D01*
X161418572Y-28352857D01*
X161990000Y-28352857D01*
X162370952Y-28543333D01*
X162561429Y-28733810D01*
X162751905Y-29114762D01*
X162751905Y-30257619D01*
X162561429Y-30638571D01*
X162370952Y-30829048D01*
X161990000Y-31019524D01*
X161418572Y-31019524D01*
X163894762Y-28352857D02*
X165418572Y-28352857D01*
X164466191Y-27019524D02*
X164466191Y-30448095D01*
X164656667Y-30829048D01*
X165037620Y-31019524D01*
X165418572Y-31019524D01*
X166180476Y-28352857D02*
X167704286Y-28352857D01*
X166751905Y-27019524D02*
X166751905Y-30448095D01*
X166942381Y-30829048D01*
X167323334Y-31019524D01*
X167704286Y-31019524D01*
X172275714Y-31019524D02*
X173037619Y-31019524D01*
X173418571Y-30829048D01*
X173609047Y-30638571D01*
X173990000Y-30067143D01*
X174180476Y-29305238D01*
X174180476Y-27781429D01*
X173990000Y-27400476D01*
X173799524Y-27210000D01*
X173418571Y-27019524D01*
X172656667Y-27019524D01*
X172275714Y-27210000D01*
X172085238Y-27400476D01*
X171894762Y-27781429D01*
X171894762Y-28733810D01*
X172085238Y-29114762D01*
X172275714Y-29305238D01*
X172656667Y-29495714D01*
X173418571Y-29495714D01*
X173799524Y-29305238D01*
X173990000Y-29114762D01*
X174180476Y-28733810D01*
X176656667Y-27019524D02*
X177037619Y-27019524D01*
X177418571Y-27210000D01*
X177609048Y-27400476D01*
X177799524Y-27781429D01*
X177990000Y-28543333D01*
X177990000Y-29495714D01*
X177799524Y-30257619D01*
X177609048Y-30638571D01*
X177418571Y-30829048D01*
X177037619Y-31019524D01*
X176656667Y-31019524D01*
X176275714Y-30829048D01*
X176085238Y-30638571D01*
X175894762Y-30257619D01*
X175704286Y-29495714D01*
X175704286Y-28543333D01*
X175894762Y-27781429D01*
X176085238Y-27400476D01*
X176275714Y-27210000D01*
X176656667Y-27019524D01*
X179323334Y-27019524D02*
X181799524Y-27019524D01*
X180466191Y-28543333D01*
X181037619Y-28543333D01*
X181418572Y-28733810D01*
X181609048Y-28924286D01*
X181799524Y-29305238D01*
X181799524Y-30257619D01*
X181609048Y-30638571D01*
X181418572Y-30829048D01*
X181037619Y-31019524D01*
X179894762Y-31019524D01*
X179513810Y-30829048D01*
X179323334Y-30638571D01*
X188847143Y-30638571D02*
X188656667Y-30829048D01*
X188085238Y-31019524D01*
X187704286Y-31019524D01*
X187132858Y-30829048D01*
X186751905Y-30448095D01*
X186561429Y-30067143D01*
X186370953Y-29305238D01*
X186370953Y-28733810D01*
X186561429Y-27971905D01*
X186751905Y-27590952D01*
X187132858Y-27210000D01*
X187704286Y-27019524D01*
X188085238Y-27019524D01*
X188656667Y-27210000D01*
X188847143Y-27400476D01*
X190561429Y-31019524D02*
X190561429Y-27019524D01*
X192085238Y-27019524D01*
X192466191Y-27210000D01*
X192656667Y-27400476D01*
X192847143Y-27781429D01*
X192847143Y-28352857D01*
X192656667Y-28733810D01*
X192466191Y-28924286D01*
X192085238Y-29114762D01*
X190561429Y-29114762D01*
X194561429Y-27019524D02*
X194561429Y-30257619D01*
X194751905Y-30638571D01*
X194942381Y-30829048D01*
X195323334Y-31019524D01*
X196085238Y-31019524D01*
X196466191Y-30829048D01*
X196656667Y-30638571D01*
X196847143Y-30257619D01*
X196847143Y-27019524D01*
D12*
X263540000Y-44450000D03*
X260040000Y-44450000D03*
X267040000Y-44450000D03*
X270540000Y-44450000D03*
X274040000Y-44450000D03*
X277540000Y-44450000D03*
D13*
X256540000Y-44450000D03*
D12*
X281040000Y-44450000D03*
X284540000Y-44450000D03*
X288040000Y-44450000D03*
X291540000Y-44450000D03*
X295040000Y-44450000D03*
D14*
X197360000Y-63500000D03*
X171960000Y-63500000D03*
D15*
X179070000Y-66040000D03*
D16*
X181860000Y-66040000D03*
X184530000Y-66040000D03*
X187330000Y-66040000D03*
X190120000Y-66040000D03*
X180470000Y-63500000D03*
X183260000Y-63500000D03*
X185930000Y-63500000D03*
X188720000Y-63500000D03*
D12*
X55230000Y-39370000D03*
X51730000Y-39370000D03*
X58730000Y-39370000D03*
D13*
X62230000Y-39370000D03*
D12*
X97140000Y-39370000D03*
X93640000Y-39370000D03*
X100640000Y-39370000D03*
D13*
X104140000Y-39370000D03*
D12*
X212740000Y-44450000D03*
X209240000Y-44450000D03*
X216240000Y-44450000D03*
X219740000Y-44450000D03*
X223240000Y-44450000D03*
X226740000Y-44450000D03*
D13*
X205740000Y-44450000D03*
D12*
X230240000Y-44450000D03*
X233740000Y-44450000D03*
X237240000Y-44450000D03*
X240740000Y-44450000D03*
X244240000Y-44450000D03*
D17*
X234950000Y-100330000D03*
X234950000Y-87630000D03*
X240030000Y-100330000D03*
X240030000Y-87630000D03*
X128270000Y-34290000D03*
X115570000Y-34290000D03*
X128270000Y-39370000D03*
X115570000Y-39370000D03*
X66040000Y-34290000D03*
X78740000Y-34290000D03*
X66040000Y-39370000D03*
X78740000Y-39370000D03*
D18*
X246380000Y-60960000D03*
D19*
X254000000Y-93980000D03*
X246380000Y-63500000D03*
X254000000Y-91440000D03*
X246380000Y-66040000D03*
X254000000Y-88900000D03*
X246380000Y-68580000D03*
X254000000Y-86360000D03*
X246380000Y-71120000D03*
X254000000Y-83820000D03*
X246380000Y-73660000D03*
X254000000Y-81280000D03*
X246380000Y-76200000D03*
X254000000Y-78740000D03*
X246380000Y-78740000D03*
X254000000Y-76200000D03*
X246380000Y-81280000D03*
X254000000Y-73660000D03*
X246380000Y-83820000D03*
X254000000Y-71120000D03*
X246380000Y-86360000D03*
X254000000Y-68580000D03*
X246380000Y-88900000D03*
X254000000Y-66040000D03*
X246380000Y-91440000D03*
X254000000Y-63500000D03*
X246380000Y-93980000D03*
X254000000Y-60960000D03*
D18*
X68580000Y-110490000D03*
D20*
X68580000Y-112990000D03*
D18*
X147320000Y-55880000D03*
D19*
X154940000Y-73660000D03*
X147320000Y-58420000D03*
X154940000Y-71120000D03*
X147320000Y-60960000D03*
X154940000Y-68580000D03*
X147320000Y-63500000D03*
X154940000Y-66040000D03*
X147320000Y-66040000D03*
X154940000Y-63500000D03*
X147320000Y-68580000D03*
X154940000Y-60960000D03*
X147320000Y-71120000D03*
X154940000Y-58420000D03*
X147320000Y-73660000D03*
X154940000Y-55880000D03*
D20*
X142240000Y-53340000D03*
X142240000Y-58340000D03*
X142240000Y-62230000D03*
X142240000Y-67230000D03*
X153670000Y-49530000D03*
X148670000Y-49530000D03*
X180340000Y-76200000D03*
X180340000Y-71200000D03*
X76280000Y-110490000D03*
X81280000Y-110490000D03*
X82550000Y-39370000D03*
X87550000Y-39370000D03*
X134620000Y-39370000D03*
X139620000Y-39370000D03*
D12*
X55880000Y-113030000D03*
D13*
X55880000Y-109530000D03*
D12*
X294640000Y-99680000D03*
X294640000Y-103180000D03*
X294640000Y-96180000D03*
X294640000Y-92680000D03*
X294640000Y-89180000D03*
X294640000Y-85680000D03*
D13*
X294640000Y-106680000D03*
D12*
X294640000Y-82180000D03*
X294640000Y-78680000D03*
X294640000Y-75180000D03*
X294640000Y-71680000D03*
X294640000Y-68180000D03*
D18*
X270510000Y-104140000D03*
D19*
X237490000Y-111760000D03*
X267970000Y-104140000D03*
X240030000Y-111760000D03*
X265430000Y-104140000D03*
X242570000Y-111760000D03*
X262890000Y-104140000D03*
X245110000Y-111760000D03*
X260350000Y-104140000D03*
X247650000Y-111760000D03*
X257810000Y-104140000D03*
X250190000Y-111760000D03*
X255270000Y-104140000D03*
X252730000Y-111760000D03*
X252730000Y-104140000D03*
X255270000Y-111760000D03*
X250190000Y-104140000D03*
X257810000Y-111760000D03*
X247650000Y-104140000D03*
X260350000Y-111760000D03*
X245110000Y-104140000D03*
X262890000Y-111760000D03*
X242570000Y-104140000D03*
X265430000Y-111760000D03*
X240030000Y-104140000D03*
X267970000Y-111760000D03*
X237490000Y-104140000D03*
X270510000Y-111760000D03*
D12*
X177180000Y-105410000D03*
X180680000Y-105410000D03*
X173680000Y-105410000D03*
D13*
X170180000Y-105410000D03*
D18*
X64770000Y-73660000D03*
D19*
X92710000Y-58420000D03*
X67310000Y-73660000D03*
X82550000Y-58420000D03*
X69850000Y-73660000D03*
X80010000Y-58420000D03*
X72390000Y-73660000D03*
X77470000Y-58420000D03*
X74930000Y-73660000D03*
X74930000Y-58420000D03*
X77470000Y-73660000D03*
X90170000Y-58420000D03*
X80010000Y-73660000D03*
X87630000Y-58420000D03*
X82550000Y-73660000D03*
X85090000Y-58420000D03*
D17*
X85090000Y-73660000D03*
X87630000Y-73660000D03*
X90170000Y-73660000D03*
X92710000Y-73660000D03*
D19*
X72390000Y-58420000D03*
X69850000Y-58420000D03*
X67310000Y-58420000D03*
X64770000Y-58420000D03*
D21*
X58420000Y-97790000D03*
D17*
X58420000Y-100330000D03*
X71120000Y-97790000D03*
X60960000Y-100330000D03*
X73660000Y-97790000D03*
X63500000Y-100330000D03*
X76200000Y-97790000D03*
X66040000Y-100330000D03*
X78740000Y-97790000D03*
X68580000Y-100330000D03*
X81280000Y-97790000D03*
X71120000Y-100330000D03*
X83820000Y-97790000D03*
X73660000Y-100330000D03*
X86360000Y-97790000D03*
X76200000Y-100330000D03*
X88900000Y-97790000D03*
X78740000Y-100330000D03*
X91440000Y-97790000D03*
X81280000Y-100330000D03*
X93980000Y-97790000D03*
X83820000Y-100330000D03*
X96520000Y-97790000D03*
X86360000Y-100330000D03*
X88900000Y-100330000D03*
X99060000Y-97790000D03*
X91440000Y-100330000D03*
X96520000Y-100330000D03*
X99060000Y-100330000D03*
X101600000Y-100330000D03*
X104140000Y-100330000D03*
X101600000Y-97790000D03*
X104140000Y-97790000D03*
X60960000Y-97790000D03*
X63500000Y-97790000D03*
X66040000Y-97790000D03*
X68580000Y-97790000D03*
X106680000Y-97790000D03*
X106680000Y-100330000D03*
X93980000Y-100330000D03*
D22*
X53550000Y-99060000D03*
X111550000Y-99060000D03*
X111550000Y-50060000D03*
X53550000Y-50060000D03*
D23*
X181454999Y-54454999D02*
X187330000Y-60330000D01*
X187330000Y-60330000D02*
X187330000Y-66040000D01*
X147320000Y-58420000D02*
X151285001Y-54454999D01*
X151285001Y-54454999D02*
X181454999Y-54454999D01*
D24*
X180680000Y-105410000D02*
X180680000Y-76540000D01*
X180680000Y-76540000D02*
X180340000Y-76200000D01*
X67310000Y-73660000D02*
X67310000Y-66040000D01*
X60960000Y-48600000D02*
X51730000Y-39370000D01*
X60960000Y-59690000D02*
X60960000Y-48600000D01*
X67310000Y-66040000D02*
X60960000Y-59690000D01*
X295040000Y-44450000D02*
X289960000Y-49530000D01*
X289960000Y-49530000D02*
X249320000Y-49530000D01*
X249320000Y-49530000D02*
X244240000Y-44450000D01*
X295040000Y-43580000D02*
X295040000Y-44450000D01*
D23*
X147320000Y-68580000D02*
X153670000Y-62230000D01*
X153670000Y-62230000D02*
X157480000Y-62230000D01*
X157480000Y-62230000D02*
X158750000Y-60960000D01*
X158750000Y-60960000D02*
X180720000Y-60960000D01*
X180720000Y-60960000D02*
X183260000Y-63500000D01*
X154940000Y-60960000D02*
X157480000Y-60960000D01*
X157480000Y-60960000D02*
X158750000Y-59690000D01*
X158750000Y-59690000D02*
X182880000Y-59690000D01*
X182880000Y-59690000D02*
X184345001Y-61155001D01*
X184345001Y-61155001D02*
X184345001Y-64574999D01*
X184345001Y-64574999D02*
X182880000Y-66040000D01*
X182880000Y-66040000D02*
X181860000Y-66040000D01*
X154940000Y-63500000D02*
X158750000Y-67310000D01*
X183260000Y-67310000D02*
X184530000Y-66040000D01*
X158750000Y-67310000D02*
X183260000Y-67310000D01*
X67310000Y-58420000D02*
X69850000Y-60960000D01*
X97140000Y-57800000D02*
X97140000Y-39370000D01*
X93980000Y-60960000D02*
X97140000Y-57800000D01*
X69850000Y-60960000D02*
X93980000Y-60960000D01*
X96520000Y-38750000D02*
X97140000Y-39370000D01*
X64770000Y-58420000D02*
X68580000Y-62230000D01*
X100640000Y-56840000D02*
X100640000Y-39370000D01*
X95250000Y-62230000D02*
X100640000Y-56840000D01*
X68580000Y-62230000D02*
X95250000Y-62230000D01*
X284540000Y-44450000D02*
X276920000Y-36830000D01*
X276920000Y-36830000D02*
X135050998Y-36830000D01*
X135050998Y-36830000D02*
X132080000Y-39800998D01*
X132080000Y-39800998D02*
X132080000Y-40640000D01*
X132080000Y-40640000D02*
X76961999Y-95758001D01*
X76961999Y-95758001D02*
X76961999Y-97028001D01*
X76961999Y-97028001D02*
X76200000Y-97790000D01*
X288040000Y-44450000D02*
X277880000Y-34290000D01*
X277880000Y-34290000D02*
X135890000Y-34290000D01*
X75112999Y-99242999D02*
X76200000Y-100330000D01*
X135890000Y-34290000D02*
X75112999Y-95067001D01*
X75112999Y-95067001D02*
X75112999Y-99242999D01*
X233740000Y-44450000D02*
X232497002Y-44450000D01*
X232497002Y-44450000D02*
X230972001Y-42924999D01*
X230972001Y-42924999D02*
X134536239Y-42924999D01*
X134536239Y-42924999D02*
X87630000Y-89831238D01*
X87630000Y-101600000D02*
X86360000Y-102870000D01*
X87630000Y-89831238D02*
X87630000Y-101600000D01*
X86360000Y-102870000D02*
X81767238Y-102870000D01*
X81767238Y-102870000D02*
X79376990Y-100479752D01*
X79376990Y-100479752D02*
X79376990Y-99994638D01*
X79376990Y-99994638D02*
X79226176Y-99843824D01*
X79226176Y-99843824D02*
X78740000Y-100330000D01*
X237240000Y-44450000D02*
X234700000Y-41910000D01*
X234700000Y-41910000D02*
X133011238Y-41910000D01*
X85090000Y-89831238D02*
X85090000Y-99060000D01*
X85090000Y-99060000D02*
X83820000Y-100330000D01*
X133011238Y-41910000D02*
X85090000Y-89831238D01*
X152400000Y-71120000D02*
X154940000Y-68580000D01*
X152400000Y-95250000D02*
X152400000Y-71120000D01*
X140970000Y-106680000D02*
X152400000Y-95250000D01*
X69850000Y-106680000D02*
X140970000Y-106680000D01*
X66040000Y-102870000D02*
X69850000Y-106680000D01*
X66040000Y-100330000D02*
X66040000Y-102870000D01*
X68580000Y-100330000D02*
X73660000Y-105410000D01*
X73660000Y-105410000D02*
X140970000Y-105410000D01*
X140970000Y-105410000D02*
X151130000Y-95250000D01*
X151130000Y-95250000D02*
X151130000Y-69850000D01*
X151130000Y-69850000D02*
X154940000Y-66040000D01*
D24*
X250190000Y-104140000D02*
X250190000Y-106680000D01*
X250190000Y-106680000D02*
X245110000Y-111760000D01*
X242570000Y-111760000D02*
X245110000Y-111760000D01*
X242570000Y-111760000D02*
X240030000Y-111760000D01*
X234950000Y-100330000D02*
X234950000Y-106680000D01*
X234950000Y-106680000D02*
X240030000Y-111760000D01*
X240030000Y-100330000D02*
X248920000Y-100330000D01*
X248920000Y-100330000D02*
X254000000Y-93980000D01*
X234950000Y-100330000D02*
X240030000Y-100330000D01*
X246380000Y-81280000D02*
X248920000Y-81280000D01*
X248920000Y-81280000D02*
X254000000Y-86360000D01*
X58420000Y-100330000D02*
X60960000Y-100330000D01*
D23*
X66040000Y-34290000D02*
X66040000Y-35560000D01*
X72390000Y-41910000D02*
X72390000Y-58420000D01*
X66040000Y-35560000D02*
X72390000Y-41910000D01*
X66040000Y-39370000D02*
X67310000Y-39370000D01*
X69850000Y-41910000D02*
X69850000Y-58420000D01*
X67310000Y-39370000D02*
X69850000Y-41910000D01*
M02*
