%FSLAX45Y45*%
G04 Gerber Fmt 4.5, Leading zero omitted, Abs format (unit mm)*
G04 Created by KiCad (PCBNEW 4.0.7) date 06/16/18 15:25:15*
%MOMM*%
%LPD*%
G01*
G04 APERTURE LIST*
%ADD10C,0.127000*%
%ADD11C,0.100000*%
%ADD12C,0.200000*%
%ADD13C,0.300000*%
G04 APERTURE END LIST*
D10*
D11*
X3937000Y-11811000D02*
X3937000Y-2286000D01*
X30480000Y-11811000D02*
X3937000Y-11811000D01*
X30480000Y-11557000D02*
X30480000Y-11811000D01*
X30480000Y-11176000D02*
X30480000Y-11557000D01*
X30480000Y-2286000D02*
X30480000Y-11176000D01*
X3937000Y-2286000D02*
X30480000Y-2286000D01*
D12*
X4992000Y-8991000D02*
X5032000Y-9031000D01*
X5032000Y-8991000D02*
X4992000Y-9031000D01*
X8692000Y-11028501D02*
X8732000Y-11068501D01*
X8732000Y-11028501D02*
X8692000Y-11068501D01*
X9414466Y-9434206D02*
X9454466Y-9474206D01*
X9454466Y-9434206D02*
X9414466Y-9474206D01*
X9426542Y-8970272D02*
X9466542Y-9010272D01*
X9466542Y-8970272D02*
X9426542Y-9010272D01*
X9792000Y-10366000D02*
X9832000Y-10406000D01*
X9832000Y-10366000D02*
X9792000Y-10406000D01*
X9967000Y-7441000D02*
X10007000Y-7481000D01*
X10007000Y-7441000D02*
X9967000Y-7481000D01*
X10017000Y-4491000D02*
X10057000Y-4531000D01*
X10057000Y-4491000D02*
X10017000Y-4531000D01*
X10117000Y-11166000D02*
X10157000Y-11206000D01*
X10157000Y-11166000D02*
X10117000Y-11206000D01*
X16192000Y-7491000D02*
X16232000Y-7531000D01*
X16232000Y-7491000D02*
X16192000Y-7531000D01*
X16192000Y-8116000D02*
X16232000Y-8156000D01*
X16232000Y-8116000D02*
X16192000Y-8156000D01*
X16492000Y-7491000D02*
X16532000Y-7531000D01*
X16532000Y-7491000D02*
X16492000Y-7531000D01*
X16492000Y-8191000D02*
X16532000Y-8231000D01*
X16532000Y-8191000D02*
X16492000Y-8231000D01*
X17017000Y-2790998D02*
X17057000Y-2830998D01*
X17057000Y-2790998D02*
X17017000Y-2830998D01*
X17742000Y-2891000D02*
X17782000Y-2931000D01*
X17782000Y-2891000D02*
X17742000Y-2931000D01*
X21567000Y-7592500D02*
X21607000Y-7632500D01*
X21607000Y-7592500D02*
X21567000Y-7632500D01*
X27917000Y-3866000D02*
X27957000Y-3906000D01*
X27957000Y-3866000D02*
X27917000Y-3906000D01*
X8547100Y-7366000D02*
G75*
G03X8547100Y-7366000I-38100J0D01*
G01*
X8801100Y-7366000D02*
G75*
G03X8801100Y-7366000I-38100J0D01*
G01*
X9055100Y-7366000D02*
G75*
G03X9055100Y-7366000I-38100J0D01*
G01*
X9309100Y-7366000D02*
G75*
G03X9309100Y-7366000I-38100J0D01*
G01*
X5137000Y-3258500D02*
X5137000Y-3338500D01*
X5097000Y-3298500D02*
X5177000Y-3298500D01*
X5337000Y-3258500D02*
X5337000Y-3338500D01*
X5297000Y-3298500D02*
X5377000Y-3298500D01*
X5537000Y-3258500D02*
X5537000Y-3338500D01*
X5497000Y-3298500D02*
X5577000Y-3298500D01*
X5624500Y-11021000D02*
X5624500Y-11101000D01*
X5584500Y-11061000D02*
X5664500Y-11061000D01*
X5624500Y-11221000D02*
X5624500Y-11301000D01*
X5584500Y-11261000D02*
X5664500Y-11261000D01*
X5737000Y-3258500D02*
X5737000Y-3338500D01*
X5697000Y-3298500D02*
X5777000Y-3298500D01*
X5937000Y-3258500D02*
X5937000Y-3338500D01*
X5897000Y-3298500D02*
X5977000Y-3298500D01*
X6477000Y-5802000D02*
X6477000Y-5882000D01*
X6437000Y-5842000D02*
X6517000Y-5842000D01*
X6477000Y-7326000D02*
X6477000Y-7406000D01*
X6437000Y-7366000D02*
X6517000Y-7366000D01*
X6667500Y-3897000D02*
X6667500Y-3977000D01*
X6627500Y-3937000D02*
X6707500Y-3937000D01*
X6671000Y-3396000D02*
X6671000Y-3476000D01*
X6631000Y-3436000D02*
X6711000Y-3436000D01*
X6731000Y-5802000D02*
X6731000Y-5882000D01*
X6691000Y-5842000D02*
X6771000Y-5842000D01*
X6731000Y-7326000D02*
X6731000Y-7406000D01*
X6691000Y-7366000D02*
X6771000Y-7366000D01*
X6858000Y-11009000D02*
X6858000Y-11089000D01*
X6818000Y-11049000D02*
X6898000Y-11049000D01*
X6858000Y-11259000D02*
X6858000Y-11339000D01*
X6818000Y-11299000D02*
X6898000Y-11299000D01*
X6985000Y-5802000D02*
X6985000Y-5882000D01*
X6945000Y-5842000D02*
X7025000Y-5842000D01*
X6985000Y-7326000D02*
X6985000Y-7406000D01*
X6945000Y-7366000D02*
X7025000Y-7366000D01*
X7239000Y-5802000D02*
X7239000Y-5882000D01*
X7199000Y-5842000D02*
X7279000Y-5842000D01*
X7239000Y-7326000D02*
X7239000Y-7406000D01*
X7199000Y-7366000D02*
X7279000Y-7366000D01*
X7493000Y-5802000D02*
X7493000Y-5882000D01*
X7453000Y-5842000D02*
X7533000Y-5842000D01*
X7493000Y-7326000D02*
X7493000Y-7406000D01*
X7453000Y-7366000D02*
X7533000Y-7366000D01*
X7628000Y-11009000D02*
X7628000Y-11089000D01*
X7588000Y-11049000D02*
X7668000Y-11049000D01*
X7683500Y-3897000D02*
X7683500Y-3977000D01*
X7643500Y-3937000D02*
X7723500Y-3937000D01*
X7687000Y-3396000D02*
X7687000Y-3476000D01*
X7647000Y-3436000D02*
X7727000Y-3436000D01*
X7747000Y-5802000D02*
X7747000Y-5882000D01*
X7707000Y-5842000D02*
X7787000Y-5842000D01*
X7747000Y-7326000D02*
X7747000Y-7406000D01*
X7707000Y-7366000D02*
X7787000Y-7366000D01*
X8001000Y-5802000D02*
X8001000Y-5882000D01*
X7961000Y-5842000D02*
X8041000Y-5842000D01*
X8001000Y-7326000D02*
X8001000Y-7406000D01*
X7961000Y-7366000D02*
X8041000Y-7366000D01*
X8128000Y-11009000D02*
X8128000Y-11089000D01*
X8088000Y-11049000D02*
X8168000Y-11049000D01*
X8255000Y-3897000D02*
X8255000Y-3977000D01*
X8215000Y-3937000D02*
X8295000Y-3937000D01*
X8255000Y-5802000D02*
X8255000Y-5882000D01*
X8215000Y-5842000D02*
X8295000Y-5842000D01*
X8255000Y-7326000D02*
X8255000Y-7406000D01*
X8215000Y-7366000D02*
X8295000Y-7366000D01*
X8509000Y-5802000D02*
X8509000Y-5882000D01*
X8469000Y-5842000D02*
X8549000Y-5842000D01*
X8755000Y-3897000D02*
X8755000Y-3977000D01*
X8715000Y-3937000D02*
X8795000Y-3937000D01*
X8763000Y-5802000D02*
X8763000Y-5882000D01*
X8723000Y-5842000D02*
X8803000Y-5842000D01*
X9017000Y-5802000D02*
X9017000Y-5882000D01*
X8977000Y-5842000D02*
X9057000Y-5842000D01*
X9271000Y-5802000D02*
X9271000Y-5882000D01*
X9231000Y-5842000D02*
X9311000Y-5842000D01*
X10037000Y-3271000D02*
X10037000Y-3351000D01*
X9997000Y-3311000D02*
X10077000Y-3311000D01*
X10237000Y-3271000D02*
X10237000Y-3351000D01*
X10197000Y-3311000D02*
X10277000Y-3311000D01*
X10437000Y-3271000D02*
X10437000Y-3351000D01*
X10397000Y-3311000D02*
X10477000Y-3311000D01*
X10637000Y-3271000D02*
X10637000Y-3351000D01*
X10597000Y-3311000D02*
X10677000Y-3311000D01*
X10837000Y-3271000D02*
X10837000Y-3351000D01*
X10797000Y-3311000D02*
X10877000Y-3311000D01*
X11811000Y-3389000D02*
X11811000Y-3469000D01*
X11771000Y-3429000D02*
X11851000Y-3429000D01*
X11811000Y-3770000D02*
X11811000Y-3850000D01*
X11771000Y-3810000D02*
X11851000Y-3810000D01*
X12827000Y-3389000D02*
X12827000Y-3469000D01*
X12787000Y-3429000D02*
X12867000Y-3429000D01*
X12827000Y-3770000D02*
X12827000Y-3850000D01*
X12787000Y-3810000D02*
X12867000Y-3810000D01*
X13462000Y-3897000D02*
X13462000Y-3977000D01*
X13422000Y-3937000D02*
X13502000Y-3937000D01*
X13962000Y-3897000D02*
X13962000Y-3977000D01*
X13922000Y-3937000D02*
X14002000Y-3937000D01*
X14224000Y-5294000D02*
X14224000Y-5374000D01*
X14184000Y-5334000D02*
X14264000Y-5334000D01*
X14224000Y-5794000D02*
X14224000Y-5874000D01*
X14184000Y-5834000D02*
X14264000Y-5834000D01*
X14224000Y-6183000D02*
X14224000Y-6263000D01*
X14184000Y-6223000D02*
X14264000Y-6223000D01*
X14224000Y-6683000D02*
X14224000Y-6763000D01*
X14184000Y-6723000D02*
X14264000Y-6723000D01*
X14224000Y-7143500D02*
X14224000Y-7223500D01*
X14184000Y-7183500D02*
X14264000Y-7183500D01*
X14224000Y-7643500D02*
X14224000Y-7723500D01*
X14184000Y-7683500D02*
X14264000Y-7683500D01*
X14732000Y-5548000D02*
X14732000Y-5628000D01*
X14692000Y-5588000D02*
X14772000Y-5588000D01*
X14732000Y-5802000D02*
X14732000Y-5882000D01*
X14692000Y-5842000D02*
X14772000Y-5842000D01*
X14732000Y-6056000D02*
X14732000Y-6136000D01*
X14692000Y-6096000D02*
X14772000Y-6096000D01*
X14732000Y-6310000D02*
X14732000Y-6390000D01*
X14692000Y-6350000D02*
X14772000Y-6350000D01*
X14732000Y-6564000D02*
X14732000Y-6644000D01*
X14692000Y-6604000D02*
X14772000Y-6604000D01*
X14732000Y-6818000D02*
X14732000Y-6898000D01*
X14692000Y-6858000D02*
X14772000Y-6858000D01*
X14732000Y-7072000D02*
X14732000Y-7152000D01*
X14692000Y-7112000D02*
X14772000Y-7112000D01*
X14732000Y-7326000D02*
X14732000Y-7406000D01*
X14692000Y-7366000D02*
X14772000Y-7366000D01*
X14867000Y-4913000D02*
X14867000Y-4993000D01*
X14827000Y-4953000D02*
X14907000Y-4953000D01*
X15012000Y-9346000D02*
X15012000Y-9426000D01*
X14972000Y-9386000D02*
X15052000Y-9386000D01*
X15012000Y-9546000D02*
X15012000Y-9626000D01*
X14972000Y-9586000D02*
X15052000Y-9586000D01*
X15012000Y-9746000D02*
X15012000Y-9826000D01*
X14972000Y-9786000D02*
X15052000Y-9786000D01*
X15012000Y-9946000D02*
X15012000Y-10026000D01*
X14972000Y-9986000D02*
X15052000Y-9986000D01*
X15012000Y-10146000D02*
X15012000Y-10226000D01*
X14972000Y-10186000D02*
X15052000Y-10186000D01*
X15012000Y-10346000D02*
X15012000Y-10426000D01*
X14972000Y-10386000D02*
X15052000Y-10386000D01*
X15367000Y-4913000D02*
X15367000Y-4993000D01*
X15327000Y-4953000D02*
X15407000Y-4953000D01*
X15494000Y-5548000D02*
X15494000Y-5628000D01*
X15454000Y-5588000D02*
X15534000Y-5588000D01*
X15494000Y-5802000D02*
X15494000Y-5882000D01*
X15454000Y-5842000D02*
X15534000Y-5842000D01*
X15494000Y-6056000D02*
X15494000Y-6136000D01*
X15454000Y-6096000D02*
X15534000Y-6096000D01*
X15494000Y-6310000D02*
X15494000Y-6390000D01*
X15454000Y-6350000D02*
X15534000Y-6350000D01*
X15494000Y-6564000D02*
X15494000Y-6644000D01*
X15454000Y-6604000D02*
X15534000Y-6604000D01*
X15494000Y-6818000D02*
X15494000Y-6898000D01*
X15454000Y-6858000D02*
X15534000Y-6858000D01*
X15494000Y-7072000D02*
X15494000Y-7152000D01*
X15454000Y-7112000D02*
X15534000Y-7112000D01*
X15494000Y-7326000D02*
X15494000Y-7406000D01*
X15454000Y-7366000D02*
X15534000Y-7366000D01*
X15875000Y-4532000D02*
X15875000Y-4612000D01*
X15835000Y-4572000D02*
X15915000Y-4572000D01*
X15875000Y-5548000D02*
X15875000Y-5628000D01*
X15835000Y-5588000D02*
X15915000Y-5588000D01*
X16887000Y-3283500D02*
X16887000Y-3363500D01*
X16847000Y-3323500D02*
X16927000Y-3323500D01*
X17087000Y-3283500D02*
X17087000Y-3363500D01*
X17047000Y-3323500D02*
X17127000Y-3323500D01*
X17287000Y-3283500D02*
X17287000Y-3363500D01*
X17247000Y-3323500D02*
X17327000Y-3323500D01*
X17396000Y-4146000D02*
X17396000Y-4226000D01*
X17356000Y-4186000D02*
X17436000Y-4186000D01*
X17487000Y-9230000D02*
X17487000Y-9310000D01*
X17447000Y-9270000D02*
X17527000Y-9270000D01*
X17487000Y-10246000D02*
X17487000Y-10326000D01*
X17447000Y-10286000D02*
X17527000Y-10286000D01*
X17887000Y-4621000D02*
X17887000Y-4701000D01*
X17847000Y-4661000D02*
X17927000Y-4661000D01*
X18137000Y-9230000D02*
X18137000Y-9310000D01*
X18097000Y-9270000D02*
X18177000Y-9270000D01*
X18137000Y-10246000D02*
X18137000Y-10326000D01*
X18097000Y-10286000D02*
X18177000Y-10286000D01*
X18387000Y-4621000D02*
X18387000Y-4701000D01*
X18347000Y-4661000D02*
X18427000Y-4661000D01*
X18412000Y-4146000D02*
X18412000Y-4226000D01*
X18372000Y-4186000D02*
X18452000Y-4186000D01*
X18712000Y-3308500D02*
X18712000Y-3388500D01*
X18672000Y-3348500D02*
X18752000Y-3348500D01*
X18846000Y-4146000D02*
X18846000Y-4226000D01*
X18806000Y-4186000D02*
X18886000Y-4186000D01*
X18900000Y-6419000D02*
X18900000Y-6499000D01*
X18860000Y-6459000D02*
X18940000Y-6459000D01*
X18900000Y-6673000D02*
X18900000Y-6753000D01*
X18860000Y-6713000D02*
X18940000Y-6713000D01*
X18900000Y-6927000D02*
X18900000Y-7007000D01*
X18860000Y-6967000D02*
X18940000Y-6967000D01*
X18900000Y-7181000D02*
X18900000Y-7261000D01*
X18860000Y-7221000D02*
X18940000Y-7221000D01*
X18900000Y-7435000D02*
X18900000Y-7515000D01*
X18860000Y-7475000D02*
X18940000Y-7475000D01*
X18900000Y-7689000D02*
X18900000Y-7769000D01*
X18860000Y-7729000D02*
X18940000Y-7729000D01*
X18900000Y-7943000D02*
X18900000Y-8023000D01*
X18860000Y-7983000D02*
X18940000Y-7983000D01*
X18900000Y-8197000D02*
X18900000Y-8277000D01*
X18860000Y-8237000D02*
X18940000Y-8237000D01*
X18900000Y-8451000D02*
X18900000Y-8531000D01*
X18860000Y-8491000D02*
X18940000Y-8491000D01*
X18900000Y-8705000D02*
X18900000Y-8785000D01*
X18860000Y-8745000D02*
X18940000Y-8745000D01*
X18900000Y-8959000D02*
X18900000Y-9039000D01*
X18860000Y-8999000D02*
X18940000Y-8999000D01*
X18900000Y-9213000D02*
X18900000Y-9293000D01*
X18860000Y-9253000D02*
X18940000Y-9253000D01*
X18900000Y-9467000D02*
X18900000Y-9547000D01*
X18860000Y-9507000D02*
X18940000Y-9507000D01*
X18900000Y-9721000D02*
X18900000Y-9801000D01*
X18860000Y-9761000D02*
X18940000Y-9761000D01*
X18912000Y-3308500D02*
X18912000Y-3388500D01*
X18872000Y-3348500D02*
X18952000Y-3348500D01*
X19112000Y-3308500D02*
X19112000Y-3388500D01*
X19072000Y-3348500D02*
X19152000Y-3348500D01*
X19312000Y-3308500D02*
X19312000Y-3388500D01*
X19272000Y-3348500D02*
X19352000Y-3348500D01*
X19512000Y-3308500D02*
X19512000Y-3388500D01*
X19472000Y-3348500D02*
X19552000Y-3348500D01*
X19662000Y-6419000D02*
X19662000Y-6499000D01*
X19622000Y-6459000D02*
X19702000Y-6459000D01*
X19662000Y-6673000D02*
X19662000Y-6753000D01*
X19622000Y-6713000D02*
X19702000Y-6713000D01*
X19662000Y-6927000D02*
X19662000Y-7007000D01*
X19622000Y-6967000D02*
X19702000Y-6967000D01*
X19662000Y-7181000D02*
X19662000Y-7261000D01*
X19622000Y-7221000D02*
X19702000Y-7221000D01*
X19662000Y-7435000D02*
X19662000Y-7515000D01*
X19622000Y-7475000D02*
X19702000Y-7475000D01*
X19662000Y-7689000D02*
X19662000Y-7769000D01*
X19622000Y-7729000D02*
X19702000Y-7729000D01*
X19662000Y-7943000D02*
X19662000Y-8023000D01*
X19622000Y-7983000D02*
X19702000Y-7983000D01*
X19662000Y-8197000D02*
X19662000Y-8277000D01*
X19622000Y-8237000D02*
X19702000Y-8237000D01*
X19662000Y-8451000D02*
X19662000Y-8531000D01*
X19622000Y-8491000D02*
X19702000Y-8491000D01*
X19662000Y-8705000D02*
X19662000Y-8785000D01*
X19622000Y-8745000D02*
X19702000Y-8745000D01*
X19662000Y-8959000D02*
X19662000Y-9039000D01*
X19622000Y-8999000D02*
X19702000Y-8999000D01*
X19662000Y-9213000D02*
X19662000Y-9293000D01*
X19622000Y-9253000D02*
X19702000Y-9253000D01*
X19662000Y-9467000D02*
X19662000Y-9547000D01*
X19622000Y-9507000D02*
X19702000Y-9507000D01*
X19662000Y-9721000D02*
X19662000Y-9801000D01*
X19622000Y-9761000D02*
X19702000Y-9761000D01*
X19862000Y-4146000D02*
X19862000Y-4226000D01*
X19822000Y-4186000D02*
X19902000Y-4186000D01*
X20937000Y-3158500D02*
X20937000Y-3238500D01*
X20897000Y-3198500D02*
X20977000Y-3198500D01*
X20937000Y-3358500D02*
X20937000Y-3438500D01*
X20897000Y-3398500D02*
X20977000Y-3398500D01*
X21137000Y-3158500D02*
X21137000Y-3238500D01*
X21097000Y-3198500D02*
X21177000Y-3198500D01*
X21137000Y-3358500D02*
X21137000Y-3438500D01*
X21097000Y-3398500D02*
X21177000Y-3398500D01*
X21300000Y-6423000D02*
X21300000Y-6503000D01*
X21260000Y-6463000D02*
X21340000Y-6463000D01*
X21300000Y-6677000D02*
X21300000Y-6757000D01*
X21260000Y-6717000D02*
X21340000Y-6717000D01*
X21300000Y-6931000D02*
X21300000Y-7011000D01*
X21260000Y-6971000D02*
X21340000Y-6971000D01*
X21300000Y-7185000D02*
X21300000Y-7265000D01*
X21260000Y-7225000D02*
X21340000Y-7225000D01*
X21300000Y-7439000D02*
X21300000Y-7519000D01*
X21260000Y-7479000D02*
X21340000Y-7479000D01*
X21300000Y-7693000D02*
X21300000Y-7773000D01*
X21260000Y-7733000D02*
X21340000Y-7733000D01*
X21300000Y-7947000D02*
X21300000Y-8027000D01*
X21260000Y-7987000D02*
X21340000Y-7987000D01*
X21300000Y-8201000D02*
X21300000Y-8281000D01*
X21260000Y-8241000D02*
X21340000Y-8241000D01*
X21300000Y-8455000D02*
X21300000Y-8535000D01*
X21260000Y-8495000D02*
X21340000Y-8495000D01*
X21300000Y-8709000D02*
X21300000Y-8789000D01*
X21260000Y-8749000D02*
X21340000Y-8749000D01*
X21300000Y-8963000D02*
X21300000Y-9043000D01*
X21260000Y-9003000D02*
X21340000Y-9003000D01*
X21300000Y-9217000D02*
X21300000Y-9297000D01*
X21260000Y-9257000D02*
X21340000Y-9257000D01*
X21300000Y-9471000D02*
X21300000Y-9551000D01*
X21260000Y-9511000D02*
X21340000Y-9511000D01*
X21300000Y-9725000D02*
X21300000Y-9805000D01*
X21260000Y-9765000D02*
X21340000Y-9765000D01*
X21337000Y-3158500D02*
X21337000Y-3238500D01*
X21297000Y-3198500D02*
X21377000Y-3198500D01*
X21337000Y-3358500D02*
X21337000Y-3438500D01*
X21297000Y-3398500D02*
X21377000Y-3398500D01*
X21537000Y-3158500D02*
X21537000Y-3238500D01*
X21497000Y-3198500D02*
X21577000Y-3198500D01*
X21537000Y-3358500D02*
X21537000Y-3438500D01*
X21497000Y-3398500D02*
X21577000Y-3398500D01*
X21737000Y-3158500D02*
X21737000Y-3238500D01*
X21697000Y-3198500D02*
X21777000Y-3198500D01*
X21737000Y-3358500D02*
X21737000Y-3438500D01*
X21697000Y-3398500D02*
X21777000Y-3398500D01*
X21937000Y-3158500D02*
X21937000Y-3238500D01*
X21897000Y-3198500D02*
X21977000Y-3198500D01*
X21937000Y-3358500D02*
X21937000Y-3438500D01*
X21897000Y-3398500D02*
X21977000Y-3398500D01*
X22062000Y-6423000D02*
X22062000Y-6503000D01*
X22022000Y-6463000D02*
X22102000Y-6463000D01*
X22062000Y-6677000D02*
X22062000Y-6757000D01*
X22022000Y-6717000D02*
X22102000Y-6717000D01*
X22062000Y-6931000D02*
X22062000Y-7011000D01*
X22022000Y-6971000D02*
X22102000Y-6971000D01*
X22062000Y-7185000D02*
X22062000Y-7265000D01*
X22022000Y-7225000D02*
X22102000Y-7225000D01*
X22062000Y-7439000D02*
X22062000Y-7519000D01*
X22022000Y-7479000D02*
X22102000Y-7479000D01*
X22062000Y-7693000D02*
X22062000Y-7773000D01*
X22022000Y-7733000D02*
X22102000Y-7733000D01*
X22062000Y-7947000D02*
X22062000Y-8027000D01*
X22022000Y-7987000D02*
X22102000Y-7987000D01*
X22062000Y-8201000D02*
X22062000Y-8281000D01*
X22022000Y-8241000D02*
X22102000Y-8241000D01*
X22062000Y-8455000D02*
X22062000Y-8535000D01*
X22022000Y-8495000D02*
X22102000Y-8495000D01*
X22062000Y-8709000D02*
X22062000Y-8789000D01*
X22022000Y-8749000D02*
X22102000Y-8749000D01*
X22062000Y-8963000D02*
X22062000Y-9043000D01*
X22022000Y-9003000D02*
X22102000Y-9003000D01*
X22062000Y-9217000D02*
X22062000Y-9297000D01*
X22022000Y-9257000D02*
X22102000Y-9257000D01*
X22062000Y-9471000D02*
X22062000Y-9551000D01*
X22022000Y-9511000D02*
X22102000Y-9511000D01*
X22062000Y-9725000D02*
X22062000Y-9805000D01*
X22022000Y-9765000D02*
X22102000Y-9765000D01*
X23712000Y-3133500D02*
X23712000Y-3213500D01*
X23672000Y-3173500D02*
X23752000Y-3173500D01*
X23712000Y-3333500D02*
X23712000Y-3413500D01*
X23672000Y-3373500D02*
X23752000Y-3373500D01*
X23912000Y-3133500D02*
X23912000Y-3213500D01*
X23872000Y-3173500D02*
X23952000Y-3173500D01*
X23912000Y-3333500D02*
X23912000Y-3413500D01*
X23872000Y-3373500D02*
X23952000Y-3373500D01*
X24112000Y-3133500D02*
X24112000Y-3213500D01*
X24072000Y-3173500D02*
X24152000Y-3173500D01*
X24112000Y-3333500D02*
X24112000Y-3413500D01*
X24072000Y-3373500D02*
X24152000Y-3373500D01*
X24312000Y-3133500D02*
X24312000Y-3213500D01*
X24272000Y-3173500D02*
X24352000Y-3173500D01*
X24312000Y-3333500D02*
X24312000Y-3413500D01*
X24272000Y-3373500D02*
X24352000Y-3373500D01*
X24512000Y-3133500D02*
X24512000Y-3213500D01*
X24472000Y-3173500D02*
X24552000Y-3173500D01*
X24512000Y-3333500D02*
X24512000Y-3413500D01*
X24472000Y-3373500D02*
X24552000Y-3373500D01*
X24712000Y-3133500D02*
X24712000Y-3213500D01*
X24672000Y-3173500D02*
X24752000Y-3173500D01*
X24712000Y-3333500D02*
X24712000Y-3413500D01*
X24672000Y-3373500D02*
X24752000Y-3373500D01*
X26387000Y-3133500D02*
X26387000Y-3213500D01*
X26347000Y-3173500D02*
X26427000Y-3173500D01*
X26387000Y-3333500D02*
X26387000Y-3413500D01*
X26347000Y-3373500D02*
X26427000Y-3373500D01*
X26587000Y-3133500D02*
X26587000Y-3213500D01*
X26547000Y-3173500D02*
X26627000Y-3173500D01*
X26587000Y-3333500D02*
X26587000Y-3413500D01*
X26547000Y-3373500D02*
X26627000Y-3373500D01*
X26787000Y-3133500D02*
X26787000Y-3213500D01*
X26747000Y-3173500D02*
X26827000Y-3173500D01*
X26787000Y-3333500D02*
X26787000Y-3413500D01*
X26747000Y-3373500D02*
X26827000Y-3373500D01*
X26987000Y-3133500D02*
X26987000Y-3213500D01*
X26947000Y-3173500D02*
X27027000Y-3173500D01*
X26987000Y-3333500D02*
X26987000Y-3413500D01*
X26947000Y-3373500D02*
X27027000Y-3373500D01*
X27187000Y-3133500D02*
X27187000Y-3213500D01*
X27147000Y-3173500D02*
X27227000Y-3173500D01*
X27187000Y-3333500D02*
X27187000Y-3413500D01*
X27147000Y-3373500D02*
X27227000Y-3373500D01*
X27387000Y-3133500D02*
X27387000Y-3213500D01*
X27347000Y-3173500D02*
X27427000Y-3173500D01*
X27387000Y-3333500D02*
X27387000Y-3413500D01*
X27347000Y-3373500D02*
X27427000Y-3373500D01*
X4945588Y-3094588D02*
X4945588Y-3027412D01*
X4878412Y-3027412D01*
X4878412Y-3094588D01*
X4945588Y-3094588D01*
X4945588Y-3569588D02*
X4945588Y-3502412D01*
X4878412Y-3502412D01*
X4878412Y-3569588D01*
X4945588Y-3569588D01*
X5420588Y-10869588D02*
X5420588Y-10802412D01*
X5353412Y-10802412D01*
X5353412Y-10869588D01*
X5420588Y-10869588D01*
X5420588Y-11519588D02*
X5420588Y-11452412D01*
X5353412Y-11452412D01*
X5353412Y-11519588D01*
X5420588Y-11519588D01*
X5895588Y-10869588D02*
X5895588Y-10802412D01*
X5828412Y-10802412D01*
X5828412Y-10869588D01*
X5895588Y-10869588D01*
X5895588Y-11519588D02*
X5895588Y-11452412D01*
X5828412Y-11452412D01*
X5828412Y-11519588D01*
X5895588Y-11519588D01*
X6195588Y-3094588D02*
X6195588Y-3027412D01*
X6128412Y-3027412D01*
X6128412Y-3094588D01*
X6195588Y-3094588D01*
X6195588Y-3569588D02*
X6195588Y-3502412D01*
X6128412Y-3502412D01*
X6128412Y-3569588D01*
X6195588Y-3569588D01*
X9845588Y-3107088D02*
X9845588Y-3039912D01*
X9778412Y-3039912D01*
X9778412Y-3107088D01*
X9845588Y-3107088D01*
X9845588Y-3582088D02*
X9845588Y-3514912D01*
X9778412Y-3514912D01*
X9778412Y-3582088D01*
X9845588Y-3582088D01*
X11095588Y-3107088D02*
X11095588Y-3039912D01*
X11028412Y-3039912D01*
X11028412Y-3107088D01*
X11095588Y-3107088D01*
X11095588Y-3582088D02*
X11095588Y-3514912D01*
X11028412Y-3514912D01*
X11028412Y-3582088D01*
X11095588Y-3582088D01*
X14808088Y-9194588D02*
X14808088Y-9127412D01*
X14740912Y-9127412D01*
X14740912Y-9194588D01*
X14808088Y-9194588D01*
X14808088Y-10644588D02*
X14808088Y-10577412D01*
X14740912Y-10577412D01*
X14740912Y-10644588D01*
X14808088Y-10644588D01*
X15283088Y-9194588D02*
X15283088Y-9127412D01*
X15215912Y-9127412D01*
X15215912Y-9194588D01*
X15283088Y-9194588D01*
X15283088Y-10644588D02*
X15283088Y-10577412D01*
X15215912Y-10577412D01*
X15215912Y-10644588D01*
X15283088Y-10644588D01*
X16695588Y-3119588D02*
X16695588Y-3052412D01*
X16628412Y-3052412D01*
X16628412Y-3119588D01*
X16695588Y-3119588D01*
X16695588Y-3594588D02*
X16695588Y-3527412D01*
X16628412Y-3527412D01*
X16628412Y-3594588D01*
X16695588Y-3594588D01*
X17545588Y-3119588D02*
X17545588Y-3052412D01*
X17478412Y-3052412D01*
X17478412Y-3119588D01*
X17545588Y-3119588D01*
X17545588Y-3594588D02*
X17545588Y-3527412D01*
X17478412Y-3527412D01*
X17478412Y-3594588D01*
X17545588Y-3594588D01*
X18520588Y-3144588D02*
X18520588Y-3077412D01*
X18453412Y-3077412D01*
X18453412Y-3144588D01*
X18520588Y-3144588D01*
X18520588Y-3619588D02*
X18520588Y-3552412D01*
X18453412Y-3552412D01*
X18453412Y-3619588D01*
X18520588Y-3619588D01*
X19770588Y-3144588D02*
X19770588Y-3077412D01*
X19703412Y-3077412D01*
X19703412Y-3144588D01*
X19770588Y-3144588D01*
X19770588Y-3619588D02*
X19770588Y-3552412D01*
X19703412Y-3552412D01*
X19703412Y-3619588D01*
X19770588Y-3619588D01*
X20745588Y-3094588D02*
X20745588Y-3027412D01*
X20678412Y-3027412D01*
X20678412Y-3094588D01*
X20745588Y-3094588D01*
X20745588Y-3569588D02*
X20745588Y-3502412D01*
X20678412Y-3502412D01*
X20678412Y-3569588D01*
X20745588Y-3569588D01*
X22195588Y-3094588D02*
X22195588Y-3027412D01*
X22128412Y-3027412D01*
X22128412Y-3094588D01*
X22195588Y-3094588D01*
X22195588Y-3569588D02*
X22195588Y-3502412D01*
X22128412Y-3502412D01*
X22128412Y-3569588D01*
X22195588Y-3569588D01*
X23520588Y-3069588D02*
X23520588Y-3002412D01*
X23453412Y-3002412D01*
X23453412Y-3069588D01*
X23520588Y-3069588D01*
X23520588Y-3544588D02*
X23520588Y-3477412D01*
X23453412Y-3477412D01*
X23453412Y-3544588D01*
X23520588Y-3544588D01*
X24970588Y-3069588D02*
X24970588Y-3002412D01*
X24903412Y-3002412D01*
X24903412Y-3069588D01*
X24970588Y-3069588D01*
X24970588Y-3544588D02*
X24970588Y-3477412D01*
X24903412Y-3477412D01*
X24903412Y-3544588D01*
X24970588Y-3544588D01*
X26195588Y-3069588D02*
X26195588Y-3002412D01*
X26128412Y-3002412D01*
X26128412Y-3069588D01*
X26195588Y-3069588D01*
X26195588Y-3544588D02*
X26195588Y-3477412D01*
X26128412Y-3477412D01*
X26128412Y-3544588D01*
X26195588Y-3544588D01*
X27645588Y-3069588D02*
X27645588Y-3002412D01*
X27578412Y-3002412D01*
X27578412Y-3069588D01*
X27645588Y-3069588D01*
X27645588Y-3544588D02*
X27645588Y-3477412D01*
X27578412Y-3477412D01*
X27578412Y-3544588D01*
X27645588Y-3544588D01*
X5842000Y-9829800D02*
X5892800Y-9779000D01*
X5842000Y-9728200D01*
X5791200Y-9779000D01*
X5842000Y-9829800D01*
X5842000Y-10083800D02*
X5892800Y-10033000D01*
X5842000Y-9982200D01*
X5791200Y-10033000D01*
X5842000Y-10083800D01*
X6096000Y-9829800D02*
X6146800Y-9779000D01*
X6096000Y-9728200D01*
X6045200Y-9779000D01*
X6096000Y-9829800D01*
X6096000Y-10083800D02*
X6146800Y-10033000D01*
X6096000Y-9982200D01*
X6045200Y-10033000D01*
X6096000Y-10083800D01*
X6350000Y-9829800D02*
X6400800Y-9779000D01*
X6350000Y-9728200D01*
X6299200Y-9779000D01*
X6350000Y-9829800D01*
X6350000Y-10083800D02*
X6400800Y-10033000D01*
X6350000Y-9982200D01*
X6299200Y-10033000D01*
X6350000Y-10083800D01*
X6604000Y-9829800D02*
X6654800Y-9779000D01*
X6604000Y-9728200D01*
X6553200Y-9779000D01*
X6604000Y-9829800D01*
X6604000Y-10083800D02*
X6654800Y-10033000D01*
X6604000Y-9982200D01*
X6553200Y-10033000D01*
X6604000Y-10083800D01*
X6858000Y-9829800D02*
X6908800Y-9779000D01*
X6858000Y-9728200D01*
X6807200Y-9779000D01*
X6858000Y-9829800D01*
X6858000Y-10083800D02*
X6908800Y-10033000D01*
X6858000Y-9982200D01*
X6807200Y-10033000D01*
X6858000Y-10083800D01*
X7112000Y-9829800D02*
X7162800Y-9779000D01*
X7112000Y-9728200D01*
X7061200Y-9779000D01*
X7112000Y-9829800D01*
X7112000Y-10083800D02*
X7162800Y-10033000D01*
X7112000Y-9982200D01*
X7061200Y-10033000D01*
X7112000Y-10083800D01*
X7366000Y-9829800D02*
X7416800Y-9779000D01*
X7366000Y-9728200D01*
X7315200Y-9779000D01*
X7366000Y-9829800D01*
X7366000Y-10083800D02*
X7416800Y-10033000D01*
X7366000Y-9982200D01*
X7315200Y-10033000D01*
X7366000Y-10083800D01*
X7620000Y-9829800D02*
X7670800Y-9779000D01*
X7620000Y-9728200D01*
X7569200Y-9779000D01*
X7620000Y-9829800D01*
X7620000Y-10083800D02*
X7670800Y-10033000D01*
X7620000Y-9982200D01*
X7569200Y-10033000D01*
X7620000Y-10083800D01*
X7874000Y-9829800D02*
X7924800Y-9779000D01*
X7874000Y-9728200D01*
X7823200Y-9779000D01*
X7874000Y-9829800D01*
X7874000Y-10083800D02*
X7924800Y-10033000D01*
X7874000Y-9982200D01*
X7823200Y-10033000D01*
X7874000Y-10083800D01*
X8128000Y-9829800D02*
X8178800Y-9779000D01*
X8128000Y-9728200D01*
X8077200Y-9779000D01*
X8128000Y-9829800D01*
X8128000Y-10083800D02*
X8178800Y-10033000D01*
X8128000Y-9982200D01*
X8077200Y-10033000D01*
X8128000Y-10083800D01*
X8382000Y-9829800D02*
X8432800Y-9779000D01*
X8382000Y-9728200D01*
X8331200Y-9779000D01*
X8382000Y-9829800D01*
X8382000Y-10083800D02*
X8432800Y-10033000D01*
X8382000Y-9982200D01*
X8331200Y-10033000D01*
X8382000Y-10083800D01*
X8636000Y-9829800D02*
X8686800Y-9779000D01*
X8636000Y-9728200D01*
X8585200Y-9779000D01*
X8636000Y-9829800D01*
X8636000Y-10083800D02*
X8686800Y-10033000D01*
X8636000Y-9982200D01*
X8585200Y-10033000D01*
X8636000Y-10083800D01*
X8890000Y-9829800D02*
X8940800Y-9779000D01*
X8890000Y-9728200D01*
X8839200Y-9779000D01*
X8890000Y-9829800D01*
X8890000Y-10083800D02*
X8940800Y-10033000D01*
X8890000Y-9982200D01*
X8839200Y-10033000D01*
X8890000Y-10083800D01*
X9144000Y-9829800D02*
X9194800Y-9779000D01*
X9144000Y-9728200D01*
X9093200Y-9779000D01*
X9144000Y-9829800D01*
X9144000Y-10083800D02*
X9194800Y-10033000D01*
X9144000Y-9982200D01*
X9093200Y-10033000D01*
X9144000Y-10083800D01*
X9398000Y-9829800D02*
X9448800Y-9779000D01*
X9398000Y-9728200D01*
X9347200Y-9779000D01*
X9398000Y-9829800D01*
X9398000Y-10083800D02*
X9448800Y-10033000D01*
X9398000Y-9982200D01*
X9347200Y-10033000D01*
X9398000Y-10083800D01*
X9652000Y-9829800D02*
X9702800Y-9779000D01*
X9652000Y-9728200D01*
X9601200Y-9779000D01*
X9652000Y-9829800D01*
X9652000Y-10083800D02*
X9702800Y-10033000D01*
X9652000Y-9982200D01*
X9601200Y-10033000D01*
X9652000Y-10083800D01*
X9906000Y-9829800D02*
X9956800Y-9779000D01*
X9906000Y-9728200D01*
X9855200Y-9779000D01*
X9906000Y-9829800D01*
X9906000Y-10083800D02*
X9956800Y-10033000D01*
X9906000Y-9982200D01*
X9855200Y-10033000D01*
X9906000Y-10083800D01*
X10160000Y-9829800D02*
X10210800Y-9779000D01*
X10160000Y-9728200D01*
X10109200Y-9779000D01*
X10160000Y-9829800D01*
X10160000Y-10083800D02*
X10210800Y-10033000D01*
X10160000Y-9982200D01*
X10109200Y-10033000D01*
X10160000Y-10083800D01*
X10414000Y-9829800D02*
X10464800Y-9779000D01*
X10414000Y-9728200D01*
X10363200Y-9779000D01*
X10414000Y-9829800D01*
X10414000Y-10083800D02*
X10464800Y-10033000D01*
X10414000Y-9982200D01*
X10363200Y-10033000D01*
X10414000Y-10083800D01*
X10668000Y-9829800D02*
X10718800Y-9779000D01*
X10668000Y-9728200D01*
X10617200Y-9779000D01*
X10668000Y-9829800D01*
X10668000Y-10083800D02*
X10718800Y-10033000D01*
X10668000Y-9982200D01*
X10617200Y-10033000D01*
X10668000Y-10083800D01*
X5217500Y-4868500D02*
X5492500Y-5143500D01*
X5492500Y-4868500D02*
X5217500Y-5143500D01*
X5492500Y-5006000D02*
G75*
G03X5492500Y-5006000I-137500J0D01*
G01*
X5217500Y-9768500D02*
X5492500Y-10043500D01*
X5492500Y-9768500D02*
X5217500Y-10043500D01*
X5492500Y-9906000D02*
G75*
G03X5492500Y-9906000I-137500J0D01*
G01*
X11017500Y-4868500D02*
X11292500Y-5143500D01*
X11292500Y-4868500D02*
X11017500Y-5143500D01*
X11292500Y-5006000D02*
G75*
G03X11292500Y-5006000I-137500J0D01*
G01*
X11017500Y-9768500D02*
X11292500Y-10043500D01*
X11292500Y-9768500D02*
X11017500Y-10043500D01*
X11292500Y-9906000D02*
G75*
G03X11292500Y-9906000I-137500J0D01*
G01*
D13*
X4203429Y-12281714D02*
X4203429Y-11981714D01*
X4274857Y-11981714D01*
X4317714Y-11996000D01*
X4346286Y-12024571D01*
X4360571Y-12053143D01*
X4374857Y-12110286D01*
X4374857Y-12153143D01*
X4360571Y-12210286D01*
X4346286Y-12238857D01*
X4317714Y-12267429D01*
X4274857Y-12281714D01*
X4203429Y-12281714D01*
X4503429Y-12281714D02*
X4503429Y-12081714D01*
X4503429Y-12138857D02*
X4517714Y-12110286D01*
X4532000Y-12096000D01*
X4560571Y-12081714D01*
X4589143Y-12081714D01*
X4689143Y-12281714D02*
X4689143Y-12081714D01*
X4689143Y-11981714D02*
X4674857Y-11996000D01*
X4689143Y-12010286D01*
X4703429Y-11996000D01*
X4689143Y-11981714D01*
X4689143Y-12010286D01*
X4874857Y-12281714D02*
X4846286Y-12267429D01*
X4832000Y-12238857D01*
X4832000Y-11981714D01*
X5032000Y-12281714D02*
X5003429Y-12267429D01*
X4989143Y-12238857D01*
X4989143Y-11981714D01*
X5374857Y-12281714D02*
X5374857Y-11981714D01*
X5474857Y-12196000D01*
X5574857Y-11981714D01*
X5574857Y-12281714D01*
X5846286Y-12281714D02*
X5846286Y-12124571D01*
X5832000Y-12096000D01*
X5803428Y-12081714D01*
X5746286Y-12081714D01*
X5717714Y-12096000D01*
X5846286Y-12267429D02*
X5817714Y-12281714D01*
X5746286Y-12281714D01*
X5717714Y-12267429D01*
X5703428Y-12238857D01*
X5703428Y-12210286D01*
X5717714Y-12181714D01*
X5746286Y-12167429D01*
X5817714Y-12167429D01*
X5846286Y-12153143D01*
X5989143Y-12081714D02*
X5989143Y-12381714D01*
X5989143Y-12096000D02*
X6017714Y-12081714D01*
X6074857Y-12081714D01*
X6103428Y-12096000D01*
X6117714Y-12110286D01*
X6132000Y-12138857D01*
X6132000Y-12224571D01*
X6117714Y-12253143D01*
X6103428Y-12267429D01*
X6074857Y-12281714D01*
X6017714Y-12281714D01*
X5989143Y-12267429D01*
X6260571Y-12253143D02*
X6274857Y-12267429D01*
X6260571Y-12281714D01*
X6246286Y-12267429D01*
X6260571Y-12253143D01*
X6260571Y-12281714D01*
X6260571Y-12096000D02*
X6274857Y-12110286D01*
X6260571Y-12124571D01*
X6246286Y-12110286D01*
X6260571Y-12096000D01*
X6260571Y-12124571D01*
X3892000Y-12756000D02*
X3932000Y-12796000D01*
X3932000Y-12756000D02*
X3892000Y-12796000D01*
X4260571Y-12611714D02*
X4289143Y-12611714D01*
X4317714Y-12626000D01*
X4332000Y-12640286D01*
X4346286Y-12668857D01*
X4360571Y-12726000D01*
X4360571Y-12797429D01*
X4346286Y-12854571D01*
X4332000Y-12883143D01*
X4317714Y-12897429D01*
X4289143Y-12911714D01*
X4260571Y-12911714D01*
X4232000Y-12897429D01*
X4217714Y-12883143D01*
X4203429Y-12854571D01*
X4189143Y-12797429D01*
X4189143Y-12726000D01*
X4203429Y-12668857D01*
X4217714Y-12640286D01*
X4232000Y-12626000D01*
X4260571Y-12611714D01*
X4489143Y-12883143D02*
X4503429Y-12897429D01*
X4489143Y-12911714D01*
X4474857Y-12897429D01*
X4489143Y-12883143D01*
X4489143Y-12911714D01*
X4760571Y-12711714D02*
X4760571Y-12911714D01*
X4689143Y-12597429D02*
X4617714Y-12811714D01*
X4803428Y-12811714D01*
X4974857Y-12611714D02*
X5003429Y-12611714D01*
X5032000Y-12626000D01*
X5046286Y-12640286D01*
X5060571Y-12668857D01*
X5074857Y-12726000D01*
X5074857Y-12797429D01*
X5060571Y-12854571D01*
X5046286Y-12883143D01*
X5032000Y-12897429D01*
X5003429Y-12911714D01*
X4974857Y-12911714D01*
X4946286Y-12897429D01*
X4932000Y-12883143D01*
X4917714Y-12854571D01*
X4903429Y-12797429D01*
X4903429Y-12726000D01*
X4917714Y-12668857D01*
X4932000Y-12640286D01*
X4946286Y-12626000D01*
X4974857Y-12611714D01*
X5203429Y-12911714D02*
X5203429Y-12711714D01*
X5203429Y-12740286D02*
X5217714Y-12726000D01*
X5246286Y-12711714D01*
X5289143Y-12711714D01*
X5317714Y-12726000D01*
X5332000Y-12754571D01*
X5332000Y-12911714D01*
X5332000Y-12754571D02*
X5346286Y-12726000D01*
X5374857Y-12711714D01*
X5417714Y-12711714D01*
X5446286Y-12726000D01*
X5460571Y-12754571D01*
X5460571Y-12911714D01*
X5603428Y-12911714D02*
X5603428Y-12711714D01*
X5603428Y-12740286D02*
X5617714Y-12726000D01*
X5646286Y-12711714D01*
X5689143Y-12711714D01*
X5717714Y-12726000D01*
X5732000Y-12754571D01*
X5732000Y-12911714D01*
X5732000Y-12754571D02*
X5746286Y-12726000D01*
X5774857Y-12711714D01*
X5817714Y-12711714D01*
X5846286Y-12726000D01*
X5860571Y-12754571D01*
X5860571Y-12911714D01*
X6446286Y-12597429D02*
X6189143Y-12983143D01*
X6832000Y-12611714D02*
X6860571Y-12611714D01*
X6889143Y-12626000D01*
X6903428Y-12640286D01*
X6917714Y-12668857D01*
X6932000Y-12726000D01*
X6932000Y-12797429D01*
X6917714Y-12854571D01*
X6903428Y-12883143D01*
X6889143Y-12897429D01*
X6860571Y-12911714D01*
X6832000Y-12911714D01*
X6803428Y-12897429D01*
X6789143Y-12883143D01*
X6774857Y-12854571D01*
X6760571Y-12797429D01*
X6760571Y-12726000D01*
X6774857Y-12668857D01*
X6789143Y-12640286D01*
X6803428Y-12626000D01*
X6832000Y-12611714D01*
X7060571Y-12883143D02*
X7074857Y-12897429D01*
X7060571Y-12911714D01*
X7046286Y-12897429D01*
X7060571Y-12883143D01*
X7060571Y-12911714D01*
X7260571Y-12611714D02*
X7289143Y-12611714D01*
X7317714Y-12626000D01*
X7332000Y-12640286D01*
X7346285Y-12668857D01*
X7360571Y-12726000D01*
X7360571Y-12797429D01*
X7346285Y-12854571D01*
X7332000Y-12883143D01*
X7317714Y-12897429D01*
X7289143Y-12911714D01*
X7260571Y-12911714D01*
X7232000Y-12897429D01*
X7217714Y-12883143D01*
X7203428Y-12854571D01*
X7189143Y-12797429D01*
X7189143Y-12726000D01*
X7203428Y-12668857D01*
X7217714Y-12640286D01*
X7232000Y-12626000D01*
X7260571Y-12611714D01*
X7646285Y-12911714D02*
X7474857Y-12911714D01*
X7560571Y-12911714D02*
X7560571Y-12611714D01*
X7532000Y-12654571D01*
X7503428Y-12683143D01*
X7474857Y-12697429D01*
X7903428Y-12611714D02*
X7846285Y-12611714D01*
X7817714Y-12626000D01*
X7803428Y-12640286D01*
X7774857Y-12683143D01*
X7760571Y-12740286D01*
X7760571Y-12854571D01*
X7774857Y-12883143D01*
X7789143Y-12897429D01*
X7817714Y-12911714D01*
X7874857Y-12911714D01*
X7903428Y-12897429D01*
X7917714Y-12883143D01*
X7932000Y-12854571D01*
X7932000Y-12783143D01*
X7917714Y-12754571D01*
X7903428Y-12740286D01*
X7874857Y-12726000D01*
X7817714Y-12726000D01*
X7789143Y-12740286D01*
X7774857Y-12754571D01*
X7760571Y-12783143D01*
X8046286Y-12611714D02*
X8046286Y-12668857D01*
X8160571Y-12611714D02*
X8160571Y-12668857D01*
X8603428Y-13026000D02*
X8589143Y-13011714D01*
X8560571Y-12968857D01*
X8546286Y-12940286D01*
X8532000Y-12897429D01*
X8517714Y-12826000D01*
X8517714Y-12768857D01*
X8532000Y-12697429D01*
X8546286Y-12654571D01*
X8560571Y-12626000D01*
X8589143Y-12583143D01*
X8603428Y-12568857D01*
X8874857Y-12911714D02*
X8703428Y-12911714D01*
X8789143Y-12911714D02*
X8789143Y-12611714D01*
X8760571Y-12654571D01*
X8732000Y-12683143D01*
X8703428Y-12697429D01*
X9132000Y-12611714D02*
X9074857Y-12611714D01*
X9046286Y-12626000D01*
X9032000Y-12640286D01*
X9003428Y-12683143D01*
X8989143Y-12740286D01*
X8989143Y-12854571D01*
X9003428Y-12883143D01*
X9017714Y-12897429D01*
X9046286Y-12911714D01*
X9103428Y-12911714D01*
X9132000Y-12897429D01*
X9146286Y-12883143D01*
X9160571Y-12854571D01*
X9160571Y-12783143D01*
X9146286Y-12754571D01*
X9132000Y-12740286D01*
X9103428Y-12726000D01*
X9046286Y-12726000D01*
X9017714Y-12740286D01*
X9003428Y-12754571D01*
X8989143Y-12783143D01*
X9517714Y-12911714D02*
X9517714Y-12611714D01*
X9646286Y-12911714D02*
X9646286Y-12754571D01*
X9632000Y-12726000D01*
X9603428Y-12711714D01*
X9560571Y-12711714D01*
X9532000Y-12726000D01*
X9517714Y-12740286D01*
X9832000Y-12911714D02*
X9803428Y-12897429D01*
X9789143Y-12883143D01*
X9774857Y-12854571D01*
X9774857Y-12768857D01*
X9789143Y-12740286D01*
X9803428Y-12726000D01*
X9832000Y-12711714D01*
X9874857Y-12711714D01*
X9903428Y-12726000D01*
X9917714Y-12740286D01*
X9932000Y-12768857D01*
X9932000Y-12854571D01*
X9917714Y-12883143D01*
X9903428Y-12897429D01*
X9874857Y-12911714D01*
X9832000Y-12911714D01*
X10103428Y-12911714D02*
X10074857Y-12897429D01*
X10060571Y-12868857D01*
X10060571Y-12611714D01*
X10332000Y-12897429D02*
X10303429Y-12911714D01*
X10246286Y-12911714D01*
X10217714Y-12897429D01*
X10203429Y-12868857D01*
X10203429Y-12754571D01*
X10217714Y-12726000D01*
X10246286Y-12711714D01*
X10303429Y-12711714D01*
X10332000Y-12726000D01*
X10346286Y-12754571D01*
X10346286Y-12783143D01*
X10203429Y-12811714D01*
X10460571Y-12897429D02*
X10489143Y-12911714D01*
X10546286Y-12911714D01*
X10574857Y-12897429D01*
X10589143Y-12868857D01*
X10589143Y-12854571D01*
X10574857Y-12826000D01*
X10546286Y-12811714D01*
X10503429Y-12811714D01*
X10474857Y-12797429D01*
X10460571Y-12768857D01*
X10460571Y-12754571D01*
X10474857Y-12726000D01*
X10503429Y-12711714D01*
X10546286Y-12711714D01*
X10574857Y-12726000D01*
X10689143Y-13026000D02*
X10703429Y-13011714D01*
X10732000Y-12968857D01*
X10746286Y-12940286D01*
X10760571Y-12897429D01*
X10774857Y-12826000D01*
X10774857Y-12768857D01*
X10760571Y-12697429D01*
X10746286Y-12654571D01*
X10732000Y-12626000D01*
X10703429Y-12583143D01*
X10689143Y-12568857D01*
X3932000Y-13172000D02*
G75*
G03X3932000Y-13172000I-38100J0D01*
G01*
X4260571Y-13007714D02*
X4289143Y-13007714D01*
X4317714Y-13022000D01*
X4332000Y-13036286D01*
X4346286Y-13064857D01*
X4360571Y-13122000D01*
X4360571Y-13193429D01*
X4346286Y-13250571D01*
X4332000Y-13279143D01*
X4317714Y-13293429D01*
X4289143Y-13307714D01*
X4260571Y-13307714D01*
X4232000Y-13293429D01*
X4217714Y-13279143D01*
X4203429Y-13250571D01*
X4189143Y-13193429D01*
X4189143Y-13122000D01*
X4203429Y-13064857D01*
X4217714Y-13036286D01*
X4232000Y-13022000D01*
X4260571Y-13007714D01*
X4489143Y-13279143D02*
X4503429Y-13293429D01*
X4489143Y-13307714D01*
X4474857Y-13293429D01*
X4489143Y-13279143D01*
X4489143Y-13307714D01*
X4603428Y-13007714D02*
X4803428Y-13007714D01*
X4674857Y-13307714D01*
X5046286Y-13007714D02*
X4989143Y-13007714D01*
X4960571Y-13022000D01*
X4946286Y-13036286D01*
X4917714Y-13079143D01*
X4903429Y-13136286D01*
X4903429Y-13250571D01*
X4917714Y-13279143D01*
X4932000Y-13293429D01*
X4960571Y-13307714D01*
X5017714Y-13307714D01*
X5046286Y-13293429D01*
X5060571Y-13279143D01*
X5074857Y-13250571D01*
X5074857Y-13179143D01*
X5060571Y-13150571D01*
X5046286Y-13136286D01*
X5017714Y-13122000D01*
X4960571Y-13122000D01*
X4932000Y-13136286D01*
X4917714Y-13150571D01*
X4903429Y-13179143D01*
X5203429Y-13307714D02*
X5203429Y-13107714D01*
X5203429Y-13136286D02*
X5217714Y-13122000D01*
X5246286Y-13107714D01*
X5289143Y-13107714D01*
X5317714Y-13122000D01*
X5332000Y-13150571D01*
X5332000Y-13307714D01*
X5332000Y-13150571D02*
X5346286Y-13122000D01*
X5374857Y-13107714D01*
X5417714Y-13107714D01*
X5446286Y-13122000D01*
X5460571Y-13150571D01*
X5460571Y-13307714D01*
X5603428Y-13307714D02*
X5603428Y-13107714D01*
X5603428Y-13136286D02*
X5617714Y-13122000D01*
X5646286Y-13107714D01*
X5689143Y-13107714D01*
X5717714Y-13122000D01*
X5732000Y-13150571D01*
X5732000Y-13307714D01*
X5732000Y-13150571D02*
X5746286Y-13122000D01*
X5774857Y-13107714D01*
X5817714Y-13107714D01*
X5846286Y-13122000D01*
X5860571Y-13150571D01*
X5860571Y-13307714D01*
X6446286Y-12993429D02*
X6189143Y-13379143D01*
X6832000Y-13007714D02*
X6860571Y-13007714D01*
X6889143Y-13022000D01*
X6903428Y-13036286D01*
X6917714Y-13064857D01*
X6932000Y-13122000D01*
X6932000Y-13193429D01*
X6917714Y-13250571D01*
X6903428Y-13279143D01*
X6889143Y-13293429D01*
X6860571Y-13307714D01*
X6832000Y-13307714D01*
X6803428Y-13293429D01*
X6789143Y-13279143D01*
X6774857Y-13250571D01*
X6760571Y-13193429D01*
X6760571Y-13122000D01*
X6774857Y-13064857D01*
X6789143Y-13036286D01*
X6803428Y-13022000D01*
X6832000Y-13007714D01*
X7060571Y-13279143D02*
X7074857Y-13293429D01*
X7060571Y-13307714D01*
X7046286Y-13293429D01*
X7060571Y-13279143D01*
X7060571Y-13307714D01*
X7260571Y-13007714D02*
X7289143Y-13007714D01*
X7317714Y-13022000D01*
X7332000Y-13036286D01*
X7346285Y-13064857D01*
X7360571Y-13122000D01*
X7360571Y-13193429D01*
X7346285Y-13250571D01*
X7332000Y-13279143D01*
X7317714Y-13293429D01*
X7289143Y-13307714D01*
X7260571Y-13307714D01*
X7232000Y-13293429D01*
X7217714Y-13279143D01*
X7203428Y-13250571D01*
X7189143Y-13193429D01*
X7189143Y-13122000D01*
X7203428Y-13064857D01*
X7217714Y-13036286D01*
X7232000Y-13022000D01*
X7260571Y-13007714D01*
X7460571Y-13007714D02*
X7646285Y-13007714D01*
X7546285Y-13122000D01*
X7589143Y-13122000D01*
X7617714Y-13136286D01*
X7632000Y-13150571D01*
X7646285Y-13179143D01*
X7646285Y-13250571D01*
X7632000Y-13279143D01*
X7617714Y-13293429D01*
X7589143Y-13307714D01*
X7503428Y-13307714D01*
X7474857Y-13293429D01*
X7460571Y-13279143D01*
X7832000Y-13007714D02*
X7860571Y-13007714D01*
X7889143Y-13022000D01*
X7903428Y-13036286D01*
X7917714Y-13064857D01*
X7932000Y-13122000D01*
X7932000Y-13193429D01*
X7917714Y-13250571D01*
X7903428Y-13279143D01*
X7889143Y-13293429D01*
X7860571Y-13307714D01*
X7832000Y-13307714D01*
X7803428Y-13293429D01*
X7789143Y-13279143D01*
X7774857Y-13250571D01*
X7760571Y-13193429D01*
X7760571Y-13122000D01*
X7774857Y-13064857D01*
X7789143Y-13036286D01*
X7803428Y-13022000D01*
X7832000Y-13007714D01*
X8046286Y-13007714D02*
X8046286Y-13064857D01*
X8160571Y-13007714D02*
X8160571Y-13064857D01*
X8603428Y-13422000D02*
X8589143Y-13407714D01*
X8560571Y-13364857D01*
X8546286Y-13336286D01*
X8532000Y-13293429D01*
X8517714Y-13222000D01*
X8517714Y-13164857D01*
X8532000Y-13093429D01*
X8546286Y-13050571D01*
X8560571Y-13022000D01*
X8589143Y-12979143D01*
X8603428Y-12964857D01*
X8846286Y-13107714D02*
X8846286Y-13307714D01*
X8774857Y-12993429D02*
X8703428Y-13207714D01*
X8889143Y-13207714D01*
X9232000Y-13307714D02*
X9232000Y-13007714D01*
X9360571Y-13307714D02*
X9360571Y-13150571D01*
X9346286Y-13122000D01*
X9317714Y-13107714D01*
X9274857Y-13107714D01*
X9246286Y-13122000D01*
X9232000Y-13136286D01*
X9546286Y-13307714D02*
X9517714Y-13293429D01*
X9503428Y-13279143D01*
X9489143Y-13250571D01*
X9489143Y-13164857D01*
X9503428Y-13136286D01*
X9517714Y-13122000D01*
X9546286Y-13107714D01*
X9589143Y-13107714D01*
X9617714Y-13122000D01*
X9632000Y-13136286D01*
X9646286Y-13164857D01*
X9646286Y-13250571D01*
X9632000Y-13279143D01*
X9617714Y-13293429D01*
X9589143Y-13307714D01*
X9546286Y-13307714D01*
X9817714Y-13307714D02*
X9789143Y-13293429D01*
X9774857Y-13264857D01*
X9774857Y-13007714D01*
X10046286Y-13293429D02*
X10017714Y-13307714D01*
X9960571Y-13307714D01*
X9932000Y-13293429D01*
X9917714Y-13264857D01*
X9917714Y-13150571D01*
X9932000Y-13122000D01*
X9960571Y-13107714D01*
X10017714Y-13107714D01*
X10046286Y-13122000D01*
X10060571Y-13150571D01*
X10060571Y-13179143D01*
X9917714Y-13207714D01*
X10174857Y-13293429D02*
X10203429Y-13307714D01*
X10260571Y-13307714D01*
X10289143Y-13293429D01*
X10303429Y-13264857D01*
X10303429Y-13250571D01*
X10289143Y-13222000D01*
X10260571Y-13207714D01*
X10217714Y-13207714D01*
X10189143Y-13193429D01*
X10174857Y-13164857D01*
X10174857Y-13150571D01*
X10189143Y-13122000D01*
X10217714Y-13107714D01*
X10260571Y-13107714D01*
X10289143Y-13122000D01*
X10403428Y-13422000D02*
X10417714Y-13407714D01*
X10446286Y-13364857D01*
X10460571Y-13336286D01*
X10474857Y-13293429D01*
X10489143Y-13222000D01*
X10489143Y-13164857D01*
X10474857Y-13093429D01*
X10460571Y-13050571D01*
X10446286Y-13022000D01*
X10417714Y-12979143D01*
X10403428Y-12964857D01*
X3892000Y-13528000D02*
X3892000Y-13608000D01*
X3852000Y-13568000D02*
X3932000Y-13568000D01*
X4260571Y-13403714D02*
X4289143Y-13403714D01*
X4317714Y-13418000D01*
X4332000Y-13432286D01*
X4346286Y-13460857D01*
X4360571Y-13518000D01*
X4360571Y-13589429D01*
X4346286Y-13646571D01*
X4332000Y-13675143D01*
X4317714Y-13689429D01*
X4289143Y-13703714D01*
X4260571Y-13703714D01*
X4232000Y-13689429D01*
X4217714Y-13675143D01*
X4203429Y-13646571D01*
X4189143Y-13589429D01*
X4189143Y-13518000D01*
X4203429Y-13460857D01*
X4217714Y-13432286D01*
X4232000Y-13418000D01*
X4260571Y-13403714D01*
X4489143Y-13675143D02*
X4503429Y-13689429D01*
X4489143Y-13703714D01*
X4474857Y-13689429D01*
X4489143Y-13675143D01*
X4489143Y-13703714D01*
X4674857Y-13532286D02*
X4646286Y-13518000D01*
X4632000Y-13503714D01*
X4617714Y-13475143D01*
X4617714Y-13460857D01*
X4632000Y-13432286D01*
X4646286Y-13418000D01*
X4674857Y-13403714D01*
X4732000Y-13403714D01*
X4760571Y-13418000D01*
X4774857Y-13432286D01*
X4789143Y-13460857D01*
X4789143Y-13475143D01*
X4774857Y-13503714D01*
X4760571Y-13518000D01*
X4732000Y-13532286D01*
X4674857Y-13532286D01*
X4646286Y-13546571D01*
X4632000Y-13560857D01*
X4617714Y-13589429D01*
X4617714Y-13646571D01*
X4632000Y-13675143D01*
X4646286Y-13689429D01*
X4674857Y-13703714D01*
X4732000Y-13703714D01*
X4760571Y-13689429D01*
X4774857Y-13675143D01*
X4789143Y-13646571D01*
X4789143Y-13589429D01*
X4774857Y-13560857D01*
X4760571Y-13546571D01*
X4732000Y-13532286D01*
X4974857Y-13403714D02*
X5003429Y-13403714D01*
X5032000Y-13418000D01*
X5046286Y-13432286D01*
X5060571Y-13460857D01*
X5074857Y-13518000D01*
X5074857Y-13589429D01*
X5060571Y-13646571D01*
X5046286Y-13675143D01*
X5032000Y-13689429D01*
X5003429Y-13703714D01*
X4974857Y-13703714D01*
X4946286Y-13689429D01*
X4932000Y-13675143D01*
X4917714Y-13646571D01*
X4903429Y-13589429D01*
X4903429Y-13518000D01*
X4917714Y-13460857D01*
X4932000Y-13432286D01*
X4946286Y-13418000D01*
X4974857Y-13403714D01*
X5203429Y-13703714D02*
X5203429Y-13503714D01*
X5203429Y-13532286D02*
X5217714Y-13518000D01*
X5246286Y-13503714D01*
X5289143Y-13503714D01*
X5317714Y-13518000D01*
X5332000Y-13546571D01*
X5332000Y-13703714D01*
X5332000Y-13546571D02*
X5346286Y-13518000D01*
X5374857Y-13503714D01*
X5417714Y-13503714D01*
X5446286Y-13518000D01*
X5460571Y-13546571D01*
X5460571Y-13703714D01*
X5603428Y-13703714D02*
X5603428Y-13503714D01*
X5603428Y-13532286D02*
X5617714Y-13518000D01*
X5646286Y-13503714D01*
X5689143Y-13503714D01*
X5717714Y-13518000D01*
X5732000Y-13546571D01*
X5732000Y-13703714D01*
X5732000Y-13546571D02*
X5746286Y-13518000D01*
X5774857Y-13503714D01*
X5817714Y-13503714D01*
X5846286Y-13518000D01*
X5860571Y-13546571D01*
X5860571Y-13703714D01*
X6446286Y-13389429D02*
X6189143Y-13775143D01*
X6832000Y-13403714D02*
X6860571Y-13403714D01*
X6889143Y-13418000D01*
X6903428Y-13432286D01*
X6917714Y-13460857D01*
X6932000Y-13518000D01*
X6932000Y-13589429D01*
X6917714Y-13646571D01*
X6903428Y-13675143D01*
X6889143Y-13689429D01*
X6860571Y-13703714D01*
X6832000Y-13703714D01*
X6803428Y-13689429D01*
X6789143Y-13675143D01*
X6774857Y-13646571D01*
X6760571Y-13589429D01*
X6760571Y-13518000D01*
X6774857Y-13460857D01*
X6789143Y-13432286D01*
X6803428Y-13418000D01*
X6832000Y-13403714D01*
X7060571Y-13675143D02*
X7074857Y-13689429D01*
X7060571Y-13703714D01*
X7046286Y-13689429D01*
X7060571Y-13675143D01*
X7060571Y-13703714D01*
X7260571Y-13403714D02*
X7289143Y-13403714D01*
X7317714Y-13418000D01*
X7332000Y-13432286D01*
X7346285Y-13460857D01*
X7360571Y-13518000D01*
X7360571Y-13589429D01*
X7346285Y-13646571D01*
X7332000Y-13675143D01*
X7317714Y-13689429D01*
X7289143Y-13703714D01*
X7260571Y-13703714D01*
X7232000Y-13689429D01*
X7217714Y-13675143D01*
X7203428Y-13646571D01*
X7189143Y-13589429D01*
X7189143Y-13518000D01*
X7203428Y-13460857D01*
X7217714Y-13432286D01*
X7232000Y-13418000D01*
X7260571Y-13403714D01*
X7460571Y-13403714D02*
X7646285Y-13403714D01*
X7546285Y-13518000D01*
X7589143Y-13518000D01*
X7617714Y-13532286D01*
X7632000Y-13546571D01*
X7646285Y-13575143D01*
X7646285Y-13646571D01*
X7632000Y-13675143D01*
X7617714Y-13689429D01*
X7589143Y-13703714D01*
X7503428Y-13703714D01*
X7474857Y-13689429D01*
X7460571Y-13675143D01*
X7932000Y-13703714D02*
X7760571Y-13703714D01*
X7846285Y-13703714D02*
X7846285Y-13403714D01*
X7817714Y-13446571D01*
X7789143Y-13475143D01*
X7760571Y-13489429D01*
X8046286Y-13403714D02*
X8046286Y-13460857D01*
X8160571Y-13403714D02*
X8160571Y-13460857D01*
X8603428Y-13818000D02*
X8589143Y-13803714D01*
X8560571Y-13760857D01*
X8546286Y-13732286D01*
X8532000Y-13689429D01*
X8517714Y-13618000D01*
X8517714Y-13560857D01*
X8532000Y-13489429D01*
X8546286Y-13446571D01*
X8560571Y-13418000D01*
X8589143Y-13375143D01*
X8603428Y-13360857D01*
X8874857Y-13703714D02*
X8703428Y-13703714D01*
X8789143Y-13703714D02*
X8789143Y-13403714D01*
X8760571Y-13446571D01*
X8732000Y-13475143D01*
X8703428Y-13489429D01*
X9017714Y-13703714D02*
X9074857Y-13703714D01*
X9103428Y-13689429D01*
X9117714Y-13675143D01*
X9146286Y-13632286D01*
X9160571Y-13575143D01*
X9160571Y-13460857D01*
X9146286Y-13432286D01*
X9132000Y-13418000D01*
X9103428Y-13403714D01*
X9046286Y-13403714D01*
X9017714Y-13418000D01*
X9003428Y-13432286D01*
X8989143Y-13460857D01*
X8989143Y-13532286D01*
X9003428Y-13560857D01*
X9017714Y-13575143D01*
X9046286Y-13589429D01*
X9103428Y-13589429D01*
X9132000Y-13575143D01*
X9146286Y-13560857D01*
X9160571Y-13532286D01*
X9346286Y-13403714D02*
X9374857Y-13403714D01*
X9403428Y-13418000D01*
X9417714Y-13432286D01*
X9432000Y-13460857D01*
X9446286Y-13518000D01*
X9446286Y-13589429D01*
X9432000Y-13646571D01*
X9417714Y-13675143D01*
X9403428Y-13689429D01*
X9374857Y-13703714D01*
X9346286Y-13703714D01*
X9317714Y-13689429D01*
X9303428Y-13675143D01*
X9289143Y-13646571D01*
X9274857Y-13589429D01*
X9274857Y-13518000D01*
X9289143Y-13460857D01*
X9303428Y-13432286D01*
X9317714Y-13418000D01*
X9346286Y-13403714D01*
X9803428Y-13703714D02*
X9803428Y-13403714D01*
X9932000Y-13703714D02*
X9932000Y-13546571D01*
X9917714Y-13518000D01*
X9889143Y-13503714D01*
X9846286Y-13503714D01*
X9817714Y-13518000D01*
X9803428Y-13532286D01*
X10117714Y-13703714D02*
X10089143Y-13689429D01*
X10074857Y-13675143D01*
X10060571Y-13646571D01*
X10060571Y-13560857D01*
X10074857Y-13532286D01*
X10089143Y-13518000D01*
X10117714Y-13503714D01*
X10160571Y-13503714D01*
X10189143Y-13518000D01*
X10203428Y-13532286D01*
X10217714Y-13560857D01*
X10217714Y-13646571D01*
X10203428Y-13675143D01*
X10189143Y-13689429D01*
X10160571Y-13703714D01*
X10117714Y-13703714D01*
X10389143Y-13703714D02*
X10360571Y-13689429D01*
X10346286Y-13660857D01*
X10346286Y-13403714D01*
X10617714Y-13689429D02*
X10589143Y-13703714D01*
X10532000Y-13703714D01*
X10503429Y-13689429D01*
X10489143Y-13660857D01*
X10489143Y-13546571D01*
X10503429Y-13518000D01*
X10532000Y-13503714D01*
X10589143Y-13503714D01*
X10617714Y-13518000D01*
X10632000Y-13546571D01*
X10632000Y-13575143D01*
X10489143Y-13603714D01*
X10746286Y-13689429D02*
X10774857Y-13703714D01*
X10832000Y-13703714D01*
X10860571Y-13689429D01*
X10874857Y-13660857D01*
X10874857Y-13646571D01*
X10860571Y-13618000D01*
X10832000Y-13603714D01*
X10789143Y-13603714D01*
X10760571Y-13589429D01*
X10746286Y-13560857D01*
X10746286Y-13546571D01*
X10760571Y-13518000D01*
X10789143Y-13503714D01*
X10832000Y-13503714D01*
X10860571Y-13518000D01*
X10974857Y-13818000D02*
X10989143Y-13803714D01*
X11017714Y-13760857D01*
X11032000Y-13732286D01*
X11046286Y-13689429D01*
X11060571Y-13618000D01*
X11060571Y-13560857D01*
X11046286Y-13489429D01*
X11032000Y-13446571D01*
X11017714Y-13418000D01*
X10989143Y-13375143D01*
X10974857Y-13360857D01*
X3918088Y-13997588D02*
X3918088Y-13930412D01*
X3850912Y-13930412D01*
X3850912Y-13997588D01*
X3918088Y-13997588D01*
X4260571Y-13799714D02*
X4289143Y-13799714D01*
X4317714Y-13814000D01*
X4332000Y-13828286D01*
X4346286Y-13856857D01*
X4360571Y-13914000D01*
X4360571Y-13985429D01*
X4346286Y-14042571D01*
X4332000Y-14071143D01*
X4317714Y-14085429D01*
X4289143Y-14099714D01*
X4260571Y-14099714D01*
X4232000Y-14085429D01*
X4217714Y-14071143D01*
X4203429Y-14042571D01*
X4189143Y-13985429D01*
X4189143Y-13914000D01*
X4203429Y-13856857D01*
X4217714Y-13828286D01*
X4232000Y-13814000D01*
X4260571Y-13799714D01*
X4489143Y-14071143D02*
X4503429Y-14085429D01*
X4489143Y-14099714D01*
X4474857Y-14085429D01*
X4489143Y-14071143D01*
X4489143Y-14099714D01*
X4646286Y-14099714D02*
X4703428Y-14099714D01*
X4732000Y-14085429D01*
X4746286Y-14071143D01*
X4774857Y-14028286D01*
X4789143Y-13971143D01*
X4789143Y-13856857D01*
X4774857Y-13828286D01*
X4760571Y-13814000D01*
X4732000Y-13799714D01*
X4674857Y-13799714D01*
X4646286Y-13814000D01*
X4632000Y-13828286D01*
X4617714Y-13856857D01*
X4617714Y-13928286D01*
X4632000Y-13956857D01*
X4646286Y-13971143D01*
X4674857Y-13985429D01*
X4732000Y-13985429D01*
X4760571Y-13971143D01*
X4774857Y-13956857D01*
X4789143Y-13928286D01*
X5060571Y-13799714D02*
X4917714Y-13799714D01*
X4903429Y-13942571D01*
X4917714Y-13928286D01*
X4946286Y-13914000D01*
X5017714Y-13914000D01*
X5046286Y-13928286D01*
X5060571Y-13942571D01*
X5074857Y-13971143D01*
X5074857Y-14042571D01*
X5060571Y-14071143D01*
X5046286Y-14085429D01*
X5017714Y-14099714D01*
X4946286Y-14099714D01*
X4917714Y-14085429D01*
X4903429Y-14071143D01*
X5203429Y-14099714D02*
X5203429Y-13899714D01*
X5203429Y-13928286D02*
X5217714Y-13914000D01*
X5246286Y-13899714D01*
X5289143Y-13899714D01*
X5317714Y-13914000D01*
X5332000Y-13942571D01*
X5332000Y-14099714D01*
X5332000Y-13942571D02*
X5346286Y-13914000D01*
X5374857Y-13899714D01*
X5417714Y-13899714D01*
X5446286Y-13914000D01*
X5460571Y-13942571D01*
X5460571Y-14099714D01*
X5603428Y-14099714D02*
X5603428Y-13899714D01*
X5603428Y-13928286D02*
X5617714Y-13914000D01*
X5646286Y-13899714D01*
X5689143Y-13899714D01*
X5717714Y-13914000D01*
X5732000Y-13942571D01*
X5732000Y-14099714D01*
X5732000Y-13942571D02*
X5746286Y-13914000D01*
X5774857Y-13899714D01*
X5817714Y-13899714D01*
X5846286Y-13914000D01*
X5860571Y-13942571D01*
X5860571Y-14099714D01*
X6446286Y-13785429D02*
X6189143Y-14171143D01*
X6832000Y-13799714D02*
X6860571Y-13799714D01*
X6889143Y-13814000D01*
X6903428Y-13828286D01*
X6917714Y-13856857D01*
X6932000Y-13914000D01*
X6932000Y-13985429D01*
X6917714Y-14042571D01*
X6903428Y-14071143D01*
X6889143Y-14085429D01*
X6860571Y-14099714D01*
X6832000Y-14099714D01*
X6803428Y-14085429D01*
X6789143Y-14071143D01*
X6774857Y-14042571D01*
X6760571Y-13985429D01*
X6760571Y-13914000D01*
X6774857Y-13856857D01*
X6789143Y-13828286D01*
X6803428Y-13814000D01*
X6832000Y-13799714D01*
X7060571Y-14071143D02*
X7074857Y-14085429D01*
X7060571Y-14099714D01*
X7046286Y-14085429D01*
X7060571Y-14071143D01*
X7060571Y-14099714D01*
X7260571Y-13799714D02*
X7289143Y-13799714D01*
X7317714Y-13814000D01*
X7332000Y-13828286D01*
X7346285Y-13856857D01*
X7360571Y-13914000D01*
X7360571Y-13985429D01*
X7346285Y-14042571D01*
X7332000Y-14071143D01*
X7317714Y-14085429D01*
X7289143Y-14099714D01*
X7260571Y-14099714D01*
X7232000Y-14085429D01*
X7217714Y-14071143D01*
X7203428Y-14042571D01*
X7189143Y-13985429D01*
X7189143Y-13914000D01*
X7203428Y-13856857D01*
X7217714Y-13828286D01*
X7232000Y-13814000D01*
X7260571Y-13799714D01*
X7460571Y-13799714D02*
X7646285Y-13799714D01*
X7546285Y-13914000D01*
X7589143Y-13914000D01*
X7617714Y-13928286D01*
X7632000Y-13942571D01*
X7646285Y-13971143D01*
X7646285Y-14042571D01*
X7632000Y-14071143D01*
X7617714Y-14085429D01*
X7589143Y-14099714D01*
X7503428Y-14099714D01*
X7474857Y-14085429D01*
X7460571Y-14071143D01*
X7746285Y-13799714D02*
X7946285Y-13799714D01*
X7817714Y-14099714D01*
X8046286Y-13799714D02*
X8046286Y-13856857D01*
X8160571Y-13799714D02*
X8160571Y-13856857D01*
X8603428Y-14214000D02*
X8589143Y-14199714D01*
X8560571Y-14156857D01*
X8546286Y-14128286D01*
X8532000Y-14085429D01*
X8517714Y-14014000D01*
X8517714Y-13956857D01*
X8532000Y-13885429D01*
X8546286Y-13842571D01*
X8560571Y-13814000D01*
X8589143Y-13771143D01*
X8603428Y-13756857D01*
X8689143Y-13799714D02*
X8874857Y-13799714D01*
X8774857Y-13914000D01*
X8817714Y-13914000D01*
X8846286Y-13928286D01*
X8860571Y-13942571D01*
X8874857Y-13971143D01*
X8874857Y-14042571D01*
X8860571Y-14071143D01*
X8846286Y-14085429D01*
X8817714Y-14099714D01*
X8732000Y-14099714D01*
X8703428Y-14085429D01*
X8689143Y-14071143D01*
X9132000Y-13799714D02*
X9074857Y-13799714D01*
X9046286Y-13814000D01*
X9032000Y-13828286D01*
X9003428Y-13871143D01*
X8989143Y-13928286D01*
X8989143Y-14042571D01*
X9003428Y-14071143D01*
X9017714Y-14085429D01*
X9046286Y-14099714D01*
X9103428Y-14099714D01*
X9132000Y-14085429D01*
X9146286Y-14071143D01*
X9160571Y-14042571D01*
X9160571Y-13971143D01*
X9146286Y-13942571D01*
X9132000Y-13928286D01*
X9103428Y-13914000D01*
X9046286Y-13914000D01*
X9017714Y-13928286D01*
X9003428Y-13942571D01*
X8989143Y-13971143D01*
X9517714Y-14099714D02*
X9517714Y-13799714D01*
X9646286Y-14099714D02*
X9646286Y-13942571D01*
X9632000Y-13914000D01*
X9603428Y-13899714D01*
X9560571Y-13899714D01*
X9532000Y-13914000D01*
X9517714Y-13928286D01*
X9832000Y-14099714D02*
X9803428Y-14085429D01*
X9789143Y-14071143D01*
X9774857Y-14042571D01*
X9774857Y-13956857D01*
X9789143Y-13928286D01*
X9803428Y-13914000D01*
X9832000Y-13899714D01*
X9874857Y-13899714D01*
X9903428Y-13914000D01*
X9917714Y-13928286D01*
X9932000Y-13956857D01*
X9932000Y-14042571D01*
X9917714Y-14071143D01*
X9903428Y-14085429D01*
X9874857Y-14099714D01*
X9832000Y-14099714D01*
X10103428Y-14099714D02*
X10074857Y-14085429D01*
X10060571Y-14056857D01*
X10060571Y-13799714D01*
X10332000Y-14085429D02*
X10303429Y-14099714D01*
X10246286Y-14099714D01*
X10217714Y-14085429D01*
X10203429Y-14056857D01*
X10203429Y-13942571D01*
X10217714Y-13914000D01*
X10246286Y-13899714D01*
X10303429Y-13899714D01*
X10332000Y-13914000D01*
X10346286Y-13942571D01*
X10346286Y-13971143D01*
X10203429Y-13999714D01*
X10460571Y-14085429D02*
X10489143Y-14099714D01*
X10546286Y-14099714D01*
X10574857Y-14085429D01*
X10589143Y-14056857D01*
X10589143Y-14042571D01*
X10574857Y-14014000D01*
X10546286Y-13999714D01*
X10503429Y-13999714D01*
X10474857Y-13985429D01*
X10460571Y-13956857D01*
X10460571Y-13942571D01*
X10474857Y-13914000D01*
X10503429Y-13899714D01*
X10546286Y-13899714D01*
X10574857Y-13914000D01*
X10689143Y-14214000D02*
X10703429Y-14199714D01*
X10732000Y-14156857D01*
X10746286Y-14128286D01*
X10760571Y-14085429D01*
X10774857Y-14014000D01*
X10774857Y-13956857D01*
X10760571Y-13885429D01*
X10746286Y-13842571D01*
X10732000Y-13814000D01*
X10703429Y-13771143D01*
X10689143Y-13756857D01*
X3881200Y-14410800D02*
X3932000Y-14360000D01*
X3881200Y-14309200D01*
X3830400Y-14360000D01*
X3881200Y-14410800D01*
X4360571Y-14495714D02*
X4189143Y-14495714D01*
X4274857Y-14495714D02*
X4274857Y-14195714D01*
X4246286Y-14238571D01*
X4217714Y-14267143D01*
X4189143Y-14281429D01*
X4489143Y-14467143D02*
X4503429Y-14481429D01*
X4489143Y-14495714D01*
X4474857Y-14481429D01*
X4489143Y-14467143D01*
X4489143Y-14495714D01*
X4689143Y-14195714D02*
X4717714Y-14195714D01*
X4746286Y-14210000D01*
X4760571Y-14224286D01*
X4774857Y-14252857D01*
X4789143Y-14310000D01*
X4789143Y-14381429D01*
X4774857Y-14438571D01*
X4760571Y-14467143D01*
X4746286Y-14481429D01*
X4717714Y-14495714D01*
X4689143Y-14495714D01*
X4660571Y-14481429D01*
X4646286Y-14467143D01*
X4632000Y-14438571D01*
X4617714Y-14381429D01*
X4617714Y-14310000D01*
X4632000Y-14252857D01*
X4646286Y-14224286D01*
X4660571Y-14210000D01*
X4689143Y-14195714D01*
X4903429Y-14224286D02*
X4917714Y-14210000D01*
X4946286Y-14195714D01*
X5017714Y-14195714D01*
X5046286Y-14210000D01*
X5060571Y-14224286D01*
X5074857Y-14252857D01*
X5074857Y-14281429D01*
X5060571Y-14324286D01*
X4889143Y-14495714D01*
X5074857Y-14495714D01*
X5203429Y-14495714D02*
X5203429Y-14295714D01*
X5203429Y-14324286D02*
X5217714Y-14310000D01*
X5246286Y-14295714D01*
X5289143Y-14295714D01*
X5317714Y-14310000D01*
X5332000Y-14338571D01*
X5332000Y-14495714D01*
X5332000Y-14338571D02*
X5346286Y-14310000D01*
X5374857Y-14295714D01*
X5417714Y-14295714D01*
X5446286Y-14310000D01*
X5460571Y-14338571D01*
X5460571Y-14495714D01*
X5603428Y-14495714D02*
X5603428Y-14295714D01*
X5603428Y-14324286D02*
X5617714Y-14310000D01*
X5646286Y-14295714D01*
X5689143Y-14295714D01*
X5717714Y-14310000D01*
X5732000Y-14338571D01*
X5732000Y-14495714D01*
X5732000Y-14338571D02*
X5746286Y-14310000D01*
X5774857Y-14295714D01*
X5817714Y-14295714D01*
X5846286Y-14310000D01*
X5860571Y-14338571D01*
X5860571Y-14495714D01*
X6446286Y-14181429D02*
X6189143Y-14567143D01*
X6832000Y-14195714D02*
X6860571Y-14195714D01*
X6889143Y-14210000D01*
X6903428Y-14224286D01*
X6917714Y-14252857D01*
X6932000Y-14310000D01*
X6932000Y-14381429D01*
X6917714Y-14438571D01*
X6903428Y-14467143D01*
X6889143Y-14481429D01*
X6860571Y-14495714D01*
X6832000Y-14495714D01*
X6803428Y-14481429D01*
X6789143Y-14467143D01*
X6774857Y-14438571D01*
X6760571Y-14381429D01*
X6760571Y-14310000D01*
X6774857Y-14252857D01*
X6789143Y-14224286D01*
X6803428Y-14210000D01*
X6832000Y-14195714D01*
X7060571Y-14467143D02*
X7074857Y-14481429D01*
X7060571Y-14495714D01*
X7046286Y-14481429D01*
X7060571Y-14467143D01*
X7060571Y-14495714D01*
X7260571Y-14195714D02*
X7289143Y-14195714D01*
X7317714Y-14210000D01*
X7332000Y-14224286D01*
X7346285Y-14252857D01*
X7360571Y-14310000D01*
X7360571Y-14381429D01*
X7346285Y-14438571D01*
X7332000Y-14467143D01*
X7317714Y-14481429D01*
X7289143Y-14495714D01*
X7260571Y-14495714D01*
X7232000Y-14481429D01*
X7217714Y-14467143D01*
X7203428Y-14438571D01*
X7189143Y-14381429D01*
X7189143Y-14310000D01*
X7203428Y-14252857D01*
X7217714Y-14224286D01*
X7232000Y-14210000D01*
X7260571Y-14195714D01*
X7617714Y-14295714D02*
X7617714Y-14495714D01*
X7546285Y-14181429D02*
X7474857Y-14395714D01*
X7660571Y-14395714D01*
X7832000Y-14195714D02*
X7860571Y-14195714D01*
X7889143Y-14210000D01*
X7903428Y-14224286D01*
X7917714Y-14252857D01*
X7932000Y-14310000D01*
X7932000Y-14381429D01*
X7917714Y-14438571D01*
X7903428Y-14467143D01*
X7889143Y-14481429D01*
X7860571Y-14495714D01*
X7832000Y-14495714D01*
X7803428Y-14481429D01*
X7789143Y-14467143D01*
X7774857Y-14438571D01*
X7760571Y-14381429D01*
X7760571Y-14310000D01*
X7774857Y-14252857D01*
X7789143Y-14224286D01*
X7803428Y-14210000D01*
X7832000Y-14195714D01*
X8046286Y-14195714D02*
X8046286Y-14252857D01*
X8160571Y-14195714D02*
X8160571Y-14252857D01*
X8603428Y-14610000D02*
X8589143Y-14595714D01*
X8560571Y-14552857D01*
X8546286Y-14524286D01*
X8532000Y-14481429D01*
X8517714Y-14410000D01*
X8517714Y-14352857D01*
X8532000Y-14281429D01*
X8546286Y-14238571D01*
X8560571Y-14210000D01*
X8589143Y-14167143D01*
X8603428Y-14152857D01*
X8846286Y-14295714D02*
X8846286Y-14495714D01*
X8774857Y-14181429D02*
X8703428Y-14395714D01*
X8889143Y-14395714D01*
X9060571Y-14195714D02*
X9089143Y-14195714D01*
X9117714Y-14210000D01*
X9132000Y-14224286D01*
X9146286Y-14252857D01*
X9160571Y-14310000D01*
X9160571Y-14381429D01*
X9146286Y-14438571D01*
X9132000Y-14467143D01*
X9117714Y-14481429D01*
X9089143Y-14495714D01*
X9060571Y-14495714D01*
X9032000Y-14481429D01*
X9017714Y-14467143D01*
X9003428Y-14438571D01*
X8989143Y-14381429D01*
X8989143Y-14310000D01*
X9003428Y-14252857D01*
X9017714Y-14224286D01*
X9032000Y-14210000D01*
X9060571Y-14195714D01*
X9517714Y-14495714D02*
X9517714Y-14195714D01*
X9646286Y-14495714D02*
X9646286Y-14338571D01*
X9632000Y-14310000D01*
X9603428Y-14295714D01*
X9560571Y-14295714D01*
X9532000Y-14310000D01*
X9517714Y-14324286D01*
X9832000Y-14495714D02*
X9803428Y-14481429D01*
X9789143Y-14467143D01*
X9774857Y-14438571D01*
X9774857Y-14352857D01*
X9789143Y-14324286D01*
X9803428Y-14310000D01*
X9832000Y-14295714D01*
X9874857Y-14295714D01*
X9903428Y-14310000D01*
X9917714Y-14324286D01*
X9932000Y-14352857D01*
X9932000Y-14438571D01*
X9917714Y-14467143D01*
X9903428Y-14481429D01*
X9874857Y-14495714D01*
X9832000Y-14495714D01*
X10103428Y-14495714D02*
X10074857Y-14481429D01*
X10060571Y-14452857D01*
X10060571Y-14195714D01*
X10332000Y-14481429D02*
X10303429Y-14495714D01*
X10246286Y-14495714D01*
X10217714Y-14481429D01*
X10203429Y-14452857D01*
X10203429Y-14338571D01*
X10217714Y-14310000D01*
X10246286Y-14295714D01*
X10303429Y-14295714D01*
X10332000Y-14310000D01*
X10346286Y-14338571D01*
X10346286Y-14367143D01*
X10203429Y-14395714D01*
X10460571Y-14481429D02*
X10489143Y-14495714D01*
X10546286Y-14495714D01*
X10574857Y-14481429D01*
X10589143Y-14452857D01*
X10589143Y-14438571D01*
X10574857Y-14410000D01*
X10546286Y-14395714D01*
X10503429Y-14395714D01*
X10474857Y-14381429D01*
X10460571Y-14352857D01*
X10460571Y-14338571D01*
X10474857Y-14310000D01*
X10503429Y-14295714D01*
X10546286Y-14295714D01*
X10574857Y-14310000D01*
X10689143Y-14610000D02*
X10703429Y-14595714D01*
X10732000Y-14552857D01*
X10746286Y-14524286D01*
X10760571Y-14481429D01*
X10774857Y-14410000D01*
X10774857Y-14352857D01*
X10760571Y-14281429D01*
X10746286Y-14238571D01*
X10732000Y-14210000D01*
X10703429Y-14167143D01*
X10689143Y-14152857D01*
X3657000Y-14618500D02*
X3932000Y-14893500D01*
X3932000Y-14618500D02*
X3657000Y-14893500D01*
X3932000Y-14756000D02*
G75*
G03X3932000Y-14756000I-137500J0D01*
G01*
X4189143Y-14620286D02*
X4203429Y-14606000D01*
X4232000Y-14591714D01*
X4303429Y-14591714D01*
X4332000Y-14606000D01*
X4346286Y-14620286D01*
X4360571Y-14648857D01*
X4360571Y-14677429D01*
X4346286Y-14720286D01*
X4174857Y-14891714D01*
X4360571Y-14891714D01*
X4489143Y-14863143D02*
X4503429Y-14877429D01*
X4489143Y-14891714D01*
X4474857Y-14877429D01*
X4489143Y-14863143D01*
X4489143Y-14891714D01*
X4603428Y-14591714D02*
X4803428Y-14591714D01*
X4674857Y-14891714D01*
X5060571Y-14591714D02*
X4917714Y-14591714D01*
X4903429Y-14734571D01*
X4917714Y-14720286D01*
X4946286Y-14706000D01*
X5017714Y-14706000D01*
X5046286Y-14720286D01*
X5060571Y-14734571D01*
X5074857Y-14763143D01*
X5074857Y-14834571D01*
X5060571Y-14863143D01*
X5046286Y-14877429D01*
X5017714Y-14891714D01*
X4946286Y-14891714D01*
X4917714Y-14877429D01*
X4903429Y-14863143D01*
X5203429Y-14891714D02*
X5203429Y-14691714D01*
X5203429Y-14720286D02*
X5217714Y-14706000D01*
X5246286Y-14691714D01*
X5289143Y-14691714D01*
X5317714Y-14706000D01*
X5332000Y-14734571D01*
X5332000Y-14891714D01*
X5332000Y-14734571D02*
X5346286Y-14706000D01*
X5374857Y-14691714D01*
X5417714Y-14691714D01*
X5446286Y-14706000D01*
X5460571Y-14734571D01*
X5460571Y-14891714D01*
X5603428Y-14891714D02*
X5603428Y-14691714D01*
X5603428Y-14720286D02*
X5617714Y-14706000D01*
X5646286Y-14691714D01*
X5689143Y-14691714D01*
X5717714Y-14706000D01*
X5732000Y-14734571D01*
X5732000Y-14891714D01*
X5732000Y-14734571D02*
X5746286Y-14706000D01*
X5774857Y-14691714D01*
X5817714Y-14691714D01*
X5846286Y-14706000D01*
X5860571Y-14734571D01*
X5860571Y-14891714D01*
X6446286Y-14577429D02*
X6189143Y-14963143D01*
X6832000Y-14591714D02*
X6860571Y-14591714D01*
X6889143Y-14606000D01*
X6903428Y-14620286D01*
X6917714Y-14648857D01*
X6932000Y-14706000D01*
X6932000Y-14777429D01*
X6917714Y-14834571D01*
X6903428Y-14863143D01*
X6889143Y-14877429D01*
X6860571Y-14891714D01*
X6832000Y-14891714D01*
X6803428Y-14877429D01*
X6789143Y-14863143D01*
X6774857Y-14834571D01*
X6760571Y-14777429D01*
X6760571Y-14706000D01*
X6774857Y-14648857D01*
X6789143Y-14620286D01*
X6803428Y-14606000D01*
X6832000Y-14591714D01*
X7060571Y-14863143D02*
X7074857Y-14877429D01*
X7060571Y-14891714D01*
X7046286Y-14877429D01*
X7060571Y-14863143D01*
X7060571Y-14891714D01*
X7360571Y-14891714D02*
X7189143Y-14891714D01*
X7274857Y-14891714D02*
X7274857Y-14591714D01*
X7246285Y-14634571D01*
X7217714Y-14663143D01*
X7189143Y-14677429D01*
X7546285Y-14591714D02*
X7574857Y-14591714D01*
X7603428Y-14606000D01*
X7617714Y-14620286D01*
X7632000Y-14648857D01*
X7646285Y-14706000D01*
X7646285Y-14777429D01*
X7632000Y-14834571D01*
X7617714Y-14863143D01*
X7603428Y-14877429D01*
X7574857Y-14891714D01*
X7546285Y-14891714D01*
X7517714Y-14877429D01*
X7503428Y-14863143D01*
X7489143Y-14834571D01*
X7474857Y-14777429D01*
X7474857Y-14706000D01*
X7489143Y-14648857D01*
X7503428Y-14620286D01*
X7517714Y-14606000D01*
X7546285Y-14591714D01*
X7817714Y-14720286D02*
X7789143Y-14706000D01*
X7774857Y-14691714D01*
X7760571Y-14663143D01*
X7760571Y-14648857D01*
X7774857Y-14620286D01*
X7789143Y-14606000D01*
X7817714Y-14591714D01*
X7874857Y-14591714D01*
X7903428Y-14606000D01*
X7917714Y-14620286D01*
X7932000Y-14648857D01*
X7932000Y-14663143D01*
X7917714Y-14691714D01*
X7903428Y-14706000D01*
X7874857Y-14720286D01*
X7817714Y-14720286D01*
X7789143Y-14734571D01*
X7774857Y-14748857D01*
X7760571Y-14777429D01*
X7760571Y-14834571D01*
X7774857Y-14863143D01*
X7789143Y-14877429D01*
X7817714Y-14891714D01*
X7874857Y-14891714D01*
X7903428Y-14877429D01*
X7917714Y-14863143D01*
X7932000Y-14834571D01*
X7932000Y-14777429D01*
X7917714Y-14748857D01*
X7903428Y-14734571D01*
X7874857Y-14720286D01*
X8046286Y-14591714D02*
X8046286Y-14648857D01*
X8160571Y-14591714D02*
X8160571Y-14648857D01*
X8603428Y-15006000D02*
X8589143Y-14991714D01*
X8560571Y-14948857D01*
X8546286Y-14920286D01*
X8532000Y-14877429D01*
X8517714Y-14806000D01*
X8517714Y-14748857D01*
X8532000Y-14677429D01*
X8546286Y-14634571D01*
X8560571Y-14606000D01*
X8589143Y-14563143D01*
X8603428Y-14548857D01*
X8846286Y-14691714D02*
X8846286Y-14891714D01*
X8774857Y-14577429D02*
X8703428Y-14791714D01*
X8889143Y-14791714D01*
X9232000Y-14891714D02*
X9232000Y-14591714D01*
X9360571Y-14891714D02*
X9360571Y-14734571D01*
X9346286Y-14706000D01*
X9317714Y-14691714D01*
X9274857Y-14691714D01*
X9246286Y-14706000D01*
X9232000Y-14720286D01*
X9546286Y-14891714D02*
X9517714Y-14877429D01*
X9503428Y-14863143D01*
X9489143Y-14834571D01*
X9489143Y-14748857D01*
X9503428Y-14720286D01*
X9517714Y-14706000D01*
X9546286Y-14691714D01*
X9589143Y-14691714D01*
X9617714Y-14706000D01*
X9632000Y-14720286D01*
X9646286Y-14748857D01*
X9646286Y-14834571D01*
X9632000Y-14863143D01*
X9617714Y-14877429D01*
X9589143Y-14891714D01*
X9546286Y-14891714D01*
X9817714Y-14891714D02*
X9789143Y-14877429D01*
X9774857Y-14848857D01*
X9774857Y-14591714D01*
X10046286Y-14877429D02*
X10017714Y-14891714D01*
X9960571Y-14891714D01*
X9932000Y-14877429D01*
X9917714Y-14848857D01*
X9917714Y-14734571D01*
X9932000Y-14706000D01*
X9960571Y-14691714D01*
X10017714Y-14691714D01*
X10046286Y-14706000D01*
X10060571Y-14734571D01*
X10060571Y-14763143D01*
X9917714Y-14791714D01*
X10174857Y-14877429D02*
X10203429Y-14891714D01*
X10260571Y-14891714D01*
X10289143Y-14877429D01*
X10303429Y-14848857D01*
X10303429Y-14834571D01*
X10289143Y-14806000D01*
X10260571Y-14791714D01*
X10217714Y-14791714D01*
X10189143Y-14777429D01*
X10174857Y-14748857D01*
X10174857Y-14734571D01*
X10189143Y-14706000D01*
X10217714Y-14691714D01*
X10260571Y-14691714D01*
X10289143Y-14706000D01*
X10403428Y-15006000D02*
X10417714Y-14991714D01*
X10446286Y-14948857D01*
X10460571Y-14920286D01*
X10474857Y-14877429D01*
X10489143Y-14806000D01*
X10489143Y-14748857D01*
X10474857Y-14677429D01*
X10460571Y-14634571D01*
X10446286Y-14606000D01*
X10417714Y-14563143D01*
X10403428Y-14548857D01*
M02*
