G04 #@! TF.FileFunction,Copper,L2,Bot,Signal*
%FSLAX46Y46*%
G04 Gerber Fmt 4.6, Leading zero omitted, Abs format (unit mm)*
G04 Created by KiCad (PCBNEW 4.0.7) date 06/16/18 15:25:26*
%MOMM*%
%LPD*%
G01*
G04 APERTURE LIST*
%ADD10C,0.100000*%
%ADD11C,0.500000*%
%ADD12R,1.524000X1.524000*%
%ADD13C,1.524000*%
%ADD14C,5.700000*%
%ADD15C,1.600000*%
%ADD16R,1.600000X1.600000*%
%ADD17O,1.600000X1.600000*%
%ADD18R,1.350000X1.350000*%
%ADD19C,1.350000*%
%ADD20C,1.250000*%
%ADD21C,0.600000*%
%ADD22C,1.000000*%
%ADD23C,0.250000*%
%ADD24C,0.750000*%
G04 APERTURE END LIST*
D10*
D11*
X199417620Y-109002857D02*
X197750953Y-109002857D01*
X197036667Y-111621905D02*
X199417620Y-111621905D01*
X199417620Y-106621905D01*
X197036667Y-106621905D01*
X194179524Y-111621905D02*
X194655715Y-111383810D01*
X194893810Y-110907619D01*
X194893810Y-106621905D01*
X191560476Y-111621905D02*
X192036667Y-111383810D01*
X192274762Y-110907619D01*
X192274762Y-106621905D01*
X189655714Y-111621905D02*
X189655714Y-108288571D01*
X189655714Y-106621905D02*
X189893809Y-106860000D01*
X189655714Y-107098095D01*
X189417619Y-106860000D01*
X189655714Y-106621905D01*
X189655714Y-107098095D01*
X186560476Y-111621905D02*
X187036667Y-111383810D01*
X187274762Y-111145714D01*
X187512857Y-110669524D01*
X187512857Y-109240952D01*
X187274762Y-108764762D01*
X187036667Y-108526667D01*
X186560476Y-108288571D01*
X185846190Y-108288571D01*
X185370000Y-108526667D01*
X185131905Y-108764762D01*
X184893809Y-109240952D01*
X184893809Y-110669524D01*
X185131905Y-111145714D01*
X185370000Y-111383810D01*
X185846190Y-111621905D01*
X186560476Y-111621905D01*
X183465238Y-108288571D02*
X181560476Y-108288571D01*
X182750952Y-106621905D02*
X182750952Y-110907619D01*
X182512857Y-111383810D01*
X182036666Y-111621905D01*
X181560476Y-111621905D01*
X180608095Y-108288571D02*
X178703333Y-108288571D01*
X179893809Y-106621905D02*
X179893809Y-110907619D01*
X179655714Y-111383810D01*
X179179523Y-111621905D01*
X178703333Y-111621905D01*
X172989047Y-111621905D02*
X172036666Y-111621905D01*
X171560475Y-111383810D01*
X171322380Y-111145714D01*
X170846189Y-110431429D01*
X170608094Y-109479048D01*
X170608094Y-107574286D01*
X170846189Y-107098095D01*
X171084285Y-106860000D01*
X171560475Y-106621905D01*
X172512856Y-106621905D01*
X172989047Y-106860000D01*
X173227142Y-107098095D01*
X173465237Y-107574286D01*
X173465237Y-108764762D01*
X173227142Y-109240952D01*
X172989047Y-109479048D01*
X172512856Y-109717143D01*
X171560475Y-109717143D01*
X171084285Y-109479048D01*
X170846189Y-109240952D01*
X170608094Y-108764762D01*
X167512856Y-106621905D02*
X167036665Y-106621905D01*
X166560475Y-106860000D01*
X166322380Y-107098095D01*
X166084284Y-107574286D01*
X165846189Y-108526667D01*
X165846189Y-109717143D01*
X166084284Y-110669524D01*
X166322380Y-111145714D01*
X166560475Y-111383810D01*
X167036665Y-111621905D01*
X167512856Y-111621905D01*
X167989046Y-111383810D01*
X168227142Y-111145714D01*
X168465237Y-110669524D01*
X168703332Y-109717143D01*
X168703332Y-108526667D01*
X168465237Y-107574286D01*
X168227142Y-107098095D01*
X167989046Y-106860000D01*
X167512856Y-106621905D01*
X164179522Y-106621905D02*
X161084284Y-106621905D01*
X162750951Y-108526667D01*
X162036665Y-108526667D01*
X161560475Y-108764762D01*
X161322379Y-109002857D01*
X161084284Y-109479048D01*
X161084284Y-110669524D01*
X161322379Y-111145714D01*
X161560475Y-111383810D01*
X162036665Y-111621905D01*
X163465237Y-111621905D01*
X163941427Y-111383810D01*
X164179522Y-111145714D01*
D12*
X58420000Y-97790000D03*
D13*
X58420000Y-100330000D03*
X71120000Y-97790000D03*
X60960000Y-100330000D03*
X73660000Y-97790000D03*
X63500000Y-100330000D03*
X76200000Y-97790000D03*
X66040000Y-100330000D03*
X78740000Y-97790000D03*
X68580000Y-100330000D03*
X81280000Y-97790000D03*
X71120000Y-100330000D03*
X83820000Y-97790000D03*
X73660000Y-100330000D03*
X86360000Y-97790000D03*
X76200000Y-100330000D03*
X88900000Y-97790000D03*
X78740000Y-100330000D03*
X91440000Y-97790000D03*
X81280000Y-100330000D03*
X93980000Y-97790000D03*
X83820000Y-100330000D03*
X96520000Y-97790000D03*
X86360000Y-100330000D03*
X88900000Y-100330000D03*
X99060000Y-97790000D03*
X91440000Y-100330000D03*
X96520000Y-100330000D03*
X99060000Y-100330000D03*
X101600000Y-100330000D03*
X104140000Y-100330000D03*
X101600000Y-97790000D03*
X104140000Y-97790000D03*
X60960000Y-97790000D03*
X63500000Y-97790000D03*
X66040000Y-97790000D03*
X68580000Y-97790000D03*
X106680000Y-97790000D03*
X106680000Y-100330000D03*
X93980000Y-100330000D03*
D14*
X53550000Y-99060000D03*
X111550000Y-99060000D03*
X111550000Y-50060000D03*
X53550000Y-50060000D03*
D15*
X142240000Y-53340000D03*
X142240000Y-58340000D03*
X142240000Y-62230000D03*
X142240000Y-67230000D03*
X153670000Y-49530000D03*
X148670000Y-49530000D03*
X142240000Y-76835000D03*
X142240000Y-71835000D03*
X76280000Y-110490000D03*
X81280000Y-110490000D03*
X82550000Y-39370000D03*
X87550000Y-39370000D03*
X134620000Y-39370000D03*
X139620000Y-39370000D03*
D16*
X68580000Y-110490000D03*
D15*
X68580000Y-112990000D03*
X183870000Y-46610000D03*
X178870000Y-46610000D03*
X181370000Y-102860000D03*
D17*
X181370000Y-92700000D03*
D15*
X174870000Y-102860000D03*
D17*
X174870000Y-92700000D03*
D15*
X128270000Y-34290000D03*
D17*
X118110000Y-34290000D03*
D15*
X128270000Y-38100000D03*
D17*
X118110000Y-38100000D03*
D15*
X66710000Y-34360000D03*
D17*
X76870000Y-34360000D03*
D15*
X66675000Y-39370000D03*
D17*
X76835000Y-39370000D03*
D15*
X158750000Y-55880000D03*
D17*
X158750000Y-45720000D03*
D15*
X198620000Y-41860000D03*
D17*
X188460000Y-41860000D03*
D15*
X184120000Y-41860000D03*
D17*
X173960000Y-41860000D03*
D16*
X64770000Y-73660000D03*
D17*
X92710000Y-58420000D03*
X67310000Y-73660000D03*
X82550000Y-58420000D03*
X69850000Y-73660000D03*
X80010000Y-58420000D03*
X72390000Y-73660000D03*
X77470000Y-58420000D03*
X74930000Y-73660000D03*
X74930000Y-58420000D03*
X77470000Y-73660000D03*
X90170000Y-58420000D03*
X80010000Y-73660000D03*
X87630000Y-58420000D03*
X82550000Y-73660000D03*
X85090000Y-58420000D03*
D13*
X85090000Y-73660000D03*
X87630000Y-73660000D03*
X90170000Y-73660000D03*
X92710000Y-73660000D03*
D17*
X72390000Y-58420000D03*
X69850000Y-58420000D03*
X67310000Y-58420000D03*
X64770000Y-58420000D03*
D16*
X189000000Y-64590000D03*
D17*
X196620000Y-97610000D03*
X189000000Y-67130000D03*
X196620000Y-95070000D03*
X189000000Y-69670000D03*
X196620000Y-92530000D03*
X189000000Y-72210000D03*
X196620000Y-89990000D03*
X189000000Y-74750000D03*
X196620000Y-87450000D03*
X189000000Y-77290000D03*
X196620000Y-84910000D03*
X189000000Y-79830000D03*
X196620000Y-82370000D03*
X189000000Y-82370000D03*
X196620000Y-79830000D03*
X189000000Y-84910000D03*
X196620000Y-77290000D03*
X189000000Y-87450000D03*
X196620000Y-74750000D03*
X189000000Y-89990000D03*
X196620000Y-72210000D03*
X189000000Y-92530000D03*
X196620000Y-69670000D03*
X189000000Y-95070000D03*
X196620000Y-67130000D03*
X189000000Y-97610000D03*
X196620000Y-64590000D03*
D16*
X147320000Y-55880000D03*
D17*
X154940000Y-73660000D03*
X147320000Y-58420000D03*
X154940000Y-71120000D03*
X147320000Y-60960000D03*
X154940000Y-68580000D03*
X147320000Y-63500000D03*
X154940000Y-66040000D03*
X147320000Y-66040000D03*
X154940000Y-63500000D03*
X147320000Y-68580000D03*
X154940000Y-60960000D03*
X147320000Y-71120000D03*
X154940000Y-58420000D03*
X147320000Y-73660000D03*
X154940000Y-55880000D03*
D16*
X213000000Y-64630000D03*
D17*
X220620000Y-97650000D03*
X213000000Y-67170000D03*
X220620000Y-95110000D03*
X213000000Y-69710000D03*
X220620000Y-92570000D03*
X213000000Y-72250000D03*
X220620000Y-90030000D03*
X213000000Y-74790000D03*
X220620000Y-87490000D03*
X213000000Y-77330000D03*
X220620000Y-84950000D03*
X213000000Y-79870000D03*
X220620000Y-82410000D03*
X213000000Y-82410000D03*
X220620000Y-79870000D03*
X213000000Y-84950000D03*
X220620000Y-77330000D03*
X213000000Y-87490000D03*
X220620000Y-74790000D03*
X213000000Y-90030000D03*
X220620000Y-72250000D03*
X213000000Y-92570000D03*
X220620000Y-69710000D03*
X213000000Y-95110000D03*
X220620000Y-67170000D03*
X213000000Y-97650000D03*
X220620000Y-64630000D03*
D18*
X59370000Y-32985000D03*
D19*
X57370000Y-32985000D03*
X55370000Y-32985000D03*
X53370000Y-32985000D03*
X51370000Y-32985000D03*
D20*
X61620000Y-35360000D03*
X61620000Y-30610000D03*
X49120000Y-35360000D03*
X49120000Y-30610000D03*
D18*
X108370000Y-33110000D03*
D19*
X106370000Y-33110000D03*
X104370000Y-33110000D03*
X102370000Y-33110000D03*
X100370000Y-33110000D03*
D20*
X110620000Y-35485000D03*
X110620000Y-30735000D03*
X98120000Y-35485000D03*
X98120000Y-30735000D03*
D18*
X237120000Y-33735000D03*
D19*
X239120000Y-33735000D03*
X241120000Y-33735000D03*
X243120000Y-33735000D03*
X245120000Y-33735000D03*
X247120000Y-33735000D03*
X237120000Y-31735000D03*
X239120000Y-31735000D03*
X241120000Y-31735000D03*
X243120000Y-31735000D03*
X245120000Y-31735000D03*
X247120000Y-31735000D03*
D20*
X234870000Y-30360000D03*
X234870000Y-35110000D03*
X249370000Y-30360000D03*
X249370000Y-35110000D03*
D18*
X209370000Y-33985000D03*
D19*
X211370000Y-33985000D03*
X213370000Y-33985000D03*
X215370000Y-33985000D03*
X217370000Y-33985000D03*
X219370000Y-33985000D03*
X209370000Y-31985000D03*
X211370000Y-31985000D03*
X213370000Y-31985000D03*
X215370000Y-31985000D03*
X217370000Y-31985000D03*
X219370000Y-31985000D03*
D20*
X207120000Y-30610000D03*
X207120000Y-35360000D03*
X221620000Y-30610000D03*
X221620000Y-35360000D03*
D18*
X263870000Y-33735000D03*
D19*
X265870000Y-33735000D03*
X267870000Y-33735000D03*
X269870000Y-33735000D03*
X271870000Y-33735000D03*
X273870000Y-33735000D03*
X263870000Y-31735000D03*
X265870000Y-31735000D03*
X267870000Y-31735000D03*
X269870000Y-31735000D03*
X271870000Y-31735000D03*
X273870000Y-31735000D03*
D20*
X261620000Y-30360000D03*
X261620000Y-35110000D03*
X276120000Y-30360000D03*
X276120000Y-35110000D03*
D18*
X150120000Y-103860000D03*
D19*
X150120000Y-101860000D03*
X150120000Y-99860000D03*
X150120000Y-97860000D03*
X150120000Y-95860000D03*
X150120000Y-93860000D03*
D20*
X147745000Y-106110000D03*
X152495000Y-106110000D03*
X147745000Y-91610000D03*
X152495000Y-91610000D03*
D18*
X195120000Y-33485000D03*
D19*
X193120000Y-33485000D03*
X191120000Y-33485000D03*
X189120000Y-33485000D03*
X187120000Y-33485000D03*
D20*
X197370000Y-35860000D03*
X197370000Y-31110000D03*
X184870000Y-35860000D03*
X184870000Y-31110000D03*
D18*
X172870000Y-33235000D03*
D19*
X170870000Y-33235000D03*
X168870000Y-33235000D03*
D20*
X175120000Y-35610000D03*
X175120000Y-30860000D03*
X166620000Y-35610000D03*
X166620000Y-30860000D03*
D18*
X56245000Y-110610000D03*
D19*
X56245000Y-112610000D03*
D20*
X58620000Y-108360000D03*
X53870000Y-108360000D03*
X58620000Y-114860000D03*
X53870000Y-114860000D03*
D21*
X215870000Y-76125002D03*
X87120000Y-110485010D03*
X162120000Y-81360000D03*
X162120000Y-75110000D03*
X165120000Y-82110000D03*
X165120000Y-75110000D03*
X279370000Y-38860000D03*
D22*
X170370000Y-28109976D03*
X177620000Y-29109996D03*
D21*
X50120000Y-90110000D03*
X94344657Y-94542063D03*
X94465424Y-89902717D03*
X100370000Y-45110000D03*
X99870000Y-74610000D03*
X101370000Y-111860004D03*
X98120000Y-103860000D03*
D23*
X142240000Y-53340000D02*
X143510000Y-53340000D01*
X146050000Y-55880000D02*
X147320000Y-55880000D01*
X143510000Y-53340000D02*
X146050000Y-55880000D01*
X142240000Y-58340000D02*
X143430000Y-58340000D01*
X146050000Y-60960000D02*
X147320000Y-60960000D01*
X143430000Y-58340000D02*
X146050000Y-60960000D01*
X142240000Y-62230000D02*
X146050000Y-62230000D01*
X146050000Y-62230000D02*
X147320000Y-63500000D01*
X142240000Y-67230000D02*
X146130000Y-67230000D01*
X146130000Y-67230000D02*
X147320000Y-66040000D01*
X148670000Y-57070000D02*
X147320000Y-58420000D01*
X148670000Y-49530000D02*
X148670000Y-57070000D01*
D24*
X56245000Y-112610000D02*
X47840000Y-112610000D01*
X47840000Y-112610000D02*
X44450000Y-109220000D01*
X44450000Y-109220000D02*
X44450000Y-32530000D01*
X44450000Y-32530000D02*
X50370000Y-26610000D01*
X50370000Y-26610000D02*
X53310000Y-26610000D01*
X53310000Y-26610000D02*
X53370000Y-26670000D01*
X53370000Y-26670000D02*
X53430000Y-26610000D01*
X53430000Y-26610000D02*
X80880000Y-26610000D01*
X80880000Y-26610000D02*
X80940000Y-26670000D01*
X127620000Y-26670000D02*
X127560000Y-26610000D01*
X127560000Y-26610000D02*
X102430000Y-26610000D01*
X102430000Y-26610000D02*
X102370000Y-26670000D01*
X102370000Y-26670000D02*
X102310000Y-26610000D01*
X81000000Y-26610000D02*
X80940000Y-26670000D01*
X102310000Y-26610000D02*
X81000000Y-26610000D01*
X127620000Y-26670000D02*
X127680000Y-26610000D01*
X127680000Y-26610000D02*
X173060000Y-26610000D01*
X173060000Y-26610000D02*
X173120000Y-26670000D01*
X173120000Y-26670000D02*
X173180000Y-26610000D01*
X173180000Y-26610000D02*
X189240000Y-26610000D01*
X189240000Y-26610000D02*
X189120000Y-26730000D01*
X67310000Y-73660000D02*
X70485000Y-76835000D01*
X70485000Y-76835000D02*
X142240000Y-76835000D01*
X147320000Y-73660000D02*
X147320000Y-74791370D01*
X150120000Y-77591370D02*
X150120000Y-93860000D01*
X147320000Y-74791370D02*
X150120000Y-77591370D01*
X154940000Y-71120000D02*
X172670000Y-71120000D01*
X172670000Y-71120000D02*
X189000000Y-87450000D01*
X178870000Y-46610000D02*
X172620000Y-46610000D01*
X172620000Y-46610000D02*
X160810000Y-58420000D01*
X160810000Y-58420000D02*
X154940000Y-58420000D01*
X172870000Y-33235000D02*
X172870000Y-34660000D01*
X172870000Y-34660000D02*
X172194999Y-35335001D01*
X172194999Y-35335001D02*
X172194999Y-46610000D01*
X172194999Y-46610000D02*
X178870000Y-46610000D01*
X189120000Y-26730000D02*
X189244021Y-26605979D01*
X189244021Y-26605979D02*
X219365979Y-26605979D01*
X219365979Y-26605979D02*
X219370000Y-26610000D01*
X213000000Y-87490000D02*
X214675001Y-89165001D01*
X214675001Y-89165001D02*
X214675001Y-91705001D01*
X214675001Y-91705001D02*
X220620000Y-97650000D01*
X273870000Y-30695771D02*
X273870000Y-31735000D01*
X247120000Y-26610000D02*
X269784229Y-26610000D01*
X269784229Y-26610000D02*
X273870000Y-30695771D01*
X219370000Y-26610000D02*
X247120000Y-26610000D01*
X247120000Y-31735000D02*
X247120000Y-26610000D01*
X219370000Y-31985000D02*
X219370000Y-26610000D01*
X154940000Y-71120000D02*
X151870000Y-71120000D01*
X151870000Y-71120000D02*
X151870000Y-58420000D01*
X151870000Y-58420000D02*
X154940000Y-58420000D01*
X139620000Y-39370000D02*
X139620000Y-26670000D01*
X139620000Y-26670000D02*
X127620000Y-26670000D01*
X172870000Y-33235000D02*
X172870000Y-26920000D01*
X172870000Y-26920000D02*
X173120000Y-26670000D01*
X189120000Y-26730000D02*
X189120000Y-33485000D01*
X68580000Y-112990000D02*
X56625000Y-112990000D01*
X56625000Y-112990000D02*
X56245000Y-112610000D01*
X80940000Y-26670000D02*
X87430000Y-26670000D01*
X87430000Y-26670000D02*
X87630000Y-26870000D01*
X87630000Y-26870000D02*
X87630000Y-39290000D01*
X87630000Y-39290000D02*
X87550000Y-39370000D01*
X53370000Y-32985000D02*
X53370000Y-26670000D01*
X102370000Y-32610000D02*
X102370000Y-26670000D01*
X147320000Y-73660000D02*
X145415000Y-73660000D01*
X145415000Y-73660000D02*
X142240000Y-76835000D01*
X154940000Y-71120000D02*
X149860000Y-71120000D01*
X149860000Y-71120000D02*
X147320000Y-73660000D01*
X68540000Y-113030000D02*
X68580000Y-112990000D01*
X68580000Y-112990000D02*
X78780000Y-112990000D01*
X78780000Y-112990000D02*
X81280000Y-110490000D01*
X81280000Y-110490000D02*
X81280000Y-100330000D01*
D23*
X147320000Y-68580000D02*
X145495000Y-68580000D01*
X145495000Y-68580000D02*
X142240000Y-71835000D01*
X239120000Y-34996411D02*
X239120000Y-33735000D01*
X204446411Y-69670000D02*
X239120000Y-34996411D01*
X196620000Y-69670000D02*
X204446411Y-69670000D01*
X232870000Y-31860000D02*
X237120000Y-31860000D01*
X209029233Y-62110000D02*
X232870000Y-38269233D01*
X195120000Y-62110000D02*
X209029233Y-62110000D01*
X195120000Y-66761370D02*
X195120000Y-62110000D01*
X196620000Y-67130000D02*
X195488630Y-67130000D01*
X232870000Y-38269233D02*
X232870000Y-31860000D01*
X195488630Y-67130000D02*
X195120000Y-66761370D01*
X237120000Y-31860000D02*
X237120000Y-31735000D01*
X194620000Y-61610000D02*
X208892822Y-61610000D01*
X232370000Y-38132822D02*
X232370000Y-29110000D01*
X208892822Y-61610000D02*
X232370000Y-38132822D01*
X239120000Y-29110000D02*
X239120000Y-31735000D01*
X194620000Y-70210000D02*
X194620000Y-61610000D01*
X196620000Y-72210000D02*
X194620000Y-70210000D01*
X232370000Y-29110000D02*
X239120000Y-29110000D01*
X241017822Y-33735000D02*
X241120000Y-33735000D01*
X200002822Y-74750000D02*
X241017822Y-33735000D01*
X196620000Y-74750000D02*
X200002822Y-74750000D01*
X196620000Y-77290000D02*
X194120000Y-74790000D01*
X194120000Y-61110000D02*
X208756411Y-61110000D01*
X208756411Y-61110000D02*
X231870000Y-37996411D01*
X194120000Y-74790000D02*
X194120000Y-61110000D01*
X231870000Y-28610000D02*
X241120000Y-28610000D01*
X231870000Y-37996411D02*
X231870000Y-28610000D01*
X241120000Y-28610000D02*
X241120000Y-31735000D01*
X239995000Y-36860000D02*
X243120000Y-33735000D01*
X238584998Y-36860000D02*
X239995000Y-36860000D01*
X197745001Y-77699997D02*
X238584998Y-36860000D01*
X197745001Y-78704999D02*
X197745001Y-77699997D01*
X196620000Y-79830000D02*
X197745001Y-78704999D01*
X237120000Y-36360000D02*
X237120000Y-33735000D01*
X196620000Y-64590000D02*
X208890000Y-64590000D01*
X208890000Y-64590000D02*
X237120000Y-36360000D01*
X196620000Y-82370000D02*
X195488630Y-82370000D01*
X195488630Y-82370000D02*
X193620000Y-80501370D01*
X231370000Y-37860000D02*
X231370000Y-28110000D01*
X231370000Y-28110000D02*
X243370000Y-28110000D01*
X243120000Y-28360000D02*
X243120000Y-31735000D01*
X193620000Y-80501370D02*
X193620000Y-60610000D01*
X193620000Y-60610000D02*
X208620000Y-60610000D01*
X208620000Y-60610000D02*
X231370000Y-37860000D01*
X243370000Y-28110000D02*
X243120000Y-28360000D01*
X245120000Y-33735000D02*
X215870000Y-62985000D01*
X215870000Y-62985000D02*
X215870000Y-76125002D01*
X189000000Y-79830000D02*
X191370000Y-77460000D01*
X191370000Y-77460000D02*
X191370000Y-47610000D01*
X191370000Y-47610000D02*
X202620000Y-47610000D01*
X202620000Y-47610000D02*
X202620000Y-32110000D01*
X202620000Y-32110000D02*
X202745000Y-31985000D01*
X202745000Y-31985000D02*
X209370000Y-31985000D01*
X189000000Y-74750000D02*
X190870000Y-72880000D01*
X190870000Y-72880000D02*
X190870000Y-47110000D01*
X190870000Y-47110000D02*
X202120000Y-47110000D01*
X202120000Y-47110000D02*
X202120000Y-29110000D01*
X202120000Y-29110000D02*
X211370000Y-29110000D01*
X211370000Y-29110000D02*
X211370000Y-31985000D01*
X189000000Y-69670000D02*
X190370000Y-68300000D01*
X190370000Y-68300000D02*
X190370000Y-46610000D01*
X190370000Y-46610000D02*
X201620000Y-46610000D01*
X201620000Y-46610000D02*
X201620000Y-28610000D01*
X201620000Y-28610000D02*
X213370000Y-28610000D01*
X213370000Y-28610000D02*
X213370000Y-31985000D01*
X189000000Y-64590000D02*
X189870000Y-63720000D01*
X189870000Y-63720000D02*
X189870000Y-46110000D01*
X215370000Y-28110000D02*
X215370000Y-31985000D01*
X189870000Y-46110000D02*
X201120000Y-46110000D01*
X201120000Y-46110000D02*
X201120000Y-28110000D01*
X201120000Y-28110000D02*
X215370000Y-28110000D01*
X83820000Y-100330000D02*
X87120000Y-103630000D01*
X87120000Y-103630000D02*
X87120000Y-110485010D01*
X162120000Y-75110000D02*
X162120000Y-81360000D01*
X165120000Y-75110000D02*
X165120000Y-82110000D01*
X265870000Y-33735000D02*
X265870000Y-37860000D01*
X265870000Y-37860000D02*
X261120000Y-37860000D01*
X261120000Y-37860000D02*
X230069999Y-68910001D01*
X230069999Y-68910001D02*
X221419999Y-68910001D01*
X221419999Y-68910001D02*
X220620000Y-69710000D01*
X220620000Y-67170000D02*
X219370000Y-65920000D01*
X227620000Y-55860000D02*
X233120000Y-55860000D01*
X233120000Y-55860000D02*
X257245000Y-31735000D01*
X219370000Y-65920000D02*
X219370000Y-64110000D01*
X219370000Y-64110000D02*
X227620000Y-55860000D01*
X257245000Y-31735000D02*
X263870000Y-31735000D01*
X220620000Y-72250000D02*
X218870000Y-70500000D01*
X259120000Y-29110000D02*
X265870000Y-29110000D01*
X218870000Y-70500000D02*
X218870000Y-63882820D01*
X218870000Y-63882820D02*
X227392820Y-55360000D01*
X227392820Y-55360000D02*
X232870000Y-55360000D01*
X232870000Y-55360000D02*
X259120000Y-29110000D01*
X265870000Y-29110000D02*
X265870000Y-31735000D01*
X220620000Y-74790000D02*
X224940000Y-74790000D01*
X224940000Y-74790000D02*
X261370000Y-38360000D01*
X261370000Y-38360000D02*
X267870000Y-38360000D01*
X267870000Y-38360000D02*
X267870000Y-33735000D01*
X220620000Y-77330000D02*
X218370000Y-75080000D01*
X218370000Y-75080000D02*
X218370000Y-63746410D01*
X218370000Y-63746410D02*
X227256410Y-54860000D01*
X227256410Y-54860000D02*
X232620000Y-54860000D01*
X232620000Y-54860000D02*
X258870000Y-28610000D01*
X267870000Y-28610000D02*
X267870000Y-31735000D01*
X258870000Y-28610000D02*
X267870000Y-28610000D01*
X220620000Y-79870000D02*
X261630000Y-38860000D01*
X261630000Y-38860000D02*
X269870000Y-38860000D01*
X269870000Y-38860000D02*
X269870000Y-33735000D01*
X220620000Y-64630000D02*
X233600000Y-64630000D01*
X233600000Y-64630000D02*
X260870000Y-37360000D01*
X260870000Y-37360000D02*
X263870000Y-37360000D01*
X263870000Y-37360000D02*
X263870000Y-33735000D01*
X220620000Y-82410000D02*
X217870000Y-79660000D01*
X217870000Y-79660000D02*
X217870000Y-63610000D01*
X269120000Y-28110000D02*
X269870000Y-28860000D01*
X217870000Y-63610000D02*
X227120000Y-54360000D01*
X232370000Y-54360000D02*
X258620000Y-28110000D01*
X227120000Y-54360000D02*
X232370000Y-54360000D01*
X258620000Y-28110000D02*
X269120000Y-28110000D01*
X269870000Y-28860000D02*
X269870000Y-31110000D01*
X269870000Y-31110000D02*
X269870000Y-31735000D01*
X271870000Y-38860000D02*
X279370000Y-38860000D01*
X271870000Y-33735000D02*
X271870000Y-38860000D01*
X181370000Y-92700000D02*
X183740000Y-95070000D01*
X183740000Y-95070000D02*
X189000000Y-95070000D01*
X189000000Y-95070000D02*
X193790000Y-99860000D01*
X193790000Y-99860000D02*
X208620000Y-99860000D01*
X208620000Y-99860000D02*
X213000000Y-95480000D01*
X213000000Y-95480000D02*
X213000000Y-95110000D01*
X174870000Y-92700000D02*
X175995001Y-91574999D01*
X175995001Y-91574999D02*
X188044999Y-91574999D01*
X188044999Y-91574999D02*
X189000000Y-92530000D01*
X188920000Y-92610000D02*
X189000000Y-92530000D01*
X189000000Y-92530000D02*
X195830000Y-99360000D01*
X195830000Y-99360000D02*
X206210000Y-99360000D01*
X206210000Y-99360000D02*
X213000000Y-92570000D01*
D24*
X158750000Y-45720000D02*
X158750000Y-28020586D01*
X158750000Y-28020586D02*
X158839390Y-28109976D01*
X158839390Y-28109976D02*
X169662894Y-28109976D01*
X169662894Y-28109976D02*
X170370000Y-28109976D01*
X82620000Y-43360000D02*
X107870000Y-43360000D01*
X181370000Y-102860000D02*
X217889002Y-102860000D01*
X217889002Y-102860000D02*
X222295001Y-98454001D01*
X222295001Y-98454001D02*
X222295001Y-96785001D01*
X222295001Y-96785001D02*
X220620000Y-95110000D01*
X174870000Y-102860000D02*
X181370000Y-102860000D01*
X189000000Y-84910000D02*
X183870000Y-79780000D01*
X183870000Y-79780000D02*
X183870000Y-46610000D01*
X177620000Y-35360000D02*
X177620000Y-29109996D01*
X184120000Y-41860000D02*
X177620000Y-35360000D01*
X107870000Y-43360000D02*
X108370000Y-43360000D01*
X107870000Y-43360000D02*
X128270000Y-43360000D01*
X184030000Y-41860000D02*
X185705001Y-40184999D01*
X185705001Y-40184999D02*
X197444999Y-40184999D01*
X197444999Y-40184999D02*
X199120000Y-41860000D01*
X184030000Y-41860000D02*
X184030000Y-46450000D01*
X184030000Y-46450000D02*
X183870000Y-46610000D01*
X196620000Y-95070000D02*
X196620000Y-97610000D01*
X196620000Y-92530000D02*
X196620000Y-89990000D01*
X196620000Y-95070000D02*
X196620000Y-92530000D01*
X196620000Y-89990000D02*
X207960000Y-89990000D01*
X207960000Y-89990000D02*
X213000000Y-84950000D01*
X189000000Y-84910000D02*
X191540000Y-84910000D01*
X191540000Y-84910000D02*
X196620000Y-89990000D01*
X220620000Y-92570000D02*
X220620000Y-95110000D01*
X220620000Y-90030000D02*
X220620000Y-92570000D01*
X213000000Y-84950000D02*
X215540000Y-84950000D01*
X215540000Y-84950000D02*
X220620000Y-90030000D01*
X195120000Y-33485000D02*
X195120000Y-37860000D01*
X195120000Y-37860000D02*
X199120000Y-41860000D01*
X158750000Y-45720000D02*
X158750000Y-43360000D01*
X153670000Y-43360000D02*
X153670000Y-49530000D01*
X158750000Y-43360000D02*
X153670000Y-43360000D01*
X153670000Y-49530000D02*
X153670000Y-43410000D01*
X153670000Y-43410000D02*
X153620000Y-43360000D01*
X153620000Y-43360000D02*
X128270000Y-43360000D01*
X128270000Y-43360000D02*
X128270000Y-39370000D01*
X56245000Y-110610000D02*
X56245000Y-102505000D01*
X56245000Y-102505000D02*
X58420000Y-100330000D01*
X56245000Y-110610000D02*
X53899998Y-110610000D01*
X53899998Y-110610000D02*
X48260000Y-104970002D01*
X48260000Y-104970002D02*
X48260000Y-71360000D01*
X68580000Y-110490000D02*
X56365000Y-110490000D01*
X56365000Y-110490000D02*
X56245000Y-110610000D01*
X108370000Y-43360000D02*
X108370000Y-32610000D01*
X72880000Y-71610000D02*
X64870000Y-71610000D01*
X64870000Y-71610000D02*
X48510000Y-71610000D01*
X64770000Y-71710000D02*
X64870000Y-71610000D01*
X64770000Y-73660000D02*
X64770000Y-71710000D01*
X82620000Y-43360000D02*
X59370000Y-43360000D01*
X59370000Y-43360000D02*
X48620000Y-43360000D01*
X59370000Y-32985000D02*
X59370000Y-43360000D01*
X82550000Y-39370000D02*
X82550000Y-43290000D01*
X48260000Y-43720000D02*
X48260000Y-71360000D01*
X82550000Y-43290000D02*
X82620000Y-43360000D01*
X48620000Y-43360000D02*
X48260000Y-43720000D01*
X48510000Y-71610000D02*
X48260000Y-71360000D01*
X72880000Y-71610000D02*
X74930000Y-73660000D01*
X128270000Y-34290000D02*
X128270000Y-38100000D01*
X128270000Y-38100000D02*
X128270000Y-39370000D01*
X79375000Y-39370000D02*
X78740000Y-39370000D01*
X82550000Y-39370000D02*
X79375000Y-39370000D01*
X79375000Y-39370000D02*
X76835000Y-39370000D01*
X78740000Y-34290000D02*
X76835000Y-34290000D01*
X80010000Y-73660000D02*
X82550000Y-73660000D01*
X77470000Y-73660000D02*
X80010000Y-73660000D01*
X74930000Y-73660000D02*
X77470000Y-73660000D01*
X78740000Y-39370000D02*
X78740000Y-34290000D01*
X134620000Y-39370000D02*
X128270000Y-39370000D01*
X68580000Y-110490000D02*
X76280000Y-110490000D01*
D23*
X71120000Y-100330000D02*
X72507001Y-98942999D01*
X72507001Y-98942999D02*
X102202999Y-98942999D01*
X102202999Y-98942999D02*
X102870000Y-99610000D01*
X102870000Y-99610000D02*
X102870000Y-102360000D01*
X102870000Y-102360000D02*
X108870000Y-108360000D01*
X155370000Y-108360000D02*
X155370000Y-100860000D01*
X108870000Y-108360000D02*
X155370000Y-108360000D01*
X155370000Y-100860000D02*
X154370000Y-99860000D01*
X154370000Y-99860000D02*
X150120000Y-99860000D01*
X144070011Y-95810011D02*
X103579989Y-95810011D01*
X150120000Y-101860000D02*
X144070011Y-95810011D01*
X103579989Y-95810011D02*
X101600000Y-97790000D01*
X105669978Y-96260022D02*
X104140000Y-97790000D01*
X107099022Y-96260022D02*
X105669978Y-96260022D01*
X108374999Y-97535999D02*
X107099022Y-96260022D01*
X108374999Y-100584001D02*
X108374999Y-97535999D01*
X111650998Y-103860000D02*
X108374999Y-100584001D01*
X150120000Y-103860000D02*
X111650998Y-103860000D01*
X155290000Y-60610000D02*
X154940000Y-60960000D01*
X154940000Y-55880000D02*
X158750000Y-55880000D01*
X66120000Y-90110000D02*
X50120000Y-90110000D01*
X66120000Y-96632370D02*
X66120000Y-90110000D01*
X66040000Y-97790000D02*
X66040000Y-96712370D01*
X66040000Y-96712370D02*
X66120000Y-96632370D01*
X94465424Y-89902717D02*
X94465424Y-94421296D01*
X94465424Y-94421296D02*
X94344657Y-94542063D01*
X100370000Y-74110000D02*
X100370000Y-45110000D01*
X99870000Y-74610000D02*
X100370000Y-74110000D01*
X150120000Y-97860000D02*
X147620000Y-95360000D01*
X147620000Y-95360000D02*
X73550000Y-95360000D01*
X73550000Y-95360000D02*
X71120000Y-97790000D01*
X150120000Y-95860000D02*
X151074594Y-95860000D01*
X151074594Y-95860000D02*
X155870000Y-100655406D01*
X155870000Y-100655406D02*
X155870000Y-108860000D01*
X108620000Y-108860000D02*
X101600000Y-101840000D01*
X155870000Y-108860000D02*
X108620000Y-108860000D01*
X101600000Y-101840000D02*
X101600000Y-100330000D01*
X101370000Y-107110000D02*
X101370000Y-111860004D01*
X98120000Y-103860000D02*
X101370000Y-107110000D01*
M02*
