M48
;DRILL file {KiCad 4.0.7} date 06/16/18 15:25:09
;FORMAT={-:-/ absolute / inch / decimal}
FMAT,2
INCH,TZ
T1C0.016
T2C0.030
T3C0.031
T4C0.037
T5C0.040
T6C0.108
%
G90
G05
M72
T1
X1.9732Y-3.5476
X3.4299Y-4.3498
X3.7144Y-3.7221
X3.7191Y-3.5395
X3.863Y-4.089
X3.9319Y-2.9374
X3.9516Y-1.776
X3.9909Y-4.4039
X6.3827Y-2.9571
X6.3827Y-3.2031
X6.5008Y-2.9571
X6.5008Y-3.2327
X6.7075Y-1.1067
X6.9929Y-1.1461
X8.4988Y-2.997
X10.9988Y-1.5299
T2
X3.35Y-2.9
X3.45Y-2.9
X3.55Y-2.9
X3.65Y-2.9
T3
X2.0224Y-1.2986
X2.1012Y-1.2986
X2.1799Y-1.2986
X2.2144Y-4.3547
X2.2144Y-4.4335
X2.2587Y-1.2986
X2.3374Y-1.2986
X2.55Y-2.3
X2.55Y-2.9
X2.625Y-1.55
X2.6264Y-1.3528
X2.65Y-2.3
X2.65Y-2.9
X2.7Y-4.35
X2.7Y-4.4484
X2.75Y-2.3
X2.75Y-2.9
X2.85Y-2.3
X2.85Y-2.9
X2.95Y-2.3
X2.95Y-2.9
X3.0031Y-4.35
X3.025Y-1.55
X3.0264Y-1.3528
X3.05Y-2.3
X3.05Y-2.9
X3.15Y-2.3
X3.15Y-2.9
X3.2Y-4.35
X3.25Y-1.55
X3.25Y-2.3
X3.25Y-2.9
X3.35Y-2.3
X3.4469Y-1.55
X3.45Y-2.3
X3.55Y-2.3
X3.65Y-2.3
X3.9516Y-1.3035
X4.0303Y-1.3035
X4.1091Y-1.3035
X4.1878Y-1.3035
X4.2665Y-1.3035
X4.65Y-1.35
X4.65Y-1.5
X5.05Y-1.35
X5.05Y-1.5
X5.3Y-1.55
X5.4969Y-1.55
X5.6Y-2.1
X5.6Y-2.2969
X5.6Y-2.45
X5.6Y-2.6469
X5.6Y-2.8281
X5.6Y-3.025
X5.8Y-2.2
X5.8Y-2.3
X5.8Y-2.4
X5.8Y-2.5
X5.8Y-2.6
X5.8Y-2.7
X5.8Y-2.8
X5.8Y-2.9
X5.8531Y-1.95
X5.9102Y-3.6953
X5.9102Y-3.774
X5.9102Y-3.8528
X5.9102Y-3.9315
X5.9102Y-4.0102
X5.9102Y-4.089
X6.05Y-1.95
X6.1Y-2.2
X6.1Y-2.3
X6.1Y-2.4
X6.1Y-2.5
X6.1Y-2.6
X6.1Y-2.7
X6.1Y-2.8
X6.1Y-2.9
X6.25Y-1.8
X6.25Y-2.2
X6.6484Y-1.3085
X6.7272Y-1.3085
X6.8059Y-1.3085
X6.8488Y-1.648
X6.8846Y-3.6496
X6.8846Y-4.0496
X7.0421Y-1.835
X7.1406Y-3.6496
X7.1406Y-4.0496
X7.239Y-1.835
X7.2488Y-1.648
X7.3669Y-1.3183
X7.4197Y-1.648
X7.4409Y-2.5429
X7.4409Y-2.6429
X7.4409Y-2.7429
X7.4409Y-2.8429
X7.4409Y-2.9429
X7.4409Y-3.0429
X7.4409Y-3.1429
X7.4409Y-3.2429
X7.4409Y-3.3429
X7.4409Y-3.4429
X7.4409Y-3.5429
X7.4409Y-3.6429
X7.4409Y-3.7429
X7.4409Y-3.8429
X7.4457Y-1.3183
X7.5244Y-1.3183
X7.6031Y-1.3183
X7.6819Y-1.3183
X7.7409Y-2.5429
X7.7409Y-2.6429
X7.7409Y-2.7429
X7.7409Y-2.8429
X7.7409Y-2.9429
X7.7409Y-3.0429
X7.7409Y-3.1429
X7.7409Y-3.2429
X7.7409Y-3.3429
X7.7409Y-3.4429
X7.7409Y-3.5429
X7.7409Y-3.6429
X7.7409Y-3.7429
X7.7409Y-3.8429
X7.8197Y-1.648
X8.2429Y-1.2593
X8.2429Y-1.338
X8.3217Y-1.2593
X8.3217Y-1.338
X8.3858Y-2.5445
X8.3858Y-2.6445
X8.3858Y-2.7445
X8.3858Y-2.8445
X8.3858Y-2.9445
X8.3858Y-3.0445
X8.3858Y-3.1445
X8.3858Y-3.2445
X8.3858Y-3.3445
X8.3858Y-3.4445
X8.3858Y-3.5445
X8.3858Y-3.6445
X8.3858Y-3.7445
X8.3858Y-3.8445
X8.4004Y-1.2593
X8.4004Y-1.338
X8.4791Y-1.2593
X8.4791Y-1.338
X8.5579Y-1.2593
X8.5579Y-1.338
X8.6366Y-1.2593
X8.6366Y-1.338
X8.6858Y-2.5445
X8.6858Y-2.6445
X8.6858Y-2.7445
X8.6858Y-2.8445
X8.6858Y-2.9445
X8.6858Y-3.0445
X8.6858Y-3.1445
X8.6858Y-3.2445
X8.6858Y-3.3445
X8.6858Y-3.4445
X8.6858Y-3.5445
X8.6858Y-3.6445
X8.6858Y-3.7445
X8.6858Y-3.8445
X9.3354Y-1.2494
X9.3354Y-1.3281
X9.4142Y-1.2494
X9.4142Y-1.3281
X9.4929Y-1.2494
X9.4929Y-1.3281
X9.5717Y-1.2494
X9.5717Y-1.3281
X9.6504Y-1.2494
X9.6504Y-1.3281
X9.7291Y-1.2494
X9.7291Y-1.3281
X10.3886Y-1.2494
X10.3886Y-1.3281
X10.4673Y-1.2494
X10.4673Y-1.3281
X10.5461Y-1.2494
X10.5461Y-1.3281
X10.6248Y-1.2494
X10.6248Y-1.3281
X10.7035Y-1.2494
X10.7035Y-1.3281
X10.7823Y-1.2494
X10.7823Y-1.3281
T4
X1.9339Y-1.2051
X1.9339Y-1.3921
X2.1209Y-4.2661
X2.1209Y-4.522
X2.3079Y-4.2661
X2.3079Y-4.522
X2.426Y-1.2051
X2.426Y-1.3921
X3.863Y-1.21
X3.863Y-1.397
X4.3551Y-1.21
X4.3551Y-1.397
X5.8167Y-3.6067
X5.8167Y-4.1776
X6.0037Y-3.6067
X6.0037Y-4.1776
X6.5598Y-1.215
X6.5598Y-1.402
X6.8945Y-1.215
X6.8945Y-1.402
X7.2783Y-1.2248
X7.2783Y-1.4118
X7.7705Y-1.2248
X7.7705Y-1.4118
X8.1543Y-1.2051
X8.1543Y-1.3921
X8.7252Y-1.2051
X8.7252Y-1.3921
X9.2469Y-1.1953
X9.2469Y-1.3823
X9.8177Y-1.1953
X9.8177Y-1.3823
X10.3Y-1.1953
X10.3Y-1.3823
X10.8709Y-1.1953
X10.8709Y-1.3823
T5
X2.3Y-3.85
X2.3Y-3.95
X2.4Y-3.85
X2.4Y-3.95
X2.5Y-3.85
X2.5Y-3.95
X2.6Y-3.85
X2.6Y-3.95
X2.7Y-3.85
X2.7Y-3.95
X2.8Y-3.85
X2.8Y-3.95
X2.9Y-3.85
X2.9Y-3.95
X3.Y-3.85
X3.Y-3.95
X3.1Y-3.85
X3.1Y-3.95
X3.2Y-3.85
X3.2Y-3.95
X3.3Y-3.85
X3.3Y-3.95
X3.4Y-3.85
X3.4Y-3.95
X3.5Y-3.85
X3.5Y-3.95
X3.6Y-3.85
X3.6Y-3.95
X3.7Y-3.85
X3.7Y-3.95
X3.8Y-3.85
X3.8Y-3.95
X3.9Y-3.85
X3.9Y-3.95
X4.Y-3.85
X4.Y-3.95
X4.1Y-3.85
X4.1Y-3.95
X4.2Y-3.85
X4.2Y-3.95
T6
X2.1083Y-1.9709
X2.1083Y-3.9
X4.3917Y-1.9709
X4.3917Y-3.9
T0
M30
