G04 #@! TF.GenerationSoftware,KiCad,Pcbnew,(5.0.0)*
G04 #@! TF.CreationDate,2019-03-30T16:47:33+00:00*
G04 #@! TF.ProjectId,LS01,4C5330312E6B696361645F7063620000,rev?*
G04 #@! TF.SameCoordinates,Original*
G04 #@! TF.FileFunction,Legend,Top*
G04 #@! TF.FilePolarity,Positive*
%FSLAX46Y46*%
G04 Gerber Fmt 4.6, Leading zero omitted, Abs format (unit mm)*
G04 Created by KiCad (PCBNEW (5.0.0)) date 03/30/19 16:47:33*
%MOMM*%
%LPD*%
G01*
G04 APERTURE LIST*
%ADD10C,0.300000*%
%ADD11C,0.150000*%
%ADD12C,0.120000*%
G04 APERTURE END LIST*
D10*
X140561428Y-56558571D02*
X139847142Y-56558571D01*
X139847142Y-55058571D01*
X140990000Y-56487142D02*
X141204285Y-56558571D01*
X141561428Y-56558571D01*
X141704285Y-56487142D01*
X141775714Y-56415714D01*
X141847142Y-56272857D01*
X141847142Y-56130000D01*
X141775714Y-55987142D01*
X141704285Y-55915714D01*
X141561428Y-55844285D01*
X141275714Y-55772857D01*
X141132857Y-55701428D01*
X141061428Y-55630000D01*
X140990000Y-55487142D01*
X140990000Y-55344285D01*
X141061428Y-55201428D01*
X141132857Y-55130000D01*
X141275714Y-55058571D01*
X141632857Y-55058571D01*
X141847142Y-55130000D01*
X142775714Y-55058571D02*
X142918571Y-55058571D01*
X143061428Y-55130000D01*
X143132857Y-55201428D01*
X143204285Y-55344285D01*
X143275714Y-55630000D01*
X143275714Y-55987142D01*
X143204285Y-56272857D01*
X143132857Y-56415714D01*
X143061428Y-56487142D01*
X142918571Y-56558571D01*
X142775714Y-56558571D01*
X142632857Y-56487142D01*
X142561428Y-56415714D01*
X142490000Y-56272857D01*
X142418571Y-55987142D01*
X142418571Y-55630000D01*
X142490000Y-55344285D01*
X142561428Y-55201428D01*
X142632857Y-55130000D01*
X142775714Y-55058571D01*
X144704285Y-56558571D02*
X143847142Y-56558571D01*
X144275714Y-56558571D02*
X144275714Y-55058571D01*
X144132857Y-55272857D01*
X143990000Y-55415714D01*
X143847142Y-55487142D01*
D11*
G04 #@! TO.C,J1*
X95250000Y-60261500D02*
X95250000Y-38036500D01*
X146050000Y-60261500D02*
X95250000Y-60261500D01*
X146050000Y-38036500D02*
X146050000Y-60261500D01*
X95250000Y-38036500D02*
X146050000Y-38036500D01*
D12*
G04 #@! TO.C,R1*
X98075000Y-50150000D02*
X96235000Y-50150000D01*
X96235000Y-50150000D02*
X96235000Y-53990000D01*
X96235000Y-53990000D02*
X98075000Y-53990000D01*
X98075000Y-53990000D02*
X98075000Y-50150000D01*
X97155000Y-49200000D02*
X97155000Y-50150000D01*
X97155000Y-54940000D02*
X97155000Y-53990000D01*
G04 #@! TO.C,D1*
X103655000Y-54190000D02*
X105895000Y-54190000D01*
X105895000Y-54190000D02*
X105895000Y-49950000D01*
X105895000Y-49950000D02*
X103655000Y-49950000D01*
X103655000Y-49950000D02*
X103655000Y-54190000D01*
X104775000Y-54840000D02*
X104775000Y-54190000D01*
X104775000Y-49300000D02*
X104775000Y-49950000D01*
X103655000Y-53470000D02*
X105895000Y-53470000D01*
X103655000Y-53350000D02*
X105895000Y-53350000D01*
X103655000Y-53590000D02*
X105895000Y-53590000D01*
G04 #@! TO.C,D2*
X108735000Y-50380000D02*
X110975000Y-50380000D01*
X110975000Y-50380000D02*
X110975000Y-46140000D01*
X110975000Y-46140000D02*
X108735000Y-46140000D01*
X108735000Y-46140000D02*
X108735000Y-50380000D01*
X109855000Y-51030000D02*
X109855000Y-50380000D01*
X109855000Y-45490000D02*
X109855000Y-46140000D01*
X108735000Y-49660000D02*
X110975000Y-49660000D01*
X108735000Y-49540000D02*
X110975000Y-49540000D01*
X108735000Y-49780000D02*
X110975000Y-49780000D01*
G04 #@! TO.C,D3*
X118895000Y-50380000D02*
X121135000Y-50380000D01*
X121135000Y-50380000D02*
X121135000Y-46140000D01*
X121135000Y-46140000D02*
X118895000Y-46140000D01*
X118895000Y-46140000D02*
X118895000Y-50380000D01*
X120015000Y-51030000D02*
X120015000Y-50380000D01*
X120015000Y-45490000D02*
X120015000Y-46140000D01*
X118895000Y-49660000D02*
X121135000Y-49660000D01*
X118895000Y-49540000D02*
X121135000Y-49540000D01*
X118895000Y-49780000D02*
X121135000Y-49780000D01*
G04 #@! TO.C,D4*
X123975000Y-50380000D02*
X126215000Y-50380000D01*
X126215000Y-50380000D02*
X126215000Y-46140000D01*
X126215000Y-46140000D02*
X123975000Y-46140000D01*
X123975000Y-46140000D02*
X123975000Y-50380000D01*
X125095000Y-51030000D02*
X125095000Y-50380000D01*
X125095000Y-45490000D02*
X125095000Y-46140000D01*
X123975000Y-49660000D02*
X126215000Y-49660000D01*
X123975000Y-49540000D02*
X126215000Y-49540000D01*
X123975000Y-49780000D02*
X126215000Y-49780000D01*
G04 #@! TO.C,D5*
X134135000Y-51650000D02*
X136375000Y-51650000D01*
X136375000Y-51650000D02*
X136375000Y-47410000D01*
X136375000Y-47410000D02*
X134135000Y-47410000D01*
X134135000Y-47410000D02*
X134135000Y-51650000D01*
X135255000Y-52300000D02*
X135255000Y-51650000D01*
X135255000Y-46760000D02*
X135255000Y-47410000D01*
X134135000Y-50930000D02*
X136375000Y-50930000D01*
X134135000Y-50810000D02*
X136375000Y-50810000D01*
X134135000Y-51050000D02*
X136375000Y-51050000D01*
G04 #@! TO.C,D6*
X139215000Y-51650000D02*
X141455000Y-51650000D01*
X141455000Y-51650000D02*
X141455000Y-47410000D01*
X141455000Y-47410000D02*
X139215000Y-47410000D01*
X139215000Y-47410000D02*
X139215000Y-51650000D01*
X140335000Y-52300000D02*
X140335000Y-51650000D01*
X140335000Y-46760000D02*
X140335000Y-47410000D01*
X139215000Y-50930000D02*
X141455000Y-50930000D01*
X139215000Y-50810000D02*
X141455000Y-50810000D01*
X139215000Y-51050000D02*
X141455000Y-51050000D01*
G04 #@! TO.C,D7*
X101115000Y-54190000D02*
X103355000Y-54190000D01*
X103355000Y-54190000D02*
X103355000Y-49950000D01*
X103355000Y-49950000D02*
X101115000Y-49950000D01*
X101115000Y-49950000D02*
X101115000Y-54190000D01*
X102235000Y-54840000D02*
X102235000Y-54190000D01*
X102235000Y-49300000D02*
X102235000Y-49950000D01*
X101115000Y-53470000D02*
X103355000Y-53470000D01*
X101115000Y-53350000D02*
X103355000Y-53350000D01*
X101115000Y-53590000D02*
X103355000Y-53590000D01*
G04 #@! TO.C,D8*
X100815000Y-49950000D02*
X98575000Y-49950000D01*
X98575000Y-49950000D02*
X98575000Y-54190000D01*
X98575000Y-54190000D02*
X100815000Y-54190000D01*
X100815000Y-54190000D02*
X100815000Y-49950000D01*
X99695000Y-49300000D02*
X99695000Y-49950000D01*
X99695000Y-54840000D02*
X99695000Y-54190000D01*
X100815000Y-50670000D02*
X98575000Y-50670000D01*
X100815000Y-50790000D02*
X98575000Y-50790000D01*
X100815000Y-50550000D02*
X98575000Y-50550000D01*
G04 #@! TO.C,D9*
X116355000Y-50380000D02*
X118595000Y-50380000D01*
X118595000Y-50380000D02*
X118595000Y-46140000D01*
X118595000Y-46140000D02*
X116355000Y-46140000D01*
X116355000Y-46140000D02*
X116355000Y-50380000D01*
X117475000Y-51030000D02*
X117475000Y-50380000D01*
X117475000Y-45490000D02*
X117475000Y-46140000D01*
X116355000Y-49660000D02*
X118595000Y-49660000D01*
X116355000Y-49540000D02*
X118595000Y-49540000D01*
X116355000Y-49780000D02*
X118595000Y-49780000D01*
G04 #@! TO.C,D10*
X116055000Y-46140000D02*
X113815000Y-46140000D01*
X113815000Y-46140000D02*
X113815000Y-50380000D01*
X113815000Y-50380000D02*
X116055000Y-50380000D01*
X116055000Y-50380000D02*
X116055000Y-46140000D01*
X114935000Y-45490000D02*
X114935000Y-46140000D01*
X114935000Y-51030000D02*
X114935000Y-50380000D01*
X116055000Y-46860000D02*
X113815000Y-46860000D01*
X116055000Y-46980000D02*
X113815000Y-46980000D01*
X116055000Y-46740000D02*
X113815000Y-46740000D01*
G04 #@! TO.C,D11*
X131595000Y-51650000D02*
X133835000Y-51650000D01*
X133835000Y-51650000D02*
X133835000Y-47410000D01*
X133835000Y-47410000D02*
X131595000Y-47410000D01*
X131595000Y-47410000D02*
X131595000Y-51650000D01*
X132715000Y-52300000D02*
X132715000Y-51650000D01*
X132715000Y-46760000D02*
X132715000Y-47410000D01*
X131595000Y-50930000D02*
X133835000Y-50930000D01*
X131595000Y-50810000D02*
X133835000Y-50810000D01*
X131595000Y-51050000D02*
X133835000Y-51050000D01*
G04 #@! TO.C,D12*
X131295000Y-46140000D02*
X129055000Y-46140000D01*
X129055000Y-46140000D02*
X129055000Y-50380000D01*
X129055000Y-50380000D02*
X131295000Y-50380000D01*
X131295000Y-50380000D02*
X131295000Y-46140000D01*
X130175000Y-45490000D02*
X130175000Y-46140000D01*
X130175000Y-51030000D02*
X130175000Y-50380000D01*
X131295000Y-46860000D02*
X129055000Y-46860000D01*
X131295000Y-46980000D02*
X129055000Y-46980000D01*
X131295000Y-46740000D02*
X129055000Y-46740000D01*
G04 #@! TO.C,R2*
X106395000Y-51450000D02*
X108235000Y-51450000D01*
X108235000Y-51450000D02*
X108235000Y-47610000D01*
X108235000Y-47610000D02*
X106395000Y-47610000D01*
X106395000Y-47610000D02*
X106395000Y-51450000D01*
X107315000Y-52400000D02*
X107315000Y-51450000D01*
X107315000Y-46660000D02*
X107315000Y-47610000D01*
G04 #@! TO.C,R3*
X113315000Y-46340000D02*
X111475000Y-46340000D01*
X111475000Y-46340000D02*
X111475000Y-50180000D01*
X111475000Y-50180000D02*
X113315000Y-50180000D01*
X113315000Y-50180000D02*
X113315000Y-46340000D01*
X112395000Y-45390000D02*
X112395000Y-46340000D01*
X112395000Y-51130000D02*
X112395000Y-50180000D01*
G04 #@! TO.C,R4*
X121635000Y-50180000D02*
X123475000Y-50180000D01*
X123475000Y-50180000D02*
X123475000Y-46340000D01*
X123475000Y-46340000D02*
X121635000Y-46340000D01*
X121635000Y-46340000D02*
X121635000Y-50180000D01*
X122555000Y-51130000D02*
X122555000Y-50180000D01*
X122555000Y-45390000D02*
X122555000Y-46340000D01*
G04 #@! TO.C,R5*
X128555000Y-46340000D02*
X126715000Y-46340000D01*
X126715000Y-46340000D02*
X126715000Y-50180000D01*
X126715000Y-50180000D02*
X128555000Y-50180000D01*
X128555000Y-50180000D02*
X128555000Y-46340000D01*
X127635000Y-45390000D02*
X127635000Y-46340000D01*
X127635000Y-51130000D02*
X127635000Y-50180000D01*
G04 #@! TO.C,R6*
X136875000Y-51450000D02*
X138715000Y-51450000D01*
X138715000Y-51450000D02*
X138715000Y-47610000D01*
X138715000Y-47610000D02*
X136875000Y-47610000D01*
X136875000Y-47610000D02*
X136875000Y-51450000D01*
X137795000Y-52400000D02*
X137795000Y-51450000D01*
X137795000Y-46660000D02*
X137795000Y-47610000D01*
G04 #@! TO.C,VT1*
X102576878Y-43080111D02*
G75*
G03X102567000Y-39191500I1690122J1948611D01*
G01*
X102567000Y-39191500D02*
X102567000Y-43041500D01*
G04 #@! TO.C,VT2*
X132929878Y-43080111D02*
G75*
G03X132920000Y-39191500I1690122J1948611D01*
G01*
X132920000Y-39191500D02*
X132920000Y-43041500D01*
G04 #@! TO.C,VT3*
X139723878Y-43080111D02*
G75*
G03X139714000Y-39191500I1690122J1948611D01*
G01*
X139714000Y-39191500D02*
X139714000Y-43041500D01*
G04 #@! TO.C,J1*
D11*
X99996666Y-43068880D02*
X99996666Y-43783166D01*
X99949047Y-43926023D01*
X99853809Y-44021261D01*
X99710952Y-44068880D01*
X99615714Y-44068880D01*
X100996666Y-44068880D02*
X100425238Y-44068880D01*
X100710952Y-44068880D02*
X100710952Y-43068880D01*
X100615714Y-43211738D01*
X100520476Y-43306976D01*
X100425238Y-43354595D01*
G04 #@! TO.C,R1*
X97607380Y-52236666D02*
X97131190Y-52570000D01*
X97607380Y-52808095D02*
X96607380Y-52808095D01*
X96607380Y-52427142D01*
X96655000Y-52331904D01*
X96702619Y-52284285D01*
X96797857Y-52236666D01*
X96940714Y-52236666D01*
X97035952Y-52284285D01*
X97083571Y-52331904D01*
X97131190Y-52427142D01*
X97131190Y-52808095D01*
X97607380Y-51284285D02*
X97607380Y-51855714D01*
X97607380Y-51570000D02*
X96607380Y-51570000D01*
X96750238Y-51665238D01*
X96845476Y-51760476D01*
X96893095Y-51855714D01*
G04 #@! TO.C,D1*
X105227380Y-52808095D02*
X104227380Y-52808095D01*
X104227380Y-52570000D01*
X104275000Y-52427142D01*
X104370238Y-52331904D01*
X104465476Y-52284285D01*
X104655952Y-52236666D01*
X104798809Y-52236666D01*
X104989285Y-52284285D01*
X105084523Y-52331904D01*
X105179761Y-52427142D01*
X105227380Y-52570000D01*
X105227380Y-52808095D01*
X105227380Y-51284285D02*
X105227380Y-51855714D01*
X105227380Y-51570000D02*
X104227380Y-51570000D01*
X104370238Y-51665238D01*
X104465476Y-51760476D01*
X104513095Y-51855714D01*
G04 #@! TO.C,D2*
X110307380Y-48998095D02*
X109307380Y-48998095D01*
X109307380Y-48760000D01*
X109355000Y-48617142D01*
X109450238Y-48521904D01*
X109545476Y-48474285D01*
X109735952Y-48426666D01*
X109878809Y-48426666D01*
X110069285Y-48474285D01*
X110164523Y-48521904D01*
X110259761Y-48617142D01*
X110307380Y-48760000D01*
X110307380Y-48998095D01*
X109402619Y-48045714D02*
X109355000Y-47998095D01*
X109307380Y-47902857D01*
X109307380Y-47664761D01*
X109355000Y-47569523D01*
X109402619Y-47521904D01*
X109497857Y-47474285D01*
X109593095Y-47474285D01*
X109735952Y-47521904D01*
X110307380Y-48093333D01*
X110307380Y-47474285D01*
G04 #@! TO.C,D3*
X120467380Y-48998095D02*
X119467380Y-48998095D01*
X119467380Y-48760000D01*
X119515000Y-48617142D01*
X119610238Y-48521904D01*
X119705476Y-48474285D01*
X119895952Y-48426666D01*
X120038809Y-48426666D01*
X120229285Y-48474285D01*
X120324523Y-48521904D01*
X120419761Y-48617142D01*
X120467380Y-48760000D01*
X120467380Y-48998095D01*
X119467380Y-48093333D02*
X119467380Y-47474285D01*
X119848333Y-47807619D01*
X119848333Y-47664761D01*
X119895952Y-47569523D01*
X119943571Y-47521904D01*
X120038809Y-47474285D01*
X120276904Y-47474285D01*
X120372142Y-47521904D01*
X120419761Y-47569523D01*
X120467380Y-47664761D01*
X120467380Y-47950476D01*
X120419761Y-48045714D01*
X120372142Y-48093333D01*
G04 #@! TO.C,D4*
X125547380Y-48998095D02*
X124547380Y-48998095D01*
X124547380Y-48760000D01*
X124595000Y-48617142D01*
X124690238Y-48521904D01*
X124785476Y-48474285D01*
X124975952Y-48426666D01*
X125118809Y-48426666D01*
X125309285Y-48474285D01*
X125404523Y-48521904D01*
X125499761Y-48617142D01*
X125547380Y-48760000D01*
X125547380Y-48998095D01*
X124880714Y-47569523D02*
X125547380Y-47569523D01*
X124499761Y-47807619D02*
X125214047Y-48045714D01*
X125214047Y-47426666D01*
G04 #@! TO.C,D5*
X135707380Y-50268095D02*
X134707380Y-50268095D01*
X134707380Y-50030000D01*
X134755000Y-49887142D01*
X134850238Y-49791904D01*
X134945476Y-49744285D01*
X135135952Y-49696666D01*
X135278809Y-49696666D01*
X135469285Y-49744285D01*
X135564523Y-49791904D01*
X135659761Y-49887142D01*
X135707380Y-50030000D01*
X135707380Y-50268095D01*
X134707380Y-48791904D02*
X134707380Y-49268095D01*
X135183571Y-49315714D01*
X135135952Y-49268095D01*
X135088333Y-49172857D01*
X135088333Y-48934761D01*
X135135952Y-48839523D01*
X135183571Y-48791904D01*
X135278809Y-48744285D01*
X135516904Y-48744285D01*
X135612142Y-48791904D01*
X135659761Y-48839523D01*
X135707380Y-48934761D01*
X135707380Y-49172857D01*
X135659761Y-49268095D01*
X135612142Y-49315714D01*
G04 #@! TO.C,D6*
X140787380Y-50268095D02*
X139787380Y-50268095D01*
X139787380Y-50030000D01*
X139835000Y-49887142D01*
X139930238Y-49791904D01*
X140025476Y-49744285D01*
X140215952Y-49696666D01*
X140358809Y-49696666D01*
X140549285Y-49744285D01*
X140644523Y-49791904D01*
X140739761Y-49887142D01*
X140787380Y-50030000D01*
X140787380Y-50268095D01*
X139787380Y-48839523D02*
X139787380Y-49030000D01*
X139835000Y-49125238D01*
X139882619Y-49172857D01*
X140025476Y-49268095D01*
X140215952Y-49315714D01*
X140596904Y-49315714D01*
X140692142Y-49268095D01*
X140739761Y-49220476D01*
X140787380Y-49125238D01*
X140787380Y-48934761D01*
X140739761Y-48839523D01*
X140692142Y-48791904D01*
X140596904Y-48744285D01*
X140358809Y-48744285D01*
X140263571Y-48791904D01*
X140215952Y-48839523D01*
X140168333Y-48934761D01*
X140168333Y-49125238D01*
X140215952Y-49220476D01*
X140263571Y-49268095D01*
X140358809Y-49315714D01*
G04 #@! TO.C,D7*
X102687380Y-52808095D02*
X101687380Y-52808095D01*
X101687380Y-52570000D01*
X101735000Y-52427142D01*
X101830238Y-52331904D01*
X101925476Y-52284285D01*
X102115952Y-52236666D01*
X102258809Y-52236666D01*
X102449285Y-52284285D01*
X102544523Y-52331904D01*
X102639761Y-52427142D01*
X102687380Y-52570000D01*
X102687380Y-52808095D01*
X101687380Y-51903333D02*
X101687380Y-51236666D01*
X102687380Y-51665238D01*
G04 #@! TO.C,D8*
X100147380Y-52808095D02*
X99147380Y-52808095D01*
X99147380Y-52570000D01*
X99195000Y-52427142D01*
X99290238Y-52331904D01*
X99385476Y-52284285D01*
X99575952Y-52236666D01*
X99718809Y-52236666D01*
X99909285Y-52284285D01*
X100004523Y-52331904D01*
X100099761Y-52427142D01*
X100147380Y-52570000D01*
X100147380Y-52808095D01*
X99575952Y-51665238D02*
X99528333Y-51760476D01*
X99480714Y-51808095D01*
X99385476Y-51855714D01*
X99337857Y-51855714D01*
X99242619Y-51808095D01*
X99195000Y-51760476D01*
X99147380Y-51665238D01*
X99147380Y-51474761D01*
X99195000Y-51379523D01*
X99242619Y-51331904D01*
X99337857Y-51284285D01*
X99385476Y-51284285D01*
X99480714Y-51331904D01*
X99528333Y-51379523D01*
X99575952Y-51474761D01*
X99575952Y-51665238D01*
X99623571Y-51760476D01*
X99671190Y-51808095D01*
X99766428Y-51855714D01*
X99956904Y-51855714D01*
X100052142Y-51808095D01*
X100099761Y-51760476D01*
X100147380Y-51665238D01*
X100147380Y-51474761D01*
X100099761Y-51379523D01*
X100052142Y-51331904D01*
X99956904Y-51284285D01*
X99766428Y-51284285D01*
X99671190Y-51331904D01*
X99623571Y-51379523D01*
X99575952Y-51474761D01*
G04 #@! TO.C,D9*
X117927380Y-48998095D02*
X116927380Y-48998095D01*
X116927380Y-48760000D01*
X116975000Y-48617142D01*
X117070238Y-48521904D01*
X117165476Y-48474285D01*
X117355952Y-48426666D01*
X117498809Y-48426666D01*
X117689285Y-48474285D01*
X117784523Y-48521904D01*
X117879761Y-48617142D01*
X117927380Y-48760000D01*
X117927380Y-48998095D01*
X117927380Y-47950476D02*
X117927380Y-47760000D01*
X117879761Y-47664761D01*
X117832142Y-47617142D01*
X117689285Y-47521904D01*
X117498809Y-47474285D01*
X117117857Y-47474285D01*
X117022619Y-47521904D01*
X116975000Y-47569523D01*
X116927380Y-47664761D01*
X116927380Y-47855238D01*
X116975000Y-47950476D01*
X117022619Y-47998095D01*
X117117857Y-48045714D01*
X117355952Y-48045714D01*
X117451190Y-47998095D01*
X117498809Y-47950476D01*
X117546428Y-47855238D01*
X117546428Y-47664761D01*
X117498809Y-47569523D01*
X117451190Y-47521904D01*
X117355952Y-47474285D01*
G04 #@! TO.C,D10*
X115387380Y-50109285D02*
X114387380Y-50109285D01*
X114387380Y-49871190D01*
X114435000Y-49728333D01*
X114530238Y-49633095D01*
X114625476Y-49585476D01*
X114815952Y-49537857D01*
X114958809Y-49537857D01*
X115149285Y-49585476D01*
X115244523Y-49633095D01*
X115339761Y-49728333D01*
X115387380Y-49871190D01*
X115387380Y-50109285D01*
X115387380Y-48585476D02*
X115387380Y-49156904D01*
X115387380Y-48871190D02*
X114387380Y-48871190D01*
X114530238Y-48966428D01*
X114625476Y-49061666D01*
X114673095Y-49156904D01*
X114387380Y-47966428D02*
X114387380Y-47871190D01*
X114435000Y-47775952D01*
X114482619Y-47728333D01*
X114577857Y-47680714D01*
X114768333Y-47633095D01*
X115006428Y-47633095D01*
X115196904Y-47680714D01*
X115292142Y-47728333D01*
X115339761Y-47775952D01*
X115387380Y-47871190D01*
X115387380Y-47966428D01*
X115339761Y-48061666D01*
X115292142Y-48109285D01*
X115196904Y-48156904D01*
X115006428Y-48204523D01*
X114768333Y-48204523D01*
X114577857Y-48156904D01*
X114482619Y-48109285D01*
X114435000Y-48061666D01*
X114387380Y-47966428D01*
G04 #@! TO.C,D11*
X133167380Y-50109285D02*
X132167380Y-50109285D01*
X132167380Y-49871190D01*
X132215000Y-49728333D01*
X132310238Y-49633095D01*
X132405476Y-49585476D01*
X132595952Y-49537857D01*
X132738809Y-49537857D01*
X132929285Y-49585476D01*
X133024523Y-49633095D01*
X133119761Y-49728333D01*
X133167380Y-49871190D01*
X133167380Y-50109285D01*
X133167380Y-48585476D02*
X133167380Y-49156904D01*
X133167380Y-48871190D02*
X132167380Y-48871190D01*
X132310238Y-48966428D01*
X132405476Y-49061666D01*
X132453095Y-49156904D01*
X133167380Y-47633095D02*
X133167380Y-48204523D01*
X133167380Y-47918809D02*
X132167380Y-47918809D01*
X132310238Y-48014047D01*
X132405476Y-48109285D01*
X132453095Y-48204523D01*
G04 #@! TO.C,D12*
X130627380Y-50109285D02*
X129627380Y-50109285D01*
X129627380Y-49871190D01*
X129675000Y-49728333D01*
X129770238Y-49633095D01*
X129865476Y-49585476D01*
X130055952Y-49537857D01*
X130198809Y-49537857D01*
X130389285Y-49585476D01*
X130484523Y-49633095D01*
X130579761Y-49728333D01*
X130627380Y-49871190D01*
X130627380Y-50109285D01*
X130627380Y-48585476D02*
X130627380Y-49156904D01*
X130627380Y-48871190D02*
X129627380Y-48871190D01*
X129770238Y-48966428D01*
X129865476Y-49061666D01*
X129913095Y-49156904D01*
X129722619Y-48204523D02*
X129675000Y-48156904D01*
X129627380Y-48061666D01*
X129627380Y-47823571D01*
X129675000Y-47728333D01*
X129722619Y-47680714D01*
X129817857Y-47633095D01*
X129913095Y-47633095D01*
X130055952Y-47680714D01*
X130627380Y-48252142D01*
X130627380Y-47633095D01*
G04 #@! TO.C,R2*
X107767380Y-49696666D02*
X107291190Y-50030000D01*
X107767380Y-50268095D02*
X106767380Y-50268095D01*
X106767380Y-49887142D01*
X106815000Y-49791904D01*
X106862619Y-49744285D01*
X106957857Y-49696666D01*
X107100714Y-49696666D01*
X107195952Y-49744285D01*
X107243571Y-49791904D01*
X107291190Y-49887142D01*
X107291190Y-50268095D01*
X106862619Y-49315714D02*
X106815000Y-49268095D01*
X106767380Y-49172857D01*
X106767380Y-48934761D01*
X106815000Y-48839523D01*
X106862619Y-48791904D01*
X106957857Y-48744285D01*
X107053095Y-48744285D01*
X107195952Y-48791904D01*
X107767380Y-49363333D01*
X107767380Y-48744285D01*
G04 #@! TO.C,R3*
X112847380Y-48426666D02*
X112371190Y-48760000D01*
X112847380Y-48998095D02*
X111847380Y-48998095D01*
X111847380Y-48617142D01*
X111895000Y-48521904D01*
X111942619Y-48474285D01*
X112037857Y-48426666D01*
X112180714Y-48426666D01*
X112275952Y-48474285D01*
X112323571Y-48521904D01*
X112371190Y-48617142D01*
X112371190Y-48998095D01*
X111847380Y-48093333D02*
X111847380Y-47474285D01*
X112228333Y-47807619D01*
X112228333Y-47664761D01*
X112275952Y-47569523D01*
X112323571Y-47521904D01*
X112418809Y-47474285D01*
X112656904Y-47474285D01*
X112752142Y-47521904D01*
X112799761Y-47569523D01*
X112847380Y-47664761D01*
X112847380Y-47950476D01*
X112799761Y-48045714D01*
X112752142Y-48093333D01*
G04 #@! TO.C,R4*
X123007380Y-48426666D02*
X122531190Y-48760000D01*
X123007380Y-48998095D02*
X122007380Y-48998095D01*
X122007380Y-48617142D01*
X122055000Y-48521904D01*
X122102619Y-48474285D01*
X122197857Y-48426666D01*
X122340714Y-48426666D01*
X122435952Y-48474285D01*
X122483571Y-48521904D01*
X122531190Y-48617142D01*
X122531190Y-48998095D01*
X122340714Y-47569523D02*
X123007380Y-47569523D01*
X121959761Y-47807619D02*
X122674047Y-48045714D01*
X122674047Y-47426666D01*
G04 #@! TO.C,R5*
X128087380Y-48426666D02*
X127611190Y-48760000D01*
X128087380Y-48998095D02*
X127087380Y-48998095D01*
X127087380Y-48617142D01*
X127135000Y-48521904D01*
X127182619Y-48474285D01*
X127277857Y-48426666D01*
X127420714Y-48426666D01*
X127515952Y-48474285D01*
X127563571Y-48521904D01*
X127611190Y-48617142D01*
X127611190Y-48998095D01*
X127087380Y-47521904D02*
X127087380Y-47998095D01*
X127563571Y-48045714D01*
X127515952Y-47998095D01*
X127468333Y-47902857D01*
X127468333Y-47664761D01*
X127515952Y-47569523D01*
X127563571Y-47521904D01*
X127658809Y-47474285D01*
X127896904Y-47474285D01*
X127992142Y-47521904D01*
X128039761Y-47569523D01*
X128087380Y-47664761D01*
X128087380Y-47902857D01*
X128039761Y-47998095D01*
X127992142Y-48045714D01*
G04 #@! TO.C,R6*
X138247380Y-49696666D02*
X137771190Y-50030000D01*
X138247380Y-50268095D02*
X137247380Y-50268095D01*
X137247380Y-49887142D01*
X137295000Y-49791904D01*
X137342619Y-49744285D01*
X137437857Y-49696666D01*
X137580714Y-49696666D01*
X137675952Y-49744285D01*
X137723571Y-49791904D01*
X137771190Y-49887142D01*
X137771190Y-50268095D01*
X137247380Y-48839523D02*
X137247380Y-49030000D01*
X137295000Y-49125238D01*
X137342619Y-49172857D01*
X137485476Y-49268095D01*
X137675952Y-49315714D01*
X138056904Y-49315714D01*
X138152142Y-49268095D01*
X138199761Y-49220476D01*
X138247380Y-49125238D01*
X138247380Y-48934761D01*
X138199761Y-48839523D01*
X138152142Y-48791904D01*
X138056904Y-48744285D01*
X137818809Y-48744285D01*
X137723571Y-48791904D01*
X137675952Y-48839523D01*
X137628333Y-48934761D01*
X137628333Y-49125238D01*
X137675952Y-49220476D01*
X137723571Y-49268095D01*
X137818809Y-49315714D01*
G04 #@! TO.C,VT1*
X107279380Y-42321976D02*
X108279380Y-41988642D01*
X107279380Y-41655309D01*
X107279380Y-41464833D02*
X107279380Y-40893404D01*
X108279380Y-41179119D02*
X107279380Y-41179119D01*
X108279380Y-40036261D02*
X108279380Y-40607690D01*
X108279380Y-40321976D02*
X107279380Y-40321976D01*
X107422238Y-40417214D01*
X107517476Y-40512452D01*
X107565095Y-40607690D01*
G04 #@! TO.C,VT2*
X137632380Y-42321976D02*
X138632380Y-41988642D01*
X137632380Y-41655309D01*
X137632380Y-41464833D02*
X137632380Y-40893404D01*
X138632380Y-41179119D02*
X137632380Y-41179119D01*
X137727619Y-40607690D02*
X137680000Y-40560071D01*
X137632380Y-40464833D01*
X137632380Y-40226738D01*
X137680000Y-40131500D01*
X137727619Y-40083880D01*
X137822857Y-40036261D01*
X137918095Y-40036261D01*
X138060952Y-40083880D01*
X138632380Y-40655309D01*
X138632380Y-40036261D01*
G04 #@! TO.C,VT3*
X144426380Y-42321976D02*
X145426380Y-41988642D01*
X144426380Y-41655309D01*
X144426380Y-41464833D02*
X144426380Y-40893404D01*
X145426380Y-41179119D02*
X144426380Y-41179119D01*
X144426380Y-40655309D02*
X144426380Y-40036261D01*
X144807333Y-40369595D01*
X144807333Y-40226738D01*
X144854952Y-40131500D01*
X144902571Y-40083880D01*
X144997809Y-40036261D01*
X145235904Y-40036261D01*
X145331142Y-40083880D01*
X145378761Y-40131500D01*
X145426380Y-40226738D01*
X145426380Y-40512452D01*
X145378761Y-40607690D01*
X145331142Y-40655309D01*
G04 #@! TD*
M02*
