G04 #@! TF.GenerationSoftware,KiCad,Pcbnew,(5.0.0)*
G04 #@! TF.CreationDate,2019-03-30T16:47:33+00:00*
G04 #@! TF.ProjectId,LS01,4C5330312E6B696361645F7063620000,rev?*
G04 #@! TF.SameCoordinates,Original*
G04 #@! TF.FileFunction,Copper,L2,Bot,Signal*
G04 #@! TF.FilePolarity,Positive*
%FSLAX46Y46*%
G04 Gerber Fmt 4.6, Leading zero omitted, Abs format (unit mm)*
G04 Created by KiCad (PCBNEW (5.0.0)) date 03/30/19 16:47:33*
%MOMM*%
%LPD*%
G01*
G04 APERTURE LIST*
G04 #@! TA.AperFunction,ComponentPad*
%ADD10C,2.000000*%
G04 #@! TD*
G04 #@! TA.AperFunction,ComponentPad*
%ADD11C,1.400000*%
G04 #@! TD*
G04 #@! TA.AperFunction,ComponentPad*
%ADD12O,1.400000X1.400000*%
G04 #@! TD*
G04 #@! TA.AperFunction,ComponentPad*
%ADD13R,1.600000X1.600000*%
G04 #@! TD*
G04 #@! TA.AperFunction,ComponentPad*
%ADD14O,1.600000X1.600000*%
G04 #@! TD*
G04 #@! TA.AperFunction,ComponentPad*
%ADD15R,1.500000X1.050000*%
G04 #@! TD*
G04 #@! TA.AperFunction,Conductor*
%ADD16C,0.100000*%
G04 #@! TD*
G04 #@! TA.AperFunction,ComponentPad*
%ADD17C,1.050000*%
G04 #@! TD*
G04 #@! TA.AperFunction,Conductor*
%ADD18C,0.500000*%
G04 #@! TD*
G04 APERTURE END LIST*
D10*
G04 #@! TO.P,J1,13*
G04 #@! TO.N,13*
X123190000Y-39941500D03*
G04 #@! TO.P,J1,12*
G04 #@! TO.N,12*
X120650000Y-39941500D03*
G04 #@! TO.P,J1,11*
G04 #@! TO.N,11*
X118110000Y-39941500D03*
G04 #@! TO.P,J1,6*
G04 #@! TO.N,6*
X127000000Y-58356500D03*
G04 #@! TO.P,J1,5*
G04 #@! TO.N,5*
X124460000Y-58356500D03*
G04 #@! TO.P,J1,4*
G04 #@! TO.N,4*
X121920000Y-58356500D03*
G04 #@! TO.P,J1,3*
G04 #@! TO.N,3*
X119380000Y-58356500D03*
G04 #@! TO.P,J1,2*
G04 #@! TO.N,2*
X116840000Y-58356500D03*
G04 #@! TO.P,J1,1*
G04 #@! TO.N,1*
X114300000Y-58356500D03*
G04 #@! TO.P,J1,23*
G04 #@! TO.N,-6v*
X97155000Y-45021500D03*
G04 #@! TO.P,J1,22*
G04 #@! TO.N,0v*
X97155000Y-42481500D03*
G04 #@! TO.P,J1,21*
G04 #@! TO.N,+6v*
X97155000Y-39941500D03*
G04 #@! TD*
D11*
G04 #@! TO.P,R1,1*
G04 #@! TO.N,Net-(D8-Pad1)*
X97155000Y-48260000D03*
D12*
G04 #@! TO.P,R1,2*
G04 #@! TO.N,-6v*
X97155000Y-55880000D03*
G04 #@! TD*
D13*
G04 #@! TO.P,D1,1*
G04 #@! TO.N,1*
X104775000Y-55880000D03*
D14*
G04 #@! TO.P,D1,2*
G04 #@! TO.N,Net-(D1-Pad2)*
X104775000Y-48260000D03*
G04 #@! TD*
D13*
G04 #@! TO.P,D2,1*
G04 #@! TO.N,2*
X109855000Y-52070000D03*
D14*
G04 #@! TO.P,D2,2*
G04 #@! TO.N,Net-(D1-Pad2)*
X109855000Y-44450000D03*
G04 #@! TD*
D13*
G04 #@! TO.P,D3,1*
G04 #@! TO.N,3*
X120015000Y-52070000D03*
D14*
G04 #@! TO.P,D3,2*
G04 #@! TO.N,Net-(D3-Pad2)*
X120015000Y-44450000D03*
G04 #@! TD*
D13*
G04 #@! TO.P,D4,1*
G04 #@! TO.N,4*
X125095000Y-52070000D03*
D14*
G04 #@! TO.P,D4,2*
G04 #@! TO.N,Net-(D3-Pad2)*
X125095000Y-44450000D03*
G04 #@! TD*
D13*
G04 #@! TO.P,D5,1*
G04 #@! TO.N,5*
X135255000Y-53340000D03*
D14*
G04 #@! TO.P,D5,2*
G04 #@! TO.N,Net-(D11-Pad2)*
X135255000Y-45720000D03*
G04 #@! TD*
D13*
G04 #@! TO.P,D6,1*
G04 #@! TO.N,6*
X140335000Y-53340000D03*
D14*
G04 #@! TO.P,D6,2*
G04 #@! TO.N,Net-(D11-Pad2)*
X140335000Y-45720000D03*
G04 #@! TD*
D13*
G04 #@! TO.P,D7,1*
G04 #@! TO.N,Net-(D7-Pad1)*
X102235000Y-55880000D03*
D14*
G04 #@! TO.P,D7,2*
G04 #@! TO.N,Net-(D1-Pad2)*
X102235000Y-48260000D03*
G04 #@! TD*
D13*
G04 #@! TO.P,D8,1*
G04 #@! TO.N,Net-(D8-Pad1)*
X99695000Y-48260000D03*
D14*
G04 #@! TO.P,D8,2*
G04 #@! TO.N,Net-(D7-Pad1)*
X99695000Y-55880000D03*
G04 #@! TD*
D13*
G04 #@! TO.P,D9,1*
G04 #@! TO.N,Net-(D10-Pad2)*
X117475000Y-52070000D03*
D14*
G04 #@! TO.P,D9,2*
G04 #@! TO.N,Net-(D3-Pad2)*
X117475000Y-44450000D03*
G04 #@! TD*
D13*
G04 #@! TO.P,D10,1*
G04 #@! TO.N,Net-(D10-Pad1)*
X114935000Y-44450000D03*
D14*
G04 #@! TO.P,D10,2*
G04 #@! TO.N,Net-(D10-Pad2)*
X114935000Y-52070000D03*
G04 #@! TD*
D13*
G04 #@! TO.P,D11,1*
G04 #@! TO.N,Net-(D11-Pad1)*
X132715000Y-53340000D03*
D14*
G04 #@! TO.P,D11,2*
G04 #@! TO.N,Net-(D11-Pad2)*
X132715000Y-45720000D03*
G04 #@! TD*
D13*
G04 #@! TO.P,D12,1*
G04 #@! TO.N,Net-(D12-Pad1)*
X130175000Y-44450000D03*
D14*
G04 #@! TO.P,D12,2*
G04 #@! TO.N,Net-(D11-Pad1)*
X130175000Y-52070000D03*
G04 #@! TD*
D11*
G04 #@! TO.P,R2,1*
G04 #@! TO.N,+6v*
X107315000Y-53340000D03*
D12*
G04 #@! TO.P,R2,2*
G04 #@! TO.N,Net-(D1-Pad2)*
X107315000Y-45720000D03*
G04 #@! TD*
D11*
G04 #@! TO.P,R3,1*
G04 #@! TO.N,Net-(D10-Pad1)*
X112395000Y-44450000D03*
D12*
G04 #@! TO.P,R3,2*
G04 #@! TO.N,-6v*
X112395000Y-52070000D03*
G04 #@! TD*
D11*
G04 #@! TO.P,R4,1*
G04 #@! TO.N,+6v*
X122555000Y-52070000D03*
D12*
G04 #@! TO.P,R4,2*
G04 #@! TO.N,Net-(D3-Pad2)*
X122555000Y-44450000D03*
G04 #@! TD*
D11*
G04 #@! TO.P,R5,1*
G04 #@! TO.N,Net-(D12-Pad1)*
X127635000Y-44450000D03*
D12*
G04 #@! TO.P,R5,2*
G04 #@! TO.N,-6v*
X127635000Y-52070000D03*
G04 #@! TD*
D11*
G04 #@! TO.P,R6,1*
G04 #@! TO.N,+6v*
X137795000Y-53340000D03*
D12*
G04 #@! TO.P,R6,2*
G04 #@! TO.N,Net-(D11-Pad2)*
X137795000Y-45720000D03*
G04 #@! TD*
D15*
G04 #@! TO.P,VT1,3*
G04 #@! TO.N,11*
X104267000Y-39941500D03*
D16*
G04 #@! TD*
G04 #@! TO.N,0v*
G04 #@! TO.C,VT1*
G36*
X104780229Y-41957764D02*
X104805711Y-41961544D01*
X104830700Y-41967803D01*
X104854954Y-41976482D01*
X104878242Y-41987496D01*
X104900337Y-42000739D01*
X104921028Y-42016085D01*
X104940116Y-42033384D01*
X104957415Y-42052472D01*
X104972761Y-42073163D01*
X104986004Y-42095258D01*
X104997018Y-42118546D01*
X105005697Y-42142800D01*
X105011956Y-42167789D01*
X105015736Y-42193271D01*
X105017000Y-42219000D01*
X105017000Y-42744000D01*
X105015736Y-42769729D01*
X105011956Y-42795211D01*
X105005697Y-42820200D01*
X104997018Y-42844454D01*
X104986004Y-42867742D01*
X104972761Y-42889837D01*
X104957415Y-42910528D01*
X104940116Y-42929616D01*
X104921028Y-42946915D01*
X104900337Y-42962261D01*
X104878242Y-42975504D01*
X104854954Y-42986518D01*
X104830700Y-42995197D01*
X104805711Y-43001456D01*
X104780229Y-43005236D01*
X104754500Y-43006500D01*
X103779500Y-43006500D01*
X103753771Y-43005236D01*
X103728289Y-43001456D01*
X103703300Y-42995197D01*
X103679046Y-42986518D01*
X103655758Y-42975504D01*
X103633663Y-42962261D01*
X103612972Y-42946915D01*
X103593884Y-42929616D01*
X103576585Y-42910528D01*
X103561239Y-42889837D01*
X103547996Y-42867742D01*
X103536982Y-42844454D01*
X103528303Y-42820200D01*
X103522044Y-42795211D01*
X103518264Y-42769729D01*
X103517000Y-42744000D01*
X103517000Y-42219000D01*
X103518264Y-42193271D01*
X103522044Y-42167789D01*
X103528303Y-42142800D01*
X103536982Y-42118546D01*
X103547996Y-42095258D01*
X103561239Y-42073163D01*
X103576585Y-42052472D01*
X103593884Y-42033384D01*
X103612972Y-42016085D01*
X103633663Y-42000739D01*
X103655758Y-41987496D01*
X103679046Y-41976482D01*
X103703300Y-41967803D01*
X103728289Y-41961544D01*
X103753771Y-41957764D01*
X103779500Y-41956500D01*
X104754500Y-41956500D01*
X104780229Y-41957764D01*
X104780229Y-41957764D01*
G37*
D17*
G04 #@! TO.P,VT1,1*
G04 #@! TO.N,0v*
X104267000Y-42481500D03*
D16*
G04 #@! TD*
G04 #@! TO.N,Net-(D8-Pad1)*
G04 #@! TO.C,VT1*
G36*
X104780229Y-40687764D02*
X104805711Y-40691544D01*
X104830700Y-40697803D01*
X104854954Y-40706482D01*
X104878242Y-40717496D01*
X104900337Y-40730739D01*
X104921028Y-40746085D01*
X104940116Y-40763384D01*
X104957415Y-40782472D01*
X104972761Y-40803163D01*
X104986004Y-40825258D01*
X104997018Y-40848546D01*
X105005697Y-40872800D01*
X105011956Y-40897789D01*
X105015736Y-40923271D01*
X105017000Y-40949000D01*
X105017000Y-41474000D01*
X105015736Y-41499729D01*
X105011956Y-41525211D01*
X105005697Y-41550200D01*
X104997018Y-41574454D01*
X104986004Y-41597742D01*
X104972761Y-41619837D01*
X104957415Y-41640528D01*
X104940116Y-41659616D01*
X104921028Y-41676915D01*
X104900337Y-41692261D01*
X104878242Y-41705504D01*
X104854954Y-41716518D01*
X104830700Y-41725197D01*
X104805711Y-41731456D01*
X104780229Y-41735236D01*
X104754500Y-41736500D01*
X103779500Y-41736500D01*
X103753771Y-41735236D01*
X103728289Y-41731456D01*
X103703300Y-41725197D01*
X103679046Y-41716518D01*
X103655758Y-41705504D01*
X103633663Y-41692261D01*
X103612972Y-41676915D01*
X103593884Y-41659616D01*
X103576585Y-41640528D01*
X103561239Y-41619837D01*
X103547996Y-41597742D01*
X103536982Y-41574454D01*
X103528303Y-41550200D01*
X103522044Y-41525211D01*
X103518264Y-41499729D01*
X103517000Y-41474000D01*
X103517000Y-40949000D01*
X103518264Y-40923271D01*
X103522044Y-40897789D01*
X103528303Y-40872800D01*
X103536982Y-40848546D01*
X103547996Y-40825258D01*
X103561239Y-40803163D01*
X103576585Y-40782472D01*
X103593884Y-40763384D01*
X103612972Y-40746085D01*
X103633663Y-40730739D01*
X103655758Y-40717496D01*
X103679046Y-40706482D01*
X103703300Y-40697803D01*
X103728289Y-40691544D01*
X103753771Y-40687764D01*
X103779500Y-40686500D01*
X104754500Y-40686500D01*
X104780229Y-40687764D01*
X104780229Y-40687764D01*
G37*
D17*
G04 #@! TO.P,VT1,2*
G04 #@! TO.N,Net-(D8-Pad1)*
X104267000Y-41211500D03*
G04 #@! TD*
D15*
G04 #@! TO.P,VT2,3*
G04 #@! TO.N,12*
X134620000Y-39941500D03*
D16*
G04 #@! TD*
G04 #@! TO.N,0v*
G04 #@! TO.C,VT2*
G36*
X135133229Y-41957764D02*
X135158711Y-41961544D01*
X135183700Y-41967803D01*
X135207954Y-41976482D01*
X135231242Y-41987496D01*
X135253337Y-42000739D01*
X135274028Y-42016085D01*
X135293116Y-42033384D01*
X135310415Y-42052472D01*
X135325761Y-42073163D01*
X135339004Y-42095258D01*
X135350018Y-42118546D01*
X135358697Y-42142800D01*
X135364956Y-42167789D01*
X135368736Y-42193271D01*
X135370000Y-42219000D01*
X135370000Y-42744000D01*
X135368736Y-42769729D01*
X135364956Y-42795211D01*
X135358697Y-42820200D01*
X135350018Y-42844454D01*
X135339004Y-42867742D01*
X135325761Y-42889837D01*
X135310415Y-42910528D01*
X135293116Y-42929616D01*
X135274028Y-42946915D01*
X135253337Y-42962261D01*
X135231242Y-42975504D01*
X135207954Y-42986518D01*
X135183700Y-42995197D01*
X135158711Y-43001456D01*
X135133229Y-43005236D01*
X135107500Y-43006500D01*
X134132500Y-43006500D01*
X134106771Y-43005236D01*
X134081289Y-43001456D01*
X134056300Y-42995197D01*
X134032046Y-42986518D01*
X134008758Y-42975504D01*
X133986663Y-42962261D01*
X133965972Y-42946915D01*
X133946884Y-42929616D01*
X133929585Y-42910528D01*
X133914239Y-42889837D01*
X133900996Y-42867742D01*
X133889982Y-42844454D01*
X133881303Y-42820200D01*
X133875044Y-42795211D01*
X133871264Y-42769729D01*
X133870000Y-42744000D01*
X133870000Y-42219000D01*
X133871264Y-42193271D01*
X133875044Y-42167789D01*
X133881303Y-42142800D01*
X133889982Y-42118546D01*
X133900996Y-42095258D01*
X133914239Y-42073163D01*
X133929585Y-42052472D01*
X133946884Y-42033384D01*
X133965972Y-42016085D01*
X133986663Y-42000739D01*
X134008758Y-41987496D01*
X134032046Y-41976482D01*
X134056300Y-41967803D01*
X134081289Y-41961544D01*
X134106771Y-41957764D01*
X134132500Y-41956500D01*
X135107500Y-41956500D01*
X135133229Y-41957764D01*
X135133229Y-41957764D01*
G37*
D17*
G04 #@! TO.P,VT2,1*
G04 #@! TO.N,0v*
X134620000Y-42481500D03*
D16*
G04 #@! TD*
G04 #@! TO.N,Net-(D10-Pad1)*
G04 #@! TO.C,VT2*
G36*
X135133229Y-40687764D02*
X135158711Y-40691544D01*
X135183700Y-40697803D01*
X135207954Y-40706482D01*
X135231242Y-40717496D01*
X135253337Y-40730739D01*
X135274028Y-40746085D01*
X135293116Y-40763384D01*
X135310415Y-40782472D01*
X135325761Y-40803163D01*
X135339004Y-40825258D01*
X135350018Y-40848546D01*
X135358697Y-40872800D01*
X135364956Y-40897789D01*
X135368736Y-40923271D01*
X135370000Y-40949000D01*
X135370000Y-41474000D01*
X135368736Y-41499729D01*
X135364956Y-41525211D01*
X135358697Y-41550200D01*
X135350018Y-41574454D01*
X135339004Y-41597742D01*
X135325761Y-41619837D01*
X135310415Y-41640528D01*
X135293116Y-41659616D01*
X135274028Y-41676915D01*
X135253337Y-41692261D01*
X135231242Y-41705504D01*
X135207954Y-41716518D01*
X135183700Y-41725197D01*
X135158711Y-41731456D01*
X135133229Y-41735236D01*
X135107500Y-41736500D01*
X134132500Y-41736500D01*
X134106771Y-41735236D01*
X134081289Y-41731456D01*
X134056300Y-41725197D01*
X134032046Y-41716518D01*
X134008758Y-41705504D01*
X133986663Y-41692261D01*
X133965972Y-41676915D01*
X133946884Y-41659616D01*
X133929585Y-41640528D01*
X133914239Y-41619837D01*
X133900996Y-41597742D01*
X133889982Y-41574454D01*
X133881303Y-41550200D01*
X133875044Y-41525211D01*
X133871264Y-41499729D01*
X133870000Y-41474000D01*
X133870000Y-40949000D01*
X133871264Y-40923271D01*
X133875044Y-40897789D01*
X133881303Y-40872800D01*
X133889982Y-40848546D01*
X133900996Y-40825258D01*
X133914239Y-40803163D01*
X133929585Y-40782472D01*
X133946884Y-40763384D01*
X133965972Y-40746085D01*
X133986663Y-40730739D01*
X134008758Y-40717496D01*
X134032046Y-40706482D01*
X134056300Y-40697803D01*
X134081289Y-40691544D01*
X134106771Y-40687764D01*
X134132500Y-40686500D01*
X135107500Y-40686500D01*
X135133229Y-40687764D01*
X135133229Y-40687764D01*
G37*
D17*
G04 #@! TO.P,VT2,2*
G04 #@! TO.N,Net-(D10-Pad1)*
X134620000Y-41211500D03*
G04 #@! TD*
D15*
G04 #@! TO.P,VT3,3*
G04 #@! TO.N,13*
X141414000Y-39941500D03*
D16*
G04 #@! TD*
G04 #@! TO.N,0v*
G04 #@! TO.C,VT3*
G36*
X141927229Y-41957764D02*
X141952711Y-41961544D01*
X141977700Y-41967803D01*
X142001954Y-41976482D01*
X142025242Y-41987496D01*
X142047337Y-42000739D01*
X142068028Y-42016085D01*
X142087116Y-42033384D01*
X142104415Y-42052472D01*
X142119761Y-42073163D01*
X142133004Y-42095258D01*
X142144018Y-42118546D01*
X142152697Y-42142800D01*
X142158956Y-42167789D01*
X142162736Y-42193271D01*
X142164000Y-42219000D01*
X142164000Y-42744000D01*
X142162736Y-42769729D01*
X142158956Y-42795211D01*
X142152697Y-42820200D01*
X142144018Y-42844454D01*
X142133004Y-42867742D01*
X142119761Y-42889837D01*
X142104415Y-42910528D01*
X142087116Y-42929616D01*
X142068028Y-42946915D01*
X142047337Y-42962261D01*
X142025242Y-42975504D01*
X142001954Y-42986518D01*
X141977700Y-42995197D01*
X141952711Y-43001456D01*
X141927229Y-43005236D01*
X141901500Y-43006500D01*
X140926500Y-43006500D01*
X140900771Y-43005236D01*
X140875289Y-43001456D01*
X140850300Y-42995197D01*
X140826046Y-42986518D01*
X140802758Y-42975504D01*
X140780663Y-42962261D01*
X140759972Y-42946915D01*
X140740884Y-42929616D01*
X140723585Y-42910528D01*
X140708239Y-42889837D01*
X140694996Y-42867742D01*
X140683982Y-42844454D01*
X140675303Y-42820200D01*
X140669044Y-42795211D01*
X140665264Y-42769729D01*
X140664000Y-42744000D01*
X140664000Y-42219000D01*
X140665264Y-42193271D01*
X140669044Y-42167789D01*
X140675303Y-42142800D01*
X140683982Y-42118546D01*
X140694996Y-42095258D01*
X140708239Y-42073163D01*
X140723585Y-42052472D01*
X140740884Y-42033384D01*
X140759972Y-42016085D01*
X140780663Y-42000739D01*
X140802758Y-41987496D01*
X140826046Y-41976482D01*
X140850300Y-41967803D01*
X140875289Y-41961544D01*
X140900771Y-41957764D01*
X140926500Y-41956500D01*
X141901500Y-41956500D01*
X141927229Y-41957764D01*
X141927229Y-41957764D01*
G37*
D17*
G04 #@! TO.P,VT3,1*
G04 #@! TO.N,0v*
X141414000Y-42481500D03*
D16*
G04 #@! TD*
G04 #@! TO.N,Net-(D12-Pad1)*
G04 #@! TO.C,VT3*
G36*
X141927229Y-40687764D02*
X141952711Y-40691544D01*
X141977700Y-40697803D01*
X142001954Y-40706482D01*
X142025242Y-40717496D01*
X142047337Y-40730739D01*
X142068028Y-40746085D01*
X142087116Y-40763384D01*
X142104415Y-40782472D01*
X142119761Y-40803163D01*
X142133004Y-40825258D01*
X142144018Y-40848546D01*
X142152697Y-40872800D01*
X142158956Y-40897789D01*
X142162736Y-40923271D01*
X142164000Y-40949000D01*
X142164000Y-41474000D01*
X142162736Y-41499729D01*
X142158956Y-41525211D01*
X142152697Y-41550200D01*
X142144018Y-41574454D01*
X142133004Y-41597742D01*
X142119761Y-41619837D01*
X142104415Y-41640528D01*
X142087116Y-41659616D01*
X142068028Y-41676915D01*
X142047337Y-41692261D01*
X142025242Y-41705504D01*
X142001954Y-41716518D01*
X141977700Y-41725197D01*
X141952711Y-41731456D01*
X141927229Y-41735236D01*
X141901500Y-41736500D01*
X140926500Y-41736500D01*
X140900771Y-41735236D01*
X140875289Y-41731456D01*
X140850300Y-41725197D01*
X140826046Y-41716518D01*
X140802758Y-41705504D01*
X140780663Y-41692261D01*
X140759972Y-41676915D01*
X140740884Y-41659616D01*
X140723585Y-41640528D01*
X140708239Y-41619837D01*
X140694996Y-41597742D01*
X140683982Y-41574454D01*
X140675303Y-41550200D01*
X140669044Y-41525211D01*
X140665264Y-41499729D01*
X140664000Y-41474000D01*
X140664000Y-40949000D01*
X140665264Y-40923271D01*
X140669044Y-40897789D01*
X140675303Y-40872800D01*
X140683982Y-40848546D01*
X140694996Y-40825258D01*
X140708239Y-40803163D01*
X140723585Y-40782472D01*
X140740884Y-40763384D01*
X140759972Y-40746085D01*
X140780663Y-40730739D01*
X140802758Y-40717496D01*
X140826046Y-40706482D01*
X140850300Y-40697803D01*
X140875289Y-40691544D01*
X140900771Y-40687764D01*
X140926500Y-40686500D01*
X141901500Y-40686500D01*
X141927229Y-40687764D01*
X141927229Y-40687764D01*
G37*
D17*
G04 #@! TO.P,VT3,2*
G04 #@! TO.N,Net-(D12-Pad1)*
X141414000Y-41211500D03*
G04 #@! TD*
D18*
G04 #@! TO.N,Net-(D1-Pad2)*
X107315000Y-45720000D02*
X106115000Y-45720000D01*
X104775000Y-48260000D02*
X104775000Y-46960000D01*
X104775000Y-46960000D02*
X104875000Y-46960000D01*
X104875000Y-46960000D02*
X106115000Y-45720000D01*
X107315000Y-45720000D02*
X107315000Y-44520000D01*
X109855000Y-44450000D02*
X108555000Y-44450000D01*
X108555000Y-44450000D02*
X108485000Y-44520000D01*
X108485000Y-44520000D02*
X107315000Y-44520000D01*
G04 #@! TO.N,1*
X104775000Y-55880000D02*
X111823500Y-55880000D01*
X111823500Y-55880000D02*
X114300000Y-58356500D01*
G04 #@! TO.N,2*
X109855000Y-52070000D02*
X111155000Y-52070000D01*
X111155000Y-52070000D02*
X111155000Y-52671500D01*
X111155000Y-52671500D02*
X116840000Y-58356500D01*
G04 #@! TO.N,3*
X120015000Y-52070000D02*
X120015000Y-57721500D01*
X120015000Y-57721500D02*
X119380000Y-58356500D01*
G04 #@! TO.N,4*
X125095000Y-52070000D02*
X125095000Y-53370000D01*
X125095000Y-53370000D02*
X121920000Y-56545000D01*
X121920000Y-56545000D02*
X121920000Y-58356500D01*
G04 #@! TO.N,5*
X135255000Y-53340000D02*
X133656400Y-54938600D01*
X133656400Y-54938600D02*
X127877900Y-54938600D01*
X127877900Y-54938600D02*
X124460000Y-58356500D01*
G04 #@! TO.N,6*
X140335000Y-53340000D02*
X139035000Y-53340000D01*
X139035000Y-53340000D02*
X139035000Y-53746200D01*
X139035000Y-53746200D02*
X134424700Y-58356500D01*
X134424700Y-58356500D02*
X127000000Y-58356500D01*
G04 #@! TO.N,Net-(D8-Pad1)*
X104267000Y-41211500D02*
X103764900Y-41211500D01*
X103764900Y-41211500D02*
X99695000Y-45281400D01*
X99695000Y-45281400D02*
X99695000Y-48260000D01*
G04 #@! TO.N,Net-(D11-Pad1)*
X130175000Y-52070000D02*
X131475000Y-52070000D01*
X131475000Y-52070000D02*
X131475000Y-52100000D01*
X131475000Y-52100000D02*
X132715000Y-53340000D01*
G04 #@! TO.N,Net-(D12-Pad1)*
X141414000Y-41211500D02*
X138891000Y-41211500D01*
X138891000Y-41211500D02*
X135652500Y-44450000D01*
X135652500Y-44450000D02*
X130175000Y-44450000D01*
G04 #@! TO.N,+6v*
X107315000Y-51587000D02*
X100748400Y-51587000D01*
X100748400Y-51587000D02*
X98444600Y-49283200D01*
X98444600Y-49283200D02*
X98444600Y-46036700D01*
X98444600Y-46036700D02*
X98605400Y-45875900D01*
X98605400Y-45875900D02*
X98605400Y-41391900D01*
X98605400Y-41391900D02*
X97155000Y-39941500D01*
X122555000Y-52070000D02*
X121290000Y-50805000D01*
X121290000Y-50805000D02*
X108097000Y-50805000D01*
X108097000Y-50805000D02*
X107315000Y-51587000D01*
X107315000Y-51587000D02*
X107315000Y-53340000D01*
X137795000Y-53340000D02*
X135271500Y-50816500D01*
X135271500Y-50816500D02*
X123808500Y-50816500D01*
X123808500Y-50816500D02*
X122555000Y-52070000D01*
G04 #@! TO.N,-6v*
X97155000Y-55880000D02*
X97155000Y-54680000D01*
X97155000Y-54680000D02*
X95981300Y-53506300D01*
X95981300Y-53506300D02*
X95981300Y-46195200D01*
X95981300Y-46195200D02*
X97155000Y-45021500D01*
G04 #@! TO.N,12*
X134620000Y-39941500D02*
X128587300Y-39941500D01*
X128587300Y-39941500D02*
X127088200Y-41440600D01*
X127088200Y-41440600D02*
X122149100Y-41440600D01*
X122149100Y-41440600D02*
X120650000Y-39941500D01*
G04 #@! TO.N,0v*
X134620000Y-42481500D02*
X104267000Y-42481500D01*
G04 #@! TD*
M02*
