G04 #@! TF.GenerationSoftware,KiCad,Pcbnew,(5.0.0)*
G04 #@! TF.CreationDate,2019-01-17T16:00:18+00:00*
G04 #@! TF.ProjectId,LS01,4C5330312E6B696361645F7063620000,rev?*
G04 #@! TF.SameCoordinates,Original*
G04 #@! TF.FileFunction,Copper,L2,Bot,Signal*
G04 #@! TF.FilePolarity,Positive*
%FSLAX46Y46*%
G04 Gerber Fmt 4.6, Leading zero omitted, Abs format (unit mm)*
G04 Created by KiCad (PCBNEW (5.0.0)) date 01/17/19 16:00:18*
%MOMM*%
%LPD*%
G01*
G04 APERTURE LIST*
G04 #@! TA.AperFunction,ComponentPad*
%ADD10C,1.400000*%
G04 #@! TD*
G04 #@! TA.AperFunction,ComponentPad*
%ADD11O,1.400000X1.400000*%
G04 #@! TD*
G04 #@! TA.AperFunction,ComponentPad*
%ADD12R,1.600000X1.600000*%
G04 #@! TD*
G04 #@! TA.AperFunction,ComponentPad*
%ADD13O,1.600000X1.600000*%
G04 #@! TD*
G04 #@! TA.AperFunction,ComponentPad*
%ADD14C,1.300000*%
G04 #@! TD*
G04 #@! TA.AperFunction,ComponentPad*
%ADD15R,1.300000X1.300000*%
G04 #@! TD*
G04 #@! TA.AperFunction,ComponentPad*
%ADD16C,1.524000*%
G04 #@! TD*
G04 #@! TA.AperFunction,Conductor*
%ADD17C,0.500000*%
G04 #@! TD*
G04 #@! TA.AperFunction,Conductor*
%ADD18C,0.254000*%
G04 #@! TD*
G04 APERTURE END LIST*
D10*
G04 #@! TO.P,R1,1*
G04 #@! TO.N,Net-(D8-Pad1)*
X97155000Y-48260000D03*
D11*
G04 #@! TO.P,R1,2*
G04 #@! TO.N,-6v*
X97155000Y-55880000D03*
G04 #@! TD*
D12*
G04 #@! TO.P,D1,1*
G04 #@! TO.N,1*
X104775000Y-55880000D03*
D13*
G04 #@! TO.P,D1,2*
G04 #@! TO.N,Net-(D1-Pad2)*
X104775000Y-48260000D03*
G04 #@! TD*
D12*
G04 #@! TO.P,D2,1*
G04 #@! TO.N,2*
X109855000Y-52070000D03*
D13*
G04 #@! TO.P,D2,2*
G04 #@! TO.N,Net-(D1-Pad2)*
X109855000Y-44450000D03*
G04 #@! TD*
D12*
G04 #@! TO.P,D3,1*
G04 #@! TO.N,3*
X120015000Y-52070000D03*
D13*
G04 #@! TO.P,D3,2*
G04 #@! TO.N,Net-(D3-Pad2)*
X120015000Y-44450000D03*
G04 #@! TD*
D12*
G04 #@! TO.P,D4,1*
G04 #@! TO.N,4*
X125095000Y-52070000D03*
D13*
G04 #@! TO.P,D4,2*
G04 #@! TO.N,Net-(D3-Pad2)*
X125095000Y-44450000D03*
G04 #@! TD*
D12*
G04 #@! TO.P,D5,1*
G04 #@! TO.N,5*
X135255000Y-53340000D03*
D13*
G04 #@! TO.P,D5,2*
G04 #@! TO.N,Net-(D11-Pad2)*
X135255000Y-45720000D03*
G04 #@! TD*
D12*
G04 #@! TO.P,D6,1*
G04 #@! TO.N,6*
X140335000Y-53340000D03*
D13*
G04 #@! TO.P,D6,2*
G04 #@! TO.N,Net-(D11-Pad2)*
X140335000Y-45720000D03*
G04 #@! TD*
D12*
G04 #@! TO.P,D7,1*
G04 #@! TO.N,Net-(D7-Pad1)*
X102235000Y-55880000D03*
D13*
G04 #@! TO.P,D7,2*
G04 #@! TO.N,Net-(D1-Pad2)*
X102235000Y-48260000D03*
G04 #@! TD*
D12*
G04 #@! TO.P,D8,1*
G04 #@! TO.N,Net-(D8-Pad1)*
X99695000Y-48260000D03*
D13*
G04 #@! TO.P,D8,2*
G04 #@! TO.N,Net-(D7-Pad1)*
X99695000Y-55880000D03*
G04 #@! TD*
D12*
G04 #@! TO.P,D9,1*
G04 #@! TO.N,Net-(D10-Pad2)*
X117475000Y-52070000D03*
D13*
G04 #@! TO.P,D9,2*
G04 #@! TO.N,Net-(D3-Pad2)*
X117475000Y-44450000D03*
G04 #@! TD*
D12*
G04 #@! TO.P,D10,1*
G04 #@! TO.N,Net-(D10-Pad1)*
X114935000Y-44450000D03*
D13*
G04 #@! TO.P,D10,2*
G04 #@! TO.N,Net-(D10-Pad2)*
X114935000Y-52070000D03*
G04 #@! TD*
D12*
G04 #@! TO.P,D11,1*
G04 #@! TO.N,Net-(D11-Pad1)*
X132715000Y-53340000D03*
D13*
G04 #@! TO.P,D11,2*
G04 #@! TO.N,Net-(D11-Pad2)*
X132715000Y-45720000D03*
G04 #@! TD*
D12*
G04 #@! TO.P,D12,1*
G04 #@! TO.N,Net-(D12-Pad1)*
X130175000Y-44450000D03*
D13*
G04 #@! TO.P,D12,2*
G04 #@! TO.N,Net-(D11-Pad1)*
X130175000Y-52070000D03*
G04 #@! TD*
D10*
G04 #@! TO.P,R2,1*
G04 #@! TO.N,+6v*
X107315000Y-53340000D03*
D11*
G04 #@! TO.P,R2,2*
G04 #@! TO.N,Net-(D1-Pad2)*
X107315000Y-45720000D03*
G04 #@! TD*
D10*
G04 #@! TO.P,R3,1*
G04 #@! TO.N,Net-(D10-Pad1)*
X112395000Y-44450000D03*
D11*
G04 #@! TO.P,R3,2*
G04 #@! TO.N,-6v*
X112395000Y-52070000D03*
G04 #@! TD*
D10*
G04 #@! TO.P,R4,1*
G04 #@! TO.N,+6v*
X122555000Y-52070000D03*
D11*
G04 #@! TO.P,R4,2*
G04 #@! TO.N,Net-(D3-Pad2)*
X122555000Y-44450000D03*
G04 #@! TD*
D10*
G04 #@! TO.P,R5,1*
G04 #@! TO.N,Net-(D12-Pad1)*
X127635000Y-44450000D03*
D11*
G04 #@! TO.P,R5,2*
G04 #@! TO.N,-6v*
X127635000Y-52070000D03*
G04 #@! TD*
D10*
G04 #@! TO.P,R6,1*
G04 #@! TO.N,+6v*
X137795000Y-53340000D03*
D11*
G04 #@! TO.P,R6,2*
G04 #@! TO.N,Net-(D11-Pad2)*
X137795000Y-45720000D03*
G04 #@! TD*
D14*
G04 #@! TO.P,VT1,2*
G04 #@! TO.N,Net-(D8-Pad1)*
X104775000Y-41275000D03*
G04 #@! TO.P,VT1,3*
G04 #@! TO.N,11*
X106045000Y-40005000D03*
D15*
G04 #@! TO.P,VT1,1*
G04 #@! TO.N,0v*
X106045000Y-42545000D03*
G04 #@! TD*
D14*
G04 #@! TO.P,VT2,2*
G04 #@! TO.N,Net-(D10-Pad1)*
X133350000Y-41275000D03*
G04 #@! TO.P,VT2,3*
G04 #@! TO.N,12*
X134620000Y-40005000D03*
D15*
G04 #@! TO.P,VT2,1*
G04 #@! TO.N,0v*
X134620000Y-42545000D03*
G04 #@! TD*
D14*
G04 #@! TO.P,VT3,2*
G04 #@! TO.N,Net-(D12-Pad1)*
X141605000Y-41275000D03*
G04 #@! TO.P,VT3,3*
G04 #@! TO.N,13*
X142875000Y-40005000D03*
D15*
G04 #@! TO.P,VT3,1*
G04 #@! TO.N,0v*
X142875000Y-42545000D03*
G04 #@! TD*
D16*
G04 #@! TO.P,J1,21*
G04 #@! TO.N,+6v*
X97155000Y-39941500D03*
G04 #@! TO.P,J1,22*
G04 #@! TO.N,0v*
X97155000Y-42481500D03*
G04 #@! TO.P,J1,23*
G04 #@! TO.N,-6v*
X97155000Y-45021500D03*
G04 #@! TO.P,J1,1*
G04 #@! TO.N,1*
X114300000Y-58356500D03*
G04 #@! TO.P,J1,2*
G04 #@! TO.N,2*
X116840000Y-58356500D03*
G04 #@! TO.P,J1,3*
G04 #@! TO.N,3*
X119380000Y-58356500D03*
G04 #@! TO.P,J1,4*
G04 #@! TO.N,4*
X121920000Y-58356500D03*
G04 #@! TO.P,J1,5*
G04 #@! TO.N,5*
X124460000Y-58356500D03*
G04 #@! TO.P,J1,6*
G04 #@! TO.N,6*
X127000000Y-58356500D03*
G04 #@! TO.P,J1,11*
G04 #@! TO.N,11*
X118110000Y-39941500D03*
G04 #@! TO.P,J1,12*
G04 #@! TO.N,12*
X120650000Y-39941500D03*
G04 #@! TO.P,J1,13*
G04 #@! TO.N,13*
X123190000Y-39941500D03*
G04 #@! TD*
D17*
G04 #@! TO.N,Net-(D1-Pad2)*
X107315000Y-45720000D02*
X107315000Y-44520000D01*
X109855000Y-44450000D02*
X108555000Y-44450000D01*
X108555000Y-44450000D02*
X108485000Y-44520000D01*
X108485000Y-44520000D02*
X107315000Y-44520000D01*
G04 #@! TO.N,2*
X109855000Y-52070000D02*
X111155000Y-52070000D01*
X116840000Y-58356500D02*
X111155000Y-52671500D01*
X111155000Y-52671500D02*
X111155000Y-52070000D01*
G04 #@! TO.N,3*
X120015000Y-52070000D02*
X120015000Y-53370000D01*
X119380000Y-58356500D02*
X119380000Y-54005000D01*
X119380000Y-54005000D02*
X120015000Y-53370000D01*
G04 #@! TO.N,4*
X121920000Y-58356500D02*
X125095000Y-55181500D01*
X125095000Y-55181500D02*
X125095000Y-52070000D01*
G04 #@! TO.N,5*
X124460000Y-58356500D02*
X127193500Y-55623000D01*
X127193500Y-55623000D02*
X132972000Y-55623000D01*
X132972000Y-55623000D02*
X135255000Y-53340000D01*
G04 #@! TO.N,6*
X140335000Y-53340000D02*
X139035000Y-53340000D01*
X127000000Y-58356500D02*
X134424700Y-58356500D01*
X134424700Y-58356500D02*
X139035000Y-53746200D01*
X139035000Y-53746200D02*
X139035000Y-53340000D01*
G04 #@! TO.N,Net-(D10-Pad1)*
X133350000Y-41275000D02*
X118110000Y-41275000D01*
X118110000Y-41275000D02*
X114935000Y-44450000D01*
G04 #@! TO.N,Net-(D11-Pad1)*
X130175000Y-52070000D02*
X131475000Y-52070000D01*
X131475000Y-52070000D02*
X131475000Y-52100000D01*
X131475000Y-52100000D02*
X132715000Y-53340000D01*
G04 #@! TO.N,Net-(D12-Pad1)*
X141605000Y-41275000D02*
X138430000Y-44450000D01*
X138430000Y-44450000D02*
X130175000Y-44450000D01*
G04 #@! TO.N,+6v*
X107315000Y-50815200D02*
X107315000Y-48592000D01*
X107315000Y-48592000D02*
X98664500Y-39941500D01*
X98664500Y-39941500D02*
X97155000Y-39941500D01*
X107315000Y-53340000D02*
X107315000Y-50815200D01*
X122555000Y-52070000D02*
X121300200Y-50815200D01*
X121300200Y-50815200D02*
X107315000Y-50815200D01*
X137795000Y-53340000D02*
X135271500Y-50816500D01*
X135271500Y-50816500D02*
X123808500Y-50816500D01*
X123808500Y-50816500D02*
X122555000Y-52070000D01*
G04 #@! TO.N,-6v*
X97155000Y-55880000D02*
X97155000Y-54680000D01*
X97155000Y-45021500D02*
X98354900Y-46221400D01*
X98354900Y-46221400D02*
X98354900Y-53480100D01*
X98354900Y-53480100D02*
X97155000Y-54680000D01*
G04 #@! TD*
D18*
G04 #@! TO.N,0v*
G36*
X145340000Y-59615000D02*
X127612250Y-59615000D01*
X127791337Y-59540820D01*
X128090657Y-59241500D01*
X134337539Y-59241500D01*
X134424700Y-59258837D01*
X134511861Y-59241500D01*
X134511865Y-59241500D01*
X134770010Y-59190152D01*
X135062749Y-58994549D01*
X135112125Y-58920653D01*
X139293396Y-54739383D01*
X139535000Y-54787440D01*
X141135000Y-54787440D01*
X141382765Y-54738157D01*
X141592809Y-54597809D01*
X141733157Y-54387765D01*
X141782440Y-54140000D01*
X141782440Y-52540000D01*
X141733157Y-52292235D01*
X141592809Y-52082191D01*
X141382765Y-51941843D01*
X141135000Y-51892560D01*
X139535000Y-51892560D01*
X139287235Y-51941843D01*
X139077191Y-52082191D01*
X138936843Y-52292235D01*
X138902681Y-52463982D01*
X138822838Y-52479863D01*
X138551217Y-52208242D01*
X138060548Y-52005000D01*
X137711579Y-52005000D01*
X135958925Y-50252347D01*
X135909549Y-50178451D01*
X135616810Y-49982848D01*
X135358665Y-49931500D01*
X135358661Y-49931500D01*
X135271500Y-49914163D01*
X135184339Y-49931500D01*
X123895661Y-49931500D01*
X123808500Y-49914163D01*
X123721339Y-49931500D01*
X123721335Y-49931500D01*
X123469726Y-49981548D01*
X123463190Y-49982848D01*
X123244345Y-50129076D01*
X123244344Y-50129077D01*
X123170451Y-50178451D01*
X123121077Y-50252344D01*
X122638421Y-50735000D01*
X122471578Y-50735000D01*
X121987625Y-50251047D01*
X121938249Y-50177151D01*
X121645510Y-49981548D01*
X121387365Y-49930200D01*
X121387361Y-49930200D01*
X121300200Y-49912863D01*
X121213039Y-49930200D01*
X108200000Y-49930200D01*
X108200000Y-48679159D01*
X108217337Y-48591999D01*
X108200000Y-48504839D01*
X108200000Y-48504835D01*
X108148652Y-48246690D01*
X107953049Y-47953951D01*
X107879156Y-47904577D01*
X106991356Y-47016777D01*
X107183515Y-47055000D01*
X107446485Y-47055000D01*
X107835891Y-46977542D01*
X108277481Y-46682481D01*
X108572542Y-46240891D01*
X108676154Y-45720000D01*
X108611923Y-45397092D01*
X108744365Y-45370748D01*
X108820423Y-45484577D01*
X109295091Y-45801740D01*
X109713667Y-45885000D01*
X109996333Y-45885000D01*
X110414909Y-45801740D01*
X110889577Y-45484577D01*
X111191423Y-45032832D01*
X111263242Y-45206217D01*
X111638783Y-45581758D01*
X112129452Y-45785000D01*
X112660548Y-45785000D01*
X113151217Y-45581758D01*
X113487560Y-45245415D01*
X113487560Y-45250000D01*
X113536843Y-45497765D01*
X113677191Y-45707809D01*
X113887235Y-45848157D01*
X114135000Y-45897440D01*
X115735000Y-45897440D01*
X115982765Y-45848157D01*
X116192809Y-45707809D01*
X116333157Y-45497765D01*
X116359785Y-45363894D01*
X116440423Y-45484577D01*
X116915091Y-45801740D01*
X117333667Y-45885000D01*
X117616333Y-45885000D01*
X118034909Y-45801740D01*
X118509577Y-45484577D01*
X118745000Y-45132242D01*
X118980423Y-45484577D01*
X119455091Y-45801740D01*
X119873667Y-45885000D01*
X120156333Y-45885000D01*
X120574909Y-45801740D01*
X121049577Y-45484577D01*
X121345134Y-45042244D01*
X121592519Y-45412481D01*
X122034109Y-45707542D01*
X122423515Y-45785000D01*
X122686485Y-45785000D01*
X123075891Y-45707542D01*
X123517481Y-45412481D01*
X123764866Y-45042244D01*
X124060423Y-45484577D01*
X124535091Y-45801740D01*
X124953667Y-45885000D01*
X125236333Y-45885000D01*
X125654909Y-45801740D01*
X126129577Y-45484577D01*
X126431423Y-45032832D01*
X126503242Y-45206217D01*
X126878783Y-45581758D01*
X127369452Y-45785000D01*
X127900548Y-45785000D01*
X128391217Y-45581758D01*
X128727560Y-45245415D01*
X128727560Y-45250000D01*
X128776843Y-45497765D01*
X128917191Y-45707809D01*
X129127235Y-45848157D01*
X129375000Y-45897440D01*
X130975000Y-45897440D01*
X131222765Y-45848157D01*
X131270972Y-45815946D01*
X131363260Y-46279909D01*
X131680423Y-46754577D01*
X132155091Y-47071740D01*
X132573667Y-47155000D01*
X132856333Y-47155000D01*
X133274909Y-47071740D01*
X133749577Y-46754577D01*
X133985000Y-46402242D01*
X134220423Y-46754577D01*
X134695091Y-47071740D01*
X135113667Y-47155000D01*
X135396333Y-47155000D01*
X135814909Y-47071740D01*
X136289577Y-46754577D01*
X136585134Y-46312244D01*
X136832519Y-46682481D01*
X137274109Y-46977542D01*
X137663515Y-47055000D01*
X137926485Y-47055000D01*
X138315891Y-46977542D01*
X138757481Y-46682481D01*
X139004866Y-46312244D01*
X139300423Y-46754577D01*
X139775091Y-47071740D01*
X140193667Y-47155000D01*
X140476333Y-47155000D01*
X140894909Y-47071740D01*
X141369577Y-46754577D01*
X141686740Y-46279909D01*
X141798113Y-45720000D01*
X141686740Y-45160091D01*
X141369577Y-44685423D01*
X140894909Y-44368260D01*
X140476333Y-44285000D01*
X140193667Y-44285000D01*
X139775091Y-44368260D01*
X139739612Y-44391966D01*
X141571579Y-42560000D01*
X141590000Y-42560000D01*
X141590000Y-42672002D01*
X141748748Y-42672002D01*
X141590000Y-42830750D01*
X141590000Y-43321310D01*
X141686673Y-43554699D01*
X141865302Y-43733327D01*
X142098691Y-43830000D01*
X142589250Y-43830000D01*
X142748000Y-43671250D01*
X142748000Y-42672000D01*
X143002000Y-42672000D01*
X143002000Y-43671250D01*
X143160750Y-43830000D01*
X143651309Y-43830000D01*
X143884698Y-43733327D01*
X144063327Y-43554699D01*
X144160000Y-43321310D01*
X144160000Y-42830750D01*
X144001250Y-42672000D01*
X143002000Y-42672000D01*
X142748000Y-42672000D01*
X142728000Y-42672000D01*
X142728000Y-42418000D01*
X142748000Y-42418000D01*
X142748000Y-42398000D01*
X143002000Y-42398000D01*
X143002000Y-42418000D01*
X144001250Y-42418000D01*
X144160000Y-42259250D01*
X144160000Y-41768690D01*
X144063327Y-41535301D01*
X143884698Y-41356673D01*
X143651309Y-41260000D01*
X143203029Y-41260000D01*
X143602894Y-41094371D01*
X143964371Y-40732894D01*
X144160000Y-40260602D01*
X144160000Y-39749398D01*
X143964371Y-39277106D01*
X143602894Y-38915629D01*
X143347882Y-38810000D01*
X145340001Y-38810000D01*
X145340000Y-59615000D01*
X145340000Y-59615000D01*
G37*
X145340000Y-59615000D02*
X127612250Y-59615000D01*
X127791337Y-59540820D01*
X128090657Y-59241500D01*
X134337539Y-59241500D01*
X134424700Y-59258837D01*
X134511861Y-59241500D01*
X134511865Y-59241500D01*
X134770010Y-59190152D01*
X135062749Y-58994549D01*
X135112125Y-58920653D01*
X139293396Y-54739383D01*
X139535000Y-54787440D01*
X141135000Y-54787440D01*
X141382765Y-54738157D01*
X141592809Y-54597809D01*
X141733157Y-54387765D01*
X141782440Y-54140000D01*
X141782440Y-52540000D01*
X141733157Y-52292235D01*
X141592809Y-52082191D01*
X141382765Y-51941843D01*
X141135000Y-51892560D01*
X139535000Y-51892560D01*
X139287235Y-51941843D01*
X139077191Y-52082191D01*
X138936843Y-52292235D01*
X138902681Y-52463982D01*
X138822838Y-52479863D01*
X138551217Y-52208242D01*
X138060548Y-52005000D01*
X137711579Y-52005000D01*
X135958925Y-50252347D01*
X135909549Y-50178451D01*
X135616810Y-49982848D01*
X135358665Y-49931500D01*
X135358661Y-49931500D01*
X135271500Y-49914163D01*
X135184339Y-49931500D01*
X123895661Y-49931500D01*
X123808500Y-49914163D01*
X123721339Y-49931500D01*
X123721335Y-49931500D01*
X123469726Y-49981548D01*
X123463190Y-49982848D01*
X123244345Y-50129076D01*
X123244344Y-50129077D01*
X123170451Y-50178451D01*
X123121077Y-50252344D01*
X122638421Y-50735000D01*
X122471578Y-50735000D01*
X121987625Y-50251047D01*
X121938249Y-50177151D01*
X121645510Y-49981548D01*
X121387365Y-49930200D01*
X121387361Y-49930200D01*
X121300200Y-49912863D01*
X121213039Y-49930200D01*
X108200000Y-49930200D01*
X108200000Y-48679159D01*
X108217337Y-48591999D01*
X108200000Y-48504839D01*
X108200000Y-48504835D01*
X108148652Y-48246690D01*
X107953049Y-47953951D01*
X107879156Y-47904577D01*
X106991356Y-47016777D01*
X107183515Y-47055000D01*
X107446485Y-47055000D01*
X107835891Y-46977542D01*
X108277481Y-46682481D01*
X108572542Y-46240891D01*
X108676154Y-45720000D01*
X108611923Y-45397092D01*
X108744365Y-45370748D01*
X108820423Y-45484577D01*
X109295091Y-45801740D01*
X109713667Y-45885000D01*
X109996333Y-45885000D01*
X110414909Y-45801740D01*
X110889577Y-45484577D01*
X111191423Y-45032832D01*
X111263242Y-45206217D01*
X111638783Y-45581758D01*
X112129452Y-45785000D01*
X112660548Y-45785000D01*
X113151217Y-45581758D01*
X113487560Y-45245415D01*
X113487560Y-45250000D01*
X113536843Y-45497765D01*
X113677191Y-45707809D01*
X113887235Y-45848157D01*
X114135000Y-45897440D01*
X115735000Y-45897440D01*
X115982765Y-45848157D01*
X116192809Y-45707809D01*
X116333157Y-45497765D01*
X116359785Y-45363894D01*
X116440423Y-45484577D01*
X116915091Y-45801740D01*
X117333667Y-45885000D01*
X117616333Y-45885000D01*
X118034909Y-45801740D01*
X118509577Y-45484577D01*
X118745000Y-45132242D01*
X118980423Y-45484577D01*
X119455091Y-45801740D01*
X119873667Y-45885000D01*
X120156333Y-45885000D01*
X120574909Y-45801740D01*
X121049577Y-45484577D01*
X121345134Y-45042244D01*
X121592519Y-45412481D01*
X122034109Y-45707542D01*
X122423515Y-45785000D01*
X122686485Y-45785000D01*
X123075891Y-45707542D01*
X123517481Y-45412481D01*
X123764866Y-45042244D01*
X124060423Y-45484577D01*
X124535091Y-45801740D01*
X124953667Y-45885000D01*
X125236333Y-45885000D01*
X125654909Y-45801740D01*
X126129577Y-45484577D01*
X126431423Y-45032832D01*
X126503242Y-45206217D01*
X126878783Y-45581758D01*
X127369452Y-45785000D01*
X127900548Y-45785000D01*
X128391217Y-45581758D01*
X128727560Y-45245415D01*
X128727560Y-45250000D01*
X128776843Y-45497765D01*
X128917191Y-45707809D01*
X129127235Y-45848157D01*
X129375000Y-45897440D01*
X130975000Y-45897440D01*
X131222765Y-45848157D01*
X131270972Y-45815946D01*
X131363260Y-46279909D01*
X131680423Y-46754577D01*
X132155091Y-47071740D01*
X132573667Y-47155000D01*
X132856333Y-47155000D01*
X133274909Y-47071740D01*
X133749577Y-46754577D01*
X133985000Y-46402242D01*
X134220423Y-46754577D01*
X134695091Y-47071740D01*
X135113667Y-47155000D01*
X135396333Y-47155000D01*
X135814909Y-47071740D01*
X136289577Y-46754577D01*
X136585134Y-46312244D01*
X136832519Y-46682481D01*
X137274109Y-46977542D01*
X137663515Y-47055000D01*
X137926485Y-47055000D01*
X138315891Y-46977542D01*
X138757481Y-46682481D01*
X139004866Y-46312244D01*
X139300423Y-46754577D01*
X139775091Y-47071740D01*
X140193667Y-47155000D01*
X140476333Y-47155000D01*
X140894909Y-47071740D01*
X141369577Y-46754577D01*
X141686740Y-46279909D01*
X141798113Y-45720000D01*
X141686740Y-45160091D01*
X141369577Y-44685423D01*
X140894909Y-44368260D01*
X140476333Y-44285000D01*
X140193667Y-44285000D01*
X139775091Y-44368260D01*
X139739612Y-44391966D01*
X141571579Y-42560000D01*
X141590000Y-42560000D01*
X141590000Y-42672002D01*
X141748748Y-42672002D01*
X141590000Y-42830750D01*
X141590000Y-43321310D01*
X141686673Y-43554699D01*
X141865302Y-43733327D01*
X142098691Y-43830000D01*
X142589250Y-43830000D01*
X142748000Y-43671250D01*
X142748000Y-42672000D01*
X143002000Y-42672000D01*
X143002000Y-43671250D01*
X143160750Y-43830000D01*
X143651309Y-43830000D01*
X143884698Y-43733327D01*
X144063327Y-43554699D01*
X144160000Y-43321310D01*
X144160000Y-42830750D01*
X144001250Y-42672000D01*
X143002000Y-42672000D01*
X142748000Y-42672000D01*
X142728000Y-42672000D01*
X142728000Y-42418000D01*
X142748000Y-42418000D01*
X142748000Y-42398000D01*
X143002000Y-42398000D01*
X143002000Y-42418000D01*
X144001250Y-42418000D01*
X144160000Y-42259250D01*
X144160000Y-41768690D01*
X144063327Y-41535301D01*
X143884698Y-41356673D01*
X143651309Y-41260000D01*
X143203029Y-41260000D01*
X143602894Y-41094371D01*
X143964371Y-40732894D01*
X144160000Y-40260602D01*
X144160000Y-39749398D01*
X143964371Y-39277106D01*
X143602894Y-38915629D01*
X143347882Y-38810000D01*
X145340001Y-38810000D01*
X145340000Y-59615000D01*
G36*
X95970680Y-40732837D02*
X96363663Y-41125820D01*
X96554647Y-41204928D01*
X96423857Y-41259103D01*
X96354392Y-41501287D01*
X97155000Y-42301895D01*
X97955608Y-41501287D01*
X97886143Y-41259103D01*
X97745607Y-41208965D01*
X97946337Y-41125820D01*
X98245657Y-40826500D01*
X98297922Y-40826500D01*
X104352374Y-46880953D01*
X104215091Y-46908260D01*
X103740423Y-47225423D01*
X103505000Y-47577758D01*
X103269577Y-47225423D01*
X102794909Y-46908260D01*
X102376333Y-46825000D01*
X102093667Y-46825000D01*
X101675091Y-46908260D01*
X101200423Y-47225423D01*
X101119785Y-47346106D01*
X101093157Y-47212235D01*
X100952809Y-47002191D01*
X100742765Y-46861843D01*
X100495000Y-46812560D01*
X99239900Y-46812560D01*
X99239900Y-46308561D01*
X99257237Y-46221400D01*
X99239900Y-46134239D01*
X99239900Y-46134235D01*
X99188552Y-45876090D01*
X99169888Y-45848157D01*
X99042324Y-45657245D01*
X99042323Y-45657244D01*
X98992949Y-45583351D01*
X98919056Y-45533977D01*
X98552000Y-45166921D01*
X98552000Y-44743619D01*
X98339320Y-44230163D01*
X97946337Y-43837180D01*
X97755353Y-43758072D01*
X97886143Y-43703897D01*
X97955608Y-43461713D01*
X97155000Y-42661105D01*
X96354392Y-43461713D01*
X96423857Y-43703897D01*
X96564393Y-43754035D01*
X96363663Y-43837180D01*
X95970680Y-44230163D01*
X95960000Y-44255947D01*
X95960000Y-43220501D01*
X96174787Y-43282108D01*
X96975395Y-42481500D01*
X97334605Y-42481500D01*
X98135213Y-43282108D01*
X98377397Y-43212643D01*
X98564144Y-42689198D01*
X98536362Y-42134132D01*
X98377397Y-41750357D01*
X98135213Y-41680892D01*
X97334605Y-42481500D01*
X96975395Y-42481500D01*
X96174787Y-41680892D01*
X95960000Y-41742499D01*
X95960000Y-40707053D01*
X95970680Y-40732837D01*
X95970680Y-40732837D01*
G37*
X95970680Y-40732837D02*
X96363663Y-41125820D01*
X96554647Y-41204928D01*
X96423857Y-41259103D01*
X96354392Y-41501287D01*
X97155000Y-42301895D01*
X97955608Y-41501287D01*
X97886143Y-41259103D01*
X97745607Y-41208965D01*
X97946337Y-41125820D01*
X98245657Y-40826500D01*
X98297922Y-40826500D01*
X104352374Y-46880953D01*
X104215091Y-46908260D01*
X103740423Y-47225423D01*
X103505000Y-47577758D01*
X103269577Y-47225423D01*
X102794909Y-46908260D01*
X102376333Y-46825000D01*
X102093667Y-46825000D01*
X101675091Y-46908260D01*
X101200423Y-47225423D01*
X101119785Y-47346106D01*
X101093157Y-47212235D01*
X100952809Y-47002191D01*
X100742765Y-46861843D01*
X100495000Y-46812560D01*
X99239900Y-46812560D01*
X99239900Y-46308561D01*
X99257237Y-46221400D01*
X99239900Y-46134239D01*
X99239900Y-46134235D01*
X99188552Y-45876090D01*
X99169888Y-45848157D01*
X99042324Y-45657245D01*
X99042323Y-45657244D01*
X98992949Y-45583351D01*
X98919056Y-45533977D01*
X98552000Y-45166921D01*
X98552000Y-44743619D01*
X98339320Y-44230163D01*
X97946337Y-43837180D01*
X97755353Y-43758072D01*
X97886143Y-43703897D01*
X97955608Y-43461713D01*
X97155000Y-42661105D01*
X96354392Y-43461713D01*
X96423857Y-43703897D01*
X96564393Y-43754035D01*
X96363663Y-43837180D01*
X95970680Y-44230163D01*
X95960000Y-44255947D01*
X95960000Y-43220501D01*
X96174787Y-43282108D01*
X96975395Y-42481500D01*
X97334605Y-42481500D01*
X98135213Y-43282108D01*
X98377397Y-43212643D01*
X98564144Y-42689198D01*
X98536362Y-42134132D01*
X98377397Y-41750357D01*
X98135213Y-41680892D01*
X97334605Y-42481500D01*
X96975395Y-42481500D01*
X96174787Y-41680892D01*
X95960000Y-41742499D01*
X95960000Y-40707053D01*
X95970680Y-40732837D01*
G36*
X105317106Y-38915629D02*
X104955629Y-39277106D01*
X104760000Y-39749398D01*
X104760000Y-39990000D01*
X104519398Y-39990000D01*
X104047106Y-40185629D01*
X103685629Y-40547106D01*
X103490000Y-41019398D01*
X103490000Y-41530602D01*
X103685629Y-42002894D01*
X104047106Y-42364371D01*
X104519398Y-42560000D01*
X104760000Y-42560000D01*
X104760000Y-42672002D01*
X104918748Y-42672002D01*
X104760000Y-42830750D01*
X104760000Y-43321310D01*
X104856673Y-43554699D01*
X105035302Y-43733327D01*
X105268691Y-43830000D01*
X105759250Y-43830000D01*
X105918000Y-43671250D01*
X105918000Y-42672000D01*
X105898000Y-42672000D01*
X105898000Y-42418000D01*
X105918000Y-42418000D01*
X105918000Y-42398000D01*
X106172000Y-42398000D01*
X106172000Y-42418000D01*
X107171250Y-42418000D01*
X107330000Y-42259250D01*
X107330000Y-41768690D01*
X107233327Y-41535301D01*
X107054698Y-41356673D01*
X106821309Y-41260000D01*
X106373029Y-41260000D01*
X106772894Y-41094371D01*
X107134371Y-40732894D01*
X107330000Y-40260602D01*
X107330000Y-39749398D01*
X107134371Y-39277106D01*
X106772894Y-38915629D01*
X106517882Y-38810000D01*
X117265843Y-38810000D01*
X116925680Y-39150163D01*
X116713000Y-39663619D01*
X116713000Y-40219381D01*
X116925680Y-40732837D01*
X117163132Y-40970289D01*
X115130862Y-43002560D01*
X114135000Y-43002560D01*
X113887235Y-43051843D01*
X113677191Y-43192191D01*
X113536843Y-43402235D01*
X113487560Y-43650000D01*
X113487560Y-43654585D01*
X113151217Y-43318242D01*
X112660548Y-43115000D01*
X112129452Y-43115000D01*
X111638783Y-43318242D01*
X111263242Y-43693783D01*
X111191423Y-43867168D01*
X110889577Y-43415423D01*
X110414909Y-43098260D01*
X109996333Y-43015000D01*
X109713667Y-43015000D01*
X109295091Y-43098260D01*
X108820423Y-43415423D01*
X108720479Y-43565000D01*
X108642161Y-43565000D01*
X108555000Y-43547663D01*
X108467839Y-43565000D01*
X108467835Y-43565000D01*
X108209690Y-43616348D01*
X108181775Y-43635000D01*
X107402165Y-43635000D01*
X107315000Y-43617662D01*
X107227836Y-43635000D01*
X107227835Y-43635000D01*
X107134450Y-43653575D01*
X107233327Y-43554699D01*
X107330000Y-43321310D01*
X107330000Y-42830750D01*
X107171250Y-42672000D01*
X106172000Y-42672000D01*
X106172000Y-43671250D01*
X106330750Y-43830000D01*
X106754701Y-43830000D01*
X106676951Y-43881951D01*
X106481348Y-44174690D01*
X106412662Y-44520000D01*
X106430001Y-44607169D01*
X106430001Y-44705747D01*
X106352519Y-44757519D01*
X106057458Y-45199109D01*
X105953846Y-45720000D01*
X106018223Y-46043644D01*
X99351925Y-39377347D01*
X99302549Y-39303451D01*
X99009810Y-39107848D01*
X98751665Y-39056500D01*
X98751661Y-39056500D01*
X98664500Y-39039163D01*
X98577339Y-39056500D01*
X98245657Y-39056500D01*
X97999157Y-38810000D01*
X105572118Y-38810000D01*
X105317106Y-38915629D01*
X105317106Y-38915629D01*
G37*
X105317106Y-38915629D02*
X104955629Y-39277106D01*
X104760000Y-39749398D01*
X104760000Y-39990000D01*
X104519398Y-39990000D01*
X104047106Y-40185629D01*
X103685629Y-40547106D01*
X103490000Y-41019398D01*
X103490000Y-41530602D01*
X103685629Y-42002894D01*
X104047106Y-42364371D01*
X104519398Y-42560000D01*
X104760000Y-42560000D01*
X104760000Y-42672002D01*
X104918748Y-42672002D01*
X104760000Y-42830750D01*
X104760000Y-43321310D01*
X104856673Y-43554699D01*
X105035302Y-43733327D01*
X105268691Y-43830000D01*
X105759250Y-43830000D01*
X105918000Y-43671250D01*
X105918000Y-42672000D01*
X105898000Y-42672000D01*
X105898000Y-42418000D01*
X105918000Y-42418000D01*
X105918000Y-42398000D01*
X106172000Y-42398000D01*
X106172000Y-42418000D01*
X107171250Y-42418000D01*
X107330000Y-42259250D01*
X107330000Y-41768690D01*
X107233327Y-41535301D01*
X107054698Y-41356673D01*
X106821309Y-41260000D01*
X106373029Y-41260000D01*
X106772894Y-41094371D01*
X107134371Y-40732894D01*
X107330000Y-40260602D01*
X107330000Y-39749398D01*
X107134371Y-39277106D01*
X106772894Y-38915629D01*
X106517882Y-38810000D01*
X117265843Y-38810000D01*
X116925680Y-39150163D01*
X116713000Y-39663619D01*
X116713000Y-40219381D01*
X116925680Y-40732837D01*
X117163132Y-40970289D01*
X115130862Y-43002560D01*
X114135000Y-43002560D01*
X113887235Y-43051843D01*
X113677191Y-43192191D01*
X113536843Y-43402235D01*
X113487560Y-43650000D01*
X113487560Y-43654585D01*
X113151217Y-43318242D01*
X112660548Y-43115000D01*
X112129452Y-43115000D01*
X111638783Y-43318242D01*
X111263242Y-43693783D01*
X111191423Y-43867168D01*
X110889577Y-43415423D01*
X110414909Y-43098260D01*
X109996333Y-43015000D01*
X109713667Y-43015000D01*
X109295091Y-43098260D01*
X108820423Y-43415423D01*
X108720479Y-43565000D01*
X108642161Y-43565000D01*
X108555000Y-43547663D01*
X108467839Y-43565000D01*
X108467835Y-43565000D01*
X108209690Y-43616348D01*
X108181775Y-43635000D01*
X107402165Y-43635000D01*
X107315000Y-43617662D01*
X107227836Y-43635000D01*
X107227835Y-43635000D01*
X107134450Y-43653575D01*
X107233327Y-43554699D01*
X107330000Y-43321310D01*
X107330000Y-42830750D01*
X107171250Y-42672000D01*
X106172000Y-42672000D01*
X106172000Y-43671250D01*
X106330750Y-43830000D01*
X106754701Y-43830000D01*
X106676951Y-43881951D01*
X106481348Y-44174690D01*
X106412662Y-44520000D01*
X106430001Y-44607169D01*
X106430001Y-44705747D01*
X106352519Y-44757519D01*
X106057458Y-45199109D01*
X105953846Y-45720000D01*
X106018223Y-46043644D01*
X99351925Y-39377347D01*
X99302549Y-39303451D01*
X99009810Y-39107848D01*
X98751665Y-39056500D01*
X98751661Y-39056500D01*
X98664500Y-39039163D01*
X98577339Y-39056500D01*
X98245657Y-39056500D01*
X97999157Y-38810000D01*
X105572118Y-38810000D01*
X105317106Y-38915629D01*
G36*
X142147106Y-38915629D02*
X141785629Y-39277106D01*
X141590000Y-39749398D01*
X141590000Y-39990000D01*
X141349398Y-39990000D01*
X140877106Y-40185629D01*
X140515629Y-40547106D01*
X140320000Y-41019398D01*
X140320000Y-41308421D01*
X138063422Y-43565000D01*
X135798026Y-43565000D01*
X135808327Y-43554699D01*
X135905000Y-43321310D01*
X135905000Y-42830750D01*
X135746250Y-42672000D01*
X134747000Y-42672000D01*
X134747000Y-42692000D01*
X134493000Y-42692000D01*
X134493000Y-42672000D01*
X134473000Y-42672000D01*
X134473000Y-42418000D01*
X134493000Y-42418000D01*
X134493000Y-42398000D01*
X134747000Y-42398000D01*
X134747000Y-42418000D01*
X135746250Y-42418000D01*
X135905000Y-42259250D01*
X135905000Y-41768690D01*
X135808327Y-41535301D01*
X135629698Y-41356673D01*
X135396309Y-41260000D01*
X134948029Y-41260000D01*
X135347894Y-41094371D01*
X135709371Y-40732894D01*
X135905000Y-40260602D01*
X135905000Y-39749398D01*
X135709371Y-39277106D01*
X135347894Y-38915629D01*
X135092882Y-38810000D01*
X142402118Y-38810000D01*
X142147106Y-38915629D01*
X142147106Y-38915629D01*
G37*
X142147106Y-38915629D02*
X141785629Y-39277106D01*
X141590000Y-39749398D01*
X141590000Y-39990000D01*
X141349398Y-39990000D01*
X140877106Y-40185629D01*
X140515629Y-40547106D01*
X140320000Y-41019398D01*
X140320000Y-41308421D01*
X138063422Y-43565000D01*
X135798026Y-43565000D01*
X135808327Y-43554699D01*
X135905000Y-43321310D01*
X135905000Y-42830750D01*
X135746250Y-42672000D01*
X134747000Y-42672000D01*
X134747000Y-42692000D01*
X134493000Y-42692000D01*
X134493000Y-42672000D01*
X134473000Y-42672000D01*
X134473000Y-42418000D01*
X134493000Y-42418000D01*
X134493000Y-42398000D01*
X134747000Y-42398000D01*
X134747000Y-42418000D01*
X135746250Y-42418000D01*
X135905000Y-42259250D01*
X135905000Y-41768690D01*
X135808327Y-41535301D01*
X135629698Y-41356673D01*
X135396309Y-41260000D01*
X134948029Y-41260000D01*
X135347894Y-41094371D01*
X135709371Y-40732894D01*
X135905000Y-40260602D01*
X135905000Y-39749398D01*
X135709371Y-39277106D01*
X135347894Y-38915629D01*
X135092882Y-38810000D01*
X142402118Y-38810000D01*
X142147106Y-38915629D01*
G04 #@! TD*
M02*
